<?xml version="1.0" encoding="UTF-8" standalone="no"?>
<!DOCTYPE svg PUBLIC "-//W3C//DTD SVG 1.1//EN"
 "http://www.w3.org/Graphics/SVG/1.1/DTD/svg11.dtd">
<!-- Generated by graphviz version 2.43.0 (0)
 -->
<!-- Title: oneDegreeRelationshipsDiagram Pages: 1 -->
<svg width="336pt" height="269pt"
 viewBox="0.00 0.00 336.00 269.00" xmlns="http://www.w3.org/2000/svg" xmlns:xlink="http://www.w3.org/1999/xlink">
<g id="graph0" class="graph" transform="scale(1 1) rotate(0) translate(4 265)">
<title>oneDegreeRelationshipsDiagram</title>
<polygon fill="#ffffff" stroke="transparent" points="-4,4 -4,-265 332,-265 332,4 -4,4"/>
<text text-anchor="middle" x="79.5" y="-7.2" font-family="Helvetica,sans-Serif" font-size="11.00">Generated by SchemaSpy</text>
<!-- pum_migrations -->
<g id="node1" class="node">
<title>pum_migrations</title>
<g id="a_node1"><a xlink:href="../../tables/pum_migrations.html" xlink:title="pum_migrations" target="_top">
<polygon fill="#ffffff" stroke="transparent" points="8,-37 8,-257 320,-257 320,-37 8,-37"/>
<polygon fill="#f5f5f5" stroke="transparent" points="10,-233 10,-255 318,-255 318,-233 10,-233"/>
<polygon fill="none" stroke="black" points="10,-233 10,-255 318,-255 318,-233 10,-233"/>
<text text-anchor="start" x="15" y="-242.2" font-family="Helvetica,sans-Serif" font-weight="bold" font-size="11.00">pum_migrations</text>
<text text-anchor="start" x="276" y="-241.2" font-family="Helvetica,sans-Serif" font-size="11.00">[table]</text>
<polygon fill="none" stroke="black" points="10,-211 10,-233 206,-233 206,-211 10,-211"/>
<image xlink:href="../../images/primaryKeys.png" width="11px" height="12px" preserveAspectRatio="xMinYMin meet" x="15" y="-228"/>
<text text-anchor="start" x="30" y="-219.2" font-family="Helvetica,sans-Serif" font-size="11.00">id</text>
<polygon fill="none" stroke="black" points="206,-211 206,-233 318,-233 318,-211 206,-211"/>
<text text-anchor="start" x="209" y="-219.2" font-family="Helvetica,sans-Serif" font-size="11.00">uuid[2147483647]</text>
<polygon fill="none" stroke="black" points="10,-189 10,-211 206,-211 206,-189 10,-189"/>
<text text-anchor="start" x="30" y="-197.2" font-family="Helvetica,sans-Serif" font-size="11.00">date_installed</text>
<polygon fill="none" stroke="black" points="206,-189 206,-211 318,-211 318,-189 206,-189"/>
<text text-anchor="start" x="209" y="-197.2" font-family="Helvetica,sans-Serif" font-size="11.00">timestamp[29,6]</text>
<polygon fill="none" stroke="black" points="10,-167 10,-189 206,-189 206,-167 10,-167"/>
<text text-anchor="start" x="30" y="-175.2" font-family="Helvetica,sans-Serif" font-size="11.00">module</text>
<polygon fill="none" stroke="black" points="206,-167 206,-189 318,-189 318,-167 206,-167"/>
<text text-anchor="start" x="209" y="-175.2" font-family="Helvetica,sans-Serif" font-size="11.00">varchar[50]</text>
<polygon fill="none" stroke="black" points="10,-145 10,-167 206,-167 206,-145 10,-145"/>
<text text-anchor="start" x="30" y="-153.2" font-family="Helvetica,sans-Serif" font-size="11.00">version</text>
<polygon fill="none" stroke="black" points="206,-145 206,-167 318,-167 318,-145 206,-145"/>
<text text-anchor="start" x="209" y="-153.2" font-family="Helvetica,sans-Serif" font-size="11.00">varchar[50]</text>
<polygon fill="none" stroke="black" points="10,-123 10,-145 206,-145 206,-123 10,-123"/>
<text text-anchor="start" x="30" y="-131.2" font-family="Helvetica,sans-Serif" font-size="11.00">beta_testing</text>
<polygon fill="none" stroke="black" points="206,-123 206,-145 318,-145 318,-123 206,-123"/>
<text text-anchor="start" x="209" y="-131.2" font-family="Helvetica,sans-Serif" font-size="11.00">bool[1]</text>
<polygon fill="none" stroke="black" points="10,-101 10,-123 206,-123 206,-101 10,-101"/>
<text text-anchor="start" x="30" y="-109.2" font-family="Helvetica,sans-Serif" font-size="11.00">changelog_files</text>
<polygon fill="none" stroke="black" points="206,-101 206,-123 318,-123 318,-101 206,-101"/>
<text text-anchor="start" x="209" y="-109.2" font-family="Helvetica,sans-Serif" font-size="11.00">_text[2147483647]</text>
<polygon fill="none" stroke="black" points="10,-79 10,-101 206,-101 206,-79 10,-79"/>
<text text-anchor="start" x="30" y="-87.2" font-family="Helvetica,sans-Serif" font-size="11.00">parameters</text>
<polygon fill="none" stroke="black" points="206,-79 206,-101 318,-101 318,-79 206,-79"/>
<text text-anchor="start" x="209" y="-87.2" font-family="Helvetica,sans-Serif" font-size="11.00">jsonb[2147483647]</text>
<polygon fill="none" stroke="black" points="10,-57 10,-79 206,-79 206,-57 10,-57"/>
<text text-anchor="start" x="30" y="-65.2" font-family="Helvetica,sans-Serif" font-size="11.00">migration_table_version</text>
<polygon fill="none" stroke="black" points="206,-57 206,-79 318,-79 318,-57 206,-57"/>
<text text-anchor="start" x="209" y="-65.2" font-family="Helvetica,sans-Serif" font-size="11.00">varchar[50]</text>
<polygon fill="#ffffff" stroke="transparent" points="10,-39 10,-57 318,-57 318,-39 10,-39"/>
<polygon fill="none" stroke="black" points="10,-39 10,-57 318,-57 318,-39 10,-39"/>
<polygon fill="#ffffff" stroke="transparent" points="11,-40 11,-56 117,-56 117,-40 11,-40"/>
<text text-anchor="start" x="13" y="-45.2" font-family="Helvetica,sans-Serif" font-size="11.00">&lt; 0</text>
<polygon fill="#ffffff" stroke="transparent" points="117,-40 117,-56 211,-56 211,-40 117,-40"/>
<text text-anchor="start" x="160" y="-45.2" font-family="Helvetica,sans-Serif" font-size="11.00"> &#160;</text>
<polygon fill="#ffffff" stroke="transparent" points="211,-40 211,-56 317,-56 317,-40 211,-40"/>
<text text-anchor="start" x="295" y="-45.2" font-family="Helvetica,sans-Serif" font-size="11.00">0 &gt;</text>
<polygon fill="black" stroke="black" points="117,-40 117,-56 117,-56 117,-40 117,-40"/>
<polygon fill="black" stroke="black" points="211,-40 211,-56 211,-56 211,-40 211,-40"/>
<polygon fill="none" stroke="black" stroke-width="2" points="9,-38 9,-256 319,-256 319,-38 9,-38"/>
</a>
</g>
</g>
</g>
</svg>
