<?xml version="1.0" encoding="UTF-8" standalone="no"?>
<!DOCTYPE svg PUBLIC "-//W3C//DTD SVG 1.1//EN"
 "http://www.w3.org/Graphics/SVG/1.1/DTD/svg11.dtd">
<!-- Generated by graphviz version 2.47.1 (20210515.0534)
 -->
<!-- Title: oneDegreeRelationshipsDiagram Pages: 1 -->
<svg width="416pt" height="379pt"
 viewBox="0.00 0.00 416.00 379.00" xmlns="http://www.w3.org/2000/svg" xmlns:xlink="http://www.w3.org/1999/xlink">
<g id="graph0" class="graph" transform="scale(1 1) rotate(0) translate(4 375)">
<title>oneDegreeRelationshipsDiagram</title>
<polygon fill="#ffffff" stroke="transparent" points="-4,4 -4,-375 412,-375 412,4 -4,4"/>
<text text-anchor="middle" x="73.5" y="-7.2" font-family="Helvetica,sans-Serif" font-size="11.00">Generated by SchemaSpy</text>
<!-- tww_od.access_aid -->
<g id="node1" class="node">
<title>tww_od.access_aid</title>
<g id="a_node1"><a xlink:href="../../../tww_od/tables/access_aid.html" xlink:title="tww_od.access_aid" target="_top">
<polygon fill="#ffffff" stroke="transparent" points="245,-285 245,-365 400,-365 400,-285 245,-285"/>
<polygon fill="#f5f5f5" stroke="transparent" points="245.5,-343 245.5,-365 400.5,-365 400.5,-343 245.5,-343"/>
<polygon fill="none" stroke="black" points="245.5,-343 245.5,-365 400.5,-365 400.5,-343 245.5,-343"/>
<text text-anchor="start" x="250.5" y="-352.2" font-family="Helvetica,sans-Serif" font-weight="bold" font-size="11.00">tww_od.access_aid</text>
<text text-anchor="start" x="361.5" y="-351.2" font-family="Helvetica,sans-Serif" font-size="11.00">[table]</text>
<polygon fill="none" stroke="black" points="245.5,-321 245.5,-343 400.5,-343 400.5,-321 245.5,-321"/>
<image xlink:href="../../images/foreignKeys.png" width="11px" height="12px" preserveAspectRatio="xMinYMin meet" x="250.5" y="-338"/>
<text text-anchor="start" x="301.5" y="-329.2" font-family="Helvetica,sans-Serif" font-size="11.00">kind</text>
<polygon fill="none" stroke="black" points="245.5,-303 245.5,-321 400.5,-321 400.5,-303 245.5,-303"/>
<text text-anchor="start" x="248.5" y="-309.2" font-family="Helvetica,sans-Serif" font-size="11.00">...</text>
<polygon fill="#ffffff" stroke="transparent" points="245.5,-285 245.5,-303 307.5,-303 307.5,-285 245.5,-285"/>
<polygon fill="none" stroke="black" points="245.5,-285 245.5,-303 307.5,-303 307.5,-285 245.5,-285"/>
<text text-anchor="start" x="248.5" y="-291.2" font-family="Helvetica,sans-Serif" font-size="11.00">&lt; 1</text>
<polygon fill="#ffffff" stroke="transparent" points="307.5,-285 307.5,-303 367.5,-303 367.5,-285 307.5,-285"/>
<polygon fill="none" stroke="black" points="307.5,-285 307.5,-303 367.5,-303 367.5,-285 307.5,-285"/>
<text text-anchor="start" x="330.5" y="-291.2" font-family="Helvetica,sans-Serif" font-size="11.00">0 rows</text>
<polygon fill="#ffffff" stroke="transparent" points="367.5,-285 367.5,-303 400.5,-303 400.5,-285 367.5,-285"/>
<polygon fill="none" stroke="black" points="367.5,-285 367.5,-303 400.5,-303 400.5,-285 367.5,-285"/>
<text text-anchor="start" x="390.5" y="-291.2" font-family="Helvetica,sans-Serif" font-size="11.00"> &#160;</text>
</a>
</g>
</g>
<!-- access_aid_kind -->
<g id="node2" class="node">
<title>access_aid_kind</title>
<g id="a_node2"><a xlink:href="../../tables/access_aid_kind.html" xlink:title="access_aid_kind" target="_top">
<polygon fill="#ffffff" stroke="transparent" points="8,-37 8,-367 196,-367 196,-37 8,-37"/>
<polygon fill="#f5f5f5" stroke="transparent" points="10,-343 10,-365 194,-365 194,-343 10,-343"/>
<polygon fill="none" stroke="black" points="10,-343 10,-365 194,-365 194,-343 10,-343"/>
<text text-anchor="start" x="15" y="-352.2" font-family="Helvetica,sans-Serif" font-weight="bold" font-size="11.00">access_aid_kind</text>
<text text-anchor="start" x="155" y="-351.2" font-family="Helvetica,sans-Serif" font-size="11.00">[table]</text>
<polygon fill="none" stroke="black" points="10,-321 10,-343 124,-343 124,-321 10,-321"/>
<image xlink:href="../../images/primaryKeys.png" width="11px" height="12px" preserveAspectRatio="xMinYMin meet" x="15" y="-338"/>
<text text-anchor="start" x="30" y="-329.2" font-family="Helvetica,sans-Serif" font-size="11.00">code</text>
<polygon fill="none" stroke="black" points="124,-321 124,-343 194,-343 194,-321 124,-321"/>
<text text-anchor="start" x="127" y="-329.2" font-family="Helvetica,sans-Serif" font-size="11.00">int4[10]</text>
<polygon fill="none" stroke="black" points="10,-299 10,-321 124,-321 124,-299 10,-299"/>
<text text-anchor="start" x="30" y="-307.2" font-family="Helvetica,sans-Serif" font-size="11.00">vsacode</text>
<polygon fill="none" stroke="black" points="124,-299 124,-321 194,-321 194,-299 124,-299"/>
<text text-anchor="start" x="127" y="-307.2" font-family="Helvetica,sans-Serif" font-size="11.00">int4[10]</text>
<polygon fill="none" stroke="black" points="10,-277 10,-299 124,-299 124,-277 10,-277"/>
<text text-anchor="start" x="30" y="-285.2" font-family="Helvetica,sans-Serif" font-size="11.00">value_en</text>
<polygon fill="none" stroke="black" points="124,-277 124,-299 194,-299 194,-277 124,-277"/>
<text text-anchor="start" x="127" y="-285.2" font-family="Helvetica,sans-Serif" font-size="11.00">varchar[100]</text>
<polygon fill="none" stroke="black" points="10,-255 10,-277 124,-277 124,-255 10,-255"/>
<text text-anchor="start" x="30" y="-263.2" font-family="Helvetica,sans-Serif" font-size="11.00">value_de</text>
<polygon fill="none" stroke="black" points="124,-255 124,-277 194,-277 194,-255 124,-255"/>
<text text-anchor="start" x="127" y="-263.2" font-family="Helvetica,sans-Serif" font-size="11.00">varchar[100]</text>
<polygon fill="none" stroke="black" points="10,-233 10,-255 124,-255 124,-233 10,-233"/>
<text text-anchor="start" x="30" y="-241.2" font-family="Helvetica,sans-Serif" font-size="11.00">value_fr</text>
<polygon fill="none" stroke="black" points="124,-233 124,-255 194,-255 194,-233 124,-233"/>
<text text-anchor="start" x="127" y="-241.2" font-family="Helvetica,sans-Serif" font-size="11.00">varchar[100]</text>
<polygon fill="none" stroke="black" points="10,-211 10,-233 124,-233 124,-211 10,-211"/>
<text text-anchor="start" x="30" y="-219.2" font-family="Helvetica,sans-Serif" font-size="11.00">value_it</text>
<polygon fill="none" stroke="black" points="124,-211 124,-233 194,-233 194,-211 124,-211"/>
<text text-anchor="start" x="127" y="-219.2" font-family="Helvetica,sans-Serif" font-size="11.00">varchar[100]</text>
<polygon fill="none" stroke="black" points="10,-189 10,-211 124,-211 124,-189 10,-189"/>
<text text-anchor="start" x="30" y="-197.2" font-family="Helvetica,sans-Serif" font-size="11.00">value_ro</text>
<polygon fill="none" stroke="black" points="124,-189 124,-211 194,-211 194,-189 124,-189"/>
<text text-anchor="start" x="127" y="-197.2" font-family="Helvetica,sans-Serif" font-size="11.00">varchar[100]</text>
<polygon fill="none" stroke="black" points="10,-167 10,-189 124,-189 124,-167 10,-167"/>
<text text-anchor="start" x="30" y="-175.2" font-family="Helvetica,sans-Serif" font-size="11.00">abbr_en</text>
<polygon fill="none" stroke="black" points="124,-167 124,-189 194,-189 194,-167 124,-167"/>
<text text-anchor="start" x="127" y="-175.2" font-family="Helvetica,sans-Serif" font-size="11.00">varchar[3]</text>
<polygon fill="none" stroke="black" points="10,-145 10,-167 124,-167 124,-145 10,-145"/>
<text text-anchor="start" x="30" y="-153.2" font-family="Helvetica,sans-Serif" font-size="11.00">abbr_de</text>
<polygon fill="none" stroke="black" points="124,-145 124,-167 194,-167 194,-145 124,-145"/>
<text text-anchor="start" x="127" y="-153.2" font-family="Helvetica,sans-Serif" font-size="11.00">varchar[3]</text>
<polygon fill="none" stroke="black" points="10,-123 10,-145 124,-145 124,-123 10,-123"/>
<text text-anchor="start" x="30" y="-131.2" font-family="Helvetica,sans-Serif" font-size="11.00">abbr_fr</text>
<polygon fill="none" stroke="black" points="124,-123 124,-145 194,-145 194,-123 124,-123"/>
<text text-anchor="start" x="127" y="-131.2" font-family="Helvetica,sans-Serif" font-size="11.00">varchar[3]</text>
<polygon fill="none" stroke="black" points="10,-101 10,-123 124,-123 124,-101 10,-101"/>
<text text-anchor="start" x="30" y="-109.2" font-family="Helvetica,sans-Serif" font-size="11.00">abbr_it</text>
<polygon fill="none" stroke="black" points="124,-101 124,-123 194,-123 194,-101 124,-101"/>
<text text-anchor="start" x="127" y="-109.2" font-family="Helvetica,sans-Serif" font-size="11.00">varchar[3]</text>
<polygon fill="none" stroke="black" points="10,-79 10,-101 124,-101 124,-79 10,-79"/>
<text text-anchor="start" x="30" y="-87.2" font-family="Helvetica,sans-Serif" font-size="11.00">abbr_ro</text>
<polygon fill="none" stroke="black" points="124,-79 124,-101 194,-101 194,-79 124,-79"/>
<text text-anchor="start" x="127" y="-87.2" font-family="Helvetica,sans-Serif" font-size="11.00">varchar[3]</text>
<polygon fill="none" stroke="black" points="10,-57 10,-79 124,-79 124,-57 10,-57"/>
<text text-anchor="start" x="30" y="-65.2" font-family="Helvetica,sans-Serif" font-size="11.00">active</text>
<polygon fill="none" stroke="black" points="124,-57 124,-79 194,-79 194,-57 124,-57"/>
<text text-anchor="start" x="127" y="-65.2" font-family="Helvetica,sans-Serif" font-size="11.00">bool[1]</text>
<polygon fill="#ffffff" stroke="transparent" points="10,-39 10,-57 71,-57 71,-39 10,-39"/>
<polygon fill="none" stroke="black" points="10,-39 10,-57 71,-57 71,-39 10,-39"/>
<text text-anchor="start" x="13" y="-45.2" font-family="Helvetica,sans-Serif" font-size="11.00">&lt; 0</text>
<polygon fill="#ffffff" stroke="transparent" points="71,-39 71,-57 124,-57 124,-39 71,-39"/>
<polygon fill="none" stroke="black" points="71,-39 71,-57 124,-57 124,-39 71,-39"/>
<text text-anchor="start" x="114" y="-45.2" font-family="Helvetica,sans-Serif" font-size="11.00"> &#160;</text>
<polygon fill="#ffffff" stroke="transparent" points="124,-39 124,-57 194,-57 194,-39 124,-39"/>
<polygon fill="none" stroke="black" points="124,-39 124,-57 194,-57 194,-39 124,-39"/>
<text text-anchor="start" x="175" y="-45.2" font-family="Helvetica,sans-Serif" font-size="11.00">1 &gt;</text>
<polygon fill="none" stroke="black" stroke-width="2" points="9,-38 9,-366 195,-366 195,-38 9,-38"/>
</a>
</g>
</g>
<!-- tww_od.access_aid&#45;&gt;access_aid_kind -->
<g id="edge1" class="edge">
<title>tww_od.access_aid:w&#45;&gt;access_aid_kind:e</title>
<path fill="none" stroke="black" d="M229.84,-332C218.41,-332 211.16,-332 195,-332"/>
<polygon fill="black" stroke="black" points="236.5,-332 244.5,-335.6 240.5,-332 244.5,-332 244.5,-332 244.5,-332 240.5,-332 244.5,-328.4 236.5,-332 236.5,-332"/>
<ellipse fill="none" stroke="black" cx="233.3" cy="-332" rx="3.2" ry="3.2"/>
</g>
</g>
</svg>
