<?xml version="1.0" encoding="UTF-8" standalone="no"?>
<!DOCTYPE svg PUBLIC "-//W3C//DTD SVG 1.1//EN"
 "http://www.w3.org/Graphics/SVG/1.1/DTD/svg11.dtd">
<!-- Generated by graphviz version 2.43.0 (0)
 -->
<!-- Title: oneDegreeRelationshipsDiagram Pages: 1 -->
<svg width="624pt" height="379pt"
 viewBox="0.00 0.00 624.00 379.00" xmlns="http://www.w3.org/2000/svg" xmlns:xlink="http://www.w3.org/1999/xlink">
<g id="graph0" class="graph" transform="scale(1 1) rotate(0) translate(4 375)">
<title>oneDegreeRelationshipsDiagram</title>
<polygon fill="#ffffff" stroke="transparent" points="-4,4 -4,-375 620,-375 620,4 -4,4"/>
<text text-anchor="middle" x="79.5" y="-7.2" font-family="Helvetica,sans-Serif" font-size="11.00">Generated by SchemaSpy</text>
<!-- tww_od.backflow_prevention -->
<g id="node1" class="node">
<title>tww_od.backflow_prevention</title>
<g id="a_node1"><a xlink:href="../../../tww_od/tables/backflow_prevention.html" xlink:title="tww_od.backflow_prevention" target="_top">
<polygon fill="#ffffff" stroke="transparent" points="350,-285 350,-365 608,-365 608,-285 350,-285"/>
<polygon fill="#f5f5f5" stroke="transparent" points="350,-343 350,-365 608,-365 608,-343 350,-343"/>
<polygon fill="none" stroke="black" points="350,-343 350,-365 608,-365 608,-343 350,-343"/>
<text text-anchor="start" x="355" y="-352.2" font-family="Helvetica,sans-Serif" font-weight="bold" font-size="11.00">tww_od.backflow_prevention</text>
<text text-anchor="start" x="566" y="-351.2" font-family="Helvetica,sans-Serif" font-size="11.00">[table]</text>
<polygon fill="none" stroke="black" points="350,-321 350,-343 608,-343 608,-321 350,-321"/>
<image xlink:href="../../images/foreignKeys.png" width="11px" height="12px" preserveAspectRatio="xMinYMin meet" x="355" y="-338"/>
<text text-anchor="start" x="400" y="-329.2" font-family="Helvetica,sans-Serif" font-size="11.00">kind</text>
<polygon fill="none" stroke="black" points="350,-303 350,-321 608,-321 608,-303 350,-303"/>
<text text-anchor="start" x="353" y="-309.2" font-family="Helvetica,sans-Serif" font-size="11.00">...</text>
<polygon fill="#ffffff" stroke="transparent" points="350,-285 350,-303 608,-303 608,-285 350,-285"/>
<polygon fill="none" stroke="black" points="350,-285 350,-303 608,-303 608,-285 350,-285"/>
<polygon fill="#ffffff" stroke="transparent" points="351,-286 351,-302 435,-302 435,-286 351,-286"/>
<text text-anchor="start" x="353" y="-291.2" font-family="Helvetica,sans-Serif" font-size="11.00">&lt; 1</text>
<polygon fill="#ffffff" stroke="transparent" points="435,-286 435,-302 536,-302 536,-286 435,-286"/>
<text text-anchor="start" x="467" y="-291.2" font-family="Helvetica,sans-Serif" font-size="11.00">0 rows</text>
<polygon fill="#ffffff" stroke="transparent" points="536,-286 536,-302 607,-302 607,-286 536,-286"/>
<text text-anchor="start" x="597" y="-291.2" font-family="Helvetica,sans-Serif" font-size="11.00"> &#160;</text>
<polygon fill="black" stroke="black" points="435,-286 435,-302 435,-302 435,-286 435,-286"/>
<polygon fill="black" stroke="black" points="536,-286 536,-302 536,-302 536,-286 536,-286"/>
</a>
</g>
</g>
<!-- backflow_prevention_kind -->
<g id="node2" class="node">
<title>backflow_prevention_kind</title>
<g id="a_node2"><a xlink:href="../../tables/backflow_prevention_kind.html" xlink:title="backflow_prevention_kind" target="_top">
<polygon fill="#ffffff" stroke="transparent" points="8,-37 8,-367 301,-367 301,-37 8,-37"/>
<polygon fill="#f5f5f5" stroke="transparent" points="10.5,-343 10.5,-365 299.5,-365 299.5,-343 10.5,-343"/>
<polygon fill="none" stroke="black" points="10.5,-343 10.5,-365 299.5,-365 299.5,-343 10.5,-343"/>
<text text-anchor="start" x="15.5" y="-352.2" font-family="Helvetica,sans-Serif" font-weight="bold" font-size="11.00">backflow_prevention_kind</text>
<text text-anchor="start" x="257.5" y="-351.2" font-family="Helvetica,sans-Serif" font-size="11.00">[table]</text>
<polygon fill="none" stroke="black" points="10.5,-321 10.5,-343 221.5,-343 221.5,-321 10.5,-321"/>
<image xlink:href="../../images/primaryKeys.png" width="11px" height="12px" preserveAspectRatio="xMinYMin meet" x="15.5" y="-338"/>
<text text-anchor="start" x="30.5" y="-329.2" font-family="Helvetica,sans-Serif" font-size="11.00">code</text>
<polygon fill="none" stroke="black" points="221.5,-321 221.5,-343 299.5,-343 299.5,-321 221.5,-321"/>
<text text-anchor="start" x="224.5" y="-329.2" font-family="Helvetica,sans-Serif" font-size="11.00">int4[10]</text>
<polygon fill="none" stroke="black" points="10.5,-299 10.5,-321 221.5,-321 221.5,-299 10.5,-299"/>
<text text-anchor="start" x="30.5" y="-307.2" font-family="Helvetica,sans-Serif" font-size="11.00">vsacode</text>
<polygon fill="none" stroke="black" points="221.5,-299 221.5,-321 299.5,-321 299.5,-299 221.5,-299"/>
<text text-anchor="start" x="224.5" y="-307.2" font-family="Helvetica,sans-Serif" font-size="11.00">int4[10]</text>
<polygon fill="none" stroke="black" points="10.5,-277 10.5,-299 221.5,-299 221.5,-277 10.5,-277"/>
<text text-anchor="start" x="30.5" y="-285.2" font-family="Helvetica,sans-Serif" font-size="11.00">value_en</text>
<polygon fill="none" stroke="black" points="221.5,-277 221.5,-299 299.5,-299 299.5,-277 221.5,-277"/>
<text text-anchor="start" x="224.5" y="-285.2" font-family="Helvetica,sans-Serif" font-size="11.00">varchar[100]</text>
<polygon fill="none" stroke="black" points="10.5,-255 10.5,-277 221.5,-277 221.5,-255 10.5,-255"/>
<text text-anchor="start" x="30.5" y="-263.2" font-family="Helvetica,sans-Serif" font-size="11.00">value_de</text>
<polygon fill="none" stroke="black" points="221.5,-255 221.5,-277 299.5,-277 299.5,-255 221.5,-255"/>
<text text-anchor="start" x="224.5" y="-263.2" font-family="Helvetica,sans-Serif" font-size="11.00">varchar[100]</text>
<polygon fill="none" stroke="black" points="10.5,-233 10.5,-255 221.5,-255 221.5,-233 10.5,-233"/>
<text text-anchor="start" x="30.5" y="-241.2" font-family="Helvetica,sans-Serif" font-size="11.00">value_fr</text>
<polygon fill="none" stroke="black" points="221.5,-233 221.5,-255 299.5,-255 299.5,-233 221.5,-233"/>
<text text-anchor="start" x="224.5" y="-241.2" font-family="Helvetica,sans-Serif" font-size="11.00">varchar[100]</text>
<polygon fill="none" stroke="black" points="10.5,-211 10.5,-233 221.5,-233 221.5,-211 10.5,-211"/>
<text text-anchor="start" x="30.5" y="-219.2" font-family="Helvetica,sans-Serif" font-size="11.00">value_it</text>
<polygon fill="none" stroke="black" points="221.5,-211 221.5,-233 299.5,-233 299.5,-211 221.5,-211"/>
<text text-anchor="start" x="224.5" y="-219.2" font-family="Helvetica,sans-Serif" font-size="11.00">varchar[100]</text>
<polygon fill="none" stroke="black" points="10.5,-189 10.5,-211 221.5,-211 221.5,-189 10.5,-189"/>
<text text-anchor="start" x="30.5" y="-197.2" font-family="Helvetica,sans-Serif" font-size="11.00">value_ro</text>
<polygon fill="none" stroke="black" points="221.5,-189 221.5,-211 299.5,-211 299.5,-189 221.5,-189"/>
<text text-anchor="start" x="224.5" y="-197.2" font-family="Helvetica,sans-Serif" font-size="11.00">varchar[100]</text>
<polygon fill="none" stroke="black" points="10.5,-167 10.5,-189 221.5,-189 221.5,-167 10.5,-167"/>
<text text-anchor="start" x="30.5" y="-175.2" font-family="Helvetica,sans-Serif" font-size="11.00">abbr_en</text>
<polygon fill="none" stroke="black" points="221.5,-167 221.5,-189 299.5,-189 299.5,-167 221.5,-167"/>
<text text-anchor="start" x="224.5" y="-175.2" font-family="Helvetica,sans-Serif" font-size="11.00">varchar[3]</text>
<polygon fill="none" stroke="black" points="10.5,-145 10.5,-167 221.5,-167 221.5,-145 10.5,-145"/>
<text text-anchor="start" x="30.5" y="-153.2" font-family="Helvetica,sans-Serif" font-size="11.00">abbr_de</text>
<polygon fill="none" stroke="black" points="221.5,-145 221.5,-167 299.5,-167 299.5,-145 221.5,-145"/>
<text text-anchor="start" x="224.5" y="-153.2" font-family="Helvetica,sans-Serif" font-size="11.00">varchar[3]</text>
<polygon fill="none" stroke="black" points="10.5,-123 10.5,-145 221.5,-145 221.5,-123 10.5,-123"/>
<text text-anchor="start" x="30.5" y="-131.2" font-family="Helvetica,sans-Serif" font-size="11.00">abbr_fr</text>
<polygon fill="none" stroke="black" points="221.5,-123 221.5,-145 299.5,-145 299.5,-123 221.5,-123"/>
<text text-anchor="start" x="224.5" y="-131.2" font-family="Helvetica,sans-Serif" font-size="11.00">varchar[3]</text>
<polygon fill="none" stroke="black" points="10.5,-101 10.5,-123 221.5,-123 221.5,-101 10.5,-101"/>
<text text-anchor="start" x="30.5" y="-109.2" font-family="Helvetica,sans-Serif" font-size="11.00">abbr_it</text>
<polygon fill="none" stroke="black" points="221.5,-101 221.5,-123 299.5,-123 299.5,-101 221.5,-101"/>
<text text-anchor="start" x="224.5" y="-109.2" font-family="Helvetica,sans-Serif" font-size="11.00">varchar[3]</text>
<polygon fill="none" stroke="black" points="10.5,-79 10.5,-101 221.5,-101 221.5,-79 10.5,-79"/>
<text text-anchor="start" x="30.5" y="-87.2" font-family="Helvetica,sans-Serif" font-size="11.00">abbr_ro</text>
<polygon fill="none" stroke="black" points="221.5,-79 221.5,-101 299.5,-101 299.5,-79 221.5,-79"/>
<text text-anchor="start" x="224.5" y="-87.2" font-family="Helvetica,sans-Serif" font-size="11.00">varchar[3]</text>
<polygon fill="none" stroke="black" points="10.5,-57 10.5,-79 221.5,-79 221.5,-57 10.5,-57"/>
<text text-anchor="start" x="30.5" y="-65.2" font-family="Helvetica,sans-Serif" font-size="11.00">active</text>
<polygon fill="none" stroke="black" points="221.5,-57 221.5,-79 299.5,-79 299.5,-57 221.5,-57"/>
<text text-anchor="start" x="224.5" y="-65.2" font-family="Helvetica,sans-Serif" font-size="11.00">bool[1]</text>
<polygon fill="#ffffff" stroke="transparent" points="10.5,-39 10.5,-57 299.5,-57 299.5,-39 10.5,-39"/>
<polygon fill="none" stroke="black" points="10.5,-39 10.5,-57 299.5,-57 299.5,-39 10.5,-39"/>
<polygon fill="#ffffff" stroke="transparent" points="11.5,-40 11.5,-56 111.5,-56 111.5,-40 11.5,-40"/>
<text text-anchor="start" x="13.5" y="-45.2" font-family="Helvetica,sans-Serif" font-size="11.00">&lt; 0</text>
<polygon fill="#ffffff" stroke="transparent" points="111.5,-40 111.5,-56 199.5,-56 199.5,-40 111.5,-40"/>
<text text-anchor="start" x="151.5" y="-45.2" font-family="Helvetica,sans-Serif" font-size="11.00"> &#160;</text>
<polygon fill="#ffffff" stroke="transparent" points="199.5,-40 199.5,-56 298.5,-56 298.5,-40 199.5,-40"/>
<text text-anchor="start" x="276.5" y="-45.2" font-family="Helvetica,sans-Serif" font-size="11.00">1 &gt;</text>
<polygon fill="black" stroke="black" points="111.5,-40 111.5,-56 111.5,-56 111.5,-40 111.5,-40"/>
<polygon fill="black" stroke="black" points="199.5,-40 199.5,-56 199.5,-56 199.5,-40 199.5,-40"/>
<polygon fill="none" stroke="black" stroke-width="2" points="9,-38 9,-366 300,-366 300,-38 9,-38"/>
</a>
</g>
</g>
<!-- tww_od.backflow_prevention&#45;&gt;backflow_prevention_kind -->
<g id="edge1" class="edge">
<title>tww_od.backflow_prevention:w&#45;&gt;backflow_prevention_kind:e</title>
<path fill="none" stroke="black" d="M334.28,-332C323.29,-332 316.16,-332 300.5,-332"/>
<polygon fill="black" stroke="black" points="341,-332 349,-335.6 345,-332 349,-332 349,-332 349,-332 345,-332 349,-328.4 341,-332 341,-332"/>
<ellipse fill="none" stroke="black" cx="337.8" cy="-332" rx="3.2" ry="3.2"/>
</g>
</g>
</svg>
