<?xml version="1.0" encoding="UTF-8" standalone="no"?>
<!DOCTYPE svg PUBLIC "-//W3C//DTD SVG 1.1//EN"
 "http://www.w3.org/Graphics/SVG/1.1/DTD/svg11.dtd">
<!-- Generated by graphviz version 2.47.1 (20210515.0534)
 -->
<!-- Title: oneDegreeRelationshipsDiagram Pages: 1 -->
<svg width="545pt" height="509pt"
 viewBox="0.00 0.00 545.00 509.00" xmlns="http://www.w3.org/2000/svg" xmlns:xlink="http://www.w3.org/1999/xlink">
<g id="graph0" class="graph" transform="scale(1 1) rotate(0) translate(4 505)">
<title>oneDegreeRelationshipsDiagram</title>
<polygon fill="#ffffff" stroke="transparent" points="-4,4 -4,-505 541,-505 541,4 -4,4"/>
<text text-anchor="middle" x="73.5" y="-7.2" font-family="Helvetica,sans-Serif" font-size="11.00">Generated by SchemaSpy</text>
<!-- tww_od.building_group -->
<g id="node1" class="node">
<title>tww_od.building_group</title>
<g id="a_node1"><a xlink:href="../../../tww_od/tables/building_group.html" xlink:title="tww_od.building_group" target="_top">
<polygon fill="#ffffff" stroke="transparent" points="296,-263 296,-497 529,-497 529,-263 296,-263"/>
<polygon fill="#f5f5f5" stroke="transparent" points="296.5,-475 296.5,-497 529.5,-497 529.5,-475 296.5,-475"/>
<polygon fill="none" stroke="black" points="296.5,-475 296.5,-497 529.5,-497 529.5,-475 296.5,-475"/>
<text text-anchor="start" x="301.5" y="-484.2" font-family="Helvetica,sans-Serif" font-weight="bold" font-size="11.00">tww_od.building_group</text>
<text text-anchor="start" x="490.5" y="-483.2" font-family="Helvetica,sans-Serif" font-size="11.00">[table]</text>
<polygon fill="none" stroke="black" points="296.5,-453 296.5,-475 529.5,-475 529.5,-453 296.5,-453"/>
<image xlink:href="../../images/foreignKeys.png" width="11px" height="12px" preserveAspectRatio="xMinYMin meet" x="301.5" y="-470"/>
<text text-anchor="start" x="316.5" y="-461.2" font-family="Helvetica,sans-Serif" font-size="11.00">connecting_obligation</text>
<polygon fill="none" stroke="black" points="296.5,-431 296.5,-453 529.5,-453 529.5,-431 296.5,-431"/>
<image xlink:href="../../images/foreignKeys.png" width="11px" height="12px" preserveAspectRatio="xMinYMin meet" x="301.5" y="-448"/>
<text text-anchor="start" x="316.5" y="-439.2" font-family="Helvetica,sans-Serif" font-size="11.00">connection_wwtp</text>
<polygon fill="none" stroke="black" points="296.5,-409 296.5,-431 529.5,-431 529.5,-409 296.5,-409"/>
<image xlink:href="../../images/foreignKeys.png" width="11px" height="12px" preserveAspectRatio="xMinYMin meet" x="301.5" y="-426"/>
<text text-anchor="start" x="316.5" y="-417.2" font-family="Helvetica,sans-Serif" font-size="11.00">drainage_map</text>
<polygon fill="none" stroke="black" points="296.5,-387 296.5,-409 529.5,-409 529.5,-387 296.5,-387"/>
<image xlink:href="../../images/foreignKeys.png" width="11px" height="12px" preserveAspectRatio="xMinYMin meet" x="301.5" y="-404"/>
<text text-anchor="start" x="316.5" y="-395.2" font-family="Helvetica,sans-Serif" font-size="11.00">drinking_water_network</text>
<polygon fill="none" stroke="black" points="296.5,-365 296.5,-387 529.5,-387 529.5,-365 296.5,-365"/>
<image xlink:href="../../images/foreignKeys.png" width="11px" height="12px" preserveAspectRatio="xMinYMin meet" x="301.5" y="-382"/>
<text text-anchor="start" x="316.5" y="-373.2" font-family="Helvetica,sans-Serif" font-size="11.00">drinking_water_others</text>
<polygon fill="none" stroke="black" points="296.5,-343 296.5,-365 529.5,-365 529.5,-343 296.5,-343"/>
<image xlink:href="../../images/foreignKeys.png" width="11px" height="12px" preserveAspectRatio="xMinYMin meet" x="301.5" y="-360"/>
<text text-anchor="start" x="316.5" y="-351.2" font-family="Helvetica,sans-Serif" font-size="11.00">electric_connection</text>
<polygon fill="none" stroke="black" points="296.5,-321 296.5,-343 529.5,-343 529.5,-321 296.5,-321"/>
<image xlink:href="../../images/foreignKeys.png" width="11px" height="12px" preserveAspectRatio="xMinYMin meet" x="301.5" y="-338"/>
<text text-anchor="start" x="316.5" y="-329.2" font-family="Helvetica,sans-Serif" font-size="11.00">function</text>
<polygon fill="none" stroke="black" points="296.5,-299 296.5,-321 529.5,-321 529.5,-299 296.5,-299"/>
<image xlink:href="../../images/foreignKeys.png" width="11px" height="12px" preserveAspectRatio="xMinYMin meet" x="301.5" y="-316"/>
<text text-anchor="start" x="316.5" y="-307.2" font-family="Helvetica,sans-Serif" font-size="11.00">renovation_necessity</text>
<polygon fill="none" stroke="black" points="296.5,-281 296.5,-299 529.5,-299 529.5,-281 296.5,-281"/>
<text text-anchor="start" x="299.5" y="-287.2" font-family="Helvetica,sans-Serif" font-size="11.00">...</text>
<polygon fill="#ffffff" stroke="transparent" points="296.5,-263 296.5,-281 397.5,-281 397.5,-263 296.5,-263"/>
<polygon fill="none" stroke="black" points="296.5,-263 296.5,-281 397.5,-281 397.5,-263 296.5,-263"/>
<text text-anchor="start" x="299.5" y="-269.2" font-family="Helvetica,sans-Serif" font-size="11.00">&lt; 8</text>
<polygon fill="#ffffff" stroke="transparent" points="397.5,-263 397.5,-281 476.5,-281 476.5,-263 397.5,-263"/>
<polygon fill="none" stroke="black" points="397.5,-263 397.5,-281 476.5,-281 476.5,-263 397.5,-263"/>
<text text-anchor="start" x="439.5" y="-269.2" font-family="Helvetica,sans-Serif" font-size="11.00">0 rows</text>
<polygon fill="#ffffff" stroke="transparent" points="476.5,-263 476.5,-281 529.5,-281 529.5,-263 476.5,-263"/>
<polygon fill="none" stroke="black" points="476.5,-263 476.5,-281 529.5,-281 529.5,-263 476.5,-263"/>
<text text-anchor="start" x="519.5" y="-269.2" font-family="Helvetica,sans-Serif" font-size="11.00"> &#160;</text>
</a>
</g>
</g>
<!-- building_group_function -->
<g id="node2" class="node">
<title>building_group_function</title>
<g id="a_node2"><a xlink:href="../../tables/building_group_function.html" xlink:title="building_group_function" target="_top">
<polygon fill="#ffffff" stroke="transparent" points="8,-37 8,-367 247,-367 247,-37 8,-37"/>
<polygon fill="#f5f5f5" stroke="transparent" points="10.5,-343 10.5,-365 245.5,-365 245.5,-343 10.5,-343"/>
<polygon fill="none" stroke="black" points="10.5,-343 10.5,-365 245.5,-365 245.5,-343 10.5,-343"/>
<text text-anchor="start" x="15.5" y="-352.2" font-family="Helvetica,sans-Serif" font-weight="bold" font-size="11.00">building_group_function</text>
<text text-anchor="start" x="206.5" y="-351.2" font-family="Helvetica,sans-Serif" font-size="11.00">[table]</text>
<polygon fill="none" stroke="black" points="10.5,-321 10.5,-343 175.5,-343 175.5,-321 10.5,-321"/>
<image xlink:href="../../images/primaryKeys.png" width="11px" height="12px" preserveAspectRatio="xMinYMin meet" x="15.5" y="-338"/>
<text text-anchor="start" x="30.5" y="-329.2" font-family="Helvetica,sans-Serif" font-size="11.00">code</text>
<polygon fill="none" stroke="black" points="175.5,-321 175.5,-343 245.5,-343 245.5,-321 175.5,-321"/>
<text text-anchor="start" x="178.5" y="-329.2" font-family="Helvetica,sans-Serif" font-size="11.00">int4[10]</text>
<polygon fill="none" stroke="black" points="10.5,-299 10.5,-321 175.5,-321 175.5,-299 10.5,-299"/>
<text text-anchor="start" x="30.5" y="-307.2" font-family="Helvetica,sans-Serif" font-size="11.00">vsacode</text>
<polygon fill="none" stroke="black" points="175.5,-299 175.5,-321 245.5,-321 245.5,-299 175.5,-299"/>
<text text-anchor="start" x="178.5" y="-307.2" font-family="Helvetica,sans-Serif" font-size="11.00">int4[10]</text>
<polygon fill="none" stroke="black" points="10.5,-277 10.5,-299 175.5,-299 175.5,-277 10.5,-277"/>
<text text-anchor="start" x="30.5" y="-285.2" font-family="Helvetica,sans-Serif" font-size="11.00">value_en</text>
<polygon fill="none" stroke="black" points="175.5,-277 175.5,-299 245.5,-299 245.5,-277 175.5,-277"/>
<text text-anchor="start" x="178.5" y="-285.2" font-family="Helvetica,sans-Serif" font-size="11.00">varchar[100]</text>
<polygon fill="none" stroke="black" points="10.5,-255 10.5,-277 175.5,-277 175.5,-255 10.5,-255"/>
<text text-anchor="start" x="30.5" y="-263.2" font-family="Helvetica,sans-Serif" font-size="11.00">value_de</text>
<polygon fill="none" stroke="black" points="175.5,-255 175.5,-277 245.5,-277 245.5,-255 175.5,-255"/>
<text text-anchor="start" x="178.5" y="-263.2" font-family="Helvetica,sans-Serif" font-size="11.00">varchar[100]</text>
<polygon fill="none" stroke="black" points="10.5,-233 10.5,-255 175.5,-255 175.5,-233 10.5,-233"/>
<text text-anchor="start" x="30.5" y="-241.2" font-family="Helvetica,sans-Serif" font-size="11.00">value_fr</text>
<polygon fill="none" stroke="black" points="175.5,-233 175.5,-255 245.5,-255 245.5,-233 175.5,-233"/>
<text text-anchor="start" x="178.5" y="-241.2" font-family="Helvetica,sans-Serif" font-size="11.00">varchar[100]</text>
<polygon fill="none" stroke="black" points="10.5,-211 10.5,-233 175.5,-233 175.5,-211 10.5,-211"/>
<text text-anchor="start" x="30.5" y="-219.2" font-family="Helvetica,sans-Serif" font-size="11.00">value_it</text>
<polygon fill="none" stroke="black" points="175.5,-211 175.5,-233 245.5,-233 245.5,-211 175.5,-211"/>
<text text-anchor="start" x="178.5" y="-219.2" font-family="Helvetica,sans-Serif" font-size="11.00">varchar[100]</text>
<polygon fill="none" stroke="black" points="10.5,-189 10.5,-211 175.5,-211 175.5,-189 10.5,-189"/>
<text text-anchor="start" x="30.5" y="-197.2" font-family="Helvetica,sans-Serif" font-size="11.00">value_ro</text>
<polygon fill="none" stroke="black" points="175.5,-189 175.5,-211 245.5,-211 245.5,-189 175.5,-189"/>
<text text-anchor="start" x="178.5" y="-197.2" font-family="Helvetica,sans-Serif" font-size="11.00">varchar[100]</text>
<polygon fill="none" stroke="black" points="10.5,-167 10.5,-189 175.5,-189 175.5,-167 10.5,-167"/>
<text text-anchor="start" x="30.5" y="-175.2" font-family="Helvetica,sans-Serif" font-size="11.00">abbr_en</text>
<polygon fill="none" stroke="black" points="175.5,-167 175.5,-189 245.5,-189 245.5,-167 175.5,-167"/>
<text text-anchor="start" x="178.5" y="-175.2" font-family="Helvetica,sans-Serif" font-size="11.00">varchar[3]</text>
<polygon fill="none" stroke="black" points="10.5,-145 10.5,-167 175.5,-167 175.5,-145 10.5,-145"/>
<text text-anchor="start" x="30.5" y="-153.2" font-family="Helvetica,sans-Serif" font-size="11.00">abbr_de</text>
<polygon fill="none" stroke="black" points="175.5,-145 175.5,-167 245.5,-167 245.5,-145 175.5,-145"/>
<text text-anchor="start" x="178.5" y="-153.2" font-family="Helvetica,sans-Serif" font-size="11.00">varchar[3]</text>
<polygon fill="none" stroke="black" points="10.5,-123 10.5,-145 175.5,-145 175.5,-123 10.5,-123"/>
<text text-anchor="start" x="30.5" y="-131.2" font-family="Helvetica,sans-Serif" font-size="11.00">abbr_fr</text>
<polygon fill="none" stroke="black" points="175.5,-123 175.5,-145 245.5,-145 245.5,-123 175.5,-123"/>
<text text-anchor="start" x="178.5" y="-131.2" font-family="Helvetica,sans-Serif" font-size="11.00">varchar[3]</text>
<polygon fill="none" stroke="black" points="10.5,-101 10.5,-123 175.5,-123 175.5,-101 10.5,-101"/>
<text text-anchor="start" x="30.5" y="-109.2" font-family="Helvetica,sans-Serif" font-size="11.00">abbr_it</text>
<polygon fill="none" stroke="black" points="175.5,-101 175.5,-123 245.5,-123 245.5,-101 175.5,-101"/>
<text text-anchor="start" x="178.5" y="-109.2" font-family="Helvetica,sans-Serif" font-size="11.00">varchar[3]</text>
<polygon fill="none" stroke="black" points="10.5,-79 10.5,-101 175.5,-101 175.5,-79 10.5,-79"/>
<text text-anchor="start" x="30.5" y="-87.2" font-family="Helvetica,sans-Serif" font-size="11.00">abbr_ro</text>
<polygon fill="none" stroke="black" points="175.5,-79 175.5,-101 245.5,-101 245.5,-79 175.5,-79"/>
<text text-anchor="start" x="178.5" y="-87.2" font-family="Helvetica,sans-Serif" font-size="11.00">varchar[3]</text>
<polygon fill="none" stroke="black" points="10.5,-57 10.5,-79 175.5,-79 175.5,-57 10.5,-57"/>
<text text-anchor="start" x="30.5" y="-65.2" font-family="Helvetica,sans-Serif" font-size="11.00">active</text>
<polygon fill="none" stroke="black" points="175.5,-57 175.5,-79 245.5,-79 245.5,-57 175.5,-57"/>
<text text-anchor="start" x="178.5" y="-65.2" font-family="Helvetica,sans-Serif" font-size="11.00">bool[1]</text>
<polygon fill="#ffffff" stroke="transparent" points="10.5,-39 10.5,-57 97.5,-57 97.5,-39 10.5,-39"/>
<polygon fill="none" stroke="black" points="10.5,-39 10.5,-57 97.5,-57 97.5,-39 10.5,-39"/>
<text text-anchor="start" x="13.5" y="-45.2" font-family="Helvetica,sans-Serif" font-size="11.00">&lt; 0</text>
<polygon fill="#ffffff" stroke="transparent" points="97.5,-39 97.5,-57 175.5,-57 175.5,-39 97.5,-39"/>
<polygon fill="none" stroke="black" points="97.5,-39 97.5,-57 175.5,-57 175.5,-39 97.5,-39"/>
<text text-anchor="start" x="165.5" y="-45.2" font-family="Helvetica,sans-Serif" font-size="11.00"> &#160;</text>
<polygon fill="#ffffff" stroke="transparent" points="175.5,-39 175.5,-57 245.5,-57 245.5,-39 175.5,-39"/>
<polygon fill="none" stroke="black" points="175.5,-39 175.5,-57 245.5,-57 245.5,-39 175.5,-39"/>
<text text-anchor="start" x="226.5" y="-45.2" font-family="Helvetica,sans-Serif" font-size="11.00">1 &gt;</text>
<polygon fill="none" stroke="black" stroke-width="2" points="9,-38 9,-366 246,-366 246,-38 9,-38"/>
</a>
</g>
</g>
<!-- tww_od.building_group&#45;&gt;building_group_function -->
<g id="edge1" class="edge">
<title>tww_od.building_group:w&#45;&gt;building_group_function:e</title>
<path fill="none" stroke="black" d="M280.99,-332C269.68,-332 262.49,-332 246.5,-332"/>
<polygon fill="black" stroke="black" points="287.5,-332 295.5,-335.6 291.5,-332 295.5,-332 295.5,-332 295.5,-332 291.5,-332 295.5,-328.4 287.5,-332 287.5,-332"/>
<ellipse fill="none" stroke="black" cx="284.3" cy="-332" rx="3.2" ry="3.2"/>
</g>
</g>
</svg>
