<?xml version="1.0" encoding="UTF-8" standalone="no"?>
<!DOCTYPE svg PUBLIC "-//W3C//DTD SVG 1.1//EN"
 "http://www.w3.org/Graphics/SVG/1.1/DTD/svg11.dtd">
<!-- Generated by graphviz version 2.47.1 (20210515.0534)
 -->
<!-- Title: oneDegreeRelationshipsDiagram Pages: 1 -->
<svg width="610pt" height="487pt"
 viewBox="0.00 0.00 610.00 487.00" xmlns="http://www.w3.org/2000/svg" xmlns:xlink="http://www.w3.org/1999/xlink">
<g id="graph0" class="graph" transform="scale(1 1) rotate(0) translate(4 483)">
<title>oneDegreeRelationshipsDiagram</title>
<polygon fill="#ffffff" stroke="transparent" points="-4,4 -4,-483 606,-483 606,4 -4,4"/>
<text text-anchor="middle" x="73.5" y="-7.2" font-family="Helvetica,sans-Serif" font-size="11.00">Generated by SchemaSpy</text>
<!-- tww_od.building_group -->
<g id="node1" class="node">
<title>tww_od.building_group</title>
<g id="a_node1"><a xlink:href="../../../tww_od/tables/building_group.html" xlink:title="tww_od.building_group" target="_top">
<polygon fill="#ffffff" stroke="transparent" points="361,-241 361,-475 594,-475 594,-241 361,-241"/>
<polygon fill="#f5f5f5" stroke="transparent" points="361.5,-453 361.5,-475 594.5,-475 594.5,-453 361.5,-453"/>
<polygon fill="none" stroke="black" points="361.5,-453 361.5,-475 594.5,-475 594.5,-453 361.5,-453"/>
<text text-anchor="start" x="366.5" y="-462.2" font-family="Helvetica,sans-Serif" font-weight="bold" font-size="11.00">tww_od.building_group</text>
<text text-anchor="start" x="555.5" y="-461.2" font-family="Helvetica,sans-Serif" font-size="11.00">[table]</text>
<polygon fill="none" stroke="black" points="361.5,-431 361.5,-453 594.5,-453 594.5,-431 361.5,-431"/>
<image xlink:href="../../images/foreignKeys.png" width="11px" height="12px" preserveAspectRatio="xMinYMin meet" x="366.5" y="-448"/>
<text text-anchor="start" x="381.5" y="-439.2" font-family="Helvetica,sans-Serif" font-size="11.00">connecting_obligation</text>
<polygon fill="none" stroke="black" points="361.5,-409 361.5,-431 594.5,-431 594.5,-409 361.5,-409"/>
<image xlink:href="../../images/foreignKeys.png" width="11px" height="12px" preserveAspectRatio="xMinYMin meet" x="366.5" y="-426"/>
<text text-anchor="start" x="381.5" y="-417.2" font-family="Helvetica,sans-Serif" font-size="11.00">connection_wwtp</text>
<polygon fill="none" stroke="black" points="361.5,-387 361.5,-409 594.5,-409 594.5,-387 361.5,-387"/>
<image xlink:href="../../images/foreignKeys.png" width="11px" height="12px" preserveAspectRatio="xMinYMin meet" x="366.5" y="-404"/>
<text text-anchor="start" x="381.5" y="-395.2" font-family="Helvetica,sans-Serif" font-size="11.00">drainage_map</text>
<polygon fill="none" stroke="black" points="361.5,-365 361.5,-387 594.5,-387 594.5,-365 361.5,-365"/>
<image xlink:href="../../images/foreignKeys.png" width="11px" height="12px" preserveAspectRatio="xMinYMin meet" x="366.5" y="-382"/>
<text text-anchor="start" x="381.5" y="-373.2" font-family="Helvetica,sans-Serif" font-size="11.00">drinking_water_network</text>
<polygon fill="none" stroke="black" points="361.5,-343 361.5,-365 594.5,-365 594.5,-343 361.5,-343"/>
<image xlink:href="../../images/foreignKeys.png" width="11px" height="12px" preserveAspectRatio="xMinYMin meet" x="366.5" y="-360"/>
<text text-anchor="start" x="381.5" y="-351.2" font-family="Helvetica,sans-Serif" font-size="11.00">drinking_water_others</text>
<polygon fill="none" stroke="black" points="361.5,-321 361.5,-343 594.5,-343 594.5,-321 361.5,-321"/>
<image xlink:href="../../images/foreignKeys.png" width="11px" height="12px" preserveAspectRatio="xMinYMin meet" x="366.5" y="-338"/>
<text text-anchor="start" x="381.5" y="-329.2" font-family="Helvetica,sans-Serif" font-size="11.00">electric_connection</text>
<polygon fill="none" stroke="black" points="361.5,-299 361.5,-321 594.5,-321 594.5,-299 361.5,-299"/>
<image xlink:href="../../images/foreignKeys.png" width="11px" height="12px" preserveAspectRatio="xMinYMin meet" x="366.5" y="-316"/>
<text text-anchor="start" x="381.5" y="-307.2" font-family="Helvetica,sans-Serif" font-size="11.00">function</text>
<polygon fill="none" stroke="black" points="361.5,-277 361.5,-299 594.5,-299 594.5,-277 361.5,-277"/>
<image xlink:href="../../images/foreignKeys.png" width="11px" height="12px" preserveAspectRatio="xMinYMin meet" x="366.5" y="-294"/>
<text text-anchor="start" x="381.5" y="-285.2" font-family="Helvetica,sans-Serif" font-size="11.00">renovation_necessity</text>
<polygon fill="none" stroke="black" points="361.5,-259 361.5,-277 594.5,-277 594.5,-259 361.5,-259"/>
<text text-anchor="start" x="364.5" y="-265.2" font-family="Helvetica,sans-Serif" font-size="11.00">...</text>
<polygon fill="#ffffff" stroke="transparent" points="361.5,-241 361.5,-259 462.5,-259 462.5,-241 361.5,-241"/>
<polygon fill="none" stroke="black" points="361.5,-241 361.5,-259 462.5,-259 462.5,-241 361.5,-241"/>
<text text-anchor="start" x="364.5" y="-247.2" font-family="Helvetica,sans-Serif" font-size="11.00">&lt; 8</text>
<polygon fill="#ffffff" stroke="transparent" points="462.5,-241 462.5,-259 541.5,-259 541.5,-241 462.5,-241"/>
<polygon fill="none" stroke="black" points="462.5,-241 462.5,-259 541.5,-259 541.5,-241 462.5,-241"/>
<text text-anchor="start" x="504.5" y="-247.2" font-family="Helvetica,sans-Serif" font-size="11.00">0 rows</text>
<polygon fill="#ffffff" stroke="transparent" points="541.5,-241 541.5,-259 594.5,-259 594.5,-241 541.5,-241"/>
<polygon fill="none" stroke="black" points="541.5,-241 541.5,-259 594.5,-259 594.5,-241 541.5,-241"/>
<text text-anchor="start" x="584.5" y="-247.2" font-family="Helvetica,sans-Serif" font-size="11.00"> &#160;</text>
</a>
</g>
</g>
<!-- building_group_electric_connection -->
<g id="node2" class="node">
<title>building_group_electric_connection</title>
<g id="a_node2"><a xlink:href="../../tables/building_group_electric_connection.html" xlink:title="building_group_electric_connection" target="_top">
<polygon fill="#ffffff" stroke="transparent" points="8,-37 8,-367 312,-367 312,-37 8,-37"/>
<polygon fill="#f5f5f5" stroke="transparent" points="10,-343 10,-365 310,-365 310,-343 10,-343"/>
<polygon fill="none" stroke="black" points="10,-343 10,-365 310,-365 310,-343 10,-343"/>
<text text-anchor="start" x="15" y="-352.2" font-family="Helvetica,sans-Serif" font-weight="bold" font-size="11.00">building_group_electric_connection</text>
<text text-anchor="start" x="271" y="-351.2" font-family="Helvetica,sans-Serif" font-size="11.00">[table]</text>
<polygon fill="none" stroke="black" points="10,-321 10,-343 240,-343 240,-321 10,-321"/>
<image xlink:href="../../images/primaryKeys.png" width="11px" height="12px" preserveAspectRatio="xMinYMin meet" x="15" y="-338"/>
<text text-anchor="start" x="30" y="-329.2" font-family="Helvetica,sans-Serif" font-size="11.00">code</text>
<polygon fill="none" stroke="black" points="240,-321 240,-343 310,-343 310,-321 240,-321"/>
<text text-anchor="start" x="243" y="-329.2" font-family="Helvetica,sans-Serif" font-size="11.00">int4[10]</text>
<polygon fill="none" stroke="black" points="10,-299 10,-321 240,-321 240,-299 10,-299"/>
<text text-anchor="start" x="30" y="-307.2" font-family="Helvetica,sans-Serif" font-size="11.00">vsacode</text>
<polygon fill="none" stroke="black" points="240,-299 240,-321 310,-321 310,-299 240,-299"/>
<text text-anchor="start" x="243" y="-307.2" font-family="Helvetica,sans-Serif" font-size="11.00">int4[10]</text>
<polygon fill="none" stroke="black" points="10,-277 10,-299 240,-299 240,-277 10,-277"/>
<text text-anchor="start" x="30" y="-285.2" font-family="Helvetica,sans-Serif" font-size="11.00">value_en</text>
<polygon fill="none" stroke="black" points="240,-277 240,-299 310,-299 310,-277 240,-277"/>
<text text-anchor="start" x="243" y="-285.2" font-family="Helvetica,sans-Serif" font-size="11.00">varchar[100]</text>
<polygon fill="none" stroke="black" points="10,-255 10,-277 240,-277 240,-255 10,-255"/>
<text text-anchor="start" x="30" y="-263.2" font-family="Helvetica,sans-Serif" font-size="11.00">value_de</text>
<polygon fill="none" stroke="black" points="240,-255 240,-277 310,-277 310,-255 240,-255"/>
<text text-anchor="start" x="243" y="-263.2" font-family="Helvetica,sans-Serif" font-size="11.00">varchar[100]</text>
<polygon fill="none" stroke="black" points="10,-233 10,-255 240,-255 240,-233 10,-233"/>
<text text-anchor="start" x="30" y="-241.2" font-family="Helvetica,sans-Serif" font-size="11.00">value_fr</text>
<polygon fill="none" stroke="black" points="240,-233 240,-255 310,-255 310,-233 240,-233"/>
<text text-anchor="start" x="243" y="-241.2" font-family="Helvetica,sans-Serif" font-size="11.00">varchar[100]</text>
<polygon fill="none" stroke="black" points="10,-211 10,-233 240,-233 240,-211 10,-211"/>
<text text-anchor="start" x="30" y="-219.2" font-family="Helvetica,sans-Serif" font-size="11.00">value_it</text>
<polygon fill="none" stroke="black" points="240,-211 240,-233 310,-233 310,-211 240,-211"/>
<text text-anchor="start" x="243" y="-219.2" font-family="Helvetica,sans-Serif" font-size="11.00">varchar[100]</text>
<polygon fill="none" stroke="black" points="10,-189 10,-211 240,-211 240,-189 10,-189"/>
<text text-anchor="start" x="30" y="-197.2" font-family="Helvetica,sans-Serif" font-size="11.00">value_ro</text>
<polygon fill="none" stroke="black" points="240,-189 240,-211 310,-211 310,-189 240,-189"/>
<text text-anchor="start" x="243" y="-197.2" font-family="Helvetica,sans-Serif" font-size="11.00">varchar[100]</text>
<polygon fill="none" stroke="black" points="10,-167 10,-189 240,-189 240,-167 10,-167"/>
<text text-anchor="start" x="30" y="-175.2" font-family="Helvetica,sans-Serif" font-size="11.00">abbr_en</text>
<polygon fill="none" stroke="black" points="240,-167 240,-189 310,-189 310,-167 240,-167"/>
<text text-anchor="start" x="243" y="-175.2" font-family="Helvetica,sans-Serif" font-size="11.00">varchar[3]</text>
<polygon fill="none" stroke="black" points="10,-145 10,-167 240,-167 240,-145 10,-145"/>
<text text-anchor="start" x="30" y="-153.2" font-family="Helvetica,sans-Serif" font-size="11.00">abbr_de</text>
<polygon fill="none" stroke="black" points="240,-145 240,-167 310,-167 310,-145 240,-145"/>
<text text-anchor="start" x="243" y="-153.2" font-family="Helvetica,sans-Serif" font-size="11.00">varchar[3]</text>
<polygon fill="none" stroke="black" points="10,-123 10,-145 240,-145 240,-123 10,-123"/>
<text text-anchor="start" x="30" y="-131.2" font-family="Helvetica,sans-Serif" font-size="11.00">abbr_fr</text>
<polygon fill="none" stroke="black" points="240,-123 240,-145 310,-145 310,-123 240,-123"/>
<text text-anchor="start" x="243" y="-131.2" font-family="Helvetica,sans-Serif" font-size="11.00">varchar[3]</text>
<polygon fill="none" stroke="black" points="10,-101 10,-123 240,-123 240,-101 10,-101"/>
<text text-anchor="start" x="30" y="-109.2" font-family="Helvetica,sans-Serif" font-size="11.00">abbr_it</text>
<polygon fill="none" stroke="black" points="240,-101 240,-123 310,-123 310,-101 240,-101"/>
<text text-anchor="start" x="243" y="-109.2" font-family="Helvetica,sans-Serif" font-size="11.00">varchar[3]</text>
<polygon fill="none" stroke="black" points="10,-79 10,-101 240,-101 240,-79 10,-79"/>
<text text-anchor="start" x="30" y="-87.2" font-family="Helvetica,sans-Serif" font-size="11.00">abbr_ro</text>
<polygon fill="none" stroke="black" points="240,-79 240,-101 310,-101 310,-79 240,-79"/>
<text text-anchor="start" x="243" y="-87.2" font-family="Helvetica,sans-Serif" font-size="11.00">varchar[3]</text>
<polygon fill="none" stroke="black" points="10,-57 10,-79 240,-79 240,-57 10,-57"/>
<text text-anchor="start" x="30" y="-65.2" font-family="Helvetica,sans-Serif" font-size="11.00">active</text>
<polygon fill="none" stroke="black" points="240,-57 240,-79 310,-79 310,-57 240,-57"/>
<text text-anchor="start" x="243" y="-65.2" font-family="Helvetica,sans-Serif" font-size="11.00">bool[1]</text>
<polygon fill="#ffffff" stroke="transparent" points="10,-39 10,-57 129,-57 129,-39 10,-39"/>
<polygon fill="none" stroke="black" points="10,-39 10,-57 129,-57 129,-39 10,-39"/>
<text text-anchor="start" x="13" y="-45.2" font-family="Helvetica,sans-Serif" font-size="11.00">&lt; 0</text>
<polygon fill="#ffffff" stroke="transparent" points="129,-39 129,-57 240,-57 240,-39 129,-39"/>
<polygon fill="none" stroke="black" points="129,-39 129,-57 240,-57 240,-39 129,-39"/>
<text text-anchor="start" x="230" y="-45.2" font-family="Helvetica,sans-Serif" font-size="11.00"> &#160;</text>
<polygon fill="#ffffff" stroke="transparent" points="240,-39 240,-57 310,-57 310,-39 240,-39"/>
<polygon fill="none" stroke="black" points="240,-39 240,-57 310,-57 310,-39 240,-39"/>
<text text-anchor="start" x="291" y="-45.2" font-family="Helvetica,sans-Serif" font-size="11.00">1 &gt;</text>
<polygon fill="none" stroke="black" stroke-width="2" points="9,-38 9,-366 311,-366 311,-38 9,-38"/>
</a>
</g>
</g>
<!-- tww_od.building_group&#45;&gt;building_group_electric_connection -->
<g id="edge1" class="edge">
<title>tww_od.building_group:w&#45;&gt;building_group_electric_connection:e</title>
<path fill="none" stroke="black" d="M345.84,-332C334.41,-332 327.16,-332 311,-332"/>
<polygon fill="black" stroke="black" points="352.5,-332 360.5,-335.6 356.5,-332 360.5,-332 360.5,-332 360.5,-332 356.5,-332 360.5,-328.4 352.5,-332 352.5,-332"/>
<ellipse fill="none" stroke="black" cx="349.3" cy="-332" rx="3.2" ry="3.2"/>
</g>
</g>
</svg>
