<?xml version="1.0" encoding="UTF-8" standalone="no"?>
<!DOCTYPE svg PUBLIC "-//W3C//DTD SVG 1.1//EN"
 "http://www.w3.org/Graphics/SVG/1.1/DTD/svg11.dtd">
<!-- Generated by graphviz version 2.43.0 (0)
 -->
<!-- Title: oneDegreeRelationshipsDiagram Pages: 1 -->
<svg width="677pt" height="399pt"
 viewBox="0.00 0.00 677.00 399.00" xmlns="http://www.w3.org/2000/svg" xmlns:xlink="http://www.w3.org/1999/xlink">
<g id="graph0" class="graph" transform="scale(1 1) rotate(0) translate(4 395)">
<title>oneDegreeRelationshipsDiagram</title>
<polygon fill="#ffffff" stroke="transparent" points="-4,4 -4,-395 673,-395 673,4 -4,4"/>
<text text-anchor="middle" x="79.5" y="-7.2" font-family="Helvetica,sans-Serif" font-size="11.00">Generated by SchemaSpy</text>
<!-- tww_od.agxx_building_group_text -->
<g id="node1" class="node">
<title>tww_od.agxx_building_group_text</title>
<g id="a_node1"><a xlink:href="../../../tww_od/tables/agxx_building_group_text.html" xlink:title="tww_od.agxx_building_group_text" target="_top">
<polygon fill="#ffffff" stroke="transparent" points="368,-263 368,-387 661,-387 661,-263 368,-263"/>
<polygon fill="#f5f5f5" stroke="transparent" points="368.5,-365 368.5,-387 661.5,-387 661.5,-365 368.5,-365"/>
<polygon fill="none" stroke="black" points="368.5,-365 368.5,-387 661.5,-387 661.5,-365 368.5,-365"/>
<text text-anchor="start" x="373.5" y="-374.2" font-family="Helvetica,sans-Serif" font-weight="bold" font-size="11.00">tww_od.agxx_building_group_text</text>
<text text-anchor="start" x="619.5" y="-373.2" font-family="Helvetica,sans-Serif" font-size="11.00">[table]</text>
<polygon fill="none" stroke="black" points="368.5,-343 368.5,-365 661.5,-365 661.5,-343 368.5,-343"/>
<image xlink:href="../../images/foreignKeys.png" width="11px" height="12px" preserveAspectRatio="xMinYMin meet" x="373.5" y="-360"/>
<text text-anchor="start" x="431.5" y="-351.2" font-family="Helvetica,sans-Serif" font-size="11.00">plantype</text>
<polygon fill="none" stroke="black" points="368.5,-321 368.5,-343 661.5,-343 661.5,-321 368.5,-321"/>
<image xlink:href="../../images/foreignKeys.png" width="11px" height="12px" preserveAspectRatio="xMinYMin meet" x="373.5" y="-338"/>
<text text-anchor="start" x="431.5" y="-329.2" font-family="Helvetica,sans-Serif" font-size="11.00">texthali</text>
<polygon fill="none" stroke="black" points="368.5,-299 368.5,-321 661.5,-321 661.5,-299 368.5,-299"/>
<image xlink:href="../../images/foreignKeys.png" width="11px" height="12px" preserveAspectRatio="xMinYMin meet" x="373.5" y="-316"/>
<text text-anchor="start" x="431.5" y="-307.2" font-family="Helvetica,sans-Serif" font-size="11.00">textvali</text>
<polygon fill="none" stroke="black" points="368.5,-281 368.5,-299 661.5,-299 661.5,-281 368.5,-281"/>
<text text-anchor="start" x="371.5" y="-287.2" font-family="Helvetica,sans-Serif" font-size="11.00">...</text>
<polygon fill="#ffffff" stroke="transparent" points="368.5,-263 368.5,-281 661.5,-281 661.5,-263 368.5,-263"/>
<polygon fill="none" stroke="black" points="368.5,-263 368.5,-281 661.5,-281 661.5,-263 368.5,-263"/>
<polygon fill="#ffffff" stroke="transparent" points="369.5,-264 369.5,-280 465.5,-280 465.5,-264 369.5,-264"/>
<text text-anchor="start" x="371.5" y="-269.2" font-family="Helvetica,sans-Serif" font-size="11.00">&lt; 3</text>
<polygon fill="#ffffff" stroke="transparent" points="465.5,-264 465.5,-280 577.5,-280 577.5,-264 465.5,-264"/>
<text text-anchor="start" x="503" y="-269.2" font-family="Helvetica,sans-Serif" font-size="11.00">0 rows</text>
<polygon fill="#ffffff" stroke="transparent" points="577.5,-264 577.5,-280 660.5,-280 660.5,-264 577.5,-264"/>
<text text-anchor="start" x="650.5" y="-269.2" font-family="Helvetica,sans-Serif" font-size="11.00"> &#160;</text>
<polygon fill="black" stroke="black" points="465.5,-264 465.5,-280 465.5,-280 465.5,-264 465.5,-264"/>
<polygon fill="black" stroke="black" points="577.5,-264 577.5,-280 577.5,-280 577.5,-264 577.5,-264"/>
</a>
</g>
</g>
<!-- building_group_text_texthali -->
<g id="node2" class="node">
<title>building_group_text_texthali</title>
<g id="a_node2"><a xlink:href="../../tables/building_group_text_texthali.html" xlink:title="building_group_text_texthali" target="_top">
<polygon fill="#ffffff" stroke="transparent" points="8,-37 8,-367 319,-367 319,-37 8,-37"/>
<polygon fill="#f5f5f5" stroke="transparent" points="10.5,-343 10.5,-365 317.5,-365 317.5,-343 10.5,-343"/>
<polygon fill="none" stroke="black" points="10.5,-343 10.5,-365 317.5,-365 317.5,-343 10.5,-343"/>
<text text-anchor="start" x="15.5" y="-352.2" font-family="Helvetica,sans-Serif" font-weight="bold" font-size="11.00">building_group_text_texthali</text>
<text text-anchor="start" x="275.5" y="-351.2" font-family="Helvetica,sans-Serif" font-size="11.00">[table]</text>
<polygon fill="none" stroke="black" points="10.5,-321 10.5,-343 239.5,-343 239.5,-321 10.5,-321"/>
<image xlink:href="../../images/primaryKeys.png" width="11px" height="12px" preserveAspectRatio="xMinYMin meet" x="15.5" y="-338"/>
<text text-anchor="start" x="30.5" y="-329.2" font-family="Helvetica,sans-Serif" font-size="11.00">code</text>
<polygon fill="none" stroke="black" points="239.5,-321 239.5,-343 317.5,-343 317.5,-321 239.5,-321"/>
<text text-anchor="start" x="242.5" y="-329.2" font-family="Helvetica,sans-Serif" font-size="11.00">int4[10]</text>
<polygon fill="none" stroke="black" points="10.5,-299 10.5,-321 239.5,-321 239.5,-299 10.5,-299"/>
<text text-anchor="start" x="30.5" y="-307.2" font-family="Helvetica,sans-Serif" font-size="11.00">vsacode</text>
<polygon fill="none" stroke="black" points="239.5,-299 239.5,-321 317.5,-321 317.5,-299 239.5,-299"/>
<text text-anchor="start" x="242.5" y="-307.2" font-family="Helvetica,sans-Serif" font-size="11.00">int4[10]</text>
<polygon fill="none" stroke="black" points="10.5,-277 10.5,-299 239.5,-299 239.5,-277 10.5,-277"/>
<text text-anchor="start" x="30.5" y="-285.2" font-family="Helvetica,sans-Serif" font-size="11.00">value_en</text>
<polygon fill="none" stroke="black" points="239.5,-277 239.5,-299 317.5,-299 317.5,-277 239.5,-277"/>
<text text-anchor="start" x="242.5" y="-285.2" font-family="Helvetica,sans-Serif" font-size="11.00">varchar[100]</text>
<polygon fill="none" stroke="black" points="10.5,-255 10.5,-277 239.5,-277 239.5,-255 10.5,-255"/>
<text text-anchor="start" x="30.5" y="-263.2" font-family="Helvetica,sans-Serif" font-size="11.00">value_de</text>
<polygon fill="none" stroke="black" points="239.5,-255 239.5,-277 317.5,-277 317.5,-255 239.5,-255"/>
<text text-anchor="start" x="242.5" y="-263.2" font-family="Helvetica,sans-Serif" font-size="11.00">varchar[100]</text>
<polygon fill="none" stroke="black" points="10.5,-233 10.5,-255 239.5,-255 239.5,-233 10.5,-233"/>
<text text-anchor="start" x="30.5" y="-241.2" font-family="Helvetica,sans-Serif" font-size="11.00">value_fr</text>
<polygon fill="none" stroke="black" points="239.5,-233 239.5,-255 317.5,-255 317.5,-233 239.5,-233"/>
<text text-anchor="start" x="242.5" y="-241.2" font-family="Helvetica,sans-Serif" font-size="11.00">varchar[100]</text>
<polygon fill="none" stroke="black" points="10.5,-211 10.5,-233 239.5,-233 239.5,-211 10.5,-211"/>
<text text-anchor="start" x="30.5" y="-219.2" font-family="Helvetica,sans-Serif" font-size="11.00">value_it</text>
<polygon fill="none" stroke="black" points="239.5,-211 239.5,-233 317.5,-233 317.5,-211 239.5,-211"/>
<text text-anchor="start" x="242.5" y="-219.2" font-family="Helvetica,sans-Serif" font-size="11.00">varchar[100]</text>
<polygon fill="none" stroke="black" points="10.5,-189 10.5,-211 239.5,-211 239.5,-189 10.5,-189"/>
<text text-anchor="start" x="30.5" y="-197.2" font-family="Helvetica,sans-Serif" font-size="11.00">value_ro</text>
<polygon fill="none" stroke="black" points="239.5,-189 239.5,-211 317.5,-211 317.5,-189 239.5,-189"/>
<text text-anchor="start" x="242.5" y="-197.2" font-family="Helvetica,sans-Serif" font-size="11.00">varchar[100]</text>
<polygon fill="none" stroke="black" points="10.5,-167 10.5,-189 239.5,-189 239.5,-167 10.5,-167"/>
<text text-anchor="start" x="30.5" y="-175.2" font-family="Helvetica,sans-Serif" font-size="11.00">abbr_en</text>
<polygon fill="none" stroke="black" points="239.5,-167 239.5,-189 317.5,-189 317.5,-167 239.5,-167"/>
<text text-anchor="start" x="242.5" y="-175.2" font-family="Helvetica,sans-Serif" font-size="11.00">varchar[3]</text>
<polygon fill="none" stroke="black" points="10.5,-145 10.5,-167 239.5,-167 239.5,-145 10.5,-145"/>
<text text-anchor="start" x="30.5" y="-153.2" font-family="Helvetica,sans-Serif" font-size="11.00">abbr_de</text>
<polygon fill="none" stroke="black" points="239.5,-145 239.5,-167 317.5,-167 317.5,-145 239.5,-145"/>
<text text-anchor="start" x="242.5" y="-153.2" font-family="Helvetica,sans-Serif" font-size="11.00">varchar[3]</text>
<polygon fill="none" stroke="black" points="10.5,-123 10.5,-145 239.5,-145 239.5,-123 10.5,-123"/>
<text text-anchor="start" x="30.5" y="-131.2" font-family="Helvetica,sans-Serif" font-size="11.00">abbr_fr</text>
<polygon fill="none" stroke="black" points="239.5,-123 239.5,-145 317.5,-145 317.5,-123 239.5,-123"/>
<text text-anchor="start" x="242.5" y="-131.2" font-family="Helvetica,sans-Serif" font-size="11.00">varchar[3]</text>
<polygon fill="none" stroke="black" points="10.5,-101 10.5,-123 239.5,-123 239.5,-101 10.5,-101"/>
<text text-anchor="start" x="30.5" y="-109.2" font-family="Helvetica,sans-Serif" font-size="11.00">abbr_it</text>
<polygon fill="none" stroke="black" points="239.5,-101 239.5,-123 317.5,-123 317.5,-101 239.5,-101"/>
<text text-anchor="start" x="242.5" y="-109.2" font-family="Helvetica,sans-Serif" font-size="11.00">varchar[3]</text>
<polygon fill="none" stroke="black" points="10.5,-79 10.5,-101 239.5,-101 239.5,-79 10.5,-79"/>
<text text-anchor="start" x="30.5" y="-87.2" font-family="Helvetica,sans-Serif" font-size="11.00">abbr_ro</text>
<polygon fill="none" stroke="black" points="239.5,-79 239.5,-101 317.5,-101 317.5,-79 239.5,-79"/>
<text text-anchor="start" x="242.5" y="-87.2" font-family="Helvetica,sans-Serif" font-size="11.00">varchar[3]</text>
<polygon fill="none" stroke="black" points="10.5,-57 10.5,-79 239.5,-79 239.5,-57 10.5,-57"/>
<text text-anchor="start" x="30.5" y="-65.2" font-family="Helvetica,sans-Serif" font-size="11.00">active</text>
<polygon fill="none" stroke="black" points="239.5,-57 239.5,-79 317.5,-79 317.5,-57 239.5,-57"/>
<text text-anchor="start" x="242.5" y="-65.2" font-family="Helvetica,sans-Serif" font-size="11.00">bool[1]</text>
<polygon fill="#ffffff" stroke="transparent" points="10.5,-39 10.5,-57 317.5,-57 317.5,-39 10.5,-39"/>
<polygon fill="none" stroke="black" points="10.5,-39 10.5,-57 317.5,-57 317.5,-39 10.5,-39"/>
<polygon fill="#ffffff" stroke="transparent" points="11.5,-40 11.5,-56 117.5,-56 117.5,-40 11.5,-40"/>
<text text-anchor="start" x="13.5" y="-45.2" font-family="Helvetica,sans-Serif" font-size="11.00">&lt; 0</text>
<polygon fill="#ffffff" stroke="transparent" points="117.5,-40 117.5,-56 211.5,-56 211.5,-40 117.5,-40"/>
<text text-anchor="start" x="160.5" y="-45.2" font-family="Helvetica,sans-Serif" font-size="11.00"> &#160;</text>
<polygon fill="#ffffff" stroke="transparent" points="211.5,-40 211.5,-56 316.5,-56 316.5,-40 211.5,-40"/>
<text text-anchor="start" x="294.5" y="-45.2" font-family="Helvetica,sans-Serif" font-size="11.00">1 &gt;</text>
<polygon fill="black" stroke="black" points="117.5,-40 117.5,-56 117.5,-56 117.5,-40 117.5,-40"/>
<polygon fill="black" stroke="black" points="211.5,-40 211.5,-56 211.5,-56 211.5,-40 211.5,-40"/>
<polygon fill="none" stroke="black" stroke-width="2" points="9,-38 9,-366 318,-366 318,-38 9,-38"/>
</a>
</g>
</g>
<!-- tww_od.agxx_building_group_text&#45;&gt;building_group_text_texthali -->
<g id="edge1" class="edge">
<title>tww_od.agxx_building_group_text:w&#45;&gt;building_group_text_texthali:e</title>
<path fill="none" stroke="black" d="M352.99,-332C341.68,-332 334.49,-332 318.5,-332"/>
<polygon fill="black" stroke="black" points="359.5,-332 367.5,-335.6 363.5,-332 367.5,-332 367.5,-332 367.5,-332 363.5,-332 367.5,-328.4 359.5,-332 359.5,-332"/>
<ellipse fill="none" stroke="black" cx="356.3" cy="-332" rx="3.2" ry="3.2"/>
</g>
</g>
</svg>
