<?xml version="1.0" encoding="UTF-8" standalone="no"?>
<!DOCTYPE svg PUBLIC "-//W3C//DTD SVG 1.1//EN"
 "http://www.w3.org/Graphics/SVG/1.1/DTD/svg11.dtd">
<!-- Generated by graphviz version 2.47.1 (20210515.0534)
 -->
<!-- Title: oneDegreeRelationshipsDiagram Pages: 1 -->
<svg width="563pt" height="421pt"
 viewBox="0.00 0.00 563.00 421.00" xmlns="http://www.w3.org/2000/svg" xmlns:xlink="http://www.w3.org/1999/xlink">
<g id="graph0" class="graph" transform="scale(1 1) rotate(0) translate(4 417)">
<title>oneDegreeRelationshipsDiagram</title>
<polygon fill="#ffffff" stroke="transparent" points="-4,4 -4,-417 559,-417 559,4 -4,4"/>
<text text-anchor="middle" x="73.5" y="-7.2" font-family="Helvetica,sans-Serif" font-size="11.00">Generated by SchemaSpy</text>
<!-- tww_od.catchment_area_text -->
<g id="node1" class="node">
<title>tww_od.catchment_area_text</title>
<g id="a_node1"><a xlink:href="../../../tww_od/tables/catchment_area_text.html" xlink:title="tww_od.catchment_area_text" target="_top">
<polygon fill="#ffffff" stroke="transparent" points="328,-285 328,-409 547,-409 547,-285 328,-285"/>
<polygon fill="#f5f5f5" stroke="transparent" points="328.5,-387 328.5,-409 547.5,-409 547.5,-387 328.5,-387"/>
<polygon fill="none" stroke="black" points="328.5,-387 328.5,-409 547.5,-409 547.5,-387 328.5,-387"/>
<text text-anchor="start" x="333.5" y="-396.2" font-family="Helvetica,sans-Serif" font-weight="bold" font-size="11.00">tww_od.catchment_area_text</text>
<text text-anchor="start" x="508.5" y="-395.2" font-family="Helvetica,sans-Serif" font-size="11.00">[table]</text>
<polygon fill="none" stroke="black" points="328.5,-365 328.5,-387 547.5,-387 547.5,-365 328.5,-365"/>
<image xlink:href="../../images/foreignKeys.png" width="11px" height="12px" preserveAspectRatio="xMinYMin meet" x="333.5" y="-382"/>
<text text-anchor="start" x="384.5" y="-373.2" font-family="Helvetica,sans-Serif" font-size="11.00">plantype</text>
<polygon fill="none" stroke="black" points="328.5,-343 328.5,-365 547.5,-365 547.5,-343 328.5,-343"/>
<image xlink:href="../../images/foreignKeys.png" width="11px" height="12px" preserveAspectRatio="xMinYMin meet" x="333.5" y="-360"/>
<text text-anchor="start" x="384.5" y="-351.2" font-family="Helvetica,sans-Serif" font-size="11.00">texthali</text>
<polygon fill="none" stroke="black" points="328.5,-321 328.5,-343 547.5,-343 547.5,-321 328.5,-321"/>
<image xlink:href="../../images/foreignKeys.png" width="11px" height="12px" preserveAspectRatio="xMinYMin meet" x="333.5" y="-338"/>
<text text-anchor="start" x="384.5" y="-329.2" font-family="Helvetica,sans-Serif" font-size="11.00">textvali</text>
<polygon fill="none" stroke="black" points="328.5,-303 328.5,-321 547.5,-321 547.5,-303 328.5,-303"/>
<text text-anchor="start" x="331.5" y="-309.2" font-family="Helvetica,sans-Serif" font-size="11.00">...</text>
<polygon fill="#ffffff" stroke="transparent" points="328.5,-285 328.5,-303 422.5,-303 422.5,-285 328.5,-285"/>
<polygon fill="none" stroke="black" points="328.5,-285 328.5,-303 422.5,-303 422.5,-285 328.5,-285"/>
<text text-anchor="start" x="331.5" y="-291.2" font-family="Helvetica,sans-Serif" font-size="11.00">&lt; 3</text>
<polygon fill="#ffffff" stroke="transparent" points="422.5,-285 422.5,-303 498.5,-303 498.5,-285 422.5,-285"/>
<polygon fill="none" stroke="black" points="422.5,-285 422.5,-303 498.5,-303 498.5,-285 422.5,-285"/>
<text text-anchor="start" x="461.5" y="-291.2" font-family="Helvetica,sans-Serif" font-size="11.00">0 rows</text>
<polygon fill="#ffffff" stroke="transparent" points="498.5,-285 498.5,-303 547.5,-303 547.5,-285 498.5,-285"/>
<polygon fill="none" stroke="black" points="498.5,-285 498.5,-303 547.5,-303 547.5,-285 498.5,-285"/>
<text text-anchor="start" x="537.5" y="-291.2" font-family="Helvetica,sans-Serif" font-size="11.00"> &#160;</text>
</a>
</g>
</g>
<!-- catchment_area_text_textvali -->
<g id="node2" class="node">
<title>catchment_area_text_textvali</title>
<g id="a_node2"><a xlink:href="../../tables/catchment_area_text_textvali.html" xlink:title="catchment_area_text_textvali" target="_top">
<polygon fill="#ffffff" stroke="transparent" points="8,-37 8,-367 279,-367 279,-37 8,-37"/>
<polygon fill="#f5f5f5" stroke="transparent" points="10.5,-343 10.5,-365 277.5,-365 277.5,-343 10.5,-343"/>
<polygon fill="none" stroke="black" points="10.5,-343 10.5,-365 277.5,-365 277.5,-343 10.5,-343"/>
<text text-anchor="start" x="15.5" y="-352.2" font-family="Helvetica,sans-Serif" font-weight="bold" font-size="11.00">catchment_area_text_textvali</text>
<text text-anchor="start" x="238.5" y="-351.2" font-family="Helvetica,sans-Serif" font-size="11.00">[table]</text>
<polygon fill="none" stroke="black" points="10.5,-321 10.5,-343 207.5,-343 207.5,-321 10.5,-321"/>
<image xlink:href="../../images/primaryKeys.png" width="11px" height="12px" preserveAspectRatio="xMinYMin meet" x="15.5" y="-338"/>
<text text-anchor="start" x="30.5" y="-329.2" font-family="Helvetica,sans-Serif" font-size="11.00">code</text>
<polygon fill="none" stroke="black" points="207.5,-321 207.5,-343 277.5,-343 277.5,-321 207.5,-321"/>
<text text-anchor="start" x="210.5" y="-329.2" font-family="Helvetica,sans-Serif" font-size="11.00">int4[10]</text>
<polygon fill="none" stroke="black" points="10.5,-299 10.5,-321 207.5,-321 207.5,-299 10.5,-299"/>
<text text-anchor="start" x="30.5" y="-307.2" font-family="Helvetica,sans-Serif" font-size="11.00">vsacode</text>
<polygon fill="none" stroke="black" points="207.5,-299 207.5,-321 277.5,-321 277.5,-299 207.5,-299"/>
<text text-anchor="start" x="210.5" y="-307.2" font-family="Helvetica,sans-Serif" font-size="11.00">int4[10]</text>
<polygon fill="none" stroke="black" points="10.5,-277 10.5,-299 207.5,-299 207.5,-277 10.5,-277"/>
<text text-anchor="start" x="30.5" y="-285.2" font-family="Helvetica,sans-Serif" font-size="11.00">value_en</text>
<polygon fill="none" stroke="black" points="207.5,-277 207.5,-299 277.5,-299 277.5,-277 207.5,-277"/>
<text text-anchor="start" x="210.5" y="-285.2" font-family="Helvetica,sans-Serif" font-size="11.00">varchar[100]</text>
<polygon fill="none" stroke="black" points="10.5,-255 10.5,-277 207.5,-277 207.5,-255 10.5,-255"/>
<text text-anchor="start" x="30.5" y="-263.2" font-family="Helvetica,sans-Serif" font-size="11.00">value_de</text>
<polygon fill="none" stroke="black" points="207.5,-255 207.5,-277 277.5,-277 277.5,-255 207.5,-255"/>
<text text-anchor="start" x="210.5" y="-263.2" font-family="Helvetica,sans-Serif" font-size="11.00">varchar[100]</text>
<polygon fill="none" stroke="black" points="10.5,-233 10.5,-255 207.5,-255 207.5,-233 10.5,-233"/>
<text text-anchor="start" x="30.5" y="-241.2" font-family="Helvetica,sans-Serif" font-size="11.00">value_fr</text>
<polygon fill="none" stroke="black" points="207.5,-233 207.5,-255 277.5,-255 277.5,-233 207.5,-233"/>
<text text-anchor="start" x="210.5" y="-241.2" font-family="Helvetica,sans-Serif" font-size="11.00">varchar[100]</text>
<polygon fill="none" stroke="black" points="10.5,-211 10.5,-233 207.5,-233 207.5,-211 10.5,-211"/>
<text text-anchor="start" x="30.5" y="-219.2" font-family="Helvetica,sans-Serif" font-size="11.00">value_it</text>
<polygon fill="none" stroke="black" points="207.5,-211 207.5,-233 277.5,-233 277.5,-211 207.5,-211"/>
<text text-anchor="start" x="210.5" y="-219.2" font-family="Helvetica,sans-Serif" font-size="11.00">varchar[100]</text>
<polygon fill="none" stroke="black" points="10.5,-189 10.5,-211 207.5,-211 207.5,-189 10.5,-189"/>
<text text-anchor="start" x="30.5" y="-197.2" font-family="Helvetica,sans-Serif" font-size="11.00">value_ro</text>
<polygon fill="none" stroke="black" points="207.5,-189 207.5,-211 277.5,-211 277.5,-189 207.5,-189"/>
<text text-anchor="start" x="210.5" y="-197.2" font-family="Helvetica,sans-Serif" font-size="11.00">varchar[100]</text>
<polygon fill="none" stroke="black" points="10.5,-167 10.5,-189 207.5,-189 207.5,-167 10.5,-167"/>
<text text-anchor="start" x="30.5" y="-175.2" font-family="Helvetica,sans-Serif" font-size="11.00">abbr_en</text>
<polygon fill="none" stroke="black" points="207.5,-167 207.5,-189 277.5,-189 277.5,-167 207.5,-167"/>
<text text-anchor="start" x="210.5" y="-175.2" font-family="Helvetica,sans-Serif" font-size="11.00">varchar[3]</text>
<polygon fill="none" stroke="black" points="10.5,-145 10.5,-167 207.5,-167 207.5,-145 10.5,-145"/>
<text text-anchor="start" x="30.5" y="-153.2" font-family="Helvetica,sans-Serif" font-size="11.00">abbr_de</text>
<polygon fill="none" stroke="black" points="207.5,-145 207.5,-167 277.5,-167 277.5,-145 207.5,-145"/>
<text text-anchor="start" x="210.5" y="-153.2" font-family="Helvetica,sans-Serif" font-size="11.00">varchar[3]</text>
<polygon fill="none" stroke="black" points="10.5,-123 10.5,-145 207.5,-145 207.5,-123 10.5,-123"/>
<text text-anchor="start" x="30.5" y="-131.2" font-family="Helvetica,sans-Serif" font-size="11.00">abbr_fr</text>
<polygon fill="none" stroke="black" points="207.5,-123 207.5,-145 277.5,-145 277.5,-123 207.5,-123"/>
<text text-anchor="start" x="210.5" y="-131.2" font-family="Helvetica,sans-Serif" font-size="11.00">varchar[3]</text>
<polygon fill="none" stroke="black" points="10.5,-101 10.5,-123 207.5,-123 207.5,-101 10.5,-101"/>
<text text-anchor="start" x="30.5" y="-109.2" font-family="Helvetica,sans-Serif" font-size="11.00">abbr_it</text>
<polygon fill="none" stroke="black" points="207.5,-101 207.5,-123 277.5,-123 277.5,-101 207.5,-101"/>
<text text-anchor="start" x="210.5" y="-109.2" font-family="Helvetica,sans-Serif" font-size="11.00">varchar[3]</text>
<polygon fill="none" stroke="black" points="10.5,-79 10.5,-101 207.5,-101 207.5,-79 10.5,-79"/>
<text text-anchor="start" x="30.5" y="-87.2" font-family="Helvetica,sans-Serif" font-size="11.00">abbr_ro</text>
<polygon fill="none" stroke="black" points="207.5,-79 207.5,-101 277.5,-101 277.5,-79 207.5,-79"/>
<text text-anchor="start" x="210.5" y="-87.2" font-family="Helvetica,sans-Serif" font-size="11.00">varchar[3]</text>
<polygon fill="none" stroke="black" points="10.5,-57 10.5,-79 207.5,-79 207.5,-57 10.5,-57"/>
<text text-anchor="start" x="30.5" y="-65.2" font-family="Helvetica,sans-Serif" font-size="11.00">active</text>
<polygon fill="none" stroke="black" points="207.5,-57 207.5,-79 277.5,-79 277.5,-57 207.5,-57"/>
<text text-anchor="start" x="210.5" y="-65.2" font-family="Helvetica,sans-Serif" font-size="11.00">bool[1]</text>
<polygon fill="#ffffff" stroke="transparent" points="10.5,-39 10.5,-57 113.5,-57 113.5,-39 10.5,-39"/>
<polygon fill="none" stroke="black" points="10.5,-39 10.5,-57 113.5,-57 113.5,-39 10.5,-39"/>
<text text-anchor="start" x="13.5" y="-45.2" font-family="Helvetica,sans-Serif" font-size="11.00">&lt; 0</text>
<polygon fill="#ffffff" stroke="transparent" points="113.5,-39 113.5,-57 207.5,-57 207.5,-39 113.5,-39"/>
<polygon fill="none" stroke="black" points="113.5,-39 113.5,-57 207.5,-57 207.5,-39 113.5,-39"/>
<text text-anchor="start" x="197.5" y="-45.2" font-family="Helvetica,sans-Serif" font-size="11.00"> &#160;</text>
<polygon fill="#ffffff" stroke="transparent" points="207.5,-39 207.5,-57 277.5,-57 277.5,-39 207.5,-39"/>
<polygon fill="none" stroke="black" points="207.5,-39 207.5,-57 277.5,-57 277.5,-39 207.5,-39"/>
<text text-anchor="start" x="258.5" y="-45.2" font-family="Helvetica,sans-Serif" font-size="11.00">1 &gt;</text>
<polygon fill="none" stroke="black" stroke-width="2" points="9,-38 9,-366 278,-366 278,-38 9,-38"/>
</a>
</g>
</g>
<!-- tww_od.catchment_area_text&#45;&gt;catchment_area_text_textvali -->
<g id="edge1" class="edge">
<title>tww_od.catchment_area_text:w&#45;&gt;catchment_area_text_textvali:e</title>
<path fill="none" stroke="black" d="M312.99,-332C301.68,-332 294.49,-332 278.5,-332"/>
<polygon fill="black" stroke="black" points="319.5,-332 327.5,-335.6 323.5,-332 327.5,-332 327.5,-332 327.5,-332 323.5,-332 327.5,-328.4 319.5,-332 319.5,-332"/>
<ellipse fill="none" stroke="black" cx="316.3" cy="-332" rx="3.2" ry="3.2"/>
</g>
</g>
</svg>
