<?xml version="1.0" encoding="UTF-8" standalone="no"?>
<!DOCTYPE svg PUBLIC "-//W3C//DTD SVG 1.1//EN"
 "http://www.w3.org/Graphics/SVG/1.1/DTD/svg11.dtd">
<!-- Generated by graphviz version 2.43.0 (0)
 -->
<!-- Title: oneDegreeRelationshipsDiagram Pages: 1 -->
<svg width="831pt" height="379pt"
 viewBox="0.00 0.00 831.00 379.00" xmlns="http://www.w3.org/2000/svg" xmlns:xlink="http://www.w3.org/1999/xlink">
<g id="graph0" class="graph" transform="scale(1 1) rotate(0) translate(4 375)">
<title>oneDegreeRelationshipsDiagram</title>
<polygon fill="#ffffff" stroke="transparent" points="-4,4 -4,-375 827,-375 827,4 -4,4"/>
<text text-anchor="middle" x="79.5" y="-7.2" font-family="Helvetica,sans-Serif" font-size="11.00">Generated by SchemaSpy</text>
<!-- tww_od.catchment_area -->
<g id="node1" class="node">
<title>tww_od.catchment_area</title>
<g id="a_node1"><a xlink:href="../../../tww_od/tables/catchment_area.html" xlink:title="tww_od.catchment_area" target="_top">
<polygon fill="#ffffff" stroke="transparent" points="465,-131 465,-365 815,-365 815,-131 465,-131"/>
<polygon fill="#f5f5f5" stroke="transparent" points="465,-343 465,-365 815,-365 815,-343 465,-343"/>
<polygon fill="none" stroke="black" points="465,-343 465,-365 815,-365 815,-343 465,-343"/>
<text text-anchor="start" x="470" y="-352.2" font-family="Helvetica,sans-Serif" font-weight="bold" font-size="11.00">tww_od.catchment_area</text>
<text text-anchor="start" x="773" y="-351.2" font-family="Helvetica,sans-Serif" font-size="11.00">[table]</text>
<polygon fill="none" stroke="black" points="465,-321 465,-343 815,-343 815,-321 465,-321"/>
<image xlink:href="../../images/foreignKeys.png" width="11px" height="12px" preserveAspectRatio="xMinYMin meet" x="470" y="-338"/>
<text text-anchor="start" x="485" y="-329.2" font-family="Helvetica,sans-Serif" font-size="11.00">direct_discharge_current</text>
<polygon fill="none" stroke="black" points="465,-299 465,-321 815,-321 815,-299 465,-299"/>
<image xlink:href="../../images/foreignKeys.png" width="11px" height="12px" preserveAspectRatio="xMinYMin meet" x="470" y="-316"/>
<text text-anchor="start" x="485" y="-307.2" font-family="Helvetica,sans-Serif" font-size="11.00">direct_discharge_planned</text>
<polygon fill="none" stroke="black" points="465,-277 465,-299 815,-299 815,-277 465,-277"/>
<image xlink:href="../../images/foreignKeys.png" width="11px" height="12px" preserveAspectRatio="xMinYMin meet" x="470" y="-294"/>
<text text-anchor="start" x="485" y="-285.2" font-family="Helvetica,sans-Serif" font-size="11.00">drainage_system_current</text>
<polygon fill="none" stroke="black" points="465,-255 465,-277 815,-277 815,-255 465,-255"/>
<image xlink:href="../../images/foreignKeys.png" width="11px" height="12px" preserveAspectRatio="xMinYMin meet" x="470" y="-272"/>
<text text-anchor="start" x="485" y="-263.2" font-family="Helvetica,sans-Serif" font-size="11.00">drainage_system_planned</text>
<polygon fill="none" stroke="black" points="465,-233 465,-255 815,-255 815,-233 465,-233"/>
<image xlink:href="../../images/foreignKeys.png" width="11px" height="12px" preserveAspectRatio="xMinYMin meet" x="470" y="-250"/>
<text text-anchor="start" x="485" y="-241.2" font-family="Helvetica,sans-Serif" font-size="11.00">infiltration_current</text>
<polygon fill="none" stroke="black" points="465,-211 465,-233 815,-233 815,-211 465,-211"/>
<image xlink:href="../../images/foreignKeys.png" width="11px" height="12px" preserveAspectRatio="xMinYMin meet" x="470" y="-228"/>
<text text-anchor="start" x="485" y="-219.2" font-family="Helvetica,sans-Serif" font-size="11.00">infiltration_planned</text>
<polygon fill="none" stroke="black" points="465,-189 465,-211 815,-211 815,-189 465,-189"/>
<image xlink:href="../../images/foreignKeys.png" width="11px" height="12px" preserveAspectRatio="xMinYMin meet" x="470" y="-206"/>
<text text-anchor="start" x="485" y="-197.2" font-family="Helvetica,sans-Serif" font-size="11.00">retention_current</text>
<polygon fill="none" stroke="black" points="465,-167 465,-189 815,-189 815,-167 465,-167"/>
<image xlink:href="../../images/foreignKeys.png" width="11px" height="12px" preserveAspectRatio="xMinYMin meet" x="470" y="-184"/>
<text text-anchor="start" x="485" y="-175.2" font-family="Helvetica,sans-Serif" font-size="11.00">retention_planned</text>
<polygon fill="none" stroke="black" points="465,-149 465,-167 815,-167 815,-149 465,-149"/>
<text text-anchor="start" x="468" y="-155.2" font-family="Helvetica,sans-Serif" font-size="11.00">...</text>
<polygon fill="#ffffff" stroke="transparent" points="465,-131 465,-149 815,-149 815,-131 465,-131"/>
<polygon fill="none" stroke="black" points="465,-131 465,-149 815,-149 815,-131 465,-131"/>
<polygon fill="#ffffff" stroke="transparent" points="466,-132 466,-148 581,-148 581,-132 466,-132"/>
<text text-anchor="start" x="468" y="-137.2" font-family="Helvetica,sans-Serif" font-size="11.00">&lt; 8</text>
<polygon fill="#ffffff" stroke="transparent" points="581,-132 581,-148 712,-148 712,-132 581,-132"/>
<text text-anchor="start" x="628" y="-137.2" font-family="Helvetica,sans-Serif" font-size="11.00">0 rows</text>
<polygon fill="#ffffff" stroke="transparent" points="712,-132 712,-148 814,-148 814,-132 712,-132"/>
<text text-anchor="start" x="804" y="-137.2" font-family="Helvetica,sans-Serif" font-size="11.00"> &#160;</text>
<polygon fill="black" stroke="black" points="581,-132 581,-148 581,-148 581,-132 581,-132"/>
<polygon fill="black" stroke="black" points="712,-132 712,-148 712,-148 712,-132 712,-132"/>
</a>
</g>
</g>
<!-- catchment_area_direct_discharge_current -->
<g id="node2" class="node">
<title>catchment_area_direct_discharge_current</title>
<g id="a_node2"><a xlink:href="../../tables/catchment_area_direct_discharge_current.html" xlink:title="catchment_area_direct_discharge_current" target="_top">
<polygon fill="#ffffff" stroke="transparent" points="8,-37 8,-367 416,-367 416,-37 8,-37"/>
<polygon fill="#f5f5f5" stroke="transparent" points="10,-343 10,-365 414,-365 414,-343 10,-343"/>
<polygon fill="none" stroke="black" points="10,-343 10,-365 414,-365 414,-343 10,-343"/>
<text text-anchor="start" x="15" y="-352.2" font-family="Helvetica,sans-Serif" font-weight="bold" font-size="11.00">catchment_area_direct_discharge_current</text>
<text text-anchor="start" x="372" y="-351.2" font-family="Helvetica,sans-Serif" font-size="11.00">[table]</text>
<polygon fill="none" stroke="black" points="10,-321 10,-343 336,-343 336,-321 10,-321"/>
<image xlink:href="../../images/primaryKeys.png" width="11px" height="12px" preserveAspectRatio="xMinYMin meet" x="15" y="-338"/>
<text text-anchor="start" x="30" y="-329.2" font-family="Helvetica,sans-Serif" font-size="11.00">code</text>
<polygon fill="none" stroke="black" points="336,-321 336,-343 414,-343 414,-321 336,-321"/>
<text text-anchor="start" x="339" y="-329.2" font-family="Helvetica,sans-Serif" font-size="11.00">int4[10]</text>
<polygon fill="none" stroke="black" points="10,-299 10,-321 336,-321 336,-299 10,-299"/>
<text text-anchor="start" x="30" y="-307.2" font-family="Helvetica,sans-Serif" font-size="11.00">vsacode</text>
<polygon fill="none" stroke="black" points="336,-299 336,-321 414,-321 414,-299 336,-299"/>
<text text-anchor="start" x="339" y="-307.2" font-family="Helvetica,sans-Serif" font-size="11.00">int4[10]</text>
<polygon fill="none" stroke="black" points="10,-277 10,-299 336,-299 336,-277 10,-277"/>
<text text-anchor="start" x="30" y="-285.2" font-family="Helvetica,sans-Serif" font-size="11.00">value_en</text>
<polygon fill="none" stroke="black" points="336,-277 336,-299 414,-299 414,-277 336,-277"/>
<text text-anchor="start" x="339" y="-285.2" font-family="Helvetica,sans-Serif" font-size="11.00">varchar[100]</text>
<polygon fill="none" stroke="black" points="10,-255 10,-277 336,-277 336,-255 10,-255"/>
<text text-anchor="start" x="30" y="-263.2" font-family="Helvetica,sans-Serif" font-size="11.00">value_de</text>
<polygon fill="none" stroke="black" points="336,-255 336,-277 414,-277 414,-255 336,-255"/>
<text text-anchor="start" x="339" y="-263.2" font-family="Helvetica,sans-Serif" font-size="11.00">varchar[100]</text>
<polygon fill="none" stroke="black" points="10,-233 10,-255 336,-255 336,-233 10,-233"/>
<text text-anchor="start" x="30" y="-241.2" font-family="Helvetica,sans-Serif" font-size="11.00">value_fr</text>
<polygon fill="none" stroke="black" points="336,-233 336,-255 414,-255 414,-233 336,-233"/>
<text text-anchor="start" x="339" y="-241.2" font-family="Helvetica,sans-Serif" font-size="11.00">varchar[100]</text>
<polygon fill="none" stroke="black" points="10,-211 10,-233 336,-233 336,-211 10,-211"/>
<text text-anchor="start" x="30" y="-219.2" font-family="Helvetica,sans-Serif" font-size="11.00">value_it</text>
<polygon fill="none" stroke="black" points="336,-211 336,-233 414,-233 414,-211 336,-211"/>
<text text-anchor="start" x="339" y="-219.2" font-family="Helvetica,sans-Serif" font-size="11.00">varchar[100]</text>
<polygon fill="none" stroke="black" points="10,-189 10,-211 336,-211 336,-189 10,-189"/>
<text text-anchor="start" x="30" y="-197.2" font-family="Helvetica,sans-Serif" font-size="11.00">value_ro</text>
<polygon fill="none" stroke="black" points="336,-189 336,-211 414,-211 414,-189 336,-189"/>
<text text-anchor="start" x="339" y="-197.2" font-family="Helvetica,sans-Serif" font-size="11.00">varchar[100]</text>
<polygon fill="none" stroke="black" points="10,-167 10,-189 336,-189 336,-167 10,-167"/>
<text text-anchor="start" x="30" y="-175.2" font-family="Helvetica,sans-Serif" font-size="11.00">abbr_en</text>
<polygon fill="none" stroke="black" points="336,-167 336,-189 414,-189 414,-167 336,-167"/>
<text text-anchor="start" x="339" y="-175.2" font-family="Helvetica,sans-Serif" font-size="11.00">varchar[3]</text>
<polygon fill="none" stroke="black" points="10,-145 10,-167 336,-167 336,-145 10,-145"/>
<text text-anchor="start" x="30" y="-153.2" font-family="Helvetica,sans-Serif" font-size="11.00">abbr_de</text>
<polygon fill="none" stroke="black" points="336,-145 336,-167 414,-167 414,-145 336,-145"/>
<text text-anchor="start" x="339" y="-153.2" font-family="Helvetica,sans-Serif" font-size="11.00">varchar[3]</text>
<polygon fill="none" stroke="black" points="10,-123 10,-145 336,-145 336,-123 10,-123"/>
<text text-anchor="start" x="30" y="-131.2" font-family="Helvetica,sans-Serif" font-size="11.00">abbr_fr</text>
<polygon fill="none" stroke="black" points="336,-123 336,-145 414,-145 414,-123 336,-123"/>
<text text-anchor="start" x="339" y="-131.2" font-family="Helvetica,sans-Serif" font-size="11.00">varchar[3]</text>
<polygon fill="none" stroke="black" points="10,-101 10,-123 336,-123 336,-101 10,-101"/>
<text text-anchor="start" x="30" y="-109.2" font-family="Helvetica,sans-Serif" font-size="11.00">abbr_it</text>
<polygon fill="none" stroke="black" points="336,-101 336,-123 414,-123 414,-101 336,-101"/>
<text text-anchor="start" x="339" y="-109.2" font-family="Helvetica,sans-Serif" font-size="11.00">varchar[3]</text>
<polygon fill="none" stroke="black" points="10,-79 10,-101 336,-101 336,-79 10,-79"/>
<text text-anchor="start" x="30" y="-87.2" font-family="Helvetica,sans-Serif" font-size="11.00">abbr_ro</text>
<polygon fill="none" stroke="black" points="336,-79 336,-101 414,-101 414,-79 336,-79"/>
<text text-anchor="start" x="339" y="-87.2" font-family="Helvetica,sans-Serif" font-size="11.00">varchar[3]</text>
<polygon fill="none" stroke="black" points="10,-57 10,-79 336,-79 336,-57 10,-57"/>
<text text-anchor="start" x="30" y="-65.2" font-family="Helvetica,sans-Serif" font-size="11.00">active</text>
<polygon fill="none" stroke="black" points="336,-57 336,-79 414,-79 414,-57 336,-57"/>
<text text-anchor="start" x="339" y="-65.2" font-family="Helvetica,sans-Serif" font-size="11.00">bool[1]</text>
<polygon fill="#ffffff" stroke="transparent" points="10,-39 10,-57 414,-57 414,-39 10,-39"/>
<polygon fill="none" stroke="black" points="10,-39 10,-57 414,-57 414,-39 10,-39"/>
<polygon fill="#ffffff" stroke="transparent" points="11,-40 11,-56 149,-56 149,-40 11,-40"/>
<text text-anchor="start" x="13" y="-45.2" font-family="Helvetica,sans-Serif" font-size="11.00">&lt; 0</text>
<polygon fill="#ffffff" stroke="transparent" points="149,-40 149,-56 275,-56 275,-40 149,-40"/>
<text text-anchor="start" x="208" y="-45.2" font-family="Helvetica,sans-Serif" font-size="11.00"> &#160;</text>
<polygon fill="#ffffff" stroke="transparent" points="275,-40 275,-56 413,-56 413,-40 275,-40"/>
<text text-anchor="start" x="391" y="-45.2" font-family="Helvetica,sans-Serif" font-size="11.00">1 &gt;</text>
<polygon fill="black" stroke="black" points="149,-40 149,-56 149,-56 149,-40 149,-40"/>
<polygon fill="black" stroke="black" points="275,-40 275,-56 275,-56 275,-40 275,-40"/>
<polygon fill="none" stroke="black" stroke-width="2" points="9,-38 9,-366 415,-366 415,-38 9,-38"/>
</a>
</g>
</g>
<!-- tww_od.catchment_area&#45;&gt;catchment_area_direct_discharge_current -->
<g id="edge1" class="edge">
<title>tww_od.catchment_area:w&#45;&gt;catchment_area_direct_discharge_current:e</title>
<path fill="none" stroke="black" d="M449.49,-332C438.18,-332 430.99,-332 415,-332"/>
<polygon fill="black" stroke="black" points="456,-332 464,-335.6 460,-332 464,-332 464,-332 464,-332 460,-332 464,-328.4 456,-332 456,-332"/>
<ellipse fill="none" stroke="black" cx="452.8" cy="-332" rx="3.2" ry="3.2"/>
</g>
</g>
</svg>
