<?xml version="1.0" encoding="UTF-8" standalone="no"?>
<!DOCTYPE svg PUBLIC "-//W3C//DTD SVG 1.1//EN"
 "http://www.w3.org/Graphics/SVG/1.1/DTD/svg11.dtd">
<!-- Generated by graphviz version 2.47.1 (20210515.0534)
 -->
<!-- Title: oneDegreeRelationshipsDiagram Pages: 1 -->
<svg width="459pt" height="531pt"
 viewBox="0.00 0.00 459.00 531.00" xmlns="http://www.w3.org/2000/svg" xmlns:xlink="http://www.w3.org/1999/xlink">
<g id="graph0" class="graph" transform="scale(1 1) rotate(0) translate(4 527)">
<title>oneDegreeRelationshipsDiagram</title>
<polygon fill="#ffffff" stroke="transparent" points="-4,4 -4,-527 455,-527 455,4 -4,4"/>
<text text-anchor="middle" x="73.5" y="-7.2" font-family="Helvetica,sans-Serif" font-size="11.00">Generated by SchemaSpy</text>
<!-- tww_od.channel -->
<g id="node1" class="node">
<title>tww_od.channel</title>
<g id="a_node1"><a xlink:href="../../../tww_od/tables/channel.html" xlink:title="tww_od.channel" target="_top">
<polygon fill="#ffffff" stroke="transparent" points="289,-285 289,-519 443,-519 443,-285 289,-285"/>
<polygon fill="#f5f5f5" stroke="transparent" points="289,-497 289,-519 443,-519 443,-497 289,-497"/>
<polygon fill="none" stroke="black" points="289,-497 289,-519 443,-519 443,-497 289,-497"/>
<text text-anchor="start" x="294" y="-506.2" font-family="Helvetica,sans-Serif" font-weight="bold" font-size="11.00">tww_od.channel</text>
<text text-anchor="start" x="404" y="-505.2" font-family="Helvetica,sans-Serif" font-size="11.00">[table]</text>
<polygon fill="none" stroke="black" points="289,-475 289,-497 443,-497 443,-475 289,-475"/>
<image xlink:href="../../images/foreignKeys.png" width="11px" height="12px" preserveAspectRatio="xMinYMin meet" x="294" y="-492"/>
<text text-anchor="start" x="309" y="-483.2" font-family="Helvetica,sans-Serif" font-size="11.00">bedding_encasement</text>
<polygon fill="none" stroke="black" points="289,-453 289,-475 443,-475 443,-453 289,-453"/>
<image xlink:href="../../images/foreignKeys.png" width="11px" height="12px" preserveAspectRatio="xMinYMin meet" x="294" y="-470"/>
<text text-anchor="start" x="309" y="-461.2" font-family="Helvetica,sans-Serif" font-size="11.00">connection_type</text>
<polygon fill="none" stroke="black" points="289,-431 289,-453 443,-453 443,-431 289,-431"/>
<image xlink:href="../../images/foreignKeys.png" width="11px" height="12px" preserveAspectRatio="xMinYMin meet" x="294" y="-448"/>
<text text-anchor="start" x="309" y="-439.2" font-family="Helvetica,sans-Serif" font-size="11.00">function_amelioration</text>
<polygon fill="none" stroke="black" points="289,-409 289,-431 443,-431 443,-409 289,-409"/>
<image xlink:href="../../images/foreignKeys.png" width="11px" height="12px" preserveAspectRatio="xMinYMin meet" x="294" y="-426"/>
<text text-anchor="start" x="309" y="-417.2" font-family="Helvetica,sans-Serif" font-size="11.00">function_hierarchic</text>
<polygon fill="none" stroke="black" points="289,-387 289,-409 443,-409 443,-387 289,-387"/>
<image xlink:href="../../images/foreignKeys.png" width="11px" height="12px" preserveAspectRatio="xMinYMin meet" x="294" y="-404"/>
<text text-anchor="start" x="309" y="-395.2" font-family="Helvetica,sans-Serif" font-size="11.00">function_hydraulic</text>
<polygon fill="none" stroke="black" points="289,-365 289,-387 443,-387 443,-365 289,-365"/>
<image xlink:href="../../images/foreignKeys.png" width="11px" height="12px" preserveAspectRatio="xMinYMin meet" x="294" y="-382"/>
<text text-anchor="start" x="309" y="-373.2" font-family="Helvetica,sans-Serif" font-size="11.00">seepage</text>
<polygon fill="none" stroke="black" points="289,-343 289,-365 443,-365 443,-343 289,-343"/>
<image xlink:href="../../images/foreignKeys.png" width="11px" height="12px" preserveAspectRatio="xMinYMin meet" x="294" y="-360"/>
<text text-anchor="start" x="309" y="-351.2" font-family="Helvetica,sans-Serif" font-size="11.00">usage_current</text>
<polygon fill="none" stroke="black" points="289,-321 289,-343 443,-343 443,-321 289,-321"/>
<image xlink:href="../../images/foreignKeys.png" width="11px" height="12px" preserveAspectRatio="xMinYMin meet" x="294" y="-338"/>
<text text-anchor="start" x="309" y="-329.2" font-family="Helvetica,sans-Serif" font-size="11.00">usage_planned</text>
<polygon fill="none" stroke="black" points="289,-303 289,-321 443,-321 443,-303 289,-303"/>
<text text-anchor="start" x="292" y="-309.2" font-family="Helvetica,sans-Serif" font-size="11.00">...</text>
<polygon fill="#ffffff" stroke="transparent" points="289,-285 289,-303 350,-303 350,-285 289,-285"/>
<polygon fill="none" stroke="black" points="289,-285 289,-303 350,-303 350,-285 289,-285"/>
<text text-anchor="start" x="292" y="-291.2" font-family="Helvetica,sans-Serif" font-size="11.00">&lt; 8</text>
<polygon fill="#ffffff" stroke="transparent" points="350,-285 350,-303 410,-303 410,-285 350,-285"/>
<polygon fill="none" stroke="black" points="350,-285 350,-303 410,-303 410,-285 350,-285"/>
<text text-anchor="start" x="373" y="-291.2" font-family="Helvetica,sans-Serif" font-size="11.00">0 rows</text>
<polygon fill="#ffffff" stroke="transparent" points="410,-285 410,-303 443,-303 443,-285 410,-285"/>
<polygon fill="none" stroke="black" points="410,-285 410,-303 443,-303 443,-285 410,-285"/>
<text text-anchor="start" x="433" y="-291.2" font-family="Helvetica,sans-Serif" font-size="11.00"> &#160;</text>
</a>
</g>
</g>
<!-- channel_usage_current -->
<g id="node2" class="node">
<title>channel_usage_current</title>
<g id="a_node2"><a xlink:href="../../tables/channel_usage_current.html" xlink:title="channel_usage_current" target="_top">
<polygon fill="#ffffff" stroke="transparent" points="8,-37 8,-389 240,-389 240,-37 8,-37"/>
<polygon fill="#f5f5f5" stroke="transparent" points="10,-365 10,-387 238,-387 238,-365 10,-365"/>
<polygon fill="none" stroke="black" points="10,-365 10,-387 238,-387 238,-365 10,-365"/>
<text text-anchor="start" x="15" y="-374.2" font-family="Helvetica,sans-Serif" font-weight="bold" font-size="11.00">channel_usage_current</text>
<text text-anchor="start" x="199" y="-373.2" font-family="Helvetica,sans-Serif" font-size="11.00">[table]</text>
<polygon fill="none" stroke="black" points="10,-343 10,-365 168,-365 168,-343 10,-343"/>
<image xlink:href="../../images/primaryKeys.png" width="11px" height="12px" preserveAspectRatio="xMinYMin meet" x="15" y="-360"/>
<text text-anchor="start" x="30" y="-351.2" font-family="Helvetica,sans-Serif" font-size="11.00">code</text>
<polygon fill="none" stroke="black" points="168,-343 168,-365 238,-365 238,-343 168,-343"/>
<text text-anchor="start" x="171" y="-351.2" font-family="Helvetica,sans-Serif" font-size="11.00">int4[10]</text>
<polygon fill="none" stroke="black" points="10,-321 10,-343 168,-343 168,-321 10,-321"/>
<text text-anchor="start" x="30" y="-329.2" font-family="Helvetica,sans-Serif" font-size="11.00">vsacode</text>
<polygon fill="none" stroke="black" points="168,-321 168,-343 238,-343 238,-321 168,-321"/>
<text text-anchor="start" x="171" y="-329.2" font-family="Helvetica,sans-Serif" font-size="11.00">int4[10]</text>
<polygon fill="none" stroke="black" points="10,-299 10,-321 168,-321 168,-299 10,-299"/>
<text text-anchor="start" x="30" y="-307.2" font-family="Helvetica,sans-Serif" font-size="11.00">value_en</text>
<polygon fill="none" stroke="black" points="168,-299 168,-321 238,-321 238,-299 168,-299"/>
<text text-anchor="start" x="171" y="-307.2" font-family="Helvetica,sans-Serif" font-size="11.00">varchar[100]</text>
<polygon fill="none" stroke="black" points="10,-277 10,-299 168,-299 168,-277 10,-277"/>
<text text-anchor="start" x="30" y="-285.2" font-family="Helvetica,sans-Serif" font-size="11.00">value_de</text>
<polygon fill="none" stroke="black" points="168,-277 168,-299 238,-299 238,-277 168,-277"/>
<text text-anchor="start" x="171" y="-285.2" font-family="Helvetica,sans-Serif" font-size="11.00">varchar[100]</text>
<polygon fill="none" stroke="black" points="10,-255 10,-277 168,-277 168,-255 10,-255"/>
<text text-anchor="start" x="30" y="-263.2" font-family="Helvetica,sans-Serif" font-size="11.00">value_fr</text>
<polygon fill="none" stroke="black" points="168,-255 168,-277 238,-277 238,-255 168,-255"/>
<text text-anchor="start" x="171" y="-263.2" font-family="Helvetica,sans-Serif" font-size="11.00">varchar[100]</text>
<polygon fill="none" stroke="black" points="10,-233 10,-255 168,-255 168,-233 10,-233"/>
<text text-anchor="start" x="30" y="-241.2" font-family="Helvetica,sans-Serif" font-size="11.00">value_it</text>
<polygon fill="none" stroke="black" points="168,-233 168,-255 238,-255 238,-233 168,-233"/>
<text text-anchor="start" x="171" y="-241.2" font-family="Helvetica,sans-Serif" font-size="11.00">varchar[100]</text>
<polygon fill="none" stroke="black" points="10,-211 10,-233 168,-233 168,-211 10,-211"/>
<text text-anchor="start" x="30" y="-219.2" font-family="Helvetica,sans-Serif" font-size="11.00">value_ro</text>
<polygon fill="none" stroke="black" points="168,-211 168,-233 238,-233 238,-211 168,-211"/>
<text text-anchor="start" x="171" y="-219.2" font-family="Helvetica,sans-Serif" font-size="11.00">varchar[100]</text>
<polygon fill="none" stroke="black" points="10,-189 10,-211 168,-211 168,-189 10,-189"/>
<text text-anchor="start" x="30" y="-197.2" font-family="Helvetica,sans-Serif" font-size="11.00">abbr_en</text>
<polygon fill="none" stroke="black" points="168,-189 168,-211 238,-211 238,-189 168,-189"/>
<text text-anchor="start" x="171" y="-197.2" font-family="Helvetica,sans-Serif" font-size="11.00">varchar[3]</text>
<polygon fill="none" stroke="black" points="10,-167 10,-189 168,-189 168,-167 10,-167"/>
<text text-anchor="start" x="30" y="-175.2" font-family="Helvetica,sans-Serif" font-size="11.00">abbr_de</text>
<polygon fill="none" stroke="black" points="168,-167 168,-189 238,-189 238,-167 168,-167"/>
<text text-anchor="start" x="171" y="-175.2" font-family="Helvetica,sans-Serif" font-size="11.00">varchar[3]</text>
<polygon fill="none" stroke="black" points="10,-145 10,-167 168,-167 168,-145 10,-145"/>
<text text-anchor="start" x="30" y="-153.2" font-family="Helvetica,sans-Serif" font-size="11.00">abbr_fr</text>
<polygon fill="none" stroke="black" points="168,-145 168,-167 238,-167 238,-145 168,-145"/>
<text text-anchor="start" x="171" y="-153.2" font-family="Helvetica,sans-Serif" font-size="11.00">varchar[3]</text>
<polygon fill="none" stroke="black" points="10,-123 10,-145 168,-145 168,-123 10,-123"/>
<text text-anchor="start" x="30" y="-131.2" font-family="Helvetica,sans-Serif" font-size="11.00">abbr_it</text>
<polygon fill="none" stroke="black" points="168,-123 168,-145 238,-145 238,-123 168,-123"/>
<text text-anchor="start" x="171" y="-131.2" font-family="Helvetica,sans-Serif" font-size="11.00">varchar[3]</text>
<polygon fill="none" stroke="black" points="10,-101 10,-123 168,-123 168,-101 10,-101"/>
<text text-anchor="start" x="30" y="-109.2" font-family="Helvetica,sans-Serif" font-size="11.00">abbr_ro</text>
<polygon fill="none" stroke="black" points="168,-101 168,-123 238,-123 238,-101 168,-101"/>
<text text-anchor="start" x="171" y="-109.2" font-family="Helvetica,sans-Serif" font-size="11.00">varchar[3]</text>
<polygon fill="none" stroke="black" points="10,-79 10,-101 168,-101 168,-79 10,-79"/>
<text text-anchor="start" x="30" y="-87.2" font-family="Helvetica,sans-Serif" font-size="11.00">active</text>
<polygon fill="none" stroke="black" points="168,-79 168,-101 238,-101 238,-79 168,-79"/>
<text text-anchor="start" x="171" y="-87.2" font-family="Helvetica,sans-Serif" font-size="11.00">bool[1]</text>
<polygon fill="none" stroke="black" points="10,-57 10,-79 168,-79 168,-57 10,-57"/>
<text text-anchor="start" x="30" y="-65.2" font-family="Helvetica,sans-Serif" font-size="11.00">tww_symbology_order</text>
<polygon fill="none" stroke="black" points="168,-57 168,-79 238,-79 238,-57 168,-57"/>
<text text-anchor="start" x="171" y="-65.2" font-family="Helvetica,sans-Serif" font-size="11.00">int2[5]</text>
<polygon fill="#ffffff" stroke="transparent" points="10,-39 10,-57 93,-57 93,-39 10,-39"/>
<polygon fill="none" stroke="black" points="10,-39 10,-57 93,-57 93,-39 10,-39"/>
<text text-anchor="start" x="13" y="-45.2" font-family="Helvetica,sans-Serif" font-size="11.00">&lt; 0</text>
<polygon fill="#ffffff" stroke="transparent" points="93,-39 93,-57 168,-57 168,-39 93,-39"/>
<polygon fill="none" stroke="black" points="93,-39 93,-57 168,-57 168,-39 93,-39"/>
<text text-anchor="start" x="158" y="-45.2" font-family="Helvetica,sans-Serif" font-size="11.00"> &#160;</text>
<polygon fill="#ffffff" stroke="transparent" points="168,-39 168,-57 238,-57 238,-39 168,-39"/>
<polygon fill="none" stroke="black" points="168,-39 168,-57 238,-57 238,-39 168,-39"/>
<text text-anchor="start" x="219" y="-45.2" font-family="Helvetica,sans-Serif" font-size="11.00">1 &gt;</text>
<polygon fill="none" stroke="black" stroke-width="2" points="9,-38 9,-388 239,-388 239,-38 9,-38"/>
</a>
</g>
</g>
<!-- tww_od.channel&#45;&gt;channel_usage_current -->
<g id="edge1" class="edge">
<title>tww_od.channel:w&#45;&gt;channel_usage_current:e</title>
<path fill="none" stroke="black" d="M273.49,-354C262.18,-354 254.99,-354 239,-354"/>
<polygon fill="black" stroke="black" points="280,-354 288,-357.6 284,-354 288,-354 288,-354 288,-354 284,-354 288,-350.4 280,-354 280,-354"/>
<ellipse fill="none" stroke="black" cx="276.8" cy="-354" rx="3.2" ry="3.2"/>
</g>
</g>
</svg>
