<?xml version="1.0" encoding="UTF-8" standalone="no"?>
<!DOCTYPE svg PUBLIC "-//W3C//DTD SVG 1.1//EN"
 "http://www.w3.org/Graphics/SVG/1.1/DTD/svg11.dtd">
<!-- Generated by graphviz version 2.43.0 (0)
 -->
<!-- Title: oneDegreeRelationshipsDiagram Pages: 1 -->
<svg width="473pt" height="399pt"
 viewBox="0.00 0.00 473.00 399.00" xmlns="http://www.w3.org/2000/svg" xmlns:xlink="http://www.w3.org/1999/xlink">
<g id="graph0" class="graph" transform="scale(1 1) rotate(0) translate(4 395)">
<title>oneDegreeRelationshipsDiagram</title>
<polygon fill="#ffffff" stroke="transparent" points="-4,4 -4,-395 469,-395 469,4 -4,4"/>
<text text-anchor="middle" x="79.5" y="-7.2" font-family="Helvetica,sans-Serif" font-size="11.00">Generated by SchemaSpy</text>
<!-- tww_od.cover -->
<g id="node1" class="node">
<title>tww_od.cover</title>
<g id="a_node1"><a xlink:href="../../../tww_od/tables/cover.html" xlink:title="tww_od.cover" target="_top">
<polygon fill="#ffffff" stroke="transparent" points="276,-197 276,-387 457,-387 457,-197 276,-197"/>
<polygon fill="#f5f5f5" stroke="transparent" points="276.5,-365 276.5,-387 457.5,-387 457.5,-365 276.5,-365"/>
<polygon fill="none" stroke="black" points="276.5,-365 276.5,-387 457.5,-387 457.5,-365 276.5,-365"/>
<text text-anchor="start" x="281.5" y="-374.2" font-family="Helvetica,sans-Serif" font-weight="bold" font-size="11.00">tww_od.cover</text>
<text text-anchor="start" x="415.5" y="-373.2" font-family="Helvetica,sans-Serif" font-size="11.00">[table]</text>
<polygon fill="none" stroke="black" points="276.5,-343 276.5,-365 457.5,-365 457.5,-343 276.5,-343"/>
<image xlink:href="../../images/foreignKeys.png" width="11px" height="12px" preserveAspectRatio="xMinYMin meet" x="281.5" y="-360"/>
<text text-anchor="start" x="296.5" y="-351.2" font-family="Helvetica,sans-Serif" font-size="11.00">cover_shape</text>
<polygon fill="none" stroke="black" points="276.5,-321 276.5,-343 457.5,-343 457.5,-321 276.5,-321"/>
<image xlink:href="../../images/foreignKeys.png" width="11px" height="12px" preserveAspectRatio="xMinYMin meet" x="281.5" y="-338"/>
<text text-anchor="start" x="296.5" y="-329.2" font-family="Helvetica,sans-Serif" font-size="11.00">fastening</text>
<polygon fill="none" stroke="black" points="276.5,-299 276.5,-321 457.5,-321 457.5,-299 276.5,-299"/>
<image xlink:href="../../images/foreignKeys.png" width="11px" height="12px" preserveAspectRatio="xMinYMin meet" x="281.5" y="-316"/>
<text text-anchor="start" x="296.5" y="-307.2" font-family="Helvetica,sans-Serif" font-size="11.00">material</text>
<polygon fill="none" stroke="black" points="276.5,-277 276.5,-299 457.5,-299 457.5,-277 276.5,-277"/>
<image xlink:href="../../images/foreignKeys.png" width="11px" height="12px" preserveAspectRatio="xMinYMin meet" x="281.5" y="-294"/>
<text text-anchor="start" x="296.5" y="-285.2" font-family="Helvetica,sans-Serif" font-size="11.00">positional_accuracy</text>
<polygon fill="none" stroke="black" points="276.5,-255 276.5,-277 457.5,-277 457.5,-255 276.5,-255"/>
<image xlink:href="../../images/foreignKeys.png" width="11px" height="12px" preserveAspectRatio="xMinYMin meet" x="281.5" y="-272"/>
<text text-anchor="start" x="296.5" y="-263.2" font-family="Helvetica,sans-Serif" font-size="11.00">sludge_bucket</text>
<polygon fill="none" stroke="black" points="276.5,-233 276.5,-255 457.5,-255 457.5,-233 276.5,-233"/>
<image xlink:href="../../images/foreignKeys.png" width="11px" height="12px" preserveAspectRatio="xMinYMin meet" x="281.5" y="-250"/>
<text text-anchor="start" x="296.5" y="-241.2" font-family="Helvetica,sans-Serif" font-size="11.00">venting</text>
<polygon fill="none" stroke="black" points="276.5,-215 276.5,-233 457.5,-233 457.5,-215 276.5,-215"/>
<text text-anchor="start" x="279.5" y="-221.2" font-family="Helvetica,sans-Serif" font-size="11.00">...</text>
<polygon fill="#ffffff" stroke="transparent" points="276.5,-197 276.5,-215 457.5,-215 457.5,-197 276.5,-197"/>
<polygon fill="none" stroke="black" points="276.5,-197 276.5,-215 457.5,-215 457.5,-197 276.5,-197"/>
<polygon fill="#ffffff" stroke="transparent" points="277.5,-198 277.5,-214 335.5,-214 335.5,-198 277.5,-198"/>
<text text-anchor="start" x="279.5" y="-203.2" font-family="Helvetica,sans-Serif" font-size="11.00">&lt; 6</text>
<polygon fill="#ffffff" stroke="transparent" points="335.5,-198 335.5,-214 410.5,-214 410.5,-198 335.5,-198"/>
<text text-anchor="start" x="354.5" y="-203.2" font-family="Helvetica,sans-Serif" font-size="11.00">0 rows</text>
<polygon fill="#ffffff" stroke="transparent" points="410.5,-198 410.5,-214 456.5,-214 456.5,-198 410.5,-198"/>
<text text-anchor="start" x="446.5" y="-203.2" font-family="Helvetica,sans-Serif" font-size="11.00"> &#160;</text>
<polygon fill="black" stroke="black" points="335.5,-198 335.5,-214 335.5,-214 335.5,-198 335.5,-198"/>
<polygon fill="black" stroke="black" points="410.5,-198 410.5,-214 410.5,-214 410.5,-198 410.5,-198"/>
</a>
</g>
</g>
<!-- cover_fastening -->
<g id="node2" class="node">
<title>cover_fastening</title>
<g id="a_node2"><a xlink:href="../../tables/cover_fastening.html" xlink:title="cover_fastening" target="_top">
<polygon fill="#ffffff" stroke="transparent" points="8,-37 8,-367 227,-367 227,-37 8,-37"/>
<polygon fill="#f5f5f5" stroke="transparent" points="10.5,-343 10.5,-365 225.5,-365 225.5,-343 10.5,-343"/>
<polygon fill="none" stroke="black" points="10.5,-343 10.5,-365 225.5,-365 225.5,-343 10.5,-343"/>
<text text-anchor="start" x="15.5" y="-352.2" font-family="Helvetica,sans-Serif" font-weight="bold" font-size="11.00">cover_fastening</text>
<text text-anchor="start" x="183.5" y="-351.2" font-family="Helvetica,sans-Serif" font-size="11.00">[table]</text>
<polygon fill="none" stroke="black" points="10.5,-321 10.5,-343 147.5,-343 147.5,-321 10.5,-321"/>
<image xlink:href="../../images/primaryKeys.png" width="11px" height="12px" preserveAspectRatio="xMinYMin meet" x="15.5" y="-338"/>
<text text-anchor="start" x="30.5" y="-329.2" font-family="Helvetica,sans-Serif" font-size="11.00">code</text>
<polygon fill="none" stroke="black" points="147.5,-321 147.5,-343 225.5,-343 225.5,-321 147.5,-321"/>
<text text-anchor="start" x="150.5" y="-329.2" font-family="Helvetica,sans-Serif" font-size="11.00">int4[10]</text>
<polygon fill="none" stroke="black" points="10.5,-299 10.5,-321 147.5,-321 147.5,-299 10.5,-299"/>
<text text-anchor="start" x="30.5" y="-307.2" font-family="Helvetica,sans-Serif" font-size="11.00">vsacode</text>
<polygon fill="none" stroke="black" points="147.5,-299 147.5,-321 225.5,-321 225.5,-299 147.5,-299"/>
<text text-anchor="start" x="150.5" y="-307.2" font-family="Helvetica,sans-Serif" font-size="11.00">int4[10]</text>
<polygon fill="none" stroke="black" points="10.5,-277 10.5,-299 147.5,-299 147.5,-277 10.5,-277"/>
<text text-anchor="start" x="30.5" y="-285.2" font-family="Helvetica,sans-Serif" font-size="11.00">value_en</text>
<polygon fill="none" stroke="black" points="147.5,-277 147.5,-299 225.5,-299 225.5,-277 147.5,-277"/>
<text text-anchor="start" x="150.5" y="-285.2" font-family="Helvetica,sans-Serif" font-size="11.00">varchar[100]</text>
<polygon fill="none" stroke="black" points="10.5,-255 10.5,-277 147.5,-277 147.5,-255 10.5,-255"/>
<text text-anchor="start" x="30.5" y="-263.2" font-family="Helvetica,sans-Serif" font-size="11.00">value_de</text>
<polygon fill="none" stroke="black" points="147.5,-255 147.5,-277 225.5,-277 225.5,-255 147.5,-255"/>
<text text-anchor="start" x="150.5" y="-263.2" font-family="Helvetica,sans-Serif" font-size="11.00">varchar[100]</text>
<polygon fill="none" stroke="black" points="10.5,-233 10.5,-255 147.5,-255 147.5,-233 10.5,-233"/>
<text text-anchor="start" x="30.5" y="-241.2" font-family="Helvetica,sans-Serif" font-size="11.00">value_fr</text>
<polygon fill="none" stroke="black" points="147.5,-233 147.5,-255 225.5,-255 225.5,-233 147.5,-233"/>
<text text-anchor="start" x="150.5" y="-241.2" font-family="Helvetica,sans-Serif" font-size="11.00">varchar[100]</text>
<polygon fill="none" stroke="black" points="10.5,-211 10.5,-233 147.5,-233 147.5,-211 10.5,-211"/>
<text text-anchor="start" x="30.5" y="-219.2" font-family="Helvetica,sans-Serif" font-size="11.00">value_it</text>
<polygon fill="none" stroke="black" points="147.5,-211 147.5,-233 225.5,-233 225.5,-211 147.5,-211"/>
<text text-anchor="start" x="150.5" y="-219.2" font-family="Helvetica,sans-Serif" font-size="11.00">varchar[100]</text>
<polygon fill="none" stroke="black" points="10.5,-189 10.5,-211 147.5,-211 147.5,-189 10.5,-189"/>
<text text-anchor="start" x="30.5" y="-197.2" font-family="Helvetica,sans-Serif" font-size="11.00">value_ro</text>
<polygon fill="none" stroke="black" points="147.5,-189 147.5,-211 225.5,-211 225.5,-189 147.5,-189"/>
<text text-anchor="start" x="150.5" y="-197.2" font-family="Helvetica,sans-Serif" font-size="11.00">varchar[100]</text>
<polygon fill="none" stroke="black" points="10.5,-167 10.5,-189 147.5,-189 147.5,-167 10.5,-167"/>
<text text-anchor="start" x="30.5" y="-175.2" font-family="Helvetica,sans-Serif" font-size="11.00">abbr_en</text>
<polygon fill="none" stroke="black" points="147.5,-167 147.5,-189 225.5,-189 225.5,-167 147.5,-167"/>
<text text-anchor="start" x="150.5" y="-175.2" font-family="Helvetica,sans-Serif" font-size="11.00">varchar[3]</text>
<polygon fill="none" stroke="black" points="10.5,-145 10.5,-167 147.5,-167 147.5,-145 10.5,-145"/>
<text text-anchor="start" x="30.5" y="-153.2" font-family="Helvetica,sans-Serif" font-size="11.00">abbr_de</text>
<polygon fill="none" stroke="black" points="147.5,-145 147.5,-167 225.5,-167 225.5,-145 147.5,-145"/>
<text text-anchor="start" x="150.5" y="-153.2" font-family="Helvetica,sans-Serif" font-size="11.00">varchar[3]</text>
<polygon fill="none" stroke="black" points="10.5,-123 10.5,-145 147.5,-145 147.5,-123 10.5,-123"/>
<text text-anchor="start" x="30.5" y="-131.2" font-family="Helvetica,sans-Serif" font-size="11.00">abbr_fr</text>
<polygon fill="none" stroke="black" points="147.5,-123 147.5,-145 225.5,-145 225.5,-123 147.5,-123"/>
<text text-anchor="start" x="150.5" y="-131.2" font-family="Helvetica,sans-Serif" font-size="11.00">varchar[3]</text>
<polygon fill="none" stroke="black" points="10.5,-101 10.5,-123 147.5,-123 147.5,-101 10.5,-101"/>
<text text-anchor="start" x="30.5" y="-109.2" font-family="Helvetica,sans-Serif" font-size="11.00">abbr_it</text>
<polygon fill="none" stroke="black" points="147.5,-101 147.5,-123 225.5,-123 225.5,-101 147.5,-101"/>
<text text-anchor="start" x="150.5" y="-109.2" font-family="Helvetica,sans-Serif" font-size="11.00">varchar[3]</text>
<polygon fill="none" stroke="black" points="10.5,-79 10.5,-101 147.5,-101 147.5,-79 10.5,-79"/>
<text text-anchor="start" x="30.5" y="-87.2" font-family="Helvetica,sans-Serif" font-size="11.00">abbr_ro</text>
<polygon fill="none" stroke="black" points="147.5,-79 147.5,-101 225.5,-101 225.5,-79 147.5,-79"/>
<text text-anchor="start" x="150.5" y="-87.2" font-family="Helvetica,sans-Serif" font-size="11.00">varchar[3]</text>
<polygon fill="none" stroke="black" points="10.5,-57 10.5,-79 147.5,-79 147.5,-57 10.5,-57"/>
<text text-anchor="start" x="30.5" y="-65.2" font-family="Helvetica,sans-Serif" font-size="11.00">active</text>
<polygon fill="none" stroke="black" points="147.5,-57 147.5,-79 225.5,-79 225.5,-57 147.5,-57"/>
<text text-anchor="start" x="150.5" y="-65.2" font-family="Helvetica,sans-Serif" font-size="11.00">bool[1]</text>
<polygon fill="#ffffff" stroke="transparent" points="10.5,-39 10.5,-57 225.5,-57 225.5,-39 10.5,-39"/>
<polygon fill="none" stroke="black" points="10.5,-39 10.5,-57 225.5,-57 225.5,-39 10.5,-39"/>
<polygon fill="#ffffff" stroke="transparent" points="11.5,-40 11.5,-56 86.5,-56 86.5,-40 11.5,-40"/>
<text text-anchor="start" x="13.5" y="-45.2" font-family="Helvetica,sans-Serif" font-size="11.00">&lt; 0</text>
<polygon fill="#ffffff" stroke="transparent" points="86.5,-40 86.5,-56 149.5,-56 149.5,-40 86.5,-40"/>
<text text-anchor="start" x="114" y="-45.2" font-family="Helvetica,sans-Serif" font-size="11.00"> &#160;</text>
<polygon fill="#ffffff" stroke="transparent" points="149.5,-40 149.5,-56 224.5,-56 224.5,-40 149.5,-40"/>
<text text-anchor="start" x="202.5" y="-45.2" font-family="Helvetica,sans-Serif" font-size="11.00">1 &gt;</text>
<polygon fill="black" stroke="black" points="86.5,-40 86.5,-56 86.5,-56 86.5,-40 86.5,-40"/>
<polygon fill="black" stroke="black" points="149.5,-40 149.5,-56 149.5,-56 149.5,-40 149.5,-40"/>
<polygon fill="none" stroke="black" stroke-width="2" points="9,-38 9,-366 226,-366 226,-38 9,-38"/>
</a>
</g>
</g>
<!-- tww_od.cover&#45;&gt;cover_fastening -->
<g id="edge1" class="edge">
<title>tww_od.cover:w&#45;&gt;cover_fastening:e</title>
<path fill="none" stroke="black" d="M260.99,-332C249.68,-332 242.49,-332 226.5,-332"/>
<polygon fill="black" stroke="black" points="267.5,-332 275.5,-335.6 271.5,-332 275.5,-332 275.5,-332 275.5,-332 271.5,-332 275.5,-328.4 267.5,-332 267.5,-332"/>
<ellipse fill="none" stroke="black" cx="264.3" cy="-332" rx="3.2" ry="3.2"/>
</g>
</g>
</svg>
