<?xml version="1.0" encoding="UTF-8" standalone="no"?>
<!DOCTYPE svg PUBLIC "-//W3C//DTD SVG 1.1//EN"
 "http://www.w3.org/Graphics/SVG/1.1/DTD/svg11.dtd">
<!-- Generated by graphviz version 2.47.1 (20210515.0534)
 -->
<!-- Title: oneDegreeRelationshipsDiagram Pages: 1 -->
<svg width="468pt" height="399pt"
 viewBox="0.00 0.00 468.00 399.00" xmlns="http://www.w3.org/2000/svg" xmlns:xlink="http://www.w3.org/1999/xlink">
<g id="graph0" class="graph" transform="scale(1 1) rotate(0) translate(4 395)">
<title>oneDegreeRelationshipsDiagram</title>
<polygon fill="#ffffff" stroke="transparent" points="-4,4 -4,-395 464,-395 464,4 -4,4"/>
<text text-anchor="middle" x="73.5" y="-7.2" font-family="Helvetica,sans-Serif" font-size="11.00">Generated by SchemaSpy</text>
<!-- tww_od.examination -->
<g id="node1" class="node">
<title>tww_od.examination</title>
<g id="a_node1"><a xlink:href="../../../tww_od/tables/examination.html" xlink:title="tww_od.examination" target="_top">
<polygon fill="#ffffff" stroke="transparent" points="283,-285 283,-387 452,-387 452,-285 283,-285"/>
<polygon fill="#f5f5f5" stroke="transparent" points="283.5,-365 283.5,-387 452.5,-387 452.5,-365 283.5,-365"/>
<polygon fill="none" stroke="black" points="283.5,-365 283.5,-387 452.5,-387 452.5,-365 283.5,-365"/>
<text text-anchor="start" x="288.5" y="-374.2" font-family="Helvetica,sans-Serif" font-weight="bold" font-size="11.00">tww_od.examination</text>
<text text-anchor="start" x="413.5" y="-373.2" font-family="Helvetica,sans-Serif" font-size="11.00">[table]</text>
<polygon fill="none" stroke="black" points="283.5,-343 283.5,-365 452.5,-365 452.5,-343 283.5,-343"/>
<image xlink:href="../../images/foreignKeys.png" width="11px" height="12px" preserveAspectRatio="xMinYMin meet" x="288.5" y="-360"/>
<text text-anchor="start" x="314.5" y="-351.2" font-family="Helvetica,sans-Serif" font-size="11.00">recording_type</text>
<polygon fill="none" stroke="black" points="283.5,-321 283.5,-343 452.5,-343 452.5,-321 283.5,-321"/>
<image xlink:href="../../images/foreignKeys.png" width="11px" height="12px" preserveAspectRatio="xMinYMin meet" x="288.5" y="-338"/>
<text text-anchor="start" x="314.5" y="-329.2" font-family="Helvetica,sans-Serif" font-size="11.00">weather</text>
<polygon fill="none" stroke="black" points="283.5,-303 283.5,-321 452.5,-321 452.5,-303 283.5,-303"/>
<text text-anchor="start" x="286.5" y="-309.2" font-family="Helvetica,sans-Serif" font-size="11.00">...</text>
<polygon fill="#ffffff" stroke="transparent" points="283.5,-285 283.5,-303 352.5,-303 352.5,-285 283.5,-285"/>
<polygon fill="none" stroke="black" points="283.5,-285 283.5,-303 352.5,-303 352.5,-285 283.5,-285"/>
<text text-anchor="start" x="286.5" y="-291.2" font-family="Helvetica,sans-Serif" font-size="11.00">&lt; 2</text>
<polygon fill="#ffffff" stroke="transparent" points="352.5,-285 352.5,-303 415.5,-303 415.5,-285 352.5,-285"/>
<polygon fill="none" stroke="black" points="352.5,-285 352.5,-303 415.5,-303 415.5,-285 352.5,-285"/>
<text text-anchor="start" x="378.5" y="-291.2" font-family="Helvetica,sans-Serif" font-size="11.00">0 rows</text>
<polygon fill="#ffffff" stroke="transparent" points="415.5,-285 415.5,-303 452.5,-303 452.5,-285 415.5,-285"/>
<polygon fill="none" stroke="black" points="415.5,-285 415.5,-303 452.5,-303 452.5,-285 415.5,-285"/>
<text text-anchor="start" x="442.5" y="-291.2" font-family="Helvetica,sans-Serif" font-size="11.00"> &#160;</text>
</a>
</g>
</g>
<!-- examination_weather -->
<g id="node2" class="node">
<title>examination_weather</title>
<g id="a_node2"><a xlink:href="../../tables/examination_weather.html" xlink:title="examination_weather" target="_top">
<polygon fill="#ffffff" stroke="transparent" points="8,-37 8,-367 234,-367 234,-37 8,-37"/>
<polygon fill="#f5f5f5" stroke="transparent" points="10,-343 10,-365 232,-365 232,-343 10,-343"/>
<polygon fill="none" stroke="black" points="10,-343 10,-365 232,-365 232,-343 10,-343"/>
<text text-anchor="start" x="15" y="-352.2" font-family="Helvetica,sans-Serif" font-weight="bold" font-size="11.00">examination_weather</text>
<text text-anchor="start" x="193" y="-351.2" font-family="Helvetica,sans-Serif" font-size="11.00">[table]</text>
<polygon fill="none" stroke="black" points="10,-321 10,-343 162,-343 162,-321 10,-321"/>
<image xlink:href="../../images/primaryKeys.png" width="11px" height="12px" preserveAspectRatio="xMinYMin meet" x="15" y="-338"/>
<text text-anchor="start" x="30" y="-329.2" font-family="Helvetica,sans-Serif" font-size="11.00">code</text>
<polygon fill="none" stroke="black" points="162,-321 162,-343 232,-343 232,-321 162,-321"/>
<text text-anchor="start" x="165" y="-329.2" font-family="Helvetica,sans-Serif" font-size="11.00">int4[10]</text>
<polygon fill="none" stroke="black" points="10,-299 10,-321 162,-321 162,-299 10,-299"/>
<text text-anchor="start" x="30" y="-307.2" font-family="Helvetica,sans-Serif" font-size="11.00">vsacode</text>
<polygon fill="none" stroke="black" points="162,-299 162,-321 232,-321 232,-299 162,-299"/>
<text text-anchor="start" x="165" y="-307.2" font-family="Helvetica,sans-Serif" font-size="11.00">int4[10]</text>
<polygon fill="none" stroke="black" points="10,-277 10,-299 162,-299 162,-277 10,-277"/>
<text text-anchor="start" x="30" y="-285.2" font-family="Helvetica,sans-Serif" font-size="11.00">value_en</text>
<polygon fill="none" stroke="black" points="162,-277 162,-299 232,-299 232,-277 162,-277"/>
<text text-anchor="start" x="165" y="-285.2" font-family="Helvetica,sans-Serif" font-size="11.00">varchar[100]</text>
<polygon fill="none" stroke="black" points="10,-255 10,-277 162,-277 162,-255 10,-255"/>
<text text-anchor="start" x="30" y="-263.2" font-family="Helvetica,sans-Serif" font-size="11.00">value_de</text>
<polygon fill="none" stroke="black" points="162,-255 162,-277 232,-277 232,-255 162,-255"/>
<text text-anchor="start" x="165" y="-263.2" font-family="Helvetica,sans-Serif" font-size="11.00">varchar[100]</text>
<polygon fill="none" stroke="black" points="10,-233 10,-255 162,-255 162,-233 10,-233"/>
<text text-anchor="start" x="30" y="-241.2" font-family="Helvetica,sans-Serif" font-size="11.00">value_fr</text>
<polygon fill="none" stroke="black" points="162,-233 162,-255 232,-255 232,-233 162,-233"/>
<text text-anchor="start" x="165" y="-241.2" font-family="Helvetica,sans-Serif" font-size="11.00">varchar[100]</text>
<polygon fill="none" stroke="black" points="10,-211 10,-233 162,-233 162,-211 10,-211"/>
<text text-anchor="start" x="30" y="-219.2" font-family="Helvetica,sans-Serif" font-size="11.00">value_it</text>
<polygon fill="none" stroke="black" points="162,-211 162,-233 232,-233 232,-211 162,-211"/>
<text text-anchor="start" x="165" y="-219.2" font-family="Helvetica,sans-Serif" font-size="11.00">varchar[100]</text>
<polygon fill="none" stroke="black" points="10,-189 10,-211 162,-211 162,-189 10,-189"/>
<text text-anchor="start" x="30" y="-197.2" font-family="Helvetica,sans-Serif" font-size="11.00">value_ro</text>
<polygon fill="none" stroke="black" points="162,-189 162,-211 232,-211 232,-189 162,-189"/>
<text text-anchor="start" x="165" y="-197.2" font-family="Helvetica,sans-Serif" font-size="11.00">varchar[100]</text>
<polygon fill="none" stroke="black" points="10,-167 10,-189 162,-189 162,-167 10,-167"/>
<text text-anchor="start" x="30" y="-175.2" font-family="Helvetica,sans-Serif" font-size="11.00">abbr_en</text>
<polygon fill="none" stroke="black" points="162,-167 162,-189 232,-189 232,-167 162,-167"/>
<text text-anchor="start" x="165" y="-175.2" font-family="Helvetica,sans-Serif" font-size="11.00">varchar[3]</text>
<polygon fill="none" stroke="black" points="10,-145 10,-167 162,-167 162,-145 10,-145"/>
<text text-anchor="start" x="30" y="-153.2" font-family="Helvetica,sans-Serif" font-size="11.00">abbr_de</text>
<polygon fill="none" stroke="black" points="162,-145 162,-167 232,-167 232,-145 162,-145"/>
<text text-anchor="start" x="165" y="-153.2" font-family="Helvetica,sans-Serif" font-size="11.00">varchar[3]</text>
<polygon fill="none" stroke="black" points="10,-123 10,-145 162,-145 162,-123 10,-123"/>
<text text-anchor="start" x="30" y="-131.2" font-family="Helvetica,sans-Serif" font-size="11.00">abbr_fr</text>
<polygon fill="none" stroke="black" points="162,-123 162,-145 232,-145 232,-123 162,-123"/>
<text text-anchor="start" x="165" y="-131.2" font-family="Helvetica,sans-Serif" font-size="11.00">varchar[3]</text>
<polygon fill="none" stroke="black" points="10,-101 10,-123 162,-123 162,-101 10,-101"/>
<text text-anchor="start" x="30" y="-109.2" font-family="Helvetica,sans-Serif" font-size="11.00">abbr_it</text>
<polygon fill="none" stroke="black" points="162,-101 162,-123 232,-123 232,-101 162,-101"/>
<text text-anchor="start" x="165" y="-109.2" font-family="Helvetica,sans-Serif" font-size="11.00">varchar[3]</text>
<polygon fill="none" stroke="black" points="10,-79 10,-101 162,-101 162,-79 10,-79"/>
<text text-anchor="start" x="30" y="-87.2" font-family="Helvetica,sans-Serif" font-size="11.00">abbr_ro</text>
<polygon fill="none" stroke="black" points="162,-79 162,-101 232,-101 232,-79 162,-79"/>
<text text-anchor="start" x="165" y="-87.2" font-family="Helvetica,sans-Serif" font-size="11.00">varchar[3]</text>
<polygon fill="none" stroke="black" points="10,-57 10,-79 162,-79 162,-57 10,-57"/>
<text text-anchor="start" x="30" y="-65.2" font-family="Helvetica,sans-Serif" font-size="11.00">active</text>
<polygon fill="none" stroke="black" points="162,-57 162,-79 232,-79 232,-57 162,-57"/>
<text text-anchor="start" x="165" y="-65.2" font-family="Helvetica,sans-Serif" font-size="11.00">bool[1]</text>
<polygon fill="#ffffff" stroke="transparent" points="10,-39 10,-57 90,-57 90,-39 10,-39"/>
<polygon fill="none" stroke="black" points="10,-39 10,-57 90,-57 90,-39 10,-39"/>
<text text-anchor="start" x="13" y="-45.2" font-family="Helvetica,sans-Serif" font-size="11.00">&lt; 0</text>
<polygon fill="#ffffff" stroke="transparent" points="90,-39 90,-57 162,-57 162,-39 90,-39"/>
<polygon fill="none" stroke="black" points="90,-39 90,-57 162,-57 162,-39 90,-39"/>
<text text-anchor="start" x="152" y="-45.2" font-family="Helvetica,sans-Serif" font-size="11.00"> &#160;</text>
<polygon fill="#ffffff" stroke="transparent" points="162,-39 162,-57 232,-57 232,-39 162,-39"/>
<polygon fill="none" stroke="black" points="162,-39 162,-57 232,-57 232,-39 162,-39"/>
<text text-anchor="start" x="213" y="-45.2" font-family="Helvetica,sans-Serif" font-size="11.00">1 &gt;</text>
<polygon fill="none" stroke="black" stroke-width="2" points="9,-38 9,-366 233,-366 233,-38 9,-38"/>
</a>
</g>
</g>
<!-- tww_od.examination&#45;&gt;examination_weather -->
<g id="edge1" class="edge">
<title>tww_od.examination:w&#45;&gt;examination_weather:e</title>
<path fill="none" stroke="black" d="M267.84,-332C256.41,-332 249.16,-332 233,-332"/>
<polygon fill="black" stroke="black" points="274.5,-332 282.5,-335.6 278.5,-332 282.5,-332 282.5,-332 282.5,-332 278.5,-332 282.5,-328.4 274.5,-332 274.5,-332"/>
<ellipse fill="none" stroke="black" cx="271.3" cy="-332" rx="3.2" ry="3.2"/>
</g>
</g>
</svg>
