<?xml version="1.0" encoding="UTF-8" standalone="no"?>
<!DOCTYPE svg PUBLIC "-//W3C//DTD SVG 1.1//EN"
 "http://www.w3.org/Graphics/SVG/1.1/DTD/svg11.dtd">
<!-- Generated by graphviz version 2.47.1 (20210515.0534)
 -->
<!-- Title: oneDegreeRelationshipsDiagram Pages: 1 -->
<svg width="615pt" height="443pt"
 viewBox="0.00 0.00 615.00 443.00" xmlns="http://www.w3.org/2000/svg" xmlns:xlink="http://www.w3.org/1999/xlink">
<g id="graph0" class="graph" transform="scale(1 1) rotate(0) translate(4 439)">
<title>oneDegreeRelationshipsDiagram</title>
<polygon fill="#ffffff" stroke="transparent" points="-4,4 -4,-439 611,-439 611,4 -4,4"/>
<text text-anchor="middle" x="73.5" y="-7.2" font-family="Helvetica,sans-Serif" font-size="11.00">Generated by SchemaSpy</text>
<!-- tww_od.farm -->
<g id="node1" class="node">
<title>tww_od.farm</title>
<g id="a_node1"><a xlink:href="../../../tww_od/tables/farm.html" xlink:title="tww_od.farm" target="_top">
<polygon fill="#ffffff" stroke="transparent" points="350,-263 350,-431 599,-431 599,-263 350,-263"/>
<polygon fill="#f5f5f5" stroke="transparent" points="350.5,-409 350.5,-431 599.5,-431 599.5,-409 350.5,-409"/>
<polygon fill="none" stroke="black" points="350.5,-409 350.5,-431 599.5,-431 599.5,-409 350.5,-409"/>
<text text-anchor="start" x="355.5" y="-418.2" font-family="Helvetica,sans-Serif" font-weight="bold" font-size="11.00">tww_od.farm</text>
<text text-anchor="start" x="560.5" y="-417.2" font-family="Helvetica,sans-Serif" font-size="11.00">[table]</text>
<polygon fill="none" stroke="black" points="350.5,-387 350.5,-409 599.5,-409 599.5,-387 350.5,-387"/>
<image xlink:href="../../images/foreignKeys.png" width="11px" height="12px" preserveAspectRatio="xMinYMin meet" x="355.5" y="-404"/>
<text text-anchor="start" x="370.5" y="-395.2" font-family="Helvetica,sans-Serif" font-size="11.00">cesspit_volume</text>
<polygon fill="none" stroke="black" points="350.5,-365 350.5,-387 599.5,-387 599.5,-365 350.5,-365"/>
<image xlink:href="../../images/foreignKeys.png" width="11px" height="12px" preserveAspectRatio="xMinYMin meet" x="355.5" y="-382"/>
<text text-anchor="start" x="370.5" y="-373.2" font-family="Helvetica,sans-Serif" font-size="11.00">conformity</text>
<polygon fill="none" stroke="black" points="350.5,-343 350.5,-365 599.5,-365 599.5,-343 350.5,-343"/>
<image xlink:href="../../images/foreignKeys.png" width="11px" height="12px" preserveAspectRatio="xMinYMin meet" x="355.5" y="-360"/>
<text text-anchor="start" x="370.5" y="-351.2" font-family="Helvetica,sans-Serif" font-size="11.00">continuance</text>
<polygon fill="none" stroke="black" points="350.5,-321 350.5,-343 599.5,-343 599.5,-321 350.5,-321"/>
<image xlink:href="../../images/foreignKeys.png" width="11px" height="12px" preserveAspectRatio="xMinYMin meet" x="355.5" y="-338"/>
<text text-anchor="start" x="370.5" y="-329.2" font-family="Helvetica,sans-Serif" font-size="11.00">shepherds_hut_wastewater</text>
<polygon fill="none" stroke="black" points="350.5,-299 350.5,-321 599.5,-321 599.5,-299 350.5,-299"/>
<image xlink:href="../../images/foreignKeys.png" width="11px" height="12px" preserveAspectRatio="xMinYMin meet" x="355.5" y="-316"/>
<text text-anchor="start" x="370.5" y="-307.2" font-family="Helvetica,sans-Serif" font-size="11.00">stable_cattle</text>
<polygon fill="none" stroke="black" points="350.5,-281 350.5,-299 599.5,-299 599.5,-281 350.5,-281"/>
<text text-anchor="start" x="353.5" y="-287.2" font-family="Helvetica,sans-Serif" font-size="11.00">...</text>
<polygon fill="#ffffff" stroke="transparent" points="350.5,-263 350.5,-281 459.5,-281 459.5,-263 350.5,-263"/>
<polygon fill="none" stroke="black" points="350.5,-263 350.5,-281 459.5,-281 459.5,-263 350.5,-263"/>
<text text-anchor="start" x="353.5" y="-269.2" font-family="Helvetica,sans-Serif" font-size="11.00">&lt; 5</text>
<polygon fill="#ffffff" stroke="transparent" points="459.5,-263 459.5,-281 542.5,-281 542.5,-263 459.5,-263"/>
<polygon fill="none" stroke="black" points="459.5,-263 459.5,-281 542.5,-281 542.5,-263 459.5,-263"/>
<text text-anchor="start" x="505.5" y="-269.2" font-family="Helvetica,sans-Serif" font-size="11.00">0 rows</text>
<polygon fill="#ffffff" stroke="transparent" points="542.5,-263 542.5,-281 599.5,-281 599.5,-263 542.5,-263"/>
<polygon fill="none" stroke="black" points="542.5,-263 542.5,-281 599.5,-281 599.5,-263 542.5,-263"/>
<text text-anchor="start" x="589.5" y="-269.2" font-family="Helvetica,sans-Serif" font-size="11.00"> &#160;</text>
</a>
</g>
</g>
<!-- farm_shepherds_hut_wastewater -->
<g id="node2" class="node">
<title>farm_shepherds_hut_wastewater</title>
<g id="a_node2"><a xlink:href="../../tables/farm_shepherds_hut_wastewater.html" xlink:title="farm_shepherds_hut_wastewater" target="_top">
<polygon fill="#ffffff" stroke="transparent" points="8,-37 8,-367 301,-367 301,-37 8,-37"/>
<polygon fill="#f5f5f5" stroke="transparent" points="10.5,-343 10.5,-365 299.5,-365 299.5,-343 10.5,-343"/>
<polygon fill="none" stroke="black" points="10.5,-343 10.5,-365 299.5,-365 299.5,-343 10.5,-343"/>
<text text-anchor="start" x="15.5" y="-352.2" font-family="Helvetica,sans-Serif" font-weight="bold" font-size="11.00">farm_shepherds_hut_wastewater</text>
<text text-anchor="start" x="260.5" y="-351.2" font-family="Helvetica,sans-Serif" font-size="11.00">[table]</text>
<polygon fill="none" stroke="black" points="10.5,-321 10.5,-343 229.5,-343 229.5,-321 10.5,-321"/>
<image xlink:href="../../images/primaryKeys.png" width="11px" height="12px" preserveAspectRatio="xMinYMin meet" x="15.5" y="-338"/>
<text text-anchor="start" x="30.5" y="-329.2" font-family="Helvetica,sans-Serif" font-size="11.00">code</text>
<polygon fill="none" stroke="black" points="229.5,-321 229.5,-343 299.5,-343 299.5,-321 229.5,-321"/>
<text text-anchor="start" x="232.5" y="-329.2" font-family="Helvetica,sans-Serif" font-size="11.00">int4[10]</text>
<polygon fill="none" stroke="black" points="10.5,-299 10.5,-321 229.5,-321 229.5,-299 10.5,-299"/>
<text text-anchor="start" x="30.5" y="-307.2" font-family="Helvetica,sans-Serif" font-size="11.00">vsacode</text>
<polygon fill="none" stroke="black" points="229.5,-299 229.5,-321 299.5,-321 299.5,-299 229.5,-299"/>
<text text-anchor="start" x="232.5" y="-307.2" font-family="Helvetica,sans-Serif" font-size="11.00">int4[10]</text>
<polygon fill="none" stroke="black" points="10.5,-277 10.5,-299 229.5,-299 229.5,-277 10.5,-277"/>
<text text-anchor="start" x="30.5" y="-285.2" font-family="Helvetica,sans-Serif" font-size="11.00">value_en</text>
<polygon fill="none" stroke="black" points="229.5,-277 229.5,-299 299.5,-299 299.5,-277 229.5,-277"/>
<text text-anchor="start" x="232.5" y="-285.2" font-family="Helvetica,sans-Serif" font-size="11.00">varchar[100]</text>
<polygon fill="none" stroke="black" points="10.5,-255 10.5,-277 229.5,-277 229.5,-255 10.5,-255"/>
<text text-anchor="start" x="30.5" y="-263.2" font-family="Helvetica,sans-Serif" font-size="11.00">value_de</text>
<polygon fill="none" stroke="black" points="229.5,-255 229.5,-277 299.5,-277 299.5,-255 229.5,-255"/>
<text text-anchor="start" x="232.5" y="-263.2" font-family="Helvetica,sans-Serif" font-size="11.00">varchar[100]</text>
<polygon fill="none" stroke="black" points="10.5,-233 10.5,-255 229.5,-255 229.5,-233 10.5,-233"/>
<text text-anchor="start" x="30.5" y="-241.2" font-family="Helvetica,sans-Serif" font-size="11.00">value_fr</text>
<polygon fill="none" stroke="black" points="229.5,-233 229.5,-255 299.5,-255 299.5,-233 229.5,-233"/>
<text text-anchor="start" x="232.5" y="-241.2" font-family="Helvetica,sans-Serif" font-size="11.00">varchar[100]</text>
<polygon fill="none" stroke="black" points="10.5,-211 10.5,-233 229.5,-233 229.5,-211 10.5,-211"/>
<text text-anchor="start" x="30.5" y="-219.2" font-family="Helvetica,sans-Serif" font-size="11.00">value_it</text>
<polygon fill="none" stroke="black" points="229.5,-211 229.5,-233 299.5,-233 299.5,-211 229.5,-211"/>
<text text-anchor="start" x="232.5" y="-219.2" font-family="Helvetica,sans-Serif" font-size="11.00">varchar[100]</text>
<polygon fill="none" stroke="black" points="10.5,-189 10.5,-211 229.5,-211 229.5,-189 10.5,-189"/>
<text text-anchor="start" x="30.5" y="-197.2" font-family="Helvetica,sans-Serif" font-size="11.00">value_ro</text>
<polygon fill="none" stroke="black" points="229.5,-189 229.5,-211 299.5,-211 299.5,-189 229.5,-189"/>
<text text-anchor="start" x="232.5" y="-197.2" font-family="Helvetica,sans-Serif" font-size="11.00">varchar[100]</text>
<polygon fill="none" stroke="black" points="10.5,-167 10.5,-189 229.5,-189 229.5,-167 10.5,-167"/>
<text text-anchor="start" x="30.5" y="-175.2" font-family="Helvetica,sans-Serif" font-size="11.00">abbr_en</text>
<polygon fill="none" stroke="black" points="229.5,-167 229.5,-189 299.5,-189 299.5,-167 229.5,-167"/>
<text text-anchor="start" x="232.5" y="-175.2" font-family="Helvetica,sans-Serif" font-size="11.00">varchar[3]</text>
<polygon fill="none" stroke="black" points="10.5,-145 10.5,-167 229.5,-167 229.5,-145 10.5,-145"/>
<text text-anchor="start" x="30.5" y="-153.2" font-family="Helvetica,sans-Serif" font-size="11.00">abbr_de</text>
<polygon fill="none" stroke="black" points="229.5,-145 229.5,-167 299.5,-167 299.5,-145 229.5,-145"/>
<text text-anchor="start" x="232.5" y="-153.2" font-family="Helvetica,sans-Serif" font-size="11.00">varchar[3]</text>
<polygon fill="none" stroke="black" points="10.5,-123 10.5,-145 229.5,-145 229.5,-123 10.5,-123"/>
<text text-anchor="start" x="30.5" y="-131.2" font-family="Helvetica,sans-Serif" font-size="11.00">abbr_fr</text>
<polygon fill="none" stroke="black" points="229.5,-123 229.5,-145 299.5,-145 299.5,-123 229.5,-123"/>
<text text-anchor="start" x="232.5" y="-131.2" font-family="Helvetica,sans-Serif" font-size="11.00">varchar[3]</text>
<polygon fill="none" stroke="black" points="10.5,-101 10.5,-123 229.5,-123 229.5,-101 10.5,-101"/>
<text text-anchor="start" x="30.5" y="-109.2" font-family="Helvetica,sans-Serif" font-size="11.00">abbr_it</text>
<polygon fill="none" stroke="black" points="229.5,-101 229.5,-123 299.5,-123 299.5,-101 229.5,-101"/>
<text text-anchor="start" x="232.5" y="-109.2" font-family="Helvetica,sans-Serif" font-size="11.00">varchar[3]</text>
<polygon fill="none" stroke="black" points="10.5,-79 10.5,-101 229.5,-101 229.5,-79 10.5,-79"/>
<text text-anchor="start" x="30.5" y="-87.2" font-family="Helvetica,sans-Serif" font-size="11.00">abbr_ro</text>
<polygon fill="none" stroke="black" points="229.5,-79 229.5,-101 299.5,-101 299.5,-79 229.5,-79"/>
<text text-anchor="start" x="232.5" y="-87.2" font-family="Helvetica,sans-Serif" font-size="11.00">varchar[3]</text>
<polygon fill="none" stroke="black" points="10.5,-57 10.5,-79 229.5,-79 229.5,-57 10.5,-57"/>
<text text-anchor="start" x="30.5" y="-65.2" font-family="Helvetica,sans-Serif" font-size="11.00">active</text>
<polygon fill="none" stroke="black" points="229.5,-57 229.5,-79 299.5,-79 299.5,-57 229.5,-57"/>
<text text-anchor="start" x="232.5" y="-65.2" font-family="Helvetica,sans-Serif" font-size="11.00">bool[1]</text>
<polygon fill="#ffffff" stroke="transparent" points="10.5,-39 10.5,-57 124.5,-57 124.5,-39 10.5,-39"/>
<polygon fill="none" stroke="black" points="10.5,-39 10.5,-57 124.5,-57 124.5,-39 10.5,-39"/>
<text text-anchor="start" x="13.5" y="-45.2" font-family="Helvetica,sans-Serif" font-size="11.00">&lt; 0</text>
<polygon fill="#ffffff" stroke="transparent" points="124.5,-39 124.5,-57 229.5,-57 229.5,-39 124.5,-39"/>
<polygon fill="none" stroke="black" points="124.5,-39 124.5,-57 229.5,-57 229.5,-39 124.5,-39"/>
<text text-anchor="start" x="219.5" y="-45.2" font-family="Helvetica,sans-Serif" font-size="11.00"> &#160;</text>
<polygon fill="#ffffff" stroke="transparent" points="229.5,-39 229.5,-57 299.5,-57 299.5,-39 229.5,-39"/>
<polygon fill="none" stroke="black" points="229.5,-39 229.5,-57 299.5,-57 299.5,-39 229.5,-39"/>
<text text-anchor="start" x="280.5" y="-45.2" font-family="Helvetica,sans-Serif" font-size="11.00">1 &gt;</text>
<polygon fill="none" stroke="black" stroke-width="2" points="9,-38 9,-366 300,-366 300,-38 9,-38"/>
</a>
</g>
</g>
<!-- tww_od.farm&#45;&gt;farm_shepherds_hut_wastewater -->
<g id="edge1" class="edge">
<title>tww_od.farm:w&#45;&gt;farm_shepherds_hut_wastewater:e</title>
<path fill="none" stroke="black" d="M334.99,-332C323.68,-332 316.49,-332 300.5,-332"/>
<polygon fill="black" stroke="black" points="341.5,-332 349.5,-335.6 345.5,-332 349.5,-332 349.5,-332 349.5,-332 345.5,-332 349.5,-328.4 341.5,-332 341.5,-332"/>
<ellipse fill="none" stroke="black" cx="338.3" cy="-332" rx="3.2" ry="3.2"/>
</g>
</g>
</svg>
