<?xml version="1.0" encoding="UTF-8" standalone="no"?>
<!DOCTYPE svg PUBLIC "-//W3C//DTD SVG 1.1//EN"
 "http://www.w3.org/Graphics/SVG/1.1/DTD/svg11.dtd">
<!-- Generated by graphviz version 2.43.0 (0)
 -->
<!-- Title: oneDegreeRelationshipsDiagram Pages: 1 -->
<svg width="428pt" height="379pt"
 viewBox="0.00 0.00 428.00 379.00" xmlns="http://www.w3.org/2000/svg" xmlns:xlink="http://www.w3.org/1999/xlink">
<g id="graph0" class="graph" transform="scale(1 1) rotate(0) translate(4 375)">
<title>oneDegreeRelationshipsDiagram</title>
<polygon fill="#ffffff" stroke="transparent" points="-4,4 -4,-375 424,-375 424,4 -4,4"/>
<text text-anchor="middle" x="79.5" y="-7.2" font-family="Helvetica,sans-Serif" font-size="11.00">Generated by SchemaSpy</text>
<!-- tww_od.file -->
<g id="node1" class="node">
<title>tww_od.file</title>
<g id="a_node1"><a xlink:href="../../../tww_od/tables/file.html" xlink:title="tww_od.file" target="_top">
<polygon fill="#ffffff" stroke="transparent" points="266,-263 266,-365 412,-365 412,-263 266,-263"/>
<polygon fill="#f5f5f5" stroke="transparent" points="266,-343 266,-365 412,-365 412,-343 266,-343"/>
<polygon fill="none" stroke="black" points="266,-343 266,-365 412,-365 412,-343 266,-343"/>
<text text-anchor="start" x="271" y="-352.2" font-family="Helvetica,sans-Serif" font-weight="bold" font-size="11.00">tww_od.file</text>
<text text-anchor="start" x="370" y="-351.2" font-family="Helvetica,sans-Serif" font-size="11.00">[table]</text>
<polygon fill="none" stroke="black" points="266,-321 266,-343 412,-343 412,-321 266,-321"/>
<image xlink:href="../../images/foreignKeys.png" width="11px" height="12px" preserveAspectRatio="xMinYMin meet" x="271" y="-338"/>
<text text-anchor="start" x="286" y="-329.2" font-family="Helvetica,sans-Serif" font-size="11.00">classname</text>
<polygon fill="none" stroke="black" points="266,-299 266,-321 412,-321 412,-299 266,-299"/>
<image xlink:href="../../images/foreignKeys.png" width="11px" height="12px" preserveAspectRatio="xMinYMin meet" x="271" y="-316"/>
<text text-anchor="start" x="286" y="-307.2" font-family="Helvetica,sans-Serif" font-size="11.00">kind</text>
<polygon fill="none" stroke="black" points="266,-281 266,-299 412,-299 412,-281 266,-281"/>
<text text-anchor="start" x="269" y="-287.2" font-family="Helvetica,sans-Serif" font-size="11.00">...</text>
<polygon fill="#ffffff" stroke="transparent" points="266,-263 266,-281 412,-281 412,-263 266,-263"/>
<polygon fill="none" stroke="black" points="266,-263 266,-281 412,-281 412,-263 266,-263"/>
<polygon fill="#ffffff" stroke="transparent" points="267,-264 267,-280 314,-280 314,-264 267,-264"/>
<text text-anchor="start" x="269" y="-269.2" font-family="Helvetica,sans-Serif" font-size="11.00">&lt; 2</text>
<polygon fill="#ffffff" stroke="transparent" points="314,-264 314,-280 377,-280 377,-264 314,-264"/>
<text text-anchor="start" x="327" y="-269.2" font-family="Helvetica,sans-Serif" font-size="11.00">0 rows</text>
<polygon fill="#ffffff" stroke="transparent" points="377,-264 377,-280 411,-280 411,-264 377,-264"/>
<text text-anchor="start" x="401" y="-269.2" font-family="Helvetica,sans-Serif" font-size="11.00"> &#160;</text>
<polygon fill="black" stroke="black" points="314,-264 314,-280 314,-280 314,-264 314,-264"/>
<polygon fill="black" stroke="black" points="377,-264 377,-280 377,-280 377,-264 377,-264"/>
</a>
</g>
</g>
<!-- file_classname -->
<g id="node2" class="node">
<title>file_classname</title>
<g id="a_node2"><a xlink:href="../../tables/file_classname.html" xlink:title="file_classname" target="_top">
<polygon fill="#ffffff" stroke="transparent" points="8,-37 8,-367 217,-367 217,-37 8,-37"/>
<polygon fill="#f5f5f5" stroke="transparent" points="10.5,-343 10.5,-365 215.5,-365 215.5,-343 10.5,-343"/>
<polygon fill="none" stroke="black" points="10.5,-343 10.5,-365 215.5,-365 215.5,-343 10.5,-343"/>
<text text-anchor="start" x="15.5" y="-352.2" font-family="Helvetica,sans-Serif" font-weight="bold" font-size="11.00">file_classname</text>
<text text-anchor="start" x="173.5" y="-351.2" font-family="Helvetica,sans-Serif" font-size="11.00">[table]</text>
<polygon fill="none" stroke="black" points="10.5,-321 10.5,-343 137.5,-343 137.5,-321 10.5,-321"/>
<image xlink:href="../../images/primaryKeys.png" width="11px" height="12px" preserveAspectRatio="xMinYMin meet" x="15.5" y="-338"/>
<text text-anchor="start" x="30.5" y="-329.2" font-family="Helvetica,sans-Serif" font-size="11.00">code</text>
<polygon fill="none" stroke="black" points="137.5,-321 137.5,-343 215.5,-343 215.5,-321 137.5,-321"/>
<text text-anchor="start" x="140.5" y="-329.2" font-family="Helvetica,sans-Serif" font-size="11.00">int4[10]</text>
<polygon fill="none" stroke="black" points="10.5,-299 10.5,-321 137.5,-321 137.5,-299 10.5,-299"/>
<text text-anchor="start" x="30.5" y="-307.2" font-family="Helvetica,sans-Serif" font-size="11.00">vsacode</text>
<polygon fill="none" stroke="black" points="137.5,-299 137.5,-321 215.5,-321 215.5,-299 137.5,-299"/>
<text text-anchor="start" x="140.5" y="-307.2" font-family="Helvetica,sans-Serif" font-size="11.00">int4[10]</text>
<polygon fill="none" stroke="black" points="10.5,-277 10.5,-299 137.5,-299 137.5,-277 10.5,-277"/>
<text text-anchor="start" x="30.5" y="-285.2" font-family="Helvetica,sans-Serif" font-size="11.00">value_en</text>
<polygon fill="none" stroke="black" points="137.5,-277 137.5,-299 215.5,-299 215.5,-277 137.5,-277"/>
<text text-anchor="start" x="140.5" y="-285.2" font-family="Helvetica,sans-Serif" font-size="11.00">varchar[100]</text>
<polygon fill="none" stroke="black" points="10.5,-255 10.5,-277 137.5,-277 137.5,-255 10.5,-255"/>
<text text-anchor="start" x="30.5" y="-263.2" font-family="Helvetica,sans-Serif" font-size="11.00">value_de</text>
<polygon fill="none" stroke="black" points="137.5,-255 137.5,-277 215.5,-277 215.5,-255 137.5,-255"/>
<text text-anchor="start" x="140.5" y="-263.2" font-family="Helvetica,sans-Serif" font-size="11.00">varchar[100]</text>
<polygon fill="none" stroke="black" points="10.5,-233 10.5,-255 137.5,-255 137.5,-233 10.5,-233"/>
<text text-anchor="start" x="30.5" y="-241.2" font-family="Helvetica,sans-Serif" font-size="11.00">value_fr</text>
<polygon fill="none" stroke="black" points="137.5,-233 137.5,-255 215.5,-255 215.5,-233 137.5,-233"/>
<text text-anchor="start" x="140.5" y="-241.2" font-family="Helvetica,sans-Serif" font-size="11.00">varchar[100]</text>
<polygon fill="none" stroke="black" points="10.5,-211 10.5,-233 137.5,-233 137.5,-211 10.5,-211"/>
<text text-anchor="start" x="30.5" y="-219.2" font-family="Helvetica,sans-Serif" font-size="11.00">value_it</text>
<polygon fill="none" stroke="black" points="137.5,-211 137.5,-233 215.5,-233 215.5,-211 137.5,-211"/>
<text text-anchor="start" x="140.5" y="-219.2" font-family="Helvetica,sans-Serif" font-size="11.00">varchar[100]</text>
<polygon fill="none" stroke="black" points="10.5,-189 10.5,-211 137.5,-211 137.5,-189 10.5,-189"/>
<text text-anchor="start" x="30.5" y="-197.2" font-family="Helvetica,sans-Serif" font-size="11.00">value_ro</text>
<polygon fill="none" stroke="black" points="137.5,-189 137.5,-211 215.5,-211 215.5,-189 137.5,-189"/>
<text text-anchor="start" x="140.5" y="-197.2" font-family="Helvetica,sans-Serif" font-size="11.00">varchar[100]</text>
<polygon fill="none" stroke="black" points="10.5,-167 10.5,-189 137.5,-189 137.5,-167 10.5,-167"/>
<text text-anchor="start" x="30.5" y="-175.2" font-family="Helvetica,sans-Serif" font-size="11.00">abbr_en</text>
<polygon fill="none" stroke="black" points="137.5,-167 137.5,-189 215.5,-189 215.5,-167 137.5,-167"/>
<text text-anchor="start" x="140.5" y="-175.2" font-family="Helvetica,sans-Serif" font-size="11.00">varchar[3]</text>
<polygon fill="none" stroke="black" points="10.5,-145 10.5,-167 137.5,-167 137.5,-145 10.5,-145"/>
<text text-anchor="start" x="30.5" y="-153.2" font-family="Helvetica,sans-Serif" font-size="11.00">abbr_de</text>
<polygon fill="none" stroke="black" points="137.5,-145 137.5,-167 215.5,-167 215.5,-145 137.5,-145"/>
<text text-anchor="start" x="140.5" y="-153.2" font-family="Helvetica,sans-Serif" font-size="11.00">varchar[3]</text>
<polygon fill="none" stroke="black" points="10.5,-123 10.5,-145 137.5,-145 137.5,-123 10.5,-123"/>
<text text-anchor="start" x="30.5" y="-131.2" font-family="Helvetica,sans-Serif" font-size="11.00">abbr_fr</text>
<polygon fill="none" stroke="black" points="137.5,-123 137.5,-145 215.5,-145 215.5,-123 137.5,-123"/>
<text text-anchor="start" x="140.5" y="-131.2" font-family="Helvetica,sans-Serif" font-size="11.00">varchar[3]</text>
<polygon fill="none" stroke="black" points="10.5,-101 10.5,-123 137.5,-123 137.5,-101 10.5,-101"/>
<text text-anchor="start" x="30.5" y="-109.2" font-family="Helvetica,sans-Serif" font-size="11.00">abbr_it</text>
<polygon fill="none" stroke="black" points="137.5,-101 137.5,-123 215.5,-123 215.5,-101 137.5,-101"/>
<text text-anchor="start" x="140.5" y="-109.2" font-family="Helvetica,sans-Serif" font-size="11.00">varchar[3]</text>
<polygon fill="none" stroke="black" points="10.5,-79 10.5,-101 137.5,-101 137.5,-79 10.5,-79"/>
<text text-anchor="start" x="30.5" y="-87.2" font-family="Helvetica,sans-Serif" font-size="11.00">abbr_ro</text>
<polygon fill="none" stroke="black" points="137.5,-79 137.5,-101 215.5,-101 215.5,-79 137.5,-79"/>
<text text-anchor="start" x="140.5" y="-87.2" font-family="Helvetica,sans-Serif" font-size="11.00">varchar[3]</text>
<polygon fill="none" stroke="black" points="10.5,-57 10.5,-79 137.5,-79 137.5,-57 10.5,-57"/>
<text text-anchor="start" x="30.5" y="-65.2" font-family="Helvetica,sans-Serif" font-size="11.00">active</text>
<polygon fill="none" stroke="black" points="137.5,-57 137.5,-79 215.5,-79 215.5,-57 137.5,-57"/>
<text text-anchor="start" x="140.5" y="-65.2" font-family="Helvetica,sans-Serif" font-size="11.00">bool[1]</text>
<polygon fill="#ffffff" stroke="transparent" points="10.5,-39 10.5,-57 215.5,-57 215.5,-39 10.5,-39"/>
<polygon fill="none" stroke="black" points="10.5,-39 10.5,-57 215.5,-57 215.5,-39 10.5,-39"/>
<polygon fill="#ffffff" stroke="transparent" points="11.5,-40 11.5,-56 69.5,-56 69.5,-40 11.5,-40"/>
<text text-anchor="start" x="13.5" y="-45.2" font-family="Helvetica,sans-Serif" font-size="11.00">&lt; 0</text>
<polygon fill="#ffffff" stroke="transparent" points="69.5,-40 69.5,-56 157.5,-56 157.5,-40 69.5,-40"/>
<text text-anchor="start" x="88" y="-45.2" font-family="Helvetica,sans-Serif" font-size="11.00">110 rows</text>
<polygon fill="#ffffff" stroke="transparent" points="157.5,-40 157.5,-56 214.5,-56 214.5,-40 157.5,-40"/>
<text text-anchor="start" x="192.5" y="-45.2" font-family="Helvetica,sans-Serif" font-size="11.00">1 &gt;</text>
<polygon fill="black" stroke="black" points="69.5,-40 69.5,-56 69.5,-56 69.5,-40 69.5,-40"/>
<polygon fill="black" stroke="black" points="157.5,-40 157.5,-56 157.5,-56 157.5,-40 157.5,-40"/>
<polygon fill="none" stroke="black" stroke-width="2" points="9,-38 9,-366 216,-366 216,-38 9,-38"/>
</a>
</g>
</g>
<!-- tww_od.file&#45;&gt;file_classname -->
<g id="edge1" class="edge">
<title>tww_od.file:w&#45;&gt;file_classname:e</title>
<path fill="none" stroke="black" d="M250.28,-332C239.29,-332 232.16,-332 216.5,-332"/>
<polygon fill="black" stroke="black" points="257,-332 265,-335.6 261,-332 265,-332 265,-332 265,-332 261,-332 265,-328.4 257,-332 257,-332"/>
<ellipse fill="none" stroke="black" cx="253.8" cy="-332" rx="3.2" ry="3.2"/>
</g>
</g>
</svg>
