<?xml version="1.0" encoding="UTF-8" standalone="no"?>
<!DOCTYPE svg PUBLIC "-//W3C//DTD SVG 1.1//EN"
 "http://www.w3.org/Graphics/SVG/1.1/DTD/svg11.dtd">
<!-- Generated by graphviz version 2.43.0 (0)
 -->
<!-- Title: oneDegreeRelationshipsDiagram Pages: 1 -->
<svg width="627pt" height="443pt"
 viewBox="0.00 0.00 627.00 443.00" xmlns="http://www.w3.org/2000/svg" xmlns:xlink="http://www.w3.org/1999/xlink">
<g id="graph0" class="graph" transform="scale(1 1) rotate(0) translate(4 439)">
<title>oneDegreeRelationshipsDiagram</title>
<polygon fill="#ffffff" stroke="transparent" points="-4,4 -4,-439 623,-439 623,4 -4,4"/>
<text text-anchor="middle" x="79.5" y="-7.2" font-family="Helvetica,sans-Serif" font-size="11.00">Generated by SchemaSpy</text>
<!-- tww_od.hydraulic_char_data -->
<g id="node1" class="node">
<title>tww_od.hydraulic_char_data</title>
<g id="a_node1"><a xlink:href="../../../tww_od/tables/hydraulic_char_data.html" xlink:title="tww_od.hydraulic_char_data" target="_top">
<polygon fill="#ffffff" stroke="transparent" points="358,-285 358,-431 611,-431 611,-285 358,-285"/>
<polygon fill="#f5f5f5" stroke="transparent" points="358.5,-409 358.5,-431 611.5,-431 611.5,-409 358.5,-409"/>
<polygon fill="none" stroke="black" points="358.5,-409 358.5,-431 611.5,-431 611.5,-409 358.5,-409"/>
<text text-anchor="start" x="363.5" y="-418.2" font-family="Helvetica,sans-Serif" font-weight="bold" font-size="11.00">tww_od.hydraulic_char_data</text>
<text text-anchor="start" x="569.5" y="-417.2" font-family="Helvetica,sans-Serif" font-size="11.00">[table]</text>
<polygon fill="none" stroke="black" points="358.5,-387 358.5,-409 611.5,-409 611.5,-387 358.5,-387"/>
<image xlink:href="../../images/foreignKeys.png" width="11px" height="12px" preserveAspectRatio="xMinYMin meet" x="363.5" y="-404"/>
<text text-anchor="start" x="399.5" y="-395.2" font-family="Helvetica,sans-Serif" font-size="11.00">is_overflowing</text>
<polygon fill="none" stroke="black" points="358.5,-365 358.5,-387 611.5,-387 611.5,-365 358.5,-365"/>
<image xlink:href="../../images/foreignKeys.png" width="11px" height="12px" preserveAspectRatio="xMinYMin meet" x="363.5" y="-382"/>
<text text-anchor="start" x="399.5" y="-373.2" font-family="Helvetica,sans-Serif" font-size="11.00">main_weir_kind</text>
<polygon fill="none" stroke="black" points="358.5,-343 358.5,-365 611.5,-365 611.5,-343 358.5,-343"/>
<image xlink:href="../../images/foreignKeys.png" width="11px" height="12px" preserveAspectRatio="xMinYMin meet" x="363.5" y="-360"/>
<text text-anchor="start" x="399.5" y="-351.2" font-family="Helvetica,sans-Serif" font-size="11.00">pump_characteristics</text>
<polygon fill="none" stroke="black" points="358.5,-321 358.5,-343 611.5,-343 611.5,-321 358.5,-321"/>
<image xlink:href="../../images/foreignKeys.png" width="11px" height="12px" preserveAspectRatio="xMinYMin meet" x="363.5" y="-338"/>
<text text-anchor="start" x="399.5" y="-329.2" font-family="Helvetica,sans-Serif" font-size="11.00">status</text>
<polygon fill="none" stroke="black" points="358.5,-303 358.5,-321 611.5,-321 611.5,-303 358.5,-303"/>
<text text-anchor="start" x="361.5" y="-309.2" font-family="Helvetica,sans-Serif" font-size="11.00">...</text>
<polygon fill="#ffffff" stroke="transparent" points="358.5,-285 358.5,-303 611.5,-303 611.5,-285 358.5,-285"/>
<polygon fill="none" stroke="black" points="358.5,-285 358.5,-303 611.5,-303 611.5,-285 358.5,-285"/>
<polygon fill="#ffffff" stroke="transparent" points="359.5,-286 359.5,-302 441.5,-302 441.5,-286 359.5,-286"/>
<text text-anchor="start" x="361.5" y="-291.2" font-family="Helvetica,sans-Serif" font-size="11.00">&lt; 4</text>
<polygon fill="#ffffff" stroke="transparent" points="441.5,-286 441.5,-302 540.5,-302 540.5,-286 441.5,-286"/>
<text text-anchor="start" x="472.5" y="-291.2" font-family="Helvetica,sans-Serif" font-size="11.00">0 rows</text>
<polygon fill="#ffffff" stroke="transparent" points="540.5,-286 540.5,-302 610.5,-302 610.5,-286 540.5,-286"/>
<text text-anchor="start" x="600.5" y="-291.2" font-family="Helvetica,sans-Serif" font-size="11.00"> &#160;</text>
<polygon fill="black" stroke="black" points="441.5,-286 441.5,-302 441.5,-302 441.5,-286 441.5,-286"/>
<polygon fill="black" stroke="black" points="540.5,-286 540.5,-302 540.5,-302 540.5,-286 540.5,-286"/>
</a>
</g>
</g>
<!-- hydraulic_char_data_status -->
<g id="node2" class="node">
<title>hydraulic_char_data_status</title>
<g id="a_node2"><a xlink:href="../../tables/hydraulic_char_data_status.html" xlink:title="hydraulic_char_data_status" target="_top">
<polygon fill="#ffffff" stroke="transparent" points="8,-37 8,-367 309,-367 309,-37 8,-37"/>
<polygon fill="#f5f5f5" stroke="transparent" points="10.5,-343 10.5,-365 307.5,-365 307.5,-343 10.5,-343"/>
<polygon fill="none" stroke="black" points="10.5,-343 10.5,-365 307.5,-365 307.5,-343 10.5,-343"/>
<text text-anchor="start" x="15.5" y="-352.2" font-family="Helvetica,sans-Serif" font-weight="bold" font-size="11.00">hydraulic_char_data_status</text>
<text text-anchor="start" x="265.5" y="-351.2" font-family="Helvetica,sans-Serif" font-size="11.00">[table]</text>
<polygon fill="none" stroke="black" points="10.5,-321 10.5,-343 229.5,-343 229.5,-321 10.5,-321"/>
<image xlink:href="../../images/primaryKeys.png" width="11px" height="12px" preserveAspectRatio="xMinYMin meet" x="15.5" y="-338"/>
<text text-anchor="start" x="30.5" y="-329.2" font-family="Helvetica,sans-Serif" font-size="11.00">code</text>
<polygon fill="none" stroke="black" points="229.5,-321 229.5,-343 307.5,-343 307.5,-321 229.5,-321"/>
<text text-anchor="start" x="232.5" y="-329.2" font-family="Helvetica,sans-Serif" font-size="11.00">int4[10]</text>
<polygon fill="none" stroke="black" points="10.5,-299 10.5,-321 229.5,-321 229.5,-299 10.5,-299"/>
<text text-anchor="start" x="30.5" y="-307.2" font-family="Helvetica,sans-Serif" font-size="11.00">vsacode</text>
<polygon fill="none" stroke="black" points="229.5,-299 229.5,-321 307.5,-321 307.5,-299 229.5,-299"/>
<text text-anchor="start" x="232.5" y="-307.2" font-family="Helvetica,sans-Serif" font-size="11.00">int4[10]</text>
<polygon fill="none" stroke="black" points="10.5,-277 10.5,-299 229.5,-299 229.5,-277 10.5,-277"/>
<text text-anchor="start" x="30.5" y="-285.2" font-family="Helvetica,sans-Serif" font-size="11.00">value_en</text>
<polygon fill="none" stroke="black" points="229.5,-277 229.5,-299 307.5,-299 307.5,-277 229.5,-277"/>
<text text-anchor="start" x="232.5" y="-285.2" font-family="Helvetica,sans-Serif" font-size="11.00">varchar[100]</text>
<polygon fill="none" stroke="black" points="10.5,-255 10.5,-277 229.5,-277 229.5,-255 10.5,-255"/>
<text text-anchor="start" x="30.5" y="-263.2" font-family="Helvetica,sans-Serif" font-size="11.00">value_de</text>
<polygon fill="none" stroke="black" points="229.5,-255 229.5,-277 307.5,-277 307.5,-255 229.5,-255"/>
<text text-anchor="start" x="232.5" y="-263.2" font-family="Helvetica,sans-Serif" font-size="11.00">varchar[100]</text>
<polygon fill="none" stroke="black" points="10.5,-233 10.5,-255 229.5,-255 229.5,-233 10.5,-233"/>
<text text-anchor="start" x="30.5" y="-241.2" font-family="Helvetica,sans-Serif" font-size="11.00">value_fr</text>
<polygon fill="none" stroke="black" points="229.5,-233 229.5,-255 307.5,-255 307.5,-233 229.5,-233"/>
<text text-anchor="start" x="232.5" y="-241.2" font-family="Helvetica,sans-Serif" font-size="11.00">varchar[100]</text>
<polygon fill="none" stroke="black" points="10.5,-211 10.5,-233 229.5,-233 229.5,-211 10.5,-211"/>
<text text-anchor="start" x="30.5" y="-219.2" font-family="Helvetica,sans-Serif" font-size="11.00">value_it</text>
<polygon fill="none" stroke="black" points="229.5,-211 229.5,-233 307.5,-233 307.5,-211 229.5,-211"/>
<text text-anchor="start" x="232.5" y="-219.2" font-family="Helvetica,sans-Serif" font-size="11.00">varchar[100]</text>
<polygon fill="none" stroke="black" points="10.5,-189 10.5,-211 229.5,-211 229.5,-189 10.5,-189"/>
<text text-anchor="start" x="30.5" y="-197.2" font-family="Helvetica,sans-Serif" font-size="11.00">value_ro</text>
<polygon fill="none" stroke="black" points="229.5,-189 229.5,-211 307.5,-211 307.5,-189 229.5,-189"/>
<text text-anchor="start" x="232.5" y="-197.2" font-family="Helvetica,sans-Serif" font-size="11.00">varchar[100]</text>
<polygon fill="none" stroke="black" points="10.5,-167 10.5,-189 229.5,-189 229.5,-167 10.5,-167"/>
<text text-anchor="start" x="30.5" y="-175.2" font-family="Helvetica,sans-Serif" font-size="11.00">abbr_en</text>
<polygon fill="none" stroke="black" points="229.5,-167 229.5,-189 307.5,-189 307.5,-167 229.5,-167"/>
<text text-anchor="start" x="232.5" y="-175.2" font-family="Helvetica,sans-Serif" font-size="11.00">varchar[3]</text>
<polygon fill="none" stroke="black" points="10.5,-145 10.5,-167 229.5,-167 229.5,-145 10.5,-145"/>
<text text-anchor="start" x="30.5" y="-153.2" font-family="Helvetica,sans-Serif" font-size="11.00">abbr_de</text>
<polygon fill="none" stroke="black" points="229.5,-145 229.5,-167 307.5,-167 307.5,-145 229.5,-145"/>
<text text-anchor="start" x="232.5" y="-153.2" font-family="Helvetica,sans-Serif" font-size="11.00">varchar[3]</text>
<polygon fill="none" stroke="black" points="10.5,-123 10.5,-145 229.5,-145 229.5,-123 10.5,-123"/>
<text text-anchor="start" x="30.5" y="-131.2" font-family="Helvetica,sans-Serif" font-size="11.00">abbr_fr</text>
<polygon fill="none" stroke="black" points="229.5,-123 229.5,-145 307.5,-145 307.5,-123 229.5,-123"/>
<text text-anchor="start" x="232.5" y="-131.2" font-family="Helvetica,sans-Serif" font-size="11.00">varchar[3]</text>
<polygon fill="none" stroke="black" points="10.5,-101 10.5,-123 229.5,-123 229.5,-101 10.5,-101"/>
<text text-anchor="start" x="30.5" y="-109.2" font-family="Helvetica,sans-Serif" font-size="11.00">abbr_it</text>
<polygon fill="none" stroke="black" points="229.5,-101 229.5,-123 307.5,-123 307.5,-101 229.5,-101"/>
<text text-anchor="start" x="232.5" y="-109.2" font-family="Helvetica,sans-Serif" font-size="11.00">varchar[3]</text>
<polygon fill="none" stroke="black" points="10.5,-79 10.5,-101 229.5,-101 229.5,-79 10.5,-79"/>
<text text-anchor="start" x="30.5" y="-87.2" font-family="Helvetica,sans-Serif" font-size="11.00">abbr_ro</text>
<polygon fill="none" stroke="black" points="229.5,-79 229.5,-101 307.5,-101 307.5,-79 229.5,-79"/>
<text text-anchor="start" x="232.5" y="-87.2" font-family="Helvetica,sans-Serif" font-size="11.00">varchar[3]</text>
<polygon fill="none" stroke="black" points="10.5,-57 10.5,-79 229.5,-79 229.5,-57 10.5,-57"/>
<text text-anchor="start" x="30.5" y="-65.2" font-family="Helvetica,sans-Serif" font-size="11.00">active</text>
<polygon fill="none" stroke="black" points="229.5,-57 229.5,-79 307.5,-79 307.5,-57 229.5,-57"/>
<text text-anchor="start" x="232.5" y="-65.2" font-family="Helvetica,sans-Serif" font-size="11.00">bool[1]</text>
<polygon fill="#ffffff" stroke="transparent" points="10.5,-39 10.5,-57 307.5,-57 307.5,-39 10.5,-39"/>
<polygon fill="none" stroke="black" points="10.5,-39 10.5,-57 307.5,-57 307.5,-39 10.5,-39"/>
<polygon fill="#ffffff" stroke="transparent" points="11.5,-40 11.5,-56 114.5,-56 114.5,-40 11.5,-40"/>
<text text-anchor="start" x="13.5" y="-45.2" font-family="Helvetica,sans-Serif" font-size="11.00">&lt; 0</text>
<polygon fill="#ffffff" stroke="transparent" points="114.5,-40 114.5,-56 204.5,-56 204.5,-40 114.5,-40"/>
<text text-anchor="start" x="155.5" y="-45.2" font-family="Helvetica,sans-Serif" font-size="11.00"> &#160;</text>
<polygon fill="#ffffff" stroke="transparent" points="204.5,-40 204.5,-56 306.5,-56 306.5,-40 204.5,-40"/>
<text text-anchor="start" x="284.5" y="-45.2" font-family="Helvetica,sans-Serif" font-size="11.00">1 &gt;</text>
<polygon fill="black" stroke="black" points="114.5,-40 114.5,-56 114.5,-56 114.5,-40 114.5,-40"/>
<polygon fill="black" stroke="black" points="204.5,-40 204.5,-56 204.5,-56 204.5,-40 204.5,-40"/>
<polygon fill="none" stroke="black" stroke-width="2" points="9,-38 9,-366 308,-366 308,-38 9,-38"/>
</a>
</g>
</g>
<!-- tww_od.hydraulic_char_data&#45;&gt;hydraulic_char_data_status -->
<g id="edge1" class="edge">
<title>tww_od.hydraulic_char_data:w&#45;&gt;hydraulic_char_data_status:e</title>
<path fill="none" stroke="black" d="M342.99,-332C331.68,-332 324.49,-332 308.5,-332"/>
<polygon fill="black" stroke="black" points="349.5,-332 357.5,-335.6 353.5,-332 357.5,-332 357.5,-332 357.5,-332 353.5,-332 357.5,-328.4 349.5,-332 349.5,-332"/>
<ellipse fill="none" stroke="black" cx="346.3" cy="-332" rx="3.2" ry="3.2"/>
</g>
</g>
</svg>
