<?xml version="1.0" encoding="UTF-8" standalone="no"?>
<!DOCTYPE svg PUBLIC "-//W3C//DTD SVG 1.1//EN"
 "http://www.w3.org/Graphics/SVG/1.1/DTD/svg11.dtd">
<!-- Generated by graphviz version 2.43.0 (0)
 -->
<!-- Title: oneDegreeRelationshipsDiagram Pages: 1 -->
<svg width="775pt" height="399pt"
 viewBox="0.00 0.00 775.00 399.00" xmlns="http://www.w3.org/2000/svg" xmlns:xlink="http://www.w3.org/1999/xlink">
<g id="graph0" class="graph" transform="scale(1 1) rotate(0) translate(4 395)">
<title>oneDegreeRelationshipsDiagram</title>
<polygon fill="#ffffff" stroke="transparent" points="-4,4 -4,-395 771,-395 771,4 -4,4"/>
<text text-anchor="middle" x="79.5" y="-7.2" font-family="Helvetica,sans-Serif" font-size="11.00">Generated by SchemaSpy</text>
<!-- tww_od.infiltration_installation -->
<g id="node1" class="node">
<title>tww_od.infiltration_installation</title>
<g id="a_node1"><a xlink:href="../../../tww_od/tables/infiltration_installation.html" xlink:title="tww_od.infiltration_installation" target="_top">
<polygon fill="#ffffff" stroke="transparent" points="485,-153 485,-387 759,-387 759,-153 485,-153"/>
<polygon fill="#f5f5f5" stroke="transparent" points="485,-365 485,-387 759,-387 759,-365 485,-365"/>
<polygon fill="none" stroke="black" points="485,-365 485,-387 759,-387 759,-365 485,-365"/>
<text text-anchor="start" x="490" y="-374.2" font-family="Helvetica,sans-Serif" font-weight="bold" font-size="11.00">tww_od.infiltration_installation</text>
<text text-anchor="start" x="717" y="-373.2" font-family="Helvetica,sans-Serif" font-size="11.00">[table]</text>
<polygon fill="none" stroke="black" points="485,-343 485,-365 759,-365 759,-343 485,-343"/>
<image xlink:href="../../images/foreignKeys.png" width="11px" height="12px" preserveAspectRatio="xMinYMin meet" x="490" y="-360"/>
<text text-anchor="start" x="548" y="-351.2" font-family="Helvetica,sans-Serif" font-size="11.00">defects</text>
<polygon fill="none" stroke="black" points="485,-321 485,-343 759,-343 759,-321 485,-321"/>
<image xlink:href="../../images/foreignKeys.png" width="11px" height="12px" preserveAspectRatio="xMinYMin meet" x="490" y="-338"/>
<text text-anchor="start" x="548" y="-329.2" font-family="Helvetica,sans-Serif" font-size="11.00">emergency_overflow</text>
<polygon fill="none" stroke="black" points="485,-299 485,-321 759,-321 759,-299 485,-299"/>
<image xlink:href="../../images/foreignKeys.png" width="11px" height="12px" preserveAspectRatio="xMinYMin meet" x="490" y="-316"/>
<text text-anchor="start" x="548" y="-307.2" font-family="Helvetica,sans-Serif" font-size="11.00">filling_material</text>
<polygon fill="none" stroke="black" points="485,-277 485,-299 759,-299 759,-277 485,-277"/>
<image xlink:href="../../images/foreignKeys.png" width="11px" height="12px" preserveAspectRatio="xMinYMin meet" x="490" y="-294"/>
<text text-anchor="start" x="548" y="-285.2" font-family="Helvetica,sans-Serif" font-size="11.00">kind</text>
<polygon fill="none" stroke="black" points="485,-255 485,-277 759,-277 759,-255 485,-255"/>
<image xlink:href="../../images/foreignKeys.png" width="11px" height="12px" preserveAspectRatio="xMinYMin meet" x="490" y="-272"/>
<text text-anchor="start" x="548" y="-263.2" font-family="Helvetica,sans-Serif" font-size="11.00">labeling</text>
<polygon fill="none" stroke="black" points="485,-233 485,-255 759,-255 759,-233 485,-233"/>
<image xlink:href="../../images/foreignKeys.png" width="11px" height="12px" preserveAspectRatio="xMinYMin meet" x="490" y="-250"/>
<text text-anchor="start" x="548" y="-241.2" font-family="Helvetica,sans-Serif" font-size="11.00">seepage_utilization</text>
<polygon fill="none" stroke="black" points="485,-211 485,-233 759,-233 759,-211 485,-211"/>
<image xlink:href="../../images/foreignKeys.png" width="11px" height="12px" preserveAspectRatio="xMinYMin meet" x="490" y="-228"/>
<text text-anchor="start" x="548" y="-219.2" font-family="Helvetica,sans-Serif" font-size="11.00">vehicle_access</text>
<polygon fill="none" stroke="black" points="485,-189 485,-211 759,-211 759,-189 485,-189"/>
<image xlink:href="../../images/foreignKeys.png" width="11px" height="12px" preserveAspectRatio="xMinYMin meet" x="490" y="-206"/>
<text text-anchor="start" x="548" y="-197.2" font-family="Helvetica,sans-Serif" font-size="11.00">watertightness</text>
<polygon fill="none" stroke="black" points="485,-171 485,-189 759,-189 759,-171 485,-171"/>
<text text-anchor="start" x="488" y="-177.2" font-family="Helvetica,sans-Serif" font-size="11.00">...</text>
<polygon fill="#ffffff" stroke="transparent" points="485,-153 485,-171 759,-171 759,-153 485,-153"/>
<polygon fill="none" stroke="black" points="485,-153 485,-171 759,-171 759,-153 485,-153"/>
<polygon fill="#ffffff" stroke="transparent" points="486,-154 486,-170 575,-170 575,-154 486,-154"/>
<text text-anchor="start" x="488" y="-159.2" font-family="Helvetica,sans-Serif" font-size="11.00">&lt; 8</text>
<polygon fill="#ffffff" stroke="transparent" points="575,-154 575,-170 681,-170 681,-154 575,-154"/>
<text text-anchor="start" x="609.5" y="-159.2" font-family="Helvetica,sans-Serif" font-size="11.00">0 rows</text>
<polygon fill="#ffffff" stroke="transparent" points="681,-154 681,-170 758,-170 758,-154 681,-154"/>
<text text-anchor="start" x="748" y="-159.2" font-family="Helvetica,sans-Serif" font-size="11.00"> &#160;</text>
<polygon fill="black" stroke="black" points="575,-154 575,-170 575,-170 575,-154 575,-154"/>
<polygon fill="black" stroke="black" points="681,-154 681,-170 681,-170 681,-154 681,-154"/>
</a>
</g>
</g>
<!-- infiltration_installation_emergency_overflow -->
<g id="node2" class="node">
<title>infiltration_installation_emergency_overflow</title>
<g id="a_node2"><a xlink:href="../../tables/infiltration_installation_emerg_740c6ac9.html" xlink:title="infiltration_installation_emergency_overflow" target="_top">
<polygon fill="#ffffff" stroke="transparent" points="8,-37 8,-367 436,-367 436,-37 8,-37"/>
<polygon fill="#f5f5f5" stroke="transparent" points="10,-343 10,-365 434,-365 434,-343 10,-343"/>
<polygon fill="none" stroke="black" points="10,-343 10,-365 434,-365 434,-343 10,-343"/>
<text text-anchor="start" x="15" y="-352.2" font-family="Helvetica,sans-Serif" font-weight="bold" font-size="11.00">infiltration_installation_emergency_overflow</text>
<text text-anchor="start" x="392" y="-351.2" font-family="Helvetica,sans-Serif" font-size="11.00">[table]</text>
<polygon fill="none" stroke="black" points="10,-321 10,-343 356,-343 356,-321 10,-321"/>
<image xlink:href="../../images/primaryKeys.png" width="11px" height="12px" preserveAspectRatio="xMinYMin meet" x="15" y="-338"/>
<text text-anchor="start" x="30" y="-329.2" font-family="Helvetica,sans-Serif" font-size="11.00">code</text>
<polygon fill="none" stroke="black" points="356,-321 356,-343 434,-343 434,-321 356,-321"/>
<text text-anchor="start" x="359" y="-329.2" font-family="Helvetica,sans-Serif" font-size="11.00">int4[10]</text>
<polygon fill="none" stroke="black" points="10,-299 10,-321 356,-321 356,-299 10,-299"/>
<text text-anchor="start" x="30" y="-307.2" font-family="Helvetica,sans-Serif" font-size="11.00">vsacode</text>
<polygon fill="none" stroke="black" points="356,-299 356,-321 434,-321 434,-299 356,-299"/>
<text text-anchor="start" x="359" y="-307.2" font-family="Helvetica,sans-Serif" font-size="11.00">int4[10]</text>
<polygon fill="none" stroke="black" points="10,-277 10,-299 356,-299 356,-277 10,-277"/>
<text text-anchor="start" x="30" y="-285.2" font-family="Helvetica,sans-Serif" font-size="11.00">value_en</text>
<polygon fill="none" stroke="black" points="356,-277 356,-299 434,-299 434,-277 356,-277"/>
<text text-anchor="start" x="359" y="-285.2" font-family="Helvetica,sans-Serif" font-size="11.00">varchar[100]</text>
<polygon fill="none" stroke="black" points="10,-255 10,-277 356,-277 356,-255 10,-255"/>
<text text-anchor="start" x="30" y="-263.2" font-family="Helvetica,sans-Serif" font-size="11.00">value_de</text>
<polygon fill="none" stroke="black" points="356,-255 356,-277 434,-277 434,-255 356,-255"/>
<text text-anchor="start" x="359" y="-263.2" font-family="Helvetica,sans-Serif" font-size="11.00">varchar[100]</text>
<polygon fill="none" stroke="black" points="10,-233 10,-255 356,-255 356,-233 10,-233"/>
<text text-anchor="start" x="30" y="-241.2" font-family="Helvetica,sans-Serif" font-size="11.00">value_fr</text>
<polygon fill="none" stroke="black" points="356,-233 356,-255 434,-255 434,-233 356,-233"/>
<text text-anchor="start" x="359" y="-241.2" font-family="Helvetica,sans-Serif" font-size="11.00">varchar[100]</text>
<polygon fill="none" stroke="black" points="10,-211 10,-233 356,-233 356,-211 10,-211"/>
<text text-anchor="start" x="30" y="-219.2" font-family="Helvetica,sans-Serif" font-size="11.00">value_it</text>
<polygon fill="none" stroke="black" points="356,-211 356,-233 434,-233 434,-211 356,-211"/>
<text text-anchor="start" x="359" y="-219.2" font-family="Helvetica,sans-Serif" font-size="11.00">varchar[100]</text>
<polygon fill="none" stroke="black" points="10,-189 10,-211 356,-211 356,-189 10,-189"/>
<text text-anchor="start" x="30" y="-197.2" font-family="Helvetica,sans-Serif" font-size="11.00">value_ro</text>
<polygon fill="none" stroke="black" points="356,-189 356,-211 434,-211 434,-189 356,-189"/>
<text text-anchor="start" x="359" y="-197.2" font-family="Helvetica,sans-Serif" font-size="11.00">varchar[100]</text>
<polygon fill="none" stroke="black" points="10,-167 10,-189 356,-189 356,-167 10,-167"/>
<text text-anchor="start" x="30" y="-175.2" font-family="Helvetica,sans-Serif" font-size="11.00">abbr_en</text>
<polygon fill="none" stroke="black" points="356,-167 356,-189 434,-189 434,-167 356,-167"/>
<text text-anchor="start" x="359" y="-175.2" font-family="Helvetica,sans-Serif" font-size="11.00">varchar[3]</text>
<polygon fill="none" stroke="black" points="10,-145 10,-167 356,-167 356,-145 10,-145"/>
<text text-anchor="start" x="30" y="-153.2" font-family="Helvetica,sans-Serif" font-size="11.00">abbr_de</text>
<polygon fill="none" stroke="black" points="356,-145 356,-167 434,-167 434,-145 356,-145"/>
<text text-anchor="start" x="359" y="-153.2" font-family="Helvetica,sans-Serif" font-size="11.00">varchar[3]</text>
<polygon fill="none" stroke="black" points="10,-123 10,-145 356,-145 356,-123 10,-123"/>
<text text-anchor="start" x="30" y="-131.2" font-family="Helvetica,sans-Serif" font-size="11.00">abbr_fr</text>
<polygon fill="none" stroke="black" points="356,-123 356,-145 434,-145 434,-123 356,-123"/>
<text text-anchor="start" x="359" y="-131.2" font-family="Helvetica,sans-Serif" font-size="11.00">varchar[3]</text>
<polygon fill="none" stroke="black" points="10,-101 10,-123 356,-123 356,-101 10,-101"/>
<text text-anchor="start" x="30" y="-109.2" font-family="Helvetica,sans-Serif" font-size="11.00">abbr_it</text>
<polygon fill="none" stroke="black" points="356,-101 356,-123 434,-123 434,-101 356,-101"/>
<text text-anchor="start" x="359" y="-109.2" font-family="Helvetica,sans-Serif" font-size="11.00">varchar[3]</text>
<polygon fill="none" stroke="black" points="10,-79 10,-101 356,-101 356,-79 10,-79"/>
<text text-anchor="start" x="30" y="-87.2" font-family="Helvetica,sans-Serif" font-size="11.00">abbr_ro</text>
<polygon fill="none" stroke="black" points="356,-79 356,-101 434,-101 434,-79 356,-79"/>
<text text-anchor="start" x="359" y="-87.2" font-family="Helvetica,sans-Serif" font-size="11.00">varchar[3]</text>
<polygon fill="none" stroke="black" points="10,-57 10,-79 356,-79 356,-57 10,-57"/>
<text text-anchor="start" x="30" y="-65.2" font-family="Helvetica,sans-Serif" font-size="11.00">active</text>
<polygon fill="none" stroke="black" points="356,-57 356,-79 434,-79 434,-57 356,-57"/>
<text text-anchor="start" x="359" y="-65.2" font-family="Helvetica,sans-Serif" font-size="11.00">bool[1]</text>
<polygon fill="#ffffff" stroke="transparent" points="10,-39 10,-57 434,-57 434,-39 10,-39"/>
<polygon fill="none" stroke="black" points="10,-39 10,-57 434,-57 434,-39 10,-39"/>
<polygon fill="#ffffff" stroke="transparent" points="11,-40 11,-56 156,-56 156,-40 11,-40"/>
<text text-anchor="start" x="13" y="-45.2" font-family="Helvetica,sans-Serif" font-size="11.00">&lt; 0</text>
<polygon fill="#ffffff" stroke="transparent" points="156,-40 156,-56 289,-56 289,-40 156,-40"/>
<text text-anchor="start" x="218.5" y="-45.2" font-family="Helvetica,sans-Serif" font-size="11.00"> &#160;</text>
<polygon fill="#ffffff" stroke="transparent" points="289,-40 289,-56 433,-56 433,-40 289,-40"/>
<text text-anchor="start" x="411" y="-45.2" font-family="Helvetica,sans-Serif" font-size="11.00">1 &gt;</text>
<polygon fill="black" stroke="black" points="156,-40 156,-56 156,-56 156,-40 156,-40"/>
<polygon fill="black" stroke="black" points="289,-40 289,-56 289,-56 289,-40 289,-40"/>
<polygon fill="none" stroke="black" stroke-width="2" points="9,-38 9,-366 435,-366 435,-38 9,-38"/>
</a>
</g>
</g>
<!-- tww_od.infiltration_installation&#45;&gt;infiltration_installation_emergency_overflow -->
<g id="edge1" class="edge">
<title>tww_od.infiltration_installation:w&#45;&gt;infiltration_installation_emergency_overflow:e</title>
<path fill="none" stroke="black" d="M469.49,-332C458.18,-332 450.99,-332 435,-332"/>
<polygon fill="black" stroke="black" points="476,-332 484,-335.6 480,-332 484,-332 484,-332 484,-332 480,-332 484,-328.4 476,-332 476,-332"/>
<ellipse fill="none" stroke="black" cx="472.8" cy="-332" rx="3.2" ry="3.2"/>
</g>
</g>
</svg>
