<?xml version="1.0" encoding="UTF-8" standalone="no"?>
<!DOCTYPE svg PUBLIC "-//W3C//DTD SVG 1.1//EN"
 "http://www.w3.org/Graphics/SVG/1.1/DTD/svg11.dtd">
<!-- Generated by graphviz version 2.43.0 (0)
 -->
<!-- Title: oneDegreeRelationshipsDiagram Pages: 1 -->
<svg width="510pt" height="379pt"
 viewBox="0.00 0.00 510.00 379.00" xmlns="http://www.w3.org/2000/svg" xmlns:xlink="http://www.w3.org/1999/xlink">
<g id="graph0" class="graph" transform="scale(1 1) rotate(0) translate(4 375)">
<title>oneDegreeRelationshipsDiagram</title>
<polygon fill="#ffffff" stroke="transparent" points="-4,4 -4,-375 506,-375 506,4 -4,4"/>
<text text-anchor="middle" x="79.5" y="-7.2" font-family="Helvetica,sans-Serif" font-size="11.00">Generated by SchemaSpy</text>
<!-- tww_od.maintenance -->
<g id="node1" class="node">
<title>tww_od.maintenance</title>
<g id="a_node1"><a xlink:href="../../../tww_od/tables/maintenance.html" xlink:title="tww_od.maintenance" target="_top">
<polygon fill="#ffffff" stroke="transparent" points="293,-285 293,-365 494,-365 494,-285 293,-285"/>
<polygon fill="#f5f5f5" stroke="transparent" points="293.5,-343 293.5,-365 494.5,-365 494.5,-343 293.5,-343"/>
<polygon fill="none" stroke="black" points="293.5,-343 293.5,-365 494.5,-365 494.5,-343 293.5,-343"/>
<text text-anchor="start" x="298.5" y="-352.2" font-family="Helvetica,sans-Serif" font-weight="bold" font-size="11.00">tww_od.maintenance</text>
<text text-anchor="start" x="452.5" y="-351.2" font-family="Helvetica,sans-Serif" font-size="11.00">[table]</text>
<polygon fill="none" stroke="black" points="293.5,-321 293.5,-343 494.5,-343 494.5,-321 293.5,-321"/>
<image xlink:href="../../images/foreignKeys.png" width="11px" height="12px" preserveAspectRatio="xMinYMin meet" x="298.5" y="-338"/>
<text text-anchor="start" x="356.5" y="-329.2" font-family="Helvetica,sans-Serif" font-size="11.00">kind</text>
<polygon fill="none" stroke="black" points="293.5,-303 293.5,-321 494.5,-321 494.5,-303 293.5,-303"/>
<text text-anchor="start" x="296.5" y="-309.2" font-family="Helvetica,sans-Serif" font-size="11.00">...</text>
<polygon fill="#ffffff" stroke="transparent" points="293.5,-285 293.5,-303 494.5,-303 494.5,-285 293.5,-285"/>
<polygon fill="none" stroke="black" points="293.5,-285 293.5,-303 494.5,-303 494.5,-285 293.5,-285"/>
<polygon fill="#ffffff" stroke="transparent" points="294.5,-286 294.5,-302 359.5,-302 359.5,-286 294.5,-286"/>
<text text-anchor="start" x="296.5" y="-291.2" font-family="Helvetica,sans-Serif" font-size="11.00">&lt; 1</text>
<polygon fill="#ffffff" stroke="transparent" points="359.5,-286 359.5,-302 441.5,-302 441.5,-286 359.5,-286"/>
<text text-anchor="start" x="382" y="-291.2" font-family="Helvetica,sans-Serif" font-size="11.00">0 rows</text>
<polygon fill="#ffffff" stroke="transparent" points="441.5,-286 441.5,-302 493.5,-302 493.5,-286 441.5,-286"/>
<text text-anchor="start" x="483.5" y="-291.2" font-family="Helvetica,sans-Serif" font-size="11.00"> &#160;</text>
<polygon fill="black" stroke="black" points="359.5,-286 359.5,-302 359.5,-302 359.5,-286 359.5,-286"/>
<polygon fill="black" stroke="black" points="441.5,-286 441.5,-302 441.5,-302 441.5,-286 441.5,-286"/>
</a>
</g>
</g>
<!-- maintenance_kind -->
<g id="node2" class="node">
<title>maintenance_kind</title>
<g id="a_node2"><a xlink:href="../../tables/maintenance_kind.html" xlink:title="maintenance_kind" target="_top">
<polygon fill="#ffffff" stroke="transparent" points="8,-37 8,-367 244,-367 244,-37 8,-37"/>
<polygon fill="#f5f5f5" stroke="transparent" points="10,-343 10,-365 242,-365 242,-343 10,-343"/>
<polygon fill="none" stroke="black" points="10,-343 10,-365 242,-365 242,-343 10,-343"/>
<text text-anchor="start" x="15" y="-352.2" font-family="Helvetica,sans-Serif" font-weight="bold" font-size="11.00">maintenance_kind</text>
<text text-anchor="start" x="200" y="-351.2" font-family="Helvetica,sans-Serif" font-size="11.00">[table]</text>
<polygon fill="none" stroke="black" points="10,-321 10,-343 164,-343 164,-321 10,-321"/>
<image xlink:href="../../images/primaryKeys.png" width="11px" height="12px" preserveAspectRatio="xMinYMin meet" x="15" y="-338"/>
<text text-anchor="start" x="30" y="-329.2" font-family="Helvetica,sans-Serif" font-size="11.00">code</text>
<polygon fill="none" stroke="black" points="164,-321 164,-343 242,-343 242,-321 164,-321"/>
<text text-anchor="start" x="167" y="-329.2" font-family="Helvetica,sans-Serif" font-size="11.00">int4[10]</text>
<polygon fill="none" stroke="black" points="10,-299 10,-321 164,-321 164,-299 10,-299"/>
<text text-anchor="start" x="30" y="-307.2" font-family="Helvetica,sans-Serif" font-size="11.00">vsacode</text>
<polygon fill="none" stroke="black" points="164,-299 164,-321 242,-321 242,-299 164,-299"/>
<text text-anchor="start" x="167" y="-307.2" font-family="Helvetica,sans-Serif" font-size="11.00">int4[10]</text>
<polygon fill="none" stroke="black" points="10,-277 10,-299 164,-299 164,-277 10,-277"/>
<text text-anchor="start" x="30" y="-285.2" font-family="Helvetica,sans-Serif" font-size="11.00">value_en</text>
<polygon fill="none" stroke="black" points="164,-277 164,-299 242,-299 242,-277 164,-277"/>
<text text-anchor="start" x="167" y="-285.2" font-family="Helvetica,sans-Serif" font-size="11.00">varchar[100]</text>
<polygon fill="none" stroke="black" points="10,-255 10,-277 164,-277 164,-255 10,-255"/>
<text text-anchor="start" x="30" y="-263.2" font-family="Helvetica,sans-Serif" font-size="11.00">value_de</text>
<polygon fill="none" stroke="black" points="164,-255 164,-277 242,-277 242,-255 164,-255"/>
<text text-anchor="start" x="167" y="-263.2" font-family="Helvetica,sans-Serif" font-size="11.00">varchar[100]</text>
<polygon fill="none" stroke="black" points="10,-233 10,-255 164,-255 164,-233 10,-233"/>
<text text-anchor="start" x="30" y="-241.2" font-family="Helvetica,sans-Serif" font-size="11.00">value_fr</text>
<polygon fill="none" stroke="black" points="164,-233 164,-255 242,-255 242,-233 164,-233"/>
<text text-anchor="start" x="167" y="-241.2" font-family="Helvetica,sans-Serif" font-size="11.00">varchar[100]</text>
<polygon fill="none" stroke="black" points="10,-211 10,-233 164,-233 164,-211 10,-211"/>
<text text-anchor="start" x="30" y="-219.2" font-family="Helvetica,sans-Serif" font-size="11.00">value_it</text>
<polygon fill="none" stroke="black" points="164,-211 164,-233 242,-233 242,-211 164,-211"/>
<text text-anchor="start" x="167" y="-219.2" font-family="Helvetica,sans-Serif" font-size="11.00">varchar[100]</text>
<polygon fill="none" stroke="black" points="10,-189 10,-211 164,-211 164,-189 10,-189"/>
<text text-anchor="start" x="30" y="-197.2" font-family="Helvetica,sans-Serif" font-size="11.00">value_ro</text>
<polygon fill="none" stroke="black" points="164,-189 164,-211 242,-211 242,-189 164,-189"/>
<text text-anchor="start" x="167" y="-197.2" font-family="Helvetica,sans-Serif" font-size="11.00">varchar[100]</text>
<polygon fill="none" stroke="black" points="10,-167 10,-189 164,-189 164,-167 10,-167"/>
<text text-anchor="start" x="30" y="-175.2" font-family="Helvetica,sans-Serif" font-size="11.00">abbr_en</text>
<polygon fill="none" stroke="black" points="164,-167 164,-189 242,-189 242,-167 164,-167"/>
<text text-anchor="start" x="167" y="-175.2" font-family="Helvetica,sans-Serif" font-size="11.00">varchar[3]</text>
<polygon fill="none" stroke="black" points="10,-145 10,-167 164,-167 164,-145 10,-145"/>
<text text-anchor="start" x="30" y="-153.2" font-family="Helvetica,sans-Serif" font-size="11.00">abbr_de</text>
<polygon fill="none" stroke="black" points="164,-145 164,-167 242,-167 242,-145 164,-145"/>
<text text-anchor="start" x="167" y="-153.2" font-family="Helvetica,sans-Serif" font-size="11.00">varchar[3]</text>
<polygon fill="none" stroke="black" points="10,-123 10,-145 164,-145 164,-123 10,-123"/>
<text text-anchor="start" x="30" y="-131.2" font-family="Helvetica,sans-Serif" font-size="11.00">abbr_fr</text>
<polygon fill="none" stroke="black" points="164,-123 164,-145 242,-145 242,-123 164,-123"/>
<text text-anchor="start" x="167" y="-131.2" font-family="Helvetica,sans-Serif" font-size="11.00">varchar[3]</text>
<polygon fill="none" stroke="black" points="10,-101 10,-123 164,-123 164,-101 10,-101"/>
<text text-anchor="start" x="30" y="-109.2" font-family="Helvetica,sans-Serif" font-size="11.00">abbr_it</text>
<polygon fill="none" stroke="black" points="164,-101 164,-123 242,-123 242,-101 164,-101"/>
<text text-anchor="start" x="167" y="-109.2" font-family="Helvetica,sans-Serif" font-size="11.00">varchar[3]</text>
<polygon fill="none" stroke="black" points="10,-79 10,-101 164,-101 164,-79 10,-79"/>
<text text-anchor="start" x="30" y="-87.2" font-family="Helvetica,sans-Serif" font-size="11.00">abbr_ro</text>
<polygon fill="none" stroke="black" points="164,-79 164,-101 242,-101 242,-79 164,-79"/>
<text text-anchor="start" x="167" y="-87.2" font-family="Helvetica,sans-Serif" font-size="11.00">varchar[3]</text>
<polygon fill="none" stroke="black" points="10,-57 10,-79 164,-79 164,-57 10,-57"/>
<text text-anchor="start" x="30" y="-65.2" font-family="Helvetica,sans-Serif" font-size="11.00">active</text>
<polygon fill="none" stroke="black" points="164,-57 164,-79 242,-79 242,-57 164,-57"/>
<text text-anchor="start" x="167" y="-65.2" font-family="Helvetica,sans-Serif" font-size="11.00">bool[1]</text>
<polygon fill="#ffffff" stroke="transparent" points="10,-39 10,-57 242,-57 242,-39 10,-39"/>
<polygon fill="none" stroke="black" points="10,-39 10,-57 242,-57 242,-39 10,-39"/>
<polygon fill="#ffffff" stroke="transparent" points="11,-40 11,-56 92,-56 92,-40 11,-40"/>
<text text-anchor="start" x="13" y="-45.2" font-family="Helvetica,sans-Serif" font-size="11.00">&lt; 0</text>
<polygon fill="#ffffff" stroke="transparent" points="92,-40 92,-56 161,-56 161,-40 92,-40"/>
<text text-anchor="start" x="122.5" y="-45.2" font-family="Helvetica,sans-Serif" font-size="11.00"> &#160;</text>
<polygon fill="#ffffff" stroke="transparent" points="161,-40 161,-56 241,-56 241,-40 161,-40"/>
<text text-anchor="start" x="219" y="-45.2" font-family="Helvetica,sans-Serif" font-size="11.00">1 &gt;</text>
<polygon fill="black" stroke="black" points="92,-40 92,-56 92,-56 92,-40 92,-40"/>
<polygon fill="black" stroke="black" points="161,-40 161,-56 161,-56 161,-40 161,-40"/>
<polygon fill="none" stroke="black" stroke-width="2" points="9,-38 9,-366 243,-366 243,-38 9,-38"/>
</a>
</g>
</g>
<!-- tww_od.maintenance&#45;&gt;maintenance_kind -->
<g id="edge1" class="edge">
<title>tww_od.maintenance:w&#45;&gt;maintenance_kind:e</title>
<path fill="none" stroke="black" d="M277.84,-332C266.41,-332 259.16,-332 243,-332"/>
<polygon fill="black" stroke="black" points="284.5,-332 292.5,-335.6 288.5,-332 292.5,-332 292.5,-332 292.5,-332 288.5,-332 292.5,-328.4 284.5,-332 284.5,-332"/>
<ellipse fill="none" stroke="black" cx="281.3" cy="-332" rx="3.2" ry="3.2"/>
</g>
</g>
</svg>
