<?xml version="1.0" encoding="UTF-8" standalone="no"?>
<!DOCTYPE svg PUBLIC "-//W3C//DTD SVG 1.1//EN"
 "http://www.w3.org/Graphics/SVG/1.1/DTD/svg11.dtd">
<!-- Generated by graphviz version 2.43.0 (0)
 -->
<!-- Title: oneDegreeRelationshipsDiagram Pages: 1 -->
<svg width="379pt" height="137pt"
 viewBox="0.00 0.00 379.00 137.00" xmlns="http://www.w3.org/2000/svg" xmlns:xlink="http://www.w3.org/1999/xlink">
<g id="graph0" class="graph" transform="scale(1 1) rotate(0) translate(4 133)">
<title>oneDegreeRelationshipsDiagram</title>
<polygon fill="#ffffff" stroke="transparent" points="-4,4 -4,-133 375,-133 375,4 -4,4"/>
<text text-anchor="middle" x="79.5" y="-7.2" font-family="Helvetica,sans-Serif" font-size="11.00">Generated by SchemaSpy</text>
<!-- manhole_function_export_rel_agxx -->
<g id="node1" class="node">
<title>manhole_function_export_rel_agxx</title>
<g id="a_node1"><a xlink:href="../../tables/manhole_function_export_rel_agxx.html" xlink:title="manhole_function_export_rel_agxx" target="_top">
<polygon fill="#ffffff" stroke="transparent" points="8,-37 8,-125 363,-125 363,-37 8,-37"/>
<polygon fill="#f5f5f5" stroke="transparent" points="10.5,-101 10.5,-123 361.5,-123 361.5,-101 10.5,-101"/>
<polygon fill="none" stroke="black" points="10.5,-101 10.5,-123 361.5,-123 361.5,-101 10.5,-101"/>
<text text-anchor="start" x="15.5" y="-110.2" font-family="Helvetica,sans-Serif" font-weight="bold" font-size="11.00">manhole_function_export_rel_agxx</text>
<text text-anchor="start" x="319.5" y="-109.2" font-family="Helvetica,sans-Serif" font-size="11.00">[table]</text>
<polygon fill="none" stroke="black" points="10.5,-79 10.5,-101 283.5,-101 283.5,-79 10.5,-79"/>
<image xlink:href="../../images/primaryKeys.png" width="11px" height="12px" preserveAspectRatio="xMinYMin meet" x="15.5" y="-96"/>
<text text-anchor="start" x="30.5" y="-87.2" font-family="Helvetica,sans-Serif" font-size="11.00">code</text>
<polygon fill="none" stroke="black" points="283.5,-79 283.5,-101 361.5,-101 361.5,-79 283.5,-79"/>
<text text-anchor="start" x="286.5" y="-87.2" font-family="Helvetica,sans-Serif" font-size="11.00">int4[10]</text>
<polygon fill="none" stroke="black" points="10.5,-57 10.5,-79 283.5,-79 283.5,-57 10.5,-57"/>
<text text-anchor="start" x="30.5" y="-65.2" font-family="Helvetica,sans-Serif" font-size="11.00">value_de</text>
<polygon fill="none" stroke="black" points="283.5,-57 283.5,-79 361.5,-79 361.5,-57 283.5,-57"/>
<text text-anchor="start" x="286.5" y="-65.2" font-family="Helvetica,sans-Serif" font-size="11.00">varchar[100]</text>
<polygon fill="#ffffff" stroke="transparent" points="10.5,-39 10.5,-57 361.5,-57 361.5,-39 10.5,-39"/>
<polygon fill="none" stroke="black" points="10.5,-39 10.5,-57 361.5,-57 361.5,-39 10.5,-39"/>
<polygon fill="#ffffff" stroke="transparent" points="11.5,-40 11.5,-56 132.5,-56 132.5,-40 11.5,-40"/>
<text text-anchor="start" x="13.5" y="-45.2" font-family="Helvetica,sans-Serif" font-size="11.00">&lt; 0</text>
<polygon fill="#ffffff" stroke="transparent" points="132.5,-40 132.5,-56 240.5,-56 240.5,-40 132.5,-40"/>
<text text-anchor="start" x="182.5" y="-45.2" font-family="Helvetica,sans-Serif" font-size="11.00"> &#160;</text>
<polygon fill="#ffffff" stroke="transparent" points="240.5,-40 240.5,-56 360.5,-56 360.5,-40 240.5,-40"/>
<text text-anchor="start" x="338.5" y="-45.2" font-family="Helvetica,sans-Serif" font-size="11.00">0 &gt;</text>
<polygon fill="black" stroke="black" points="132.5,-40 132.5,-56 132.5,-56 132.5,-40 132.5,-40"/>
<polygon fill="black" stroke="black" points="240.5,-40 240.5,-56 240.5,-56 240.5,-40 240.5,-40"/>
<polygon fill="none" stroke="black" stroke-width="2" points="9,-38 9,-124 362,-124 362,-38 9,-38"/>
</a>
</g>
</g>
</g>
</svg>
