<?xml version="1.0" encoding="UTF-8" standalone="no"?>
<!DOCTYPE svg PUBLIC "-//W3C//DTD SVG 1.1//EN"
 "http://www.w3.org/Graphics/SVG/1.1/DTD/svg11.dtd">
<!-- Generated by graphviz version 2.43.0 (0)
 -->
<!-- Title: oneDegreeRelationshipsDiagram Pages: 1 -->
<svg width="550pt" height="379pt"
 viewBox="0.00 0.00 550.00 379.00" xmlns="http://www.w3.org/2000/svg" xmlns:xlink="http://www.w3.org/1999/xlink">
<g id="graph0" class="graph" transform="scale(1 1) rotate(0) translate(4 375)">
<title>oneDegreeRelationshipsDiagram</title>
<polygon fill="#ffffff" stroke="transparent" points="-4,4 -4,-375 546,-375 546,4 -4,4"/>
<text text-anchor="middle" x="79.5" y="-7.2" font-family="Helvetica,sans-Serif" font-size="11.00">Generated by SchemaSpy</text>
<!-- tww_od.manhole -->
<g id="node1" class="node">
<title>tww_od.manhole</title>
<g id="a_node1"><a xlink:href="../../../tww_od/tables/manhole.html" xlink:title="tww_od.manhole" target="_top">
<polygon fill="#ffffff" stroke="transparent" points="341,-197 341,-365 534,-365 534,-197 341,-197"/>
<polygon fill="#f5f5f5" stroke="transparent" points="341.5,-343 341.5,-365 534.5,-365 534.5,-343 341.5,-343"/>
<polygon fill="none" stroke="black" points="341.5,-343 341.5,-365 534.5,-365 534.5,-343 341.5,-343"/>
<text text-anchor="start" x="346.5" y="-352.2" font-family="Helvetica,sans-Serif" font-weight="bold" font-size="11.00">tww_od.manhole</text>
<text text-anchor="start" x="492.5" y="-351.2" font-family="Helvetica,sans-Serif" font-size="11.00">[table]</text>
<polygon fill="none" stroke="black" points="341.5,-321 341.5,-343 534.5,-343 534.5,-321 341.5,-321"/>
<image xlink:href="../../images/foreignKeys.png" width="11px" height="12px" preserveAspectRatio="xMinYMin meet" x="346.5" y="-338"/>
<text text-anchor="start" x="361.5" y="-329.2" font-family="Helvetica,sans-Serif" font-size="11.00">amphibian_exit</text>
<polygon fill="none" stroke="black" points="341.5,-299 341.5,-321 534.5,-321 534.5,-299 341.5,-299"/>
<image xlink:href="../../images/foreignKeys.png" width="11px" height="12px" preserveAspectRatio="xMinYMin meet" x="346.5" y="-316"/>
<text text-anchor="start" x="361.5" y="-307.2" font-family="Helvetica,sans-Serif" font-size="11.00">function</text>
<polygon fill="none" stroke="black" points="341.5,-277 341.5,-299 534.5,-299 534.5,-277 341.5,-277"/>
<image xlink:href="../../images/foreignKeys.png" width="11px" height="12px" preserveAspectRatio="xMinYMin meet" x="346.5" y="-294"/>
<text text-anchor="start" x="361.5" y="-285.2" font-family="Helvetica,sans-Serif" font-size="11.00">material</text>
<polygon fill="none" stroke="black" points="341.5,-255 341.5,-277 534.5,-277 534.5,-255 341.5,-255"/>
<image xlink:href="../../images/foreignKeys.png" width="11px" height="12px" preserveAspectRatio="xMinYMin meet" x="346.5" y="-272"/>
<text text-anchor="start" x="361.5" y="-263.2" font-family="Helvetica,sans-Serif" font-size="11.00">possibility_intervention</text>
<polygon fill="none" stroke="black" points="341.5,-233 341.5,-255 534.5,-255 534.5,-233 341.5,-233"/>
<image xlink:href="../../images/foreignKeys.png" width="11px" height="12px" preserveAspectRatio="xMinYMin meet" x="346.5" y="-250"/>
<text text-anchor="start" x="361.5" y="-241.2" font-family="Helvetica,sans-Serif" font-size="11.00">surface_inflow</text>
<polygon fill="none" stroke="black" points="341.5,-215 341.5,-233 534.5,-233 534.5,-215 341.5,-215"/>
<text text-anchor="start" x="344.5" y="-221.2" font-family="Helvetica,sans-Serif" font-size="11.00">...</text>
<polygon fill="#ffffff" stroke="transparent" points="341.5,-197 341.5,-215 534.5,-215 534.5,-197 341.5,-197"/>
<polygon fill="none" stroke="black" points="341.5,-197 341.5,-215 534.5,-215 534.5,-197 341.5,-197"/>
<polygon fill="#ffffff" stroke="transparent" points="342.5,-198 342.5,-214 404.5,-214 404.5,-198 342.5,-198"/>
<text text-anchor="start" x="344.5" y="-203.2" font-family="Helvetica,sans-Serif" font-size="11.00">&lt; 5</text>
<polygon fill="#ffffff" stroke="transparent" points="404.5,-198 404.5,-214 483.5,-214 483.5,-198 404.5,-198"/>
<text text-anchor="start" x="425.5" y="-203.2" font-family="Helvetica,sans-Serif" font-size="11.00">0 rows</text>
<polygon fill="#ffffff" stroke="transparent" points="483.5,-198 483.5,-214 533.5,-214 533.5,-198 483.5,-198"/>
<text text-anchor="start" x="523.5" y="-203.2" font-family="Helvetica,sans-Serif" font-size="11.00"> &#160;</text>
<polygon fill="black" stroke="black" points="404.5,-198 404.5,-214 404.5,-214 404.5,-198 404.5,-198"/>
<polygon fill="black" stroke="black" points="483.5,-198 483.5,-214 483.5,-214 483.5,-198 483.5,-198"/>
</a>
</g>
</g>
<!-- manhole_amphibian_exit -->
<g id="node2" class="node">
<title>manhole_amphibian_exit</title>
<g id="a_node2"><a xlink:href="../../tables/manhole_amphibian_exit.html" xlink:title="manhole_amphibian_exit" target="_top">
<polygon fill="#ffffff" stroke="transparent" points="8,-37 8,-367 292,-367 292,-37 8,-37"/>
<polygon fill="#f5f5f5" stroke="transparent" points="10,-343 10,-365 290,-365 290,-343 10,-343"/>
<polygon fill="none" stroke="black" points="10,-343 10,-365 290,-365 290,-343 10,-343"/>
<text text-anchor="start" x="15" y="-352.2" font-family="Helvetica,sans-Serif" font-weight="bold" font-size="11.00">manhole_amphibian_exit</text>
<text text-anchor="start" x="248" y="-351.2" font-family="Helvetica,sans-Serif" font-size="11.00">[table]</text>
<polygon fill="none" stroke="black" points="10,-321 10,-343 212,-343 212,-321 10,-321"/>
<image xlink:href="../../images/primaryKeys.png" width="11px" height="12px" preserveAspectRatio="xMinYMin meet" x="15" y="-338"/>
<text text-anchor="start" x="30" y="-329.2" font-family="Helvetica,sans-Serif" font-size="11.00">code</text>
<polygon fill="none" stroke="black" points="212,-321 212,-343 290,-343 290,-321 212,-321"/>
<text text-anchor="start" x="215" y="-329.2" font-family="Helvetica,sans-Serif" font-size="11.00">int4[10]</text>
<polygon fill="none" stroke="black" points="10,-299 10,-321 212,-321 212,-299 10,-299"/>
<text text-anchor="start" x="30" y="-307.2" font-family="Helvetica,sans-Serif" font-size="11.00">vsacode</text>
<polygon fill="none" stroke="black" points="212,-299 212,-321 290,-321 290,-299 212,-299"/>
<text text-anchor="start" x="215" y="-307.2" font-family="Helvetica,sans-Serif" font-size="11.00">int4[10]</text>
<polygon fill="none" stroke="black" points="10,-277 10,-299 212,-299 212,-277 10,-277"/>
<text text-anchor="start" x="30" y="-285.2" font-family="Helvetica,sans-Serif" font-size="11.00">value_en</text>
<polygon fill="none" stroke="black" points="212,-277 212,-299 290,-299 290,-277 212,-277"/>
<text text-anchor="start" x="215" y="-285.2" font-family="Helvetica,sans-Serif" font-size="11.00">varchar[100]</text>
<polygon fill="none" stroke="black" points="10,-255 10,-277 212,-277 212,-255 10,-255"/>
<text text-anchor="start" x="30" y="-263.2" font-family="Helvetica,sans-Serif" font-size="11.00">value_de</text>
<polygon fill="none" stroke="black" points="212,-255 212,-277 290,-277 290,-255 212,-255"/>
<text text-anchor="start" x="215" y="-263.2" font-family="Helvetica,sans-Serif" font-size="11.00">varchar[100]</text>
<polygon fill="none" stroke="black" points="10,-233 10,-255 212,-255 212,-233 10,-233"/>
<text text-anchor="start" x="30" y="-241.2" font-family="Helvetica,sans-Serif" font-size="11.00">value_fr</text>
<polygon fill="none" stroke="black" points="212,-233 212,-255 290,-255 290,-233 212,-233"/>
<text text-anchor="start" x="215" y="-241.2" font-family="Helvetica,sans-Serif" font-size="11.00">varchar[100]</text>
<polygon fill="none" stroke="black" points="10,-211 10,-233 212,-233 212,-211 10,-211"/>
<text text-anchor="start" x="30" y="-219.2" font-family="Helvetica,sans-Serif" font-size="11.00">value_it</text>
<polygon fill="none" stroke="black" points="212,-211 212,-233 290,-233 290,-211 212,-211"/>
<text text-anchor="start" x="215" y="-219.2" font-family="Helvetica,sans-Serif" font-size="11.00">varchar[100]</text>
<polygon fill="none" stroke="black" points="10,-189 10,-211 212,-211 212,-189 10,-189"/>
<text text-anchor="start" x="30" y="-197.2" font-family="Helvetica,sans-Serif" font-size="11.00">value_ro</text>
<polygon fill="none" stroke="black" points="212,-189 212,-211 290,-211 290,-189 212,-189"/>
<text text-anchor="start" x="215" y="-197.2" font-family="Helvetica,sans-Serif" font-size="11.00">varchar[100]</text>
<polygon fill="none" stroke="black" points="10,-167 10,-189 212,-189 212,-167 10,-167"/>
<text text-anchor="start" x="30" y="-175.2" font-family="Helvetica,sans-Serif" font-size="11.00">abbr_en</text>
<polygon fill="none" stroke="black" points="212,-167 212,-189 290,-189 290,-167 212,-167"/>
<text text-anchor="start" x="215" y="-175.2" font-family="Helvetica,sans-Serif" font-size="11.00">varchar[3]</text>
<polygon fill="none" stroke="black" points="10,-145 10,-167 212,-167 212,-145 10,-145"/>
<text text-anchor="start" x="30" y="-153.2" font-family="Helvetica,sans-Serif" font-size="11.00">abbr_de</text>
<polygon fill="none" stroke="black" points="212,-145 212,-167 290,-167 290,-145 212,-145"/>
<text text-anchor="start" x="215" y="-153.2" font-family="Helvetica,sans-Serif" font-size="11.00">varchar[3]</text>
<polygon fill="none" stroke="black" points="10,-123 10,-145 212,-145 212,-123 10,-123"/>
<text text-anchor="start" x="30" y="-131.2" font-family="Helvetica,sans-Serif" font-size="11.00">abbr_fr</text>
<polygon fill="none" stroke="black" points="212,-123 212,-145 290,-145 290,-123 212,-123"/>
<text text-anchor="start" x="215" y="-131.2" font-family="Helvetica,sans-Serif" font-size="11.00">varchar[3]</text>
<polygon fill="none" stroke="black" points="10,-101 10,-123 212,-123 212,-101 10,-101"/>
<text text-anchor="start" x="30" y="-109.2" font-family="Helvetica,sans-Serif" font-size="11.00">abbr_it</text>
<polygon fill="none" stroke="black" points="212,-101 212,-123 290,-123 290,-101 212,-101"/>
<text text-anchor="start" x="215" y="-109.2" font-family="Helvetica,sans-Serif" font-size="11.00">varchar[3]</text>
<polygon fill="none" stroke="black" points="10,-79 10,-101 212,-101 212,-79 10,-79"/>
<text text-anchor="start" x="30" y="-87.2" font-family="Helvetica,sans-Serif" font-size="11.00">abbr_ro</text>
<polygon fill="none" stroke="black" points="212,-79 212,-101 290,-101 290,-79 212,-79"/>
<text text-anchor="start" x="215" y="-87.2" font-family="Helvetica,sans-Serif" font-size="11.00">varchar[3]</text>
<polygon fill="none" stroke="black" points="10,-57 10,-79 212,-79 212,-57 10,-57"/>
<text text-anchor="start" x="30" y="-65.2" font-family="Helvetica,sans-Serif" font-size="11.00">active</text>
<polygon fill="none" stroke="black" points="212,-57 212,-79 290,-79 290,-57 212,-57"/>
<text text-anchor="start" x="215" y="-65.2" font-family="Helvetica,sans-Serif" font-size="11.00">bool[1]</text>
<polygon fill="#ffffff" stroke="transparent" points="10,-39 10,-57 290,-57 290,-39 10,-39"/>
<polygon fill="none" stroke="black" points="10,-39 10,-57 290,-57 290,-39 10,-39"/>
<polygon fill="#ffffff" stroke="transparent" points="11,-40 11,-56 108,-56 108,-40 11,-40"/>
<text text-anchor="start" x="13" y="-45.2" font-family="Helvetica,sans-Serif" font-size="11.00">&lt; 0</text>
<polygon fill="#ffffff" stroke="transparent" points="108,-40 108,-56 193,-56 193,-40 108,-40"/>
<text text-anchor="start" x="146.5" y="-45.2" font-family="Helvetica,sans-Serif" font-size="11.00"> &#160;</text>
<polygon fill="#ffffff" stroke="transparent" points="193,-40 193,-56 289,-56 289,-40 193,-40"/>
<text text-anchor="start" x="267" y="-45.2" font-family="Helvetica,sans-Serif" font-size="11.00">1 &gt;</text>
<polygon fill="black" stroke="black" points="108,-40 108,-56 108,-56 108,-40 108,-40"/>
<polygon fill="black" stroke="black" points="193,-40 193,-56 193,-56 193,-40 193,-40"/>
<polygon fill="none" stroke="black" stroke-width="2" points="9,-38 9,-366 291,-366 291,-38 9,-38"/>
</a>
</g>
</g>
<!-- tww_od.manhole&#45;&gt;manhole_amphibian_exit -->
<g id="edge1" class="edge">
<title>tww_od.manhole:w&#45;&gt;manhole_amphibian_exit:e</title>
<path fill="none" stroke="black" d="M325.84,-332C314.41,-332 307.16,-332 291,-332"/>
<polygon fill="black" stroke="black" points="332.5,-332 340.5,-335.6 336.5,-332 340.5,-332 340.5,-332 340.5,-332 336.5,-332 340.5,-328.4 332.5,-332 332.5,-332"/>
<ellipse fill="none" stroke="black" cx="329.3" cy="-332" rx="3.2" ry="3.2"/>
</g>
</g>
</svg>
