<?xml version="1.0" encoding="UTF-8" standalone="no"?>
<!DOCTYPE svg PUBLIC "-//W3C//DTD SVG 1.1//EN"
 "http://www.w3.org/Graphics/SVG/1.1/DTD/svg11.dtd">
<!-- Generated by graphviz version 2.43.0 (0)
 -->
<!-- Title: oneDegreeRelationshipsDiagram Pages: 1 -->
<svg width="547pt" height="399pt"
 viewBox="0.00 0.00 547.00 399.00" xmlns="http://www.w3.org/2000/svg" xmlns:xlink="http://www.w3.org/1999/xlink">
<g id="graph0" class="graph" transform="scale(1 1) rotate(0) translate(4 395)">
<title>oneDegreeRelationshipsDiagram</title>
<polygon fill="#ffffff" stroke="transparent" points="-4,4 -4,-395 543,-395 543,4 -4,4"/>
<text text-anchor="middle" x="79.5" y="-7.2" font-family="Helvetica,sans-Serif" font-size="11.00">Generated by SchemaSpy</text>
<!-- tww_od.measure -->
<g id="node1" class="node">
<title>tww_od.measure</title>
<g id="a_node1"><a xlink:href="../../../tww_od/tables/measure.html" xlink:title="tww_od.measure" target="_top">
<polygon fill="#ffffff" stroke="transparent" points="284,-263 284,-387 531,-387 531,-263 284,-263"/>
<polygon fill="#f5f5f5" stroke="transparent" points="284.5,-365 284.5,-387 531.5,-387 531.5,-365 284.5,-365"/>
<polygon fill="none" stroke="black" points="284.5,-365 284.5,-387 531.5,-387 531.5,-365 284.5,-365"/>
<text text-anchor="start" x="289.5" y="-374.2" font-family="Helvetica,sans-Serif" font-weight="bold" font-size="11.00">tww_od.measure</text>
<text text-anchor="start" x="489.5" y="-373.2" font-family="Helvetica,sans-Serif" font-size="11.00">[table]</text>
<polygon fill="none" stroke="black" points="284.5,-343 284.5,-365 531.5,-365 531.5,-343 284.5,-343"/>
<image xlink:href="../../images/foreignKeys.png" width="11px" height="12px" preserveAspectRatio="xMinYMin meet" x="289.5" y="-360"/>
<text text-anchor="start" x="304.5" y="-351.2" font-family="Helvetica,sans-Serif" font-size="11.00">category</text>
<polygon fill="none" stroke="black" points="284.5,-321 284.5,-343 531.5,-343 531.5,-321 284.5,-321"/>
<image xlink:href="../../images/foreignKeys.png" width="11px" height="12px" preserveAspectRatio="xMinYMin meet" x="289.5" y="-338"/>
<text text-anchor="start" x="304.5" y="-329.2" font-family="Helvetica,sans-Serif" font-size="11.00">priority</text>
<polygon fill="none" stroke="black" points="284.5,-299 284.5,-321 531.5,-321 531.5,-299 284.5,-299"/>
<image xlink:href="../../images/foreignKeys.png" width="11px" height="12px" preserveAspectRatio="xMinYMin meet" x="289.5" y="-316"/>
<text text-anchor="start" x="304.5" y="-307.2" font-family="Helvetica,sans-Serif" font-size="11.00">status</text>
<polygon fill="none" stroke="black" points="284.5,-281 284.5,-299 531.5,-299 531.5,-281 284.5,-281"/>
<text text-anchor="start" x="287.5" y="-287.2" font-family="Helvetica,sans-Serif" font-size="11.00">...</text>
<polygon fill="#ffffff" stroke="transparent" points="284.5,-263 284.5,-281 531.5,-281 531.5,-263 284.5,-263"/>
<polygon fill="none" stroke="black" points="284.5,-263 284.5,-281 531.5,-281 531.5,-263 284.5,-263"/>
<polygon fill="#ffffff" stroke="transparent" points="285.5,-264 285.5,-280 365.5,-280 365.5,-264 285.5,-264"/>
<text text-anchor="start" x="287.5" y="-269.2" font-family="Helvetica,sans-Serif" font-size="11.00">&lt; 3</text>
<polygon fill="#ffffff" stroke="transparent" points="365.5,-264 365.5,-280 462.5,-280 462.5,-264 365.5,-264"/>
<text text-anchor="start" x="395.5" y="-269.2" font-family="Helvetica,sans-Serif" font-size="11.00">0 rows</text>
<polygon fill="#ffffff" stroke="transparent" points="462.5,-264 462.5,-280 530.5,-280 530.5,-264 462.5,-264"/>
<text text-anchor="start" x="520.5" y="-269.2" font-family="Helvetica,sans-Serif" font-size="11.00"> &#160;</text>
<polygon fill="black" stroke="black" points="365.5,-264 365.5,-280 365.5,-280 365.5,-264 365.5,-264"/>
<polygon fill="black" stroke="black" points="462.5,-264 462.5,-280 462.5,-280 462.5,-264 462.5,-264"/>
</a>
</g>
</g>
<!-- measure_priority -->
<g id="node2" class="node">
<title>measure_priority</title>
<g id="a_node2"><a xlink:href="../../tables/measure_priority.html" xlink:title="measure_priority" target="_top">
<polygon fill="#ffffff" stroke="transparent" points="8,-37 8,-367 235,-367 235,-37 8,-37"/>
<polygon fill="#f5f5f5" stroke="transparent" points="10.5,-343 10.5,-365 233.5,-365 233.5,-343 10.5,-343"/>
<polygon fill="none" stroke="black" points="10.5,-343 10.5,-365 233.5,-365 233.5,-343 10.5,-343"/>
<text text-anchor="start" x="15.5" y="-352.2" font-family="Helvetica,sans-Serif" font-weight="bold" font-size="11.00">measure_priority</text>
<text text-anchor="start" x="191.5" y="-351.2" font-family="Helvetica,sans-Serif" font-size="11.00">[table]</text>
<polygon fill="none" stroke="black" points="10.5,-321 10.5,-343 155.5,-343 155.5,-321 10.5,-321"/>
<image xlink:href="../../images/primaryKeys.png" width="11px" height="12px" preserveAspectRatio="xMinYMin meet" x="15.5" y="-338"/>
<text text-anchor="start" x="30.5" y="-329.2" font-family="Helvetica,sans-Serif" font-size="11.00">code</text>
<polygon fill="none" stroke="black" points="155.5,-321 155.5,-343 233.5,-343 233.5,-321 155.5,-321"/>
<text text-anchor="start" x="158.5" y="-329.2" font-family="Helvetica,sans-Serif" font-size="11.00">int4[10]</text>
<polygon fill="none" stroke="black" points="10.5,-299 10.5,-321 155.5,-321 155.5,-299 10.5,-299"/>
<text text-anchor="start" x="30.5" y="-307.2" font-family="Helvetica,sans-Serif" font-size="11.00">vsacode</text>
<polygon fill="none" stroke="black" points="155.5,-299 155.5,-321 233.5,-321 233.5,-299 155.5,-299"/>
<text text-anchor="start" x="158.5" y="-307.2" font-family="Helvetica,sans-Serif" font-size="11.00">int4[10]</text>
<polygon fill="none" stroke="black" points="10.5,-277 10.5,-299 155.5,-299 155.5,-277 10.5,-277"/>
<text text-anchor="start" x="30.5" y="-285.2" font-family="Helvetica,sans-Serif" font-size="11.00">value_en</text>
<polygon fill="none" stroke="black" points="155.5,-277 155.5,-299 233.5,-299 233.5,-277 155.5,-277"/>
<text text-anchor="start" x="158.5" y="-285.2" font-family="Helvetica,sans-Serif" font-size="11.00">varchar[100]</text>
<polygon fill="none" stroke="black" points="10.5,-255 10.5,-277 155.5,-277 155.5,-255 10.5,-255"/>
<text text-anchor="start" x="30.5" y="-263.2" font-family="Helvetica,sans-Serif" font-size="11.00">value_de</text>
<polygon fill="none" stroke="black" points="155.5,-255 155.5,-277 233.5,-277 233.5,-255 155.5,-255"/>
<text text-anchor="start" x="158.5" y="-263.2" font-family="Helvetica,sans-Serif" font-size="11.00">varchar[100]</text>
<polygon fill="none" stroke="black" points="10.5,-233 10.5,-255 155.5,-255 155.5,-233 10.5,-233"/>
<text text-anchor="start" x="30.5" y="-241.2" font-family="Helvetica,sans-Serif" font-size="11.00">value_fr</text>
<polygon fill="none" stroke="black" points="155.5,-233 155.5,-255 233.5,-255 233.5,-233 155.5,-233"/>
<text text-anchor="start" x="158.5" y="-241.2" font-family="Helvetica,sans-Serif" font-size="11.00">varchar[100]</text>
<polygon fill="none" stroke="black" points="10.5,-211 10.5,-233 155.5,-233 155.5,-211 10.5,-211"/>
<text text-anchor="start" x="30.5" y="-219.2" font-family="Helvetica,sans-Serif" font-size="11.00">value_it</text>
<polygon fill="none" stroke="black" points="155.5,-211 155.5,-233 233.5,-233 233.5,-211 155.5,-211"/>
<text text-anchor="start" x="158.5" y="-219.2" font-family="Helvetica,sans-Serif" font-size="11.00">varchar[100]</text>
<polygon fill="none" stroke="black" points="10.5,-189 10.5,-211 155.5,-211 155.5,-189 10.5,-189"/>
<text text-anchor="start" x="30.5" y="-197.2" font-family="Helvetica,sans-Serif" font-size="11.00">value_ro</text>
<polygon fill="none" stroke="black" points="155.5,-189 155.5,-211 233.5,-211 233.5,-189 155.5,-189"/>
<text text-anchor="start" x="158.5" y="-197.2" font-family="Helvetica,sans-Serif" font-size="11.00">varchar[100]</text>
<polygon fill="none" stroke="black" points="10.5,-167 10.5,-189 155.5,-189 155.5,-167 10.5,-167"/>
<text text-anchor="start" x="30.5" y="-175.2" font-family="Helvetica,sans-Serif" font-size="11.00">abbr_en</text>
<polygon fill="none" stroke="black" points="155.5,-167 155.5,-189 233.5,-189 233.5,-167 155.5,-167"/>
<text text-anchor="start" x="158.5" y="-175.2" font-family="Helvetica,sans-Serif" font-size="11.00">varchar[3]</text>
<polygon fill="none" stroke="black" points="10.5,-145 10.5,-167 155.5,-167 155.5,-145 10.5,-145"/>
<text text-anchor="start" x="30.5" y="-153.2" font-family="Helvetica,sans-Serif" font-size="11.00">abbr_de</text>
<polygon fill="none" stroke="black" points="155.5,-145 155.5,-167 233.5,-167 233.5,-145 155.5,-145"/>
<text text-anchor="start" x="158.5" y="-153.2" font-family="Helvetica,sans-Serif" font-size="11.00">varchar[3]</text>
<polygon fill="none" stroke="black" points="10.5,-123 10.5,-145 155.5,-145 155.5,-123 10.5,-123"/>
<text text-anchor="start" x="30.5" y="-131.2" font-family="Helvetica,sans-Serif" font-size="11.00">abbr_fr</text>
<polygon fill="none" stroke="black" points="155.5,-123 155.5,-145 233.5,-145 233.5,-123 155.5,-123"/>
<text text-anchor="start" x="158.5" y="-131.2" font-family="Helvetica,sans-Serif" font-size="11.00">varchar[3]</text>
<polygon fill="none" stroke="black" points="10.5,-101 10.5,-123 155.5,-123 155.5,-101 10.5,-101"/>
<text text-anchor="start" x="30.5" y="-109.2" font-family="Helvetica,sans-Serif" font-size="11.00">abbr_it</text>
<polygon fill="none" stroke="black" points="155.5,-101 155.5,-123 233.5,-123 233.5,-101 155.5,-101"/>
<text text-anchor="start" x="158.5" y="-109.2" font-family="Helvetica,sans-Serif" font-size="11.00">varchar[3]</text>
<polygon fill="none" stroke="black" points="10.5,-79 10.5,-101 155.5,-101 155.5,-79 10.5,-79"/>
<text text-anchor="start" x="30.5" y="-87.2" font-family="Helvetica,sans-Serif" font-size="11.00">abbr_ro</text>
<polygon fill="none" stroke="black" points="155.5,-79 155.5,-101 233.5,-101 233.5,-79 155.5,-79"/>
<text text-anchor="start" x="158.5" y="-87.2" font-family="Helvetica,sans-Serif" font-size="11.00">varchar[3]</text>
<polygon fill="none" stroke="black" points="10.5,-57 10.5,-79 155.5,-79 155.5,-57 10.5,-57"/>
<text text-anchor="start" x="30.5" y="-65.2" font-family="Helvetica,sans-Serif" font-size="11.00">active</text>
<polygon fill="none" stroke="black" points="155.5,-57 155.5,-79 233.5,-79 233.5,-57 155.5,-57"/>
<text text-anchor="start" x="158.5" y="-65.2" font-family="Helvetica,sans-Serif" font-size="11.00">bool[1]</text>
<polygon fill="#ffffff" stroke="transparent" points="10.5,-39 10.5,-57 233.5,-57 233.5,-39 10.5,-39"/>
<polygon fill="none" stroke="black" points="10.5,-39 10.5,-57 233.5,-57 233.5,-39 10.5,-39"/>
<polygon fill="#ffffff" stroke="transparent" points="11.5,-40 11.5,-56 89.5,-56 89.5,-40 11.5,-40"/>
<text text-anchor="start" x="13.5" y="-45.2" font-family="Helvetica,sans-Serif" font-size="11.00">&lt; 0</text>
<polygon fill="#ffffff" stroke="transparent" points="89.5,-40 89.5,-56 155.5,-56 155.5,-40 89.5,-40"/>
<text text-anchor="start" x="118.5" y="-45.2" font-family="Helvetica,sans-Serif" font-size="11.00"> &#160;</text>
<polygon fill="#ffffff" stroke="transparent" points="155.5,-40 155.5,-56 232.5,-56 232.5,-40 155.5,-40"/>
<text text-anchor="start" x="210.5" y="-45.2" font-family="Helvetica,sans-Serif" font-size="11.00">1 &gt;</text>
<polygon fill="black" stroke="black" points="89.5,-40 89.5,-56 89.5,-56 89.5,-40 89.5,-40"/>
<polygon fill="black" stroke="black" points="155.5,-40 155.5,-56 155.5,-56 155.5,-40 155.5,-40"/>
<polygon fill="none" stroke="black" stroke-width="2" points="9,-38 9,-366 234,-366 234,-38 9,-38"/>
</a>
</g>
</g>
<!-- tww_od.measure&#45;&gt;measure_priority -->
<g id="edge1" class="edge">
<title>tww_od.measure:w&#45;&gt;measure_priority:e</title>
<path fill="none" stroke="black" d="M268.99,-332C257.68,-332 250.49,-332 234.5,-332"/>
<polygon fill="black" stroke="black" points="275.5,-332 283.5,-335.6 279.5,-332 283.5,-332 283.5,-332 283.5,-332 279.5,-332 283.5,-328.4 275.5,-332 275.5,-332"/>
<ellipse fill="none" stroke="black" cx="272.3" cy="-332" rx="3.2" ry="3.2"/>
</g>
</g>
</svg>
