<?xml version="1.0" encoding="UTF-8" standalone="no"?>
<!DOCTYPE svg PUBLIC "-//W3C//DTD SVG 1.1//EN"
 "http://www.w3.org/Graphics/SVG/1.1/DTD/svg11.dtd">
<!-- Generated by graphviz version 2.43.0 (0)
 -->
<!-- Title: oneDegreeRelationshipsDiagram Pages: 1 -->
<svg width="623pt" height="379pt"
 viewBox="0.00 0.00 623.00 379.00" xmlns="http://www.w3.org/2000/svg" xmlns:xlink="http://www.w3.org/1999/xlink">
<g id="graph0" class="graph" transform="scale(1 1) rotate(0) translate(4 375)">
<title>oneDegreeRelationshipsDiagram</title>
<polygon fill="#ffffff" stroke="transparent" points="-4,4 -4,-375 619,-375 619,4 -4,4"/>
<text text-anchor="middle" x="79.5" y="-7.2" font-family="Helvetica,sans-Serif" font-size="11.00">Generated by SchemaSpy</text>
<!-- tww_od.measurement_series -->
<g id="node1" class="node">
<title>tww_od.measurement_series</title>
<g id="a_node1"><a xlink:href="../../../tww_od/tables/measurement_series.html" xlink:title="tww_od.measurement_series" target="_top">
<polygon fill="#ffffff" stroke="transparent" points="349,-285 349,-365 607,-365 607,-285 349,-285"/>
<polygon fill="#f5f5f5" stroke="transparent" points="349,-343 349,-365 607,-365 607,-343 349,-343"/>
<polygon fill="none" stroke="black" points="349,-343 349,-365 607,-365 607,-343 349,-343"/>
<text text-anchor="start" x="354" y="-352.2" font-family="Helvetica,sans-Serif" font-weight="bold" font-size="11.00">tww_od.measurement_series</text>
<text text-anchor="start" x="565" y="-351.2" font-family="Helvetica,sans-Serif" font-size="11.00">[table]</text>
<polygon fill="none" stroke="black" points="349,-321 349,-343 607,-343 607,-321 349,-321"/>
<image xlink:href="../../images/foreignKeys.png" width="11px" height="12px" preserveAspectRatio="xMinYMin meet" x="354" y="-338"/>
<text text-anchor="start" x="371" y="-329.2" font-family="Helvetica,sans-Serif" font-size="11.00">kind</text>
<polygon fill="none" stroke="black" points="349,-303 349,-321 607,-321 607,-303 349,-303"/>
<text text-anchor="start" x="352" y="-309.2" font-family="Helvetica,sans-Serif" font-size="11.00">...</text>
<polygon fill="#ffffff" stroke="transparent" points="349,-285 349,-303 607,-303 607,-285 349,-285"/>
<polygon fill="none" stroke="black" points="349,-285 349,-303 607,-303 607,-285 349,-285"/>
<polygon fill="#ffffff" stroke="transparent" points="350,-286 350,-302 434,-302 434,-286 350,-286"/>
<text text-anchor="start" x="352" y="-291.2" font-family="Helvetica,sans-Serif" font-size="11.00">&lt; 1</text>
<polygon fill="#ffffff" stroke="transparent" points="434,-286 434,-302 535,-302 535,-286 434,-286"/>
<text text-anchor="start" x="466" y="-291.2" font-family="Helvetica,sans-Serif" font-size="11.00">0 rows</text>
<polygon fill="#ffffff" stroke="transparent" points="535,-286 535,-302 606,-302 606,-286 535,-286"/>
<text text-anchor="start" x="596" y="-291.2" font-family="Helvetica,sans-Serif" font-size="11.00"> &#160;</text>
<polygon fill="black" stroke="black" points="434,-286 434,-302 434,-302 434,-286 434,-286"/>
<polygon fill="black" stroke="black" points="535,-286 535,-302 535,-302 535,-286 535,-286"/>
</a>
</g>
</g>
<!-- measurement_series_kind -->
<g id="node2" class="node">
<title>measurement_series_kind</title>
<g id="a_node2"><a xlink:href="../../tables/measurement_series_kind.html" xlink:title="measurement_series_kind" target="_top">
<polygon fill="#ffffff" stroke="transparent" points="8,-37 8,-367 300,-367 300,-37 8,-37"/>
<polygon fill="#f5f5f5" stroke="transparent" points="10,-343 10,-365 298,-365 298,-343 10,-343"/>
<polygon fill="none" stroke="black" points="10,-343 10,-365 298,-365 298,-343 10,-343"/>
<text text-anchor="start" x="15" y="-352.2" font-family="Helvetica,sans-Serif" font-weight="bold" font-size="11.00">measurement_series_kind</text>
<text text-anchor="start" x="256" y="-351.2" font-family="Helvetica,sans-Serif" font-size="11.00">[table]</text>
<polygon fill="none" stroke="black" points="10,-321 10,-343 220,-343 220,-321 10,-321"/>
<image xlink:href="../../images/primaryKeys.png" width="11px" height="12px" preserveAspectRatio="xMinYMin meet" x="15" y="-338"/>
<text text-anchor="start" x="30" y="-329.2" font-family="Helvetica,sans-Serif" font-size="11.00">code</text>
<polygon fill="none" stroke="black" points="220,-321 220,-343 298,-343 298,-321 220,-321"/>
<text text-anchor="start" x="223" y="-329.2" font-family="Helvetica,sans-Serif" font-size="11.00">int4[10]</text>
<polygon fill="none" stroke="black" points="10,-299 10,-321 220,-321 220,-299 10,-299"/>
<text text-anchor="start" x="30" y="-307.2" font-family="Helvetica,sans-Serif" font-size="11.00">vsacode</text>
<polygon fill="none" stroke="black" points="220,-299 220,-321 298,-321 298,-299 220,-299"/>
<text text-anchor="start" x="223" y="-307.2" font-family="Helvetica,sans-Serif" font-size="11.00">int4[10]</text>
<polygon fill="none" stroke="black" points="10,-277 10,-299 220,-299 220,-277 10,-277"/>
<text text-anchor="start" x="30" y="-285.2" font-family="Helvetica,sans-Serif" font-size="11.00">value_en</text>
<polygon fill="none" stroke="black" points="220,-277 220,-299 298,-299 298,-277 220,-277"/>
<text text-anchor="start" x="223" y="-285.2" font-family="Helvetica,sans-Serif" font-size="11.00">varchar[100]</text>
<polygon fill="none" stroke="black" points="10,-255 10,-277 220,-277 220,-255 10,-255"/>
<text text-anchor="start" x="30" y="-263.2" font-family="Helvetica,sans-Serif" font-size="11.00">value_de</text>
<polygon fill="none" stroke="black" points="220,-255 220,-277 298,-277 298,-255 220,-255"/>
<text text-anchor="start" x="223" y="-263.2" font-family="Helvetica,sans-Serif" font-size="11.00">varchar[100]</text>
<polygon fill="none" stroke="black" points="10,-233 10,-255 220,-255 220,-233 10,-233"/>
<text text-anchor="start" x="30" y="-241.2" font-family="Helvetica,sans-Serif" font-size="11.00">value_fr</text>
<polygon fill="none" stroke="black" points="220,-233 220,-255 298,-255 298,-233 220,-233"/>
<text text-anchor="start" x="223" y="-241.2" font-family="Helvetica,sans-Serif" font-size="11.00">varchar[100]</text>
<polygon fill="none" stroke="black" points="10,-211 10,-233 220,-233 220,-211 10,-211"/>
<text text-anchor="start" x="30" y="-219.2" font-family="Helvetica,sans-Serif" font-size="11.00">value_it</text>
<polygon fill="none" stroke="black" points="220,-211 220,-233 298,-233 298,-211 220,-211"/>
<text text-anchor="start" x="223" y="-219.2" font-family="Helvetica,sans-Serif" font-size="11.00">varchar[100]</text>
<polygon fill="none" stroke="black" points="10,-189 10,-211 220,-211 220,-189 10,-189"/>
<text text-anchor="start" x="30" y="-197.2" font-family="Helvetica,sans-Serif" font-size="11.00">value_ro</text>
<polygon fill="none" stroke="black" points="220,-189 220,-211 298,-211 298,-189 220,-189"/>
<text text-anchor="start" x="223" y="-197.2" font-family="Helvetica,sans-Serif" font-size="11.00">varchar[100]</text>
<polygon fill="none" stroke="black" points="10,-167 10,-189 220,-189 220,-167 10,-167"/>
<text text-anchor="start" x="30" y="-175.2" font-family="Helvetica,sans-Serif" font-size="11.00">abbr_en</text>
<polygon fill="none" stroke="black" points="220,-167 220,-189 298,-189 298,-167 220,-167"/>
<text text-anchor="start" x="223" y="-175.2" font-family="Helvetica,sans-Serif" font-size="11.00">varchar[3]</text>
<polygon fill="none" stroke="black" points="10,-145 10,-167 220,-167 220,-145 10,-145"/>
<text text-anchor="start" x="30" y="-153.2" font-family="Helvetica,sans-Serif" font-size="11.00">abbr_de</text>
<polygon fill="none" stroke="black" points="220,-145 220,-167 298,-167 298,-145 220,-145"/>
<text text-anchor="start" x="223" y="-153.2" font-family="Helvetica,sans-Serif" font-size="11.00">varchar[3]</text>
<polygon fill="none" stroke="black" points="10,-123 10,-145 220,-145 220,-123 10,-123"/>
<text text-anchor="start" x="30" y="-131.2" font-family="Helvetica,sans-Serif" font-size="11.00">abbr_fr</text>
<polygon fill="none" stroke="black" points="220,-123 220,-145 298,-145 298,-123 220,-123"/>
<text text-anchor="start" x="223" y="-131.2" font-family="Helvetica,sans-Serif" font-size="11.00">varchar[3]</text>
<polygon fill="none" stroke="black" points="10,-101 10,-123 220,-123 220,-101 10,-101"/>
<text text-anchor="start" x="30" y="-109.2" font-family="Helvetica,sans-Serif" font-size="11.00">abbr_it</text>
<polygon fill="none" stroke="black" points="220,-101 220,-123 298,-123 298,-101 220,-101"/>
<text text-anchor="start" x="223" y="-109.2" font-family="Helvetica,sans-Serif" font-size="11.00">varchar[3]</text>
<polygon fill="none" stroke="black" points="10,-79 10,-101 220,-101 220,-79 10,-79"/>
<text text-anchor="start" x="30" y="-87.2" font-family="Helvetica,sans-Serif" font-size="11.00">abbr_ro</text>
<polygon fill="none" stroke="black" points="220,-79 220,-101 298,-101 298,-79 220,-79"/>
<text text-anchor="start" x="223" y="-87.2" font-family="Helvetica,sans-Serif" font-size="11.00">varchar[3]</text>
<polygon fill="none" stroke="black" points="10,-57 10,-79 220,-79 220,-57 10,-57"/>
<text text-anchor="start" x="30" y="-65.2" font-family="Helvetica,sans-Serif" font-size="11.00">active</text>
<polygon fill="none" stroke="black" points="220,-57 220,-79 298,-79 298,-57 220,-57"/>
<text text-anchor="start" x="223" y="-65.2" font-family="Helvetica,sans-Serif" font-size="11.00">bool[1]</text>
<polygon fill="#ffffff" stroke="transparent" points="10,-39 10,-57 298,-57 298,-39 10,-39"/>
<polygon fill="none" stroke="black" points="10,-39 10,-57 298,-57 298,-39 10,-39"/>
<polygon fill="#ffffff" stroke="transparent" points="11,-40 11,-56 111,-56 111,-40 11,-40"/>
<text text-anchor="start" x="13" y="-45.2" font-family="Helvetica,sans-Serif" font-size="11.00">&lt; 0</text>
<polygon fill="#ffffff" stroke="transparent" points="111,-40 111,-56 198,-56 198,-40 111,-40"/>
<text text-anchor="start" x="150.5" y="-45.2" font-family="Helvetica,sans-Serif" font-size="11.00"> &#160;</text>
<polygon fill="#ffffff" stroke="transparent" points="198,-40 198,-56 297,-56 297,-40 198,-40"/>
<text text-anchor="start" x="275" y="-45.2" font-family="Helvetica,sans-Serif" font-size="11.00">1 &gt;</text>
<polygon fill="black" stroke="black" points="111,-40 111,-56 111,-56 111,-40 111,-40"/>
<polygon fill="black" stroke="black" points="198,-40 198,-56 198,-56 198,-40 198,-40"/>
<polygon fill="none" stroke="black" stroke-width="2" points="9,-38 9,-366 299,-366 299,-38 9,-38"/>
</a>
</g>
</g>
<!-- tww_od.measurement_series&#45;&gt;measurement_series_kind -->
<g id="edge1" class="edge">
<title>tww_od.measurement_series:w&#45;&gt;measurement_series_kind:e</title>
<path fill="none" stroke="black" d="M333.49,-332C322.18,-332 314.99,-332 299,-332"/>
<polygon fill="black" stroke="black" points="340,-332 348,-335.6 344,-332 348,-332 348,-332 348,-332 344,-332 348,-328.4 340,-332 340,-332"/>
<ellipse fill="none" stroke="black" cx="336.8" cy="-332" rx="3.2" ry="3.2"/>
</g>
</g>
</svg>
