<?xml version="1.0" encoding="UTF-8" standalone="no"?>
<!DOCTYPE svg PUBLIC "-//W3C//DTD SVG 1.1//EN"
 "http://www.w3.org/Graphics/SVG/1.1/DTD/svg11.dtd">
<!-- Generated by graphviz version 2.47.1 (20210515.0534)
 -->
<!-- Title: oneDegreeRelationshipsDiagram Pages: 1 -->
<svg width="477pt" height="399pt"
 viewBox="0.00 0.00 477.00 399.00" xmlns="http://www.w3.org/2000/svg" xmlns:xlink="http://www.w3.org/1999/xlink">
<g id="graph0" class="graph" transform="scale(1 1) rotate(0) translate(4 395)">
<title>oneDegreeRelationshipsDiagram</title>
<polygon fill="#ffffff" stroke="transparent" points="-4,4 -4,-395 473,-395 473,4 -4,4"/>
<text text-anchor="middle" x="73.5" y="-7.2" font-family="Helvetica,sans-Serif" font-size="11.00">Generated by SchemaSpy</text>
<!-- tww_od.measure -->
<g id="node1" class="node">
<title>tww_od.measure</title>
<g id="a_node1"><a xlink:href="../../../tww_od/tables/measure.html" xlink:title="tww_od.measure" target="_top">
<polygon fill="#ffffff" stroke="transparent" points="254,-263 254,-387 461,-387 461,-263 254,-263"/>
<polygon fill="#f5f5f5" stroke="transparent" points="254.5,-365 254.5,-387 461.5,-387 461.5,-365 254.5,-365"/>
<polygon fill="none" stroke="black" points="254.5,-365 254.5,-387 461.5,-387 461.5,-365 254.5,-365"/>
<text text-anchor="start" x="259.5" y="-374.2" font-family="Helvetica,sans-Serif" font-weight="bold" font-size="11.00">tww_od.measure</text>
<text text-anchor="start" x="422.5" y="-373.2" font-family="Helvetica,sans-Serif" font-size="11.00">[table]</text>
<polygon fill="none" stroke="black" points="254.5,-343 254.5,-365 461.5,-365 461.5,-343 254.5,-343"/>
<image xlink:href="../../images/foreignKeys.png" width="11px" height="12px" preserveAspectRatio="xMinYMin meet" x="259.5" y="-360"/>
<text text-anchor="start" x="274.5" y="-351.2" font-family="Helvetica,sans-Serif" font-size="11.00">category</text>
<polygon fill="none" stroke="black" points="254.5,-321 254.5,-343 461.5,-343 461.5,-321 254.5,-321"/>
<image xlink:href="../../images/foreignKeys.png" width="11px" height="12px" preserveAspectRatio="xMinYMin meet" x="259.5" y="-338"/>
<text text-anchor="start" x="274.5" y="-329.2" font-family="Helvetica,sans-Serif" font-size="11.00">priority</text>
<polygon fill="none" stroke="black" points="254.5,-299 254.5,-321 461.5,-321 461.5,-299 254.5,-299"/>
<image xlink:href="../../images/foreignKeys.png" width="11px" height="12px" preserveAspectRatio="xMinYMin meet" x="259.5" y="-316"/>
<text text-anchor="start" x="274.5" y="-307.2" font-family="Helvetica,sans-Serif" font-size="11.00">status</text>
<polygon fill="none" stroke="black" points="254.5,-281 254.5,-299 461.5,-299 461.5,-281 254.5,-281"/>
<text text-anchor="start" x="257.5" y="-287.2" font-family="Helvetica,sans-Serif" font-size="11.00">...</text>
<polygon fill="#ffffff" stroke="transparent" points="254.5,-263 254.5,-281 342.5,-281 342.5,-263 254.5,-263"/>
<polygon fill="none" stroke="black" points="254.5,-263 254.5,-281 342.5,-281 342.5,-263 254.5,-263"/>
<text text-anchor="start" x="257.5" y="-269.2" font-family="Helvetica,sans-Serif" font-size="11.00">&lt; 3</text>
<polygon fill="#ffffff" stroke="transparent" points="342.5,-263 342.5,-281 415.5,-281 415.5,-263 342.5,-263"/>
<polygon fill="none" stroke="black" points="342.5,-263 342.5,-281 415.5,-281 415.5,-263 342.5,-263"/>
<text text-anchor="start" x="378.5" y="-269.2" font-family="Helvetica,sans-Serif" font-size="11.00">0 rows</text>
<polygon fill="#ffffff" stroke="transparent" points="415.5,-263 415.5,-281 461.5,-281 461.5,-263 415.5,-263"/>
<polygon fill="none" stroke="black" points="415.5,-263 415.5,-281 461.5,-281 461.5,-263 415.5,-263"/>
<text text-anchor="start" x="451.5" y="-269.2" font-family="Helvetica,sans-Serif" font-size="11.00"> &#160;</text>
</a>
</g>
</g>
<!-- measure_priority -->
<g id="node2" class="node">
<title>measure_priority</title>
<g id="a_node2"><a xlink:href="../../tables/measure_priority.html" xlink:title="measure_priority" target="_top">
<polygon fill="#ffffff" stroke="transparent" points="8,-37 8,-367 205,-367 205,-37 8,-37"/>
<polygon fill="#f5f5f5" stroke="transparent" points="10.5,-343 10.5,-365 203.5,-365 203.5,-343 10.5,-343"/>
<polygon fill="none" stroke="black" points="10.5,-343 10.5,-365 203.5,-365 203.5,-343 10.5,-343"/>
<text text-anchor="start" x="15.5" y="-352.2" font-family="Helvetica,sans-Serif" font-weight="bold" font-size="11.00">measure_priority</text>
<text text-anchor="start" x="164.5" y="-351.2" font-family="Helvetica,sans-Serif" font-size="11.00">[table]</text>
<polygon fill="none" stroke="black" points="10.5,-321 10.5,-343 133.5,-343 133.5,-321 10.5,-321"/>
<image xlink:href="../../images/primaryKeys.png" width="11px" height="12px" preserveAspectRatio="xMinYMin meet" x="15.5" y="-338"/>
<text text-anchor="start" x="30.5" y="-329.2" font-family="Helvetica,sans-Serif" font-size="11.00">code</text>
<polygon fill="none" stroke="black" points="133.5,-321 133.5,-343 203.5,-343 203.5,-321 133.5,-321"/>
<text text-anchor="start" x="136.5" y="-329.2" font-family="Helvetica,sans-Serif" font-size="11.00">int4[10]</text>
<polygon fill="none" stroke="black" points="10.5,-299 10.5,-321 133.5,-321 133.5,-299 10.5,-299"/>
<text text-anchor="start" x="30.5" y="-307.2" font-family="Helvetica,sans-Serif" font-size="11.00">vsacode</text>
<polygon fill="none" stroke="black" points="133.5,-299 133.5,-321 203.5,-321 203.5,-299 133.5,-299"/>
<text text-anchor="start" x="136.5" y="-307.2" font-family="Helvetica,sans-Serif" font-size="11.00">int4[10]</text>
<polygon fill="none" stroke="black" points="10.5,-277 10.5,-299 133.5,-299 133.5,-277 10.5,-277"/>
<text text-anchor="start" x="30.5" y="-285.2" font-family="Helvetica,sans-Serif" font-size="11.00">value_en</text>
<polygon fill="none" stroke="black" points="133.5,-277 133.5,-299 203.5,-299 203.5,-277 133.5,-277"/>
<text text-anchor="start" x="136.5" y="-285.2" font-family="Helvetica,sans-Serif" font-size="11.00">varchar[100]</text>
<polygon fill="none" stroke="black" points="10.5,-255 10.5,-277 133.5,-277 133.5,-255 10.5,-255"/>
<text text-anchor="start" x="30.5" y="-263.2" font-family="Helvetica,sans-Serif" font-size="11.00">value_de</text>
<polygon fill="none" stroke="black" points="133.5,-255 133.5,-277 203.5,-277 203.5,-255 133.5,-255"/>
<text text-anchor="start" x="136.5" y="-263.2" font-family="Helvetica,sans-Serif" font-size="11.00">varchar[100]</text>
<polygon fill="none" stroke="black" points="10.5,-233 10.5,-255 133.5,-255 133.5,-233 10.5,-233"/>
<text text-anchor="start" x="30.5" y="-241.2" font-family="Helvetica,sans-Serif" font-size="11.00">value_fr</text>
<polygon fill="none" stroke="black" points="133.5,-233 133.5,-255 203.5,-255 203.5,-233 133.5,-233"/>
<text text-anchor="start" x="136.5" y="-241.2" font-family="Helvetica,sans-Serif" font-size="11.00">varchar[100]</text>
<polygon fill="none" stroke="black" points="10.5,-211 10.5,-233 133.5,-233 133.5,-211 10.5,-211"/>
<text text-anchor="start" x="30.5" y="-219.2" font-family="Helvetica,sans-Serif" font-size="11.00">value_it</text>
<polygon fill="none" stroke="black" points="133.5,-211 133.5,-233 203.5,-233 203.5,-211 133.5,-211"/>
<text text-anchor="start" x="136.5" y="-219.2" font-family="Helvetica,sans-Serif" font-size="11.00">varchar[100]</text>
<polygon fill="none" stroke="black" points="10.5,-189 10.5,-211 133.5,-211 133.5,-189 10.5,-189"/>
<text text-anchor="start" x="30.5" y="-197.2" font-family="Helvetica,sans-Serif" font-size="11.00">value_ro</text>
<polygon fill="none" stroke="black" points="133.5,-189 133.5,-211 203.5,-211 203.5,-189 133.5,-189"/>
<text text-anchor="start" x="136.5" y="-197.2" font-family="Helvetica,sans-Serif" font-size="11.00">varchar[100]</text>
<polygon fill="none" stroke="black" points="10.5,-167 10.5,-189 133.5,-189 133.5,-167 10.5,-167"/>
<text text-anchor="start" x="30.5" y="-175.2" font-family="Helvetica,sans-Serif" font-size="11.00">abbr_en</text>
<polygon fill="none" stroke="black" points="133.5,-167 133.5,-189 203.5,-189 203.5,-167 133.5,-167"/>
<text text-anchor="start" x="136.5" y="-175.2" font-family="Helvetica,sans-Serif" font-size="11.00">varchar[3]</text>
<polygon fill="none" stroke="black" points="10.5,-145 10.5,-167 133.5,-167 133.5,-145 10.5,-145"/>
<text text-anchor="start" x="30.5" y="-153.2" font-family="Helvetica,sans-Serif" font-size="11.00">abbr_de</text>
<polygon fill="none" stroke="black" points="133.5,-145 133.5,-167 203.5,-167 203.5,-145 133.5,-145"/>
<text text-anchor="start" x="136.5" y="-153.2" font-family="Helvetica,sans-Serif" font-size="11.00">varchar[3]</text>
<polygon fill="none" stroke="black" points="10.5,-123 10.5,-145 133.5,-145 133.5,-123 10.5,-123"/>
<text text-anchor="start" x="30.5" y="-131.2" font-family="Helvetica,sans-Serif" font-size="11.00">abbr_fr</text>
<polygon fill="none" stroke="black" points="133.5,-123 133.5,-145 203.5,-145 203.5,-123 133.5,-123"/>
<text text-anchor="start" x="136.5" y="-131.2" font-family="Helvetica,sans-Serif" font-size="11.00">varchar[3]</text>
<polygon fill="none" stroke="black" points="10.5,-101 10.5,-123 133.5,-123 133.5,-101 10.5,-101"/>
<text text-anchor="start" x="30.5" y="-109.2" font-family="Helvetica,sans-Serif" font-size="11.00">abbr_it</text>
<polygon fill="none" stroke="black" points="133.5,-101 133.5,-123 203.5,-123 203.5,-101 133.5,-101"/>
<text text-anchor="start" x="136.5" y="-109.2" font-family="Helvetica,sans-Serif" font-size="11.00">varchar[3]</text>
<polygon fill="none" stroke="black" points="10.5,-79 10.5,-101 133.5,-101 133.5,-79 10.5,-79"/>
<text text-anchor="start" x="30.5" y="-87.2" font-family="Helvetica,sans-Serif" font-size="11.00">abbr_ro</text>
<polygon fill="none" stroke="black" points="133.5,-79 133.5,-101 203.5,-101 203.5,-79 133.5,-79"/>
<text text-anchor="start" x="136.5" y="-87.2" font-family="Helvetica,sans-Serif" font-size="11.00">varchar[3]</text>
<polygon fill="none" stroke="black" points="10.5,-57 10.5,-79 133.5,-79 133.5,-57 10.5,-57"/>
<text text-anchor="start" x="30.5" y="-65.2" font-family="Helvetica,sans-Serif" font-size="11.00">active</text>
<polygon fill="none" stroke="black" points="133.5,-57 133.5,-79 203.5,-79 203.5,-57 133.5,-57"/>
<text text-anchor="start" x="136.5" y="-65.2" font-family="Helvetica,sans-Serif" font-size="11.00">bool[1]</text>
<polygon fill="#ffffff" stroke="transparent" points="10.5,-39 10.5,-57 76.5,-57 76.5,-39 10.5,-39"/>
<polygon fill="none" stroke="black" points="10.5,-39 10.5,-57 76.5,-57 76.5,-39 10.5,-39"/>
<text text-anchor="start" x="13.5" y="-45.2" font-family="Helvetica,sans-Serif" font-size="11.00">&lt; 0</text>
<polygon fill="#ffffff" stroke="transparent" points="76.5,-39 76.5,-57 133.5,-57 133.5,-39 76.5,-39"/>
<polygon fill="none" stroke="black" points="76.5,-39 76.5,-57 133.5,-57 133.5,-39 76.5,-39"/>
<text text-anchor="start" x="123.5" y="-45.2" font-family="Helvetica,sans-Serif" font-size="11.00"> &#160;</text>
<polygon fill="#ffffff" stroke="transparent" points="133.5,-39 133.5,-57 203.5,-57 203.5,-39 133.5,-39"/>
<polygon fill="none" stroke="black" points="133.5,-39 133.5,-57 203.5,-57 203.5,-39 133.5,-39"/>
<text text-anchor="start" x="184.5" y="-45.2" font-family="Helvetica,sans-Serif" font-size="11.00">1 &gt;</text>
<polygon fill="none" stroke="black" stroke-width="2" points="9,-38 9,-366 204,-366 204,-38 9,-38"/>
</a>
</g>
</g>
<!-- tww_od.measure&#45;&gt;measure_priority -->
<g id="edge1" class="edge">
<title>tww_od.measure:w&#45;&gt;measure_priority:e</title>
<path fill="none" stroke="black" d="M238.99,-332C227.68,-332 220.49,-332 204.5,-332"/>
<polygon fill="black" stroke="black" points="245.5,-332 253.5,-335.6 249.5,-332 253.5,-332 253.5,-332 253.5,-332 249.5,-332 253.5,-328.4 245.5,-332 245.5,-332"/>
<ellipse fill="none" stroke="black" cx="242.3" cy="-332" rx="3.2" ry="3.2"/>
</g>
</g>
</svg>
