<?xml version="1.0" encoding="UTF-8" standalone="no"?>
<!DOCTYPE svg PUBLIC "-//W3C//DTD SVG 1.1//EN"
 "http://www.w3.org/Graphics/SVG/1.1/DTD/svg11.dtd">
<!-- Generated by graphviz version 2.47.1 (20210515.0534)
 -->
<!-- Title: oneDegreeRelationshipsDiagram Pages: 1 -->
<svg width="454pt" height="399pt"
 viewBox="0.00 0.00 454.00 399.00" xmlns="http://www.w3.org/2000/svg" xmlns:xlink="http://www.w3.org/1999/xlink">
<g id="graph0" class="graph" transform="scale(1 1) rotate(0) translate(4 395)">
<title>oneDegreeRelationshipsDiagram</title>
<polygon fill="#ffffff" stroke="transparent" points="-4,4 -4,-395 450,-395 450,4 -4,4"/>
<text text-anchor="middle" x="73.5" y="-7.2" font-family="Helvetica,sans-Serif" font-size="11.00">Generated by SchemaSpy</text>
<!-- tww_od.organisation -->
<g id="node1" class="node">
<title>tww_od.organisation</title>
<g id="a_node1"><a xlink:href="../../../tww_od/tables/organisation.html" xlink:title="tww_od.organisation" target="_top">
<polygon fill="#ffffff" stroke="transparent" points="270,-285 270,-387 438,-387 438,-285 270,-285"/>
<polygon fill="#f5f5f5" stroke="transparent" points="270,-365 270,-387 438,-387 438,-365 270,-365"/>
<polygon fill="none" stroke="black" points="270,-365 270,-387 438,-387 438,-365 270,-365"/>
<text text-anchor="start" x="275" y="-374.2" font-family="Helvetica,sans-Serif" font-weight="bold" font-size="11.00">tww_od.organisation</text>
<text text-anchor="start" x="399" y="-373.2" font-family="Helvetica,sans-Serif" font-size="11.00">[table]</text>
<polygon fill="none" stroke="black" points="270,-343 270,-365 438,-365 438,-343 270,-343"/>
<image xlink:href="../../images/foreignKeys.png" width="11px" height="12px" preserveAspectRatio="xMinYMin meet" x="275" y="-360"/>
<text text-anchor="start" x="300" y="-351.2" font-family="Helvetica,sans-Serif" font-size="11.00">organisation_type</text>
<polygon fill="none" stroke="black" points="270,-321 270,-343 438,-343 438,-321 270,-321"/>
<image xlink:href="../../images/foreignKeys.png" width="11px" height="12px" preserveAspectRatio="xMinYMin meet" x="275" y="-338"/>
<text text-anchor="start" x="300" y="-329.2" font-family="Helvetica,sans-Serif" font-size="11.00">status</text>
<polygon fill="none" stroke="black" points="270,-303 270,-321 438,-321 438,-303 270,-303"/>
<text text-anchor="start" x="273" y="-309.2" font-family="Helvetica,sans-Serif" font-size="11.00">...</text>
<polygon fill="#ffffff" stroke="transparent" points="270,-285 270,-303 338,-303 338,-285 270,-285"/>
<polygon fill="none" stroke="black" points="270,-285 270,-303 338,-303 338,-285 270,-285"/>
<text text-anchor="start" x="273" y="-291.2" font-family="Helvetica,sans-Serif" font-size="11.00">&lt; 2</text>
<polygon fill="#ffffff" stroke="transparent" points="338,-285 338,-303 401,-303 401,-285 338,-285"/>
<polygon fill="none" stroke="black" points="338,-285 338,-303 401,-303 401,-285 338,-285"/>
<text text-anchor="start" x="364" y="-291.2" font-family="Helvetica,sans-Serif" font-size="11.00">0 rows</text>
<polygon fill="#ffffff" stroke="transparent" points="401,-285 401,-303 438,-303 438,-285 401,-285"/>
<polygon fill="none" stroke="black" points="401,-285 401,-303 438,-303 438,-285 401,-285"/>
<text text-anchor="start" x="428" y="-291.2" font-family="Helvetica,sans-Serif" font-size="11.00"> &#160;</text>
</a>
</g>
</g>
<!-- organisation_status -->
<g id="node2" class="node">
<title>organisation_status</title>
<g id="a_node2"><a xlink:href="../../tables/organisation_status.html" xlink:title="organisation_status" target="_top">
<polygon fill="#ffffff" stroke="transparent" points="8,-37 8,-367 221,-367 221,-37 8,-37"/>
<polygon fill="#f5f5f5" stroke="transparent" points="10.5,-343 10.5,-365 219.5,-365 219.5,-343 10.5,-343"/>
<polygon fill="none" stroke="black" points="10.5,-343 10.5,-365 219.5,-365 219.5,-343 10.5,-343"/>
<text text-anchor="start" x="15.5" y="-352.2" font-family="Helvetica,sans-Serif" font-weight="bold" font-size="11.00">organisation_status</text>
<text text-anchor="start" x="180.5" y="-351.2" font-family="Helvetica,sans-Serif" font-size="11.00">[table]</text>
<polygon fill="none" stroke="black" points="10.5,-321 10.5,-343 149.5,-343 149.5,-321 10.5,-321"/>
<image xlink:href="../../images/primaryKeys.png" width="11px" height="12px" preserveAspectRatio="xMinYMin meet" x="15.5" y="-338"/>
<text text-anchor="start" x="30.5" y="-329.2" font-family="Helvetica,sans-Serif" font-size="11.00">code</text>
<polygon fill="none" stroke="black" points="149.5,-321 149.5,-343 219.5,-343 219.5,-321 149.5,-321"/>
<text text-anchor="start" x="152.5" y="-329.2" font-family="Helvetica,sans-Serif" font-size="11.00">int4[10]</text>
<polygon fill="none" stroke="black" points="10.5,-299 10.5,-321 149.5,-321 149.5,-299 10.5,-299"/>
<text text-anchor="start" x="30.5" y="-307.2" font-family="Helvetica,sans-Serif" font-size="11.00">vsacode</text>
<polygon fill="none" stroke="black" points="149.5,-299 149.5,-321 219.5,-321 219.5,-299 149.5,-299"/>
<text text-anchor="start" x="152.5" y="-307.2" font-family="Helvetica,sans-Serif" font-size="11.00">int4[10]</text>
<polygon fill="none" stroke="black" points="10.5,-277 10.5,-299 149.5,-299 149.5,-277 10.5,-277"/>
<text text-anchor="start" x="30.5" y="-285.2" font-family="Helvetica,sans-Serif" font-size="11.00">value_en</text>
<polygon fill="none" stroke="black" points="149.5,-277 149.5,-299 219.5,-299 219.5,-277 149.5,-277"/>
<text text-anchor="start" x="152.5" y="-285.2" font-family="Helvetica,sans-Serif" font-size="11.00">varchar[100]</text>
<polygon fill="none" stroke="black" points="10.5,-255 10.5,-277 149.5,-277 149.5,-255 10.5,-255"/>
<text text-anchor="start" x="30.5" y="-263.2" font-family="Helvetica,sans-Serif" font-size="11.00">value_de</text>
<polygon fill="none" stroke="black" points="149.5,-255 149.5,-277 219.5,-277 219.5,-255 149.5,-255"/>
<text text-anchor="start" x="152.5" y="-263.2" font-family="Helvetica,sans-Serif" font-size="11.00">varchar[100]</text>
<polygon fill="none" stroke="black" points="10.5,-233 10.5,-255 149.5,-255 149.5,-233 10.5,-233"/>
<text text-anchor="start" x="30.5" y="-241.2" font-family="Helvetica,sans-Serif" font-size="11.00">value_fr</text>
<polygon fill="none" stroke="black" points="149.5,-233 149.5,-255 219.5,-255 219.5,-233 149.5,-233"/>
<text text-anchor="start" x="152.5" y="-241.2" font-family="Helvetica,sans-Serif" font-size="11.00">varchar[100]</text>
<polygon fill="none" stroke="black" points="10.5,-211 10.5,-233 149.5,-233 149.5,-211 10.5,-211"/>
<text text-anchor="start" x="30.5" y="-219.2" font-family="Helvetica,sans-Serif" font-size="11.00">value_it</text>
<polygon fill="none" stroke="black" points="149.5,-211 149.5,-233 219.5,-233 219.5,-211 149.5,-211"/>
<text text-anchor="start" x="152.5" y="-219.2" font-family="Helvetica,sans-Serif" font-size="11.00">varchar[100]</text>
<polygon fill="none" stroke="black" points="10.5,-189 10.5,-211 149.5,-211 149.5,-189 10.5,-189"/>
<text text-anchor="start" x="30.5" y="-197.2" font-family="Helvetica,sans-Serif" font-size="11.00">value_ro</text>
<polygon fill="none" stroke="black" points="149.5,-189 149.5,-211 219.5,-211 219.5,-189 149.5,-189"/>
<text text-anchor="start" x="152.5" y="-197.2" font-family="Helvetica,sans-Serif" font-size="11.00">varchar[100]</text>
<polygon fill="none" stroke="black" points="10.5,-167 10.5,-189 149.5,-189 149.5,-167 10.5,-167"/>
<text text-anchor="start" x="30.5" y="-175.2" font-family="Helvetica,sans-Serif" font-size="11.00">abbr_en</text>
<polygon fill="none" stroke="black" points="149.5,-167 149.5,-189 219.5,-189 219.5,-167 149.5,-167"/>
<text text-anchor="start" x="152.5" y="-175.2" font-family="Helvetica,sans-Serif" font-size="11.00">varchar[3]</text>
<polygon fill="none" stroke="black" points="10.5,-145 10.5,-167 149.5,-167 149.5,-145 10.5,-145"/>
<text text-anchor="start" x="30.5" y="-153.2" font-family="Helvetica,sans-Serif" font-size="11.00">abbr_de</text>
<polygon fill="none" stroke="black" points="149.5,-145 149.5,-167 219.5,-167 219.5,-145 149.5,-145"/>
<text text-anchor="start" x="152.5" y="-153.2" font-family="Helvetica,sans-Serif" font-size="11.00">varchar[3]</text>
<polygon fill="none" stroke="black" points="10.5,-123 10.5,-145 149.5,-145 149.5,-123 10.5,-123"/>
<text text-anchor="start" x="30.5" y="-131.2" font-family="Helvetica,sans-Serif" font-size="11.00">abbr_fr</text>
<polygon fill="none" stroke="black" points="149.5,-123 149.5,-145 219.5,-145 219.5,-123 149.5,-123"/>
<text text-anchor="start" x="152.5" y="-131.2" font-family="Helvetica,sans-Serif" font-size="11.00">varchar[3]</text>
<polygon fill="none" stroke="black" points="10.5,-101 10.5,-123 149.5,-123 149.5,-101 10.5,-101"/>
<text text-anchor="start" x="30.5" y="-109.2" font-family="Helvetica,sans-Serif" font-size="11.00">abbr_it</text>
<polygon fill="none" stroke="black" points="149.5,-101 149.5,-123 219.5,-123 219.5,-101 149.5,-101"/>
<text text-anchor="start" x="152.5" y="-109.2" font-family="Helvetica,sans-Serif" font-size="11.00">varchar[3]</text>
<polygon fill="none" stroke="black" points="10.5,-79 10.5,-101 149.5,-101 149.5,-79 10.5,-79"/>
<text text-anchor="start" x="30.5" y="-87.2" font-family="Helvetica,sans-Serif" font-size="11.00">abbr_ro</text>
<polygon fill="none" stroke="black" points="149.5,-79 149.5,-101 219.5,-101 219.5,-79 149.5,-79"/>
<text text-anchor="start" x="152.5" y="-87.2" font-family="Helvetica,sans-Serif" font-size="11.00">varchar[3]</text>
<polygon fill="none" stroke="black" points="10.5,-57 10.5,-79 149.5,-79 149.5,-57 10.5,-57"/>
<text text-anchor="start" x="30.5" y="-65.2" font-family="Helvetica,sans-Serif" font-size="11.00">active</text>
<polygon fill="none" stroke="black" points="149.5,-57 149.5,-79 219.5,-79 219.5,-57 149.5,-57"/>
<text text-anchor="start" x="152.5" y="-65.2" font-family="Helvetica,sans-Serif" font-size="11.00">bool[1]</text>
<polygon fill="#ffffff" stroke="transparent" points="10.5,-39 10.5,-57 84.5,-57 84.5,-39 10.5,-39"/>
<polygon fill="none" stroke="black" points="10.5,-39 10.5,-57 84.5,-57 84.5,-39 10.5,-39"/>
<text text-anchor="start" x="13.5" y="-45.2" font-family="Helvetica,sans-Serif" font-size="11.00">&lt; 0</text>
<polygon fill="#ffffff" stroke="transparent" points="84.5,-39 84.5,-57 149.5,-57 149.5,-39 84.5,-39"/>
<polygon fill="none" stroke="black" points="84.5,-39 84.5,-57 149.5,-57 149.5,-39 84.5,-39"/>
<text text-anchor="start" x="139.5" y="-45.2" font-family="Helvetica,sans-Serif" font-size="11.00"> &#160;</text>
<polygon fill="#ffffff" stroke="transparent" points="149.5,-39 149.5,-57 219.5,-57 219.5,-39 149.5,-39"/>
<polygon fill="none" stroke="black" points="149.5,-39 149.5,-57 219.5,-57 219.5,-39 149.5,-39"/>
<text text-anchor="start" x="200.5" y="-45.2" font-family="Helvetica,sans-Serif" font-size="11.00">1 &gt;</text>
<polygon fill="none" stroke="black" stroke-width="2" points="9,-38 9,-366 220,-366 220,-38 9,-38"/>
</a>
</g>
</g>
<!-- tww_od.organisation&#45;&gt;organisation_status -->
<g id="edge1" class="edge">
<title>tww_od.organisation:w&#45;&gt;organisation_status:e</title>
<path fill="none" stroke="black" d="M254.28,-332C243.29,-332 236.16,-332 220.5,-332"/>
<polygon fill="black" stroke="black" points="261,-332 269,-335.6 265,-332 269,-332 269,-332 269,-332 265,-332 269,-328.4 261,-332 261,-332"/>
<ellipse fill="none" stroke="black" cx="257.8" cy="-332" rx="3.2" ry="3.2"/>
</g>
</g>
</svg>
