<?xml version="1.0" encoding="UTF-8" standalone="no"?>
<!DOCTYPE svg PUBLIC "-//W3C//DTD SVG 1.1//EN"
 "http://www.w3.org/Graphics/SVG/1.1/DTD/svg11.dtd">
<!-- Generated by graphviz version 2.43.0 (0)
 -->
<!-- Title: oneDegreeRelationshipsDiagram Pages: 1 -->
<svg width="545pt" height="399pt"
 viewBox="0.00 0.00 545.00 399.00" xmlns="http://www.w3.org/2000/svg" xmlns:xlink="http://www.w3.org/1999/xlink">
<g id="graph0" class="graph" transform="scale(1 1) rotate(0) translate(4 395)">
<title>oneDegreeRelationshipsDiagram</title>
<polygon fill="#ffffff" stroke="transparent" points="-4,4 -4,-395 541,-395 541,4 -4,4"/>
<text text-anchor="middle" x="79.5" y="-7.2" font-family="Helvetica,sans-Serif" font-size="11.00">Generated by SchemaSpy</text>
<!-- tww_od.prank_weir -->
<g id="node1" class="node">
<title>tww_od.prank_weir</title>
<g id="a_node1"><a xlink:href="../../../tww_od/tables/prank_weir.html" xlink:title="tww_od.prank_weir" target="_top">
<polygon fill="#ffffff" stroke="transparent" points="316,-285 316,-387 529,-387 529,-285 316,-285"/>
<polygon fill="#f5f5f5" stroke="transparent" points="316.5,-365 316.5,-387 529.5,-387 529.5,-365 316.5,-365"/>
<polygon fill="none" stroke="black" points="316.5,-365 316.5,-387 529.5,-387 529.5,-365 316.5,-365"/>
<text text-anchor="start" x="321.5" y="-374.2" font-family="Helvetica,sans-Serif" font-weight="bold" font-size="11.00">tww_od.prank_weir</text>
<text text-anchor="start" x="487.5" y="-373.2" font-family="Helvetica,sans-Serif" font-size="11.00">[table]</text>
<polygon fill="none" stroke="black" points="316.5,-343 316.5,-365 529.5,-365 529.5,-343 316.5,-343"/>
<image xlink:href="../../images/foreignKeys.png" width="11px" height="12px" preserveAspectRatio="xMinYMin meet" x="321.5" y="-360"/>
<text text-anchor="start" x="336.5" y="-351.2" font-family="Helvetica,sans-Serif" font-size="11.00">weir_edge</text>
<polygon fill="none" stroke="black" points="316.5,-321 316.5,-343 529.5,-343 529.5,-321 316.5,-321"/>
<image xlink:href="../../images/foreignKeys.png" width="11px" height="12px" preserveAspectRatio="xMinYMin meet" x="321.5" y="-338"/>
<text text-anchor="start" x="336.5" y="-329.2" font-family="Helvetica,sans-Serif" font-size="11.00">weir_kind</text>
<polygon fill="none" stroke="black" points="316.5,-303 316.5,-321 529.5,-321 529.5,-303 316.5,-303"/>
<text text-anchor="start" x="319.5" y="-309.2" font-family="Helvetica,sans-Serif" font-size="11.00">...</text>
<polygon fill="#ffffff" stroke="transparent" points="316.5,-285 316.5,-303 529.5,-303 529.5,-285 316.5,-285"/>
<polygon fill="none" stroke="black" points="316.5,-285 316.5,-303 529.5,-303 529.5,-285 316.5,-285"/>
<polygon fill="#ffffff" stroke="transparent" points="317.5,-286 317.5,-302 386.5,-302 386.5,-286 317.5,-286"/>
<text text-anchor="start" x="319.5" y="-291.2" font-family="Helvetica,sans-Serif" font-size="11.00">&lt; 2</text>
<polygon fill="#ffffff" stroke="transparent" points="386.5,-286 386.5,-302 472.5,-302 472.5,-286 386.5,-286"/>
<text text-anchor="start" x="411" y="-291.2" font-family="Helvetica,sans-Serif" font-size="11.00">0 rows</text>
<polygon fill="#ffffff" stroke="transparent" points="472.5,-286 472.5,-302 528.5,-302 528.5,-286 472.5,-286"/>
<text text-anchor="start" x="518.5" y="-291.2" font-family="Helvetica,sans-Serif" font-size="11.00"> &#160;</text>
<polygon fill="black" stroke="black" points="386.5,-286 386.5,-302 386.5,-302 386.5,-286 386.5,-286"/>
<polygon fill="black" stroke="black" points="472.5,-286 472.5,-302 472.5,-302 472.5,-286 472.5,-286"/>
</a>
</g>
</g>
<!-- prank_weir_weir_kind -->
<g id="node2" class="node">
<title>prank_weir_weir_kind</title>
<g id="a_node2"><a xlink:href="../../tables/prank_weir_weir_kind.html" xlink:title="prank_weir_weir_kind" target="_top">
<polygon fill="#ffffff" stroke="transparent" points="8,-37 8,-367 267,-367 267,-37 8,-37"/>
<polygon fill="#f5f5f5" stroke="transparent" points="10.5,-343 10.5,-365 265.5,-365 265.5,-343 10.5,-343"/>
<polygon fill="none" stroke="black" points="10.5,-343 10.5,-365 265.5,-365 265.5,-343 10.5,-343"/>
<text text-anchor="start" x="15.5" y="-352.2" font-family="Helvetica,sans-Serif" font-weight="bold" font-size="11.00">prank_weir_weir_kind</text>
<text text-anchor="start" x="223.5" y="-351.2" font-family="Helvetica,sans-Serif" font-size="11.00">[table]</text>
<polygon fill="none" stroke="black" points="10.5,-321 10.5,-343 187.5,-343 187.5,-321 10.5,-321"/>
<image xlink:href="../../images/primaryKeys.png" width="11px" height="12px" preserveAspectRatio="xMinYMin meet" x="15.5" y="-338"/>
<text text-anchor="start" x="30.5" y="-329.2" font-family="Helvetica,sans-Serif" font-size="11.00">code</text>
<polygon fill="none" stroke="black" points="187.5,-321 187.5,-343 265.5,-343 265.5,-321 187.5,-321"/>
<text text-anchor="start" x="190.5" y="-329.2" font-family="Helvetica,sans-Serif" font-size="11.00">int4[10]</text>
<polygon fill="none" stroke="black" points="10.5,-299 10.5,-321 187.5,-321 187.5,-299 10.5,-299"/>
<text text-anchor="start" x="30.5" y="-307.2" font-family="Helvetica,sans-Serif" font-size="11.00">vsacode</text>
<polygon fill="none" stroke="black" points="187.5,-299 187.5,-321 265.5,-321 265.5,-299 187.5,-299"/>
<text text-anchor="start" x="190.5" y="-307.2" font-family="Helvetica,sans-Serif" font-size="11.00">int4[10]</text>
<polygon fill="none" stroke="black" points="10.5,-277 10.5,-299 187.5,-299 187.5,-277 10.5,-277"/>
<text text-anchor="start" x="30.5" y="-285.2" font-family="Helvetica,sans-Serif" font-size="11.00">value_en</text>
<polygon fill="none" stroke="black" points="187.5,-277 187.5,-299 265.5,-299 265.5,-277 187.5,-277"/>
<text text-anchor="start" x="190.5" y="-285.2" font-family="Helvetica,sans-Serif" font-size="11.00">varchar[100]</text>
<polygon fill="none" stroke="black" points="10.5,-255 10.5,-277 187.5,-277 187.5,-255 10.5,-255"/>
<text text-anchor="start" x="30.5" y="-263.2" font-family="Helvetica,sans-Serif" font-size="11.00">value_de</text>
<polygon fill="none" stroke="black" points="187.5,-255 187.5,-277 265.5,-277 265.5,-255 187.5,-255"/>
<text text-anchor="start" x="190.5" y="-263.2" font-family="Helvetica,sans-Serif" font-size="11.00">varchar[100]</text>
<polygon fill="none" stroke="black" points="10.5,-233 10.5,-255 187.5,-255 187.5,-233 10.5,-233"/>
<text text-anchor="start" x="30.5" y="-241.2" font-family="Helvetica,sans-Serif" font-size="11.00">value_fr</text>
<polygon fill="none" stroke="black" points="187.5,-233 187.5,-255 265.5,-255 265.5,-233 187.5,-233"/>
<text text-anchor="start" x="190.5" y="-241.2" font-family="Helvetica,sans-Serif" font-size="11.00">varchar[100]</text>
<polygon fill="none" stroke="black" points="10.5,-211 10.5,-233 187.5,-233 187.5,-211 10.5,-211"/>
<text text-anchor="start" x="30.5" y="-219.2" font-family="Helvetica,sans-Serif" font-size="11.00">value_it</text>
<polygon fill="none" stroke="black" points="187.5,-211 187.5,-233 265.5,-233 265.5,-211 187.5,-211"/>
<text text-anchor="start" x="190.5" y="-219.2" font-family="Helvetica,sans-Serif" font-size="11.00">varchar[100]</text>
<polygon fill="none" stroke="black" points="10.5,-189 10.5,-211 187.5,-211 187.5,-189 10.5,-189"/>
<text text-anchor="start" x="30.5" y="-197.2" font-family="Helvetica,sans-Serif" font-size="11.00">value_ro</text>
<polygon fill="none" stroke="black" points="187.5,-189 187.5,-211 265.5,-211 265.5,-189 187.5,-189"/>
<text text-anchor="start" x="190.5" y="-197.2" font-family="Helvetica,sans-Serif" font-size="11.00">varchar[100]</text>
<polygon fill="none" stroke="black" points="10.5,-167 10.5,-189 187.5,-189 187.5,-167 10.5,-167"/>
<text text-anchor="start" x="30.5" y="-175.2" font-family="Helvetica,sans-Serif" font-size="11.00">abbr_en</text>
<polygon fill="none" stroke="black" points="187.5,-167 187.5,-189 265.5,-189 265.5,-167 187.5,-167"/>
<text text-anchor="start" x="190.5" y="-175.2" font-family="Helvetica,sans-Serif" font-size="11.00">varchar[3]</text>
<polygon fill="none" stroke="black" points="10.5,-145 10.5,-167 187.5,-167 187.5,-145 10.5,-145"/>
<text text-anchor="start" x="30.5" y="-153.2" font-family="Helvetica,sans-Serif" font-size="11.00">abbr_de</text>
<polygon fill="none" stroke="black" points="187.5,-145 187.5,-167 265.5,-167 265.5,-145 187.5,-145"/>
<text text-anchor="start" x="190.5" y="-153.2" font-family="Helvetica,sans-Serif" font-size="11.00">varchar[3]</text>
<polygon fill="none" stroke="black" points="10.5,-123 10.5,-145 187.5,-145 187.5,-123 10.5,-123"/>
<text text-anchor="start" x="30.5" y="-131.2" font-family="Helvetica,sans-Serif" font-size="11.00">abbr_fr</text>
<polygon fill="none" stroke="black" points="187.5,-123 187.5,-145 265.5,-145 265.5,-123 187.5,-123"/>
<text text-anchor="start" x="190.5" y="-131.2" font-family="Helvetica,sans-Serif" font-size="11.00">varchar[3]</text>
<polygon fill="none" stroke="black" points="10.5,-101 10.5,-123 187.5,-123 187.5,-101 10.5,-101"/>
<text text-anchor="start" x="30.5" y="-109.2" font-family="Helvetica,sans-Serif" font-size="11.00">abbr_it</text>
<polygon fill="none" stroke="black" points="187.5,-101 187.5,-123 265.5,-123 265.5,-101 187.5,-101"/>
<text text-anchor="start" x="190.5" y="-109.2" font-family="Helvetica,sans-Serif" font-size="11.00">varchar[3]</text>
<polygon fill="none" stroke="black" points="10.5,-79 10.5,-101 187.5,-101 187.5,-79 10.5,-79"/>
<text text-anchor="start" x="30.5" y="-87.2" font-family="Helvetica,sans-Serif" font-size="11.00">abbr_ro</text>
<polygon fill="none" stroke="black" points="187.5,-79 187.5,-101 265.5,-101 265.5,-79 187.5,-79"/>
<text text-anchor="start" x="190.5" y="-87.2" font-family="Helvetica,sans-Serif" font-size="11.00">varchar[3]</text>
<polygon fill="none" stroke="black" points="10.5,-57 10.5,-79 187.5,-79 187.5,-57 10.5,-57"/>
<text text-anchor="start" x="30.5" y="-65.2" font-family="Helvetica,sans-Serif" font-size="11.00">active</text>
<polygon fill="none" stroke="black" points="187.5,-57 187.5,-79 265.5,-79 265.5,-57 187.5,-57"/>
<text text-anchor="start" x="190.5" y="-65.2" font-family="Helvetica,sans-Serif" font-size="11.00">bool[1]</text>
<polygon fill="#ffffff" stroke="transparent" points="10.5,-39 10.5,-57 265.5,-57 265.5,-39 10.5,-39"/>
<polygon fill="none" stroke="black" points="10.5,-39 10.5,-57 265.5,-57 265.5,-39 10.5,-39"/>
<polygon fill="#ffffff" stroke="transparent" points="11.5,-40 11.5,-56 100.5,-56 100.5,-40 11.5,-40"/>
<text text-anchor="start" x="13.5" y="-45.2" font-family="Helvetica,sans-Serif" font-size="11.00">&lt; 0</text>
<polygon fill="#ffffff" stroke="transparent" points="100.5,-40 100.5,-56 176.5,-56 176.5,-40 100.5,-40"/>
<text text-anchor="start" x="134.5" y="-45.2" font-family="Helvetica,sans-Serif" font-size="11.00"> &#160;</text>
<polygon fill="#ffffff" stroke="transparent" points="176.5,-40 176.5,-56 264.5,-56 264.5,-40 176.5,-40"/>
<text text-anchor="start" x="242.5" y="-45.2" font-family="Helvetica,sans-Serif" font-size="11.00">1 &gt;</text>
<polygon fill="black" stroke="black" points="100.5,-40 100.5,-56 100.5,-56 100.5,-40 100.5,-40"/>
<polygon fill="black" stroke="black" points="176.5,-40 176.5,-56 176.5,-56 176.5,-40 176.5,-40"/>
<polygon fill="none" stroke="black" stroke-width="2" points="9,-38 9,-366 266,-366 266,-38 9,-38"/>
</a>
</g>
</g>
<!-- tww_od.prank_weir&#45;&gt;prank_weir_weir_kind -->
<g id="edge1" class="edge">
<title>tww_od.prank_weir:w&#45;&gt;prank_weir_weir_kind:e</title>
<path fill="none" stroke="black" d="M300.99,-332C289.68,-332 282.49,-332 266.5,-332"/>
<polygon fill="black" stroke="black" points="307.5,-332 315.5,-335.6 311.5,-332 315.5,-332 315.5,-332 315.5,-332 311.5,-332 315.5,-328.4 307.5,-332 307.5,-332"/>
<ellipse fill="none" stroke="black" cx="304.3" cy="-332" rx="3.2" ry="3.2"/>
</g>
</g>
</svg>
