<?xml version="1.0" encoding="UTF-8" standalone="no"?>
<!DOCTYPE svg PUBLIC "-//W3C//DTD SVG 1.1//EN"
 "http://www.w3.org/Graphics/SVG/1.1/DTD/svg11.dtd">
<!-- Generated by graphviz version 2.47.1 (20210515.0534)
 -->
<!-- Title: oneDegreeRelationshipsDiagram Pages: 1 -->
<svg width="583pt" height="399pt"
 viewBox="0.00 0.00 583.00 399.00" xmlns="http://www.w3.org/2000/svg" xmlns:xlink="http://www.w3.org/1999/xlink">
<g id="graph0" class="graph" transform="scale(1 1) rotate(0) translate(4 395)">
<title>oneDegreeRelationshipsDiagram</title>
<polygon fill="#ffffff" stroke="transparent" points="-4,4 -4,-395 579,-395 579,4 -4,4"/>
<text text-anchor="middle" x="73.5" y="-7.2" font-family="Helvetica,sans-Serif" font-size="11.00">Generated by SchemaSpy</text>
<!-- tww_od.reach -->
<g id="node1" class="node">
<title>tww_od.reach</title>
<g id="a_node1"><a xlink:href="../../../tww_od/tables/reach.html" xlink:title="tww_od.reach" target="_top">
<polygon fill="#ffffff" stroke="transparent" points="324,-153 324,-387 567,-387 567,-153 324,-153"/>
<polygon fill="#f5f5f5" stroke="transparent" points="324.5,-365 324.5,-387 567.5,-387 567.5,-365 324.5,-365"/>
<polygon fill="none" stroke="black" points="324.5,-365 324.5,-387 567.5,-387 567.5,-365 324.5,-365"/>
<text text-anchor="start" x="329.5" y="-374.2" font-family="Helvetica,sans-Serif" font-weight="bold" font-size="11.00">tww_od.reach</text>
<text text-anchor="start" x="528.5" y="-373.2" font-family="Helvetica,sans-Serif" font-size="11.00">[table]</text>
<polygon fill="none" stroke="black" points="324.5,-343 324.5,-365 567.5,-365 567.5,-343 324.5,-343"/>
<image xlink:href="../../images/foreignKeys.png" width="11px" height="12px" preserveAspectRatio="xMinYMin meet" x="329.5" y="-360"/>
<text text-anchor="start" x="344.5" y="-351.2" font-family="Helvetica,sans-Serif" font-size="11.00">elevation_determination</text>
<polygon fill="none" stroke="black" points="324.5,-321 324.5,-343 567.5,-343 567.5,-321 324.5,-321"/>
<image xlink:href="../../images/foreignKeys.png" width="11px" height="12px" preserveAspectRatio="xMinYMin meet" x="329.5" y="-338"/>
<text text-anchor="start" x="344.5" y="-329.2" font-family="Helvetica,sans-Serif" font-size="11.00">horizontal_positioning</text>
<polygon fill="none" stroke="black" points="324.5,-299 324.5,-321 567.5,-321 567.5,-299 324.5,-299"/>
<image xlink:href="../../images/foreignKeys.png" width="11px" height="12px" preserveAspectRatio="xMinYMin meet" x="329.5" y="-316"/>
<text text-anchor="start" x="344.5" y="-307.2" font-family="Helvetica,sans-Serif" font-size="11.00">inside_coating</text>
<polygon fill="none" stroke="black" points="324.5,-277 324.5,-299 567.5,-299 567.5,-277 324.5,-277"/>
<image xlink:href="../../images/foreignKeys.png" width="11px" height="12px" preserveAspectRatio="xMinYMin meet" x="329.5" y="-294"/>
<text text-anchor="start" x="344.5" y="-285.2" font-family="Helvetica,sans-Serif" font-size="11.00">leak_protection</text>
<polygon fill="none" stroke="black" points="324.5,-255 324.5,-277 567.5,-277 567.5,-255 324.5,-255"/>
<image xlink:href="../../images/foreignKeys.png" width="11px" height="12px" preserveAspectRatio="xMinYMin meet" x="329.5" y="-272"/>
<text text-anchor="start" x="344.5" y="-263.2" font-family="Helvetica,sans-Serif" font-size="11.00">material</text>
<polygon fill="none" stroke="black" points="324.5,-233 324.5,-255 567.5,-255 567.5,-233 324.5,-233"/>
<image xlink:href="../../images/foreignKeys.png" width="11px" height="12px" preserveAspectRatio="xMinYMin meet" x="329.5" y="-250"/>
<text text-anchor="start" x="344.5" y="-241.2" font-family="Helvetica,sans-Serif" font-size="11.00">reliner_material</text>
<polygon fill="none" stroke="black" points="324.5,-211 324.5,-233 567.5,-233 567.5,-211 324.5,-211"/>
<image xlink:href="../../images/foreignKeys.png" width="11px" height="12px" preserveAspectRatio="xMinYMin meet" x="329.5" y="-228"/>
<text text-anchor="start" x="344.5" y="-219.2" font-family="Helvetica,sans-Serif" font-size="11.00">relining_construction</text>
<polygon fill="none" stroke="black" points="324.5,-189 324.5,-211 567.5,-211 567.5,-189 324.5,-189"/>
<image xlink:href="../../images/foreignKeys.png" width="11px" height="12px" preserveAspectRatio="xMinYMin meet" x="329.5" y="-206"/>
<text text-anchor="start" x="344.5" y="-197.2" font-family="Helvetica,sans-Serif" font-size="11.00">relining_kind</text>
<polygon fill="none" stroke="black" points="324.5,-171 324.5,-189 567.5,-189 567.5,-171 324.5,-171"/>
<text text-anchor="start" x="327.5" y="-177.2" font-family="Helvetica,sans-Serif" font-size="11.00">...</text>
<polygon fill="#ffffff" stroke="transparent" points="324.5,-153 324.5,-171 430.5,-171 430.5,-153 324.5,-153"/>
<polygon fill="none" stroke="black" points="324.5,-153 324.5,-171 430.5,-171 430.5,-153 324.5,-153"/>
<text text-anchor="start" x="327.5" y="-159.2" font-family="Helvetica,sans-Serif" font-size="11.00">&lt; 8</text>
<polygon fill="#ffffff" stroke="transparent" points="430.5,-153 430.5,-171 512.5,-171 512.5,-153 430.5,-153"/>
<polygon fill="none" stroke="black" points="430.5,-153 430.5,-171 512.5,-171 512.5,-153 430.5,-153"/>
<text text-anchor="start" x="475.5" y="-159.2" font-family="Helvetica,sans-Serif" font-size="11.00">0 rows</text>
<polygon fill="#ffffff" stroke="transparent" points="512.5,-153 512.5,-171 567.5,-171 567.5,-153 512.5,-153"/>
<polygon fill="none" stroke="black" points="512.5,-153 512.5,-171 567.5,-171 567.5,-153 512.5,-153"/>
<text text-anchor="start" x="557.5" y="-159.2" font-family="Helvetica,sans-Serif" font-size="11.00"> &#160;</text>
</a>
</g>
</g>
<!-- reach_horizontal_positioning -->
<g id="node2" class="node">
<title>reach_horizontal_positioning</title>
<g id="a_node2"><a xlink:href="../../tables/reach_horizontal_positioning.html" xlink:title="reach_horizontal_positioning" target="_top">
<polygon fill="#ffffff" stroke="transparent" points="8,-37 8,-367 275,-367 275,-37 8,-37"/>
<polygon fill="#f5f5f5" stroke="transparent" points="10.5,-343 10.5,-365 273.5,-365 273.5,-343 10.5,-343"/>
<polygon fill="none" stroke="black" points="10.5,-343 10.5,-365 273.5,-365 273.5,-343 10.5,-343"/>
<text text-anchor="start" x="15.5" y="-352.2" font-family="Helvetica,sans-Serif" font-weight="bold" font-size="11.00">reach_horizontal_positioning</text>
<text text-anchor="start" x="234.5" y="-351.2" font-family="Helvetica,sans-Serif" font-size="11.00">[table]</text>
<polygon fill="none" stroke="black" points="10.5,-321 10.5,-343 203.5,-343 203.5,-321 10.5,-321"/>
<image xlink:href="../../images/primaryKeys.png" width="11px" height="12px" preserveAspectRatio="xMinYMin meet" x="15.5" y="-338"/>
<text text-anchor="start" x="30.5" y="-329.2" font-family="Helvetica,sans-Serif" font-size="11.00">code</text>
<polygon fill="none" stroke="black" points="203.5,-321 203.5,-343 273.5,-343 273.5,-321 203.5,-321"/>
<text text-anchor="start" x="206.5" y="-329.2" font-family="Helvetica,sans-Serif" font-size="11.00">int4[10]</text>
<polygon fill="none" stroke="black" points="10.5,-299 10.5,-321 203.5,-321 203.5,-299 10.5,-299"/>
<text text-anchor="start" x="30.5" y="-307.2" font-family="Helvetica,sans-Serif" font-size="11.00">vsacode</text>
<polygon fill="none" stroke="black" points="203.5,-299 203.5,-321 273.5,-321 273.5,-299 203.5,-299"/>
<text text-anchor="start" x="206.5" y="-307.2" font-family="Helvetica,sans-Serif" font-size="11.00">int4[10]</text>
<polygon fill="none" stroke="black" points="10.5,-277 10.5,-299 203.5,-299 203.5,-277 10.5,-277"/>
<text text-anchor="start" x="30.5" y="-285.2" font-family="Helvetica,sans-Serif" font-size="11.00">value_en</text>
<polygon fill="none" stroke="black" points="203.5,-277 203.5,-299 273.5,-299 273.5,-277 203.5,-277"/>
<text text-anchor="start" x="206.5" y="-285.2" font-family="Helvetica,sans-Serif" font-size="11.00">varchar[100]</text>
<polygon fill="none" stroke="black" points="10.5,-255 10.5,-277 203.5,-277 203.5,-255 10.5,-255"/>
<text text-anchor="start" x="30.5" y="-263.2" font-family="Helvetica,sans-Serif" font-size="11.00">value_de</text>
<polygon fill="none" stroke="black" points="203.5,-255 203.5,-277 273.5,-277 273.5,-255 203.5,-255"/>
<text text-anchor="start" x="206.5" y="-263.2" font-family="Helvetica,sans-Serif" font-size="11.00">varchar[100]</text>
<polygon fill="none" stroke="black" points="10.5,-233 10.5,-255 203.5,-255 203.5,-233 10.5,-233"/>
<text text-anchor="start" x="30.5" y="-241.2" font-family="Helvetica,sans-Serif" font-size="11.00">value_fr</text>
<polygon fill="none" stroke="black" points="203.5,-233 203.5,-255 273.5,-255 273.5,-233 203.5,-233"/>
<text text-anchor="start" x="206.5" y="-241.2" font-family="Helvetica,sans-Serif" font-size="11.00">varchar[100]</text>
<polygon fill="none" stroke="black" points="10.5,-211 10.5,-233 203.5,-233 203.5,-211 10.5,-211"/>
<text text-anchor="start" x="30.5" y="-219.2" font-family="Helvetica,sans-Serif" font-size="11.00">value_it</text>
<polygon fill="none" stroke="black" points="203.5,-211 203.5,-233 273.5,-233 273.5,-211 203.5,-211"/>
<text text-anchor="start" x="206.5" y="-219.2" font-family="Helvetica,sans-Serif" font-size="11.00">varchar[100]</text>
<polygon fill="none" stroke="black" points="10.5,-189 10.5,-211 203.5,-211 203.5,-189 10.5,-189"/>
<text text-anchor="start" x="30.5" y="-197.2" font-family="Helvetica,sans-Serif" font-size="11.00">value_ro</text>
<polygon fill="none" stroke="black" points="203.5,-189 203.5,-211 273.5,-211 273.5,-189 203.5,-189"/>
<text text-anchor="start" x="206.5" y="-197.2" font-family="Helvetica,sans-Serif" font-size="11.00">varchar[100]</text>
<polygon fill="none" stroke="black" points="10.5,-167 10.5,-189 203.5,-189 203.5,-167 10.5,-167"/>
<text text-anchor="start" x="30.5" y="-175.2" font-family="Helvetica,sans-Serif" font-size="11.00">abbr_en</text>
<polygon fill="none" stroke="black" points="203.5,-167 203.5,-189 273.5,-189 273.5,-167 203.5,-167"/>
<text text-anchor="start" x="206.5" y="-175.2" font-family="Helvetica,sans-Serif" font-size="11.00">varchar[3]</text>
<polygon fill="none" stroke="black" points="10.5,-145 10.5,-167 203.5,-167 203.5,-145 10.5,-145"/>
<text text-anchor="start" x="30.5" y="-153.2" font-family="Helvetica,sans-Serif" font-size="11.00">abbr_de</text>
<polygon fill="none" stroke="black" points="203.5,-145 203.5,-167 273.5,-167 273.5,-145 203.5,-145"/>
<text text-anchor="start" x="206.5" y="-153.2" font-family="Helvetica,sans-Serif" font-size="11.00">varchar[3]</text>
<polygon fill="none" stroke="black" points="10.5,-123 10.5,-145 203.5,-145 203.5,-123 10.5,-123"/>
<text text-anchor="start" x="30.5" y="-131.2" font-family="Helvetica,sans-Serif" font-size="11.00">abbr_fr</text>
<polygon fill="none" stroke="black" points="203.5,-123 203.5,-145 273.5,-145 273.5,-123 203.5,-123"/>
<text text-anchor="start" x="206.5" y="-131.2" font-family="Helvetica,sans-Serif" font-size="11.00">varchar[3]</text>
<polygon fill="none" stroke="black" points="10.5,-101 10.5,-123 203.5,-123 203.5,-101 10.5,-101"/>
<text text-anchor="start" x="30.5" y="-109.2" font-family="Helvetica,sans-Serif" font-size="11.00">abbr_it</text>
<polygon fill="none" stroke="black" points="203.5,-101 203.5,-123 273.5,-123 273.5,-101 203.5,-101"/>
<text text-anchor="start" x="206.5" y="-109.2" font-family="Helvetica,sans-Serif" font-size="11.00">varchar[3]</text>
<polygon fill="none" stroke="black" points="10.5,-79 10.5,-101 203.5,-101 203.5,-79 10.5,-79"/>
<text text-anchor="start" x="30.5" y="-87.2" font-family="Helvetica,sans-Serif" font-size="11.00">abbr_ro</text>
<polygon fill="none" stroke="black" points="203.5,-79 203.5,-101 273.5,-101 273.5,-79 203.5,-79"/>
<text text-anchor="start" x="206.5" y="-87.2" font-family="Helvetica,sans-Serif" font-size="11.00">varchar[3]</text>
<polygon fill="none" stroke="black" points="10.5,-57 10.5,-79 203.5,-79 203.5,-57 10.5,-57"/>
<text text-anchor="start" x="30.5" y="-65.2" font-family="Helvetica,sans-Serif" font-size="11.00">active</text>
<polygon fill="none" stroke="black" points="203.5,-57 203.5,-79 273.5,-79 273.5,-57 203.5,-57"/>
<text text-anchor="start" x="206.5" y="-65.2" font-family="Helvetica,sans-Serif" font-size="11.00">bool[1]</text>
<polygon fill="#ffffff" stroke="transparent" points="10.5,-39 10.5,-57 111.5,-57 111.5,-39 10.5,-39"/>
<polygon fill="none" stroke="black" points="10.5,-39 10.5,-57 111.5,-57 111.5,-39 10.5,-39"/>
<text text-anchor="start" x="13.5" y="-45.2" font-family="Helvetica,sans-Serif" font-size="11.00">&lt; 0</text>
<polygon fill="#ffffff" stroke="transparent" points="111.5,-39 111.5,-57 203.5,-57 203.5,-39 111.5,-39"/>
<polygon fill="none" stroke="black" points="111.5,-39 111.5,-57 203.5,-57 203.5,-39 111.5,-39"/>
<text text-anchor="start" x="193.5" y="-45.2" font-family="Helvetica,sans-Serif" font-size="11.00"> &#160;</text>
<polygon fill="#ffffff" stroke="transparent" points="203.5,-39 203.5,-57 273.5,-57 273.5,-39 203.5,-39"/>
<polygon fill="none" stroke="black" points="203.5,-39 203.5,-57 273.5,-57 273.5,-39 203.5,-39"/>
<text text-anchor="start" x="254.5" y="-45.2" font-family="Helvetica,sans-Serif" font-size="11.00">1 &gt;</text>
<polygon fill="none" stroke="black" stroke-width="2" points="9,-38 9,-366 274,-366 274,-38 9,-38"/>
</a>
</g>
</g>
<!-- tww_od.reach&#45;&gt;reach_horizontal_positioning -->
<g id="edge1" class="edge">
<title>tww_od.reach:w&#45;&gt;reach_horizontal_positioning:e</title>
<path fill="none" stroke="black" d="M308.99,-332C297.68,-332 290.49,-332 274.5,-332"/>
<polygon fill="black" stroke="black" points="315.5,-332 323.5,-335.6 319.5,-332 323.5,-332 323.5,-332 323.5,-332 319.5,-332 323.5,-328.4 315.5,-332 315.5,-332"/>
<ellipse fill="none" stroke="black" cx="312.3" cy="-332" rx="3.2" ry="3.2"/>
</g>
</g>
</svg>
