<?xml version="1.0" encoding="UTF-8" standalone="no"?>
<!DOCTYPE svg PUBLIC "-//W3C//DTD SVG 1.1//EN"
 "http://www.w3.org/Graphics/SVG/1.1/DTD/svg11.dtd">
<!-- Generated by graphviz version 2.47.1 (20210515.0534)
 -->
<!-- Title: oneDegreeRelationshipsDiagram Pages: 1 -->
<svg width="681pt" height="379pt"
 viewBox="0.00 0.00 681.00 379.00" xmlns="http://www.w3.org/2000/svg" xmlns:xlink="http://www.w3.org/1999/xlink">
<g id="graph0" class="graph" transform="scale(1 1) rotate(0) translate(4 375)">
<title>oneDegreeRelationshipsDiagram</title>
<polygon fill="#ffffff" stroke="transparent" points="-4,4 -4,-375 677,-375 677,4 -4,4"/>
<text text-anchor="middle" x="73.5" y="-7.2" font-family="Helvetica,sans-Serif" font-size="11.00">Generated by SchemaSpy</text>
<!-- tww_od.reach_progression_alternative -->
<g id="node1" class="node">
<title>tww_od.reach_progression_alternative</title>
<g id="a_node1"><a xlink:href="../../../tww_od/tables/reach_progression_alternative.html" xlink:title="tww_od.reach_progression_alternative" target="_top">
<polygon fill="#ffffff" stroke="transparent" points="391,-285 391,-365 665,-365 665,-285 391,-285"/>
<polygon fill="#f5f5f5" stroke="transparent" points="391,-343 391,-365 665,-365 665,-343 391,-343"/>
<polygon fill="none" stroke="black" points="391,-343 391,-365 665,-365 665,-343 391,-343"/>
<text text-anchor="start" x="396" y="-352.2" font-family="Helvetica,sans-Serif" font-weight="bold" font-size="11.00">tww_od.reach_progression_alternative</text>
<text text-anchor="start" x="626" y="-351.2" font-family="Helvetica,sans-Serif" font-size="11.00">[table]</text>
<polygon fill="none" stroke="black" points="391,-321 391,-343 665,-343 665,-321 391,-321"/>
<image xlink:href="../../images/foreignKeys.png" width="11px" height="12px" preserveAspectRatio="xMinYMin meet" x="396" y="-338"/>
<text text-anchor="start" x="448" y="-329.2" font-family="Helvetica,sans-Serif" font-size="11.00">plantype</text>
<polygon fill="none" stroke="black" points="391,-303 391,-321 665,-321 665,-303 391,-303"/>
<text text-anchor="start" x="394" y="-309.2" font-family="Helvetica,sans-Serif" font-size="11.00">...</text>
<polygon fill="#ffffff" stroke="transparent" points="391,-285 391,-303 512,-303 512,-285 391,-285"/>
<polygon fill="none" stroke="black" points="391,-285 391,-303 512,-303 512,-285 391,-285"/>
<text text-anchor="start" x="394" y="-291.2" font-family="Helvetica,sans-Serif" font-size="11.00">&lt; 1</text>
<polygon fill="#ffffff" stroke="transparent" points="512,-285 512,-303 602,-303 602,-285 512,-285"/>
<polygon fill="none" stroke="black" points="512,-285 512,-303 602,-303 602,-285 512,-285"/>
<text text-anchor="start" x="565" y="-291.2" font-family="Helvetica,sans-Serif" font-size="11.00">0 rows</text>
<polygon fill="#ffffff" stroke="transparent" points="602,-285 602,-303 665,-303 665,-285 602,-285"/>
<polygon fill="none" stroke="black" points="602,-285 602,-303 665,-303 665,-285 602,-285"/>
<text text-anchor="start" x="655" y="-291.2" font-family="Helvetica,sans-Serif" font-size="11.00"> &#160;</text>
</a>
</g>
</g>
<!-- reach_progression_alternative_plantype -->
<g id="node2" class="node">
<title>reach_progression_alternative_plantype</title>
<g id="a_node2"><a xlink:href="../../tables/reach_progression_alternative_plantype.html" xlink:title="reach_progression_alternative_plantype" target="_top">
<polygon fill="#ffffff" stroke="transparent" points="8,-37 8,-367 342,-367 342,-37 8,-37"/>
<polygon fill="#f5f5f5" stroke="transparent" points="10,-343 10,-365 340,-365 340,-343 10,-343"/>
<polygon fill="none" stroke="black" points="10,-343 10,-365 340,-365 340,-343 10,-343"/>
<text text-anchor="start" x="15" y="-352.2" font-family="Helvetica,sans-Serif" font-weight="bold" font-size="11.00">reach_progression_alternative_plantype</text>
<text text-anchor="start" x="301" y="-351.2" font-family="Helvetica,sans-Serif" font-size="11.00">[table]</text>
<polygon fill="none" stroke="black" points="10,-321 10,-343 270,-343 270,-321 10,-321"/>
<image xlink:href="../../images/primaryKeys.png" width="11px" height="12px" preserveAspectRatio="xMinYMin meet" x="15" y="-338"/>
<text text-anchor="start" x="30" y="-329.2" font-family="Helvetica,sans-Serif" font-size="11.00">code</text>
<polygon fill="none" stroke="black" points="270,-321 270,-343 340,-343 340,-321 270,-321"/>
<text text-anchor="start" x="273" y="-329.2" font-family="Helvetica,sans-Serif" font-size="11.00">int4[10]</text>
<polygon fill="none" stroke="black" points="10,-299 10,-321 270,-321 270,-299 10,-299"/>
<text text-anchor="start" x="30" y="-307.2" font-family="Helvetica,sans-Serif" font-size="11.00">vsacode</text>
<polygon fill="none" stroke="black" points="270,-299 270,-321 340,-321 340,-299 270,-299"/>
<text text-anchor="start" x="273" y="-307.2" font-family="Helvetica,sans-Serif" font-size="11.00">int4[10]</text>
<polygon fill="none" stroke="black" points="10,-277 10,-299 270,-299 270,-277 10,-277"/>
<text text-anchor="start" x="30" y="-285.2" font-family="Helvetica,sans-Serif" font-size="11.00">value_en</text>
<polygon fill="none" stroke="black" points="270,-277 270,-299 340,-299 340,-277 270,-277"/>
<text text-anchor="start" x="273" y="-285.2" font-family="Helvetica,sans-Serif" font-size="11.00">varchar[100]</text>
<polygon fill="none" stroke="black" points="10,-255 10,-277 270,-277 270,-255 10,-255"/>
<text text-anchor="start" x="30" y="-263.2" font-family="Helvetica,sans-Serif" font-size="11.00">value_de</text>
<polygon fill="none" stroke="black" points="270,-255 270,-277 340,-277 340,-255 270,-255"/>
<text text-anchor="start" x="273" y="-263.2" font-family="Helvetica,sans-Serif" font-size="11.00">varchar[100]</text>
<polygon fill="none" stroke="black" points="10,-233 10,-255 270,-255 270,-233 10,-233"/>
<text text-anchor="start" x="30" y="-241.2" font-family="Helvetica,sans-Serif" font-size="11.00">value_fr</text>
<polygon fill="none" stroke="black" points="270,-233 270,-255 340,-255 340,-233 270,-233"/>
<text text-anchor="start" x="273" y="-241.2" font-family="Helvetica,sans-Serif" font-size="11.00">varchar[100]</text>
<polygon fill="none" stroke="black" points="10,-211 10,-233 270,-233 270,-211 10,-211"/>
<text text-anchor="start" x="30" y="-219.2" font-family="Helvetica,sans-Serif" font-size="11.00">value_it</text>
<polygon fill="none" stroke="black" points="270,-211 270,-233 340,-233 340,-211 270,-211"/>
<text text-anchor="start" x="273" y="-219.2" font-family="Helvetica,sans-Serif" font-size="11.00">varchar[100]</text>
<polygon fill="none" stroke="black" points="10,-189 10,-211 270,-211 270,-189 10,-189"/>
<text text-anchor="start" x="30" y="-197.2" font-family="Helvetica,sans-Serif" font-size="11.00">value_ro</text>
<polygon fill="none" stroke="black" points="270,-189 270,-211 340,-211 340,-189 270,-189"/>
<text text-anchor="start" x="273" y="-197.2" font-family="Helvetica,sans-Serif" font-size="11.00">varchar[100]</text>
<polygon fill="none" stroke="black" points="10,-167 10,-189 270,-189 270,-167 10,-167"/>
<text text-anchor="start" x="30" y="-175.2" font-family="Helvetica,sans-Serif" font-size="11.00">abbr_en</text>
<polygon fill="none" stroke="black" points="270,-167 270,-189 340,-189 340,-167 270,-167"/>
<text text-anchor="start" x="273" y="-175.2" font-family="Helvetica,sans-Serif" font-size="11.00">varchar[3]</text>
<polygon fill="none" stroke="black" points="10,-145 10,-167 270,-167 270,-145 10,-145"/>
<text text-anchor="start" x="30" y="-153.2" font-family="Helvetica,sans-Serif" font-size="11.00">abbr_de</text>
<polygon fill="none" stroke="black" points="270,-145 270,-167 340,-167 340,-145 270,-145"/>
<text text-anchor="start" x="273" y="-153.2" font-family="Helvetica,sans-Serif" font-size="11.00">varchar[3]</text>
<polygon fill="none" stroke="black" points="10,-123 10,-145 270,-145 270,-123 10,-123"/>
<text text-anchor="start" x="30" y="-131.2" font-family="Helvetica,sans-Serif" font-size="11.00">abbr_fr</text>
<polygon fill="none" stroke="black" points="270,-123 270,-145 340,-145 340,-123 270,-123"/>
<text text-anchor="start" x="273" y="-131.2" font-family="Helvetica,sans-Serif" font-size="11.00">varchar[3]</text>
<polygon fill="none" stroke="black" points="10,-101 10,-123 270,-123 270,-101 10,-101"/>
<text text-anchor="start" x="30" y="-109.2" font-family="Helvetica,sans-Serif" font-size="11.00">abbr_it</text>
<polygon fill="none" stroke="black" points="270,-101 270,-123 340,-123 340,-101 270,-101"/>
<text text-anchor="start" x="273" y="-109.2" font-family="Helvetica,sans-Serif" font-size="11.00">varchar[3]</text>
<polygon fill="none" stroke="black" points="10,-79 10,-101 270,-101 270,-79 10,-79"/>
<text text-anchor="start" x="30" y="-87.2" font-family="Helvetica,sans-Serif" font-size="11.00">abbr_ro</text>
<polygon fill="none" stroke="black" points="270,-79 270,-101 340,-101 340,-79 270,-79"/>
<text text-anchor="start" x="273" y="-87.2" font-family="Helvetica,sans-Serif" font-size="11.00">varchar[3]</text>
<polygon fill="none" stroke="black" points="10,-57 10,-79 270,-79 270,-57 10,-57"/>
<text text-anchor="start" x="30" y="-65.2" font-family="Helvetica,sans-Serif" font-size="11.00">active</text>
<polygon fill="none" stroke="black" points="270,-57 270,-79 340,-79 340,-57 270,-57"/>
<text text-anchor="start" x="273" y="-65.2" font-family="Helvetica,sans-Serif" font-size="11.00">bool[1]</text>
<polygon fill="#ffffff" stroke="transparent" points="10,-39 10,-57 144,-57 144,-39 10,-39"/>
<polygon fill="none" stroke="black" points="10,-39 10,-57 144,-57 144,-39 10,-39"/>
<text text-anchor="start" x="13" y="-45.2" font-family="Helvetica,sans-Serif" font-size="11.00">&lt; 0</text>
<polygon fill="#ffffff" stroke="transparent" points="144,-39 144,-57 270,-57 270,-39 144,-39"/>
<polygon fill="none" stroke="black" points="144,-39 144,-57 270,-57 270,-39 144,-39"/>
<text text-anchor="start" x="260" y="-45.2" font-family="Helvetica,sans-Serif" font-size="11.00"> &#160;</text>
<polygon fill="#ffffff" stroke="transparent" points="270,-39 270,-57 340,-57 340,-39 270,-39"/>
<polygon fill="none" stroke="black" points="270,-39 270,-57 340,-57 340,-39 270,-39"/>
<text text-anchor="start" x="321" y="-45.2" font-family="Helvetica,sans-Serif" font-size="11.00">1 &gt;</text>
<polygon fill="none" stroke="black" stroke-width="2" points="9,-38 9,-366 341,-366 341,-38 9,-38"/>
</a>
</g>
</g>
<!-- tww_od.reach_progression_alternative&#45;&gt;reach_progression_alternative_plantype -->
<g id="edge1" class="edge">
<title>tww_od.reach_progression_alternative:w&#45;&gt;reach_progression_alternative_plantype:e</title>
<path fill="none" stroke="black" d="M375.49,-332C364.18,-332 356.99,-332 341,-332"/>
<polygon fill="black" stroke="black" points="382,-332 390,-335.6 386,-332 390,-332 390,-332 390,-332 386,-332 390,-328.4 382,-332 382,-332"/>
<ellipse fill="none" stroke="black" cx="378.8" cy="-332" rx="3.2" ry="3.2"/>
</g>
</g>
</svg>
