<?xml version="1.0" encoding="UTF-8" standalone="no"?>
<!DOCTYPE svg PUBLIC "-//W3C//DTD SVG 1.1//EN"
 "http://www.w3.org/Graphics/SVG/1.1/DTD/svg11.dtd">
<!-- Generated by graphviz version 2.47.1 (20210515.0534)
 -->
<!-- Title: oneDegreeRelationshipsDiagram Pages: 1 -->
<svg width="571pt" height="379pt"
 viewBox="0.00 0.00 571.00 379.00" xmlns="http://www.w3.org/2000/svg" xmlns:xlink="http://www.w3.org/1999/xlink">
<g id="graph0" class="graph" transform="scale(1 1) rotate(0) translate(4 375)">
<title>oneDegreeRelationshipsDiagram</title>
<polygon fill="#ffffff" stroke="transparent" points="-4,4 -4,-375 567,-375 567,4 -4,4"/>
<text text-anchor="middle" x="73.5" y="-7.2" font-family="Helvetica,sans-Serif" font-size="11.00">Generated by SchemaSpy</text>
<!-- tww_od.reach_point -->
<g id="node1" class="node">
<title>tww_od.reach_point</title>
<g id="a_node1"><a xlink:href="../../../tww_od/tables/reach_point.html" xlink:title="tww_od.reach_point" target="_top">
<polygon fill="#ffffff" stroke="transparent" points="341,-241 341,-365 555,-365 555,-241 341,-241"/>
<polygon fill="#f5f5f5" stroke="transparent" points="341,-343 341,-365 555,-365 555,-343 341,-343"/>
<polygon fill="none" stroke="black" points="341,-343 341,-365 555,-365 555,-343 341,-343"/>
<text text-anchor="start" x="346" y="-352.2" font-family="Helvetica,sans-Serif" font-weight="bold" font-size="11.00">tww_od.reach_point</text>
<text text-anchor="start" x="516" y="-351.2" font-family="Helvetica,sans-Serif" font-size="11.00">[table]</text>
<polygon fill="none" stroke="black" points="341,-321 341,-343 555,-343 555,-321 341,-321"/>
<image xlink:href="../../images/foreignKeys.png" width="11px" height="12px" preserveAspectRatio="xMinYMin meet" x="346" y="-338"/>
<text text-anchor="start" x="361" y="-329.2" font-family="Helvetica,sans-Serif" font-size="11.00">elevation_accuracy</text>
<polygon fill="none" stroke="black" points="341,-299 341,-321 555,-321 555,-299 341,-299"/>
<image xlink:href="../../images/foreignKeys.png" width="11px" height="12px" preserveAspectRatio="xMinYMin meet" x="346" y="-316"/>
<text text-anchor="start" x="361" y="-307.2" font-family="Helvetica,sans-Serif" font-size="11.00">outlet_shape</text>
<polygon fill="none" stroke="black" points="341,-277 341,-299 555,-299 555,-277 341,-277"/>
<image xlink:href="../../images/foreignKeys.png" width="11px" height="12px" preserveAspectRatio="xMinYMin meet" x="346" y="-294"/>
<text text-anchor="start" x="361" y="-285.2" font-family="Helvetica,sans-Serif" font-size="11.00">pipe_closure</text>
<polygon fill="none" stroke="black" points="341,-259 341,-277 555,-277 555,-259 341,-259"/>
<text text-anchor="start" x="344" y="-265.2" font-family="Helvetica,sans-Serif" font-size="11.00">...</text>
<polygon fill="#ffffff" stroke="transparent" points="341,-241 341,-259 432,-259 432,-241 341,-241"/>
<polygon fill="none" stroke="black" points="341,-241 341,-259 432,-259 432,-241 341,-241"/>
<text text-anchor="start" x="344" y="-247.2" font-family="Helvetica,sans-Serif" font-size="11.00">&lt; 3</text>
<polygon fill="#ffffff" stroke="transparent" points="432,-241 432,-259 507,-259 507,-241 432,-241"/>
<polygon fill="none" stroke="black" points="432,-241 432,-259 507,-259 507,-241 432,-241"/>
<text text-anchor="start" x="470" y="-247.2" font-family="Helvetica,sans-Serif" font-size="11.00">0 rows</text>
<polygon fill="#ffffff" stroke="transparent" points="507,-241 507,-259 555,-259 555,-241 507,-241"/>
<polygon fill="none" stroke="black" points="507,-241 507,-259 555,-259 555,-241 507,-241"/>
<text text-anchor="start" x="545" y="-247.2" font-family="Helvetica,sans-Serif" font-size="11.00"> &#160;</text>
</a>
</g>
</g>
<!-- reach_point_elevation_accuracy -->
<g id="node2" class="node">
<title>reach_point_elevation_accuracy</title>
<g id="a_node2"><a xlink:href="../../tables/reach_point_elevation_accuracy.html" xlink:title="reach_point_elevation_accuracy" target="_top">
<polygon fill="#ffffff" stroke="transparent" points="8,-37 8,-367 292,-367 292,-37 8,-37"/>
<polygon fill="#f5f5f5" stroke="transparent" points="10,-343 10,-365 290,-365 290,-343 10,-343"/>
<polygon fill="none" stroke="black" points="10,-343 10,-365 290,-365 290,-343 10,-343"/>
<text text-anchor="start" x="15" y="-352.2" font-family="Helvetica,sans-Serif" font-weight="bold" font-size="11.00">reach_point_elevation_accuracy</text>
<text text-anchor="start" x="251" y="-351.2" font-family="Helvetica,sans-Serif" font-size="11.00">[table]</text>
<polygon fill="none" stroke="black" points="10,-321 10,-343 220,-343 220,-321 10,-321"/>
<image xlink:href="../../images/primaryKeys.png" width="11px" height="12px" preserveAspectRatio="xMinYMin meet" x="15" y="-338"/>
<text text-anchor="start" x="30" y="-329.2" font-family="Helvetica,sans-Serif" font-size="11.00">code</text>
<polygon fill="none" stroke="black" points="220,-321 220,-343 290,-343 290,-321 220,-321"/>
<text text-anchor="start" x="223" y="-329.2" font-family="Helvetica,sans-Serif" font-size="11.00">int4[10]</text>
<polygon fill="none" stroke="black" points="10,-299 10,-321 220,-321 220,-299 10,-299"/>
<text text-anchor="start" x="30" y="-307.2" font-family="Helvetica,sans-Serif" font-size="11.00">vsacode</text>
<polygon fill="none" stroke="black" points="220,-299 220,-321 290,-321 290,-299 220,-299"/>
<text text-anchor="start" x="223" y="-307.2" font-family="Helvetica,sans-Serif" font-size="11.00">int4[10]</text>
<polygon fill="none" stroke="black" points="10,-277 10,-299 220,-299 220,-277 10,-277"/>
<text text-anchor="start" x="30" y="-285.2" font-family="Helvetica,sans-Serif" font-size="11.00">value_en</text>
<polygon fill="none" stroke="black" points="220,-277 220,-299 290,-299 290,-277 220,-277"/>
<text text-anchor="start" x="223" y="-285.2" font-family="Helvetica,sans-Serif" font-size="11.00">varchar[100]</text>
<polygon fill="none" stroke="black" points="10,-255 10,-277 220,-277 220,-255 10,-255"/>
<text text-anchor="start" x="30" y="-263.2" font-family="Helvetica,sans-Serif" font-size="11.00">value_de</text>
<polygon fill="none" stroke="black" points="220,-255 220,-277 290,-277 290,-255 220,-255"/>
<text text-anchor="start" x="223" y="-263.2" font-family="Helvetica,sans-Serif" font-size="11.00">varchar[100]</text>
<polygon fill="none" stroke="black" points="10,-233 10,-255 220,-255 220,-233 10,-233"/>
<text text-anchor="start" x="30" y="-241.2" font-family="Helvetica,sans-Serif" font-size="11.00">value_fr</text>
<polygon fill="none" stroke="black" points="220,-233 220,-255 290,-255 290,-233 220,-233"/>
<text text-anchor="start" x="223" y="-241.2" font-family="Helvetica,sans-Serif" font-size="11.00">varchar[100]</text>
<polygon fill="none" stroke="black" points="10,-211 10,-233 220,-233 220,-211 10,-211"/>
<text text-anchor="start" x="30" y="-219.2" font-family="Helvetica,sans-Serif" font-size="11.00">value_it</text>
<polygon fill="none" stroke="black" points="220,-211 220,-233 290,-233 290,-211 220,-211"/>
<text text-anchor="start" x="223" y="-219.2" font-family="Helvetica,sans-Serif" font-size="11.00">varchar[100]</text>
<polygon fill="none" stroke="black" points="10,-189 10,-211 220,-211 220,-189 10,-189"/>
<text text-anchor="start" x="30" y="-197.2" font-family="Helvetica,sans-Serif" font-size="11.00">value_ro</text>
<polygon fill="none" stroke="black" points="220,-189 220,-211 290,-211 290,-189 220,-189"/>
<text text-anchor="start" x="223" y="-197.2" font-family="Helvetica,sans-Serif" font-size="11.00">varchar[100]</text>
<polygon fill="none" stroke="black" points="10,-167 10,-189 220,-189 220,-167 10,-167"/>
<text text-anchor="start" x="30" y="-175.2" font-family="Helvetica,sans-Serif" font-size="11.00">abbr_en</text>
<polygon fill="none" stroke="black" points="220,-167 220,-189 290,-189 290,-167 220,-167"/>
<text text-anchor="start" x="223" y="-175.2" font-family="Helvetica,sans-Serif" font-size="11.00">varchar[3]</text>
<polygon fill="none" stroke="black" points="10,-145 10,-167 220,-167 220,-145 10,-145"/>
<text text-anchor="start" x="30" y="-153.2" font-family="Helvetica,sans-Serif" font-size="11.00">abbr_de</text>
<polygon fill="none" stroke="black" points="220,-145 220,-167 290,-167 290,-145 220,-145"/>
<text text-anchor="start" x="223" y="-153.2" font-family="Helvetica,sans-Serif" font-size="11.00">varchar[3]</text>
<polygon fill="none" stroke="black" points="10,-123 10,-145 220,-145 220,-123 10,-123"/>
<text text-anchor="start" x="30" y="-131.2" font-family="Helvetica,sans-Serif" font-size="11.00">abbr_fr</text>
<polygon fill="none" stroke="black" points="220,-123 220,-145 290,-145 290,-123 220,-123"/>
<text text-anchor="start" x="223" y="-131.2" font-family="Helvetica,sans-Serif" font-size="11.00">varchar[3]</text>
<polygon fill="none" stroke="black" points="10,-101 10,-123 220,-123 220,-101 10,-101"/>
<text text-anchor="start" x="30" y="-109.2" font-family="Helvetica,sans-Serif" font-size="11.00">abbr_it</text>
<polygon fill="none" stroke="black" points="220,-101 220,-123 290,-123 290,-101 220,-101"/>
<text text-anchor="start" x="223" y="-109.2" font-family="Helvetica,sans-Serif" font-size="11.00">varchar[3]</text>
<polygon fill="none" stroke="black" points="10,-79 10,-101 220,-101 220,-79 10,-79"/>
<text text-anchor="start" x="30" y="-87.2" font-family="Helvetica,sans-Serif" font-size="11.00">abbr_ro</text>
<polygon fill="none" stroke="black" points="220,-79 220,-101 290,-101 290,-79 220,-79"/>
<text text-anchor="start" x="223" y="-87.2" font-family="Helvetica,sans-Serif" font-size="11.00">varchar[3]</text>
<polygon fill="none" stroke="black" points="10,-57 10,-79 220,-79 220,-57 10,-57"/>
<text text-anchor="start" x="30" y="-65.2" font-family="Helvetica,sans-Serif" font-size="11.00">active</text>
<polygon fill="none" stroke="black" points="220,-57 220,-79 290,-79 290,-57 220,-57"/>
<text text-anchor="start" x="223" y="-65.2" font-family="Helvetica,sans-Serif" font-size="11.00">bool[1]</text>
<polygon fill="#ffffff" stroke="transparent" points="10,-39 10,-57 119,-57 119,-39 10,-39"/>
<polygon fill="none" stroke="black" points="10,-39 10,-57 119,-57 119,-39 10,-39"/>
<text text-anchor="start" x="13" y="-45.2" font-family="Helvetica,sans-Serif" font-size="11.00">&lt; 0</text>
<polygon fill="#ffffff" stroke="transparent" points="119,-39 119,-57 220,-57 220,-39 119,-39"/>
<polygon fill="none" stroke="black" points="119,-39 119,-57 220,-57 220,-39 119,-39"/>
<text text-anchor="start" x="210" y="-45.2" font-family="Helvetica,sans-Serif" font-size="11.00"> &#160;</text>
<polygon fill="#ffffff" stroke="transparent" points="220,-39 220,-57 290,-57 290,-39 220,-39"/>
<polygon fill="none" stroke="black" points="220,-39 220,-57 290,-57 290,-39 220,-39"/>
<text text-anchor="start" x="271" y="-45.2" font-family="Helvetica,sans-Serif" font-size="11.00">1 &gt;</text>
<polygon fill="none" stroke="black" stroke-width="2" points="9,-38 9,-366 291,-366 291,-38 9,-38"/>
</a>
</g>
</g>
<!-- tww_od.reach_point&#45;&gt;reach_point_elevation_accuracy -->
<g id="edge1" class="edge">
<title>tww_od.reach_point:w&#45;&gt;reach_point_elevation_accuracy:e</title>
<path fill="none" stroke="black" d="M325.49,-332C314.18,-332 306.99,-332 291,-332"/>
<polygon fill="black" stroke="black" points="332,-332 340,-335.6 336,-332 340,-332 340,-332 340,-332 336,-332 340,-328.4 332,-332 332,-332"/>
<ellipse fill="none" stroke="black" cx="328.8" cy="-332" rx="3.2" ry="3.2"/>
</g>
</g>
</svg>
