<?xml version="1.0" encoding="UTF-8" standalone="no"?>
<!DOCTYPE svg PUBLIC "-//W3C//DTD SVG 1.1//EN"
 "http://www.w3.org/Graphics/SVG/1.1/DTD/svg11.dtd">
<!-- Generated by graphviz version 2.47.1 (20210515.0534)
 -->
<!-- Title: oneDegreeRelationshipsDiagram Pages: 1 -->
<svg width="598pt" height="379pt"
 viewBox="0.00 0.00 598.00 379.00" xmlns="http://www.w3.org/2000/svg" xmlns:xlink="http://www.w3.org/1999/xlink">
<g id="graph0" class="graph" transform="scale(1 1) rotate(0) translate(4 375)">
<title>oneDegreeRelationshipsDiagram</title>
<polygon fill="#ffffff" stroke="transparent" points="-4,4 -4,-375 594,-375 594,4 -4,4"/>
<text text-anchor="middle" x="73.5" y="-7.2" font-family="Helvetica,sans-Serif" font-size="11.00">Generated by SchemaSpy</text>
<!-- tww_od.reach -->
<g id="node1" class="node">
<title>tww_od.reach</title>
<g id="a_node1"><a xlink:href="../../../tww_od/tables/reach.html" xlink:title="tww_od.reach" target="_top">
<polygon fill="#ffffff" stroke="transparent" points="339,-131 339,-365 582,-365 582,-131 339,-131"/>
<polygon fill="#f5f5f5" stroke="transparent" points="339.5,-343 339.5,-365 582.5,-365 582.5,-343 339.5,-343"/>
<polygon fill="none" stroke="black" points="339.5,-343 339.5,-365 582.5,-365 582.5,-343 339.5,-343"/>
<text text-anchor="start" x="344.5" y="-352.2" font-family="Helvetica,sans-Serif" font-weight="bold" font-size="11.00">tww_od.reach</text>
<text text-anchor="start" x="543.5" y="-351.2" font-family="Helvetica,sans-Serif" font-size="11.00">[table]</text>
<polygon fill="none" stroke="black" points="339.5,-321 339.5,-343 582.5,-343 582.5,-321 339.5,-321"/>
<image xlink:href="../../images/foreignKeys.png" width="11px" height="12px" preserveAspectRatio="xMinYMin meet" x="344.5" y="-338"/>
<text text-anchor="start" x="359.5" y="-329.2" font-family="Helvetica,sans-Serif" font-size="11.00">elevation_determination</text>
<polygon fill="none" stroke="black" points="339.5,-299 339.5,-321 582.5,-321 582.5,-299 339.5,-299"/>
<image xlink:href="../../images/foreignKeys.png" width="11px" height="12px" preserveAspectRatio="xMinYMin meet" x="344.5" y="-316"/>
<text text-anchor="start" x="359.5" y="-307.2" font-family="Helvetica,sans-Serif" font-size="11.00">horizontal_positioning</text>
<polygon fill="none" stroke="black" points="339.5,-277 339.5,-299 582.5,-299 582.5,-277 339.5,-277"/>
<image xlink:href="../../images/foreignKeys.png" width="11px" height="12px" preserveAspectRatio="xMinYMin meet" x="344.5" y="-294"/>
<text text-anchor="start" x="359.5" y="-285.2" font-family="Helvetica,sans-Serif" font-size="11.00">inside_coating</text>
<polygon fill="none" stroke="black" points="339.5,-255 339.5,-277 582.5,-277 582.5,-255 339.5,-255"/>
<image xlink:href="../../images/foreignKeys.png" width="11px" height="12px" preserveAspectRatio="xMinYMin meet" x="344.5" y="-272"/>
<text text-anchor="start" x="359.5" y="-263.2" font-family="Helvetica,sans-Serif" font-size="11.00">leak_protection</text>
<polygon fill="none" stroke="black" points="339.5,-233 339.5,-255 582.5,-255 582.5,-233 339.5,-233"/>
<image xlink:href="../../images/foreignKeys.png" width="11px" height="12px" preserveAspectRatio="xMinYMin meet" x="344.5" y="-250"/>
<text text-anchor="start" x="359.5" y="-241.2" font-family="Helvetica,sans-Serif" font-size="11.00">material</text>
<polygon fill="none" stroke="black" points="339.5,-211 339.5,-233 582.5,-233 582.5,-211 339.5,-211"/>
<image xlink:href="../../images/foreignKeys.png" width="11px" height="12px" preserveAspectRatio="xMinYMin meet" x="344.5" y="-228"/>
<text text-anchor="start" x="359.5" y="-219.2" font-family="Helvetica,sans-Serif" font-size="11.00">reliner_material</text>
<polygon fill="none" stroke="black" points="339.5,-189 339.5,-211 582.5,-211 582.5,-189 339.5,-189"/>
<image xlink:href="../../images/foreignKeys.png" width="11px" height="12px" preserveAspectRatio="xMinYMin meet" x="344.5" y="-206"/>
<text text-anchor="start" x="359.5" y="-197.2" font-family="Helvetica,sans-Serif" font-size="11.00">relining_construction</text>
<polygon fill="none" stroke="black" points="339.5,-167 339.5,-189 582.5,-189 582.5,-167 339.5,-167"/>
<image xlink:href="../../images/foreignKeys.png" width="11px" height="12px" preserveAspectRatio="xMinYMin meet" x="344.5" y="-184"/>
<text text-anchor="start" x="359.5" y="-175.2" font-family="Helvetica,sans-Serif" font-size="11.00">relining_kind</text>
<polygon fill="none" stroke="black" points="339.5,-149 339.5,-167 582.5,-167 582.5,-149 339.5,-149"/>
<text text-anchor="start" x="342.5" y="-155.2" font-family="Helvetica,sans-Serif" font-size="11.00">...</text>
<polygon fill="#ffffff" stroke="transparent" points="339.5,-131 339.5,-149 445.5,-149 445.5,-131 339.5,-131"/>
<polygon fill="none" stroke="black" points="339.5,-131 339.5,-149 445.5,-149 445.5,-131 339.5,-131"/>
<text text-anchor="start" x="342.5" y="-137.2" font-family="Helvetica,sans-Serif" font-size="11.00">&lt; 8</text>
<polygon fill="#ffffff" stroke="transparent" points="445.5,-131 445.5,-149 527.5,-149 527.5,-131 445.5,-131"/>
<polygon fill="none" stroke="black" points="445.5,-131 445.5,-149 527.5,-149 527.5,-131 445.5,-131"/>
<text text-anchor="start" x="490.5" y="-137.2" font-family="Helvetica,sans-Serif" font-size="11.00">0 rows</text>
<polygon fill="#ffffff" stroke="transparent" points="527.5,-131 527.5,-149 582.5,-149 582.5,-131 527.5,-131"/>
<polygon fill="none" stroke="black" points="527.5,-131 527.5,-149 582.5,-149 582.5,-131 527.5,-131"/>
<text text-anchor="start" x="572.5" y="-137.2" font-family="Helvetica,sans-Serif" font-size="11.00"> &#160;</text>
</a>
</g>
</g>
<!-- reach_elevation_determination -->
<g id="node2" class="node">
<title>reach_elevation_determination</title>
<g id="a_node2"><a xlink:href="../../tables/reach_elevation_determination.html" xlink:title="reach_elevation_determination" target="_top">
<polygon fill="#ffffff" stroke="transparent" points="8,-37 8,-367 290,-367 290,-37 8,-37"/>
<polygon fill="#f5f5f5" stroke="transparent" points="10,-343 10,-365 288,-365 288,-343 10,-343"/>
<polygon fill="none" stroke="black" points="10,-343 10,-365 288,-365 288,-343 10,-343"/>
<text text-anchor="start" x="15" y="-352.2" font-family="Helvetica,sans-Serif" font-weight="bold" font-size="11.00">reach_elevation_determination</text>
<text text-anchor="start" x="249" y="-351.2" font-family="Helvetica,sans-Serif" font-size="11.00">[table]</text>
<polygon fill="none" stroke="black" points="10,-321 10,-343 218,-343 218,-321 10,-321"/>
<image xlink:href="../../images/primaryKeys.png" width="11px" height="12px" preserveAspectRatio="xMinYMin meet" x="15" y="-338"/>
<text text-anchor="start" x="30" y="-329.2" font-family="Helvetica,sans-Serif" font-size="11.00">code</text>
<polygon fill="none" stroke="black" points="218,-321 218,-343 288,-343 288,-321 218,-321"/>
<text text-anchor="start" x="221" y="-329.2" font-family="Helvetica,sans-Serif" font-size="11.00">int4[10]</text>
<polygon fill="none" stroke="black" points="10,-299 10,-321 218,-321 218,-299 10,-299"/>
<text text-anchor="start" x="30" y="-307.2" font-family="Helvetica,sans-Serif" font-size="11.00">vsacode</text>
<polygon fill="none" stroke="black" points="218,-299 218,-321 288,-321 288,-299 218,-299"/>
<text text-anchor="start" x="221" y="-307.2" font-family="Helvetica,sans-Serif" font-size="11.00">int4[10]</text>
<polygon fill="none" stroke="black" points="10,-277 10,-299 218,-299 218,-277 10,-277"/>
<text text-anchor="start" x="30" y="-285.2" font-family="Helvetica,sans-Serif" font-size="11.00">value_en</text>
<polygon fill="none" stroke="black" points="218,-277 218,-299 288,-299 288,-277 218,-277"/>
<text text-anchor="start" x="221" y="-285.2" font-family="Helvetica,sans-Serif" font-size="11.00">varchar[100]</text>
<polygon fill="none" stroke="black" points="10,-255 10,-277 218,-277 218,-255 10,-255"/>
<text text-anchor="start" x="30" y="-263.2" font-family="Helvetica,sans-Serif" font-size="11.00">value_de</text>
<polygon fill="none" stroke="black" points="218,-255 218,-277 288,-277 288,-255 218,-255"/>
<text text-anchor="start" x="221" y="-263.2" font-family="Helvetica,sans-Serif" font-size="11.00">varchar[100]</text>
<polygon fill="none" stroke="black" points="10,-233 10,-255 218,-255 218,-233 10,-233"/>
<text text-anchor="start" x="30" y="-241.2" font-family="Helvetica,sans-Serif" font-size="11.00">value_fr</text>
<polygon fill="none" stroke="black" points="218,-233 218,-255 288,-255 288,-233 218,-233"/>
<text text-anchor="start" x="221" y="-241.2" font-family="Helvetica,sans-Serif" font-size="11.00">varchar[100]</text>
<polygon fill="none" stroke="black" points="10,-211 10,-233 218,-233 218,-211 10,-211"/>
<text text-anchor="start" x="30" y="-219.2" font-family="Helvetica,sans-Serif" font-size="11.00">value_it</text>
<polygon fill="none" stroke="black" points="218,-211 218,-233 288,-233 288,-211 218,-211"/>
<text text-anchor="start" x="221" y="-219.2" font-family="Helvetica,sans-Serif" font-size="11.00">varchar[100]</text>
<polygon fill="none" stroke="black" points="10,-189 10,-211 218,-211 218,-189 10,-189"/>
<text text-anchor="start" x="30" y="-197.2" font-family="Helvetica,sans-Serif" font-size="11.00">value_ro</text>
<polygon fill="none" stroke="black" points="218,-189 218,-211 288,-211 288,-189 218,-189"/>
<text text-anchor="start" x="221" y="-197.2" font-family="Helvetica,sans-Serif" font-size="11.00">varchar[100]</text>
<polygon fill="none" stroke="black" points="10,-167 10,-189 218,-189 218,-167 10,-167"/>
<text text-anchor="start" x="30" y="-175.2" font-family="Helvetica,sans-Serif" font-size="11.00">abbr_en</text>
<polygon fill="none" stroke="black" points="218,-167 218,-189 288,-189 288,-167 218,-167"/>
<text text-anchor="start" x="221" y="-175.2" font-family="Helvetica,sans-Serif" font-size="11.00">varchar[3]</text>
<polygon fill="none" stroke="black" points="10,-145 10,-167 218,-167 218,-145 10,-145"/>
<text text-anchor="start" x="30" y="-153.2" font-family="Helvetica,sans-Serif" font-size="11.00">abbr_de</text>
<polygon fill="none" stroke="black" points="218,-145 218,-167 288,-167 288,-145 218,-145"/>
<text text-anchor="start" x="221" y="-153.2" font-family="Helvetica,sans-Serif" font-size="11.00">varchar[3]</text>
<polygon fill="none" stroke="black" points="10,-123 10,-145 218,-145 218,-123 10,-123"/>
<text text-anchor="start" x="30" y="-131.2" font-family="Helvetica,sans-Serif" font-size="11.00">abbr_fr</text>
<polygon fill="none" stroke="black" points="218,-123 218,-145 288,-145 288,-123 218,-123"/>
<text text-anchor="start" x="221" y="-131.2" font-family="Helvetica,sans-Serif" font-size="11.00">varchar[3]</text>
<polygon fill="none" stroke="black" points="10,-101 10,-123 218,-123 218,-101 10,-101"/>
<text text-anchor="start" x="30" y="-109.2" font-family="Helvetica,sans-Serif" font-size="11.00">abbr_it</text>
<polygon fill="none" stroke="black" points="218,-101 218,-123 288,-123 288,-101 218,-101"/>
<text text-anchor="start" x="221" y="-109.2" font-family="Helvetica,sans-Serif" font-size="11.00">varchar[3]</text>
<polygon fill="none" stroke="black" points="10,-79 10,-101 218,-101 218,-79 10,-79"/>
<text text-anchor="start" x="30" y="-87.2" font-family="Helvetica,sans-Serif" font-size="11.00">abbr_ro</text>
<polygon fill="none" stroke="black" points="218,-79 218,-101 288,-101 288,-79 218,-79"/>
<text text-anchor="start" x="221" y="-87.2" font-family="Helvetica,sans-Serif" font-size="11.00">varchar[3]</text>
<polygon fill="none" stroke="black" points="10,-57 10,-79 218,-79 218,-57 10,-57"/>
<text text-anchor="start" x="30" y="-65.2" font-family="Helvetica,sans-Serif" font-size="11.00">active</text>
<polygon fill="none" stroke="black" points="218,-57 218,-79 288,-79 288,-57 218,-57"/>
<text text-anchor="start" x="221" y="-65.2" font-family="Helvetica,sans-Serif" font-size="11.00">bool[1]</text>
<polygon fill="#ffffff" stroke="transparent" points="10,-39 10,-57 118,-57 118,-39 10,-39"/>
<polygon fill="none" stroke="black" points="10,-39 10,-57 118,-57 118,-39 10,-39"/>
<text text-anchor="start" x="13" y="-45.2" font-family="Helvetica,sans-Serif" font-size="11.00">&lt; 0</text>
<polygon fill="#ffffff" stroke="transparent" points="118,-39 118,-57 218,-57 218,-39 118,-39"/>
<polygon fill="none" stroke="black" points="118,-39 118,-57 218,-57 218,-39 118,-39"/>
<text text-anchor="start" x="208" y="-45.2" font-family="Helvetica,sans-Serif" font-size="11.00"> &#160;</text>
<polygon fill="#ffffff" stroke="transparent" points="218,-39 218,-57 288,-57 288,-39 218,-39"/>
<polygon fill="none" stroke="black" points="218,-39 218,-57 288,-57 288,-39 218,-39"/>
<text text-anchor="start" x="269" y="-45.2" font-family="Helvetica,sans-Serif" font-size="11.00">1 &gt;</text>
<polygon fill="none" stroke="black" stroke-width="2" points="9,-38 9,-366 289,-366 289,-38 9,-38"/>
</a>
</g>
</g>
<!-- tww_od.reach&#45;&gt;reach_elevation_determination -->
<g id="edge1" class="edge">
<title>tww_od.reach:w&#45;&gt;reach_elevation_determination:e</title>
<path fill="none" stroke="black" d="M323.84,-332C312.41,-332 305.16,-332 289,-332"/>
<polygon fill="black" stroke="black" points="330.5,-332 338.5,-335.6 334.5,-332 338.5,-332 338.5,-332 338.5,-332 334.5,-332 338.5,-328.4 330.5,-332 330.5,-332"/>
<ellipse fill="none" stroke="black" cx="327.3" cy="-332" rx="3.2" ry="3.2"/>
</g>
</g>
</svg>
