<?xml version="1.0" encoding="UTF-8" standalone="no"?>
<!DOCTYPE svg PUBLIC "-//W3C//DTD SVG 1.1//EN"
 "http://www.w3.org/Graphics/SVG/1.1/DTD/svg11.dtd">
<!-- Generated by graphviz version 2.43.0 (0)
 -->
<!-- Title: oneDegreeRelationshipsDiagram Pages: 1 -->
<svg width="693pt" height="379pt"
 viewBox="0.00 0.00 693.00 379.00" xmlns="http://www.w3.org/2000/svg" xmlns:xlink="http://www.w3.org/1999/xlink">
<g id="graph0" class="graph" transform="scale(1 1) rotate(0) translate(4 375)">
<title>oneDegreeRelationshipsDiagram</title>
<polygon fill="#ffffff" stroke="transparent" points="-4,4 -4,-375 689,-375 689,4 -4,4"/>
<text text-anchor="middle" x="79.5" y="-7.2" font-family="Helvetica,sans-Serif" font-size="11.00">Generated by SchemaSpy</text>
<!-- tww_od.reach -->
<g id="node1" class="node">
<title>tww_od.reach</title>
<g id="a_node1"><a xlink:href="../../../tww_od/tables/reach.html" xlink:title="tww_od.reach" target="_top">
<polygon fill="#ffffff" stroke="transparent" points="386,-131 386,-365 677,-365 677,-131 386,-131"/>
<polygon fill="#f5f5f5" stroke="transparent" points="386.5,-343 386.5,-365 677.5,-365 677.5,-343 386.5,-343"/>
<polygon fill="none" stroke="black" points="386.5,-343 386.5,-365 677.5,-365 677.5,-343 386.5,-343"/>
<text text-anchor="start" x="391.5" y="-352.2" font-family="Helvetica,sans-Serif" font-weight="bold" font-size="11.00">tww_od.reach</text>
<text text-anchor="start" x="635.5" y="-351.2" font-family="Helvetica,sans-Serif" font-size="11.00">[table]</text>
<polygon fill="none" stroke="black" points="386.5,-321 386.5,-343 677.5,-343 677.5,-321 386.5,-321"/>
<image xlink:href="../../images/foreignKeys.png" width="11px" height="12px" preserveAspectRatio="xMinYMin meet" x="391.5" y="-338"/>
<text text-anchor="start" x="406.5" y="-329.2" font-family="Helvetica,sans-Serif" font-size="11.00">elevation_determination</text>
<polygon fill="none" stroke="black" points="386.5,-299 386.5,-321 677.5,-321 677.5,-299 386.5,-299"/>
<image xlink:href="../../images/foreignKeys.png" width="11px" height="12px" preserveAspectRatio="xMinYMin meet" x="391.5" y="-316"/>
<text text-anchor="start" x="406.5" y="-307.2" font-family="Helvetica,sans-Serif" font-size="11.00">horizontal_positioning</text>
<polygon fill="none" stroke="black" points="386.5,-277 386.5,-299 677.5,-299 677.5,-277 386.5,-277"/>
<image xlink:href="../../images/foreignKeys.png" width="11px" height="12px" preserveAspectRatio="xMinYMin meet" x="391.5" y="-294"/>
<text text-anchor="start" x="406.5" y="-285.2" font-family="Helvetica,sans-Serif" font-size="11.00">inside_coating</text>
<polygon fill="none" stroke="black" points="386.5,-255 386.5,-277 677.5,-277 677.5,-255 386.5,-255"/>
<image xlink:href="../../images/foreignKeys.png" width="11px" height="12px" preserveAspectRatio="xMinYMin meet" x="391.5" y="-272"/>
<text text-anchor="start" x="406.5" y="-263.2" font-family="Helvetica,sans-Serif" font-size="11.00">leak_protection</text>
<polygon fill="none" stroke="black" points="386.5,-233 386.5,-255 677.5,-255 677.5,-233 386.5,-233"/>
<image xlink:href="../../images/foreignKeys.png" width="11px" height="12px" preserveAspectRatio="xMinYMin meet" x="391.5" y="-250"/>
<text text-anchor="start" x="406.5" y="-241.2" font-family="Helvetica,sans-Serif" font-size="11.00">material</text>
<polygon fill="none" stroke="black" points="386.5,-211 386.5,-233 677.5,-233 677.5,-211 386.5,-211"/>
<image xlink:href="../../images/foreignKeys.png" width="11px" height="12px" preserveAspectRatio="xMinYMin meet" x="391.5" y="-228"/>
<text text-anchor="start" x="406.5" y="-219.2" font-family="Helvetica,sans-Serif" font-size="11.00">reliner_material</text>
<polygon fill="none" stroke="black" points="386.5,-189 386.5,-211 677.5,-211 677.5,-189 386.5,-189"/>
<image xlink:href="../../images/foreignKeys.png" width="11px" height="12px" preserveAspectRatio="xMinYMin meet" x="391.5" y="-206"/>
<text text-anchor="start" x="406.5" y="-197.2" font-family="Helvetica,sans-Serif" font-size="11.00">relining_construction</text>
<polygon fill="none" stroke="black" points="386.5,-167 386.5,-189 677.5,-189 677.5,-167 386.5,-167"/>
<image xlink:href="../../images/foreignKeys.png" width="11px" height="12px" preserveAspectRatio="xMinYMin meet" x="391.5" y="-184"/>
<text text-anchor="start" x="406.5" y="-175.2" font-family="Helvetica,sans-Serif" font-size="11.00">relining_kind</text>
<polygon fill="none" stroke="black" points="386.5,-149 386.5,-167 677.5,-167 677.5,-149 386.5,-149"/>
<text text-anchor="start" x="389.5" y="-155.2" font-family="Helvetica,sans-Serif" font-size="11.00">...</text>
<polygon fill="#ffffff" stroke="transparent" points="386.5,-131 386.5,-149 677.5,-149 677.5,-131 386.5,-131"/>
<polygon fill="none" stroke="black" points="386.5,-131 386.5,-149 677.5,-149 677.5,-131 386.5,-131"/>
<polygon fill="#ffffff" stroke="transparent" points="387.5,-132 387.5,-148 482.5,-148 482.5,-132 387.5,-132"/>
<text text-anchor="start" x="389.5" y="-137.2" font-family="Helvetica,sans-Serif" font-size="11.00">&lt; 8</text>
<polygon fill="#ffffff" stroke="transparent" points="482.5,-132 482.5,-148 594.5,-148 594.5,-132 482.5,-132"/>
<text text-anchor="start" x="520" y="-137.2" font-family="Helvetica,sans-Serif" font-size="11.00">0 rows</text>
<polygon fill="#ffffff" stroke="transparent" points="594.5,-132 594.5,-148 676.5,-148 676.5,-132 594.5,-132"/>
<text text-anchor="start" x="666.5" y="-137.2" font-family="Helvetica,sans-Serif" font-size="11.00"> &#160;</text>
<polygon fill="black" stroke="black" points="482.5,-132 482.5,-148 482.5,-148 482.5,-132 482.5,-132"/>
<polygon fill="black" stroke="black" points="594.5,-132 594.5,-148 594.5,-148 594.5,-132 594.5,-132"/>
</a>
</g>
</g>
<!-- reach_elevation_determination -->
<g id="node2" class="node">
<title>reach_elevation_determination</title>
<g id="a_node2"><a xlink:href="../../tables/reach_elevation_determination.html" xlink:title="reach_elevation_determination" target="_top">
<polygon fill="#ffffff" stroke="transparent" points="8,-37 8,-367 337,-367 337,-37 8,-37"/>
<polygon fill="#f5f5f5" stroke="transparent" points="10.5,-343 10.5,-365 335.5,-365 335.5,-343 10.5,-343"/>
<polygon fill="none" stroke="black" points="10.5,-343 10.5,-365 335.5,-365 335.5,-343 10.5,-343"/>
<text text-anchor="start" x="15.5" y="-352.2" font-family="Helvetica,sans-Serif" font-weight="bold" font-size="11.00">reach_elevation_determination</text>
<text text-anchor="start" x="293.5" y="-351.2" font-family="Helvetica,sans-Serif" font-size="11.00">[table]</text>
<polygon fill="none" stroke="black" points="10.5,-321 10.5,-343 257.5,-343 257.5,-321 10.5,-321"/>
<image xlink:href="../../images/primaryKeys.png" width="11px" height="12px" preserveAspectRatio="xMinYMin meet" x="15.5" y="-338"/>
<text text-anchor="start" x="30.5" y="-329.2" font-family="Helvetica,sans-Serif" font-size="11.00">code</text>
<polygon fill="none" stroke="black" points="257.5,-321 257.5,-343 335.5,-343 335.5,-321 257.5,-321"/>
<text text-anchor="start" x="260.5" y="-329.2" font-family="Helvetica,sans-Serif" font-size="11.00">int4[10]</text>
<polygon fill="none" stroke="black" points="10.5,-299 10.5,-321 257.5,-321 257.5,-299 10.5,-299"/>
<text text-anchor="start" x="30.5" y="-307.2" font-family="Helvetica,sans-Serif" font-size="11.00">vsacode</text>
<polygon fill="none" stroke="black" points="257.5,-299 257.5,-321 335.5,-321 335.5,-299 257.5,-299"/>
<text text-anchor="start" x="260.5" y="-307.2" font-family="Helvetica,sans-Serif" font-size="11.00">int4[10]</text>
<polygon fill="none" stroke="black" points="10.5,-277 10.5,-299 257.5,-299 257.5,-277 10.5,-277"/>
<text text-anchor="start" x="30.5" y="-285.2" font-family="Helvetica,sans-Serif" font-size="11.00">value_en</text>
<polygon fill="none" stroke="black" points="257.5,-277 257.5,-299 335.5,-299 335.5,-277 257.5,-277"/>
<text text-anchor="start" x="260.5" y="-285.2" font-family="Helvetica,sans-Serif" font-size="11.00">varchar[100]</text>
<polygon fill="none" stroke="black" points="10.5,-255 10.5,-277 257.5,-277 257.5,-255 10.5,-255"/>
<text text-anchor="start" x="30.5" y="-263.2" font-family="Helvetica,sans-Serif" font-size="11.00">value_de</text>
<polygon fill="none" stroke="black" points="257.5,-255 257.5,-277 335.5,-277 335.5,-255 257.5,-255"/>
<text text-anchor="start" x="260.5" y="-263.2" font-family="Helvetica,sans-Serif" font-size="11.00">varchar[100]</text>
<polygon fill="none" stroke="black" points="10.5,-233 10.5,-255 257.5,-255 257.5,-233 10.5,-233"/>
<text text-anchor="start" x="30.5" y="-241.2" font-family="Helvetica,sans-Serif" font-size="11.00">value_fr</text>
<polygon fill="none" stroke="black" points="257.5,-233 257.5,-255 335.5,-255 335.5,-233 257.5,-233"/>
<text text-anchor="start" x="260.5" y="-241.2" font-family="Helvetica,sans-Serif" font-size="11.00">varchar[100]</text>
<polygon fill="none" stroke="black" points="10.5,-211 10.5,-233 257.5,-233 257.5,-211 10.5,-211"/>
<text text-anchor="start" x="30.5" y="-219.2" font-family="Helvetica,sans-Serif" font-size="11.00">value_it</text>
<polygon fill="none" stroke="black" points="257.5,-211 257.5,-233 335.5,-233 335.5,-211 257.5,-211"/>
<text text-anchor="start" x="260.5" y="-219.2" font-family="Helvetica,sans-Serif" font-size="11.00">varchar[100]</text>
<polygon fill="none" stroke="black" points="10.5,-189 10.5,-211 257.5,-211 257.5,-189 10.5,-189"/>
<text text-anchor="start" x="30.5" y="-197.2" font-family="Helvetica,sans-Serif" font-size="11.00">value_ro</text>
<polygon fill="none" stroke="black" points="257.5,-189 257.5,-211 335.5,-211 335.5,-189 257.5,-189"/>
<text text-anchor="start" x="260.5" y="-197.2" font-family="Helvetica,sans-Serif" font-size="11.00">varchar[100]</text>
<polygon fill="none" stroke="black" points="10.5,-167 10.5,-189 257.5,-189 257.5,-167 10.5,-167"/>
<text text-anchor="start" x="30.5" y="-175.2" font-family="Helvetica,sans-Serif" font-size="11.00">abbr_en</text>
<polygon fill="none" stroke="black" points="257.5,-167 257.5,-189 335.5,-189 335.5,-167 257.5,-167"/>
<text text-anchor="start" x="260.5" y="-175.2" font-family="Helvetica,sans-Serif" font-size="11.00">varchar[3]</text>
<polygon fill="none" stroke="black" points="10.5,-145 10.5,-167 257.5,-167 257.5,-145 10.5,-145"/>
<text text-anchor="start" x="30.5" y="-153.2" font-family="Helvetica,sans-Serif" font-size="11.00">abbr_de</text>
<polygon fill="none" stroke="black" points="257.5,-145 257.5,-167 335.5,-167 335.5,-145 257.5,-145"/>
<text text-anchor="start" x="260.5" y="-153.2" font-family="Helvetica,sans-Serif" font-size="11.00">varchar[3]</text>
<polygon fill="none" stroke="black" points="10.5,-123 10.5,-145 257.5,-145 257.5,-123 10.5,-123"/>
<text text-anchor="start" x="30.5" y="-131.2" font-family="Helvetica,sans-Serif" font-size="11.00">abbr_fr</text>
<polygon fill="none" stroke="black" points="257.5,-123 257.5,-145 335.5,-145 335.5,-123 257.5,-123"/>
<text text-anchor="start" x="260.5" y="-131.2" font-family="Helvetica,sans-Serif" font-size="11.00">varchar[3]</text>
<polygon fill="none" stroke="black" points="10.5,-101 10.5,-123 257.5,-123 257.5,-101 10.5,-101"/>
<text text-anchor="start" x="30.5" y="-109.2" font-family="Helvetica,sans-Serif" font-size="11.00">abbr_it</text>
<polygon fill="none" stroke="black" points="257.5,-101 257.5,-123 335.5,-123 335.5,-101 257.5,-101"/>
<text text-anchor="start" x="260.5" y="-109.2" font-family="Helvetica,sans-Serif" font-size="11.00">varchar[3]</text>
<polygon fill="none" stroke="black" points="10.5,-79 10.5,-101 257.5,-101 257.5,-79 10.5,-79"/>
<text text-anchor="start" x="30.5" y="-87.2" font-family="Helvetica,sans-Serif" font-size="11.00">abbr_ro</text>
<polygon fill="none" stroke="black" points="257.5,-79 257.5,-101 335.5,-101 335.5,-79 257.5,-79"/>
<text text-anchor="start" x="260.5" y="-87.2" font-family="Helvetica,sans-Serif" font-size="11.00">varchar[3]</text>
<polygon fill="none" stroke="black" points="10.5,-57 10.5,-79 257.5,-79 257.5,-57 10.5,-57"/>
<text text-anchor="start" x="30.5" y="-65.2" font-family="Helvetica,sans-Serif" font-size="11.00">active</text>
<polygon fill="none" stroke="black" points="257.5,-57 257.5,-79 335.5,-79 335.5,-57 257.5,-57"/>
<text text-anchor="start" x="260.5" y="-65.2" font-family="Helvetica,sans-Serif" font-size="11.00">bool[1]</text>
<polygon fill="#ffffff" stroke="transparent" points="10.5,-39 10.5,-57 335.5,-57 335.5,-39 10.5,-39"/>
<polygon fill="none" stroke="black" points="10.5,-39 10.5,-57 335.5,-57 335.5,-39 10.5,-39"/>
<polygon fill="#ffffff" stroke="transparent" points="11.5,-40 11.5,-56 123.5,-56 123.5,-40 11.5,-40"/>
<text text-anchor="start" x="13.5" y="-45.2" font-family="Helvetica,sans-Serif" font-size="11.00">&lt; 0</text>
<polygon fill="#ffffff" stroke="transparent" points="123.5,-40 123.5,-56 223.5,-56 223.5,-40 123.5,-40"/>
<text text-anchor="start" x="169.5" y="-45.2" font-family="Helvetica,sans-Serif" font-size="11.00"> &#160;</text>
<polygon fill="#ffffff" stroke="transparent" points="223.5,-40 223.5,-56 334.5,-56 334.5,-40 223.5,-40"/>
<text text-anchor="start" x="312.5" y="-45.2" font-family="Helvetica,sans-Serif" font-size="11.00">1 &gt;</text>
<polygon fill="black" stroke="black" points="123.5,-40 123.5,-56 123.5,-56 123.5,-40 123.5,-40"/>
<polygon fill="black" stroke="black" points="223.5,-40 223.5,-56 223.5,-56 223.5,-40 223.5,-40"/>
<polygon fill="none" stroke="black" stroke-width="2" points="9,-38 9,-366 336,-366 336,-38 9,-38"/>
</a>
</g>
</g>
<!-- tww_od.reach&#45;&gt;reach_elevation_determination -->
<g id="edge1" class="edge">
<title>tww_od.reach:w&#45;&gt;reach_elevation_determination:e</title>
<path fill="none" stroke="black" d="M370.99,-332C359.68,-332 352.49,-332 336.5,-332"/>
<polygon fill="black" stroke="black" points="377.5,-332 385.5,-335.6 381.5,-332 385.5,-332 385.5,-332 385.5,-332 381.5,-332 385.5,-328.4 377.5,-332 377.5,-332"/>
<ellipse fill="none" stroke="black" cx="374.3" cy="-332" rx="3.2" ry="3.2"/>
</g>
</g>
</svg>
