<?xml version="1.0" encoding="UTF-8" standalone="no"?>
<!DOCTYPE svg PUBLIC "-//W3C//DTD SVG 1.1//EN"
 "http://www.w3.org/Graphics/SVG/1.1/DTD/svg11.dtd">
<!-- Generated by graphviz version 2.43.0 (0)
 -->
<!-- Title: oneDegreeRelationshipsDiagram Pages: 1 -->
<svg width="751pt" height="599pt"
 viewBox="0.00 0.00 751.00 599.00" xmlns="http://www.w3.org/2000/svg" xmlns:xlink="http://www.w3.org/1999/xlink">
<g id="graph0" class="graph" transform="scale(1 1) rotate(0) translate(4 595)">
<title>oneDegreeRelationshipsDiagram</title>
<polygon fill="#ffffff" stroke="transparent" points="-4,4 -4,-595 747,-595 747,4 -4,4"/>
<text text-anchor="middle" x="79.5" y="-7.2" font-family="Helvetica,sans-Serif" font-size="11.00">Generated by SchemaSpy</text>
<!-- tww_od.sia405pt_protection_tube -->
<g id="node1" class="node">
<title>tww_od.sia405pt_protection_tube</title>
<g id="a_node1"><a xlink:href="../../../tww_od/tables/sia405pt_protection_tube.html" xlink:title="tww_od.sia405pt_protection_tube" target="_top">
<polygon fill="#ffffff" stroke="transparent" points="442,-461 442,-585 735,-585 735,-461 442,-461"/>
<polygon fill="#f5f5f5" stroke="transparent" points="442.5,-563 442.5,-585 735.5,-585 735.5,-563 442.5,-563"/>
<polygon fill="none" stroke="black" points="442.5,-563 442.5,-585 735.5,-585 735.5,-563 442.5,-563"/>
<text text-anchor="start" x="447.5" y="-572.2" font-family="Helvetica,sans-Serif" font-weight="bold" font-size="11.00">tww_od.sia405pt_protection_tube</text>
<text text-anchor="start" x="693.5" y="-571.2" font-family="Helvetica,sans-Serif" font-size="11.00">[table]</text>
<polygon fill="none" stroke="black" points="442.5,-541 442.5,-563 735.5,-563 735.5,-541 442.5,-541"/>
<image xlink:href="../../images/foreignKeys.png" width="11px" height="12px" preserveAspectRatio="xMinYMin meet" x="447.5" y="-558"/>
<text text-anchor="start" x="505.5" y="-549.2" font-family="Helvetica,sans-Serif" font-size="11.00">material</text>
<polygon fill="none" stroke="black" points="442.5,-519 442.5,-541 735.5,-541 735.5,-519 442.5,-519"/>
<image xlink:href="../../images/foreignKeys.png" width="11px" height="12px" preserveAspectRatio="xMinYMin meet" x="447.5" y="-536"/>
<text text-anchor="start" x="505.5" y="-527.2" font-family="Helvetica,sans-Serif" font-size="11.00">horizontal_positioning</text>
<polygon fill="none" stroke="black" points="442.5,-497 442.5,-519 735.5,-519 735.5,-497 442.5,-497"/>
<image xlink:href="../../images/foreignKeys.png" width="11px" height="12px" preserveAspectRatio="xMinYMin meet" x="447.5" y="-514"/>
<text text-anchor="start" x="505.5" y="-505.2" font-family="Helvetica,sans-Serif" font-size="11.00">status</text>
<polygon fill="none" stroke="black" points="442.5,-479 442.5,-497 735.5,-497 735.5,-479 442.5,-479"/>
<text text-anchor="start" x="445.5" y="-485.2" font-family="Helvetica,sans-Serif" font-size="11.00">...</text>
<polygon fill="#ffffff" stroke="transparent" points="442.5,-461 442.5,-479 735.5,-479 735.5,-461 442.5,-461"/>
<polygon fill="none" stroke="black" points="442.5,-461 442.5,-479 735.5,-479 735.5,-461 442.5,-461"/>
<polygon fill="#ffffff" stroke="transparent" points="443.5,-462 443.5,-478 539.5,-478 539.5,-462 443.5,-462"/>
<text text-anchor="start" x="445.5" y="-467.2" font-family="Helvetica,sans-Serif" font-size="11.00">&lt; 3</text>
<polygon fill="#ffffff" stroke="transparent" points="539.5,-462 539.5,-478 651.5,-478 651.5,-462 539.5,-462"/>
<text text-anchor="start" x="577" y="-467.2" font-family="Helvetica,sans-Serif" font-size="11.00">0 rows</text>
<polygon fill="#ffffff" stroke="transparent" points="651.5,-462 651.5,-478 734.5,-478 734.5,-462 651.5,-462"/>
<text text-anchor="start" x="724.5" y="-467.2" font-family="Helvetica,sans-Serif" font-size="11.00"> &#160;</text>
<polygon fill="black" stroke="black" points="539.5,-462 539.5,-478 539.5,-478 539.5,-462 539.5,-462"/>
<polygon fill="black" stroke="black" points="651.5,-462 651.5,-478 651.5,-478 651.5,-462 651.5,-462"/>
</a>
</g>
</g>
<!-- sia405pt_protection_tube_material -->
<g id="node2" class="node">
<title>sia405pt_protection_tube_material</title>
<g id="a_node2"><a xlink:href="../../tables/sia405pt_protection_tube_material.html" xlink:title="sia405pt_protection_tube_material" target="_top">
<polygon fill="#ffffff" stroke="transparent" points="8,-37 8,-587 393,-587 393,-37 8,-37"/>
<polygon fill="#f5f5f5" stroke="transparent" points="10.5,-563 10.5,-585 391.5,-585 391.5,-563 10.5,-563"/>
<polygon fill="none" stroke="black" points="10.5,-563 10.5,-585 391.5,-585 391.5,-563 10.5,-563"/>
<text text-anchor="start" x="15.5" y="-572.2" font-family="Helvetica,sans-Serif" font-weight="bold" font-size="11.00">sia405pt_protection_tube_material</text>
<text text-anchor="start" x="349.5" y="-571.2" font-family="Helvetica,sans-Serif" font-size="11.00">[table]</text>
<polygon fill="none" stroke="black" points="10.5,-541 10.5,-563 285.5,-563 285.5,-541 10.5,-541"/>
<image xlink:href="../../images/primaryKeys.png" width="11px" height="12px" preserveAspectRatio="xMinYMin meet" x="15.5" y="-558"/>
<text text-anchor="start" x="30.5" y="-549.2" font-family="Helvetica,sans-Serif" font-size="11.00">code</text>
<polygon fill="none" stroke="black" points="285.5,-541 285.5,-563 391.5,-563 391.5,-541 285.5,-541"/>
<text text-anchor="start" x="288.5" y="-549.2" font-family="Helvetica,sans-Serif" font-size="11.00">int4[10]</text>
<polygon fill="none" stroke="black" points="10.5,-519 10.5,-541 285.5,-541 285.5,-519 10.5,-519"/>
<text text-anchor="start" x="30.5" y="-527.2" font-family="Helvetica,sans-Serif" font-size="11.00">vsacode</text>
<polygon fill="none" stroke="black" points="285.5,-519 285.5,-541 391.5,-541 391.5,-519 285.5,-519"/>
<text text-anchor="start" x="288.5" y="-527.2" font-family="Helvetica,sans-Serif" font-size="11.00">int4[10]</text>
<polygon fill="none" stroke="black" points="10.5,-497 10.5,-519 285.5,-519 285.5,-497 10.5,-497"/>
<text text-anchor="start" x="30.5" y="-505.2" font-family="Helvetica,sans-Serif" font-size="11.00">value_en</text>
<polygon fill="none" stroke="black" points="285.5,-497 285.5,-519 391.5,-519 391.5,-497 285.5,-497"/>
<text text-anchor="start" x="288.5" y="-505.2" font-family="Helvetica,sans-Serif" font-size="11.00">varchar[100]</text>
<polygon fill="none" stroke="black" points="10.5,-475 10.5,-497 285.5,-497 285.5,-475 10.5,-475"/>
<text text-anchor="start" x="30.5" y="-483.2" font-family="Helvetica,sans-Serif" font-size="11.00">value_de</text>
<polygon fill="none" stroke="black" points="285.5,-475 285.5,-497 391.5,-497 391.5,-475 285.5,-475"/>
<text text-anchor="start" x="288.5" y="-483.2" font-family="Helvetica,sans-Serif" font-size="11.00">varchar[100]</text>
<polygon fill="none" stroke="black" points="10.5,-453 10.5,-475 285.5,-475 285.5,-453 10.5,-453"/>
<text text-anchor="start" x="30.5" y="-461.2" font-family="Helvetica,sans-Serif" font-size="11.00">value_fr</text>
<polygon fill="none" stroke="black" points="285.5,-453 285.5,-475 391.5,-475 391.5,-453 285.5,-453"/>
<text text-anchor="start" x="288.5" y="-461.2" font-family="Helvetica,sans-Serif" font-size="11.00">varchar[100]</text>
<polygon fill="none" stroke="black" points="10.5,-431 10.5,-453 285.5,-453 285.5,-431 10.5,-431"/>
<text text-anchor="start" x="30.5" y="-439.2" font-family="Helvetica,sans-Serif" font-size="11.00">value_it</text>
<polygon fill="none" stroke="black" points="285.5,-431 285.5,-453 391.5,-453 391.5,-431 285.5,-431"/>
<text text-anchor="start" x="288.5" y="-439.2" font-family="Helvetica,sans-Serif" font-size="11.00">varchar[100]</text>
<polygon fill="none" stroke="black" points="10.5,-409 10.5,-431 285.5,-431 285.5,-409 10.5,-409"/>
<text text-anchor="start" x="30.5" y="-417.2" font-family="Helvetica,sans-Serif" font-size="11.00">value_ro</text>
<polygon fill="none" stroke="black" points="285.5,-409 285.5,-431 391.5,-431 391.5,-409 285.5,-409"/>
<text text-anchor="start" x="288.5" y="-417.2" font-family="Helvetica,sans-Serif" font-size="11.00">varchar[100]</text>
<polygon fill="none" stroke="black" points="10.5,-387 10.5,-409 285.5,-409 285.5,-387 10.5,-387"/>
<text text-anchor="start" x="30.5" y="-395.2" font-family="Helvetica,sans-Serif" font-size="11.00">abbr_en</text>
<polygon fill="none" stroke="black" points="285.5,-387 285.5,-409 391.5,-409 391.5,-387 285.5,-387"/>
<text text-anchor="start" x="288.5" y="-395.2" font-family="Helvetica,sans-Serif" font-size="11.00">varchar[3]</text>
<polygon fill="none" stroke="black" points="10.5,-365 10.5,-387 285.5,-387 285.5,-365 10.5,-365"/>
<text text-anchor="start" x="30.5" y="-373.2" font-family="Helvetica,sans-Serif" font-size="11.00">abbr_de</text>
<polygon fill="none" stroke="black" points="285.5,-365 285.5,-387 391.5,-387 391.5,-365 285.5,-365"/>
<text text-anchor="start" x="288.5" y="-373.2" font-family="Helvetica,sans-Serif" font-size="11.00">varchar[3]</text>
<polygon fill="none" stroke="black" points="10.5,-343 10.5,-365 285.5,-365 285.5,-343 10.5,-343"/>
<text text-anchor="start" x="30.5" y="-351.2" font-family="Helvetica,sans-Serif" font-size="11.00">abbr_fr</text>
<polygon fill="none" stroke="black" points="285.5,-343 285.5,-365 391.5,-365 391.5,-343 285.5,-343"/>
<text text-anchor="start" x="288.5" y="-351.2" font-family="Helvetica,sans-Serif" font-size="11.00">varchar[3]</text>
<polygon fill="none" stroke="black" points="10.5,-321 10.5,-343 285.5,-343 285.5,-321 10.5,-321"/>
<text text-anchor="start" x="30.5" y="-329.2" font-family="Helvetica,sans-Serif" font-size="11.00">abbr_it</text>
<polygon fill="none" stroke="black" points="285.5,-321 285.5,-343 391.5,-343 391.5,-321 285.5,-321"/>
<text text-anchor="start" x="288.5" y="-329.2" font-family="Helvetica,sans-Serif" font-size="11.00">varchar[3]</text>
<polygon fill="none" stroke="black" points="10.5,-299 10.5,-321 285.5,-321 285.5,-299 10.5,-299"/>
<text text-anchor="start" x="30.5" y="-307.2" font-family="Helvetica,sans-Serif" font-size="11.00">abbr_ro</text>
<polygon fill="none" stroke="black" points="285.5,-299 285.5,-321 391.5,-321 391.5,-299 285.5,-299"/>
<text text-anchor="start" x="288.5" y="-307.2" font-family="Helvetica,sans-Serif" font-size="11.00">varchar[3]</text>
<polygon fill="none" stroke="black" points="10.5,-277 10.5,-299 285.5,-299 285.5,-277 10.5,-277"/>
<text text-anchor="start" x="30.5" y="-285.2" font-family="Helvetica,sans-Serif" font-size="11.00">active</text>
<polygon fill="none" stroke="black" points="285.5,-277 285.5,-299 391.5,-299 391.5,-277 285.5,-277"/>
<text text-anchor="start" x="288.5" y="-285.2" font-family="Helvetica,sans-Serif" font-size="11.00">bool[1]</text>
<polygon fill="none" stroke="black" points="10.5,-255 10.5,-277 285.5,-277 285.5,-255 10.5,-255"/>
<text text-anchor="start" x="30.5" y="-263.2" font-family="Helvetica,sans-Serif" font-size="11.00">description_en</text>
<polygon fill="none" stroke="black" points="285.5,-255 285.5,-277 391.5,-277 391.5,-255 285.5,-255"/>
<text text-anchor="start" x="288.5" y="-263.2" font-family="Helvetica,sans-Serif" font-size="11.00">text[2147483647]</text>
<polygon fill="none" stroke="black" points="10.5,-233 10.5,-255 285.5,-255 285.5,-233 10.5,-233"/>
<text text-anchor="start" x="30.5" y="-241.2" font-family="Helvetica,sans-Serif" font-size="11.00">description_de</text>
<polygon fill="none" stroke="black" points="285.5,-233 285.5,-255 391.5,-255 391.5,-233 285.5,-233"/>
<text text-anchor="start" x="288.5" y="-241.2" font-family="Helvetica,sans-Serif" font-size="11.00">text[2147483647]</text>
<polygon fill="none" stroke="black" points="10.5,-211 10.5,-233 285.5,-233 285.5,-211 10.5,-211"/>
<text text-anchor="start" x="30.5" y="-219.2" font-family="Helvetica,sans-Serif" font-size="11.00">description_fr</text>
<polygon fill="none" stroke="black" points="285.5,-211 285.5,-233 391.5,-233 391.5,-211 285.5,-211"/>
<text text-anchor="start" x="288.5" y="-219.2" font-family="Helvetica,sans-Serif" font-size="11.00">text[2147483647]</text>
<polygon fill="none" stroke="black" points="10.5,-189 10.5,-211 285.5,-211 285.5,-189 10.5,-189"/>
<text text-anchor="start" x="30.5" y="-197.2" font-family="Helvetica,sans-Serif" font-size="11.00">description_it</text>
<polygon fill="none" stroke="black" points="285.5,-189 285.5,-211 391.5,-211 391.5,-189 285.5,-189"/>
<text text-anchor="start" x="288.5" y="-197.2" font-family="Helvetica,sans-Serif" font-size="11.00">text[2147483647]</text>
<polygon fill="none" stroke="black" points="10.5,-167 10.5,-189 285.5,-189 285.5,-167 10.5,-167"/>
<text text-anchor="start" x="30.5" y="-175.2" font-family="Helvetica,sans-Serif" font-size="11.00">description_ro</text>
<polygon fill="none" stroke="black" points="285.5,-167 285.5,-189 391.5,-189 391.5,-167 285.5,-167"/>
<text text-anchor="start" x="288.5" y="-175.2" font-family="Helvetica,sans-Serif" font-size="11.00">text[2147483647]</text>
<polygon fill="none" stroke="black" points="10.5,-145 10.5,-167 285.5,-167 285.5,-145 10.5,-145"/>
<text text-anchor="start" x="30.5" y="-153.2" font-family="Helvetica,sans-Serif" font-size="11.00">display_en</text>
<polygon fill="none" stroke="black" points="285.5,-145 285.5,-167 391.5,-167 391.5,-145 285.5,-145"/>
<text text-anchor="start" x="288.5" y="-153.2" font-family="Helvetica,sans-Serif" font-size="11.00">varchar[100]</text>
<polygon fill="none" stroke="black" points="10.5,-123 10.5,-145 285.5,-145 285.5,-123 10.5,-123"/>
<text text-anchor="start" x="30.5" y="-131.2" font-family="Helvetica,sans-Serif" font-size="11.00">display_de</text>
<polygon fill="none" stroke="black" points="285.5,-123 285.5,-145 391.5,-145 391.5,-123 285.5,-123"/>
<text text-anchor="start" x="288.5" y="-131.2" font-family="Helvetica,sans-Serif" font-size="11.00">varchar[100]</text>
<polygon fill="none" stroke="black" points="10.5,-101 10.5,-123 285.5,-123 285.5,-101 10.5,-101"/>
<text text-anchor="start" x="30.5" y="-109.2" font-family="Helvetica,sans-Serif" font-size="11.00">display_fr</text>
<polygon fill="none" stroke="black" points="285.5,-101 285.5,-123 391.5,-123 391.5,-101 285.5,-101"/>
<text text-anchor="start" x="288.5" y="-109.2" font-family="Helvetica,sans-Serif" font-size="11.00">varchar[100]</text>
<polygon fill="none" stroke="black" points="10.5,-79 10.5,-101 285.5,-101 285.5,-79 10.5,-79"/>
<text text-anchor="start" x="30.5" y="-87.2" font-family="Helvetica,sans-Serif" font-size="11.00">display_it</text>
<polygon fill="none" stroke="black" points="285.5,-79 285.5,-101 391.5,-101 391.5,-79 285.5,-79"/>
<text text-anchor="start" x="288.5" y="-87.2" font-family="Helvetica,sans-Serif" font-size="11.00">varchar[100]</text>
<polygon fill="none" stroke="black" points="10.5,-57 10.5,-79 285.5,-79 285.5,-57 10.5,-57"/>
<text text-anchor="start" x="30.5" y="-65.2" font-family="Helvetica,sans-Serif" font-size="11.00">display_ro</text>
<polygon fill="none" stroke="black" points="285.5,-57 285.5,-79 391.5,-79 391.5,-57 285.5,-57"/>
<text text-anchor="start" x="288.5" y="-65.2" font-family="Helvetica,sans-Serif" font-size="11.00">varchar[100]</text>
<polygon fill="#ffffff" stroke="transparent" points="10.5,-39 10.5,-57 391.5,-57 391.5,-39 10.5,-39"/>
<polygon fill="none" stroke="black" points="10.5,-39 10.5,-57 391.5,-57 391.5,-39 10.5,-39"/>
<polygon fill="#ffffff" stroke="transparent" points="11.5,-40 11.5,-56 142.5,-56 142.5,-40 11.5,-40"/>
<text text-anchor="start" x="13.5" y="-45.2" font-family="Helvetica,sans-Serif" font-size="11.00">&lt; 0</text>
<polygon fill="#ffffff" stroke="transparent" points="142.5,-40 142.5,-56 260.5,-56 260.5,-40 142.5,-40"/>
<text text-anchor="start" x="197.5" y="-45.2" font-family="Helvetica,sans-Serif" font-size="11.00"> &#160;</text>
<polygon fill="#ffffff" stroke="transparent" points="260.5,-40 260.5,-56 390.5,-56 390.5,-40 260.5,-40"/>
<text text-anchor="start" x="368.5" y="-45.2" font-family="Helvetica,sans-Serif" font-size="11.00">1 &gt;</text>
<polygon fill="black" stroke="black" points="142.5,-40 142.5,-56 142.5,-56 142.5,-40 142.5,-40"/>
<polygon fill="black" stroke="black" points="260.5,-40 260.5,-56 260.5,-56 260.5,-40 260.5,-40"/>
<polygon fill="none" stroke="black" stroke-width="2" points="9,-38 9,-586 392,-586 392,-38 9,-38"/>
</a>
</g>
</g>
<!-- tww_od.sia405pt_protection_tube&#45;&gt;sia405pt_protection_tube_material -->
<g id="edge1" class="edge">
<title>tww_od.sia405pt_protection_tube:w&#45;&gt;sia405pt_protection_tube_material:e</title>
<path fill="none" stroke="black" d="M426.99,-552C415.68,-552 408.49,-552 392.5,-552"/>
<polygon fill="black" stroke="black" points="433.5,-552 441.5,-555.6 437.5,-552 441.5,-552 441.5,-552 441.5,-552 437.5,-552 441.5,-548.4 433.5,-552 433.5,-552"/>
<ellipse fill="none" stroke="black" cx="430.3" cy="-552" rx="3.2" ry="3.2"/>
</g>
</g>
</svg>
