<?xml version="1.0" encoding="UTF-8" standalone="no"?>
<!DOCTYPE svg PUBLIC "-//W3C//DTD SVG 1.1//EN"
 "http://www.w3.org/Graphics/SVG/1.1/DTD/svg11.dtd">
<!-- Generated by graphviz version 2.43.0 (0)
 -->
<!-- Title: oneDegreeRelationshipsDiagram Pages: 1 -->
<svg width="670pt" height="663pt"
 viewBox="0.00 0.00 670.00 663.00" xmlns="http://www.w3.org/2000/svg" xmlns:xlink="http://www.w3.org/1999/xlink">
<g id="graph0" class="graph" transform="scale(1 1) rotate(0) translate(4 659)">
<title>oneDegreeRelationshipsDiagram</title>
<polygon fill="#ffffff" stroke="transparent" points="-4,4 -4,-659 666,-659 666,4 -4,4"/>
<text text-anchor="middle" x="79.5" y="-7.2" font-family="Helvetica,sans-Serif" font-size="11.00">Generated by SchemaSpy</text>
<!-- tww_od.sia405cc_cable_point -->
<g id="node1" class="node">
<title>tww_od.sia405cc_cable_point</title>
<g id="a_node1"><a xlink:href="../../../tww_od/tables/sia405cc_cable_point.html" xlink:title="tww_od.sia405cc_cable_point" target="_top">
<polygon fill="#ffffff" stroke="transparent" points="394,-505 394,-651 654,-651 654,-505 394,-505"/>
<polygon fill="#f5f5f5" stroke="transparent" points="394,-629 394,-651 654,-651 654,-629 394,-629"/>
<polygon fill="none" stroke="black" points="394,-629 394,-651 654,-651 654,-629 394,-629"/>
<text text-anchor="start" x="399" y="-638.2" font-family="Helvetica,sans-Serif" font-weight="bold" font-size="11.00">tww_od.sia405cc_cable_point</text>
<text text-anchor="start" x="612" y="-637.2" font-family="Helvetica,sans-Serif" font-size="11.00">[table]</text>
<polygon fill="none" stroke="black" points="394,-607 394,-629 654,-629 654,-607 394,-607"/>
<image xlink:href="../../images/foreignKeys.png" width="11px" height="12px" preserveAspectRatio="xMinYMin meet" x="399" y="-624"/>
<text text-anchor="start" x="444" y="-615.2" font-family="Helvetica,sans-Serif" font-size="11.00">kind</text>
<polygon fill="none" stroke="black" points="394,-585 394,-607 654,-607 654,-585 394,-585"/>
<image xlink:href="../../images/foreignKeys.png" width="11px" height="12px" preserveAspectRatio="xMinYMin meet" x="399" y="-602"/>
<text text-anchor="start" x="444" y="-593.2" font-family="Helvetica,sans-Serif" font-size="11.00">horizontal_positioning</text>
<polygon fill="none" stroke="black" points="394,-563 394,-585 654,-585 654,-563 394,-563"/>
<image xlink:href="../../images/foreignKeys.png" width="11px" height="12px" preserveAspectRatio="xMinYMin meet" x="399" y="-580"/>
<text text-anchor="start" x="444" y="-571.2" font-family="Helvetica,sans-Serif" font-size="11.00">elevation_determination</text>
<polygon fill="none" stroke="black" points="394,-541 394,-563 654,-563 654,-541 394,-541"/>
<image xlink:href="../../images/foreignKeys.png" width="11px" height="12px" preserveAspectRatio="xMinYMin meet" x="399" y="-558"/>
<text text-anchor="start" x="444" y="-549.2" font-family="Helvetica,sans-Serif" font-size="11.00">status</text>
<polygon fill="none" stroke="black" points="394,-523 394,-541 654,-541 654,-523 394,-523"/>
<text text-anchor="start" x="397" y="-529.2" font-family="Helvetica,sans-Serif" font-size="11.00">...</text>
<polygon fill="#ffffff" stroke="transparent" points="394,-505 394,-523 654,-523 654,-505 394,-505"/>
<polygon fill="none" stroke="black" points="394,-505 394,-523 654,-523 654,-505 394,-505"/>
<polygon fill="#ffffff" stroke="transparent" points="395,-506 395,-522 480,-522 480,-506 395,-506"/>
<text text-anchor="start" x="397" y="-511.2" font-family="Helvetica,sans-Serif" font-size="11.00">&lt; 4</text>
<polygon fill="#ffffff" stroke="transparent" points="480,-506 480,-522 581,-522 581,-506 480,-506"/>
<text text-anchor="start" x="512" y="-511.2" font-family="Helvetica,sans-Serif" font-size="11.00">0 rows</text>
<polygon fill="#ffffff" stroke="transparent" points="581,-506 581,-522 653,-522 653,-506 581,-506"/>
<text text-anchor="start" x="643" y="-511.2" font-family="Helvetica,sans-Serif" font-size="11.00"> &#160;</text>
<polygon fill="black" stroke="black" points="480,-506 480,-522 480,-522 480,-506 480,-506"/>
<polygon fill="black" stroke="black" points="581,-506 581,-522 581,-522 581,-506 581,-506"/>
</a>
</g>
</g>
<!-- sia405cc_cable_point_status -->
<g id="node2" class="node">
<title>sia405cc_cable_point_status</title>
<g id="a_node2"><a xlink:href="../../tables/sia405cc_cable_point_status.html" xlink:title="sia405cc_cable_point_status" target="_top">
<polygon fill="#ffffff" stroke="transparent" points="8,-37 8,-587 345,-587 345,-37 8,-37"/>
<polygon fill="#f5f5f5" stroke="transparent" points="10.5,-563 10.5,-585 343.5,-585 343.5,-563 10.5,-563"/>
<polygon fill="none" stroke="black" points="10.5,-563 10.5,-585 343.5,-585 343.5,-563 10.5,-563"/>
<text text-anchor="start" x="15.5" y="-572.2" font-family="Helvetica,sans-Serif" font-weight="bold" font-size="11.00">sia405cc_cable_point_status</text>
<text text-anchor="start" x="301.5" y="-571.2" font-family="Helvetica,sans-Serif" font-size="11.00">[table]</text>
<polygon fill="none" stroke="black" points="10.5,-541 10.5,-563 237.5,-563 237.5,-541 10.5,-541"/>
<image xlink:href="../../images/primaryKeys.png" width="11px" height="12px" preserveAspectRatio="xMinYMin meet" x="15.5" y="-558"/>
<text text-anchor="start" x="30.5" y="-549.2" font-family="Helvetica,sans-Serif" font-size="11.00">code</text>
<polygon fill="none" stroke="black" points="237.5,-541 237.5,-563 343.5,-563 343.5,-541 237.5,-541"/>
<text text-anchor="start" x="240.5" y="-549.2" font-family="Helvetica,sans-Serif" font-size="11.00">int4[10]</text>
<polygon fill="none" stroke="black" points="10.5,-519 10.5,-541 237.5,-541 237.5,-519 10.5,-519"/>
<text text-anchor="start" x="30.5" y="-527.2" font-family="Helvetica,sans-Serif" font-size="11.00">vsacode</text>
<polygon fill="none" stroke="black" points="237.5,-519 237.5,-541 343.5,-541 343.5,-519 237.5,-519"/>
<text text-anchor="start" x="240.5" y="-527.2" font-family="Helvetica,sans-Serif" font-size="11.00">int4[10]</text>
<polygon fill="none" stroke="black" points="10.5,-497 10.5,-519 237.5,-519 237.5,-497 10.5,-497"/>
<text text-anchor="start" x="30.5" y="-505.2" font-family="Helvetica,sans-Serif" font-size="11.00">value_en</text>
<polygon fill="none" stroke="black" points="237.5,-497 237.5,-519 343.5,-519 343.5,-497 237.5,-497"/>
<text text-anchor="start" x="240.5" y="-505.2" font-family="Helvetica,sans-Serif" font-size="11.00">varchar[100]</text>
<polygon fill="none" stroke="black" points="10.5,-475 10.5,-497 237.5,-497 237.5,-475 10.5,-475"/>
<text text-anchor="start" x="30.5" y="-483.2" font-family="Helvetica,sans-Serif" font-size="11.00">value_de</text>
<polygon fill="none" stroke="black" points="237.5,-475 237.5,-497 343.5,-497 343.5,-475 237.5,-475"/>
<text text-anchor="start" x="240.5" y="-483.2" font-family="Helvetica,sans-Serif" font-size="11.00">varchar[100]</text>
<polygon fill="none" stroke="black" points="10.5,-453 10.5,-475 237.5,-475 237.5,-453 10.5,-453"/>
<text text-anchor="start" x="30.5" y="-461.2" font-family="Helvetica,sans-Serif" font-size="11.00">value_fr</text>
<polygon fill="none" stroke="black" points="237.5,-453 237.5,-475 343.5,-475 343.5,-453 237.5,-453"/>
<text text-anchor="start" x="240.5" y="-461.2" font-family="Helvetica,sans-Serif" font-size="11.00">varchar[100]</text>
<polygon fill="none" stroke="black" points="10.5,-431 10.5,-453 237.5,-453 237.5,-431 10.5,-431"/>
<text text-anchor="start" x="30.5" y="-439.2" font-family="Helvetica,sans-Serif" font-size="11.00">value_it</text>
<polygon fill="none" stroke="black" points="237.5,-431 237.5,-453 343.5,-453 343.5,-431 237.5,-431"/>
<text text-anchor="start" x="240.5" y="-439.2" font-family="Helvetica,sans-Serif" font-size="11.00">varchar[100]</text>
<polygon fill="none" stroke="black" points="10.5,-409 10.5,-431 237.5,-431 237.5,-409 10.5,-409"/>
<text text-anchor="start" x="30.5" y="-417.2" font-family="Helvetica,sans-Serif" font-size="11.00">value_ro</text>
<polygon fill="none" stroke="black" points="237.5,-409 237.5,-431 343.5,-431 343.5,-409 237.5,-409"/>
<text text-anchor="start" x="240.5" y="-417.2" font-family="Helvetica,sans-Serif" font-size="11.00">varchar[100]</text>
<polygon fill="none" stroke="black" points="10.5,-387 10.5,-409 237.5,-409 237.5,-387 10.5,-387"/>
<text text-anchor="start" x="30.5" y="-395.2" font-family="Helvetica,sans-Serif" font-size="11.00">abbr_en</text>
<polygon fill="none" stroke="black" points="237.5,-387 237.5,-409 343.5,-409 343.5,-387 237.5,-387"/>
<text text-anchor="start" x="240.5" y="-395.2" font-family="Helvetica,sans-Serif" font-size="11.00">varchar[3]</text>
<polygon fill="none" stroke="black" points="10.5,-365 10.5,-387 237.5,-387 237.5,-365 10.5,-365"/>
<text text-anchor="start" x="30.5" y="-373.2" font-family="Helvetica,sans-Serif" font-size="11.00">abbr_de</text>
<polygon fill="none" stroke="black" points="237.5,-365 237.5,-387 343.5,-387 343.5,-365 237.5,-365"/>
<text text-anchor="start" x="240.5" y="-373.2" font-family="Helvetica,sans-Serif" font-size="11.00">varchar[3]</text>
<polygon fill="none" stroke="black" points="10.5,-343 10.5,-365 237.5,-365 237.5,-343 10.5,-343"/>
<text text-anchor="start" x="30.5" y="-351.2" font-family="Helvetica,sans-Serif" font-size="11.00">abbr_fr</text>
<polygon fill="none" stroke="black" points="237.5,-343 237.5,-365 343.5,-365 343.5,-343 237.5,-343"/>
<text text-anchor="start" x="240.5" y="-351.2" font-family="Helvetica,sans-Serif" font-size="11.00">varchar[3]</text>
<polygon fill="none" stroke="black" points="10.5,-321 10.5,-343 237.5,-343 237.5,-321 10.5,-321"/>
<text text-anchor="start" x="30.5" y="-329.2" font-family="Helvetica,sans-Serif" font-size="11.00">abbr_it</text>
<polygon fill="none" stroke="black" points="237.5,-321 237.5,-343 343.5,-343 343.5,-321 237.5,-321"/>
<text text-anchor="start" x="240.5" y="-329.2" font-family="Helvetica,sans-Serif" font-size="11.00">varchar[3]</text>
<polygon fill="none" stroke="black" points="10.5,-299 10.5,-321 237.5,-321 237.5,-299 10.5,-299"/>
<text text-anchor="start" x="30.5" y="-307.2" font-family="Helvetica,sans-Serif" font-size="11.00">abbr_ro</text>
<polygon fill="none" stroke="black" points="237.5,-299 237.5,-321 343.5,-321 343.5,-299 237.5,-299"/>
<text text-anchor="start" x="240.5" y="-307.2" font-family="Helvetica,sans-Serif" font-size="11.00">varchar[3]</text>
<polygon fill="none" stroke="black" points="10.5,-277 10.5,-299 237.5,-299 237.5,-277 10.5,-277"/>
<text text-anchor="start" x="30.5" y="-285.2" font-family="Helvetica,sans-Serif" font-size="11.00">active</text>
<polygon fill="none" stroke="black" points="237.5,-277 237.5,-299 343.5,-299 343.5,-277 237.5,-277"/>
<text text-anchor="start" x="240.5" y="-285.2" font-family="Helvetica,sans-Serif" font-size="11.00">bool[1]</text>
<polygon fill="none" stroke="black" points="10.5,-255 10.5,-277 237.5,-277 237.5,-255 10.5,-255"/>
<text text-anchor="start" x="30.5" y="-263.2" font-family="Helvetica,sans-Serif" font-size="11.00">description_en</text>
<polygon fill="none" stroke="black" points="237.5,-255 237.5,-277 343.5,-277 343.5,-255 237.5,-255"/>
<text text-anchor="start" x="240.5" y="-263.2" font-family="Helvetica,sans-Serif" font-size="11.00">text[2147483647]</text>
<polygon fill="none" stroke="black" points="10.5,-233 10.5,-255 237.5,-255 237.5,-233 10.5,-233"/>
<text text-anchor="start" x="30.5" y="-241.2" font-family="Helvetica,sans-Serif" font-size="11.00">description_de</text>
<polygon fill="none" stroke="black" points="237.5,-233 237.5,-255 343.5,-255 343.5,-233 237.5,-233"/>
<text text-anchor="start" x="240.5" y="-241.2" font-family="Helvetica,sans-Serif" font-size="11.00">text[2147483647]</text>
<polygon fill="none" stroke="black" points="10.5,-211 10.5,-233 237.5,-233 237.5,-211 10.5,-211"/>
<text text-anchor="start" x="30.5" y="-219.2" font-family="Helvetica,sans-Serif" font-size="11.00">description_fr</text>
<polygon fill="none" stroke="black" points="237.5,-211 237.5,-233 343.5,-233 343.5,-211 237.5,-211"/>
<text text-anchor="start" x="240.5" y="-219.2" font-family="Helvetica,sans-Serif" font-size="11.00">text[2147483647]</text>
<polygon fill="none" stroke="black" points="10.5,-189 10.5,-211 237.5,-211 237.5,-189 10.5,-189"/>
<text text-anchor="start" x="30.5" y="-197.2" font-family="Helvetica,sans-Serif" font-size="11.00">description_it</text>
<polygon fill="none" stroke="black" points="237.5,-189 237.5,-211 343.5,-211 343.5,-189 237.5,-189"/>
<text text-anchor="start" x="240.5" y="-197.2" font-family="Helvetica,sans-Serif" font-size="11.00">text[2147483647]</text>
<polygon fill="none" stroke="black" points="10.5,-167 10.5,-189 237.5,-189 237.5,-167 10.5,-167"/>
<text text-anchor="start" x="30.5" y="-175.2" font-family="Helvetica,sans-Serif" font-size="11.00">description_ro</text>
<polygon fill="none" stroke="black" points="237.5,-167 237.5,-189 343.5,-189 343.5,-167 237.5,-167"/>
<text text-anchor="start" x="240.5" y="-175.2" font-family="Helvetica,sans-Serif" font-size="11.00">text[2147483647]</text>
<polygon fill="none" stroke="black" points="10.5,-145 10.5,-167 237.5,-167 237.5,-145 10.5,-145"/>
<text text-anchor="start" x="30.5" y="-153.2" font-family="Helvetica,sans-Serif" font-size="11.00">display_en</text>
<polygon fill="none" stroke="black" points="237.5,-145 237.5,-167 343.5,-167 343.5,-145 237.5,-145"/>
<text text-anchor="start" x="240.5" y="-153.2" font-family="Helvetica,sans-Serif" font-size="11.00">varchar[100]</text>
<polygon fill="none" stroke="black" points="10.5,-123 10.5,-145 237.5,-145 237.5,-123 10.5,-123"/>
<text text-anchor="start" x="30.5" y="-131.2" font-family="Helvetica,sans-Serif" font-size="11.00">display_de</text>
<polygon fill="none" stroke="black" points="237.5,-123 237.5,-145 343.5,-145 343.5,-123 237.5,-123"/>
<text text-anchor="start" x="240.5" y="-131.2" font-family="Helvetica,sans-Serif" font-size="11.00">varchar[100]</text>
<polygon fill="none" stroke="black" points="10.5,-101 10.5,-123 237.5,-123 237.5,-101 10.5,-101"/>
<text text-anchor="start" x="30.5" y="-109.2" font-family="Helvetica,sans-Serif" font-size="11.00">display_fr</text>
<polygon fill="none" stroke="black" points="237.5,-101 237.5,-123 343.5,-123 343.5,-101 237.5,-101"/>
<text text-anchor="start" x="240.5" y="-109.2" font-family="Helvetica,sans-Serif" font-size="11.00">varchar[100]</text>
<polygon fill="none" stroke="black" points="10.5,-79 10.5,-101 237.5,-101 237.5,-79 10.5,-79"/>
<text text-anchor="start" x="30.5" y="-87.2" font-family="Helvetica,sans-Serif" font-size="11.00">display_it</text>
<polygon fill="none" stroke="black" points="237.5,-79 237.5,-101 343.5,-101 343.5,-79 237.5,-79"/>
<text text-anchor="start" x="240.5" y="-87.2" font-family="Helvetica,sans-Serif" font-size="11.00">varchar[100]</text>
<polygon fill="none" stroke="black" points="10.5,-57 10.5,-79 237.5,-79 237.5,-57 10.5,-57"/>
<text text-anchor="start" x="30.5" y="-65.2" font-family="Helvetica,sans-Serif" font-size="11.00">display_ro</text>
<polygon fill="none" stroke="black" points="237.5,-57 237.5,-79 343.5,-79 343.5,-57 237.5,-57"/>
<text text-anchor="start" x="240.5" y="-65.2" font-family="Helvetica,sans-Serif" font-size="11.00">varchar[100]</text>
<polygon fill="#ffffff" stroke="transparent" points="10.5,-39 10.5,-57 343.5,-57 343.5,-39 10.5,-39"/>
<polygon fill="none" stroke="black" points="10.5,-39 10.5,-57 343.5,-57 343.5,-39 10.5,-39"/>
<polygon fill="#ffffff" stroke="transparent" points="11.5,-40 11.5,-56 126.5,-56 126.5,-40 11.5,-40"/>
<text text-anchor="start" x="13.5" y="-45.2" font-family="Helvetica,sans-Serif" font-size="11.00">&lt; 0</text>
<polygon fill="#ffffff" stroke="transparent" points="126.5,-40 126.5,-56 228.5,-56 228.5,-40 126.5,-40"/>
<text text-anchor="start" x="173.5" y="-45.2" font-family="Helvetica,sans-Serif" font-size="11.00"> &#160;</text>
<polygon fill="#ffffff" stroke="transparent" points="228.5,-40 228.5,-56 342.5,-56 342.5,-40 228.5,-40"/>
<text text-anchor="start" x="320.5" y="-45.2" font-family="Helvetica,sans-Serif" font-size="11.00">1 &gt;</text>
<polygon fill="black" stroke="black" points="126.5,-40 126.5,-56 126.5,-56 126.5,-40 126.5,-40"/>
<polygon fill="black" stroke="black" points="228.5,-40 228.5,-56 228.5,-56 228.5,-40 228.5,-40"/>
<polygon fill="none" stroke="black" stroke-width="2" points="9,-38 9,-586 344,-586 344,-38 9,-38"/>
</a>
</g>
</g>
<!-- tww_od.sia405cc_cable_point&#45;&gt;sia405cc_cable_point_status -->
<g id="edge1" class="edge">
<title>tww_od.sia405cc_cable_point:w&#45;&gt;sia405cc_cable_point_status:e</title>
<path fill="none" stroke="black" d="M378.28,-552C367.29,-552 360.16,-552 344.5,-552"/>
<polygon fill="black" stroke="black" points="385,-552 393,-555.6 389,-552 393,-552 393,-552 393,-552 389,-552 393,-548.4 385,-552 385,-552"/>
<ellipse fill="none" stroke="black" cx="381.8" cy="-552" rx="3.2" ry="3.2"/>
</g>
</g>
</svg>
