<?xml version="1.0" encoding="UTF-8" standalone="no"?>
<!DOCTYPE svg PUBLIC "-//W3C//DTD SVG 1.1//EN"
 "http://www.w3.org/Graphics/SVG/1.1/DTD/svg11.dtd">
<!-- Generated by graphviz version 2.47.1 (20210515.0534)
 -->
<!-- Title: oneDegreeRelationshipsDiagram Pages: 1 -->
<svg width="654pt" height="399pt"
 viewBox="0.00 0.00 654.00 399.00" xmlns="http://www.w3.org/2000/svg" xmlns:xlink="http://www.w3.org/1999/xlink">
<g id="graph0" class="graph" transform="scale(1 1) rotate(0) translate(4 395)">
<title>oneDegreeRelationshipsDiagram</title>
<polygon fill="#ffffff" stroke="transparent" points="-4,4 -4,-395 650,-395 650,4 -4,4"/>
<text text-anchor="middle" x="73.5" y="-7.2" font-family="Helvetica,sans-Serif" font-size="11.00">Generated by SchemaSpy</text>
<!-- tww_od.small_treatment_plant -->
<g id="node1" class="node">
<title>tww_od.small_treatment_plant</title>
<g id="a_node1"><a xlink:href="../../../tww_od/tables/small_treatment_plant.html" xlink:title="tww_od.small_treatment_plant" target="_top">
<polygon fill="#ffffff" stroke="transparent" points="409,-285 409,-387 638,-387 638,-285 409,-285"/>
<polygon fill="#f5f5f5" stroke="transparent" points="409.5,-365 409.5,-387 638.5,-387 638.5,-365 409.5,-365"/>
<polygon fill="none" stroke="black" points="409.5,-365 409.5,-387 638.5,-387 638.5,-365 409.5,-365"/>
<text text-anchor="start" x="414.5" y="-374.2" font-family="Helvetica,sans-Serif" font-weight="bold" font-size="11.00">tww_od.small_treatment_plant</text>
<text text-anchor="start" x="599.5" y="-373.2" font-family="Helvetica,sans-Serif" font-size="11.00">[table]</text>
<polygon fill="none" stroke="black" points="409.5,-343 409.5,-365 638.5,-365 638.5,-343 409.5,-343"/>
<image xlink:href="../../images/foreignKeys.png" width="11px" height="12px" preserveAspectRatio="xMinYMin meet" x="414.5" y="-360"/>
<text text-anchor="start" x="466.5" y="-351.2" font-family="Helvetica,sans-Serif" font-size="11.00">function</text>
<polygon fill="none" stroke="black" points="409.5,-321 409.5,-343 638.5,-343 638.5,-321 409.5,-321"/>
<image xlink:href="../../images/foreignKeys.png" width="11px" height="12px" preserveAspectRatio="xMinYMin meet" x="414.5" y="-338"/>
<text text-anchor="start" x="466.5" y="-329.2" font-family="Helvetica,sans-Serif" font-size="11.00">remote_monitoring</text>
<polygon fill="none" stroke="black" points="409.5,-303 409.5,-321 638.5,-321 638.5,-303 409.5,-303"/>
<text text-anchor="start" x="412.5" y="-309.2" font-family="Helvetica,sans-Serif" font-size="11.00">...</text>
<polygon fill="#ffffff" stroke="transparent" points="409.5,-285 409.5,-303 508.5,-303 508.5,-285 409.5,-285"/>
<polygon fill="none" stroke="black" points="409.5,-285 409.5,-303 508.5,-303 508.5,-285 409.5,-285"/>
<text text-anchor="start" x="412.5" y="-291.2" font-family="Helvetica,sans-Serif" font-size="11.00">&lt; 2</text>
<polygon fill="#ffffff" stroke="transparent" points="508.5,-285 508.5,-303 586.5,-303 586.5,-285 508.5,-285"/>
<polygon fill="none" stroke="black" points="508.5,-285 508.5,-303 586.5,-303 586.5,-285 508.5,-285"/>
<text text-anchor="start" x="549.5" y="-291.2" font-family="Helvetica,sans-Serif" font-size="11.00">0 rows</text>
<polygon fill="#ffffff" stroke="transparent" points="586.5,-285 586.5,-303 638.5,-303 638.5,-285 586.5,-285"/>
<polygon fill="none" stroke="black" points="586.5,-285 586.5,-303 638.5,-303 638.5,-285 586.5,-285"/>
<text text-anchor="start" x="628.5" y="-291.2" font-family="Helvetica,sans-Serif" font-size="11.00"> &#160;</text>
</a>
</g>
</g>
<!-- small_treatment_plant_remote_monitoring -->
<g id="node2" class="node">
<title>small_treatment_plant_remote_monitoring</title>
<g id="a_node2"><a xlink:href="../../tables/small_treatment_plant_remote_monitoring.html" xlink:title="small_treatment_plant_remote_monitoring" target="_top">
<polygon fill="#ffffff" stroke="transparent" points="8,-37 8,-367 360,-367 360,-37 8,-37"/>
<polygon fill="#f5f5f5" stroke="transparent" points="10,-343 10,-365 358,-365 358,-343 10,-343"/>
<polygon fill="none" stroke="black" points="10,-343 10,-365 358,-365 358,-343 10,-343"/>
<text text-anchor="start" x="15" y="-352.2" font-family="Helvetica,sans-Serif" font-weight="bold" font-size="11.00">small_treatment_plant_remote_monitoring</text>
<text text-anchor="start" x="319" y="-351.2" font-family="Helvetica,sans-Serif" font-size="11.00">[table]</text>
<polygon fill="none" stroke="black" points="10,-321 10,-343 288,-343 288,-321 10,-321"/>
<image xlink:href="../../images/primaryKeys.png" width="11px" height="12px" preserveAspectRatio="xMinYMin meet" x="15" y="-338"/>
<text text-anchor="start" x="30" y="-329.2" font-family="Helvetica,sans-Serif" font-size="11.00">code</text>
<polygon fill="none" stroke="black" points="288,-321 288,-343 358,-343 358,-321 288,-321"/>
<text text-anchor="start" x="291" y="-329.2" font-family="Helvetica,sans-Serif" font-size="11.00">int4[10]</text>
<polygon fill="none" stroke="black" points="10,-299 10,-321 288,-321 288,-299 10,-299"/>
<text text-anchor="start" x="30" y="-307.2" font-family="Helvetica,sans-Serif" font-size="11.00">vsacode</text>
<polygon fill="none" stroke="black" points="288,-299 288,-321 358,-321 358,-299 288,-299"/>
<text text-anchor="start" x="291" y="-307.2" font-family="Helvetica,sans-Serif" font-size="11.00">int4[10]</text>
<polygon fill="none" stroke="black" points="10,-277 10,-299 288,-299 288,-277 10,-277"/>
<text text-anchor="start" x="30" y="-285.2" font-family="Helvetica,sans-Serif" font-size="11.00">value_en</text>
<polygon fill="none" stroke="black" points="288,-277 288,-299 358,-299 358,-277 288,-277"/>
<text text-anchor="start" x="291" y="-285.2" font-family="Helvetica,sans-Serif" font-size="11.00">varchar[100]</text>
<polygon fill="none" stroke="black" points="10,-255 10,-277 288,-277 288,-255 10,-255"/>
<text text-anchor="start" x="30" y="-263.2" font-family="Helvetica,sans-Serif" font-size="11.00">value_de</text>
<polygon fill="none" stroke="black" points="288,-255 288,-277 358,-277 358,-255 288,-255"/>
<text text-anchor="start" x="291" y="-263.2" font-family="Helvetica,sans-Serif" font-size="11.00">varchar[100]</text>
<polygon fill="none" stroke="black" points="10,-233 10,-255 288,-255 288,-233 10,-233"/>
<text text-anchor="start" x="30" y="-241.2" font-family="Helvetica,sans-Serif" font-size="11.00">value_fr</text>
<polygon fill="none" stroke="black" points="288,-233 288,-255 358,-255 358,-233 288,-233"/>
<text text-anchor="start" x="291" y="-241.2" font-family="Helvetica,sans-Serif" font-size="11.00">varchar[100]</text>
<polygon fill="none" stroke="black" points="10,-211 10,-233 288,-233 288,-211 10,-211"/>
<text text-anchor="start" x="30" y="-219.2" font-family="Helvetica,sans-Serif" font-size="11.00">value_it</text>
<polygon fill="none" stroke="black" points="288,-211 288,-233 358,-233 358,-211 288,-211"/>
<text text-anchor="start" x="291" y="-219.2" font-family="Helvetica,sans-Serif" font-size="11.00">varchar[100]</text>
<polygon fill="none" stroke="black" points="10,-189 10,-211 288,-211 288,-189 10,-189"/>
<text text-anchor="start" x="30" y="-197.2" font-family="Helvetica,sans-Serif" font-size="11.00">value_ro</text>
<polygon fill="none" stroke="black" points="288,-189 288,-211 358,-211 358,-189 288,-189"/>
<text text-anchor="start" x="291" y="-197.2" font-family="Helvetica,sans-Serif" font-size="11.00">varchar[100]</text>
<polygon fill="none" stroke="black" points="10,-167 10,-189 288,-189 288,-167 10,-167"/>
<text text-anchor="start" x="30" y="-175.2" font-family="Helvetica,sans-Serif" font-size="11.00">abbr_en</text>
<polygon fill="none" stroke="black" points="288,-167 288,-189 358,-189 358,-167 288,-167"/>
<text text-anchor="start" x="291" y="-175.2" font-family="Helvetica,sans-Serif" font-size="11.00">varchar[3]</text>
<polygon fill="none" stroke="black" points="10,-145 10,-167 288,-167 288,-145 10,-145"/>
<text text-anchor="start" x="30" y="-153.2" font-family="Helvetica,sans-Serif" font-size="11.00">abbr_de</text>
<polygon fill="none" stroke="black" points="288,-145 288,-167 358,-167 358,-145 288,-145"/>
<text text-anchor="start" x="291" y="-153.2" font-family="Helvetica,sans-Serif" font-size="11.00">varchar[3]</text>
<polygon fill="none" stroke="black" points="10,-123 10,-145 288,-145 288,-123 10,-123"/>
<text text-anchor="start" x="30" y="-131.2" font-family="Helvetica,sans-Serif" font-size="11.00">abbr_fr</text>
<polygon fill="none" stroke="black" points="288,-123 288,-145 358,-145 358,-123 288,-123"/>
<text text-anchor="start" x="291" y="-131.2" font-family="Helvetica,sans-Serif" font-size="11.00">varchar[3]</text>
<polygon fill="none" stroke="black" points="10,-101 10,-123 288,-123 288,-101 10,-101"/>
<text text-anchor="start" x="30" y="-109.2" font-family="Helvetica,sans-Serif" font-size="11.00">abbr_it</text>
<polygon fill="none" stroke="black" points="288,-101 288,-123 358,-123 358,-101 288,-101"/>
<text text-anchor="start" x="291" y="-109.2" font-family="Helvetica,sans-Serif" font-size="11.00">varchar[3]</text>
<polygon fill="none" stroke="black" points="10,-79 10,-101 288,-101 288,-79 10,-79"/>
<text text-anchor="start" x="30" y="-87.2" font-family="Helvetica,sans-Serif" font-size="11.00">abbr_ro</text>
<polygon fill="none" stroke="black" points="288,-79 288,-101 358,-101 358,-79 288,-79"/>
<text text-anchor="start" x="291" y="-87.2" font-family="Helvetica,sans-Serif" font-size="11.00">varchar[3]</text>
<polygon fill="none" stroke="black" points="10,-57 10,-79 288,-79 288,-57 10,-57"/>
<text text-anchor="start" x="30" y="-65.2" font-family="Helvetica,sans-Serif" font-size="11.00">active</text>
<polygon fill="none" stroke="black" points="288,-57 288,-79 358,-79 358,-57 288,-57"/>
<text text-anchor="start" x="291" y="-65.2" font-family="Helvetica,sans-Serif" font-size="11.00">bool[1]</text>
<polygon fill="#ffffff" stroke="transparent" points="10,-39 10,-57 153,-57 153,-39 10,-39"/>
<polygon fill="none" stroke="black" points="10,-39 10,-57 153,-57 153,-39 10,-39"/>
<text text-anchor="start" x="13" y="-45.2" font-family="Helvetica,sans-Serif" font-size="11.00">&lt; 0</text>
<polygon fill="#ffffff" stroke="transparent" points="153,-39 153,-57 288,-57 288,-39 153,-39"/>
<polygon fill="none" stroke="black" points="153,-39 153,-57 288,-57 288,-39 153,-39"/>
<text text-anchor="start" x="278" y="-45.2" font-family="Helvetica,sans-Serif" font-size="11.00"> &#160;</text>
<polygon fill="#ffffff" stroke="transparent" points="288,-39 288,-57 358,-57 358,-39 288,-39"/>
<polygon fill="none" stroke="black" points="288,-39 288,-57 358,-57 358,-39 288,-39"/>
<text text-anchor="start" x="339" y="-45.2" font-family="Helvetica,sans-Serif" font-size="11.00">1 &gt;</text>
<polygon fill="none" stroke="black" stroke-width="2" points="9,-38 9,-366 359,-366 359,-38 9,-38"/>
</a>
</g>
</g>
<!-- tww_od.small_treatment_plant&#45;&gt;small_treatment_plant_remote_monitoring -->
<g id="edge1" class="edge">
<title>tww_od.small_treatment_plant:w&#45;&gt;small_treatment_plant_remote_monitoring:e</title>
<path fill="none" stroke="black" d="M393.84,-332C382.41,-332 375.16,-332 359,-332"/>
<polygon fill="black" stroke="black" points="400.5,-332 408.5,-335.6 404.5,-332 408.5,-332 408.5,-332 408.5,-332 404.5,-332 408.5,-328.4 400.5,-332 400.5,-332"/>
<ellipse fill="none" stroke="black" cx="397.3" cy="-332" rx="3.2" ry="3.2"/>
</g>
</g>
</svg>
