<?xml version="1.0" encoding="UTF-8" standalone="no"?>
<!DOCTYPE svg PUBLIC "-//W3C//DTD SVG 1.1//EN"
 "http://www.w3.org/Graphics/SVG/1.1/DTD/svg11.dtd">
<!-- Generated by graphviz version 2.43.0 (0)
 -->
<!-- Title: oneDegreeRelationshipsDiagram Pages: 1 -->
<svg width="785pt" height="619pt"
 viewBox="0.00 0.00 785.00 619.00" xmlns="http://www.w3.org/2000/svg" xmlns:xlink="http://www.w3.org/1999/xlink">
<g id="graph0" class="graph" transform="scale(1 1) rotate(0) translate(4 615)">
<title>oneDegreeRelationshipsDiagram</title>
<polygon fill="#ffffff" stroke="transparent" points="-4,4 -4,-615 781,-615 781,4 -4,4"/>
<text text-anchor="middle" x="79.5" y="-7.2" font-family="Helvetica,sans-Serif" font-size="11.00">Generated by SchemaSpy</text>
<!-- tww_od.small_treatment_plant -->
<g id="node1" class="node">
<title>tww_od.small_treatment_plant</title>
<g id="a_node1"><a xlink:href="../../../tww_od/tables/small_treatment_plant.html" xlink:title="tww_od.small_treatment_plant" target="_top">
<polygon fill="#ffffff" stroke="transparent" points="498,-505 498,-607 769,-607 769,-505 498,-505"/>
<polygon fill="#f5f5f5" stroke="transparent" points="498.5,-585 498.5,-607 769.5,-607 769.5,-585 498.5,-585"/>
<polygon fill="none" stroke="black" points="498.5,-585 498.5,-607 769.5,-607 769.5,-585 498.5,-585"/>
<text text-anchor="start" x="503.5" y="-594.2" font-family="Helvetica,sans-Serif" font-weight="bold" font-size="11.00">tww_od.small_treatment_plant</text>
<text text-anchor="start" x="727.5" y="-593.2" font-family="Helvetica,sans-Serif" font-size="11.00">[table]</text>
<polygon fill="none" stroke="black" points="498.5,-563 498.5,-585 769.5,-585 769.5,-563 498.5,-563"/>
<image xlink:href="../../images/foreignKeys.png" width="11px" height="12px" preserveAspectRatio="xMinYMin meet" x="503.5" y="-580"/>
<text text-anchor="start" x="561.5" y="-571.2" font-family="Helvetica,sans-Serif" font-size="11.00">function</text>
<polygon fill="none" stroke="black" points="498.5,-541 498.5,-563 769.5,-563 769.5,-541 498.5,-541"/>
<image xlink:href="../../images/foreignKeys.png" width="11px" height="12px" preserveAspectRatio="xMinYMin meet" x="503.5" y="-558"/>
<text text-anchor="start" x="561.5" y="-549.2" font-family="Helvetica,sans-Serif" font-size="11.00">remote_monitoring</text>
<polygon fill="none" stroke="black" points="498.5,-523 498.5,-541 769.5,-541 769.5,-523 498.5,-523"/>
<text text-anchor="start" x="501.5" y="-529.2" font-family="Helvetica,sans-Serif" font-size="11.00">...</text>
<polygon fill="#ffffff" stroke="transparent" points="498.5,-505 498.5,-523 769.5,-523 769.5,-505 498.5,-505"/>
<polygon fill="none" stroke="black" points="498.5,-505 498.5,-523 769.5,-523 769.5,-505 498.5,-505"/>
<polygon fill="#ffffff" stroke="transparent" points="499.5,-506 499.5,-522 587.5,-522 587.5,-506 499.5,-506"/>
<text text-anchor="start" x="501.5" y="-511.2" font-family="Helvetica,sans-Serif" font-size="11.00">&lt; 2</text>
<polygon fill="#ffffff" stroke="transparent" points="587.5,-506 587.5,-522 692.5,-522 692.5,-506 587.5,-506"/>
<text text-anchor="start" x="621.5" y="-511.2" font-family="Helvetica,sans-Serif" font-size="11.00">0 rows</text>
<polygon fill="#ffffff" stroke="transparent" points="692.5,-506 692.5,-522 768.5,-522 768.5,-506 692.5,-506"/>
<text text-anchor="start" x="758.5" y="-511.2" font-family="Helvetica,sans-Serif" font-size="11.00"> &#160;</text>
<polygon fill="black" stroke="black" points="587.5,-506 587.5,-522 587.5,-522 587.5,-506 587.5,-506"/>
<polygon fill="black" stroke="black" points="692.5,-506 692.5,-522 692.5,-522 692.5,-506 692.5,-506"/>
</a>
</g>
</g>
<!-- small_treatment_plant_remote_monitoring -->
<g id="node2" class="node">
<title>small_treatment_plant_remote_monitoring</title>
<g id="a_node2"><a xlink:href="../../tables/small_treatment_plant_remote_monitoring.html" xlink:title="small_treatment_plant_remote_monitoring" target="_top">
<polygon fill="#ffffff" stroke="transparent" points="8,-37 8,-587 449,-587 449,-37 8,-37"/>
<polygon fill="#f5f5f5" stroke="transparent" points="10.5,-563 10.5,-585 447.5,-585 447.5,-563 10.5,-563"/>
<polygon fill="none" stroke="black" points="10.5,-563 10.5,-585 447.5,-585 447.5,-563 10.5,-563"/>
<text text-anchor="start" x="15.5" y="-572.2" font-family="Helvetica,sans-Serif" font-weight="bold" font-size="11.00">small_treatment_plant_remote_monitoring</text>
<text text-anchor="start" x="405.5" y="-571.2" font-family="Helvetica,sans-Serif" font-size="11.00">[table]</text>
<polygon fill="none" stroke="black" points="10.5,-541 10.5,-563 341.5,-563 341.5,-541 10.5,-541"/>
<image xlink:href="../../images/primaryKeys.png" width="11px" height="12px" preserveAspectRatio="xMinYMin meet" x="15.5" y="-558"/>
<text text-anchor="start" x="30.5" y="-549.2" font-family="Helvetica,sans-Serif" font-size="11.00">code</text>
<polygon fill="none" stroke="black" points="341.5,-541 341.5,-563 447.5,-563 447.5,-541 341.5,-541"/>
<text text-anchor="start" x="344.5" y="-549.2" font-family="Helvetica,sans-Serif" font-size="11.00">int4[10]</text>
<polygon fill="none" stroke="black" points="10.5,-519 10.5,-541 341.5,-541 341.5,-519 10.5,-519"/>
<text text-anchor="start" x="30.5" y="-527.2" font-family="Helvetica,sans-Serif" font-size="11.00">vsacode</text>
<polygon fill="none" stroke="black" points="341.5,-519 341.5,-541 447.5,-541 447.5,-519 341.5,-519"/>
<text text-anchor="start" x="344.5" y="-527.2" font-family="Helvetica,sans-Serif" font-size="11.00">int4[10]</text>
<polygon fill="none" stroke="black" points="10.5,-497 10.5,-519 341.5,-519 341.5,-497 10.5,-497"/>
<text text-anchor="start" x="30.5" y="-505.2" font-family="Helvetica,sans-Serif" font-size="11.00">value_en</text>
<polygon fill="none" stroke="black" points="341.5,-497 341.5,-519 447.5,-519 447.5,-497 341.5,-497"/>
<text text-anchor="start" x="344.5" y="-505.2" font-family="Helvetica,sans-Serif" font-size="11.00">varchar[100]</text>
<polygon fill="none" stroke="black" points="10.5,-475 10.5,-497 341.5,-497 341.5,-475 10.5,-475"/>
<text text-anchor="start" x="30.5" y="-483.2" font-family="Helvetica,sans-Serif" font-size="11.00">value_de</text>
<polygon fill="none" stroke="black" points="341.5,-475 341.5,-497 447.5,-497 447.5,-475 341.5,-475"/>
<text text-anchor="start" x="344.5" y="-483.2" font-family="Helvetica,sans-Serif" font-size="11.00">varchar[100]</text>
<polygon fill="none" stroke="black" points="10.5,-453 10.5,-475 341.5,-475 341.5,-453 10.5,-453"/>
<text text-anchor="start" x="30.5" y="-461.2" font-family="Helvetica,sans-Serif" font-size="11.00">value_fr</text>
<polygon fill="none" stroke="black" points="341.5,-453 341.5,-475 447.5,-475 447.5,-453 341.5,-453"/>
<text text-anchor="start" x="344.5" y="-461.2" font-family="Helvetica,sans-Serif" font-size="11.00">varchar[100]</text>
<polygon fill="none" stroke="black" points="10.5,-431 10.5,-453 341.5,-453 341.5,-431 10.5,-431"/>
<text text-anchor="start" x="30.5" y="-439.2" font-family="Helvetica,sans-Serif" font-size="11.00">value_it</text>
<polygon fill="none" stroke="black" points="341.5,-431 341.5,-453 447.5,-453 447.5,-431 341.5,-431"/>
<text text-anchor="start" x="344.5" y="-439.2" font-family="Helvetica,sans-Serif" font-size="11.00">varchar[100]</text>
<polygon fill="none" stroke="black" points="10.5,-409 10.5,-431 341.5,-431 341.5,-409 10.5,-409"/>
<text text-anchor="start" x="30.5" y="-417.2" font-family="Helvetica,sans-Serif" font-size="11.00">value_ro</text>
<polygon fill="none" stroke="black" points="341.5,-409 341.5,-431 447.5,-431 447.5,-409 341.5,-409"/>
<text text-anchor="start" x="344.5" y="-417.2" font-family="Helvetica,sans-Serif" font-size="11.00">varchar[100]</text>
<polygon fill="none" stroke="black" points="10.5,-387 10.5,-409 341.5,-409 341.5,-387 10.5,-387"/>
<text text-anchor="start" x="30.5" y="-395.2" font-family="Helvetica,sans-Serif" font-size="11.00">abbr_en</text>
<polygon fill="none" stroke="black" points="341.5,-387 341.5,-409 447.5,-409 447.5,-387 341.5,-387"/>
<text text-anchor="start" x="344.5" y="-395.2" font-family="Helvetica,sans-Serif" font-size="11.00">varchar[3]</text>
<polygon fill="none" stroke="black" points="10.5,-365 10.5,-387 341.5,-387 341.5,-365 10.5,-365"/>
<text text-anchor="start" x="30.5" y="-373.2" font-family="Helvetica,sans-Serif" font-size="11.00">abbr_de</text>
<polygon fill="none" stroke="black" points="341.5,-365 341.5,-387 447.5,-387 447.5,-365 341.5,-365"/>
<text text-anchor="start" x="344.5" y="-373.2" font-family="Helvetica,sans-Serif" font-size="11.00">varchar[3]</text>
<polygon fill="none" stroke="black" points="10.5,-343 10.5,-365 341.5,-365 341.5,-343 10.5,-343"/>
<text text-anchor="start" x="30.5" y="-351.2" font-family="Helvetica,sans-Serif" font-size="11.00">abbr_fr</text>
<polygon fill="none" stroke="black" points="341.5,-343 341.5,-365 447.5,-365 447.5,-343 341.5,-343"/>
<text text-anchor="start" x="344.5" y="-351.2" font-family="Helvetica,sans-Serif" font-size="11.00">varchar[3]</text>
<polygon fill="none" stroke="black" points="10.5,-321 10.5,-343 341.5,-343 341.5,-321 10.5,-321"/>
<text text-anchor="start" x="30.5" y="-329.2" font-family="Helvetica,sans-Serif" font-size="11.00">abbr_it</text>
<polygon fill="none" stroke="black" points="341.5,-321 341.5,-343 447.5,-343 447.5,-321 341.5,-321"/>
<text text-anchor="start" x="344.5" y="-329.2" font-family="Helvetica,sans-Serif" font-size="11.00">varchar[3]</text>
<polygon fill="none" stroke="black" points="10.5,-299 10.5,-321 341.5,-321 341.5,-299 10.5,-299"/>
<text text-anchor="start" x="30.5" y="-307.2" font-family="Helvetica,sans-Serif" font-size="11.00">abbr_ro</text>
<polygon fill="none" stroke="black" points="341.5,-299 341.5,-321 447.5,-321 447.5,-299 341.5,-299"/>
<text text-anchor="start" x="344.5" y="-307.2" font-family="Helvetica,sans-Serif" font-size="11.00">varchar[3]</text>
<polygon fill="none" stroke="black" points="10.5,-277 10.5,-299 341.5,-299 341.5,-277 10.5,-277"/>
<text text-anchor="start" x="30.5" y="-285.2" font-family="Helvetica,sans-Serif" font-size="11.00">active</text>
<polygon fill="none" stroke="black" points="341.5,-277 341.5,-299 447.5,-299 447.5,-277 341.5,-277"/>
<text text-anchor="start" x="344.5" y="-285.2" font-family="Helvetica,sans-Serif" font-size="11.00">bool[1]</text>
<polygon fill="none" stroke="black" points="10.5,-255 10.5,-277 341.5,-277 341.5,-255 10.5,-255"/>
<text text-anchor="start" x="30.5" y="-263.2" font-family="Helvetica,sans-Serif" font-size="11.00">description_en</text>
<polygon fill="none" stroke="black" points="341.5,-255 341.5,-277 447.5,-277 447.5,-255 341.5,-255"/>
<text text-anchor="start" x="344.5" y="-263.2" font-family="Helvetica,sans-Serif" font-size="11.00">text[2147483647]</text>
<polygon fill="none" stroke="black" points="10.5,-233 10.5,-255 341.5,-255 341.5,-233 10.5,-233"/>
<text text-anchor="start" x="30.5" y="-241.2" font-family="Helvetica,sans-Serif" font-size="11.00">description_de</text>
<polygon fill="none" stroke="black" points="341.5,-233 341.5,-255 447.5,-255 447.5,-233 341.5,-233"/>
<text text-anchor="start" x="344.5" y="-241.2" font-family="Helvetica,sans-Serif" font-size="11.00">text[2147483647]</text>
<polygon fill="none" stroke="black" points="10.5,-211 10.5,-233 341.5,-233 341.5,-211 10.5,-211"/>
<text text-anchor="start" x="30.5" y="-219.2" font-family="Helvetica,sans-Serif" font-size="11.00">description_fr</text>
<polygon fill="none" stroke="black" points="341.5,-211 341.5,-233 447.5,-233 447.5,-211 341.5,-211"/>
<text text-anchor="start" x="344.5" y="-219.2" font-family="Helvetica,sans-Serif" font-size="11.00">text[2147483647]</text>
<polygon fill="none" stroke="black" points="10.5,-189 10.5,-211 341.5,-211 341.5,-189 10.5,-189"/>
<text text-anchor="start" x="30.5" y="-197.2" font-family="Helvetica,sans-Serif" font-size="11.00">description_it</text>
<polygon fill="none" stroke="black" points="341.5,-189 341.5,-211 447.5,-211 447.5,-189 341.5,-189"/>
<text text-anchor="start" x="344.5" y="-197.2" font-family="Helvetica,sans-Serif" font-size="11.00">text[2147483647]</text>
<polygon fill="none" stroke="black" points="10.5,-167 10.5,-189 341.5,-189 341.5,-167 10.5,-167"/>
<text text-anchor="start" x="30.5" y="-175.2" font-family="Helvetica,sans-Serif" font-size="11.00">description_ro</text>
<polygon fill="none" stroke="black" points="341.5,-167 341.5,-189 447.5,-189 447.5,-167 341.5,-167"/>
<text text-anchor="start" x="344.5" y="-175.2" font-family="Helvetica,sans-Serif" font-size="11.00">text[2147483647]</text>
<polygon fill="none" stroke="black" points="10.5,-145 10.5,-167 341.5,-167 341.5,-145 10.5,-145"/>
<text text-anchor="start" x="30.5" y="-153.2" font-family="Helvetica,sans-Serif" font-size="11.00">display_en</text>
<polygon fill="none" stroke="black" points="341.5,-145 341.5,-167 447.5,-167 447.5,-145 341.5,-145"/>
<text text-anchor="start" x="344.5" y="-153.2" font-family="Helvetica,sans-Serif" font-size="11.00">varchar[100]</text>
<polygon fill="none" stroke="black" points="10.5,-123 10.5,-145 341.5,-145 341.5,-123 10.5,-123"/>
<text text-anchor="start" x="30.5" y="-131.2" font-family="Helvetica,sans-Serif" font-size="11.00">display_de</text>
<polygon fill="none" stroke="black" points="341.5,-123 341.5,-145 447.5,-145 447.5,-123 341.5,-123"/>
<text text-anchor="start" x="344.5" y="-131.2" font-family="Helvetica,sans-Serif" font-size="11.00">varchar[100]</text>
<polygon fill="none" stroke="black" points="10.5,-101 10.5,-123 341.5,-123 341.5,-101 10.5,-101"/>
<text text-anchor="start" x="30.5" y="-109.2" font-family="Helvetica,sans-Serif" font-size="11.00">display_fr</text>
<polygon fill="none" stroke="black" points="341.5,-101 341.5,-123 447.5,-123 447.5,-101 341.5,-101"/>
<text text-anchor="start" x="344.5" y="-109.2" font-family="Helvetica,sans-Serif" font-size="11.00">varchar[100]</text>
<polygon fill="none" stroke="black" points="10.5,-79 10.5,-101 341.5,-101 341.5,-79 10.5,-79"/>
<text text-anchor="start" x="30.5" y="-87.2" font-family="Helvetica,sans-Serif" font-size="11.00">display_it</text>
<polygon fill="none" stroke="black" points="341.5,-79 341.5,-101 447.5,-101 447.5,-79 341.5,-79"/>
<text text-anchor="start" x="344.5" y="-87.2" font-family="Helvetica,sans-Serif" font-size="11.00">varchar[100]</text>
<polygon fill="none" stroke="black" points="10.5,-57 10.5,-79 341.5,-79 341.5,-57 10.5,-57"/>
<text text-anchor="start" x="30.5" y="-65.2" font-family="Helvetica,sans-Serif" font-size="11.00">display_ro</text>
<polygon fill="none" stroke="black" points="341.5,-57 341.5,-79 447.5,-79 447.5,-57 341.5,-57"/>
<text text-anchor="start" x="344.5" y="-65.2" font-family="Helvetica,sans-Serif" font-size="11.00">varchar[100]</text>
<polygon fill="#ffffff" stroke="transparent" points="10.5,-39 10.5,-57 447.5,-57 447.5,-39 10.5,-39"/>
<polygon fill="none" stroke="black" points="10.5,-39 10.5,-57 447.5,-57 447.5,-39 10.5,-39"/>
<polygon fill="#ffffff" stroke="transparent" points="11.5,-40 11.5,-56 160.5,-56 160.5,-40 11.5,-40"/>
<text text-anchor="start" x="13.5" y="-45.2" font-family="Helvetica,sans-Serif" font-size="11.00">&lt; 0</text>
<polygon fill="#ffffff" stroke="transparent" points="160.5,-40 160.5,-56 297.5,-56 297.5,-40 160.5,-40"/>
<text text-anchor="start" x="225" y="-45.2" font-family="Helvetica,sans-Serif" font-size="11.00"> &#160;</text>
<polygon fill="#ffffff" stroke="transparent" points="297.5,-40 297.5,-56 446.5,-56 446.5,-40 297.5,-40"/>
<text text-anchor="start" x="424.5" y="-45.2" font-family="Helvetica,sans-Serif" font-size="11.00">1 &gt;</text>
<polygon fill="black" stroke="black" points="160.5,-40 160.5,-56 160.5,-56 160.5,-40 160.5,-40"/>
<polygon fill="black" stroke="black" points="297.5,-40 297.5,-56 297.5,-56 297.5,-40 297.5,-40"/>
<polygon fill="none" stroke="black" stroke-width="2" points="9,-38 9,-586 448,-586 448,-38 9,-38"/>
</a>
</g>
</g>
<!-- tww_od.small_treatment_plant&#45;&gt;small_treatment_plant_remote_monitoring -->
<g id="edge1" class="edge">
<title>tww_od.small_treatment_plant:w&#45;&gt;small_treatment_plant_remote_monitoring:e</title>
<path fill="none" stroke="black" d="M482.99,-552C471.68,-552 464.49,-552 448.5,-552"/>
<polygon fill="black" stroke="black" points="489.5,-552 497.5,-555.6 493.5,-552 497.5,-552 497.5,-552 497.5,-552 493.5,-552 497.5,-548.4 489.5,-552 489.5,-552"/>
<ellipse fill="none" stroke="black" cx="486.3" cy="-552" rx="3.2" ry="3.2"/>
</g>
</g>
</svg>
