<?xml version="1.0" encoding="UTF-8" standalone="no"?>
<!DOCTYPE svg PUBLIC "-//W3C//DTD SVG 1.1//EN"
 "http://www.w3.org/Graphics/SVG/1.1/DTD/svg11.dtd">
<!-- Generated by graphviz version 2.43.0 (0)
 -->
<!-- Title: oneDegreeRelationshipsDiagram Pages: 1 -->
<svg width="565pt" height="599pt"
 viewBox="0.00 0.00 565.00 599.00" xmlns="http://www.w3.org/2000/svg" xmlns:xlink="http://www.w3.org/1999/xlink">
<g id="graph0" class="graph" transform="scale(1 1) rotate(0) translate(4 595)">
<title>oneDegreeRelationshipsDiagram</title>
<polygon fill="#ffffff" stroke="transparent" points="-4,4 -4,-595 561,-595 561,4 -4,4"/>
<text text-anchor="middle" x="79.5" y="-7.2" font-family="Helvetica,sans-Serif" font-size="11.00">Generated by SchemaSpy</text>
<!-- tww_od.tank_emptying -->
<g id="node1" class="node">
<title>tww_od.tank_emptying</title>
<g id="a_node1"><a xlink:href="../../../tww_od/tables/tank_emptying.html" xlink:title="tww_od.tank_emptying" target="_top">
<polygon fill="#ffffff" stroke="transparent" points="334,-505 334,-585 549,-585 549,-505 334,-505"/>
<polygon fill="#f5f5f5" stroke="transparent" points="334.5,-563 334.5,-585 549.5,-585 549.5,-563 334.5,-563"/>
<polygon fill="none" stroke="black" points="334.5,-563 334.5,-585 549.5,-585 549.5,-563 334.5,-563"/>
<text text-anchor="start" x="339.5" y="-572.2" font-family="Helvetica,sans-Serif" font-weight="bold" font-size="11.00">tww_od.tank_emptying</text>
<text text-anchor="start" x="507.5" y="-571.2" font-family="Helvetica,sans-Serif" font-size="11.00">[table]</text>
<polygon fill="none" stroke="black" points="334.5,-541 334.5,-563 549.5,-563 549.5,-541 334.5,-541"/>
<image xlink:href="../../images/foreignKeys.png" width="11px" height="12px" preserveAspectRatio="xMinYMin meet" x="339.5" y="-558"/>
<text text-anchor="start" x="362.5" y="-549.2" font-family="Helvetica,sans-Serif" font-size="11.00">kind</text>
<polygon fill="none" stroke="black" points="334.5,-523 334.5,-541 549.5,-541 549.5,-523 334.5,-523"/>
<text text-anchor="start" x="337.5" y="-529.2" font-family="Helvetica,sans-Serif" font-size="11.00">...</text>
<polygon fill="#ffffff" stroke="transparent" points="334.5,-505 334.5,-523 549.5,-523 549.5,-505 334.5,-505"/>
<polygon fill="none" stroke="black" points="334.5,-505 334.5,-523 549.5,-523 549.5,-505 334.5,-505"/>
<polygon fill="#ffffff" stroke="transparent" points="335.5,-506 335.5,-522 405.5,-522 405.5,-506 335.5,-506"/>
<text text-anchor="start" x="337.5" y="-511.2" font-family="Helvetica,sans-Serif" font-size="11.00">&lt; 1</text>
<polygon fill="#ffffff" stroke="transparent" points="405.5,-506 405.5,-522 491.5,-522 491.5,-506 405.5,-506"/>
<text text-anchor="start" x="430" y="-511.2" font-family="Helvetica,sans-Serif" font-size="11.00">0 rows</text>
<polygon fill="#ffffff" stroke="transparent" points="491.5,-506 491.5,-522 548.5,-522 548.5,-506 491.5,-506"/>
<text text-anchor="start" x="538.5" y="-511.2" font-family="Helvetica,sans-Serif" font-size="11.00"> &#160;</text>
<polygon fill="black" stroke="black" points="405.5,-506 405.5,-522 405.5,-522 405.5,-506 405.5,-506"/>
<polygon fill="black" stroke="black" points="491.5,-506 491.5,-522 491.5,-522 491.5,-506 491.5,-506"/>
</a>
</g>
</g>
<!-- tank_emptying_kind -->
<g id="node2" class="node">
<title>tank_emptying_kind</title>
<g id="a_node2"><a xlink:href="../../tables/tank_emptying_kind.html" xlink:title="tank_emptying_kind" target="_top">
<polygon fill="#ffffff" stroke="transparent" points="8,-37 8,-587 285,-587 285,-37 8,-37"/>
<polygon fill="#f5f5f5" stroke="transparent" points="10.5,-563 10.5,-585 283.5,-585 283.5,-563 10.5,-563"/>
<polygon fill="none" stroke="black" points="10.5,-563 10.5,-585 283.5,-585 283.5,-563 10.5,-563"/>
<text text-anchor="start" x="15.5" y="-572.2" font-family="Helvetica,sans-Serif" font-weight="bold" font-size="11.00">tank_emptying_kind</text>
<text text-anchor="start" x="241.5" y="-571.2" font-family="Helvetica,sans-Serif" font-size="11.00">[table]</text>
<polygon fill="none" stroke="black" points="10.5,-541 10.5,-563 177.5,-563 177.5,-541 10.5,-541"/>
<image xlink:href="../../images/primaryKeys.png" width="11px" height="12px" preserveAspectRatio="xMinYMin meet" x="15.5" y="-558"/>
<text text-anchor="start" x="30.5" y="-549.2" font-family="Helvetica,sans-Serif" font-size="11.00">code</text>
<polygon fill="none" stroke="black" points="177.5,-541 177.5,-563 283.5,-563 283.5,-541 177.5,-541"/>
<text text-anchor="start" x="180.5" y="-549.2" font-family="Helvetica,sans-Serif" font-size="11.00">int4[10]</text>
<polygon fill="none" stroke="black" points="10.5,-519 10.5,-541 177.5,-541 177.5,-519 10.5,-519"/>
<text text-anchor="start" x="30.5" y="-527.2" font-family="Helvetica,sans-Serif" font-size="11.00">vsacode</text>
<polygon fill="none" stroke="black" points="177.5,-519 177.5,-541 283.5,-541 283.5,-519 177.5,-519"/>
<text text-anchor="start" x="180.5" y="-527.2" font-family="Helvetica,sans-Serif" font-size="11.00">int4[10]</text>
<polygon fill="none" stroke="black" points="10.5,-497 10.5,-519 177.5,-519 177.5,-497 10.5,-497"/>
<text text-anchor="start" x="30.5" y="-505.2" font-family="Helvetica,sans-Serif" font-size="11.00">value_en</text>
<polygon fill="none" stroke="black" points="177.5,-497 177.5,-519 283.5,-519 283.5,-497 177.5,-497"/>
<text text-anchor="start" x="180.5" y="-505.2" font-family="Helvetica,sans-Serif" font-size="11.00">varchar[100]</text>
<polygon fill="none" stroke="black" points="10.5,-475 10.5,-497 177.5,-497 177.5,-475 10.5,-475"/>
<text text-anchor="start" x="30.5" y="-483.2" font-family="Helvetica,sans-Serif" font-size="11.00">value_de</text>
<polygon fill="none" stroke="black" points="177.5,-475 177.5,-497 283.5,-497 283.5,-475 177.5,-475"/>
<text text-anchor="start" x="180.5" y="-483.2" font-family="Helvetica,sans-Serif" font-size="11.00">varchar[100]</text>
<polygon fill="none" stroke="black" points="10.5,-453 10.5,-475 177.5,-475 177.5,-453 10.5,-453"/>
<text text-anchor="start" x="30.5" y="-461.2" font-family="Helvetica,sans-Serif" font-size="11.00">value_fr</text>
<polygon fill="none" stroke="black" points="177.5,-453 177.5,-475 283.5,-475 283.5,-453 177.5,-453"/>
<text text-anchor="start" x="180.5" y="-461.2" font-family="Helvetica,sans-Serif" font-size="11.00">varchar[100]</text>
<polygon fill="none" stroke="black" points="10.5,-431 10.5,-453 177.5,-453 177.5,-431 10.5,-431"/>
<text text-anchor="start" x="30.5" y="-439.2" font-family="Helvetica,sans-Serif" font-size="11.00">value_it</text>
<polygon fill="none" stroke="black" points="177.5,-431 177.5,-453 283.5,-453 283.5,-431 177.5,-431"/>
<text text-anchor="start" x="180.5" y="-439.2" font-family="Helvetica,sans-Serif" font-size="11.00">varchar[100]</text>
<polygon fill="none" stroke="black" points="10.5,-409 10.5,-431 177.5,-431 177.5,-409 10.5,-409"/>
<text text-anchor="start" x="30.5" y="-417.2" font-family="Helvetica,sans-Serif" font-size="11.00">value_ro</text>
<polygon fill="none" stroke="black" points="177.5,-409 177.5,-431 283.5,-431 283.5,-409 177.5,-409"/>
<text text-anchor="start" x="180.5" y="-417.2" font-family="Helvetica,sans-Serif" font-size="11.00">varchar[100]</text>
<polygon fill="none" stroke="black" points="10.5,-387 10.5,-409 177.5,-409 177.5,-387 10.5,-387"/>
<text text-anchor="start" x="30.5" y="-395.2" font-family="Helvetica,sans-Serif" font-size="11.00">abbr_en</text>
<polygon fill="none" stroke="black" points="177.5,-387 177.5,-409 283.5,-409 283.5,-387 177.5,-387"/>
<text text-anchor="start" x="180.5" y="-395.2" font-family="Helvetica,sans-Serif" font-size="11.00">varchar[3]</text>
<polygon fill="none" stroke="black" points="10.5,-365 10.5,-387 177.5,-387 177.5,-365 10.5,-365"/>
<text text-anchor="start" x="30.5" y="-373.2" font-family="Helvetica,sans-Serif" font-size="11.00">abbr_de</text>
<polygon fill="none" stroke="black" points="177.5,-365 177.5,-387 283.5,-387 283.5,-365 177.5,-365"/>
<text text-anchor="start" x="180.5" y="-373.2" font-family="Helvetica,sans-Serif" font-size="11.00">varchar[3]</text>
<polygon fill="none" stroke="black" points="10.5,-343 10.5,-365 177.5,-365 177.5,-343 10.5,-343"/>
<text text-anchor="start" x="30.5" y="-351.2" font-family="Helvetica,sans-Serif" font-size="11.00">abbr_fr</text>
<polygon fill="none" stroke="black" points="177.5,-343 177.5,-365 283.5,-365 283.5,-343 177.5,-343"/>
<text text-anchor="start" x="180.5" y="-351.2" font-family="Helvetica,sans-Serif" font-size="11.00">varchar[3]</text>
<polygon fill="none" stroke="black" points="10.5,-321 10.5,-343 177.5,-343 177.5,-321 10.5,-321"/>
<text text-anchor="start" x="30.5" y="-329.2" font-family="Helvetica,sans-Serif" font-size="11.00">abbr_it</text>
<polygon fill="none" stroke="black" points="177.5,-321 177.5,-343 283.5,-343 283.5,-321 177.5,-321"/>
<text text-anchor="start" x="180.5" y="-329.2" font-family="Helvetica,sans-Serif" font-size="11.00">varchar[3]</text>
<polygon fill="none" stroke="black" points="10.5,-299 10.5,-321 177.5,-321 177.5,-299 10.5,-299"/>
<text text-anchor="start" x="30.5" y="-307.2" font-family="Helvetica,sans-Serif" font-size="11.00">abbr_ro</text>
<polygon fill="none" stroke="black" points="177.5,-299 177.5,-321 283.5,-321 283.5,-299 177.5,-299"/>
<text text-anchor="start" x="180.5" y="-307.2" font-family="Helvetica,sans-Serif" font-size="11.00">varchar[3]</text>
<polygon fill="none" stroke="black" points="10.5,-277 10.5,-299 177.5,-299 177.5,-277 10.5,-277"/>
<text text-anchor="start" x="30.5" y="-285.2" font-family="Helvetica,sans-Serif" font-size="11.00">active</text>
<polygon fill="none" stroke="black" points="177.5,-277 177.5,-299 283.5,-299 283.5,-277 177.5,-277"/>
<text text-anchor="start" x="180.5" y="-285.2" font-family="Helvetica,sans-Serif" font-size="11.00">bool[1]</text>
<polygon fill="none" stroke="black" points="10.5,-255 10.5,-277 177.5,-277 177.5,-255 10.5,-255"/>
<text text-anchor="start" x="30.5" y="-263.2" font-family="Helvetica,sans-Serif" font-size="11.00">description_en</text>
<polygon fill="none" stroke="black" points="177.5,-255 177.5,-277 283.5,-277 283.5,-255 177.5,-255"/>
<text text-anchor="start" x="180.5" y="-263.2" font-family="Helvetica,sans-Serif" font-size="11.00">text[2147483647]</text>
<polygon fill="none" stroke="black" points="10.5,-233 10.5,-255 177.5,-255 177.5,-233 10.5,-233"/>
<text text-anchor="start" x="30.5" y="-241.2" font-family="Helvetica,sans-Serif" font-size="11.00">description_de</text>
<polygon fill="none" stroke="black" points="177.5,-233 177.5,-255 283.5,-255 283.5,-233 177.5,-233"/>
<text text-anchor="start" x="180.5" y="-241.2" font-family="Helvetica,sans-Serif" font-size="11.00">text[2147483647]</text>
<polygon fill="none" stroke="black" points="10.5,-211 10.5,-233 177.5,-233 177.5,-211 10.5,-211"/>
<text text-anchor="start" x="30.5" y="-219.2" font-family="Helvetica,sans-Serif" font-size="11.00">description_fr</text>
<polygon fill="none" stroke="black" points="177.5,-211 177.5,-233 283.5,-233 283.5,-211 177.5,-211"/>
<text text-anchor="start" x="180.5" y="-219.2" font-family="Helvetica,sans-Serif" font-size="11.00">text[2147483647]</text>
<polygon fill="none" stroke="black" points="10.5,-189 10.5,-211 177.5,-211 177.5,-189 10.5,-189"/>
<text text-anchor="start" x="30.5" y="-197.2" font-family="Helvetica,sans-Serif" font-size="11.00">description_it</text>
<polygon fill="none" stroke="black" points="177.5,-189 177.5,-211 283.5,-211 283.5,-189 177.5,-189"/>
<text text-anchor="start" x="180.5" y="-197.2" font-family="Helvetica,sans-Serif" font-size="11.00">text[2147483647]</text>
<polygon fill="none" stroke="black" points="10.5,-167 10.5,-189 177.5,-189 177.5,-167 10.5,-167"/>
<text text-anchor="start" x="30.5" y="-175.2" font-family="Helvetica,sans-Serif" font-size="11.00">description_ro</text>
<polygon fill="none" stroke="black" points="177.5,-167 177.5,-189 283.5,-189 283.5,-167 177.5,-167"/>
<text text-anchor="start" x="180.5" y="-175.2" font-family="Helvetica,sans-Serif" font-size="11.00">text[2147483647]</text>
<polygon fill="none" stroke="black" points="10.5,-145 10.5,-167 177.5,-167 177.5,-145 10.5,-145"/>
<text text-anchor="start" x="30.5" y="-153.2" font-family="Helvetica,sans-Serif" font-size="11.00">display_en</text>
<polygon fill="none" stroke="black" points="177.5,-145 177.5,-167 283.5,-167 283.5,-145 177.5,-145"/>
<text text-anchor="start" x="180.5" y="-153.2" font-family="Helvetica,sans-Serif" font-size="11.00">varchar[100]</text>
<polygon fill="none" stroke="black" points="10.5,-123 10.5,-145 177.5,-145 177.5,-123 10.5,-123"/>
<text text-anchor="start" x="30.5" y="-131.2" font-family="Helvetica,sans-Serif" font-size="11.00">display_de</text>
<polygon fill="none" stroke="black" points="177.5,-123 177.5,-145 283.5,-145 283.5,-123 177.5,-123"/>
<text text-anchor="start" x="180.5" y="-131.2" font-family="Helvetica,sans-Serif" font-size="11.00">varchar[100]</text>
<polygon fill="none" stroke="black" points="10.5,-101 10.5,-123 177.5,-123 177.5,-101 10.5,-101"/>
<text text-anchor="start" x="30.5" y="-109.2" font-family="Helvetica,sans-Serif" font-size="11.00">display_fr</text>
<polygon fill="none" stroke="black" points="177.5,-101 177.5,-123 283.5,-123 283.5,-101 177.5,-101"/>
<text text-anchor="start" x="180.5" y="-109.2" font-family="Helvetica,sans-Serif" font-size="11.00">varchar[100]</text>
<polygon fill="none" stroke="black" points="10.5,-79 10.5,-101 177.5,-101 177.5,-79 10.5,-79"/>
<text text-anchor="start" x="30.5" y="-87.2" font-family="Helvetica,sans-Serif" font-size="11.00">display_it</text>
<polygon fill="none" stroke="black" points="177.5,-79 177.5,-101 283.5,-101 283.5,-79 177.5,-79"/>
<text text-anchor="start" x="180.5" y="-87.2" font-family="Helvetica,sans-Serif" font-size="11.00">varchar[100]</text>
<polygon fill="none" stroke="black" points="10.5,-57 10.5,-79 177.5,-79 177.5,-57 10.5,-57"/>
<text text-anchor="start" x="30.5" y="-65.2" font-family="Helvetica,sans-Serif" font-size="11.00">display_ro</text>
<polygon fill="none" stroke="black" points="177.5,-57 177.5,-79 283.5,-79 283.5,-57 177.5,-57"/>
<text text-anchor="start" x="180.5" y="-65.2" font-family="Helvetica,sans-Serif" font-size="11.00">varchar[100]</text>
<polygon fill="#ffffff" stroke="transparent" points="10.5,-39 10.5,-57 283.5,-57 283.5,-39 10.5,-39"/>
<polygon fill="none" stroke="black" points="10.5,-39 10.5,-57 283.5,-57 283.5,-39 10.5,-39"/>
<polygon fill="#ffffff" stroke="transparent" points="11.5,-40 11.5,-56 106.5,-56 106.5,-40 11.5,-40"/>
<text text-anchor="start" x="13.5" y="-45.2" font-family="Helvetica,sans-Serif" font-size="11.00">&lt; 0</text>
<polygon fill="#ffffff" stroke="transparent" points="106.5,-40 106.5,-56 188.5,-56 188.5,-40 106.5,-40"/>
<text text-anchor="start" x="143.5" y="-45.2" font-family="Helvetica,sans-Serif" font-size="11.00"> &#160;</text>
<polygon fill="#ffffff" stroke="transparent" points="188.5,-40 188.5,-56 282.5,-56 282.5,-40 188.5,-40"/>
<text text-anchor="start" x="260.5" y="-45.2" font-family="Helvetica,sans-Serif" font-size="11.00">1 &gt;</text>
<polygon fill="black" stroke="black" points="106.5,-40 106.5,-56 106.5,-56 106.5,-40 106.5,-40"/>
<polygon fill="black" stroke="black" points="188.5,-40 188.5,-56 188.5,-56 188.5,-40 188.5,-40"/>
<polygon fill="none" stroke="black" stroke-width="2" points="9,-38 9,-586 284,-586 284,-38 9,-38"/>
</a>
</g>
</g>
<!-- tww_od.tank_emptying&#45;&gt;tank_emptying_kind -->
<g id="edge1" class="edge">
<title>tww_od.tank_emptying:w&#45;&gt;tank_emptying_kind:e</title>
<path fill="none" stroke="black" d="M318.99,-552C307.68,-552 300.49,-552 284.5,-552"/>
<polygon fill="black" stroke="black" points="325.5,-552 333.5,-555.6 329.5,-552 333.5,-552 333.5,-552 333.5,-552 329.5,-552 333.5,-548.4 325.5,-552 325.5,-552"/>
<ellipse fill="none" stroke="black" cx="322.3" cy="-552" rx="3.2" ry="3.2"/>
</g>
</g>
</svg>
