<?xml version="1.0" encoding="UTF-8" standalone="no"?>
<!DOCTYPE svg PUBLIC "-//W3C//DTD SVG 1.1//EN"
 "http://www.w3.org/Graphics/SVG/1.1/DTD/svg11.dtd">
<!-- Generated by graphviz version 2.43.0 (0)
 -->
<!-- Title: oneDegreeRelationshipsDiagram Pages: 1 -->
<svg width="677pt" height="421pt"
 viewBox="0.00 0.00 677.00 421.00" xmlns="http://www.w3.org/2000/svg" xmlns:xlink="http://www.w3.org/1999/xlink">
<g id="graph0" class="graph" transform="scale(1 1) rotate(0) translate(4 417)">
<title>oneDegreeRelationshipsDiagram</title>
<polygon fill="#ffffff" stroke="transparent" points="-4,4 -4,-417 673,-417 673,4 -4,4"/>
<text text-anchor="middle" x="79.5" y="-7.2" font-family="Helvetica,sans-Serif" font-size="11.00">Generated by SchemaSpy</text>
<!-- tww_od.wastewater_structure -->
<g id="node1" class="node">
<title>tww_od.wastewater_structure</title>
<g id="a_node1"><a xlink:href="../../../tww_od/tables/wastewater_structure.html" xlink:title="tww_od.wastewater_structure" target="_top">
<polygon fill="#ffffff" stroke="transparent" points="394,-197 394,-409 661,-409 661,-197 394,-197"/>
<polygon fill="#f5f5f5" stroke="transparent" points="394.5,-387 394.5,-409 661.5,-409 661.5,-387 394.5,-387"/>
<polygon fill="none" stroke="black" points="394.5,-387 394.5,-409 661.5,-409 661.5,-387 394.5,-387"/>
<text text-anchor="start" x="399.5" y="-396.2" font-family="Helvetica,sans-Serif" font-weight="bold" font-size="11.00">tww_od.wastewater_structure</text>
<text text-anchor="start" x="619.5" y="-395.2" font-family="Helvetica,sans-Serif" font-size="11.00">[table]</text>
<polygon fill="none" stroke="black" points="394.5,-365 394.5,-387 661.5,-387 661.5,-365 394.5,-365"/>
<image xlink:href="../../images/foreignKeys.png" width="11px" height="12px" preserveAspectRatio="xMinYMin meet" x="399.5" y="-382"/>
<text text-anchor="start" x="430.5" y="-373.2" font-family="Helvetica,sans-Serif" font-size="11.00">accessibility</text>
<polygon fill="none" stroke="black" points="394.5,-343 394.5,-365 661.5,-365 661.5,-343 394.5,-343"/>
<image xlink:href="../../images/foreignKeys.png" width="11px" height="12px" preserveAspectRatio="xMinYMin meet" x="399.5" y="-360"/>
<text text-anchor="start" x="430.5" y="-351.2" font-family="Helvetica,sans-Serif" font-size="11.00">elevation_determination</text>
<polygon fill="none" stroke="black" points="394.5,-321 394.5,-343 661.5,-343 661.5,-321 394.5,-321"/>
<image xlink:href="../../images/foreignKeys.png" width="11px" height="12px" preserveAspectRatio="xMinYMin meet" x="399.5" y="-338"/>
<text text-anchor="start" x="430.5" y="-329.2" font-family="Helvetica,sans-Serif" font-size="11.00">financing</text>
<polygon fill="none" stroke="black" points="394.5,-299 394.5,-321 661.5,-321 661.5,-299 394.5,-299"/>
<image xlink:href="../../images/foreignKeys.png" width="11px" height="12px" preserveAspectRatio="xMinYMin meet" x="399.5" y="-316"/>
<text text-anchor="start" x="430.5" y="-307.2" font-family="Helvetica,sans-Serif" font-size="11.00">renovation_necessity</text>
<polygon fill="none" stroke="black" points="394.5,-277 394.5,-299 661.5,-299 661.5,-277 394.5,-277"/>
<image xlink:href="../../images/foreignKeys.png" width="11px" height="12px" preserveAspectRatio="xMinYMin meet" x="399.5" y="-294"/>
<text text-anchor="start" x="430.5" y="-285.2" font-family="Helvetica,sans-Serif" font-size="11.00">rv_construction_type</text>
<polygon fill="none" stroke="black" points="394.5,-255 394.5,-277 661.5,-277 661.5,-255 394.5,-255"/>
<image xlink:href="../../images/foreignKeys.png" width="11px" height="12px" preserveAspectRatio="xMinYMin meet" x="399.5" y="-272"/>
<text text-anchor="start" x="430.5" y="-263.2" font-family="Helvetica,sans-Serif" font-size="11.00">status</text>
<polygon fill="none" stroke="black" points="394.5,-233 394.5,-255 661.5,-255 661.5,-233 394.5,-233"/>
<image xlink:href="../../images/foreignKeys.png" width="11px" height="12px" preserveAspectRatio="xMinYMin meet" x="399.5" y="-250"/>
<text text-anchor="start" x="430.5" y="-241.2" font-family="Helvetica,sans-Serif" font-size="11.00">structure_condition</text>
<polygon fill="none" stroke="black" points="394.5,-215 394.5,-233 661.5,-233 661.5,-215 394.5,-215"/>
<text text-anchor="start" x="397.5" y="-221.2" font-family="Helvetica,sans-Serif" font-size="11.00">...</text>
<polygon fill="#ffffff" stroke="transparent" points="394.5,-197 394.5,-215 661.5,-215 661.5,-197 394.5,-197"/>
<polygon fill="none" stroke="black" points="394.5,-197 394.5,-215 661.5,-215 661.5,-197 394.5,-197"/>
<polygon fill="#ffffff" stroke="transparent" points="395.5,-198 395.5,-214 482.5,-214 482.5,-198 395.5,-198"/>
<text text-anchor="start" x="397.5" y="-203.2" font-family="Helvetica,sans-Serif" font-size="11.00">&lt; 7</text>
<polygon fill="#ffffff" stroke="transparent" points="482.5,-198 482.5,-214 586.5,-214 586.5,-198 482.5,-198"/>
<text text-anchor="start" x="516" y="-203.2" font-family="Helvetica,sans-Serif" font-size="11.00">0 rows</text>
<polygon fill="#ffffff" stroke="transparent" points="586.5,-198 586.5,-214 660.5,-214 660.5,-198 586.5,-198"/>
<text text-anchor="start" x="650.5" y="-203.2" font-family="Helvetica,sans-Serif" font-size="11.00"> &#160;</text>
<polygon fill="black" stroke="black" points="482.5,-198 482.5,-214 482.5,-214 482.5,-198 482.5,-198"/>
<polygon fill="black" stroke="black" points="586.5,-198 586.5,-214 586.5,-214 586.5,-198 586.5,-198"/>
</a>
</g>
</g>
<!-- wastewater_structure_financing -->
<g id="node2" class="node">
<title>wastewater_structure_financing</title>
<g id="a_node2"><a xlink:href="../../tables/wastewater_structure_financing.html" xlink:title="wastewater_structure_financing" target="_top">
<polygon fill="#ffffff" stroke="transparent" points="8,-37 8,-367 345,-367 345,-37 8,-37"/>
<polygon fill="#f5f5f5" stroke="transparent" points="10.5,-343 10.5,-365 343.5,-365 343.5,-343 10.5,-343"/>
<polygon fill="none" stroke="black" points="10.5,-343 10.5,-365 343.5,-365 343.5,-343 10.5,-343"/>
<text text-anchor="start" x="15.5" y="-352.2" font-family="Helvetica,sans-Serif" font-weight="bold" font-size="11.00">wastewater_structure_financing</text>
<text text-anchor="start" x="301.5" y="-351.2" font-family="Helvetica,sans-Serif" font-size="11.00">[table]</text>
<polygon fill="none" stroke="black" points="10.5,-321 10.5,-343 265.5,-343 265.5,-321 10.5,-321"/>
<image xlink:href="../../images/primaryKeys.png" width="11px" height="12px" preserveAspectRatio="xMinYMin meet" x="15.5" y="-338"/>
<text text-anchor="start" x="30.5" y="-329.2" font-family="Helvetica,sans-Serif" font-size="11.00">code</text>
<polygon fill="none" stroke="black" points="265.5,-321 265.5,-343 343.5,-343 343.5,-321 265.5,-321"/>
<text text-anchor="start" x="268.5" y="-329.2" font-family="Helvetica,sans-Serif" font-size="11.00">int4[10]</text>
<polygon fill="none" stroke="black" points="10.5,-299 10.5,-321 265.5,-321 265.5,-299 10.5,-299"/>
<text text-anchor="start" x="30.5" y="-307.2" font-family="Helvetica,sans-Serif" font-size="11.00">vsacode</text>
<polygon fill="none" stroke="black" points="265.5,-299 265.5,-321 343.5,-321 343.5,-299 265.5,-299"/>
<text text-anchor="start" x="268.5" y="-307.2" font-family="Helvetica,sans-Serif" font-size="11.00">int4[10]</text>
<polygon fill="none" stroke="black" points="10.5,-277 10.5,-299 265.5,-299 265.5,-277 10.5,-277"/>
<text text-anchor="start" x="30.5" y="-285.2" font-family="Helvetica,sans-Serif" font-size="11.00">value_en</text>
<polygon fill="none" stroke="black" points="265.5,-277 265.5,-299 343.5,-299 343.5,-277 265.5,-277"/>
<text text-anchor="start" x="268.5" y="-285.2" font-family="Helvetica,sans-Serif" font-size="11.00">varchar[100]</text>
<polygon fill="none" stroke="black" points="10.5,-255 10.5,-277 265.5,-277 265.5,-255 10.5,-255"/>
<text text-anchor="start" x="30.5" y="-263.2" font-family="Helvetica,sans-Serif" font-size="11.00">value_de</text>
<polygon fill="none" stroke="black" points="265.5,-255 265.5,-277 343.5,-277 343.5,-255 265.5,-255"/>
<text text-anchor="start" x="268.5" y="-263.2" font-family="Helvetica,sans-Serif" font-size="11.00">varchar[100]</text>
<polygon fill="none" stroke="black" points="10.5,-233 10.5,-255 265.5,-255 265.5,-233 10.5,-233"/>
<text text-anchor="start" x="30.5" y="-241.2" font-family="Helvetica,sans-Serif" font-size="11.00">value_fr</text>
<polygon fill="none" stroke="black" points="265.5,-233 265.5,-255 343.5,-255 343.5,-233 265.5,-233"/>
<text text-anchor="start" x="268.5" y="-241.2" font-family="Helvetica,sans-Serif" font-size="11.00">varchar[100]</text>
<polygon fill="none" stroke="black" points="10.5,-211 10.5,-233 265.5,-233 265.5,-211 10.5,-211"/>
<text text-anchor="start" x="30.5" y="-219.2" font-family="Helvetica,sans-Serif" font-size="11.00">value_it</text>
<polygon fill="none" stroke="black" points="265.5,-211 265.5,-233 343.5,-233 343.5,-211 265.5,-211"/>
<text text-anchor="start" x="268.5" y="-219.2" font-family="Helvetica,sans-Serif" font-size="11.00">varchar[100]</text>
<polygon fill="none" stroke="black" points="10.5,-189 10.5,-211 265.5,-211 265.5,-189 10.5,-189"/>
<text text-anchor="start" x="30.5" y="-197.2" font-family="Helvetica,sans-Serif" font-size="11.00">value_ro</text>
<polygon fill="none" stroke="black" points="265.5,-189 265.5,-211 343.5,-211 343.5,-189 265.5,-189"/>
<text text-anchor="start" x="268.5" y="-197.2" font-family="Helvetica,sans-Serif" font-size="11.00">varchar[100]</text>
<polygon fill="none" stroke="black" points="10.5,-167 10.5,-189 265.5,-189 265.5,-167 10.5,-167"/>
<text text-anchor="start" x="30.5" y="-175.2" font-family="Helvetica,sans-Serif" font-size="11.00">abbr_en</text>
<polygon fill="none" stroke="black" points="265.5,-167 265.5,-189 343.5,-189 343.5,-167 265.5,-167"/>
<text text-anchor="start" x="268.5" y="-175.2" font-family="Helvetica,sans-Serif" font-size="11.00">varchar[3]</text>
<polygon fill="none" stroke="black" points="10.5,-145 10.5,-167 265.5,-167 265.5,-145 10.5,-145"/>
<text text-anchor="start" x="30.5" y="-153.2" font-family="Helvetica,sans-Serif" font-size="11.00">abbr_de</text>
<polygon fill="none" stroke="black" points="265.5,-145 265.5,-167 343.5,-167 343.5,-145 265.5,-145"/>
<text text-anchor="start" x="268.5" y="-153.2" font-family="Helvetica,sans-Serif" font-size="11.00">varchar[3]</text>
<polygon fill="none" stroke="black" points="10.5,-123 10.5,-145 265.5,-145 265.5,-123 10.5,-123"/>
<text text-anchor="start" x="30.5" y="-131.2" font-family="Helvetica,sans-Serif" font-size="11.00">abbr_fr</text>
<polygon fill="none" stroke="black" points="265.5,-123 265.5,-145 343.5,-145 343.5,-123 265.5,-123"/>
<text text-anchor="start" x="268.5" y="-131.2" font-family="Helvetica,sans-Serif" font-size="11.00">varchar[3]</text>
<polygon fill="none" stroke="black" points="10.5,-101 10.5,-123 265.5,-123 265.5,-101 10.5,-101"/>
<text text-anchor="start" x="30.5" y="-109.2" font-family="Helvetica,sans-Serif" font-size="11.00">abbr_it</text>
<polygon fill="none" stroke="black" points="265.5,-101 265.5,-123 343.5,-123 343.5,-101 265.5,-101"/>
<text text-anchor="start" x="268.5" y="-109.2" font-family="Helvetica,sans-Serif" font-size="11.00">varchar[3]</text>
<polygon fill="none" stroke="black" points="10.5,-79 10.5,-101 265.5,-101 265.5,-79 10.5,-79"/>
<text text-anchor="start" x="30.5" y="-87.2" font-family="Helvetica,sans-Serif" font-size="11.00">abbr_ro</text>
<polygon fill="none" stroke="black" points="265.5,-79 265.5,-101 343.5,-101 343.5,-79 265.5,-79"/>
<text text-anchor="start" x="268.5" y="-87.2" font-family="Helvetica,sans-Serif" font-size="11.00">varchar[3]</text>
<polygon fill="none" stroke="black" points="10.5,-57 10.5,-79 265.5,-79 265.5,-57 10.5,-57"/>
<text text-anchor="start" x="30.5" y="-65.2" font-family="Helvetica,sans-Serif" font-size="11.00">active</text>
<polygon fill="none" stroke="black" points="265.5,-57 265.5,-79 343.5,-79 343.5,-57 265.5,-57"/>
<text text-anchor="start" x="268.5" y="-65.2" font-family="Helvetica,sans-Serif" font-size="11.00">bool[1]</text>
<polygon fill="#ffffff" stroke="transparent" points="10.5,-39 10.5,-57 343.5,-57 343.5,-39 10.5,-39"/>
<polygon fill="none" stroke="black" points="10.5,-39 10.5,-57 343.5,-57 343.5,-39 10.5,-39"/>
<polygon fill="#ffffff" stroke="transparent" points="11.5,-40 11.5,-56 126.5,-56 126.5,-40 11.5,-40"/>
<text text-anchor="start" x="13.5" y="-45.2" font-family="Helvetica,sans-Serif" font-size="11.00">&lt; 0</text>
<polygon fill="#ffffff" stroke="transparent" points="126.5,-40 126.5,-56 228.5,-56 228.5,-40 126.5,-40"/>
<text text-anchor="start" x="173.5" y="-45.2" font-family="Helvetica,sans-Serif" font-size="11.00"> &#160;</text>
<polygon fill="#ffffff" stroke="transparent" points="228.5,-40 228.5,-56 342.5,-56 342.5,-40 228.5,-40"/>
<text text-anchor="start" x="320.5" y="-45.2" font-family="Helvetica,sans-Serif" font-size="11.00">1 &gt;</text>
<polygon fill="black" stroke="black" points="126.5,-40 126.5,-56 126.5,-56 126.5,-40 126.5,-40"/>
<polygon fill="black" stroke="black" points="228.5,-40 228.5,-56 228.5,-56 228.5,-40 228.5,-40"/>
<polygon fill="none" stroke="black" stroke-width="2" points="9,-38 9,-366 344,-366 344,-38 9,-38"/>
</a>
</g>
</g>
<!-- tww_od.wastewater_structure&#45;&gt;wastewater_structure_financing -->
<g id="edge1" class="edge">
<title>tww_od.wastewater_structure:w&#45;&gt;wastewater_structure_financing:e</title>
<path fill="none" stroke="black" d="M378.99,-332C367.68,-332 360.49,-332 344.5,-332"/>
<polygon fill="black" stroke="black" points="385.5,-332 393.5,-335.6 389.5,-332 393.5,-332 393.5,-332 393.5,-332 389.5,-332 393.5,-328.4 385.5,-332 385.5,-332"/>
<ellipse fill="none" stroke="black" cx="382.3" cy="-332" rx="3.2" ry="3.2"/>
</g>
</g>
</svg>
