<?xml version="1.0" encoding="UTF-8" standalone="no"?>
<!DOCTYPE svg PUBLIC "-//W3C//DTD SVG 1.1//EN"
 "http://www.w3.org/Graphics/SVG/1.1/DTD/svg11.dtd">
<!-- Generated by graphviz version 2.47.1 (20210515.0534)
 -->
<!-- Title: oneDegreeRelationshipsDiagram Pages: 1 -->
<svg width="648pt" height="509pt"
 viewBox="0.00 0.00 648.00 509.00" xmlns="http://www.w3.org/2000/svg" xmlns:xlink="http://www.w3.org/1999/xlink">
<g id="graph0" class="graph" transform="scale(1 1) rotate(0) translate(4 505)">
<title>oneDegreeRelationshipsDiagram</title>
<polygon fill="#ffffff" stroke="transparent" points="-4,4 -4,-505 644,-505 644,4 -4,4"/>
<text text-anchor="middle" x="73.5" y="-7.2" font-family="Helvetica,sans-Serif" font-size="11.00">Generated by SchemaSpy</text>
<!-- tww_od.wastewater_structure -->
<g id="node1" class="node">
<title>tww_od.wastewater_structure</title>
<g id="a_node1"><a xlink:href="../../../tww_od/tables/wastewater_structure.html" xlink:title="tww_od.wastewater_structure" target="_top">
<polygon fill="#ffffff" stroke="transparent" points="407,-285 407,-497 632,-497 632,-285 407,-285"/>
<polygon fill="#f5f5f5" stroke="transparent" points="407.5,-475 407.5,-497 632.5,-497 632.5,-475 407.5,-475"/>
<polygon fill="none" stroke="black" points="407.5,-475 407.5,-497 632.5,-497 632.5,-475 407.5,-475"/>
<text text-anchor="start" x="412.5" y="-484.2" font-family="Helvetica,sans-Serif" font-weight="bold" font-size="11.00">tww_od.wastewater_structure</text>
<text text-anchor="start" x="593.5" y="-483.2" font-family="Helvetica,sans-Serif" font-size="11.00">[table]</text>
<polygon fill="none" stroke="black" points="407.5,-453 407.5,-475 632.5,-475 632.5,-453 407.5,-453"/>
<image xlink:href="../../images/foreignKeys.png" width="11px" height="12px" preserveAspectRatio="xMinYMin meet" x="412.5" y="-470"/>
<text text-anchor="start" x="442.5" y="-461.2" font-family="Helvetica,sans-Serif" font-size="11.00">accessibility</text>
<polygon fill="none" stroke="black" points="407.5,-431 407.5,-453 632.5,-453 632.5,-431 407.5,-431"/>
<image xlink:href="../../images/foreignKeys.png" width="11px" height="12px" preserveAspectRatio="xMinYMin meet" x="412.5" y="-448"/>
<text text-anchor="start" x="442.5" y="-439.2" font-family="Helvetica,sans-Serif" font-size="11.00">elevation_determination</text>
<polygon fill="none" stroke="black" points="407.5,-409 407.5,-431 632.5,-431 632.5,-409 407.5,-409"/>
<image xlink:href="../../images/foreignKeys.png" width="11px" height="12px" preserveAspectRatio="xMinYMin meet" x="412.5" y="-426"/>
<text text-anchor="start" x="442.5" y="-417.2" font-family="Helvetica,sans-Serif" font-size="11.00">financing</text>
<polygon fill="none" stroke="black" points="407.5,-387 407.5,-409 632.5,-409 632.5,-387 407.5,-387"/>
<image xlink:href="../../images/foreignKeys.png" width="11px" height="12px" preserveAspectRatio="xMinYMin meet" x="412.5" y="-404"/>
<text text-anchor="start" x="442.5" y="-395.2" font-family="Helvetica,sans-Serif" font-size="11.00">renovation_necessity</text>
<polygon fill="none" stroke="black" points="407.5,-365 407.5,-387 632.5,-387 632.5,-365 407.5,-365"/>
<image xlink:href="../../images/foreignKeys.png" width="11px" height="12px" preserveAspectRatio="xMinYMin meet" x="412.5" y="-382"/>
<text text-anchor="start" x="442.5" y="-373.2" font-family="Helvetica,sans-Serif" font-size="11.00">rv_construction_type</text>
<polygon fill="none" stroke="black" points="407.5,-343 407.5,-365 632.5,-365 632.5,-343 407.5,-343"/>
<image xlink:href="../../images/foreignKeys.png" width="11px" height="12px" preserveAspectRatio="xMinYMin meet" x="412.5" y="-360"/>
<text text-anchor="start" x="442.5" y="-351.2" font-family="Helvetica,sans-Serif" font-size="11.00">status</text>
<polygon fill="none" stroke="black" points="407.5,-321 407.5,-343 632.5,-343 632.5,-321 407.5,-321"/>
<image xlink:href="../../images/foreignKeys.png" width="11px" height="12px" preserveAspectRatio="xMinYMin meet" x="412.5" y="-338"/>
<text text-anchor="start" x="442.5" y="-329.2" font-family="Helvetica,sans-Serif" font-size="11.00">structure_condition</text>
<polygon fill="none" stroke="black" points="407.5,-303 407.5,-321 632.5,-321 632.5,-303 407.5,-303"/>
<text text-anchor="start" x="410.5" y="-309.2" font-family="Helvetica,sans-Serif" font-size="11.00">...</text>
<polygon fill="#ffffff" stroke="transparent" points="407.5,-285 407.5,-303 504.5,-303 504.5,-285 407.5,-285"/>
<polygon fill="none" stroke="black" points="407.5,-285 407.5,-303 504.5,-303 504.5,-285 407.5,-285"/>
<text text-anchor="start" x="410.5" y="-291.2" font-family="Helvetica,sans-Serif" font-size="11.00">&lt; 7</text>
<polygon fill="#ffffff" stroke="transparent" points="504.5,-285 504.5,-303 581.5,-303 581.5,-285 504.5,-285"/>
<polygon fill="none" stroke="black" points="504.5,-285 504.5,-303 581.5,-303 581.5,-285 504.5,-285"/>
<text text-anchor="start" x="544.5" y="-291.2" font-family="Helvetica,sans-Serif" font-size="11.00">0 rows</text>
<polygon fill="#ffffff" stroke="transparent" points="581.5,-285 581.5,-303 632.5,-303 632.5,-285 581.5,-285"/>
<polygon fill="none" stroke="black" points="581.5,-285 581.5,-303 632.5,-303 632.5,-285 581.5,-285"/>
<text text-anchor="start" x="622.5" y="-291.2" font-family="Helvetica,sans-Serif" font-size="11.00"> &#160;</text>
</a>
</g>
</g>
<!-- wastewater_structure_structure_condition -->
<g id="node2" class="node">
<title>wastewater_structure_structure_condition</title>
<g id="a_node2"><a xlink:href="../../tables/wastewater_structure_structure_condition.html" xlink:title="wastewater_structure_structure_condition" target="_top">
<polygon fill="#ffffff" stroke="transparent" points="8,-37 8,-367 358,-367 358,-37 8,-37"/>
<polygon fill="#f5f5f5" stroke="transparent" points="10,-343 10,-365 356,-365 356,-343 10,-343"/>
<polygon fill="none" stroke="black" points="10,-343 10,-365 356,-365 356,-343 10,-343"/>
<text text-anchor="start" x="15" y="-352.2" font-family="Helvetica,sans-Serif" font-weight="bold" font-size="11.00">wastewater_structure_structure_condition</text>
<text text-anchor="start" x="317" y="-351.2" font-family="Helvetica,sans-Serif" font-size="11.00">[table]</text>
<polygon fill="none" stroke="black" points="10,-321 10,-343 286,-343 286,-321 10,-321"/>
<image xlink:href="../../images/primaryKeys.png" width="11px" height="12px" preserveAspectRatio="xMinYMin meet" x="15" y="-338"/>
<text text-anchor="start" x="30" y="-329.2" font-family="Helvetica,sans-Serif" font-size="11.00">code</text>
<polygon fill="none" stroke="black" points="286,-321 286,-343 356,-343 356,-321 286,-321"/>
<text text-anchor="start" x="289" y="-329.2" font-family="Helvetica,sans-Serif" font-size="11.00">int4[10]</text>
<polygon fill="none" stroke="black" points="10,-299 10,-321 286,-321 286,-299 10,-299"/>
<text text-anchor="start" x="30" y="-307.2" font-family="Helvetica,sans-Serif" font-size="11.00">vsacode</text>
<polygon fill="none" stroke="black" points="286,-299 286,-321 356,-321 356,-299 286,-299"/>
<text text-anchor="start" x="289" y="-307.2" font-family="Helvetica,sans-Serif" font-size="11.00">int4[10]</text>
<polygon fill="none" stroke="black" points="10,-277 10,-299 286,-299 286,-277 10,-277"/>
<text text-anchor="start" x="30" y="-285.2" font-family="Helvetica,sans-Serif" font-size="11.00">value_en</text>
<polygon fill="none" stroke="black" points="286,-277 286,-299 356,-299 356,-277 286,-277"/>
<text text-anchor="start" x="289" y="-285.2" font-family="Helvetica,sans-Serif" font-size="11.00">varchar[100]</text>
<polygon fill="none" stroke="black" points="10,-255 10,-277 286,-277 286,-255 10,-255"/>
<text text-anchor="start" x="30" y="-263.2" font-family="Helvetica,sans-Serif" font-size="11.00">value_de</text>
<polygon fill="none" stroke="black" points="286,-255 286,-277 356,-277 356,-255 286,-255"/>
<text text-anchor="start" x="289" y="-263.2" font-family="Helvetica,sans-Serif" font-size="11.00">varchar[100]</text>
<polygon fill="none" stroke="black" points="10,-233 10,-255 286,-255 286,-233 10,-233"/>
<text text-anchor="start" x="30" y="-241.2" font-family="Helvetica,sans-Serif" font-size="11.00">value_fr</text>
<polygon fill="none" stroke="black" points="286,-233 286,-255 356,-255 356,-233 286,-233"/>
<text text-anchor="start" x="289" y="-241.2" font-family="Helvetica,sans-Serif" font-size="11.00">varchar[100]</text>
<polygon fill="none" stroke="black" points="10,-211 10,-233 286,-233 286,-211 10,-211"/>
<text text-anchor="start" x="30" y="-219.2" font-family="Helvetica,sans-Serif" font-size="11.00">value_it</text>
<polygon fill="none" stroke="black" points="286,-211 286,-233 356,-233 356,-211 286,-211"/>
<text text-anchor="start" x="289" y="-219.2" font-family="Helvetica,sans-Serif" font-size="11.00">varchar[100]</text>
<polygon fill="none" stroke="black" points="10,-189 10,-211 286,-211 286,-189 10,-189"/>
<text text-anchor="start" x="30" y="-197.2" font-family="Helvetica,sans-Serif" font-size="11.00">value_ro</text>
<polygon fill="none" stroke="black" points="286,-189 286,-211 356,-211 356,-189 286,-189"/>
<text text-anchor="start" x="289" y="-197.2" font-family="Helvetica,sans-Serif" font-size="11.00">varchar[100]</text>
<polygon fill="none" stroke="black" points="10,-167 10,-189 286,-189 286,-167 10,-167"/>
<text text-anchor="start" x="30" y="-175.2" font-family="Helvetica,sans-Serif" font-size="11.00">abbr_en</text>
<polygon fill="none" stroke="black" points="286,-167 286,-189 356,-189 356,-167 286,-167"/>
<text text-anchor="start" x="289" y="-175.2" font-family="Helvetica,sans-Serif" font-size="11.00">varchar[3]</text>
<polygon fill="none" stroke="black" points="10,-145 10,-167 286,-167 286,-145 10,-145"/>
<text text-anchor="start" x="30" y="-153.2" font-family="Helvetica,sans-Serif" font-size="11.00">abbr_de</text>
<polygon fill="none" stroke="black" points="286,-145 286,-167 356,-167 356,-145 286,-145"/>
<text text-anchor="start" x="289" y="-153.2" font-family="Helvetica,sans-Serif" font-size="11.00">varchar[3]</text>
<polygon fill="none" stroke="black" points="10,-123 10,-145 286,-145 286,-123 10,-123"/>
<text text-anchor="start" x="30" y="-131.2" font-family="Helvetica,sans-Serif" font-size="11.00">abbr_fr</text>
<polygon fill="none" stroke="black" points="286,-123 286,-145 356,-145 356,-123 286,-123"/>
<text text-anchor="start" x="289" y="-131.2" font-family="Helvetica,sans-Serif" font-size="11.00">varchar[3]</text>
<polygon fill="none" stroke="black" points="10,-101 10,-123 286,-123 286,-101 10,-101"/>
<text text-anchor="start" x="30" y="-109.2" font-family="Helvetica,sans-Serif" font-size="11.00">abbr_it</text>
<polygon fill="none" stroke="black" points="286,-101 286,-123 356,-123 356,-101 286,-101"/>
<text text-anchor="start" x="289" y="-109.2" font-family="Helvetica,sans-Serif" font-size="11.00">varchar[3]</text>
<polygon fill="none" stroke="black" points="10,-79 10,-101 286,-101 286,-79 10,-79"/>
<text text-anchor="start" x="30" y="-87.2" font-family="Helvetica,sans-Serif" font-size="11.00">abbr_ro</text>
<polygon fill="none" stroke="black" points="286,-79 286,-101 356,-101 356,-79 286,-79"/>
<text text-anchor="start" x="289" y="-87.2" font-family="Helvetica,sans-Serif" font-size="11.00">varchar[3]</text>
<polygon fill="none" stroke="black" points="10,-57 10,-79 286,-79 286,-57 10,-57"/>
<text text-anchor="start" x="30" y="-65.2" font-family="Helvetica,sans-Serif" font-size="11.00">active</text>
<polygon fill="none" stroke="black" points="286,-57 286,-79 356,-79 356,-57 286,-57"/>
<text text-anchor="start" x="289" y="-65.2" font-family="Helvetica,sans-Serif" font-size="11.00">bool[1]</text>
<polygon fill="#ffffff" stroke="transparent" points="10,-39 10,-57 152,-57 152,-39 10,-39"/>
<polygon fill="none" stroke="black" points="10,-39 10,-57 152,-57 152,-39 10,-39"/>
<text text-anchor="start" x="13" y="-45.2" font-family="Helvetica,sans-Serif" font-size="11.00">&lt; 0</text>
<polygon fill="#ffffff" stroke="transparent" points="152,-39 152,-57 286,-57 286,-39 152,-39"/>
<polygon fill="none" stroke="black" points="152,-39 152,-57 286,-57 286,-39 152,-39"/>
<text text-anchor="start" x="276" y="-45.2" font-family="Helvetica,sans-Serif" font-size="11.00"> &#160;</text>
<polygon fill="#ffffff" stroke="transparent" points="286,-39 286,-57 356,-57 356,-39 286,-39"/>
<polygon fill="none" stroke="black" points="286,-39 286,-57 356,-57 356,-39 286,-39"/>
<text text-anchor="start" x="337" y="-45.2" font-family="Helvetica,sans-Serif" font-size="11.00">1 &gt;</text>
<polygon fill="none" stroke="black" stroke-width="2" points="9,-38 9,-366 357,-366 357,-38 9,-38"/>
</a>
</g>
</g>
<!-- tww_od.wastewater_structure&#45;&gt;wastewater_structure_structure_condition -->
<g id="edge1" class="edge">
<title>tww_od.wastewater_structure:w&#45;&gt;wastewater_structure_structure_condition:e</title>
<path fill="none" stroke="black" d="M391.84,-332C380.41,-332 373.16,-332 357,-332"/>
<polygon fill="black" stroke="black" points="398.5,-332 406.5,-335.6 402.5,-332 406.5,-332 406.5,-332 406.5,-332 402.5,-332 406.5,-328.4 398.5,-332 398.5,-332"/>
<ellipse fill="none" stroke="black" cx="395.3" cy="-332" rx="3.2" ry="3.2"/>
</g>
</g>
</svg>
