<?xml version="1.0" encoding="UTF-8" standalone="no"?>
<!DOCTYPE svg PUBLIC "-//W3C//DTD SVG 1.1//EN"
 "http://www.w3.org/Graphics/SVG/1.1/DTD/svg11.dtd">
<!-- Generated by graphviz version 2.43.0 (0)
 -->
<!-- Title: oneDegreeRelationshipsDiagram Pages: 1 -->
<svg width="733pt" height="375pt"
 viewBox="0.00 0.00 733.00 375.00" xmlns="http://www.w3.org/2000/svg" xmlns:xlink="http://www.w3.org/1999/xlink">
<g id="graph0" class="graph" transform="scale(1 1) rotate(0) translate(4 371)">
<title>oneDegreeRelationshipsDiagram</title>
<polygon fill="#ffffff" stroke="transparent" points="-4,4 -4,-371 729,-371 729,4 -4,4"/>
<text text-anchor="middle" x="79.5" y="-7.2" font-family="Helvetica,sans-Serif" font-size="11.00">Generated by SchemaSpy</text>
<!-- agxx_wastewater_node -->
<g id="node1" class="node">
<title>agxx_wastewater_node</title>
<g id="a_node1"><a xlink:href="../../tables/agxx_wastewater_node.html" xlink:title="agxx_wastewater_node" target="_top">
<polygon fill="#ffffff" stroke="transparent" points="417,-92 417,-224 717,-224 717,-92 417,-92"/>
<polygon fill="#f5f5f5" stroke="transparent" points="419,-200 419,-222 715,-222 715,-200 419,-200"/>
<polygon fill="none" stroke="black" points="419,-200 419,-222 715,-222 715,-200 419,-200"/>
<text text-anchor="start" x="424" y="-209.2" font-family="Helvetica,sans-Serif" font-weight="bold" font-size="11.00">agxx_wastewater_node</text>
<text text-anchor="start" x="673" y="-208.2" font-family="Helvetica,sans-Serif" font-size="11.00">[table]</text>
<polygon fill="none" stroke="black" points="419,-178 419,-200 609,-200 609,-178 419,-178"/>
<image xlink:href="../../images/primaryKeys.png" width="11px" height="12px" preserveAspectRatio="xMinYMin meet" x="424" y="-195"/>
<text text-anchor="start" x="439" y="-186.2" font-family="Helvetica,sans-Serif" font-size="11.00">uuid</text>
<polygon fill="none" stroke="black" points="609,-178 609,-200 715,-200 715,-178 609,-178"/>
<text text-anchor="start" x="612" y="-186.2" font-family="Helvetica,sans-Serif" font-size="11.00">uuid[2147483647]</text>
<polygon fill="none" stroke="black" points="419,-156 419,-178 609,-178 609,-156 419,-156"/>
<image xlink:href="../../images/foreignKeys.png" width="11px" height="12px" preserveAspectRatio="xMinYMin meet" x="424" y="-173"/>
<text text-anchor="start" x="439" y="-164.2" font-family="Helvetica,sans-Serif" font-size="11.00">fk_wastewater_node</text>
<polygon fill="none" stroke="black" points="609,-156 609,-178 715,-178 715,-156 609,-156"/>
<text text-anchor="start" x="612" y="-164.2" font-family="Helvetica,sans-Serif" font-size="11.00">varchar[16]</text>
<polygon fill="none" stroke="black" points="419,-134 419,-156 609,-156 609,-134 419,-134"/>
<image xlink:href="../../images/foreignKeys.png" width="11px" height="12px" preserveAspectRatio="xMinYMin meet" x="424" y="-151"/>
<text text-anchor="start" x="439" y="-142.2" font-family="Helvetica,sans-Serif" font-size="11.00">ag96_is_gateway</text>
<polygon fill="none" stroke="black" points="609,-134 609,-156 715,-156 715,-134 609,-134"/>
<text text-anchor="start" x="612" y="-142.2" font-family="Helvetica,sans-Serif" font-size="11.00">int8[19]</text>
<polygon fill="none" stroke="black" points="419,-112 419,-134 609,-134 609,-112 419,-112"/>
<image xlink:href="../../images/foreignKeys.png" width="11px" height="12px" preserveAspectRatio="xMinYMin meet" x="424" y="-129"/>
<text text-anchor="start" x="439" y="-120.2" font-family="Helvetica,sans-Serif" font-size="11.00">ag64_function</text>
<polygon fill="none" stroke="black" points="609,-112 609,-134 715,-134 715,-112 609,-112"/>
<text text-anchor="start" x="612" y="-120.2" font-family="Helvetica,sans-Serif" font-size="11.00">int8[19]</text>
<polygon fill="#ffffff" stroke="transparent" points="419,-94 419,-112 715,-112 715,-94 419,-94"/>
<polygon fill="none" stroke="black" points="419,-94 419,-112 715,-112 715,-94 419,-94"/>
<polygon fill="#ffffff" stroke="transparent" points="420,-95 420,-111 522,-111 522,-95 420,-95"/>
<text text-anchor="start" x="422" y="-100.2" font-family="Helvetica,sans-Serif" font-size="11.00">&lt; 3</text>
<polygon fill="#ffffff" stroke="transparent" points="522,-95 522,-111 612,-111 612,-95 522,-95"/>
<text text-anchor="start" x="563" y="-100.2" font-family="Helvetica,sans-Serif" font-size="11.00"> &#160;</text>
<polygon fill="#ffffff" stroke="transparent" points="612,-95 612,-111 714,-111 714,-95 612,-95"/>
<text text-anchor="start" x="692" y="-100.2" font-family="Helvetica,sans-Serif" font-size="11.00">0 &gt;</text>
<polygon fill="black" stroke="black" points="522,-95 522,-111 522,-111 522,-95 522,-95"/>
<polygon fill="black" stroke="black" points="612,-95 612,-111 612,-111 612,-95 612,-95"/>
<polygon fill="none" stroke="black" stroke-width="2" points="418,-93 418,-223 716,-223 716,-93 418,-93"/>
</a>
</g>
</g>
<!-- tww_vl.wastewater_node_ag64_function -->
<g id="node2" class="node">
<title>tww_vl.wastewater_node_ag64_function</title>
<g id="a_node2"><a xlink:href="../../../tww_vl/tables/wastewater_node_ag64_function.html" xlink:title="tww_vl.wastewater_node_ag64_function" target="_top">
<polygon fill="#ffffff" stroke="transparent" points="18,-37 18,-95 358,-95 358,-37 18,-37"/>
<polygon fill="#f5f5f5" stroke="transparent" points="18,-73 18,-95 358,-95 358,-73 18,-73"/>
<polygon fill="none" stroke="black" points="18,-73 18,-95 358,-95 358,-73 18,-73"/>
<text text-anchor="start" x="23" y="-82.2" font-family="Helvetica,sans-Serif" font-weight="bold" font-size="11.00">tww_vl.wastewater_node_ag64_function</text>
<text text-anchor="start" x="316" y="-81.2" font-family="Helvetica,sans-Serif" font-size="11.00">[table]</text>
<polygon fill="none" stroke="black" points="18,-55 18,-73 358,-73 358,-55 18,-55"/>
<text text-anchor="start" x="21" y="-61.2" font-family="Helvetica,sans-Serif" font-size="11.00">...</text>
<polygon fill="#ffffff" stroke="transparent" points="18,-37 18,-55 358,-55 358,-37 18,-37"/>
<polygon fill="none" stroke="black" points="18,-37 18,-55 358,-55 358,-37 18,-37"/>
<polygon fill="#ffffff" stroke="transparent" points="19,-38 19,-54 118,-54 118,-38 19,-38"/>
<text text-anchor="start" x="21" y="-43.2" font-family="Helvetica,sans-Serif" font-size="11.00"> &#160;</text>
<polygon fill="#ffffff" stroke="transparent" points="118,-38 118,-54 246,-54 246,-38 118,-38"/>
<text text-anchor="start" x="163.5" y="-43.2" font-family="Helvetica,sans-Serif" font-size="11.00">0 rows</text>
<polygon fill="#ffffff" stroke="transparent" points="246,-38 246,-54 357,-54 357,-38 246,-38"/>
<text text-anchor="start" x="335" y="-43.2" font-family="Helvetica,sans-Serif" font-size="11.00">1 &gt;</text>
<polygon fill="black" stroke="black" points="118,-38 118,-54 118,-54 118,-38 118,-38"/>
<polygon fill="black" stroke="black" points="246,-38 246,-54 246,-54 246,-38 246,-38"/>
</a>
</g>
</g>
<!-- agxx_wastewater_node&#45;&gt;tww_vl.wastewater_node_ag64_function -->
<g id="edge1" class="edge">
<title>agxx_wastewater_node:w&#45;&gt;tww_vl.wastewater_node_ag64_function:e</title>
<path fill="none" stroke="black" d="M403.75,-120.32C394.81,-116.45 389.62,-109.29 376,-105 369.52,-102.96 362.87,-100.99 356.13,-99.1"/>
<polygon fill="black" stroke="black" points="410.14,-121.52 417.33,-126.54 414.07,-122.26 418,-123 418,-123 418,-123 414.07,-122.26 418.67,-119.46 410.14,-121.52 410.14,-121.52"/>
<ellipse fill="none" stroke="black" cx="406.99" cy="-120.93" rx="3.2" ry="3.2"/>
</g>
<!-- tww_vl.wastewater_node_ag96_is_gateway -->
<g id="node3" class="node">
<title>tww_vl.wastewater_node_ag96_is_gateway</title>
<g id="a_node3"><a xlink:href="../../../tww_vl/tables/wastewater_node_ag96_is_gateway.html" xlink:title="tww_vl.wastewater_node_ag96_is_gateway" target="_top">
<polygon fill="#ffffff" stroke="transparent" points="8,-116 8,-174 368,-174 368,-116 8,-116"/>
<polygon fill="#f5f5f5" stroke="transparent" points="8,-152 8,-174 368,-174 368,-152 8,-152"/>
<polygon fill="none" stroke="black" points="8,-152 8,-174 368,-174 368,-152 8,-152"/>
<text text-anchor="start" x="13" y="-161.2" font-family="Helvetica,sans-Serif" font-weight="bold" font-size="11.00">tww_vl.wastewater_node_ag96_is_gateway</text>
<text text-anchor="start" x="326" y="-160.2" font-family="Helvetica,sans-Serif" font-size="11.00">[table]</text>
<polygon fill="none" stroke="black" points="8,-134 8,-152 368,-152 368,-134 8,-134"/>
<text text-anchor="start" x="11" y="-140.2" font-family="Helvetica,sans-Serif" font-size="11.00">...</text>
<polygon fill="#ffffff" stroke="transparent" points="8,-116 8,-134 368,-134 368,-116 8,-116"/>
<polygon fill="none" stroke="black" points="8,-116 8,-134 368,-134 368,-116 8,-116"/>
<polygon fill="#ffffff" stroke="transparent" points="9,-117 9,-133 115,-133 115,-117 9,-117"/>
<text text-anchor="start" x="11" y="-122.2" font-family="Helvetica,sans-Serif" font-size="11.00"> &#160;</text>
<polygon fill="#ffffff" stroke="transparent" points="115,-117 115,-133 250,-133 250,-117 115,-117"/>
<text text-anchor="start" x="164" y="-122.2" font-family="Helvetica,sans-Serif" font-size="11.00">0 rows</text>
<polygon fill="#ffffff" stroke="transparent" points="250,-117 250,-133 367,-133 367,-117 250,-117"/>
<text text-anchor="start" x="345" y="-122.2" font-family="Helvetica,sans-Serif" font-size="11.00">1 &gt;</text>
<polygon fill="black" stroke="black" points="115,-117 115,-133 115,-133 115,-117 115,-117"/>
<polygon fill="black" stroke="black" points="250,-117 250,-133 250,-133 250,-117 250,-117"/>
</a>
</g>
</g>
<!-- agxx_wastewater_node&#45;&gt;tww_vl.wastewater_node_ag96_is_gateway -->
<g id="edge2" class="edge">
<title>agxx_wastewater_node:w&#45;&gt;tww_vl.wastewater_node_ag96_is_gateway:e</title>
<path fill="none" stroke="black" d="M403.49,-145C394.48,-145 385.33,-145 376.15,-145"/>
<polygon fill="black" stroke="black" points="410,-145 418,-148.6 414,-145 418,-145 418,-145 418,-145 414,-145 418,-141.4 410,-145 410,-145"/>
<ellipse fill="none" stroke="black" cx="406.8" cy="-145" rx="3.2" ry="3.2"/>
</g>
<!-- wastewater_node -->
<g id="node4" class="node">
<title>wastewater_node</title>
<g id="a_node4"><a xlink:href="../../tables/wastewater_node.html" xlink:title="wastewater_node" target="_top">
<polygon fill="#ffffff" stroke="transparent" points="76,-195 76,-363 300,-363 300,-195 76,-195"/>
<polygon fill="#f5f5f5" stroke="transparent" points="76,-341 76,-363 300,-363 300,-341 76,-341"/>
<polygon fill="none" stroke="black" points="76,-341 76,-363 300,-363 300,-341 76,-341"/>
<text text-anchor="start" x="81" y="-350.2" font-family="Helvetica,sans-Serif" font-weight="bold" font-size="11.00">wastewater_node</text>
<text text-anchor="start" x="258" y="-349.2" font-family="Helvetica,sans-Serif" font-size="11.00">[table]</text>
<polygon fill="none" stroke="black" points="76,-319 76,-341 300,-341 300,-319 76,-319"/>
<image xlink:href="../../images/primaryKeys.png" width="11px" height="12px" preserveAspectRatio="xMinYMin meet" x="81" y="-336"/>
<text text-anchor="start" x="96" y="-327.2" font-family="Helvetica,sans-Serif" font-size="11.00">obj_id</text>
<polygon fill="none" stroke="black" points="76,-297 76,-319 300,-319 300,-297 76,-297"/>
<image xlink:href="../../images/foreignKeys.png" width="11px" height="12px" preserveAspectRatio="xMinYMin meet" x="81" y="-314"/>
<text text-anchor="start" x="96" y="-305.2" font-family="Helvetica,sans-Serif" font-size="11.00">elevation_accuracy</text>
<polygon fill="none" stroke="black" points="76,-275 76,-297 300,-297 300,-275 76,-275"/>
<image xlink:href="../../images/foreignKeys.png" width="11px" height="12px" preserveAspectRatio="xMinYMin meet" x="81" y="-292"/>
<text text-anchor="start" x="96" y="-283.2" font-family="Helvetica,sans-Serif" font-size="11.00">function_node_amelioration</text>
<polygon fill="#ffffff" stroke="transparent" points="76,-253 76,-275 300,-275 300,-253 76,-253"/>
<polygon fill="none" stroke="black" points="76,-253 76,-275 300,-275 300,-253 76,-253"/>
<text text-anchor="start" x="96" y="-261.2" font-family="Helvetica,sans-Serif" font-size="11.00">situation3d_geometry</text>
<polygon fill="none" stroke="black" points="76,-231 76,-253 300,-253 300,-231 76,-231"/>
<image xlink:href="../../images/foreignKeys.png" width="11px" height="12px" preserveAspectRatio="xMinYMin meet" x="81" y="-248"/>
<text text-anchor="start" x="96" y="-239.2" font-family="Helvetica,sans-Serif" font-size="11.00">fk_hydr_geometry</text>
<polygon fill="none" stroke="black" points="76,-213 76,-231 300,-231 300,-213 76,-213"/>
<text text-anchor="start" x="79" y="-219.2" font-family="Helvetica,sans-Serif" font-size="11.00">...</text>
<polygon fill="#ffffff" stroke="transparent" points="76,-195 76,-213 300,-213 300,-195 76,-195"/>
<polygon fill="none" stroke="black" points="76,-195 76,-213 300,-213 300,-195 76,-195"/>
<polygon fill="#ffffff" stroke="transparent" points="77,-196 77,-212 155,-212 155,-196 77,-196"/>
<text text-anchor="start" x="79" y="-201.2" font-family="Helvetica,sans-Serif" font-size="11.00">&lt; 4</text>
<polygon fill="#ffffff" stroke="transparent" points="155,-196 155,-212 221,-212 221,-196 155,-196"/>
<text text-anchor="start" x="184" y="-201.2" font-family="Helvetica,sans-Serif" font-size="11.00"> &#160;</text>
<polygon fill="#ffffff" stroke="transparent" points="221,-196 221,-212 299,-212 299,-196 221,-196"/>
<text text-anchor="start" x="277" y="-201.2" font-family="Helvetica,sans-Serif" font-size="11.00">9 &gt;</text>
<polygon fill="black" stroke="black" points="155,-196 155,-212 155,-212 155,-196 155,-196"/>
<polygon fill="black" stroke="black" points="221,-196 221,-212 221,-212 221,-196 221,-196"/>
</a>
</g>
</g>
<!-- agxx_wastewater_node&#45;&gt;wastewater_node -->
<g id="edge3" class="edge">
<title>agxx_wastewater_node:w&#45;&gt;wastewater_node:e</title>
<path fill="none" stroke="black" d="M403.39,-168.72C335.7,-186.14 384.78,-330 301,-330"/>
<polygon fill="black" stroke="black" points="410.05,-167.94 418.42,-170.58 414.03,-167.47 418,-167 418,-167 418,-167 414.03,-167.47 417.58,-163.42 410.05,-167.94 410.05,-167.94"/>
<ellipse fill="none" stroke="black" cx="406.88" cy="-168.31" rx="3.2" ry="3.2"/>
</g>
</g>
</svg>
