<?xml version="1.0" encoding="UTF-8" standalone="no"?>
<!DOCTYPE svg PUBLIC "-//W3C//DTD SVG 1.1//EN"
 "http://www.w3.org/Graphics/SVG/1.1/DTD/svg11.dtd">
<!-- Generated by graphviz version 2.43.0 (0)
 -->
<!-- Title: oneDegreeRelationshipsDiagram Pages: 1 -->
<svg width="652pt" height="802pt"
 viewBox="0.00 0.00 652.00 802.00" xmlns="http://www.w3.org/2000/svg" xmlns:xlink="http://www.w3.org/1999/xlink">
<g id="graph0" class="graph" transform="scale(1 1) rotate(0) translate(4 798)">
<title>oneDegreeRelationshipsDiagram</title>
<polygon fill="#ffffff" stroke="transparent" points="-4,4 -4,-798 648,-798 648,4 -4,4"/>
<text text-anchor="middle" x="79.5" y="-7.2" font-family="Helvetica,sans-Serif" font-size="11.00">Generated by SchemaSpy</text>
<!-- agxx_wastewater_structure -->
<g id="node1" class="node">
<title>agxx_wastewater_structure</title>
<g id="a_node1"><a xlink:href="../../tables/agxx_wastewater_structure.html" xlink:title="agxx_wastewater_structure" target="_top">
<polygon fill="#ffffff" stroke="transparent" points="304,-499 304,-609 636,-609 636,-499 304,-499"/>
<polygon fill="#f5f5f5" stroke="transparent" points="306,-585 306,-607 634,-607 634,-585 306,-585"/>
<polygon fill="none" stroke="black" points="306,-585 306,-607 634,-607 634,-585 306,-585"/>
<text text-anchor="start" x="311" y="-594.2" font-family="Helvetica,sans-Serif" font-weight="bold" font-size="11.00">agxx_wastewater_structure</text>
<text text-anchor="start" x="592" y="-593.2" font-family="Helvetica,sans-Serif" font-size="11.00">[table]</text>
<polygon fill="none" stroke="black" points="306,-563 306,-585 528,-585 528,-563 306,-563"/>
<image xlink:href="../../images/primaryKeys.png" width="11px" height="12px" preserveAspectRatio="xMinYMin meet" x="311" y="-580"/>
<text text-anchor="start" x="326" y="-571.2" font-family="Helvetica,sans-Serif" font-size="11.00">uuid</text>
<polygon fill="none" stroke="black" points="528,-563 528,-585 634,-585 634,-563 528,-563"/>
<text text-anchor="start" x="531" y="-571.2" font-family="Helvetica,sans-Serif" font-size="11.00">uuid[2147483647]</text>
<polygon fill="none" stroke="black" points="306,-541 306,-563 528,-563 528,-541 306,-541"/>
<image xlink:href="../../images/foreignKeys.png" width="11px" height="12px" preserveAspectRatio="xMinYMin meet" x="311" y="-558"/>
<text text-anchor="start" x="326" y="-549.2" font-family="Helvetica,sans-Serif" font-size="11.00">fk_wastewater_structure</text>
<polygon fill="none" stroke="black" points="528,-541 528,-563 634,-563 634,-541 528,-541"/>
<text text-anchor="start" x="531" y="-549.2" font-family="Helvetica,sans-Serif" font-size="11.00">varchar[16]</text>
<polygon fill="none" stroke="black" points="306,-519 306,-541 528,-541 528,-519 306,-519"/>
<image xlink:href="../../images/foreignKeys.png" width="11px" height="12px" preserveAspectRatio="xMinYMin meet" x="311" y="-536"/>
<text text-anchor="start" x="326" y="-527.2" font-family="Helvetica,sans-Serif" font-size="11.00">ag96_fk_measure</text>
<polygon fill="none" stroke="black" points="528,-519 528,-541 634,-541 634,-519 528,-519"/>
<text text-anchor="start" x="531" y="-527.2" font-family="Helvetica,sans-Serif" font-size="11.00">varchar[16]</text>
<polygon fill="#ffffff" stroke="transparent" points="306,-501 306,-519 634,-519 634,-501 306,-501"/>
<polygon fill="none" stroke="black" points="306,-501 306,-519 634,-519 634,-501 306,-501"/>
<polygon fill="#ffffff" stroke="transparent" points="307,-502 307,-518 420,-518 420,-502 307,-502"/>
<text text-anchor="start" x="309" y="-507.2" font-family="Helvetica,sans-Serif" font-size="11.00">&lt; 2</text>
<polygon fill="#ffffff" stroke="transparent" points="420,-502 420,-518 521,-518 521,-502 420,-502"/>
<text text-anchor="start" x="466.5" y="-507.2" font-family="Helvetica,sans-Serif" font-size="11.00"> &#160;</text>
<polygon fill="#ffffff" stroke="transparent" points="521,-502 521,-518 633,-518 633,-502 521,-502"/>
<text text-anchor="start" x="611" y="-507.2" font-family="Helvetica,sans-Serif" font-size="11.00">0 &gt;</text>
<polygon fill="black" stroke="black" points="420,-502 420,-518 420,-518 420,-502 420,-502"/>
<polygon fill="black" stroke="black" points="521,-502 521,-518 521,-518 521,-502 521,-502"/>
<polygon fill="none" stroke="black" stroke-width="2" points="305,-500 305,-608 635,-608 635,-500 305,-500"/>
</a>
</g>
</g>
<!-- measure -->
<g id="node2" class="node">
<title>measure</title>
<g id="a_node2"><a xlink:href="../../tables/measure.html" xlink:title="measure" target="_top">
<polygon fill="#ffffff" stroke="transparent" points="8,-37 8,-359 255,-359 255,-37 8,-37"/>
<polygon fill="#f5f5f5" stroke="transparent" points="8.5,-337 8.5,-359 255.5,-359 255.5,-337 8.5,-337"/>
<polygon fill="none" stroke="black" points="8.5,-337 8.5,-359 255.5,-359 255.5,-337 8.5,-337"/>
<text text-anchor="start" x="13.5" y="-346.2" font-family="Helvetica,sans-Serif" font-weight="bold" font-size="11.00">measure</text>
<text text-anchor="start" x="213.5" y="-345.2" font-family="Helvetica,sans-Serif" font-size="11.00">[table]</text>
<polygon fill="none" stroke="black" points="8.5,-315 8.5,-337 255.5,-337 255.5,-315 8.5,-315"/>
<image xlink:href="../../images/primaryKeys.png" width="11px" height="12px" preserveAspectRatio="xMinYMin meet" x="13.5" y="-332"/>
<text text-anchor="start" x="28.5" y="-323.2" font-family="Helvetica,sans-Serif" font-size="11.00">obj_id</text>
<polygon fill="none" stroke="black" points="8.5,-293 8.5,-315 255.5,-315 255.5,-293 8.5,-293"/>
<image xlink:href="../../images/foreignKeys.png" width="11px" height="12px" preserveAspectRatio="xMinYMin meet" x="13.5" y="-310"/>
<text text-anchor="start" x="28.5" y="-301.2" font-family="Helvetica,sans-Serif" font-size="11.00">category</text>
<polygon fill="#ffffff" stroke="transparent" points="8.5,-271 8.5,-293 255.5,-293 255.5,-271 8.5,-271"/>
<polygon fill="none" stroke="black" points="8.5,-271 8.5,-293 255.5,-293 255.5,-271 8.5,-271"/>
<text text-anchor="start" x="28.5" y="-279.2" font-family="Helvetica,sans-Serif" font-size="11.00">identifier</text>
<polygon fill="#ffffff" stroke="transparent" points="8.5,-249 8.5,-271 255.5,-271 255.5,-249 8.5,-249"/>
<polygon fill="none" stroke="black" points="8.5,-249 8.5,-271 255.5,-271 255.5,-249 8.5,-249"/>
<text text-anchor="start" x="28.5" y="-257.2" font-family="Helvetica,sans-Serif" font-size="11.00">line_geometry</text>
<polygon fill="#ffffff" stroke="transparent" points="8.5,-227 8.5,-249 255.5,-249 255.5,-227 8.5,-227"/>
<polygon fill="none" stroke="black" points="8.5,-227 8.5,-249 255.5,-249 255.5,-227 8.5,-227"/>
<text text-anchor="start" x="28.5" y="-235.2" font-family="Helvetica,sans-Serif" font-size="11.00">perimeter_geometry</text>
<polygon fill="none" stroke="black" points="8.5,-205 8.5,-227 255.5,-227 255.5,-205 8.5,-205"/>
<image xlink:href="../../images/foreignKeys.png" width="11px" height="12px" preserveAspectRatio="xMinYMin meet" x="13.5" y="-222"/>
<text text-anchor="start" x="28.5" y="-213.2" font-family="Helvetica,sans-Serif" font-size="11.00">priority</text>
<polygon fill="none" stroke="black" points="8.5,-183 8.5,-205 255.5,-205 255.5,-183 8.5,-183"/>
<image xlink:href="../../images/foreignKeys.png" width="11px" height="12px" preserveAspectRatio="xMinYMin meet" x="13.5" y="-200"/>
<text text-anchor="start" x="28.5" y="-191.2" font-family="Helvetica,sans-Serif" font-size="11.00">status</text>
<polygon fill="#ffffff" stroke="transparent" points="8.5,-161 8.5,-183 255.5,-183 255.5,-161 8.5,-161"/>
<polygon fill="none" stroke="black" points="8.5,-161 8.5,-183 255.5,-183 255.5,-161 8.5,-161"/>
<text text-anchor="start" x="28.5" y="-169.2" font-family="Helvetica,sans-Serif" font-size="11.00">symbolpos_geometry</text>
<polygon fill="#ffffff" stroke="transparent" points="8.5,-139 8.5,-161 255.5,-161 255.5,-139 8.5,-139"/>
<polygon fill="none" stroke="black" points="8.5,-139 8.5,-161 255.5,-161 255.5,-139 8.5,-139"/>
<image xlink:href="../../images/foreignKeys.png" width="11px" height="12px" preserveAspectRatio="xMinYMin meet" x="13.5" y="-156"/>
<text text-anchor="start" x="28.5" y="-147.2" font-family="Helvetica,sans-Serif" font-size="11.00">fk_dataowner</text>
<polygon fill="none" stroke="black" points="8.5,-117 8.5,-139 255.5,-139 255.5,-117 8.5,-117"/>
<image xlink:href="../../images/foreignKeys.png" width="11px" height="12px" preserveAspectRatio="xMinYMin meet" x="13.5" y="-134"/>
<text text-anchor="start" x="28.5" y="-125.2" font-family="Helvetica,sans-Serif" font-size="11.00">fk_provider</text>
<polygon fill="none" stroke="black" points="8.5,-95 8.5,-117 255.5,-117 255.5,-95 8.5,-95"/>
<image xlink:href="../../images/foreignKeys.png" width="11px" height="12px" preserveAspectRatio="xMinYMin meet" x="13.5" y="-112"/>
<text text-anchor="start" x="28.5" y="-103.2" font-family="Helvetica,sans-Serif" font-size="11.00">fk_responsible_entity</text>
<polygon fill="none" stroke="black" points="8.5,-73 8.5,-95 255.5,-95 255.5,-73 8.5,-73"/>
<image xlink:href="../../images/foreignKeys.png" width="11px" height="12px" preserveAspectRatio="xMinYMin meet" x="13.5" y="-90"/>
<text text-anchor="start" x="28.5" y="-81.2" font-family="Helvetica,sans-Serif" font-size="11.00">fk_responsible_start</text>
<polygon fill="none" stroke="black" points="8.5,-55 8.5,-73 255.5,-73 255.5,-55 8.5,-55"/>
<text text-anchor="start" x="11.5" y="-61.2" font-family="Helvetica,sans-Serif" font-size="11.00">...</text>
<polygon fill="#ffffff" stroke="transparent" points="8.5,-37 8.5,-55 255.5,-55 255.5,-37 8.5,-37"/>
<polygon fill="none" stroke="black" points="8.5,-37 8.5,-55 255.5,-55 255.5,-37 8.5,-37"/>
<polygon fill="#ffffff" stroke="transparent" points="9.5,-38 9.5,-54 95.5,-54 95.5,-38 9.5,-38"/>
<text text-anchor="start" x="11.5" y="-43.2" font-family="Helvetica,sans-Serif" font-size="11.00">&lt; 7</text>
<polygon fill="#ffffff" stroke="transparent" points="95.5,-38 95.5,-54 169.5,-54 169.5,-38 95.5,-38"/>
<text text-anchor="start" x="128.5" y="-43.2" font-family="Helvetica,sans-Serif" font-size="11.00"> &#160;</text>
<polygon fill="#ffffff" stroke="transparent" points="169.5,-38 169.5,-54 254.5,-54 254.5,-38 169.5,-38"/>
<text text-anchor="start" x="232.5" y="-43.2" font-family="Helvetica,sans-Serif" font-size="11.00">4 &gt;</text>
<polygon fill="black" stroke="black" points="95.5,-38 95.5,-54 95.5,-54 95.5,-38 95.5,-38"/>
<polygon fill="black" stroke="black" points="169.5,-38 169.5,-54 169.5,-54 169.5,-38 169.5,-38"/>
</a>
</g>
</g>
<!-- agxx_wastewater_structure&#45;&gt;measure -->
<g id="edge1" class="edge">
<title>agxx_wastewater_structure:w&#45;&gt;measure:e</title>
<path fill="none" stroke="black" d="M290.51,-527.85C227.66,-506.04 344.05,-326 256.5,-326"/>
<polygon fill="black" stroke="black" points="297.09,-528.82 304.47,-533.56 301.04,-529.41 305,-530 305,-530 305,-530 301.04,-529.41 305.53,-526.44 297.09,-528.82 297.09,-528.82"/>
<ellipse fill="none" stroke="black" cx="293.92" cy="-528.35" rx="3.2" ry="3.2"/>
</g>
<!-- wastewater_structure -->
<g id="node3" class="node">
<title>wastewater_structure</title>
<g id="a_node3"><a xlink:href="../../tables/wastewater_structure.html" xlink:title="wastewater_structure" target="_top">
<polygon fill="#ffffff" stroke="transparent" points="14,-380 14,-790 249,-790 249,-380 14,-380"/>
<polygon fill="#f5f5f5" stroke="transparent" points="14.5,-768 14.5,-790 249.5,-790 249.5,-768 14.5,-768"/>
<polygon fill="none" stroke="black" points="14.5,-768 14.5,-790 249.5,-790 249.5,-768 14.5,-768"/>
<text text-anchor="start" x="19.5" y="-777.2" font-family="Helvetica,sans-Serif" font-weight="bold" font-size="11.00">wastewater_structure</text>
<text text-anchor="start" x="207.5" y="-776.2" font-family="Helvetica,sans-Serif" font-size="11.00">[table]</text>
<polygon fill="none" stroke="black" points="14.5,-746 14.5,-768 249.5,-768 249.5,-746 14.5,-746"/>
<image xlink:href="../../images/primaryKeys.png" width="11px" height="12px" preserveAspectRatio="xMinYMin meet" x="19.5" y="-763"/>
<text text-anchor="start" x="34.5" y="-754.2" font-family="Helvetica,sans-Serif" font-size="11.00">obj_id</text>
<polygon fill="none" stroke="black" points="14.5,-724 14.5,-746 249.5,-746 249.5,-724 14.5,-724"/>
<image xlink:href="../../images/foreignKeys.png" width="11px" height="12px" preserveAspectRatio="xMinYMin meet" x="19.5" y="-741"/>
<text text-anchor="start" x="34.5" y="-732.2" font-family="Helvetica,sans-Serif" font-size="11.00">accessibility</text>
<polygon fill="#ffffff" stroke="transparent" points="14.5,-702 14.5,-724 249.5,-724 249.5,-702 14.5,-702"/>
<polygon fill="none" stroke="black" points="14.5,-702 14.5,-724 249.5,-724 249.5,-702 14.5,-702"/>
<text text-anchor="start" x="34.5" y="-710.2" font-family="Helvetica,sans-Serif" font-size="11.00">detail_geometry3d_geometry</text>
<polygon fill="none" stroke="black" points="14.5,-680 14.5,-702 249.5,-702 249.5,-680 14.5,-680"/>
<image xlink:href="../../images/foreignKeys.png" width="11px" height="12px" preserveAspectRatio="xMinYMin meet" x="19.5" y="-697"/>
<text text-anchor="start" x="34.5" y="-688.2" font-family="Helvetica,sans-Serif" font-size="11.00">elevation_determination</text>
<polygon fill="none" stroke="black" points="14.5,-658 14.5,-680 249.5,-680 249.5,-658 14.5,-658"/>
<image xlink:href="../../images/foreignKeys.png" width="11px" height="12px" preserveAspectRatio="xMinYMin meet" x="19.5" y="-675"/>
<text text-anchor="start" x="34.5" y="-666.2" font-family="Helvetica,sans-Serif" font-size="11.00">financing</text>
<polygon fill="#ffffff" stroke="transparent" points="14.5,-636 14.5,-658 249.5,-658 249.5,-636 14.5,-636"/>
<polygon fill="none" stroke="black" points="14.5,-636 14.5,-658 249.5,-658 249.5,-636 14.5,-636"/>
<text text-anchor="start" x="34.5" y="-644.2" font-family="Helvetica,sans-Serif" font-size="11.00">identifier</text>
<polygon fill="none" stroke="black" points="14.5,-614 14.5,-636 249.5,-636 249.5,-614 14.5,-614"/>
<image xlink:href="../../images/foreignKeys.png" width="11px" height="12px" preserveAspectRatio="xMinYMin meet" x="19.5" y="-631"/>
<text text-anchor="start" x="34.5" y="-622.2" font-family="Helvetica,sans-Serif" font-size="11.00">renovation_necessity</text>
<polygon fill="none" stroke="black" points="14.5,-592 14.5,-614 249.5,-614 249.5,-592 14.5,-592"/>
<image xlink:href="../../images/foreignKeys.png" width="11px" height="12px" preserveAspectRatio="xMinYMin meet" x="19.5" y="-609"/>
<text text-anchor="start" x="34.5" y="-600.2" font-family="Helvetica,sans-Serif" font-size="11.00">rv_construction_type</text>
<polygon fill="none" stroke="black" points="14.5,-570 14.5,-592 249.5,-592 249.5,-570 14.5,-570"/>
<image xlink:href="../../images/foreignKeys.png" width="11px" height="12px" preserveAspectRatio="xMinYMin meet" x="19.5" y="-587"/>
<text text-anchor="start" x="34.5" y="-578.2" font-family="Helvetica,sans-Serif" font-size="11.00">status</text>
<polygon fill="none" stroke="black" points="14.5,-548 14.5,-570 249.5,-570 249.5,-548 14.5,-548"/>
<image xlink:href="../../images/foreignKeys.png" width="11px" height="12px" preserveAspectRatio="xMinYMin meet" x="19.5" y="-565"/>
<text text-anchor="start" x="34.5" y="-556.2" font-family="Helvetica,sans-Serif" font-size="11.00">structure_condition</text>
<polygon fill="#ffffff" stroke="transparent" points="14.5,-526 14.5,-548 249.5,-548 249.5,-526 14.5,-526"/>
<polygon fill="none" stroke="black" points="14.5,-526 14.5,-548 249.5,-548 249.5,-526 14.5,-526"/>
<image xlink:href="../../images/foreignKeys.png" width="11px" height="12px" preserveAspectRatio="xMinYMin meet" x="19.5" y="-543"/>
<text text-anchor="start" x="34.5" y="-534.2" font-family="Helvetica,sans-Serif" font-size="11.00">fk_dataowner</text>
<polygon fill="none" stroke="black" points="14.5,-504 14.5,-526 249.5,-526 249.5,-504 14.5,-504"/>
<image xlink:href="../../images/foreignKeys.png" width="11px" height="12px" preserveAspectRatio="xMinYMin meet" x="19.5" y="-521"/>
<text text-anchor="start" x="34.5" y="-512.2" font-family="Helvetica,sans-Serif" font-size="11.00">fk_provider</text>
<polygon fill="none" stroke="black" points="14.5,-482 14.5,-504 249.5,-504 249.5,-482 14.5,-482"/>
<image xlink:href="../../images/foreignKeys.png" width="11px" height="12px" preserveAspectRatio="xMinYMin meet" x="19.5" y="-499"/>
<text text-anchor="start" x="34.5" y="-490.2" font-family="Helvetica,sans-Serif" font-size="11.00">fk_owner</text>
<polygon fill="none" stroke="black" points="14.5,-460 14.5,-482 249.5,-482 249.5,-460 14.5,-460"/>
<image xlink:href="../../images/foreignKeys.png" width="11px" height="12px" preserveAspectRatio="xMinYMin meet" x="19.5" y="-477"/>
<text text-anchor="start" x="34.5" y="-468.2" font-family="Helvetica,sans-Serif" font-size="11.00">fk_operator</text>
<polygon fill="none" stroke="black" points="14.5,-438 14.5,-460 249.5,-460 249.5,-438 14.5,-438"/>
<image xlink:href="../../images/foreignKeys.png" width="11px" height="12px" preserveAspectRatio="xMinYMin meet" x="19.5" y="-455"/>
<text text-anchor="start" x="34.5" y="-446.2" font-family="Helvetica,sans-Serif" font-size="11.00">fk_main_cover</text>
<polygon fill="none" stroke="black" points="14.5,-416 14.5,-438 249.5,-438 249.5,-416 14.5,-416"/>
<image xlink:href="../../images/foreignKeys.png" width="11px" height="12px" preserveAspectRatio="xMinYMin meet" x="19.5" y="-433"/>
<text text-anchor="start" x="34.5" y="-424.2" font-family="Helvetica,sans-Serif" font-size="11.00">fk_main_wastewater_node</text>
<polygon fill="none" stroke="black" points="14.5,-398 14.5,-416 249.5,-416 249.5,-398 14.5,-398"/>
<text text-anchor="start" x="17.5" y="-404.2" font-family="Helvetica,sans-Serif" font-size="11.00">...</text>
<polygon fill="#ffffff" stroke="transparent" points="14.5,-380 14.5,-398 249.5,-398 249.5,-380 14.5,-380"/>
<polygon fill="none" stroke="black" points="14.5,-380 14.5,-398 249.5,-398 249.5,-380 14.5,-380"/>
<polygon fill="#ffffff" stroke="transparent" points="15.5,-381 15.5,-397 99.5,-397 99.5,-381 15.5,-381"/>
<text text-anchor="start" x="17.5" y="-386.2" font-family="Helvetica,sans-Serif" font-size="11.00">&lt; 13</text>
<polygon fill="#ffffff" stroke="transparent" points="99.5,-381 99.5,-397 164.5,-397 164.5,-381 99.5,-381"/>
<text text-anchor="start" x="128" y="-386.2" font-family="Helvetica,sans-Serif" font-size="11.00"> &#160;</text>
<polygon fill="#ffffff" stroke="transparent" points="164.5,-381 164.5,-397 248.5,-397 248.5,-381 164.5,-381"/>
<text text-anchor="start" x="219.5" y="-386.2" font-family="Helvetica,sans-Serif" font-size="11.00">17 &gt;</text>
<polygon fill="black" stroke="black" points="99.5,-381 99.5,-397 99.5,-397 99.5,-381 99.5,-381"/>
<polygon fill="black" stroke="black" points="164.5,-381 164.5,-397 164.5,-397 164.5,-381 164.5,-381"/>
</a>
</g>
</g>
<!-- agxx_wastewater_structure&#45;&gt;wastewater_structure -->
<g id="edge2" class="edge">
<title>agxx_wastewater_structure:w&#45;&gt;wastewater_structure:e</title>
<path fill="none" stroke="black" d="M290.69,-554.03C225.65,-575.32 339.25,-757 250.5,-757"/>
<polygon fill="black" stroke="black" points="297.08,-553.12 305.51,-555.56 301.04,-552.56 305,-552 305,-552 305,-552 301.04,-552.56 304.49,-548.44 297.08,-553.12 297.08,-553.12"/>
<ellipse fill="none" stroke="black" cx="293.91" cy="-553.57" rx="3.2" ry="3.2"/>
</g>
</g>
</svg>
