<?xml version="1.0" encoding="UTF-8" standalone="no"?>
<!DOCTYPE svg PUBLIC "-//W3C//DTD SVG 1.1//EN"
 "http://www.w3.org/Graphics/SVG/1.1/DTD/svg11.dtd">
<!-- Generated by graphviz version 2.43.0 (0)
 -->
<!-- Title: oneDegreeRelationshipsDiagram Pages: 1 -->
<svg width="836pt" height="562pt"
 viewBox="0.00 0.00 836.00 562.00" xmlns="http://www.w3.org/2000/svg" xmlns:xlink="http://www.w3.org/1999/xlink">
<g id="graph0" class="graph" transform="scale(1 1) rotate(0) translate(4 558)">
<title>oneDegreeRelationshipsDiagram</title>
<polygon fill="#ffffff" stroke="transparent" points="-4,4 -4,-558 832,-558 832,4 -4,4"/>
<text text-anchor="middle" x="79.5" y="-7.2" font-family="Helvetica,sans-Serif" font-size="11.00">Generated by SchemaSpy</text>
<!-- agxx_building_group -->
<g id="node1" class="node">
<title>agxx_building_group</title>
<g id="a_node1"><a xlink:href="../../tables/agxx_building_group.html" xlink:title="agxx_building_group" target="_top">
<polygon fill="#ffffff" stroke="transparent" points="417,-37 417,-301 820,-301 820,-37 417,-37"/>
<polygon fill="#f5f5f5" stroke="transparent" points="419.5,-277 419.5,-299 818.5,-299 818.5,-277 419.5,-277"/>
<polygon fill="none" stroke="black" points="419.5,-277 419.5,-299 818.5,-299 818.5,-277 419.5,-277"/>
<text text-anchor="start" x="424.5" y="-286.2" font-family="Helvetica,sans-Serif" font-weight="bold" font-size="11.00">agxx_building_group</text>
<text text-anchor="start" x="776.5" y="-285.2" font-family="Helvetica,sans-Serif" font-size="11.00">[table]</text>
<polygon fill="none" stroke="black" points="419.5,-255 419.5,-277 712.5,-277 712.5,-255 419.5,-255"/>
<image xlink:href="../../images/primaryKeys.png" width="11px" height="12px" preserveAspectRatio="xMinYMin meet" x="424.5" y="-272"/>
<text text-anchor="start" x="439.5" y="-263.2" font-family="Helvetica,sans-Serif" font-size="11.00">uuid</text>
<polygon fill="none" stroke="black" points="712.5,-255 712.5,-277 818.5,-277 818.5,-255 712.5,-255"/>
<text text-anchor="start" x="715.5" y="-263.2" font-family="Helvetica,sans-Serif" font-size="11.00">uuid[2147483647]</text>
<polygon fill="none" stroke="black" points="419.5,-233 419.5,-255 712.5,-255 712.5,-233 419.5,-233"/>
<image xlink:href="../../images/foreignKeys.png" width="11px" height="12px" preserveAspectRatio="xMinYMin meet" x="424.5" y="-250"/>
<text text-anchor="start" x="439.5" y="-241.2" font-family="Helvetica,sans-Serif" font-size="11.00">fk_building_group</text>
<polygon fill="none" stroke="black" points="712.5,-233 712.5,-255 818.5,-255 818.5,-233 712.5,-233"/>
<text text-anchor="start" x="715.5" y="-241.2" font-family="Helvetica,sans-Serif" font-size="11.00">varchar[16]</text>
<polygon fill="none" stroke="black" points="419.5,-211 419.5,-233 712.5,-233 712.5,-211 419.5,-211"/>
<text text-anchor="start" x="439.5" y="-219.2" font-family="Helvetica,sans-Serif" font-size="11.00">ag96_owner_address</text>
<polygon fill="none" stroke="black" points="712.5,-211 712.5,-233 818.5,-233 818.5,-211 712.5,-211"/>
<text text-anchor="start" x="715.5" y="-219.2" font-family="Helvetica,sans-Serif" font-size="11.00">varchar[80]</text>
<polygon fill="none" stroke="black" points="419.5,-189 419.5,-211 712.5,-211 712.5,-189 419.5,-189"/>
<text text-anchor="start" x="439.5" y="-197.2" font-family="Helvetica,sans-Serif" font-size="11.00">ag96_owner_name</text>
<polygon fill="none" stroke="black" points="712.5,-189 712.5,-211 818.5,-211 818.5,-189 712.5,-189"/>
<text text-anchor="start" x="715.5" y="-197.2" font-family="Helvetica,sans-Serif" font-size="11.00">varchar[40]</text>
<polygon fill="none" stroke="black" points="419.5,-167 419.5,-189 712.5,-189 712.5,-167 419.5,-167"/>
<text text-anchor="start" x="439.5" y="-175.2" font-family="Helvetica,sans-Serif" font-size="11.00">ag96_label_number</text>
<polygon fill="none" stroke="black" points="712.5,-167 712.5,-189 818.5,-189 818.5,-167 712.5,-167"/>
<text text-anchor="start" x="715.5" y="-175.2" font-family="Helvetica,sans-Serif" font-size="11.00">int4[10]</text>
<polygon fill="none" stroke="black" points="419.5,-145 419.5,-167 712.5,-167 712.5,-145 419.5,-145"/>
<image xlink:href="../../images/foreignKeys.png" width="11px" height="12px" preserveAspectRatio="xMinYMin meet" x="424.5" y="-162"/>
<text text-anchor="start" x="439.5" y="-153.2" font-family="Helvetica,sans-Serif" font-size="11.00">ag96_disposal_wastewater</text>
<polygon fill="none" stroke="black" points="712.5,-145 712.5,-167 818.5,-167 818.5,-145 712.5,-145"/>
<text text-anchor="start" x="715.5" y="-153.2" font-family="Helvetica,sans-Serif" font-size="11.00">int8[19]</text>
<polygon fill="none" stroke="black" points="419.5,-123 419.5,-145 712.5,-145 712.5,-123 419.5,-123"/>
<image xlink:href="../../images/foreignKeys.png" width="11px" height="12px" preserveAspectRatio="xMinYMin meet" x="424.5" y="-140"/>
<text text-anchor="start" x="439.5" y="-131.2" font-family="Helvetica,sans-Serif" font-size="11.00">ag96_disposal_industrial_wastewater</text>
<polygon fill="none" stroke="black" points="712.5,-123 712.5,-145 818.5,-145 818.5,-123 712.5,-123"/>
<text text-anchor="start" x="715.5" y="-131.2" font-family="Helvetica,sans-Serif" font-size="11.00">int8[19]</text>
<polygon fill="none" stroke="black" points="419.5,-101 419.5,-123 712.5,-123 712.5,-101 419.5,-101"/>
<image xlink:href="../../images/foreignKeys.png" width="11px" height="12px" preserveAspectRatio="xMinYMin meet" x="424.5" y="-118"/>
<text text-anchor="start" x="439.5" y="-109.2" font-family="Helvetica,sans-Serif" font-size="11.00">ag96_disposal_square_water</text>
<polygon fill="none" stroke="black" points="712.5,-101 712.5,-123 818.5,-123 818.5,-101 712.5,-101"/>
<text text-anchor="start" x="715.5" y="-109.2" font-family="Helvetica,sans-Serif" font-size="11.00">int8[19]</text>
<polygon fill="none" stroke="black" points="419.5,-79 419.5,-101 712.5,-101 712.5,-79 419.5,-79"/>
<image xlink:href="../../images/foreignKeys.png" width="11px" height="12px" preserveAspectRatio="xMinYMin meet" x="424.5" y="-96"/>
<text text-anchor="start" x="439.5" y="-87.2" font-family="Helvetica,sans-Serif" font-size="11.00">ag96_disposal_roof_water</text>
<polygon fill="none" stroke="black" points="712.5,-79 712.5,-101 818.5,-101 818.5,-79 712.5,-79"/>
<text text-anchor="start" x="715.5" y="-87.2" font-family="Helvetica,sans-Serif" font-size="11.00">int8[19]</text>
<polygon fill="none" stroke="black" points="419.5,-57 419.5,-79 712.5,-79 712.5,-57 419.5,-57"/>
<text text-anchor="start" x="439.5" y="-65.2" font-family="Helvetica,sans-Serif" font-size="11.00">ag96_population</text>
<polygon fill="none" stroke="black" points="712.5,-57 712.5,-79 818.5,-79 818.5,-57 712.5,-57"/>
<text text-anchor="start" x="715.5" y="-65.2" font-family="Helvetica,sans-Serif" font-size="11.00">int8[19]</text>
<polygon fill="#ffffff" stroke="transparent" points="419.5,-39 419.5,-57 818.5,-57 818.5,-39 419.5,-39"/>
<polygon fill="none" stroke="black" points="419.5,-39 419.5,-57 818.5,-57 818.5,-39 419.5,-39"/>
<polygon fill="#ffffff" stroke="transparent" points="420.5,-40 420.5,-56 557.5,-56 557.5,-40 420.5,-40"/>
<text text-anchor="start" x="422.5" y="-45.2" font-family="Helvetica,sans-Serif" font-size="11.00">&lt; 5</text>
<polygon fill="#ffffff" stroke="transparent" points="557.5,-40 557.5,-56 681.5,-56 681.5,-40 557.5,-40"/>
<text text-anchor="start" x="615.5" y="-45.2" font-family="Helvetica,sans-Serif" font-size="11.00"> &#160;</text>
<polygon fill="#ffffff" stroke="transparent" points="681.5,-40 681.5,-56 817.5,-56 817.5,-40 681.5,-40"/>
<text text-anchor="start" x="795.5" y="-45.2" font-family="Helvetica,sans-Serif" font-size="11.00">0 &gt;</text>
<polygon fill="black" stroke="black" points="557.5,-40 557.5,-56 557.5,-56 557.5,-40 557.5,-40"/>
<polygon fill="black" stroke="black" points="681.5,-40 681.5,-56 681.5,-56 681.5,-40 681.5,-40"/>
<polygon fill="none" stroke="black" stroke-width="2" points="418,-38 418,-300 819,-300 819,-38 418,-38"/>
</a>
</g>
</g>
<!-- tww_vl.building_group_ag96_disposal_type -->
<g id="node2" class="node">
<title>tww_vl.building_group_ag96_disposal_type</title>
<g id="a_node2"><a xlink:href="../../../tww_vl/tables/building_group_ag96_disposal_type.html" xlink:title="tww_vl.building_group_ag96_disposal_type" target="_top">
<polygon fill="#ffffff" stroke="transparent" points="8,-83 8,-141 368,-141 368,-83 8,-83"/>
<polygon fill="#f5f5f5" stroke="transparent" points="8,-119 8,-141 368,-141 368,-119 8,-119"/>
<polygon fill="none" stroke="black" points="8,-119 8,-141 368,-141 368,-119 8,-119"/>
<text text-anchor="start" x="13" y="-128.2" font-family="Helvetica,sans-Serif" font-weight="bold" font-size="11.00">tww_vl.building_group_ag96_disposal_type</text>
<text text-anchor="start" x="326" y="-127.2" font-family="Helvetica,sans-Serif" font-size="11.00">[table]</text>
<polygon fill="none" stroke="black" points="8,-101 8,-119 368,-119 368,-101 8,-101"/>
<text text-anchor="start" x="11" y="-107.2" font-family="Helvetica,sans-Serif" font-size="11.00">...</text>
<polygon fill="#ffffff" stroke="transparent" points="8,-83 8,-101 368,-101 368,-83 8,-83"/>
<polygon fill="none" stroke="black" points="8,-83 8,-101 368,-101 368,-83 8,-83"/>
<polygon fill="#ffffff" stroke="transparent" points="9,-84 9,-100 115,-100 115,-84 9,-84"/>
<text text-anchor="start" x="11" y="-89.2" font-family="Helvetica,sans-Serif" font-size="11.00"> &#160;</text>
<polygon fill="#ffffff" stroke="transparent" points="115,-84 115,-100 250,-100 250,-84 115,-84"/>
<text text-anchor="start" x="164" y="-89.2" font-family="Helvetica,sans-Serif" font-size="11.00">0 rows</text>
<polygon fill="#ffffff" stroke="transparent" points="250,-84 250,-100 367,-100 367,-84 250,-84"/>
<text text-anchor="start" x="345" y="-89.2" font-family="Helvetica,sans-Serif" font-size="11.00">4 &gt;</text>
<polygon fill="black" stroke="black" points="115,-84 115,-100 115,-100 115,-84 115,-84"/>
<polygon fill="black" stroke="black" points="250,-84 250,-100 250,-100 250,-84 250,-84"/>
</a>
</g>
</g>
<!-- agxx_building_group&#45;&gt;tww_vl.building_group_ag96_disposal_type -->
<g id="edge1" class="edge">
<title>agxx_building_group:w&#45;&gt;tww_vl.building_group_ag96_disposal_type:e</title>
<path fill="none" stroke="black" d="M403.79,-133.86C394.66,-133.68 385.4,-133.36 376.11,-132.91"/>
<polygon fill="black" stroke="black" points="410.5,-133.92 418.46,-137.6 414.5,-133.96 418.5,-134 418.5,-134 418.5,-134 414.5,-133.96 418.54,-130.4 410.5,-133.92 410.5,-133.92"/>
<ellipse fill="none" stroke="black" cx="407.3" cy="-133.89" rx="3.2" ry="3.2"/>
</g>
<!-- agxx_building_group&#45;&gt;tww_vl.building_group_ag96_disposal_type -->
<g id="edge2" class="edge">
<title>agxx_building_group:w&#45;&gt;tww_vl.building_group_ag96_disposal_type:e</title>
<path fill="none" stroke="black" d="M403.79,-90.14C394.66,-90.32 385.4,-90.64 376.11,-91.09"/>
<polygon fill="black" stroke="black" points="410.5,-90.08 418.54,-93.6 414.5,-90.04 418.5,-90 418.5,-90 418.5,-90 414.5,-90.04 418.46,-86.4 410.5,-90.08 410.5,-90.08"/>
<ellipse fill="none" stroke="black" cx="407.3" cy="-90.11" rx="3.2" ry="3.2"/>
</g>
<!-- agxx_building_group&#45;&gt;tww_vl.building_group_ag96_disposal_type -->
<g id="edge3" class="edge">
<title>agxx_building_group:w&#45;&gt;tww_vl.building_group_ag96_disposal_type:e</title>
<path fill="none" stroke="black" d="M403.85,-112C394.75,-112 385.52,-112 376.25,-112"/>
<polygon fill="black" stroke="black" points="410.5,-112 418.5,-115.6 414.5,-112 418.5,-112 418.5,-112 418.5,-112 414.5,-112 418.5,-108.4 410.5,-112 410.5,-112"/>
<ellipse fill="none" stroke="black" cx="407.3" cy="-112" rx="3.2" ry="3.2"/>
</g>
<!-- agxx_building_group&#45;&gt;tww_vl.building_group_ag96_disposal_type -->
<g id="edge4" class="edge">
<title>agxx_building_group:w&#45;&gt;tww_vl.building_group_ag96_disposal_type:e</title>
<path fill="none" stroke="black" d="M404.07,-154.53C391.01,-152.67 371.58,-149.2 349.64,-145.01"/>
<polygon fill="black" stroke="black" points="410.54,-155.19 418.14,-159.58 414.52,-155.59 418.5,-156 418.5,-156 418.5,-156 414.52,-155.59 418.86,-152.42 410.54,-155.19 410.54,-155.19"/>
<ellipse fill="none" stroke="black" cx="407.36" cy="-154.87" rx="3.2" ry="3.2"/>
</g>
<!-- building_group -->
<g id="node3" class="node">
<title>building_group</title>
<g id="a_node3"><a xlink:href="../../tables/building_group.html" xlink:title="building_group" target="_top">
<polygon fill="#ffffff" stroke="transparent" points="48,-162 48,-550 328,-550 328,-162 48,-162"/>
<polygon fill="#f5f5f5" stroke="transparent" points="48,-528 48,-550 328,-550 328,-528 48,-528"/>
<polygon fill="none" stroke="black" points="48,-528 48,-550 328,-550 328,-528 48,-528"/>
<text text-anchor="start" x="53" y="-537.2" font-family="Helvetica,sans-Serif" font-weight="bold" font-size="11.00">building_group</text>
<text text-anchor="start" x="286" y="-536.2" font-family="Helvetica,sans-Serif" font-size="11.00">[table]</text>
<polygon fill="none" stroke="black" points="48,-506 48,-528 328,-528 328,-506 48,-506"/>
<image xlink:href="../../images/primaryKeys.png" width="11px" height="12px" preserveAspectRatio="xMinYMin meet" x="53" y="-523"/>
<text text-anchor="start" x="68" y="-514.2" font-family="Helvetica,sans-Serif" font-size="11.00">obj_id</text>
<polygon fill="none" stroke="black" points="48,-484 48,-506 328,-506 328,-484 48,-484"/>
<image xlink:href="../../images/foreignKeys.png" width="11px" height="12px" preserveAspectRatio="xMinYMin meet" x="53" y="-501"/>
<text text-anchor="start" x="68" y="-492.2" font-family="Helvetica,sans-Serif" font-size="11.00">connecting_obligation</text>
<polygon fill="none" stroke="black" points="48,-462 48,-484 328,-484 328,-462 48,-462"/>
<image xlink:href="../../images/foreignKeys.png" width="11px" height="12px" preserveAspectRatio="xMinYMin meet" x="53" y="-479"/>
<text text-anchor="start" x="68" y="-470.2" font-family="Helvetica,sans-Serif" font-size="11.00">connection_wwtp</text>
<polygon fill="none" stroke="black" points="48,-440 48,-462 328,-462 328,-440 48,-440"/>
<image xlink:href="../../images/foreignKeys.png" width="11px" height="12px" preserveAspectRatio="xMinYMin meet" x="53" y="-457"/>
<text text-anchor="start" x="68" y="-448.2" font-family="Helvetica,sans-Serif" font-size="11.00">drainage_map</text>
<polygon fill="none" stroke="black" points="48,-418 48,-440 328,-440 328,-418 48,-418"/>
<image xlink:href="../../images/foreignKeys.png" width="11px" height="12px" preserveAspectRatio="xMinYMin meet" x="53" y="-435"/>
<text text-anchor="start" x="68" y="-426.2" font-family="Helvetica,sans-Serif" font-size="11.00">drinking_water_network</text>
<polygon fill="none" stroke="black" points="48,-396 48,-418 328,-418 328,-396 48,-396"/>
<image xlink:href="../../images/foreignKeys.png" width="11px" height="12px" preserveAspectRatio="xMinYMin meet" x="53" y="-413"/>
<text text-anchor="start" x="68" y="-404.2" font-family="Helvetica,sans-Serif" font-size="11.00">drinking_water_others</text>
<polygon fill="none" stroke="black" points="48,-374 48,-396 328,-396 328,-374 48,-374"/>
<image xlink:href="../../images/foreignKeys.png" width="11px" height="12px" preserveAspectRatio="xMinYMin meet" x="53" y="-391"/>
<text text-anchor="start" x="68" y="-382.2" font-family="Helvetica,sans-Serif" font-size="11.00">electric_connection</text>
<polygon fill="none" stroke="black" points="48,-352 48,-374 328,-374 328,-352 48,-352"/>
<image xlink:href="../../images/foreignKeys.png" width="11px" height="12px" preserveAspectRatio="xMinYMin meet" x="53" y="-369"/>
<text text-anchor="start" x="68" y="-360.2" font-family="Helvetica,sans-Serif" font-size="11.00">function</text>
<polygon fill="#ffffff" stroke="transparent" points="48,-330 48,-352 328,-352 328,-330 48,-330"/>
<polygon fill="none" stroke="black" points="48,-330 48,-352 328,-352 328,-330 48,-330"/>
<text text-anchor="start" x="68" y="-338.2" font-family="Helvetica,sans-Serif" font-size="11.00">identifier</text>
<polygon fill="none" stroke="black" points="48,-308 48,-330 328,-330 328,-308 48,-308"/>
<image xlink:href="../../images/foreignKeys.png" width="11px" height="12px" preserveAspectRatio="xMinYMin meet" x="53" y="-325"/>
<text text-anchor="start" x="68" y="-316.2" font-family="Helvetica,sans-Serif" font-size="11.00">renovation_necessity</text>
<polygon fill="#ffffff" stroke="transparent" points="48,-286 48,-308 328,-308 328,-286 48,-286"/>
<polygon fill="none" stroke="black" points="48,-286 48,-308 328,-308 328,-286 48,-286"/>
<text text-anchor="start" x="68" y="-294.2" font-family="Helvetica,sans-Serif" font-size="11.00">situation_geometry</text>
<polygon fill="#ffffff" stroke="transparent" points="48,-264 48,-286 328,-286 328,-264 48,-264"/>
<polygon fill="none" stroke="black" points="48,-264 48,-286 328,-286 328,-264 48,-264"/>
<image xlink:href="../../images/foreignKeys.png" width="11px" height="12px" preserveAspectRatio="xMinYMin meet" x="53" y="-281"/>
<text text-anchor="start" x="68" y="-272.2" font-family="Helvetica,sans-Serif" font-size="11.00">fk_dataowner</text>
<polygon fill="none" stroke="black" points="48,-242 48,-264 328,-264 328,-242 48,-242"/>
<image xlink:href="../../images/foreignKeys.png" width="11px" height="12px" preserveAspectRatio="xMinYMin meet" x="53" y="-259"/>
<text text-anchor="start" x="68" y="-250.2" font-family="Helvetica,sans-Serif" font-size="11.00">fk_provider</text>
<polygon fill="none" stroke="black" points="48,-220 48,-242 328,-242 328,-220 48,-220"/>
<image xlink:href="../../images/foreignKeys.png" width="11px" height="12px" preserveAspectRatio="xMinYMin meet" x="53" y="-237"/>
<text text-anchor="start" x="68" y="-228.2" font-family="Helvetica,sans-Serif" font-size="11.00">fk_disposal</text>
<polygon fill="none" stroke="black" points="48,-198 48,-220 328,-220 328,-198 48,-198"/>
<image xlink:href="../../images/foreignKeys.png" width="11px" height="12px" preserveAspectRatio="xMinYMin meet" x="53" y="-215"/>
<text text-anchor="start" x="68" y="-206.2" font-family="Helvetica,sans-Serif" font-size="11.00">fk_measure</text>
<polygon fill="none" stroke="black" points="48,-180 48,-198 328,-198 328,-180 48,-180"/>
<text text-anchor="start" x="51" y="-186.2" font-family="Helvetica,sans-Serif" font-size="11.00">...</text>
<polygon fill="#ffffff" stroke="transparent" points="48,-162 48,-180 328,-180 328,-162 48,-162"/>
<polygon fill="none" stroke="black" points="48,-162 48,-180 328,-180 328,-162 48,-162"/>
<polygon fill="#ffffff" stroke="transparent" points="49,-163 49,-179 151,-179 151,-163 49,-163"/>
<text text-anchor="start" x="51" y="-168.2" font-family="Helvetica,sans-Serif" font-size="11.00">&lt; 12</text>
<polygon fill="#ffffff" stroke="transparent" points="151,-163 151,-179 233,-179 233,-163 151,-163"/>
<text text-anchor="start" x="188" y="-168.2" font-family="Helvetica,sans-Serif" font-size="11.00"> &#160;</text>
<polygon fill="#ffffff" stroke="transparent" points="233,-163 233,-179 327,-179 327,-163 233,-163"/>
<text text-anchor="start" x="305" y="-168.2" font-family="Helvetica,sans-Serif" font-size="11.00">5 &gt;</text>
<polygon fill="black" stroke="black" points="151,-163 151,-179 151,-179 151,-163 151,-163"/>
<polygon fill="black" stroke="black" points="233,-163 233,-179 233,-179 233,-163 233,-163"/>
</a>
</g>
</g>
<!-- agxx_building_group&#45;&gt;building_group -->
<g id="edge5" class="edge">
<title>agxx_building_group:w&#45;&gt;building_group:e</title>
<path fill="none" stroke="black" d="M403.92,-245.4C304.23,-266.45 451.33,-517 329,-517"/>
<polygon fill="black" stroke="black" points="410.54,-244.77 418.85,-247.58 414.52,-244.38 418.5,-244 418.5,-244 418.5,-244 414.52,-244.38 418.15,-240.42 410.54,-244.77 410.54,-244.77"/>
<ellipse fill="none" stroke="black" cx="407.35" cy="-245.07" rx="3.2" ry="3.2"/>
</g>
</g>
</svg>
