<?xml version="1.0" encoding="UTF-8" standalone="no"?>
<!DOCTYPE svg PUBLIC "-//W3C//DTD SVG 1.1//EN"
 "http://www.w3.org/Graphics/SVG/1.1/DTD/svg11.dtd">
<!-- Generated by graphviz version 2.47.1 (20210515.0534)
 -->
<!-- Title: oneDegreeRelationshipsDiagram Pages: 1 -->
<svg width="853pt" height="807pt"
 viewBox="0.00 0.00 853.46 807.00" xmlns="http://www.w3.org/2000/svg" xmlns:xlink="http://www.w3.org/1999/xlink">
<g id="graph0" class="graph" transform="scale(1 1) rotate(0) translate(4 803)">
<title>oneDegreeRelationshipsDiagram</title>
<polygon fill="#ffffff" stroke="transparent" points="-4,4 -4,-803 849.46,-803 849.46,4 -4,4"/>
<text text-anchor="middle" x="73.5" y="-7.2" font-family="Helvetica,sans-Serif" font-size="11.00">Generated by SchemaSpy</text>
<!-- cover -->
<g id="node1" class="node">
<title>cover</title>
<g id="a_node1"><a xlink:href="../../tables/cover.html" xlink:title="cover" target="_top">
<polygon fill="#ffffff" stroke="transparent" points="558.46,-201 558.46,-487 837.46,-487 837.46,-201 558.46,-201"/>
<polygon fill="#f5f5f5" stroke="transparent" points="560.96,-463 560.96,-485 835.96,-485 835.96,-463 560.96,-463"/>
<polygon fill="none" stroke="black" points="560.96,-463 560.96,-485 835.96,-485 835.96,-463 560.96,-463"/>
<text text-anchor="start" x="564.46" y="-472.2" font-family="Helvetica,sans-Serif" font-weight="bold" font-size="11.00">cover</text>
<text text-anchor="start" x="796.96" y="-471.2" font-family="Helvetica,sans-Serif" font-size="11.00">[table]</text>
<polygon fill="none" stroke="black" points="560.96,-441 560.96,-463 712.96,-463 712.96,-441 560.96,-441"/>
<image xlink:href="../../images/primaryKeys.png" width="11px" height="12px" preserveAspectRatio="xMinYMin meet" x="565.956" y="-458"/>
<text text-anchor="start" x="580.96" y="-449.2" font-family="Helvetica,sans-Serif" font-size="11.00">obj_id</text>
<polygon fill="none" stroke="black" points="712.96,-441 712.96,-463 835.96,-463 835.96,-441 712.96,-441"/>
<text text-anchor="start" x="715.96" y="-449.2" font-family="Helvetica,sans-Serif" font-size="11.00">varchar[16]</text>
<polygon fill="none" stroke="black" points="560.96,-419 560.96,-441 712.96,-441 712.96,-419 560.96,-419"/>
<text text-anchor="start" x="580.96" y="-427.2" font-family="Helvetica,sans-Serif" font-size="11.00">brand</text>
<polygon fill="none" stroke="black" points="712.96,-419 712.96,-441 835.96,-441 835.96,-419 712.96,-419"/>
<text text-anchor="start" x="715.96" y="-427.2" font-family="Helvetica,sans-Serif" font-size="11.00">text[2147483647]</text>
<polygon fill="none" stroke="black" points="560.96,-397 560.96,-419 712.96,-419 712.96,-397 560.96,-397"/>
<image xlink:href="../../images/foreignKeys.png" width="11px" height="12px" preserveAspectRatio="xMinYMin meet" x="565.956" y="-414"/>
<text text-anchor="start" x="580.96" y="-405.2" font-family="Helvetica,sans-Serif" font-size="11.00">cover_shape</text>
<polygon fill="none" stroke="black" points="712.96,-397 712.96,-419 835.96,-419 835.96,-397 712.96,-397"/>
<text text-anchor="start" x="715.96" y="-405.2" font-family="Helvetica,sans-Serif" font-size="11.00">int4[10]</text>
<polygon fill="none" stroke="black" points="560.96,-375 560.96,-397 712.96,-397 712.96,-375 560.96,-375"/>
<text text-anchor="start" x="580.96" y="-383.2" font-family="Helvetica,sans-Serif" font-size="11.00">diameter</text>
<polygon fill="none" stroke="black" points="712.96,-375 712.96,-397 835.96,-397 835.96,-375 712.96,-375"/>
<text text-anchor="start" x="715.96" y="-383.2" font-family="Helvetica,sans-Serif" font-size="11.00">int2[5]</text>
<polygon fill="none" stroke="black" points="560.96,-353 560.96,-375 712.96,-375 712.96,-353 560.96,-353"/>
<image xlink:href="../../images/foreignKeys.png" width="11px" height="12px" preserveAspectRatio="xMinYMin meet" x="565.956" y="-370"/>
<text text-anchor="start" x="580.96" y="-361.2" font-family="Helvetica,sans-Serif" font-size="11.00">fastening</text>
<polygon fill="none" stroke="black" points="712.96,-353 712.96,-375 835.96,-375 835.96,-353 712.96,-353"/>
<text text-anchor="start" x="715.96" y="-361.2" font-family="Helvetica,sans-Serif" font-size="11.00">int4[10]</text>
<polygon fill="none" stroke="black" points="560.96,-331 560.96,-353 712.96,-353 712.96,-331 560.96,-331"/>
<text text-anchor="start" x="580.96" y="-339.2" font-family="Helvetica,sans-Serif" font-size="11.00">level</text>
<polygon fill="none" stroke="black" points="712.96,-331 712.96,-353 835.96,-353 835.96,-331 712.96,-331"/>
<text text-anchor="start" x="715.96" y="-339.2" font-family="Helvetica,sans-Serif" font-size="11.00">numeric[7,3]</text>
<polygon fill="none" stroke="black" points="560.96,-309 560.96,-331 712.96,-331 712.96,-309 560.96,-309"/>
<image xlink:href="../../images/foreignKeys.png" width="11px" height="12px" preserveAspectRatio="xMinYMin meet" x="565.956" y="-326"/>
<text text-anchor="start" x="580.96" y="-317.2" font-family="Helvetica,sans-Serif" font-size="11.00">material</text>
<polygon fill="none" stroke="black" points="712.96,-309 712.96,-331 835.96,-331 835.96,-309 712.96,-309"/>
<text text-anchor="start" x="715.96" y="-317.2" font-family="Helvetica,sans-Serif" font-size="11.00">int4[10]</text>
<polygon fill="none" stroke="black" points="560.96,-287 560.96,-309 712.96,-309 712.96,-287 560.96,-287"/>
<image xlink:href="../../images/foreignKeys.png" width="11px" height="12px" preserveAspectRatio="xMinYMin meet" x="565.956" y="-304"/>
<text text-anchor="start" x="580.96" y="-295.2" font-family="Helvetica,sans-Serif" font-size="11.00">positional_accuracy</text>
<polygon fill="none" stroke="black" points="712.96,-287 712.96,-309 835.96,-309 835.96,-287 712.96,-287"/>
<text text-anchor="start" x="715.96" y="-295.2" font-family="Helvetica,sans-Serif" font-size="11.00">int4[10]</text>
<polygon fill="#ffffff" stroke="transparent" points="560.96,-265 560.96,-287 712.96,-287 712.96,-265 560.96,-265"/>
<polygon fill="none" stroke="black" points="560.96,-265 560.96,-287 712.96,-287 712.96,-265 560.96,-265"/>
<text text-anchor="start" x="580.96" y="-273.2" font-family="Helvetica,sans-Serif" font-size="11.00">situation3d_geometry</text>
<polygon fill="none" stroke="black" points="712.96,-265 712.96,-287 835.96,-287 835.96,-265 712.96,-265"/>
<text text-anchor="start" x="715.96" y="-273.2" font-family="Helvetica,sans-Serif" font-size="11.00">geometry[2147483647]</text>
<polygon fill="none" stroke="black" points="560.96,-243 560.96,-265 712.96,-265 712.96,-243 560.96,-243"/>
<image xlink:href="../../images/foreignKeys.png" width="11px" height="12px" preserveAspectRatio="xMinYMin meet" x="565.956" y="-260"/>
<text text-anchor="start" x="580.96" y="-251.2" font-family="Helvetica,sans-Serif" font-size="11.00">sludge_bucket</text>
<polygon fill="none" stroke="black" points="712.96,-243 712.96,-265 835.96,-265 835.96,-243 712.96,-243"/>
<text text-anchor="start" x="715.96" y="-251.2" font-family="Helvetica,sans-Serif" font-size="11.00">int4[10]</text>
<polygon fill="none" stroke="black" points="560.96,-221 560.96,-243 712.96,-243 712.96,-221 560.96,-221"/>
<image xlink:href="../../images/foreignKeys.png" width="11px" height="12px" preserveAspectRatio="xMinYMin meet" x="565.956" y="-238"/>
<text text-anchor="start" x="580.96" y="-229.2" font-family="Helvetica,sans-Serif" font-size="11.00">venting</text>
<polygon fill="none" stroke="black" points="712.96,-221 712.96,-243 835.96,-243 835.96,-221 712.96,-221"/>
<text text-anchor="start" x="715.96" y="-229.2" font-family="Helvetica,sans-Serif" font-size="11.00">int4[10]</text>
<polygon fill="#ffffff" stroke="transparent" points="560.96,-203 560.96,-221 640.96,-221 640.96,-203 560.96,-203"/>
<polygon fill="none" stroke="black" points="560.96,-203 560.96,-221 640.96,-221 640.96,-203 560.96,-203"/>
<text text-anchor="start" x="563.96" y="-209.2" font-family="Helvetica,sans-Serif" font-size="11.00">&lt; 7</text>
<polygon fill="#ffffff" stroke="transparent" points="640.96,-203 640.96,-221 712.96,-221 712.96,-203 640.96,-203"/>
<polygon fill="none" stroke="black" points="640.96,-203 640.96,-221 712.96,-221 712.96,-203 640.96,-203"/>
<text text-anchor="start" x="702.96" y="-209.2" font-family="Helvetica,sans-Serif" font-size="11.00"> &#160;</text>
<polygon fill="#ffffff" stroke="transparent" points="712.96,-203 712.96,-221 835.96,-221 835.96,-203 712.96,-203"/>
<polygon fill="none" stroke="black" points="712.96,-203 712.96,-221 835.96,-221 835.96,-203 712.96,-203"/>
<text text-anchor="start" x="816.96" y="-209.2" font-family="Helvetica,sans-Serif" font-size="11.00">1 &gt;</text>
<polygon fill="none" stroke="black" stroke-width="2" points="559.46,-202 559.46,-486 836.46,-486 836.46,-202 559.46,-202"/>
</a>
</g>
</g>
<!-- tww_vl.cover_cover_shape -->
<g id="node2" class="node">
<title>tww_vl.cover_cover_shape</title>
<g id="a_node2"><a xlink:href="../../../tww_vl/tables/cover_cover_shape.html" xlink:title="tww_vl.cover_cover_shape" target="_top">
<polygon fill="#ffffff" stroke="transparent" points="287.46,-432 287.46,-490 487.46,-490 487.46,-432 287.46,-432"/>
<polygon fill="#f5f5f5" stroke="transparent" points="287.46,-468 287.46,-490 487.46,-490 487.46,-468 287.46,-468"/>
<polygon fill="none" stroke="black" points="287.46,-468 287.46,-490 487.46,-490 487.46,-468 287.46,-468"/>
<text text-anchor="start" x="292.46" y="-477.2" font-family="Helvetica,sans-Serif" font-weight="bold" font-size="11.00">tww_vl.cover_cover_shape</text>
<text text-anchor="start" x="448.46" y="-476.2" font-family="Helvetica,sans-Serif" font-size="11.00">[table]</text>
<polygon fill="none" stroke="black" points="287.46,-450 287.46,-468 487.46,-468 487.46,-450 287.46,-450"/>
<text text-anchor="start" x="290.46" y="-456.2" font-family="Helvetica,sans-Serif" font-size="11.00">...</text>
<polygon fill="#ffffff" stroke="transparent" points="287.46,-432 287.46,-450 362.46,-450 362.46,-432 287.46,-432"/>
<polygon fill="none" stroke="black" points="287.46,-432 287.46,-450 362.46,-450 362.46,-432 287.46,-432"/>
<text text-anchor="start" x="290.46" y="-438.2" font-family="Helvetica,sans-Serif" font-size="11.00"> &#160;</text>
<polygon fill="#ffffff" stroke="transparent" points="362.46,-432 362.46,-450 433.46,-450 433.46,-432 362.46,-432"/>
<polygon fill="none" stroke="black" points="362.46,-432 362.46,-450 433.46,-450 433.46,-432 362.46,-432"/>
<text text-anchor="start" x="396.46" y="-438.2" font-family="Helvetica,sans-Serif" font-size="11.00">0 rows</text>
<polygon fill="#ffffff" stroke="transparent" points="433.46,-432 433.46,-450 487.46,-450 487.46,-432 433.46,-432"/>
<polygon fill="none" stroke="black" points="433.46,-432 433.46,-450 487.46,-450 487.46,-432 433.46,-432"/>
<text text-anchor="start" x="468.46" y="-438.2" font-family="Helvetica,sans-Serif" font-size="11.00">1 &gt;</text>
</a>
</g>
</g>
<!-- cover&#45;&gt;tww_vl.cover_cover_shape -->
<g id="edge1" class="edge">
<title>cover:w&#45;&gt;tww_vl.cover_cover_shape:e</title>
<path fill="none" stroke="black" d="M545.41,-409.95C536.42,-412.69 530.64,-417.84 517.46,-422 510.32,-424.25 502.95,-426.56 495.51,-428.85"/>
<polygon fill="black" stroke="black" points="552.03,-409.06 560.43,-411.57 555.99,-408.53 559.96,-408 559.96,-408 559.96,-408 555.99,-408.53 559.48,-404.43 552.03,-409.06 552.03,-409.06"/>
<ellipse fill="none" stroke="black" cx="548.86" cy="-409.49" rx="3.2" ry="3.2"/>
</g>
<!-- tww_vl.cover_fastening -->
<g id="node3" class="node">
<title>tww_vl.cover_fastening</title>
<g id="a_node3"><a xlink:href="../../../tww_vl/tables/cover_fastening.html" xlink:title="tww_vl.cover_fastening" target="_top">
<polygon fill="#ffffff" stroke="transparent" points="296.46,-353 296.46,-411 478.46,-411 478.46,-353 296.46,-353"/>
<polygon fill="#f5f5f5" stroke="transparent" points="296.46,-389 296.46,-411 478.46,-411 478.46,-389 296.46,-389"/>
<polygon fill="none" stroke="black" points="296.46,-389 296.46,-411 478.46,-411 478.46,-389 296.46,-389"/>
<text text-anchor="start" x="301.46" y="-398.2" font-family="Helvetica,sans-Serif" font-weight="bold" font-size="11.00">tww_vl.cover_fastening</text>
<text text-anchor="start" x="439.46" y="-397.2" font-family="Helvetica,sans-Serif" font-size="11.00">[table]</text>
<polygon fill="none" stroke="black" points="296.46,-371 296.46,-389 478.46,-389 478.46,-371 296.46,-371"/>
<text text-anchor="start" x="299.46" y="-377.2" font-family="Helvetica,sans-Serif" font-size="11.00">...</text>
<polygon fill="#ffffff" stroke="transparent" points="296.46,-353 296.46,-371 362.46,-371 362.46,-353 296.46,-353"/>
<polygon fill="none" stroke="black" points="296.46,-353 296.46,-371 362.46,-371 362.46,-353 296.46,-353"/>
<text text-anchor="start" x="299.46" y="-359.2" font-family="Helvetica,sans-Serif" font-size="11.00"> &#160;</text>
<polygon fill="#ffffff" stroke="transparent" points="362.46,-353 362.46,-371 429.46,-371 429.46,-353 362.46,-353"/>
<polygon fill="none" stroke="black" points="362.46,-353 362.46,-371 429.46,-371 429.46,-353 362.46,-353"/>
<text text-anchor="start" x="392.46" y="-359.2" font-family="Helvetica,sans-Serif" font-size="11.00">0 rows</text>
<polygon fill="#ffffff" stroke="transparent" points="429.46,-353 429.46,-371 478.46,-371 478.46,-353 429.46,-353"/>
<polygon fill="none" stroke="black" points="429.46,-353 429.46,-371 478.46,-371 478.46,-353 429.46,-353"/>
<text text-anchor="start" x="459.46" y="-359.2" font-family="Helvetica,sans-Serif" font-size="11.00">1 &gt;</text>
</a>
</g>
</g>
<!-- cover&#45;&gt;tww_vl.cover_fastening -->
<g id="edge2" class="edge">
<title>cover:w&#45;&gt;tww_vl.cover_fastening:e</title>
<path fill="none" stroke="black" d="M545.55,-364.2C526.04,-364.72 505.83,-366.21 486.67,-368.13"/>
<polygon fill="black" stroke="black" points="551.96,-364.11 560.01,-367.6 555.96,-364.06 559.96,-364 559.96,-364 559.96,-364 555.96,-364.06 559.91,-360.4 551.96,-364.11 551.96,-364.11"/>
<ellipse fill="none" stroke="black" cx="548.76" cy="-364.15" rx="3.2" ry="3.2"/>
</g>
<!-- tww_vl.cover_material -->
<g id="node4" class="node">
<title>tww_vl.cover_material</title>
<g id="a_node4"><a xlink:href="../../../tww_vl/tables/cover_material.html" xlink:title="tww_vl.cover_material" target="_top">
<polygon fill="#ffffff" stroke="transparent" points="298.96,-274 298.96,-332 475.96,-332 475.96,-274 298.96,-274"/>
<polygon fill="#f5f5f5" stroke="transparent" points="299.46,-310 299.46,-332 476.46,-332 476.46,-310 299.46,-310"/>
<polygon fill="none" stroke="black" points="299.46,-310 299.46,-332 476.46,-332 476.46,-310 299.46,-310"/>
<text text-anchor="start" x="304.46" y="-319.2" font-family="Helvetica,sans-Serif" font-weight="bold" font-size="11.00">tww_vl.cover_material</text>
<text text-anchor="start" x="437.46" y="-318.2" font-family="Helvetica,sans-Serif" font-size="11.00">[table]</text>
<polygon fill="none" stroke="black" points="299.46,-292 299.46,-310 476.46,-310 476.46,-292 299.46,-292"/>
<text text-anchor="start" x="302.46" y="-298.2" font-family="Helvetica,sans-Serif" font-size="11.00">...</text>
<polygon fill="#ffffff" stroke="transparent" points="299.46,-274 299.46,-292 363.46,-292 363.46,-274 299.46,-274"/>
<polygon fill="none" stroke="black" points="299.46,-274 299.46,-292 363.46,-292 363.46,-274 299.46,-274"/>
<text text-anchor="start" x="302.46" y="-280.2" font-family="Helvetica,sans-Serif" font-size="11.00"> &#160;</text>
<polygon fill="#ffffff" stroke="transparent" points="363.46,-274 363.46,-292 428.46,-292 428.46,-274 363.46,-274"/>
<polygon fill="none" stroke="black" points="363.46,-274 363.46,-292 428.46,-292 428.46,-274 363.46,-274"/>
<text text-anchor="start" x="391.46" y="-280.2" font-family="Helvetica,sans-Serif" font-size="11.00">0 rows</text>
<polygon fill="#ffffff" stroke="transparent" points="428.46,-274 428.46,-292 476.46,-292 476.46,-274 428.46,-274"/>
<polygon fill="none" stroke="black" points="428.46,-274 428.46,-292 476.46,-292 476.46,-274 428.46,-274"/>
<text text-anchor="start" x="457.46" y="-280.2" font-family="Helvetica,sans-Serif" font-size="11.00">1 &gt;</text>
</a>
</g>
</g>
<!-- cover&#45;&gt;tww_vl.cover_material -->
<g id="edge3" class="edge">
<title>cover:w&#45;&gt;tww_vl.cover_material:e</title>
<path fill="none" stroke="black" d="M545.3,-319.81C524.96,-319.29 503.86,-317.77 483.99,-315.84"/>
<polygon fill="black" stroke="black" points="551.96,-319.89 559.91,-323.6 555.96,-319.95 559.96,-320 559.96,-320 559.96,-320 555.96,-319.95 560,-316.4 551.96,-319.89 551.96,-319.89"/>
<ellipse fill="none" stroke="black" cx="548.76" cy="-319.85" rx="3.2" ry="3.2"/>
</g>
<!-- structure_part -->
<g id="node5" class="node">
<title>structure_part</title>
<g id="a_node5"><a xlink:href="../../tables/structure_part.html" xlink:title="structure_part" target="_top">
<polygon fill="#ffffff" stroke="transparent" points="302.46,-597 302.46,-787 472.46,-787 472.46,-597 302.46,-597"/>
<polygon fill="#f5f5f5" stroke="transparent" points="302.46,-765 302.46,-787 472.46,-787 472.46,-765 302.46,-765"/>
<polygon fill="none" stroke="black" points="302.46,-765 302.46,-787 472.46,-787 472.46,-765 302.46,-765"/>
<text text-anchor="start" x="307.46" y="-774.2" font-family="Helvetica,sans-Serif" font-weight="bold" font-size="11.00">structure_part</text>
<text text-anchor="start" x="433.46" y="-773.2" font-family="Helvetica,sans-Serif" font-size="11.00">[table]</text>
<polygon fill="none" stroke="black" points="302.46,-743 302.46,-765 472.46,-765 472.46,-743 302.46,-743"/>
<image xlink:href="../../images/primaryKeys.png" width="11px" height="12px" preserveAspectRatio="xMinYMin meet" x="307.456" y="-760"/>
<text text-anchor="start" x="322.46" y="-751.2" font-family="Helvetica,sans-Serif" font-size="11.00">obj_id</text>
<polygon fill="#ffffff" stroke="transparent" points="302.46,-721 302.46,-743 472.46,-743 472.46,-721 302.46,-721"/>
<polygon fill="none" stroke="black" points="302.46,-721 302.46,-743 472.46,-743 472.46,-721 302.46,-721"/>
<text text-anchor="start" x="322.46" y="-729.2" font-family="Helvetica,sans-Serif" font-size="11.00">identifier</text>
<polygon fill="none" stroke="black" points="302.46,-699 302.46,-721 472.46,-721 472.46,-699 302.46,-699"/>
<image xlink:href="../../images/foreignKeys.png" width="11px" height="12px" preserveAspectRatio="xMinYMin meet" x="307.456" y="-716"/>
<text text-anchor="start" x="322.46" y="-707.2" font-family="Helvetica,sans-Serif" font-size="11.00">renovation_demand</text>
<polygon fill="#ffffff" stroke="transparent" points="302.46,-677 302.46,-699 472.46,-699 472.46,-677 302.46,-677"/>
<polygon fill="none" stroke="black" points="302.46,-677 302.46,-699 472.46,-699 472.46,-677 302.46,-677"/>
<image xlink:href="../../images/foreignKeys.png" width="11px" height="12px" preserveAspectRatio="xMinYMin meet" x="307.456" y="-694"/>
<text text-anchor="start" x="322.46" y="-685.2" font-family="Helvetica,sans-Serif" font-size="11.00">fk_dataowner</text>
<polygon fill="none" stroke="black" points="302.46,-655 302.46,-677 472.46,-677 472.46,-655 302.46,-655"/>
<image xlink:href="../../images/foreignKeys.png" width="11px" height="12px" preserveAspectRatio="xMinYMin meet" x="307.456" y="-672"/>
<text text-anchor="start" x="322.46" y="-663.2" font-family="Helvetica,sans-Serif" font-size="11.00">fk_provider</text>
<polygon fill="none" stroke="black" points="302.46,-633 302.46,-655 472.46,-655 472.46,-633 302.46,-633"/>
<image xlink:href="../../images/foreignKeys.png" width="11px" height="12px" preserveAspectRatio="xMinYMin meet" x="307.456" y="-650"/>
<text text-anchor="start" x="322.46" y="-641.2" font-family="Helvetica,sans-Serif" font-size="11.00">fk_wastewater_structure</text>
<polygon fill="none" stroke="black" points="302.46,-615 302.46,-633 472.46,-633 472.46,-615 302.46,-615"/>
<text text-anchor="start" x="305.46" y="-621.2" font-family="Helvetica,sans-Serif" font-size="11.00">...</text>
<polygon fill="#ffffff" stroke="transparent" points="302.46,-597 302.46,-615 377.46,-615 377.46,-597 302.46,-597"/>
<polygon fill="none" stroke="black" points="302.46,-597 302.46,-615 377.46,-615 377.46,-597 302.46,-597"/>
<text text-anchor="start" x="305.46" y="-603.2" font-family="Helvetica,sans-Serif" font-size="11.00">&lt; 4</text>
<polygon fill="#ffffff" stroke="transparent" points="377.46,-597 377.46,-615 417.46,-615 417.46,-597 377.46,-597"/>
<polygon fill="none" stroke="black" points="377.46,-597 377.46,-615 417.46,-615 417.46,-597 377.46,-597"/>
<text text-anchor="start" x="407.46" y="-603.2" font-family="Helvetica,sans-Serif" font-size="11.00"> &#160;</text>
<polygon fill="#ffffff" stroke="transparent" points="417.46,-597 417.46,-615 472.46,-615 472.46,-597 417.46,-597"/>
<polygon fill="none" stroke="black" points="417.46,-597 417.46,-615 472.46,-615 472.46,-597 417.46,-597"/>
<text text-anchor="start" x="447.46" y="-603.2" font-family="Helvetica,sans-Serif" font-size="11.00">12 &gt;</text>
</a>
</g>
</g>
<!-- cover&#45;&gt;structure_part -->
<g id="edge4" class="edge">
<title>cover:w&#45;&gt;structure_part:e</title>
<path fill="none" stroke="black" d="M549.57,-454.61C495.59,-484.13 539.45,-754 473.46,-754"/>
<polygon fill="black" stroke="black" points="558.21,-448.32 560.16,-456.07 558.6,-456.46 556.65,-448.71 558.21,-448.32"/>
<polyline fill="none" stroke="black" points="559.96,-452 556.08,-452.97 "/>
<ellipse fill="none" stroke="black" cx="552.97" cy="-453.75" rx="3.2" ry="3.2"/>
</g>
<!-- tww_vl.cover_positional_accuracy -->
<g id="node6" class="node">
<title>tww_vl.cover_positional_accuracy</title>
<g id="a_node6"><a xlink:href="../../../tww_vl/tables/cover_positional_accuracy.html" xlink:title="tww_vl.cover_positional_accuracy" target="_top">
<polygon fill="#ffffff" stroke="transparent" points="265.46,-195 265.46,-253 509.46,-253 509.46,-195 265.46,-195"/>
<polygon fill="#f5f5f5" stroke="transparent" points="265.46,-231 265.46,-253 509.46,-253 509.46,-231 265.46,-231"/>
<polygon fill="none" stroke="black" points="265.46,-231 265.46,-253 509.46,-253 509.46,-231 265.46,-231"/>
<text text-anchor="start" x="270.46" y="-240.2" font-family="Helvetica,sans-Serif" font-weight="bold" font-size="11.00">tww_vl.cover_positional_accuracy</text>
<text text-anchor="start" x="470.46" y="-239.2" font-family="Helvetica,sans-Serif" font-size="11.00">[table]</text>
<polygon fill="none" stroke="black" points="265.46,-213 265.46,-231 509.46,-231 509.46,-213 265.46,-213"/>
<text text-anchor="start" x="268.46" y="-219.2" font-family="Helvetica,sans-Serif" font-size="11.00">...</text>
<polygon fill="#ffffff" stroke="transparent" points="265.46,-195 265.46,-213 362.46,-213 362.46,-195 265.46,-195"/>
<polygon fill="none" stroke="black" points="265.46,-195 265.46,-213 362.46,-213 362.46,-195 265.46,-195"/>
<text text-anchor="start" x="268.46" y="-201.2" font-family="Helvetica,sans-Serif" font-size="11.00"> &#160;</text>
<polygon fill="#ffffff" stroke="transparent" points="362.46,-195 362.46,-213 444.46,-213 444.46,-195 362.46,-195"/>
<polygon fill="none" stroke="black" points="362.46,-195 362.46,-213 444.46,-213 444.46,-195 362.46,-195"/>
<text text-anchor="start" x="407.46" y="-201.2" font-family="Helvetica,sans-Serif" font-size="11.00">0 rows</text>
<polygon fill="#ffffff" stroke="transparent" points="444.46,-195 444.46,-213 509.46,-213 509.46,-195 444.46,-195"/>
<polygon fill="none" stroke="black" points="444.46,-195 444.46,-213 509.46,-213 509.46,-195 444.46,-195"/>
<text text-anchor="start" x="490.46" y="-201.2" font-family="Helvetica,sans-Serif" font-size="11.00">1 &gt;</text>
</a>
</g>
</g>
<!-- cover&#45;&gt;tww_vl.cover_positional_accuracy -->
<g id="edge5" class="edge">
<title>cover:w&#45;&gt;tww_vl.cover_positional_accuracy:e</title>
<path fill="none" stroke="black" d="M546.03,-294.15C535.69,-287.02 533.64,-271.66 517.46,-263 513.64,-260.96 509.7,-259.01 505.68,-257.15"/>
<polygon fill="black" stroke="black" points="552.24,-295.87 559,-301.47 556.1,-296.94 559.96,-298 559.96,-298 559.96,-298 556.1,-296.94 560.91,-294.53 552.24,-295.87 552.24,-295.87"/>
<ellipse fill="none" stroke="black" cx="549.16" cy="-295.02" rx="3.2" ry="3.2"/>
</g>
<!-- tww_vl.cover_sludge_bucket -->
<g id="node7" class="node">
<title>tww_vl.cover_sludge_bucket</title>
<g id="a_node7"><a xlink:href="../../../tww_vl/tables/cover_sludge_bucket.html" xlink:title="tww_vl.cover_sludge_bucket" target="_top">
<polygon fill="#ffffff" stroke="transparent" points="281.96,-116 281.96,-174 492.96,-174 492.96,-116 281.96,-116"/>
<polygon fill="#f5f5f5" stroke="transparent" points="282.46,-152 282.46,-174 493.46,-174 493.46,-152 282.46,-152"/>
<polygon fill="none" stroke="black" points="282.46,-152 282.46,-174 493.46,-174 493.46,-152 282.46,-152"/>
<text text-anchor="start" x="287.46" y="-161.2" font-family="Helvetica,sans-Serif" font-weight="bold" font-size="11.00">tww_vl.cover_sludge_bucket</text>
<text text-anchor="start" x="454.46" y="-160.2" font-family="Helvetica,sans-Serif" font-size="11.00">[table]</text>
<polygon fill="none" stroke="black" points="282.46,-134 282.46,-152 493.46,-152 493.46,-134 282.46,-134"/>
<text text-anchor="start" x="285.46" y="-140.2" font-family="Helvetica,sans-Serif" font-size="11.00">...</text>
<polygon fill="#ffffff" stroke="transparent" points="282.46,-116 282.46,-134 363.46,-134 363.46,-116 282.46,-116"/>
<polygon fill="none" stroke="black" points="282.46,-116 282.46,-134 363.46,-134 363.46,-116 282.46,-116"/>
<text text-anchor="start" x="285.46" y="-122.2" font-family="Helvetica,sans-Serif" font-size="11.00"> &#160;</text>
<polygon fill="#ffffff" stroke="transparent" points="363.46,-116 363.46,-134 437.46,-134 437.46,-116 363.46,-116"/>
<polygon fill="none" stroke="black" points="363.46,-116 363.46,-134 437.46,-134 437.46,-116 363.46,-116"/>
<text text-anchor="start" x="400.46" y="-122.2" font-family="Helvetica,sans-Serif" font-size="11.00">0 rows</text>
<polygon fill="#ffffff" stroke="transparent" points="437.46,-116 437.46,-134 493.46,-134 493.46,-116 437.46,-116"/>
<polygon fill="none" stroke="black" points="437.46,-116 437.46,-134 493.46,-134 493.46,-116 437.46,-116"/>
<text text-anchor="start" x="474.46" y="-122.2" font-family="Helvetica,sans-Serif" font-size="11.00">1 &gt;</text>
</a>
</g>
</g>
<!-- cover&#45;&gt;tww_vl.cover_sludge_bucket -->
<g id="edge6" class="edge">
<title>cover:w&#45;&gt;tww_vl.cover_sludge_bucket:e</title>
<path fill="none" stroke="black" d="M545.86,-250.14C529.83,-238.35 541.28,-202.46 517.46,-184 512.37,-180.06 506.89,-176.51 501.16,-173.33"/>
<polygon fill="black" stroke="black" points="552.24,-251.89 559.01,-257.47 556.1,-252.94 559.96,-254 559.96,-254 559.96,-254 556.1,-252.94 560.91,-250.53 552.24,-251.89 552.24,-251.89"/>
<ellipse fill="none" stroke="black" cx="549.15" cy="-251.04" rx="3.2" ry="3.2"/>
</g>
<!-- tww_vl.cover_venting -->
<g id="node8" class="node">
<title>tww_vl.cover_venting</title>
<g id="a_node8"><a xlink:href="../../../tww_vl/tables/cover_venting.html" xlink:title="tww_vl.cover_venting" target="_top">
<polygon fill="#ffffff" stroke="transparent" points="301.96,-37 301.96,-95 472.96,-95 472.96,-37 301.96,-37"/>
<polygon fill="#f5f5f5" stroke="transparent" points="302.46,-73 302.46,-95 473.46,-95 473.46,-73 302.46,-73"/>
<polygon fill="none" stroke="black" points="302.46,-73 302.46,-95 473.46,-95 473.46,-73 302.46,-73"/>
<text text-anchor="start" x="307.46" y="-82.2" font-family="Helvetica,sans-Serif" font-weight="bold" font-size="11.00">tww_vl.cover_venting</text>
<text text-anchor="start" x="434.46" y="-81.2" font-family="Helvetica,sans-Serif" font-size="11.00">[table]</text>
<polygon fill="none" stroke="black" points="302.46,-55 302.46,-73 473.46,-73 473.46,-55 302.46,-55"/>
<text text-anchor="start" x="305.46" y="-61.2" font-family="Helvetica,sans-Serif" font-size="11.00">...</text>
<polygon fill="#ffffff" stroke="transparent" points="302.46,-37 302.46,-55 363.46,-55 363.46,-37 302.46,-37"/>
<polygon fill="none" stroke="black" points="302.46,-37 302.46,-55 363.46,-55 363.46,-37 302.46,-37"/>
<text text-anchor="start" x="305.46" y="-43.2" font-family="Helvetica,sans-Serif" font-size="11.00"> &#160;</text>
<polygon fill="#ffffff" stroke="transparent" points="363.46,-37 363.46,-55 427.46,-55 427.46,-37 363.46,-37"/>
<polygon fill="none" stroke="black" points="363.46,-37 363.46,-55 427.46,-55 427.46,-37 363.46,-37"/>
<text text-anchor="start" x="390.46" y="-43.2" font-family="Helvetica,sans-Serif" font-size="11.00">0 rows</text>
<polygon fill="#ffffff" stroke="transparent" points="427.46,-37 427.46,-55 473.46,-55 473.46,-37 427.46,-37"/>
<polygon fill="none" stroke="black" points="427.46,-37 427.46,-55 473.46,-55 473.46,-37 427.46,-37"/>
<text text-anchor="start" x="454.46" y="-43.2" font-family="Helvetica,sans-Serif" font-size="11.00">1 &gt;</text>
</a>
</g>
</g>
<!-- cover&#45;&gt;tww_vl.cover_venting -->
<g id="edge7" class="edge">
<title>cover:w&#45;&gt;tww_vl.cover_venting:e</title>
<path fill="none" stroke="black" d="M545.72,-229.67C511.12,-215.71 555.99,-142.42 517.46,-105 507.22,-95.06 494.53,-87.64 481.15,-82.11"/>
<polygon fill="black" stroke="black" points="552.06,-230.71 559.38,-235.55 556.01,-231.35 559.96,-232 559.96,-232 559.96,-232 556.01,-231.35 560.54,-228.45 552.06,-230.71 552.06,-230.71"/>
<ellipse fill="none" stroke="black" cx="548.9" cy="-230.19" rx="3.2" ry="3.2"/>
</g>
<!-- wastewater_structure -->
<g id="node9" class="node">
<title>wastewater_structure</title>
<g id="a_node9"><a xlink:href="../../tables/wastewater_structure.html" xlink:title="wastewater_structure" target="_top">
<polygon fill="#ffffff" stroke="transparent" points="21.46,-385 21.46,-795 216.46,-795 216.46,-385 21.46,-385"/>
<polygon fill="#f5f5f5" stroke="transparent" points="21.96,-773 21.96,-795 216.96,-795 216.96,-773 21.96,-773"/>
<polygon fill="none" stroke="black" points="21.96,-773 21.96,-795 216.96,-795 216.96,-773 21.96,-773"/>
<text text-anchor="start" x="26.96" y="-782.2" font-family="Helvetica,sans-Serif" font-weight="bold" font-size="11.00">wastewater_structure</text>
<text text-anchor="start" x="177.96" y="-781.2" font-family="Helvetica,sans-Serif" font-size="11.00">[table]</text>
<polygon fill="none" stroke="black" points="21.96,-751 21.96,-773 216.96,-773 216.96,-751 21.96,-751"/>
<image xlink:href="../../images/primaryKeys.png" width="11px" height="12px" preserveAspectRatio="xMinYMin meet" x="26.9561" y="-768"/>
<text text-anchor="start" x="41.96" y="-759.2" font-family="Helvetica,sans-Serif" font-size="11.00">obj_id</text>
<polygon fill="none" stroke="black" points="21.96,-729 21.96,-751 216.96,-751 216.96,-729 21.96,-729"/>
<image xlink:href="../../images/foreignKeys.png" width="11px" height="12px" preserveAspectRatio="xMinYMin meet" x="26.9561" y="-746"/>
<text text-anchor="start" x="41.96" y="-737.2" font-family="Helvetica,sans-Serif" font-size="11.00">accessibility</text>
<polygon fill="#ffffff" stroke="transparent" points="21.96,-707 21.96,-729 216.96,-729 216.96,-707 21.96,-707"/>
<polygon fill="none" stroke="black" points="21.96,-707 21.96,-729 216.96,-729 216.96,-707 21.96,-707"/>
<text text-anchor="start" x="41.96" y="-715.2" font-family="Helvetica,sans-Serif" font-size="11.00">detail_geometry3d_geometry</text>
<polygon fill="none" stroke="black" points="21.96,-685 21.96,-707 216.96,-707 216.96,-685 21.96,-685"/>
<image xlink:href="../../images/foreignKeys.png" width="11px" height="12px" preserveAspectRatio="xMinYMin meet" x="26.9561" y="-702"/>
<text text-anchor="start" x="41.96" y="-693.2" font-family="Helvetica,sans-Serif" font-size="11.00">elevation_determination</text>
<polygon fill="none" stroke="black" points="21.96,-663 21.96,-685 216.96,-685 216.96,-663 21.96,-663"/>
<image xlink:href="../../images/foreignKeys.png" width="11px" height="12px" preserveAspectRatio="xMinYMin meet" x="26.9561" y="-680"/>
<text text-anchor="start" x="41.96" y="-671.2" font-family="Helvetica,sans-Serif" font-size="11.00">financing</text>
<polygon fill="#ffffff" stroke="transparent" points="21.96,-641 21.96,-663 216.96,-663 216.96,-641 21.96,-641"/>
<polygon fill="none" stroke="black" points="21.96,-641 21.96,-663 216.96,-663 216.96,-641 21.96,-641"/>
<text text-anchor="start" x="41.96" y="-649.2" font-family="Helvetica,sans-Serif" font-size="11.00">identifier</text>
<polygon fill="none" stroke="black" points="21.96,-619 21.96,-641 216.96,-641 216.96,-619 21.96,-619"/>
<image xlink:href="../../images/foreignKeys.png" width="11px" height="12px" preserveAspectRatio="xMinYMin meet" x="26.9561" y="-636"/>
<text text-anchor="start" x="41.96" y="-627.2" font-family="Helvetica,sans-Serif" font-size="11.00">renovation_necessity</text>
<polygon fill="none" stroke="black" points="21.96,-597 21.96,-619 216.96,-619 216.96,-597 21.96,-597"/>
<image xlink:href="../../images/foreignKeys.png" width="11px" height="12px" preserveAspectRatio="xMinYMin meet" x="26.9561" y="-614"/>
<text text-anchor="start" x="41.96" y="-605.2" font-family="Helvetica,sans-Serif" font-size="11.00">rv_construction_type</text>
<polygon fill="none" stroke="black" points="21.96,-575 21.96,-597 216.96,-597 216.96,-575 21.96,-575"/>
<image xlink:href="../../images/foreignKeys.png" width="11px" height="12px" preserveAspectRatio="xMinYMin meet" x="26.9561" y="-592"/>
<text text-anchor="start" x="41.96" y="-583.2" font-family="Helvetica,sans-Serif" font-size="11.00">status</text>
<polygon fill="none" stroke="black" points="21.96,-553 21.96,-575 216.96,-575 216.96,-553 21.96,-553"/>
<image xlink:href="../../images/foreignKeys.png" width="11px" height="12px" preserveAspectRatio="xMinYMin meet" x="26.9561" y="-570"/>
<text text-anchor="start" x="41.96" y="-561.2" font-family="Helvetica,sans-Serif" font-size="11.00">structure_condition</text>
<polygon fill="#ffffff" stroke="transparent" points="21.96,-531 21.96,-553 216.96,-553 216.96,-531 21.96,-531"/>
<polygon fill="none" stroke="black" points="21.96,-531 21.96,-553 216.96,-553 216.96,-531 21.96,-531"/>
<image xlink:href="../../images/foreignKeys.png" width="11px" height="12px" preserveAspectRatio="xMinYMin meet" x="26.9561" y="-548"/>
<text text-anchor="start" x="41.96" y="-539.2" font-family="Helvetica,sans-Serif" font-size="11.00">fk_dataowner</text>
<polygon fill="none" stroke="black" points="21.96,-509 21.96,-531 216.96,-531 216.96,-509 21.96,-509"/>
<image xlink:href="../../images/foreignKeys.png" width="11px" height="12px" preserveAspectRatio="xMinYMin meet" x="26.9561" y="-526"/>
<text text-anchor="start" x="41.96" y="-517.2" font-family="Helvetica,sans-Serif" font-size="11.00">fk_provider</text>
<polygon fill="none" stroke="black" points="21.96,-487 21.96,-509 216.96,-509 216.96,-487 21.96,-487"/>
<image xlink:href="../../images/foreignKeys.png" width="11px" height="12px" preserveAspectRatio="xMinYMin meet" x="26.9561" y="-504"/>
<text text-anchor="start" x="41.96" y="-495.2" font-family="Helvetica,sans-Serif" font-size="11.00">fk_owner</text>
<polygon fill="none" stroke="black" points="21.96,-465 21.96,-487 216.96,-487 216.96,-465 21.96,-465"/>
<image xlink:href="../../images/foreignKeys.png" width="11px" height="12px" preserveAspectRatio="xMinYMin meet" x="26.9561" y="-482"/>
<text text-anchor="start" x="41.96" y="-473.2" font-family="Helvetica,sans-Serif" font-size="11.00">fk_operator</text>
<polygon fill="none" stroke="black" points="21.96,-443 21.96,-465 216.96,-465 216.96,-443 21.96,-443"/>
<image xlink:href="../../images/foreignKeys.png" width="11px" height="12px" preserveAspectRatio="xMinYMin meet" x="26.9561" y="-460"/>
<text text-anchor="start" x="41.96" y="-451.2" font-family="Helvetica,sans-Serif" font-size="11.00">fk_main_cover</text>
<polygon fill="none" stroke="black" points="21.96,-421 21.96,-443 216.96,-443 216.96,-421 21.96,-421"/>
<image xlink:href="../../images/foreignKeys.png" width="11px" height="12px" preserveAspectRatio="xMinYMin meet" x="26.9561" y="-438"/>
<text text-anchor="start" x="41.96" y="-429.2" font-family="Helvetica,sans-Serif" font-size="11.00">fk_main_wastewater_node</text>
<polygon fill="none" stroke="black" points="21.96,-403 21.96,-421 216.96,-421 216.96,-403 21.96,-403"/>
<text text-anchor="start" x="24.96" y="-409.2" font-family="Helvetica,sans-Serif" font-size="11.00">...</text>
<polygon fill="#ffffff" stroke="transparent" points="21.96,-385 21.96,-403 112.96,-403 112.96,-385 21.96,-385"/>
<polygon fill="none" stroke="black" points="21.96,-385 21.96,-403 112.96,-403 112.96,-385 21.96,-385"/>
<text text-anchor="start" x="24.96" y="-391.2" font-family="Helvetica,sans-Serif" font-size="11.00">&lt; 13</text>
<polygon fill="#ffffff" stroke="transparent" points="112.96,-385 112.96,-403 156.96,-403 156.96,-385 112.96,-385"/>
<polygon fill="none" stroke="black" points="112.96,-385 112.96,-403 156.96,-403 156.96,-385 112.96,-385"/>
<text text-anchor="start" x="146.96" y="-391.2" font-family="Helvetica,sans-Serif" font-size="11.00"> &#160;</text>
<polygon fill="#ffffff" stroke="transparent" points="156.96,-385 156.96,-403 216.96,-403 216.96,-385 156.96,-385"/>
<polygon fill="none" stroke="black" points="156.96,-385 156.96,-403 216.96,-403 216.96,-385 156.96,-385"/>
<text text-anchor="start" x="191.96" y="-391.2" font-family="Helvetica,sans-Serif" font-size="11.00">16 &gt;</text>
</a>
</g>
</g>
<!-- structure_part&#45;&gt;wastewater_structure -->
<g id="edge8" class="edge">
<title>structure_part:w&#45;&gt;wastewater_structure:e</title>
<path fill="none" stroke="black" d="M287.17,-646.46C244.14,-663.41 276.68,-762 217.96,-762"/>
<polygon fill="black" stroke="black" points="293.57,-645.36 302.07,-647.55 297.51,-644.68 301.46,-644 301.46,-644 301.46,-644 297.51,-644.68 300.84,-640.45 293.57,-645.36 293.57,-645.36"/>
<ellipse fill="none" stroke="black" cx="290.42" cy="-645.9" rx="3.2" ry="3.2"/>
</g>
<!-- wastewater_structure&#45;&gt;cover -->
<g id="edge9" class="edge">
<title>wastewater_structure:w&#45;&gt;cover:e</title>
<path fill="none" stroke="black" d="M7.02,-449.22C-7.16,-436.13 3.19,-399.51 21.96,-381 86.03,-317.8 152.87,-326.45 224.46,-381 268.45,-414.53 213.46,-467.47 257.46,-501 349.36,-571.04 402.24,-509.84 517.46,-501 535.25,-499.63 852.8,-452 834.96,-452"/>
<polygon fill="black" stroke="black" points="13.39,-451.4 19.79,-457.4 17.17,-452.7 20.96,-454 20.96,-454 20.96,-454 17.17,-452.7 22.12,-450.6 13.39,-451.4 13.39,-451.4"/>
<ellipse fill="none" stroke="black" cx="10.36" cy="-450.36" rx="3.2" ry="3.2"/>
</g>
</g>
</svg>
