<?xml version="1.0" encoding="UTF-8" standalone="no"?>
<!DOCTYPE svg PUBLIC "-//W3C//DTD SVG 1.1//EN"
 "http://www.w3.org/Graphics/SVG/1.1/DTD/svg11.dtd">
<!-- Generated by graphviz version 2.47.1 (20210515.0534)
 -->
<!-- Title: oneDegreeRelationshipsDiagram Pages: 1 -->
<svg width="474pt" height="241pt"
 viewBox="0.00 0.00 474.00 241.00" xmlns="http://www.w3.org/2000/svg" xmlns:xlink="http://www.w3.org/1999/xlink">
<g id="graph0" class="graph" transform="scale(1 1) rotate(0) translate(4 237)">
<title>oneDegreeRelationshipsDiagram</title>
<polygon fill="#ffffff" stroke="transparent" points="-4,4 -4,-237 470,-237 470,4 -4,4"/>
<text text-anchor="middle" x="73.5" y="-7.2" font-family="Helvetica,sans-Serif" font-size="11.00">Generated by SchemaSpy</text>
<!-- dryweather_downspout -->
<g id="node1" class="node">
<title>dryweather_downspout</title>
<g id="a_node1"><a xlink:href="../../tables/dryweather_downspout.html" xlink:title="dryweather_downspout" target="_top">
<polygon fill="#ffffff" stroke="transparent" points="227,-141 227,-229 458,-229 458,-141 227,-141"/>
<polygon fill="#f5f5f5" stroke="transparent" points="229.5,-205 229.5,-227 456.5,-227 456.5,-205 229.5,-205"/>
<polygon fill="none" stroke="black" points="229.5,-205 229.5,-227 456.5,-227 456.5,-205 229.5,-205"/>
<text text-anchor="start" x="234.5" y="-214.2" font-family="Helvetica,sans-Serif" font-weight="bold" font-size="11.00">dryweather_downspout</text>
<text text-anchor="start" x="417.5" y="-213.2" font-family="Helvetica,sans-Serif" font-size="11.00">[table]</text>
<polygon fill="none" stroke="black" points="229.5,-183 229.5,-205 392.5,-205 392.5,-183 229.5,-183"/>
<image xlink:href="../../images/primaryKeys.png" width="11px" height="12px" preserveAspectRatio="xMinYMin meet" x="234.5" y="-200"/>
<text text-anchor="start" x="249.5" y="-191.2" font-family="Helvetica,sans-Serif" font-size="11.00">obj_id</text>
<polygon fill="none" stroke="black" points="392.5,-183 392.5,-205 456.5,-205 456.5,-183 392.5,-183"/>
<text text-anchor="start" x="395.5" y="-191.2" font-family="Helvetica,sans-Serif" font-size="11.00">varchar[16]</text>
<polygon fill="none" stroke="black" points="229.5,-161 229.5,-183 392.5,-183 392.5,-161 229.5,-161"/>
<text text-anchor="start" x="249.5" y="-169.2" font-family="Helvetica,sans-Serif" font-size="11.00">diameter</text>
<polygon fill="none" stroke="black" points="392.5,-161 392.5,-183 456.5,-183 456.5,-161 392.5,-161"/>
<text text-anchor="start" x="395.5" y="-169.2" font-family="Helvetica,sans-Serif" font-size="11.00">int2[5]</text>
<polygon fill="#ffffff" stroke="transparent" points="229.5,-143 229.5,-161 315.5,-161 315.5,-143 229.5,-143"/>
<polygon fill="none" stroke="black" points="229.5,-143 229.5,-161 315.5,-161 315.5,-143 229.5,-143"/>
<text text-anchor="start" x="232.5" y="-149.2" font-family="Helvetica,sans-Serif" font-size="11.00">&lt; 1</text>
<polygon fill="#ffffff" stroke="transparent" points="315.5,-143 315.5,-161 392.5,-161 392.5,-143 315.5,-143"/>
<polygon fill="none" stroke="black" points="315.5,-143 315.5,-161 392.5,-161 392.5,-143 315.5,-143"/>
<text text-anchor="start" x="382.5" y="-149.2" font-family="Helvetica,sans-Serif" font-size="11.00"> &#160;</text>
<polygon fill="#ffffff" stroke="transparent" points="392.5,-143 392.5,-161 456.5,-161 456.5,-143 392.5,-143"/>
<polygon fill="none" stroke="black" points="392.5,-143 392.5,-161 456.5,-161 456.5,-143 392.5,-143"/>
<text text-anchor="start" x="437.5" y="-149.2" font-family="Helvetica,sans-Serif" font-size="11.00">0 &gt;</text>
<polygon fill="none" stroke="black" stroke-width="2" points="228,-142 228,-228 457,-228 457,-142 228,-142"/>
</a>
</g>
</g>
<!-- structure_part -->
<g id="node2" class="node">
<title>structure_part</title>
<g id="a_node2"><a xlink:href="../../tables/structure_part.html" xlink:title="structure_part" target="_top">
<polygon fill="#ffffff" stroke="transparent" points="8,-37 8,-227 178,-227 178,-37 8,-37"/>
<polygon fill="#f5f5f5" stroke="transparent" points="8,-205 8,-227 178,-227 178,-205 8,-205"/>
<polygon fill="none" stroke="black" points="8,-205 8,-227 178,-227 178,-205 8,-205"/>
<text text-anchor="start" x="13" y="-214.2" font-family="Helvetica,sans-Serif" font-weight="bold" font-size="11.00">structure_part</text>
<text text-anchor="start" x="139" y="-213.2" font-family="Helvetica,sans-Serif" font-size="11.00">[table]</text>
<polygon fill="none" stroke="black" points="8,-183 8,-205 178,-205 178,-183 8,-183"/>
<image xlink:href="../../images/primaryKeys.png" width="11px" height="12px" preserveAspectRatio="xMinYMin meet" x="13" y="-200"/>
<text text-anchor="start" x="28" y="-191.2" font-family="Helvetica,sans-Serif" font-size="11.00">obj_id</text>
<polygon fill="#ffffff" stroke="transparent" points="8,-161 8,-183 178,-183 178,-161 8,-161"/>
<polygon fill="none" stroke="black" points="8,-161 8,-183 178,-183 178,-161 8,-161"/>
<text text-anchor="start" x="28" y="-169.2" font-family="Helvetica,sans-Serif" font-size="11.00">identifier</text>
<polygon fill="none" stroke="black" points="8,-139 8,-161 178,-161 178,-139 8,-139"/>
<image xlink:href="../../images/foreignKeys.png" width="11px" height="12px" preserveAspectRatio="xMinYMin meet" x="13" y="-156"/>
<text text-anchor="start" x="28" y="-147.2" font-family="Helvetica,sans-Serif" font-size="11.00">renovation_demand</text>
<polygon fill="#ffffff" stroke="transparent" points="8,-117 8,-139 178,-139 178,-117 8,-117"/>
<polygon fill="none" stroke="black" points="8,-117 8,-139 178,-139 178,-117 8,-117"/>
<image xlink:href="../../images/foreignKeys.png" width="11px" height="12px" preserveAspectRatio="xMinYMin meet" x="13" y="-134"/>
<text text-anchor="start" x="28" y="-125.2" font-family="Helvetica,sans-Serif" font-size="11.00">fk_dataowner</text>
<polygon fill="none" stroke="black" points="8,-95 8,-117 178,-117 178,-95 8,-95"/>
<image xlink:href="../../images/foreignKeys.png" width="11px" height="12px" preserveAspectRatio="xMinYMin meet" x="13" y="-112"/>
<text text-anchor="start" x="28" y="-103.2" font-family="Helvetica,sans-Serif" font-size="11.00">fk_provider</text>
<polygon fill="none" stroke="black" points="8,-73 8,-95 178,-95 178,-73 8,-73"/>
<image xlink:href="../../images/foreignKeys.png" width="11px" height="12px" preserveAspectRatio="xMinYMin meet" x="13" y="-90"/>
<text text-anchor="start" x="28" y="-81.2" font-family="Helvetica,sans-Serif" font-size="11.00">fk_wastewater_structure</text>
<polygon fill="none" stroke="black" points="8,-55 8,-73 178,-73 178,-55 8,-55"/>
<text text-anchor="start" x="11" y="-61.2" font-family="Helvetica,sans-Serif" font-size="11.00">...</text>
<polygon fill="#ffffff" stroke="transparent" points="8,-37 8,-55 83,-55 83,-37 8,-37"/>
<polygon fill="none" stroke="black" points="8,-37 8,-55 83,-55 83,-37 8,-37"/>
<text text-anchor="start" x="11" y="-43.2" font-family="Helvetica,sans-Serif" font-size="11.00">&lt; 4</text>
<polygon fill="#ffffff" stroke="transparent" points="83,-37 83,-55 123,-55 123,-37 83,-37"/>
<polygon fill="none" stroke="black" points="83,-37 83,-55 123,-55 123,-37 83,-37"/>
<text text-anchor="start" x="113" y="-43.2" font-family="Helvetica,sans-Serif" font-size="11.00"> &#160;</text>
<polygon fill="#ffffff" stroke="transparent" points="123,-37 123,-55 178,-55 178,-37 123,-37"/>
<polygon fill="none" stroke="black" points="123,-37 123,-55 178,-55 178,-37 123,-37"/>
<text text-anchor="start" x="153" y="-43.2" font-family="Helvetica,sans-Serif" font-size="11.00">12 &gt;</text>
</a>
</g>
</g>
<!-- dryweather_downspout&#45;&gt;structure_part -->
<g id="edge1" class="edge">
<title>dryweather_downspout:w&#45;&gt;structure_part:e</title>
<path fill="none" stroke="black" d="M218.05,-194C203.99,-194 197.05,-194 179,-194"/>
<polygon fill="black" stroke="black" points="227.7,-190 227.7,-198 226.1,-198 226.1,-190 227.7,-190"/>
<polyline fill="none" stroke="black" points="228.5,-194 224.5,-194 "/>
<ellipse fill="none" stroke="black" cx="221.3" cy="-194" rx="3.2" ry="3.2"/>
</g>
</g>
</svg>
