<?xml version="1.0" encoding="UTF-8" standalone="no"?>
<!DOCTYPE svg PUBLIC "-//W3C//DTD SVG 1.1//EN"
 "http://www.w3.org/Graphics/SVG/1.1/DTD/svg11.dtd">
<!-- Generated by graphviz version 2.43.0 (0)
 -->
<!-- Title: oneDegreeRelationshipsDiagram Pages: 1 -->
<svg width="542pt" height="241pt"
 viewBox="0.00 0.00 542.00 241.00" xmlns="http://www.w3.org/2000/svg" xmlns:xlink="http://www.w3.org/1999/xlink">
<g id="graph0" class="graph" transform="scale(1 1) rotate(0) translate(4 237)">
<title>oneDegreeRelationshipsDiagram</title>
<polygon fill="#ffffff" stroke="transparent" points="-4,4 -4,-237 538,-237 538,4 -4,4"/>
<text text-anchor="middle" x="79.5" y="-7.2" font-family="Helvetica,sans-Serif" font-size="11.00">Generated by SchemaSpy</text>
<!-- dryweather_downspout -->
<g id="node1" class="node">
<title>dryweather_downspout</title>
<g id="a_node1"><a xlink:href="../../tables/dryweather_downspout.html" xlink:title="dryweather_downspout" target="_top">
<polygon fill="#ffffff" stroke="transparent" points="259,-141 259,-229 526,-229 526,-141 259,-141"/>
<polygon fill="#f5f5f5" stroke="transparent" points="261.5,-205 261.5,-227 524.5,-227 524.5,-205 261.5,-205"/>
<polygon fill="none" stroke="black" points="261.5,-205 261.5,-227 524.5,-227 524.5,-205 261.5,-205"/>
<text text-anchor="start" x="266.5" y="-214.2" font-family="Helvetica,sans-Serif" font-weight="bold" font-size="11.00">dryweather_downspout</text>
<text text-anchor="start" x="482.5" y="-213.2" font-family="Helvetica,sans-Serif" font-size="11.00">[table]</text>
<polygon fill="none" stroke="black" points="261.5,-183 261.5,-205 453.5,-205 453.5,-183 261.5,-183"/>
<image xlink:href="../../images/primaryKeys.png" width="11px" height="12px" preserveAspectRatio="xMinYMin meet" x="266.5" y="-200"/>
<text text-anchor="start" x="281.5" y="-191.2" font-family="Helvetica,sans-Serif" font-size="11.00">obj_id</text>
<polygon fill="none" stroke="black" points="453.5,-183 453.5,-205 524.5,-205 524.5,-183 453.5,-183"/>
<text text-anchor="start" x="456.5" y="-191.2" font-family="Helvetica,sans-Serif" font-size="11.00">varchar[16]</text>
<polygon fill="none" stroke="black" points="261.5,-161 261.5,-183 453.5,-183 453.5,-161 261.5,-161"/>
<text text-anchor="start" x="281.5" y="-169.2" font-family="Helvetica,sans-Serif" font-size="11.00">diameter</text>
<polygon fill="none" stroke="black" points="453.5,-161 453.5,-183 524.5,-183 524.5,-161 453.5,-161"/>
<text text-anchor="start" x="456.5" y="-169.2" font-family="Helvetica,sans-Serif" font-size="11.00">int2[5]</text>
<polygon fill="#ffffff" stroke="transparent" points="261.5,-143 261.5,-161 524.5,-161 524.5,-143 261.5,-143"/>
<polygon fill="none" stroke="black" points="261.5,-143 261.5,-161 524.5,-161 524.5,-143 261.5,-143"/>
<polygon fill="#ffffff" stroke="transparent" points="262.5,-144 262.5,-160 353.5,-160 353.5,-144 262.5,-144"/>
<text text-anchor="start" x="264.5" y="-149.2" font-family="Helvetica,sans-Serif" font-size="11.00">&lt; 1</text>
<polygon fill="#ffffff" stroke="transparent" points="353.5,-144 353.5,-160 432.5,-160 432.5,-144 353.5,-144"/>
<text text-anchor="start" x="389" y="-149.2" font-family="Helvetica,sans-Serif" font-size="11.00"> &#160;</text>
<polygon fill="#ffffff" stroke="transparent" points="432.5,-144 432.5,-160 523.5,-160 523.5,-144 432.5,-144"/>
<text text-anchor="start" x="501.5" y="-149.2" font-family="Helvetica,sans-Serif" font-size="11.00">0 &gt;</text>
<polygon fill="black" stroke="black" points="353.5,-144 353.5,-160 353.5,-160 353.5,-144 353.5,-144"/>
<polygon fill="black" stroke="black" points="432.5,-144 432.5,-160 432.5,-160 432.5,-144 432.5,-144"/>
<polygon fill="none" stroke="black" stroke-width="2" points="260,-142 260,-228 525,-228 525,-142 260,-142"/>
</a>
</g>
</g>
<!-- structure_part -->
<g id="node2" class="node">
<title>structure_part</title>
<g id="a_node2"><a xlink:href="../../tables/structure_part.html" xlink:title="structure_part" target="_top">
<polygon fill="#ffffff" stroke="transparent" points="8,-37 8,-227 210,-227 210,-37 8,-37"/>
<polygon fill="#f5f5f5" stroke="transparent" points="8,-205 8,-227 210,-227 210,-205 8,-205"/>
<polygon fill="none" stroke="black" points="8,-205 8,-227 210,-227 210,-205 8,-205"/>
<text text-anchor="start" x="13" y="-214.2" font-family="Helvetica,sans-Serif" font-weight="bold" font-size="11.00">structure_part</text>
<text text-anchor="start" x="168" y="-213.2" font-family="Helvetica,sans-Serif" font-size="11.00">[table]</text>
<polygon fill="none" stroke="black" points="8,-183 8,-205 210,-205 210,-183 8,-183"/>
<image xlink:href="../../images/primaryKeys.png" width="11px" height="12px" preserveAspectRatio="xMinYMin meet" x="13" y="-200"/>
<text text-anchor="start" x="28" y="-191.2" font-family="Helvetica,sans-Serif" font-size="11.00">obj_id</text>
<polygon fill="#ffffff" stroke="transparent" points="8,-161 8,-183 210,-183 210,-161 8,-161"/>
<polygon fill="none" stroke="black" points="8,-161 8,-183 210,-183 210,-161 8,-161"/>
<text text-anchor="start" x="28" y="-169.2" font-family="Helvetica,sans-Serif" font-size="11.00">identifier</text>
<polygon fill="none" stroke="black" points="8,-139 8,-161 210,-161 210,-139 8,-139"/>
<image xlink:href="../../images/foreignKeys.png" width="11px" height="12px" preserveAspectRatio="xMinYMin meet" x="13" y="-156"/>
<text text-anchor="start" x="28" y="-147.2" font-family="Helvetica,sans-Serif" font-size="11.00">renovation_demand</text>
<polygon fill="#ffffff" stroke="transparent" points="8,-117 8,-139 210,-139 210,-117 8,-117"/>
<polygon fill="none" stroke="black" points="8,-117 8,-139 210,-139 210,-117 8,-117"/>
<image xlink:href="../../images/foreignKeys.png" width="11px" height="12px" preserveAspectRatio="xMinYMin meet" x="13" y="-134"/>
<text text-anchor="start" x="28" y="-125.2" font-family="Helvetica,sans-Serif" font-size="11.00">fk_dataowner</text>
<polygon fill="none" stroke="black" points="8,-95 8,-117 210,-117 210,-95 8,-95"/>
<image xlink:href="../../images/foreignKeys.png" width="11px" height="12px" preserveAspectRatio="xMinYMin meet" x="13" y="-112"/>
<text text-anchor="start" x="28" y="-103.2" font-family="Helvetica,sans-Serif" font-size="11.00">fk_provider</text>
<polygon fill="none" stroke="black" points="8,-73 8,-95 210,-95 210,-73 8,-73"/>
<image xlink:href="../../images/foreignKeys.png" width="11px" height="12px" preserveAspectRatio="xMinYMin meet" x="13" y="-90"/>
<text text-anchor="start" x="28" y="-81.2" font-family="Helvetica,sans-Serif" font-size="11.00">fk_wastewater_structure</text>
<polygon fill="none" stroke="black" points="8,-55 8,-73 210,-73 210,-55 8,-55"/>
<text text-anchor="start" x="11" y="-61.2" font-family="Helvetica,sans-Serif" font-size="11.00">...</text>
<polygon fill="#ffffff" stroke="transparent" points="8,-37 8,-55 210,-55 210,-37 8,-37"/>
<polygon fill="none" stroke="black" points="8,-37 8,-55 210,-55 210,-37 8,-37"/>
<polygon fill="#ffffff" stroke="transparent" points="9,-38 9,-54 78,-54 78,-38 9,-38"/>
<text text-anchor="start" x="11" y="-43.2" font-family="Helvetica,sans-Serif" font-size="11.00">&lt; 4</text>
<polygon fill="#ffffff" stroke="transparent" points="78,-38 78,-54 134,-54 134,-38 78,-38"/>
<text text-anchor="start" x="102" y="-43.2" font-family="Helvetica,sans-Serif" font-size="11.00"> &#160;</text>
<polygon fill="#ffffff" stroke="transparent" points="134,-38 134,-54 209,-54 209,-38 134,-38"/>
<text text-anchor="start" x="180" y="-43.2" font-family="Helvetica,sans-Serif" font-size="11.00">12 &gt;</text>
<polygon fill="black" stroke="black" points="78,-38 78,-54 78,-54 78,-38 78,-38"/>
<polygon fill="black" stroke="black" points="134,-38 134,-54 134,-54 134,-38 134,-38"/>
</a>
</g>
</g>
<!-- dryweather_downspout&#45;&gt;structure_part -->
<g id="edge1" class="edge">
<title>dryweather_downspout:w&#45;&gt;structure_part:e</title>
<path fill="none" stroke="black" d="M250.05,-194C235.99,-194 229.05,-194 211,-194"/>
<polygon fill="black" stroke="black" points="259.7,-190 259.7,-198 258.1,-198 258.1,-190 259.7,-190"/>
<polyline fill="none" stroke="black" points="260.5,-194 256.5,-194 "/>
<ellipse fill="none" stroke="black" cx="253.3" cy="-194" rx="3.2" ry="3.2"/>
</g>
</g>
</svg>
