<?xml version="1.0" encoding="UTF-8" standalone="no"?>
<!DOCTYPE svg PUBLIC "-//W3C//DTD SVG 1.1//EN"
 "http://www.w3.org/Graphics/SVG/1.1/DTD/svg11.dtd">
<!-- Generated by graphviz version 2.47.1 (20210515.0534)
 -->
<!-- Title: oneDegreeRelationshipsDiagram Pages: 1 -->
<svg width="667pt" height="523pt"
 viewBox="0.00 0.00 667.00 523.00" xmlns="http://www.w3.org/2000/svg" xmlns:xlink="http://www.w3.org/1999/xlink">
<g id="graph0" class="graph" transform="scale(1 1) rotate(0) translate(4 519)">
<title>oneDegreeRelationshipsDiagram</title>
<polygon fill="#ffffff" stroke="transparent" points="-4,4 -4,-519 663,-519 663,4 -4,4"/>
<text text-anchor="middle" x="73.5" y="-7.2" font-family="Helvetica,sans-Serif" font-size="11.00">Generated by SchemaSpy</text>
<!-- data_media -->
<g id="node1" class="node">
<title>data_media</title>
<g id="a_node1"><a xlink:href="../../tables/data_media.html" xlink:title="data_media" target="_top">
<polygon fill="#ffffff" stroke="transparent" points="230.5,-86 230.5,-254 354.5,-254 354.5,-86 230.5,-86"/>
<polygon fill="#f5f5f5" stroke="transparent" points="230.5,-232 230.5,-254 354.5,-254 354.5,-232 230.5,-232"/>
<polygon fill="none" stroke="black" points="230.5,-232 230.5,-254 354.5,-254 354.5,-232 230.5,-232"/>
<text text-anchor="start" x="235.5" y="-241.2" font-family="Helvetica,sans-Serif" font-weight="bold" font-size="11.00">data_media</text>
<text text-anchor="start" x="315.5" y="-240.2" font-family="Helvetica,sans-Serif" font-size="11.00">[table]</text>
<polygon fill="none" stroke="black" points="230.5,-210 230.5,-232 354.5,-232 354.5,-210 230.5,-210"/>
<image xlink:href="../../images/primaryKeys.png" width="11px" height="12px" preserveAspectRatio="xMinYMin meet" x="235.5" y="-227"/>
<text text-anchor="start" x="250.5" y="-218.2" font-family="Helvetica,sans-Serif" font-size="11.00">obj_id</text>
<polygon fill="#ffffff" stroke="transparent" points="230.5,-188 230.5,-210 354.5,-210 354.5,-188 230.5,-188"/>
<polygon fill="none" stroke="black" points="230.5,-188 230.5,-210 354.5,-210 354.5,-188 230.5,-188"/>
<text text-anchor="start" x="250.5" y="-196.2" font-family="Helvetica,sans-Serif" font-size="11.00">identifier</text>
<polygon fill="none" stroke="black" points="230.5,-166 230.5,-188 354.5,-188 354.5,-166 230.5,-166"/>
<image xlink:href="../../images/foreignKeys.png" width="11px" height="12px" preserveAspectRatio="xMinYMin meet" x="235.5" y="-183"/>
<text text-anchor="start" x="250.5" y="-174.2" font-family="Helvetica,sans-Serif" font-size="11.00">kind</text>
<polygon fill="#ffffff" stroke="transparent" points="230.5,-144 230.5,-166 354.5,-166 354.5,-144 230.5,-144"/>
<polygon fill="none" stroke="black" points="230.5,-144 230.5,-166 354.5,-166 354.5,-144 230.5,-144"/>
<image xlink:href="../../images/foreignKeys.png" width="11px" height="12px" preserveAspectRatio="xMinYMin meet" x="235.5" y="-161"/>
<text text-anchor="start" x="250.5" y="-152.2" font-family="Helvetica,sans-Serif" font-size="11.00">fk_dataowner</text>
<polygon fill="none" stroke="black" points="230.5,-122 230.5,-144 354.5,-144 354.5,-122 230.5,-122"/>
<image xlink:href="../../images/foreignKeys.png" width="11px" height="12px" preserveAspectRatio="xMinYMin meet" x="235.5" y="-139"/>
<text text-anchor="start" x="250.5" y="-130.2" font-family="Helvetica,sans-Serif" font-size="11.00">fk_provider</text>
<polygon fill="none" stroke="black" points="230.5,-104 230.5,-122 354.5,-122 354.5,-104 230.5,-104"/>
<text text-anchor="start" x="233.5" y="-110.2" font-family="Helvetica,sans-Serif" font-size="11.00">...</text>
<polygon fill="#ffffff" stroke="transparent" points="230.5,-86 230.5,-104 285.5,-104 285.5,-86 230.5,-86"/>
<polygon fill="none" stroke="black" points="230.5,-86 230.5,-104 285.5,-104 285.5,-86 230.5,-86"/>
<text text-anchor="start" x="233.5" y="-92.2" font-family="Helvetica,sans-Serif" font-size="11.00">&lt; 3</text>
<polygon fill="#ffffff" stroke="transparent" points="285.5,-86 285.5,-104 315.5,-104 315.5,-86 285.5,-86"/>
<polygon fill="none" stroke="black" points="285.5,-86 285.5,-104 315.5,-104 315.5,-86 285.5,-86"/>
<text text-anchor="start" x="305.5" y="-92.2" font-family="Helvetica,sans-Serif" font-size="11.00"> &#160;</text>
<polygon fill="#ffffff" stroke="transparent" points="315.5,-86 315.5,-104 354.5,-104 354.5,-86 315.5,-86"/>
<polygon fill="none" stroke="black" points="315.5,-86 315.5,-104 354.5,-104 354.5,-86 315.5,-86"/>
<text text-anchor="start" x="335.5" y="-92.2" font-family="Helvetica,sans-Serif" font-size="11.00">1 &gt;</text>
</a>
</g>
</g>
<!-- organisation -->
<g id="node2" class="node">
<title>organisation</title>
<g id="a_node2"><a xlink:href="../../tables/organisation.html" xlink:title="organisation" target="_top">
<polygon fill="#ffffff" stroke="transparent" points="8,-37 8,-249 156,-249 156,-37 8,-37"/>
<polygon fill="#f5f5f5" stroke="transparent" points="8,-227 8,-249 156,-249 156,-227 8,-227"/>
<polygon fill="none" stroke="black" points="8,-227 8,-249 156,-249 156,-227 8,-227"/>
<text text-anchor="start" x="13" y="-236.2" font-family="Helvetica,sans-Serif" font-weight="bold" font-size="11.00">organisation</text>
<text text-anchor="start" x="117" y="-235.2" font-family="Helvetica,sans-Serif" font-size="11.00">[table]</text>
<polygon fill="none" stroke="black" points="8,-205 8,-227 156,-227 156,-205 8,-205"/>
<image xlink:href="../../images/primaryKeys.png" width="11px" height="12px" preserveAspectRatio="xMinYMin meet" x="13" y="-222"/>
<text text-anchor="start" x="28" y="-213.2" font-family="Helvetica,sans-Serif" font-size="11.00">obj_id</text>
<polygon fill="#ffffff" stroke="transparent" points="8,-183 8,-205 156,-205 156,-183 8,-183"/>
<polygon fill="none" stroke="black" points="8,-183 8,-205 156,-205 156,-183 8,-183"/>
<text text-anchor="start" x="28" y="-191.2" font-family="Helvetica,sans-Serif" font-size="11.00">identifier</text>
<polygon fill="#ffffff" stroke="transparent" points="8,-161 8,-183 156,-183 156,-161 8,-161"/>
<polygon fill="none" stroke="black" points="8,-161 8,-183 156,-183 156,-161 8,-161"/>
<image xlink:href="../../images/foreignKeys.png" width="11px" height="12px" preserveAspectRatio="xMinYMin meet" x="13" y="-178"/>
<text text-anchor="start" x="28" y="-169.2" font-family="Helvetica,sans-Serif" font-size="11.00">organisation_type</text>
<polygon fill="none" stroke="black" points="8,-139 8,-161 156,-161 156,-139 8,-139"/>
<image xlink:href="../../images/foreignKeys.png" width="11px" height="12px" preserveAspectRatio="xMinYMin meet" x="13" y="-156"/>
<text text-anchor="start" x="28" y="-147.2" font-family="Helvetica,sans-Serif" font-size="11.00">status</text>
<polygon fill="#ffffff" stroke="transparent" points="8,-117 8,-139 156,-139 156,-117 8,-117"/>
<polygon fill="none" stroke="black" points="8,-117 8,-139 156,-139 156,-117 8,-117"/>
<text text-anchor="start" x="28" y="-125.2" font-family="Helvetica,sans-Serif" font-size="11.00">uid</text>
<polygon fill="none" stroke="black" points="8,-95 8,-117 156,-117 156,-95 8,-95"/>
<image xlink:href="../../images/foreignKeys.png" width="11px" height="12px" preserveAspectRatio="xMinYMin meet" x="13" y="-112"/>
<text text-anchor="start" x="28" y="-103.2" font-family="Helvetica,sans-Serif" font-size="11.00">fk_dataowner</text>
<polygon fill="none" stroke="black" points="8,-73 8,-95 156,-95 156,-73 8,-73"/>
<image xlink:href="../../images/foreignKeys.png" width="11px" height="12px" preserveAspectRatio="xMinYMin meet" x="13" y="-90"/>
<text text-anchor="start" x="28" y="-81.2" font-family="Helvetica,sans-Serif" font-size="11.00">fk_provider</text>
<polygon fill="none" stroke="black" points="8,-55 8,-73 156,-73 156,-55 8,-55"/>
<text text-anchor="start" x="11" y="-61.2" font-family="Helvetica,sans-Serif" font-size="11.00">...</text>
<polygon fill="#ffffff" stroke="transparent" points="8,-37 8,-55 69,-55 69,-37 8,-37"/>
<polygon fill="none" stroke="black" points="8,-37 8,-55 69,-55 69,-37 8,-37"/>
<text text-anchor="start" x="11" y="-43.2" font-family="Helvetica,sans-Serif" font-size="11.00">&lt; 4</text>
<polygon fill="#ffffff" stroke="transparent" points="69,-37 69,-55 102,-55 102,-37 69,-37"/>
<polygon fill="none" stroke="black" points="69,-37 69,-55 102,-55 102,-37 69,-37"/>
<text text-anchor="start" x="92" y="-43.2" font-family="Helvetica,sans-Serif" font-size="11.00"> &#160;</text>
<polygon fill="#ffffff" stroke="transparent" points="102,-37 102,-55 156,-55 156,-37 102,-37"/>
<polygon fill="none" stroke="black" points="102,-37 102,-55 156,-55 156,-37 102,-37"/>
<text text-anchor="start" x="125" y="-43.2" font-family="Helvetica,sans-Serif" font-size="11.00">101 &gt;</text>
</a>
</g>
</g>
<!-- data_media&#45;&gt;organisation -->
<g id="edge1" class="edge">
<title>data_media:w&#45;&gt;organisation:e</title>
<path fill="none" stroke="black" d="M215.32,-157.94C189.55,-170.13 193.52,-216 157,-216"/>
<polygon fill="black" stroke="black" points="221.67,-156.63 230.23,-158.52 225.58,-155.81 229.5,-155 229.5,-155 229.5,-155 225.58,-155.81 228.77,-151.48 221.67,-156.63 221.67,-156.63"/>
<ellipse fill="none" stroke="black" cx="218.53" cy="-157.28" rx="3.2" ry="3.2"/>
</g>
<!-- data_media&#45;&gt;organisation -->
<g id="edge2" class="edge">
<title>data_media:w&#45;&gt;organisation:e</title>
<path fill="none" stroke="black" d="M215.11,-136.15C185.46,-151.31 200.24,-216 157,-216"/>
<polygon fill="black" stroke="black" points="221.69,-134.71 230.27,-136.52 225.59,-133.86 229.5,-133 229.5,-133 229.5,-133 225.59,-133.86 228.73,-129.48 221.69,-134.71 221.69,-134.71"/>
<ellipse fill="none" stroke="black" cx="218.56" cy="-135.4" rx="3.2" ry="3.2"/>
</g>
<!-- file -->
<g id="node3" class="node">
<title>file</title>
<g id="a_node3"><a xlink:href="../../tables/file.html" xlink:title="file" target="_top">
<polygon fill="#ffffff" stroke="transparent" points="429,-225 429,-511 651,-511 651,-225 429,-225"/>
<polygon fill="#f5f5f5" stroke="transparent" points="431,-487 431,-509 649,-509 649,-487 431,-487"/>
<polygon fill="none" stroke="black" points="431,-487 431,-509 649,-509 649,-487 431,-487"/>
<text text-anchor="start" x="434.5" y="-496.2" font-family="Helvetica,sans-Serif" font-weight="bold" font-size="11.00">file</text>
<text text-anchor="start" x="610" y="-495.2" font-family="Helvetica,sans-Serif" font-size="11.00">[table]</text>
<polygon fill="none" stroke="black" points="431,-465 431,-487 555,-487 555,-465 431,-465"/>
<image xlink:href="../../images/primaryKeys.png" width="11px" height="12px" preserveAspectRatio="xMinYMin meet" x="436" y="-482"/>
<text text-anchor="start" x="451" y="-473.2" font-family="Helvetica,sans-Serif" font-size="11.00">obj_id</text>
<polygon fill="none" stroke="black" points="555,-465 555,-487 649,-487 649,-465 555,-465"/>
<text text-anchor="start" x="558" y="-473.2" font-family="Helvetica,sans-Serif" font-size="11.00">varchar[16]</text>
<polygon fill="none" stroke="black" points="431,-443 431,-465 555,-465 555,-443 431,-443"/>
<image xlink:href="../../images/foreignKeys.png" width="11px" height="12px" preserveAspectRatio="xMinYMin meet" x="436" y="-460"/>
<text text-anchor="start" x="451" y="-451.2" font-family="Helvetica,sans-Serif" font-size="11.00">classname</text>
<polygon fill="none" stroke="black" points="555,-443 555,-465 649,-465 649,-443 555,-443"/>
<text text-anchor="start" x="558" y="-451.2" font-family="Helvetica,sans-Serif" font-size="11.00">int4[10]</text>
<polygon fill="#ffffff" stroke="transparent" points="431,-421 431,-443 555,-443 555,-421 431,-421"/>
<polygon fill="none" stroke="black" points="431,-421 431,-443 555,-443 555,-421 431,-421"/>
<text text-anchor="start" x="451" y="-429.2" font-family="Helvetica,sans-Serif" font-size="11.00">identifier</text>
<polygon fill="none" stroke="black" points="555,-421 555,-443 649,-443 649,-421 555,-421"/>
<text text-anchor="start" x="558" y="-429.2" font-family="Helvetica,sans-Serif" font-size="11.00">text[2147483647]</text>
<polygon fill="none" stroke="black" points="431,-399 431,-421 555,-421 555,-399 431,-399"/>
<image xlink:href="../../images/foreignKeys.png" width="11px" height="12px" preserveAspectRatio="xMinYMin meet" x="436" y="-416"/>
<text text-anchor="start" x="451" y="-407.2" font-family="Helvetica,sans-Serif" font-size="11.00">kind</text>
<polygon fill="none" stroke="black" points="555,-399 555,-421 649,-421 649,-399 555,-399"/>
<text text-anchor="start" x="558" y="-407.2" font-family="Helvetica,sans-Serif" font-size="11.00">int4[10]</text>
<polygon fill="none" stroke="black" points="431,-377 431,-399 555,-399 555,-377 431,-377"/>
<text text-anchor="start" x="451" y="-385.2" font-family="Helvetica,sans-Serif" font-size="11.00">object</text>
<polygon fill="none" stroke="black" points="555,-377 555,-399 649,-399 649,-377 555,-377"/>
<text text-anchor="start" x="558" y="-385.2" font-family="Helvetica,sans-Serif" font-size="11.00">text[2147483647]</text>
<polygon fill="none" stroke="black" points="431,-355 431,-377 555,-377 555,-355 431,-355"/>
<text text-anchor="start" x="451" y="-363.2" font-family="Helvetica,sans-Serif" font-size="11.00">path_relative</text>
<polygon fill="none" stroke="black" points="555,-355 555,-377 649,-377 649,-355 555,-355"/>
<text text-anchor="start" x="558" y="-363.2" font-family="Helvetica,sans-Serif" font-size="11.00">text[2147483647]</text>
<polygon fill="none" stroke="black" points="431,-333 431,-355 555,-355 555,-333 431,-333"/>
<text text-anchor="start" x="451" y="-341.2" font-family="Helvetica,sans-Serif" font-size="11.00">remark</text>
<polygon fill="none" stroke="black" points="555,-333 555,-355 649,-355 649,-333 555,-333"/>
<text text-anchor="start" x="558" y="-341.2" font-family="Helvetica,sans-Serif" font-size="11.00">text[2147483647]</text>
<polygon fill="none" stroke="black" points="431,-311 431,-333 555,-333 555,-311 431,-311"/>
<text text-anchor="start" x="451" y="-319.2" font-family="Helvetica,sans-Serif" font-size="11.00">last_modification</text>
<polygon fill="none" stroke="black" points="555,-311 555,-333 649,-333 649,-311 555,-311"/>
<text text-anchor="start" x="558" y="-319.2" font-family="Helvetica,sans-Serif" font-size="11.00">timestamp[29,6]</text>
<polygon fill="#ffffff" stroke="transparent" points="431,-289 431,-311 555,-311 555,-289 431,-289"/>
<polygon fill="none" stroke="black" points="431,-289 431,-311 555,-311 555,-289 431,-289"/>
<image xlink:href="../../images/foreignKeys.png" width="11px" height="12px" preserveAspectRatio="xMinYMin meet" x="436" y="-306"/>
<text text-anchor="start" x="451" y="-297.2" font-family="Helvetica,sans-Serif" font-size="11.00">fk_dataowner</text>
<polygon fill="none" stroke="black" points="555,-289 555,-311 649,-311 649,-289 555,-289"/>
<text text-anchor="start" x="558" y="-297.2" font-family="Helvetica,sans-Serif" font-size="11.00">varchar[16]</text>
<polygon fill="none" stroke="black" points="431,-267 431,-289 555,-289 555,-267 431,-267"/>
<image xlink:href="../../images/foreignKeys.png" width="11px" height="12px" preserveAspectRatio="xMinYMin meet" x="436" y="-284"/>
<text text-anchor="start" x="451" y="-275.2" font-family="Helvetica,sans-Serif" font-size="11.00">fk_provider</text>
<polygon fill="none" stroke="black" points="555,-267 555,-289 649,-289 649,-267 555,-267"/>
<text text-anchor="start" x="558" y="-275.2" font-family="Helvetica,sans-Serif" font-size="11.00">varchar[16]</text>
<polygon fill="none" stroke="black" points="431,-245 431,-267 555,-267 555,-245 431,-245"/>
<image xlink:href="../../images/foreignKeys.png" width="11px" height="12px" preserveAspectRatio="xMinYMin meet" x="436" y="-262"/>
<text text-anchor="start" x="451" y="-253.2" font-family="Helvetica,sans-Serif" font-size="11.00">fk_data_media</text>
<polygon fill="none" stroke="black" points="555,-245 555,-267 649,-267 649,-245 555,-245"/>
<text text-anchor="start" x="558" y="-253.2" font-family="Helvetica,sans-Serif" font-size="11.00">varchar[16]</text>
<polygon fill="#ffffff" stroke="transparent" points="431,-227 431,-245 497,-245 497,-227 431,-227"/>
<polygon fill="none" stroke="black" points="431,-227 431,-245 497,-245 497,-227 431,-227"/>
<text text-anchor="start" x="434" y="-233.2" font-family="Helvetica,sans-Serif" font-size="11.00">&lt; 5</text>
<polygon fill="#ffffff" stroke="transparent" points="497,-227 497,-245 555,-245 555,-227 497,-227"/>
<polygon fill="none" stroke="black" points="497,-227 497,-245 555,-245 555,-227 497,-227"/>
<text text-anchor="start" x="545" y="-233.2" font-family="Helvetica,sans-Serif" font-size="11.00"> &#160;</text>
<polygon fill="#ffffff" stroke="transparent" points="555,-227 555,-245 649,-245 649,-227 555,-227"/>
<polygon fill="none" stroke="black" points="555,-227 555,-245 649,-245 649,-227 555,-227"/>
<text text-anchor="start" x="630" y="-233.2" font-family="Helvetica,sans-Serif" font-size="11.00">0 &gt;</text>
<polygon fill="none" stroke="black" stroke-width="2" points="430,-226 430,-510 650,-510 650,-226 430,-226"/>
</a>
</g>
</g>
<!-- file&#45;&gt;data_media -->
<g id="edge4" class="edge">
<title>file:w&#45;&gt;data_media:e</title>
<path fill="none" stroke="black" d="M415.49,-253.81C392.19,-246.15 386.51,-221 355.5,-221"/>
<polygon fill="black" stroke="black" points="422.09,-254.81 429.46,-259.56 426.04,-255.4 430,-256 430,-256 430,-256 426.04,-255.4 430.54,-252.44 422.09,-254.81 422.09,-254.81"/>
<ellipse fill="none" stroke="black" cx="418.93" cy="-254.33" rx="3.2" ry="3.2"/>
</g>
<!-- file&#45;&gt;organisation -->
<g id="edge5" class="edge">
<title>file:w&#45;&gt;organisation:e</title>
<path fill="none" stroke="black" d="M415.53,-300.28C322.25,-303.88 280.78,-340.24 197,-288 165.94,-268.63 193.61,-216 157,-216"/>
<polygon fill="black" stroke="black" points="422,-300.15 430.07,-303.6 426,-300.08 430,-300 430,-300 430,-300 426,-300.08 429.93,-296.4 422,-300.15 422,-300.15"/>
<ellipse fill="none" stroke="black" cx="418.8" cy="-300.22" rx="3.2" ry="3.2"/>
</g>
<!-- file&#45;&gt;organisation -->
<g id="edge6" class="edge">
<title>file:w&#45;&gt;organisation:e</title>
<path fill="none" stroke="black" d="M415.28,-278.17C356.11,-279.35 239.4,-285.44 197,-264 172.22,-251.47 184.77,-216 157,-216"/>
<polygon fill="black" stroke="black" points="422,-278.09 430.04,-281.6 426,-278.05 430,-278 430,-278 430,-278 426,-278.05 429.96,-274.4 422,-278.09 422,-278.09"/>
<ellipse fill="none" stroke="black" cx="418.8" cy="-278.13" rx="3.2" ry="3.2"/>
</g>
<!-- tww_vl.file_classname -->
<g id="node4" class="node">
<title>tww_vl.file_classname</title>
<g id="a_node4"><a xlink:href="../../../tww_vl/tables/file_classname.html" xlink:title="tww_vl.file_classname" target="_top">
<polygon fill="#ffffff" stroke="transparent" points="205,-442 205,-500 380,-500 380,-442 205,-442"/>
<polygon fill="#f5f5f5" stroke="transparent" points="205.5,-478 205.5,-500 380.5,-500 380.5,-478 205.5,-478"/>
<polygon fill="none" stroke="black" points="205.5,-478 205.5,-500 380.5,-500 380.5,-478 205.5,-478"/>
<text text-anchor="start" x="210.5" y="-487.2" font-family="Helvetica,sans-Serif" font-weight="bold" font-size="11.00">tww_vl.file_classname</text>
<text text-anchor="start" x="341.5" y="-486.2" font-family="Helvetica,sans-Serif" font-size="11.00">[table]</text>
<polygon fill="none" stroke="black" points="205.5,-460 205.5,-478 380.5,-478 380.5,-460 205.5,-460"/>
<text text-anchor="start" x="208.5" y="-466.2" font-family="Helvetica,sans-Serif" font-size="11.00">...</text>
<polygon fill="#ffffff" stroke="transparent" points="205.5,-442 205.5,-460 268.5,-460 268.5,-442 205.5,-442"/>
<polygon fill="none" stroke="black" points="205.5,-442 205.5,-460 268.5,-460 268.5,-442 205.5,-442"/>
<text text-anchor="start" x="208.5" y="-448.2" font-family="Helvetica,sans-Serif" font-size="11.00"> &#160;</text>
<polygon fill="#ffffff" stroke="transparent" points="268.5,-442 268.5,-460 333.5,-460 333.5,-442 268.5,-442"/>
<polygon fill="none" stroke="black" points="268.5,-442 268.5,-460 333.5,-460 333.5,-442 268.5,-442"/>
<text text-anchor="start" x="296.5" y="-448.2" font-family="Helvetica,sans-Serif" font-size="11.00">0 rows</text>
<polygon fill="#ffffff" stroke="transparent" points="333.5,-442 333.5,-460 380.5,-460 380.5,-442 333.5,-442"/>
<polygon fill="none" stroke="black" points="333.5,-442 333.5,-460 380.5,-460 380.5,-442 333.5,-442"/>
<text text-anchor="start" x="361.5" y="-448.2" font-family="Helvetica,sans-Serif" font-size="11.00">1 &gt;</text>
</a>
</g>
</g>
<!-- file&#45;&gt;tww_vl.file_classname -->
<g id="edge3" class="edge">
<title>file:w&#45;&gt;tww_vl.file_classname:e</title>
<path fill="none" stroke="black" d="M415.42,-454.3C406.36,-454.65 397.14,-455.3 388.04,-456.15"/>
<polygon fill="black" stroke="black" points="422,-454.16 430.07,-457.6 426,-454.08 430,-454 430,-454 430,-454 426,-454.08 429.93,-450.4 422,-454.16 422,-454.16"/>
<ellipse fill="none" stroke="black" cx="418.8" cy="-454.23" rx="3.2" ry="3.2"/>
</g>
<!-- tww_vl.file_kind -->
<g id="node5" class="node">
<title>tww_vl.file_kind</title>
<g id="a_node5"><a xlink:href="../../../tww_vl/tables/file_kind.html" xlink:title="tww_vl.file_kind" target="_top">
<polygon fill="#ffffff" stroke="transparent" points="223,-363 223,-421 362,-421 362,-363 223,-363"/>
<polygon fill="#f5f5f5" stroke="transparent" points="223.5,-399 223.5,-421 362.5,-421 362.5,-399 223.5,-399"/>
<polygon fill="none" stroke="black" points="223.5,-399 223.5,-421 362.5,-421 362.5,-399 223.5,-399"/>
<text text-anchor="start" x="228.5" y="-408.2" font-family="Helvetica,sans-Serif" font-weight="bold" font-size="11.00">tww_vl.file_kind</text>
<text text-anchor="start" x="323.5" y="-407.2" font-family="Helvetica,sans-Serif" font-size="11.00">[table]</text>
<polygon fill="none" stroke="black" points="223.5,-381 223.5,-399 362.5,-399 362.5,-381 223.5,-381"/>
<text text-anchor="start" x="226.5" y="-387.2" font-family="Helvetica,sans-Serif" font-size="11.00">...</text>
<polygon fill="#ffffff" stroke="transparent" points="223.5,-363 223.5,-381 268.5,-381 268.5,-363 223.5,-363"/>
<polygon fill="none" stroke="black" points="223.5,-363 223.5,-381 268.5,-381 268.5,-363 223.5,-363"/>
<text text-anchor="start" x="226.5" y="-369.2" font-family="Helvetica,sans-Serif" font-size="11.00"> &#160;</text>
<polygon fill="#ffffff" stroke="transparent" points="268.5,-363 268.5,-381 324.5,-381 324.5,-363 268.5,-363"/>
<polygon fill="none" stroke="black" points="268.5,-363 268.5,-381 324.5,-381 324.5,-363 268.5,-363"/>
<text text-anchor="start" x="287.5" y="-369.2" font-family="Helvetica,sans-Serif" font-size="11.00">0 rows</text>
<polygon fill="#ffffff" stroke="transparent" points="324.5,-363 324.5,-381 362.5,-381 362.5,-363 324.5,-363"/>
<polygon fill="none" stroke="black" points="324.5,-363 324.5,-381 362.5,-381 362.5,-363 324.5,-363"/>
<text text-anchor="start" x="343.5" y="-369.2" font-family="Helvetica,sans-Serif" font-size="11.00">1 &gt;</text>
</a>
</g>
</g>
<!-- file&#45;&gt;tww_vl.file_kind -->
<g id="edge7" class="edge">
<title>file:w&#45;&gt;tww_vl.file_kind:e</title>
<path fill="none" stroke="black" d="M415.17,-409.68C400.15,-409.05 384.74,-407.55 370.15,-405.69"/>
<polygon fill="black" stroke="black" points="422,-409.83 429.92,-413.6 426,-409.91 430,-410 430,-410 430,-410 426,-409.91 430.08,-406.4 422,-409.83 422,-409.83"/>
<ellipse fill="none" stroke="black" cx="418.8" cy="-409.76" rx="3.2" ry="3.2"/>
</g>
</g>
</svg>
