<?xml version="1.0" encoding="UTF-8" standalone="no"?>
<!DOCTYPE svg PUBLIC "-//W3C//DTD SVG 1.1//EN"
 "http://www.w3.org/Graphics/SVG/1.1/DTD/svg11.dtd">
<!-- Generated by graphviz version 2.47.1 (20210515.0534)
 -->
<!-- Title: oneDegreeRelationshipsDiagram Pages: 1 -->
<svg width="626pt" height="435pt"
 viewBox="0.00 0.00 626.00 435.00" xmlns="http://www.w3.org/2000/svg" xmlns:xlink="http://www.w3.org/1999/xlink">
<g id="graph0" class="graph" transform="scale(1 1) rotate(0) translate(4 431)">
<title>oneDegreeRelationshipsDiagram</title>
<polygon fill="#ffffff" stroke="transparent" points="-4,4 -4,-431 622,-431 622,4 -4,4"/>
<text text-anchor="middle" x="73.5" y="-7.2" font-family="Helvetica,sans-Serif" font-size="11.00">Generated by SchemaSpy</text>
<!-- hq_relation -->
<g id="node1" class="node">
<title>hq_relation</title>
<g id="a_node1"><a xlink:href="../../tables/hq_relation.html" xlink:title="hq_relation" target="_top">
<polygon fill="#ffffff" stroke="transparent" points="391,-203 391,-423 610,-423 610,-203 391,-203"/>
<polygon fill="#f5f5f5" stroke="transparent" points="393.5,-399 393.5,-421 608.5,-421 608.5,-399 393.5,-399"/>
<polygon fill="none" stroke="black" points="393.5,-399 393.5,-421 608.5,-421 608.5,-399 393.5,-399"/>
<text text-anchor="start" x="398.5" y="-408.2" font-family="Helvetica,sans-Serif" font-weight="bold" font-size="11.00">hq_relation</text>
<text text-anchor="start" x="569.5" y="-407.2" font-family="Helvetica,sans-Serif" font-size="11.00">[table]</text>
<polygon fill="none" stroke="black" points="393.5,-377 393.5,-399 517.5,-399 517.5,-377 393.5,-377"/>
<image xlink:href="../../images/primaryKeys.png" width="11px" height="12px" preserveAspectRatio="xMinYMin meet" x="398.5" y="-394"/>
<text text-anchor="start" x="413.5" y="-385.2" font-family="Helvetica,sans-Serif" font-size="11.00">obj_id</text>
<polygon fill="none" stroke="black" points="517.5,-377 517.5,-399 608.5,-399 608.5,-377 517.5,-377"/>
<text text-anchor="start" x="520.5" y="-385.2" font-family="Helvetica,sans-Serif" font-size="11.00">varchar[16]</text>
<polygon fill="none" stroke="black" points="393.5,-355 393.5,-377 517.5,-377 517.5,-355 393.5,-355"/>
<text text-anchor="start" x="413.5" y="-363.2" font-family="Helvetica,sans-Serif" font-size="11.00">altitude</text>
<polygon fill="none" stroke="black" points="517.5,-355 517.5,-377 608.5,-377 608.5,-355 517.5,-355"/>
<text text-anchor="start" x="520.5" y="-363.2" font-family="Helvetica,sans-Serif" font-size="11.00">numeric[7,3]</text>
<polygon fill="none" stroke="black" points="393.5,-333 393.5,-355 517.5,-355 517.5,-333 393.5,-333"/>
<text text-anchor="start" x="413.5" y="-341.2" font-family="Helvetica,sans-Serif" font-size="11.00">flow</text>
<polygon fill="none" stroke="black" points="517.5,-333 517.5,-355 608.5,-355 608.5,-333 517.5,-333"/>
<text text-anchor="start" x="520.5" y="-341.2" font-family="Helvetica,sans-Serif" font-size="11.00">numeric[9,3]</text>
<polygon fill="none" stroke="black" points="393.5,-311 393.5,-333 517.5,-333 517.5,-311 393.5,-311"/>
<text text-anchor="start" x="413.5" y="-319.2" font-family="Helvetica,sans-Serif" font-size="11.00">flow_from</text>
<polygon fill="none" stroke="black" points="517.5,-311 517.5,-333 608.5,-333 608.5,-311 517.5,-311"/>
<text text-anchor="start" x="520.5" y="-319.2" font-family="Helvetica,sans-Serif" font-size="11.00">numeric[9,3]</text>
<polygon fill="none" stroke="black" points="393.5,-289 393.5,-311 517.5,-311 517.5,-289 393.5,-289"/>
<text text-anchor="start" x="413.5" y="-297.2" font-family="Helvetica,sans-Serif" font-size="11.00">last_modification</text>
<polygon fill="none" stroke="black" points="517.5,-289 517.5,-311 608.5,-311 608.5,-289 517.5,-289"/>
<text text-anchor="start" x="520.5" y="-297.2" font-family="Helvetica,sans-Serif" font-size="11.00">timestamp[29,6]</text>
<polygon fill="none" stroke="black" points="393.5,-267 393.5,-289 517.5,-289 517.5,-267 393.5,-267"/>
<image xlink:href="../../images/foreignKeys.png" width="11px" height="12px" preserveAspectRatio="xMinYMin meet" x="398.5" y="-284"/>
<text text-anchor="start" x="413.5" y="-275.2" font-family="Helvetica,sans-Serif" font-size="11.00">fk_dataowner</text>
<polygon fill="none" stroke="black" points="517.5,-267 517.5,-289 608.5,-289 608.5,-267 517.5,-267"/>
<text text-anchor="start" x="520.5" y="-275.2" font-family="Helvetica,sans-Serif" font-size="11.00">varchar[16]</text>
<polygon fill="none" stroke="black" points="393.5,-245 393.5,-267 517.5,-267 517.5,-245 393.5,-245"/>
<image xlink:href="../../images/foreignKeys.png" width="11px" height="12px" preserveAspectRatio="xMinYMin meet" x="398.5" y="-262"/>
<text text-anchor="start" x="413.5" y="-253.2" font-family="Helvetica,sans-Serif" font-size="11.00">fk_provider</text>
<polygon fill="none" stroke="black" points="517.5,-245 517.5,-267 608.5,-267 608.5,-245 517.5,-245"/>
<text text-anchor="start" x="520.5" y="-253.2" font-family="Helvetica,sans-Serif" font-size="11.00">varchar[16]</text>
<polygon fill="none" stroke="black" points="393.5,-223 393.5,-245 517.5,-245 517.5,-223 393.5,-223"/>
<image xlink:href="../../images/foreignKeys.png" width="11px" height="12px" preserveAspectRatio="xMinYMin meet" x="398.5" y="-240"/>
<text text-anchor="start" x="413.5" y="-231.2" font-family="Helvetica,sans-Serif" font-size="11.00">fk_overflow_char</text>
<polygon fill="none" stroke="black" points="517.5,-223 517.5,-245 608.5,-245 608.5,-223 517.5,-223"/>
<text text-anchor="start" x="520.5" y="-231.2" font-family="Helvetica,sans-Serif" font-size="11.00">varchar[16]</text>
<polygon fill="#ffffff" stroke="transparent" points="393.5,-205 393.5,-223 459.5,-223 459.5,-205 393.5,-205"/>
<polygon fill="none" stroke="black" points="393.5,-205 393.5,-223 459.5,-223 459.5,-205 393.5,-205"/>
<text text-anchor="start" x="396.5" y="-211.2" font-family="Helvetica,sans-Serif" font-size="11.00">&lt; 3</text>
<polygon fill="#ffffff" stroke="transparent" points="459.5,-205 459.5,-223 517.5,-223 517.5,-205 459.5,-205"/>
<polygon fill="none" stroke="black" points="459.5,-205 459.5,-223 517.5,-223 517.5,-205 459.5,-205"/>
<text text-anchor="start" x="507.5" y="-211.2" font-family="Helvetica,sans-Serif" font-size="11.00"> &#160;</text>
<polygon fill="#ffffff" stroke="transparent" points="517.5,-205 517.5,-223 608.5,-223 608.5,-205 517.5,-205"/>
<polygon fill="none" stroke="black" points="517.5,-205 517.5,-223 608.5,-223 608.5,-205 517.5,-205"/>
<text text-anchor="start" x="589.5" y="-211.2" font-family="Helvetica,sans-Serif" font-size="11.00">0 &gt;</text>
<polygon fill="none" stroke="black" stroke-width="2" points="392,-204 392,-422 609,-422 609,-204 392,-204"/>
</a>
</g>
</g>
<!-- organisation -->
<g id="node2" class="node">
<title>organisation</title>
<g id="a_node2"><a xlink:href="../../tables/organisation.html" xlink:title="organisation" target="_top">
<polygon fill="#ffffff" stroke="transparent" points="8,-37 8,-227 156,-227 156,-37 8,-37"/>
<polygon fill="#f5f5f5" stroke="transparent" points="8,-205 8,-227 156,-227 156,-205 8,-205"/>
<polygon fill="none" stroke="black" points="8,-205 8,-227 156,-227 156,-205 8,-205"/>
<text text-anchor="start" x="13" y="-214.2" font-family="Helvetica,sans-Serif" font-weight="bold" font-size="11.00">organisation</text>
<text text-anchor="start" x="117" y="-213.2" font-family="Helvetica,sans-Serif" font-size="11.00">[table]</text>
<polygon fill="none" stroke="black" points="8,-183 8,-205 156,-205 156,-183 8,-183"/>
<image xlink:href="../../images/primaryKeys.png" width="11px" height="12px" preserveAspectRatio="xMinYMin meet" x="13" y="-200"/>
<text text-anchor="start" x="28" y="-191.2" font-family="Helvetica,sans-Serif" font-size="11.00">obj_id</text>
<polygon fill="#ffffff" stroke="transparent" points="8,-161 8,-183 156,-183 156,-161 8,-161"/>
<polygon fill="none" stroke="black" points="8,-161 8,-183 156,-183 156,-161 8,-161"/>
<text text-anchor="start" x="28" y="-169.2" font-family="Helvetica,sans-Serif" font-size="11.00">identifier</text>
<polygon fill="none" stroke="black" points="8,-139 8,-161 156,-161 156,-139 8,-139"/>
<image xlink:href="../../images/foreignKeys.png" width="11px" height="12px" preserveAspectRatio="xMinYMin meet" x="13" y="-156"/>
<text text-anchor="start" x="28" y="-147.2" font-family="Helvetica,sans-Serif" font-size="11.00">organisation_type</text>
<polygon fill="none" stroke="black" points="8,-117 8,-139 156,-139 156,-117 8,-117"/>
<image xlink:href="../../images/foreignKeys.png" width="11px" height="12px" preserveAspectRatio="xMinYMin meet" x="13" y="-134"/>
<text text-anchor="start" x="28" y="-125.2" font-family="Helvetica,sans-Serif" font-size="11.00">status</text>
<polygon fill="#ffffff" stroke="transparent" points="8,-95 8,-117 156,-117 156,-95 8,-95"/>
<polygon fill="none" stroke="black" points="8,-95 8,-117 156,-117 156,-95 8,-95"/>
<image xlink:href="../../images/foreignKeys.png" width="11px" height="12px" preserveAspectRatio="xMinYMin meet" x="13" y="-112"/>
<text text-anchor="start" x="28" y="-103.2" font-family="Helvetica,sans-Serif" font-size="11.00">fk_dataowner</text>
<polygon fill="none" stroke="black" points="8,-73 8,-95 156,-95 156,-73 8,-73"/>
<image xlink:href="../../images/foreignKeys.png" width="11px" height="12px" preserveAspectRatio="xMinYMin meet" x="13" y="-90"/>
<text text-anchor="start" x="28" y="-81.2" font-family="Helvetica,sans-Serif" font-size="11.00">fk_provider</text>
<polygon fill="none" stroke="black" points="8,-55 8,-73 156,-73 156,-55 8,-55"/>
<text text-anchor="start" x="11" y="-61.2" font-family="Helvetica,sans-Serif" font-size="11.00">...</text>
<polygon fill="#ffffff" stroke="transparent" points="8,-37 8,-55 72,-55 72,-37 8,-37"/>
<polygon fill="none" stroke="black" points="8,-37 8,-55 72,-55 72,-37 8,-37"/>
<text text-anchor="start" x="11" y="-43.2" font-family="Helvetica,sans-Serif" font-size="11.00">&lt; 4</text>
<polygon fill="#ffffff" stroke="transparent" points="72,-37 72,-55 106,-55 106,-37 72,-37"/>
<polygon fill="none" stroke="black" points="72,-37 72,-55 106,-55 106,-37 72,-37"/>
<text text-anchor="start" x="96" y="-43.2" font-family="Helvetica,sans-Serif" font-size="11.00"> &#160;</text>
<polygon fill="#ffffff" stroke="transparent" points="106,-37 106,-55 156,-55 156,-37 106,-37"/>
<polygon fill="none" stroke="black" points="106,-37 106,-55 156,-55 156,-37 106,-37"/>
<text text-anchor="start" x="131" y="-43.2" font-family="Helvetica,sans-Serif" font-size="11.00">98 &gt;</text>
</a>
</g>
</g>
<!-- hq_relation&#45;&gt;organisation -->
<g id="edge1" class="edge">
<title>hq_relation:w&#45;&gt;organisation:e</title>
<path fill="none" stroke="black" d="M377.72,-278.33C301.24,-281.76 266.32,-309.71 197,-266 166.03,-246.48 193.61,-194 157,-194"/>
<polygon fill="black" stroke="black" points="384.5,-278.18 392.58,-281.6 388.5,-278.09 392.5,-278 392.5,-278 392.5,-278 388.5,-278.09 392.42,-274.4 384.5,-278.18 384.5,-278.18"/>
<ellipse fill="none" stroke="black" cx="381.3" cy="-278.25" rx="3.2" ry="3.2"/>
</g>
<!-- hq_relation&#45;&gt;organisation -->
<g id="edge3" class="edge">
<title>hq_relation:w&#45;&gt;organisation:e</title>
<path fill="none" stroke="black" d="M377.75,-256.25C301.61,-258.79 269.97,-279.42 197,-242 172.29,-229.33 184.77,-194 157,-194"/>
<polygon fill="black" stroke="black" points="384.5,-256.13 392.56,-259.6 388.5,-256.07 392.5,-256 392.5,-256 392.5,-256 388.5,-256.07 392.44,-252.4 384.5,-256.13 384.5,-256.13"/>
<ellipse fill="none" stroke="black" cx="381.3" cy="-256.19" rx="3.2" ry="3.2"/>
</g>
<!-- overflow_char -->
<g id="node3" class="node">
<title>overflow_char</title>
<g id="a_node3"><a xlink:href="../../tables/overflow_char.html" xlink:title="overflow_char" target="_top">
<polygon fill="#ffffff" stroke="transparent" points="205,-64 205,-232 342,-232 342,-64 205,-64"/>
<polygon fill="#f5f5f5" stroke="transparent" points="205.5,-210 205.5,-232 342.5,-232 342.5,-210 205.5,-210"/>
<polygon fill="none" stroke="black" points="205.5,-210 205.5,-232 342.5,-232 342.5,-210 205.5,-210"/>
<text text-anchor="start" x="210.5" y="-219.2" font-family="Helvetica,sans-Serif" font-weight="bold" font-size="11.00">overflow_char</text>
<text text-anchor="start" x="303.5" y="-218.2" font-family="Helvetica,sans-Serif" font-size="11.00">[table]</text>
<polygon fill="none" stroke="black" points="205.5,-188 205.5,-210 342.5,-210 342.5,-188 205.5,-188"/>
<image xlink:href="../../images/primaryKeys.png" width="11px" height="12px" preserveAspectRatio="xMinYMin meet" x="210.5" y="-205"/>
<text text-anchor="start" x="225.5" y="-196.2" font-family="Helvetica,sans-Serif" font-size="11.00">obj_id</text>
<polygon fill="#ffffff" stroke="transparent" points="205.5,-166 205.5,-188 342.5,-188 342.5,-166 205.5,-166"/>
<polygon fill="none" stroke="black" points="205.5,-166 205.5,-188 342.5,-188 342.5,-166 205.5,-166"/>
<text text-anchor="start" x="225.5" y="-174.2" font-family="Helvetica,sans-Serif" font-size="11.00">identifier</text>
<polygon fill="none" stroke="black" points="205.5,-144 205.5,-166 342.5,-166 342.5,-144 205.5,-144"/>
<image xlink:href="../../images/foreignKeys.png" width="11px" height="12px" preserveAspectRatio="xMinYMin meet" x="210.5" y="-161"/>
<text text-anchor="start" x="225.5" y="-152.2" font-family="Helvetica,sans-Serif" font-size="11.00">kind_overflow_char</text>
<polygon fill="#ffffff" stroke="transparent" points="205.5,-122 205.5,-144 342.5,-144 342.5,-122 205.5,-122"/>
<polygon fill="none" stroke="black" points="205.5,-122 205.5,-144 342.5,-144 342.5,-122 205.5,-122"/>
<image xlink:href="../../images/foreignKeys.png" width="11px" height="12px" preserveAspectRatio="xMinYMin meet" x="210.5" y="-139"/>
<text text-anchor="start" x="225.5" y="-130.2" font-family="Helvetica,sans-Serif" font-size="11.00">fk_dataowner</text>
<polygon fill="none" stroke="black" points="205.5,-100 205.5,-122 342.5,-122 342.5,-100 205.5,-100"/>
<image xlink:href="../../images/foreignKeys.png" width="11px" height="12px" preserveAspectRatio="xMinYMin meet" x="210.5" y="-117"/>
<text text-anchor="start" x="225.5" y="-108.2" font-family="Helvetica,sans-Serif" font-size="11.00">fk_provider</text>
<polygon fill="none" stroke="black" points="205.5,-82 205.5,-100 342.5,-100 342.5,-82 205.5,-82"/>
<text text-anchor="start" x="208.5" y="-88.2" font-family="Helvetica,sans-Serif" font-size="11.00">...</text>
<polygon fill="#ffffff" stroke="transparent" points="205.5,-64 205.5,-82 267.5,-82 267.5,-64 205.5,-64"/>
<polygon fill="none" stroke="black" points="205.5,-64 205.5,-82 267.5,-82 267.5,-64 205.5,-64"/>
<text text-anchor="start" x="208.5" y="-70.2" font-family="Helvetica,sans-Serif" font-size="11.00">&lt; 3</text>
<polygon fill="#ffffff" stroke="transparent" points="267.5,-64 267.5,-82 300.5,-82 300.5,-64 267.5,-64"/>
<polygon fill="none" stroke="black" points="267.5,-64 267.5,-82 300.5,-82 300.5,-64 267.5,-64"/>
<text text-anchor="start" x="290.5" y="-70.2" font-family="Helvetica,sans-Serif" font-size="11.00"> &#160;</text>
<polygon fill="#ffffff" stroke="transparent" points="300.5,-64 300.5,-82 342.5,-82 342.5,-64 300.5,-64"/>
<polygon fill="none" stroke="black" points="300.5,-64 300.5,-82 342.5,-82 342.5,-64 300.5,-64"/>
<text text-anchor="start" x="323.5" y="-70.2" font-family="Helvetica,sans-Serif" font-size="11.00">3 &gt;</text>
</a>
</g>
</g>
<!-- hq_relation&#45;&gt;overflow_char -->
<g id="edge2" class="edge">
<title>hq_relation:w&#45;&gt;overflow_char:e</title>
<path fill="none" stroke="black" d="M378.4,-229.42C366.18,-219.94 364.2,-199 343.5,-199"/>
<polygon fill="black" stroke="black" points="384.89,-231.53 391.39,-237.42 388.7,-232.77 392.5,-234 392.5,-234 392.5,-234 388.7,-232.77 393.61,-230.58 384.89,-231.53 384.89,-231.53"/>
<ellipse fill="none" stroke="black" cx="381.85" cy="-230.54" rx="3.2" ry="3.2"/>
</g>
<!-- overflow_char&#45;&gt;organisation -->
<g id="edge4" class="edge">
<title>overflow_char:w&#45;&gt;organisation:e</title>
<path fill="none" stroke="black" d="M190.72,-138.2C175.97,-152.95 185.19,-194 157,-194"/>
<polygon fill="black" stroke="black" points="197.02,-135.82 205.77,-136.37 200.76,-134.41 204.5,-133 204.5,-133 204.5,-133 200.76,-134.41 203.23,-129.63 197.02,-135.82 197.02,-135.82"/>
<ellipse fill="none" stroke="black" cx="194.02" cy="-136.95" rx="3.2" ry="3.2"/>
</g>
<!-- overflow_char&#45;&gt;organisation -->
<g id="edge5" class="edge">
<title>overflow_char:w&#45;&gt;organisation:e</title>
<path fill="none" stroke="black" d="M190.6,-115.7C171.17,-133.26 193.36,-194 157,-194"/>
<polygon fill="black" stroke="black" points="196.92,-113.56 205.65,-114.41 200.71,-112.28 204.5,-111 204.5,-111 204.5,-111 200.71,-112.28 203.35,-107.59 196.92,-113.56 196.92,-113.56"/>
<ellipse fill="none" stroke="black" cx="193.89" cy="-114.59" rx="3.2" ry="3.2"/>
</g>
</g>
</svg>
