<?xml version="1.0" encoding="UTF-8" standalone="no"?>
<!DOCTYPE svg PUBLIC "-//W3C//DTD SVG 1.1//EN"
 "http://www.w3.org/Graphics/SVG/1.1/DTD/svg11.dtd">
<!-- Generated by graphviz version 2.47.1 (20210515.0534)
 -->
<!-- Title: oneDegreeRelationshipsDiagram Pages: 1 -->
<svg width="1152pt" height="1187pt"
 viewBox="0.00 0.00 1152.00 1187.00" xmlns="http://www.w3.org/2000/svg" xmlns:xlink="http://www.w3.org/1999/xlink">
<g id="graph0" class="graph" transform="scale(1 1) rotate(0) translate(4 1183)">
<title>oneDegreeRelationshipsDiagram</title>
<polygon fill="#ffffff" stroke="transparent" points="-4,4 -4,-1183 1148,-1183 1148,4 -4,4"/>
<text text-anchor="middle" x="73.5" y="-7.2" font-family="Helvetica,sans-Serif" font-size="11.00">Generated by SchemaSpy</text>
<!-- bio_ecol_assessment -->
<g id="node1" class="node">
<title>bio_ecol_assessment</title>
<g id="a_node1"><a xlink:href="../../tables/bio_ecol_assessment.html" xlink:title="bio_ecol_assessment" target="_top">
<polygon fill="#ffffff" stroke="transparent" points="806,-897 806,-1175 1136,-1175 1136,-897 806,-897"/>
<polygon fill="#f5f5f5" stroke="transparent" points="806,-1153 806,-1175 1136,-1175 1136,-1153 806,-1153"/>
<polygon fill="none" stroke="black" points="806,-1153 806,-1175 1136,-1175 1136,-1153 806,-1153"/>
<text text-anchor="start" x="811" y="-1162.2" font-family="Helvetica,sans-Serif" font-weight="bold" font-size="11.00">bio_ecol_assessment</text>
<text text-anchor="start" x="1097" y="-1161.2" font-family="Helvetica,sans-Serif" font-size="11.00">[table]</text>
<polygon fill="none" stroke="black" points="806,-1131 806,-1153 1136,-1153 1136,-1131 806,-1131"/>
<image xlink:href="../../images/primaryKeys.png" width="11px" height="12px" preserveAspectRatio="xMinYMin meet" x="811" y="-1148"/>
<text text-anchor="start" x="826" y="-1139.2" font-family="Helvetica,sans-Serif" font-size="11.00">obj_id</text>
<polygon fill="none" stroke="black" points="806,-1109 806,-1131 1136,-1131 1136,-1109 806,-1109"/>
<image xlink:href="../../images/foreignKeys.png" width="11px" height="12px" preserveAspectRatio="xMinYMin meet" x="811" y="-1126"/>
<text text-anchor="start" x="826" y="-1117.2" font-family="Helvetica,sans-Serif" font-size="11.00">comparison_last</text>
<polygon fill="none" stroke="black" points="806,-1087 806,-1109 1136,-1109 1136,-1087 806,-1087"/>
<image xlink:href="../../images/foreignKeys.png" width="11px" height="12px" preserveAspectRatio="xMinYMin meet" x="811" y="-1104"/>
<text text-anchor="start" x="826" y="-1095.2" font-family="Helvetica,sans-Serif" font-size="11.00">impact_auxiliary_indic</text>
<polygon fill="none" stroke="black" points="806,-1065 806,-1087 1136,-1087 1136,-1065 806,-1065"/>
<image xlink:href="../../images/foreignKeys.png" width="11px" height="12px" preserveAspectRatio="xMinYMin meet" x="811" y="-1082"/>
<text text-anchor="start" x="826" y="-1073.2" font-family="Helvetica,sans-Serif" font-size="11.00">impact_external_aspect</text>
<polygon fill="none" stroke="black" points="806,-1043 806,-1065 1136,-1065 1136,-1043 806,-1043"/>
<image xlink:href="../../images/foreignKeys.png" width="11px" height="12px" preserveAspectRatio="xMinYMin meet" x="811" y="-1060"/>
<text text-anchor="start" x="826" y="-1051.2" font-family="Helvetica,sans-Serif" font-size="11.00">impact_macroinvertebrates</text>
<polygon fill="none" stroke="black" points="806,-1021 806,-1043 1136,-1043 1136,-1021 806,-1021"/>
<image xlink:href="../../images/foreignKeys.png" width="11px" height="12px" preserveAspectRatio="xMinYMin meet" x="811" y="-1038"/>
<text text-anchor="start" x="826" y="-1029.2" font-family="Helvetica,sans-Serif" font-size="11.00">impact_water_plants</text>
<polygon fill="none" stroke="black" points="806,-999 806,-1021 1136,-1021 1136,-999 806,-999"/>
<image xlink:href="../../images/foreignKeys.png" width="11px" height="12px" preserveAspectRatio="xMinYMin meet" x="811" y="-1016"/>
<text text-anchor="start" x="826" y="-1007.2" font-family="Helvetica,sans-Serif" font-size="11.00">intervention_demand</text>
<polygon fill="none" stroke="black" points="806,-977 806,-999 1136,-999 1136,-977 806,-977"/>
<image xlink:href="../../images/foreignKeys.png" width="11px" height="12px" preserveAspectRatio="xMinYMin meet" x="811" y="-994"/>
<text text-anchor="start" x="826" y="-985.2" font-family="Helvetica,sans-Serif" font-size="11.00">io_calculation</text>
<polygon fill="none" stroke="black" points="806,-955 806,-977 1136,-977 1136,-955 806,-955"/>
<image xlink:href="../../images/foreignKeys.png" width="11px" height="12px" preserveAspectRatio="xMinYMin meet" x="811" y="-972"/>
<text text-anchor="start" x="826" y="-963.2" font-family="Helvetica,sans-Serif" font-size="11.00">relevance_matrix</text>
<polygon fill="none" stroke="black" points="806,-933 806,-955 1136,-955 1136,-933 806,-933"/>
<image xlink:href="../../images/foreignKeys.png" width="11px" height="12px" preserveAspectRatio="xMinYMin meet" x="811" y="-950"/>
<text text-anchor="start" x="826" y="-941.2" font-family="Helvetica,sans-Serif" font-size="11.00">type_water_body</text>
<polygon fill="none" stroke="black" points="806,-915 806,-933 1136,-933 1136,-915 806,-915"/>
<text text-anchor="start" x="809" y="-921.2" font-family="Helvetica,sans-Serif" font-size="11.00">...</text>
<polygon fill="#ffffff" stroke="transparent" points="806,-897 806,-915 972,-915 972,-897 806,-897"/>
<polygon fill="none" stroke="black" points="806,-897 806,-915 972,-915 972,-897 806,-897"/>
<text text-anchor="start" x="809" y="-903.2" font-family="Helvetica,sans-Serif" font-size="11.00">&lt; 10</text>
<polygon fill="#ffffff" stroke="transparent" points="972,-897 972,-915 1054,-915 1054,-897 972,-897"/>
<polygon fill="none" stroke="black" points="972,-897 972,-915 1054,-915 1054,-897 972,-897"/>
<text text-anchor="start" x="1044" y="-903.2" font-family="Helvetica,sans-Serif" font-size="11.00"> &#160;</text>
<polygon fill="#ffffff" stroke="transparent" points="1054,-897 1054,-915 1136,-915 1136,-897 1054,-897"/>
<polygon fill="none" stroke="black" points="1054,-897 1054,-915 1136,-915 1136,-897 1054,-897"/>
<text text-anchor="start" x="1126" y="-903.2" font-family="Helvetica,sans-Serif" font-size="11.00"> &#160;</text>
</a>
</g>
</g>
<!-- maintenance_event -->
<g id="node2" class="node">
<title>maintenance_event</title>
<g id="a_node2"><a xlink:href="../../tables/maintenance_event.html" xlink:title="maintenance_event" target="_top">
<polygon fill="#ffffff" stroke="transparent" points="503,-376 503,-794 757,-794 757,-376 503,-376"/>
<polygon fill="#f5f5f5" stroke="transparent" points="505,-770 505,-792 755,-792 755,-770 505,-770"/>
<polygon fill="none" stroke="black" points="505,-770 505,-792 755,-792 755,-770 505,-770"/>
<text text-anchor="start" x="510" y="-779.2" font-family="Helvetica,sans-Serif" font-weight="bold" font-size="11.00">maintenance_event</text>
<text text-anchor="start" x="716" y="-778.2" font-family="Helvetica,sans-Serif" font-size="11.00">[table]</text>
<polygon fill="none" stroke="black" points="505,-748 505,-770 661,-770 661,-748 505,-748"/>
<image xlink:href="../../images/primaryKeys.png" width="11px" height="12px" preserveAspectRatio="xMinYMin meet" x="510" y="-765"/>
<text text-anchor="start" x="525" y="-756.2" font-family="Helvetica,sans-Serif" font-size="11.00">obj_id</text>
<polygon fill="none" stroke="black" points="661,-748 661,-770 755,-770 755,-748 661,-748"/>
<text text-anchor="start" x="664" y="-756.2" font-family="Helvetica,sans-Serif" font-size="11.00">varchar[16]</text>
<polygon fill="none" stroke="black" points="505,-726 505,-748 661,-748 661,-726 505,-726"/>
<text text-anchor="start" x="525" y="-734.2" font-family="Helvetica,sans-Serif" font-size="11.00">base_data</text>
<polygon fill="none" stroke="black" points="661,-726 661,-748 755,-748 755,-726 661,-726"/>
<text text-anchor="start" x="664" y="-734.2" font-family="Helvetica,sans-Serif" font-size="11.00">text[2147483647]</text>
<polygon fill="none" stroke="black" points="505,-704 505,-726 661,-726 661,-704 505,-704"/>
<text text-anchor="start" x="525" y="-712.2" font-family="Helvetica,sans-Serif" font-size="11.00">cost</text>
<polygon fill="none" stroke="black" points="661,-704 661,-726 755,-726 755,-704 661,-704"/>
<text text-anchor="start" x="664" y="-712.2" font-family="Helvetica,sans-Serif" font-size="11.00">numeric[10,2]</text>
<polygon fill="none" stroke="black" points="505,-682 505,-704 661,-704 661,-682 505,-682"/>
<text text-anchor="start" x="525" y="-690.2" font-family="Helvetica,sans-Serif" font-size="11.00">data_details</text>
<polygon fill="none" stroke="black" points="661,-682 661,-704 755,-704 755,-682 661,-682"/>
<text text-anchor="start" x="664" y="-690.2" font-family="Helvetica,sans-Serif" font-size="11.00">text[2147483647]</text>
<polygon fill="none" stroke="black" points="505,-660 505,-682 661,-682 661,-660 505,-660"/>
<text text-anchor="start" x="525" y="-668.2" font-family="Helvetica,sans-Serif" font-size="11.00">duration</text>
<polygon fill="none" stroke="black" points="661,-660 661,-682 755,-682 755,-660 661,-660"/>
<text text-anchor="start" x="664" y="-668.2" font-family="Helvetica,sans-Serif" font-size="11.00">int2[5]</text>
<polygon fill="#ffffff" stroke="transparent" points="505,-638 505,-660 661,-660 661,-638 505,-638"/>
<polygon fill="none" stroke="black" points="505,-638 505,-660 661,-660 661,-638 505,-638"/>
<text text-anchor="start" x="525" y="-646.2" font-family="Helvetica,sans-Serif" font-size="11.00">identifier</text>
<polygon fill="none" stroke="black" points="661,-638 661,-660 755,-660 755,-638 661,-638"/>
<text text-anchor="start" x="664" y="-646.2" font-family="Helvetica,sans-Serif" font-size="11.00">text[2147483647]</text>
<polygon fill="none" stroke="black" points="505,-616 505,-638 661,-638 661,-616 505,-616"/>
<text text-anchor="start" x="525" y="-624.2" font-family="Helvetica,sans-Serif" font-size="11.00">operator</text>
<polygon fill="none" stroke="black" points="661,-616 661,-638 755,-638 755,-616 661,-616"/>
<text text-anchor="start" x="664" y="-624.2" font-family="Helvetica,sans-Serif" font-size="11.00">text[2147483647]</text>
<polygon fill="none" stroke="black" points="505,-594 505,-616 661,-616 661,-594 505,-594"/>
<text text-anchor="start" x="525" y="-602.2" font-family="Helvetica,sans-Serif" font-size="11.00">reason</text>
<polygon fill="none" stroke="black" points="661,-594 661,-616 755,-616 755,-594 661,-594"/>
<text text-anchor="start" x="664" y="-602.2" font-family="Helvetica,sans-Serif" font-size="11.00">text[2147483647]</text>
<polygon fill="none" stroke="black" points="505,-572 505,-594 661,-594 661,-572 505,-572"/>
<text text-anchor="start" x="525" y="-580.2" font-family="Helvetica,sans-Serif" font-size="11.00">remark</text>
<polygon fill="none" stroke="black" points="661,-572 661,-594 755,-594 755,-572 661,-572"/>
<text text-anchor="start" x="664" y="-580.2" font-family="Helvetica,sans-Serif" font-size="11.00">text[2147483647]</text>
<polygon fill="none" stroke="black" points="505,-550 505,-572 661,-572 661,-550 505,-550"/>
<text text-anchor="start" x="525" y="-558.2" font-family="Helvetica,sans-Serif" font-size="11.00">result</text>
<polygon fill="none" stroke="black" points="661,-550 661,-572 755,-572 755,-550 661,-550"/>
<text text-anchor="start" x="664" y="-558.2" font-family="Helvetica,sans-Serif" font-size="11.00">text[2147483647]</text>
<polygon fill="none" stroke="black" points="505,-528 505,-550 661,-550 661,-528 505,-528"/>
<image xlink:href="../../images/foreignKeys.png" width="11px" height="12px" preserveAspectRatio="xMinYMin meet" x="510" y="-545"/>
<text text-anchor="start" x="525" y="-536.2" font-family="Helvetica,sans-Serif" font-size="11.00">status</text>
<polygon fill="none" stroke="black" points="661,-528 661,-550 755,-550 755,-528 661,-528"/>
<text text-anchor="start" x="664" y="-536.2" font-family="Helvetica,sans-Serif" font-size="11.00">int4[10]</text>
<polygon fill="none" stroke="black" points="505,-506 505,-528 661,-528 661,-506 505,-506"/>
<text text-anchor="start" x="525" y="-514.2" font-family="Helvetica,sans-Serif" font-size="11.00">time_point</text>
<polygon fill="none" stroke="black" points="661,-506 661,-528 755,-528 755,-506 661,-506"/>
<text text-anchor="start" x="664" y="-514.2" font-family="Helvetica,sans-Serif" font-size="11.00">timestamp[29,6]</text>
<polygon fill="none" stroke="black" points="505,-484 505,-506 661,-506 661,-484 505,-484"/>
<text text-anchor="start" x="525" y="-492.2" font-family="Helvetica,sans-Serif" font-size="11.00">last_modification</text>
<polygon fill="none" stroke="black" points="661,-484 661,-506 755,-506 755,-484 661,-484"/>
<text text-anchor="start" x="664" y="-492.2" font-family="Helvetica,sans-Serif" font-size="11.00">timestamp[29,6]</text>
<polygon fill="#ffffff" stroke="transparent" points="505,-462 505,-484 661,-484 661,-462 505,-462"/>
<polygon fill="none" stroke="black" points="505,-462 505,-484 661,-484 661,-462 505,-462"/>
<image xlink:href="../../images/foreignKeys.png" width="11px" height="12px" preserveAspectRatio="xMinYMin meet" x="510" y="-479"/>
<text text-anchor="start" x="525" y="-470.2" font-family="Helvetica,sans-Serif" font-size="11.00">fk_dataowner</text>
<polygon fill="none" stroke="black" points="661,-462 661,-484 755,-484 755,-462 661,-462"/>
<text text-anchor="start" x="664" y="-470.2" font-family="Helvetica,sans-Serif" font-size="11.00">varchar[16]</text>
<polygon fill="none" stroke="black" points="505,-440 505,-462 661,-462 661,-440 505,-440"/>
<image xlink:href="../../images/foreignKeys.png" width="11px" height="12px" preserveAspectRatio="xMinYMin meet" x="510" y="-457"/>
<text text-anchor="start" x="525" y="-448.2" font-family="Helvetica,sans-Serif" font-size="11.00">fk_provider</text>
<polygon fill="none" stroke="black" points="661,-440 661,-462 755,-462 755,-440 661,-440"/>
<text text-anchor="start" x="664" y="-448.2" font-family="Helvetica,sans-Serif" font-size="11.00">varchar[16]</text>
<polygon fill="none" stroke="black" points="505,-418 505,-440 661,-440 661,-418 505,-418"/>
<image xlink:href="../../images/foreignKeys.png" width="11px" height="12px" preserveAspectRatio="xMinYMin meet" x="510" y="-435"/>
<text text-anchor="start" x="525" y="-426.2" font-family="Helvetica,sans-Serif" font-size="11.00">fk_operating_company</text>
<polygon fill="none" stroke="black" points="661,-418 661,-440 755,-440 755,-418 661,-418"/>
<text text-anchor="start" x="664" y="-426.2" font-family="Helvetica,sans-Serif" font-size="11.00">varchar[16]</text>
<polygon fill="none" stroke="black" points="505,-396 505,-418 661,-418 661,-396 505,-396"/>
<image xlink:href="../../images/foreignKeys.png" width="11px" height="12px" preserveAspectRatio="xMinYMin meet" x="510" y="-413"/>
<text text-anchor="start" x="525" y="-404.2" font-family="Helvetica,sans-Serif" font-size="11.00">fk_measure</text>
<polygon fill="none" stroke="black" points="661,-396 661,-418 755,-418 755,-396 661,-396"/>
<text text-anchor="start" x="664" y="-404.2" font-family="Helvetica,sans-Serif" font-size="11.00">varchar[16]</text>
<polygon fill="#ffffff" stroke="transparent" points="505,-378 505,-396 587,-396 587,-378 505,-378"/>
<polygon fill="none" stroke="black" points="505,-378 505,-396 587,-396 587,-378 505,-378"/>
<text text-anchor="start" x="508" y="-384.2" font-family="Helvetica,sans-Serif" font-size="11.00">&lt; 5</text>
<polygon fill="#ffffff" stroke="transparent" points="587,-378 587,-396 661,-396 661,-378 587,-378"/>
<polygon fill="none" stroke="black" points="587,-378 587,-396 661,-396 661,-378 587,-378"/>
<text text-anchor="start" x="651" y="-384.2" font-family="Helvetica,sans-Serif" font-size="11.00"> &#160;</text>
<polygon fill="#ffffff" stroke="transparent" points="661,-378 661,-396 755,-396 755,-378 661,-378"/>
<polygon fill="none" stroke="black" points="661,-378 661,-396 755,-396 755,-378 661,-378"/>
<text text-anchor="start" x="736" y="-384.2" font-family="Helvetica,sans-Serif" font-size="11.00">4 &gt;</text>
<polygon fill="none" stroke="black" stroke-width="2" points="504,-377 504,-793 756,-793 756,-377 504,-377"/>
</a>
</g>
</g>
<!-- bio_ecol_assessment&#45;&gt;maintenance_event -->
<g id="edge1" class="edge">
<title>bio_ecol_assessment:w&#45;&gt;maintenance_event:e</title>
<path fill="none" stroke="black" d="M794.66,-1139.75C729.79,-1108.36 837.95,-759 756,-759"/>
<polygon fill="black" stroke="black" points="805.07,-1137.92 803.37,-1145.74 801.8,-1145.4 803.51,-1137.58 805.07,-1137.92"/>
<polyline fill="none" stroke="black" points="805,-1142 801.09,-1141.15 "/>
<ellipse fill="none" stroke="black" cx="797.96" cy="-1140.47" rx="3.2" ry="3.2"/>
</g>
<!-- organisation -->
<g id="node5" class="node">
<title>organisation</title>
<g id="a_node5"><a xlink:href="../../tables/organisation.html" xlink:title="organisation" target="_top">
<polygon fill="#ffffff" stroke="transparent" points="8,-37 8,-227 156,-227 156,-37 8,-37"/>
<polygon fill="#f5f5f5" stroke="transparent" points="8,-205 8,-227 156,-227 156,-205 8,-205"/>
<polygon fill="none" stroke="black" points="8,-205 8,-227 156,-227 156,-205 8,-205"/>
<text text-anchor="start" x="13" y="-214.2" font-family="Helvetica,sans-Serif" font-weight="bold" font-size="11.00">organisation</text>
<text text-anchor="start" x="117" y="-213.2" font-family="Helvetica,sans-Serif" font-size="11.00">[table]</text>
<polygon fill="none" stroke="black" points="8,-183 8,-205 156,-205 156,-183 8,-183"/>
<image xlink:href="../../images/primaryKeys.png" width="11px" height="12px" preserveAspectRatio="xMinYMin meet" x="13" y="-200"/>
<text text-anchor="start" x="28" y="-191.2" font-family="Helvetica,sans-Serif" font-size="11.00">obj_id</text>
<polygon fill="#ffffff" stroke="transparent" points="8,-161 8,-183 156,-183 156,-161 8,-161"/>
<polygon fill="none" stroke="black" points="8,-161 8,-183 156,-183 156,-161 8,-161"/>
<text text-anchor="start" x="28" y="-169.2" font-family="Helvetica,sans-Serif" font-size="11.00">identifier</text>
<polygon fill="none" stroke="black" points="8,-139 8,-161 156,-161 156,-139 8,-139"/>
<image xlink:href="../../images/foreignKeys.png" width="11px" height="12px" preserveAspectRatio="xMinYMin meet" x="13" y="-156"/>
<text text-anchor="start" x="28" y="-147.2" font-family="Helvetica,sans-Serif" font-size="11.00">organisation_type</text>
<polygon fill="none" stroke="black" points="8,-117 8,-139 156,-139 156,-117 8,-117"/>
<image xlink:href="../../images/foreignKeys.png" width="11px" height="12px" preserveAspectRatio="xMinYMin meet" x="13" y="-134"/>
<text text-anchor="start" x="28" y="-125.2" font-family="Helvetica,sans-Serif" font-size="11.00">status</text>
<polygon fill="#ffffff" stroke="transparent" points="8,-95 8,-117 156,-117 156,-95 8,-95"/>
<polygon fill="none" stroke="black" points="8,-95 8,-117 156,-117 156,-95 8,-95"/>
<image xlink:href="../../images/foreignKeys.png" width="11px" height="12px" preserveAspectRatio="xMinYMin meet" x="13" y="-112"/>
<text text-anchor="start" x="28" y="-103.2" font-family="Helvetica,sans-Serif" font-size="11.00">fk_dataowner</text>
<polygon fill="none" stroke="black" points="8,-73 8,-95 156,-95 156,-73 8,-73"/>
<image xlink:href="../../images/foreignKeys.png" width="11px" height="12px" preserveAspectRatio="xMinYMin meet" x="13" y="-90"/>
<text text-anchor="start" x="28" y="-81.2" font-family="Helvetica,sans-Serif" font-size="11.00">fk_provider</text>
<polygon fill="none" stroke="black" points="8,-55 8,-73 156,-73 156,-55 8,-55"/>
<text text-anchor="start" x="11" y="-61.2" font-family="Helvetica,sans-Serif" font-size="11.00">...</text>
<polygon fill="#ffffff" stroke="transparent" points="8,-37 8,-55 72,-55 72,-37 8,-37"/>
<polygon fill="none" stroke="black" points="8,-37 8,-55 72,-55 72,-37 8,-37"/>
<text text-anchor="start" x="11" y="-43.2" font-family="Helvetica,sans-Serif" font-size="11.00">&lt; 4</text>
<polygon fill="#ffffff" stroke="transparent" points="72,-37 72,-55 106,-55 106,-37 72,-37"/>
<polygon fill="none" stroke="black" points="72,-37 72,-55 106,-55 106,-37 72,-37"/>
<text text-anchor="start" x="96" y="-43.2" font-family="Helvetica,sans-Serif" font-size="11.00"> &#160;</text>
<polygon fill="#ffffff" stroke="transparent" points="106,-37 106,-55 156,-55 156,-37 106,-37"/>
<polygon fill="none" stroke="black" points="106,-37 106,-55 156,-55 156,-37 106,-37"/>
<text text-anchor="start" x="131" y="-43.2" font-family="Helvetica,sans-Serif" font-size="11.00">92 &gt;</text>
</a>
</g>
</g>
<!-- maintenance_event&#45;&gt;organisation -->
<g id="edge4" class="edge">
<title>maintenance_event:w&#45;&gt;organisation:e</title>
<path fill="none" stroke="black" d="M489.38,-473.42C412.12,-477.34 244.73,-506.42 197,-464 151.66,-423.71 217.65,-194 157,-194"/>
<polygon fill="black" stroke="black" points="496,-473.23 504.1,-476.6 500,-473.12 504,-473 504,-473 504,-473 500,-473.12 503.9,-469.4 496,-473.23 496,-473.23"/>
<ellipse fill="none" stroke="black" cx="492.8" cy="-473.32" rx="3.2" ry="3.2"/>
</g>
<!-- maintenance_event&#45;&gt;organisation -->
<g id="edge6" class="edge">
<title>maintenance_event:w&#45;&gt;organisation:e</title>
<path fill="none" stroke="black" d="M489.38,-429.34C412.1,-432.44 245,-455.2 197,-413 122.69,-347.68 255.94,-194 157,-194"/>
<polygon fill="black" stroke="black" points="496,-429.18 504.08,-432.6 500,-429.09 504,-429 504,-429 504,-429 500,-429.09 503.92,-425.4 496,-429.18 496,-429.18"/>
<ellipse fill="none" stroke="black" cx="492.8" cy="-429.26" rx="3.2" ry="3.2"/>
</g>
<!-- maintenance_event&#45;&gt;organisation -->
<g id="edge7" class="edge">
<title>maintenance_event:w&#45;&gt;organisation:e</title>
<path fill="none" stroke="black" d="M489.37,-451.35C412.07,-454.61 244.71,-478.51 197,-436 156.31,-399.74 211.51,-194 157,-194"/>
<polygon fill="black" stroke="black" points="496,-451.19 504.09,-454.6 500,-451.1 504,-451 504,-451 504,-451 500,-451.1 503.91,-447.4 496,-451.19 496,-451.19"/>
<ellipse fill="none" stroke="black" cx="492.8" cy="-451.27" rx="3.2" ry="3.2"/>
</g>
<!-- measure -->
<g id="node6" class="node">
<title>measure</title>
<g id="a_node6"><a xlink:href="../../tables/measure.html" xlink:title="measure" target="_top">
<polygon fill="#ffffff" stroke="transparent" points="226,-81 226,-403 433,-403 433,-81 226,-81"/>
<polygon fill="#f5f5f5" stroke="transparent" points="226.5,-381 226.5,-403 433.5,-403 433.5,-381 226.5,-381"/>
<polygon fill="none" stroke="black" points="226.5,-381 226.5,-403 433.5,-403 433.5,-381 226.5,-381"/>
<text text-anchor="start" x="231" y="-390.2" font-family="Helvetica,sans-Serif" font-weight="bold" font-size="11.00">measure</text>
<text text-anchor="start" x="394.5" y="-389.2" font-family="Helvetica,sans-Serif" font-size="11.00">[table]</text>
<polygon fill="none" stroke="black" points="226.5,-359 226.5,-381 433.5,-381 433.5,-359 226.5,-359"/>
<image xlink:href="../../images/primaryKeys.png" width="11px" height="12px" preserveAspectRatio="xMinYMin meet" x="231.5" y="-376"/>
<text text-anchor="start" x="246.5" y="-367.2" font-family="Helvetica,sans-Serif" font-size="11.00">obj_id</text>
<polygon fill="none" stroke="black" points="226.5,-337 226.5,-359 433.5,-359 433.5,-337 226.5,-337"/>
<image xlink:href="../../images/foreignKeys.png" width="11px" height="12px" preserveAspectRatio="xMinYMin meet" x="231.5" y="-354"/>
<text text-anchor="start" x="246.5" y="-345.2" font-family="Helvetica,sans-Serif" font-size="11.00">category</text>
<polygon fill="#ffffff" stroke="transparent" points="226.5,-315 226.5,-337 433.5,-337 433.5,-315 226.5,-315"/>
<polygon fill="none" stroke="black" points="226.5,-315 226.5,-337 433.5,-337 433.5,-315 226.5,-315"/>
<text text-anchor="start" x="246.5" y="-323.2" font-family="Helvetica,sans-Serif" font-size="11.00">identifier</text>
<polygon fill="#ffffff" stroke="transparent" points="226.5,-293 226.5,-315 433.5,-315 433.5,-293 226.5,-293"/>
<polygon fill="none" stroke="black" points="226.5,-293 226.5,-315 433.5,-315 433.5,-293 226.5,-293"/>
<text text-anchor="start" x="246.5" y="-301.2" font-family="Helvetica,sans-Serif" font-size="11.00">line_geometry</text>
<polygon fill="#ffffff" stroke="transparent" points="226.5,-271 226.5,-293 433.5,-293 433.5,-271 226.5,-271"/>
<polygon fill="none" stroke="black" points="226.5,-271 226.5,-293 433.5,-293 433.5,-271 226.5,-271"/>
<text text-anchor="start" x="246.5" y="-279.2" font-family="Helvetica,sans-Serif" font-size="11.00">perimeter_geometry</text>
<polygon fill="none" stroke="black" points="226.5,-249 226.5,-271 433.5,-271 433.5,-249 226.5,-249"/>
<image xlink:href="../../images/foreignKeys.png" width="11px" height="12px" preserveAspectRatio="xMinYMin meet" x="231.5" y="-266"/>
<text text-anchor="start" x="246.5" y="-257.2" font-family="Helvetica,sans-Serif" font-size="11.00">priority</text>
<polygon fill="none" stroke="black" points="226.5,-227 226.5,-249 433.5,-249 433.5,-227 226.5,-227"/>
<image xlink:href="../../images/foreignKeys.png" width="11px" height="12px" preserveAspectRatio="xMinYMin meet" x="231.5" y="-244"/>
<text text-anchor="start" x="246.5" y="-235.2" font-family="Helvetica,sans-Serif" font-size="11.00">status</text>
<polygon fill="#ffffff" stroke="transparent" points="226.5,-205 226.5,-227 433.5,-227 433.5,-205 226.5,-205"/>
<polygon fill="none" stroke="black" points="226.5,-205 226.5,-227 433.5,-227 433.5,-205 226.5,-205"/>
<text text-anchor="start" x="246.5" y="-213.2" font-family="Helvetica,sans-Serif" font-size="11.00">symbolpos_geometry</text>
<polygon fill="#ffffff" stroke="transparent" points="226.5,-183 226.5,-205 433.5,-205 433.5,-183 226.5,-183"/>
<polygon fill="none" stroke="black" points="226.5,-183 226.5,-205 433.5,-205 433.5,-183 226.5,-183"/>
<image xlink:href="../../images/foreignKeys.png" width="11px" height="12px" preserveAspectRatio="xMinYMin meet" x="231.5" y="-200"/>
<text text-anchor="start" x="246.5" y="-191.2" font-family="Helvetica,sans-Serif" font-size="11.00">fk_dataowner</text>
<polygon fill="none" stroke="black" points="226.5,-161 226.5,-183 433.5,-183 433.5,-161 226.5,-161"/>
<image xlink:href="../../images/foreignKeys.png" width="11px" height="12px" preserveAspectRatio="xMinYMin meet" x="231.5" y="-178"/>
<text text-anchor="start" x="246.5" y="-169.2" font-family="Helvetica,sans-Serif" font-size="11.00">fk_provider</text>
<polygon fill="none" stroke="black" points="226.5,-139 226.5,-161 433.5,-161 433.5,-139 226.5,-139"/>
<image xlink:href="../../images/foreignKeys.png" width="11px" height="12px" preserveAspectRatio="xMinYMin meet" x="231.5" y="-156"/>
<text text-anchor="start" x="246.5" y="-147.2" font-family="Helvetica,sans-Serif" font-size="11.00">fk_responsible_entity</text>
<polygon fill="none" stroke="black" points="226.5,-117 226.5,-139 433.5,-139 433.5,-117 226.5,-117"/>
<image xlink:href="../../images/foreignKeys.png" width="11px" height="12px" preserveAspectRatio="xMinYMin meet" x="231.5" y="-134"/>
<text text-anchor="start" x="246.5" y="-125.2" font-family="Helvetica,sans-Serif" font-size="11.00">fk_responsible_start</text>
<polygon fill="none" stroke="black" points="226.5,-99 226.5,-117 433.5,-117 433.5,-99 226.5,-99"/>
<text text-anchor="start" x="229.5" y="-105.2" font-family="Helvetica,sans-Serif" font-size="11.00">...</text>
<polygon fill="#ffffff" stroke="transparent" points="226.5,-81 226.5,-99 323.5,-99 323.5,-81 226.5,-81"/>
<polygon fill="none" stroke="black" points="226.5,-81 226.5,-99 323.5,-99 323.5,-81 226.5,-81"/>
<text text-anchor="start" x="229.5" y="-87.2" font-family="Helvetica,sans-Serif" font-size="11.00">&lt; 7</text>
<polygon fill="#ffffff" stroke="transparent" points="323.5,-81 323.5,-99 373.5,-99 373.5,-81 323.5,-81"/>
<polygon fill="none" stroke="black" points="323.5,-81 323.5,-99 373.5,-99 373.5,-81 323.5,-81"/>
<text text-anchor="start" x="363.5" y="-87.2" font-family="Helvetica,sans-Serif" font-size="11.00"> &#160;</text>
<polygon fill="#ffffff" stroke="transparent" points="373.5,-81 373.5,-99 433.5,-99 433.5,-81 373.5,-81"/>
<polygon fill="none" stroke="black" points="373.5,-81 373.5,-99 433.5,-99 433.5,-81 373.5,-81"/>
<text text-anchor="start" x="414.5" y="-87.2" font-family="Helvetica,sans-Serif" font-size="11.00">2 &gt;</text>
</a>
</g>
</g>
<!-- maintenance_event&#45;&gt;measure -->
<g id="edge5" class="edge">
<title>maintenance_event:w&#45;&gt;measure:e</title>
<path fill="none" stroke="black" d="M489.63,-404.46C468.25,-396.1 463.89,-370 434.5,-370"/>
<polygon fill="black" stroke="black" points="496.12,-405.61 503.37,-410.54 500.06,-406.3 504,-407 504,-407 504,-407 500.06,-406.3 504.63,-403.46 496.12,-405.61 496.12,-405.61"/>
<ellipse fill="none" stroke="black" cx="492.97" cy="-405.05" rx="3.2" ry="3.2"/>
</g>
<!-- tww_vl.maintenance_event_status -->
<g id="node7" class="node">
<title>tww_vl.maintenance_event_status</title>
<g id="a_node7"><a xlink:href="../../../tww_vl/tables/maintenance_event_status.html" xlink:title="tww_vl.maintenance_event_status" target="_top">
<polygon fill="#ffffff" stroke="transparent" points="205,-510 205,-568 454,-568 454,-510 205,-510"/>
<polygon fill="#f5f5f5" stroke="transparent" points="205.5,-546 205.5,-568 454.5,-568 454.5,-546 205.5,-546"/>
<polygon fill="none" stroke="black" points="205.5,-546 205.5,-568 454.5,-568 454.5,-546 205.5,-546"/>
<text text-anchor="start" x="210.5" y="-555.2" font-family="Helvetica,sans-Serif" font-weight="bold" font-size="11.00">tww_vl.maintenance_event_status</text>
<text text-anchor="start" x="415.5" y="-554.2" font-family="Helvetica,sans-Serif" font-size="11.00">[table]</text>
<polygon fill="none" stroke="black" points="205.5,-528 205.5,-546 454.5,-546 454.5,-528 205.5,-528"/>
<text text-anchor="start" x="208.5" y="-534.2" font-family="Helvetica,sans-Serif" font-size="11.00">...</text>
<polygon fill="#ffffff" stroke="transparent" points="205.5,-510 205.5,-528 305.5,-528 305.5,-510 205.5,-510"/>
<polygon fill="none" stroke="black" points="205.5,-510 205.5,-528 305.5,-528 305.5,-510 205.5,-510"/>
<text text-anchor="start" x="208.5" y="-516.2" font-family="Helvetica,sans-Serif" font-size="11.00"> &#160;</text>
<polygon fill="#ffffff" stroke="transparent" points="305.5,-510 305.5,-528 388.5,-528 388.5,-510 305.5,-510"/>
<polygon fill="none" stroke="black" points="305.5,-510 305.5,-528 388.5,-528 388.5,-510 305.5,-510"/>
<text text-anchor="start" x="351.5" y="-516.2" font-family="Helvetica,sans-Serif" font-size="11.00">0 rows</text>
<polygon fill="#ffffff" stroke="transparent" points="388.5,-510 388.5,-528 454.5,-528 454.5,-510 388.5,-510"/>
<polygon fill="none" stroke="black" points="388.5,-510 388.5,-528 454.5,-528 454.5,-510 388.5,-510"/>
<text text-anchor="start" x="435.5" y="-516.2" font-family="Helvetica,sans-Serif" font-size="11.00">1 &gt;</text>
</a>
</g>
</g>
<!-- maintenance_event&#45;&gt;tww_vl.maintenance_event_status -->
<g id="edge8" class="edge">
<title>maintenance_event:w&#45;&gt;tww_vl.maintenance_event_status:e</title>
<path fill="none" stroke="black" d="M489.51,-539C480.5,-539 471.33,-539 462.18,-539"/>
<polygon fill="black" stroke="black" points="496,-539 504,-542.6 500,-539 504,-539 504,-539 504,-539 500,-539 504,-535.4 496,-539 496,-539"/>
<ellipse fill="none" stroke="black" cx="492.8" cy="-539" rx="3.2" ry="3.2"/>
</g>
<!-- examination -->
<g id="node3" class="node">
<title>examination</title>
<g id="a_node3"><a xlink:href="../../tables/examination.html" xlink:title="examination" target="_top">
<polygon fill="#ffffff" stroke="transparent" points="897.5,-730 897.5,-876 1044.5,-876 1044.5,-730 897.5,-730"/>
<polygon fill="#f5f5f5" stroke="transparent" points="898,-854 898,-876 1045,-876 1045,-854 898,-854"/>
<polygon fill="none" stroke="black" points="898,-854 898,-876 1045,-876 1045,-854 898,-854"/>
<text text-anchor="start" x="903" y="-863.2" font-family="Helvetica,sans-Serif" font-weight="bold" font-size="11.00">examination</text>
<text text-anchor="start" x="1006" y="-862.2" font-family="Helvetica,sans-Serif" font-size="11.00">[table]</text>
<polygon fill="none" stroke="black" points="898,-832 898,-854 1045,-854 1045,-832 898,-832"/>
<image xlink:href="../../images/primaryKeys.png" width="11px" height="12px" preserveAspectRatio="xMinYMin meet" x="903" y="-849"/>
<text text-anchor="start" x="918" y="-840.2" font-family="Helvetica,sans-Serif" font-size="11.00">obj_id</text>
<polygon fill="none" stroke="black" points="898,-810 898,-832 1045,-832 1045,-810 898,-810"/>
<image xlink:href="../../images/foreignKeys.png" width="11px" height="12px" preserveAspectRatio="xMinYMin meet" x="903" y="-827"/>
<text text-anchor="start" x="918" y="-818.2" font-family="Helvetica,sans-Serif" font-size="11.00">recording_type</text>
<polygon fill="none" stroke="black" points="898,-788 898,-810 1045,-810 1045,-788 898,-788"/>
<image xlink:href="../../images/foreignKeys.png" width="11px" height="12px" preserveAspectRatio="xMinYMin meet" x="903" y="-805"/>
<text text-anchor="start" x="918" y="-796.2" font-family="Helvetica,sans-Serif" font-size="11.00">weather</text>
<polygon fill="none" stroke="black" points="898,-766 898,-788 1045,-788 1045,-766 898,-766"/>
<image xlink:href="../../images/foreignKeys.png" width="11px" height="12px" preserveAspectRatio="xMinYMin meet" x="903" y="-783"/>
<text text-anchor="start" x="918" y="-774.2" font-family="Helvetica,sans-Serif" font-size="11.00">fk_reach_point</text>
<polygon fill="none" stroke="black" points="898,-748 898,-766 1045,-766 1045,-748 898,-748"/>
<text text-anchor="start" x="901" y="-754.2" font-family="Helvetica,sans-Serif" font-size="11.00">...</text>
<polygon fill="#ffffff" stroke="transparent" points="898,-730 898,-748 965,-748 965,-730 898,-730"/>
<polygon fill="none" stroke="black" points="898,-730 898,-748 965,-748 965,-730 898,-730"/>
<text text-anchor="start" x="901" y="-736.2" font-family="Helvetica,sans-Serif" font-size="11.00">&lt; 4</text>
<polygon fill="#ffffff" stroke="transparent" points="965,-730 965,-748 1000,-748 1000,-730 965,-730"/>
<polygon fill="none" stroke="black" points="965,-730 965,-748 1000,-748 1000,-730 965,-730"/>
<text text-anchor="start" x="990" y="-736.2" font-family="Helvetica,sans-Serif" font-size="11.00"> &#160;</text>
<polygon fill="#ffffff" stroke="transparent" points="1000,-730 1000,-748 1045,-748 1045,-730 1000,-730"/>
<polygon fill="none" stroke="black" points="1000,-730 1000,-748 1045,-748 1045,-730 1000,-730"/>
<text text-anchor="start" x="1026" y="-736.2" font-family="Helvetica,sans-Serif" font-size="11.00">1 &gt;</text>
</a>
</g>
</g>
<!-- examination&#45;&gt;maintenance_event -->
<g id="edge2" class="edge">
<title>examination:w&#45;&gt;maintenance_event:e</title>
<path fill="none" stroke="black" d="M886.47,-842.37C824.35,-834.69 825.24,-759 756,-759"/>
<polygon fill="black" stroke="black" points="896.44,-838.96 895.96,-846.95 894.37,-846.85 894.84,-838.86 896.44,-838.96"/>
<polyline fill="none" stroke="black" points="897,-843 893.01,-842.76 "/>
<ellipse fill="none" stroke="black" cx="889.81" cy="-842.57" rx="3.2" ry="3.2"/>
</g>
<!-- maintenance -->
<g id="node4" class="node">
<title>maintenance</title>
<g id="a_node4"><a xlink:href="../../tables/maintenance.html" xlink:title="maintenance" target="_top">
<polygon fill="#ffffff" stroke="transparent" points="909.5,-625 909.5,-709 1032.5,-709 1032.5,-625 909.5,-625"/>
<polygon fill="#f5f5f5" stroke="transparent" points="910,-687 910,-709 1033,-709 1033,-687 910,-687"/>
<polygon fill="none" stroke="black" points="910,-687 910,-709 1033,-709 1033,-687 910,-687"/>
<text text-anchor="start" x="915" y="-696.2" font-family="Helvetica,sans-Serif" font-weight="bold" font-size="11.00">maintenance</text>
<text text-anchor="start" x="994" y="-695.2" font-family="Helvetica,sans-Serif" font-size="11.00">[table]</text>
<polygon fill="none" stroke="black" points="910,-665 910,-687 1033,-687 1033,-665 910,-665"/>
<image xlink:href="../../images/primaryKeys.png" width="11px" height="12px" preserveAspectRatio="xMinYMin meet" x="915" y="-682"/>
<text text-anchor="start" x="942" y="-673.2" font-family="Helvetica,sans-Serif" font-size="11.00">obj_id</text>
<polygon fill="none" stroke="black" points="910,-643 910,-665 1033,-665 1033,-643 910,-643"/>
<image xlink:href="../../images/foreignKeys.png" width="11px" height="12px" preserveAspectRatio="xMinYMin meet" x="915" y="-660"/>
<text text-anchor="start" x="942" y="-651.2" font-family="Helvetica,sans-Serif" font-size="11.00">kind</text>
<polygon fill="#ffffff" stroke="transparent" points="910,-625 910,-643 969,-643 969,-625 910,-625"/>
<polygon fill="none" stroke="black" points="910,-625 910,-643 969,-643 969,-625 910,-625"/>
<text text-anchor="start" x="913" y="-631.2" font-family="Helvetica,sans-Serif" font-size="11.00">&lt; 2</text>
<polygon fill="#ffffff" stroke="transparent" points="969,-625 969,-643 1001,-643 1001,-625 969,-625"/>
<polygon fill="none" stroke="black" points="969,-625 969,-643 1001,-643 1001,-625 969,-625"/>
<text text-anchor="start" x="991" y="-631.2" font-family="Helvetica,sans-Serif" font-size="11.00"> &#160;</text>
<polygon fill="#ffffff" stroke="transparent" points="1001,-625 1001,-643 1033,-643 1033,-625 1001,-625"/>
<polygon fill="none" stroke="black" points="1001,-625 1001,-643 1033,-643 1033,-625 1001,-625"/>
<text text-anchor="start" x="1023" y="-631.2" font-family="Helvetica,sans-Serif" font-size="11.00"> &#160;</text>
</a>
</g>
</g>
<!-- maintenance&#45;&gt;maintenance_event -->
<g id="edge3" class="edge">
<title>maintenance:w&#45;&gt;maintenance_event:e</title>
<path fill="none" stroke="black" d="M898.37,-676.23C853.94,-678.27 839.72,-693.67 798,-720 776.46,-733.59 781.47,-759 756,-759"/>
<polygon fill="black" stroke="black" points="908.11,-672.02 908.29,-680.02 906.69,-680.05 906.51,-672.05 908.11,-672.02"/>
<polyline fill="none" stroke="black" points="909,-676 905,-676.09 "/>
<ellipse fill="none" stroke="black" cx="901.8" cy="-676.16" rx="3.2" ry="3.2"/>
</g>
<!-- measure&#45;&gt;organisation -->
<g id="edge9" class="edge">
<title>measure:w&#45;&gt;organisation:e</title>
<path fill="none" stroke="black" d="M211.04,-194C191.58,-194 181.97,-194 157,-194"/>
<polygon fill="black" stroke="black" points="217.5,-194 225.5,-197.6 221.5,-194 225.5,-194 225.5,-194 225.5,-194 221.5,-194 225.5,-190.4 217.5,-194 217.5,-194"/>
<ellipse fill="none" stroke="black" cx="214.3" cy="-194" rx="3.2" ry="3.2"/>
</g>
<!-- measure&#45;&gt;organisation -->
<g id="edge10" class="edge">
<title>measure:w&#45;&gt;organisation:e</title>
<path fill="none" stroke="black" d="M211.16,-173.73C191.15,-178.91 183.48,-194 157,-194"/>
<polygon fill="black" stroke="black" points="217.56,-172.96 225.93,-175.57 221.53,-172.48 225.5,-172 225.5,-172 225.5,-172 221.53,-172.48 225.07,-168.43 217.56,-172.96 217.56,-172.96"/>
<ellipse fill="none" stroke="black" cx="214.38" cy="-173.34" rx="3.2" ry="3.2"/>
</g>
<!-- measure&#45;&gt;organisation -->
<g id="edge11" class="edge">
<title>measure:w&#45;&gt;organisation:e</title>
<path fill="none" stroke="black" d="M211.17,-152.89C189.55,-162.68 187.53,-194 157,-194"/>
<polygon fill="black" stroke="black" points="217.66,-151.58 226.21,-153.53 221.58,-150.79 225.5,-150 225.5,-150 225.5,-150 221.58,-150.79 224.79,-146.47 217.66,-151.58 217.66,-151.58"/>
<ellipse fill="none" stroke="black" cx="214.52" cy="-152.21" rx="3.2" ry="3.2"/>
</g>
<!-- measure&#45;&gt;organisation -->
<g id="edge12" class="edge">
<title>measure:w&#45;&gt;organisation:e</title>
<path fill="none" stroke="black" d="M211.13,-131.36C186.52,-144.81 193.5,-194 157,-194"/>
<polygon fill="black" stroke="black" points="217.71,-129.82 226.32,-131.51 221.61,-128.91 225.5,-128 225.5,-128 225.5,-128 221.61,-128.91 224.68,-124.49 217.71,-129.82 217.71,-129.82"/>
<ellipse fill="none" stroke="black" cx="214.59" cy="-130.55" rx="3.2" ry="3.2"/>
</g>
<!-- re_maintenance_event_wastewater_structure -->
<g id="node8" class="node">
<title>re_maintenance_event_wastewater_structure</title>
<g id="a_node8"><a xlink:href="../../tables/re_maintenance_event_wastewater_2bbd2eae.html" xlink:title="re_maintenance_event_wastewater_structure" target="_top">
<polygon fill="#ffffff" stroke="transparent" points="813,-498 813,-604 1129,-604 1129,-498 813,-498"/>
<polygon fill="#f5f5f5" stroke="transparent" points="813,-582 813,-604 1129,-604 1129,-582 813,-582"/>
<polygon fill="none" stroke="black" points="813,-582 813,-604 1129,-604 1129,-582 813,-582"/>
<text text-anchor="start" x="818" y="-591.2" font-family="Helvetica,sans-Serif" font-weight="bold" font-size="11.00">re_maintenance_event_wastewater_structure</text>
<text text-anchor="start" x="1090" y="-590.2" font-family="Helvetica,sans-Serif" font-size="11.00">[table]</text>
<polygon fill="none" stroke="black" points="813,-560 813,-582 1129,-582 1129,-560 813,-560"/>
<image xlink:href="../../images/primaryKeys.png" width="11px" height="12px" preserveAspectRatio="xMinYMin meet" x="818" y="-577"/>
<text text-anchor="start" x="845" y="-568.2" font-family="Helvetica,sans-Serif" font-size="11.00">id</text>
<polygon fill="none" stroke="black" points="813,-538 813,-560 1129,-560 1129,-538 813,-538"/>
<image xlink:href="../../images/foreignKeys.png" width="11px" height="12px" preserveAspectRatio="xMinYMin meet" x="818" y="-555"/>
<text text-anchor="start" x="845" y="-546.2" font-family="Helvetica,sans-Serif" font-size="11.00">fk_wastewater_structure</text>
<polygon fill="none" stroke="black" points="813,-516 813,-538 1129,-538 1129,-516 813,-516"/>
<image xlink:href="../../images/foreignKeys.png" width="11px" height="12px" preserveAspectRatio="xMinYMin meet" x="818" y="-533"/>
<text text-anchor="start" x="845" y="-524.2" font-family="Helvetica,sans-Serif" font-size="11.00">fk_maintenance_event</text>
<polygon fill="#ffffff" stroke="transparent" points="813,-498 813,-516 969,-516 969,-498 813,-498"/>
<polygon fill="none" stroke="black" points="813,-498 813,-516 969,-516 969,-498 813,-498"/>
<text text-anchor="start" x="816" y="-504.2" font-family="Helvetica,sans-Serif" font-size="11.00">&lt; 2</text>
<polygon fill="#ffffff" stroke="transparent" points="969,-498 969,-516 1049,-516 1049,-498 969,-498"/>
<polygon fill="none" stroke="black" points="969,-498 969,-516 1049,-516 1049,-498 969,-498"/>
<text text-anchor="start" x="1039" y="-504.2" font-family="Helvetica,sans-Serif" font-size="11.00"> &#160;</text>
<polygon fill="#ffffff" stroke="transparent" points="1049,-498 1049,-516 1129,-516 1129,-498 1049,-498"/>
<polygon fill="none" stroke="black" points="1049,-498 1049,-516 1129,-516 1129,-498 1049,-498"/>
<text text-anchor="start" x="1119" y="-504.2" font-family="Helvetica,sans-Serif" font-size="11.00"> &#160;</text>
</a>
</g>
</g>
<!-- re_maintenance_event_wastewater_structure&#45;&gt;maintenance_event -->
<g id="edge13" class="edge">
<title>re_maintenance_event_wastewater_structure:w&#45;&gt;maintenance_event:e</title>
<path fill="none" stroke="black" d="M797.33,-528.87C721.67,-550.82 856.48,-759 756,-759"/>
<polygon fill="black" stroke="black" points="804.06,-528.01 812.45,-530.57 808.03,-527.51 812,-527 812,-527 812,-527 808.03,-527.51 811.55,-523.43 804.06,-528.01 804.06,-528.01"/>
<ellipse fill="none" stroke="black" cx="800.89" cy="-528.41" rx="3.2" ry="3.2"/>
</g>
</g>
</svg>
