<?xml version="1.0" encoding="UTF-8" standalone="no"?>
<!DOCTYPE svg PUBLIC "-//W3C//DTD SVG 1.1//EN"
 "http://www.w3.org/Graphics/SVG/1.1/DTD/svg11.dtd">
<!-- Generated by graphviz version 2.47.1 (20210515.0534)
 -->
<!-- Title: oneDegreeRelationshipsDiagram Pages: 1 -->
<svg width="821pt" height="683pt"
 viewBox="0.00 0.00 821.00 683.00" xmlns="http://www.w3.org/2000/svg" xmlns:xlink="http://www.w3.org/1999/xlink">
<g id="graph0" class="graph" transform="scale(1 1) rotate(0) translate(4 679)">
<title>oneDegreeRelationshipsDiagram</title>
<polygon fill="#ffffff" stroke="transparent" points="-4,4 -4,-679 817,-679 817,4 -4,4"/>
<text text-anchor="middle" x="73.5" y="-7.2" font-family="Helvetica,sans-Serif" font-size="11.00">Generated by SchemaSpy</text>
<!-- mechanical_pretreatment -->
<g id="node1" class="node">
<title>mechanical_pretreatment</title>
<g id="a_node1"><a xlink:href="../../tables/mechanical_pretreatment.html" xlink:title="mechanical_pretreatment" target="_top">
<polygon fill="#ffffff" stroke="transparent" points="530,-451 530,-671 805,-671 805,-451 530,-451"/>
<polygon fill="#f5f5f5" stroke="transparent" points="532.5,-647 532.5,-669 803.5,-669 803.5,-647 532.5,-647"/>
<polygon fill="none" stroke="black" points="532.5,-647 532.5,-669 803.5,-669 803.5,-647 532.5,-647"/>
<text text-anchor="start" x="537.5" y="-656.2" font-family="Helvetica,sans-Serif" font-weight="bold" font-size="11.00">mechanical_pretreatment</text>
<text text-anchor="start" x="764.5" y="-655.2" font-family="Helvetica,sans-Serif" font-size="11.00">[table]</text>
<polygon fill="none" stroke="black" points="532.5,-625 532.5,-647 709.5,-647 709.5,-625 532.5,-625"/>
<image xlink:href="../../images/primaryKeys.png" width="11px" height="12px" preserveAspectRatio="xMinYMin meet" x="537.5" y="-642"/>
<text text-anchor="start" x="552.5" y="-633.2" font-family="Helvetica,sans-Serif" font-size="11.00">obj_id</text>
<polygon fill="none" stroke="black" points="709.5,-625 709.5,-647 803.5,-647 803.5,-625 709.5,-625"/>
<text text-anchor="start" x="712.5" y="-633.2" font-family="Helvetica,sans-Serif" font-size="11.00">varchar[16]</text>
<polygon fill="#ffffff" stroke="transparent" points="532.5,-603 532.5,-625 709.5,-625 709.5,-603 532.5,-603"/>
<polygon fill="none" stroke="black" points="532.5,-603 532.5,-625 709.5,-625 709.5,-603 532.5,-603"/>
<text text-anchor="start" x="552.5" y="-611.2" font-family="Helvetica,sans-Serif" font-size="11.00">identifier</text>
<polygon fill="none" stroke="black" points="709.5,-603 709.5,-625 803.5,-625 803.5,-603 709.5,-603"/>
<text text-anchor="start" x="712.5" y="-611.2" font-family="Helvetica,sans-Serif" font-size="11.00">text[2147483647]</text>
<polygon fill="none" stroke="black" points="532.5,-581 532.5,-603 709.5,-603 709.5,-581 532.5,-581"/>
<image xlink:href="../../images/foreignKeys.png" width="11px" height="12px" preserveAspectRatio="xMinYMin meet" x="537.5" y="-598"/>
<text text-anchor="start" x="552.5" y="-589.2" font-family="Helvetica,sans-Serif" font-size="11.00">kind</text>
<polygon fill="none" stroke="black" points="709.5,-581 709.5,-603 803.5,-603 803.5,-581 709.5,-581"/>
<text text-anchor="start" x="712.5" y="-589.2" font-family="Helvetica,sans-Serif" font-size="11.00">int4[10]</text>
<polygon fill="none" stroke="black" points="532.5,-559 532.5,-581 709.5,-581 709.5,-559 532.5,-559"/>
<text text-anchor="start" x="552.5" y="-567.2" font-family="Helvetica,sans-Serif" font-size="11.00">remark</text>
<polygon fill="none" stroke="black" points="709.5,-559 709.5,-581 803.5,-581 803.5,-559 709.5,-559"/>
<text text-anchor="start" x="712.5" y="-567.2" font-family="Helvetica,sans-Serif" font-size="11.00">text[2147483647]</text>
<polygon fill="none" stroke="black" points="532.5,-537 532.5,-559 709.5,-559 709.5,-537 532.5,-537"/>
<text text-anchor="start" x="552.5" y="-545.2" font-family="Helvetica,sans-Serif" font-size="11.00">last_modification</text>
<polygon fill="none" stroke="black" points="709.5,-537 709.5,-559 803.5,-559 803.5,-537 709.5,-537"/>
<text text-anchor="start" x="712.5" y="-545.2" font-family="Helvetica,sans-Serif" font-size="11.00">timestamp[29,6]</text>
<polygon fill="#ffffff" stroke="transparent" points="532.5,-515 532.5,-537 709.5,-537 709.5,-515 532.5,-515"/>
<polygon fill="none" stroke="black" points="532.5,-515 532.5,-537 709.5,-537 709.5,-515 532.5,-515"/>
<image xlink:href="../../images/foreignKeys.png" width="11px" height="12px" preserveAspectRatio="xMinYMin meet" x="537.5" y="-532"/>
<text text-anchor="start" x="552.5" y="-523.2" font-family="Helvetica,sans-Serif" font-size="11.00">fk_dataowner</text>
<polygon fill="none" stroke="black" points="709.5,-515 709.5,-537 803.5,-537 803.5,-515 709.5,-515"/>
<text text-anchor="start" x="712.5" y="-523.2" font-family="Helvetica,sans-Serif" font-size="11.00">varchar[16]</text>
<polygon fill="none" stroke="black" points="532.5,-493 532.5,-515 709.5,-515 709.5,-493 532.5,-493"/>
<image xlink:href="../../images/foreignKeys.png" width="11px" height="12px" preserveAspectRatio="xMinYMin meet" x="537.5" y="-510"/>
<text text-anchor="start" x="552.5" y="-501.2" font-family="Helvetica,sans-Serif" font-size="11.00">fk_provider</text>
<polygon fill="none" stroke="black" points="709.5,-493 709.5,-515 803.5,-515 803.5,-493 709.5,-493"/>
<text text-anchor="start" x="712.5" y="-501.2" font-family="Helvetica,sans-Serif" font-size="11.00">varchar[16]</text>
<polygon fill="none" stroke="black" points="532.5,-471 532.5,-493 709.5,-493 709.5,-471 532.5,-471"/>
<image xlink:href="../../images/foreignKeys.png" width="11px" height="12px" preserveAspectRatio="xMinYMin meet" x="537.5" y="-488"/>
<text text-anchor="start" x="552.5" y="-479.2" font-family="Helvetica,sans-Serif" font-size="11.00">fk_wastewater_structure</text>
<polygon fill="none" stroke="black" points="709.5,-471 709.5,-493 803.5,-493 803.5,-471 709.5,-471"/>
<text text-anchor="start" x="712.5" y="-479.2" font-family="Helvetica,sans-Serif" font-size="11.00">varchar[16]</text>
<polygon fill="#ffffff" stroke="transparent" points="532.5,-453 532.5,-471 625.5,-471 625.5,-453 532.5,-453"/>
<polygon fill="none" stroke="black" points="532.5,-453 532.5,-471 625.5,-471 625.5,-453 532.5,-453"/>
<text text-anchor="start" x="535.5" y="-459.2" font-family="Helvetica,sans-Serif" font-size="11.00">&lt; 4</text>
<polygon fill="#ffffff" stroke="transparent" points="625.5,-453 625.5,-471 709.5,-471 709.5,-453 625.5,-453"/>
<polygon fill="none" stroke="black" points="625.5,-453 625.5,-471 709.5,-471 709.5,-453 625.5,-453"/>
<text text-anchor="start" x="699.5" y="-459.2" font-family="Helvetica,sans-Serif" font-size="11.00"> &#160;</text>
<polygon fill="#ffffff" stroke="transparent" points="709.5,-453 709.5,-471 803.5,-471 803.5,-453 709.5,-453"/>
<polygon fill="none" stroke="black" points="709.5,-453 709.5,-471 803.5,-471 803.5,-453 709.5,-453"/>
<text text-anchor="start" x="784.5" y="-459.2" font-family="Helvetica,sans-Serif" font-size="11.00">0 &gt;</text>
<polygon fill="none" stroke="black" stroke-width="2" points="531,-452 531,-670 804,-670 804,-452 531,-452"/>
</a>
</g>
</g>
<!-- organisation -->
<g id="node2" class="node">
<title>organisation</title>
<g id="a_node2"><a xlink:href="../../tables/organisation.html" xlink:title="organisation" target="_top">
<polygon fill="#ffffff" stroke="transparent" points="8,-37 8,-249 156,-249 156,-37 8,-37"/>
<polygon fill="#f5f5f5" stroke="transparent" points="8,-227 8,-249 156,-249 156,-227 8,-227"/>
<polygon fill="none" stroke="black" points="8,-227 8,-249 156,-249 156,-227 8,-227"/>
<text text-anchor="start" x="13" y="-236.2" font-family="Helvetica,sans-Serif" font-weight="bold" font-size="11.00">organisation</text>
<text text-anchor="start" x="117" y="-235.2" font-family="Helvetica,sans-Serif" font-size="11.00">[table]</text>
<polygon fill="none" stroke="black" points="8,-205 8,-227 156,-227 156,-205 8,-205"/>
<image xlink:href="../../images/primaryKeys.png" width="11px" height="12px" preserveAspectRatio="xMinYMin meet" x="13" y="-222"/>
<text text-anchor="start" x="28" y="-213.2" font-family="Helvetica,sans-Serif" font-size="11.00">obj_id</text>
<polygon fill="#ffffff" stroke="transparent" points="8,-183 8,-205 156,-205 156,-183 8,-183"/>
<polygon fill="none" stroke="black" points="8,-183 8,-205 156,-205 156,-183 8,-183"/>
<text text-anchor="start" x="28" y="-191.2" font-family="Helvetica,sans-Serif" font-size="11.00">identifier</text>
<polygon fill="#ffffff" stroke="transparent" points="8,-161 8,-183 156,-183 156,-161 8,-161"/>
<polygon fill="none" stroke="black" points="8,-161 8,-183 156,-183 156,-161 8,-161"/>
<image xlink:href="../../images/foreignKeys.png" width="11px" height="12px" preserveAspectRatio="xMinYMin meet" x="13" y="-178"/>
<text text-anchor="start" x="28" y="-169.2" font-family="Helvetica,sans-Serif" font-size="11.00">organisation_type</text>
<polygon fill="none" stroke="black" points="8,-139 8,-161 156,-161 156,-139 8,-139"/>
<image xlink:href="../../images/foreignKeys.png" width="11px" height="12px" preserveAspectRatio="xMinYMin meet" x="13" y="-156"/>
<text text-anchor="start" x="28" y="-147.2" font-family="Helvetica,sans-Serif" font-size="11.00">status</text>
<polygon fill="#ffffff" stroke="transparent" points="8,-117 8,-139 156,-139 156,-117 8,-117"/>
<polygon fill="none" stroke="black" points="8,-117 8,-139 156,-139 156,-117 8,-117"/>
<text text-anchor="start" x="28" y="-125.2" font-family="Helvetica,sans-Serif" font-size="11.00">uid</text>
<polygon fill="none" stroke="black" points="8,-95 8,-117 156,-117 156,-95 8,-95"/>
<image xlink:href="../../images/foreignKeys.png" width="11px" height="12px" preserveAspectRatio="xMinYMin meet" x="13" y="-112"/>
<text text-anchor="start" x="28" y="-103.2" font-family="Helvetica,sans-Serif" font-size="11.00">fk_dataowner</text>
<polygon fill="none" stroke="black" points="8,-73 8,-95 156,-95 156,-73 8,-73"/>
<image xlink:href="../../images/foreignKeys.png" width="11px" height="12px" preserveAspectRatio="xMinYMin meet" x="13" y="-90"/>
<text text-anchor="start" x="28" y="-81.2" font-family="Helvetica,sans-Serif" font-size="11.00">fk_provider</text>
<polygon fill="none" stroke="black" points="8,-55 8,-73 156,-73 156,-55 8,-55"/>
<text text-anchor="start" x="11" y="-61.2" font-family="Helvetica,sans-Serif" font-size="11.00">...</text>
<polygon fill="#ffffff" stroke="transparent" points="8,-37 8,-55 69,-55 69,-37 8,-37"/>
<polygon fill="none" stroke="black" points="8,-37 8,-55 69,-55 69,-37 8,-37"/>
<text text-anchor="start" x="11" y="-43.2" font-family="Helvetica,sans-Serif" font-size="11.00">&lt; 4</text>
<polygon fill="#ffffff" stroke="transparent" points="69,-37 69,-55 102,-55 102,-37 69,-37"/>
<polygon fill="none" stroke="black" points="69,-37 69,-55 102,-55 102,-37 69,-37"/>
<text text-anchor="start" x="92" y="-43.2" font-family="Helvetica,sans-Serif" font-size="11.00"> &#160;</text>
<polygon fill="#ffffff" stroke="transparent" points="102,-37 102,-55 156,-55 156,-37 102,-37"/>
<polygon fill="none" stroke="black" points="102,-37 102,-55 156,-55 156,-37 102,-37"/>
<text text-anchor="start" x="125" y="-43.2" font-family="Helvetica,sans-Serif" font-size="11.00">101 &gt;</text>
</a>
</g>
</g>
<!-- mechanical_pretreatment&#45;&gt;organisation -->
<g id="edge1" class="edge">
<title>mechanical_pretreatment:w&#45;&gt;organisation:e</title>
<path fill="none" stroke="black" d="M516.88,-526.38C433.22,-530.21 248.82,-560.99 197,-514 147.51,-469.11 223.82,-216 157,-216"/>
<polygon fill="black" stroke="black" points="523.5,-526.21 531.59,-529.6 527.5,-526.1 531.5,-526 531.5,-526 531.5,-526 527.5,-526.1 531.41,-522.4 523.5,-526.21 523.5,-526.21"/>
<ellipse fill="none" stroke="black" cx="520.3" cy="-526.29" rx="3.2" ry="3.2"/>
</g>
<!-- mechanical_pretreatment&#45;&gt;organisation -->
<g id="edge2" class="edge">
<title>mechanical_pretreatment:w&#45;&gt;organisation:e</title>
<path fill="none" stroke="black" d="M517.06,-504.23C449.75,-505.77 222.28,-513.74 197,-491 151.09,-449.7 218.75,-216 157,-216"/>
<polygon fill="black" stroke="black" points="523.5,-504.13 531.56,-507.6 527.5,-504.06 531.5,-504 531.5,-504 531.5,-504 527.5,-504.06 531.44,-500.4 523.5,-504.13 523.5,-504.13"/>
<ellipse fill="none" stroke="black" cx="520.3" cy="-504.18" rx="3.2" ry="3.2"/>
</g>
<!-- wastewater_structure -->
<g id="node3" class="node">
<title>wastewater_structure</title>
<g id="a_node3"><a xlink:href="../../tables/wastewater_structure.html" xlink:title="wastewater_structure" target="_top">
<polygon fill="#ffffff" stroke="transparent" points="245.5,-70 245.5,-480 440.5,-480 440.5,-70 245.5,-70"/>
<polygon fill="#f5f5f5" stroke="transparent" points="246,-458 246,-480 441,-480 441,-458 246,-458"/>
<polygon fill="none" stroke="black" points="246,-458 246,-480 441,-480 441,-458 246,-458"/>
<text text-anchor="start" x="251" y="-467.2" font-family="Helvetica,sans-Serif" font-weight="bold" font-size="11.00">wastewater_structure</text>
<text text-anchor="start" x="402" y="-466.2" font-family="Helvetica,sans-Serif" font-size="11.00">[table]</text>
<polygon fill="none" stroke="black" points="246,-436 246,-458 441,-458 441,-436 246,-436"/>
<image xlink:href="../../images/primaryKeys.png" width="11px" height="12px" preserveAspectRatio="xMinYMin meet" x="251" y="-453"/>
<text text-anchor="start" x="266" y="-444.2" font-family="Helvetica,sans-Serif" font-size="11.00">obj_id</text>
<polygon fill="none" stroke="black" points="246,-414 246,-436 441,-436 441,-414 246,-414"/>
<image xlink:href="../../images/foreignKeys.png" width="11px" height="12px" preserveAspectRatio="xMinYMin meet" x="251" y="-431"/>
<text text-anchor="start" x="266" y="-422.2" font-family="Helvetica,sans-Serif" font-size="11.00">accessibility</text>
<polygon fill="#ffffff" stroke="transparent" points="246,-392 246,-414 441,-414 441,-392 246,-392"/>
<polygon fill="none" stroke="black" points="246,-392 246,-414 441,-414 441,-392 246,-392"/>
<text text-anchor="start" x="266" y="-400.2" font-family="Helvetica,sans-Serif" font-size="11.00">detail_geometry3d_geometry</text>
<polygon fill="none" stroke="black" points="246,-370 246,-392 441,-392 441,-370 246,-370"/>
<image xlink:href="../../images/foreignKeys.png" width="11px" height="12px" preserveAspectRatio="xMinYMin meet" x="251" y="-387"/>
<text text-anchor="start" x="266" y="-378.2" font-family="Helvetica,sans-Serif" font-size="11.00">elevation_determination</text>
<polygon fill="none" stroke="black" points="246,-348 246,-370 441,-370 441,-348 246,-348"/>
<image xlink:href="../../images/foreignKeys.png" width="11px" height="12px" preserveAspectRatio="xMinYMin meet" x="251" y="-365"/>
<text text-anchor="start" x="266" y="-356.2" font-family="Helvetica,sans-Serif" font-size="11.00">financing</text>
<polygon fill="#ffffff" stroke="transparent" points="246,-326 246,-348 441,-348 441,-326 246,-326"/>
<polygon fill="none" stroke="black" points="246,-326 246,-348 441,-348 441,-326 246,-326"/>
<text text-anchor="start" x="266" y="-334.2" font-family="Helvetica,sans-Serif" font-size="11.00">identifier</text>
<polygon fill="none" stroke="black" points="246,-304 246,-326 441,-326 441,-304 246,-304"/>
<image xlink:href="../../images/foreignKeys.png" width="11px" height="12px" preserveAspectRatio="xMinYMin meet" x="251" y="-321"/>
<text text-anchor="start" x="266" y="-312.2" font-family="Helvetica,sans-Serif" font-size="11.00">renovation_necessity</text>
<polygon fill="none" stroke="black" points="246,-282 246,-304 441,-304 441,-282 246,-282"/>
<image xlink:href="../../images/foreignKeys.png" width="11px" height="12px" preserveAspectRatio="xMinYMin meet" x="251" y="-299"/>
<text text-anchor="start" x="266" y="-290.2" font-family="Helvetica,sans-Serif" font-size="11.00">rv_construction_type</text>
<polygon fill="none" stroke="black" points="246,-260 246,-282 441,-282 441,-260 246,-260"/>
<image xlink:href="../../images/foreignKeys.png" width="11px" height="12px" preserveAspectRatio="xMinYMin meet" x="251" y="-277"/>
<text text-anchor="start" x="266" y="-268.2" font-family="Helvetica,sans-Serif" font-size="11.00">status</text>
<polygon fill="none" stroke="black" points="246,-238 246,-260 441,-260 441,-238 246,-238"/>
<image xlink:href="../../images/foreignKeys.png" width="11px" height="12px" preserveAspectRatio="xMinYMin meet" x="251" y="-255"/>
<text text-anchor="start" x="266" y="-246.2" font-family="Helvetica,sans-Serif" font-size="11.00">structure_condition</text>
<polygon fill="#ffffff" stroke="transparent" points="246,-216 246,-238 441,-238 441,-216 246,-216"/>
<polygon fill="none" stroke="black" points="246,-216 246,-238 441,-238 441,-216 246,-216"/>
<image xlink:href="../../images/foreignKeys.png" width="11px" height="12px" preserveAspectRatio="xMinYMin meet" x="251" y="-233"/>
<text text-anchor="start" x="266" y="-224.2" font-family="Helvetica,sans-Serif" font-size="11.00">fk_dataowner</text>
<polygon fill="none" stroke="black" points="246,-194 246,-216 441,-216 441,-194 246,-194"/>
<image xlink:href="../../images/foreignKeys.png" width="11px" height="12px" preserveAspectRatio="xMinYMin meet" x="251" y="-211"/>
<text text-anchor="start" x="266" y="-202.2" font-family="Helvetica,sans-Serif" font-size="11.00">fk_provider</text>
<polygon fill="none" stroke="black" points="246,-172 246,-194 441,-194 441,-172 246,-172"/>
<image xlink:href="../../images/foreignKeys.png" width="11px" height="12px" preserveAspectRatio="xMinYMin meet" x="251" y="-189"/>
<text text-anchor="start" x="266" y="-180.2" font-family="Helvetica,sans-Serif" font-size="11.00">fk_owner</text>
<polygon fill="none" stroke="black" points="246,-150 246,-172 441,-172 441,-150 246,-150"/>
<image xlink:href="../../images/foreignKeys.png" width="11px" height="12px" preserveAspectRatio="xMinYMin meet" x="251" y="-167"/>
<text text-anchor="start" x="266" y="-158.2" font-family="Helvetica,sans-Serif" font-size="11.00">fk_operator</text>
<polygon fill="none" stroke="black" points="246,-128 246,-150 441,-150 441,-128 246,-128"/>
<image xlink:href="../../images/foreignKeys.png" width="11px" height="12px" preserveAspectRatio="xMinYMin meet" x="251" y="-145"/>
<text text-anchor="start" x="266" y="-136.2" font-family="Helvetica,sans-Serif" font-size="11.00">fk_main_cover</text>
<polygon fill="none" stroke="black" points="246,-106 246,-128 441,-128 441,-106 246,-106"/>
<image xlink:href="../../images/foreignKeys.png" width="11px" height="12px" preserveAspectRatio="xMinYMin meet" x="251" y="-123"/>
<text text-anchor="start" x="266" y="-114.2" font-family="Helvetica,sans-Serif" font-size="11.00">fk_main_wastewater_node</text>
<polygon fill="none" stroke="black" points="246,-88 246,-106 441,-106 441,-88 246,-88"/>
<text text-anchor="start" x="249" y="-94.2" font-family="Helvetica,sans-Serif" font-size="11.00">...</text>
<polygon fill="#ffffff" stroke="transparent" points="246,-70 246,-88 337,-88 337,-70 246,-70"/>
<polygon fill="none" stroke="black" points="246,-70 246,-88 337,-88 337,-70 246,-70"/>
<text text-anchor="start" x="249" y="-76.2" font-family="Helvetica,sans-Serif" font-size="11.00">&lt; 13</text>
<polygon fill="#ffffff" stroke="transparent" points="337,-70 337,-88 381,-88 381,-70 337,-70"/>
<polygon fill="none" stroke="black" points="337,-70 337,-88 381,-88 381,-70 337,-70"/>
<text text-anchor="start" x="371" y="-76.2" font-family="Helvetica,sans-Serif" font-size="11.00"> &#160;</text>
<polygon fill="#ffffff" stroke="transparent" points="381,-70 381,-88 441,-88 441,-70 381,-70"/>
<polygon fill="none" stroke="black" points="381,-70 381,-88 441,-88 441,-70 381,-70"/>
<text text-anchor="start" x="416" y="-76.2" font-family="Helvetica,sans-Serif" font-size="11.00">16 &gt;</text>
</a>
</g>
</g>
<!-- mechanical_pretreatment&#45;&gt;wastewater_structure -->
<g id="edge3" class="edge">
<title>mechanical_pretreatment:w&#45;&gt;wastewater_structure:e</title>
<path fill="none" stroke="black" d="M517.14,-480.5C487.17,-473.8 479.37,-447 442,-447"/>
<polygon fill="black" stroke="black" points="523.54,-481.17 531.12,-485.58 527.52,-481.58 531.5,-482 531.5,-482 531.5,-482 527.52,-481.58 531.88,-478.42 523.54,-481.17 523.54,-481.17"/>
<ellipse fill="none" stroke="black" cx="520.36" cy="-480.83" rx="3.2" ry="3.2"/>
</g>
<!-- tww_vl.mechanical_pretreatment_kind -->
<g id="node4" class="node">
<title>tww_vl.mechanical_pretreatment_kind</title>
<g id="a_node4"><a xlink:href="../../../tww_vl/tables/mechanical_pretreatment_kind.html" xlink:title="tww_vl.mechanical_pretreatment_kind" target="_top">
<polygon fill="#ffffff" stroke="transparent" points="205,-563 205,-621 481,-621 481,-563 205,-563"/>
<polygon fill="#f5f5f5" stroke="transparent" points="205,-599 205,-621 481,-621 481,-599 205,-599"/>
<polygon fill="none" stroke="black" points="205,-599 205,-621 481,-621 481,-599 205,-599"/>
<text text-anchor="start" x="210" y="-608.2" font-family="Helvetica,sans-Serif" font-weight="bold" font-size="11.00">tww_vl.mechanical_pretreatment_kind</text>
<text text-anchor="start" x="442" y="-607.2" font-family="Helvetica,sans-Serif" font-size="11.00">[table]</text>
<polygon fill="none" stroke="black" points="205,-581 205,-599 481,-599 481,-581 205,-581"/>
<text text-anchor="start" x="208" y="-587.2" font-family="Helvetica,sans-Serif" font-size="11.00">...</text>
<polygon fill="#ffffff" stroke="transparent" points="205,-563 205,-581 318,-581 318,-563 205,-563"/>
<polygon fill="none" stroke="black" points="205,-563 205,-581 318,-581 318,-563 205,-563"/>
<text text-anchor="start" x="208" y="-569.2" font-family="Helvetica,sans-Serif" font-size="11.00"> &#160;</text>
<polygon fill="#ffffff" stroke="transparent" points="318,-563 318,-581 408,-581 408,-563 318,-563"/>
<polygon fill="none" stroke="black" points="318,-563 318,-581 408,-581 408,-563 318,-563"/>
<text text-anchor="start" x="371" y="-569.2" font-family="Helvetica,sans-Serif" font-size="11.00">0 rows</text>
<polygon fill="#ffffff" stroke="transparent" points="408,-563 408,-581 481,-581 481,-563 408,-563"/>
<polygon fill="none" stroke="black" points="408,-563 408,-581 481,-581 481,-563 408,-563"/>
<text text-anchor="start" x="462" y="-569.2" font-family="Helvetica,sans-Serif" font-size="11.00">1 &gt;</text>
</a>
</g>
</g>
<!-- mechanical_pretreatment&#45;&gt;tww_vl.mechanical_pretreatment_kind -->
<g id="edge4" class="edge">
<title>mechanical_pretreatment:w&#45;&gt;tww_vl.mechanical_pretreatment_kind:e</title>
<path fill="none" stroke="black" d="M516.81,-592C507.68,-592 498.39,-592 489.1,-592"/>
<polygon fill="black" stroke="black" points="523.5,-592 531.5,-595.6 527.5,-592 531.5,-592 531.5,-592 531.5,-592 527.5,-592 531.5,-588.4 523.5,-592 523.5,-592"/>
<ellipse fill="none" stroke="black" cx="520.3" cy="-592" rx="3.2" ry="3.2"/>
</g>
<!-- wastewater_structure&#45;&gt;organisation -->
<g id="edge5" class="edge">
<title>wastewater_structure:w&#45;&gt;organisation:e</title>
<path fill="none" stroke="black" d="M230.38,-226.44C202.51,-224.2 191.03,-216 157,-216"/>
<polygon fill="black" stroke="black" points="237.01,-226.69 244.86,-230.6 241,-226.85 245,-227 245,-227 245,-227 241,-226.85 245.14,-223.4 237.01,-226.69 237.01,-226.69"/>
<ellipse fill="none" stroke="black" cx="233.81" cy="-226.57" rx="3.2" ry="3.2"/>
</g>
<!-- wastewater_structure&#45;&gt;organisation -->
<g id="edge6" class="edge">
<title>wastewater_structure:w&#45;&gt;organisation:e</title>
<path fill="none" stroke="black" d="M230.7,-163.09C199.18,-173.14 197.72,-216 157,-216"/>
<polygon fill="black" stroke="black" points="237.08,-162.16 245.52,-164.56 241.04,-161.58 245,-161 245,-161 245,-161 241.04,-161.58 244.48,-157.44 237.08,-162.16 237.08,-162.16"/>
<ellipse fill="none" stroke="black" cx="233.92" cy="-162.62" rx="3.2" ry="3.2"/>
</g>
<!-- wastewater_structure&#45;&gt;organisation -->
<g id="edge7" class="edge">
<title>wastewater_structure:w&#45;&gt;organisation:e</title>
<path fill="none" stroke="black" d="M230.55,-184.5C201.46,-190.96 193.39,-216 157,-216"/>
<polygon fill="black" stroke="black" points="237.04,-183.83 245.37,-186.58 241.02,-183.41 245,-183 245,-183 245,-183 241.02,-183.41 244.63,-179.42 237.04,-183.83 237.04,-183.83"/>
<ellipse fill="none" stroke="black" cx="233.86" cy="-184.16" rx="3.2" ry="3.2"/>
</g>
<!-- wastewater_structure&#45;&gt;organisation -->
<g id="edge8" class="edge">
<title>wastewater_structure:w&#45;&gt;organisation:e</title>
<path fill="none" stroke="black" d="M230.38,-205.56C202.51,-207.8 191.03,-216 157,-216"/>
<polygon fill="black" stroke="black" points="237.01,-205.31 245.14,-208.6 241,-205.15 245,-205 245,-205 245,-205 241,-205.15 244.86,-201.4 237.01,-205.31 237.01,-205.31"/>
<ellipse fill="none" stroke="black" cx="233.81" cy="-205.43" rx="3.2" ry="3.2"/>
</g>
</g>
</svg>
