<?xml version="1.0" encoding="UTF-8" standalone="no"?>
<!DOCTYPE svg PUBLIC "-//W3C//DTD SVG 1.1//EN"
 "http://www.w3.org/Graphics/SVG/1.1/DTD/svg11.dtd">
<!-- Generated by graphviz version 2.43.0 (0)
 -->
<!-- Title: oneDegreeRelationshipsDiagram Pages: 1 -->
<svg width="822pt" height="331pt"
 viewBox="0.00 0.00 822.00 331.00" xmlns="http://www.w3.org/2000/svg" xmlns:xlink="http://www.w3.org/1999/xlink">
<g id="graph0" class="graph" transform="scale(1 1) rotate(0) translate(4 327)">
<title>oneDegreeRelationshipsDiagram</title>
<polygon fill="#ffffff" stroke="transparent" points="-4,4 -4,-327 818,-327 818,4 -4,4"/>
<text text-anchor="middle" x="79.5" y="-7.2" font-family="Helvetica,sans-Serif" font-size="11.00">Generated by SchemaSpy</text>
<!-- network_node -->
<g id="node1" class="node">
<title>network_node</title>
<g id="a_node1"><a xlink:href="../../tables/network_node.html" xlink:title="network_node" target="_top">
<polygon fill="#ffffff" stroke="transparent" points="316,-149 316,-273 466,-273 466,-149 316,-149"/>
<polygon fill="#f5f5f5" stroke="transparent" points="316,-251 316,-273 466,-273 466,-251 316,-251"/>
<polygon fill="none" stroke="black" points="316,-251 316,-273 466,-273 466,-251 316,-251"/>
<text text-anchor="start" x="321" y="-260.2" font-family="Helvetica,sans-Serif" font-weight="bold" font-size="11.00">network_node</text>
<text text-anchor="start" x="424" y="-259.2" font-family="Helvetica,sans-Serif" font-size="11.00">[table]</text>
<polygon fill="none" stroke="black" points="316,-229 316,-251 466,-251 466,-229 316,-229"/>
<image xlink:href="../../images/primaryKeys.png" width="11px" height="12px" preserveAspectRatio="xMinYMin meet" x="321" y="-246"/>
<text text-anchor="start" x="349" y="-237.2" font-family="Helvetica,sans-Serif" font-size="11.00">id</text>
<polygon fill="none" stroke="black" points="316,-207 316,-229 466,-229 466,-207 316,-207"/>
<image xlink:href="../../images/foreignKeys.png" width="11px" height="12px" preserveAspectRatio="xMinYMin meet" x="321" y="-224"/>
<text text-anchor="start" x="349" y="-215.2" font-family="Helvetica,sans-Serif" font-size="11.00">ne_id</text>
<polygon fill="none" stroke="black" points="316,-185 316,-207 466,-207 466,-185 316,-185"/>
<image xlink:href="../../images/foreignKeys.png" width="11px" height="12px" preserveAspectRatio="xMinYMin meet" x="321" y="-202"/>
<text text-anchor="start" x="349" y="-193.2" font-family="Helvetica,sans-Serif" font-size="11.00">rp_id</text>
<polygon fill="none" stroke="black" points="316,-167 316,-185 466,-185 466,-167 316,-167"/>
<text text-anchor="start" x="319" y="-173.2" font-family="Helvetica,sans-Serif" font-size="11.00">...</text>
<polygon fill="#ffffff" stroke="transparent" points="316,-149 316,-167 466,-167 466,-149 316,-149"/>
<polygon fill="none" stroke="black" points="316,-149 316,-167 466,-167 466,-149 316,-149"/>
<polygon fill="#ffffff" stroke="transparent" points="317,-150 317,-166 371,-166 371,-150 317,-150"/>
<text text-anchor="start" x="319" y="-155.2" font-family="Helvetica,sans-Serif" font-size="11.00">&lt; 2</text>
<polygon fill="#ffffff" stroke="transparent" points="371,-150 371,-166 412,-166 412,-150 371,-150"/>
<text text-anchor="start" x="387.5" y="-155.2" font-family="Helvetica,sans-Serif" font-size="11.00"> &#160;</text>
<polygon fill="#ffffff" stroke="transparent" points="412,-150 412,-166 465,-166 465,-150 412,-150"/>
<text text-anchor="start" x="443" y="-155.2" font-family="Helvetica,sans-Serif" font-size="11.00">2 &gt;</text>
<polygon fill="black" stroke="black" points="371,-150 371,-166 371,-166 371,-150 371,-150"/>
<polygon fill="black" stroke="black" points="412,-150 412,-166 412,-166 412,-150 412,-150"/>
</a>
</g>
</g>
<!-- wastewater_networkelement -->
<g id="node2" class="node">
<title>wastewater_networkelement</title>
<g id="a_node2"><a xlink:href="../../tables/wastewater_networkelement.html" xlink:title="wastewater_networkelement" target="_top">
<polygon fill="#ffffff" stroke="transparent" points="8,-37 8,-205 267,-205 267,-37 8,-37"/>
<polygon fill="#f5f5f5" stroke="transparent" points="8.5,-183 8.5,-205 267.5,-205 267.5,-183 8.5,-183"/>
<polygon fill="none" stroke="black" points="8.5,-183 8.5,-205 267.5,-205 267.5,-183 8.5,-183"/>
<text text-anchor="start" x="13.5" y="-192.2" font-family="Helvetica,sans-Serif" font-weight="bold" font-size="11.00">wastewater_networkelement</text>
<text text-anchor="start" x="225.5" y="-191.2" font-family="Helvetica,sans-Serif" font-size="11.00">[table]</text>
<polygon fill="none" stroke="black" points="8.5,-161 8.5,-183 267.5,-183 267.5,-161 8.5,-161"/>
<image xlink:href="../../images/primaryKeys.png" width="11px" height="12px" preserveAspectRatio="xMinYMin meet" x="13.5" y="-178"/>
<text text-anchor="start" x="41.5" y="-169.2" font-family="Helvetica,sans-Serif" font-size="11.00">obj_id</text>
<polygon fill="#ffffff" stroke="transparent" points="8.5,-139 8.5,-161 267.5,-161 267.5,-139 8.5,-139"/>
<polygon fill="none" stroke="black" points="8.5,-139 8.5,-161 267.5,-161 267.5,-139 8.5,-139"/>
<text text-anchor="start" x="41.5" y="-147.2" font-family="Helvetica,sans-Serif" font-size="11.00">identifier</text>
<polygon fill="#ffffff" stroke="transparent" points="8.5,-117 8.5,-139 267.5,-139 267.5,-117 8.5,-117"/>
<polygon fill="none" stroke="black" points="8.5,-117 8.5,-139 267.5,-139 267.5,-117 8.5,-117"/>
<image xlink:href="../../images/foreignKeys.png" width="11px" height="12px" preserveAspectRatio="xMinYMin meet" x="13.5" y="-134"/>
<text text-anchor="start" x="41.5" y="-125.2" font-family="Helvetica,sans-Serif" font-size="11.00">fk_dataowner</text>
<polygon fill="none" stroke="black" points="8.5,-95 8.5,-117 267.5,-117 267.5,-95 8.5,-95"/>
<image xlink:href="../../images/foreignKeys.png" width="11px" height="12px" preserveAspectRatio="xMinYMin meet" x="13.5" y="-112"/>
<text text-anchor="start" x="41.5" y="-103.2" font-family="Helvetica,sans-Serif" font-size="11.00">fk_provider</text>
<polygon fill="none" stroke="black" points="8.5,-73 8.5,-95 267.5,-95 267.5,-73 8.5,-73"/>
<image xlink:href="../../images/foreignKeys.png" width="11px" height="12px" preserveAspectRatio="xMinYMin meet" x="13.5" y="-90"/>
<text text-anchor="start" x="41.5" y="-81.2" font-family="Helvetica,sans-Serif" font-size="11.00">fk_wastewater_structure</text>
<polygon fill="none" stroke="black" points="8.5,-55 8.5,-73 267.5,-73 267.5,-55 8.5,-55"/>
<text text-anchor="start" x="11.5" y="-61.2" font-family="Helvetica,sans-Serif" font-size="11.00">...</text>
<polygon fill="#ffffff" stroke="transparent" points="8.5,-37 8.5,-55 267.5,-55 267.5,-37 8.5,-37"/>
<polygon fill="none" stroke="black" points="8.5,-37 8.5,-55 267.5,-55 267.5,-37 8.5,-37"/>
<polygon fill="#ffffff" stroke="transparent" points="9.5,-38 9.5,-54 97.5,-54 97.5,-38 9.5,-38"/>
<text text-anchor="start" x="11.5" y="-43.2" font-family="Helvetica,sans-Serif" font-size="11.00">&lt; 3</text>
<polygon fill="#ffffff" stroke="transparent" points="97.5,-38 97.5,-54 172.5,-54 172.5,-38 97.5,-38"/>
<text text-anchor="start" x="131" y="-43.2" font-family="Helvetica,sans-Serif" font-size="11.00"> &#160;</text>
<polygon fill="#ffffff" stroke="transparent" points="172.5,-38 172.5,-54 266.5,-54 266.5,-38 172.5,-38"/>
<text text-anchor="start" x="237.5" y="-43.2" font-family="Helvetica,sans-Serif" font-size="11.00">11 &gt;</text>
<polygon fill="black" stroke="black" points="97.5,-38 97.5,-54 97.5,-54 97.5,-38 97.5,-38"/>
<polygon fill="black" stroke="black" points="172.5,-38 172.5,-54 172.5,-54 172.5,-38 172.5,-38"/>
</a>
</g>
</g>
<!-- network_node&#45;&gt;wastewater_networkelement -->
<g id="edge1" class="edge">
<title>network_node:w&#45;&gt;wastewater_networkelement:e</title>
<path fill="none" stroke="black" d="M301.27,-212.72C289.03,-200.64 291.44,-172 268.5,-172"/>
<polygon fill="black" stroke="black" points="307.53,-215.13 313.71,-221.36 311.27,-216.56 315,-218 315,-218 315,-218 311.27,-216.56 316.29,-214.64 307.53,-215.13 307.53,-215.13"/>
<ellipse fill="none" stroke="black" cx="304.55" cy="-213.98" rx="3.2" ry="3.2"/>
</g>
<!-- network_segment -->
<g id="node3" class="node">
<title>network_segment</title>
<g id="a_node3"><a xlink:href="../../tables/network_segment.html" xlink:title="network_segment" target="_top">
<polygon fill="#ffffff" stroke="transparent" points="515,-143 515,-319 806,-319 806,-143 515,-143"/>
<polygon fill="#f5f5f5" stroke="transparent" points="517.5,-295 517.5,-317 804.5,-317 804.5,-295 517.5,-295"/>
<polygon fill="none" stroke="black" points="517.5,-295 517.5,-317 804.5,-317 804.5,-295 517.5,-295"/>
<text text-anchor="start" x="522.5" y="-304.2" font-family="Helvetica,sans-Serif" font-weight="bold" font-size="11.00">network_segment</text>
<text text-anchor="start" x="762.5" y="-303.2" font-family="Helvetica,sans-Serif" font-size="11.00">[table]</text>
<polygon fill="none" stroke="black" points="517.5,-273 517.5,-295 668.5,-295 668.5,-273 517.5,-273"/>
<image xlink:href="../../images/primaryKeys.png" width="11px" height="12px" preserveAspectRatio="xMinYMin meet" x="522.5" y="-290"/>
<text text-anchor="start" x="537.5" y="-281.2" font-family="Helvetica,sans-Serif" font-size="11.00">id</text>
<polygon fill="none" stroke="black" points="668.5,-273 668.5,-295 804.5,-295 804.5,-273 668.5,-273"/>
<text text-anchor="start" x="671.5" y="-281.2" font-family="Helvetica,sans-Serif" font-size="11.00">serial[10]</text>
<polygon fill="none" stroke="black" points="517.5,-251 517.5,-273 668.5,-273 668.5,-251 517.5,-251"/>
<text text-anchor="start" x="537.5" y="-259.2" font-family="Helvetica,sans-Serif" font-size="11.00">segment_type</text>
<polygon fill="none" stroke="black" points="668.5,-251 668.5,-273 804.5,-273 804.5,-251 668.5,-251"/>
<text text-anchor="start" x="671.5" y="-259.2" font-family="Helvetica,sans-Serif" font-size="11.00">text[2147483647]</text>
<polygon fill="none" stroke="black" points="517.5,-229 517.5,-251 668.5,-251 668.5,-229 517.5,-229"/>
<image xlink:href="../../images/foreignKeys.png" width="11px" height="12px" preserveAspectRatio="xMinYMin meet" x="522.5" y="-246"/>
<text text-anchor="start" x="537.5" y="-237.2" font-family="Helvetica,sans-Serif" font-size="11.00">from_node</text>
<polygon fill="none" stroke="black" points="668.5,-229 668.5,-251 804.5,-251 804.5,-229 668.5,-229"/>
<text text-anchor="start" x="671.5" y="-237.2" font-family="Helvetica,sans-Serif" font-size="11.00">int4[10]</text>
<polygon fill="none" stroke="black" points="517.5,-207 517.5,-229 668.5,-229 668.5,-207 517.5,-207"/>
<image xlink:href="../../images/foreignKeys.png" width="11px" height="12px" preserveAspectRatio="xMinYMin meet" x="522.5" y="-224"/>
<text text-anchor="start" x="537.5" y="-215.2" font-family="Helvetica,sans-Serif" font-size="11.00">to_node</text>
<polygon fill="none" stroke="black" points="668.5,-207 668.5,-229 804.5,-229 804.5,-207 668.5,-207"/>
<text text-anchor="start" x="671.5" y="-215.2" font-family="Helvetica,sans-Serif" font-size="11.00">int4[10]</text>
<polygon fill="none" stroke="black" points="517.5,-185 517.5,-207 668.5,-207 668.5,-185 517.5,-185"/>
<image xlink:href="../../images/foreignKeys.png" width="11px" height="12px" preserveAspectRatio="xMinYMin meet" x="522.5" y="-202"/>
<text text-anchor="start" x="537.5" y="-193.2" font-family="Helvetica,sans-Serif" font-size="11.00">ne_id</text>
<polygon fill="none" stroke="black" points="668.5,-185 668.5,-207 804.5,-207 804.5,-185 668.5,-185"/>
<text text-anchor="start" x="671.5" y="-193.2" font-family="Helvetica,sans-Serif" font-size="11.00">text[2147483647]</text>
<polygon fill="none" stroke="black" points="517.5,-163 517.5,-185 668.5,-185 668.5,-163 517.5,-163"/>
<text text-anchor="start" x="537.5" y="-171.2" font-family="Helvetica,sans-Serif" font-size="11.00">geom</text>
<polygon fill="none" stroke="black" points="668.5,-163 668.5,-185 804.5,-185 804.5,-163 668.5,-163"/>
<text text-anchor="start" x="671.5" y="-171.2" font-family="Helvetica,sans-Serif" font-size="11.00">geometry[2147483647]</text>
<polygon fill="#ffffff" stroke="transparent" points="517.5,-145 517.5,-163 804.5,-163 804.5,-145 517.5,-145"/>
<polygon fill="none" stroke="black" points="517.5,-145 517.5,-163 804.5,-163 804.5,-145 517.5,-145"/>
<polygon fill="#ffffff" stroke="transparent" points="518.5,-146 518.5,-162 617.5,-162 617.5,-146 518.5,-146"/>
<text text-anchor="start" x="520.5" y="-151.2" font-family="Helvetica,sans-Serif" font-size="11.00">&lt; 3</text>
<polygon fill="#ffffff" stroke="transparent" points="617.5,-146 617.5,-162 704.5,-162 704.5,-146 617.5,-146"/>
<text text-anchor="start" x="657" y="-151.2" font-family="Helvetica,sans-Serif" font-size="11.00"> &#160;</text>
<polygon fill="#ffffff" stroke="transparent" points="704.5,-146 704.5,-162 803.5,-162 803.5,-146 704.5,-146"/>
<text text-anchor="start" x="781.5" y="-151.2" font-family="Helvetica,sans-Serif" font-size="11.00">0 &gt;</text>
<polygon fill="black" stroke="black" points="617.5,-146 617.5,-162 617.5,-162 617.5,-146 617.5,-146"/>
<polygon fill="black" stroke="black" points="704.5,-146 704.5,-162 704.5,-162 704.5,-146 704.5,-146"/>
<polygon fill="none" stroke="black" stroke-width="2" points="516,-144 516,-318 805,-318 805,-144 516,-144"/>
</a>
</g>
</g>
<!-- network_segment&#45;&gt;network_node -->
<g id="edge2" class="edge">
<title>network_segment:w&#45;&gt;network_node:e</title>
<path fill="none" stroke="black" d="M501.84,-240C490.41,-240 483.16,-240 467,-240"/>
<polygon fill="black" stroke="black" points="508.5,-240 516.5,-243.6 512.5,-240 516.5,-240 516.5,-240 516.5,-240 512.5,-240 516.5,-236.4 508.5,-240 508.5,-240"/>
<ellipse fill="none" stroke="black" cx="505.3" cy="-240" rx="3.2" ry="3.2"/>
</g>
<!-- network_segment&#45;&gt;network_node -->
<g id="edge4" class="edge">
<title>network_segment:w&#45;&gt;network_node:e</title>
<path fill="none" stroke="black" d="M502.36,-221.25C490.44,-227.37 485.24,-240 467,-240"/>
<polygon fill="black" stroke="black" points="508.7,-219.79 517.31,-221.51 512.6,-218.9 516.5,-218 516.5,-218 516.5,-218 512.6,-218.9 515.69,-214.49 508.7,-219.79 508.7,-219.79"/>
<ellipse fill="none" stroke="black" cx="505.58" cy="-220.51" rx="3.2" ry="3.2"/>
</g>
<!-- network_segment&#45;&gt;wastewater_networkelement -->
<g id="edge3" class="edge">
<title>network_segment:w&#45;&gt;wastewater_networkelement:e</title>
<path fill="none" stroke="black" d="M502.51,-191.3C490.07,-179.78 496.51,-150.29 474,-139 408.06,-105.91 377.36,-113.84 308,-139 286.5,-146.8 291.38,-172 268.5,-172"/>
<polygon fill="black" stroke="black" points="508.92,-193.45 515.35,-199.41 512.71,-194.73 516.5,-196 516.5,-196 516.5,-196 512.71,-194.73 517.65,-192.59 508.92,-193.45 508.92,-193.45"/>
<ellipse fill="none" stroke="black" cx="505.88" cy="-192.43" rx="3.2" ry="3.2"/>
</g>
</g>
</svg>
