<?xml version="1.0" encoding="UTF-8" standalone="no"?>
<!DOCTYPE svg PUBLIC "-//W3C//DTD SVG 1.1//EN"
 "http://www.w3.org/Graphics/SVG/1.1/DTD/svg11.dtd">
<!-- Generated by graphviz version 2.43.0 (0)
 -->
<!-- Title: oneDegreeRelationshipsDiagram Pages: 1 -->
<svg width="770pt" height="714pt"
 viewBox="0.00 0.00 770.00 714.00" xmlns="http://www.w3.org/2000/svg" xmlns:xlink="http://www.w3.org/1999/xlink">
<g id="graph0" class="graph" transform="scale(1 1) rotate(0) translate(4 710)">
<title>oneDegreeRelationshipsDiagram</title>
<polygon fill="#ffffff" stroke="transparent" points="-4,4 -4,-710 766,-710 766,4 -4,4"/>
<text text-anchor="middle" x="79.5" y="-7.2" font-family="Helvetica,sans-Serif" font-size="11.00">Generated by SchemaSpy</text>
<!-- re_maintenance_event_wastewater_structure -->
<g id="node1" class="node">
<title>re_maintenance_event_wastewater_structure</title>
<g id="a_node1"><a xlink:href="../../tables/re_maintenance_event_wastewater_2bbd2eae.html" xlink:title="re_maintenance_event_wastewater_structure" target="_top">
<polygon fill="#ffffff" stroke="transparent" points="292,-411 292,-521 754,-521 754,-411 292,-411"/>
<polygon fill="#f5f5f5" stroke="transparent" points="294,-497 294,-519 752,-519 752,-497 294,-497"/>
<polygon fill="none" stroke="black" points="294,-497 294,-519 752,-519 752,-497 294,-497"/>
<text text-anchor="start" x="299" y="-506.2" font-family="Helvetica,sans-Serif" font-weight="bold" font-size="11.00">re_maintenance_event_wastewater_structure</text>
<text text-anchor="start" x="710" y="-505.2" font-family="Helvetica,sans-Serif" font-size="11.00">[table]</text>
<polygon fill="none" stroke="black" points="294,-475 294,-497 646,-497 646,-475 294,-475"/>
<image xlink:href="../../images/primaryKeys.png" width="11px" height="12px" preserveAspectRatio="xMinYMin meet" x="299" y="-492"/>
<text text-anchor="start" x="314" y="-483.2" font-family="Helvetica,sans-Serif" font-size="11.00">id</text>
<polygon fill="none" stroke="black" points="646,-475 646,-497 752,-497 752,-475 646,-475"/>
<text text-anchor="start" x="649" y="-483.2" font-family="Helvetica,sans-Serif" font-size="11.00">uuid[2147483647]</text>
<polygon fill="#ffffff" stroke="transparent" points="294,-453 294,-475 646,-475 646,-453 294,-453"/>
<polygon fill="none" stroke="black" points="294,-453 294,-475 646,-475 646,-453 294,-453"/>
<image xlink:href="../../images/foreignKeys.png" width="11px" height="12px" preserveAspectRatio="xMinYMin meet" x="299" y="-470"/>
<text text-anchor="start" x="314" y="-461.2" font-family="Helvetica,sans-Serif" font-size="11.00">fk_wastewater_structure</text>
<polygon fill="none" stroke="black" points="646,-453 646,-475 752,-475 752,-453 646,-453"/>
<text text-anchor="start" x="649" y="-461.2" font-family="Helvetica,sans-Serif" font-size="11.00">varchar[16]</text>
<polygon fill="#ffffff" stroke="transparent" points="294,-431 294,-453 646,-453 646,-431 294,-431"/>
<polygon fill="none" stroke="black" points="294,-431 294,-453 646,-453 646,-431 294,-431"/>
<image xlink:href="../../images/foreignKeys.png" width="11px" height="12px" preserveAspectRatio="xMinYMin meet" x="299" y="-448"/>
<text text-anchor="start" x="314" y="-439.2" font-family="Helvetica,sans-Serif" font-size="11.00">fk_maintenance_event</text>
<polygon fill="none" stroke="black" points="646,-431 646,-453 752,-453 752,-431 646,-431"/>
<text text-anchor="start" x="649" y="-439.2" font-family="Helvetica,sans-Serif" font-size="11.00">varchar[16]</text>
<polygon fill="#ffffff" stroke="transparent" points="294,-413 294,-431 752,-431 752,-413 294,-413"/>
<polygon fill="none" stroke="black" points="294,-413 294,-431 752,-431 752,-413 294,-413"/>
<polygon fill="#ffffff" stroke="transparent" points="295,-414 295,-430 451,-430 451,-414 295,-414"/>
<text text-anchor="start" x="297" y="-419.2" font-family="Helvetica,sans-Serif" font-size="11.00">&lt; 2</text>
<polygon fill="#ffffff" stroke="transparent" points="451,-414 451,-430 595,-430 595,-414 451,-414"/>
<text text-anchor="start" x="519" y="-419.2" font-family="Helvetica,sans-Serif" font-size="11.00"> &#160;</text>
<polygon fill="#ffffff" stroke="transparent" points="595,-414 595,-430 751,-430 751,-414 595,-414"/>
<text text-anchor="start" x="729" y="-419.2" font-family="Helvetica,sans-Serif" font-size="11.00">0 &gt;</text>
<polygon fill="black" stroke="black" points="451,-414 451,-430 451,-430 451,-414 451,-414"/>
<polygon fill="black" stroke="black" points="595,-414 595,-430 595,-430 595,-414 595,-414"/>
<polygon fill="none" stroke="black" stroke-width="2" points="293,-412 293,-520 753,-520 753,-412 293,-412"/>
</a>
</g>
</g>
<!-- maintenance_event -->
<g id="node2" class="node">
<title>maintenance_event</title>
<g id="a_node2"><a xlink:href="../../tables/maintenance_event.html" xlink:title="maintenance_event" target="_top">
<polygon fill="#ffffff" stroke="transparent" points="31,-37 31,-271 220,-271 220,-37 31,-37"/>
<polygon fill="#f5f5f5" stroke="transparent" points="31.5,-249 31.5,-271 220.5,-271 220.5,-249 31.5,-249"/>
<polygon fill="none" stroke="black" points="31.5,-249 31.5,-271 220.5,-271 220.5,-249 31.5,-249"/>
<text text-anchor="start" x="36.5" y="-258.2" font-family="Helvetica,sans-Serif" font-weight="bold" font-size="11.00">maintenance_event</text>
<text text-anchor="start" x="178.5" y="-257.2" font-family="Helvetica,sans-Serif" font-size="11.00">[table]</text>
<polygon fill="none" stroke="black" points="31.5,-227 31.5,-249 220.5,-249 220.5,-227 31.5,-227"/>
<image xlink:href="../../images/primaryKeys.png" width="11px" height="12px" preserveAspectRatio="xMinYMin meet" x="36.5" y="-244"/>
<text text-anchor="start" x="53.5" y="-235.2" font-family="Helvetica,sans-Serif" font-size="11.00">obj_id</text>
<polygon fill="#ffffff" stroke="transparent" points="31.5,-205 31.5,-227 220.5,-227 220.5,-205 31.5,-205"/>
<polygon fill="none" stroke="black" points="31.5,-205 31.5,-227 220.5,-227 220.5,-205 31.5,-205"/>
<text text-anchor="start" x="53.5" y="-213.2" font-family="Helvetica,sans-Serif" font-size="11.00">identifier</text>
<polygon fill="none" stroke="black" points="31.5,-183 31.5,-205 220.5,-205 220.5,-183 31.5,-183"/>
<image xlink:href="../../images/foreignKeys.png" width="11px" height="12px" preserveAspectRatio="xMinYMin meet" x="36.5" y="-200"/>
<text text-anchor="start" x="53.5" y="-191.2" font-family="Helvetica,sans-Serif" font-size="11.00">status</text>
<polygon fill="#ffffff" stroke="transparent" points="31.5,-161 31.5,-183 220.5,-183 220.5,-161 31.5,-161"/>
<polygon fill="none" stroke="black" points="31.5,-161 31.5,-183 220.5,-183 220.5,-161 31.5,-161"/>
<text text-anchor="start" x="53.5" y="-169.2" font-family="Helvetica,sans-Serif" font-size="11.00">time_point</text>
<polygon fill="#ffffff" stroke="transparent" points="31.5,-139 31.5,-161 220.5,-161 220.5,-139 31.5,-139"/>
<polygon fill="none" stroke="black" points="31.5,-139 31.5,-161 220.5,-161 220.5,-139 31.5,-139"/>
<image xlink:href="../../images/foreignKeys.png" width="11px" height="12px" preserveAspectRatio="xMinYMin meet" x="36.5" y="-156"/>
<text text-anchor="start" x="53.5" y="-147.2" font-family="Helvetica,sans-Serif" font-size="11.00">fk_dataowner</text>
<polygon fill="none" stroke="black" points="31.5,-117 31.5,-139 220.5,-139 220.5,-117 31.5,-117"/>
<image xlink:href="../../images/foreignKeys.png" width="11px" height="12px" preserveAspectRatio="xMinYMin meet" x="36.5" y="-134"/>
<text text-anchor="start" x="53.5" y="-125.2" font-family="Helvetica,sans-Serif" font-size="11.00">fk_provider</text>
<polygon fill="none" stroke="black" points="31.5,-95 31.5,-117 220.5,-117 220.5,-95 31.5,-95"/>
<image xlink:href="../../images/foreignKeys.png" width="11px" height="12px" preserveAspectRatio="xMinYMin meet" x="36.5" y="-112"/>
<text text-anchor="start" x="53.5" y="-103.2" font-family="Helvetica,sans-Serif" font-size="11.00">fk_operating_company</text>
<polygon fill="none" stroke="black" points="31.5,-73 31.5,-95 220.5,-95 220.5,-73 31.5,-73"/>
<image xlink:href="../../images/foreignKeys.png" width="11px" height="12px" preserveAspectRatio="xMinYMin meet" x="36.5" y="-90"/>
<text text-anchor="start" x="53.5" y="-81.2" font-family="Helvetica,sans-Serif" font-size="11.00">fk_measure</text>
<polygon fill="none" stroke="black" points="31.5,-55 31.5,-73 220.5,-73 220.5,-55 31.5,-55"/>
<text text-anchor="start" x="34.5" y="-61.2" font-family="Helvetica,sans-Serif" font-size="11.00">...</text>
<polygon fill="#ffffff" stroke="transparent" points="31.5,-37 31.5,-55 220.5,-55 220.5,-37 31.5,-37"/>
<polygon fill="none" stroke="black" points="31.5,-37 31.5,-55 220.5,-55 220.5,-37 31.5,-37"/>
<polygon fill="#ffffff" stroke="transparent" points="32.5,-38 32.5,-54 99.5,-54 99.5,-38 32.5,-38"/>
<text text-anchor="start" x="34.5" y="-43.2" font-family="Helvetica,sans-Serif" font-size="11.00">&lt; 5</text>
<polygon fill="#ffffff" stroke="transparent" points="99.5,-38 99.5,-54 153.5,-54 153.5,-38 99.5,-38"/>
<text text-anchor="start" x="122.5" y="-43.2" font-family="Helvetica,sans-Serif" font-size="11.00"> &#160;</text>
<polygon fill="#ffffff" stroke="transparent" points="153.5,-38 153.5,-54 219.5,-54 219.5,-38 153.5,-38"/>
<text text-anchor="start" x="197.5" y="-43.2" font-family="Helvetica,sans-Serif" font-size="11.00">4 &gt;</text>
<polygon fill="black" stroke="black" points="99.5,-38 99.5,-54 99.5,-54 99.5,-38 99.5,-38"/>
<polygon fill="black" stroke="black" points="153.5,-38 153.5,-54 153.5,-54 153.5,-38 153.5,-38"/>
</a>
</g>
</g>
<!-- re_maintenance_event_wastewater_structure&#45;&gt;maintenance_event -->
<g id="edge1" class="edge">
<title>re_maintenance_event_wastewater_structure:w&#45;&gt;maintenance_event:e</title>
<path fill="none" stroke="black" d="M278.68,-440.11C209.9,-419.55 312.13,-238 221.5,-238"/>
<polygon fill="black" stroke="black" points="285.07,-440.95 292.53,-445.57 289.03,-441.48 293,-442 293,-442 293,-442 289.03,-441.48 293.47,-438.43 285.07,-440.95 285.07,-440.95"/>
<ellipse fill="none" stroke="black" cx="281.9" cy="-440.53" rx="3.2" ry="3.2"/>
</g>
<!-- wastewater_structure -->
<g id="node3" class="node">
<title>wastewater_structure</title>
<g id="a_node3"><a xlink:href="../../tables/wastewater_structure.html" xlink:title="wastewater_structure" target="_top">
<polygon fill="#ffffff" stroke="transparent" points="8,-292 8,-702 243,-702 243,-292 8,-292"/>
<polygon fill="#f5f5f5" stroke="transparent" points="8.5,-680 8.5,-702 243.5,-702 243.5,-680 8.5,-680"/>
<polygon fill="none" stroke="black" points="8.5,-680 8.5,-702 243.5,-702 243.5,-680 8.5,-680"/>
<text text-anchor="start" x="13.5" y="-689.2" font-family="Helvetica,sans-Serif" font-weight="bold" font-size="11.00">wastewater_structure</text>
<text text-anchor="start" x="201.5" y="-688.2" font-family="Helvetica,sans-Serif" font-size="11.00">[table]</text>
<polygon fill="none" stroke="black" points="8.5,-658 8.5,-680 243.5,-680 243.5,-658 8.5,-658"/>
<image xlink:href="../../images/primaryKeys.png" width="11px" height="12px" preserveAspectRatio="xMinYMin meet" x="13.5" y="-675"/>
<text text-anchor="start" x="28.5" y="-666.2" font-family="Helvetica,sans-Serif" font-size="11.00">obj_id</text>
<polygon fill="none" stroke="black" points="8.5,-636 8.5,-658 243.5,-658 243.5,-636 8.5,-636"/>
<image xlink:href="../../images/foreignKeys.png" width="11px" height="12px" preserveAspectRatio="xMinYMin meet" x="13.5" y="-653"/>
<text text-anchor="start" x="28.5" y="-644.2" font-family="Helvetica,sans-Serif" font-size="11.00">accessibility</text>
<polygon fill="#ffffff" stroke="transparent" points="8.5,-614 8.5,-636 243.5,-636 243.5,-614 8.5,-614"/>
<polygon fill="none" stroke="black" points="8.5,-614 8.5,-636 243.5,-636 243.5,-614 8.5,-614"/>
<text text-anchor="start" x="28.5" y="-622.2" font-family="Helvetica,sans-Serif" font-size="11.00">detail_geometry3d_geometry</text>
<polygon fill="none" stroke="black" points="8.5,-592 8.5,-614 243.5,-614 243.5,-592 8.5,-592"/>
<image xlink:href="../../images/foreignKeys.png" width="11px" height="12px" preserveAspectRatio="xMinYMin meet" x="13.5" y="-609"/>
<text text-anchor="start" x="28.5" y="-600.2" font-family="Helvetica,sans-Serif" font-size="11.00">elevation_determination</text>
<polygon fill="none" stroke="black" points="8.5,-570 8.5,-592 243.5,-592 243.5,-570 8.5,-570"/>
<image xlink:href="../../images/foreignKeys.png" width="11px" height="12px" preserveAspectRatio="xMinYMin meet" x="13.5" y="-587"/>
<text text-anchor="start" x="28.5" y="-578.2" font-family="Helvetica,sans-Serif" font-size="11.00">financing</text>
<polygon fill="#ffffff" stroke="transparent" points="8.5,-548 8.5,-570 243.5,-570 243.5,-548 8.5,-548"/>
<polygon fill="none" stroke="black" points="8.5,-548 8.5,-570 243.5,-570 243.5,-548 8.5,-548"/>
<text text-anchor="start" x="28.5" y="-556.2" font-family="Helvetica,sans-Serif" font-size="11.00">identifier</text>
<polygon fill="none" stroke="black" points="8.5,-526 8.5,-548 243.5,-548 243.5,-526 8.5,-526"/>
<image xlink:href="../../images/foreignKeys.png" width="11px" height="12px" preserveAspectRatio="xMinYMin meet" x="13.5" y="-543"/>
<text text-anchor="start" x="28.5" y="-534.2" font-family="Helvetica,sans-Serif" font-size="11.00">renovation_necessity</text>
<polygon fill="none" stroke="black" points="8.5,-504 8.5,-526 243.5,-526 243.5,-504 8.5,-504"/>
<image xlink:href="../../images/foreignKeys.png" width="11px" height="12px" preserveAspectRatio="xMinYMin meet" x="13.5" y="-521"/>
<text text-anchor="start" x="28.5" y="-512.2" font-family="Helvetica,sans-Serif" font-size="11.00">rv_construction_type</text>
<polygon fill="none" stroke="black" points="8.5,-482 8.5,-504 243.5,-504 243.5,-482 8.5,-482"/>
<image xlink:href="../../images/foreignKeys.png" width="11px" height="12px" preserveAspectRatio="xMinYMin meet" x="13.5" y="-499"/>
<text text-anchor="start" x="28.5" y="-490.2" font-family="Helvetica,sans-Serif" font-size="11.00">status</text>
<polygon fill="none" stroke="black" points="8.5,-460 8.5,-482 243.5,-482 243.5,-460 8.5,-460"/>
<image xlink:href="../../images/foreignKeys.png" width="11px" height="12px" preserveAspectRatio="xMinYMin meet" x="13.5" y="-477"/>
<text text-anchor="start" x="28.5" y="-468.2" font-family="Helvetica,sans-Serif" font-size="11.00">structure_condition</text>
<polygon fill="#ffffff" stroke="transparent" points="8.5,-438 8.5,-460 243.5,-460 243.5,-438 8.5,-438"/>
<polygon fill="none" stroke="black" points="8.5,-438 8.5,-460 243.5,-460 243.5,-438 8.5,-438"/>
<image xlink:href="../../images/foreignKeys.png" width="11px" height="12px" preserveAspectRatio="xMinYMin meet" x="13.5" y="-455"/>
<text text-anchor="start" x="28.5" y="-446.2" font-family="Helvetica,sans-Serif" font-size="11.00">fk_dataowner</text>
<polygon fill="none" stroke="black" points="8.5,-416 8.5,-438 243.5,-438 243.5,-416 8.5,-416"/>
<image xlink:href="../../images/foreignKeys.png" width="11px" height="12px" preserveAspectRatio="xMinYMin meet" x="13.5" y="-433"/>
<text text-anchor="start" x="28.5" y="-424.2" font-family="Helvetica,sans-Serif" font-size="11.00">fk_provider</text>
<polygon fill="none" stroke="black" points="8.5,-394 8.5,-416 243.5,-416 243.5,-394 8.5,-394"/>
<image xlink:href="../../images/foreignKeys.png" width="11px" height="12px" preserveAspectRatio="xMinYMin meet" x="13.5" y="-411"/>
<text text-anchor="start" x="28.5" y="-402.2" font-family="Helvetica,sans-Serif" font-size="11.00">fk_owner</text>
<polygon fill="none" stroke="black" points="8.5,-372 8.5,-394 243.5,-394 243.5,-372 8.5,-372"/>
<image xlink:href="../../images/foreignKeys.png" width="11px" height="12px" preserveAspectRatio="xMinYMin meet" x="13.5" y="-389"/>
<text text-anchor="start" x="28.5" y="-380.2" font-family="Helvetica,sans-Serif" font-size="11.00">fk_operator</text>
<polygon fill="none" stroke="black" points="8.5,-350 8.5,-372 243.5,-372 243.5,-350 8.5,-350"/>
<image xlink:href="../../images/foreignKeys.png" width="11px" height="12px" preserveAspectRatio="xMinYMin meet" x="13.5" y="-367"/>
<text text-anchor="start" x="28.5" y="-358.2" font-family="Helvetica,sans-Serif" font-size="11.00">fk_main_cover</text>
<polygon fill="none" stroke="black" points="8.5,-328 8.5,-350 243.5,-350 243.5,-328 8.5,-328"/>
<image xlink:href="../../images/foreignKeys.png" width="11px" height="12px" preserveAspectRatio="xMinYMin meet" x="13.5" y="-345"/>
<text text-anchor="start" x="28.5" y="-336.2" font-family="Helvetica,sans-Serif" font-size="11.00">fk_main_wastewater_node</text>
<polygon fill="none" stroke="black" points="8.5,-310 8.5,-328 243.5,-328 243.5,-310 8.5,-310"/>
<text text-anchor="start" x="11.5" y="-316.2" font-family="Helvetica,sans-Serif" font-size="11.00">...</text>
<polygon fill="#ffffff" stroke="transparent" points="8.5,-292 8.5,-310 243.5,-310 243.5,-292 8.5,-292"/>
<polygon fill="none" stroke="black" points="8.5,-292 8.5,-310 243.5,-310 243.5,-292 8.5,-292"/>
<polygon fill="#ffffff" stroke="transparent" points="9.5,-293 9.5,-309 93.5,-309 93.5,-293 9.5,-293"/>
<text text-anchor="start" x="11.5" y="-298.2" font-family="Helvetica,sans-Serif" font-size="11.00">&lt; 13</text>
<polygon fill="#ffffff" stroke="transparent" points="93.5,-293 93.5,-309 158.5,-309 158.5,-293 93.5,-293"/>
<text text-anchor="start" x="122" y="-298.2" font-family="Helvetica,sans-Serif" font-size="11.00"> &#160;</text>
<polygon fill="#ffffff" stroke="transparent" points="158.5,-293 158.5,-309 242.5,-309 242.5,-293 158.5,-293"/>
<text text-anchor="start" x="213.5" y="-298.2" font-family="Helvetica,sans-Serif" font-size="11.00">17 &gt;</text>
<polygon fill="black" stroke="black" points="93.5,-293 93.5,-309 93.5,-309 93.5,-293 93.5,-293"/>
<polygon fill="black" stroke="black" points="158.5,-293 158.5,-309 158.5,-309 158.5,-293 158.5,-293"/>
</a>
</g>
</g>
<!-- re_maintenance_event_wastewater_structure&#45;&gt;wastewater_structure -->
<g id="edge2" class="edge">
<title>re_maintenance_event_wastewater_structure:w&#45;&gt;wastewater_structure:e</title>
<path fill="none" stroke="black" d="M278.45,-466.16C215.32,-488.07 332.46,-669 244.5,-669"/>
<polygon fill="black" stroke="black" points="285.09,-465.18 293.53,-467.56 289.04,-464.59 293,-464 293,-464 293,-464 289.04,-464.59 292.47,-460.44 285.09,-465.18 285.09,-465.18"/>
<ellipse fill="none" stroke="black" cx="281.92" cy="-465.65" rx="3.2" ry="3.2"/>
</g>
</g>
</svg>
