<?xml version="1.0" encoding="UTF-8" standalone="no"?>
<!DOCTYPE svg PUBLIC "-//W3C//DTD SVG 1.1//EN"
 "http://www.w3.org/Graphics/SVG/1.1/DTD/svg11.dtd">
<!-- Generated by graphviz version 2.47.1 (20210515.0534)
 -->
<!-- Title: oneDegreeRelationshipsDiagram Pages: 1 -->
<svg width="875pt" height="720pt"
 viewBox="0.00 0.00 875.00 720.00" xmlns="http://www.w3.org/2000/svg" xmlns:xlink="http://www.w3.org/1999/xlink">
<g id="graph0" class="graph" transform="scale(1 1) rotate(0) translate(4 716)">
<title>oneDegreeRelationshipsDiagram</title>
<polygon fill="#ffffff" stroke="transparent" points="-4,4 -4,-716 871,-716 871,4 -4,4"/>
<text text-anchor="middle" x="73.5" y="-7.2" font-family="Helvetica,sans-Serif" font-size="11.00">Generated by SchemaSpy</text>
<!-- sludge_treatment -->
<g id="node1" class="node">
<title>sludge_treatment</title>
<g id="a_node1"><a xlink:href="../../tables/sludge_treatment.html" xlink:title="sludge_treatment" target="_top">
<polygon fill="#ffffff" stroke="transparent" points="528,-246 528,-708 859,-708 859,-246 528,-246"/>
<polygon fill="#f5f5f5" stroke="transparent" points="530.5,-684 530.5,-706 857.5,-706 857.5,-684 530.5,-684"/>
<polygon fill="none" stroke="black" points="530.5,-684 530.5,-706 857.5,-706 857.5,-684 530.5,-684"/>
<text text-anchor="start" x="535.5" y="-693.2" font-family="Helvetica,sans-Serif" font-weight="bold" font-size="11.00">sludge_treatment</text>
<text text-anchor="start" x="818.5" y="-692.2" font-family="Helvetica,sans-Serif" font-size="11.00">[table]</text>
<polygon fill="none" stroke="black" points="530.5,-662 530.5,-684 763.5,-684 763.5,-662 530.5,-662"/>
<image xlink:href="../../images/primaryKeys.png" width="11px" height="12px" preserveAspectRatio="xMinYMin meet" x="535.5" y="-679"/>
<text text-anchor="start" x="550.5" y="-670.2" font-family="Helvetica,sans-Serif" font-size="11.00">obj_id</text>
<polygon fill="none" stroke="black" points="763.5,-662 763.5,-684 857.5,-684 857.5,-662 763.5,-662"/>
<text text-anchor="start" x="766.5" y="-670.2" font-family="Helvetica,sans-Serif" font-size="11.00">varchar[16]</text>
<polygon fill="none" stroke="black" points="530.5,-640 530.5,-662 763.5,-662 763.5,-640 530.5,-640"/>
<text text-anchor="start" x="550.5" y="-648.2" font-family="Helvetica,sans-Serif" font-size="11.00">composting</text>
<polygon fill="none" stroke="black" points="763.5,-640 763.5,-662 857.5,-662 857.5,-640 763.5,-640"/>
<text text-anchor="start" x="766.5" y="-648.2" font-family="Helvetica,sans-Serif" font-size="11.00">numeric[7,2]</text>
<polygon fill="none" stroke="black" points="530.5,-618 530.5,-640 763.5,-640 763.5,-618 530.5,-618"/>
<text text-anchor="start" x="550.5" y="-626.2" font-family="Helvetica,sans-Serif" font-size="11.00">dehydration</text>
<polygon fill="none" stroke="black" points="763.5,-618 763.5,-640 857.5,-640 857.5,-618 763.5,-618"/>
<text text-anchor="start" x="766.5" y="-626.2" font-family="Helvetica,sans-Serif" font-size="11.00">numeric[7,2]</text>
<polygon fill="none" stroke="black" points="530.5,-596 530.5,-618 763.5,-618 763.5,-596 530.5,-596"/>
<text text-anchor="start" x="550.5" y="-604.2" font-family="Helvetica,sans-Serif" font-size="11.00">digested_sludge_combustion</text>
<polygon fill="none" stroke="black" points="763.5,-596 763.5,-618 857.5,-618 857.5,-596 763.5,-596"/>
<text text-anchor="start" x="766.5" y="-604.2" font-family="Helvetica,sans-Serif" font-size="11.00">numeric[7,2]</text>
<polygon fill="none" stroke="black" points="530.5,-574 530.5,-596 763.5,-596 763.5,-574 530.5,-574"/>
<text text-anchor="start" x="550.5" y="-582.2" font-family="Helvetica,sans-Serif" font-size="11.00">drying</text>
<polygon fill="none" stroke="black" points="763.5,-574 763.5,-596 857.5,-596 857.5,-574 763.5,-574"/>
<text text-anchor="start" x="766.5" y="-582.2" font-family="Helvetica,sans-Serif" font-size="11.00">numeric[7,2]</text>
<polygon fill="none" stroke="black" points="530.5,-552 530.5,-574 763.5,-574 763.5,-552 530.5,-552"/>
<text text-anchor="start" x="550.5" y="-560.2" font-family="Helvetica,sans-Serif" font-size="11.00">fresh_sludge_combustion</text>
<polygon fill="none" stroke="black" points="763.5,-552 763.5,-574 857.5,-574 857.5,-552 763.5,-552"/>
<text text-anchor="start" x="766.5" y="-560.2" font-family="Helvetica,sans-Serif" font-size="11.00">numeric[7,2]</text>
<polygon fill="none" stroke="black" points="530.5,-530 530.5,-552 763.5,-552 763.5,-530 530.5,-530"/>
<text text-anchor="start" x="550.5" y="-538.2" font-family="Helvetica,sans-Serif" font-size="11.00">hygenisation</text>
<polygon fill="none" stroke="black" points="763.5,-530 763.5,-552 857.5,-552 857.5,-530 763.5,-530"/>
<text text-anchor="start" x="766.5" y="-538.2" font-family="Helvetica,sans-Serif" font-size="11.00">numeric[7,2]</text>
<polygon fill="#ffffff" stroke="transparent" points="530.5,-508 530.5,-530 763.5,-530 763.5,-508 530.5,-508"/>
<polygon fill="none" stroke="black" points="530.5,-508 530.5,-530 763.5,-530 763.5,-508 530.5,-508"/>
<text text-anchor="start" x="550.5" y="-516.2" font-family="Helvetica,sans-Serif" font-size="11.00">identifier</text>
<polygon fill="none" stroke="black" points="763.5,-508 763.5,-530 857.5,-530 857.5,-508 763.5,-508"/>
<text text-anchor="start" x="766.5" y="-516.2" font-family="Helvetica,sans-Serif" font-size="11.00">text[2147483647]</text>
<polygon fill="none" stroke="black" points="530.5,-486 530.5,-508 763.5,-508 763.5,-486 530.5,-486"/>
<text text-anchor="start" x="550.5" y="-494.2" font-family="Helvetica,sans-Serif" font-size="11.00">predensification_of_excess_sludge</text>
<polygon fill="none" stroke="black" points="763.5,-486 763.5,-508 857.5,-508 857.5,-486 763.5,-486"/>
<text text-anchor="start" x="766.5" y="-494.2" font-family="Helvetica,sans-Serif" font-size="11.00">numeric[10,2]</text>
<polygon fill="none" stroke="black" points="530.5,-464 530.5,-486 763.5,-486 763.5,-464 530.5,-464"/>
<text text-anchor="start" x="550.5" y="-472.2" font-family="Helvetica,sans-Serif" font-size="11.00">predensification_of_mixed_sludge</text>
<polygon fill="none" stroke="black" points="763.5,-464 763.5,-486 857.5,-486 857.5,-464 763.5,-464"/>
<text text-anchor="start" x="766.5" y="-472.2" font-family="Helvetica,sans-Serif" font-size="11.00">numeric[10,2]</text>
<polygon fill="none" stroke="black" points="530.5,-442 530.5,-464 763.5,-464 763.5,-442 530.5,-442"/>
<text text-anchor="start" x="550.5" y="-450.2" font-family="Helvetica,sans-Serif" font-size="11.00">predensification_of_primary_sludge</text>
<polygon fill="none" stroke="black" points="763.5,-442 763.5,-464 857.5,-464 857.5,-442 763.5,-442"/>
<text text-anchor="start" x="766.5" y="-450.2" font-family="Helvetica,sans-Serif" font-size="11.00">numeric[10,2]</text>
<polygon fill="none" stroke="black" points="530.5,-420 530.5,-442 763.5,-442 763.5,-420 530.5,-420"/>
<text text-anchor="start" x="550.5" y="-428.2" font-family="Helvetica,sans-Serif" font-size="11.00">remark</text>
<polygon fill="none" stroke="black" points="763.5,-420 763.5,-442 857.5,-442 857.5,-420 763.5,-420"/>
<text text-anchor="start" x="766.5" y="-428.2" font-family="Helvetica,sans-Serif" font-size="11.00">text[2147483647]</text>
<polygon fill="none" stroke="black" points="530.5,-398 530.5,-420 763.5,-420 763.5,-398 530.5,-398"/>
<image xlink:href="../../images/foreignKeys.png" width="11px" height="12px" preserveAspectRatio="xMinYMin meet" x="535.5" y="-415"/>
<text text-anchor="start" x="550.5" y="-406.2" font-family="Helvetica,sans-Serif" font-size="11.00">stabilisation</text>
<polygon fill="none" stroke="black" points="763.5,-398 763.5,-420 857.5,-420 857.5,-398 763.5,-398"/>
<text text-anchor="start" x="766.5" y="-406.2" font-family="Helvetica,sans-Serif" font-size="11.00">int4[10]</text>
<polygon fill="none" stroke="black" points="530.5,-376 530.5,-398 763.5,-398 763.5,-376 530.5,-376"/>
<text text-anchor="start" x="550.5" y="-384.2" font-family="Helvetica,sans-Serif" font-size="11.00">stacking_of_dehydrated_sludge</text>
<polygon fill="none" stroke="black" points="763.5,-376 763.5,-398 857.5,-398 857.5,-376 763.5,-376"/>
<text text-anchor="start" x="766.5" y="-384.2" font-family="Helvetica,sans-Serif" font-size="11.00">numeric[10,2]</text>
<polygon fill="none" stroke="black" points="530.5,-354 530.5,-376 763.5,-376 763.5,-354 530.5,-354"/>
<text text-anchor="start" x="550.5" y="-362.2" font-family="Helvetica,sans-Serif" font-size="11.00">stacking_of_liquid_sludge</text>
<polygon fill="none" stroke="black" points="763.5,-354 763.5,-376 857.5,-376 857.5,-354 763.5,-354"/>
<text text-anchor="start" x="766.5" y="-362.2" font-family="Helvetica,sans-Serif" font-size="11.00">numeric[10,2]</text>
<polygon fill="none" stroke="black" points="530.5,-332 530.5,-354 763.5,-354 763.5,-332 530.5,-332"/>
<text text-anchor="start" x="550.5" y="-340.2" font-family="Helvetica,sans-Serif" font-size="11.00">last_modification</text>
<polygon fill="none" stroke="black" points="763.5,-332 763.5,-354 857.5,-354 857.5,-332 763.5,-332"/>
<text text-anchor="start" x="766.5" y="-340.2" font-family="Helvetica,sans-Serif" font-size="11.00">timestamp[29,6]</text>
<polygon fill="#ffffff" stroke="transparent" points="530.5,-310 530.5,-332 763.5,-332 763.5,-310 530.5,-310"/>
<polygon fill="none" stroke="black" points="530.5,-310 530.5,-332 763.5,-332 763.5,-310 530.5,-310"/>
<image xlink:href="../../images/foreignKeys.png" width="11px" height="12px" preserveAspectRatio="xMinYMin meet" x="535.5" y="-327"/>
<text text-anchor="start" x="550.5" y="-318.2" font-family="Helvetica,sans-Serif" font-size="11.00">fk_dataowner</text>
<polygon fill="none" stroke="black" points="763.5,-310 763.5,-332 857.5,-332 857.5,-310 763.5,-310"/>
<text text-anchor="start" x="766.5" y="-318.2" font-family="Helvetica,sans-Serif" font-size="11.00">varchar[16]</text>
<polygon fill="none" stroke="black" points="530.5,-288 530.5,-310 763.5,-310 763.5,-288 530.5,-288"/>
<image xlink:href="../../images/foreignKeys.png" width="11px" height="12px" preserveAspectRatio="xMinYMin meet" x="535.5" y="-305"/>
<text text-anchor="start" x="550.5" y="-296.2" font-family="Helvetica,sans-Serif" font-size="11.00">fk_provider</text>
<polygon fill="none" stroke="black" points="763.5,-288 763.5,-310 857.5,-310 857.5,-288 763.5,-288"/>
<text text-anchor="start" x="766.5" y="-296.2" font-family="Helvetica,sans-Serif" font-size="11.00">varchar[16]</text>
<polygon fill="none" stroke="black" points="530.5,-266 530.5,-288 763.5,-288 763.5,-266 530.5,-266"/>
<image xlink:href="../../images/foreignKeys.png" width="11px" height="12px" preserveAspectRatio="xMinYMin meet" x="535.5" y="-283"/>
<text text-anchor="start" x="550.5" y="-274.2" font-family="Helvetica,sans-Serif" font-size="11.00">fk_waste_water_treatment_plant</text>
<polygon fill="none" stroke="black" points="763.5,-266 763.5,-288 857.5,-288 857.5,-266 763.5,-266"/>
<text text-anchor="start" x="766.5" y="-274.2" font-family="Helvetica,sans-Serif" font-size="11.00">varchar[16]</text>
<polygon fill="#ffffff" stroke="transparent" points="530.5,-248 530.5,-266 651.5,-266 651.5,-248 530.5,-248"/>
<polygon fill="none" stroke="black" points="530.5,-248 530.5,-266 651.5,-266 651.5,-248 530.5,-248"/>
<text text-anchor="start" x="533.5" y="-254.2" font-family="Helvetica,sans-Serif" font-size="11.00">&lt; 4</text>
<polygon fill="#ffffff" stroke="transparent" points="651.5,-248 651.5,-266 763.5,-266 763.5,-248 651.5,-248"/>
<polygon fill="none" stroke="black" points="651.5,-248 651.5,-266 763.5,-266 763.5,-248 651.5,-248"/>
<text text-anchor="start" x="753.5" y="-254.2" font-family="Helvetica,sans-Serif" font-size="11.00"> &#160;</text>
<polygon fill="#ffffff" stroke="transparent" points="763.5,-248 763.5,-266 857.5,-266 857.5,-248 763.5,-248"/>
<polygon fill="none" stroke="black" points="763.5,-248 763.5,-266 857.5,-266 857.5,-248 763.5,-248"/>
<text text-anchor="start" x="838.5" y="-254.2" font-family="Helvetica,sans-Serif" font-size="11.00">0 &gt;</text>
<polygon fill="none" stroke="black" stroke-width="2" points="529,-247 529,-707 858,-707 858,-247 529,-247"/>
</a>
</g>
</g>
<!-- organisation -->
<g id="node2" class="node">
<title>organisation</title>
<g id="a_node2"><a xlink:href="../../tables/organisation.html" xlink:title="organisation" target="_top">
<polygon fill="#ffffff" stroke="transparent" points="8,-37 8,-249 156,-249 156,-37 8,-37"/>
<polygon fill="#f5f5f5" stroke="transparent" points="8,-227 8,-249 156,-249 156,-227 8,-227"/>
<polygon fill="none" stroke="black" points="8,-227 8,-249 156,-249 156,-227 8,-227"/>
<text text-anchor="start" x="13" y="-236.2" font-family="Helvetica,sans-Serif" font-weight="bold" font-size="11.00">organisation</text>
<text text-anchor="start" x="117" y="-235.2" font-family="Helvetica,sans-Serif" font-size="11.00">[table]</text>
<polygon fill="none" stroke="black" points="8,-205 8,-227 156,-227 156,-205 8,-205"/>
<image xlink:href="../../images/primaryKeys.png" width="11px" height="12px" preserveAspectRatio="xMinYMin meet" x="13" y="-222"/>
<text text-anchor="start" x="28" y="-213.2" font-family="Helvetica,sans-Serif" font-size="11.00">obj_id</text>
<polygon fill="#ffffff" stroke="transparent" points="8,-183 8,-205 156,-205 156,-183 8,-183"/>
<polygon fill="none" stroke="black" points="8,-183 8,-205 156,-205 156,-183 8,-183"/>
<text text-anchor="start" x="28" y="-191.2" font-family="Helvetica,sans-Serif" font-size="11.00">identifier</text>
<polygon fill="#ffffff" stroke="transparent" points="8,-161 8,-183 156,-183 156,-161 8,-161"/>
<polygon fill="none" stroke="black" points="8,-161 8,-183 156,-183 156,-161 8,-161"/>
<image xlink:href="../../images/foreignKeys.png" width="11px" height="12px" preserveAspectRatio="xMinYMin meet" x="13" y="-178"/>
<text text-anchor="start" x="28" y="-169.2" font-family="Helvetica,sans-Serif" font-size="11.00">organisation_type</text>
<polygon fill="none" stroke="black" points="8,-139 8,-161 156,-161 156,-139 8,-139"/>
<image xlink:href="../../images/foreignKeys.png" width="11px" height="12px" preserveAspectRatio="xMinYMin meet" x="13" y="-156"/>
<text text-anchor="start" x="28" y="-147.2" font-family="Helvetica,sans-Serif" font-size="11.00">status</text>
<polygon fill="#ffffff" stroke="transparent" points="8,-117 8,-139 156,-139 156,-117 8,-117"/>
<polygon fill="none" stroke="black" points="8,-117 8,-139 156,-139 156,-117 8,-117"/>
<text text-anchor="start" x="28" y="-125.2" font-family="Helvetica,sans-Serif" font-size="11.00">uid</text>
<polygon fill="none" stroke="black" points="8,-95 8,-117 156,-117 156,-95 8,-95"/>
<image xlink:href="../../images/foreignKeys.png" width="11px" height="12px" preserveAspectRatio="xMinYMin meet" x="13" y="-112"/>
<text text-anchor="start" x="28" y="-103.2" font-family="Helvetica,sans-Serif" font-size="11.00">fk_dataowner</text>
<polygon fill="none" stroke="black" points="8,-73 8,-95 156,-95 156,-73 8,-73"/>
<image xlink:href="../../images/foreignKeys.png" width="11px" height="12px" preserveAspectRatio="xMinYMin meet" x="13" y="-90"/>
<text text-anchor="start" x="28" y="-81.2" font-family="Helvetica,sans-Serif" font-size="11.00">fk_provider</text>
<polygon fill="none" stroke="black" points="8,-55 8,-73 156,-73 156,-55 8,-55"/>
<text text-anchor="start" x="11" y="-61.2" font-family="Helvetica,sans-Serif" font-size="11.00">...</text>
<polygon fill="#ffffff" stroke="transparent" points="8,-37 8,-55 69,-55 69,-37 8,-37"/>
<polygon fill="none" stroke="black" points="8,-37 8,-55 69,-55 69,-37 8,-37"/>
<text text-anchor="start" x="11" y="-43.2" font-family="Helvetica,sans-Serif" font-size="11.00">&lt; 4</text>
<polygon fill="#ffffff" stroke="transparent" points="69,-37 69,-55 102,-55 102,-37 69,-37"/>
<polygon fill="none" stroke="black" points="69,-37 69,-55 102,-55 102,-37 69,-37"/>
<text text-anchor="start" x="92" y="-43.2" font-family="Helvetica,sans-Serif" font-size="11.00"> &#160;</text>
<polygon fill="#ffffff" stroke="transparent" points="102,-37 102,-55 156,-55 156,-37 102,-37"/>
<polygon fill="none" stroke="black" points="102,-37 102,-55 156,-55 156,-37 102,-37"/>
<text text-anchor="start" x="125" y="-43.2" font-family="Helvetica,sans-Serif" font-size="11.00">101 &gt;</text>
</a>
</g>
</g>
<!-- sludge_treatment&#45;&gt;organisation -->
<g id="edge1" class="edge">
<title>sludge_treatment:w&#45;&gt;organisation:e</title>
<path fill="none" stroke="black" d="M515.05,-321.23C377.4,-325.58 314.97,-389.76 197,-309 159.87,-283.58 201.99,-216 157,-216"/>
<polygon fill="black" stroke="black" points="521.5,-321.13 529.56,-324.6 525.5,-321.06 529.5,-321 529.5,-321 529.5,-321 525.5,-321.06 529.44,-317.4 521.5,-321.13 521.5,-321.13"/>
<ellipse fill="none" stroke="black" cx="518.3" cy="-321.18" rx="3.2" ry="3.2"/>
</g>
<!-- sludge_treatment&#45;&gt;organisation -->
<g id="edge2" class="edge">
<title>sludge_treatment:w&#45;&gt;organisation:e</title>
<path fill="none" stroke="black" d="M515.05,-299.25C432.75,-301.8 256.45,-322.07 197,-286 166.37,-267.41 192.83,-216 157,-216"/>
<polygon fill="black" stroke="black" points="521.5,-299.14 529.56,-302.6 525.5,-299.07 529.5,-299 529.5,-299 529.5,-299 525.5,-299.07 529.44,-295.4 521.5,-299.14 521.5,-299.14"/>
<ellipse fill="none" stroke="black" cx="518.3" cy="-299.19" rx="3.2" ry="3.2"/>
</g>
<!-- waste_water_treatment_plant -->
<g id="node3" class="node">
<title>waste_water_treatment_plant</title>
<g id="a_node3"><a xlink:href="../../tables/waste_water_treatment_plant.html" xlink:title="waste_water_treatment_plant" target="_top">
<polygon fill="#ffffff" stroke="transparent" points="230.5,-63 230.5,-275 453.5,-275 453.5,-63 230.5,-63"/>
<polygon fill="#f5f5f5" stroke="transparent" points="231,-253 231,-275 454,-275 454,-253 231,-253"/>
<polygon fill="none" stroke="black" points="231,-253 231,-275 454,-275 454,-253 231,-253"/>
<text text-anchor="start" x="236" y="-262.2" font-family="Helvetica,sans-Serif" font-weight="bold" font-size="11.00">waste_water_treatment_plant</text>
<text text-anchor="start" x="415" y="-261.2" font-family="Helvetica,sans-Serif" font-size="11.00">[table]</text>
<polygon fill="none" stroke="black" points="231,-231 231,-253 454,-253 454,-231 231,-231"/>
<image xlink:href="../../images/primaryKeys.png" width="11px" height="12px" preserveAspectRatio="xMinYMin meet" x="236" y="-248"/>
<text text-anchor="start" x="263" y="-239.2" font-family="Helvetica,sans-Serif" font-size="11.00">obj_id</text>
<polygon fill="#ffffff" stroke="transparent" points="231,-209 231,-231 454,-231 454,-209 231,-209"/>
<polygon fill="none" stroke="black" points="231,-209 231,-231 454,-231 454,-209 231,-209"/>
<text text-anchor="start" x="263" y="-217.2" font-family="Helvetica,sans-Serif" font-size="11.00">area_geometry</text>
<polygon fill="#ffffff" stroke="transparent" points="231,-187 231,-209 454,-209 454,-187 231,-187"/>
<polygon fill="none" stroke="black" points="231,-187 231,-209 454,-209 454,-187 231,-187"/>
<text text-anchor="start" x="263" y="-195.2" font-family="Helvetica,sans-Serif" font-size="11.00">identifier</text>
<polygon fill="none" stroke="black" points="231,-165 231,-187 454,-187 454,-165 231,-165"/>
<image xlink:href="../../images/foreignKeys.png" width="11px" height="12px" preserveAspectRatio="xMinYMin meet" x="236" y="-182"/>
<text text-anchor="start" x="263" y="-173.2" font-family="Helvetica,sans-Serif" font-size="11.00">operator_type</text>
<polygon fill="#ffffff" stroke="transparent" points="231,-143 231,-165 454,-165 454,-143 231,-143"/>
<polygon fill="none" stroke="black" points="231,-143 231,-165 454,-165 454,-143 231,-143"/>
<text text-anchor="start" x="263" y="-151.2" font-family="Helvetica,sans-Serif" font-size="11.00">situation_geometry</text>
<polygon fill="#ffffff" stroke="transparent" points="231,-121 231,-143 454,-143 454,-121 231,-121"/>
<polygon fill="none" stroke="black" points="231,-121 231,-143 454,-143 454,-121 231,-121"/>
<image xlink:href="../../images/foreignKeys.png" width="11px" height="12px" preserveAspectRatio="xMinYMin meet" x="236" y="-138"/>
<text text-anchor="start" x="263" y="-129.2" font-family="Helvetica,sans-Serif" font-size="11.00">fk_dataowner</text>
<polygon fill="none" stroke="black" points="231,-99 231,-121 454,-121 454,-99 231,-99"/>
<image xlink:href="../../images/foreignKeys.png" width="11px" height="12px" preserveAspectRatio="xMinYMin meet" x="236" y="-116"/>
<text text-anchor="start" x="263" y="-107.2" font-family="Helvetica,sans-Serif" font-size="11.00">fk_provider</text>
<polygon fill="none" stroke="black" points="231,-81 231,-99 454,-99 454,-81 231,-81"/>
<text text-anchor="start" x="234" y="-87.2" font-family="Helvetica,sans-Serif" font-size="11.00">...</text>
<polygon fill="#ffffff" stroke="transparent" points="231,-63 231,-81 336,-81 336,-63 231,-63"/>
<polygon fill="none" stroke="black" points="231,-63 231,-81 336,-81 336,-63 231,-63"/>
<text text-anchor="start" x="234" y="-69.2" font-family="Helvetica,sans-Serif" font-size="11.00">&lt; 3</text>
<polygon fill="#ffffff" stroke="transparent" points="336,-63 336,-81 390,-81 390,-63 336,-63"/>
<polygon fill="none" stroke="black" points="336,-63 336,-81 390,-81 390,-63 336,-63"/>
<text text-anchor="start" x="380" y="-69.2" font-family="Helvetica,sans-Serif" font-size="11.00"> &#160;</text>
<polygon fill="#ffffff" stroke="transparent" points="390,-63 390,-81 454,-81 454,-63 390,-63"/>
<polygon fill="none" stroke="black" points="390,-63 390,-81 454,-81 454,-63 390,-63"/>
<text text-anchor="start" x="435" y="-69.2" font-family="Helvetica,sans-Serif" font-size="11.00">5 &gt;</text>
</a>
</g>
</g>
<!-- sludge_treatment&#45;&gt;waste_water_treatment_plant -->
<g id="edge3" class="edge">
<title>sludge_treatment:w&#45;&gt;waste_water_treatment_plant:e</title>
<path fill="none" stroke="black" d="M514.99,-274.81C491.69,-267.15 486.01,-242 455,-242"/>
<polygon fill="black" stroke="black" points="521.59,-275.81 528.96,-280.56 525.54,-276.4 529.5,-277 529.5,-277 529.5,-277 525.54,-276.4 530.04,-273.44 521.59,-275.81 521.59,-275.81"/>
<ellipse fill="none" stroke="black" cx="518.43" cy="-275.33" rx="3.2" ry="3.2"/>
</g>
<!-- tww_vl.sludge_treatment_stabilisation -->
<g id="node4" class="node">
<title>tww_vl.sludge_treatment_stabilisation</title>
<g id="a_node4"><a xlink:href="../../../tww_vl/tables/sludge_treatment_stabilisation.html" xlink:title="tww_vl.sludge_treatment_stabilisation" target="_top">
<polygon fill="#ffffff" stroke="transparent" points="205,-380 205,-438 479,-438 479,-380 205,-380"/>
<polygon fill="#f5f5f5" stroke="transparent" points="205,-416 205,-438 479,-438 479,-416 205,-416"/>
<polygon fill="none" stroke="black" points="205,-416 205,-438 479,-438 479,-416 205,-416"/>
<text text-anchor="start" x="210" y="-425.2" font-family="Helvetica,sans-Serif" font-weight="bold" font-size="11.00">tww_vl.sludge_treatment_stabilisation</text>
<text text-anchor="start" x="440" y="-424.2" font-family="Helvetica,sans-Serif" font-size="11.00">[table]</text>
<polygon fill="none" stroke="black" points="205,-398 205,-416 479,-416 479,-398 205,-398"/>
<text text-anchor="start" x="208" y="-404.2" font-family="Helvetica,sans-Serif" font-size="11.00">...</text>
<polygon fill="#ffffff" stroke="transparent" points="205,-380 205,-398 317,-398 317,-380 205,-380"/>
<polygon fill="none" stroke="black" points="205,-380 205,-398 317,-398 317,-380 205,-380"/>
<text text-anchor="start" x="208" y="-386.2" font-family="Helvetica,sans-Serif" font-size="11.00"> &#160;</text>
<polygon fill="#ffffff" stroke="transparent" points="317,-380 317,-398 407,-398 407,-380 317,-380"/>
<polygon fill="none" stroke="black" points="317,-380 317,-398 407,-398 407,-380 317,-380"/>
<text text-anchor="start" x="370" y="-386.2" font-family="Helvetica,sans-Serif" font-size="11.00">0 rows</text>
<polygon fill="#ffffff" stroke="transparent" points="407,-380 407,-398 479,-398 479,-380 407,-380"/>
<polygon fill="none" stroke="black" points="407,-380 407,-398 479,-398 479,-380 407,-380"/>
<text text-anchor="start" x="460" y="-386.2" font-family="Helvetica,sans-Serif" font-size="11.00">1 &gt;</text>
</a>
</g>
</g>
<!-- sludge_treatment&#45;&gt;tww_vl.sludge_treatment_stabilisation -->
<g id="edge4" class="edge">
<title>sludge_treatment:w&#45;&gt;tww_vl.sludge_treatment_stabilisation:e</title>
<path fill="none" stroke="black" d="M514.8,-409C505.66,-409 496.37,-409 487.07,-409"/>
<polygon fill="black" stroke="black" points="521.5,-409 529.5,-412.6 525.5,-409 529.5,-409 529.5,-409 529.5,-409 525.5,-409 529.5,-405.4 521.5,-409 521.5,-409"/>
<ellipse fill="none" stroke="black" cx="518.3" cy="-409" rx="3.2" ry="3.2"/>
</g>
<!-- waste_water_treatment_plant&#45;&gt;organisation -->
<g id="edge5" class="edge">
<title>waste_water_treatment_plant:w&#45;&gt;organisation:e</title>
<path fill="none" stroke="black" d="M215.87,-134.99C185.44,-149.95 200.86,-216 157,-216"/>
<polygon fill="black" stroke="black" points="222.17,-133.66 230.75,-135.52 226.09,-132.83 230,-132 230,-132 230,-132 226.09,-132.83 229.25,-128.48 222.17,-133.66 222.17,-133.66"/>
<ellipse fill="none" stroke="black" cx="219.04" cy="-134.32" rx="3.2" ry="3.2"/>
</g>
<!-- waste_water_treatment_plant&#45;&gt;organisation -->
<g id="edge6" class="edge">
<title>waste_water_treatment_plant:w&#45;&gt;organisation:e</title>
<path fill="none" stroke="black" d="M215.88,-112.84C179.94,-129.69 208.62,-216 157,-216"/>
<polygon fill="black" stroke="black" points="222.16,-111.57 230.71,-113.53 226.08,-110.79 230,-110 230,-110 230,-110 226.08,-110.79 229.29,-106.47 222.16,-111.57 222.16,-111.57"/>
<ellipse fill="none" stroke="black" cx="219.02" cy="-112.2" rx="3.2" ry="3.2"/>
</g>
</g>
</svg>
