<?xml version="1.0" encoding="UTF-8" standalone="no"?>
<!DOCTYPE svg PUBLIC "-//W3C//DTD SVG 1.1//EN"
 "http://www.w3.org/Graphics/SVG/1.1/DTD/svg11.dtd">
<!-- Generated by graphviz version 2.43.0 (0)
 -->
<!-- Title: oneDegreeRelationshipsDiagram Pages: 1 -->
<svg width="591pt" height="318pt"
 viewBox="0.00 0.00 591.00 318.00" xmlns="http://www.w3.org/2000/svg" xmlns:xlink="http://www.w3.org/1999/xlink">
<g id="graph0" class="graph" transform="scale(1 1) rotate(0) translate(4 314)">
<title>oneDegreeRelationshipsDiagram</title>
<polygon fill="#ffffff" stroke="transparent" points="-4,4 -4,-314 587,-314 587,4 -4,4"/>
<text text-anchor="middle" x="79.5" y="-7.2" font-family="Helvetica,sans-Serif" font-size="11.00">Generated by SchemaSpy</text>
<!-- solids_retention -->
<g id="node1" class="node">
<title>solids_retention</title>
<g id="a_node1"><a xlink:href="../../tables/solids_retention.html" xlink:title="solids_retention" target="_top">
<polygon fill="#ffffff" stroke="transparent" points="314,-61 314,-237 575,-237 575,-61 314,-61"/>
<polygon fill="#f5f5f5" stroke="transparent" points="316.5,-213 316.5,-235 573.5,-235 573.5,-213 316.5,-213"/>
<polygon fill="none" stroke="black" points="316.5,-213 316.5,-235 573.5,-235 573.5,-213 316.5,-213"/>
<text text-anchor="start" x="321.5" y="-222.2" font-family="Helvetica,sans-Serif" font-weight="bold" font-size="11.00">solids_retention</text>
<text text-anchor="start" x="531.5" y="-221.2" font-family="Helvetica,sans-Serif" font-size="11.00">[table]</text>
<polygon fill="none" stroke="black" points="316.5,-191 316.5,-213 489.5,-213 489.5,-191 316.5,-191"/>
<image xlink:href="../../images/primaryKeys.png" width="11px" height="12px" preserveAspectRatio="xMinYMin meet" x="321.5" y="-208"/>
<text text-anchor="start" x="336.5" y="-199.2" font-family="Helvetica,sans-Serif" font-size="11.00">obj_id</text>
<polygon fill="none" stroke="black" points="489.5,-191 489.5,-213 573.5,-213 573.5,-191 489.5,-191"/>
<text text-anchor="start" x="492.5" y="-199.2" font-family="Helvetica,sans-Serif" font-size="11.00">varchar[16]</text>
<polygon fill="none" stroke="black" points="316.5,-169 316.5,-191 489.5,-191 489.5,-169 316.5,-169"/>
<text text-anchor="start" x="336.5" y="-177.2" font-family="Helvetica,sans-Serif" font-size="11.00">dimensioning_value</text>
<polygon fill="none" stroke="black" points="489.5,-169 489.5,-191 573.5,-191 573.5,-169 489.5,-169"/>
<text text-anchor="start" x="492.5" y="-177.2" font-family="Helvetica,sans-Serif" font-size="11.00">numeric[9,3]</text>
<polygon fill="none" stroke="black" points="316.5,-147 316.5,-169 489.5,-169 489.5,-147 316.5,-147"/>
<text text-anchor="start" x="336.5" y="-155.2" font-family="Helvetica,sans-Serif" font-size="11.00">gross_costs</text>
<polygon fill="none" stroke="black" points="489.5,-147 489.5,-169 573.5,-169 573.5,-147 489.5,-147"/>
<text text-anchor="start" x="492.5" y="-155.2" font-family="Helvetica,sans-Serif" font-size="11.00">numeric[10,2]</text>
<polygon fill="none" stroke="black" points="316.5,-125 316.5,-147 489.5,-147 489.5,-125 316.5,-125"/>
<image xlink:href="../../images/foreignKeys.png" width="11px" height="12px" preserveAspectRatio="xMinYMin meet" x="321.5" y="-142"/>
<text text-anchor="start" x="336.5" y="-133.2" font-family="Helvetica,sans-Serif" font-size="11.00">kind</text>
<polygon fill="none" stroke="black" points="489.5,-125 489.5,-147 573.5,-147 573.5,-125 489.5,-125"/>
<text text-anchor="start" x="492.5" y="-133.2" font-family="Helvetica,sans-Serif" font-size="11.00">int4[10]</text>
<polygon fill="none" stroke="black" points="316.5,-103 316.5,-125 489.5,-125 489.5,-103 316.5,-103"/>
<text text-anchor="start" x="336.5" y="-111.2" font-family="Helvetica,sans-Serif" font-size="11.00">overflow_level</text>
<polygon fill="none" stroke="black" points="489.5,-103 489.5,-125 573.5,-125 573.5,-103 489.5,-103"/>
<text text-anchor="start" x="492.5" y="-111.2" font-family="Helvetica,sans-Serif" font-size="11.00">numeric[7,3]</text>
<polygon fill="none" stroke="black" points="316.5,-81 316.5,-103 489.5,-103 489.5,-81 316.5,-81"/>
<text text-anchor="start" x="336.5" y="-89.2" font-family="Helvetica,sans-Serif" font-size="11.00">year_of_replacement</text>
<polygon fill="none" stroke="black" points="489.5,-81 489.5,-103 573.5,-103 573.5,-81 489.5,-81"/>
<text text-anchor="start" x="492.5" y="-89.2" font-family="Helvetica,sans-Serif" font-size="11.00">int2[5]</text>
<polygon fill="#ffffff" stroke="transparent" points="316.5,-63 316.5,-81 573.5,-81 573.5,-63 316.5,-63"/>
<polygon fill="none" stroke="black" points="316.5,-63 316.5,-81 573.5,-81 573.5,-63 316.5,-63"/>
<polygon fill="#ffffff" stroke="transparent" points="317.5,-64 317.5,-80 406.5,-80 406.5,-64 317.5,-64"/>
<text text-anchor="start" x="319.5" y="-69.2" font-family="Helvetica,sans-Serif" font-size="11.00">&lt; 2</text>
<polygon fill="#ffffff" stroke="transparent" points="406.5,-64 406.5,-80 483.5,-80 483.5,-64 406.5,-64"/>
<text text-anchor="start" x="441" y="-69.2" font-family="Helvetica,sans-Serif" font-size="11.00"> &#160;</text>
<polygon fill="#ffffff" stroke="transparent" points="483.5,-64 483.5,-80 572.5,-80 572.5,-64 483.5,-64"/>
<text text-anchor="start" x="550.5" y="-69.2" font-family="Helvetica,sans-Serif" font-size="11.00">0 &gt;</text>
<polygon fill="black" stroke="black" points="406.5,-64 406.5,-80 406.5,-80 406.5,-64 406.5,-64"/>
<polygon fill="black" stroke="black" points="483.5,-64 483.5,-80 483.5,-80 483.5,-64 483.5,-64"/>
<polygon fill="none" stroke="black" stroke-width="2" points="315,-62 315,-236 574,-236 574,-62 315,-62"/>
</a>
</g>
</g>
<!-- tww_vl.solids_retention_kind -->
<g id="node2" class="node">
<title>tww_vl.solids_retention_kind</title>
<g id="a_node2"><a xlink:href="../../../tww_vl/tables/solids_retention_kind.html" xlink:title="tww_vl.solids_retention_kind" target="_top">
<polygon fill="#ffffff" stroke="transparent" points="8,-37 8,-95 265,-95 265,-37 8,-37"/>
<polygon fill="#f5f5f5" stroke="transparent" points="8.5,-73 8.5,-95 265.5,-95 265.5,-73 8.5,-73"/>
<polygon fill="none" stroke="black" points="8.5,-73 8.5,-95 265.5,-95 265.5,-73 8.5,-73"/>
<text text-anchor="start" x="13.5" y="-82.2" font-family="Helvetica,sans-Serif" font-weight="bold" font-size="11.00">tww_vl.solids_retention_kind</text>
<text text-anchor="start" x="223.5" y="-81.2" font-family="Helvetica,sans-Serif" font-size="11.00">[table]</text>
<polygon fill="none" stroke="black" points="8.5,-55 8.5,-73 265.5,-73 265.5,-55 8.5,-55"/>
<text text-anchor="start" x="11.5" y="-61.2" font-family="Helvetica,sans-Serif" font-size="11.00">...</text>
<polygon fill="#ffffff" stroke="transparent" points="8.5,-37 8.5,-55 265.5,-55 265.5,-37 8.5,-37"/>
<polygon fill="none" stroke="black" points="8.5,-37 8.5,-55 265.5,-55 265.5,-37 8.5,-37"/>
<polygon fill="#ffffff" stroke="transparent" points="9.5,-38 9.5,-54 81.5,-54 81.5,-38 9.5,-38"/>
<text text-anchor="start" x="11.5" y="-43.2" font-family="Helvetica,sans-Serif" font-size="11.00"> &#160;</text>
<polygon fill="#ffffff" stroke="transparent" points="81.5,-38 81.5,-54 181.5,-54 181.5,-38 81.5,-38"/>
<text text-anchor="start" x="113" y="-43.2" font-family="Helvetica,sans-Serif" font-size="11.00">0 rows</text>
<polygon fill="#ffffff" stroke="transparent" points="181.5,-38 181.5,-54 264.5,-54 264.5,-38 181.5,-38"/>
<text text-anchor="start" x="242.5" y="-43.2" font-family="Helvetica,sans-Serif" font-size="11.00">1 &gt;</text>
<polygon fill="black" stroke="black" points="81.5,-38 81.5,-54 81.5,-54 81.5,-38 81.5,-38"/>
<polygon fill="black" stroke="black" points="181.5,-38 181.5,-54 181.5,-54 181.5,-38 181.5,-38"/>
</a>
</g>
</g>
<!-- solids_retention&#45;&gt;tww_vl.solids_retention_kind -->
<g id="edge1" class="edge">
<title>solids_retention:w&#45;&gt;tww_vl.solids_retention_kind:e</title>
<path fill="none" stroke="black" d="M301.31,-132.2C291.5,-125.73 288.42,-112.55 273,-105 268.82,-102.96 264.52,-101 260.13,-99.13"/>
<polygon fill="black" stroke="black" points="307.77,-133.93 314.57,-139.48 311.64,-134.96 315.5,-136 315.5,-136 315.5,-136 311.64,-134.96 316.43,-132.52 307.77,-133.93 307.77,-133.93"/>
<ellipse fill="none" stroke="black" cx="304.68" cy="-133.1" rx="3.2" ry="3.2"/>
</g>
<!-- structure_part -->
<g id="node3" class="node">
<title>structure_part</title>
<g id="a_node3"><a xlink:href="../../tables/structure_part.html" xlink:title="structure_part" target="_top">
<polygon fill="#ffffff" stroke="transparent" points="35.5,-116 35.5,-306 237.5,-306 237.5,-116 35.5,-116"/>
<polygon fill="#f5f5f5" stroke="transparent" points="35.5,-284 35.5,-306 237.5,-306 237.5,-284 35.5,-284"/>
<polygon fill="none" stroke="black" points="35.5,-284 35.5,-306 237.5,-306 237.5,-284 35.5,-284"/>
<text text-anchor="start" x="40.5" y="-293.2" font-family="Helvetica,sans-Serif" font-weight="bold" font-size="11.00">structure_part</text>
<text text-anchor="start" x="195.5" y="-292.2" font-family="Helvetica,sans-Serif" font-size="11.00">[table]</text>
<polygon fill="none" stroke="black" points="35.5,-262 35.5,-284 237.5,-284 237.5,-262 35.5,-262"/>
<image xlink:href="../../images/primaryKeys.png" width="11px" height="12px" preserveAspectRatio="xMinYMin meet" x="40.5" y="-279"/>
<text text-anchor="start" x="55.5" y="-270.2" font-family="Helvetica,sans-Serif" font-size="11.00">obj_id</text>
<polygon fill="#ffffff" stroke="transparent" points="35.5,-240 35.5,-262 237.5,-262 237.5,-240 35.5,-240"/>
<polygon fill="none" stroke="black" points="35.5,-240 35.5,-262 237.5,-262 237.5,-240 35.5,-240"/>
<text text-anchor="start" x="55.5" y="-248.2" font-family="Helvetica,sans-Serif" font-size="11.00">identifier</text>
<polygon fill="none" stroke="black" points="35.5,-218 35.5,-240 237.5,-240 237.5,-218 35.5,-218"/>
<image xlink:href="../../images/foreignKeys.png" width="11px" height="12px" preserveAspectRatio="xMinYMin meet" x="40.5" y="-235"/>
<text text-anchor="start" x="55.5" y="-226.2" font-family="Helvetica,sans-Serif" font-size="11.00">renovation_demand</text>
<polygon fill="#ffffff" stroke="transparent" points="35.5,-196 35.5,-218 237.5,-218 237.5,-196 35.5,-196"/>
<polygon fill="none" stroke="black" points="35.5,-196 35.5,-218 237.5,-218 237.5,-196 35.5,-196"/>
<image xlink:href="../../images/foreignKeys.png" width="11px" height="12px" preserveAspectRatio="xMinYMin meet" x="40.5" y="-213"/>
<text text-anchor="start" x="55.5" y="-204.2" font-family="Helvetica,sans-Serif" font-size="11.00">fk_dataowner</text>
<polygon fill="none" stroke="black" points="35.5,-174 35.5,-196 237.5,-196 237.5,-174 35.5,-174"/>
<image xlink:href="../../images/foreignKeys.png" width="11px" height="12px" preserveAspectRatio="xMinYMin meet" x="40.5" y="-191"/>
<text text-anchor="start" x="55.5" y="-182.2" font-family="Helvetica,sans-Serif" font-size="11.00">fk_provider</text>
<polygon fill="none" stroke="black" points="35.5,-152 35.5,-174 237.5,-174 237.5,-152 35.5,-152"/>
<image xlink:href="../../images/foreignKeys.png" width="11px" height="12px" preserveAspectRatio="xMinYMin meet" x="40.5" y="-169"/>
<text text-anchor="start" x="55.5" y="-160.2" font-family="Helvetica,sans-Serif" font-size="11.00">fk_wastewater_structure</text>
<polygon fill="none" stroke="black" points="35.5,-134 35.5,-152 237.5,-152 237.5,-134 35.5,-134"/>
<text text-anchor="start" x="38.5" y="-140.2" font-family="Helvetica,sans-Serif" font-size="11.00">...</text>
<polygon fill="#ffffff" stroke="transparent" points="35.5,-116 35.5,-134 237.5,-134 237.5,-116 35.5,-116"/>
<polygon fill="none" stroke="black" points="35.5,-116 35.5,-134 237.5,-134 237.5,-116 35.5,-116"/>
<polygon fill="#ffffff" stroke="transparent" points="36.5,-117 36.5,-133 105.5,-133 105.5,-117 36.5,-117"/>
<text text-anchor="start" x="38.5" y="-122.2" font-family="Helvetica,sans-Serif" font-size="11.00">&lt; 4</text>
<polygon fill="#ffffff" stroke="transparent" points="105.5,-117 105.5,-133 161.5,-133 161.5,-117 105.5,-117"/>
<text text-anchor="start" x="129.5" y="-122.2" font-family="Helvetica,sans-Serif" font-size="11.00"> &#160;</text>
<polygon fill="#ffffff" stroke="transparent" points="161.5,-117 161.5,-133 236.5,-133 236.5,-117 161.5,-117"/>
<text text-anchor="start" x="207.5" y="-122.2" font-family="Helvetica,sans-Serif" font-size="11.00">12 &gt;</text>
<polygon fill="black" stroke="black" points="105.5,-117 105.5,-133 105.5,-133 105.5,-117 105.5,-117"/>
<polygon fill="black" stroke="black" points="161.5,-117 161.5,-133 161.5,-133 161.5,-117 161.5,-117"/>
</a>
</g>
</g>
<!-- solids_retention&#45;&gt;structure_part -->
<g id="edge2" class="edge">
<title>solids_retention:w&#45;&gt;structure_part:e</title>
<path fill="none" stroke="black" d="M304.81,-203.48C271.25,-213.68 281.05,-273 238.5,-273"/>
<polygon fill="black" stroke="black" points="314.16,-198.15 315.26,-206.07 313.67,-206.29 312.57,-198.37 314.16,-198.15"/>
<polyline fill="none" stroke="black" points="315.5,-202 311.54,-202.55 "/>
<ellipse fill="none" stroke="black" cx="308.37" cy="-202.99" rx="3.2" ry="3.2"/>
</g>
</g>
</svg>
