<?xml version="1.0" encoding="UTF-8" standalone="no"?>
<!DOCTYPE svg PUBLIC "-//W3C//DTD SVG 1.1//EN"
 "http://www.w3.org/Graphics/SVG/1.1/DTD/svg11.dtd">
<!-- Generated by graphviz version 2.47.1 (20210515.0534)
 -->
<!-- Title: oneDegreeRelationshipsDiagram Pages: 1 -->
<svg width="565pt" height="637pt"
 viewBox="0.00 0.00 565.00 637.00" xmlns="http://www.w3.org/2000/svg" xmlns:xlink="http://www.w3.org/1999/xlink">
<g id="graph0" class="graph" transform="scale(1 1) rotate(0) translate(4 633)">
<title>oneDegreeRelationshipsDiagram</title>
<polygon fill="#ffffff" stroke="transparent" points="-4,4 -4,-633 561,-633 561,4 -4,4"/>
<text text-anchor="middle" x="73.5" y="-7.2" font-family="Helvetica,sans-Serif" font-size="11.00">Generated by SchemaSpy</text>
<!-- txt_symbol -->
<g id="node1" class="node">
<title>txt_symbol</title>
<g id="a_node1"><a xlink:href="../../tables/txt_symbol.html" xlink:title="txt_symbol" target="_top">
<polygon fill="#ffffff" stroke="transparent" points="252,-383 252,-625 549,-625 549,-383 252,-383"/>
<polygon fill="#f5f5f5" stroke="transparent" points="254.5,-601 254.5,-623 547.5,-623 547.5,-601 254.5,-601"/>
<polygon fill="none" stroke="black" points="254.5,-601 254.5,-623 547.5,-623 547.5,-601 254.5,-601"/>
<text text-anchor="start" x="259.5" y="-610.2" font-family="Helvetica,sans-Serif" font-weight="bold" font-size="11.00">txt_symbol</text>
<text text-anchor="start" x="508.5" y="-609.2" font-family="Helvetica,sans-Serif" font-size="11.00">[table]</text>
<polygon fill="none" stroke="black" points="254.5,-579 254.5,-601 424.5,-601 424.5,-579 254.5,-579"/>
<image xlink:href="../../images/primaryKeys.png" width="11px" height="12px" preserveAspectRatio="xMinYMin meet" x="259.5" y="-596"/>
<text text-anchor="start" x="274.5" y="-587.2" font-family="Helvetica,sans-Serif" font-size="11.00">obj_id</text>
<polygon fill="none" stroke="black" points="424.5,-579 424.5,-601 547.5,-601 547.5,-579 424.5,-579"/>
<text text-anchor="start" x="427.5" y="-587.2" font-family="Helvetica,sans-Serif" font-size="11.00">varchar[16]</text>
<polygon fill="none" stroke="black" points="254.5,-557 254.5,-579 424.5,-579 424.5,-557 254.5,-557"/>
<text text-anchor="start" x="274.5" y="-565.2" font-family="Helvetica,sans-Serif" font-size="11.00">classname</text>
<polygon fill="none" stroke="black" points="424.5,-557 424.5,-579 547.5,-579 547.5,-557 424.5,-557"/>
<text text-anchor="start" x="427.5" y="-565.2" font-family="Helvetica,sans-Serif" font-size="11.00">text[2147483647]</text>
<polygon fill="none" stroke="black" points="254.5,-535 254.5,-557 424.5,-557 424.5,-535 254.5,-535"/>
<image xlink:href="../../images/foreignKeys.png" width="11px" height="12px" preserveAspectRatio="xMinYMin meet" x="259.5" y="-552"/>
<text text-anchor="start" x="274.5" y="-543.2" font-family="Helvetica,sans-Serif" font-size="11.00">plantype</text>
<polygon fill="none" stroke="black" points="424.5,-535 424.5,-557 547.5,-557 547.5,-535 424.5,-535"/>
<text text-anchor="start" x="427.5" y="-543.2" font-family="Helvetica,sans-Serif" font-size="11.00">int4[10]</text>
<polygon fill="none" stroke="black" points="254.5,-513 254.5,-535 424.5,-535 424.5,-513 254.5,-513"/>
<text text-anchor="start" x="274.5" y="-521.2" font-family="Helvetica,sans-Serif" font-size="11.00">symbol_scaling_heigth</text>
<polygon fill="none" stroke="black" points="424.5,-513 424.5,-535 547.5,-535 547.5,-513 424.5,-513"/>
<text text-anchor="start" x="427.5" y="-521.2" font-family="Helvetica,sans-Serif" font-size="11.00">numeric[2,1]</text>
<polygon fill="none" stroke="black" points="254.5,-491 254.5,-513 424.5,-513 424.5,-491 254.5,-491"/>
<text text-anchor="start" x="274.5" y="-499.2" font-family="Helvetica,sans-Serif" font-size="11.00">symbol_scaling_width</text>
<polygon fill="none" stroke="black" points="424.5,-491 424.5,-513 547.5,-513 547.5,-491 424.5,-491"/>
<text text-anchor="start" x="427.5" y="-499.2" font-family="Helvetica,sans-Serif" font-size="11.00">numeric[2,1]</text>
<polygon fill="none" stroke="black" points="254.5,-469 254.5,-491 424.5,-491 424.5,-469 254.5,-469"/>
<text text-anchor="start" x="274.5" y="-477.2" font-family="Helvetica,sans-Serif" font-size="11.00">symbolori</text>
<polygon fill="none" stroke="black" points="424.5,-469 424.5,-491 547.5,-491 547.5,-469 424.5,-469"/>
<text text-anchor="start" x="427.5" y="-477.2" font-family="Helvetica,sans-Serif" font-size="11.00">numeric[4,1]</text>
<polygon fill="#ffffff" stroke="transparent" points="254.5,-447 254.5,-469 424.5,-469 424.5,-447 254.5,-447"/>
<polygon fill="none" stroke="black" points="254.5,-447 254.5,-469 424.5,-469 424.5,-447 254.5,-447"/>
<text text-anchor="start" x="274.5" y="-455.2" font-family="Helvetica,sans-Serif" font-size="11.00">symbolpos_geometry</text>
<polygon fill="none" stroke="black" points="424.5,-447 424.5,-469 547.5,-469 547.5,-447 424.5,-447"/>
<text text-anchor="start" x="427.5" y="-455.2" font-family="Helvetica,sans-Serif" font-size="11.00">geometry[2147483647]</text>
<polygon fill="none" stroke="black" points="254.5,-425 254.5,-447 424.5,-447 424.5,-425 254.5,-425"/>
<text text-anchor="start" x="274.5" y="-433.2" font-family="Helvetica,sans-Serif" font-size="11.00">last_modification</text>
<polygon fill="none" stroke="black" points="424.5,-425 424.5,-447 547.5,-447 547.5,-425 424.5,-425"/>
<text text-anchor="start" x="427.5" y="-433.2" font-family="Helvetica,sans-Serif" font-size="11.00">timestamp[29,6]</text>
<polygon fill="none" stroke="black" points="254.5,-403 254.5,-425 424.5,-425 424.5,-403 254.5,-403"/>
<image xlink:href="../../images/foreignKeys.png" width="11px" height="12px" preserveAspectRatio="xMinYMin meet" x="259.5" y="-420"/>
<text text-anchor="start" x="274.5" y="-411.2" font-family="Helvetica,sans-Serif" font-size="11.00">fk_wastewater_structure</text>
<polygon fill="none" stroke="black" points="424.5,-403 424.5,-425 547.5,-425 547.5,-403 424.5,-403"/>
<text text-anchor="start" x="427.5" y="-411.2" font-family="Helvetica,sans-Serif" font-size="11.00">varchar[16]</text>
<polygon fill="#ffffff" stroke="transparent" points="254.5,-385 254.5,-403 343.5,-403 343.5,-385 254.5,-385"/>
<polygon fill="none" stroke="black" points="254.5,-385 254.5,-403 343.5,-403 343.5,-385 254.5,-385"/>
<text text-anchor="start" x="257.5" y="-391.2" font-family="Helvetica,sans-Serif" font-size="11.00">&lt; 2</text>
<polygon fill="#ffffff" stroke="transparent" points="343.5,-385 343.5,-403 424.5,-403 424.5,-385 343.5,-385"/>
<polygon fill="none" stroke="black" points="343.5,-385 343.5,-403 424.5,-403 424.5,-385 343.5,-385"/>
<text text-anchor="start" x="414.5" y="-391.2" font-family="Helvetica,sans-Serif" font-size="11.00"> &#160;</text>
<polygon fill="#ffffff" stroke="transparent" points="424.5,-385 424.5,-403 547.5,-403 547.5,-385 424.5,-385"/>
<polygon fill="none" stroke="black" points="424.5,-385 424.5,-403 547.5,-403 547.5,-385 424.5,-385"/>
<text text-anchor="start" x="528.5" y="-391.2" font-family="Helvetica,sans-Serif" font-size="11.00">0 &gt;</text>
<polygon fill="none" stroke="black" stroke-width="2" points="253,-384 253,-624 548,-624 548,-384 253,-384"/>
</a>
</g>
</g>
<!-- wastewater_structure -->
<g id="node2" class="node">
<title>wastewater_structure</title>
<g id="a_node2"><a xlink:href="../../tables/wastewater_structure.html" xlink:title="wastewater_structure" target="_top">
<polygon fill="#ffffff" stroke="transparent" points="8,-37 8,-447 203,-447 203,-37 8,-37"/>
<polygon fill="#f5f5f5" stroke="transparent" points="8.5,-425 8.5,-447 203.5,-447 203.5,-425 8.5,-425"/>
<polygon fill="none" stroke="black" points="8.5,-425 8.5,-447 203.5,-447 203.5,-425 8.5,-425"/>
<text text-anchor="start" x="13.5" y="-434.2" font-family="Helvetica,sans-Serif" font-weight="bold" font-size="11.00">wastewater_structure</text>
<text text-anchor="start" x="164.5" y="-433.2" font-family="Helvetica,sans-Serif" font-size="11.00">[table]</text>
<polygon fill="none" stroke="black" points="8.5,-403 8.5,-425 203.5,-425 203.5,-403 8.5,-403"/>
<image xlink:href="../../images/primaryKeys.png" width="11px" height="12px" preserveAspectRatio="xMinYMin meet" x="13.5" y="-420"/>
<text text-anchor="start" x="28.5" y="-411.2" font-family="Helvetica,sans-Serif" font-size="11.00">obj_id</text>
<polygon fill="none" stroke="black" points="8.5,-381 8.5,-403 203.5,-403 203.5,-381 8.5,-381"/>
<image xlink:href="../../images/foreignKeys.png" width="11px" height="12px" preserveAspectRatio="xMinYMin meet" x="13.5" y="-398"/>
<text text-anchor="start" x="28.5" y="-389.2" font-family="Helvetica,sans-Serif" font-size="11.00">accessibility</text>
<polygon fill="#ffffff" stroke="transparent" points="8.5,-359 8.5,-381 203.5,-381 203.5,-359 8.5,-359"/>
<polygon fill="none" stroke="black" points="8.5,-359 8.5,-381 203.5,-381 203.5,-359 8.5,-359"/>
<text text-anchor="start" x="28.5" y="-367.2" font-family="Helvetica,sans-Serif" font-size="11.00">detail_geometry3d_geometry</text>
<polygon fill="none" stroke="black" points="8.5,-337 8.5,-359 203.5,-359 203.5,-337 8.5,-337"/>
<image xlink:href="../../images/foreignKeys.png" width="11px" height="12px" preserveAspectRatio="xMinYMin meet" x="13.5" y="-354"/>
<text text-anchor="start" x="28.5" y="-345.2" font-family="Helvetica,sans-Serif" font-size="11.00">elevation_determination</text>
<polygon fill="none" stroke="black" points="8.5,-315 8.5,-337 203.5,-337 203.5,-315 8.5,-315"/>
<image xlink:href="../../images/foreignKeys.png" width="11px" height="12px" preserveAspectRatio="xMinYMin meet" x="13.5" y="-332"/>
<text text-anchor="start" x="28.5" y="-323.2" font-family="Helvetica,sans-Serif" font-size="11.00">financing</text>
<polygon fill="#ffffff" stroke="transparent" points="8.5,-293 8.5,-315 203.5,-315 203.5,-293 8.5,-293"/>
<polygon fill="none" stroke="black" points="8.5,-293 8.5,-315 203.5,-315 203.5,-293 8.5,-293"/>
<text text-anchor="start" x="28.5" y="-301.2" font-family="Helvetica,sans-Serif" font-size="11.00">identifier</text>
<polygon fill="none" stroke="black" points="8.5,-271 8.5,-293 203.5,-293 203.5,-271 8.5,-271"/>
<image xlink:href="../../images/foreignKeys.png" width="11px" height="12px" preserveAspectRatio="xMinYMin meet" x="13.5" y="-288"/>
<text text-anchor="start" x="28.5" y="-279.2" font-family="Helvetica,sans-Serif" font-size="11.00">renovation_necessity</text>
<polygon fill="none" stroke="black" points="8.5,-249 8.5,-271 203.5,-271 203.5,-249 8.5,-249"/>
<image xlink:href="../../images/foreignKeys.png" width="11px" height="12px" preserveAspectRatio="xMinYMin meet" x="13.5" y="-266"/>
<text text-anchor="start" x="28.5" y="-257.2" font-family="Helvetica,sans-Serif" font-size="11.00">rv_construction_type</text>
<polygon fill="none" stroke="black" points="8.5,-227 8.5,-249 203.5,-249 203.5,-227 8.5,-227"/>
<image xlink:href="../../images/foreignKeys.png" width="11px" height="12px" preserveAspectRatio="xMinYMin meet" x="13.5" y="-244"/>
<text text-anchor="start" x="28.5" y="-235.2" font-family="Helvetica,sans-Serif" font-size="11.00">status</text>
<polygon fill="none" stroke="black" points="8.5,-205 8.5,-227 203.5,-227 203.5,-205 8.5,-205"/>
<image xlink:href="../../images/foreignKeys.png" width="11px" height="12px" preserveAspectRatio="xMinYMin meet" x="13.5" y="-222"/>
<text text-anchor="start" x="28.5" y="-213.2" font-family="Helvetica,sans-Serif" font-size="11.00">structure_condition</text>
<polygon fill="#ffffff" stroke="transparent" points="8.5,-183 8.5,-205 203.5,-205 203.5,-183 8.5,-183"/>
<polygon fill="none" stroke="black" points="8.5,-183 8.5,-205 203.5,-205 203.5,-183 8.5,-183"/>
<image xlink:href="../../images/foreignKeys.png" width="11px" height="12px" preserveAspectRatio="xMinYMin meet" x="13.5" y="-200"/>
<text text-anchor="start" x="28.5" y="-191.2" font-family="Helvetica,sans-Serif" font-size="11.00">fk_dataowner</text>
<polygon fill="none" stroke="black" points="8.5,-161 8.5,-183 203.5,-183 203.5,-161 8.5,-161"/>
<image xlink:href="../../images/foreignKeys.png" width="11px" height="12px" preserveAspectRatio="xMinYMin meet" x="13.5" y="-178"/>
<text text-anchor="start" x="28.5" y="-169.2" font-family="Helvetica,sans-Serif" font-size="11.00">fk_provider</text>
<polygon fill="none" stroke="black" points="8.5,-139 8.5,-161 203.5,-161 203.5,-139 8.5,-139"/>
<image xlink:href="../../images/foreignKeys.png" width="11px" height="12px" preserveAspectRatio="xMinYMin meet" x="13.5" y="-156"/>
<text text-anchor="start" x="28.5" y="-147.2" font-family="Helvetica,sans-Serif" font-size="11.00">fk_owner</text>
<polygon fill="none" stroke="black" points="8.5,-117 8.5,-139 203.5,-139 203.5,-117 8.5,-117"/>
<image xlink:href="../../images/foreignKeys.png" width="11px" height="12px" preserveAspectRatio="xMinYMin meet" x="13.5" y="-134"/>
<text text-anchor="start" x="28.5" y="-125.2" font-family="Helvetica,sans-Serif" font-size="11.00">fk_operator</text>
<polygon fill="none" stroke="black" points="8.5,-95 8.5,-117 203.5,-117 203.5,-95 8.5,-95"/>
<image xlink:href="../../images/foreignKeys.png" width="11px" height="12px" preserveAspectRatio="xMinYMin meet" x="13.5" y="-112"/>
<text text-anchor="start" x="28.5" y="-103.2" font-family="Helvetica,sans-Serif" font-size="11.00">fk_main_cover</text>
<polygon fill="none" stroke="black" points="8.5,-73 8.5,-95 203.5,-95 203.5,-73 8.5,-73"/>
<image xlink:href="../../images/foreignKeys.png" width="11px" height="12px" preserveAspectRatio="xMinYMin meet" x="13.5" y="-90"/>
<text text-anchor="start" x="28.5" y="-81.2" font-family="Helvetica,sans-Serif" font-size="11.00">fk_main_wastewater_node</text>
<polygon fill="none" stroke="black" points="8.5,-55 8.5,-73 203.5,-73 203.5,-55 8.5,-55"/>
<text text-anchor="start" x="11.5" y="-61.2" font-family="Helvetica,sans-Serif" font-size="11.00">...</text>
<polygon fill="#ffffff" stroke="transparent" points="8.5,-37 8.5,-55 99.5,-55 99.5,-37 8.5,-37"/>
<polygon fill="none" stroke="black" points="8.5,-37 8.5,-55 99.5,-55 99.5,-37 8.5,-37"/>
<text text-anchor="start" x="11.5" y="-43.2" font-family="Helvetica,sans-Serif" font-size="11.00">&lt; 13</text>
<polygon fill="#ffffff" stroke="transparent" points="99.5,-37 99.5,-55 143.5,-55 143.5,-37 99.5,-37"/>
<polygon fill="none" stroke="black" points="99.5,-37 99.5,-55 143.5,-55 143.5,-37 99.5,-37"/>
<text text-anchor="start" x="133.5" y="-43.2" font-family="Helvetica,sans-Serif" font-size="11.00"> &#160;</text>
<polygon fill="#ffffff" stroke="transparent" points="143.5,-37 143.5,-55 203.5,-55 203.5,-37 143.5,-37"/>
<polygon fill="none" stroke="black" points="143.5,-37 143.5,-55 203.5,-55 203.5,-37 143.5,-37"/>
<text text-anchor="start" x="178.5" y="-43.2" font-family="Helvetica,sans-Serif" font-size="11.00">18 &gt;</text>
</a>
</g>
</g>
<!-- txt_symbol&#45;&gt;wastewater_structure -->
<g id="edge1" class="edge">
<title>txt_symbol:w&#45;&gt;wastewater_structure:e</title>
<path fill="none" stroke="black" d="M238.99,-414C227.68,-414 220.49,-414 204.5,-414"/>
<polygon fill="black" stroke="black" points="245.5,-414 253.5,-417.6 249.5,-414 253.5,-414 253.5,-414 253.5,-414 249.5,-414 253.5,-410.4 245.5,-414 245.5,-414"/>
<ellipse fill="none" stroke="black" cx="242.3" cy="-414" rx="3.2" ry="3.2"/>
</g>
<!-- tww_vl.symbol_plantype -->
<g id="node3" class="node">
<title>tww_vl.symbol_plantype</title>
<g id="a_node3"><a xlink:href="../../../tww_vl/tables/symbol_plantype.html" xlink:title="tww_vl.symbol_plantype" target="_top">
<polygon fill="#ffffff" stroke="transparent" points="11,-517 11,-575 200,-575 200,-517 11,-517"/>
<polygon fill="#f5f5f5" stroke="transparent" points="11.5,-553 11.5,-575 200.5,-575 200.5,-553 11.5,-553"/>
<polygon fill="none" stroke="black" points="11.5,-553 11.5,-575 200.5,-575 200.5,-553 11.5,-553"/>
<text text-anchor="start" x="16.5" y="-562.2" font-family="Helvetica,sans-Serif" font-weight="bold" font-size="11.00">tww_vl.symbol_plantype</text>
<text text-anchor="start" x="161.5" y="-561.2" font-family="Helvetica,sans-Serif" font-size="11.00">[table]</text>
<polygon fill="none" stroke="black" points="11.5,-535 11.5,-553 200.5,-553 200.5,-535 11.5,-535"/>
<text text-anchor="start" x="14.5" y="-541.2" font-family="Helvetica,sans-Serif" font-size="11.00">...</text>
<polygon fill="#ffffff" stroke="transparent" points="11.5,-517 11.5,-535 81.5,-535 81.5,-517 11.5,-517"/>
<polygon fill="none" stroke="black" points="11.5,-517 11.5,-535 81.5,-535 81.5,-517 11.5,-517"/>
<text text-anchor="start" x="14.5" y="-523.2" font-family="Helvetica,sans-Serif" font-size="11.00"> &#160;</text>
<polygon fill="#ffffff" stroke="transparent" points="81.5,-517 81.5,-535 149.5,-535 149.5,-517 81.5,-517"/>
<polygon fill="none" stroke="black" points="81.5,-517 81.5,-535 149.5,-535 149.5,-517 81.5,-517"/>
<text text-anchor="start" x="112.5" y="-523.2" font-family="Helvetica,sans-Serif" font-size="11.00">0 rows</text>
<polygon fill="#ffffff" stroke="transparent" points="149.5,-517 149.5,-535 200.5,-535 200.5,-517 149.5,-517"/>
<polygon fill="none" stroke="black" points="149.5,-517 149.5,-535 200.5,-535 200.5,-517 149.5,-517"/>
<text text-anchor="start" x="181.5" y="-523.2" font-family="Helvetica,sans-Serif" font-size="11.00">1 &gt;</text>
</a>
</g>
</g>
<!-- txt_symbol&#45;&gt;tww_vl.symbol_plantype -->
<g id="edge2" class="edge">
<title>txt_symbol:w&#45;&gt;tww_vl.symbol_plantype:e</title>
<path fill="none" stroke="black" d="M238.83,-546C228.69,-546 218.34,-546 208.12,-546"/>
<polygon fill="black" stroke="black" points="245.5,-546 253.5,-549.6 249.5,-546 253.5,-546 253.5,-546 253.5,-546 249.5,-546 253.5,-542.4 245.5,-546 245.5,-546"/>
<ellipse fill="none" stroke="black" cx="242.3" cy="-546" rx="3.2" ry="3.2"/>
</g>
</g>
</svg>
