<?xml version="1.0" encoding="UTF-8" standalone="no"?>
<!DOCTYPE svg PUBLIC "-//W3C//DTD SVG 1.1//EN"
 "http://www.w3.org/Graphics/SVG/1.1/DTD/svg11.dtd">
<!-- Generated by graphviz version 2.47.1 (20210515.0534)
 -->
<!-- Title: oneDegreeRelationshipsDiagram Pages: 1 -->
<svg width="808pt" height="500pt"
 viewBox="0.00 0.00 808.00 500.00" xmlns="http://www.w3.org/2000/svg" xmlns:xlink="http://www.w3.org/1999/xlink">
<g id="graph0" class="graph" transform="scale(1 1) rotate(0) translate(4 496)">
<title>oneDegreeRelationshipsDiagram</title>
<polygon fill="#ffffff" stroke="transparent" points="-4,4 -4,-496 804,-496 804,4 -4,4"/>
<text text-anchor="middle" x="73.5" y="-7.2" font-family="Helvetica,sans-Serif" font-size="11.00">Generated by SchemaSpy</text>
<!-- waste_water_treatment_plant -->
<g id="node1" class="node">
<title>waste_water_treatment_plant</title>
<g id="a_node1"><a xlink:href="../../tables/waste_water_treatment_plant.html" xlink:title="waste_water_treatment_plant" target="_top">
<polygon fill="#ffffff" stroke="transparent" points="205,-41 205,-253 428,-253 428,-41 205,-41"/>
<polygon fill="#f5f5f5" stroke="transparent" points="205.5,-231 205.5,-253 428.5,-253 428.5,-231 205.5,-231"/>
<polygon fill="none" stroke="black" points="205.5,-231 205.5,-253 428.5,-253 428.5,-231 205.5,-231"/>
<text text-anchor="start" x="210.5" y="-240.2" font-family="Helvetica,sans-Serif" font-weight="bold" font-size="11.00">waste_water_treatment_plant</text>
<text text-anchor="start" x="389.5" y="-239.2" font-family="Helvetica,sans-Serif" font-size="11.00">[table]</text>
<polygon fill="none" stroke="black" points="205.5,-209 205.5,-231 428.5,-231 428.5,-209 205.5,-209"/>
<image xlink:href="../../images/primaryKeys.png" width="11px" height="12px" preserveAspectRatio="xMinYMin meet" x="210.5" y="-226"/>
<text text-anchor="start" x="237.5" y="-217.2" font-family="Helvetica,sans-Serif" font-size="11.00">obj_id</text>
<polygon fill="#ffffff" stroke="transparent" points="205.5,-187 205.5,-209 428.5,-209 428.5,-187 205.5,-187"/>
<polygon fill="none" stroke="black" points="205.5,-187 205.5,-209 428.5,-209 428.5,-187 205.5,-187"/>
<text text-anchor="start" x="237.5" y="-195.2" font-family="Helvetica,sans-Serif" font-size="11.00">area_geometry</text>
<polygon fill="#ffffff" stroke="transparent" points="205.5,-165 205.5,-187 428.5,-187 428.5,-165 205.5,-165"/>
<polygon fill="none" stroke="black" points="205.5,-165 205.5,-187 428.5,-187 428.5,-165 205.5,-165"/>
<text text-anchor="start" x="237.5" y="-173.2" font-family="Helvetica,sans-Serif" font-size="11.00">identifier</text>
<polygon fill="none" stroke="black" points="205.5,-143 205.5,-165 428.5,-165 428.5,-143 205.5,-143"/>
<image xlink:href="../../images/foreignKeys.png" width="11px" height="12px" preserveAspectRatio="xMinYMin meet" x="210.5" y="-160"/>
<text text-anchor="start" x="237.5" y="-151.2" font-family="Helvetica,sans-Serif" font-size="11.00">operator_type</text>
<polygon fill="#ffffff" stroke="transparent" points="205.5,-121 205.5,-143 428.5,-143 428.5,-121 205.5,-121"/>
<polygon fill="none" stroke="black" points="205.5,-121 205.5,-143 428.5,-143 428.5,-121 205.5,-121"/>
<text text-anchor="start" x="237.5" y="-129.2" font-family="Helvetica,sans-Serif" font-size="11.00">situation_geometry</text>
<polygon fill="#ffffff" stroke="transparent" points="205.5,-99 205.5,-121 428.5,-121 428.5,-99 205.5,-99"/>
<polygon fill="none" stroke="black" points="205.5,-99 205.5,-121 428.5,-121 428.5,-99 205.5,-99"/>
<image xlink:href="../../images/foreignKeys.png" width="11px" height="12px" preserveAspectRatio="xMinYMin meet" x="210.5" y="-116"/>
<text text-anchor="start" x="237.5" y="-107.2" font-family="Helvetica,sans-Serif" font-size="11.00">fk_dataowner</text>
<polygon fill="none" stroke="black" points="205.5,-77 205.5,-99 428.5,-99 428.5,-77 205.5,-77"/>
<image xlink:href="../../images/foreignKeys.png" width="11px" height="12px" preserveAspectRatio="xMinYMin meet" x="210.5" y="-94"/>
<text text-anchor="start" x="237.5" y="-85.2" font-family="Helvetica,sans-Serif" font-size="11.00">fk_provider</text>
<polygon fill="none" stroke="black" points="205.5,-59 205.5,-77 428.5,-77 428.5,-59 205.5,-59"/>
<text text-anchor="start" x="208.5" y="-65.2" font-family="Helvetica,sans-Serif" font-size="11.00">...</text>
<polygon fill="#ffffff" stroke="transparent" points="205.5,-41 205.5,-59 310.5,-59 310.5,-41 205.5,-41"/>
<polygon fill="none" stroke="black" points="205.5,-41 205.5,-59 310.5,-59 310.5,-41 205.5,-41"/>
<text text-anchor="start" x="208.5" y="-47.2" font-family="Helvetica,sans-Serif" font-size="11.00">&lt; 3</text>
<polygon fill="#ffffff" stroke="transparent" points="310.5,-41 310.5,-59 364.5,-59 364.5,-41 310.5,-41"/>
<polygon fill="none" stroke="black" points="310.5,-41 310.5,-59 364.5,-59 364.5,-41 310.5,-41"/>
<text text-anchor="start" x="354.5" y="-47.2" font-family="Helvetica,sans-Serif" font-size="11.00"> &#160;</text>
<polygon fill="#ffffff" stroke="transparent" points="364.5,-41 364.5,-59 428.5,-59 428.5,-41 364.5,-41"/>
<polygon fill="none" stroke="black" points="364.5,-41 364.5,-59 428.5,-59 428.5,-41 364.5,-41"/>
<text text-anchor="start" x="409.5" y="-47.2" font-family="Helvetica,sans-Serif" font-size="11.00">5 &gt;</text>
</a>
</g>
</g>
<!-- organisation -->
<g id="node2" class="node">
<title>organisation</title>
<g id="a_node2"><a xlink:href="../../tables/organisation.html" xlink:title="organisation" target="_top">
<polygon fill="#ffffff" stroke="transparent" points="8,-37 8,-227 156,-227 156,-37 8,-37"/>
<polygon fill="#f5f5f5" stroke="transparent" points="8,-205 8,-227 156,-227 156,-205 8,-205"/>
<polygon fill="none" stroke="black" points="8,-205 8,-227 156,-227 156,-205 8,-205"/>
<text text-anchor="start" x="13" y="-214.2" font-family="Helvetica,sans-Serif" font-weight="bold" font-size="11.00">organisation</text>
<text text-anchor="start" x="117" y="-213.2" font-family="Helvetica,sans-Serif" font-size="11.00">[table]</text>
<polygon fill="none" stroke="black" points="8,-183 8,-205 156,-205 156,-183 8,-183"/>
<image xlink:href="../../images/primaryKeys.png" width="11px" height="12px" preserveAspectRatio="xMinYMin meet" x="13" y="-200"/>
<text text-anchor="start" x="28" y="-191.2" font-family="Helvetica,sans-Serif" font-size="11.00">obj_id</text>
<polygon fill="#ffffff" stroke="transparent" points="8,-161 8,-183 156,-183 156,-161 8,-161"/>
<polygon fill="none" stroke="black" points="8,-161 8,-183 156,-183 156,-161 8,-161"/>
<text text-anchor="start" x="28" y="-169.2" font-family="Helvetica,sans-Serif" font-size="11.00">identifier</text>
<polygon fill="none" stroke="black" points="8,-139 8,-161 156,-161 156,-139 8,-139"/>
<image xlink:href="../../images/foreignKeys.png" width="11px" height="12px" preserveAspectRatio="xMinYMin meet" x="13" y="-156"/>
<text text-anchor="start" x="28" y="-147.2" font-family="Helvetica,sans-Serif" font-size="11.00">organisation_type</text>
<polygon fill="none" stroke="black" points="8,-117 8,-139 156,-139 156,-117 8,-117"/>
<image xlink:href="../../images/foreignKeys.png" width="11px" height="12px" preserveAspectRatio="xMinYMin meet" x="13" y="-134"/>
<text text-anchor="start" x="28" y="-125.2" font-family="Helvetica,sans-Serif" font-size="11.00">status</text>
<polygon fill="#ffffff" stroke="transparent" points="8,-95 8,-117 156,-117 156,-95 8,-95"/>
<polygon fill="none" stroke="black" points="8,-95 8,-117 156,-117 156,-95 8,-95"/>
<image xlink:href="../../images/foreignKeys.png" width="11px" height="12px" preserveAspectRatio="xMinYMin meet" x="13" y="-112"/>
<text text-anchor="start" x="28" y="-103.2" font-family="Helvetica,sans-Serif" font-size="11.00">fk_dataowner</text>
<polygon fill="none" stroke="black" points="8,-73 8,-95 156,-95 156,-73 8,-73"/>
<image xlink:href="../../images/foreignKeys.png" width="11px" height="12px" preserveAspectRatio="xMinYMin meet" x="13" y="-90"/>
<text text-anchor="start" x="28" y="-81.2" font-family="Helvetica,sans-Serif" font-size="11.00">fk_provider</text>
<polygon fill="none" stroke="black" points="8,-55 8,-73 156,-73 156,-55 8,-55"/>
<text text-anchor="start" x="11" y="-61.2" font-family="Helvetica,sans-Serif" font-size="11.00">...</text>
<polygon fill="#ffffff" stroke="transparent" points="8,-37 8,-55 72,-55 72,-37 8,-37"/>
<polygon fill="none" stroke="black" points="8,-37 8,-55 72,-55 72,-37 8,-37"/>
<text text-anchor="start" x="11" y="-43.2" font-family="Helvetica,sans-Serif" font-size="11.00">&lt; 4</text>
<polygon fill="#ffffff" stroke="transparent" points="72,-37 72,-55 106,-55 106,-37 72,-37"/>
<polygon fill="none" stroke="black" points="72,-37 72,-55 106,-55 106,-37 72,-37"/>
<text text-anchor="start" x="96" y="-43.2" font-family="Helvetica,sans-Serif" font-size="11.00"> &#160;</text>
<polygon fill="#ffffff" stroke="transparent" points="106,-37 106,-55 156,-55 156,-37 106,-37"/>
<polygon fill="none" stroke="black" points="106,-37 106,-55 156,-55 156,-37 106,-37"/>
<text text-anchor="start" x="131" y="-43.2" font-family="Helvetica,sans-Serif" font-size="11.00">98 &gt;</text>
</a>
</g>
</g>
<!-- waste_water_treatment_plant&#45;&gt;organisation -->
<g id="edge1" class="edge">
<title>waste_water_treatment_plant:w&#45;&gt;organisation:e</title>
<path fill="none" stroke="black" d="M190.77,-114.52C170.77,-131.96 193.86,-194 157,-194"/>
<polygon fill="black" stroke="black" points="196.9,-112.5 205.62,-113.42 200.7,-111.25 204.5,-110 204.5,-110 204.5,-110 200.7,-111.25 203.38,-106.58 196.9,-112.5 196.9,-112.5"/>
<ellipse fill="none" stroke="black" cx="193.86" cy="-113.5" rx="3.2" ry="3.2"/>
</g>
<!-- waste_water_treatment_plant&#45;&gt;organisation -->
<g id="edge2" class="edge">
<title>waste_water_treatment_plant:w&#45;&gt;organisation:e</title>
<path fill="none" stroke="black" d="M190.43,-92.03C164.47,-111.39 202.58,-194 157,-194"/>
<polygon fill="black" stroke="black" points="196.81,-90.2 205.49,-91.46 200.65,-89.1 204.5,-88 204.5,-88 204.5,-88 200.65,-89.1 203.51,-84.54 196.81,-90.2 196.81,-90.2"/>
<ellipse fill="none" stroke="black" cx="193.73" cy="-91.08" rx="3.2" ry="3.2"/>
</g>
<!-- wwtp_energy_use -->
<g id="node3" class="node">
<title>wwtp_energy_use</title>
<g id="a_node3"><a xlink:href="../../tables/wwtp_energy_use.html" xlink:title="wwtp_energy_use" target="_top">
<polygon fill="#ffffff" stroke="transparent" points="477,-224 477,-488 792,-488 792,-224 477,-224"/>
<polygon fill="#f5f5f5" stroke="transparent" points="479.5,-464 479.5,-486 790.5,-486 790.5,-464 479.5,-464"/>
<polygon fill="none" stroke="black" points="479.5,-464 479.5,-486 790.5,-486 790.5,-464 479.5,-464"/>
<text text-anchor="start" x="484.5" y="-473.2" font-family="Helvetica,sans-Serif" font-weight="bold" font-size="11.00">wwtp_energy_use</text>
<text text-anchor="start" x="751.5" y="-472.2" font-family="Helvetica,sans-Serif" font-size="11.00">[table]</text>
<polygon fill="none" stroke="black" points="479.5,-442 479.5,-464 696.5,-464 696.5,-442 479.5,-442"/>
<image xlink:href="../../images/primaryKeys.png" width="11px" height="12px" preserveAspectRatio="xMinYMin meet" x="484.5" y="-459"/>
<text text-anchor="start" x="499.5" y="-450.2" font-family="Helvetica,sans-Serif" font-size="11.00">obj_id</text>
<polygon fill="none" stroke="black" points="696.5,-442 696.5,-464 790.5,-464 790.5,-442 696.5,-442"/>
<text text-anchor="start" x="699.5" y="-450.2" font-family="Helvetica,sans-Serif" font-size="11.00">varchar[16]</text>
<polygon fill="none" stroke="black" points="479.5,-420 479.5,-442 696.5,-442 696.5,-420 479.5,-420"/>
<text text-anchor="start" x="499.5" y="-428.2" font-family="Helvetica,sans-Serif" font-size="11.00">gas_motor</text>
<polygon fill="none" stroke="black" points="696.5,-420 696.5,-442 790.5,-442 790.5,-420 696.5,-420"/>
<text text-anchor="start" x="699.5" y="-428.2" font-family="Helvetica,sans-Serif" font-size="11.00">int4[10]</text>
<polygon fill="none" stroke="black" points="479.5,-398 479.5,-420 696.5,-420 696.5,-398 479.5,-398"/>
<text text-anchor="start" x="499.5" y="-406.2" font-family="Helvetica,sans-Serif" font-size="11.00">heat_pump</text>
<polygon fill="none" stroke="black" points="696.5,-398 696.5,-420 790.5,-420 790.5,-398 696.5,-398"/>
<text text-anchor="start" x="699.5" y="-406.2" font-family="Helvetica,sans-Serif" font-size="11.00">int4[10]</text>
<polygon fill="#ffffff" stroke="transparent" points="479.5,-376 479.5,-398 696.5,-398 696.5,-376 479.5,-376"/>
<polygon fill="none" stroke="black" points="479.5,-376 479.5,-398 696.5,-398 696.5,-376 479.5,-376"/>
<text text-anchor="start" x="499.5" y="-384.2" font-family="Helvetica,sans-Serif" font-size="11.00">identifier</text>
<polygon fill="none" stroke="black" points="696.5,-376 696.5,-398 790.5,-398 790.5,-376 696.5,-376"/>
<text text-anchor="start" x="699.5" y="-384.2" font-family="Helvetica,sans-Serif" font-size="11.00">text[2147483647]</text>
<polygon fill="none" stroke="black" points="479.5,-354 479.5,-376 696.5,-376 696.5,-354 479.5,-354"/>
<text text-anchor="start" x="499.5" y="-362.2" font-family="Helvetica,sans-Serif" font-size="11.00">remark</text>
<polygon fill="none" stroke="black" points="696.5,-354 696.5,-376 790.5,-376 790.5,-354 696.5,-354"/>
<text text-anchor="start" x="699.5" y="-362.2" font-family="Helvetica,sans-Serif" font-size="11.00">text[2147483647]</text>
<polygon fill="none" stroke="black" points="479.5,-332 479.5,-354 696.5,-354 696.5,-332 479.5,-332"/>
<text text-anchor="start" x="499.5" y="-340.2" font-family="Helvetica,sans-Serif" font-size="11.00">turbining</text>
<polygon fill="none" stroke="black" points="696.5,-332 696.5,-354 790.5,-354 790.5,-332 696.5,-332"/>
<text text-anchor="start" x="699.5" y="-340.2" font-family="Helvetica,sans-Serif" font-size="11.00">int4[10]</text>
<polygon fill="none" stroke="black" points="479.5,-310 479.5,-332 696.5,-332 696.5,-310 479.5,-310"/>
<text text-anchor="start" x="499.5" y="-318.2" font-family="Helvetica,sans-Serif" font-size="11.00">last_modification</text>
<polygon fill="none" stroke="black" points="696.5,-310 696.5,-332 790.5,-332 790.5,-310 696.5,-310"/>
<text text-anchor="start" x="699.5" y="-318.2" font-family="Helvetica,sans-Serif" font-size="11.00">timestamp[29,6]</text>
<polygon fill="#ffffff" stroke="transparent" points="479.5,-288 479.5,-310 696.5,-310 696.5,-288 479.5,-288"/>
<polygon fill="none" stroke="black" points="479.5,-288 479.5,-310 696.5,-310 696.5,-288 479.5,-288"/>
<image xlink:href="../../images/foreignKeys.png" width="11px" height="12px" preserveAspectRatio="xMinYMin meet" x="484.5" y="-305"/>
<text text-anchor="start" x="499.5" y="-296.2" font-family="Helvetica,sans-Serif" font-size="11.00">fk_dataowner</text>
<polygon fill="none" stroke="black" points="696.5,-288 696.5,-310 790.5,-310 790.5,-288 696.5,-288"/>
<text text-anchor="start" x="699.5" y="-296.2" font-family="Helvetica,sans-Serif" font-size="11.00">varchar[16]</text>
<polygon fill="none" stroke="black" points="479.5,-266 479.5,-288 696.5,-288 696.5,-266 479.5,-266"/>
<image xlink:href="../../images/foreignKeys.png" width="11px" height="12px" preserveAspectRatio="xMinYMin meet" x="484.5" y="-283"/>
<text text-anchor="start" x="499.5" y="-274.2" font-family="Helvetica,sans-Serif" font-size="11.00">fk_provider</text>
<polygon fill="none" stroke="black" points="696.5,-266 696.5,-288 790.5,-288 790.5,-266 696.5,-266"/>
<text text-anchor="start" x="699.5" y="-274.2" font-family="Helvetica,sans-Serif" font-size="11.00">varchar[16]</text>
<polygon fill="none" stroke="black" points="479.5,-244 479.5,-266 696.5,-266 696.5,-244 479.5,-244"/>
<image xlink:href="../../images/foreignKeys.png" width="11px" height="12px" preserveAspectRatio="xMinYMin meet" x="484.5" y="-261"/>
<text text-anchor="start" x="499.5" y="-252.2" font-family="Helvetica,sans-Serif" font-size="11.00">fk_waste_water_treatment_plant</text>
<polygon fill="none" stroke="black" points="696.5,-244 696.5,-266 790.5,-266 790.5,-244 696.5,-244"/>
<text text-anchor="start" x="699.5" y="-252.2" font-family="Helvetica,sans-Serif" font-size="11.00">varchar[16]</text>
<polygon fill="#ffffff" stroke="transparent" points="479.5,-226 479.5,-244 592.5,-244 592.5,-226 479.5,-226"/>
<polygon fill="none" stroke="black" points="479.5,-226 479.5,-244 592.5,-244 592.5,-226 479.5,-226"/>
<text text-anchor="start" x="482.5" y="-232.2" font-family="Helvetica,sans-Serif" font-size="11.00">&lt; 3</text>
<polygon fill="#ffffff" stroke="transparent" points="592.5,-226 592.5,-244 696.5,-244 696.5,-226 592.5,-226"/>
<polygon fill="none" stroke="black" points="592.5,-226 592.5,-244 696.5,-244 696.5,-226 592.5,-226"/>
<text text-anchor="start" x="686.5" y="-232.2" font-family="Helvetica,sans-Serif" font-size="11.00"> &#160;</text>
<polygon fill="#ffffff" stroke="transparent" points="696.5,-226 696.5,-244 790.5,-244 790.5,-226 696.5,-226"/>
<polygon fill="none" stroke="black" points="696.5,-226 696.5,-244 790.5,-244 790.5,-226 696.5,-226"/>
<text text-anchor="start" x="771.5" y="-232.2" font-family="Helvetica,sans-Serif" font-size="11.00">0 &gt;</text>
<polygon fill="none" stroke="black" stroke-width="2" points="478,-225 478,-487 791,-487 791,-225 478,-225"/>
</a>
</g>
</g>
<!-- wwtp_energy_use&#45;&gt;waste_water_treatment_plant -->
<g id="edge5" class="edge">
<title>wwtp_energy_use:w&#45;&gt;waste_water_treatment_plant:e</title>
<path fill="none" stroke="black" d="M464.4,-250.42C452.18,-240.94 450.2,-220 429.5,-220"/>
<polygon fill="black" stroke="black" points="470.89,-252.53 477.39,-258.42 474.7,-253.77 478.5,-255 478.5,-255 478.5,-255 474.7,-253.77 479.61,-251.58 470.89,-252.53 470.89,-252.53"/>
<ellipse fill="none" stroke="black" cx="467.85" cy="-251.54" rx="3.2" ry="3.2"/>
</g>
<!-- wwtp_energy_use&#45;&gt;organisation -->
<g id="edge3" class="edge">
<title>wwtp_energy_use:w&#45;&gt;organisation:e</title>
<path fill="none" stroke="black" d="M463.8,-299.27C348.94,-303.52 295.97,-355.23 197,-287 159.96,-261.46 201.99,-194 157,-194"/>
<polygon fill="black" stroke="black" points="470.5,-299.15 478.57,-302.6 474.5,-299.07 478.5,-299 478.5,-299 478.5,-299 474.5,-299.07 478.43,-295.4 470.5,-299.15 470.5,-299.15"/>
<ellipse fill="none" stroke="black" cx="467.3" cy="-299.21" rx="3.2" ry="3.2"/>
</g>
<!-- wwtp_energy_use&#45;&gt;organisation -->
<g id="edge4" class="edge">
<title>wwtp_energy_use:w&#45;&gt;organisation:e</title>
<path fill="none" stroke="black" d="M463.84,-277.27C393.16,-279.51 246.67,-294.38 197,-264 166.43,-245.3 192.83,-194 157,-194"/>
<polygon fill="black" stroke="black" points="470.5,-277.15 478.57,-280.6 474.5,-277.07 478.5,-277 478.5,-277 478.5,-277 474.5,-277.07 478.43,-273.4 470.5,-277.15 470.5,-277.15"/>
<ellipse fill="none" stroke="black" cx="467.3" cy="-277.2" rx="3.2" ry="3.2"/>
</g>
</g>
</svg>
