<?xml version="1.0" encoding="UTF-8" standalone="no"?>
<!DOCTYPE svg PUBLIC "-//W3C//DTD SVG 1.1//EN"
 "http://www.w3.org/Graphics/SVG/1.1/DTD/svg11.dtd">
<!-- Generated by graphviz version 2.43.0 (0)
 -->
<!-- Title: oneDegreeRelationshipsDiagram Pages: 1 -->
<svg width="671pt" height="771pt"
 viewBox="0.00 0.00 671.00 771.00" xmlns="http://www.w3.org/2000/svg" xmlns:xlink="http://www.w3.org/1999/xlink">
<g id="graph0" class="graph" transform="scale(1 1) rotate(0) translate(4 767)">
<title>oneDegreeRelationshipsDiagram</title>
<polygon fill="#ffffff" stroke="transparent" points="-4,4 -4,-767 667,-767 667,4 -4,4"/>
<text text-anchor="middle" x="79.5" y="-7.2" font-family="Helvetica,sans-Serif" font-size="11.00">Generated by SchemaSpy</text>
<!-- wwtp_structure -->
<g id="node1" class="node">
<title>wwtp_structure</title>
<g id="a_node1"><a xlink:href="../../tables/wwtp_structure.html" xlink:title="wwtp_structure" target="_top">
<polygon fill="#ffffff" stroke="transparent" points="321,-246 321,-356 655,-356 655,-246 321,-246"/>
<polygon fill="#f5f5f5" stroke="transparent" points="323,-332 323,-354 653,-354 653,-332 323,-332"/>
<polygon fill="none" stroke="black" points="323,-332 323,-354 653,-354 653,-332 323,-332"/>
<text text-anchor="start" x="328" y="-341.2" font-family="Helvetica,sans-Serif" font-weight="bold" font-size="11.00">wwtp_structure</text>
<text text-anchor="start" x="611" y="-340.2" font-family="Helvetica,sans-Serif" font-size="11.00">[table]</text>
<polygon fill="none" stroke="black" points="323,-310 323,-332 582,-332 582,-310 323,-310"/>
<image xlink:href="../../images/primaryKeys.png" width="11px" height="12px" preserveAspectRatio="xMinYMin meet" x="328" y="-327"/>
<text text-anchor="start" x="343" y="-318.2" font-family="Helvetica,sans-Serif" font-size="11.00">obj_id</text>
<polygon fill="none" stroke="black" points="582,-310 582,-332 653,-332 653,-310 582,-310"/>
<text text-anchor="start" x="585" y="-318.2" font-family="Helvetica,sans-Serif" font-size="11.00">varchar[16]</text>
<polygon fill="none" stroke="black" points="323,-288 323,-310 582,-310 582,-288 323,-288"/>
<image xlink:href="../../images/foreignKeys.png" width="11px" height="12px" preserveAspectRatio="xMinYMin meet" x="328" y="-305"/>
<text text-anchor="start" x="343" y="-296.2" font-family="Helvetica,sans-Serif" font-size="11.00">kind</text>
<polygon fill="none" stroke="black" points="582,-288 582,-310 653,-310 653,-288 582,-288"/>
<text text-anchor="start" x="585" y="-296.2" font-family="Helvetica,sans-Serif" font-size="11.00">int4[10]</text>
<polygon fill="none" stroke="black" points="323,-266 323,-288 582,-288 582,-266 323,-266"/>
<image xlink:href="../../images/foreignKeys.png" width="11px" height="12px" preserveAspectRatio="xMinYMin meet" x="328" y="-283"/>
<text text-anchor="start" x="343" y="-274.2" font-family="Helvetica,sans-Serif" font-size="11.00">fk_waste_water_treatment_plant</text>
<polygon fill="none" stroke="black" points="582,-266 582,-288 653,-288 653,-266 582,-266"/>
<text text-anchor="start" x="585" y="-274.2" font-family="Helvetica,sans-Serif" font-size="11.00">varchar[16]</text>
<polygon fill="#ffffff" stroke="transparent" points="323,-248 323,-266 653,-266 653,-248 323,-248"/>
<polygon fill="none" stroke="black" points="323,-248 323,-266 653,-266 653,-248 323,-248"/>
<polygon fill="#ffffff" stroke="transparent" points="324,-249 324,-265 438,-265 438,-249 324,-249"/>
<text text-anchor="start" x="326" y="-254.2" font-family="Helvetica,sans-Serif" font-size="11.00">&lt; 3</text>
<polygon fill="#ffffff" stroke="transparent" points="438,-249 438,-265 539,-265 539,-249 438,-249"/>
<text text-anchor="start" x="484.5" y="-254.2" font-family="Helvetica,sans-Serif" font-size="11.00"> &#160;</text>
<polygon fill="#ffffff" stroke="transparent" points="539,-249 539,-265 652,-265 652,-249 539,-249"/>
<text text-anchor="start" x="630" y="-254.2" font-family="Helvetica,sans-Serif" font-size="11.00">0 &gt;</text>
<polygon fill="black" stroke="black" points="438,-249 438,-265 438,-265 438,-249 438,-249"/>
<polygon fill="black" stroke="black" points="539,-249 539,-265 539,-265 539,-249 539,-249"/>
<polygon fill="none" stroke="black" stroke-width="2" points="322,-247 322,-355 654,-355 654,-247 322,-247"/>
</a>
</g>
</g>
<!-- waste_water_treatment_plant -->
<g id="node2" class="node">
<title>waste_water_treatment_plant</title>
<g id="a_node2"><a xlink:href="../../tables/waste_water_treatment_plant.html" xlink:title="waste_water_treatment_plant" target="_top">
<polygon fill="#ffffff" stroke="transparent" points="8,-37 8,-249 272,-249 272,-37 8,-37"/>
<polygon fill="#f5f5f5" stroke="transparent" points="8,-227 8,-249 272,-249 272,-227 8,-227"/>
<polygon fill="none" stroke="black" points="8,-227 8,-249 272,-249 272,-227 8,-227"/>
<text text-anchor="start" x="13" y="-236.2" font-family="Helvetica,sans-Serif" font-weight="bold" font-size="11.00">waste_water_treatment_plant</text>
<text text-anchor="start" x="230" y="-235.2" font-family="Helvetica,sans-Serif" font-size="11.00">[table]</text>
<polygon fill="none" stroke="black" points="8,-205 8,-227 272,-227 272,-205 8,-205"/>
<image xlink:href="../../images/primaryKeys.png" width="11px" height="12px" preserveAspectRatio="xMinYMin meet" x="13" y="-222"/>
<text text-anchor="start" x="41" y="-213.2" font-family="Helvetica,sans-Serif" font-size="11.00">obj_id</text>
<polygon fill="#ffffff" stroke="transparent" points="8,-183 8,-205 272,-205 272,-183 8,-183"/>
<polygon fill="none" stroke="black" points="8,-183 8,-205 272,-205 272,-183 8,-183"/>
<text text-anchor="start" x="41" y="-191.2" font-family="Helvetica,sans-Serif" font-size="11.00">area_geometry</text>
<polygon fill="#ffffff" stroke="transparent" points="8,-161 8,-183 272,-183 272,-161 8,-161"/>
<polygon fill="none" stroke="black" points="8,-161 8,-183 272,-183 272,-161 8,-161"/>
<text text-anchor="start" x="41" y="-169.2" font-family="Helvetica,sans-Serif" font-size="11.00">identifier</text>
<polygon fill="none" stroke="black" points="8,-139 8,-161 272,-161 272,-139 8,-139"/>
<image xlink:href="../../images/foreignKeys.png" width="11px" height="12px" preserveAspectRatio="xMinYMin meet" x="13" y="-156"/>
<text text-anchor="start" x="41" y="-147.2" font-family="Helvetica,sans-Serif" font-size="11.00">operator_type</text>
<polygon fill="#ffffff" stroke="transparent" points="8,-117 8,-139 272,-139 272,-117 8,-117"/>
<polygon fill="none" stroke="black" points="8,-117 8,-139 272,-139 272,-117 8,-117"/>
<text text-anchor="start" x="41" y="-125.2" font-family="Helvetica,sans-Serif" font-size="11.00">situation_geometry</text>
<polygon fill="#ffffff" stroke="transparent" points="8,-95 8,-117 272,-117 272,-95 8,-95"/>
<polygon fill="none" stroke="black" points="8,-95 8,-117 272,-117 272,-95 8,-95"/>
<image xlink:href="../../images/foreignKeys.png" width="11px" height="12px" preserveAspectRatio="xMinYMin meet" x="13" y="-112"/>
<text text-anchor="start" x="41" y="-103.2" font-family="Helvetica,sans-Serif" font-size="11.00">fk_dataowner</text>
<polygon fill="none" stroke="black" points="8,-73 8,-95 272,-95 272,-73 8,-73"/>
<image xlink:href="../../images/foreignKeys.png" width="11px" height="12px" preserveAspectRatio="xMinYMin meet" x="13" y="-90"/>
<text text-anchor="start" x="41" y="-81.2" font-family="Helvetica,sans-Serif" font-size="11.00">fk_provider</text>
<polygon fill="none" stroke="black" points="8,-55 8,-73 272,-73 272,-55 8,-55"/>
<text text-anchor="start" x="11" y="-61.2" font-family="Helvetica,sans-Serif" font-size="11.00">...</text>
<polygon fill="#ffffff" stroke="transparent" points="8,-37 8,-55 272,-55 272,-37 8,-37"/>
<polygon fill="none" stroke="black" points="8,-37 8,-55 272,-55 272,-37 8,-37"/>
<polygon fill="#ffffff" stroke="transparent" points="9,-38 9,-54 101,-54 101,-38 9,-38"/>
<text text-anchor="start" x="11" y="-43.2" font-family="Helvetica,sans-Serif" font-size="11.00">&lt; 3</text>
<polygon fill="#ffffff" stroke="transparent" points="101,-38 101,-54 180,-54 180,-38 101,-38"/>
<text text-anchor="start" x="136.5" y="-43.2" font-family="Helvetica,sans-Serif" font-size="11.00"> &#160;</text>
<polygon fill="#ffffff" stroke="transparent" points="180,-38 180,-54 271,-54 271,-38 180,-38"/>
<text text-anchor="start" x="249" y="-43.2" font-family="Helvetica,sans-Serif" font-size="11.00">5 &gt;</text>
<polygon fill="black" stroke="black" points="101,-38 101,-54 101,-54 101,-38 101,-38"/>
<polygon fill="black" stroke="black" points="180,-38 180,-54 180,-54 180,-38 180,-38"/>
</a>
</g>
</g>
<!-- wwtp_structure&#45;&gt;waste_water_treatment_plant -->
<g id="edge1" class="edge">
<title>wwtp_structure:w&#45;&gt;waste_water_treatment_plant:e</title>
<path fill="none" stroke="black" d="M308.41,-272.21C292.65,-257.83 301.8,-216 273,-216"/>
<polygon fill="black" stroke="black" points="314.45,-274.34 320.8,-280.4 318.23,-275.67 322,-277 322,-277 322,-277 318.23,-275.67 323.2,-273.6 314.45,-274.34 314.45,-274.34"/>
<ellipse fill="none" stroke="black" cx="311.44" cy="-273.28" rx="3.2" ry="3.2"/>
</g>
<!-- tww_vl.wwtp_structure_kind -->
<g id="node3" class="node">
<title>tww_vl.wwtp_structure_kind</title>
<g id="a_node3"><a xlink:href="../../../tww_vl/tables/wwtp_structure_kind.html" xlink:title="tww_vl.wwtp_structure_kind" target="_top">
<polygon fill="#ffffff" stroke="transparent" points="13.5,-270 13.5,-328 266.5,-328 266.5,-270 13.5,-270"/>
<polygon fill="#f5f5f5" stroke="transparent" points="14,-306 14,-328 267,-328 267,-306 14,-306"/>
<polygon fill="none" stroke="black" points="14,-306 14,-328 267,-328 267,-306 14,-306"/>
<text text-anchor="start" x="19" y="-315.2" font-family="Helvetica,sans-Serif" font-weight="bold" font-size="11.00">tww_vl.wwtp_structure_kind</text>
<text text-anchor="start" x="225" y="-314.2" font-family="Helvetica,sans-Serif" font-size="11.00">[table]</text>
<polygon fill="none" stroke="black" points="14,-288 14,-306 267,-306 267,-288 14,-288"/>
<text text-anchor="start" x="17" y="-294.2" font-family="Helvetica,sans-Serif" font-size="11.00">...</text>
<polygon fill="#ffffff" stroke="transparent" points="14,-270 14,-288 267,-288 267,-270 14,-270"/>
<polygon fill="none" stroke="black" points="14,-270 14,-288 267,-288 267,-270 14,-270"/>
<polygon fill="#ffffff" stroke="transparent" points="15,-271 15,-287 85,-287 85,-271 15,-271"/>
<text text-anchor="start" x="17" y="-276.2" font-family="Helvetica,sans-Serif" font-size="11.00"> &#160;</text>
<polygon fill="#ffffff" stroke="transparent" points="85,-271 85,-287 184,-287 184,-271 85,-271"/>
<text text-anchor="start" x="116" y="-276.2" font-family="Helvetica,sans-Serif" font-size="11.00">0 rows</text>
<polygon fill="#ffffff" stroke="transparent" points="184,-271 184,-287 266,-287 266,-271 184,-271"/>
<text text-anchor="start" x="244" y="-276.2" font-family="Helvetica,sans-Serif" font-size="11.00">1 &gt;</text>
<polygon fill="black" stroke="black" points="85,-271 85,-287 85,-287 85,-271 85,-271"/>
<polygon fill="black" stroke="black" points="184,-271 184,-287 184,-287 184,-271 184,-271"/>
</a>
</g>
</g>
<!-- wwtp_structure&#45;&gt;tww_vl.wwtp_structure_kind -->
<g id="edge2" class="edge">
<title>wwtp_structure:w&#45;&gt;tww_vl.wwtp_structure_kind:e</title>
<path fill="none" stroke="black" d="M307.53,-299C296.79,-299 285.84,-299 274.93,-299"/>
<polygon fill="black" stroke="black" points="314,-299 322,-302.6 318,-299 322,-299 322,-299 322,-299 318,-299 322,-295.4 314,-299 314,-299"/>
<ellipse fill="none" stroke="black" cx="310.8" cy="-299" rx="3.2" ry="3.2"/>
</g>
<!-- wastewater_structure -->
<g id="node4" class="node">
<title>wastewater_structure</title>
<g id="a_node4"><a xlink:href="../../tables/wastewater_structure.html" xlink:title="wastewater_structure" target="_top">
<polygon fill="#ffffff" stroke="transparent" points="22.5,-349 22.5,-759 257.5,-759 257.5,-349 22.5,-349"/>
<polygon fill="#f5f5f5" stroke="transparent" points="23,-737 23,-759 258,-759 258,-737 23,-737"/>
<polygon fill="none" stroke="black" points="23,-737 23,-759 258,-759 258,-737 23,-737"/>
<text text-anchor="start" x="28" y="-746.2" font-family="Helvetica,sans-Serif" font-weight="bold" font-size="11.00">wastewater_structure</text>
<text text-anchor="start" x="216" y="-745.2" font-family="Helvetica,sans-Serif" font-size="11.00">[table]</text>
<polygon fill="none" stroke="black" points="23,-715 23,-737 258,-737 258,-715 23,-715"/>
<image xlink:href="../../images/primaryKeys.png" width="11px" height="12px" preserveAspectRatio="xMinYMin meet" x="28" y="-732"/>
<text text-anchor="start" x="43" y="-723.2" font-family="Helvetica,sans-Serif" font-size="11.00">obj_id</text>
<polygon fill="none" stroke="black" points="23,-693 23,-715 258,-715 258,-693 23,-693"/>
<image xlink:href="../../images/foreignKeys.png" width="11px" height="12px" preserveAspectRatio="xMinYMin meet" x="28" y="-710"/>
<text text-anchor="start" x="43" y="-701.2" font-family="Helvetica,sans-Serif" font-size="11.00">accessibility</text>
<polygon fill="#ffffff" stroke="transparent" points="23,-671 23,-693 258,-693 258,-671 23,-671"/>
<polygon fill="none" stroke="black" points="23,-671 23,-693 258,-693 258,-671 23,-671"/>
<text text-anchor="start" x="43" y="-679.2" font-family="Helvetica,sans-Serif" font-size="11.00">detail_geometry3d_geometry</text>
<polygon fill="none" stroke="black" points="23,-649 23,-671 258,-671 258,-649 23,-649"/>
<image xlink:href="../../images/foreignKeys.png" width="11px" height="12px" preserveAspectRatio="xMinYMin meet" x="28" y="-666"/>
<text text-anchor="start" x="43" y="-657.2" font-family="Helvetica,sans-Serif" font-size="11.00">elevation_determination</text>
<polygon fill="none" stroke="black" points="23,-627 23,-649 258,-649 258,-627 23,-627"/>
<image xlink:href="../../images/foreignKeys.png" width="11px" height="12px" preserveAspectRatio="xMinYMin meet" x="28" y="-644"/>
<text text-anchor="start" x="43" y="-635.2" font-family="Helvetica,sans-Serif" font-size="11.00">financing</text>
<polygon fill="#ffffff" stroke="transparent" points="23,-605 23,-627 258,-627 258,-605 23,-605"/>
<polygon fill="none" stroke="black" points="23,-605 23,-627 258,-627 258,-605 23,-605"/>
<text text-anchor="start" x="43" y="-613.2" font-family="Helvetica,sans-Serif" font-size="11.00">identifier</text>
<polygon fill="none" stroke="black" points="23,-583 23,-605 258,-605 258,-583 23,-583"/>
<image xlink:href="../../images/foreignKeys.png" width="11px" height="12px" preserveAspectRatio="xMinYMin meet" x="28" y="-600"/>
<text text-anchor="start" x="43" y="-591.2" font-family="Helvetica,sans-Serif" font-size="11.00">renovation_necessity</text>
<polygon fill="none" stroke="black" points="23,-561 23,-583 258,-583 258,-561 23,-561"/>
<image xlink:href="../../images/foreignKeys.png" width="11px" height="12px" preserveAspectRatio="xMinYMin meet" x="28" y="-578"/>
<text text-anchor="start" x="43" y="-569.2" font-family="Helvetica,sans-Serif" font-size="11.00">rv_construction_type</text>
<polygon fill="none" stroke="black" points="23,-539 23,-561 258,-561 258,-539 23,-539"/>
<image xlink:href="../../images/foreignKeys.png" width="11px" height="12px" preserveAspectRatio="xMinYMin meet" x="28" y="-556"/>
<text text-anchor="start" x="43" y="-547.2" font-family="Helvetica,sans-Serif" font-size="11.00">status</text>
<polygon fill="none" stroke="black" points="23,-517 23,-539 258,-539 258,-517 23,-517"/>
<image xlink:href="../../images/foreignKeys.png" width="11px" height="12px" preserveAspectRatio="xMinYMin meet" x="28" y="-534"/>
<text text-anchor="start" x="43" y="-525.2" font-family="Helvetica,sans-Serif" font-size="11.00">structure_condition</text>
<polygon fill="#ffffff" stroke="transparent" points="23,-495 23,-517 258,-517 258,-495 23,-495"/>
<polygon fill="none" stroke="black" points="23,-495 23,-517 258,-517 258,-495 23,-495"/>
<image xlink:href="../../images/foreignKeys.png" width="11px" height="12px" preserveAspectRatio="xMinYMin meet" x="28" y="-512"/>
<text text-anchor="start" x="43" y="-503.2" font-family="Helvetica,sans-Serif" font-size="11.00">fk_dataowner</text>
<polygon fill="none" stroke="black" points="23,-473 23,-495 258,-495 258,-473 23,-473"/>
<image xlink:href="../../images/foreignKeys.png" width="11px" height="12px" preserveAspectRatio="xMinYMin meet" x="28" y="-490"/>
<text text-anchor="start" x="43" y="-481.2" font-family="Helvetica,sans-Serif" font-size="11.00">fk_provider</text>
<polygon fill="none" stroke="black" points="23,-451 23,-473 258,-473 258,-451 23,-451"/>
<image xlink:href="../../images/foreignKeys.png" width="11px" height="12px" preserveAspectRatio="xMinYMin meet" x="28" y="-468"/>
<text text-anchor="start" x="43" y="-459.2" font-family="Helvetica,sans-Serif" font-size="11.00">fk_owner</text>
<polygon fill="none" stroke="black" points="23,-429 23,-451 258,-451 258,-429 23,-429"/>
<image xlink:href="../../images/foreignKeys.png" width="11px" height="12px" preserveAspectRatio="xMinYMin meet" x="28" y="-446"/>
<text text-anchor="start" x="43" y="-437.2" font-family="Helvetica,sans-Serif" font-size="11.00">fk_operator</text>
<polygon fill="none" stroke="black" points="23,-407 23,-429 258,-429 258,-407 23,-407"/>
<image xlink:href="../../images/foreignKeys.png" width="11px" height="12px" preserveAspectRatio="xMinYMin meet" x="28" y="-424"/>
<text text-anchor="start" x="43" y="-415.2" font-family="Helvetica,sans-Serif" font-size="11.00">fk_main_cover</text>
<polygon fill="none" stroke="black" points="23,-385 23,-407 258,-407 258,-385 23,-385"/>
<image xlink:href="../../images/foreignKeys.png" width="11px" height="12px" preserveAspectRatio="xMinYMin meet" x="28" y="-402"/>
<text text-anchor="start" x="43" y="-393.2" font-family="Helvetica,sans-Serif" font-size="11.00">fk_main_wastewater_node</text>
<polygon fill="none" stroke="black" points="23,-367 23,-385 258,-385 258,-367 23,-367"/>
<text text-anchor="start" x="26" y="-373.2" font-family="Helvetica,sans-Serif" font-size="11.00">...</text>
<polygon fill="#ffffff" stroke="transparent" points="23,-349 23,-367 258,-367 258,-349 23,-349"/>
<polygon fill="none" stroke="black" points="23,-349 23,-367 258,-367 258,-349 23,-349"/>
<polygon fill="#ffffff" stroke="transparent" points="24,-350 24,-366 108,-366 108,-350 24,-350"/>
<text text-anchor="start" x="26" y="-355.2" font-family="Helvetica,sans-Serif" font-size="11.00">&lt; 13</text>
<polygon fill="#ffffff" stroke="transparent" points="108,-350 108,-366 173,-366 173,-350 108,-350"/>
<text text-anchor="start" x="136.5" y="-355.2" font-family="Helvetica,sans-Serif" font-size="11.00"> &#160;</text>
<polygon fill="#ffffff" stroke="transparent" points="173,-350 173,-366 257,-366 257,-350 173,-350"/>
<text text-anchor="start" x="228" y="-355.2" font-family="Helvetica,sans-Serif" font-size="11.00">17 &gt;</text>
<polygon fill="black" stroke="black" points="108,-350 108,-366 108,-366 108,-350 108,-350"/>
<polygon fill="black" stroke="black" points="173,-350 173,-366 173,-366 173,-350 173,-350"/>
</a>
</g>
</g>
<!-- wwtp_structure&#45;&gt;wastewater_structure -->
<g id="edge3" class="edge">
<title>wwtp_structure:w&#45;&gt;wastewater_structure:e</title>
<path fill="none" stroke="black" d="M311.39,-323.18C240.77,-355.06 346.17,-726 259,-726"/>
<polygon fill="black" stroke="black" points="320.41,-317.24 322.02,-325.08 320.45,-325.4 318.84,-317.56 320.41,-317.24"/>
<polyline fill="none" stroke="black" points="322,-321 318.08,-321.8 "/>
<ellipse fill="none" stroke="black" cx="314.95" cy="-322.45" rx="3.2" ry="3.2"/>
</g>
</g>
</svg>
