<?xml version="1.0" encoding="UTF-8" standalone="no"?>
<!DOCTYPE svg PUBLIC "-//W3C//DTD SVG 1.1//EN"
 "http://www.w3.org/Graphics/SVG/1.1/DTD/svg11.dtd">
<!-- Generated by graphviz version 2.47.1 (20210515.0534)
 -->
<!-- Title: oneDegreeRelationshipsDiagram Pages: 1 -->
<svg width="636pt" height="465pt"
 viewBox="0.00 0.00 636.00 465.00" xmlns="http://www.w3.org/2000/svg" xmlns:xlink="http://www.w3.org/1999/xlink">
<g id="graph0" class="graph" transform="scale(1 1) rotate(0) translate(4 461)">
<title>oneDegreeRelationshipsDiagram</title>
<polygon fill="#ffffff" stroke="transparent" points="-4,4 -4,-461 632,-461 632,4 -4,4"/>
<text text-anchor="middle" x="73.5" y="-7.2" font-family="Helvetica,sans-Serif" font-size="11.00">Generated by SchemaSpy</text>
<!-- _planning_zone -->
<g id="node1" class="node">
<title>_planning_zone</title>
<g id="a_node1"><a xlink:href="../../tables/_planning_zone.html" xlink:title="_planning_zone" target="_top">
<polygon fill="#ffffff" stroke="transparent" points="476,-347 476,-453 620,-453 620,-347 476,-347"/>
<polygon fill="#f5f5f5" stroke="transparent" points="476,-431 476,-453 620,-453 620,-431 476,-431"/>
<polygon fill="none" stroke="black" points="476,-431 476,-453 620,-453 620,-431 476,-431"/>
<text text-anchor="start" x="481" y="-440.2" font-family="Helvetica,sans-Serif" font-weight="bold" font-size="11.00">_planning_zone</text>
<text text-anchor="start" x="581" y="-439.2" font-family="Helvetica,sans-Serif" font-size="11.00">[table]</text>
<polygon fill="none" stroke="black" points="476,-409 476,-431 620,-431 620,-409 476,-409"/>
<image xlink:href="../../images/primaryKeys.png" width="11px" height="12px" preserveAspectRatio="xMinYMin meet" x="481" y="-426"/>
<text text-anchor="start" x="496" y="-417.2" font-family="Helvetica,sans-Serif" font-size="11.00">obj_id</text>
<polygon fill="none" stroke="black" points="476,-387 476,-409 620,-409 620,-387 476,-387"/>
<image xlink:href="../../images/foreignKeys.png" width="11px" height="12px" preserveAspectRatio="xMinYMin meet" x="481" y="-404"/>
<text text-anchor="start" x="496" y="-395.2" font-family="Helvetica,sans-Serif" font-size="11.00">kind</text>
<polygon fill="#ffffff" stroke="transparent" points="476,-365 476,-387 620,-387 620,-365 476,-365"/>
<polygon fill="none" stroke="black" points="476,-365 476,-387 620,-387 620,-365 476,-365"/>
<text text-anchor="start" x="496" y="-373.2" font-family="Helvetica,sans-Serif" font-size="11.00">perimeter_geometry</text>
<polygon fill="#ffffff" stroke="transparent" points="476,-347 476,-365 546,-365 546,-347 476,-347"/>
<polygon fill="none" stroke="black" points="476,-347 476,-365 546,-365 546,-347 476,-347"/>
<text text-anchor="start" x="479" y="-353.2" font-family="Helvetica,sans-Serif" font-size="11.00">&lt; 2</text>
<polygon fill="#ffffff" stroke="transparent" points="546,-347 546,-365 583,-365 583,-347 546,-347"/>
<polygon fill="none" stroke="black" points="546,-347 546,-365 583,-365 583,-347 546,-347"/>
<text text-anchor="start" x="573" y="-353.2" font-family="Helvetica,sans-Serif" font-size="11.00"> &#160;</text>
<polygon fill="#ffffff" stroke="transparent" points="583,-347 583,-365 620,-365 620,-347 583,-347"/>
<polygon fill="none" stroke="black" points="583,-347 583,-365 620,-365 620,-347 583,-347"/>
<text text-anchor="start" x="610" y="-353.2" font-family="Helvetica,sans-Serif" font-size="11.00"> &#160;</text>
</a>
</g>
</g>
<!-- zone -->
<g id="node2" class="node">
<title>zone</title>
<g id="a_node2"><a xlink:href="../../tables/zone.html" xlink:title="zone" target="_top">
<polygon fill="#ffffff" stroke="transparent" points="205,-152 205,-328 427,-328 427,-152 205,-152"/>
<polygon fill="#f5f5f5" stroke="transparent" points="207,-304 207,-326 425,-326 425,-304 207,-304"/>
<polygon fill="none" stroke="black" points="207,-304 207,-326 425,-326 425,-304 207,-304"/>
<text text-anchor="start" x="210.5" y="-313.2" font-family="Helvetica,sans-Serif" font-weight="bold" font-size="11.00">zone</text>
<text text-anchor="start" x="386" y="-312.2" font-family="Helvetica,sans-Serif" font-size="11.00">[table]</text>
<polygon fill="none" stroke="black" points="207,-282 207,-304 331,-304 331,-282 207,-282"/>
<image xlink:href="../../images/primaryKeys.png" width="11px" height="12px" preserveAspectRatio="xMinYMin meet" x="212" y="-299"/>
<text text-anchor="start" x="227" y="-290.2" font-family="Helvetica,sans-Serif" font-size="11.00">obj_id</text>
<polygon fill="none" stroke="black" points="331,-282 331,-304 425,-304 425,-282 331,-282"/>
<text text-anchor="start" x="334" y="-290.2" font-family="Helvetica,sans-Serif" font-size="11.00">varchar[16]</text>
<polygon fill="#ffffff" stroke="transparent" points="207,-260 207,-282 331,-282 331,-260 207,-260"/>
<polygon fill="none" stroke="black" points="207,-260 207,-282 331,-282 331,-260 207,-260"/>
<text text-anchor="start" x="227" y="-268.2" font-family="Helvetica,sans-Serif" font-size="11.00">identifier</text>
<polygon fill="none" stroke="black" points="331,-260 331,-282 425,-282 425,-260 331,-260"/>
<text text-anchor="start" x="334" y="-268.2" font-family="Helvetica,sans-Serif" font-size="11.00">text[2147483647]</text>
<polygon fill="none" stroke="black" points="207,-238 207,-260 331,-260 331,-238 207,-238"/>
<text text-anchor="start" x="227" y="-246.2" font-family="Helvetica,sans-Serif" font-size="11.00">remark</text>
<polygon fill="none" stroke="black" points="331,-238 331,-260 425,-260 425,-238 331,-238"/>
<text text-anchor="start" x="334" y="-246.2" font-family="Helvetica,sans-Serif" font-size="11.00">text[2147483647]</text>
<polygon fill="none" stroke="black" points="207,-216 207,-238 331,-238 331,-216 207,-216"/>
<text text-anchor="start" x="227" y="-224.2" font-family="Helvetica,sans-Serif" font-size="11.00">last_modification</text>
<polygon fill="none" stroke="black" points="331,-216 331,-238 425,-238 425,-216 331,-216"/>
<text text-anchor="start" x="334" y="-224.2" font-family="Helvetica,sans-Serif" font-size="11.00">timestamp[29,6]</text>
<polygon fill="#ffffff" stroke="transparent" points="207,-194 207,-216 331,-216 331,-194 207,-194"/>
<polygon fill="none" stroke="black" points="207,-194 207,-216 331,-216 331,-194 207,-194"/>
<image xlink:href="../../images/foreignKeys.png" width="11px" height="12px" preserveAspectRatio="xMinYMin meet" x="212" y="-211"/>
<text text-anchor="start" x="227" y="-202.2" font-family="Helvetica,sans-Serif" font-size="11.00">fk_dataowner</text>
<polygon fill="none" stroke="black" points="331,-194 331,-216 425,-216 425,-194 331,-194"/>
<text text-anchor="start" x="334" y="-202.2" font-family="Helvetica,sans-Serif" font-size="11.00">varchar[16]</text>
<polygon fill="none" stroke="black" points="207,-172 207,-194 331,-194 331,-172 207,-172"/>
<image xlink:href="../../images/foreignKeys.png" width="11px" height="12px" preserveAspectRatio="xMinYMin meet" x="212" y="-189"/>
<text text-anchor="start" x="227" y="-180.2" font-family="Helvetica,sans-Serif" font-size="11.00">fk_provider</text>
<polygon fill="none" stroke="black" points="331,-172 331,-194 425,-194 425,-172 331,-172"/>
<text text-anchor="start" x="334" y="-180.2" font-family="Helvetica,sans-Serif" font-size="11.00">varchar[16]</text>
<polygon fill="#ffffff" stroke="transparent" points="207,-154 207,-172 273,-172 273,-154 207,-154"/>
<polygon fill="none" stroke="black" points="207,-154 207,-172 273,-172 273,-154 207,-154"/>
<text text-anchor="start" x="210" y="-160.2" font-family="Helvetica,sans-Serif" font-size="11.00">&lt; 2</text>
<polygon fill="#ffffff" stroke="transparent" points="273,-154 273,-172 331,-172 331,-154 273,-154"/>
<polygon fill="none" stroke="black" points="273,-154 273,-172 331,-172 331,-154 273,-154"/>
<text text-anchor="start" x="321" y="-160.2" font-family="Helvetica,sans-Serif" font-size="11.00"> &#160;</text>
<polygon fill="#ffffff" stroke="transparent" points="331,-154 331,-172 425,-172 425,-154 331,-154"/>
<polygon fill="none" stroke="black" points="331,-154 331,-172 425,-172 425,-154 331,-154"/>
<text text-anchor="start" x="406" y="-160.2" font-family="Helvetica,sans-Serif" font-size="11.00">3 &gt;</text>
<polygon fill="none" stroke="black" stroke-width="2" points="206,-153 206,-327 426,-327 426,-153 206,-153"/>
</a>
</g>
</g>
<!-- _planning_zone&#45;&gt;zone -->
<g id="edge1" class="edge">
<title>_planning_zone:w&#45;&gt;zone:e</title>
<path fill="none" stroke="black" d="M464.62,-418.39C423.48,-403.69 482.48,-293 426,-293"/>
<polygon fill="black" stroke="black" points="474.82,-415.92 473.6,-423.83 472.02,-423.59 473.24,-415.68 474.82,-415.92"/>
<polyline fill="none" stroke="black" points="475,-420 471.05,-419.39 "/>
<ellipse fill="none" stroke="black" cx="467.88" cy="-418.9" rx="3.2" ry="3.2"/>
</g>
<!-- organisation -->
<g id="node5" class="node">
<title>organisation</title>
<g id="a_node5"><a xlink:href="../../tables/organisation.html" xlink:title="organisation" target="_top">
<polygon fill="#ffffff" stroke="transparent" points="8,-37 8,-227 156,-227 156,-37 8,-37"/>
<polygon fill="#f5f5f5" stroke="transparent" points="8,-205 8,-227 156,-227 156,-205 8,-205"/>
<polygon fill="none" stroke="black" points="8,-205 8,-227 156,-227 156,-205 8,-205"/>
<text text-anchor="start" x="13" y="-214.2" font-family="Helvetica,sans-Serif" font-weight="bold" font-size="11.00">organisation</text>
<text text-anchor="start" x="117" y="-213.2" font-family="Helvetica,sans-Serif" font-size="11.00">[table]</text>
<polygon fill="none" stroke="black" points="8,-183 8,-205 156,-205 156,-183 8,-183"/>
<image xlink:href="../../images/primaryKeys.png" width="11px" height="12px" preserveAspectRatio="xMinYMin meet" x="13" y="-200"/>
<text text-anchor="start" x="28" y="-191.2" font-family="Helvetica,sans-Serif" font-size="11.00">obj_id</text>
<polygon fill="#ffffff" stroke="transparent" points="8,-161 8,-183 156,-183 156,-161 8,-161"/>
<polygon fill="none" stroke="black" points="8,-161 8,-183 156,-183 156,-161 8,-161"/>
<text text-anchor="start" x="28" y="-169.2" font-family="Helvetica,sans-Serif" font-size="11.00">identifier</text>
<polygon fill="none" stroke="black" points="8,-139 8,-161 156,-161 156,-139 8,-139"/>
<image xlink:href="../../images/foreignKeys.png" width="11px" height="12px" preserveAspectRatio="xMinYMin meet" x="13" y="-156"/>
<text text-anchor="start" x="28" y="-147.2" font-family="Helvetica,sans-Serif" font-size="11.00">organisation_type</text>
<polygon fill="none" stroke="black" points="8,-117 8,-139 156,-139 156,-117 8,-117"/>
<image xlink:href="../../images/foreignKeys.png" width="11px" height="12px" preserveAspectRatio="xMinYMin meet" x="13" y="-134"/>
<text text-anchor="start" x="28" y="-125.2" font-family="Helvetica,sans-Serif" font-size="11.00">status</text>
<polygon fill="#ffffff" stroke="transparent" points="8,-95 8,-117 156,-117 156,-95 8,-95"/>
<polygon fill="none" stroke="black" points="8,-95 8,-117 156,-117 156,-95 8,-95"/>
<image xlink:href="../../images/foreignKeys.png" width="11px" height="12px" preserveAspectRatio="xMinYMin meet" x="13" y="-112"/>
<text text-anchor="start" x="28" y="-103.2" font-family="Helvetica,sans-Serif" font-size="11.00">fk_dataowner</text>
<polygon fill="none" stroke="black" points="8,-73 8,-95 156,-95 156,-73 8,-73"/>
<image xlink:href="../../images/foreignKeys.png" width="11px" height="12px" preserveAspectRatio="xMinYMin meet" x="13" y="-90"/>
<text text-anchor="start" x="28" y="-81.2" font-family="Helvetica,sans-Serif" font-size="11.00">fk_provider</text>
<polygon fill="none" stroke="black" points="8,-55 8,-73 156,-73 156,-55 8,-55"/>
<text text-anchor="start" x="11" y="-61.2" font-family="Helvetica,sans-Serif" font-size="11.00">...</text>
<polygon fill="#ffffff" stroke="transparent" points="8,-37 8,-55 72,-55 72,-37 8,-37"/>
<polygon fill="none" stroke="black" points="8,-37 8,-55 72,-55 72,-37 8,-37"/>
<text text-anchor="start" x="11" y="-43.2" font-family="Helvetica,sans-Serif" font-size="11.00">&lt; 4</text>
<polygon fill="#ffffff" stroke="transparent" points="72,-37 72,-55 106,-55 106,-37 72,-37"/>
<polygon fill="none" stroke="black" points="72,-37 72,-55 106,-55 106,-37 72,-37"/>
<text text-anchor="start" x="96" y="-43.2" font-family="Helvetica,sans-Serif" font-size="11.00"> &#160;</text>
<polygon fill="#ffffff" stroke="transparent" points="106,-37 106,-55 156,-55 156,-37 106,-37"/>
<polygon fill="none" stroke="black" points="106,-37 106,-55 156,-55 156,-37 106,-37"/>
<text text-anchor="start" x="131" y="-43.2" font-family="Helvetica,sans-Serif" font-size="11.00">92 &gt;</text>
</a>
</g>
</g>
<!-- zone&#45;&gt;organisation -->
<g id="edge4" class="edge">
<title>zone:w&#45;&gt;organisation:e</title>
<path fill="none" stroke="black" d="M191.7,-203.18C180.24,-200.06 173.57,-194 157,-194"/>
<polygon fill="black" stroke="black" points="198.06,-203.99 205.55,-208.57 202.03,-204.5 206,-205 206,-205 206,-205 202.03,-204.5 206.45,-201.43 198.06,-203.99 198.06,-203.99"/>
<ellipse fill="none" stroke="black" cx="194.89" cy="-203.59" rx="3.2" ry="3.2"/>
</g>
<!-- zone&#45;&gt;organisation -->
<g id="edge5" class="edge">
<title>zone:w&#45;&gt;organisation:e</title>
<path fill="none" stroke="black" d="M191.7,-184.82C180.24,-187.94 173.57,-194 157,-194"/>
<polygon fill="black" stroke="black" points="198.06,-184.01 206.45,-186.57 202.03,-183.5 206,-183 206,-183 206,-183 202.03,-183.5 205.55,-179.43 198.06,-184.01 198.06,-184.01"/>
<ellipse fill="none" stroke="black" cx="194.89" cy="-184.41" rx="3.2" ry="3.2"/>
</g>
<!-- drainage_system -->
<g id="node3" class="node">
<title>drainage_system</title>
<g id="a_node3"><a xlink:href="../../tables/drainage_system.html" xlink:title="drainage_system" target="_top">
<polygon fill="#ffffff" stroke="transparent" points="476,-220 476,-326 620,-326 620,-220 476,-220"/>
<polygon fill="#f5f5f5" stroke="transparent" points="476,-304 476,-326 620,-326 620,-304 476,-304"/>
<polygon fill="none" stroke="black" points="476,-304 476,-326 620,-326 620,-304 476,-304"/>
<text text-anchor="start" x="481" y="-313.2" font-family="Helvetica,sans-Serif" font-weight="bold" font-size="11.00">drainage_system</text>
<text text-anchor="start" x="581" y="-312.2" font-family="Helvetica,sans-Serif" font-size="11.00">[table]</text>
<polygon fill="none" stroke="black" points="476,-282 476,-304 620,-304 620,-282 476,-282"/>
<image xlink:href="../../images/primaryKeys.png" width="11px" height="12px" preserveAspectRatio="xMinYMin meet" x="481" y="-299"/>
<text text-anchor="start" x="496" y="-290.2" font-family="Helvetica,sans-Serif" font-size="11.00">obj_id</text>
<polygon fill="none" stroke="black" points="476,-260 476,-282 620,-282 620,-260 476,-260"/>
<image xlink:href="../../images/foreignKeys.png" width="11px" height="12px" preserveAspectRatio="xMinYMin meet" x="481" y="-277"/>
<text text-anchor="start" x="496" y="-268.2" font-family="Helvetica,sans-Serif" font-size="11.00">kind</text>
<polygon fill="#ffffff" stroke="transparent" points="476,-238 476,-260 620,-260 620,-238 476,-238"/>
<polygon fill="none" stroke="black" points="476,-238 476,-260 620,-260 620,-238 476,-238"/>
<text text-anchor="start" x="496" y="-246.2" font-family="Helvetica,sans-Serif" font-size="11.00">perimeter_geometry</text>
<polygon fill="#ffffff" stroke="transparent" points="476,-220 476,-238 546,-238 546,-220 476,-220"/>
<polygon fill="none" stroke="black" points="476,-220 476,-238 546,-238 546,-220 476,-220"/>
<text text-anchor="start" x="479" y="-226.2" font-family="Helvetica,sans-Serif" font-size="11.00">&lt; 2</text>
<polygon fill="#ffffff" stroke="transparent" points="546,-220 546,-238 583,-238 583,-220 546,-220"/>
<polygon fill="none" stroke="black" points="546,-220 546,-238 583,-238 583,-220 546,-220"/>
<text text-anchor="start" x="573" y="-226.2" font-family="Helvetica,sans-Serif" font-size="11.00"> &#160;</text>
<polygon fill="#ffffff" stroke="transparent" points="583,-220 583,-238 620,-238 620,-220 583,-220"/>
<polygon fill="none" stroke="black" points="583,-220 583,-238 620,-238 620,-220 583,-220"/>
<text text-anchor="start" x="610" y="-226.2" font-family="Helvetica,sans-Serif" font-size="11.00"> &#160;</text>
</a>
</g>
</g>
<!-- drainage_system&#45;&gt;zone -->
<g id="edge2" class="edge">
<title>drainage_system:w&#45;&gt;zone:e</title>
<path fill="none" stroke="black" d="M464.26,-293C450.61,-293 443.69,-293 426,-293"/>
<polygon fill="black" stroke="black" points="474.2,-289 474.2,-297 472.6,-297 472.6,-289 474.2,-289"/>
<polyline fill="none" stroke="black" points="475,-293 471,-293 "/>
<ellipse fill="none" stroke="black" cx="467.8" cy="-293" rx="3.2" ry="3.2"/>
</g>
<!-- infiltration_zone -->
<g id="node4" class="node">
<title>infiltration_zone</title>
<g id="a_node4"><a xlink:href="../../tables/infiltration_zone.html" xlink:title="infiltration_zone" target="_top">
<polygon fill="#ffffff" stroke="transparent" points="476,-93 476,-199 620,-199 620,-93 476,-93"/>
<polygon fill="#f5f5f5" stroke="transparent" points="476,-177 476,-199 620,-199 620,-177 476,-177"/>
<polygon fill="none" stroke="black" points="476,-177 476,-199 620,-199 620,-177 476,-177"/>
<text text-anchor="start" x="481" y="-186.2" font-family="Helvetica,sans-Serif" font-weight="bold" font-size="11.00">infiltration_zone</text>
<text text-anchor="start" x="581" y="-185.2" font-family="Helvetica,sans-Serif" font-size="11.00">[table]</text>
<polygon fill="none" stroke="black" points="476,-155 476,-177 620,-177 620,-155 476,-155"/>
<image xlink:href="../../images/primaryKeys.png" width="11px" height="12px" preserveAspectRatio="xMinYMin meet" x="481" y="-172"/>
<text text-anchor="start" x="496" y="-163.2" font-family="Helvetica,sans-Serif" font-size="11.00">obj_id</text>
<polygon fill="none" stroke="black" points="476,-133 476,-155 620,-155 620,-133 476,-133"/>
<image xlink:href="../../images/foreignKeys.png" width="11px" height="12px" preserveAspectRatio="xMinYMin meet" x="481" y="-150"/>
<text text-anchor="start" x="496" y="-141.2" font-family="Helvetica,sans-Serif" font-size="11.00">infiltration_capacity</text>
<polygon fill="#ffffff" stroke="transparent" points="476,-111 476,-133 620,-133 620,-111 476,-111"/>
<polygon fill="none" stroke="black" points="476,-111 476,-133 620,-133 620,-111 476,-111"/>
<text text-anchor="start" x="496" y="-119.2" font-family="Helvetica,sans-Serif" font-size="11.00">perimeter_geometry</text>
<polygon fill="#ffffff" stroke="transparent" points="476,-93 476,-111 546,-111 546,-93 476,-93"/>
<polygon fill="none" stroke="black" points="476,-93 476,-111 546,-111 546,-93 476,-93"/>
<text text-anchor="start" x="479" y="-99.2" font-family="Helvetica,sans-Serif" font-size="11.00">&lt; 2</text>
<polygon fill="#ffffff" stroke="transparent" points="546,-93 546,-111 583,-111 583,-93 546,-93"/>
<polygon fill="none" stroke="black" points="546,-93 546,-111 583,-111 583,-93 546,-93"/>
<text text-anchor="start" x="573" y="-99.2" font-family="Helvetica,sans-Serif" font-size="11.00"> &#160;</text>
<polygon fill="#ffffff" stroke="transparent" points="583,-93 583,-111 620,-111 620,-93 583,-93"/>
<polygon fill="none" stroke="black" points="583,-93 583,-111 620,-111 620,-93 583,-93"/>
<text text-anchor="start" x="610" y="-99.2" font-family="Helvetica,sans-Serif" font-size="11.00"> &#160;</text>
</a>
</g>
</g>
<!-- infiltration_zone&#45;&gt;zone -->
<g id="edge3" class="edge">
<title>infiltration_zone:w&#45;&gt;zone:e</title>
<path fill="none" stroke="black" d="M464.62,-167.61C423.48,-182.31 482.48,-293 426,-293"/>
<polygon fill="black" stroke="black" points="473.6,-162.17 474.82,-170.08 473.24,-170.32 472.02,-162.41 473.6,-162.17"/>
<polyline fill="none" stroke="black" points="475,-166 471.05,-166.61 "/>
<ellipse fill="none" stroke="black" cx="467.88" cy="-167.1" rx="3.2" ry="3.2"/>
</g>
</g>
</svg>
