<?xml version="1.0" encoding="UTF-8" standalone="no"?>
<!DOCTYPE svg PUBLIC "-//W3C//DTD SVG 1.1//EN"
 "http://www.w3.org/Graphics/SVG/1.1/DTD/svg11.dtd">
<!-- Generated by graphviz version 2.47.1 (20210515.0534)
 -->
<!-- Title: oneDegreeRelationshipsDiagram Pages: 1 -->
<svg width="543pt" height="379pt"
 viewBox="0.00 0.00 543.00 379.00" xmlns="http://www.w3.org/2000/svg" xmlns:xlink="http://www.w3.org/1999/xlink">
<g id="graph0" class="graph" transform="scale(1 1) rotate(0) translate(4 375)">
<title>oneDegreeRelationshipsDiagram</title>
<polygon fill="#ffffff" stroke="transparent" points="-4,4 -4,-375 539,-375 539,4 -4,4"/>
<text text-anchor="middle" x="73.5" y="-7.2" font-family="Helvetica,sans-Serif" font-size="11.00">Generated by SchemaSpy</text>
<!-- tww_od.backflow_prevention -->
<g id="node1" class="node">
<title>tww_od.backflow_prevention</title>
<g id="a_node1"><a xlink:href="../../../tww_od/tables/backflow_prevention.html" xlink:title="tww_od.backflow_prevention" target="_top">
<polygon fill="#ffffff" stroke="transparent" points="309,-285 309,-365 527,-365 527,-285 309,-285"/>
<polygon fill="#f5f5f5" stroke="transparent" points="309,-343 309,-365 527,-365 527,-343 309,-343"/>
<polygon fill="none" stroke="black" points="309,-343 309,-365 527,-365 527,-343 309,-343"/>
<text text-anchor="start" x="314" y="-352.2" font-family="Helvetica,sans-Serif" font-weight="bold" font-size="11.00">tww_od.backflow_prevention</text>
<text text-anchor="start" x="488" y="-351.2" font-family="Helvetica,sans-Serif" font-size="11.00">[table]</text>
<polygon fill="none" stroke="black" points="309,-321 309,-343 527,-343 527,-321 309,-321"/>
<image xlink:href="../../images/foreignKeys.png" width="11px" height="12px" preserveAspectRatio="xMinYMin meet" x="314" y="-338"/>
<text text-anchor="start" x="354" y="-329.2" font-family="Helvetica,sans-Serif" font-size="11.00">kind</text>
<polygon fill="none" stroke="black" points="309,-303 309,-321 527,-321 527,-303 309,-303"/>
<text text-anchor="start" x="312" y="-309.2" font-family="Helvetica,sans-Serif" font-size="11.00">...</text>
<polygon fill="#ffffff" stroke="transparent" points="309,-285 309,-303 402,-303 402,-285 309,-285"/>
<polygon fill="none" stroke="black" points="309,-285 309,-303 402,-303 402,-285 309,-285"/>
<text text-anchor="start" x="312" y="-291.2" font-family="Helvetica,sans-Serif" font-size="11.00">&lt; 1</text>
<polygon fill="#ffffff" stroke="transparent" points="402,-285 402,-303 478,-303 478,-285 402,-285"/>
<polygon fill="none" stroke="black" points="402,-285 402,-303 478,-303 478,-285 402,-285"/>
<text text-anchor="start" x="441" y="-291.2" font-family="Helvetica,sans-Serif" font-size="11.00">0 rows</text>
<polygon fill="#ffffff" stroke="transparent" points="478,-285 478,-303 527,-303 527,-285 478,-285"/>
<polygon fill="none" stroke="black" points="478,-285 478,-303 527,-303 527,-285 478,-285"/>
<text text-anchor="start" x="517" y="-291.2" font-family="Helvetica,sans-Serif" font-size="11.00"> &#160;</text>
</a>
</g>
</g>
<!-- backflow_prevention_kind -->
<g id="node2" class="node">
<title>backflow_prevention_kind</title>
<g id="a_node2"><a xlink:href="../../tables/backflow_prevention_kind.html" xlink:title="backflow_prevention_kind" target="_top">
<polygon fill="#ffffff" stroke="transparent" points="8,-37 8,-367 260,-367 260,-37 8,-37"/>
<polygon fill="#f5f5f5" stroke="transparent" points="10,-343 10,-365 258,-365 258,-343 10,-343"/>
<polygon fill="none" stroke="black" points="10,-343 10,-365 258,-365 258,-343 10,-343"/>
<text text-anchor="start" x="15" y="-352.2" font-family="Helvetica,sans-Serif" font-weight="bold" font-size="11.00">backflow_prevention_kind</text>
<text text-anchor="start" x="219" y="-351.2" font-family="Helvetica,sans-Serif" font-size="11.00">[table]</text>
<polygon fill="none" stroke="black" points="10,-321 10,-343 188,-343 188,-321 10,-321"/>
<image xlink:href="../../images/primaryKeys.png" width="11px" height="12px" preserveAspectRatio="xMinYMin meet" x="15" y="-338"/>
<text text-anchor="start" x="30" y="-329.2" font-family="Helvetica,sans-Serif" font-size="11.00">code</text>
<polygon fill="none" stroke="black" points="188,-321 188,-343 258,-343 258,-321 188,-321"/>
<text text-anchor="start" x="191" y="-329.2" font-family="Helvetica,sans-Serif" font-size="11.00">int4[10]</text>
<polygon fill="none" stroke="black" points="10,-299 10,-321 188,-321 188,-299 10,-299"/>
<text text-anchor="start" x="30" y="-307.2" font-family="Helvetica,sans-Serif" font-size="11.00">vsacode</text>
<polygon fill="none" stroke="black" points="188,-299 188,-321 258,-321 258,-299 188,-299"/>
<text text-anchor="start" x="191" y="-307.2" font-family="Helvetica,sans-Serif" font-size="11.00">int4[10]</text>
<polygon fill="none" stroke="black" points="10,-277 10,-299 188,-299 188,-277 10,-277"/>
<text text-anchor="start" x="30" y="-285.2" font-family="Helvetica,sans-Serif" font-size="11.00">value_en</text>
<polygon fill="none" stroke="black" points="188,-277 188,-299 258,-299 258,-277 188,-277"/>
<text text-anchor="start" x="191" y="-285.2" font-family="Helvetica,sans-Serif" font-size="11.00">varchar[100]</text>
<polygon fill="none" stroke="black" points="10,-255 10,-277 188,-277 188,-255 10,-255"/>
<text text-anchor="start" x="30" y="-263.2" font-family="Helvetica,sans-Serif" font-size="11.00">value_de</text>
<polygon fill="none" stroke="black" points="188,-255 188,-277 258,-277 258,-255 188,-255"/>
<text text-anchor="start" x="191" y="-263.2" font-family="Helvetica,sans-Serif" font-size="11.00">varchar[100]</text>
<polygon fill="none" stroke="black" points="10,-233 10,-255 188,-255 188,-233 10,-233"/>
<text text-anchor="start" x="30" y="-241.2" font-family="Helvetica,sans-Serif" font-size="11.00">value_fr</text>
<polygon fill="none" stroke="black" points="188,-233 188,-255 258,-255 258,-233 188,-233"/>
<text text-anchor="start" x="191" y="-241.2" font-family="Helvetica,sans-Serif" font-size="11.00">varchar[100]</text>
<polygon fill="none" stroke="black" points="10,-211 10,-233 188,-233 188,-211 10,-211"/>
<text text-anchor="start" x="30" y="-219.2" font-family="Helvetica,sans-Serif" font-size="11.00">value_it</text>
<polygon fill="none" stroke="black" points="188,-211 188,-233 258,-233 258,-211 188,-211"/>
<text text-anchor="start" x="191" y="-219.2" font-family="Helvetica,sans-Serif" font-size="11.00">varchar[100]</text>
<polygon fill="none" stroke="black" points="10,-189 10,-211 188,-211 188,-189 10,-189"/>
<text text-anchor="start" x="30" y="-197.2" font-family="Helvetica,sans-Serif" font-size="11.00">value_ro</text>
<polygon fill="none" stroke="black" points="188,-189 188,-211 258,-211 258,-189 188,-189"/>
<text text-anchor="start" x="191" y="-197.2" font-family="Helvetica,sans-Serif" font-size="11.00">varchar[100]</text>
<polygon fill="none" stroke="black" points="10,-167 10,-189 188,-189 188,-167 10,-167"/>
<text text-anchor="start" x="30" y="-175.2" font-family="Helvetica,sans-Serif" font-size="11.00">abbr_en</text>
<polygon fill="none" stroke="black" points="188,-167 188,-189 258,-189 258,-167 188,-167"/>
<text text-anchor="start" x="191" y="-175.2" font-family="Helvetica,sans-Serif" font-size="11.00">varchar[3]</text>
<polygon fill="none" stroke="black" points="10,-145 10,-167 188,-167 188,-145 10,-145"/>
<text text-anchor="start" x="30" y="-153.2" font-family="Helvetica,sans-Serif" font-size="11.00">abbr_de</text>
<polygon fill="none" stroke="black" points="188,-145 188,-167 258,-167 258,-145 188,-145"/>
<text text-anchor="start" x="191" y="-153.2" font-family="Helvetica,sans-Serif" font-size="11.00">varchar[3]</text>
<polygon fill="none" stroke="black" points="10,-123 10,-145 188,-145 188,-123 10,-123"/>
<text text-anchor="start" x="30" y="-131.2" font-family="Helvetica,sans-Serif" font-size="11.00">abbr_fr</text>
<polygon fill="none" stroke="black" points="188,-123 188,-145 258,-145 258,-123 188,-123"/>
<text text-anchor="start" x="191" y="-131.2" font-family="Helvetica,sans-Serif" font-size="11.00">varchar[3]</text>
<polygon fill="none" stroke="black" points="10,-101 10,-123 188,-123 188,-101 10,-101"/>
<text text-anchor="start" x="30" y="-109.2" font-family="Helvetica,sans-Serif" font-size="11.00">abbr_it</text>
<polygon fill="none" stroke="black" points="188,-101 188,-123 258,-123 258,-101 188,-101"/>
<text text-anchor="start" x="191" y="-109.2" font-family="Helvetica,sans-Serif" font-size="11.00">varchar[3]</text>
<polygon fill="none" stroke="black" points="10,-79 10,-101 188,-101 188,-79 10,-79"/>
<text text-anchor="start" x="30" y="-87.2" font-family="Helvetica,sans-Serif" font-size="11.00">abbr_ro</text>
<polygon fill="none" stroke="black" points="188,-79 188,-101 258,-101 258,-79 188,-79"/>
<text text-anchor="start" x="191" y="-87.2" font-family="Helvetica,sans-Serif" font-size="11.00">varchar[3]</text>
<polygon fill="none" stroke="black" points="10,-57 10,-79 188,-79 188,-57 10,-57"/>
<text text-anchor="start" x="30" y="-65.2" font-family="Helvetica,sans-Serif" font-size="11.00">active</text>
<polygon fill="none" stroke="black" points="188,-57 188,-79 258,-79 258,-57 188,-57"/>
<text text-anchor="start" x="191" y="-65.2" font-family="Helvetica,sans-Serif" font-size="11.00">bool[1]</text>
<polygon fill="#ffffff" stroke="transparent" points="10,-39 10,-57 103,-57 103,-39 10,-39"/>
<polygon fill="none" stroke="black" points="10,-39 10,-57 103,-57 103,-39 10,-39"/>
<text text-anchor="start" x="13" y="-45.2" font-family="Helvetica,sans-Serif" font-size="11.00">&lt; 0</text>
<polygon fill="#ffffff" stroke="transparent" points="103,-39 103,-57 188,-57 188,-39 103,-39"/>
<polygon fill="none" stroke="black" points="103,-39 103,-57 188,-57 188,-39 103,-39"/>
<text text-anchor="start" x="178" y="-45.2" font-family="Helvetica,sans-Serif" font-size="11.00"> &#160;</text>
<polygon fill="#ffffff" stroke="transparent" points="188,-39 188,-57 258,-57 258,-39 188,-39"/>
<polygon fill="none" stroke="black" points="188,-39 188,-57 258,-57 258,-39 188,-39"/>
<text text-anchor="start" x="239" y="-45.2" font-family="Helvetica,sans-Serif" font-size="11.00">1 &gt;</text>
<polygon fill="none" stroke="black" stroke-width="2" points="9,-38 9,-366 259,-366 259,-38 9,-38"/>
</a>
</g>
</g>
<!-- tww_od.backflow_prevention&#45;&gt;backflow_prevention_kind -->
<g id="edge1" class="edge">
<title>tww_od.backflow_prevention:w&#45;&gt;backflow_prevention_kind:e</title>
<path fill="none" stroke="black" d="M293.49,-332C282.18,-332 274.99,-332 259,-332"/>
<polygon fill="black" stroke="black" points="300,-332 308,-335.6 304,-332 308,-332 308,-332 308,-332 304,-332 308,-328.4 300,-332 300,-332"/>
<ellipse fill="none" stroke="black" cx="296.8" cy="-332" rx="3.2" ry="3.2"/>
</g>
</g>
</svg>
