<?xml version="1.0" encoding="UTF-8" standalone="no"?>
<!DOCTYPE svg PUBLIC "-//W3C//DTD SVG 1.1//EN"
 "http://www.w3.org/Graphics/SVG/1.1/DTD/svg11.dtd">
<!-- Generated by graphviz version 2.47.1 (20210515.0534)
 -->
<!-- Title: oneDegreeRelationshipsDiagram Pages: 1 -->
<svg width="759pt" height="399pt"
 viewBox="0.00 0.00 759.00 399.00" xmlns="http://www.w3.org/2000/svg" xmlns:xlink="http://www.w3.org/1999/xlink">
<g id="graph0" class="graph" transform="scale(1 1) rotate(0) translate(4 395)">
<title>oneDegreeRelationshipsDiagram</title>
<polygon fill="#ffffff" stroke="transparent" points="-4,4 -4,-395 755,-395 755,4 -4,4"/>
<text text-anchor="middle" x="73.5" y="-7.2" font-family="Helvetica,sans-Serif" font-size="11.00">Generated by SchemaSpy</text>
<!-- tww_od.bio_ecol_assessment -->
<g id="node1" class="node">
<title>tww_od.bio_ecol_assessment</title>
<g id="a_node1"><a xlink:href="../../../tww_od/tables/bio_ecol_assessment.html" xlink:title="tww_od.bio_ecol_assessment" target="_top">
<polygon fill="#ffffff" stroke="transparent" points="413,-131 413,-387 743,-387 743,-131 413,-131"/>
<polygon fill="#f5f5f5" stroke="transparent" points="413,-365 413,-387 743,-387 743,-365 413,-365"/>
<polygon fill="none" stroke="black" points="413,-365 413,-387 743,-387 743,-365 413,-365"/>
<text text-anchor="start" x="418" y="-374.2" font-family="Helvetica,sans-Serif" font-weight="bold" font-size="11.00">tww_od.bio_ecol_assessment</text>
<text text-anchor="start" x="704" y="-373.2" font-family="Helvetica,sans-Serif" font-size="11.00">[table]</text>
<polygon fill="none" stroke="black" points="413,-343 413,-365 743,-365 743,-343 413,-343"/>
<image xlink:href="../../images/foreignKeys.png" width="11px" height="12px" preserveAspectRatio="xMinYMin meet" x="418" y="-360"/>
<text text-anchor="start" x="433" y="-351.2" font-family="Helvetica,sans-Serif" font-size="11.00">comparison_last</text>
<polygon fill="none" stroke="black" points="413,-321 413,-343 743,-343 743,-321 413,-321"/>
<image xlink:href="../../images/foreignKeys.png" width="11px" height="12px" preserveAspectRatio="xMinYMin meet" x="418" y="-338"/>
<text text-anchor="start" x="433" y="-329.2" font-family="Helvetica,sans-Serif" font-size="11.00">impact_auxiliary_indic</text>
<polygon fill="none" stroke="black" points="413,-299 413,-321 743,-321 743,-299 413,-299"/>
<image xlink:href="../../images/foreignKeys.png" width="11px" height="12px" preserveAspectRatio="xMinYMin meet" x="418" y="-316"/>
<text text-anchor="start" x="433" y="-307.2" font-family="Helvetica,sans-Serif" font-size="11.00">impact_external_aspect</text>
<polygon fill="none" stroke="black" points="413,-277 413,-299 743,-299 743,-277 413,-277"/>
<image xlink:href="../../images/foreignKeys.png" width="11px" height="12px" preserveAspectRatio="xMinYMin meet" x="418" y="-294"/>
<text text-anchor="start" x="433" y="-285.2" font-family="Helvetica,sans-Serif" font-size="11.00">impact_macroinvertebrates</text>
<polygon fill="none" stroke="black" points="413,-255 413,-277 743,-277 743,-255 413,-255"/>
<image xlink:href="../../images/foreignKeys.png" width="11px" height="12px" preserveAspectRatio="xMinYMin meet" x="418" y="-272"/>
<text text-anchor="start" x="433" y="-263.2" font-family="Helvetica,sans-Serif" font-size="11.00">impact_water_plants</text>
<polygon fill="none" stroke="black" points="413,-233 413,-255 743,-255 743,-233 413,-233"/>
<image xlink:href="../../images/foreignKeys.png" width="11px" height="12px" preserveAspectRatio="xMinYMin meet" x="418" y="-250"/>
<text text-anchor="start" x="433" y="-241.2" font-family="Helvetica,sans-Serif" font-size="11.00">intervention_demand</text>
<polygon fill="none" stroke="black" points="413,-211 413,-233 743,-233 743,-211 413,-211"/>
<image xlink:href="../../images/foreignKeys.png" width="11px" height="12px" preserveAspectRatio="xMinYMin meet" x="418" y="-228"/>
<text text-anchor="start" x="433" y="-219.2" font-family="Helvetica,sans-Serif" font-size="11.00">io_calculation</text>
<polygon fill="none" stroke="black" points="413,-189 413,-211 743,-211 743,-189 413,-189"/>
<image xlink:href="../../images/foreignKeys.png" width="11px" height="12px" preserveAspectRatio="xMinYMin meet" x="418" y="-206"/>
<text text-anchor="start" x="433" y="-197.2" font-family="Helvetica,sans-Serif" font-size="11.00">kind_water_body</text>
<polygon fill="none" stroke="black" points="413,-167 413,-189 743,-189 743,-167 413,-167"/>
<image xlink:href="../../images/foreignKeys.png" width="11px" height="12px" preserveAspectRatio="xMinYMin meet" x="418" y="-184"/>
<text text-anchor="start" x="433" y="-175.2" font-family="Helvetica,sans-Serif" font-size="11.00">relevance_matrix</text>
<polygon fill="none" stroke="black" points="413,-149 413,-167 743,-167 743,-149 413,-149"/>
<text text-anchor="start" x="416" y="-155.2" font-family="Helvetica,sans-Serif" font-size="11.00">...</text>
<polygon fill="#ffffff" stroke="transparent" points="413,-131 413,-149 562,-149 562,-131 413,-131"/>
<polygon fill="none" stroke="black" points="413,-131 413,-149 562,-149 562,-131 413,-131"/>
<text text-anchor="start" x="416" y="-137.2" font-family="Helvetica,sans-Serif" font-size="11.00">&lt; 9</text>
<polygon fill="#ffffff" stroke="transparent" points="562,-131 562,-149 666,-149 666,-131 562,-131"/>
<polygon fill="none" stroke="black" points="562,-131 562,-149 666,-149 666,-131 562,-131"/>
<text text-anchor="start" x="629" y="-137.2" font-family="Helvetica,sans-Serif" font-size="11.00">0 rows</text>
<polygon fill="#ffffff" stroke="transparent" points="666,-131 666,-149 743,-149 743,-131 666,-131"/>
<polygon fill="none" stroke="black" points="666,-131 666,-149 743,-149 743,-131 666,-131"/>
<text text-anchor="start" x="733" y="-137.2" font-family="Helvetica,sans-Serif" font-size="11.00"> &#160;</text>
</a>
</g>
</g>
<!-- bio_ecol_assessment_impact_auxiliary_indic -->
<g id="node2" class="node">
<title>bio_ecol_assessment_impact_auxiliary_indic</title>
<g id="a_node2"><a xlink:href="../../tables/bio_ecol_assessment_impact_auxi_af4c0477.html" xlink:title="bio_ecol_assessment_impact_auxiliary_indic" target="_top">
<polygon fill="#ffffff" stroke="transparent" points="8,-37 8,-367 364,-367 364,-37 8,-37"/>
<polygon fill="#f5f5f5" stroke="transparent" points="10,-343 10,-365 362,-365 362,-343 10,-343"/>
<polygon fill="none" stroke="black" points="10,-343 10,-365 362,-365 362,-343 10,-343"/>
<text text-anchor="start" x="15" y="-352.2" font-family="Helvetica,sans-Serif" font-weight="bold" font-size="11.00">bio_ecol_assessment_impact_auxiliary_indic</text>
<text text-anchor="start" x="323" y="-351.2" font-family="Helvetica,sans-Serif" font-size="11.00">[table]</text>
<polygon fill="none" stroke="black" points="10,-321 10,-343 292,-343 292,-321 10,-321"/>
<image xlink:href="../../images/primaryKeys.png" width="11px" height="12px" preserveAspectRatio="xMinYMin meet" x="15" y="-338"/>
<text text-anchor="start" x="30" y="-329.2" font-family="Helvetica,sans-Serif" font-size="11.00">code</text>
<polygon fill="none" stroke="black" points="292,-321 292,-343 362,-343 362,-321 292,-321"/>
<text text-anchor="start" x="295" y="-329.2" font-family="Helvetica,sans-Serif" font-size="11.00">int4[10]</text>
<polygon fill="none" stroke="black" points="10,-299 10,-321 292,-321 292,-299 10,-299"/>
<text text-anchor="start" x="30" y="-307.2" font-family="Helvetica,sans-Serif" font-size="11.00">vsacode</text>
<polygon fill="none" stroke="black" points="292,-299 292,-321 362,-321 362,-299 292,-299"/>
<text text-anchor="start" x="295" y="-307.2" font-family="Helvetica,sans-Serif" font-size="11.00">int4[10]</text>
<polygon fill="none" stroke="black" points="10,-277 10,-299 292,-299 292,-277 10,-277"/>
<text text-anchor="start" x="30" y="-285.2" font-family="Helvetica,sans-Serif" font-size="11.00">value_en</text>
<polygon fill="none" stroke="black" points="292,-277 292,-299 362,-299 362,-277 292,-277"/>
<text text-anchor="start" x="295" y="-285.2" font-family="Helvetica,sans-Serif" font-size="11.00">varchar[100]</text>
<polygon fill="none" stroke="black" points="10,-255 10,-277 292,-277 292,-255 10,-255"/>
<text text-anchor="start" x="30" y="-263.2" font-family="Helvetica,sans-Serif" font-size="11.00">value_de</text>
<polygon fill="none" stroke="black" points="292,-255 292,-277 362,-277 362,-255 292,-255"/>
<text text-anchor="start" x="295" y="-263.2" font-family="Helvetica,sans-Serif" font-size="11.00">varchar[100]</text>
<polygon fill="none" stroke="black" points="10,-233 10,-255 292,-255 292,-233 10,-233"/>
<text text-anchor="start" x="30" y="-241.2" font-family="Helvetica,sans-Serif" font-size="11.00">value_fr</text>
<polygon fill="none" stroke="black" points="292,-233 292,-255 362,-255 362,-233 292,-233"/>
<text text-anchor="start" x="295" y="-241.2" font-family="Helvetica,sans-Serif" font-size="11.00">varchar[100]</text>
<polygon fill="none" stroke="black" points="10,-211 10,-233 292,-233 292,-211 10,-211"/>
<text text-anchor="start" x="30" y="-219.2" font-family="Helvetica,sans-Serif" font-size="11.00">value_it</text>
<polygon fill="none" stroke="black" points="292,-211 292,-233 362,-233 362,-211 292,-211"/>
<text text-anchor="start" x="295" y="-219.2" font-family="Helvetica,sans-Serif" font-size="11.00">varchar[100]</text>
<polygon fill="none" stroke="black" points="10,-189 10,-211 292,-211 292,-189 10,-189"/>
<text text-anchor="start" x="30" y="-197.2" font-family="Helvetica,sans-Serif" font-size="11.00">value_ro</text>
<polygon fill="none" stroke="black" points="292,-189 292,-211 362,-211 362,-189 292,-189"/>
<text text-anchor="start" x="295" y="-197.2" font-family="Helvetica,sans-Serif" font-size="11.00">varchar[100]</text>
<polygon fill="none" stroke="black" points="10,-167 10,-189 292,-189 292,-167 10,-167"/>
<text text-anchor="start" x="30" y="-175.2" font-family="Helvetica,sans-Serif" font-size="11.00">abbr_en</text>
<polygon fill="none" stroke="black" points="292,-167 292,-189 362,-189 362,-167 292,-167"/>
<text text-anchor="start" x="295" y="-175.2" font-family="Helvetica,sans-Serif" font-size="11.00">varchar[3]</text>
<polygon fill="none" stroke="black" points="10,-145 10,-167 292,-167 292,-145 10,-145"/>
<text text-anchor="start" x="30" y="-153.2" font-family="Helvetica,sans-Serif" font-size="11.00">abbr_de</text>
<polygon fill="none" stroke="black" points="292,-145 292,-167 362,-167 362,-145 292,-145"/>
<text text-anchor="start" x="295" y="-153.2" font-family="Helvetica,sans-Serif" font-size="11.00">varchar[3]</text>
<polygon fill="none" stroke="black" points="10,-123 10,-145 292,-145 292,-123 10,-123"/>
<text text-anchor="start" x="30" y="-131.2" font-family="Helvetica,sans-Serif" font-size="11.00">abbr_fr</text>
<polygon fill="none" stroke="black" points="292,-123 292,-145 362,-145 362,-123 292,-123"/>
<text text-anchor="start" x="295" y="-131.2" font-family="Helvetica,sans-Serif" font-size="11.00">varchar[3]</text>
<polygon fill="none" stroke="black" points="10,-101 10,-123 292,-123 292,-101 10,-101"/>
<text text-anchor="start" x="30" y="-109.2" font-family="Helvetica,sans-Serif" font-size="11.00">abbr_it</text>
<polygon fill="none" stroke="black" points="292,-101 292,-123 362,-123 362,-101 292,-101"/>
<text text-anchor="start" x="295" y="-109.2" font-family="Helvetica,sans-Serif" font-size="11.00">varchar[3]</text>
<polygon fill="none" stroke="black" points="10,-79 10,-101 292,-101 292,-79 10,-79"/>
<text text-anchor="start" x="30" y="-87.2" font-family="Helvetica,sans-Serif" font-size="11.00">abbr_ro</text>
<polygon fill="none" stroke="black" points="292,-79 292,-101 362,-101 362,-79 292,-79"/>
<text text-anchor="start" x="295" y="-87.2" font-family="Helvetica,sans-Serif" font-size="11.00">varchar[3]</text>
<polygon fill="none" stroke="black" points="10,-57 10,-79 292,-79 292,-57 10,-57"/>
<text text-anchor="start" x="30" y="-65.2" font-family="Helvetica,sans-Serif" font-size="11.00">active</text>
<polygon fill="none" stroke="black" points="292,-57 292,-79 362,-79 362,-57 292,-57"/>
<text text-anchor="start" x="295" y="-65.2" font-family="Helvetica,sans-Serif" font-size="11.00">bool[1]</text>
<polygon fill="#ffffff" stroke="transparent" points="10,-39 10,-57 155,-57 155,-39 10,-39"/>
<polygon fill="none" stroke="black" points="10,-39 10,-57 155,-57 155,-39 10,-39"/>
<text text-anchor="start" x="13" y="-45.2" font-family="Helvetica,sans-Serif" font-size="11.00">&lt; 0</text>
<polygon fill="#ffffff" stroke="transparent" points="155,-39 155,-57 292,-57 292,-39 155,-39"/>
<polygon fill="none" stroke="black" points="155,-39 155,-57 292,-57 292,-39 155,-39"/>
<text text-anchor="start" x="282" y="-45.2" font-family="Helvetica,sans-Serif" font-size="11.00"> &#160;</text>
<polygon fill="#ffffff" stroke="transparent" points="292,-39 292,-57 362,-57 362,-39 292,-39"/>
<polygon fill="none" stroke="black" points="292,-39 292,-57 362,-57 362,-39 292,-39"/>
<text text-anchor="start" x="343" y="-45.2" font-family="Helvetica,sans-Serif" font-size="11.00">1 &gt;</text>
<polygon fill="none" stroke="black" stroke-width="2" points="9,-38 9,-366 363,-366 363,-38 9,-38"/>
</a>
</g>
</g>
<!-- tww_od.bio_ecol_assessment&#45;&gt;bio_ecol_assessment_impact_auxiliary_indic -->
<g id="edge1" class="edge">
<title>tww_od.bio_ecol_assessment:w&#45;&gt;bio_ecol_assessment_impact_auxiliary_indic:e</title>
<path fill="none" stroke="black" d="M397.49,-332C386.18,-332 378.99,-332 363,-332"/>
<polygon fill="black" stroke="black" points="404,-332 412,-335.6 408,-332 412,-332 412,-332 412,-332 408,-332 412,-328.4 404,-332 404,-332"/>
<ellipse fill="none" stroke="black" cx="400.8" cy="-332" rx="3.2" ry="3.2"/>
</g>
</g>
</svg>
