<?xml version="1.0" encoding="UTF-8" standalone="no"?>
<!DOCTYPE svg PUBLIC "-//W3C//DTD SVG 1.1//EN"
 "http://www.w3.org/Graphics/SVG/1.1/DTD/svg11.dtd">
<!-- Generated by graphviz version 2.43.0 (0)
 -->
<!-- Title: oneDegreeRelationshipsDiagram Pages: 1 -->
<svg width="858pt" height="531pt"
 viewBox="0.00 0.00 858.00 531.00" xmlns="http://www.w3.org/2000/svg" xmlns:xlink="http://www.w3.org/1999/xlink">
<g id="graph0" class="graph" transform="scale(1 1) rotate(0) translate(4 527)">
<title>oneDegreeRelationshipsDiagram</title>
<polygon fill="#ffffff" stroke="transparent" points="-4,4 -4,-527 854,-527 854,4 -4,4"/>
<text text-anchor="middle" x="79.5" y="-7.2" font-family="Helvetica,sans-Serif" font-size="11.00">Generated by SchemaSpy</text>
<!-- tww_od.bio_ecol_assessment -->
<g id="node1" class="node">
<title>tww_od.bio_ecol_assessment</title>
<g id="a_node1"><a xlink:href="../../../tww_od/tables/bio_ecol_assessment.html" xlink:title="tww_od.bio_ecol_assessment" target="_top">
<polygon fill="#ffffff" stroke="transparent" points="441,-263 441,-519 842,-519 842,-263 441,-263"/>
<polygon fill="#f5f5f5" stroke="transparent" points="441.5,-497 441.5,-519 842.5,-519 842.5,-497 441.5,-497"/>
<polygon fill="none" stroke="black" points="441.5,-497 441.5,-519 842.5,-519 842.5,-497 441.5,-497"/>
<text text-anchor="start" x="446.5" y="-506.2" font-family="Helvetica,sans-Serif" font-weight="bold" font-size="11.00">tww_od.bio_ecol_assessment</text>
<text text-anchor="start" x="800.5" y="-505.2" font-family="Helvetica,sans-Serif" font-size="11.00">[table]</text>
<polygon fill="none" stroke="black" points="441.5,-475 441.5,-497 842.5,-497 842.5,-475 441.5,-475"/>
<image xlink:href="../../images/foreignKeys.png" width="11px" height="12px" preserveAspectRatio="xMinYMin meet" x="446.5" y="-492"/>
<text text-anchor="start" x="461.5" y="-483.2" font-family="Helvetica,sans-Serif" font-size="11.00">comparison_last</text>
<polygon fill="none" stroke="black" points="441.5,-453 441.5,-475 842.5,-475 842.5,-453 441.5,-453"/>
<image xlink:href="../../images/foreignKeys.png" width="11px" height="12px" preserveAspectRatio="xMinYMin meet" x="446.5" y="-470"/>
<text text-anchor="start" x="461.5" y="-461.2" font-family="Helvetica,sans-Serif" font-size="11.00">impact_auxiliary_indic</text>
<polygon fill="none" stroke="black" points="441.5,-431 441.5,-453 842.5,-453 842.5,-431 441.5,-431"/>
<image xlink:href="../../images/foreignKeys.png" width="11px" height="12px" preserveAspectRatio="xMinYMin meet" x="446.5" y="-448"/>
<text text-anchor="start" x="461.5" y="-439.2" font-family="Helvetica,sans-Serif" font-size="11.00">impact_external_aspect</text>
<polygon fill="none" stroke="black" points="441.5,-409 441.5,-431 842.5,-431 842.5,-409 441.5,-409"/>
<image xlink:href="../../images/foreignKeys.png" width="11px" height="12px" preserveAspectRatio="xMinYMin meet" x="446.5" y="-426"/>
<text text-anchor="start" x="461.5" y="-417.2" font-family="Helvetica,sans-Serif" font-size="11.00">impact_macroinvertebrates</text>
<polygon fill="none" stroke="black" points="441.5,-387 441.5,-409 842.5,-409 842.5,-387 441.5,-387"/>
<image xlink:href="../../images/foreignKeys.png" width="11px" height="12px" preserveAspectRatio="xMinYMin meet" x="446.5" y="-404"/>
<text text-anchor="start" x="461.5" y="-395.2" font-family="Helvetica,sans-Serif" font-size="11.00">impact_water_plants</text>
<polygon fill="none" stroke="black" points="441.5,-365 441.5,-387 842.5,-387 842.5,-365 441.5,-365"/>
<image xlink:href="../../images/foreignKeys.png" width="11px" height="12px" preserveAspectRatio="xMinYMin meet" x="446.5" y="-382"/>
<text text-anchor="start" x="461.5" y="-373.2" font-family="Helvetica,sans-Serif" font-size="11.00">intervention_demand</text>
<polygon fill="none" stroke="black" points="441.5,-343 441.5,-365 842.5,-365 842.5,-343 441.5,-343"/>
<image xlink:href="../../images/foreignKeys.png" width="11px" height="12px" preserveAspectRatio="xMinYMin meet" x="446.5" y="-360"/>
<text text-anchor="start" x="461.5" y="-351.2" font-family="Helvetica,sans-Serif" font-size="11.00">io_calculation</text>
<polygon fill="none" stroke="black" points="441.5,-321 441.5,-343 842.5,-343 842.5,-321 441.5,-321"/>
<image xlink:href="../../images/foreignKeys.png" width="11px" height="12px" preserveAspectRatio="xMinYMin meet" x="446.5" y="-338"/>
<text text-anchor="start" x="461.5" y="-329.2" font-family="Helvetica,sans-Serif" font-size="11.00">kind_water_body</text>
<polygon fill="none" stroke="black" points="441.5,-299 441.5,-321 842.5,-321 842.5,-299 441.5,-299"/>
<image xlink:href="../../images/foreignKeys.png" width="11px" height="12px" preserveAspectRatio="xMinYMin meet" x="446.5" y="-316"/>
<text text-anchor="start" x="461.5" y="-307.2" font-family="Helvetica,sans-Serif" font-size="11.00">relevance_matrix</text>
<polygon fill="none" stroke="black" points="441.5,-281 441.5,-299 842.5,-299 842.5,-281 441.5,-281"/>
<text text-anchor="start" x="444.5" y="-287.2" font-family="Helvetica,sans-Serif" font-size="11.00">...</text>
<polygon fill="#ffffff" stroke="transparent" points="441.5,-263 441.5,-281 842.5,-281 842.5,-263 441.5,-263"/>
<polygon fill="none" stroke="black" points="441.5,-263 441.5,-281 842.5,-281 842.5,-263 441.5,-263"/>
<polygon fill="#ffffff" stroke="transparent" points="442.5,-264 442.5,-280 574.5,-280 574.5,-264 442.5,-264"/>
<text text-anchor="start" x="444.5" y="-269.2" font-family="Helvetica,sans-Serif" font-size="11.00">&lt; 9</text>
<polygon fill="#ffffff" stroke="transparent" points="574.5,-264 574.5,-280 722.5,-280 722.5,-264 574.5,-264"/>
<text text-anchor="start" x="630" y="-269.2" font-family="Helvetica,sans-Serif" font-size="11.00">0 rows</text>
<polygon fill="#ffffff" stroke="transparent" points="722.5,-264 722.5,-280 841.5,-280 841.5,-264 722.5,-264"/>
<text text-anchor="start" x="831.5" y="-269.2" font-family="Helvetica,sans-Serif" font-size="11.00"> &#160;</text>
<polygon fill="black" stroke="black" points="574.5,-264 574.5,-280 574.5,-280 574.5,-264 574.5,-264"/>
<polygon fill="black" stroke="black" points="722.5,-264 722.5,-280 722.5,-280 722.5,-264 722.5,-264"/>
</a>
</g>
</g>
<!-- bio_ecol_assessment_kind_water_body -->
<g id="node2" class="node">
<title>bio_ecol_assessment_kind_water_body</title>
<g id="a_node2"><a xlink:href="../../tables/bio_ecol_assessment_kind_water_body.html" xlink:title="bio_ecol_assessment_kind_water_body" target="_top">
<polygon fill="#ffffff" stroke="transparent" points="8,-37 8,-367 392,-367 392,-37 8,-37"/>
<polygon fill="#f5f5f5" stroke="transparent" points="10,-343 10,-365 390,-365 390,-343 10,-343"/>
<polygon fill="none" stroke="black" points="10,-343 10,-365 390,-365 390,-343 10,-343"/>
<text text-anchor="start" x="15" y="-352.2" font-family="Helvetica,sans-Serif" font-weight="bold" font-size="11.00">bio_ecol_assessment_kind_water_body</text>
<text text-anchor="start" x="348" y="-351.2" font-family="Helvetica,sans-Serif" font-size="11.00">[table]</text>
<polygon fill="none" stroke="black" points="10,-321 10,-343 312,-343 312,-321 10,-321"/>
<image xlink:href="../../images/primaryKeys.png" width="11px" height="12px" preserveAspectRatio="xMinYMin meet" x="15" y="-338"/>
<text text-anchor="start" x="30" y="-329.2" font-family="Helvetica,sans-Serif" font-size="11.00">code</text>
<polygon fill="none" stroke="black" points="312,-321 312,-343 390,-343 390,-321 312,-321"/>
<text text-anchor="start" x="315" y="-329.2" font-family="Helvetica,sans-Serif" font-size="11.00">int4[10]</text>
<polygon fill="none" stroke="black" points="10,-299 10,-321 312,-321 312,-299 10,-299"/>
<text text-anchor="start" x="30" y="-307.2" font-family="Helvetica,sans-Serif" font-size="11.00">vsacode</text>
<polygon fill="none" stroke="black" points="312,-299 312,-321 390,-321 390,-299 312,-299"/>
<text text-anchor="start" x="315" y="-307.2" font-family="Helvetica,sans-Serif" font-size="11.00">int4[10]</text>
<polygon fill="none" stroke="black" points="10,-277 10,-299 312,-299 312,-277 10,-277"/>
<text text-anchor="start" x="30" y="-285.2" font-family="Helvetica,sans-Serif" font-size="11.00">value_en</text>
<polygon fill="none" stroke="black" points="312,-277 312,-299 390,-299 390,-277 312,-277"/>
<text text-anchor="start" x="315" y="-285.2" font-family="Helvetica,sans-Serif" font-size="11.00">varchar[100]</text>
<polygon fill="none" stroke="black" points="10,-255 10,-277 312,-277 312,-255 10,-255"/>
<text text-anchor="start" x="30" y="-263.2" font-family="Helvetica,sans-Serif" font-size="11.00">value_de</text>
<polygon fill="none" stroke="black" points="312,-255 312,-277 390,-277 390,-255 312,-255"/>
<text text-anchor="start" x="315" y="-263.2" font-family="Helvetica,sans-Serif" font-size="11.00">varchar[100]</text>
<polygon fill="none" stroke="black" points="10,-233 10,-255 312,-255 312,-233 10,-233"/>
<text text-anchor="start" x="30" y="-241.2" font-family="Helvetica,sans-Serif" font-size="11.00">value_fr</text>
<polygon fill="none" stroke="black" points="312,-233 312,-255 390,-255 390,-233 312,-233"/>
<text text-anchor="start" x="315" y="-241.2" font-family="Helvetica,sans-Serif" font-size="11.00">varchar[100]</text>
<polygon fill="none" stroke="black" points="10,-211 10,-233 312,-233 312,-211 10,-211"/>
<text text-anchor="start" x="30" y="-219.2" font-family="Helvetica,sans-Serif" font-size="11.00">value_it</text>
<polygon fill="none" stroke="black" points="312,-211 312,-233 390,-233 390,-211 312,-211"/>
<text text-anchor="start" x="315" y="-219.2" font-family="Helvetica,sans-Serif" font-size="11.00">varchar[100]</text>
<polygon fill="none" stroke="black" points="10,-189 10,-211 312,-211 312,-189 10,-189"/>
<text text-anchor="start" x="30" y="-197.2" font-family="Helvetica,sans-Serif" font-size="11.00">value_ro</text>
<polygon fill="none" stroke="black" points="312,-189 312,-211 390,-211 390,-189 312,-189"/>
<text text-anchor="start" x="315" y="-197.2" font-family="Helvetica,sans-Serif" font-size="11.00">varchar[100]</text>
<polygon fill="none" stroke="black" points="10,-167 10,-189 312,-189 312,-167 10,-167"/>
<text text-anchor="start" x="30" y="-175.2" font-family="Helvetica,sans-Serif" font-size="11.00">abbr_en</text>
<polygon fill="none" stroke="black" points="312,-167 312,-189 390,-189 390,-167 312,-167"/>
<text text-anchor="start" x="315" y="-175.2" font-family="Helvetica,sans-Serif" font-size="11.00">varchar[3]</text>
<polygon fill="none" stroke="black" points="10,-145 10,-167 312,-167 312,-145 10,-145"/>
<text text-anchor="start" x="30" y="-153.2" font-family="Helvetica,sans-Serif" font-size="11.00">abbr_de</text>
<polygon fill="none" stroke="black" points="312,-145 312,-167 390,-167 390,-145 312,-145"/>
<text text-anchor="start" x="315" y="-153.2" font-family="Helvetica,sans-Serif" font-size="11.00">varchar[3]</text>
<polygon fill="none" stroke="black" points="10,-123 10,-145 312,-145 312,-123 10,-123"/>
<text text-anchor="start" x="30" y="-131.2" font-family="Helvetica,sans-Serif" font-size="11.00">abbr_fr</text>
<polygon fill="none" stroke="black" points="312,-123 312,-145 390,-145 390,-123 312,-123"/>
<text text-anchor="start" x="315" y="-131.2" font-family="Helvetica,sans-Serif" font-size="11.00">varchar[3]</text>
<polygon fill="none" stroke="black" points="10,-101 10,-123 312,-123 312,-101 10,-101"/>
<text text-anchor="start" x="30" y="-109.2" font-family="Helvetica,sans-Serif" font-size="11.00">abbr_it</text>
<polygon fill="none" stroke="black" points="312,-101 312,-123 390,-123 390,-101 312,-101"/>
<text text-anchor="start" x="315" y="-109.2" font-family="Helvetica,sans-Serif" font-size="11.00">varchar[3]</text>
<polygon fill="none" stroke="black" points="10,-79 10,-101 312,-101 312,-79 10,-79"/>
<text text-anchor="start" x="30" y="-87.2" font-family="Helvetica,sans-Serif" font-size="11.00">abbr_ro</text>
<polygon fill="none" stroke="black" points="312,-79 312,-101 390,-101 390,-79 312,-79"/>
<text text-anchor="start" x="315" y="-87.2" font-family="Helvetica,sans-Serif" font-size="11.00">varchar[3]</text>
<polygon fill="none" stroke="black" points="10,-57 10,-79 312,-79 312,-57 10,-57"/>
<text text-anchor="start" x="30" y="-65.2" font-family="Helvetica,sans-Serif" font-size="11.00">active</text>
<polygon fill="none" stroke="black" points="312,-57 312,-79 390,-79 390,-57 312,-57"/>
<text text-anchor="start" x="315" y="-65.2" font-family="Helvetica,sans-Serif" font-size="11.00">bool[1]</text>
<polygon fill="#ffffff" stroke="transparent" points="10,-39 10,-57 390,-57 390,-39 10,-39"/>
<polygon fill="none" stroke="black" points="10,-39 10,-57 390,-57 390,-39 10,-39"/>
<polygon fill="#ffffff" stroke="transparent" points="11,-40 11,-56 141,-56 141,-40 11,-40"/>
<text text-anchor="start" x="13" y="-45.2" font-family="Helvetica,sans-Serif" font-size="11.00">&lt; 0</text>
<polygon fill="#ffffff" stroke="transparent" points="141,-40 141,-56 259,-56 259,-40 141,-40"/>
<text text-anchor="start" x="196" y="-45.2" font-family="Helvetica,sans-Serif" font-size="11.00"> &#160;</text>
<polygon fill="#ffffff" stroke="transparent" points="259,-40 259,-56 389,-56 389,-40 259,-40"/>
<text text-anchor="start" x="367" y="-45.2" font-family="Helvetica,sans-Serif" font-size="11.00">1 &gt;</text>
<polygon fill="black" stroke="black" points="141,-40 141,-56 141,-56 141,-40 141,-40"/>
<polygon fill="black" stroke="black" points="259,-40 259,-56 259,-56 259,-40 259,-40"/>
<polygon fill="none" stroke="black" stroke-width="2" points="9,-38 9,-366 391,-366 391,-38 9,-38"/>
</a>
</g>
</g>
<!-- tww_od.bio_ecol_assessment&#45;&gt;bio_ecol_assessment_kind_water_body -->
<g id="edge1" class="edge">
<title>tww_od.bio_ecol_assessment:w&#45;&gt;bio_ecol_assessment_kind_water_body:e</title>
<path fill="none" stroke="black" d="M425.84,-332C414.41,-332 407.16,-332 391,-332"/>
<polygon fill="black" stroke="black" points="432.5,-332 440.5,-335.6 436.5,-332 440.5,-332 440.5,-332 440.5,-332 436.5,-332 440.5,-328.4 432.5,-332 432.5,-332"/>
<ellipse fill="none" stroke="black" cx="429.3" cy="-332" rx="3.2" ry="3.2"/>
</g>
</g>
</svg>
