<?xml version="1.0" encoding="UTF-8" standalone="no"?>
<!DOCTYPE svg PUBLIC "-//W3C//DTD SVG 1.1//EN"
 "http://www.w3.org/Graphics/SVG/1.1/DTD/svg11.dtd">
<!-- Generated by graphviz version 2.47.1 (20210515.0534)
 -->
<!-- Title: oneDegreeRelationshipsDiagram Pages: 1 -->
<svg width="621pt" height="531pt"
 viewBox="0.00 0.00 621.00 531.00" xmlns="http://www.w3.org/2000/svg" xmlns:xlink="http://www.w3.org/1999/xlink">
<g id="graph0" class="graph" transform="scale(1 1) rotate(0) translate(4 527)">
<title>oneDegreeRelationshipsDiagram</title>
<polygon fill="#ffffff" stroke="transparent" points="-4,4 -4,-527 617,-527 617,4 -4,4"/>
<text text-anchor="middle" x="73.5" y="-7.2" font-family="Helvetica,sans-Serif" font-size="11.00">Generated by SchemaSpy</text>
<!-- tww_od.building_group -->
<g id="node1" class="node">
<title>tww_od.building_group</title>
<g id="a_node1"><a xlink:href="../../../tww_od/tables/building_group.html" xlink:title="tww_od.building_group" target="_top">
<polygon fill="#ffffff" stroke="transparent" points="372,-285 372,-519 605,-519 605,-285 372,-285"/>
<polygon fill="#f5f5f5" stroke="transparent" points="372.5,-497 372.5,-519 605.5,-519 605.5,-497 372.5,-497"/>
<polygon fill="none" stroke="black" points="372.5,-497 372.5,-519 605.5,-519 605.5,-497 372.5,-497"/>
<text text-anchor="start" x="377.5" y="-506.2" font-family="Helvetica,sans-Serif" font-weight="bold" font-size="11.00">tww_od.building_group</text>
<text text-anchor="start" x="566.5" y="-505.2" font-family="Helvetica,sans-Serif" font-size="11.00">[table]</text>
<polygon fill="none" stroke="black" points="372.5,-475 372.5,-497 605.5,-497 605.5,-475 372.5,-475"/>
<image xlink:href="../../images/foreignKeys.png" width="11px" height="12px" preserveAspectRatio="xMinYMin meet" x="377.5" y="-492"/>
<text text-anchor="start" x="392.5" y="-483.2" font-family="Helvetica,sans-Serif" font-size="11.00">connecting_obligation</text>
<polygon fill="none" stroke="black" points="372.5,-453 372.5,-475 605.5,-475 605.5,-453 372.5,-453"/>
<image xlink:href="../../images/foreignKeys.png" width="11px" height="12px" preserveAspectRatio="xMinYMin meet" x="377.5" y="-470"/>
<text text-anchor="start" x="392.5" y="-461.2" font-family="Helvetica,sans-Serif" font-size="11.00">connection_wwtp</text>
<polygon fill="none" stroke="black" points="372.5,-431 372.5,-453 605.5,-453 605.5,-431 372.5,-431"/>
<image xlink:href="../../images/foreignKeys.png" width="11px" height="12px" preserveAspectRatio="xMinYMin meet" x="377.5" y="-448"/>
<text text-anchor="start" x="392.5" y="-439.2" font-family="Helvetica,sans-Serif" font-size="11.00">drainage_map</text>
<polygon fill="none" stroke="black" points="372.5,-409 372.5,-431 605.5,-431 605.5,-409 372.5,-409"/>
<image xlink:href="../../images/foreignKeys.png" width="11px" height="12px" preserveAspectRatio="xMinYMin meet" x="377.5" y="-426"/>
<text text-anchor="start" x="392.5" y="-417.2" font-family="Helvetica,sans-Serif" font-size="11.00">drinking_water_network</text>
<polygon fill="none" stroke="black" points="372.5,-387 372.5,-409 605.5,-409 605.5,-387 372.5,-387"/>
<image xlink:href="../../images/foreignKeys.png" width="11px" height="12px" preserveAspectRatio="xMinYMin meet" x="377.5" y="-404"/>
<text text-anchor="start" x="392.5" y="-395.2" font-family="Helvetica,sans-Serif" font-size="11.00">drinking_water_others</text>
<polygon fill="none" stroke="black" points="372.5,-365 372.5,-387 605.5,-387 605.5,-365 372.5,-365"/>
<image xlink:href="../../images/foreignKeys.png" width="11px" height="12px" preserveAspectRatio="xMinYMin meet" x="377.5" y="-382"/>
<text text-anchor="start" x="392.5" y="-373.2" font-family="Helvetica,sans-Serif" font-size="11.00">electric_connection</text>
<polygon fill="none" stroke="black" points="372.5,-343 372.5,-365 605.5,-365 605.5,-343 372.5,-343"/>
<image xlink:href="../../images/foreignKeys.png" width="11px" height="12px" preserveAspectRatio="xMinYMin meet" x="377.5" y="-360"/>
<text text-anchor="start" x="392.5" y="-351.2" font-family="Helvetica,sans-Serif" font-size="11.00">function</text>
<polygon fill="none" stroke="black" points="372.5,-321 372.5,-343 605.5,-343 605.5,-321 372.5,-321"/>
<image xlink:href="../../images/foreignKeys.png" width="11px" height="12px" preserveAspectRatio="xMinYMin meet" x="377.5" y="-338"/>
<text text-anchor="start" x="392.5" y="-329.2" font-family="Helvetica,sans-Serif" font-size="11.00">renovation_necessity</text>
<polygon fill="none" stroke="black" points="372.5,-303 372.5,-321 605.5,-321 605.5,-303 372.5,-303"/>
<text text-anchor="start" x="375.5" y="-309.2" font-family="Helvetica,sans-Serif" font-size="11.00">...</text>
<polygon fill="#ffffff" stroke="transparent" points="372.5,-285 372.5,-303 473.5,-303 473.5,-285 372.5,-285"/>
<polygon fill="none" stroke="black" points="372.5,-285 372.5,-303 473.5,-303 473.5,-285 372.5,-285"/>
<text text-anchor="start" x="375.5" y="-291.2" font-family="Helvetica,sans-Serif" font-size="11.00">&lt; 8</text>
<polygon fill="#ffffff" stroke="transparent" points="473.5,-285 473.5,-303 552.5,-303 552.5,-285 473.5,-285"/>
<polygon fill="none" stroke="black" points="473.5,-285 473.5,-303 552.5,-303 552.5,-285 473.5,-285"/>
<text text-anchor="start" x="515.5" y="-291.2" font-family="Helvetica,sans-Serif" font-size="11.00">0 rows</text>
<polygon fill="#ffffff" stroke="transparent" points="552.5,-285 552.5,-303 605.5,-303 605.5,-285 552.5,-285"/>
<polygon fill="none" stroke="black" points="552.5,-285 552.5,-303 605.5,-303 605.5,-285 552.5,-285"/>
<text text-anchor="start" x="595.5" y="-291.2" font-family="Helvetica,sans-Serif" font-size="11.00"> &#160;</text>
</a>
</g>
</g>
<!-- building_group_renovation_necessity -->
<g id="node2" class="node">
<title>building_group_renovation_necessity</title>
<g id="a_node2"><a xlink:href="../../tables/building_group_renovation_necessity.html" xlink:title="building_group_renovation_necessity" target="_top">
<polygon fill="#ffffff" stroke="transparent" points="8,-37 8,-367 323,-367 323,-37 8,-37"/>
<polygon fill="#f5f5f5" stroke="transparent" points="10.5,-343 10.5,-365 321.5,-365 321.5,-343 10.5,-343"/>
<polygon fill="none" stroke="black" points="10.5,-343 10.5,-365 321.5,-365 321.5,-343 10.5,-343"/>
<text text-anchor="start" x="15.5" y="-352.2" font-family="Helvetica,sans-Serif" font-weight="bold" font-size="11.00">building_group_renovation_necessity</text>
<text text-anchor="start" x="282.5" y="-351.2" font-family="Helvetica,sans-Serif" font-size="11.00">[table]</text>
<polygon fill="none" stroke="black" points="10.5,-321 10.5,-343 251.5,-343 251.5,-321 10.5,-321"/>
<image xlink:href="../../images/primaryKeys.png" width="11px" height="12px" preserveAspectRatio="xMinYMin meet" x="15.5" y="-338"/>
<text text-anchor="start" x="30.5" y="-329.2" font-family="Helvetica,sans-Serif" font-size="11.00">code</text>
<polygon fill="none" stroke="black" points="251.5,-321 251.5,-343 321.5,-343 321.5,-321 251.5,-321"/>
<text text-anchor="start" x="254.5" y="-329.2" font-family="Helvetica,sans-Serif" font-size="11.00">int4[10]</text>
<polygon fill="none" stroke="black" points="10.5,-299 10.5,-321 251.5,-321 251.5,-299 10.5,-299"/>
<text text-anchor="start" x="30.5" y="-307.2" font-family="Helvetica,sans-Serif" font-size="11.00">vsacode</text>
<polygon fill="none" stroke="black" points="251.5,-299 251.5,-321 321.5,-321 321.5,-299 251.5,-299"/>
<text text-anchor="start" x="254.5" y="-307.2" font-family="Helvetica,sans-Serif" font-size="11.00">int4[10]</text>
<polygon fill="none" stroke="black" points="10.5,-277 10.5,-299 251.5,-299 251.5,-277 10.5,-277"/>
<text text-anchor="start" x="30.5" y="-285.2" font-family="Helvetica,sans-Serif" font-size="11.00">value_en</text>
<polygon fill="none" stroke="black" points="251.5,-277 251.5,-299 321.5,-299 321.5,-277 251.5,-277"/>
<text text-anchor="start" x="254.5" y="-285.2" font-family="Helvetica,sans-Serif" font-size="11.00">varchar[100]</text>
<polygon fill="none" stroke="black" points="10.5,-255 10.5,-277 251.5,-277 251.5,-255 10.5,-255"/>
<text text-anchor="start" x="30.5" y="-263.2" font-family="Helvetica,sans-Serif" font-size="11.00">value_de</text>
<polygon fill="none" stroke="black" points="251.5,-255 251.5,-277 321.5,-277 321.5,-255 251.5,-255"/>
<text text-anchor="start" x="254.5" y="-263.2" font-family="Helvetica,sans-Serif" font-size="11.00">varchar[100]</text>
<polygon fill="none" stroke="black" points="10.5,-233 10.5,-255 251.5,-255 251.5,-233 10.5,-233"/>
<text text-anchor="start" x="30.5" y="-241.2" font-family="Helvetica,sans-Serif" font-size="11.00">value_fr</text>
<polygon fill="none" stroke="black" points="251.5,-233 251.5,-255 321.5,-255 321.5,-233 251.5,-233"/>
<text text-anchor="start" x="254.5" y="-241.2" font-family="Helvetica,sans-Serif" font-size="11.00">varchar[100]</text>
<polygon fill="none" stroke="black" points="10.5,-211 10.5,-233 251.5,-233 251.5,-211 10.5,-211"/>
<text text-anchor="start" x="30.5" y="-219.2" font-family="Helvetica,sans-Serif" font-size="11.00">value_it</text>
<polygon fill="none" stroke="black" points="251.5,-211 251.5,-233 321.5,-233 321.5,-211 251.5,-211"/>
<text text-anchor="start" x="254.5" y="-219.2" font-family="Helvetica,sans-Serif" font-size="11.00">varchar[100]</text>
<polygon fill="none" stroke="black" points="10.5,-189 10.5,-211 251.5,-211 251.5,-189 10.5,-189"/>
<text text-anchor="start" x="30.5" y="-197.2" font-family="Helvetica,sans-Serif" font-size="11.00">value_ro</text>
<polygon fill="none" stroke="black" points="251.5,-189 251.5,-211 321.5,-211 321.5,-189 251.5,-189"/>
<text text-anchor="start" x="254.5" y="-197.2" font-family="Helvetica,sans-Serif" font-size="11.00">varchar[100]</text>
<polygon fill="none" stroke="black" points="10.5,-167 10.5,-189 251.5,-189 251.5,-167 10.5,-167"/>
<text text-anchor="start" x="30.5" y="-175.2" font-family="Helvetica,sans-Serif" font-size="11.00">abbr_en</text>
<polygon fill="none" stroke="black" points="251.5,-167 251.5,-189 321.5,-189 321.5,-167 251.5,-167"/>
<text text-anchor="start" x="254.5" y="-175.2" font-family="Helvetica,sans-Serif" font-size="11.00">varchar[3]</text>
<polygon fill="none" stroke="black" points="10.5,-145 10.5,-167 251.5,-167 251.5,-145 10.5,-145"/>
<text text-anchor="start" x="30.5" y="-153.2" font-family="Helvetica,sans-Serif" font-size="11.00">abbr_de</text>
<polygon fill="none" stroke="black" points="251.5,-145 251.5,-167 321.5,-167 321.5,-145 251.5,-145"/>
<text text-anchor="start" x="254.5" y="-153.2" font-family="Helvetica,sans-Serif" font-size="11.00">varchar[3]</text>
<polygon fill="none" stroke="black" points="10.5,-123 10.5,-145 251.5,-145 251.5,-123 10.5,-123"/>
<text text-anchor="start" x="30.5" y="-131.2" font-family="Helvetica,sans-Serif" font-size="11.00">abbr_fr</text>
<polygon fill="none" stroke="black" points="251.5,-123 251.5,-145 321.5,-145 321.5,-123 251.5,-123"/>
<text text-anchor="start" x="254.5" y="-131.2" font-family="Helvetica,sans-Serif" font-size="11.00">varchar[3]</text>
<polygon fill="none" stroke="black" points="10.5,-101 10.5,-123 251.5,-123 251.5,-101 10.5,-101"/>
<text text-anchor="start" x="30.5" y="-109.2" font-family="Helvetica,sans-Serif" font-size="11.00">abbr_it</text>
<polygon fill="none" stroke="black" points="251.5,-101 251.5,-123 321.5,-123 321.5,-101 251.5,-101"/>
<text text-anchor="start" x="254.5" y="-109.2" font-family="Helvetica,sans-Serif" font-size="11.00">varchar[3]</text>
<polygon fill="none" stroke="black" points="10.5,-79 10.5,-101 251.5,-101 251.5,-79 10.5,-79"/>
<text text-anchor="start" x="30.5" y="-87.2" font-family="Helvetica,sans-Serif" font-size="11.00">abbr_ro</text>
<polygon fill="none" stroke="black" points="251.5,-79 251.5,-101 321.5,-101 321.5,-79 251.5,-79"/>
<text text-anchor="start" x="254.5" y="-87.2" font-family="Helvetica,sans-Serif" font-size="11.00">varchar[3]</text>
<polygon fill="none" stroke="black" points="10.5,-57 10.5,-79 251.5,-79 251.5,-57 10.5,-57"/>
<text text-anchor="start" x="30.5" y="-65.2" font-family="Helvetica,sans-Serif" font-size="11.00">active</text>
<polygon fill="none" stroke="black" points="251.5,-57 251.5,-79 321.5,-79 321.5,-57 251.5,-57"/>
<text text-anchor="start" x="254.5" y="-65.2" font-family="Helvetica,sans-Serif" font-size="11.00">bool[1]</text>
<polygon fill="#ffffff" stroke="transparent" points="10.5,-39 10.5,-57 135.5,-57 135.5,-39 10.5,-39"/>
<polygon fill="none" stroke="black" points="10.5,-39 10.5,-57 135.5,-57 135.5,-39 10.5,-39"/>
<text text-anchor="start" x="13.5" y="-45.2" font-family="Helvetica,sans-Serif" font-size="11.00">&lt; 0</text>
<polygon fill="#ffffff" stroke="transparent" points="135.5,-39 135.5,-57 251.5,-57 251.5,-39 135.5,-39"/>
<polygon fill="none" stroke="black" points="135.5,-39 135.5,-57 251.5,-57 251.5,-39 135.5,-39"/>
<text text-anchor="start" x="241.5" y="-45.2" font-family="Helvetica,sans-Serif" font-size="11.00"> &#160;</text>
<polygon fill="#ffffff" stroke="transparent" points="251.5,-39 251.5,-57 321.5,-57 321.5,-39 251.5,-39"/>
<polygon fill="none" stroke="black" points="251.5,-39 251.5,-57 321.5,-57 321.5,-39 251.5,-39"/>
<text text-anchor="start" x="302.5" y="-45.2" font-family="Helvetica,sans-Serif" font-size="11.00">1 &gt;</text>
<polygon fill="none" stroke="black" stroke-width="2" points="9,-38 9,-366 322,-366 322,-38 9,-38"/>
</a>
</g>
</g>
<!-- tww_od.building_group&#45;&gt;building_group_renovation_necessity -->
<g id="edge1" class="edge">
<title>tww_od.building_group:w&#45;&gt;building_group_renovation_necessity:e</title>
<path fill="none" stroke="black" d="M356.99,-332C345.68,-332 338.49,-332 322.5,-332"/>
<polygon fill="black" stroke="black" points="363.5,-332 371.5,-335.6 367.5,-332 371.5,-332 371.5,-332 371.5,-332 367.5,-332 371.5,-328.4 363.5,-332 363.5,-332"/>
<ellipse fill="none" stroke="black" cx="360.3" cy="-332" rx="3.2" ry="3.2"/>
</g>
</g>
</svg>
