<?xml version="1.0" encoding="UTF-8" standalone="no"?>
<!DOCTYPE svg PUBLIC "-//W3C//DTD SVG 1.1//EN"
 "http://www.w3.org/Graphics/SVG/1.1/DTD/svg11.dtd">
<!-- Generated by graphviz version 2.43.0 (0)
 -->
<!-- Title: oneDegreeRelationshipsDiagram Pages: 1 -->
<svg width="703pt" height="641pt"
 viewBox="0.00 0.00 703.00 641.00" xmlns="http://www.w3.org/2000/svg" xmlns:xlink="http://www.w3.org/1999/xlink">
<g id="graph0" class="graph" transform="scale(1 1) rotate(0) translate(4 637)">
<title>oneDegreeRelationshipsDiagram</title>
<polygon fill="#ffffff" stroke="transparent" points="-4,4 -4,-637 699,-637 699,4 -4,4"/>
<text text-anchor="middle" x="79.5" y="-7.2" font-family="Helvetica,sans-Serif" font-size="11.00">Generated by SchemaSpy</text>
<!-- tww_od.building_group -->
<g id="node1" class="node">
<title>tww_od.building_group</title>
<g id="a_node1"><a xlink:href="../../../tww_od/tables/building_group.html" xlink:title="tww_od.building_group" target="_top">
<polygon fill="#ffffff" stroke="transparent" points="407,-395 407,-629 687,-629 687,-395 407,-395"/>
<polygon fill="#f5f5f5" stroke="transparent" points="407,-607 407,-629 687,-629 687,-607 407,-607"/>
<polygon fill="none" stroke="black" points="407,-607 407,-629 687,-629 687,-607 407,-607"/>
<text text-anchor="start" x="412" y="-616.2" font-family="Helvetica,sans-Serif" font-weight="bold" font-size="11.00">tww_od.building_group</text>
<text text-anchor="start" x="645" y="-615.2" font-family="Helvetica,sans-Serif" font-size="11.00">[table]</text>
<polygon fill="none" stroke="black" points="407,-585 407,-607 687,-607 687,-585 407,-585"/>
<image xlink:href="../../images/foreignKeys.png" width="11px" height="12px" preserveAspectRatio="xMinYMin meet" x="412" y="-602"/>
<text text-anchor="start" x="427" y="-593.2" font-family="Helvetica,sans-Serif" font-size="11.00">connecting_obligation</text>
<polygon fill="none" stroke="black" points="407,-563 407,-585 687,-585 687,-563 407,-563"/>
<image xlink:href="../../images/foreignKeys.png" width="11px" height="12px" preserveAspectRatio="xMinYMin meet" x="412" y="-580"/>
<text text-anchor="start" x="427" y="-571.2" font-family="Helvetica,sans-Serif" font-size="11.00">connection_wwtp</text>
<polygon fill="none" stroke="black" points="407,-541 407,-563 687,-563 687,-541 407,-541"/>
<image xlink:href="../../images/foreignKeys.png" width="11px" height="12px" preserveAspectRatio="xMinYMin meet" x="412" y="-558"/>
<text text-anchor="start" x="427" y="-549.2" font-family="Helvetica,sans-Serif" font-size="11.00">drainage_map</text>
<polygon fill="none" stroke="black" points="407,-519 407,-541 687,-541 687,-519 407,-519"/>
<image xlink:href="../../images/foreignKeys.png" width="11px" height="12px" preserveAspectRatio="xMinYMin meet" x="412" y="-536"/>
<text text-anchor="start" x="427" y="-527.2" font-family="Helvetica,sans-Serif" font-size="11.00">drinking_water_network</text>
<polygon fill="none" stroke="black" points="407,-497 407,-519 687,-519 687,-497 407,-497"/>
<image xlink:href="../../images/foreignKeys.png" width="11px" height="12px" preserveAspectRatio="xMinYMin meet" x="412" y="-514"/>
<text text-anchor="start" x="427" y="-505.2" font-family="Helvetica,sans-Serif" font-size="11.00">drinking_water_others</text>
<polygon fill="none" stroke="black" points="407,-475 407,-497 687,-497 687,-475 407,-475"/>
<image xlink:href="../../images/foreignKeys.png" width="11px" height="12px" preserveAspectRatio="xMinYMin meet" x="412" y="-492"/>
<text text-anchor="start" x="427" y="-483.2" font-family="Helvetica,sans-Serif" font-size="11.00">electric_connection</text>
<polygon fill="none" stroke="black" points="407,-453 407,-475 687,-475 687,-453 407,-453"/>
<image xlink:href="../../images/foreignKeys.png" width="11px" height="12px" preserveAspectRatio="xMinYMin meet" x="412" y="-470"/>
<text text-anchor="start" x="427" y="-461.2" font-family="Helvetica,sans-Serif" font-size="11.00">function</text>
<polygon fill="none" stroke="black" points="407,-431 407,-453 687,-453 687,-431 407,-431"/>
<image xlink:href="../../images/foreignKeys.png" width="11px" height="12px" preserveAspectRatio="xMinYMin meet" x="412" y="-448"/>
<text text-anchor="start" x="427" y="-439.2" font-family="Helvetica,sans-Serif" font-size="11.00">renovation_necessity</text>
<polygon fill="none" stroke="black" points="407,-413 407,-431 687,-431 687,-413 407,-413"/>
<text text-anchor="start" x="410" y="-419.2" font-family="Helvetica,sans-Serif" font-size="11.00">...</text>
<polygon fill="#ffffff" stroke="transparent" points="407,-395 407,-413 687,-413 687,-395 407,-395"/>
<polygon fill="none" stroke="black" points="407,-395 407,-413 687,-413 687,-395 407,-395"/>
<polygon fill="#ffffff" stroke="transparent" points="408,-396 408,-412 499,-412 499,-396 408,-396"/>
<text text-anchor="start" x="410" y="-401.2" font-family="Helvetica,sans-Serif" font-size="11.00">&lt; 8</text>
<polygon fill="#ffffff" stroke="transparent" points="499,-396 499,-412 607,-412 607,-396 499,-396"/>
<text text-anchor="start" x="534.5" y="-401.2" font-family="Helvetica,sans-Serif" font-size="11.00">0 rows</text>
<polygon fill="#ffffff" stroke="transparent" points="607,-396 607,-412 686,-412 686,-396 607,-396"/>
<text text-anchor="start" x="676" y="-401.2" font-family="Helvetica,sans-Serif" font-size="11.00"> &#160;</text>
<polygon fill="black" stroke="black" points="499,-396 499,-412 499,-412 499,-396 499,-396"/>
<polygon fill="black" stroke="black" points="607,-396 607,-412 607,-412 607,-396 607,-396"/>
</a>
</g>
</g>
<!-- building_group_drainage_map -->
<g id="node2" class="node">
<title>building_group_drainage_map</title>
<g id="a_node2"><a xlink:href="../../tables/building_group_drainage_map.html" xlink:title="building_group_drainage_map" target="_top">
<polygon fill="#ffffff" stroke="transparent" points="8,-37 8,-587 358,-587 358,-37 8,-37"/>
<polygon fill="#f5f5f5" stroke="transparent" points="10,-563 10,-585 356,-585 356,-563 10,-563"/>
<polygon fill="none" stroke="black" points="10,-563 10,-585 356,-585 356,-563 10,-563"/>
<text text-anchor="start" x="15" y="-572.2" font-family="Helvetica,sans-Serif" font-weight="bold" font-size="11.00">building_group_drainage_map</text>
<text text-anchor="start" x="314" y="-571.2" font-family="Helvetica,sans-Serif" font-size="11.00">[table]</text>
<polygon fill="none" stroke="black" points="10,-541 10,-563 250,-563 250,-541 10,-541"/>
<image xlink:href="../../images/primaryKeys.png" width="11px" height="12px" preserveAspectRatio="xMinYMin meet" x="15" y="-558"/>
<text text-anchor="start" x="30" y="-549.2" font-family="Helvetica,sans-Serif" font-size="11.00">code</text>
<polygon fill="none" stroke="black" points="250,-541 250,-563 356,-563 356,-541 250,-541"/>
<text text-anchor="start" x="253" y="-549.2" font-family="Helvetica,sans-Serif" font-size="11.00">int4[10]</text>
<polygon fill="none" stroke="black" points="10,-519 10,-541 250,-541 250,-519 10,-519"/>
<text text-anchor="start" x="30" y="-527.2" font-family="Helvetica,sans-Serif" font-size="11.00">vsacode</text>
<polygon fill="none" stroke="black" points="250,-519 250,-541 356,-541 356,-519 250,-519"/>
<text text-anchor="start" x="253" y="-527.2" font-family="Helvetica,sans-Serif" font-size="11.00">int4[10]</text>
<polygon fill="none" stroke="black" points="10,-497 10,-519 250,-519 250,-497 10,-497"/>
<text text-anchor="start" x="30" y="-505.2" font-family="Helvetica,sans-Serif" font-size="11.00">value_en</text>
<polygon fill="none" stroke="black" points="250,-497 250,-519 356,-519 356,-497 250,-497"/>
<text text-anchor="start" x="253" y="-505.2" font-family="Helvetica,sans-Serif" font-size="11.00">varchar[100]</text>
<polygon fill="none" stroke="black" points="10,-475 10,-497 250,-497 250,-475 10,-475"/>
<text text-anchor="start" x="30" y="-483.2" font-family="Helvetica,sans-Serif" font-size="11.00">value_de</text>
<polygon fill="none" stroke="black" points="250,-475 250,-497 356,-497 356,-475 250,-475"/>
<text text-anchor="start" x="253" y="-483.2" font-family="Helvetica,sans-Serif" font-size="11.00">varchar[100]</text>
<polygon fill="none" stroke="black" points="10,-453 10,-475 250,-475 250,-453 10,-453"/>
<text text-anchor="start" x="30" y="-461.2" font-family="Helvetica,sans-Serif" font-size="11.00">value_fr</text>
<polygon fill="none" stroke="black" points="250,-453 250,-475 356,-475 356,-453 250,-453"/>
<text text-anchor="start" x="253" y="-461.2" font-family="Helvetica,sans-Serif" font-size="11.00">varchar[100]</text>
<polygon fill="none" stroke="black" points="10,-431 10,-453 250,-453 250,-431 10,-431"/>
<text text-anchor="start" x="30" y="-439.2" font-family="Helvetica,sans-Serif" font-size="11.00">value_it</text>
<polygon fill="none" stroke="black" points="250,-431 250,-453 356,-453 356,-431 250,-431"/>
<text text-anchor="start" x="253" y="-439.2" font-family="Helvetica,sans-Serif" font-size="11.00">varchar[100]</text>
<polygon fill="none" stroke="black" points="10,-409 10,-431 250,-431 250,-409 10,-409"/>
<text text-anchor="start" x="30" y="-417.2" font-family="Helvetica,sans-Serif" font-size="11.00">value_ro</text>
<polygon fill="none" stroke="black" points="250,-409 250,-431 356,-431 356,-409 250,-409"/>
<text text-anchor="start" x="253" y="-417.2" font-family="Helvetica,sans-Serif" font-size="11.00">varchar[100]</text>
<polygon fill="none" stroke="black" points="10,-387 10,-409 250,-409 250,-387 10,-387"/>
<text text-anchor="start" x="30" y="-395.2" font-family="Helvetica,sans-Serif" font-size="11.00">abbr_en</text>
<polygon fill="none" stroke="black" points="250,-387 250,-409 356,-409 356,-387 250,-387"/>
<text text-anchor="start" x="253" y="-395.2" font-family="Helvetica,sans-Serif" font-size="11.00">varchar[3]</text>
<polygon fill="none" stroke="black" points="10,-365 10,-387 250,-387 250,-365 10,-365"/>
<text text-anchor="start" x="30" y="-373.2" font-family="Helvetica,sans-Serif" font-size="11.00">abbr_de</text>
<polygon fill="none" stroke="black" points="250,-365 250,-387 356,-387 356,-365 250,-365"/>
<text text-anchor="start" x="253" y="-373.2" font-family="Helvetica,sans-Serif" font-size="11.00">varchar[3]</text>
<polygon fill="none" stroke="black" points="10,-343 10,-365 250,-365 250,-343 10,-343"/>
<text text-anchor="start" x="30" y="-351.2" font-family="Helvetica,sans-Serif" font-size="11.00">abbr_fr</text>
<polygon fill="none" stroke="black" points="250,-343 250,-365 356,-365 356,-343 250,-343"/>
<text text-anchor="start" x="253" y="-351.2" font-family="Helvetica,sans-Serif" font-size="11.00">varchar[3]</text>
<polygon fill="none" stroke="black" points="10,-321 10,-343 250,-343 250,-321 10,-321"/>
<text text-anchor="start" x="30" y="-329.2" font-family="Helvetica,sans-Serif" font-size="11.00">abbr_it</text>
<polygon fill="none" stroke="black" points="250,-321 250,-343 356,-343 356,-321 250,-321"/>
<text text-anchor="start" x="253" y="-329.2" font-family="Helvetica,sans-Serif" font-size="11.00">varchar[3]</text>
<polygon fill="none" stroke="black" points="10,-299 10,-321 250,-321 250,-299 10,-299"/>
<text text-anchor="start" x="30" y="-307.2" font-family="Helvetica,sans-Serif" font-size="11.00">abbr_ro</text>
<polygon fill="none" stroke="black" points="250,-299 250,-321 356,-321 356,-299 250,-299"/>
<text text-anchor="start" x="253" y="-307.2" font-family="Helvetica,sans-Serif" font-size="11.00">varchar[3]</text>
<polygon fill="none" stroke="black" points="10,-277 10,-299 250,-299 250,-277 10,-277"/>
<text text-anchor="start" x="30" y="-285.2" font-family="Helvetica,sans-Serif" font-size="11.00">active</text>
<polygon fill="none" stroke="black" points="250,-277 250,-299 356,-299 356,-277 250,-277"/>
<text text-anchor="start" x="253" y="-285.2" font-family="Helvetica,sans-Serif" font-size="11.00">bool[1]</text>
<polygon fill="none" stroke="black" points="10,-255 10,-277 250,-277 250,-255 10,-255"/>
<text text-anchor="start" x="30" y="-263.2" font-family="Helvetica,sans-Serif" font-size="11.00">description_en</text>
<polygon fill="none" stroke="black" points="250,-255 250,-277 356,-277 356,-255 250,-255"/>
<text text-anchor="start" x="253" y="-263.2" font-family="Helvetica,sans-Serif" font-size="11.00">text[2147483647]</text>
<polygon fill="none" stroke="black" points="10,-233 10,-255 250,-255 250,-233 10,-233"/>
<text text-anchor="start" x="30" y="-241.2" font-family="Helvetica,sans-Serif" font-size="11.00">description_de</text>
<polygon fill="none" stroke="black" points="250,-233 250,-255 356,-255 356,-233 250,-233"/>
<text text-anchor="start" x="253" y="-241.2" font-family="Helvetica,sans-Serif" font-size="11.00">text[2147483647]</text>
<polygon fill="none" stroke="black" points="10,-211 10,-233 250,-233 250,-211 10,-211"/>
<text text-anchor="start" x="30" y="-219.2" font-family="Helvetica,sans-Serif" font-size="11.00">description_fr</text>
<polygon fill="none" stroke="black" points="250,-211 250,-233 356,-233 356,-211 250,-211"/>
<text text-anchor="start" x="253" y="-219.2" font-family="Helvetica,sans-Serif" font-size="11.00">text[2147483647]</text>
<polygon fill="none" stroke="black" points="10,-189 10,-211 250,-211 250,-189 10,-189"/>
<text text-anchor="start" x="30" y="-197.2" font-family="Helvetica,sans-Serif" font-size="11.00">description_it</text>
<polygon fill="none" stroke="black" points="250,-189 250,-211 356,-211 356,-189 250,-189"/>
<text text-anchor="start" x="253" y="-197.2" font-family="Helvetica,sans-Serif" font-size="11.00">text[2147483647]</text>
<polygon fill="none" stroke="black" points="10,-167 10,-189 250,-189 250,-167 10,-167"/>
<text text-anchor="start" x="30" y="-175.2" font-family="Helvetica,sans-Serif" font-size="11.00">description_ro</text>
<polygon fill="none" stroke="black" points="250,-167 250,-189 356,-189 356,-167 250,-167"/>
<text text-anchor="start" x="253" y="-175.2" font-family="Helvetica,sans-Serif" font-size="11.00">text[2147483647]</text>
<polygon fill="none" stroke="black" points="10,-145 10,-167 250,-167 250,-145 10,-145"/>
<text text-anchor="start" x="30" y="-153.2" font-family="Helvetica,sans-Serif" font-size="11.00">display_en</text>
<polygon fill="none" stroke="black" points="250,-145 250,-167 356,-167 356,-145 250,-145"/>
<text text-anchor="start" x="253" y="-153.2" font-family="Helvetica,sans-Serif" font-size="11.00">varchar[100]</text>
<polygon fill="none" stroke="black" points="10,-123 10,-145 250,-145 250,-123 10,-123"/>
<text text-anchor="start" x="30" y="-131.2" font-family="Helvetica,sans-Serif" font-size="11.00">display_de</text>
<polygon fill="none" stroke="black" points="250,-123 250,-145 356,-145 356,-123 250,-123"/>
<text text-anchor="start" x="253" y="-131.2" font-family="Helvetica,sans-Serif" font-size="11.00">varchar[100]</text>
<polygon fill="none" stroke="black" points="10,-101 10,-123 250,-123 250,-101 10,-101"/>
<text text-anchor="start" x="30" y="-109.2" font-family="Helvetica,sans-Serif" font-size="11.00">display_fr</text>
<polygon fill="none" stroke="black" points="250,-101 250,-123 356,-123 356,-101 250,-101"/>
<text text-anchor="start" x="253" y="-109.2" font-family="Helvetica,sans-Serif" font-size="11.00">varchar[100]</text>
<polygon fill="none" stroke="black" points="10,-79 10,-101 250,-101 250,-79 10,-79"/>
<text text-anchor="start" x="30" y="-87.2" font-family="Helvetica,sans-Serif" font-size="11.00">display_it</text>
<polygon fill="none" stroke="black" points="250,-79 250,-101 356,-101 356,-79 250,-79"/>
<text text-anchor="start" x="253" y="-87.2" font-family="Helvetica,sans-Serif" font-size="11.00">varchar[100]</text>
<polygon fill="none" stroke="black" points="10,-57 10,-79 250,-79 250,-57 10,-57"/>
<text text-anchor="start" x="30" y="-65.2" font-family="Helvetica,sans-Serif" font-size="11.00">display_ro</text>
<polygon fill="none" stroke="black" points="250,-57 250,-79 356,-79 356,-57 250,-57"/>
<text text-anchor="start" x="253" y="-65.2" font-family="Helvetica,sans-Serif" font-size="11.00">varchar[100]</text>
<polygon fill="#ffffff" stroke="transparent" points="10,-39 10,-57 356,-57 356,-39 10,-39"/>
<polygon fill="none" stroke="black" points="10,-39 10,-57 356,-57 356,-39 10,-39"/>
<polygon fill="#ffffff" stroke="transparent" points="11,-40 11,-56 130,-56 130,-40 11,-40"/>
<text text-anchor="start" x="13" y="-45.2" font-family="Helvetica,sans-Serif" font-size="11.00">&lt; 0</text>
<polygon fill="#ffffff" stroke="transparent" points="130,-40 130,-56 237,-56 237,-40 130,-40"/>
<text text-anchor="start" x="179.5" y="-45.2" font-family="Helvetica,sans-Serif" font-size="11.00"> &#160;</text>
<polygon fill="#ffffff" stroke="transparent" points="237,-40 237,-56 355,-56 355,-40 237,-40"/>
<text text-anchor="start" x="333" y="-45.2" font-family="Helvetica,sans-Serif" font-size="11.00">1 &gt;</text>
<polygon fill="black" stroke="black" points="130,-40 130,-56 130,-56 130,-40 130,-40"/>
<polygon fill="black" stroke="black" points="237,-40 237,-56 237,-56 237,-40 237,-40"/>
<polygon fill="none" stroke="black" stroke-width="2" points="9,-38 9,-586 357,-586 357,-38 9,-38"/>
</a>
</g>
</g>
<!-- tww_od.building_group&#45;&gt;building_group_drainage_map -->
<g id="edge1" class="edge">
<title>tww_od.building_group:w&#45;&gt;building_group_drainage_map:e</title>
<path fill="none" stroke="black" d="M391.49,-552C380.18,-552 372.99,-552 357,-552"/>
<polygon fill="black" stroke="black" points="398,-552 406,-555.6 402,-552 406,-552 406,-552 406,-552 402,-552 406,-548.4 398,-552 398,-552"/>
<ellipse fill="none" stroke="black" cx="394.8" cy="-552" rx="3.2" ry="3.2"/>
</g>
</g>
</svg>
