<?xml version="1.0" encoding="UTF-8" standalone="no"?>
<!DOCTYPE svg PUBLIC "-//W3C//DTD SVG 1.1//EN"
 "http://www.w3.org/Graphics/SVG/1.1/DTD/svg11.dtd">
<!-- Generated by graphviz version 2.43.0 (0)
 -->
<!-- Title: oneDegreeRelationshipsDiagram Pages: 1 -->
<svg width="783pt" height="531pt"
 viewBox="0.00 0.00 783.00 531.00" xmlns="http://www.w3.org/2000/svg" xmlns:xlink="http://www.w3.org/1999/xlink">
<g id="graph0" class="graph" transform="scale(1 1) rotate(0) translate(4 527)">
<title>oneDegreeRelationshipsDiagram</title>
<polygon fill="#ffffff" stroke="transparent" points="-4,4 -4,-527 779,-527 779,4 -4,4"/>
<text text-anchor="middle" x="79.5" y="-7.2" font-family="Helvetica,sans-Serif" font-size="11.00">Generated by SchemaSpy</text>
<!-- tww_od.catchment_area -->
<g id="node1" class="node">
<title>tww_od.catchment_area</title>
<g id="a_node1"><a xlink:href="../../../tww_od/tables/catchment_area.html" xlink:title="tww_od.catchment_area" target="_top">
<polygon fill="#ffffff" stroke="transparent" points="417,-285 417,-519 767,-519 767,-285 417,-285"/>
<polygon fill="#f5f5f5" stroke="transparent" points="417,-497 417,-519 767,-519 767,-497 417,-497"/>
<polygon fill="none" stroke="black" points="417,-497 417,-519 767,-519 767,-497 417,-497"/>
<text text-anchor="start" x="422" y="-506.2" font-family="Helvetica,sans-Serif" font-weight="bold" font-size="11.00">tww_od.catchment_area</text>
<text text-anchor="start" x="725" y="-505.2" font-family="Helvetica,sans-Serif" font-size="11.00">[table]</text>
<polygon fill="none" stroke="black" points="417,-475 417,-497 767,-497 767,-475 417,-475"/>
<image xlink:href="../../images/foreignKeys.png" width="11px" height="12px" preserveAspectRatio="xMinYMin meet" x="422" y="-492"/>
<text text-anchor="start" x="437" y="-483.2" font-family="Helvetica,sans-Serif" font-size="11.00">direct_discharge_current</text>
<polygon fill="none" stroke="black" points="417,-453 417,-475 767,-475 767,-453 417,-453"/>
<image xlink:href="../../images/foreignKeys.png" width="11px" height="12px" preserveAspectRatio="xMinYMin meet" x="422" y="-470"/>
<text text-anchor="start" x="437" y="-461.2" font-family="Helvetica,sans-Serif" font-size="11.00">direct_discharge_planned</text>
<polygon fill="none" stroke="black" points="417,-431 417,-453 767,-453 767,-431 417,-431"/>
<image xlink:href="../../images/foreignKeys.png" width="11px" height="12px" preserveAspectRatio="xMinYMin meet" x="422" y="-448"/>
<text text-anchor="start" x="437" y="-439.2" font-family="Helvetica,sans-Serif" font-size="11.00">drainage_system_current</text>
<polygon fill="none" stroke="black" points="417,-409 417,-431 767,-431 767,-409 417,-409"/>
<image xlink:href="../../images/foreignKeys.png" width="11px" height="12px" preserveAspectRatio="xMinYMin meet" x="422" y="-426"/>
<text text-anchor="start" x="437" y="-417.2" font-family="Helvetica,sans-Serif" font-size="11.00">drainage_system_planned</text>
<polygon fill="none" stroke="black" points="417,-387 417,-409 767,-409 767,-387 417,-387"/>
<image xlink:href="../../images/foreignKeys.png" width="11px" height="12px" preserveAspectRatio="xMinYMin meet" x="422" y="-404"/>
<text text-anchor="start" x="437" y="-395.2" font-family="Helvetica,sans-Serif" font-size="11.00">infiltration_current</text>
<polygon fill="none" stroke="black" points="417,-365 417,-387 767,-387 767,-365 417,-365"/>
<image xlink:href="../../images/foreignKeys.png" width="11px" height="12px" preserveAspectRatio="xMinYMin meet" x="422" y="-382"/>
<text text-anchor="start" x="437" y="-373.2" font-family="Helvetica,sans-Serif" font-size="11.00">infiltration_planned</text>
<polygon fill="none" stroke="black" points="417,-343 417,-365 767,-365 767,-343 417,-343"/>
<image xlink:href="../../images/foreignKeys.png" width="11px" height="12px" preserveAspectRatio="xMinYMin meet" x="422" y="-360"/>
<text text-anchor="start" x="437" y="-351.2" font-family="Helvetica,sans-Serif" font-size="11.00">retention_current</text>
<polygon fill="none" stroke="black" points="417,-321 417,-343 767,-343 767,-321 417,-321"/>
<image xlink:href="../../images/foreignKeys.png" width="11px" height="12px" preserveAspectRatio="xMinYMin meet" x="422" y="-338"/>
<text text-anchor="start" x="437" y="-329.2" font-family="Helvetica,sans-Serif" font-size="11.00">retention_planned</text>
<polygon fill="none" stroke="black" points="417,-303 417,-321 767,-321 767,-303 417,-303"/>
<text text-anchor="start" x="420" y="-309.2" font-family="Helvetica,sans-Serif" font-size="11.00">...</text>
<polygon fill="#ffffff" stroke="transparent" points="417,-285 417,-303 767,-303 767,-285 417,-285"/>
<polygon fill="none" stroke="black" points="417,-285 417,-303 767,-303 767,-285 417,-285"/>
<polygon fill="#ffffff" stroke="transparent" points="418,-286 418,-302 533,-302 533,-286 418,-286"/>
<text text-anchor="start" x="420" y="-291.2" font-family="Helvetica,sans-Serif" font-size="11.00">&lt; 8</text>
<polygon fill="#ffffff" stroke="transparent" points="533,-286 533,-302 664,-302 664,-286 533,-286"/>
<text text-anchor="start" x="580" y="-291.2" font-family="Helvetica,sans-Serif" font-size="11.00">0 rows</text>
<polygon fill="#ffffff" stroke="transparent" points="664,-286 664,-302 766,-302 766,-286 664,-286"/>
<text text-anchor="start" x="756" y="-291.2" font-family="Helvetica,sans-Serif" font-size="11.00"> &#160;</text>
<polygon fill="black" stroke="black" points="533,-286 533,-302 533,-302 533,-286 533,-286"/>
<polygon fill="black" stroke="black" points="664,-286 664,-302 664,-302 664,-286 664,-286"/>
</a>
</g>
</g>
<!-- catchment_area_retention_planned -->
<g id="node2" class="node">
<title>catchment_area_retention_planned</title>
<g id="a_node2"><a xlink:href="../../tables/catchment_area_retention_planned.html" xlink:title="catchment_area_retention_planned" target="_top">
<polygon fill="#ffffff" stroke="transparent" points="8,-37 8,-367 368,-367 368,-37 8,-37"/>
<polygon fill="#f5f5f5" stroke="transparent" points="10,-343 10,-365 366,-365 366,-343 10,-343"/>
<polygon fill="none" stroke="black" points="10,-343 10,-365 366,-365 366,-343 10,-343"/>
<text text-anchor="start" x="15" y="-352.2" font-family="Helvetica,sans-Serif" font-weight="bold" font-size="11.00">catchment_area_retention_planned</text>
<text text-anchor="start" x="324" y="-351.2" font-family="Helvetica,sans-Serif" font-size="11.00">[table]</text>
<polygon fill="none" stroke="black" points="10,-321 10,-343 288,-343 288,-321 10,-321"/>
<image xlink:href="../../images/primaryKeys.png" width="11px" height="12px" preserveAspectRatio="xMinYMin meet" x="15" y="-338"/>
<text text-anchor="start" x="30" y="-329.2" font-family="Helvetica,sans-Serif" font-size="11.00">code</text>
<polygon fill="none" stroke="black" points="288,-321 288,-343 366,-343 366,-321 288,-321"/>
<text text-anchor="start" x="291" y="-329.2" font-family="Helvetica,sans-Serif" font-size="11.00">int4[10]</text>
<polygon fill="none" stroke="black" points="10,-299 10,-321 288,-321 288,-299 10,-299"/>
<text text-anchor="start" x="30" y="-307.2" font-family="Helvetica,sans-Serif" font-size="11.00">vsacode</text>
<polygon fill="none" stroke="black" points="288,-299 288,-321 366,-321 366,-299 288,-299"/>
<text text-anchor="start" x="291" y="-307.2" font-family="Helvetica,sans-Serif" font-size="11.00">int4[10]</text>
<polygon fill="none" stroke="black" points="10,-277 10,-299 288,-299 288,-277 10,-277"/>
<text text-anchor="start" x="30" y="-285.2" font-family="Helvetica,sans-Serif" font-size="11.00">value_en</text>
<polygon fill="none" stroke="black" points="288,-277 288,-299 366,-299 366,-277 288,-277"/>
<text text-anchor="start" x="291" y="-285.2" font-family="Helvetica,sans-Serif" font-size="11.00">varchar[100]</text>
<polygon fill="none" stroke="black" points="10,-255 10,-277 288,-277 288,-255 10,-255"/>
<text text-anchor="start" x="30" y="-263.2" font-family="Helvetica,sans-Serif" font-size="11.00">value_de</text>
<polygon fill="none" stroke="black" points="288,-255 288,-277 366,-277 366,-255 288,-255"/>
<text text-anchor="start" x="291" y="-263.2" font-family="Helvetica,sans-Serif" font-size="11.00">varchar[100]</text>
<polygon fill="none" stroke="black" points="10,-233 10,-255 288,-255 288,-233 10,-233"/>
<text text-anchor="start" x="30" y="-241.2" font-family="Helvetica,sans-Serif" font-size="11.00">value_fr</text>
<polygon fill="none" stroke="black" points="288,-233 288,-255 366,-255 366,-233 288,-233"/>
<text text-anchor="start" x="291" y="-241.2" font-family="Helvetica,sans-Serif" font-size="11.00">varchar[100]</text>
<polygon fill="none" stroke="black" points="10,-211 10,-233 288,-233 288,-211 10,-211"/>
<text text-anchor="start" x="30" y="-219.2" font-family="Helvetica,sans-Serif" font-size="11.00">value_it</text>
<polygon fill="none" stroke="black" points="288,-211 288,-233 366,-233 366,-211 288,-211"/>
<text text-anchor="start" x="291" y="-219.2" font-family="Helvetica,sans-Serif" font-size="11.00">varchar[100]</text>
<polygon fill="none" stroke="black" points="10,-189 10,-211 288,-211 288,-189 10,-189"/>
<text text-anchor="start" x="30" y="-197.2" font-family="Helvetica,sans-Serif" font-size="11.00">value_ro</text>
<polygon fill="none" stroke="black" points="288,-189 288,-211 366,-211 366,-189 288,-189"/>
<text text-anchor="start" x="291" y="-197.2" font-family="Helvetica,sans-Serif" font-size="11.00">varchar[100]</text>
<polygon fill="none" stroke="black" points="10,-167 10,-189 288,-189 288,-167 10,-167"/>
<text text-anchor="start" x="30" y="-175.2" font-family="Helvetica,sans-Serif" font-size="11.00">abbr_en</text>
<polygon fill="none" stroke="black" points="288,-167 288,-189 366,-189 366,-167 288,-167"/>
<text text-anchor="start" x="291" y="-175.2" font-family="Helvetica,sans-Serif" font-size="11.00">varchar[3]</text>
<polygon fill="none" stroke="black" points="10,-145 10,-167 288,-167 288,-145 10,-145"/>
<text text-anchor="start" x="30" y="-153.2" font-family="Helvetica,sans-Serif" font-size="11.00">abbr_de</text>
<polygon fill="none" stroke="black" points="288,-145 288,-167 366,-167 366,-145 288,-145"/>
<text text-anchor="start" x="291" y="-153.2" font-family="Helvetica,sans-Serif" font-size="11.00">varchar[3]</text>
<polygon fill="none" stroke="black" points="10,-123 10,-145 288,-145 288,-123 10,-123"/>
<text text-anchor="start" x="30" y="-131.2" font-family="Helvetica,sans-Serif" font-size="11.00">abbr_fr</text>
<polygon fill="none" stroke="black" points="288,-123 288,-145 366,-145 366,-123 288,-123"/>
<text text-anchor="start" x="291" y="-131.2" font-family="Helvetica,sans-Serif" font-size="11.00">varchar[3]</text>
<polygon fill="none" stroke="black" points="10,-101 10,-123 288,-123 288,-101 10,-101"/>
<text text-anchor="start" x="30" y="-109.2" font-family="Helvetica,sans-Serif" font-size="11.00">abbr_it</text>
<polygon fill="none" stroke="black" points="288,-101 288,-123 366,-123 366,-101 288,-101"/>
<text text-anchor="start" x="291" y="-109.2" font-family="Helvetica,sans-Serif" font-size="11.00">varchar[3]</text>
<polygon fill="none" stroke="black" points="10,-79 10,-101 288,-101 288,-79 10,-79"/>
<text text-anchor="start" x="30" y="-87.2" font-family="Helvetica,sans-Serif" font-size="11.00">abbr_ro</text>
<polygon fill="none" stroke="black" points="288,-79 288,-101 366,-101 366,-79 288,-79"/>
<text text-anchor="start" x="291" y="-87.2" font-family="Helvetica,sans-Serif" font-size="11.00">varchar[3]</text>
<polygon fill="none" stroke="black" points="10,-57 10,-79 288,-79 288,-57 10,-57"/>
<text text-anchor="start" x="30" y="-65.2" font-family="Helvetica,sans-Serif" font-size="11.00">active</text>
<polygon fill="none" stroke="black" points="288,-57 288,-79 366,-79 366,-57 288,-57"/>
<text text-anchor="start" x="291" y="-65.2" font-family="Helvetica,sans-Serif" font-size="11.00">bool[1]</text>
<polygon fill="#ffffff" stroke="transparent" points="10,-39 10,-57 366,-57 366,-39 10,-39"/>
<polygon fill="none" stroke="black" points="10,-39 10,-57 366,-57 366,-39 10,-39"/>
<polygon fill="#ffffff" stroke="transparent" points="11,-40 11,-56 133,-56 133,-40 11,-40"/>
<text text-anchor="start" x="13" y="-45.2" font-family="Helvetica,sans-Serif" font-size="11.00">&lt; 0</text>
<polygon fill="#ffffff" stroke="transparent" points="133,-40 133,-56 243,-56 243,-40 133,-40"/>
<text text-anchor="start" x="184" y="-45.2" font-family="Helvetica,sans-Serif" font-size="11.00"> &#160;</text>
<polygon fill="#ffffff" stroke="transparent" points="243,-40 243,-56 365,-56 365,-40 243,-40"/>
<text text-anchor="start" x="343" y="-45.2" font-family="Helvetica,sans-Serif" font-size="11.00">1 &gt;</text>
<polygon fill="black" stroke="black" points="133,-40 133,-56 133,-56 133,-40 133,-40"/>
<polygon fill="black" stroke="black" points="243,-40 243,-56 243,-56 243,-40 243,-40"/>
<polygon fill="none" stroke="black" stroke-width="2" points="9,-38 9,-366 367,-366 367,-38 9,-38"/>
</a>
</g>
</g>
<!-- tww_od.catchment_area&#45;&gt;catchment_area_retention_planned -->
<g id="edge1" class="edge">
<title>tww_od.catchment_area:w&#45;&gt;catchment_area_retention_planned:e</title>
<path fill="none" stroke="black" d="M401.49,-332C390.18,-332 382.99,-332 367,-332"/>
<polygon fill="black" stroke="black" points="408,-332 416,-335.6 412,-332 416,-332 416,-332 416,-332 412,-332 416,-328.4 408,-332 408,-332"/>
<ellipse fill="none" stroke="black" cx="404.8" cy="-332" rx="3.2" ry="3.2"/>
</g>
</g>
</svg>
