<?xml version="1.0" encoding="UTF-8" standalone="no"?>
<!DOCTYPE svg PUBLIC "-//W3C//DTD SVG 1.1//EN"
 "http://www.w3.org/Graphics/SVG/1.1/DTD/svg11.dtd">
<!-- Generated by graphviz version 2.47.1 (20210515.0534)
 -->
<!-- Title: oneDegreeRelationshipsDiagram Pages: 1 -->
<svg width="501pt" height="379pt"
 viewBox="0.00 0.00 501.00 379.00" xmlns="http://www.w3.org/2000/svg" xmlns:xlink="http://www.w3.org/1999/xlink">
<g id="graph0" class="graph" transform="scale(1 1) rotate(0) translate(4 375)">
<title>oneDegreeRelationshipsDiagram</title>
<polygon fill="#ffffff" stroke="transparent" points="-4,4 -4,-375 497,-375 497,4 -4,4"/>
<text text-anchor="middle" x="73.5" y="-7.2" font-family="Helvetica,sans-Serif" font-size="11.00">Generated by SchemaSpy</text>
<!-- tww_od.channel -->
<g id="node1" class="node">
<title>tww_od.channel</title>
<g id="a_node1"><a xlink:href="../../../tww_od/tables/channel.html" xlink:title="tww_od.channel" target="_top">
<polygon fill="#ffffff" stroke="transparent" points="331,-131 331,-365 485,-365 485,-131 331,-131"/>
<polygon fill="#f5f5f5" stroke="transparent" points="331,-343 331,-365 485,-365 485,-343 331,-343"/>
<polygon fill="none" stroke="black" points="331,-343 331,-365 485,-365 485,-343 331,-343"/>
<text text-anchor="start" x="336" y="-352.2" font-family="Helvetica,sans-Serif" font-weight="bold" font-size="11.00">tww_od.channel</text>
<text text-anchor="start" x="446" y="-351.2" font-family="Helvetica,sans-Serif" font-size="11.00">[table]</text>
<polygon fill="none" stroke="black" points="331,-321 331,-343 485,-343 485,-321 331,-321"/>
<image xlink:href="../../images/foreignKeys.png" width="11px" height="12px" preserveAspectRatio="xMinYMin meet" x="336" y="-338"/>
<text text-anchor="start" x="351" y="-329.2" font-family="Helvetica,sans-Serif" font-size="11.00">bedding_encasement</text>
<polygon fill="none" stroke="black" points="331,-299 331,-321 485,-321 485,-299 331,-299"/>
<image xlink:href="../../images/foreignKeys.png" width="11px" height="12px" preserveAspectRatio="xMinYMin meet" x="336" y="-316"/>
<text text-anchor="start" x="351" y="-307.2" font-family="Helvetica,sans-Serif" font-size="11.00">connection_type</text>
<polygon fill="none" stroke="black" points="331,-277 331,-299 485,-299 485,-277 331,-277"/>
<image xlink:href="../../images/foreignKeys.png" width="11px" height="12px" preserveAspectRatio="xMinYMin meet" x="336" y="-294"/>
<text text-anchor="start" x="351" y="-285.2" font-family="Helvetica,sans-Serif" font-size="11.00">function_amelioration</text>
<polygon fill="none" stroke="black" points="331,-255 331,-277 485,-277 485,-255 331,-255"/>
<image xlink:href="../../images/foreignKeys.png" width="11px" height="12px" preserveAspectRatio="xMinYMin meet" x="336" y="-272"/>
<text text-anchor="start" x="351" y="-263.2" font-family="Helvetica,sans-Serif" font-size="11.00">function_hierarchic</text>
<polygon fill="none" stroke="black" points="331,-233 331,-255 485,-255 485,-233 331,-233"/>
<image xlink:href="../../images/foreignKeys.png" width="11px" height="12px" preserveAspectRatio="xMinYMin meet" x="336" y="-250"/>
<text text-anchor="start" x="351" y="-241.2" font-family="Helvetica,sans-Serif" font-size="11.00">function_hydraulic</text>
<polygon fill="none" stroke="black" points="331,-211 331,-233 485,-233 485,-211 331,-211"/>
<image xlink:href="../../images/foreignKeys.png" width="11px" height="12px" preserveAspectRatio="xMinYMin meet" x="336" y="-228"/>
<text text-anchor="start" x="351" y="-219.2" font-family="Helvetica,sans-Serif" font-size="11.00">seepage</text>
<polygon fill="none" stroke="black" points="331,-189 331,-211 485,-211 485,-189 331,-189"/>
<image xlink:href="../../images/foreignKeys.png" width="11px" height="12px" preserveAspectRatio="xMinYMin meet" x="336" y="-206"/>
<text text-anchor="start" x="351" y="-197.2" font-family="Helvetica,sans-Serif" font-size="11.00">usage_current</text>
<polygon fill="none" stroke="black" points="331,-167 331,-189 485,-189 485,-167 331,-167"/>
<image xlink:href="../../images/foreignKeys.png" width="11px" height="12px" preserveAspectRatio="xMinYMin meet" x="336" y="-184"/>
<text text-anchor="start" x="351" y="-175.2" font-family="Helvetica,sans-Serif" font-size="11.00">usage_planned</text>
<polygon fill="none" stroke="black" points="331,-149 331,-167 485,-167 485,-149 331,-149"/>
<text text-anchor="start" x="334" y="-155.2" font-family="Helvetica,sans-Serif" font-size="11.00">...</text>
<polygon fill="#ffffff" stroke="transparent" points="331,-131 331,-149 392,-149 392,-131 331,-131"/>
<polygon fill="none" stroke="black" points="331,-131 331,-149 392,-149 392,-131 331,-131"/>
<text text-anchor="start" x="334" y="-137.2" font-family="Helvetica,sans-Serif" font-size="11.00">&lt; 8</text>
<polygon fill="#ffffff" stroke="transparent" points="392,-131 392,-149 452,-149 452,-131 392,-131"/>
<polygon fill="none" stroke="black" points="392,-131 392,-149 452,-149 452,-131 392,-131"/>
<text text-anchor="start" x="415" y="-137.2" font-family="Helvetica,sans-Serif" font-size="11.00">0 rows</text>
<polygon fill="#ffffff" stroke="transparent" points="452,-131 452,-149 485,-149 485,-131 452,-131"/>
<polygon fill="none" stroke="black" points="452,-131 452,-149 485,-149 485,-131 452,-131"/>
<text text-anchor="start" x="475" y="-137.2" font-family="Helvetica,sans-Serif" font-size="11.00"> &#160;</text>
</a>
</g>
</g>
<!-- channel_bedding_encasement -->
<g id="node2" class="node">
<title>channel_bedding_encasement</title>
<g id="a_node2"><a xlink:href="../../tables/channel_bedding_encasement.html" xlink:title="channel_bedding_encasement" target="_top">
<polygon fill="#ffffff" stroke="transparent" points="8,-37 8,-367 282,-367 282,-37 8,-37"/>
<polygon fill="#f5f5f5" stroke="transparent" points="10,-343 10,-365 280,-365 280,-343 10,-343"/>
<polygon fill="none" stroke="black" points="10,-343 10,-365 280,-365 280,-343 10,-343"/>
<text text-anchor="start" x="15" y="-352.2" font-family="Helvetica,sans-Serif" font-weight="bold" font-size="11.00">channel_bedding_encasement</text>
<text text-anchor="start" x="241" y="-351.2" font-family="Helvetica,sans-Serif" font-size="11.00">[table]</text>
<polygon fill="none" stroke="black" points="10,-321 10,-343 210,-343 210,-321 10,-321"/>
<image xlink:href="../../images/primaryKeys.png" width="11px" height="12px" preserveAspectRatio="xMinYMin meet" x="15" y="-338"/>
<text text-anchor="start" x="30" y="-329.2" font-family="Helvetica,sans-Serif" font-size="11.00">code</text>
<polygon fill="none" stroke="black" points="210,-321 210,-343 280,-343 280,-321 210,-321"/>
<text text-anchor="start" x="213" y="-329.2" font-family="Helvetica,sans-Serif" font-size="11.00">int4[10]</text>
<polygon fill="none" stroke="black" points="10,-299 10,-321 210,-321 210,-299 10,-299"/>
<text text-anchor="start" x="30" y="-307.2" font-family="Helvetica,sans-Serif" font-size="11.00">vsacode</text>
<polygon fill="none" stroke="black" points="210,-299 210,-321 280,-321 280,-299 210,-299"/>
<text text-anchor="start" x="213" y="-307.2" font-family="Helvetica,sans-Serif" font-size="11.00">int4[10]</text>
<polygon fill="none" stroke="black" points="10,-277 10,-299 210,-299 210,-277 10,-277"/>
<text text-anchor="start" x="30" y="-285.2" font-family="Helvetica,sans-Serif" font-size="11.00">value_en</text>
<polygon fill="none" stroke="black" points="210,-277 210,-299 280,-299 280,-277 210,-277"/>
<text text-anchor="start" x="213" y="-285.2" font-family="Helvetica,sans-Serif" font-size="11.00">varchar[100]</text>
<polygon fill="none" stroke="black" points="10,-255 10,-277 210,-277 210,-255 10,-255"/>
<text text-anchor="start" x="30" y="-263.2" font-family="Helvetica,sans-Serif" font-size="11.00">value_de</text>
<polygon fill="none" stroke="black" points="210,-255 210,-277 280,-277 280,-255 210,-255"/>
<text text-anchor="start" x="213" y="-263.2" font-family="Helvetica,sans-Serif" font-size="11.00">varchar[100]</text>
<polygon fill="none" stroke="black" points="10,-233 10,-255 210,-255 210,-233 10,-233"/>
<text text-anchor="start" x="30" y="-241.2" font-family="Helvetica,sans-Serif" font-size="11.00">value_fr</text>
<polygon fill="none" stroke="black" points="210,-233 210,-255 280,-255 280,-233 210,-233"/>
<text text-anchor="start" x="213" y="-241.2" font-family="Helvetica,sans-Serif" font-size="11.00">varchar[100]</text>
<polygon fill="none" stroke="black" points="10,-211 10,-233 210,-233 210,-211 10,-211"/>
<text text-anchor="start" x="30" y="-219.2" font-family="Helvetica,sans-Serif" font-size="11.00">value_it</text>
<polygon fill="none" stroke="black" points="210,-211 210,-233 280,-233 280,-211 210,-211"/>
<text text-anchor="start" x="213" y="-219.2" font-family="Helvetica,sans-Serif" font-size="11.00">varchar[100]</text>
<polygon fill="none" stroke="black" points="10,-189 10,-211 210,-211 210,-189 10,-189"/>
<text text-anchor="start" x="30" y="-197.2" font-family="Helvetica,sans-Serif" font-size="11.00">value_ro</text>
<polygon fill="none" stroke="black" points="210,-189 210,-211 280,-211 280,-189 210,-189"/>
<text text-anchor="start" x="213" y="-197.2" font-family="Helvetica,sans-Serif" font-size="11.00">varchar[100]</text>
<polygon fill="none" stroke="black" points="10,-167 10,-189 210,-189 210,-167 10,-167"/>
<text text-anchor="start" x="30" y="-175.2" font-family="Helvetica,sans-Serif" font-size="11.00">abbr_en</text>
<polygon fill="none" stroke="black" points="210,-167 210,-189 280,-189 280,-167 210,-167"/>
<text text-anchor="start" x="213" y="-175.2" font-family="Helvetica,sans-Serif" font-size="11.00">varchar[3]</text>
<polygon fill="none" stroke="black" points="10,-145 10,-167 210,-167 210,-145 10,-145"/>
<text text-anchor="start" x="30" y="-153.2" font-family="Helvetica,sans-Serif" font-size="11.00">abbr_de</text>
<polygon fill="none" stroke="black" points="210,-145 210,-167 280,-167 280,-145 210,-145"/>
<text text-anchor="start" x="213" y="-153.2" font-family="Helvetica,sans-Serif" font-size="11.00">varchar[3]</text>
<polygon fill="none" stroke="black" points="10,-123 10,-145 210,-145 210,-123 10,-123"/>
<text text-anchor="start" x="30" y="-131.2" font-family="Helvetica,sans-Serif" font-size="11.00">abbr_fr</text>
<polygon fill="none" stroke="black" points="210,-123 210,-145 280,-145 280,-123 210,-123"/>
<text text-anchor="start" x="213" y="-131.2" font-family="Helvetica,sans-Serif" font-size="11.00">varchar[3]</text>
<polygon fill="none" stroke="black" points="10,-101 10,-123 210,-123 210,-101 10,-101"/>
<text text-anchor="start" x="30" y="-109.2" font-family="Helvetica,sans-Serif" font-size="11.00">abbr_it</text>
<polygon fill="none" stroke="black" points="210,-101 210,-123 280,-123 280,-101 210,-101"/>
<text text-anchor="start" x="213" y="-109.2" font-family="Helvetica,sans-Serif" font-size="11.00">varchar[3]</text>
<polygon fill="none" stroke="black" points="10,-79 10,-101 210,-101 210,-79 10,-79"/>
<text text-anchor="start" x="30" y="-87.2" font-family="Helvetica,sans-Serif" font-size="11.00">abbr_ro</text>
<polygon fill="none" stroke="black" points="210,-79 210,-101 280,-101 280,-79 210,-79"/>
<text text-anchor="start" x="213" y="-87.2" font-family="Helvetica,sans-Serif" font-size="11.00">varchar[3]</text>
<polygon fill="none" stroke="black" points="10,-57 10,-79 210,-79 210,-57 10,-57"/>
<text text-anchor="start" x="30" y="-65.2" font-family="Helvetica,sans-Serif" font-size="11.00">active</text>
<polygon fill="none" stroke="black" points="210,-57 210,-79 280,-79 280,-57 210,-57"/>
<text text-anchor="start" x="213" y="-65.2" font-family="Helvetica,sans-Serif" font-size="11.00">bool[1]</text>
<polygon fill="#ffffff" stroke="transparent" points="10,-39 10,-57 114,-57 114,-39 10,-39"/>
<polygon fill="none" stroke="black" points="10,-39 10,-57 114,-57 114,-39 10,-39"/>
<text text-anchor="start" x="13" y="-45.2" font-family="Helvetica,sans-Serif" font-size="11.00">&lt; 0</text>
<polygon fill="#ffffff" stroke="transparent" points="114,-39 114,-57 210,-57 210,-39 114,-39"/>
<polygon fill="none" stroke="black" points="114,-39 114,-57 210,-57 210,-39 114,-39"/>
<text text-anchor="start" x="200" y="-45.2" font-family="Helvetica,sans-Serif" font-size="11.00"> &#160;</text>
<polygon fill="#ffffff" stroke="transparent" points="210,-39 210,-57 280,-57 280,-39 210,-39"/>
<polygon fill="none" stroke="black" points="210,-39 210,-57 280,-57 280,-39 210,-39"/>
<text text-anchor="start" x="261" y="-45.2" font-family="Helvetica,sans-Serif" font-size="11.00">1 &gt;</text>
<polygon fill="none" stroke="black" stroke-width="2" points="9,-38 9,-366 281,-366 281,-38 9,-38"/>
</a>
</g>
</g>
<!-- tww_od.channel&#45;&gt;channel_bedding_encasement -->
<g id="edge1" class="edge">
<title>tww_od.channel:w&#45;&gt;channel_bedding_encasement:e</title>
<path fill="none" stroke="black" d="M315.49,-332C304.18,-332 296.99,-332 281,-332"/>
<polygon fill="black" stroke="black" points="322,-332 330,-335.6 326,-332 330,-332 330,-332 330,-332 326,-332 330,-328.4 322,-332 322,-332"/>
<ellipse fill="none" stroke="black" cx="318.8" cy="-332" rx="3.2" ry="3.2"/>
</g>
</g>
</svg>
