<?xml version="1.0" encoding="UTF-8" standalone="no"?>
<!DOCTYPE svg PUBLIC "-//W3C//DTD SVG 1.1//EN"
 "http://www.w3.org/Graphics/SVG/1.1/DTD/svg11.dtd">
<!-- Generated by graphviz version 2.43.0 (0)
 -->
<!-- Title: oneDegreeRelationshipsDiagram Pages: 1 -->
<svg width="741pt" height="599pt"
 viewBox="0.00 0.00 741.00 599.00" xmlns="http://www.w3.org/2000/svg" xmlns:xlink="http://www.w3.org/1999/xlink">
<g id="graph0" class="graph" transform="scale(1 1) rotate(0) translate(4 595)">
<title>oneDegreeRelationshipsDiagram</title>
<polygon fill="#ffffff" stroke="transparent" points="-4,4 -4,-595 737,-595 737,4 -4,4"/>
<text text-anchor="middle" x="79.5" y="-7.2" font-family="Helvetica,sans-Serif" font-size="11.00">Generated by SchemaSpy</text>
<!-- tww_od.damage_manhole -->
<g id="node1" class="node">
<title>tww_od.damage_manhole</title>
<g id="a_node1"><a xlink:href="../../../tww_od/tables/damage_manhole.html" xlink:title="tww_od.damage_manhole" target="_top">
<polygon fill="#ffffff" stroke="transparent" points="491,-483 491,-585 725,-585 725,-483 491,-483"/>
<polygon fill="#f5f5f5" stroke="transparent" points="491,-563 491,-585 725,-585 725,-563 491,-563"/>
<polygon fill="none" stroke="black" points="491,-563 491,-585 725,-585 725,-563 491,-563"/>
<text text-anchor="start" x="496" y="-572.2" font-family="Helvetica,sans-Serif" font-weight="bold" font-size="11.00">tww_od.damage_manhole</text>
<text text-anchor="start" x="683" y="-571.2" font-family="Helvetica,sans-Serif" font-size="11.00">[table]</text>
<polygon fill="none" stroke="black" points="491,-541 491,-563 725,-563 725,-541 491,-541"/>
<image xlink:href="../../images/foreignKeys.png" width="11px" height="12px" preserveAspectRatio="xMinYMin meet" x="496" y="-558"/>
<text text-anchor="start" x="527" y="-549.2" font-family="Helvetica,sans-Serif" font-size="11.00">manhole_damage_code</text>
<polygon fill="none" stroke="black" points="491,-519 491,-541 725,-541 725,-519 491,-519"/>
<image xlink:href="../../images/foreignKeys.png" width="11px" height="12px" preserveAspectRatio="xMinYMin meet" x="496" y="-536"/>
<text text-anchor="start" x="527" y="-527.2" font-family="Helvetica,sans-Serif" font-size="11.00">manhole_shaft_area</text>
<polygon fill="none" stroke="black" points="491,-501 491,-519 725,-519 725,-501 491,-501"/>
<text text-anchor="start" x="494" y="-507.2" font-family="Helvetica,sans-Serif" font-size="11.00">...</text>
<polygon fill="#ffffff" stroke="transparent" points="491,-483 491,-501 725,-501 725,-483 491,-483"/>
<polygon fill="none" stroke="black" points="491,-483 491,-501 725,-501 725,-483 491,-483"/>
<polygon fill="#ffffff" stroke="transparent" points="492,-484 492,-500 568,-500 568,-484 492,-484"/>
<text text-anchor="start" x="494" y="-489.2" font-family="Helvetica,sans-Serif" font-size="11.00">&lt; 2</text>
<polygon fill="#ffffff" stroke="transparent" points="568,-484 568,-500 661,-500 661,-484 568,-484"/>
<text text-anchor="start" x="596" y="-489.2" font-family="Helvetica,sans-Serif" font-size="11.00">0 rows</text>
<polygon fill="#ffffff" stroke="transparent" points="661,-484 661,-500 724,-500 724,-484 661,-484"/>
<text text-anchor="start" x="714" y="-489.2" font-family="Helvetica,sans-Serif" font-size="11.00"> &#160;</text>
<polygon fill="black" stroke="black" points="568,-484 568,-500 568,-500 568,-484 568,-484"/>
<polygon fill="black" stroke="black" points="661,-484 661,-500 661,-500 661,-484 661,-484"/>
</a>
</g>
</g>
<!-- damage_manhole_manhole_damage_code -->
<g id="node2" class="node">
<title>damage_manhole_manhole_damage_code</title>
<g id="a_node2"><a xlink:href="../../tables/damage_manhole_manhole_damage_code.html" xlink:title="damage_manhole_manhole_damage_code" target="_top">
<polygon fill="#ffffff" stroke="transparent" points="8,-37 8,-587 442,-587 442,-37 8,-37"/>
<polygon fill="#f5f5f5" stroke="transparent" points="10,-563 10,-585 440,-585 440,-563 10,-563"/>
<polygon fill="none" stroke="black" points="10,-563 10,-585 440,-585 440,-563 10,-563"/>
<text text-anchor="start" x="15" y="-572.2" font-family="Helvetica,sans-Serif" font-weight="bold" font-size="11.00">damage_manhole_manhole_damage_code</text>
<text text-anchor="start" x="398" y="-571.2" font-family="Helvetica,sans-Serif" font-size="11.00">[table]</text>
<polygon fill="none" stroke="black" points="10,-541 10,-563 334,-563 334,-541 10,-541"/>
<image xlink:href="../../images/primaryKeys.png" width="11px" height="12px" preserveAspectRatio="xMinYMin meet" x="15" y="-558"/>
<text text-anchor="start" x="30" y="-549.2" font-family="Helvetica,sans-Serif" font-size="11.00">code</text>
<polygon fill="none" stroke="black" points="334,-541 334,-563 440,-563 440,-541 334,-541"/>
<text text-anchor="start" x="337" y="-549.2" font-family="Helvetica,sans-Serif" font-size="11.00">int4[10]</text>
<polygon fill="none" stroke="black" points="10,-519 10,-541 334,-541 334,-519 10,-519"/>
<text text-anchor="start" x="30" y="-527.2" font-family="Helvetica,sans-Serif" font-size="11.00">vsacode</text>
<polygon fill="none" stroke="black" points="334,-519 334,-541 440,-541 440,-519 334,-519"/>
<text text-anchor="start" x="337" y="-527.2" font-family="Helvetica,sans-Serif" font-size="11.00">int4[10]</text>
<polygon fill="none" stroke="black" points="10,-497 10,-519 334,-519 334,-497 10,-497"/>
<text text-anchor="start" x="30" y="-505.2" font-family="Helvetica,sans-Serif" font-size="11.00">value_en</text>
<polygon fill="none" stroke="black" points="334,-497 334,-519 440,-519 440,-497 334,-497"/>
<text text-anchor="start" x="337" y="-505.2" font-family="Helvetica,sans-Serif" font-size="11.00">varchar[100]</text>
<polygon fill="none" stroke="black" points="10,-475 10,-497 334,-497 334,-475 10,-475"/>
<text text-anchor="start" x="30" y="-483.2" font-family="Helvetica,sans-Serif" font-size="11.00">value_de</text>
<polygon fill="none" stroke="black" points="334,-475 334,-497 440,-497 440,-475 334,-475"/>
<text text-anchor="start" x="337" y="-483.2" font-family="Helvetica,sans-Serif" font-size="11.00">varchar[100]</text>
<polygon fill="none" stroke="black" points="10,-453 10,-475 334,-475 334,-453 10,-453"/>
<text text-anchor="start" x="30" y="-461.2" font-family="Helvetica,sans-Serif" font-size="11.00">value_fr</text>
<polygon fill="none" stroke="black" points="334,-453 334,-475 440,-475 440,-453 334,-453"/>
<text text-anchor="start" x="337" y="-461.2" font-family="Helvetica,sans-Serif" font-size="11.00">varchar[100]</text>
<polygon fill="none" stroke="black" points="10,-431 10,-453 334,-453 334,-431 10,-431"/>
<text text-anchor="start" x="30" y="-439.2" font-family="Helvetica,sans-Serif" font-size="11.00">value_it</text>
<polygon fill="none" stroke="black" points="334,-431 334,-453 440,-453 440,-431 334,-431"/>
<text text-anchor="start" x="337" y="-439.2" font-family="Helvetica,sans-Serif" font-size="11.00">varchar[100]</text>
<polygon fill="none" stroke="black" points="10,-409 10,-431 334,-431 334,-409 10,-409"/>
<text text-anchor="start" x="30" y="-417.2" font-family="Helvetica,sans-Serif" font-size="11.00">value_ro</text>
<polygon fill="none" stroke="black" points="334,-409 334,-431 440,-431 440,-409 334,-409"/>
<text text-anchor="start" x="337" y="-417.2" font-family="Helvetica,sans-Serif" font-size="11.00">varchar[100]</text>
<polygon fill="none" stroke="black" points="10,-387 10,-409 334,-409 334,-387 10,-387"/>
<text text-anchor="start" x="30" y="-395.2" font-family="Helvetica,sans-Serif" font-size="11.00">abbr_en</text>
<polygon fill="none" stroke="black" points="334,-387 334,-409 440,-409 440,-387 334,-387"/>
<text text-anchor="start" x="337" y="-395.2" font-family="Helvetica,sans-Serif" font-size="11.00">varchar[3]</text>
<polygon fill="none" stroke="black" points="10,-365 10,-387 334,-387 334,-365 10,-365"/>
<text text-anchor="start" x="30" y="-373.2" font-family="Helvetica,sans-Serif" font-size="11.00">abbr_de</text>
<polygon fill="none" stroke="black" points="334,-365 334,-387 440,-387 440,-365 334,-365"/>
<text text-anchor="start" x="337" y="-373.2" font-family="Helvetica,sans-Serif" font-size="11.00">varchar[3]</text>
<polygon fill="none" stroke="black" points="10,-343 10,-365 334,-365 334,-343 10,-343"/>
<text text-anchor="start" x="30" y="-351.2" font-family="Helvetica,sans-Serif" font-size="11.00">abbr_fr</text>
<polygon fill="none" stroke="black" points="334,-343 334,-365 440,-365 440,-343 334,-343"/>
<text text-anchor="start" x="337" y="-351.2" font-family="Helvetica,sans-Serif" font-size="11.00">varchar[3]</text>
<polygon fill="none" stroke="black" points="10,-321 10,-343 334,-343 334,-321 10,-321"/>
<text text-anchor="start" x="30" y="-329.2" font-family="Helvetica,sans-Serif" font-size="11.00">abbr_it</text>
<polygon fill="none" stroke="black" points="334,-321 334,-343 440,-343 440,-321 334,-321"/>
<text text-anchor="start" x="337" y="-329.2" font-family="Helvetica,sans-Serif" font-size="11.00">varchar[3]</text>
<polygon fill="none" stroke="black" points="10,-299 10,-321 334,-321 334,-299 10,-299"/>
<text text-anchor="start" x="30" y="-307.2" font-family="Helvetica,sans-Serif" font-size="11.00">abbr_ro</text>
<polygon fill="none" stroke="black" points="334,-299 334,-321 440,-321 440,-299 334,-299"/>
<text text-anchor="start" x="337" y="-307.2" font-family="Helvetica,sans-Serif" font-size="11.00">varchar[3]</text>
<polygon fill="none" stroke="black" points="10,-277 10,-299 334,-299 334,-277 10,-277"/>
<text text-anchor="start" x="30" y="-285.2" font-family="Helvetica,sans-Serif" font-size="11.00">active</text>
<polygon fill="none" stroke="black" points="334,-277 334,-299 440,-299 440,-277 334,-277"/>
<text text-anchor="start" x="337" y="-285.2" font-family="Helvetica,sans-Serif" font-size="11.00">bool[1]</text>
<polygon fill="none" stroke="black" points="10,-255 10,-277 334,-277 334,-255 10,-255"/>
<text text-anchor="start" x="30" y="-263.2" font-family="Helvetica,sans-Serif" font-size="11.00">description_en</text>
<polygon fill="none" stroke="black" points="334,-255 334,-277 440,-277 440,-255 334,-255"/>
<text text-anchor="start" x="337" y="-263.2" font-family="Helvetica,sans-Serif" font-size="11.00">text[2147483647]</text>
<polygon fill="none" stroke="black" points="10,-233 10,-255 334,-255 334,-233 10,-233"/>
<text text-anchor="start" x="30" y="-241.2" font-family="Helvetica,sans-Serif" font-size="11.00">description_de</text>
<polygon fill="none" stroke="black" points="334,-233 334,-255 440,-255 440,-233 334,-233"/>
<text text-anchor="start" x="337" y="-241.2" font-family="Helvetica,sans-Serif" font-size="11.00">text[2147483647]</text>
<polygon fill="none" stroke="black" points="10,-211 10,-233 334,-233 334,-211 10,-211"/>
<text text-anchor="start" x="30" y="-219.2" font-family="Helvetica,sans-Serif" font-size="11.00">description_fr</text>
<polygon fill="none" stroke="black" points="334,-211 334,-233 440,-233 440,-211 334,-211"/>
<text text-anchor="start" x="337" y="-219.2" font-family="Helvetica,sans-Serif" font-size="11.00">text[2147483647]</text>
<polygon fill="none" stroke="black" points="10,-189 10,-211 334,-211 334,-189 10,-189"/>
<text text-anchor="start" x="30" y="-197.2" font-family="Helvetica,sans-Serif" font-size="11.00">description_it</text>
<polygon fill="none" stroke="black" points="334,-189 334,-211 440,-211 440,-189 334,-189"/>
<text text-anchor="start" x="337" y="-197.2" font-family="Helvetica,sans-Serif" font-size="11.00">text[2147483647]</text>
<polygon fill="none" stroke="black" points="10,-167 10,-189 334,-189 334,-167 10,-167"/>
<text text-anchor="start" x="30" y="-175.2" font-family="Helvetica,sans-Serif" font-size="11.00">description_ro</text>
<polygon fill="none" stroke="black" points="334,-167 334,-189 440,-189 440,-167 334,-167"/>
<text text-anchor="start" x="337" y="-175.2" font-family="Helvetica,sans-Serif" font-size="11.00">text[2147483647]</text>
<polygon fill="none" stroke="black" points="10,-145 10,-167 334,-167 334,-145 10,-145"/>
<text text-anchor="start" x="30" y="-153.2" font-family="Helvetica,sans-Serif" font-size="11.00">display_en</text>
<polygon fill="none" stroke="black" points="334,-145 334,-167 440,-167 440,-145 334,-145"/>
<text text-anchor="start" x="337" y="-153.2" font-family="Helvetica,sans-Serif" font-size="11.00">varchar[100]</text>
<polygon fill="none" stroke="black" points="10,-123 10,-145 334,-145 334,-123 10,-123"/>
<text text-anchor="start" x="30" y="-131.2" font-family="Helvetica,sans-Serif" font-size="11.00">display_de</text>
<polygon fill="none" stroke="black" points="334,-123 334,-145 440,-145 440,-123 334,-123"/>
<text text-anchor="start" x="337" y="-131.2" font-family="Helvetica,sans-Serif" font-size="11.00">varchar[100]</text>
<polygon fill="none" stroke="black" points="10,-101 10,-123 334,-123 334,-101 10,-101"/>
<text text-anchor="start" x="30" y="-109.2" font-family="Helvetica,sans-Serif" font-size="11.00">display_fr</text>
<polygon fill="none" stroke="black" points="334,-101 334,-123 440,-123 440,-101 334,-101"/>
<text text-anchor="start" x="337" y="-109.2" font-family="Helvetica,sans-Serif" font-size="11.00">varchar[100]</text>
<polygon fill="none" stroke="black" points="10,-79 10,-101 334,-101 334,-79 10,-79"/>
<text text-anchor="start" x="30" y="-87.2" font-family="Helvetica,sans-Serif" font-size="11.00">display_it</text>
<polygon fill="none" stroke="black" points="334,-79 334,-101 440,-101 440,-79 334,-79"/>
<text text-anchor="start" x="337" y="-87.2" font-family="Helvetica,sans-Serif" font-size="11.00">varchar[100]</text>
<polygon fill="none" stroke="black" points="10,-57 10,-79 334,-79 334,-57 10,-57"/>
<text text-anchor="start" x="30" y="-65.2" font-family="Helvetica,sans-Serif" font-size="11.00">display_ro</text>
<polygon fill="none" stroke="black" points="334,-57 334,-79 440,-79 440,-57 334,-57"/>
<text text-anchor="start" x="337" y="-65.2" font-family="Helvetica,sans-Serif" font-size="11.00">varchar[100]</text>
<polygon fill="#ffffff" stroke="transparent" points="10,-39 10,-57 440,-57 440,-39 10,-39"/>
<polygon fill="none" stroke="black" points="10,-39 10,-57 440,-57 440,-39 10,-39"/>
<polygon fill="#ffffff" stroke="transparent" points="11,-40 11,-56 144,-56 144,-40 11,-40"/>
<text text-anchor="start" x="13" y="-45.2" font-family="Helvetica,sans-Serif" font-size="11.00">&lt; 0</text>
<polygon fill="#ffffff" stroke="transparent" points="144,-40 144,-56 307,-56 307,-40 144,-40"/>
<text text-anchor="start" x="200" y="-45.2" font-family="Helvetica,sans-Serif" font-size="11.00">322 rows</text>
<polygon fill="#ffffff" stroke="transparent" points="307,-40 307,-56 439,-56 439,-40 307,-40"/>
<text text-anchor="start" x="417" y="-45.2" font-family="Helvetica,sans-Serif" font-size="11.00">1 &gt;</text>
<polygon fill="black" stroke="black" points="144,-40 144,-56 144,-56 144,-40 144,-40"/>
<polygon fill="black" stroke="black" points="307,-40 307,-56 307,-56 307,-40 307,-40"/>
<polygon fill="none" stroke="black" stroke-width="2" points="9,-38 9,-586 441,-586 441,-38 9,-38"/>
</a>
</g>
</g>
<!-- tww_od.damage_manhole&#45;&gt;damage_manhole_manhole_damage_code -->
<g id="edge1" class="edge">
<title>tww_od.damage_manhole:w&#45;&gt;damage_manhole_manhole_damage_code:e</title>
<path fill="none" stroke="black" d="M475.49,-552C464.18,-552 456.99,-552 441,-552"/>
<polygon fill="black" stroke="black" points="482,-552 490,-555.6 486,-552 490,-552 490,-552 490,-552 486,-552 490,-548.4 482,-552 482,-552"/>
<ellipse fill="none" stroke="black" cx="478.8" cy="-552" rx="3.2" ry="3.2"/>
</g>
</g>
</svg>
