<?xml version="1.0" encoding="UTF-8" standalone="no"?>
<!DOCTYPE svg PUBLIC "-//W3C//DTD SVG 1.1//EN"
 "http://www.w3.org/Graphics/SVG/1.1/DTD/svg11.dtd">
<!-- Generated by graphviz version 2.47.1 (20210515.0534)
 -->
<!-- Title: oneDegreeRelationshipsDiagram Pages: 1 -->
<svg width="597pt" height="399pt"
 viewBox="0.00 0.00 597.00 399.00" xmlns="http://www.w3.org/2000/svg" xmlns:xlink="http://www.w3.org/1999/xlink">
<g id="graph0" class="graph" transform="scale(1 1) rotate(0) translate(4 395)">
<title>oneDegreeRelationshipsDiagram</title>
<polygon fill="#ffffff" stroke="transparent" points="-4,4 -4,-395 593,-395 593,4 -4,4"/>
<text text-anchor="middle" x="73.5" y="-7.2" font-family="Helvetica,sans-Serif" font-size="11.00">Generated by SchemaSpy</text>
<!-- tww_od.damage_manhole -->
<g id="node1" class="node">
<title>tww_od.damage_manhole</title>
<g id="a_node1"><a xlink:href="../../../tww_od/tables/damage_manhole.html" xlink:title="tww_od.damage_manhole" target="_top">
<polygon fill="#ffffff" stroke="transparent" points="383,-285 383,-387 581,-387 581,-285 383,-285"/>
<polygon fill="#f5f5f5" stroke="transparent" points="383,-365 383,-387 581,-387 581,-365 383,-365"/>
<polygon fill="none" stroke="black" points="383,-365 383,-387 581,-387 581,-365 383,-365"/>
<text text-anchor="start" x="388" y="-374.2" font-family="Helvetica,sans-Serif" font-weight="bold" font-size="11.00">tww_od.damage_manhole</text>
<text text-anchor="start" x="542" y="-373.2" font-family="Helvetica,sans-Serif" font-size="11.00">[table]</text>
<polygon fill="none" stroke="black" points="383,-343 383,-365 581,-365 581,-343 383,-343"/>
<image xlink:href="../../images/foreignKeys.png" width="11px" height="12px" preserveAspectRatio="xMinYMin meet" x="388" y="-360"/>
<text text-anchor="start" x="417" y="-351.2" font-family="Helvetica,sans-Serif" font-size="11.00">manhole_damage_code</text>
<polygon fill="none" stroke="black" points="383,-321 383,-343 581,-343 581,-321 383,-321"/>
<image xlink:href="../../images/foreignKeys.png" width="11px" height="12px" preserveAspectRatio="xMinYMin meet" x="388" y="-338"/>
<text text-anchor="start" x="417" y="-329.2" font-family="Helvetica,sans-Serif" font-size="11.00">manhole_shaft_area</text>
<polygon fill="none" stroke="black" points="383,-303 383,-321 581,-321 581,-303 383,-303"/>
<text text-anchor="start" x="386" y="-309.2" font-family="Helvetica,sans-Serif" font-size="11.00">...</text>
<polygon fill="#ffffff" stroke="transparent" points="383,-285 383,-303 466,-303 466,-285 383,-285"/>
<polygon fill="none" stroke="black" points="383,-285 383,-303 466,-303 466,-285 383,-285"/>
<text text-anchor="start" x="386" y="-291.2" font-family="Helvetica,sans-Serif" font-size="11.00">&lt; 2</text>
<polygon fill="#ffffff" stroke="transparent" points="466,-285 466,-303 537,-303 537,-285 466,-285"/>
<polygon fill="none" stroke="black" points="466,-285 466,-303 537,-303 537,-285 466,-285"/>
<text text-anchor="start" x="500" y="-291.2" font-family="Helvetica,sans-Serif" font-size="11.00">0 rows</text>
<polygon fill="#ffffff" stroke="transparent" points="537,-285 537,-303 581,-303 581,-285 537,-285"/>
<polygon fill="none" stroke="black" points="537,-285 537,-303 581,-303 581,-285 537,-285"/>
<text text-anchor="start" x="571" y="-291.2" font-family="Helvetica,sans-Serif" font-size="11.00"> &#160;</text>
</a>
</g>
</g>
<!-- damage_manhole_manhole_shaft_area -->
<g id="node2" class="node">
<title>damage_manhole_manhole_shaft_area</title>
<g id="a_node2"><a xlink:href="../../tables/damage_manhole_manhole_shaft_area.html" xlink:title="damage_manhole_manhole_shaft_area" target="_top">
<polygon fill="#ffffff" stroke="transparent" points="8,-37 8,-367 334,-367 334,-37 8,-37"/>
<polygon fill="#f5f5f5" stroke="transparent" points="10,-343 10,-365 332,-365 332,-343 10,-343"/>
<polygon fill="none" stroke="black" points="10,-343 10,-365 332,-365 332,-343 10,-343"/>
<text text-anchor="start" x="15" y="-352.2" font-family="Helvetica,sans-Serif" font-weight="bold" font-size="11.00">damage_manhole_manhole_shaft_area</text>
<text text-anchor="start" x="293" y="-351.2" font-family="Helvetica,sans-Serif" font-size="11.00">[table]</text>
<polygon fill="none" stroke="black" points="10,-321 10,-343 262,-343 262,-321 10,-321"/>
<image xlink:href="../../images/primaryKeys.png" width="11px" height="12px" preserveAspectRatio="xMinYMin meet" x="15" y="-338"/>
<text text-anchor="start" x="30" y="-329.2" font-family="Helvetica,sans-Serif" font-size="11.00">code</text>
<polygon fill="none" stroke="black" points="262,-321 262,-343 332,-343 332,-321 262,-321"/>
<text text-anchor="start" x="265" y="-329.2" font-family="Helvetica,sans-Serif" font-size="11.00">int4[10]</text>
<polygon fill="none" stroke="black" points="10,-299 10,-321 262,-321 262,-299 10,-299"/>
<text text-anchor="start" x="30" y="-307.2" font-family="Helvetica,sans-Serif" font-size="11.00">vsacode</text>
<polygon fill="none" stroke="black" points="262,-299 262,-321 332,-321 332,-299 262,-299"/>
<text text-anchor="start" x="265" y="-307.2" font-family="Helvetica,sans-Serif" font-size="11.00">int4[10]</text>
<polygon fill="none" stroke="black" points="10,-277 10,-299 262,-299 262,-277 10,-277"/>
<text text-anchor="start" x="30" y="-285.2" font-family="Helvetica,sans-Serif" font-size="11.00">value_en</text>
<polygon fill="none" stroke="black" points="262,-277 262,-299 332,-299 332,-277 262,-277"/>
<text text-anchor="start" x="265" y="-285.2" font-family="Helvetica,sans-Serif" font-size="11.00">varchar[100]</text>
<polygon fill="none" stroke="black" points="10,-255 10,-277 262,-277 262,-255 10,-255"/>
<text text-anchor="start" x="30" y="-263.2" font-family="Helvetica,sans-Serif" font-size="11.00">value_de</text>
<polygon fill="none" stroke="black" points="262,-255 262,-277 332,-277 332,-255 262,-255"/>
<text text-anchor="start" x="265" y="-263.2" font-family="Helvetica,sans-Serif" font-size="11.00">varchar[100]</text>
<polygon fill="none" stroke="black" points="10,-233 10,-255 262,-255 262,-233 10,-233"/>
<text text-anchor="start" x="30" y="-241.2" font-family="Helvetica,sans-Serif" font-size="11.00">value_fr</text>
<polygon fill="none" stroke="black" points="262,-233 262,-255 332,-255 332,-233 262,-233"/>
<text text-anchor="start" x="265" y="-241.2" font-family="Helvetica,sans-Serif" font-size="11.00">varchar[100]</text>
<polygon fill="none" stroke="black" points="10,-211 10,-233 262,-233 262,-211 10,-211"/>
<text text-anchor="start" x="30" y="-219.2" font-family="Helvetica,sans-Serif" font-size="11.00">value_it</text>
<polygon fill="none" stroke="black" points="262,-211 262,-233 332,-233 332,-211 262,-211"/>
<text text-anchor="start" x="265" y="-219.2" font-family="Helvetica,sans-Serif" font-size="11.00">varchar[100]</text>
<polygon fill="none" stroke="black" points="10,-189 10,-211 262,-211 262,-189 10,-189"/>
<text text-anchor="start" x="30" y="-197.2" font-family="Helvetica,sans-Serif" font-size="11.00">value_ro</text>
<polygon fill="none" stroke="black" points="262,-189 262,-211 332,-211 332,-189 262,-189"/>
<text text-anchor="start" x="265" y="-197.2" font-family="Helvetica,sans-Serif" font-size="11.00">varchar[100]</text>
<polygon fill="none" stroke="black" points="10,-167 10,-189 262,-189 262,-167 10,-167"/>
<text text-anchor="start" x="30" y="-175.2" font-family="Helvetica,sans-Serif" font-size="11.00">abbr_en</text>
<polygon fill="none" stroke="black" points="262,-167 262,-189 332,-189 332,-167 262,-167"/>
<text text-anchor="start" x="265" y="-175.2" font-family="Helvetica,sans-Serif" font-size="11.00">varchar[3]</text>
<polygon fill="none" stroke="black" points="10,-145 10,-167 262,-167 262,-145 10,-145"/>
<text text-anchor="start" x="30" y="-153.2" font-family="Helvetica,sans-Serif" font-size="11.00">abbr_de</text>
<polygon fill="none" stroke="black" points="262,-145 262,-167 332,-167 332,-145 262,-145"/>
<text text-anchor="start" x="265" y="-153.2" font-family="Helvetica,sans-Serif" font-size="11.00">varchar[3]</text>
<polygon fill="none" stroke="black" points="10,-123 10,-145 262,-145 262,-123 10,-123"/>
<text text-anchor="start" x="30" y="-131.2" font-family="Helvetica,sans-Serif" font-size="11.00">abbr_fr</text>
<polygon fill="none" stroke="black" points="262,-123 262,-145 332,-145 332,-123 262,-123"/>
<text text-anchor="start" x="265" y="-131.2" font-family="Helvetica,sans-Serif" font-size="11.00">varchar[3]</text>
<polygon fill="none" stroke="black" points="10,-101 10,-123 262,-123 262,-101 10,-101"/>
<text text-anchor="start" x="30" y="-109.2" font-family="Helvetica,sans-Serif" font-size="11.00">abbr_it</text>
<polygon fill="none" stroke="black" points="262,-101 262,-123 332,-123 332,-101 262,-101"/>
<text text-anchor="start" x="265" y="-109.2" font-family="Helvetica,sans-Serif" font-size="11.00">varchar[3]</text>
<polygon fill="none" stroke="black" points="10,-79 10,-101 262,-101 262,-79 10,-79"/>
<text text-anchor="start" x="30" y="-87.2" font-family="Helvetica,sans-Serif" font-size="11.00">abbr_ro</text>
<polygon fill="none" stroke="black" points="262,-79 262,-101 332,-101 332,-79 262,-79"/>
<text text-anchor="start" x="265" y="-87.2" font-family="Helvetica,sans-Serif" font-size="11.00">varchar[3]</text>
<polygon fill="none" stroke="black" points="10,-57 10,-79 262,-79 262,-57 10,-57"/>
<text text-anchor="start" x="30" y="-65.2" font-family="Helvetica,sans-Serif" font-size="11.00">active</text>
<polygon fill="none" stroke="black" points="262,-57 262,-79 332,-79 332,-57 262,-57"/>
<text text-anchor="start" x="265" y="-65.2" font-family="Helvetica,sans-Serif" font-size="11.00">bool[1]</text>
<polygon fill="#ffffff" stroke="transparent" points="10,-39 10,-57 140,-57 140,-39 10,-39"/>
<polygon fill="none" stroke="black" points="10,-39 10,-57 140,-57 140,-39 10,-39"/>
<text text-anchor="start" x="13" y="-45.2" font-family="Helvetica,sans-Serif" font-size="11.00">&lt; 0</text>
<polygon fill="#ffffff" stroke="transparent" points="140,-39 140,-57 262,-57 262,-39 140,-39"/>
<polygon fill="none" stroke="black" points="140,-39 140,-57 262,-57 262,-39 140,-39"/>
<text text-anchor="start" x="252" y="-45.2" font-family="Helvetica,sans-Serif" font-size="11.00"> &#160;</text>
<polygon fill="#ffffff" stroke="transparent" points="262,-39 262,-57 332,-57 332,-39 262,-39"/>
<polygon fill="none" stroke="black" points="262,-39 262,-57 332,-57 332,-39 262,-39"/>
<text text-anchor="start" x="313" y="-45.2" font-family="Helvetica,sans-Serif" font-size="11.00">1 &gt;</text>
<polygon fill="none" stroke="black" stroke-width="2" points="9,-38 9,-366 333,-366 333,-38 9,-38"/>
</a>
</g>
</g>
<!-- tww_od.damage_manhole&#45;&gt;damage_manhole_manhole_shaft_area -->
<g id="edge1" class="edge">
<title>tww_od.damage_manhole:w&#45;&gt;damage_manhole_manhole_shaft_area:e</title>
<path fill="none" stroke="black" d="M367.49,-332C356.18,-332 348.99,-332 333,-332"/>
<polygon fill="black" stroke="black" points="374,-332 382,-335.6 378,-332 382,-332 382,-332 382,-332 378,-332 382,-328.4 374,-332 374,-332"/>
<ellipse fill="none" stroke="black" cx="370.8" cy="-332" rx="3.2" ry="3.2"/>
</g>
</g>
</svg>
