<?xml version="1.0" encoding="UTF-8" standalone="no"?>
<!DOCTYPE svg PUBLIC "-//W3C//DTD SVG 1.1//EN"
 "http://www.w3.org/Graphics/SVG/1.1/DTD/svg11.dtd">
<!-- Generated by graphviz version 2.43.0 (0)
 -->
<!-- Title: oneDegreeRelationshipsDiagram Pages: 1 -->
<svg width="628pt" height="599pt"
 viewBox="0.00 0.00 628.00 599.00" xmlns="http://www.w3.org/2000/svg" xmlns:xlink="http://www.w3.org/1999/xlink">
<g id="graph0" class="graph" transform="scale(1 1) rotate(0) translate(4 595)">
<title>oneDegreeRelationshipsDiagram</title>
<polygon fill="#ffffff" stroke="transparent" points="-4,4 -4,-595 624,-595 624,4 -4,4"/>
<text text-anchor="middle" x="79.5" y="-7.2" font-family="Helvetica,sans-Serif" font-size="11.00">Generated by SchemaSpy</text>
<!-- tww_od.electric_equipment -->
<g id="node1" class="node">
<title>tww_od.electric_equipment</title>
<g id="a_node1"><a xlink:href="../../../tww_od/tables/electric_equipment.html" xlink:title="tww_od.electric_equipment" target="_top">
<polygon fill="#ffffff" stroke="transparent" points="366,-505 366,-585 612,-585 612,-505 366,-505"/>
<polygon fill="#f5f5f5" stroke="transparent" points="366,-563 366,-585 612,-585 612,-563 366,-563"/>
<polygon fill="none" stroke="black" points="366,-563 366,-585 612,-585 612,-563 366,-563"/>
<text text-anchor="start" x="371" y="-572.2" font-family="Helvetica,sans-Serif" font-weight="bold" font-size="11.00">tww_od.electric_equipment</text>
<text text-anchor="start" x="570" y="-571.2" font-family="Helvetica,sans-Serif" font-size="11.00">[table]</text>
<polygon fill="none" stroke="black" points="366,-541 366,-563 612,-563 612,-541 366,-541"/>
<image xlink:href="../../images/foreignKeys.png" width="11px" height="12px" preserveAspectRatio="xMinYMin meet" x="371" y="-558"/>
<text text-anchor="start" x="423" y="-549.2" font-family="Helvetica,sans-Serif" font-size="11.00">kind</text>
<polygon fill="none" stroke="black" points="366,-523 366,-541 612,-541 612,-523 366,-523"/>
<text text-anchor="start" x="369" y="-529.2" font-family="Helvetica,sans-Serif" font-size="11.00">...</text>
<polygon fill="#ffffff" stroke="transparent" points="366,-505 366,-523 612,-523 612,-505 366,-505"/>
<polygon fill="none" stroke="black" points="366,-505 366,-523 612,-523 612,-505 366,-505"/>
<polygon fill="#ffffff" stroke="transparent" points="367,-506 367,-522 447,-522 447,-506 367,-506"/>
<text text-anchor="start" x="369" y="-511.2" font-family="Helvetica,sans-Serif" font-size="11.00">&lt; 1</text>
<polygon fill="#ffffff" stroke="transparent" points="447,-506 447,-522 544,-522 544,-506 447,-506"/>
<text text-anchor="start" x="477" y="-511.2" font-family="Helvetica,sans-Serif" font-size="11.00">0 rows</text>
<polygon fill="#ffffff" stroke="transparent" points="544,-506 544,-522 611,-522 611,-506 544,-506"/>
<text text-anchor="start" x="601" y="-511.2" font-family="Helvetica,sans-Serif" font-size="11.00"> &#160;</text>
<polygon fill="black" stroke="black" points="447,-506 447,-522 447,-522 447,-506 447,-506"/>
<polygon fill="black" stroke="black" points="544,-506 544,-522 544,-522 544,-506 544,-506"/>
</a>
</g>
</g>
<!-- electric_equipment_kind -->
<g id="node2" class="node">
<title>electric_equipment_kind</title>
<g id="a_node2"><a xlink:href="../../tables/electric_equipment_kind.html" xlink:title="electric_equipment_kind" target="_top">
<polygon fill="#ffffff" stroke="transparent" points="8,-37 8,-587 317,-587 317,-37 8,-37"/>
<polygon fill="#f5f5f5" stroke="transparent" points="10.5,-563 10.5,-585 315.5,-585 315.5,-563 10.5,-563"/>
<polygon fill="none" stroke="black" points="10.5,-563 10.5,-585 315.5,-585 315.5,-563 10.5,-563"/>
<text text-anchor="start" x="15.5" y="-572.2" font-family="Helvetica,sans-Serif" font-weight="bold" font-size="11.00">electric_equipment_kind</text>
<text text-anchor="start" x="273.5" y="-571.2" font-family="Helvetica,sans-Serif" font-size="11.00">[table]</text>
<polygon fill="none" stroke="black" points="10.5,-541 10.5,-563 209.5,-563 209.5,-541 10.5,-541"/>
<image xlink:href="../../images/primaryKeys.png" width="11px" height="12px" preserveAspectRatio="xMinYMin meet" x="15.5" y="-558"/>
<text text-anchor="start" x="30.5" y="-549.2" font-family="Helvetica,sans-Serif" font-size="11.00">code</text>
<polygon fill="none" stroke="black" points="209.5,-541 209.5,-563 315.5,-563 315.5,-541 209.5,-541"/>
<text text-anchor="start" x="212.5" y="-549.2" font-family="Helvetica,sans-Serif" font-size="11.00">int4[10]</text>
<polygon fill="none" stroke="black" points="10.5,-519 10.5,-541 209.5,-541 209.5,-519 10.5,-519"/>
<text text-anchor="start" x="30.5" y="-527.2" font-family="Helvetica,sans-Serif" font-size="11.00">vsacode</text>
<polygon fill="none" stroke="black" points="209.5,-519 209.5,-541 315.5,-541 315.5,-519 209.5,-519"/>
<text text-anchor="start" x="212.5" y="-527.2" font-family="Helvetica,sans-Serif" font-size="11.00">int4[10]</text>
<polygon fill="none" stroke="black" points="10.5,-497 10.5,-519 209.5,-519 209.5,-497 10.5,-497"/>
<text text-anchor="start" x="30.5" y="-505.2" font-family="Helvetica,sans-Serif" font-size="11.00">value_en</text>
<polygon fill="none" stroke="black" points="209.5,-497 209.5,-519 315.5,-519 315.5,-497 209.5,-497"/>
<text text-anchor="start" x="212.5" y="-505.2" font-family="Helvetica,sans-Serif" font-size="11.00">varchar[100]</text>
<polygon fill="none" stroke="black" points="10.5,-475 10.5,-497 209.5,-497 209.5,-475 10.5,-475"/>
<text text-anchor="start" x="30.5" y="-483.2" font-family="Helvetica,sans-Serif" font-size="11.00">value_de</text>
<polygon fill="none" stroke="black" points="209.5,-475 209.5,-497 315.5,-497 315.5,-475 209.5,-475"/>
<text text-anchor="start" x="212.5" y="-483.2" font-family="Helvetica,sans-Serif" font-size="11.00">varchar[100]</text>
<polygon fill="none" stroke="black" points="10.5,-453 10.5,-475 209.5,-475 209.5,-453 10.5,-453"/>
<text text-anchor="start" x="30.5" y="-461.2" font-family="Helvetica,sans-Serif" font-size="11.00">value_fr</text>
<polygon fill="none" stroke="black" points="209.5,-453 209.5,-475 315.5,-475 315.5,-453 209.5,-453"/>
<text text-anchor="start" x="212.5" y="-461.2" font-family="Helvetica,sans-Serif" font-size="11.00">varchar[100]</text>
<polygon fill="none" stroke="black" points="10.5,-431 10.5,-453 209.5,-453 209.5,-431 10.5,-431"/>
<text text-anchor="start" x="30.5" y="-439.2" font-family="Helvetica,sans-Serif" font-size="11.00">value_it</text>
<polygon fill="none" stroke="black" points="209.5,-431 209.5,-453 315.5,-453 315.5,-431 209.5,-431"/>
<text text-anchor="start" x="212.5" y="-439.2" font-family="Helvetica,sans-Serif" font-size="11.00">varchar[100]</text>
<polygon fill="none" stroke="black" points="10.5,-409 10.5,-431 209.5,-431 209.5,-409 10.5,-409"/>
<text text-anchor="start" x="30.5" y="-417.2" font-family="Helvetica,sans-Serif" font-size="11.00">value_ro</text>
<polygon fill="none" stroke="black" points="209.5,-409 209.5,-431 315.5,-431 315.5,-409 209.5,-409"/>
<text text-anchor="start" x="212.5" y="-417.2" font-family="Helvetica,sans-Serif" font-size="11.00">varchar[100]</text>
<polygon fill="none" stroke="black" points="10.5,-387 10.5,-409 209.5,-409 209.5,-387 10.5,-387"/>
<text text-anchor="start" x="30.5" y="-395.2" font-family="Helvetica,sans-Serif" font-size="11.00">abbr_en</text>
<polygon fill="none" stroke="black" points="209.5,-387 209.5,-409 315.5,-409 315.5,-387 209.5,-387"/>
<text text-anchor="start" x="212.5" y="-395.2" font-family="Helvetica,sans-Serif" font-size="11.00">varchar[3]</text>
<polygon fill="none" stroke="black" points="10.5,-365 10.5,-387 209.5,-387 209.5,-365 10.5,-365"/>
<text text-anchor="start" x="30.5" y="-373.2" font-family="Helvetica,sans-Serif" font-size="11.00">abbr_de</text>
<polygon fill="none" stroke="black" points="209.5,-365 209.5,-387 315.5,-387 315.5,-365 209.5,-365"/>
<text text-anchor="start" x="212.5" y="-373.2" font-family="Helvetica,sans-Serif" font-size="11.00">varchar[3]</text>
<polygon fill="none" stroke="black" points="10.5,-343 10.5,-365 209.5,-365 209.5,-343 10.5,-343"/>
<text text-anchor="start" x="30.5" y="-351.2" font-family="Helvetica,sans-Serif" font-size="11.00">abbr_fr</text>
<polygon fill="none" stroke="black" points="209.5,-343 209.5,-365 315.5,-365 315.5,-343 209.5,-343"/>
<text text-anchor="start" x="212.5" y="-351.2" font-family="Helvetica,sans-Serif" font-size="11.00">varchar[3]</text>
<polygon fill="none" stroke="black" points="10.5,-321 10.5,-343 209.5,-343 209.5,-321 10.5,-321"/>
<text text-anchor="start" x="30.5" y="-329.2" font-family="Helvetica,sans-Serif" font-size="11.00">abbr_it</text>
<polygon fill="none" stroke="black" points="209.5,-321 209.5,-343 315.5,-343 315.5,-321 209.5,-321"/>
<text text-anchor="start" x="212.5" y="-329.2" font-family="Helvetica,sans-Serif" font-size="11.00">varchar[3]</text>
<polygon fill="none" stroke="black" points="10.5,-299 10.5,-321 209.5,-321 209.5,-299 10.5,-299"/>
<text text-anchor="start" x="30.5" y="-307.2" font-family="Helvetica,sans-Serif" font-size="11.00">abbr_ro</text>
<polygon fill="none" stroke="black" points="209.5,-299 209.5,-321 315.5,-321 315.5,-299 209.5,-299"/>
<text text-anchor="start" x="212.5" y="-307.2" font-family="Helvetica,sans-Serif" font-size="11.00">varchar[3]</text>
<polygon fill="none" stroke="black" points="10.5,-277 10.5,-299 209.5,-299 209.5,-277 10.5,-277"/>
<text text-anchor="start" x="30.5" y="-285.2" font-family="Helvetica,sans-Serif" font-size="11.00">active</text>
<polygon fill="none" stroke="black" points="209.5,-277 209.5,-299 315.5,-299 315.5,-277 209.5,-277"/>
<text text-anchor="start" x="212.5" y="-285.2" font-family="Helvetica,sans-Serif" font-size="11.00">bool[1]</text>
<polygon fill="none" stroke="black" points="10.5,-255 10.5,-277 209.5,-277 209.5,-255 10.5,-255"/>
<text text-anchor="start" x="30.5" y="-263.2" font-family="Helvetica,sans-Serif" font-size="11.00">description_en</text>
<polygon fill="none" stroke="black" points="209.5,-255 209.5,-277 315.5,-277 315.5,-255 209.5,-255"/>
<text text-anchor="start" x="212.5" y="-263.2" font-family="Helvetica,sans-Serif" font-size="11.00">text[2147483647]</text>
<polygon fill="none" stroke="black" points="10.5,-233 10.5,-255 209.5,-255 209.5,-233 10.5,-233"/>
<text text-anchor="start" x="30.5" y="-241.2" font-family="Helvetica,sans-Serif" font-size="11.00">description_de</text>
<polygon fill="none" stroke="black" points="209.5,-233 209.5,-255 315.5,-255 315.5,-233 209.5,-233"/>
<text text-anchor="start" x="212.5" y="-241.2" font-family="Helvetica,sans-Serif" font-size="11.00">text[2147483647]</text>
<polygon fill="none" stroke="black" points="10.5,-211 10.5,-233 209.5,-233 209.5,-211 10.5,-211"/>
<text text-anchor="start" x="30.5" y="-219.2" font-family="Helvetica,sans-Serif" font-size="11.00">description_fr</text>
<polygon fill="none" stroke="black" points="209.5,-211 209.5,-233 315.5,-233 315.5,-211 209.5,-211"/>
<text text-anchor="start" x="212.5" y="-219.2" font-family="Helvetica,sans-Serif" font-size="11.00">text[2147483647]</text>
<polygon fill="none" stroke="black" points="10.5,-189 10.5,-211 209.5,-211 209.5,-189 10.5,-189"/>
<text text-anchor="start" x="30.5" y="-197.2" font-family="Helvetica,sans-Serif" font-size="11.00">description_it</text>
<polygon fill="none" stroke="black" points="209.5,-189 209.5,-211 315.5,-211 315.5,-189 209.5,-189"/>
<text text-anchor="start" x="212.5" y="-197.2" font-family="Helvetica,sans-Serif" font-size="11.00">text[2147483647]</text>
<polygon fill="none" stroke="black" points="10.5,-167 10.5,-189 209.5,-189 209.5,-167 10.5,-167"/>
<text text-anchor="start" x="30.5" y="-175.2" font-family="Helvetica,sans-Serif" font-size="11.00">description_ro</text>
<polygon fill="none" stroke="black" points="209.5,-167 209.5,-189 315.5,-189 315.5,-167 209.5,-167"/>
<text text-anchor="start" x="212.5" y="-175.2" font-family="Helvetica,sans-Serif" font-size="11.00">text[2147483647]</text>
<polygon fill="none" stroke="black" points="10.5,-145 10.5,-167 209.5,-167 209.5,-145 10.5,-145"/>
<text text-anchor="start" x="30.5" y="-153.2" font-family="Helvetica,sans-Serif" font-size="11.00">display_en</text>
<polygon fill="none" stroke="black" points="209.5,-145 209.5,-167 315.5,-167 315.5,-145 209.5,-145"/>
<text text-anchor="start" x="212.5" y="-153.2" font-family="Helvetica,sans-Serif" font-size="11.00">varchar[100]</text>
<polygon fill="none" stroke="black" points="10.5,-123 10.5,-145 209.5,-145 209.5,-123 10.5,-123"/>
<text text-anchor="start" x="30.5" y="-131.2" font-family="Helvetica,sans-Serif" font-size="11.00">display_de</text>
<polygon fill="none" stroke="black" points="209.5,-123 209.5,-145 315.5,-145 315.5,-123 209.5,-123"/>
<text text-anchor="start" x="212.5" y="-131.2" font-family="Helvetica,sans-Serif" font-size="11.00">varchar[100]</text>
<polygon fill="none" stroke="black" points="10.5,-101 10.5,-123 209.5,-123 209.5,-101 10.5,-101"/>
<text text-anchor="start" x="30.5" y="-109.2" font-family="Helvetica,sans-Serif" font-size="11.00">display_fr</text>
<polygon fill="none" stroke="black" points="209.5,-101 209.5,-123 315.5,-123 315.5,-101 209.5,-101"/>
<text text-anchor="start" x="212.5" y="-109.2" font-family="Helvetica,sans-Serif" font-size="11.00">varchar[100]</text>
<polygon fill="none" stroke="black" points="10.5,-79 10.5,-101 209.5,-101 209.5,-79 10.5,-79"/>
<text text-anchor="start" x="30.5" y="-87.2" font-family="Helvetica,sans-Serif" font-size="11.00">display_it</text>
<polygon fill="none" stroke="black" points="209.5,-79 209.5,-101 315.5,-101 315.5,-79 209.5,-79"/>
<text text-anchor="start" x="212.5" y="-87.2" font-family="Helvetica,sans-Serif" font-size="11.00">varchar[100]</text>
<polygon fill="none" stroke="black" points="10.5,-57 10.5,-79 209.5,-79 209.5,-57 10.5,-57"/>
<text text-anchor="start" x="30.5" y="-65.2" font-family="Helvetica,sans-Serif" font-size="11.00">display_ro</text>
<polygon fill="none" stroke="black" points="209.5,-57 209.5,-79 315.5,-79 315.5,-57 209.5,-57"/>
<text text-anchor="start" x="212.5" y="-65.2" font-family="Helvetica,sans-Serif" font-size="11.00">varchar[100]</text>
<polygon fill="#ffffff" stroke="transparent" points="10.5,-39 10.5,-57 315.5,-57 315.5,-39 10.5,-39"/>
<polygon fill="none" stroke="black" points="10.5,-39 10.5,-57 315.5,-57 315.5,-39 10.5,-39"/>
<polygon fill="#ffffff" stroke="transparent" points="11.5,-40 11.5,-56 116.5,-56 116.5,-40 11.5,-40"/>
<text text-anchor="start" x="13.5" y="-45.2" font-family="Helvetica,sans-Serif" font-size="11.00">&lt; 0</text>
<polygon fill="#ffffff" stroke="transparent" points="116.5,-40 116.5,-56 209.5,-56 209.5,-40 116.5,-40"/>
<text text-anchor="start" x="159" y="-45.2" font-family="Helvetica,sans-Serif" font-size="11.00"> &#160;</text>
<polygon fill="#ffffff" stroke="transparent" points="209.5,-40 209.5,-56 314.5,-56 314.5,-40 209.5,-40"/>
<text text-anchor="start" x="292.5" y="-45.2" font-family="Helvetica,sans-Serif" font-size="11.00">1 &gt;</text>
<polygon fill="black" stroke="black" points="116.5,-40 116.5,-56 116.5,-56 116.5,-40 116.5,-40"/>
<polygon fill="black" stroke="black" points="209.5,-40 209.5,-56 209.5,-56 209.5,-40 209.5,-40"/>
<polygon fill="none" stroke="black" stroke-width="2" points="9,-38 9,-586 316,-586 316,-38 9,-38"/>
</a>
</g>
</g>
<!-- tww_od.electric_equipment&#45;&gt;electric_equipment_kind -->
<g id="edge1" class="edge">
<title>tww_od.electric_equipment:w&#45;&gt;electric_equipment_kind:e</title>
<path fill="none" stroke="black" d="M350.28,-552C339.29,-552 332.16,-552 316.5,-552"/>
<polygon fill="black" stroke="black" points="357,-552 365,-555.6 361,-552 365,-552 365,-552 365,-552 361,-552 365,-548.4 357,-552 357,-552"/>
<ellipse fill="none" stroke="black" cx="353.8" cy="-552" rx="3.2" ry="3.2"/>
</g>
</g>
</svg>
