<?xml version="1.0" encoding="UTF-8" standalone="no"?>
<!DOCTYPE svg PUBLIC "-//W3C//DTD SVG 1.1//EN"
 "http://www.w3.org/Graphics/SVG/1.1/DTD/svg11.dtd">
<!-- Generated by graphviz version 2.43.0 (0)
 -->
<!-- Title: oneDegreeRelationshipsDiagram Pages: 1 -->
<svg width="386pt" height="399pt"
 viewBox="0.00 0.00 386.00 399.00" xmlns="http://www.w3.org/2000/svg" xmlns:xlink="http://www.w3.org/1999/xlink">
<g id="graph0" class="graph" transform="scale(1 1) rotate(0) translate(4 395)">
<title>oneDegreeRelationshipsDiagram</title>
<polygon fill="#ffffff" stroke="transparent" points="-4,4 -4,-395 382,-395 382,4 -4,4"/>
<text text-anchor="middle" x="79.5" y="-7.2" font-family="Helvetica,sans-Serif" font-size="11.00">Generated by SchemaSpy</text>
<!-- tww_od.file -->
<g id="node1" class="node">
<title>tww_od.file</title>
<g id="a_node1"><a xlink:href="../../../tww_od/tables/file.html" xlink:title="tww_od.file" target="_top">
<polygon fill="#ffffff" stroke="transparent" points="224,-285 224,-387 370,-387 370,-285 224,-285"/>
<polygon fill="#f5f5f5" stroke="transparent" points="224,-365 224,-387 370,-387 370,-365 224,-365"/>
<polygon fill="none" stroke="black" points="224,-365 224,-387 370,-387 370,-365 224,-365"/>
<text text-anchor="start" x="229" y="-374.2" font-family="Helvetica,sans-Serif" font-weight="bold" font-size="11.00">tww_od.file</text>
<text text-anchor="start" x="328" y="-373.2" font-family="Helvetica,sans-Serif" font-size="11.00">[table]</text>
<polygon fill="none" stroke="black" points="224,-343 224,-365 370,-365 370,-343 224,-343"/>
<image xlink:href="../../images/foreignKeys.png" width="11px" height="12px" preserveAspectRatio="xMinYMin meet" x="229" y="-360"/>
<text text-anchor="start" x="244" y="-351.2" font-family="Helvetica,sans-Serif" font-size="11.00">classname</text>
<polygon fill="none" stroke="black" points="224,-321 224,-343 370,-343 370,-321 224,-321"/>
<image xlink:href="../../images/foreignKeys.png" width="11px" height="12px" preserveAspectRatio="xMinYMin meet" x="229" y="-338"/>
<text text-anchor="start" x="244" y="-329.2" font-family="Helvetica,sans-Serif" font-size="11.00">kind</text>
<polygon fill="none" stroke="black" points="224,-303 224,-321 370,-321 370,-303 224,-303"/>
<text text-anchor="start" x="227" y="-309.2" font-family="Helvetica,sans-Serif" font-size="11.00">...</text>
<polygon fill="#ffffff" stroke="transparent" points="224,-285 224,-303 370,-303 370,-285 224,-285"/>
<polygon fill="none" stroke="black" points="224,-285 224,-303 370,-303 370,-285 224,-285"/>
<polygon fill="#ffffff" stroke="transparent" points="225,-286 225,-302 272,-302 272,-286 225,-286"/>
<text text-anchor="start" x="227" y="-291.2" font-family="Helvetica,sans-Serif" font-size="11.00">&lt; 2</text>
<polygon fill="#ffffff" stroke="transparent" points="272,-286 272,-302 335,-302 335,-286 272,-286"/>
<text text-anchor="start" x="285" y="-291.2" font-family="Helvetica,sans-Serif" font-size="11.00">0 rows</text>
<polygon fill="#ffffff" stroke="transparent" points="335,-286 335,-302 369,-302 369,-286 335,-286"/>
<text text-anchor="start" x="359" y="-291.2" font-family="Helvetica,sans-Serif" font-size="11.00"> &#160;</text>
<polygon fill="black" stroke="black" points="272,-286 272,-302 272,-302 272,-286 272,-286"/>
<polygon fill="black" stroke="black" points="335,-286 335,-302 335,-302 335,-286 335,-286"/>
</a>
</g>
</g>
<!-- file_kind -->
<g id="node2" class="node">
<title>file_kind</title>
<g id="a_node2"><a xlink:href="../../tables/file_kind.html" xlink:title="file_kind" target="_top">
<polygon fill="#ffffff" stroke="transparent" points="8,-37 8,-367 175,-367 175,-37 8,-37"/>
<polygon fill="#f5f5f5" stroke="transparent" points="10.5,-343 10.5,-365 173.5,-365 173.5,-343 10.5,-343"/>
<polygon fill="none" stroke="black" points="10.5,-343 10.5,-365 173.5,-365 173.5,-343 10.5,-343"/>
<text text-anchor="start" x="15.5" y="-352.2" font-family="Helvetica,sans-Serif" font-weight="bold" font-size="11.00">file_kind</text>
<text text-anchor="start" x="131.5" y="-351.2" font-family="Helvetica,sans-Serif" font-size="11.00">[table]</text>
<polygon fill="none" stroke="black" points="10.5,-321 10.5,-343 95.5,-343 95.5,-321 10.5,-321"/>
<image xlink:href="../../images/primaryKeys.png" width="11px" height="12px" preserveAspectRatio="xMinYMin meet" x="15.5" y="-338"/>
<text text-anchor="start" x="30.5" y="-329.2" font-family="Helvetica,sans-Serif" font-size="11.00">code</text>
<polygon fill="none" stroke="black" points="95.5,-321 95.5,-343 173.5,-343 173.5,-321 95.5,-321"/>
<text text-anchor="start" x="98.5" y="-329.2" font-family="Helvetica,sans-Serif" font-size="11.00">int4[10]</text>
<polygon fill="none" stroke="black" points="10.5,-299 10.5,-321 95.5,-321 95.5,-299 10.5,-299"/>
<text text-anchor="start" x="30.5" y="-307.2" font-family="Helvetica,sans-Serif" font-size="11.00">vsacode</text>
<polygon fill="none" stroke="black" points="95.5,-299 95.5,-321 173.5,-321 173.5,-299 95.5,-299"/>
<text text-anchor="start" x="98.5" y="-307.2" font-family="Helvetica,sans-Serif" font-size="11.00">int4[10]</text>
<polygon fill="none" stroke="black" points="10.5,-277 10.5,-299 95.5,-299 95.5,-277 10.5,-277"/>
<text text-anchor="start" x="30.5" y="-285.2" font-family="Helvetica,sans-Serif" font-size="11.00">value_en</text>
<polygon fill="none" stroke="black" points="95.5,-277 95.5,-299 173.5,-299 173.5,-277 95.5,-277"/>
<text text-anchor="start" x="98.5" y="-285.2" font-family="Helvetica,sans-Serif" font-size="11.00">varchar[100]</text>
<polygon fill="none" stroke="black" points="10.5,-255 10.5,-277 95.5,-277 95.5,-255 10.5,-255"/>
<text text-anchor="start" x="30.5" y="-263.2" font-family="Helvetica,sans-Serif" font-size="11.00">value_de</text>
<polygon fill="none" stroke="black" points="95.5,-255 95.5,-277 173.5,-277 173.5,-255 95.5,-255"/>
<text text-anchor="start" x="98.5" y="-263.2" font-family="Helvetica,sans-Serif" font-size="11.00">varchar[100]</text>
<polygon fill="none" stroke="black" points="10.5,-233 10.5,-255 95.5,-255 95.5,-233 10.5,-233"/>
<text text-anchor="start" x="30.5" y="-241.2" font-family="Helvetica,sans-Serif" font-size="11.00">value_fr</text>
<polygon fill="none" stroke="black" points="95.5,-233 95.5,-255 173.5,-255 173.5,-233 95.5,-233"/>
<text text-anchor="start" x="98.5" y="-241.2" font-family="Helvetica,sans-Serif" font-size="11.00">varchar[100]</text>
<polygon fill="none" stroke="black" points="10.5,-211 10.5,-233 95.5,-233 95.5,-211 10.5,-211"/>
<text text-anchor="start" x="30.5" y="-219.2" font-family="Helvetica,sans-Serif" font-size="11.00">value_it</text>
<polygon fill="none" stroke="black" points="95.5,-211 95.5,-233 173.5,-233 173.5,-211 95.5,-211"/>
<text text-anchor="start" x="98.5" y="-219.2" font-family="Helvetica,sans-Serif" font-size="11.00">varchar[100]</text>
<polygon fill="none" stroke="black" points="10.5,-189 10.5,-211 95.5,-211 95.5,-189 10.5,-189"/>
<text text-anchor="start" x="30.5" y="-197.2" font-family="Helvetica,sans-Serif" font-size="11.00">value_ro</text>
<polygon fill="none" stroke="black" points="95.5,-189 95.5,-211 173.5,-211 173.5,-189 95.5,-189"/>
<text text-anchor="start" x="98.5" y="-197.2" font-family="Helvetica,sans-Serif" font-size="11.00">varchar[100]</text>
<polygon fill="none" stroke="black" points="10.5,-167 10.5,-189 95.5,-189 95.5,-167 10.5,-167"/>
<text text-anchor="start" x="30.5" y="-175.2" font-family="Helvetica,sans-Serif" font-size="11.00">abbr_en</text>
<polygon fill="none" stroke="black" points="95.5,-167 95.5,-189 173.5,-189 173.5,-167 95.5,-167"/>
<text text-anchor="start" x="98.5" y="-175.2" font-family="Helvetica,sans-Serif" font-size="11.00">varchar[3]</text>
<polygon fill="none" stroke="black" points="10.5,-145 10.5,-167 95.5,-167 95.5,-145 10.5,-145"/>
<text text-anchor="start" x="30.5" y="-153.2" font-family="Helvetica,sans-Serif" font-size="11.00">abbr_de</text>
<polygon fill="none" stroke="black" points="95.5,-145 95.5,-167 173.5,-167 173.5,-145 95.5,-145"/>
<text text-anchor="start" x="98.5" y="-153.2" font-family="Helvetica,sans-Serif" font-size="11.00">varchar[3]</text>
<polygon fill="none" stroke="black" points="10.5,-123 10.5,-145 95.5,-145 95.5,-123 10.5,-123"/>
<text text-anchor="start" x="30.5" y="-131.2" font-family="Helvetica,sans-Serif" font-size="11.00">abbr_fr</text>
<polygon fill="none" stroke="black" points="95.5,-123 95.5,-145 173.5,-145 173.5,-123 95.5,-123"/>
<text text-anchor="start" x="98.5" y="-131.2" font-family="Helvetica,sans-Serif" font-size="11.00">varchar[3]</text>
<polygon fill="none" stroke="black" points="10.5,-101 10.5,-123 95.5,-123 95.5,-101 10.5,-101"/>
<text text-anchor="start" x="30.5" y="-109.2" font-family="Helvetica,sans-Serif" font-size="11.00">abbr_it</text>
<polygon fill="none" stroke="black" points="95.5,-101 95.5,-123 173.5,-123 173.5,-101 95.5,-101"/>
<text text-anchor="start" x="98.5" y="-109.2" font-family="Helvetica,sans-Serif" font-size="11.00">varchar[3]</text>
<polygon fill="none" stroke="black" points="10.5,-79 10.5,-101 95.5,-101 95.5,-79 10.5,-79"/>
<text text-anchor="start" x="30.5" y="-87.2" font-family="Helvetica,sans-Serif" font-size="11.00">abbr_ro</text>
<polygon fill="none" stroke="black" points="95.5,-79 95.5,-101 173.5,-101 173.5,-79 95.5,-79"/>
<text text-anchor="start" x="98.5" y="-87.2" font-family="Helvetica,sans-Serif" font-size="11.00">varchar[3]</text>
<polygon fill="none" stroke="black" points="10.5,-57 10.5,-79 95.5,-79 95.5,-57 10.5,-57"/>
<text text-anchor="start" x="30.5" y="-65.2" font-family="Helvetica,sans-Serif" font-size="11.00">active</text>
<polygon fill="none" stroke="black" points="95.5,-57 95.5,-79 173.5,-79 173.5,-57 95.5,-57"/>
<text text-anchor="start" x="98.5" y="-65.2" font-family="Helvetica,sans-Serif" font-size="11.00">bool[1]</text>
<polygon fill="#ffffff" stroke="transparent" points="10.5,-39 10.5,-57 173.5,-57 173.5,-39 10.5,-39"/>
<polygon fill="none" stroke="black" points="10.5,-39 10.5,-57 173.5,-57 173.5,-39 10.5,-39"/>
<polygon fill="#ffffff" stroke="transparent" points="11.5,-40 11.5,-56 69.5,-56 69.5,-40 11.5,-40"/>
<text text-anchor="start" x="13.5" y="-45.2" font-family="Helvetica,sans-Serif" font-size="11.00">&lt; 0</text>
<polygon fill="#ffffff" stroke="transparent" points="69.5,-40 69.5,-56 115.5,-56 115.5,-40 69.5,-40"/>
<text text-anchor="start" x="88.5" y="-45.2" font-family="Helvetica,sans-Serif" font-size="11.00"> &#160;</text>
<polygon fill="#ffffff" stroke="transparent" points="115.5,-40 115.5,-56 172.5,-56 172.5,-40 115.5,-40"/>
<text text-anchor="start" x="150.5" y="-45.2" font-family="Helvetica,sans-Serif" font-size="11.00">1 &gt;</text>
<polygon fill="black" stroke="black" points="69.5,-40 69.5,-56 69.5,-56 69.5,-40 69.5,-40"/>
<polygon fill="black" stroke="black" points="115.5,-40 115.5,-56 115.5,-56 115.5,-40 115.5,-40"/>
<polygon fill="none" stroke="black" stroke-width="2" points="9,-38 9,-366 174,-366 174,-38 9,-38"/>
</a>
</g>
</g>
<!-- tww_od.file&#45;&gt;file_kind -->
<g id="edge1" class="edge">
<title>tww_od.file:w&#45;&gt;file_kind:e</title>
<path fill="none" stroke="black" d="M208.28,-332C197.29,-332 190.16,-332 174.5,-332"/>
<polygon fill="black" stroke="black" points="215,-332 223,-335.6 219,-332 223,-332 223,-332 223,-332 219,-332 223,-328.4 215,-332 215,-332"/>
<ellipse fill="none" stroke="black" cx="211.8" cy="-332" rx="3.2" ry="3.2"/>
</g>
</g>
</svg>
