<?xml version="1.0" encoding="UTF-8" standalone="no"?>
<!DOCTYPE svg PUBLIC "-//W3C//DTD SVG 1.1//EN"
 "http://www.w3.org/Graphics/SVG/1.1/DTD/svg11.dtd">
<!-- Generated by graphviz version 2.47.1 (20210515.0534)
 -->
<!-- Title: oneDegreeRelationshipsDiagram Pages: 1 -->
<svg width="345pt" height="379pt"
 viewBox="0.00 0.00 345.00 379.00" xmlns="http://www.w3.org/2000/svg" xmlns:xlink="http://www.w3.org/1999/xlink">
<g id="graph0" class="graph" transform="scale(1 1) rotate(0) translate(4 375)">
<title>oneDegreeRelationshipsDiagram</title>
<polygon fill="#ffffff" stroke="transparent" points="-4,4 -4,-375 341,-375 341,4 -4,4"/>
<text text-anchor="middle" x="73.5" y="-7.2" font-family="Helvetica,sans-Serif" font-size="11.00">Generated by SchemaSpy</text>
<!-- tww_od.file -->
<g id="node1" class="node">
<title>tww_od.file</title>
<g id="a_node1"><a xlink:href="../../../tww_od/tables/file.html" xlink:title="tww_od.file" target="_top">
<polygon fill="#ffffff" stroke="transparent" points="205,-263 205,-365 329,-365 329,-263 205,-263"/>
<polygon fill="#f5f5f5" stroke="transparent" points="205,-343 205,-365 329,-365 329,-343 205,-343"/>
<polygon fill="none" stroke="black" points="205,-343 205,-365 329,-365 329,-343 205,-343"/>
<text text-anchor="start" x="210" y="-352.2" font-family="Helvetica,sans-Serif" font-weight="bold" font-size="11.00">tww_od.file</text>
<text text-anchor="start" x="290" y="-351.2" font-family="Helvetica,sans-Serif" font-size="11.00">[table]</text>
<polygon fill="none" stroke="black" points="205,-321 205,-343 329,-343 329,-321 205,-321"/>
<image xlink:href="../../images/foreignKeys.png" width="11px" height="12px" preserveAspectRatio="xMinYMin meet" x="210" y="-338"/>
<text text-anchor="start" x="225" y="-329.2" font-family="Helvetica,sans-Serif" font-size="11.00">class</text>
<polygon fill="none" stroke="black" points="205,-299 205,-321 329,-321 329,-299 205,-299"/>
<image xlink:href="../../images/foreignKeys.png" width="11px" height="12px" preserveAspectRatio="xMinYMin meet" x="210" y="-316"/>
<text text-anchor="start" x="225" y="-307.2" font-family="Helvetica,sans-Serif" font-size="11.00">kind</text>
<polygon fill="none" stroke="black" points="205,-281 205,-299 329,-299 329,-281 205,-281"/>
<text text-anchor="start" x="208" y="-287.2" font-family="Helvetica,sans-Serif" font-size="11.00">...</text>
<polygon fill="#ffffff" stroke="transparent" points="205,-263 205,-281 251,-281 251,-263 205,-263"/>
<polygon fill="none" stroke="black" points="205,-263 205,-281 251,-281 251,-263 205,-263"/>
<text text-anchor="start" x="208" y="-269.2" font-family="Helvetica,sans-Serif" font-size="11.00">&lt; 2</text>
<polygon fill="#ffffff" stroke="transparent" points="251,-263 251,-281 303,-281 303,-263 251,-263"/>
<polygon fill="none" stroke="black" points="251,-263 251,-281 303,-281 303,-263 251,-263"/>
<text text-anchor="start" x="266" y="-269.2" font-family="Helvetica,sans-Serif" font-size="11.00">0 rows</text>
<polygon fill="#ffffff" stroke="transparent" points="303,-263 303,-281 329,-281 329,-263 303,-263"/>
<polygon fill="none" stroke="black" points="303,-263 303,-281 329,-281 329,-263 303,-263"/>
<text text-anchor="start" x="319" y="-269.2" font-family="Helvetica,sans-Serif" font-size="11.00"> &#160;</text>
</a>
</g>
</g>
<!-- file_class -->
<g id="node2" class="node">
<title>file_class</title>
<g id="a_node2"><a xlink:href="../../tables/file_class.html" xlink:title="file_class" target="_top">
<polygon fill="#ffffff" stroke="transparent" points="8,-37 8,-367 156,-367 156,-37 8,-37"/>
<polygon fill="#f5f5f5" stroke="transparent" points="10,-343 10,-365 154,-365 154,-343 10,-343"/>
<polygon fill="none" stroke="black" points="10,-343 10,-365 154,-365 154,-343 10,-343"/>
<text text-anchor="start" x="15" y="-352.2" font-family="Helvetica,sans-Serif" font-weight="bold" font-size="11.00">file_class</text>
<text text-anchor="start" x="115" y="-351.2" font-family="Helvetica,sans-Serif" font-size="11.00">[table]</text>
<polygon fill="none" stroke="black" points="10,-321 10,-343 84,-343 84,-321 10,-321"/>
<image xlink:href="../../images/primaryKeys.png" width="11px" height="12px" preserveAspectRatio="xMinYMin meet" x="15" y="-338"/>
<text text-anchor="start" x="30" y="-329.2" font-family="Helvetica,sans-Serif" font-size="11.00">code</text>
<polygon fill="none" stroke="black" points="84,-321 84,-343 154,-343 154,-321 84,-321"/>
<text text-anchor="start" x="87" y="-329.2" font-family="Helvetica,sans-Serif" font-size="11.00">int4[10]</text>
<polygon fill="none" stroke="black" points="10,-299 10,-321 84,-321 84,-299 10,-299"/>
<text text-anchor="start" x="30" y="-307.2" font-family="Helvetica,sans-Serif" font-size="11.00">vsacode</text>
<polygon fill="none" stroke="black" points="84,-299 84,-321 154,-321 154,-299 84,-299"/>
<text text-anchor="start" x="87" y="-307.2" font-family="Helvetica,sans-Serif" font-size="11.00">int4[10]</text>
<polygon fill="none" stroke="black" points="10,-277 10,-299 84,-299 84,-277 10,-277"/>
<text text-anchor="start" x="30" y="-285.2" font-family="Helvetica,sans-Serif" font-size="11.00">value_en</text>
<polygon fill="none" stroke="black" points="84,-277 84,-299 154,-299 154,-277 84,-277"/>
<text text-anchor="start" x="87" y="-285.2" font-family="Helvetica,sans-Serif" font-size="11.00">varchar[100]</text>
<polygon fill="none" stroke="black" points="10,-255 10,-277 84,-277 84,-255 10,-255"/>
<text text-anchor="start" x="30" y="-263.2" font-family="Helvetica,sans-Serif" font-size="11.00">value_de</text>
<polygon fill="none" stroke="black" points="84,-255 84,-277 154,-277 154,-255 84,-255"/>
<text text-anchor="start" x="87" y="-263.2" font-family="Helvetica,sans-Serif" font-size="11.00">varchar[100]</text>
<polygon fill="none" stroke="black" points="10,-233 10,-255 84,-255 84,-233 10,-233"/>
<text text-anchor="start" x="30" y="-241.2" font-family="Helvetica,sans-Serif" font-size="11.00">value_fr</text>
<polygon fill="none" stroke="black" points="84,-233 84,-255 154,-255 154,-233 84,-233"/>
<text text-anchor="start" x="87" y="-241.2" font-family="Helvetica,sans-Serif" font-size="11.00">varchar[100]</text>
<polygon fill="none" stroke="black" points="10,-211 10,-233 84,-233 84,-211 10,-211"/>
<text text-anchor="start" x="30" y="-219.2" font-family="Helvetica,sans-Serif" font-size="11.00">value_it</text>
<polygon fill="none" stroke="black" points="84,-211 84,-233 154,-233 154,-211 84,-211"/>
<text text-anchor="start" x="87" y="-219.2" font-family="Helvetica,sans-Serif" font-size="11.00">varchar[100]</text>
<polygon fill="none" stroke="black" points="10,-189 10,-211 84,-211 84,-189 10,-189"/>
<text text-anchor="start" x="30" y="-197.2" font-family="Helvetica,sans-Serif" font-size="11.00">value_ro</text>
<polygon fill="none" stroke="black" points="84,-189 84,-211 154,-211 154,-189 84,-189"/>
<text text-anchor="start" x="87" y="-197.2" font-family="Helvetica,sans-Serif" font-size="11.00">varchar[100]</text>
<polygon fill="none" stroke="black" points="10,-167 10,-189 84,-189 84,-167 10,-167"/>
<text text-anchor="start" x="30" y="-175.2" font-family="Helvetica,sans-Serif" font-size="11.00">abbr_en</text>
<polygon fill="none" stroke="black" points="84,-167 84,-189 154,-189 154,-167 84,-167"/>
<text text-anchor="start" x="87" y="-175.2" font-family="Helvetica,sans-Serif" font-size="11.00">varchar[3]</text>
<polygon fill="none" stroke="black" points="10,-145 10,-167 84,-167 84,-145 10,-145"/>
<text text-anchor="start" x="30" y="-153.2" font-family="Helvetica,sans-Serif" font-size="11.00">abbr_de</text>
<polygon fill="none" stroke="black" points="84,-145 84,-167 154,-167 154,-145 84,-145"/>
<text text-anchor="start" x="87" y="-153.2" font-family="Helvetica,sans-Serif" font-size="11.00">varchar[3]</text>
<polygon fill="none" stroke="black" points="10,-123 10,-145 84,-145 84,-123 10,-123"/>
<text text-anchor="start" x="30" y="-131.2" font-family="Helvetica,sans-Serif" font-size="11.00">abbr_fr</text>
<polygon fill="none" stroke="black" points="84,-123 84,-145 154,-145 154,-123 84,-123"/>
<text text-anchor="start" x="87" y="-131.2" font-family="Helvetica,sans-Serif" font-size="11.00">varchar[3]</text>
<polygon fill="none" stroke="black" points="10,-101 10,-123 84,-123 84,-101 10,-101"/>
<text text-anchor="start" x="30" y="-109.2" font-family="Helvetica,sans-Serif" font-size="11.00">abbr_it</text>
<polygon fill="none" stroke="black" points="84,-101 84,-123 154,-123 154,-101 84,-101"/>
<text text-anchor="start" x="87" y="-109.2" font-family="Helvetica,sans-Serif" font-size="11.00">varchar[3]</text>
<polygon fill="none" stroke="black" points="10,-79 10,-101 84,-101 84,-79 10,-79"/>
<text text-anchor="start" x="30" y="-87.2" font-family="Helvetica,sans-Serif" font-size="11.00">abbr_ro</text>
<polygon fill="none" stroke="black" points="84,-79 84,-101 154,-101 154,-79 84,-79"/>
<text text-anchor="start" x="87" y="-87.2" font-family="Helvetica,sans-Serif" font-size="11.00">varchar[3]</text>
<polygon fill="none" stroke="black" points="10,-57 10,-79 84,-79 84,-57 10,-57"/>
<text text-anchor="start" x="30" y="-65.2" font-family="Helvetica,sans-Serif" font-size="11.00">active</text>
<polygon fill="none" stroke="black" points="84,-57 84,-79 154,-79 154,-57 84,-57"/>
<text text-anchor="start" x="87" y="-65.2" font-family="Helvetica,sans-Serif" font-size="11.00">bool[1]</text>
<polygon fill="#ffffff" stroke="transparent" points="10,-39 10,-57 32,-57 32,-39 10,-39"/>
<polygon fill="none" stroke="black" points="10,-39 10,-57 32,-57 32,-39 10,-39"/>
<text text-anchor="start" x="13" y="-45.2" font-family="Helvetica,sans-Serif" font-size="11.00">&lt; 0</text>
<polygon fill="#ffffff" stroke="transparent" points="32,-39 32,-57 84,-57 84,-39 32,-39"/>
<polygon fill="none" stroke="black" points="32,-39 32,-57 84,-57 84,-39 32,-39"/>
<text text-anchor="start" x="35" y="-45.2" font-family="Helvetica,sans-Serif" font-size="11.00">110 rows</text>
<polygon fill="#ffffff" stroke="transparent" points="84,-39 84,-57 154,-57 154,-39 84,-39"/>
<polygon fill="none" stroke="black" points="84,-39 84,-57 154,-57 154,-39 84,-39"/>
<text text-anchor="start" x="135" y="-45.2" font-family="Helvetica,sans-Serif" font-size="11.00">1 &gt;</text>
<polygon fill="none" stroke="black" stroke-width="2" points="9,-38 9,-366 155,-366 155,-38 9,-38"/>
</a>
</g>
</g>
<!-- tww_od.file&#45;&gt;file_class -->
<g id="edge1" class="edge">
<title>tww_od.file:w&#45;&gt;file_class:e</title>
<path fill="none" stroke="black" d="M189.49,-332C178.18,-332 170.99,-332 155,-332"/>
<polygon fill="black" stroke="black" points="196,-332 204,-335.6 200,-332 204,-332 204,-332 204,-332 200,-332 204,-328.4 196,-332 196,-332"/>
<ellipse fill="none" stroke="black" cx="192.8" cy="-332" rx="3.2" ry="3.2"/>
</g>
</g>
</svg>
