<?xml version="1.0" encoding="UTF-8" standalone="no"?>
<!DOCTYPE svg PUBLIC "-//W3C//DTD SVG 1.1//EN"
 "http://www.w3.org/Graphics/SVG/1.1/DTD/svg11.dtd">
<!-- Generated by graphviz version 2.43.0 (0)
 -->
<!-- Title: oneDegreeRelationshipsDiagram Pages: 1 -->
<svg width="572pt" height="685pt"
 viewBox="0.00 0.00 572.00 685.00" xmlns="http://www.w3.org/2000/svg" xmlns:xlink="http://www.w3.org/1999/xlink">
<g id="graph0" class="graph" transform="scale(1 1) rotate(0) translate(4 681)">
<title>oneDegreeRelationshipsDiagram</title>
<polygon fill="#ffffff" stroke="transparent" points="-4,4 -4,-681 568,-681 568,4 -4,4"/>
<text text-anchor="middle" x="79.5" y="-7.2" font-family="Helvetica,sans-Serif" font-size="11.00">Generated by SchemaSpy</text>
<!-- tww_od.manhole -->
<g id="node1" class="node">
<title>tww_od.manhole</title>
<g id="a_node1"><a xlink:href="../../../tww_od/tables/manhole.html" xlink:title="tww_od.manhole" target="_top">
<polygon fill="#ffffff" stroke="transparent" points="363,-505 363,-673 556,-673 556,-505 363,-505"/>
<polygon fill="#f5f5f5" stroke="transparent" points="363.5,-651 363.5,-673 556.5,-673 556.5,-651 363.5,-651"/>
<polygon fill="none" stroke="black" points="363.5,-651 363.5,-673 556.5,-673 556.5,-651 363.5,-651"/>
<text text-anchor="start" x="368.5" y="-660.2" font-family="Helvetica,sans-Serif" font-weight="bold" font-size="11.00">tww_od.manhole</text>
<text text-anchor="start" x="514.5" y="-659.2" font-family="Helvetica,sans-Serif" font-size="11.00">[table]</text>
<polygon fill="none" stroke="black" points="363.5,-629 363.5,-651 556.5,-651 556.5,-629 363.5,-629"/>
<image xlink:href="../../images/foreignKeys.png" width="11px" height="12px" preserveAspectRatio="xMinYMin meet" x="368.5" y="-646"/>
<text text-anchor="start" x="383.5" y="-637.2" font-family="Helvetica,sans-Serif" font-size="11.00">amphibian_exit</text>
<polygon fill="none" stroke="black" points="363.5,-607 363.5,-629 556.5,-629 556.5,-607 363.5,-607"/>
<image xlink:href="../../images/foreignKeys.png" width="11px" height="12px" preserveAspectRatio="xMinYMin meet" x="368.5" y="-624"/>
<text text-anchor="start" x="383.5" y="-615.2" font-family="Helvetica,sans-Serif" font-size="11.00">function</text>
<polygon fill="none" stroke="black" points="363.5,-585 363.5,-607 556.5,-607 556.5,-585 363.5,-585"/>
<image xlink:href="../../images/foreignKeys.png" width="11px" height="12px" preserveAspectRatio="xMinYMin meet" x="368.5" y="-602"/>
<text text-anchor="start" x="383.5" y="-593.2" font-family="Helvetica,sans-Serif" font-size="11.00">material</text>
<polygon fill="none" stroke="black" points="363.5,-563 363.5,-585 556.5,-585 556.5,-563 363.5,-563"/>
<image xlink:href="../../images/foreignKeys.png" width="11px" height="12px" preserveAspectRatio="xMinYMin meet" x="368.5" y="-580"/>
<text text-anchor="start" x="383.5" y="-571.2" font-family="Helvetica,sans-Serif" font-size="11.00">possibility_intervention</text>
<polygon fill="none" stroke="black" points="363.5,-541 363.5,-563 556.5,-563 556.5,-541 363.5,-541"/>
<image xlink:href="../../images/foreignKeys.png" width="11px" height="12px" preserveAspectRatio="xMinYMin meet" x="368.5" y="-558"/>
<text text-anchor="start" x="383.5" y="-549.2" font-family="Helvetica,sans-Serif" font-size="11.00">surface_inflow</text>
<polygon fill="none" stroke="black" points="363.5,-523 363.5,-541 556.5,-541 556.5,-523 363.5,-523"/>
<text text-anchor="start" x="366.5" y="-529.2" font-family="Helvetica,sans-Serif" font-size="11.00">...</text>
<polygon fill="#ffffff" stroke="transparent" points="363.5,-505 363.5,-523 556.5,-523 556.5,-505 363.5,-505"/>
<polygon fill="none" stroke="black" points="363.5,-505 363.5,-523 556.5,-523 556.5,-505 363.5,-505"/>
<polygon fill="#ffffff" stroke="transparent" points="364.5,-506 364.5,-522 426.5,-522 426.5,-506 364.5,-506"/>
<text text-anchor="start" x="366.5" y="-511.2" font-family="Helvetica,sans-Serif" font-size="11.00">&lt; 5</text>
<polygon fill="#ffffff" stroke="transparent" points="426.5,-506 426.5,-522 505.5,-522 505.5,-506 426.5,-506"/>
<text text-anchor="start" x="447.5" y="-511.2" font-family="Helvetica,sans-Serif" font-size="11.00">0 rows</text>
<polygon fill="#ffffff" stroke="transparent" points="505.5,-506 505.5,-522 555.5,-522 555.5,-506 505.5,-506"/>
<text text-anchor="start" x="545.5" y="-511.2" font-family="Helvetica,sans-Serif" font-size="11.00"> &#160;</text>
<polygon fill="black" stroke="black" points="426.5,-506 426.5,-522 426.5,-522 426.5,-506 426.5,-506"/>
<polygon fill="black" stroke="black" points="505.5,-506 505.5,-522 505.5,-522 505.5,-506 505.5,-506"/>
</a>
</g>
</g>
<!-- manhole_surface_inflow -->
<g id="node2" class="node">
<title>manhole_surface_inflow</title>
<g id="a_node2"><a xlink:href="../../tables/manhole_surface_inflow.html" xlink:title="manhole_surface_inflow" target="_top">
<polygon fill="#ffffff" stroke="transparent" points="8,-37 8,-587 314,-587 314,-37 8,-37"/>
<polygon fill="#f5f5f5" stroke="transparent" points="10,-563 10,-585 312,-585 312,-563 10,-563"/>
<polygon fill="none" stroke="black" points="10,-563 10,-585 312,-585 312,-563 10,-563"/>
<text text-anchor="start" x="15" y="-572.2" font-family="Helvetica,sans-Serif" font-weight="bold" font-size="11.00">manhole_surface_inflow</text>
<text text-anchor="start" x="270" y="-571.2" font-family="Helvetica,sans-Serif" font-size="11.00">[table]</text>
<polygon fill="none" stroke="black" points="10,-541 10,-563 206,-563 206,-541 10,-541"/>
<image xlink:href="../../images/primaryKeys.png" width="11px" height="12px" preserveAspectRatio="xMinYMin meet" x="15" y="-558"/>
<text text-anchor="start" x="30" y="-549.2" font-family="Helvetica,sans-Serif" font-size="11.00">code</text>
<polygon fill="none" stroke="black" points="206,-541 206,-563 312,-563 312,-541 206,-541"/>
<text text-anchor="start" x="209" y="-549.2" font-family="Helvetica,sans-Serif" font-size="11.00">int4[10]</text>
<polygon fill="none" stroke="black" points="10,-519 10,-541 206,-541 206,-519 10,-519"/>
<text text-anchor="start" x="30" y="-527.2" font-family="Helvetica,sans-Serif" font-size="11.00">vsacode</text>
<polygon fill="none" stroke="black" points="206,-519 206,-541 312,-541 312,-519 206,-519"/>
<text text-anchor="start" x="209" y="-527.2" font-family="Helvetica,sans-Serif" font-size="11.00">int4[10]</text>
<polygon fill="none" stroke="black" points="10,-497 10,-519 206,-519 206,-497 10,-497"/>
<text text-anchor="start" x="30" y="-505.2" font-family="Helvetica,sans-Serif" font-size="11.00">value_en</text>
<polygon fill="none" stroke="black" points="206,-497 206,-519 312,-519 312,-497 206,-497"/>
<text text-anchor="start" x="209" y="-505.2" font-family="Helvetica,sans-Serif" font-size="11.00">varchar[100]</text>
<polygon fill="none" stroke="black" points="10,-475 10,-497 206,-497 206,-475 10,-475"/>
<text text-anchor="start" x="30" y="-483.2" font-family="Helvetica,sans-Serif" font-size="11.00">value_de</text>
<polygon fill="none" stroke="black" points="206,-475 206,-497 312,-497 312,-475 206,-475"/>
<text text-anchor="start" x="209" y="-483.2" font-family="Helvetica,sans-Serif" font-size="11.00">varchar[100]</text>
<polygon fill="none" stroke="black" points="10,-453 10,-475 206,-475 206,-453 10,-453"/>
<text text-anchor="start" x="30" y="-461.2" font-family="Helvetica,sans-Serif" font-size="11.00">value_fr</text>
<polygon fill="none" stroke="black" points="206,-453 206,-475 312,-475 312,-453 206,-453"/>
<text text-anchor="start" x="209" y="-461.2" font-family="Helvetica,sans-Serif" font-size="11.00">varchar[100]</text>
<polygon fill="none" stroke="black" points="10,-431 10,-453 206,-453 206,-431 10,-431"/>
<text text-anchor="start" x="30" y="-439.2" font-family="Helvetica,sans-Serif" font-size="11.00">value_it</text>
<polygon fill="none" stroke="black" points="206,-431 206,-453 312,-453 312,-431 206,-431"/>
<text text-anchor="start" x="209" y="-439.2" font-family="Helvetica,sans-Serif" font-size="11.00">varchar[100]</text>
<polygon fill="none" stroke="black" points="10,-409 10,-431 206,-431 206,-409 10,-409"/>
<text text-anchor="start" x="30" y="-417.2" font-family="Helvetica,sans-Serif" font-size="11.00">value_ro</text>
<polygon fill="none" stroke="black" points="206,-409 206,-431 312,-431 312,-409 206,-409"/>
<text text-anchor="start" x="209" y="-417.2" font-family="Helvetica,sans-Serif" font-size="11.00">varchar[100]</text>
<polygon fill="none" stroke="black" points="10,-387 10,-409 206,-409 206,-387 10,-387"/>
<text text-anchor="start" x="30" y="-395.2" font-family="Helvetica,sans-Serif" font-size="11.00">abbr_en</text>
<polygon fill="none" stroke="black" points="206,-387 206,-409 312,-409 312,-387 206,-387"/>
<text text-anchor="start" x="209" y="-395.2" font-family="Helvetica,sans-Serif" font-size="11.00">varchar[3]</text>
<polygon fill="none" stroke="black" points="10,-365 10,-387 206,-387 206,-365 10,-365"/>
<text text-anchor="start" x="30" y="-373.2" font-family="Helvetica,sans-Serif" font-size="11.00">abbr_de</text>
<polygon fill="none" stroke="black" points="206,-365 206,-387 312,-387 312,-365 206,-365"/>
<text text-anchor="start" x="209" y="-373.2" font-family="Helvetica,sans-Serif" font-size="11.00">varchar[3]</text>
<polygon fill="none" stroke="black" points="10,-343 10,-365 206,-365 206,-343 10,-343"/>
<text text-anchor="start" x="30" y="-351.2" font-family="Helvetica,sans-Serif" font-size="11.00">abbr_fr</text>
<polygon fill="none" stroke="black" points="206,-343 206,-365 312,-365 312,-343 206,-343"/>
<text text-anchor="start" x="209" y="-351.2" font-family="Helvetica,sans-Serif" font-size="11.00">varchar[3]</text>
<polygon fill="none" stroke="black" points="10,-321 10,-343 206,-343 206,-321 10,-321"/>
<text text-anchor="start" x="30" y="-329.2" font-family="Helvetica,sans-Serif" font-size="11.00">abbr_it</text>
<polygon fill="none" stroke="black" points="206,-321 206,-343 312,-343 312,-321 206,-321"/>
<text text-anchor="start" x="209" y="-329.2" font-family="Helvetica,sans-Serif" font-size="11.00">varchar[3]</text>
<polygon fill="none" stroke="black" points="10,-299 10,-321 206,-321 206,-299 10,-299"/>
<text text-anchor="start" x="30" y="-307.2" font-family="Helvetica,sans-Serif" font-size="11.00">abbr_ro</text>
<polygon fill="none" stroke="black" points="206,-299 206,-321 312,-321 312,-299 206,-299"/>
<text text-anchor="start" x="209" y="-307.2" font-family="Helvetica,sans-Serif" font-size="11.00">varchar[3]</text>
<polygon fill="none" stroke="black" points="10,-277 10,-299 206,-299 206,-277 10,-277"/>
<text text-anchor="start" x="30" y="-285.2" font-family="Helvetica,sans-Serif" font-size="11.00">active</text>
<polygon fill="none" stroke="black" points="206,-277 206,-299 312,-299 312,-277 206,-277"/>
<text text-anchor="start" x="209" y="-285.2" font-family="Helvetica,sans-Serif" font-size="11.00">bool[1]</text>
<polygon fill="none" stroke="black" points="10,-255 10,-277 206,-277 206,-255 10,-255"/>
<text text-anchor="start" x="30" y="-263.2" font-family="Helvetica,sans-Serif" font-size="11.00">description_en</text>
<polygon fill="none" stroke="black" points="206,-255 206,-277 312,-277 312,-255 206,-255"/>
<text text-anchor="start" x="209" y="-263.2" font-family="Helvetica,sans-Serif" font-size="11.00">text[2147483647]</text>
<polygon fill="none" stroke="black" points="10,-233 10,-255 206,-255 206,-233 10,-233"/>
<text text-anchor="start" x="30" y="-241.2" font-family="Helvetica,sans-Serif" font-size="11.00">description_de</text>
<polygon fill="none" stroke="black" points="206,-233 206,-255 312,-255 312,-233 206,-233"/>
<text text-anchor="start" x="209" y="-241.2" font-family="Helvetica,sans-Serif" font-size="11.00">text[2147483647]</text>
<polygon fill="none" stroke="black" points="10,-211 10,-233 206,-233 206,-211 10,-211"/>
<text text-anchor="start" x="30" y="-219.2" font-family="Helvetica,sans-Serif" font-size="11.00">description_fr</text>
<polygon fill="none" stroke="black" points="206,-211 206,-233 312,-233 312,-211 206,-211"/>
<text text-anchor="start" x="209" y="-219.2" font-family="Helvetica,sans-Serif" font-size="11.00">text[2147483647]</text>
<polygon fill="none" stroke="black" points="10,-189 10,-211 206,-211 206,-189 10,-189"/>
<text text-anchor="start" x="30" y="-197.2" font-family="Helvetica,sans-Serif" font-size="11.00">description_it</text>
<polygon fill="none" stroke="black" points="206,-189 206,-211 312,-211 312,-189 206,-189"/>
<text text-anchor="start" x="209" y="-197.2" font-family="Helvetica,sans-Serif" font-size="11.00">text[2147483647]</text>
<polygon fill="none" stroke="black" points="10,-167 10,-189 206,-189 206,-167 10,-167"/>
<text text-anchor="start" x="30" y="-175.2" font-family="Helvetica,sans-Serif" font-size="11.00">description_ro</text>
<polygon fill="none" stroke="black" points="206,-167 206,-189 312,-189 312,-167 206,-167"/>
<text text-anchor="start" x="209" y="-175.2" font-family="Helvetica,sans-Serif" font-size="11.00">text[2147483647]</text>
<polygon fill="none" stroke="black" points="10,-145 10,-167 206,-167 206,-145 10,-145"/>
<text text-anchor="start" x="30" y="-153.2" font-family="Helvetica,sans-Serif" font-size="11.00">display_en</text>
<polygon fill="none" stroke="black" points="206,-145 206,-167 312,-167 312,-145 206,-145"/>
<text text-anchor="start" x="209" y="-153.2" font-family="Helvetica,sans-Serif" font-size="11.00">varchar[100]</text>
<polygon fill="none" stroke="black" points="10,-123 10,-145 206,-145 206,-123 10,-123"/>
<text text-anchor="start" x="30" y="-131.2" font-family="Helvetica,sans-Serif" font-size="11.00">display_de</text>
<polygon fill="none" stroke="black" points="206,-123 206,-145 312,-145 312,-123 206,-123"/>
<text text-anchor="start" x="209" y="-131.2" font-family="Helvetica,sans-Serif" font-size="11.00">varchar[100]</text>
<polygon fill="none" stroke="black" points="10,-101 10,-123 206,-123 206,-101 10,-101"/>
<text text-anchor="start" x="30" y="-109.2" font-family="Helvetica,sans-Serif" font-size="11.00">display_fr</text>
<polygon fill="none" stroke="black" points="206,-101 206,-123 312,-123 312,-101 206,-101"/>
<text text-anchor="start" x="209" y="-109.2" font-family="Helvetica,sans-Serif" font-size="11.00">varchar[100]</text>
<polygon fill="none" stroke="black" points="10,-79 10,-101 206,-101 206,-79 10,-79"/>
<text text-anchor="start" x="30" y="-87.2" font-family="Helvetica,sans-Serif" font-size="11.00">display_it</text>
<polygon fill="none" stroke="black" points="206,-79 206,-101 312,-101 312,-79 206,-79"/>
<text text-anchor="start" x="209" y="-87.2" font-family="Helvetica,sans-Serif" font-size="11.00">varchar[100]</text>
<polygon fill="none" stroke="black" points="10,-57 10,-79 206,-79 206,-57 10,-57"/>
<text text-anchor="start" x="30" y="-65.2" font-family="Helvetica,sans-Serif" font-size="11.00">display_ro</text>
<polygon fill="none" stroke="black" points="206,-57 206,-79 312,-79 312,-57 206,-57"/>
<text text-anchor="start" x="209" y="-65.2" font-family="Helvetica,sans-Serif" font-size="11.00">varchar[100]</text>
<polygon fill="#ffffff" stroke="transparent" points="10,-39 10,-57 312,-57 312,-39 10,-39"/>
<polygon fill="none" stroke="black" points="10,-39 10,-57 312,-57 312,-39 10,-39"/>
<polygon fill="#ffffff" stroke="transparent" points="11,-40 11,-56 115,-56 115,-40 11,-40"/>
<text text-anchor="start" x="13" y="-45.2" font-family="Helvetica,sans-Serif" font-size="11.00">&lt; 0</text>
<polygon fill="#ffffff" stroke="transparent" points="115,-40 115,-56 207,-56 207,-40 115,-40"/>
<text text-anchor="start" x="157" y="-45.2" font-family="Helvetica,sans-Serif" font-size="11.00"> &#160;</text>
<polygon fill="#ffffff" stroke="transparent" points="207,-40 207,-56 311,-56 311,-40 207,-40"/>
<text text-anchor="start" x="289" y="-45.2" font-family="Helvetica,sans-Serif" font-size="11.00">1 &gt;</text>
<polygon fill="black" stroke="black" points="115,-40 115,-56 115,-56 115,-40 115,-40"/>
<polygon fill="black" stroke="black" points="207,-40 207,-56 207,-56 207,-40 207,-40"/>
<polygon fill="none" stroke="black" stroke-width="2" points="9,-38 9,-586 313,-586 313,-38 9,-38"/>
</a>
</g>
</g>
<!-- tww_od.manhole&#45;&gt;manhole_surface_inflow -->
<g id="edge1" class="edge">
<title>tww_od.manhole:w&#45;&gt;manhole_surface_inflow:e</title>
<path fill="none" stroke="black" d="M347.84,-552C336.41,-552 329.16,-552 313,-552"/>
<polygon fill="black" stroke="black" points="354.5,-552 362.5,-555.6 358.5,-552 362.5,-552 362.5,-552 362.5,-552 358.5,-552 362.5,-548.4 354.5,-552 354.5,-552"/>
<ellipse fill="none" stroke="black" cx="351.3" cy="-552" rx="3.2" ry="3.2"/>
</g>
</g>
</svg>
