<?xml version="1.0" encoding="UTF-8" standalone="no"?>
<!DOCTYPE svg PUBLIC "-//W3C//DTD SVG 1.1//EN"
 "http://www.w3.org/Graphics/SVG/1.1/DTD/svg11.dtd">
<!-- Generated by graphviz version 2.43.0 (0)
 -->
<!-- Title: oneDegreeRelationshipsDiagram Pages: 1 -->
<svg width="566pt" height="641pt"
 viewBox="0.00 0.00 566.00 641.00" xmlns="http://www.w3.org/2000/svg" xmlns:xlink="http://www.w3.org/1999/xlink">
<g id="graph0" class="graph" transform="scale(1 1) rotate(0) translate(4 637)">
<title>oneDegreeRelationshipsDiagram</title>
<polygon fill="#ffffff" stroke="transparent" points="-4,4 -4,-637 562,-637 562,4 -4,4"/>
<text text-anchor="middle" x="79.5" y="-7.2" font-family="Helvetica,sans-Serif" font-size="11.00">Generated by SchemaSpy</text>
<!-- tww_od.measure -->
<g id="node1" class="node">
<title>tww_od.measure</title>
<g id="a_node1"><a xlink:href="../../../tww_od/tables/measure.html" xlink:title="tww_od.measure" target="_top">
<polygon fill="#ffffff" stroke="transparent" points="303,-505 303,-629 550,-629 550,-505 303,-505"/>
<polygon fill="#f5f5f5" stroke="transparent" points="303.5,-607 303.5,-629 550.5,-629 550.5,-607 303.5,-607"/>
<polygon fill="none" stroke="black" points="303.5,-607 303.5,-629 550.5,-629 550.5,-607 303.5,-607"/>
<text text-anchor="start" x="308.5" y="-616.2" font-family="Helvetica,sans-Serif" font-weight="bold" font-size="11.00">tww_od.measure</text>
<text text-anchor="start" x="508.5" y="-615.2" font-family="Helvetica,sans-Serif" font-size="11.00">[table]</text>
<polygon fill="none" stroke="black" points="303.5,-585 303.5,-607 550.5,-607 550.5,-585 303.5,-585"/>
<image xlink:href="../../images/foreignKeys.png" width="11px" height="12px" preserveAspectRatio="xMinYMin meet" x="308.5" y="-602"/>
<text text-anchor="start" x="323.5" y="-593.2" font-family="Helvetica,sans-Serif" font-size="11.00">category</text>
<polygon fill="none" stroke="black" points="303.5,-563 303.5,-585 550.5,-585 550.5,-563 303.5,-563"/>
<image xlink:href="../../images/foreignKeys.png" width="11px" height="12px" preserveAspectRatio="xMinYMin meet" x="308.5" y="-580"/>
<text text-anchor="start" x="323.5" y="-571.2" font-family="Helvetica,sans-Serif" font-size="11.00">priority</text>
<polygon fill="none" stroke="black" points="303.5,-541 303.5,-563 550.5,-563 550.5,-541 303.5,-541"/>
<image xlink:href="../../images/foreignKeys.png" width="11px" height="12px" preserveAspectRatio="xMinYMin meet" x="308.5" y="-558"/>
<text text-anchor="start" x="323.5" y="-549.2" font-family="Helvetica,sans-Serif" font-size="11.00">status</text>
<polygon fill="none" stroke="black" points="303.5,-523 303.5,-541 550.5,-541 550.5,-523 303.5,-523"/>
<text text-anchor="start" x="306.5" y="-529.2" font-family="Helvetica,sans-Serif" font-size="11.00">...</text>
<polygon fill="#ffffff" stroke="transparent" points="303.5,-505 303.5,-523 550.5,-523 550.5,-505 303.5,-505"/>
<polygon fill="none" stroke="black" points="303.5,-505 303.5,-523 550.5,-523 550.5,-505 303.5,-505"/>
<polygon fill="#ffffff" stroke="transparent" points="304.5,-506 304.5,-522 384.5,-522 384.5,-506 304.5,-506"/>
<text text-anchor="start" x="306.5" y="-511.2" font-family="Helvetica,sans-Serif" font-size="11.00">&lt; 3</text>
<polygon fill="#ffffff" stroke="transparent" points="384.5,-506 384.5,-522 481.5,-522 481.5,-506 384.5,-506"/>
<text text-anchor="start" x="414.5" y="-511.2" font-family="Helvetica,sans-Serif" font-size="11.00">0 rows</text>
<polygon fill="#ffffff" stroke="transparent" points="481.5,-506 481.5,-522 549.5,-522 549.5,-506 481.5,-506"/>
<text text-anchor="start" x="539.5" y="-511.2" font-family="Helvetica,sans-Serif" font-size="11.00"> &#160;</text>
<polygon fill="black" stroke="black" points="384.5,-506 384.5,-522 384.5,-522 384.5,-506 384.5,-506"/>
<polygon fill="black" stroke="black" points="481.5,-506 481.5,-522 481.5,-522 481.5,-506 481.5,-506"/>
</a>
</g>
</g>
<!-- measure_status -->
<g id="node2" class="node">
<title>measure_status</title>
<g id="a_node2"><a xlink:href="../../tables/measure_status.html" xlink:title="measure_status" target="_top">
<polygon fill="#ffffff" stroke="transparent" points="8,-37 8,-587 254,-587 254,-37 8,-37"/>
<polygon fill="#f5f5f5" stroke="transparent" points="10,-563 10,-585 252,-585 252,-563 10,-563"/>
<polygon fill="none" stroke="black" points="10,-563 10,-585 252,-585 252,-563 10,-563"/>
<text text-anchor="start" x="15" y="-572.2" font-family="Helvetica,sans-Serif" font-weight="bold" font-size="11.00">measure_status</text>
<text text-anchor="start" x="210" y="-571.2" font-family="Helvetica,sans-Serif" font-size="11.00">[table]</text>
<polygon fill="none" stroke="black" points="10,-541 10,-563 146,-563 146,-541 10,-541"/>
<image xlink:href="../../images/primaryKeys.png" width="11px" height="12px" preserveAspectRatio="xMinYMin meet" x="15" y="-558"/>
<text text-anchor="start" x="30" y="-549.2" font-family="Helvetica,sans-Serif" font-size="11.00">code</text>
<polygon fill="none" stroke="black" points="146,-541 146,-563 252,-563 252,-541 146,-541"/>
<text text-anchor="start" x="149" y="-549.2" font-family="Helvetica,sans-Serif" font-size="11.00">int4[10]</text>
<polygon fill="none" stroke="black" points="10,-519 10,-541 146,-541 146,-519 10,-519"/>
<text text-anchor="start" x="30" y="-527.2" font-family="Helvetica,sans-Serif" font-size="11.00">vsacode</text>
<polygon fill="none" stroke="black" points="146,-519 146,-541 252,-541 252,-519 146,-519"/>
<text text-anchor="start" x="149" y="-527.2" font-family="Helvetica,sans-Serif" font-size="11.00">int4[10]</text>
<polygon fill="none" stroke="black" points="10,-497 10,-519 146,-519 146,-497 10,-497"/>
<text text-anchor="start" x="30" y="-505.2" font-family="Helvetica,sans-Serif" font-size="11.00">value_en</text>
<polygon fill="none" stroke="black" points="146,-497 146,-519 252,-519 252,-497 146,-497"/>
<text text-anchor="start" x="149" y="-505.2" font-family="Helvetica,sans-Serif" font-size="11.00">varchar[100]</text>
<polygon fill="none" stroke="black" points="10,-475 10,-497 146,-497 146,-475 10,-475"/>
<text text-anchor="start" x="30" y="-483.2" font-family="Helvetica,sans-Serif" font-size="11.00">value_de</text>
<polygon fill="none" stroke="black" points="146,-475 146,-497 252,-497 252,-475 146,-475"/>
<text text-anchor="start" x="149" y="-483.2" font-family="Helvetica,sans-Serif" font-size="11.00">varchar[100]</text>
<polygon fill="none" stroke="black" points="10,-453 10,-475 146,-475 146,-453 10,-453"/>
<text text-anchor="start" x="30" y="-461.2" font-family="Helvetica,sans-Serif" font-size="11.00">value_fr</text>
<polygon fill="none" stroke="black" points="146,-453 146,-475 252,-475 252,-453 146,-453"/>
<text text-anchor="start" x="149" y="-461.2" font-family="Helvetica,sans-Serif" font-size="11.00">varchar[100]</text>
<polygon fill="none" stroke="black" points="10,-431 10,-453 146,-453 146,-431 10,-431"/>
<text text-anchor="start" x="30" y="-439.2" font-family="Helvetica,sans-Serif" font-size="11.00">value_it</text>
<polygon fill="none" stroke="black" points="146,-431 146,-453 252,-453 252,-431 146,-431"/>
<text text-anchor="start" x="149" y="-439.2" font-family="Helvetica,sans-Serif" font-size="11.00">varchar[100]</text>
<polygon fill="none" stroke="black" points="10,-409 10,-431 146,-431 146,-409 10,-409"/>
<text text-anchor="start" x="30" y="-417.2" font-family="Helvetica,sans-Serif" font-size="11.00">value_ro</text>
<polygon fill="none" stroke="black" points="146,-409 146,-431 252,-431 252,-409 146,-409"/>
<text text-anchor="start" x="149" y="-417.2" font-family="Helvetica,sans-Serif" font-size="11.00">varchar[100]</text>
<polygon fill="none" stroke="black" points="10,-387 10,-409 146,-409 146,-387 10,-387"/>
<text text-anchor="start" x="30" y="-395.2" font-family="Helvetica,sans-Serif" font-size="11.00">abbr_en</text>
<polygon fill="none" stroke="black" points="146,-387 146,-409 252,-409 252,-387 146,-387"/>
<text text-anchor="start" x="149" y="-395.2" font-family="Helvetica,sans-Serif" font-size="11.00">varchar[3]</text>
<polygon fill="none" stroke="black" points="10,-365 10,-387 146,-387 146,-365 10,-365"/>
<text text-anchor="start" x="30" y="-373.2" font-family="Helvetica,sans-Serif" font-size="11.00">abbr_de</text>
<polygon fill="none" stroke="black" points="146,-365 146,-387 252,-387 252,-365 146,-365"/>
<text text-anchor="start" x="149" y="-373.2" font-family="Helvetica,sans-Serif" font-size="11.00">varchar[3]</text>
<polygon fill="none" stroke="black" points="10,-343 10,-365 146,-365 146,-343 10,-343"/>
<text text-anchor="start" x="30" y="-351.2" font-family="Helvetica,sans-Serif" font-size="11.00">abbr_fr</text>
<polygon fill="none" stroke="black" points="146,-343 146,-365 252,-365 252,-343 146,-343"/>
<text text-anchor="start" x="149" y="-351.2" font-family="Helvetica,sans-Serif" font-size="11.00">varchar[3]</text>
<polygon fill="none" stroke="black" points="10,-321 10,-343 146,-343 146,-321 10,-321"/>
<text text-anchor="start" x="30" y="-329.2" font-family="Helvetica,sans-Serif" font-size="11.00">abbr_it</text>
<polygon fill="none" stroke="black" points="146,-321 146,-343 252,-343 252,-321 146,-321"/>
<text text-anchor="start" x="149" y="-329.2" font-family="Helvetica,sans-Serif" font-size="11.00">varchar[3]</text>
<polygon fill="none" stroke="black" points="10,-299 10,-321 146,-321 146,-299 10,-299"/>
<text text-anchor="start" x="30" y="-307.2" font-family="Helvetica,sans-Serif" font-size="11.00">abbr_ro</text>
<polygon fill="none" stroke="black" points="146,-299 146,-321 252,-321 252,-299 146,-299"/>
<text text-anchor="start" x="149" y="-307.2" font-family="Helvetica,sans-Serif" font-size="11.00">varchar[3]</text>
<polygon fill="none" stroke="black" points="10,-277 10,-299 146,-299 146,-277 10,-277"/>
<text text-anchor="start" x="30" y="-285.2" font-family="Helvetica,sans-Serif" font-size="11.00">active</text>
<polygon fill="none" stroke="black" points="146,-277 146,-299 252,-299 252,-277 146,-277"/>
<text text-anchor="start" x="149" y="-285.2" font-family="Helvetica,sans-Serif" font-size="11.00">bool[1]</text>
<polygon fill="none" stroke="black" points="10,-255 10,-277 146,-277 146,-255 10,-255"/>
<text text-anchor="start" x="30" y="-263.2" font-family="Helvetica,sans-Serif" font-size="11.00">description_en</text>
<polygon fill="none" stroke="black" points="146,-255 146,-277 252,-277 252,-255 146,-255"/>
<text text-anchor="start" x="149" y="-263.2" font-family="Helvetica,sans-Serif" font-size="11.00">text[2147483647]</text>
<polygon fill="none" stroke="black" points="10,-233 10,-255 146,-255 146,-233 10,-233"/>
<text text-anchor="start" x="30" y="-241.2" font-family="Helvetica,sans-Serif" font-size="11.00">description_de</text>
<polygon fill="none" stroke="black" points="146,-233 146,-255 252,-255 252,-233 146,-233"/>
<text text-anchor="start" x="149" y="-241.2" font-family="Helvetica,sans-Serif" font-size="11.00">text[2147483647]</text>
<polygon fill="none" stroke="black" points="10,-211 10,-233 146,-233 146,-211 10,-211"/>
<text text-anchor="start" x="30" y="-219.2" font-family="Helvetica,sans-Serif" font-size="11.00">description_fr</text>
<polygon fill="none" stroke="black" points="146,-211 146,-233 252,-233 252,-211 146,-211"/>
<text text-anchor="start" x="149" y="-219.2" font-family="Helvetica,sans-Serif" font-size="11.00">text[2147483647]</text>
<polygon fill="none" stroke="black" points="10,-189 10,-211 146,-211 146,-189 10,-189"/>
<text text-anchor="start" x="30" y="-197.2" font-family="Helvetica,sans-Serif" font-size="11.00">description_it</text>
<polygon fill="none" stroke="black" points="146,-189 146,-211 252,-211 252,-189 146,-189"/>
<text text-anchor="start" x="149" y="-197.2" font-family="Helvetica,sans-Serif" font-size="11.00">text[2147483647]</text>
<polygon fill="none" stroke="black" points="10,-167 10,-189 146,-189 146,-167 10,-167"/>
<text text-anchor="start" x="30" y="-175.2" font-family="Helvetica,sans-Serif" font-size="11.00">description_ro</text>
<polygon fill="none" stroke="black" points="146,-167 146,-189 252,-189 252,-167 146,-167"/>
<text text-anchor="start" x="149" y="-175.2" font-family="Helvetica,sans-Serif" font-size="11.00">text[2147483647]</text>
<polygon fill="none" stroke="black" points="10,-145 10,-167 146,-167 146,-145 10,-145"/>
<text text-anchor="start" x="30" y="-153.2" font-family="Helvetica,sans-Serif" font-size="11.00">display_en</text>
<polygon fill="none" stroke="black" points="146,-145 146,-167 252,-167 252,-145 146,-145"/>
<text text-anchor="start" x="149" y="-153.2" font-family="Helvetica,sans-Serif" font-size="11.00">varchar[100]</text>
<polygon fill="none" stroke="black" points="10,-123 10,-145 146,-145 146,-123 10,-123"/>
<text text-anchor="start" x="30" y="-131.2" font-family="Helvetica,sans-Serif" font-size="11.00">display_de</text>
<polygon fill="none" stroke="black" points="146,-123 146,-145 252,-145 252,-123 146,-123"/>
<text text-anchor="start" x="149" y="-131.2" font-family="Helvetica,sans-Serif" font-size="11.00">varchar[100]</text>
<polygon fill="none" stroke="black" points="10,-101 10,-123 146,-123 146,-101 10,-101"/>
<text text-anchor="start" x="30" y="-109.2" font-family="Helvetica,sans-Serif" font-size="11.00">display_fr</text>
<polygon fill="none" stroke="black" points="146,-101 146,-123 252,-123 252,-101 146,-101"/>
<text text-anchor="start" x="149" y="-109.2" font-family="Helvetica,sans-Serif" font-size="11.00">varchar[100]</text>
<polygon fill="none" stroke="black" points="10,-79 10,-101 146,-101 146,-79 10,-79"/>
<text text-anchor="start" x="30" y="-87.2" font-family="Helvetica,sans-Serif" font-size="11.00">display_it</text>
<polygon fill="none" stroke="black" points="146,-79 146,-101 252,-101 252,-79 146,-79"/>
<text text-anchor="start" x="149" y="-87.2" font-family="Helvetica,sans-Serif" font-size="11.00">varchar[100]</text>
<polygon fill="none" stroke="black" points="10,-57 10,-79 146,-79 146,-57 10,-57"/>
<text text-anchor="start" x="30" y="-65.2" font-family="Helvetica,sans-Serif" font-size="11.00">display_ro</text>
<polygon fill="none" stroke="black" points="146,-57 146,-79 252,-79 252,-57 146,-57"/>
<text text-anchor="start" x="149" y="-65.2" font-family="Helvetica,sans-Serif" font-size="11.00">varchar[100]</text>
<polygon fill="#ffffff" stroke="transparent" points="10,-39 10,-57 252,-57 252,-39 10,-39"/>
<polygon fill="none" stroke="black" points="10,-39 10,-57 252,-57 252,-39 10,-39"/>
<polygon fill="#ffffff" stroke="transparent" points="11,-40 11,-56 95,-56 95,-40 11,-40"/>
<text text-anchor="start" x="13" y="-45.2" font-family="Helvetica,sans-Serif" font-size="11.00">&lt; 0</text>
<polygon fill="#ffffff" stroke="transparent" points="95,-40 95,-56 167,-56 167,-40 95,-40"/>
<text text-anchor="start" x="127" y="-45.2" font-family="Helvetica,sans-Serif" font-size="11.00"> &#160;</text>
<polygon fill="#ffffff" stroke="transparent" points="167,-40 167,-56 251,-56 251,-40 167,-40"/>
<text text-anchor="start" x="229" y="-45.2" font-family="Helvetica,sans-Serif" font-size="11.00">1 &gt;</text>
<polygon fill="black" stroke="black" points="95,-40 95,-56 95,-56 95,-40 95,-40"/>
<polygon fill="black" stroke="black" points="167,-40 167,-56 167,-56 167,-40 167,-40"/>
<polygon fill="none" stroke="black" stroke-width="2" points="9,-38 9,-586 253,-586 253,-38 9,-38"/>
</a>
</g>
</g>
<!-- tww_od.measure&#45;&gt;measure_status -->
<g id="edge1" class="edge">
<title>tww_od.measure:w&#45;&gt;measure_status:e</title>
<path fill="none" stroke="black" d="M287.84,-552C276.41,-552 269.16,-552 253,-552"/>
<polygon fill="black" stroke="black" points="294.5,-552 302.5,-555.6 298.5,-552 302.5,-552 302.5,-552 302.5,-552 298.5,-552 302.5,-548.4 294.5,-552 294.5,-552"/>
<ellipse fill="none" stroke="black" cx="291.3" cy="-552" rx="3.2" ry="3.2"/>
</g>
</g>
</svg>
