<?xml version="1.0" encoding="UTF-8" standalone="no"?>
<!DOCTYPE svg PUBLIC "-//W3C//DTD SVG 1.1//EN"
 "http://www.w3.org/Graphics/SVG/1.1/DTD/svg11.dtd">
<!-- Generated by graphviz version 2.47.1 (20210515.0534)
 -->
<!-- Title: oneDegreeRelationshipsDiagram Pages: 1 -->
<svg width="469pt" height="421pt"
 viewBox="0.00 0.00 469.00 421.00" xmlns="http://www.w3.org/2000/svg" xmlns:xlink="http://www.w3.org/1999/xlink">
<g id="graph0" class="graph" transform="scale(1 1) rotate(0) translate(4 417)">
<title>oneDegreeRelationshipsDiagram</title>
<polygon fill="#ffffff" stroke="transparent" points="-4,4 -4,-417 465,-417 465,4 -4,4"/>
<text text-anchor="middle" x="73.5" y="-7.2" font-family="Helvetica,sans-Serif" font-size="11.00">Generated by SchemaSpy</text>
<!-- tww_od.measure -->
<g id="node1" class="node">
<title>tww_od.measure</title>
<g id="a_node1"><a xlink:href="../../../tww_od/tables/measure.html" xlink:title="tww_od.measure" target="_top">
<polygon fill="#ffffff" stroke="transparent" points="246,-285 246,-409 453,-409 453,-285 246,-285"/>
<polygon fill="#f5f5f5" stroke="transparent" points="246.5,-387 246.5,-409 453.5,-409 453.5,-387 246.5,-387"/>
<polygon fill="none" stroke="black" points="246.5,-387 246.5,-409 453.5,-409 453.5,-387 246.5,-387"/>
<text text-anchor="start" x="251.5" y="-396.2" font-family="Helvetica,sans-Serif" font-weight="bold" font-size="11.00">tww_od.measure</text>
<text text-anchor="start" x="414.5" y="-395.2" font-family="Helvetica,sans-Serif" font-size="11.00">[table]</text>
<polygon fill="none" stroke="black" points="246.5,-365 246.5,-387 453.5,-387 453.5,-365 246.5,-365"/>
<image xlink:href="../../images/foreignKeys.png" width="11px" height="12px" preserveAspectRatio="xMinYMin meet" x="251.5" y="-382"/>
<text text-anchor="start" x="266.5" y="-373.2" font-family="Helvetica,sans-Serif" font-size="11.00">category</text>
<polygon fill="none" stroke="black" points="246.5,-343 246.5,-365 453.5,-365 453.5,-343 246.5,-343"/>
<image xlink:href="../../images/foreignKeys.png" width="11px" height="12px" preserveAspectRatio="xMinYMin meet" x="251.5" y="-360"/>
<text text-anchor="start" x="266.5" y="-351.2" font-family="Helvetica,sans-Serif" font-size="11.00">priority</text>
<polygon fill="none" stroke="black" points="246.5,-321 246.5,-343 453.5,-343 453.5,-321 246.5,-321"/>
<image xlink:href="../../images/foreignKeys.png" width="11px" height="12px" preserveAspectRatio="xMinYMin meet" x="251.5" y="-338"/>
<text text-anchor="start" x="266.5" y="-329.2" font-family="Helvetica,sans-Serif" font-size="11.00">status</text>
<polygon fill="none" stroke="black" points="246.5,-303 246.5,-321 453.5,-321 453.5,-303 246.5,-303"/>
<text text-anchor="start" x="249.5" y="-309.2" font-family="Helvetica,sans-Serif" font-size="11.00">...</text>
<polygon fill="#ffffff" stroke="transparent" points="246.5,-285 246.5,-303 334.5,-303 334.5,-285 246.5,-285"/>
<polygon fill="none" stroke="black" points="246.5,-285 246.5,-303 334.5,-303 334.5,-285 246.5,-285"/>
<text text-anchor="start" x="249.5" y="-291.2" font-family="Helvetica,sans-Serif" font-size="11.00">&lt; 3</text>
<polygon fill="#ffffff" stroke="transparent" points="334.5,-285 334.5,-303 407.5,-303 407.5,-285 334.5,-285"/>
<polygon fill="none" stroke="black" points="334.5,-285 334.5,-303 407.5,-303 407.5,-285 334.5,-285"/>
<text text-anchor="start" x="370.5" y="-291.2" font-family="Helvetica,sans-Serif" font-size="11.00">0 rows</text>
<polygon fill="#ffffff" stroke="transparent" points="407.5,-285 407.5,-303 453.5,-303 453.5,-285 407.5,-285"/>
<polygon fill="none" stroke="black" points="407.5,-285 407.5,-303 453.5,-303 453.5,-285 407.5,-285"/>
<text text-anchor="start" x="443.5" y="-291.2" font-family="Helvetica,sans-Serif" font-size="11.00"> &#160;</text>
</a>
</g>
</g>
<!-- measure_status -->
<g id="node2" class="node">
<title>measure_status</title>
<g id="a_node2"><a xlink:href="../../tables/measure_status.html" xlink:title="measure_status" target="_top">
<polygon fill="#ffffff" stroke="transparent" points="8,-37 8,-367 197,-367 197,-37 8,-37"/>
<polygon fill="#f5f5f5" stroke="transparent" points="10.5,-343 10.5,-365 195.5,-365 195.5,-343 10.5,-343"/>
<polygon fill="none" stroke="black" points="10.5,-343 10.5,-365 195.5,-365 195.5,-343 10.5,-343"/>
<text text-anchor="start" x="15.5" y="-352.2" font-family="Helvetica,sans-Serif" font-weight="bold" font-size="11.00">measure_status</text>
<text text-anchor="start" x="156.5" y="-351.2" font-family="Helvetica,sans-Serif" font-size="11.00">[table]</text>
<polygon fill="none" stroke="black" points="10.5,-321 10.5,-343 125.5,-343 125.5,-321 10.5,-321"/>
<image xlink:href="../../images/primaryKeys.png" width="11px" height="12px" preserveAspectRatio="xMinYMin meet" x="15.5" y="-338"/>
<text text-anchor="start" x="30.5" y="-329.2" font-family="Helvetica,sans-Serif" font-size="11.00">code</text>
<polygon fill="none" stroke="black" points="125.5,-321 125.5,-343 195.5,-343 195.5,-321 125.5,-321"/>
<text text-anchor="start" x="128.5" y="-329.2" font-family="Helvetica,sans-Serif" font-size="11.00">int4[10]</text>
<polygon fill="none" stroke="black" points="10.5,-299 10.5,-321 125.5,-321 125.5,-299 10.5,-299"/>
<text text-anchor="start" x="30.5" y="-307.2" font-family="Helvetica,sans-Serif" font-size="11.00">vsacode</text>
<polygon fill="none" stroke="black" points="125.5,-299 125.5,-321 195.5,-321 195.5,-299 125.5,-299"/>
<text text-anchor="start" x="128.5" y="-307.2" font-family="Helvetica,sans-Serif" font-size="11.00">int4[10]</text>
<polygon fill="none" stroke="black" points="10.5,-277 10.5,-299 125.5,-299 125.5,-277 10.5,-277"/>
<text text-anchor="start" x="30.5" y="-285.2" font-family="Helvetica,sans-Serif" font-size="11.00">value_en</text>
<polygon fill="none" stroke="black" points="125.5,-277 125.5,-299 195.5,-299 195.5,-277 125.5,-277"/>
<text text-anchor="start" x="128.5" y="-285.2" font-family="Helvetica,sans-Serif" font-size="11.00">varchar[100]</text>
<polygon fill="none" stroke="black" points="10.5,-255 10.5,-277 125.5,-277 125.5,-255 10.5,-255"/>
<text text-anchor="start" x="30.5" y="-263.2" font-family="Helvetica,sans-Serif" font-size="11.00">value_de</text>
<polygon fill="none" stroke="black" points="125.5,-255 125.5,-277 195.5,-277 195.5,-255 125.5,-255"/>
<text text-anchor="start" x="128.5" y="-263.2" font-family="Helvetica,sans-Serif" font-size="11.00">varchar[100]</text>
<polygon fill="none" stroke="black" points="10.5,-233 10.5,-255 125.5,-255 125.5,-233 10.5,-233"/>
<text text-anchor="start" x="30.5" y="-241.2" font-family="Helvetica,sans-Serif" font-size="11.00">value_fr</text>
<polygon fill="none" stroke="black" points="125.5,-233 125.5,-255 195.5,-255 195.5,-233 125.5,-233"/>
<text text-anchor="start" x="128.5" y="-241.2" font-family="Helvetica,sans-Serif" font-size="11.00">varchar[100]</text>
<polygon fill="none" stroke="black" points="10.5,-211 10.5,-233 125.5,-233 125.5,-211 10.5,-211"/>
<text text-anchor="start" x="30.5" y="-219.2" font-family="Helvetica,sans-Serif" font-size="11.00">value_it</text>
<polygon fill="none" stroke="black" points="125.5,-211 125.5,-233 195.5,-233 195.5,-211 125.5,-211"/>
<text text-anchor="start" x="128.5" y="-219.2" font-family="Helvetica,sans-Serif" font-size="11.00">varchar[100]</text>
<polygon fill="none" stroke="black" points="10.5,-189 10.5,-211 125.5,-211 125.5,-189 10.5,-189"/>
<text text-anchor="start" x="30.5" y="-197.2" font-family="Helvetica,sans-Serif" font-size="11.00">value_ro</text>
<polygon fill="none" stroke="black" points="125.5,-189 125.5,-211 195.5,-211 195.5,-189 125.5,-189"/>
<text text-anchor="start" x="128.5" y="-197.2" font-family="Helvetica,sans-Serif" font-size="11.00">varchar[100]</text>
<polygon fill="none" stroke="black" points="10.5,-167 10.5,-189 125.5,-189 125.5,-167 10.5,-167"/>
<text text-anchor="start" x="30.5" y="-175.2" font-family="Helvetica,sans-Serif" font-size="11.00">abbr_en</text>
<polygon fill="none" stroke="black" points="125.5,-167 125.5,-189 195.5,-189 195.5,-167 125.5,-167"/>
<text text-anchor="start" x="128.5" y="-175.2" font-family="Helvetica,sans-Serif" font-size="11.00">varchar[3]</text>
<polygon fill="none" stroke="black" points="10.5,-145 10.5,-167 125.5,-167 125.5,-145 10.5,-145"/>
<text text-anchor="start" x="30.5" y="-153.2" font-family="Helvetica,sans-Serif" font-size="11.00">abbr_de</text>
<polygon fill="none" stroke="black" points="125.5,-145 125.5,-167 195.5,-167 195.5,-145 125.5,-145"/>
<text text-anchor="start" x="128.5" y="-153.2" font-family="Helvetica,sans-Serif" font-size="11.00">varchar[3]</text>
<polygon fill="none" stroke="black" points="10.5,-123 10.5,-145 125.5,-145 125.5,-123 10.5,-123"/>
<text text-anchor="start" x="30.5" y="-131.2" font-family="Helvetica,sans-Serif" font-size="11.00">abbr_fr</text>
<polygon fill="none" stroke="black" points="125.5,-123 125.5,-145 195.5,-145 195.5,-123 125.5,-123"/>
<text text-anchor="start" x="128.5" y="-131.2" font-family="Helvetica,sans-Serif" font-size="11.00">varchar[3]</text>
<polygon fill="none" stroke="black" points="10.5,-101 10.5,-123 125.5,-123 125.5,-101 10.5,-101"/>
<text text-anchor="start" x="30.5" y="-109.2" font-family="Helvetica,sans-Serif" font-size="11.00">abbr_it</text>
<polygon fill="none" stroke="black" points="125.5,-101 125.5,-123 195.5,-123 195.5,-101 125.5,-101"/>
<text text-anchor="start" x="128.5" y="-109.2" font-family="Helvetica,sans-Serif" font-size="11.00">varchar[3]</text>
<polygon fill="none" stroke="black" points="10.5,-79 10.5,-101 125.5,-101 125.5,-79 10.5,-79"/>
<text text-anchor="start" x="30.5" y="-87.2" font-family="Helvetica,sans-Serif" font-size="11.00">abbr_ro</text>
<polygon fill="none" stroke="black" points="125.5,-79 125.5,-101 195.5,-101 195.5,-79 125.5,-79"/>
<text text-anchor="start" x="128.5" y="-87.2" font-family="Helvetica,sans-Serif" font-size="11.00">varchar[3]</text>
<polygon fill="none" stroke="black" points="10.5,-57 10.5,-79 125.5,-79 125.5,-57 10.5,-57"/>
<text text-anchor="start" x="30.5" y="-65.2" font-family="Helvetica,sans-Serif" font-size="11.00">active</text>
<polygon fill="none" stroke="black" points="125.5,-57 125.5,-79 195.5,-79 195.5,-57 125.5,-57"/>
<text text-anchor="start" x="128.5" y="-65.2" font-family="Helvetica,sans-Serif" font-size="11.00">bool[1]</text>
<polygon fill="#ffffff" stroke="transparent" points="10.5,-39 10.5,-57 72.5,-57 72.5,-39 10.5,-39"/>
<polygon fill="none" stroke="black" points="10.5,-39 10.5,-57 72.5,-57 72.5,-39 10.5,-39"/>
<text text-anchor="start" x="13.5" y="-45.2" font-family="Helvetica,sans-Serif" font-size="11.00">&lt; 0</text>
<polygon fill="#ffffff" stroke="transparent" points="72.5,-39 72.5,-57 125.5,-57 125.5,-39 72.5,-39"/>
<polygon fill="none" stroke="black" points="72.5,-39 72.5,-57 125.5,-57 125.5,-39 72.5,-39"/>
<text text-anchor="start" x="115.5" y="-45.2" font-family="Helvetica,sans-Serif" font-size="11.00"> &#160;</text>
<polygon fill="#ffffff" stroke="transparent" points="125.5,-39 125.5,-57 195.5,-57 195.5,-39 125.5,-39"/>
<polygon fill="none" stroke="black" points="125.5,-39 125.5,-57 195.5,-57 195.5,-39 125.5,-39"/>
<text text-anchor="start" x="176.5" y="-45.2" font-family="Helvetica,sans-Serif" font-size="11.00">1 &gt;</text>
<polygon fill="none" stroke="black" stroke-width="2" points="9,-38 9,-366 196,-366 196,-38 9,-38"/>
</a>
</g>
</g>
<!-- tww_od.measure&#45;&gt;measure_status -->
<g id="edge1" class="edge">
<title>tww_od.measure:w&#45;&gt;measure_status:e</title>
<path fill="none" stroke="black" d="M230.99,-332C219.68,-332 212.49,-332 196.5,-332"/>
<polygon fill="black" stroke="black" points="237.5,-332 245.5,-335.6 241.5,-332 245.5,-332 245.5,-332 245.5,-332 241.5,-332 245.5,-328.4 237.5,-332 237.5,-332"/>
<ellipse fill="none" stroke="black" cx="234.3" cy="-332" rx="3.2" ry="3.2"/>
</g>
</g>
</svg>
