<?xml version="1.0" encoding="UTF-8" standalone="no"?>
<!DOCTYPE svg PUBLIC "-//W3C//DTD SVG 1.1//EN"
 "http://www.w3.org/Graphics/SVG/1.1/DTD/svg11.dtd">
<!-- Generated by graphviz version 2.43.0 (0)
 -->
<!-- Title: oneDegreeRelationshipsDiagram Pages: 1 -->
<svg width="583pt" height="379pt"
 viewBox="0.00 0.00 583.00 379.00" xmlns="http://www.w3.org/2000/svg" xmlns:xlink="http://www.w3.org/1999/xlink">
<g id="graph0" class="graph" transform="scale(1 1) rotate(0) translate(4 375)">
<title>oneDegreeRelationshipsDiagram</title>
<polygon fill="#ffffff" stroke="transparent" points="-4,4 -4,-375 579,-375 579,4 -4,4"/>
<text text-anchor="middle" x="79.5" y="-7.2" font-family="Helvetica,sans-Serif" font-size="11.00">Generated by SchemaSpy</text>
<!-- tww_od.measuring_device -->
<g id="node1" class="node">
<title>tww_od.measuring_device</title>
<g id="a_node1"><a xlink:href="../../../tww_od/tables/measuring_device.html" xlink:title="tww_od.measuring_device" target="_top">
<polygon fill="#ffffff" stroke="transparent" points="329,-285 329,-365 567,-365 567,-285 329,-285"/>
<polygon fill="#f5f5f5" stroke="transparent" points="329,-343 329,-365 567,-365 567,-343 329,-343"/>
<polygon fill="none" stroke="black" points="329,-343 329,-365 567,-365 567,-343 329,-343"/>
<text text-anchor="start" x="334" y="-352.2" font-family="Helvetica,sans-Serif" font-weight="bold" font-size="11.00">tww_od.measuring_device</text>
<text text-anchor="start" x="525" y="-351.2" font-family="Helvetica,sans-Serif" font-size="11.00">[table]</text>
<polygon fill="none" stroke="black" points="329,-321 329,-343 567,-343 567,-321 329,-321"/>
<image xlink:href="../../images/foreignKeys.png" width="11px" height="12px" preserveAspectRatio="xMinYMin meet" x="334" y="-338"/>
<text text-anchor="start" x="386" y="-329.2" font-family="Helvetica,sans-Serif" font-size="11.00">kind</text>
<polygon fill="none" stroke="black" points="329,-303 329,-321 567,-321 567,-303 329,-303"/>
<text text-anchor="start" x="332" y="-309.2" font-family="Helvetica,sans-Serif" font-size="11.00">...</text>
<polygon fill="#ffffff" stroke="transparent" points="329,-285 329,-303 567,-303 567,-285 329,-285"/>
<polygon fill="none" stroke="black" points="329,-285 329,-303 567,-303 567,-285 329,-285"/>
<polygon fill="#ffffff" stroke="transparent" points="330,-286 330,-302 407,-302 407,-286 330,-286"/>
<text text-anchor="start" x="332" y="-291.2" font-family="Helvetica,sans-Serif" font-size="11.00">&lt; 1</text>
<polygon fill="#ffffff" stroke="transparent" points="407,-286 407,-302 501,-302 501,-286 407,-286"/>
<text text-anchor="start" x="435.5" y="-291.2" font-family="Helvetica,sans-Serif" font-size="11.00">0 rows</text>
<polygon fill="#ffffff" stroke="transparent" points="501,-286 501,-302 566,-302 566,-286 501,-286"/>
<text text-anchor="start" x="556" y="-291.2" font-family="Helvetica,sans-Serif" font-size="11.00"> &#160;</text>
<polygon fill="black" stroke="black" points="407,-286 407,-302 407,-302 407,-286 407,-286"/>
<polygon fill="black" stroke="black" points="501,-286 501,-302 501,-302 501,-286 501,-286"/>
</a>
</g>
</g>
<!-- measuring_device_kind -->
<g id="node2" class="node">
<title>measuring_device_kind</title>
<g id="a_node2"><a xlink:href="../../tables/measuring_device_kind.html" xlink:title="measuring_device_kind" target="_top">
<polygon fill="#ffffff" stroke="transparent" points="8,-37 8,-367 280,-367 280,-37 8,-37"/>
<polygon fill="#f5f5f5" stroke="transparent" points="10,-343 10,-365 278,-365 278,-343 10,-343"/>
<polygon fill="none" stroke="black" points="10,-343 10,-365 278,-365 278,-343 10,-343"/>
<text text-anchor="start" x="15" y="-352.2" font-family="Helvetica,sans-Serif" font-weight="bold" font-size="11.00">measuring_device_kind</text>
<text text-anchor="start" x="236" y="-351.2" font-family="Helvetica,sans-Serif" font-size="11.00">[table]</text>
<polygon fill="none" stroke="black" points="10,-321 10,-343 200,-343 200,-321 10,-321"/>
<image xlink:href="../../images/primaryKeys.png" width="11px" height="12px" preserveAspectRatio="xMinYMin meet" x="15" y="-338"/>
<text text-anchor="start" x="30" y="-329.2" font-family="Helvetica,sans-Serif" font-size="11.00">code</text>
<polygon fill="none" stroke="black" points="200,-321 200,-343 278,-343 278,-321 200,-321"/>
<text text-anchor="start" x="203" y="-329.2" font-family="Helvetica,sans-Serif" font-size="11.00">int4[10]</text>
<polygon fill="none" stroke="black" points="10,-299 10,-321 200,-321 200,-299 10,-299"/>
<text text-anchor="start" x="30" y="-307.2" font-family="Helvetica,sans-Serif" font-size="11.00">vsacode</text>
<polygon fill="none" stroke="black" points="200,-299 200,-321 278,-321 278,-299 200,-299"/>
<text text-anchor="start" x="203" y="-307.2" font-family="Helvetica,sans-Serif" font-size="11.00">int4[10]</text>
<polygon fill="none" stroke="black" points="10,-277 10,-299 200,-299 200,-277 10,-277"/>
<text text-anchor="start" x="30" y="-285.2" font-family="Helvetica,sans-Serif" font-size="11.00">value_en</text>
<polygon fill="none" stroke="black" points="200,-277 200,-299 278,-299 278,-277 200,-277"/>
<text text-anchor="start" x="203" y="-285.2" font-family="Helvetica,sans-Serif" font-size="11.00">varchar[100]</text>
<polygon fill="none" stroke="black" points="10,-255 10,-277 200,-277 200,-255 10,-255"/>
<text text-anchor="start" x="30" y="-263.2" font-family="Helvetica,sans-Serif" font-size="11.00">value_de</text>
<polygon fill="none" stroke="black" points="200,-255 200,-277 278,-277 278,-255 200,-255"/>
<text text-anchor="start" x="203" y="-263.2" font-family="Helvetica,sans-Serif" font-size="11.00">varchar[100]</text>
<polygon fill="none" stroke="black" points="10,-233 10,-255 200,-255 200,-233 10,-233"/>
<text text-anchor="start" x="30" y="-241.2" font-family="Helvetica,sans-Serif" font-size="11.00">value_fr</text>
<polygon fill="none" stroke="black" points="200,-233 200,-255 278,-255 278,-233 200,-233"/>
<text text-anchor="start" x="203" y="-241.2" font-family="Helvetica,sans-Serif" font-size="11.00">varchar[100]</text>
<polygon fill="none" stroke="black" points="10,-211 10,-233 200,-233 200,-211 10,-211"/>
<text text-anchor="start" x="30" y="-219.2" font-family="Helvetica,sans-Serif" font-size="11.00">value_it</text>
<polygon fill="none" stroke="black" points="200,-211 200,-233 278,-233 278,-211 200,-211"/>
<text text-anchor="start" x="203" y="-219.2" font-family="Helvetica,sans-Serif" font-size="11.00">varchar[100]</text>
<polygon fill="none" stroke="black" points="10,-189 10,-211 200,-211 200,-189 10,-189"/>
<text text-anchor="start" x="30" y="-197.2" font-family="Helvetica,sans-Serif" font-size="11.00">value_ro</text>
<polygon fill="none" stroke="black" points="200,-189 200,-211 278,-211 278,-189 200,-189"/>
<text text-anchor="start" x="203" y="-197.2" font-family="Helvetica,sans-Serif" font-size="11.00">varchar[100]</text>
<polygon fill="none" stroke="black" points="10,-167 10,-189 200,-189 200,-167 10,-167"/>
<text text-anchor="start" x="30" y="-175.2" font-family="Helvetica,sans-Serif" font-size="11.00">abbr_en</text>
<polygon fill="none" stroke="black" points="200,-167 200,-189 278,-189 278,-167 200,-167"/>
<text text-anchor="start" x="203" y="-175.2" font-family="Helvetica,sans-Serif" font-size="11.00">varchar[3]</text>
<polygon fill="none" stroke="black" points="10,-145 10,-167 200,-167 200,-145 10,-145"/>
<text text-anchor="start" x="30" y="-153.2" font-family="Helvetica,sans-Serif" font-size="11.00">abbr_de</text>
<polygon fill="none" stroke="black" points="200,-145 200,-167 278,-167 278,-145 200,-145"/>
<text text-anchor="start" x="203" y="-153.2" font-family="Helvetica,sans-Serif" font-size="11.00">varchar[3]</text>
<polygon fill="none" stroke="black" points="10,-123 10,-145 200,-145 200,-123 10,-123"/>
<text text-anchor="start" x="30" y="-131.2" font-family="Helvetica,sans-Serif" font-size="11.00">abbr_fr</text>
<polygon fill="none" stroke="black" points="200,-123 200,-145 278,-145 278,-123 200,-123"/>
<text text-anchor="start" x="203" y="-131.2" font-family="Helvetica,sans-Serif" font-size="11.00">varchar[3]</text>
<polygon fill="none" stroke="black" points="10,-101 10,-123 200,-123 200,-101 10,-101"/>
<text text-anchor="start" x="30" y="-109.2" font-family="Helvetica,sans-Serif" font-size="11.00">abbr_it</text>
<polygon fill="none" stroke="black" points="200,-101 200,-123 278,-123 278,-101 200,-101"/>
<text text-anchor="start" x="203" y="-109.2" font-family="Helvetica,sans-Serif" font-size="11.00">varchar[3]</text>
<polygon fill="none" stroke="black" points="10,-79 10,-101 200,-101 200,-79 10,-79"/>
<text text-anchor="start" x="30" y="-87.2" font-family="Helvetica,sans-Serif" font-size="11.00">abbr_ro</text>
<polygon fill="none" stroke="black" points="200,-79 200,-101 278,-101 278,-79 200,-79"/>
<text text-anchor="start" x="203" y="-87.2" font-family="Helvetica,sans-Serif" font-size="11.00">varchar[3]</text>
<polygon fill="none" stroke="black" points="10,-57 10,-79 200,-79 200,-57 10,-57"/>
<text text-anchor="start" x="30" y="-65.2" font-family="Helvetica,sans-Serif" font-size="11.00">active</text>
<polygon fill="none" stroke="black" points="200,-57 200,-79 278,-79 278,-57 200,-57"/>
<text text-anchor="start" x="203" y="-65.2" font-family="Helvetica,sans-Serif" font-size="11.00">bool[1]</text>
<polygon fill="#ffffff" stroke="transparent" points="10,-39 10,-57 278,-57 278,-39 10,-39"/>
<polygon fill="none" stroke="black" points="10,-39 10,-57 278,-57 278,-39 10,-39"/>
<polygon fill="#ffffff" stroke="transparent" points="11,-40 11,-56 104,-56 104,-40 11,-40"/>
<text text-anchor="start" x="13" y="-45.2" font-family="Helvetica,sans-Serif" font-size="11.00">&lt; 0</text>
<polygon fill="#ffffff" stroke="transparent" points="104,-40 104,-56 185,-56 185,-40 104,-40"/>
<text text-anchor="start" x="140.5" y="-45.2" font-family="Helvetica,sans-Serif" font-size="11.00"> &#160;</text>
<polygon fill="#ffffff" stroke="transparent" points="185,-40 185,-56 277,-56 277,-40 185,-40"/>
<text text-anchor="start" x="255" y="-45.2" font-family="Helvetica,sans-Serif" font-size="11.00">1 &gt;</text>
<polygon fill="black" stroke="black" points="104,-40 104,-56 104,-56 104,-40 104,-40"/>
<polygon fill="black" stroke="black" points="185,-40 185,-56 185,-56 185,-40 185,-40"/>
<polygon fill="none" stroke="black" stroke-width="2" points="9,-38 9,-366 279,-366 279,-38 9,-38"/>
</a>
</g>
</g>
<!-- tww_od.measuring_device&#45;&gt;measuring_device_kind -->
<g id="edge1" class="edge">
<title>tww_od.measuring_device:w&#45;&gt;measuring_device_kind:e</title>
<path fill="none" stroke="black" d="M313.49,-332C302.18,-332 294.99,-332 279,-332"/>
<polygon fill="black" stroke="black" points="320,-332 328,-335.6 324,-332 328,-332 328,-332 328,-332 324,-332 328,-328.4 320,-332 320,-332"/>
<ellipse fill="none" stroke="black" cx="316.8" cy="-332" rx="3.2" ry="3.2"/>
</g>
</g>
</svg>
