<?xml version="1.0" encoding="UTF-8" standalone="no"?>
<!DOCTYPE svg PUBLIC "-//W3C//DTD SVG 1.1//EN"
 "http://www.w3.org/Graphics/SVG/1.1/DTD/svg11.dtd">
<!-- Generated by graphviz version 2.47.1 (20210515.0534)
 -->
<!-- Title: oneDegreeRelationshipsDiagram Pages: 1 -->
<svg width="438pt" height="421pt"
 viewBox="0.00 0.00 438.00 421.00" xmlns="http://www.w3.org/2000/svg" xmlns:xlink="http://www.w3.org/1999/xlink">
<g id="graph0" class="graph" transform="scale(1 1) rotate(0) translate(4 417)">
<title>oneDegreeRelationshipsDiagram</title>
<polygon fill="#ffffff" stroke="transparent" points="-4,4 -4,-417 434,-417 434,4 -4,4"/>
<text text-anchor="middle" x="73.5" y="-7.2" font-family="Helvetica,sans-Serif" font-size="11.00">Generated by SchemaSpy</text>
<!-- tww_od.reach_text -->
<g id="node1" class="node">
<title>tww_od.reach_text</title>
<g id="a_node1"><a xlink:href="../../../tww_od/tables/reach_text.html" xlink:title="tww_od.reach_text" target="_top">
<polygon fill="#ffffff" stroke="transparent" points="266,-285 266,-409 422,-409 422,-285 266,-285"/>
<polygon fill="#f5f5f5" stroke="transparent" points="266,-387 266,-409 422,-409 422,-387 266,-387"/>
<polygon fill="none" stroke="black" points="266,-387 266,-409 422,-409 422,-387 266,-387"/>
<text text-anchor="start" x="271" y="-396.2" font-family="Helvetica,sans-Serif" font-weight="bold" font-size="11.00">tww_od.reach_text</text>
<text text-anchor="start" x="383" y="-395.2" font-family="Helvetica,sans-Serif" font-size="11.00">[table]</text>
<polygon fill="none" stroke="black" points="266,-365 266,-387 422,-387 422,-365 266,-365"/>
<image xlink:href="../../images/foreignKeys.png" width="11px" height="12px" preserveAspectRatio="xMinYMin meet" x="271" y="-382"/>
<text text-anchor="start" x="300" y="-373.2" font-family="Helvetica,sans-Serif" font-size="11.00">plantype</text>
<polygon fill="none" stroke="black" points="266,-343 266,-365 422,-365 422,-343 266,-343"/>
<image xlink:href="../../images/foreignKeys.png" width="11px" height="12px" preserveAspectRatio="xMinYMin meet" x="271" y="-360"/>
<text text-anchor="start" x="300" y="-351.2" font-family="Helvetica,sans-Serif" font-size="11.00">texthali</text>
<polygon fill="none" stroke="black" points="266,-321 266,-343 422,-343 422,-321 266,-321"/>
<image xlink:href="../../images/foreignKeys.png" width="11px" height="12px" preserveAspectRatio="xMinYMin meet" x="271" y="-338"/>
<text text-anchor="start" x="300" y="-329.2" font-family="Helvetica,sans-Serif" font-size="11.00">textvali</text>
<polygon fill="none" stroke="black" points="266,-303 266,-321 422,-321 422,-303 266,-303"/>
<text text-anchor="start" x="269" y="-309.2" font-family="Helvetica,sans-Serif" font-size="11.00">...</text>
<polygon fill="#ffffff" stroke="transparent" points="266,-285 266,-303 328,-303 328,-285 266,-285"/>
<polygon fill="none" stroke="black" points="266,-285 266,-303 328,-303 328,-285 266,-285"/>
<text text-anchor="start" x="269" y="-291.2" font-family="Helvetica,sans-Serif" font-size="11.00">&lt; 3</text>
<polygon fill="#ffffff" stroke="transparent" points="328,-285 328,-303 388,-303 388,-285 328,-285"/>
<polygon fill="none" stroke="black" points="328,-285 328,-303 388,-303 388,-285 328,-285"/>
<text text-anchor="start" x="351" y="-291.2" font-family="Helvetica,sans-Serif" font-size="11.00">0 rows</text>
<polygon fill="#ffffff" stroke="transparent" points="388,-285 388,-303 422,-303 422,-285 388,-285"/>
<polygon fill="none" stroke="black" points="388,-285 388,-303 422,-303 422,-285 388,-285"/>
<text text-anchor="start" x="412" y="-291.2" font-family="Helvetica,sans-Serif" font-size="11.00"> &#160;</text>
</a>
</g>
</g>
<!-- reach_text_textvali -->
<g id="node2" class="node">
<title>reach_text_textvali</title>
<g id="a_node2"><a xlink:href="../../tables/reach_text_textvali.html" xlink:title="reach_text_textvali" target="_top">
<polygon fill="#ffffff" stroke="transparent" points="8,-37 8,-367 217,-367 217,-37 8,-37"/>
<polygon fill="#f5f5f5" stroke="transparent" points="10.5,-343 10.5,-365 215.5,-365 215.5,-343 10.5,-343"/>
<polygon fill="none" stroke="black" points="10.5,-343 10.5,-365 215.5,-365 215.5,-343 10.5,-343"/>
<text text-anchor="start" x="15.5" y="-352.2" font-family="Helvetica,sans-Serif" font-weight="bold" font-size="11.00">reach_text_textvali</text>
<text text-anchor="start" x="176.5" y="-351.2" font-family="Helvetica,sans-Serif" font-size="11.00">[table]</text>
<polygon fill="none" stroke="black" points="10.5,-321 10.5,-343 145.5,-343 145.5,-321 10.5,-321"/>
<image xlink:href="../../images/primaryKeys.png" width="11px" height="12px" preserveAspectRatio="xMinYMin meet" x="15.5" y="-338"/>
<text text-anchor="start" x="30.5" y="-329.2" font-family="Helvetica,sans-Serif" font-size="11.00">code</text>
<polygon fill="none" stroke="black" points="145.5,-321 145.5,-343 215.5,-343 215.5,-321 145.5,-321"/>
<text text-anchor="start" x="148.5" y="-329.2" font-family="Helvetica,sans-Serif" font-size="11.00">int4[10]</text>
<polygon fill="none" stroke="black" points="10.5,-299 10.5,-321 145.5,-321 145.5,-299 10.5,-299"/>
<text text-anchor="start" x="30.5" y="-307.2" font-family="Helvetica,sans-Serif" font-size="11.00">vsacode</text>
<polygon fill="none" stroke="black" points="145.5,-299 145.5,-321 215.5,-321 215.5,-299 145.5,-299"/>
<text text-anchor="start" x="148.5" y="-307.2" font-family="Helvetica,sans-Serif" font-size="11.00">int4[10]</text>
<polygon fill="none" stroke="black" points="10.5,-277 10.5,-299 145.5,-299 145.5,-277 10.5,-277"/>
<text text-anchor="start" x="30.5" y="-285.2" font-family="Helvetica,sans-Serif" font-size="11.00">value_en</text>
<polygon fill="none" stroke="black" points="145.5,-277 145.5,-299 215.5,-299 215.5,-277 145.5,-277"/>
<text text-anchor="start" x="148.5" y="-285.2" font-family="Helvetica,sans-Serif" font-size="11.00">varchar[100]</text>
<polygon fill="none" stroke="black" points="10.5,-255 10.5,-277 145.5,-277 145.5,-255 10.5,-255"/>
<text text-anchor="start" x="30.5" y="-263.2" font-family="Helvetica,sans-Serif" font-size="11.00">value_de</text>
<polygon fill="none" stroke="black" points="145.5,-255 145.5,-277 215.5,-277 215.5,-255 145.5,-255"/>
<text text-anchor="start" x="148.5" y="-263.2" font-family="Helvetica,sans-Serif" font-size="11.00">varchar[100]</text>
<polygon fill="none" stroke="black" points="10.5,-233 10.5,-255 145.5,-255 145.5,-233 10.5,-233"/>
<text text-anchor="start" x="30.5" y="-241.2" font-family="Helvetica,sans-Serif" font-size="11.00">value_fr</text>
<polygon fill="none" stroke="black" points="145.5,-233 145.5,-255 215.5,-255 215.5,-233 145.5,-233"/>
<text text-anchor="start" x="148.5" y="-241.2" font-family="Helvetica,sans-Serif" font-size="11.00">varchar[100]</text>
<polygon fill="none" stroke="black" points="10.5,-211 10.5,-233 145.5,-233 145.5,-211 10.5,-211"/>
<text text-anchor="start" x="30.5" y="-219.2" font-family="Helvetica,sans-Serif" font-size="11.00">value_it</text>
<polygon fill="none" stroke="black" points="145.5,-211 145.5,-233 215.5,-233 215.5,-211 145.5,-211"/>
<text text-anchor="start" x="148.5" y="-219.2" font-family="Helvetica,sans-Serif" font-size="11.00">varchar[100]</text>
<polygon fill="none" stroke="black" points="10.5,-189 10.5,-211 145.5,-211 145.5,-189 10.5,-189"/>
<text text-anchor="start" x="30.5" y="-197.2" font-family="Helvetica,sans-Serif" font-size="11.00">value_ro</text>
<polygon fill="none" stroke="black" points="145.5,-189 145.5,-211 215.5,-211 215.5,-189 145.5,-189"/>
<text text-anchor="start" x="148.5" y="-197.2" font-family="Helvetica,sans-Serif" font-size="11.00">varchar[100]</text>
<polygon fill="none" stroke="black" points="10.5,-167 10.5,-189 145.5,-189 145.5,-167 10.5,-167"/>
<text text-anchor="start" x="30.5" y="-175.2" font-family="Helvetica,sans-Serif" font-size="11.00">abbr_en</text>
<polygon fill="none" stroke="black" points="145.5,-167 145.5,-189 215.5,-189 215.5,-167 145.5,-167"/>
<text text-anchor="start" x="148.5" y="-175.2" font-family="Helvetica,sans-Serif" font-size="11.00">varchar[3]</text>
<polygon fill="none" stroke="black" points="10.5,-145 10.5,-167 145.5,-167 145.5,-145 10.5,-145"/>
<text text-anchor="start" x="30.5" y="-153.2" font-family="Helvetica,sans-Serif" font-size="11.00">abbr_de</text>
<polygon fill="none" stroke="black" points="145.5,-145 145.5,-167 215.5,-167 215.5,-145 145.5,-145"/>
<text text-anchor="start" x="148.5" y="-153.2" font-family="Helvetica,sans-Serif" font-size="11.00">varchar[3]</text>
<polygon fill="none" stroke="black" points="10.5,-123 10.5,-145 145.5,-145 145.5,-123 10.5,-123"/>
<text text-anchor="start" x="30.5" y="-131.2" font-family="Helvetica,sans-Serif" font-size="11.00">abbr_fr</text>
<polygon fill="none" stroke="black" points="145.5,-123 145.5,-145 215.5,-145 215.5,-123 145.5,-123"/>
<text text-anchor="start" x="148.5" y="-131.2" font-family="Helvetica,sans-Serif" font-size="11.00">varchar[3]</text>
<polygon fill="none" stroke="black" points="10.5,-101 10.5,-123 145.5,-123 145.5,-101 10.5,-101"/>
<text text-anchor="start" x="30.5" y="-109.2" font-family="Helvetica,sans-Serif" font-size="11.00">abbr_it</text>
<polygon fill="none" stroke="black" points="145.5,-101 145.5,-123 215.5,-123 215.5,-101 145.5,-101"/>
<text text-anchor="start" x="148.5" y="-109.2" font-family="Helvetica,sans-Serif" font-size="11.00">varchar[3]</text>
<polygon fill="none" stroke="black" points="10.5,-79 10.5,-101 145.5,-101 145.5,-79 10.5,-79"/>
<text text-anchor="start" x="30.5" y="-87.2" font-family="Helvetica,sans-Serif" font-size="11.00">abbr_ro</text>
<polygon fill="none" stroke="black" points="145.5,-79 145.5,-101 215.5,-101 215.5,-79 145.5,-79"/>
<text text-anchor="start" x="148.5" y="-87.2" font-family="Helvetica,sans-Serif" font-size="11.00">varchar[3]</text>
<polygon fill="none" stroke="black" points="10.5,-57 10.5,-79 145.5,-79 145.5,-57 10.5,-57"/>
<text text-anchor="start" x="30.5" y="-65.2" font-family="Helvetica,sans-Serif" font-size="11.00">active</text>
<polygon fill="none" stroke="black" points="145.5,-57 145.5,-79 215.5,-79 215.5,-57 145.5,-57"/>
<text text-anchor="start" x="148.5" y="-65.2" font-family="Helvetica,sans-Serif" font-size="11.00">bool[1]</text>
<polygon fill="#ffffff" stroke="transparent" points="10.5,-39 10.5,-57 82.5,-57 82.5,-39 10.5,-39"/>
<polygon fill="none" stroke="black" points="10.5,-39 10.5,-57 82.5,-57 82.5,-39 10.5,-39"/>
<text text-anchor="start" x="13.5" y="-45.2" font-family="Helvetica,sans-Serif" font-size="11.00">&lt; 0</text>
<polygon fill="#ffffff" stroke="transparent" points="82.5,-39 82.5,-57 145.5,-57 145.5,-39 82.5,-39"/>
<polygon fill="none" stroke="black" points="82.5,-39 82.5,-57 145.5,-57 145.5,-39 82.5,-39"/>
<text text-anchor="start" x="135.5" y="-45.2" font-family="Helvetica,sans-Serif" font-size="11.00"> &#160;</text>
<polygon fill="#ffffff" stroke="transparent" points="145.5,-39 145.5,-57 215.5,-57 215.5,-39 145.5,-39"/>
<polygon fill="none" stroke="black" points="145.5,-39 145.5,-57 215.5,-57 215.5,-39 145.5,-39"/>
<text text-anchor="start" x="196.5" y="-45.2" font-family="Helvetica,sans-Serif" font-size="11.00">1 &gt;</text>
<polygon fill="none" stroke="black" stroke-width="2" points="9,-38 9,-366 216,-366 216,-38 9,-38"/>
</a>
</g>
</g>
<!-- tww_od.reach_text&#45;&gt;reach_text_textvali -->
<g id="edge1" class="edge">
<title>tww_od.reach_text:w&#45;&gt;reach_text_textvali:e</title>
<path fill="none" stroke="black" d="M250.28,-332C239.29,-332 232.16,-332 216.5,-332"/>
<polygon fill="black" stroke="black" points="257,-332 265,-335.6 261,-332 265,-332 265,-332 265,-332 261,-332 265,-328.4 257,-332 257,-332"/>
<ellipse fill="none" stroke="black" cx="253.8" cy="-332" rx="3.2" ry="3.2"/>
</g>
</g>
</svg>
