<?xml version="1.0" encoding="UTF-8" standalone="no"?>
<!DOCTYPE svg PUBLIC "-//W3C//DTD SVG 1.1//EN"
 "http://www.w3.org/Graphics/SVG/1.1/DTD/svg11.dtd">
<!-- Generated by graphviz version 2.43.0 (0)
 -->
<!-- Title: oneDegreeRelationshipsDiagram Pages: 1 -->
<svg width="536pt" height="599pt"
 viewBox="0.00 0.00 536.00 599.00" xmlns="http://www.w3.org/2000/svg" xmlns:xlink="http://www.w3.org/1999/xlink">
<g id="graph0" class="graph" transform="scale(1 1) rotate(0) translate(4 595)">
<title>oneDegreeRelationshipsDiagram</title>
<polygon fill="#ffffff" stroke="transparent" points="-4,4 -4,-595 532,-595 532,4 -4,4"/>
<text text-anchor="middle" x="79.5" y="-7.2" font-family="Helvetica,sans-Serif" font-size="11.00">Generated by SchemaSpy</text>
<!-- tww_od.reach_text -->
<g id="node1" class="node">
<title>tww_od.reach_text</title>
<g id="a_node1"><a xlink:href="../../../tww_od/tables/reach_text.html" xlink:title="tww_od.reach_text" target="_top">
<polygon fill="#ffffff" stroke="transparent" points="336,-461 336,-585 520,-585 520,-461 336,-461"/>
<polygon fill="#f5f5f5" stroke="transparent" points="336,-563 336,-585 520,-585 520,-563 336,-563"/>
<polygon fill="none" stroke="black" points="336,-563 336,-585 520,-585 520,-563 336,-563"/>
<text text-anchor="start" x="341" y="-572.2" font-family="Helvetica,sans-Serif" font-weight="bold" font-size="11.00">tww_od.reach_text</text>
<text text-anchor="start" x="478" y="-571.2" font-family="Helvetica,sans-Serif" font-size="11.00">[table]</text>
<polygon fill="none" stroke="black" points="336,-541 336,-563 520,-563 520,-541 336,-541"/>
<image xlink:href="../../images/foreignKeys.png" width="11px" height="12px" preserveAspectRatio="xMinYMin meet" x="341" y="-558"/>
<text text-anchor="start" x="372" y="-549.2" font-family="Helvetica,sans-Serif" font-size="11.00">plantype</text>
<polygon fill="none" stroke="black" points="336,-519 336,-541 520,-541 520,-519 336,-519"/>
<image xlink:href="../../images/foreignKeys.png" width="11px" height="12px" preserveAspectRatio="xMinYMin meet" x="341" y="-536"/>
<text text-anchor="start" x="372" y="-527.2" font-family="Helvetica,sans-Serif" font-size="11.00">texthali</text>
<polygon fill="none" stroke="black" points="336,-497 336,-519 520,-519 520,-497 336,-497"/>
<image xlink:href="../../images/foreignKeys.png" width="11px" height="12px" preserveAspectRatio="xMinYMin meet" x="341" y="-514"/>
<text text-anchor="start" x="372" y="-505.2" font-family="Helvetica,sans-Serif" font-size="11.00">textvali</text>
<polygon fill="none" stroke="black" points="336,-479 336,-497 520,-497 520,-479 336,-479"/>
<text text-anchor="start" x="339" y="-485.2" font-family="Helvetica,sans-Serif" font-size="11.00">...</text>
<polygon fill="#ffffff" stroke="transparent" points="336,-461 336,-479 520,-479 520,-461 336,-461"/>
<polygon fill="none" stroke="black" points="336,-461 336,-479 520,-479 520,-461 336,-461"/>
<polygon fill="#ffffff" stroke="transparent" points="337,-462 337,-478 396,-478 396,-462 337,-462"/>
<text text-anchor="start" x="339" y="-467.2" font-family="Helvetica,sans-Serif" font-size="11.00">&lt; 3</text>
<polygon fill="#ffffff" stroke="transparent" points="396,-462 396,-478 472,-478 472,-462 396,-462"/>
<text text-anchor="start" x="415.5" y="-467.2" font-family="Helvetica,sans-Serif" font-size="11.00">0 rows</text>
<polygon fill="#ffffff" stroke="transparent" points="472,-462 472,-478 519,-478 519,-462 472,-462"/>
<text text-anchor="start" x="509" y="-467.2" font-family="Helvetica,sans-Serif" font-size="11.00"> &#160;</text>
<polygon fill="black" stroke="black" points="396,-462 396,-478 396,-478 396,-462 396,-462"/>
<polygon fill="black" stroke="black" points="472,-462 472,-478 472,-478 472,-462 472,-462"/>
</a>
</g>
</g>
<!-- reach_text_plantype -->
<g id="node2" class="node">
<title>reach_text_plantype</title>
<g id="a_node2"><a xlink:href="../../tables/reach_text_plantype.html" xlink:title="reach_text_plantype" target="_top">
<polygon fill="#ffffff" stroke="transparent" points="8,-37 8,-587 287,-587 287,-37 8,-37"/>
<polygon fill="#f5f5f5" stroke="transparent" points="10.5,-563 10.5,-585 285.5,-585 285.5,-563 10.5,-563"/>
<polygon fill="none" stroke="black" points="10.5,-563 10.5,-585 285.5,-585 285.5,-563 10.5,-563"/>
<text text-anchor="start" x="15.5" y="-572.2" font-family="Helvetica,sans-Serif" font-weight="bold" font-size="11.00">reach_text_plantype</text>
<text text-anchor="start" x="243.5" y="-571.2" font-family="Helvetica,sans-Serif" font-size="11.00">[table]</text>
<polygon fill="none" stroke="black" points="10.5,-541 10.5,-563 179.5,-563 179.5,-541 10.5,-541"/>
<image xlink:href="../../images/primaryKeys.png" width="11px" height="12px" preserveAspectRatio="xMinYMin meet" x="15.5" y="-558"/>
<text text-anchor="start" x="30.5" y="-549.2" font-family="Helvetica,sans-Serif" font-size="11.00">code</text>
<polygon fill="none" stroke="black" points="179.5,-541 179.5,-563 285.5,-563 285.5,-541 179.5,-541"/>
<text text-anchor="start" x="182.5" y="-549.2" font-family="Helvetica,sans-Serif" font-size="11.00">int4[10]</text>
<polygon fill="none" stroke="black" points="10.5,-519 10.5,-541 179.5,-541 179.5,-519 10.5,-519"/>
<text text-anchor="start" x="30.5" y="-527.2" font-family="Helvetica,sans-Serif" font-size="11.00">vsacode</text>
<polygon fill="none" stroke="black" points="179.5,-519 179.5,-541 285.5,-541 285.5,-519 179.5,-519"/>
<text text-anchor="start" x="182.5" y="-527.2" font-family="Helvetica,sans-Serif" font-size="11.00">int4[10]</text>
<polygon fill="none" stroke="black" points="10.5,-497 10.5,-519 179.5,-519 179.5,-497 10.5,-497"/>
<text text-anchor="start" x="30.5" y="-505.2" font-family="Helvetica,sans-Serif" font-size="11.00">value_en</text>
<polygon fill="none" stroke="black" points="179.5,-497 179.5,-519 285.5,-519 285.5,-497 179.5,-497"/>
<text text-anchor="start" x="182.5" y="-505.2" font-family="Helvetica,sans-Serif" font-size="11.00">varchar[100]</text>
<polygon fill="none" stroke="black" points="10.5,-475 10.5,-497 179.5,-497 179.5,-475 10.5,-475"/>
<text text-anchor="start" x="30.5" y="-483.2" font-family="Helvetica,sans-Serif" font-size="11.00">value_de</text>
<polygon fill="none" stroke="black" points="179.5,-475 179.5,-497 285.5,-497 285.5,-475 179.5,-475"/>
<text text-anchor="start" x="182.5" y="-483.2" font-family="Helvetica,sans-Serif" font-size="11.00">varchar[100]</text>
<polygon fill="none" stroke="black" points="10.5,-453 10.5,-475 179.5,-475 179.5,-453 10.5,-453"/>
<text text-anchor="start" x="30.5" y="-461.2" font-family="Helvetica,sans-Serif" font-size="11.00">value_fr</text>
<polygon fill="none" stroke="black" points="179.5,-453 179.5,-475 285.5,-475 285.5,-453 179.5,-453"/>
<text text-anchor="start" x="182.5" y="-461.2" font-family="Helvetica,sans-Serif" font-size="11.00">varchar[100]</text>
<polygon fill="none" stroke="black" points="10.5,-431 10.5,-453 179.5,-453 179.5,-431 10.5,-431"/>
<text text-anchor="start" x="30.5" y="-439.2" font-family="Helvetica,sans-Serif" font-size="11.00">value_it</text>
<polygon fill="none" stroke="black" points="179.5,-431 179.5,-453 285.5,-453 285.5,-431 179.5,-431"/>
<text text-anchor="start" x="182.5" y="-439.2" font-family="Helvetica,sans-Serif" font-size="11.00">varchar[100]</text>
<polygon fill="none" stroke="black" points="10.5,-409 10.5,-431 179.5,-431 179.5,-409 10.5,-409"/>
<text text-anchor="start" x="30.5" y="-417.2" font-family="Helvetica,sans-Serif" font-size="11.00">value_ro</text>
<polygon fill="none" stroke="black" points="179.5,-409 179.5,-431 285.5,-431 285.5,-409 179.5,-409"/>
<text text-anchor="start" x="182.5" y="-417.2" font-family="Helvetica,sans-Serif" font-size="11.00">varchar[100]</text>
<polygon fill="none" stroke="black" points="10.5,-387 10.5,-409 179.5,-409 179.5,-387 10.5,-387"/>
<text text-anchor="start" x="30.5" y="-395.2" font-family="Helvetica,sans-Serif" font-size="11.00">abbr_en</text>
<polygon fill="none" stroke="black" points="179.5,-387 179.5,-409 285.5,-409 285.5,-387 179.5,-387"/>
<text text-anchor="start" x="182.5" y="-395.2" font-family="Helvetica,sans-Serif" font-size="11.00">varchar[3]</text>
<polygon fill="none" stroke="black" points="10.5,-365 10.5,-387 179.5,-387 179.5,-365 10.5,-365"/>
<text text-anchor="start" x="30.5" y="-373.2" font-family="Helvetica,sans-Serif" font-size="11.00">abbr_de</text>
<polygon fill="none" stroke="black" points="179.5,-365 179.5,-387 285.5,-387 285.5,-365 179.5,-365"/>
<text text-anchor="start" x="182.5" y="-373.2" font-family="Helvetica,sans-Serif" font-size="11.00">varchar[3]</text>
<polygon fill="none" stroke="black" points="10.5,-343 10.5,-365 179.5,-365 179.5,-343 10.5,-343"/>
<text text-anchor="start" x="30.5" y="-351.2" font-family="Helvetica,sans-Serif" font-size="11.00">abbr_fr</text>
<polygon fill="none" stroke="black" points="179.5,-343 179.5,-365 285.5,-365 285.5,-343 179.5,-343"/>
<text text-anchor="start" x="182.5" y="-351.2" font-family="Helvetica,sans-Serif" font-size="11.00">varchar[3]</text>
<polygon fill="none" stroke="black" points="10.5,-321 10.5,-343 179.5,-343 179.5,-321 10.5,-321"/>
<text text-anchor="start" x="30.5" y="-329.2" font-family="Helvetica,sans-Serif" font-size="11.00">abbr_it</text>
<polygon fill="none" stroke="black" points="179.5,-321 179.5,-343 285.5,-343 285.5,-321 179.5,-321"/>
<text text-anchor="start" x="182.5" y="-329.2" font-family="Helvetica,sans-Serif" font-size="11.00">varchar[3]</text>
<polygon fill="none" stroke="black" points="10.5,-299 10.5,-321 179.5,-321 179.5,-299 10.5,-299"/>
<text text-anchor="start" x="30.5" y="-307.2" font-family="Helvetica,sans-Serif" font-size="11.00">abbr_ro</text>
<polygon fill="none" stroke="black" points="179.5,-299 179.5,-321 285.5,-321 285.5,-299 179.5,-299"/>
<text text-anchor="start" x="182.5" y="-307.2" font-family="Helvetica,sans-Serif" font-size="11.00">varchar[3]</text>
<polygon fill="none" stroke="black" points="10.5,-277 10.5,-299 179.5,-299 179.5,-277 10.5,-277"/>
<text text-anchor="start" x="30.5" y="-285.2" font-family="Helvetica,sans-Serif" font-size="11.00">active</text>
<polygon fill="none" stroke="black" points="179.5,-277 179.5,-299 285.5,-299 285.5,-277 179.5,-277"/>
<text text-anchor="start" x="182.5" y="-285.2" font-family="Helvetica,sans-Serif" font-size="11.00">bool[1]</text>
<polygon fill="none" stroke="black" points="10.5,-255 10.5,-277 179.5,-277 179.5,-255 10.5,-255"/>
<text text-anchor="start" x="30.5" y="-263.2" font-family="Helvetica,sans-Serif" font-size="11.00">description_en</text>
<polygon fill="none" stroke="black" points="179.5,-255 179.5,-277 285.5,-277 285.5,-255 179.5,-255"/>
<text text-anchor="start" x="182.5" y="-263.2" font-family="Helvetica,sans-Serif" font-size="11.00">text[2147483647]</text>
<polygon fill="none" stroke="black" points="10.5,-233 10.5,-255 179.5,-255 179.5,-233 10.5,-233"/>
<text text-anchor="start" x="30.5" y="-241.2" font-family="Helvetica,sans-Serif" font-size="11.00">description_de</text>
<polygon fill="none" stroke="black" points="179.5,-233 179.5,-255 285.5,-255 285.5,-233 179.5,-233"/>
<text text-anchor="start" x="182.5" y="-241.2" font-family="Helvetica,sans-Serif" font-size="11.00">text[2147483647]</text>
<polygon fill="none" stroke="black" points="10.5,-211 10.5,-233 179.5,-233 179.5,-211 10.5,-211"/>
<text text-anchor="start" x="30.5" y="-219.2" font-family="Helvetica,sans-Serif" font-size="11.00">description_fr</text>
<polygon fill="none" stroke="black" points="179.5,-211 179.5,-233 285.5,-233 285.5,-211 179.5,-211"/>
<text text-anchor="start" x="182.5" y="-219.2" font-family="Helvetica,sans-Serif" font-size="11.00">text[2147483647]</text>
<polygon fill="none" stroke="black" points="10.5,-189 10.5,-211 179.5,-211 179.5,-189 10.5,-189"/>
<text text-anchor="start" x="30.5" y="-197.2" font-family="Helvetica,sans-Serif" font-size="11.00">description_it</text>
<polygon fill="none" stroke="black" points="179.5,-189 179.5,-211 285.5,-211 285.5,-189 179.5,-189"/>
<text text-anchor="start" x="182.5" y="-197.2" font-family="Helvetica,sans-Serif" font-size="11.00">text[2147483647]</text>
<polygon fill="none" stroke="black" points="10.5,-167 10.5,-189 179.5,-189 179.5,-167 10.5,-167"/>
<text text-anchor="start" x="30.5" y="-175.2" font-family="Helvetica,sans-Serif" font-size="11.00">description_ro</text>
<polygon fill="none" stroke="black" points="179.5,-167 179.5,-189 285.5,-189 285.5,-167 179.5,-167"/>
<text text-anchor="start" x="182.5" y="-175.2" font-family="Helvetica,sans-Serif" font-size="11.00">text[2147483647]</text>
<polygon fill="none" stroke="black" points="10.5,-145 10.5,-167 179.5,-167 179.5,-145 10.5,-145"/>
<text text-anchor="start" x="30.5" y="-153.2" font-family="Helvetica,sans-Serif" font-size="11.00">display_en</text>
<polygon fill="none" stroke="black" points="179.5,-145 179.5,-167 285.5,-167 285.5,-145 179.5,-145"/>
<text text-anchor="start" x="182.5" y="-153.2" font-family="Helvetica,sans-Serif" font-size="11.00">varchar[100]</text>
<polygon fill="none" stroke="black" points="10.5,-123 10.5,-145 179.5,-145 179.5,-123 10.5,-123"/>
<text text-anchor="start" x="30.5" y="-131.2" font-family="Helvetica,sans-Serif" font-size="11.00">display_de</text>
<polygon fill="none" stroke="black" points="179.5,-123 179.5,-145 285.5,-145 285.5,-123 179.5,-123"/>
<text text-anchor="start" x="182.5" y="-131.2" font-family="Helvetica,sans-Serif" font-size="11.00">varchar[100]</text>
<polygon fill="none" stroke="black" points="10.5,-101 10.5,-123 179.5,-123 179.5,-101 10.5,-101"/>
<text text-anchor="start" x="30.5" y="-109.2" font-family="Helvetica,sans-Serif" font-size="11.00">display_fr</text>
<polygon fill="none" stroke="black" points="179.5,-101 179.5,-123 285.5,-123 285.5,-101 179.5,-101"/>
<text text-anchor="start" x="182.5" y="-109.2" font-family="Helvetica,sans-Serif" font-size="11.00">varchar[100]</text>
<polygon fill="none" stroke="black" points="10.5,-79 10.5,-101 179.5,-101 179.5,-79 10.5,-79"/>
<text text-anchor="start" x="30.5" y="-87.2" font-family="Helvetica,sans-Serif" font-size="11.00">display_it</text>
<polygon fill="none" stroke="black" points="179.5,-79 179.5,-101 285.5,-101 285.5,-79 179.5,-79"/>
<text text-anchor="start" x="182.5" y="-87.2" font-family="Helvetica,sans-Serif" font-size="11.00">varchar[100]</text>
<polygon fill="none" stroke="black" points="10.5,-57 10.5,-79 179.5,-79 179.5,-57 10.5,-57"/>
<text text-anchor="start" x="30.5" y="-65.2" font-family="Helvetica,sans-Serif" font-size="11.00">display_ro</text>
<polygon fill="none" stroke="black" points="179.5,-57 179.5,-79 285.5,-79 285.5,-57 179.5,-57"/>
<text text-anchor="start" x="182.5" y="-65.2" font-family="Helvetica,sans-Serif" font-size="11.00">varchar[100]</text>
<polygon fill="#ffffff" stroke="transparent" points="10.5,-39 10.5,-57 285.5,-57 285.5,-39 10.5,-39"/>
<polygon fill="none" stroke="black" points="10.5,-39 10.5,-57 285.5,-57 285.5,-39 10.5,-39"/>
<polygon fill="#ffffff" stroke="transparent" points="11.5,-40 11.5,-56 106.5,-56 106.5,-40 11.5,-40"/>
<text text-anchor="start" x="13.5" y="-45.2" font-family="Helvetica,sans-Serif" font-size="11.00">&lt; 0</text>
<polygon fill="#ffffff" stroke="transparent" points="106.5,-40 106.5,-56 189.5,-56 189.5,-40 106.5,-40"/>
<text text-anchor="start" x="144" y="-45.2" font-family="Helvetica,sans-Serif" font-size="11.00"> &#160;</text>
<polygon fill="#ffffff" stroke="transparent" points="189.5,-40 189.5,-56 284.5,-56 284.5,-40 189.5,-40"/>
<text text-anchor="start" x="262.5" y="-45.2" font-family="Helvetica,sans-Serif" font-size="11.00">1 &gt;</text>
<polygon fill="black" stroke="black" points="106.5,-40 106.5,-56 106.5,-56 106.5,-40 106.5,-40"/>
<polygon fill="black" stroke="black" points="189.5,-40 189.5,-56 189.5,-56 189.5,-40 189.5,-40"/>
<polygon fill="none" stroke="black" stroke-width="2" points="9,-38 9,-586 286,-586 286,-38 9,-38"/>
</a>
</g>
</g>
<!-- tww_od.reach_text&#45;&gt;reach_text_plantype -->
<g id="edge1" class="edge">
<title>tww_od.reach_text:w&#45;&gt;reach_text_plantype:e</title>
<path fill="none" stroke="black" d="M320.28,-552C309.29,-552 302.16,-552 286.5,-552"/>
<polygon fill="black" stroke="black" points="327,-552 335,-555.6 331,-552 335,-552 335,-552 335,-552 331,-552 335,-548.4 327,-552 327,-552"/>
<ellipse fill="none" stroke="black" cx="323.8" cy="-552" rx="3.2" ry="3.2"/>
</g>
</g>
</svg>
