<?xml version="1.0" encoding="UTF-8" standalone="no"?>
<!DOCTYPE svg PUBLIC "-//W3C//DTD SVG 1.1//EN"
 "http://www.w3.org/Graphics/SVG/1.1/DTD/svg11.dtd">
<!-- Generated by graphviz version 2.43.0 (0)
 -->
<!-- Title: oneDegreeRelationshipsDiagram Pages: 1 -->
<svg width="612pt" height="619pt"
 viewBox="0.00 0.00 612.00 619.00" xmlns="http://www.w3.org/2000/svg" xmlns:xlink="http://www.w3.org/1999/xlink">
<g id="graph0" class="graph" transform="scale(1 1) rotate(0) translate(4 615)">
<title>oneDegreeRelationshipsDiagram</title>
<polygon fill="#ffffff" stroke="transparent" points="-4,4 -4,-615 608,-615 608,4 -4,4"/>
<text text-anchor="middle" x="79.5" y="-7.2" font-family="Helvetica,sans-Serif" font-size="11.00">Generated by SchemaSpy</text>
<!-- tww_od.sia405cc_cable -->
<g id="node1" class="node">
<title>tww_od.sia405cc_cable</title>
<g id="a_node1"><a xlink:href="../../../tww_od/tables/sia405cc_cable.html" xlink:title="tww_od.sia405cc_cable" target="_top">
<polygon fill="#ffffff" stroke="transparent" points="381,-439 381,-607 596,-607 596,-439 381,-439"/>
<polygon fill="#f5f5f5" stroke="transparent" points="381.5,-585 381.5,-607 596.5,-607 596.5,-585 381.5,-585"/>
<polygon fill="none" stroke="black" points="381.5,-585 381.5,-607 596.5,-607 596.5,-585 381.5,-585"/>
<text text-anchor="start" x="386.5" y="-594.2" font-family="Helvetica,sans-Serif" font-weight="bold" font-size="11.00">tww_od.sia405cc_cable</text>
<text text-anchor="start" x="554.5" y="-593.2" font-family="Helvetica,sans-Serif" font-size="11.00">[table]</text>
<polygon fill="none" stroke="black" points="381.5,-563 381.5,-585 596.5,-585 596.5,-563 381.5,-563"/>
<image xlink:href="../../images/foreignKeys.png" width="11px" height="12px" preserveAspectRatio="xMinYMin meet" x="386.5" y="-580"/>
<text text-anchor="start" x="409.5" y="-571.2" font-family="Helvetica,sans-Serif" font-size="11.00">function</text>
<polygon fill="none" stroke="black" points="381.5,-541 381.5,-563 596.5,-563 596.5,-541 381.5,-541"/>
<image xlink:href="../../images/foreignKeys.png" width="11px" height="12px" preserveAspectRatio="xMinYMin meet" x="386.5" y="-558"/>
<text text-anchor="start" x="409.5" y="-549.2" font-family="Helvetica,sans-Serif" font-size="11.00">cable_type</text>
<polygon fill="none" stroke="black" points="381.5,-519 381.5,-541 596.5,-541 596.5,-519 381.5,-519"/>
<image xlink:href="../../images/foreignKeys.png" width="11px" height="12px" preserveAspectRatio="xMinYMin meet" x="386.5" y="-536"/>
<text text-anchor="start" x="409.5" y="-527.2" font-family="Helvetica,sans-Serif" font-size="11.00">horizontal_positioning</text>
<polygon fill="none" stroke="black" points="381.5,-497 381.5,-519 596.5,-519 596.5,-497 381.5,-497"/>
<image xlink:href="../../images/foreignKeys.png" width="11px" height="12px" preserveAspectRatio="xMinYMin meet" x="386.5" y="-514"/>
<text text-anchor="start" x="409.5" y="-505.2" font-family="Helvetica,sans-Serif" font-size="11.00">status</text>
<polygon fill="none" stroke="black" points="381.5,-475 381.5,-497 596.5,-497 596.5,-475 381.5,-475"/>
<image xlink:href="../../images/foreignKeys.png" width="11px" height="12px" preserveAspectRatio="xMinYMin meet" x="386.5" y="-492"/>
<text text-anchor="start" x="409.5" y="-483.2" font-family="Helvetica,sans-Serif" font-size="11.00">elevation_determination</text>
<polygon fill="none" stroke="black" points="381.5,-457 381.5,-475 596.5,-475 596.5,-457 381.5,-457"/>
<text text-anchor="start" x="384.5" y="-463.2" font-family="Helvetica,sans-Serif" font-size="11.00">...</text>
<polygon fill="#ffffff" stroke="transparent" points="381.5,-439 381.5,-457 596.5,-457 596.5,-439 381.5,-439"/>
<polygon fill="none" stroke="black" points="381.5,-439 381.5,-457 596.5,-457 596.5,-439 381.5,-439"/>
<polygon fill="#ffffff" stroke="transparent" points="382.5,-440 382.5,-456 452.5,-456 452.5,-440 382.5,-440"/>
<text text-anchor="start" x="384.5" y="-445.2" font-family="Helvetica,sans-Serif" font-size="11.00">&lt; 5</text>
<polygon fill="#ffffff" stroke="transparent" points="452.5,-440 452.5,-456 538.5,-456 538.5,-440 452.5,-440"/>
<text text-anchor="start" x="477" y="-445.2" font-family="Helvetica,sans-Serif" font-size="11.00">0 rows</text>
<polygon fill="#ffffff" stroke="transparent" points="538.5,-440 538.5,-456 595.5,-456 595.5,-440 538.5,-440"/>
<text text-anchor="start" x="585.5" y="-445.2" font-family="Helvetica,sans-Serif" font-size="11.00"> &#160;</text>
<polygon fill="black" stroke="black" points="452.5,-440 452.5,-456 452.5,-456 452.5,-440 452.5,-440"/>
<polygon fill="black" stroke="black" points="538.5,-440 538.5,-456 538.5,-456 538.5,-440 538.5,-440"/>
</a>
</g>
</g>
<!-- sia405cc_cable_cable_type -->
<g id="node2" class="node">
<title>sia405cc_cable_cable_type</title>
<g id="a_node2"><a xlink:href="../../tables/sia405cc_cable_cable_type.html" xlink:title="sia405cc_cable_cable_type" target="_top">
<polygon fill="#ffffff" stroke="transparent" points="8,-37 8,-587 332,-587 332,-37 8,-37"/>
<polygon fill="#f5f5f5" stroke="transparent" points="10,-563 10,-585 330,-585 330,-563 10,-563"/>
<polygon fill="none" stroke="black" points="10,-563 10,-585 330,-585 330,-563 10,-563"/>
<text text-anchor="start" x="15" y="-572.2" font-family="Helvetica,sans-Serif" font-weight="bold" font-size="11.00">sia405cc_cable_cable_type</text>
<text text-anchor="start" x="288" y="-571.2" font-family="Helvetica,sans-Serif" font-size="11.00">[table]</text>
<polygon fill="none" stroke="black" points="10,-541 10,-563 224,-563 224,-541 10,-541"/>
<image xlink:href="../../images/primaryKeys.png" width="11px" height="12px" preserveAspectRatio="xMinYMin meet" x="15" y="-558"/>
<text text-anchor="start" x="30" y="-549.2" font-family="Helvetica,sans-Serif" font-size="11.00">code</text>
<polygon fill="none" stroke="black" points="224,-541 224,-563 330,-563 330,-541 224,-541"/>
<text text-anchor="start" x="227" y="-549.2" font-family="Helvetica,sans-Serif" font-size="11.00">int4[10]</text>
<polygon fill="none" stroke="black" points="10,-519 10,-541 224,-541 224,-519 10,-519"/>
<text text-anchor="start" x="30" y="-527.2" font-family="Helvetica,sans-Serif" font-size="11.00">vsacode</text>
<polygon fill="none" stroke="black" points="224,-519 224,-541 330,-541 330,-519 224,-519"/>
<text text-anchor="start" x="227" y="-527.2" font-family="Helvetica,sans-Serif" font-size="11.00">int4[10]</text>
<polygon fill="none" stroke="black" points="10,-497 10,-519 224,-519 224,-497 10,-497"/>
<text text-anchor="start" x="30" y="-505.2" font-family="Helvetica,sans-Serif" font-size="11.00">value_en</text>
<polygon fill="none" stroke="black" points="224,-497 224,-519 330,-519 330,-497 224,-497"/>
<text text-anchor="start" x="227" y="-505.2" font-family="Helvetica,sans-Serif" font-size="11.00">varchar[100]</text>
<polygon fill="none" stroke="black" points="10,-475 10,-497 224,-497 224,-475 10,-475"/>
<text text-anchor="start" x="30" y="-483.2" font-family="Helvetica,sans-Serif" font-size="11.00">value_de</text>
<polygon fill="none" stroke="black" points="224,-475 224,-497 330,-497 330,-475 224,-475"/>
<text text-anchor="start" x="227" y="-483.2" font-family="Helvetica,sans-Serif" font-size="11.00">varchar[100]</text>
<polygon fill="none" stroke="black" points="10,-453 10,-475 224,-475 224,-453 10,-453"/>
<text text-anchor="start" x="30" y="-461.2" font-family="Helvetica,sans-Serif" font-size="11.00">value_fr</text>
<polygon fill="none" stroke="black" points="224,-453 224,-475 330,-475 330,-453 224,-453"/>
<text text-anchor="start" x="227" y="-461.2" font-family="Helvetica,sans-Serif" font-size="11.00">varchar[100]</text>
<polygon fill="none" stroke="black" points="10,-431 10,-453 224,-453 224,-431 10,-431"/>
<text text-anchor="start" x="30" y="-439.2" font-family="Helvetica,sans-Serif" font-size="11.00">value_it</text>
<polygon fill="none" stroke="black" points="224,-431 224,-453 330,-453 330,-431 224,-431"/>
<text text-anchor="start" x="227" y="-439.2" font-family="Helvetica,sans-Serif" font-size="11.00">varchar[100]</text>
<polygon fill="none" stroke="black" points="10,-409 10,-431 224,-431 224,-409 10,-409"/>
<text text-anchor="start" x="30" y="-417.2" font-family="Helvetica,sans-Serif" font-size="11.00">value_ro</text>
<polygon fill="none" stroke="black" points="224,-409 224,-431 330,-431 330,-409 224,-409"/>
<text text-anchor="start" x="227" y="-417.2" font-family="Helvetica,sans-Serif" font-size="11.00">varchar[100]</text>
<polygon fill="none" stroke="black" points="10,-387 10,-409 224,-409 224,-387 10,-387"/>
<text text-anchor="start" x="30" y="-395.2" font-family="Helvetica,sans-Serif" font-size="11.00">abbr_en</text>
<polygon fill="none" stroke="black" points="224,-387 224,-409 330,-409 330,-387 224,-387"/>
<text text-anchor="start" x="227" y="-395.2" font-family="Helvetica,sans-Serif" font-size="11.00">varchar[3]</text>
<polygon fill="none" stroke="black" points="10,-365 10,-387 224,-387 224,-365 10,-365"/>
<text text-anchor="start" x="30" y="-373.2" font-family="Helvetica,sans-Serif" font-size="11.00">abbr_de</text>
<polygon fill="none" stroke="black" points="224,-365 224,-387 330,-387 330,-365 224,-365"/>
<text text-anchor="start" x="227" y="-373.2" font-family="Helvetica,sans-Serif" font-size="11.00">varchar[3]</text>
<polygon fill="none" stroke="black" points="10,-343 10,-365 224,-365 224,-343 10,-343"/>
<text text-anchor="start" x="30" y="-351.2" font-family="Helvetica,sans-Serif" font-size="11.00">abbr_fr</text>
<polygon fill="none" stroke="black" points="224,-343 224,-365 330,-365 330,-343 224,-343"/>
<text text-anchor="start" x="227" y="-351.2" font-family="Helvetica,sans-Serif" font-size="11.00">varchar[3]</text>
<polygon fill="none" stroke="black" points="10,-321 10,-343 224,-343 224,-321 10,-321"/>
<text text-anchor="start" x="30" y="-329.2" font-family="Helvetica,sans-Serif" font-size="11.00">abbr_it</text>
<polygon fill="none" stroke="black" points="224,-321 224,-343 330,-343 330,-321 224,-321"/>
<text text-anchor="start" x="227" y="-329.2" font-family="Helvetica,sans-Serif" font-size="11.00">varchar[3]</text>
<polygon fill="none" stroke="black" points="10,-299 10,-321 224,-321 224,-299 10,-299"/>
<text text-anchor="start" x="30" y="-307.2" font-family="Helvetica,sans-Serif" font-size="11.00">abbr_ro</text>
<polygon fill="none" stroke="black" points="224,-299 224,-321 330,-321 330,-299 224,-299"/>
<text text-anchor="start" x="227" y="-307.2" font-family="Helvetica,sans-Serif" font-size="11.00">varchar[3]</text>
<polygon fill="none" stroke="black" points="10,-277 10,-299 224,-299 224,-277 10,-277"/>
<text text-anchor="start" x="30" y="-285.2" font-family="Helvetica,sans-Serif" font-size="11.00">active</text>
<polygon fill="none" stroke="black" points="224,-277 224,-299 330,-299 330,-277 224,-277"/>
<text text-anchor="start" x="227" y="-285.2" font-family="Helvetica,sans-Serif" font-size="11.00">bool[1]</text>
<polygon fill="none" stroke="black" points="10,-255 10,-277 224,-277 224,-255 10,-255"/>
<text text-anchor="start" x="30" y="-263.2" font-family="Helvetica,sans-Serif" font-size="11.00">description_en</text>
<polygon fill="none" stroke="black" points="224,-255 224,-277 330,-277 330,-255 224,-255"/>
<text text-anchor="start" x="227" y="-263.2" font-family="Helvetica,sans-Serif" font-size="11.00">text[2147483647]</text>
<polygon fill="none" stroke="black" points="10,-233 10,-255 224,-255 224,-233 10,-233"/>
<text text-anchor="start" x="30" y="-241.2" font-family="Helvetica,sans-Serif" font-size="11.00">description_de</text>
<polygon fill="none" stroke="black" points="224,-233 224,-255 330,-255 330,-233 224,-233"/>
<text text-anchor="start" x="227" y="-241.2" font-family="Helvetica,sans-Serif" font-size="11.00">text[2147483647]</text>
<polygon fill="none" stroke="black" points="10,-211 10,-233 224,-233 224,-211 10,-211"/>
<text text-anchor="start" x="30" y="-219.2" font-family="Helvetica,sans-Serif" font-size="11.00">description_fr</text>
<polygon fill="none" stroke="black" points="224,-211 224,-233 330,-233 330,-211 224,-211"/>
<text text-anchor="start" x="227" y="-219.2" font-family="Helvetica,sans-Serif" font-size="11.00">text[2147483647]</text>
<polygon fill="none" stroke="black" points="10,-189 10,-211 224,-211 224,-189 10,-189"/>
<text text-anchor="start" x="30" y="-197.2" font-family="Helvetica,sans-Serif" font-size="11.00">description_it</text>
<polygon fill="none" stroke="black" points="224,-189 224,-211 330,-211 330,-189 224,-189"/>
<text text-anchor="start" x="227" y="-197.2" font-family="Helvetica,sans-Serif" font-size="11.00">text[2147483647]</text>
<polygon fill="none" stroke="black" points="10,-167 10,-189 224,-189 224,-167 10,-167"/>
<text text-anchor="start" x="30" y="-175.2" font-family="Helvetica,sans-Serif" font-size="11.00">description_ro</text>
<polygon fill="none" stroke="black" points="224,-167 224,-189 330,-189 330,-167 224,-167"/>
<text text-anchor="start" x="227" y="-175.2" font-family="Helvetica,sans-Serif" font-size="11.00">text[2147483647]</text>
<polygon fill="none" stroke="black" points="10,-145 10,-167 224,-167 224,-145 10,-145"/>
<text text-anchor="start" x="30" y="-153.2" font-family="Helvetica,sans-Serif" font-size="11.00">display_en</text>
<polygon fill="none" stroke="black" points="224,-145 224,-167 330,-167 330,-145 224,-145"/>
<text text-anchor="start" x="227" y="-153.2" font-family="Helvetica,sans-Serif" font-size="11.00">varchar[100]</text>
<polygon fill="none" stroke="black" points="10,-123 10,-145 224,-145 224,-123 10,-123"/>
<text text-anchor="start" x="30" y="-131.2" font-family="Helvetica,sans-Serif" font-size="11.00">display_de</text>
<polygon fill="none" stroke="black" points="224,-123 224,-145 330,-145 330,-123 224,-123"/>
<text text-anchor="start" x="227" y="-131.2" font-family="Helvetica,sans-Serif" font-size="11.00">varchar[100]</text>
<polygon fill="none" stroke="black" points="10,-101 10,-123 224,-123 224,-101 10,-101"/>
<text text-anchor="start" x="30" y="-109.2" font-family="Helvetica,sans-Serif" font-size="11.00">display_fr</text>
<polygon fill="none" stroke="black" points="224,-101 224,-123 330,-123 330,-101 224,-101"/>
<text text-anchor="start" x="227" y="-109.2" font-family="Helvetica,sans-Serif" font-size="11.00">varchar[100]</text>
<polygon fill="none" stroke="black" points="10,-79 10,-101 224,-101 224,-79 10,-79"/>
<text text-anchor="start" x="30" y="-87.2" font-family="Helvetica,sans-Serif" font-size="11.00">display_it</text>
<polygon fill="none" stroke="black" points="224,-79 224,-101 330,-101 330,-79 224,-79"/>
<text text-anchor="start" x="227" y="-87.2" font-family="Helvetica,sans-Serif" font-size="11.00">varchar[100]</text>
<polygon fill="none" stroke="black" points="10,-57 10,-79 224,-79 224,-57 10,-57"/>
<text text-anchor="start" x="30" y="-65.2" font-family="Helvetica,sans-Serif" font-size="11.00">display_ro</text>
<polygon fill="none" stroke="black" points="224,-57 224,-79 330,-79 330,-57 224,-57"/>
<text text-anchor="start" x="227" y="-65.2" font-family="Helvetica,sans-Serif" font-size="11.00">varchar[100]</text>
<polygon fill="#ffffff" stroke="transparent" points="10,-39 10,-57 330,-57 330,-39 10,-39"/>
<polygon fill="none" stroke="black" points="10,-39 10,-57 330,-57 330,-39 10,-39"/>
<polygon fill="#ffffff" stroke="transparent" points="11,-40 11,-56 121,-56 121,-40 11,-40"/>
<text text-anchor="start" x="13" y="-45.2" font-family="Helvetica,sans-Serif" font-size="11.00">&lt; 0</text>
<polygon fill="#ffffff" stroke="transparent" points="121,-40 121,-56 219,-56 219,-40 121,-40"/>
<text text-anchor="start" x="166" y="-45.2" font-family="Helvetica,sans-Serif" font-size="11.00"> &#160;</text>
<polygon fill="#ffffff" stroke="transparent" points="219,-40 219,-56 329,-56 329,-40 219,-40"/>
<text text-anchor="start" x="307" y="-45.2" font-family="Helvetica,sans-Serif" font-size="11.00">1 &gt;</text>
<polygon fill="black" stroke="black" points="121,-40 121,-56 121,-56 121,-40 121,-40"/>
<polygon fill="black" stroke="black" points="219,-40 219,-56 219,-56 219,-40 219,-40"/>
<polygon fill="none" stroke="black" stroke-width="2" points="9,-38 9,-586 331,-586 331,-38 9,-38"/>
</a>
</g>
</g>
<!-- tww_od.sia405cc_cable&#45;&gt;sia405cc_cable_cable_type -->
<g id="edge1" class="edge">
<title>tww_od.sia405cc_cable:w&#45;&gt;sia405cc_cable_cable_type:e</title>
<path fill="none" stroke="black" d="M365.84,-552C354.41,-552 347.16,-552 331,-552"/>
<polygon fill="black" stroke="black" points="372.5,-552 380.5,-555.6 376.5,-552 380.5,-552 380.5,-552 380.5,-552 376.5,-552 380.5,-548.4 372.5,-552 372.5,-552"/>
<ellipse fill="none" stroke="black" cx="369.3" cy="-552" rx="3.2" ry="3.2"/>
</g>
</g>
</svg>
