<?xml version="1.0" encoding="UTF-8" standalone="no"?>
<!DOCTYPE svg PUBLIC "-//W3C//DTD SVG 1.1//EN"
 "http://www.w3.org/Graphics/SVG/1.1/DTD/svg11.dtd">
<!-- Generated by graphviz version 2.47.1 (20210515.0534)
 -->
<!-- Title: oneDegreeRelationshipsDiagram Pages: 1 -->
<svg width="471pt" height="379pt"
 viewBox="0.00 0.00 471.00 379.00" xmlns="http://www.w3.org/2000/svg" xmlns:xlink="http://www.w3.org/1999/xlink">
<g id="graph0" class="graph" transform="scale(1 1) rotate(0) translate(4 375)">
<title>oneDegreeRelationshipsDiagram</title>
<polygon fill="#ffffff" stroke="transparent" points="-4,4 -4,-375 467,-375 467,4 -4,4"/>
<text text-anchor="middle" x="73.5" y="-7.2" font-family="Helvetica,sans-Serif" font-size="11.00">Generated by SchemaSpy</text>
<!-- tww_od.tank_emptying -->
<g id="node1" class="node">
<title>tww_od.tank_emptying</title>
<g id="a_node1"><a xlink:href="../../../tww_od/tables/tank_emptying.html" xlink:title="tww_od.tank_emptying" target="_top">
<polygon fill="#ffffff" stroke="transparent" points="273,-285 273,-365 455,-365 455,-285 273,-285"/>
<polygon fill="#f5f5f5" stroke="transparent" points="273,-343 273,-365 455,-365 455,-343 273,-343"/>
<polygon fill="none" stroke="black" points="273,-343 273,-365 455,-365 455,-343 273,-343"/>
<text text-anchor="start" x="278" y="-352.2" font-family="Helvetica,sans-Serif" font-weight="bold" font-size="11.00">tww_od.tank_emptying</text>
<text text-anchor="start" x="416" y="-351.2" font-family="Helvetica,sans-Serif" font-size="11.00">[table]</text>
<polygon fill="none" stroke="black" points="273,-321 273,-343 455,-343 455,-321 273,-321"/>
<image xlink:href="../../images/foreignKeys.png" width="11px" height="12px" preserveAspectRatio="xMinYMin meet" x="278" y="-338"/>
<text text-anchor="start" x="300" y="-329.2" font-family="Helvetica,sans-Serif" font-size="11.00">kind</text>
<polygon fill="none" stroke="black" points="273,-303 273,-321 455,-321 455,-303 273,-303"/>
<text text-anchor="start" x="276" y="-309.2" font-family="Helvetica,sans-Serif" font-size="11.00">...</text>
<polygon fill="#ffffff" stroke="transparent" points="273,-285 273,-303 348,-303 348,-285 273,-285"/>
<polygon fill="none" stroke="black" points="273,-285 273,-303 348,-303 348,-285 273,-285"/>
<text text-anchor="start" x="276" y="-291.2" font-family="Helvetica,sans-Serif" font-size="11.00">&lt; 1</text>
<polygon fill="#ffffff" stroke="transparent" points="348,-285 348,-303 415,-303 415,-285 348,-285"/>
<polygon fill="none" stroke="black" points="348,-285 348,-303 415,-303 415,-285 348,-285"/>
<text text-anchor="start" x="378" y="-291.2" font-family="Helvetica,sans-Serif" font-size="11.00">0 rows</text>
<polygon fill="#ffffff" stroke="transparent" points="415,-285 415,-303 455,-303 455,-285 415,-285"/>
<polygon fill="none" stroke="black" points="415,-285 415,-303 455,-303 455,-285 415,-285"/>
<text text-anchor="start" x="445" y="-291.2" font-family="Helvetica,sans-Serif" font-size="11.00"> &#160;</text>
</a>
</g>
</g>
<!-- tank_emptying_kind -->
<g id="node2" class="node">
<title>tank_emptying_kind</title>
<g id="a_node2"><a xlink:href="../../tables/tank_emptying_kind.html" xlink:title="tank_emptying_kind" target="_top">
<polygon fill="#ffffff" stroke="transparent" points="8,-37 8,-367 224,-367 224,-37 8,-37"/>
<polygon fill="#f5f5f5" stroke="transparent" points="10,-343 10,-365 222,-365 222,-343 10,-343"/>
<polygon fill="none" stroke="black" points="10,-343 10,-365 222,-365 222,-343 10,-343"/>
<text text-anchor="start" x="15" y="-352.2" font-family="Helvetica,sans-Serif" font-weight="bold" font-size="11.00">tank_emptying_kind</text>
<text text-anchor="start" x="183" y="-351.2" font-family="Helvetica,sans-Serif" font-size="11.00">[table]</text>
<polygon fill="none" stroke="black" points="10,-321 10,-343 152,-343 152,-321 10,-321"/>
<image xlink:href="../../images/primaryKeys.png" width="11px" height="12px" preserveAspectRatio="xMinYMin meet" x="15" y="-338"/>
<text text-anchor="start" x="30" y="-329.2" font-family="Helvetica,sans-Serif" font-size="11.00">code</text>
<polygon fill="none" stroke="black" points="152,-321 152,-343 222,-343 222,-321 152,-321"/>
<text text-anchor="start" x="155" y="-329.2" font-family="Helvetica,sans-Serif" font-size="11.00">int4[10]</text>
<polygon fill="none" stroke="black" points="10,-299 10,-321 152,-321 152,-299 10,-299"/>
<text text-anchor="start" x="30" y="-307.2" font-family="Helvetica,sans-Serif" font-size="11.00">vsacode</text>
<polygon fill="none" stroke="black" points="152,-299 152,-321 222,-321 222,-299 152,-299"/>
<text text-anchor="start" x="155" y="-307.2" font-family="Helvetica,sans-Serif" font-size="11.00">int4[10]</text>
<polygon fill="none" stroke="black" points="10,-277 10,-299 152,-299 152,-277 10,-277"/>
<text text-anchor="start" x="30" y="-285.2" font-family="Helvetica,sans-Serif" font-size="11.00">value_en</text>
<polygon fill="none" stroke="black" points="152,-277 152,-299 222,-299 222,-277 152,-277"/>
<text text-anchor="start" x="155" y="-285.2" font-family="Helvetica,sans-Serif" font-size="11.00">varchar[100]</text>
<polygon fill="none" stroke="black" points="10,-255 10,-277 152,-277 152,-255 10,-255"/>
<text text-anchor="start" x="30" y="-263.2" font-family="Helvetica,sans-Serif" font-size="11.00">value_de</text>
<polygon fill="none" stroke="black" points="152,-255 152,-277 222,-277 222,-255 152,-255"/>
<text text-anchor="start" x="155" y="-263.2" font-family="Helvetica,sans-Serif" font-size="11.00">varchar[100]</text>
<polygon fill="none" stroke="black" points="10,-233 10,-255 152,-255 152,-233 10,-233"/>
<text text-anchor="start" x="30" y="-241.2" font-family="Helvetica,sans-Serif" font-size="11.00">value_fr</text>
<polygon fill="none" stroke="black" points="152,-233 152,-255 222,-255 222,-233 152,-233"/>
<text text-anchor="start" x="155" y="-241.2" font-family="Helvetica,sans-Serif" font-size="11.00">varchar[100]</text>
<polygon fill="none" stroke="black" points="10,-211 10,-233 152,-233 152,-211 10,-211"/>
<text text-anchor="start" x="30" y="-219.2" font-family="Helvetica,sans-Serif" font-size="11.00">value_it</text>
<polygon fill="none" stroke="black" points="152,-211 152,-233 222,-233 222,-211 152,-211"/>
<text text-anchor="start" x="155" y="-219.2" font-family="Helvetica,sans-Serif" font-size="11.00">varchar[100]</text>
<polygon fill="none" stroke="black" points="10,-189 10,-211 152,-211 152,-189 10,-189"/>
<text text-anchor="start" x="30" y="-197.2" font-family="Helvetica,sans-Serif" font-size="11.00">value_ro</text>
<polygon fill="none" stroke="black" points="152,-189 152,-211 222,-211 222,-189 152,-189"/>
<text text-anchor="start" x="155" y="-197.2" font-family="Helvetica,sans-Serif" font-size="11.00">varchar[100]</text>
<polygon fill="none" stroke="black" points="10,-167 10,-189 152,-189 152,-167 10,-167"/>
<text text-anchor="start" x="30" y="-175.2" font-family="Helvetica,sans-Serif" font-size="11.00">abbr_en</text>
<polygon fill="none" stroke="black" points="152,-167 152,-189 222,-189 222,-167 152,-167"/>
<text text-anchor="start" x="155" y="-175.2" font-family="Helvetica,sans-Serif" font-size="11.00">varchar[3]</text>
<polygon fill="none" stroke="black" points="10,-145 10,-167 152,-167 152,-145 10,-145"/>
<text text-anchor="start" x="30" y="-153.2" font-family="Helvetica,sans-Serif" font-size="11.00">abbr_de</text>
<polygon fill="none" stroke="black" points="152,-145 152,-167 222,-167 222,-145 152,-145"/>
<text text-anchor="start" x="155" y="-153.2" font-family="Helvetica,sans-Serif" font-size="11.00">varchar[3]</text>
<polygon fill="none" stroke="black" points="10,-123 10,-145 152,-145 152,-123 10,-123"/>
<text text-anchor="start" x="30" y="-131.2" font-family="Helvetica,sans-Serif" font-size="11.00">abbr_fr</text>
<polygon fill="none" stroke="black" points="152,-123 152,-145 222,-145 222,-123 152,-123"/>
<text text-anchor="start" x="155" y="-131.2" font-family="Helvetica,sans-Serif" font-size="11.00">varchar[3]</text>
<polygon fill="none" stroke="black" points="10,-101 10,-123 152,-123 152,-101 10,-101"/>
<text text-anchor="start" x="30" y="-109.2" font-family="Helvetica,sans-Serif" font-size="11.00">abbr_it</text>
<polygon fill="none" stroke="black" points="152,-101 152,-123 222,-123 222,-101 152,-101"/>
<text text-anchor="start" x="155" y="-109.2" font-family="Helvetica,sans-Serif" font-size="11.00">varchar[3]</text>
<polygon fill="none" stroke="black" points="10,-79 10,-101 152,-101 152,-79 10,-79"/>
<text text-anchor="start" x="30" y="-87.2" font-family="Helvetica,sans-Serif" font-size="11.00">abbr_ro</text>
<polygon fill="none" stroke="black" points="152,-79 152,-101 222,-101 222,-79 152,-79"/>
<text text-anchor="start" x="155" y="-87.2" font-family="Helvetica,sans-Serif" font-size="11.00">varchar[3]</text>
<polygon fill="none" stroke="black" points="10,-57 10,-79 152,-79 152,-57 10,-57"/>
<text text-anchor="start" x="30" y="-65.2" font-family="Helvetica,sans-Serif" font-size="11.00">active</text>
<polygon fill="none" stroke="black" points="152,-57 152,-79 222,-79 222,-57 152,-57"/>
<text text-anchor="start" x="155" y="-65.2" font-family="Helvetica,sans-Serif" font-size="11.00">bool[1]</text>
<polygon fill="#ffffff" stroke="transparent" points="10,-39 10,-57 85,-57 85,-39 10,-39"/>
<polygon fill="none" stroke="black" points="10,-39 10,-57 85,-57 85,-39 10,-39"/>
<text text-anchor="start" x="13" y="-45.2" font-family="Helvetica,sans-Serif" font-size="11.00">&lt; 0</text>
<polygon fill="#ffffff" stroke="transparent" points="85,-39 85,-57 152,-57 152,-39 85,-39"/>
<polygon fill="none" stroke="black" points="85,-39 85,-57 152,-57 152,-39 85,-39"/>
<text text-anchor="start" x="142" y="-45.2" font-family="Helvetica,sans-Serif" font-size="11.00"> &#160;</text>
<polygon fill="#ffffff" stroke="transparent" points="152,-39 152,-57 222,-57 222,-39 152,-39"/>
<polygon fill="none" stroke="black" points="152,-39 152,-57 222,-57 222,-39 152,-39"/>
<text text-anchor="start" x="203" y="-45.2" font-family="Helvetica,sans-Serif" font-size="11.00">1 &gt;</text>
<polygon fill="none" stroke="black" stroke-width="2" points="9,-38 9,-366 223,-366 223,-38 9,-38"/>
</a>
</g>
</g>
<!-- tww_od.tank_emptying&#45;&gt;tank_emptying_kind -->
<g id="edge1" class="edge">
<title>tww_od.tank_emptying:w&#45;&gt;tank_emptying_kind:e</title>
<path fill="none" stroke="black" d="M257.49,-332C246.18,-332 238.99,-332 223,-332"/>
<polygon fill="black" stroke="black" points="264,-332 272,-335.6 268,-332 272,-332 272,-332 272,-332 268,-332 272,-328.4 264,-332 264,-332"/>
<ellipse fill="none" stroke="black" cx="260.8" cy="-332" rx="3.2" ry="3.2"/>
</g>
</g>
</svg>
