<?xml version="1.0" encoding="UTF-8" standalone="no"?>
<!DOCTYPE svg PUBLIC "-//W3C//DTD SVG 1.1//EN"
 "http://www.w3.org/Graphics/SVG/1.1/DTD/svg11.dtd">
<!-- Generated by graphviz version 2.47.1 (20210515.0534)
 -->
<!-- Title: oneDegreeRelationshipsDiagram Pages: 1 -->
<svg width="679pt" height="379pt"
 viewBox="0.00 0.00 679.00 379.00" xmlns="http://www.w3.org/2000/svg" xmlns:xlink="http://www.w3.org/1999/xlink">
<g id="graph0" class="graph" transform="scale(1 1) rotate(0) translate(4 375)">
<title>oneDegreeRelationshipsDiagram</title>
<polygon fill="#ffffff" stroke="transparent" points="-4,4 -4,-375 675,-375 675,4 -4,4"/>
<text text-anchor="middle" x="73.5" y="-7.2" font-family="Helvetica,sans-Serif" font-size="11.00">Generated by SchemaSpy</text>
<!-- tww_od.wastewater_structure_symbol -->
<g id="node1" class="node">
<title>tww_od.wastewater_structure_symbol</title>
<g id="a_node1"><a xlink:href="../../../tww_od/tables/wastewater_structure_symbol.html" xlink:title="tww_od.wastewater_structure_symbol" target="_top">
<polygon fill="#ffffff" stroke="transparent" points="390,-285 390,-365 663,-365 663,-285 390,-285"/>
<polygon fill="#f5f5f5" stroke="transparent" points="390.5,-343 390.5,-365 663.5,-365 663.5,-343 390.5,-343"/>
<polygon fill="none" stroke="black" points="390.5,-343 390.5,-365 663.5,-365 663.5,-343 390.5,-343"/>
<text text-anchor="start" x="395.5" y="-352.2" font-family="Helvetica,sans-Serif" font-weight="bold" font-size="11.00">tww_od.wastewater_structure_symbol</text>
<text text-anchor="start" x="624.5" y="-351.2" font-family="Helvetica,sans-Serif" font-size="11.00">[table]</text>
<polygon fill="none" stroke="black" points="390.5,-321 390.5,-343 663.5,-343 663.5,-321 390.5,-321"/>
<image xlink:href="../../images/foreignKeys.png" width="11px" height="12px" preserveAspectRatio="xMinYMin meet" x="395.5" y="-338"/>
<text text-anchor="start" x="446.5" y="-329.2" font-family="Helvetica,sans-Serif" font-size="11.00">plantype</text>
<polygon fill="none" stroke="black" points="390.5,-303 390.5,-321 663.5,-321 663.5,-303 390.5,-303"/>
<text text-anchor="start" x="393.5" y="-309.2" font-family="Helvetica,sans-Serif" font-size="11.00">...</text>
<polygon fill="#ffffff" stroke="transparent" points="390.5,-285 390.5,-303 511.5,-303 511.5,-285 390.5,-285"/>
<polygon fill="none" stroke="black" points="390.5,-285 390.5,-303 511.5,-303 511.5,-285 390.5,-285"/>
<text text-anchor="start" x="393.5" y="-291.2" font-family="Helvetica,sans-Serif" font-size="11.00">&lt; 1</text>
<polygon fill="#ffffff" stroke="transparent" points="511.5,-285 511.5,-303 600.5,-303 600.5,-285 511.5,-285"/>
<polygon fill="none" stroke="black" points="511.5,-285 511.5,-303 600.5,-303 600.5,-285 511.5,-285"/>
<text text-anchor="start" x="563.5" y="-291.2" font-family="Helvetica,sans-Serif" font-size="11.00">0 rows</text>
<polygon fill="#ffffff" stroke="transparent" points="600.5,-285 600.5,-303 663.5,-303 663.5,-285 600.5,-285"/>
<polygon fill="none" stroke="black" points="600.5,-285 600.5,-303 663.5,-303 663.5,-285 600.5,-285"/>
<text text-anchor="start" x="653.5" y="-291.2" font-family="Helvetica,sans-Serif" font-size="11.00"> &#160;</text>
</a>
</g>
</g>
<!-- wastewater_structure_symbol_plantype -->
<g id="node2" class="node">
<title>wastewater_structure_symbol_plantype</title>
<g id="a_node2"><a xlink:href="../../tables/wastewater_structure_symbol_plantype.html" xlink:title="wastewater_structure_symbol_plantype" target="_top">
<polygon fill="#ffffff" stroke="transparent" points="8,-37 8,-367 341,-367 341,-37 8,-37"/>
<polygon fill="#f5f5f5" stroke="transparent" points="10.5,-343 10.5,-365 339.5,-365 339.5,-343 10.5,-343"/>
<polygon fill="none" stroke="black" points="10.5,-343 10.5,-365 339.5,-365 339.5,-343 10.5,-343"/>
<text text-anchor="start" x="15.5" y="-352.2" font-family="Helvetica,sans-Serif" font-weight="bold" font-size="11.00">wastewater_structure_symbol_plantype</text>
<text text-anchor="start" x="300.5" y="-351.2" font-family="Helvetica,sans-Serif" font-size="11.00">[table]</text>
<polygon fill="none" stroke="black" points="10.5,-321 10.5,-343 269.5,-343 269.5,-321 10.5,-321"/>
<image xlink:href="../../images/primaryKeys.png" width="11px" height="12px" preserveAspectRatio="xMinYMin meet" x="15.5" y="-338"/>
<text text-anchor="start" x="30.5" y="-329.2" font-family="Helvetica,sans-Serif" font-size="11.00">code</text>
<polygon fill="none" stroke="black" points="269.5,-321 269.5,-343 339.5,-343 339.5,-321 269.5,-321"/>
<text text-anchor="start" x="272.5" y="-329.2" font-family="Helvetica,sans-Serif" font-size="11.00">int4[10]</text>
<polygon fill="none" stroke="black" points="10.5,-299 10.5,-321 269.5,-321 269.5,-299 10.5,-299"/>
<text text-anchor="start" x="30.5" y="-307.2" font-family="Helvetica,sans-Serif" font-size="11.00">vsacode</text>
<polygon fill="none" stroke="black" points="269.5,-299 269.5,-321 339.5,-321 339.5,-299 269.5,-299"/>
<text text-anchor="start" x="272.5" y="-307.2" font-family="Helvetica,sans-Serif" font-size="11.00">int4[10]</text>
<polygon fill="none" stroke="black" points="10.5,-277 10.5,-299 269.5,-299 269.5,-277 10.5,-277"/>
<text text-anchor="start" x="30.5" y="-285.2" font-family="Helvetica,sans-Serif" font-size="11.00">value_en</text>
<polygon fill="none" stroke="black" points="269.5,-277 269.5,-299 339.5,-299 339.5,-277 269.5,-277"/>
<text text-anchor="start" x="272.5" y="-285.2" font-family="Helvetica,sans-Serif" font-size="11.00">varchar[100]</text>
<polygon fill="none" stroke="black" points="10.5,-255 10.5,-277 269.5,-277 269.5,-255 10.5,-255"/>
<text text-anchor="start" x="30.5" y="-263.2" font-family="Helvetica,sans-Serif" font-size="11.00">value_de</text>
<polygon fill="none" stroke="black" points="269.5,-255 269.5,-277 339.5,-277 339.5,-255 269.5,-255"/>
<text text-anchor="start" x="272.5" y="-263.2" font-family="Helvetica,sans-Serif" font-size="11.00">varchar[100]</text>
<polygon fill="none" stroke="black" points="10.5,-233 10.5,-255 269.5,-255 269.5,-233 10.5,-233"/>
<text text-anchor="start" x="30.5" y="-241.2" font-family="Helvetica,sans-Serif" font-size="11.00">value_fr</text>
<polygon fill="none" stroke="black" points="269.5,-233 269.5,-255 339.5,-255 339.5,-233 269.5,-233"/>
<text text-anchor="start" x="272.5" y="-241.2" font-family="Helvetica,sans-Serif" font-size="11.00">varchar[100]</text>
<polygon fill="none" stroke="black" points="10.5,-211 10.5,-233 269.5,-233 269.5,-211 10.5,-211"/>
<text text-anchor="start" x="30.5" y="-219.2" font-family="Helvetica,sans-Serif" font-size="11.00">value_it</text>
<polygon fill="none" stroke="black" points="269.5,-211 269.5,-233 339.5,-233 339.5,-211 269.5,-211"/>
<text text-anchor="start" x="272.5" y="-219.2" font-family="Helvetica,sans-Serif" font-size="11.00">varchar[100]</text>
<polygon fill="none" stroke="black" points="10.5,-189 10.5,-211 269.5,-211 269.5,-189 10.5,-189"/>
<text text-anchor="start" x="30.5" y="-197.2" font-family="Helvetica,sans-Serif" font-size="11.00">value_ro</text>
<polygon fill="none" stroke="black" points="269.5,-189 269.5,-211 339.5,-211 339.5,-189 269.5,-189"/>
<text text-anchor="start" x="272.5" y="-197.2" font-family="Helvetica,sans-Serif" font-size="11.00">varchar[100]</text>
<polygon fill="none" stroke="black" points="10.5,-167 10.5,-189 269.5,-189 269.5,-167 10.5,-167"/>
<text text-anchor="start" x="30.5" y="-175.2" font-family="Helvetica,sans-Serif" font-size="11.00">abbr_en</text>
<polygon fill="none" stroke="black" points="269.5,-167 269.5,-189 339.5,-189 339.5,-167 269.5,-167"/>
<text text-anchor="start" x="272.5" y="-175.2" font-family="Helvetica,sans-Serif" font-size="11.00">varchar[3]</text>
<polygon fill="none" stroke="black" points="10.5,-145 10.5,-167 269.5,-167 269.5,-145 10.5,-145"/>
<text text-anchor="start" x="30.5" y="-153.2" font-family="Helvetica,sans-Serif" font-size="11.00">abbr_de</text>
<polygon fill="none" stroke="black" points="269.5,-145 269.5,-167 339.5,-167 339.5,-145 269.5,-145"/>
<text text-anchor="start" x="272.5" y="-153.2" font-family="Helvetica,sans-Serif" font-size="11.00">varchar[3]</text>
<polygon fill="none" stroke="black" points="10.5,-123 10.5,-145 269.5,-145 269.5,-123 10.5,-123"/>
<text text-anchor="start" x="30.5" y="-131.2" font-family="Helvetica,sans-Serif" font-size="11.00">abbr_fr</text>
<polygon fill="none" stroke="black" points="269.5,-123 269.5,-145 339.5,-145 339.5,-123 269.5,-123"/>
<text text-anchor="start" x="272.5" y="-131.2" font-family="Helvetica,sans-Serif" font-size="11.00">varchar[3]</text>
<polygon fill="none" stroke="black" points="10.5,-101 10.5,-123 269.5,-123 269.5,-101 10.5,-101"/>
<text text-anchor="start" x="30.5" y="-109.2" font-family="Helvetica,sans-Serif" font-size="11.00">abbr_it</text>
<polygon fill="none" stroke="black" points="269.5,-101 269.5,-123 339.5,-123 339.5,-101 269.5,-101"/>
<text text-anchor="start" x="272.5" y="-109.2" font-family="Helvetica,sans-Serif" font-size="11.00">varchar[3]</text>
<polygon fill="none" stroke="black" points="10.5,-79 10.5,-101 269.5,-101 269.5,-79 10.5,-79"/>
<text text-anchor="start" x="30.5" y="-87.2" font-family="Helvetica,sans-Serif" font-size="11.00">abbr_ro</text>
<polygon fill="none" stroke="black" points="269.5,-79 269.5,-101 339.5,-101 339.5,-79 269.5,-79"/>
<text text-anchor="start" x="272.5" y="-87.2" font-family="Helvetica,sans-Serif" font-size="11.00">varchar[3]</text>
<polygon fill="none" stroke="black" points="10.5,-57 10.5,-79 269.5,-79 269.5,-57 10.5,-57"/>
<text text-anchor="start" x="30.5" y="-65.2" font-family="Helvetica,sans-Serif" font-size="11.00">active</text>
<polygon fill="none" stroke="black" points="269.5,-57 269.5,-79 339.5,-79 339.5,-57 269.5,-57"/>
<text text-anchor="start" x="272.5" y="-65.2" font-family="Helvetica,sans-Serif" font-size="11.00">bool[1]</text>
<polygon fill="#ffffff" stroke="transparent" points="10.5,-39 10.5,-57 144.5,-57 144.5,-39 10.5,-39"/>
<polygon fill="none" stroke="black" points="10.5,-39 10.5,-57 144.5,-57 144.5,-39 10.5,-39"/>
<text text-anchor="start" x="13.5" y="-45.2" font-family="Helvetica,sans-Serif" font-size="11.00">&lt; 0</text>
<polygon fill="#ffffff" stroke="transparent" points="144.5,-39 144.5,-57 269.5,-57 269.5,-39 144.5,-39"/>
<polygon fill="none" stroke="black" points="144.5,-39 144.5,-57 269.5,-57 269.5,-39 144.5,-39"/>
<text text-anchor="start" x="259.5" y="-45.2" font-family="Helvetica,sans-Serif" font-size="11.00"> &#160;</text>
<polygon fill="#ffffff" stroke="transparent" points="269.5,-39 269.5,-57 339.5,-57 339.5,-39 269.5,-39"/>
<polygon fill="none" stroke="black" points="269.5,-39 269.5,-57 339.5,-57 339.5,-39 269.5,-39"/>
<text text-anchor="start" x="320.5" y="-45.2" font-family="Helvetica,sans-Serif" font-size="11.00">1 &gt;</text>
<polygon fill="none" stroke="black" stroke-width="2" points="9,-38 9,-366 340,-366 340,-38 9,-38"/>
</a>
</g>
</g>
<!-- tww_od.wastewater_structure_symbol&#45;&gt;wastewater_structure_symbol_plantype -->
<g id="edge1" class="edge">
<title>tww_od.wastewater_structure_symbol:w&#45;&gt;wastewater_structure_symbol_plantype:e</title>
<path fill="none" stroke="black" d="M374.99,-332C363.68,-332 356.49,-332 340.5,-332"/>
<polygon fill="black" stroke="black" points="381.5,-332 389.5,-335.6 385.5,-332 389.5,-332 389.5,-332 389.5,-332 385.5,-332 389.5,-328.4 381.5,-332 381.5,-332"/>
<ellipse fill="none" stroke="black" cx="378.3" cy="-332" rx="3.2" ry="3.2"/>
</g>
</g>
</svg>
