<?xml version="1.0" encoding="UTF-8" standalone="no"?>
<!DOCTYPE svg PUBLIC "-//W3C//DTD SVG 1.1//EN"
 "http://www.w3.org/Graphics/SVG/1.1/DTD/svg11.dtd">
<!-- Generated by graphviz version 2.43.0 (0)
 -->
<!-- Title: oneDegreeRelationshipsDiagram Pages: 1 -->
<svg width="738pt" height="599pt"
 viewBox="0.00 0.00 738.00 599.00" xmlns="http://www.w3.org/2000/svg" xmlns:xlink="http://www.w3.org/1999/xlink">
<g id="graph0" class="graph" transform="scale(1 1) rotate(0) translate(4 595)">
<title>oneDegreeRelationshipsDiagram</title>
<polygon fill="#ffffff" stroke="transparent" points="-4,4 -4,-595 734,-595 734,4 -4,4"/>
<text text-anchor="middle" x="79.5" y="-7.2" font-family="Helvetica,sans-Serif" font-size="11.00">Generated by SchemaSpy</text>
<!-- tww_od.agxx_wastewater_node -->
<g id="node1" class="node">
<title>tww_od.agxx_wastewater_node</title>
<g id="a_node1"><a xlink:href="../../../tww_od/tables/agxx_wastewater_node.html" xlink:title="tww_od.agxx_wastewater_node" target="_top">
<polygon fill="#ffffff" stroke="transparent" points="446,-483 446,-585 722,-585 722,-483 446,-483"/>
<polygon fill="#f5f5f5" stroke="transparent" points="446,-563 446,-585 722,-585 722,-563 446,-563"/>
<polygon fill="none" stroke="black" points="446,-563 446,-585 722,-585 722,-563 446,-563"/>
<text text-anchor="start" x="451" y="-572.2" font-family="Helvetica,sans-Serif" font-weight="bold" font-size="11.00">tww_od.agxx_wastewater_node</text>
<text text-anchor="start" x="680" y="-571.2" font-family="Helvetica,sans-Serif" font-size="11.00">[table]</text>
<polygon fill="none" stroke="black" points="446,-541 446,-563 722,-563 722,-541 446,-541"/>
<image xlink:href="../../images/foreignKeys.png" width="11px" height="12px" preserveAspectRatio="xMinYMin meet" x="451" y="-558"/>
<text text-anchor="start" x="509" y="-549.2" font-family="Helvetica,sans-Serif" font-size="11.00">ag96_is_gateway</text>
<polygon fill="none" stroke="black" points="446,-519 446,-541 722,-541 722,-519 446,-519"/>
<image xlink:href="../../images/foreignKeys.png" width="11px" height="12px" preserveAspectRatio="xMinYMin meet" x="451" y="-536"/>
<text text-anchor="start" x="509" y="-527.2" font-family="Helvetica,sans-Serif" font-size="11.00">ag64_function</text>
<polygon fill="none" stroke="black" points="446,-501 446,-519 722,-519 722,-501 446,-501"/>
<text text-anchor="start" x="449" y="-507.2" font-family="Helvetica,sans-Serif" font-size="11.00">...</text>
<polygon fill="#ffffff" stroke="transparent" points="446,-483 446,-501 722,-501 722,-483 446,-483"/>
<polygon fill="none" stroke="black" points="446,-483 446,-501 722,-501 722,-483 446,-483"/>
<polygon fill="#ffffff" stroke="transparent" points="447,-484 447,-500 537,-500 537,-484 447,-484"/>
<text text-anchor="start" x="449" y="-489.2" font-family="Helvetica,sans-Serif" font-size="11.00">&lt; 2</text>
<polygon fill="#ffffff" stroke="transparent" points="537,-484 537,-500 644,-500 644,-484 537,-484"/>
<text text-anchor="start" x="572" y="-489.2" font-family="Helvetica,sans-Serif" font-size="11.00">0 rows</text>
<polygon fill="#ffffff" stroke="transparent" points="644,-484 644,-500 721,-500 721,-484 644,-484"/>
<text text-anchor="start" x="711" y="-489.2" font-family="Helvetica,sans-Serif" font-size="11.00"> &#160;</text>
<polygon fill="black" stroke="black" points="537,-484 537,-500 537,-500 537,-484 537,-484"/>
<polygon fill="black" stroke="black" points="644,-484 644,-500 644,-500 644,-484 644,-484"/>
</a>
</g>
</g>
<!-- wastewater_node_ag96_is_gateway -->
<g id="node2" class="node">
<title>wastewater_node_ag96_is_gateway</title>
<g id="a_node2"><a xlink:href="../../tables/wastewater_node_ag96_is_gateway.html" xlink:title="wastewater_node_ag96_is_gateway" target="_top">
<polygon fill="#ffffff" stroke="transparent" points="8,-37 8,-587 397,-587 397,-37 8,-37"/>
<polygon fill="#f5f5f5" stroke="transparent" points="10.5,-563 10.5,-585 395.5,-585 395.5,-563 10.5,-563"/>
<polygon fill="none" stroke="black" points="10.5,-563 10.5,-585 395.5,-585 395.5,-563 10.5,-563"/>
<text text-anchor="start" x="15.5" y="-572.2" font-family="Helvetica,sans-Serif" font-weight="bold" font-size="11.00">wastewater_node_ag96_is_gateway</text>
<text text-anchor="start" x="353.5" y="-571.2" font-family="Helvetica,sans-Serif" font-size="11.00">[table]</text>
<polygon fill="none" stroke="black" points="10.5,-541 10.5,-563 289.5,-563 289.5,-541 10.5,-541"/>
<image xlink:href="../../images/primaryKeys.png" width="11px" height="12px" preserveAspectRatio="xMinYMin meet" x="15.5" y="-558"/>
<text text-anchor="start" x="30.5" y="-549.2" font-family="Helvetica,sans-Serif" font-size="11.00">code</text>
<polygon fill="none" stroke="black" points="289.5,-541 289.5,-563 395.5,-563 395.5,-541 289.5,-541"/>
<text text-anchor="start" x="292.5" y="-549.2" font-family="Helvetica,sans-Serif" font-size="11.00">int4[10]</text>
<polygon fill="none" stroke="black" points="10.5,-519 10.5,-541 289.5,-541 289.5,-519 10.5,-519"/>
<text text-anchor="start" x="30.5" y="-527.2" font-family="Helvetica,sans-Serif" font-size="11.00">vsacode</text>
<polygon fill="none" stroke="black" points="289.5,-519 289.5,-541 395.5,-541 395.5,-519 289.5,-519"/>
<text text-anchor="start" x="292.5" y="-527.2" font-family="Helvetica,sans-Serif" font-size="11.00">int4[10]</text>
<polygon fill="none" stroke="black" points="10.5,-497 10.5,-519 289.5,-519 289.5,-497 10.5,-497"/>
<text text-anchor="start" x="30.5" y="-505.2" font-family="Helvetica,sans-Serif" font-size="11.00">value_en</text>
<polygon fill="none" stroke="black" points="289.5,-497 289.5,-519 395.5,-519 395.5,-497 289.5,-497"/>
<text text-anchor="start" x="292.5" y="-505.2" font-family="Helvetica,sans-Serif" font-size="11.00">varchar[100]</text>
<polygon fill="none" stroke="black" points="10.5,-475 10.5,-497 289.5,-497 289.5,-475 10.5,-475"/>
<text text-anchor="start" x="30.5" y="-483.2" font-family="Helvetica,sans-Serif" font-size="11.00">value_de</text>
<polygon fill="none" stroke="black" points="289.5,-475 289.5,-497 395.5,-497 395.5,-475 289.5,-475"/>
<text text-anchor="start" x="292.5" y="-483.2" font-family="Helvetica,sans-Serif" font-size="11.00">varchar[100]</text>
<polygon fill="none" stroke="black" points="10.5,-453 10.5,-475 289.5,-475 289.5,-453 10.5,-453"/>
<text text-anchor="start" x="30.5" y="-461.2" font-family="Helvetica,sans-Serif" font-size="11.00">value_fr</text>
<polygon fill="none" stroke="black" points="289.5,-453 289.5,-475 395.5,-475 395.5,-453 289.5,-453"/>
<text text-anchor="start" x="292.5" y="-461.2" font-family="Helvetica,sans-Serif" font-size="11.00">varchar[100]</text>
<polygon fill="none" stroke="black" points="10.5,-431 10.5,-453 289.5,-453 289.5,-431 10.5,-431"/>
<text text-anchor="start" x="30.5" y="-439.2" font-family="Helvetica,sans-Serif" font-size="11.00">value_it</text>
<polygon fill="none" stroke="black" points="289.5,-431 289.5,-453 395.5,-453 395.5,-431 289.5,-431"/>
<text text-anchor="start" x="292.5" y="-439.2" font-family="Helvetica,sans-Serif" font-size="11.00">varchar[100]</text>
<polygon fill="none" stroke="black" points="10.5,-409 10.5,-431 289.5,-431 289.5,-409 10.5,-409"/>
<text text-anchor="start" x="30.5" y="-417.2" font-family="Helvetica,sans-Serif" font-size="11.00">value_ro</text>
<polygon fill="none" stroke="black" points="289.5,-409 289.5,-431 395.5,-431 395.5,-409 289.5,-409"/>
<text text-anchor="start" x="292.5" y="-417.2" font-family="Helvetica,sans-Serif" font-size="11.00">varchar[100]</text>
<polygon fill="none" stroke="black" points="10.5,-387 10.5,-409 289.5,-409 289.5,-387 10.5,-387"/>
<text text-anchor="start" x="30.5" y="-395.2" font-family="Helvetica,sans-Serif" font-size="11.00">abbr_en</text>
<polygon fill="none" stroke="black" points="289.5,-387 289.5,-409 395.5,-409 395.5,-387 289.5,-387"/>
<text text-anchor="start" x="292.5" y="-395.2" font-family="Helvetica,sans-Serif" font-size="11.00">varchar[3]</text>
<polygon fill="none" stroke="black" points="10.5,-365 10.5,-387 289.5,-387 289.5,-365 10.5,-365"/>
<text text-anchor="start" x="30.5" y="-373.2" font-family="Helvetica,sans-Serif" font-size="11.00">abbr_de</text>
<polygon fill="none" stroke="black" points="289.5,-365 289.5,-387 395.5,-387 395.5,-365 289.5,-365"/>
<text text-anchor="start" x="292.5" y="-373.2" font-family="Helvetica,sans-Serif" font-size="11.00">varchar[3]</text>
<polygon fill="none" stroke="black" points="10.5,-343 10.5,-365 289.5,-365 289.5,-343 10.5,-343"/>
<text text-anchor="start" x="30.5" y="-351.2" font-family="Helvetica,sans-Serif" font-size="11.00">abbr_fr</text>
<polygon fill="none" stroke="black" points="289.5,-343 289.5,-365 395.5,-365 395.5,-343 289.5,-343"/>
<text text-anchor="start" x="292.5" y="-351.2" font-family="Helvetica,sans-Serif" font-size="11.00">varchar[3]</text>
<polygon fill="none" stroke="black" points="10.5,-321 10.5,-343 289.5,-343 289.5,-321 10.5,-321"/>
<text text-anchor="start" x="30.5" y="-329.2" font-family="Helvetica,sans-Serif" font-size="11.00">abbr_it</text>
<polygon fill="none" stroke="black" points="289.5,-321 289.5,-343 395.5,-343 395.5,-321 289.5,-321"/>
<text text-anchor="start" x="292.5" y="-329.2" font-family="Helvetica,sans-Serif" font-size="11.00">varchar[3]</text>
<polygon fill="none" stroke="black" points="10.5,-299 10.5,-321 289.5,-321 289.5,-299 10.5,-299"/>
<text text-anchor="start" x="30.5" y="-307.2" font-family="Helvetica,sans-Serif" font-size="11.00">abbr_ro</text>
<polygon fill="none" stroke="black" points="289.5,-299 289.5,-321 395.5,-321 395.5,-299 289.5,-299"/>
<text text-anchor="start" x="292.5" y="-307.2" font-family="Helvetica,sans-Serif" font-size="11.00">varchar[3]</text>
<polygon fill="none" stroke="black" points="10.5,-277 10.5,-299 289.5,-299 289.5,-277 10.5,-277"/>
<text text-anchor="start" x="30.5" y="-285.2" font-family="Helvetica,sans-Serif" font-size="11.00">active</text>
<polygon fill="none" stroke="black" points="289.5,-277 289.5,-299 395.5,-299 395.5,-277 289.5,-277"/>
<text text-anchor="start" x="292.5" y="-285.2" font-family="Helvetica,sans-Serif" font-size="11.00">bool[1]</text>
<polygon fill="none" stroke="black" points="10.5,-255 10.5,-277 289.5,-277 289.5,-255 10.5,-255"/>
<text text-anchor="start" x="30.5" y="-263.2" font-family="Helvetica,sans-Serif" font-size="11.00">description_en</text>
<polygon fill="none" stroke="black" points="289.5,-255 289.5,-277 395.5,-277 395.5,-255 289.5,-255"/>
<text text-anchor="start" x="292.5" y="-263.2" font-family="Helvetica,sans-Serif" font-size="11.00">text[2147483647]</text>
<polygon fill="none" stroke="black" points="10.5,-233 10.5,-255 289.5,-255 289.5,-233 10.5,-233"/>
<text text-anchor="start" x="30.5" y="-241.2" font-family="Helvetica,sans-Serif" font-size="11.00">description_de</text>
<polygon fill="none" stroke="black" points="289.5,-233 289.5,-255 395.5,-255 395.5,-233 289.5,-233"/>
<text text-anchor="start" x="292.5" y="-241.2" font-family="Helvetica,sans-Serif" font-size="11.00">text[2147483647]</text>
<polygon fill="none" stroke="black" points="10.5,-211 10.5,-233 289.5,-233 289.5,-211 10.5,-211"/>
<text text-anchor="start" x="30.5" y="-219.2" font-family="Helvetica,sans-Serif" font-size="11.00">description_fr</text>
<polygon fill="none" stroke="black" points="289.5,-211 289.5,-233 395.5,-233 395.5,-211 289.5,-211"/>
<text text-anchor="start" x="292.5" y="-219.2" font-family="Helvetica,sans-Serif" font-size="11.00">text[2147483647]</text>
<polygon fill="none" stroke="black" points="10.5,-189 10.5,-211 289.5,-211 289.5,-189 10.5,-189"/>
<text text-anchor="start" x="30.5" y="-197.2" font-family="Helvetica,sans-Serif" font-size="11.00">description_it</text>
<polygon fill="none" stroke="black" points="289.5,-189 289.5,-211 395.5,-211 395.5,-189 289.5,-189"/>
<text text-anchor="start" x="292.5" y="-197.2" font-family="Helvetica,sans-Serif" font-size="11.00">text[2147483647]</text>
<polygon fill="none" stroke="black" points="10.5,-167 10.5,-189 289.5,-189 289.5,-167 10.5,-167"/>
<text text-anchor="start" x="30.5" y="-175.2" font-family="Helvetica,sans-Serif" font-size="11.00">description_ro</text>
<polygon fill="none" stroke="black" points="289.5,-167 289.5,-189 395.5,-189 395.5,-167 289.5,-167"/>
<text text-anchor="start" x="292.5" y="-175.2" font-family="Helvetica,sans-Serif" font-size="11.00">text[2147483647]</text>
<polygon fill="none" stroke="black" points="10.5,-145 10.5,-167 289.5,-167 289.5,-145 10.5,-145"/>
<text text-anchor="start" x="30.5" y="-153.2" font-family="Helvetica,sans-Serif" font-size="11.00">display_en</text>
<polygon fill="none" stroke="black" points="289.5,-145 289.5,-167 395.5,-167 395.5,-145 289.5,-145"/>
<text text-anchor="start" x="292.5" y="-153.2" font-family="Helvetica,sans-Serif" font-size="11.00">varchar[100]</text>
<polygon fill="none" stroke="black" points="10.5,-123 10.5,-145 289.5,-145 289.5,-123 10.5,-123"/>
<text text-anchor="start" x="30.5" y="-131.2" font-family="Helvetica,sans-Serif" font-size="11.00">display_de</text>
<polygon fill="none" stroke="black" points="289.5,-123 289.5,-145 395.5,-145 395.5,-123 289.5,-123"/>
<text text-anchor="start" x="292.5" y="-131.2" font-family="Helvetica,sans-Serif" font-size="11.00">varchar[100]</text>
<polygon fill="none" stroke="black" points="10.5,-101 10.5,-123 289.5,-123 289.5,-101 10.5,-101"/>
<text text-anchor="start" x="30.5" y="-109.2" font-family="Helvetica,sans-Serif" font-size="11.00">display_fr</text>
<polygon fill="none" stroke="black" points="289.5,-101 289.5,-123 395.5,-123 395.5,-101 289.5,-101"/>
<text text-anchor="start" x="292.5" y="-109.2" font-family="Helvetica,sans-Serif" font-size="11.00">varchar[100]</text>
<polygon fill="none" stroke="black" points="10.5,-79 10.5,-101 289.5,-101 289.5,-79 10.5,-79"/>
<text text-anchor="start" x="30.5" y="-87.2" font-family="Helvetica,sans-Serif" font-size="11.00">display_it</text>
<polygon fill="none" stroke="black" points="289.5,-79 289.5,-101 395.5,-101 395.5,-79 289.5,-79"/>
<text text-anchor="start" x="292.5" y="-87.2" font-family="Helvetica,sans-Serif" font-size="11.00">varchar[100]</text>
<polygon fill="none" stroke="black" points="10.5,-57 10.5,-79 289.5,-79 289.5,-57 10.5,-57"/>
<text text-anchor="start" x="30.5" y="-65.2" font-family="Helvetica,sans-Serif" font-size="11.00">display_ro</text>
<polygon fill="none" stroke="black" points="289.5,-57 289.5,-79 395.5,-79 395.5,-57 289.5,-57"/>
<text text-anchor="start" x="292.5" y="-65.2" font-family="Helvetica,sans-Serif" font-size="11.00">varchar[100]</text>
<polygon fill="#ffffff" stroke="transparent" points="10.5,-39 10.5,-57 395.5,-57 395.5,-39 10.5,-39"/>
<polygon fill="none" stroke="black" points="10.5,-39 10.5,-57 395.5,-57 395.5,-39 10.5,-39"/>
<polygon fill="#ffffff" stroke="transparent" points="11.5,-40 11.5,-56 143.5,-56 143.5,-40 11.5,-40"/>
<text text-anchor="start" x="13.5" y="-45.2" font-family="Helvetica,sans-Serif" font-size="11.00">&lt; 0</text>
<polygon fill="#ffffff" stroke="transparent" points="143.5,-40 143.5,-56 263.5,-56 263.5,-40 143.5,-40"/>
<text text-anchor="start" x="199.5" y="-45.2" font-family="Helvetica,sans-Serif" font-size="11.00"> &#160;</text>
<polygon fill="#ffffff" stroke="transparent" points="263.5,-40 263.5,-56 394.5,-56 394.5,-40 263.5,-40"/>
<text text-anchor="start" x="372.5" y="-45.2" font-family="Helvetica,sans-Serif" font-size="11.00">1 &gt;</text>
<polygon fill="black" stroke="black" points="143.5,-40 143.5,-56 143.5,-56 143.5,-40 143.5,-40"/>
<polygon fill="black" stroke="black" points="263.5,-40 263.5,-56 263.5,-56 263.5,-40 263.5,-40"/>
<polygon fill="none" stroke="black" stroke-width="2" points="9,-38 9,-586 396,-586 396,-38 9,-38"/>
</a>
</g>
</g>
<!-- tww_od.agxx_wastewater_node&#45;&gt;wastewater_node_ag96_is_gateway -->
<g id="edge1" class="edge">
<title>tww_od.agxx_wastewater_node:w&#45;&gt;wastewater_node_ag96_is_gateway:e</title>
<path fill="none" stroke="black" d="M430.28,-552C419.29,-552 412.16,-552 396.5,-552"/>
<polygon fill="black" stroke="black" points="437,-552 445,-555.6 441,-552 445,-552 445,-552 445,-552 441,-552 445,-548.4 437,-552 437,-552"/>
<ellipse fill="none" stroke="black" cx="433.8" cy="-552" rx="3.2" ry="3.2"/>
</g>
</g>
</svg>
