<?xml version="1.0" encoding="UTF-8" standalone="no"?>
<!-- Generator: Adobe Illustrator 24.0.1, SVG Export Plug-In . SVG Version: 6.00 Build 0)  -->

<svg
   version="1.1"
   id="svg2985"
   inkscape:export-filename="/home/kk/Documents/svg/wastewater-profile.png"
   inkscape:export-xdpi="90"
   inkscape:export-ydpi="90"
   inkscape:version="1.3 (0e150ed6c4, 2023-07-21)"
   sodipodi:docname="interlis_export_ag6496.svg"
   x="0px"
   y="0px"
   viewBox="0 0 48 48"
   style="enable-background:new 0 0 48 48;"
   xml:space="preserve"
   xmlns:inkscape="http://www.inkscape.org/namespaces/inkscape"
   xmlns:sodipodi="http://sodipodi.sourceforge.net/DTD/sodipodi-0.dtd"
   xmlns="http://www.w3.org/2000/svg"
   xmlns:svg="http://www.w3.org/2000/svg"><defs
   id="defs18"><style
     id="style367">.cls-1{fill:#c800d7;}.cls-2{fill:#969;}.cls-3{fill:#fff;}</style></defs>&#10;<style
   type="text/css"
   id="style2">&#10;	.st0{fill:none;}&#10;	.st1{fill:#264AA1;}&#10;	.st2{fill:#FFFFFF;}&#10;	.st3{fill:#004489;}&#10;	.st4{fill:#DA2520;}&#10;	.st5{fill:#231F20;}&#10;</style>&#10;<sodipodi:namedview
   bordercolor="#666666"
   borderopacity="1.0"
   id="base"
   inkscape:current-layer="svg2985"
   inkscape:cx="-3.1249998"
   inkscape:cy="37.937498"
   inkscape:document-units="px"
   inkscape:grid-bbox="true"
   inkscape:pageopacity="0.0"
   inkscape:pageshadow="2"
   inkscape:window-height="1009"
   inkscape:window-maximized="1"
   inkscape:window-width="1920"
   inkscape:window-x="3832"
   inkscape:window-y="-4"
   inkscape:zoom="8.0000004"
   pagecolor="#ffffff"
   showgrid="true"
   inkscape:showpageshadow="2"
   inkscape:pagecheckerboard="0"
   inkscape:deskcolor="#d1d1d1">&#10;	</sodipodi:namedview>&#10;<g
   id="g7">&#10;	<rect
   x="14"
   y="11.2"
   transform="matrix(0.7071 -0.7071 0.7071 0.7071 -11.654 28.5528)"
   class="st0"
   width="29.3"
   height="34.3"
   id="rect5" />&#10;</g>&#10;&#10;<path
   id="path3134"
   inkscape:connector-curvature="0"
   class="st2"
   d="M2,19c-1.1-4.1,1-6.4,2.9-8.5c0.5,3.5-3.7,5.6,0.3,11.1  S2.8,21.9,2,19z" />&#10;<path
   class="st3"
   d="M48,35V21.2c-14.8,0-26.8,12-26.8,26.8H35C35,40.8,40.8,35,48,35z"
   id="path11" />&#10;<path
   class="st4"
   d="M35,48h13V35C40.8,35,35,40.8,35,48z"
   id="path13" />&#10;&#10;<g
   id="g1"
   transform="matrix(0.111165,0,0,0.111165,0.39101004,0.02070294)"><circle
     class="cls-1"
     cx="100"
     cy="100"
     r="100"
     id="circle371" /><circle
     class="cls-2"
     cx="100"
     cy="100"
     r="100"
     id="circle373" /><path
     class="cls-3"
     d="M 132.83,45.53 A 46.15,46.15 0 0 0 99.92,31.68 46.94,46.94 0 0 0 53.13,78.55 158.2,158.2 0 0 0 73.56,155.84 c 0.87,1.51 2.3,3.82 4.25,6.85 a 12.25,12.25 0 0 0 10.34,5.63 h 23.7 a 12.25,12.25 0 0 0 10.34,-5.63 c 2,-3 3.39,-5.34 4.25,-6.85 A 158.28,158.28 0 0 0 146.87,79.62 48.24,48.24 0 0 0 132.83,45.53 Z m -9.85,33 A 135.88,135.88 0 0 1 105.7,144 a 0.91,0.91 0 0 1 -0.78,0.46 H 95.09 A 0.91,0.91 0 0 1 94.3,144 133.87,133.87 0 0 1 77,78.55 a 23,23 0 1 1 46,0 z"
     id="path375" /><rect
     style="fill:#ffffff;fill-opacity:1;stroke-width:0.377953"
     id="rect1"
     width="100.1"
     height="200"
     x="100"
     y="0" /><path
     style="fill:#0000ff;fill-opacity:1;fill-rule:nonzero;stroke:none;stroke-width:0.76784;stroke-opacity:1"
     d="M 100,0.07976326 100.06788,200 c 43.60263,-0.0795 83.06412,-32.01892 81.52326,-78.21447 V 0.01189387 c -27.06133,-0.03739381 -54.52979,0.02119239 -81.59113,0.06787707 z m 21.23286,57.88175974 4.74296,12.350708 12.90467,0.746333 -10.2804,8.330105 3.27432,12.519233 -11.09899,-7.222634 -10.88231,6.981878 3.41878,-12.784062 -9.9915,-8.185651 13.21767,-0.698189 z m 39.82154,0.650038 4.7911,12.326628 12.92876,0.67411 -10.25633,8.378257 3.34654,12.495154 -11.12306,-7.150404 -10.85823,7.030029 3.37062,-12.808141 -10.03964,-8.1375 13.19358,-0.746333 z m -20.00707,33.994523 5.05593,12.230326 12.92876,0.38521 -10.03965,8.59493 3.61139,12.42293 -11.2916,-6.90965 -10.6897,7.27078 3.08171,-12.85628 -10.23225,-7.92082 13.19359,-1.03525 z"
     id="path1890"
     sodipodi:nodetypes="cccccccccccccccccccccccccccccccccccccc" /><path
     sodipodi:type="star"
     style="fill:#ffffff;fill-opacity:1;fill-rule:nonzero;stroke:#000000;stroke-width:0.996649;stroke-opacity:1"
     id="path2819"
     sodipodi:sides="5"
     sodipodi:cx="-137.38075"
     sodipodi:cy="-938.08154"
     sodipodi:r1="24.266741"
     sodipodi:r2="10.427473"
     sodipodi:arg1="-1.5470884"
     sodipodi:arg2="-0.89679994"
     inkscape:flatsided="false"
     inkscape:rounded="0"
     inkscape:randomized="0"
     d="m -136.80549,-962.34146 5.93266,16.11258 16.7424,1.19771 -13.49069,10.62137 4.0346,16.29308 -14.27037,-9.54823 -14.24888,8.87197 4.67111,-16.52249 -12.84088,-10.80991 17.15727,-0.66323 z"
     transform="matrix(0.77036475,-0.00997632,0.00997651,0.77035016,236.16012,797.95885)" /><path
     sodipodi:type="star"
     style="fill:#ffffff;fill-opacity:1;fill-rule:nonzero;stroke:#000000;stroke-width:0.996649;stroke-opacity:1"
     id="path2821"
     sodipodi:sides="5"
     sodipodi:cx="-137.38075"
     sodipodi:cy="-938.08154"
     sodipodi:r1="24.266741"
     sodipodi:r2="10.427473"
     sodipodi:arg1="-1.5470884"
     sodipodi:arg2="-0.89679994"
     inkscape:flatsided="false"
     inkscape:rounded="0"
     inkscape:randomized="0"
     d="m -136.80549,-962.34146 5.93266,16.11258 16.7424,1.19771 -13.49069,10.62137 4.0346,16.29308 -14.27037,-9.54823 -14.24888,8.87197 4.67111,-16.52249 -12.84088,-10.80991 17.15727,-0.66323 z"
     transform="matrix(0.77030563,-0.01381649,0.01381675,0.77029104,279.72038,797.95532)" /><path
     sodipodi:type="star"
     style="fill:#ffffff;fill-opacity:1;fill-rule:nonzero;stroke:#000000;stroke-width:0.996649;stroke-opacity:1"
     id="path2823"
     sodipodi:sides="5"
     sodipodi:cx="-137.38075"
     sodipodi:cy="-938.08154"
     sodipodi:r1="24.266741"
     sodipodi:r2="10.427473"
     sodipodi:arg1="-1.5470884"
     sodipodi:arg2="-0.89679994"
     inkscape:flatsided="false"
     inkscape:rounded="0"
     inkscape:randomized="0"
     d="m -136.80549,-962.34146 5.93266,16.11258 16.7424,1.19771 -13.49069,10.62137 4.0346,16.29308 -14.27037,-9.54823 -14.24888,8.87197 4.67111,-16.52249 -12.84088,-10.80991 17.15727,-0.66323 z"
     transform="matrix(0.76979962,-0.03113717,0.03113776,0.76978503,276.34826,828.89774)" /></g><polygon
   class="st5"
   points="16.4,18.2 20.7,22.5 18.9,24.4 26.8,25.1 26.2,17.1 24.3,19 20,14.7 "
   id="polygon15"
   transform="translate(2.1249999,3.375)"
   style="enable-background:new 0 0 48 48" /></svg>
