<?xml version="1.0" encoding="UTF-8" standalone="no"?>
<!DOCTYPE svg PUBLIC "-//W3C//DTD SVG 1.1//EN"
 "http://www.w3.org/Graphics/SVG/1.1/DTD/svg11.dtd">
<!-- Generated by graphviz version 2.43.0 (0)
 -->
<!-- Title: oneDegreeRelationshipsDiagram Pages: 1 -->
<svg width="693pt" height="417pt"
 viewBox="0.00 0.00 693.00 417.00" xmlns="http://www.w3.org/2000/svg" xmlns:xlink="http://www.w3.org/1999/xlink">
<g id="graph0" class="graph" transform="scale(1 1) rotate(0) translate(4 413)">
<title>oneDegreeRelationshipsDiagram</title>
<polygon fill="#ffffff" stroke="transparent" points="-4,4 -4,-413 689,-413 689,4 -4,4"/>
<text text-anchor="middle" x="79.5" y="-7.2" font-family="Helvetica,sans-Serif" font-size="11.00">Generated by SchemaSpy</text>
<!-- agxx_reach -->
<g id="node1" class="node">
<title>agxx_reach</title>
<g id="a_node1"><a xlink:href="../../tables/agxx_reach.html" xlink:title="agxx_reach" target="_top">
<polygon fill="#ffffff" stroke="transparent" points="348,-273 348,-405 677,-405 677,-273 348,-273"/>
<polygon fill="#f5f5f5" stroke="transparent" points="350.5,-381 350.5,-403 675.5,-403 675.5,-381 350.5,-381"/>
<polygon fill="none" stroke="black" points="350.5,-381 350.5,-403 675.5,-403 675.5,-381 350.5,-381"/>
<text text-anchor="start" x="355.5" y="-390.2" font-family="Helvetica,sans-Serif" font-weight="bold" font-size="11.00">agxx_reach</text>
<text text-anchor="start" x="633.5" y="-389.2" font-family="Helvetica,sans-Serif" font-size="11.00">[table]</text>
<polygon fill="none" stroke="black" points="350.5,-359 350.5,-381 569.5,-381 569.5,-359 350.5,-359"/>
<image xlink:href="../../images/primaryKeys.png" width="11px" height="12px" preserveAspectRatio="xMinYMin meet" x="355.5" y="-376"/>
<text text-anchor="start" x="370.5" y="-367.2" font-family="Helvetica,sans-Serif" font-size="11.00">uuid</text>
<polygon fill="none" stroke="black" points="569.5,-359 569.5,-381 675.5,-381 675.5,-359 569.5,-359"/>
<text text-anchor="start" x="572.5" y="-367.2" font-family="Helvetica,sans-Serif" font-size="11.00">uuid[2147483647]</text>
<polygon fill="none" stroke="black" points="350.5,-337 350.5,-359 569.5,-359 569.5,-337 350.5,-337"/>
<image xlink:href="../../images/foreignKeys.png" width="11px" height="12px" preserveAspectRatio="xMinYMin meet" x="355.5" y="-354"/>
<text text-anchor="start" x="370.5" y="-345.2" font-family="Helvetica,sans-Serif" font-size="11.00">fk_reach</text>
<polygon fill="none" stroke="black" points="569.5,-337 569.5,-359 675.5,-359 675.5,-337 569.5,-337"/>
<text text-anchor="start" x="572.5" y="-345.2" font-family="Helvetica,sans-Serif" font-size="11.00">varchar[16]</text>
<polygon fill="none" stroke="black" points="350.5,-315 350.5,-337 569.5,-337 569.5,-315 350.5,-315"/>
<text text-anchor="start" x="370.5" y="-323.2" font-family="Helvetica,sans-Serif" font-size="11.00">ag96_clear_height_planned</text>
<polygon fill="none" stroke="black" points="569.5,-315 569.5,-337 675.5,-337 675.5,-315 569.5,-315"/>
<text text-anchor="start" x="572.5" y="-323.2" font-family="Helvetica,sans-Serif" font-size="11.00">int4[10]</text>
<polygon fill="none" stroke="black" points="350.5,-293 350.5,-315 569.5,-315 569.5,-293 350.5,-293"/>
<text text-anchor="start" x="370.5" y="-301.2" font-family="Helvetica,sans-Serif" font-size="11.00">ag96_clear_width_planned</text>
<polygon fill="none" stroke="black" points="569.5,-293 569.5,-315 675.5,-315 675.5,-293 569.5,-293"/>
<text text-anchor="start" x="572.5" y="-301.2" font-family="Helvetica,sans-Serif" font-size="11.00">int4[10]</text>
<polygon fill="#ffffff" stroke="transparent" points="350.5,-275 350.5,-293 675.5,-293 675.5,-275 350.5,-275"/>
<polygon fill="none" stroke="black" points="350.5,-275 350.5,-293 675.5,-293 675.5,-275 350.5,-275"/>
<polygon fill="#ffffff" stroke="transparent" points="351.5,-276 351.5,-292 463.5,-292 463.5,-276 351.5,-276"/>
<text text-anchor="start" x="353.5" y="-281.2" font-family="Helvetica,sans-Serif" font-size="11.00">&lt; 1</text>
<polygon fill="#ffffff" stroke="transparent" points="463.5,-276 463.5,-292 563.5,-292 563.5,-276 463.5,-276"/>
<text text-anchor="start" x="509.5" y="-281.2" font-family="Helvetica,sans-Serif" font-size="11.00"> &#160;</text>
<polygon fill="#ffffff" stroke="transparent" points="563.5,-276 563.5,-292 674.5,-292 674.5,-276 563.5,-276"/>
<text text-anchor="start" x="652.5" y="-281.2" font-family="Helvetica,sans-Serif" font-size="11.00">0 &gt;</text>
<polygon fill="black" stroke="black" points="463.5,-276 463.5,-292 463.5,-292 463.5,-276 463.5,-276"/>
<polygon fill="black" stroke="black" points="563.5,-276 563.5,-292 563.5,-292 563.5,-276 563.5,-276"/>
<polygon fill="none" stroke="black" stroke-width="2" points="349,-274 349,-404 676,-404 676,-274 349,-274"/>
</a>
</g>
</g>
<!-- reach -->
<g id="node2" class="node">
<title>reach</title>
<g id="a_node2"><a xlink:href="../../tables/reach.html" xlink:title="reach" target="_top">
<polygon fill="#ffffff" stroke="transparent" points="8,-37 8,-381 299,-381 299,-37 8,-37"/>
<polygon fill="#f5f5f5" stroke="transparent" points="8.5,-359 8.5,-381 299.5,-381 299.5,-359 8.5,-359"/>
<polygon fill="none" stroke="black" points="8.5,-359 8.5,-381 299.5,-381 299.5,-359 8.5,-359"/>
<text text-anchor="start" x="13.5" y="-368.2" font-family="Helvetica,sans-Serif" font-weight="bold" font-size="11.00">reach</text>
<text text-anchor="start" x="257.5" y="-367.2" font-family="Helvetica,sans-Serif" font-size="11.00">[table]</text>
<polygon fill="none" stroke="black" points="8.5,-337 8.5,-359 299.5,-359 299.5,-337 8.5,-337"/>
<image xlink:href="../../images/primaryKeys.png" width="11px" height="12px" preserveAspectRatio="xMinYMin meet" x="13.5" y="-354"/>
<text text-anchor="start" x="28.5" y="-345.2" font-family="Helvetica,sans-Serif" font-size="11.00">obj_id</text>
<polygon fill="none" stroke="black" points="8.5,-315 8.5,-337 299.5,-337 299.5,-315 8.5,-315"/>
<image xlink:href="../../images/foreignKeys.png" width="11px" height="12px" preserveAspectRatio="xMinYMin meet" x="13.5" y="-332"/>
<text text-anchor="start" x="28.5" y="-323.2" font-family="Helvetica,sans-Serif" font-size="11.00">elevation_determination</text>
<polygon fill="none" stroke="black" points="8.5,-293 8.5,-315 299.5,-315 299.5,-293 8.5,-293"/>
<image xlink:href="../../images/foreignKeys.png" width="11px" height="12px" preserveAspectRatio="xMinYMin meet" x="13.5" y="-310"/>
<text text-anchor="start" x="28.5" y="-301.2" font-family="Helvetica,sans-Serif" font-size="11.00">horizontal_positioning</text>
<polygon fill="none" stroke="black" points="8.5,-271 8.5,-293 299.5,-293 299.5,-271 8.5,-271"/>
<image xlink:href="../../images/foreignKeys.png" width="11px" height="12px" preserveAspectRatio="xMinYMin meet" x="13.5" y="-288"/>
<text text-anchor="start" x="28.5" y="-279.2" font-family="Helvetica,sans-Serif" font-size="11.00">inside_coating</text>
<polygon fill="none" stroke="black" points="8.5,-249 8.5,-271 299.5,-271 299.5,-249 8.5,-249"/>
<image xlink:href="../../images/foreignKeys.png" width="11px" height="12px" preserveAspectRatio="xMinYMin meet" x="13.5" y="-266"/>
<text text-anchor="start" x="28.5" y="-257.2" font-family="Helvetica,sans-Serif" font-size="11.00">leak_protection</text>
<polygon fill="none" stroke="black" points="8.5,-227 8.5,-249 299.5,-249 299.5,-227 8.5,-227"/>
<image xlink:href="../../images/foreignKeys.png" width="11px" height="12px" preserveAspectRatio="xMinYMin meet" x="13.5" y="-244"/>
<text text-anchor="start" x="28.5" y="-235.2" font-family="Helvetica,sans-Serif" font-size="11.00">material</text>
<polygon fill="#ffffff" stroke="transparent" points="8.5,-205 8.5,-227 299.5,-227 299.5,-205 8.5,-205"/>
<polygon fill="none" stroke="black" points="8.5,-205 8.5,-227 299.5,-227 299.5,-205 8.5,-205"/>
<text text-anchor="start" x="28.5" y="-213.2" font-family="Helvetica,sans-Serif" font-size="11.00">progression3d_geometry</text>
<polygon fill="none" stroke="black" points="8.5,-183 8.5,-205 299.5,-205 299.5,-183 8.5,-183"/>
<image xlink:href="../../images/foreignKeys.png" width="11px" height="12px" preserveAspectRatio="xMinYMin meet" x="13.5" y="-200"/>
<text text-anchor="start" x="28.5" y="-191.2" font-family="Helvetica,sans-Serif" font-size="11.00">reliner_material</text>
<polygon fill="none" stroke="black" points="8.5,-161 8.5,-183 299.5,-183 299.5,-161 8.5,-161"/>
<image xlink:href="../../images/foreignKeys.png" width="11px" height="12px" preserveAspectRatio="xMinYMin meet" x="13.5" y="-178"/>
<text text-anchor="start" x="28.5" y="-169.2" font-family="Helvetica,sans-Serif" font-size="11.00">relining_construction</text>
<polygon fill="none" stroke="black" points="8.5,-139 8.5,-161 299.5,-161 299.5,-139 8.5,-139"/>
<image xlink:href="../../images/foreignKeys.png" width="11px" height="12px" preserveAspectRatio="xMinYMin meet" x="13.5" y="-156"/>
<text text-anchor="start" x="28.5" y="-147.2" font-family="Helvetica,sans-Serif" font-size="11.00">relining_kind</text>
<polygon fill="none" stroke="black" points="8.5,-117 8.5,-139 299.5,-139 299.5,-117 8.5,-117"/>
<image xlink:href="../../images/foreignKeys.png" width="11px" height="12px" preserveAspectRatio="xMinYMin meet" x="13.5" y="-134"/>
<text text-anchor="start" x="28.5" y="-125.2" font-family="Helvetica,sans-Serif" font-size="11.00">fk_reach_point_from</text>
<polygon fill="none" stroke="black" points="8.5,-95 8.5,-117 299.5,-117 299.5,-95 8.5,-95"/>
<image xlink:href="../../images/foreignKeys.png" width="11px" height="12px" preserveAspectRatio="xMinYMin meet" x="13.5" y="-112"/>
<text text-anchor="start" x="28.5" y="-103.2" font-family="Helvetica,sans-Serif" font-size="11.00">fk_reach_point_to</text>
<polygon fill="none" stroke="black" points="8.5,-73 8.5,-95 299.5,-95 299.5,-73 8.5,-73"/>
<image xlink:href="../../images/foreignKeys.png" width="11px" height="12px" preserveAspectRatio="xMinYMin meet" x="13.5" y="-90"/>
<text text-anchor="start" x="28.5" y="-81.2" font-family="Helvetica,sans-Serif" font-size="11.00">fk_pipe_profile</text>
<polygon fill="none" stroke="black" points="8.5,-55 8.5,-73 299.5,-73 299.5,-55 8.5,-55"/>
<text text-anchor="start" x="11.5" y="-61.2" font-family="Helvetica,sans-Serif" font-size="11.00">...</text>
<polygon fill="#ffffff" stroke="transparent" points="8.5,-37 8.5,-55 299.5,-55 299.5,-37 8.5,-37"/>
<polygon fill="none" stroke="black" points="8.5,-37 8.5,-55 299.5,-55 299.5,-37 8.5,-37"/>
<polygon fill="#ffffff" stroke="transparent" points="9.5,-38 9.5,-54 114.5,-54 114.5,-38 9.5,-38"/>
<text text-anchor="start" x="11.5" y="-43.2" font-family="Helvetica,sans-Serif" font-size="11.00">&lt; 12</text>
<polygon fill="#ffffff" stroke="transparent" points="114.5,-38 114.5,-54 200.5,-54 200.5,-38 114.5,-38"/>
<text text-anchor="start" x="153.5" y="-43.2" font-family="Helvetica,sans-Serif" font-size="11.00"> &#160;</text>
<polygon fill="#ffffff" stroke="transparent" points="200.5,-38 200.5,-54 298.5,-54 298.5,-38 200.5,-38"/>
<text text-anchor="start" x="276.5" y="-43.2" font-family="Helvetica,sans-Serif" font-size="11.00">3 &gt;</text>
<polygon fill="black" stroke="black" points="114.5,-38 114.5,-54 114.5,-54 114.5,-38 114.5,-38"/>
<polygon fill="black" stroke="black" points="200.5,-38 200.5,-54 200.5,-54 200.5,-38 200.5,-38"/>
</a>
</g>
</g>
<!-- agxx_reach&#45;&gt;reach -->
<g id="edge1" class="edge">
<title>agxx_reach:w&#45;&gt;reach:e</title>
<path fill="none" stroke="black" d="M334.99,-348C323.68,-348 316.49,-348 300.5,-348"/>
<polygon fill="black" stroke="black" points="341.5,-348 349.5,-351.6 345.5,-348 349.5,-348 349.5,-348 349.5,-348 345.5,-348 349.5,-344.4 341.5,-348 341.5,-348"/>
<ellipse fill="none" stroke="black" cx="338.3" cy="-348" rx="3.2" ry="3.2"/>
</g>
</g>
</svg>
