<?xml version="1.0" encoding="UTF-8" standalone="no"?>
<!DOCTYPE svg PUBLIC "-//W3C//DTD SVG 1.1//EN"
 "http://www.w3.org/Graphics/SVG/1.1/DTD/svg11.dtd">
<!-- Generated by graphviz version 2.47.1 (20210515.0534)
 -->
<!-- Title: oneDegreeRelationshipsDiagram Pages: 1 -->
<svg width="821pt" height="1091pt"
 viewBox="0.00 0.00 821.00 1091.00" xmlns="http://www.w3.org/2000/svg" xmlns:xlink="http://www.w3.org/1999/xlink">
<g id="graph0" class="graph" transform="scale(1 1) rotate(0) translate(4 1087)">
<title>oneDegreeRelationshipsDiagram</title>
<polygon fill="#ffffff" stroke="transparent" points="-4,4 -4,-1087 817,-1087 817,4 -4,4"/>
<text text-anchor="middle" x="73.5" y="-7.2" font-family="Helvetica,sans-Serif" font-size="11.00">Generated by SchemaSpy</text>
<!-- channel -->
<g id="node1" class="node">
<title>channel</title>
<g id="a_node1"><a xlink:href="../../tables/channel.html" xlink:title="channel" target="_top">
<polygon fill="#ffffff" stroke="transparent" points="331,-219 331,-505 561,-505 561,-219 331,-219"/>
<polygon fill="#f5f5f5" stroke="transparent" points="333,-481 333,-503 559,-503 559,-481 333,-481"/>
<polygon fill="none" stroke="black" points="333,-481 333,-503 559,-503 559,-481 333,-481"/>
<text text-anchor="start" x="336.5" y="-490.2" font-family="Helvetica,sans-Serif" font-weight="bold" font-size="11.00">channel</text>
<text text-anchor="start" x="520" y="-489.2" font-family="Helvetica,sans-Serif" font-size="11.00">[table]</text>
<polygon fill="none" stroke="black" points="333,-459 333,-481 487,-481 487,-459 333,-459"/>
<image xlink:href="../../images/primaryKeys.png" width="11px" height="12px" preserveAspectRatio="xMinYMin meet" x="338" y="-476"/>
<text text-anchor="start" x="353" y="-467.2" font-family="Helvetica,sans-Serif" font-size="11.00">obj_id</text>
<polygon fill="none" stroke="black" points="487,-459 487,-481 559,-481 559,-459 487,-459"/>
<text text-anchor="start" x="490" y="-467.2" font-family="Helvetica,sans-Serif" font-size="11.00">varchar[16]</text>
<polygon fill="none" stroke="black" points="333,-437 333,-459 487,-459 487,-437 333,-437"/>
<image xlink:href="../../images/foreignKeys.png" width="11px" height="12px" preserveAspectRatio="xMinYMin meet" x="338" y="-454"/>
<text text-anchor="start" x="353" y="-445.2" font-family="Helvetica,sans-Serif" font-size="11.00">bedding_encasement</text>
<polygon fill="none" stroke="black" points="487,-437 487,-459 559,-459 559,-437 487,-437"/>
<text text-anchor="start" x="490" y="-445.2" font-family="Helvetica,sans-Serif" font-size="11.00">int4[10]</text>
<polygon fill="none" stroke="black" points="333,-415 333,-437 487,-437 487,-415 333,-415"/>
<image xlink:href="../../images/foreignKeys.png" width="11px" height="12px" preserveAspectRatio="xMinYMin meet" x="338" y="-432"/>
<text text-anchor="start" x="353" y="-423.2" font-family="Helvetica,sans-Serif" font-size="11.00">connection_type</text>
<polygon fill="none" stroke="black" points="487,-415 487,-437 559,-437 559,-415 487,-415"/>
<text text-anchor="start" x="490" y="-423.2" font-family="Helvetica,sans-Serif" font-size="11.00">int4[10]</text>
<polygon fill="none" stroke="black" points="333,-393 333,-415 487,-415 487,-393 333,-393"/>
<image xlink:href="../../images/foreignKeys.png" width="11px" height="12px" preserveAspectRatio="xMinYMin meet" x="338" y="-410"/>
<text text-anchor="start" x="353" y="-401.2" font-family="Helvetica,sans-Serif" font-size="11.00">function_amelioration</text>
<polygon fill="none" stroke="black" points="487,-393 487,-415 559,-415 559,-393 487,-393"/>
<text text-anchor="start" x="490" y="-401.2" font-family="Helvetica,sans-Serif" font-size="11.00">int4[10]</text>
<polygon fill="#ffffff" stroke="transparent" points="333,-371 333,-393 487,-393 487,-371 333,-371"/>
<polygon fill="none" stroke="black" points="333,-371 333,-393 487,-393 487,-371 333,-371"/>
<image xlink:href="../../images/foreignKeys.png" width="11px" height="12px" preserveAspectRatio="xMinYMin meet" x="338" y="-388"/>
<text text-anchor="start" x="353" y="-379.2" font-family="Helvetica,sans-Serif" font-size="11.00">function_hierarchic</text>
<polygon fill="none" stroke="black" points="487,-371 487,-393 559,-393 559,-371 487,-371"/>
<text text-anchor="start" x="490" y="-379.2" font-family="Helvetica,sans-Serif" font-size="11.00">int4[10]</text>
<polygon fill="none" stroke="black" points="333,-349 333,-371 487,-371 487,-349 333,-349"/>
<image xlink:href="../../images/foreignKeys.png" width="11px" height="12px" preserveAspectRatio="xMinYMin meet" x="338" y="-366"/>
<text text-anchor="start" x="353" y="-357.2" font-family="Helvetica,sans-Serif" font-size="11.00">function_hydraulic</text>
<polygon fill="none" stroke="black" points="487,-349 487,-371 559,-371 559,-349 487,-349"/>
<text text-anchor="start" x="490" y="-357.2" font-family="Helvetica,sans-Serif" font-size="11.00">int4[10]</text>
<polygon fill="none" stroke="black" points="333,-327 333,-349 487,-349 487,-327 333,-327"/>
<text text-anchor="start" x="353" y="-335.2" font-family="Helvetica,sans-Serif" font-size="11.00">jetting_interval</text>
<polygon fill="none" stroke="black" points="487,-327 487,-349 559,-349 559,-327 487,-327"/>
<text text-anchor="start" x="490" y="-335.2" font-family="Helvetica,sans-Serif" font-size="11.00">numeric[4,2]</text>
<polygon fill="none" stroke="black" points="333,-305 333,-327 487,-327 487,-305 333,-305"/>
<text text-anchor="start" x="353" y="-313.2" font-family="Helvetica,sans-Serif" font-size="11.00">pipe_length</text>
<polygon fill="none" stroke="black" points="487,-305 487,-327 559,-327 559,-305 487,-305"/>
<text text-anchor="start" x="490" y="-313.2" font-family="Helvetica,sans-Serif" font-size="11.00">numeric[7,2]</text>
<polygon fill="none" stroke="black" points="333,-283 333,-305 487,-305 487,-283 333,-283"/>
<image xlink:href="../../images/foreignKeys.png" width="11px" height="12px" preserveAspectRatio="xMinYMin meet" x="338" y="-300"/>
<text text-anchor="start" x="353" y="-291.2" font-family="Helvetica,sans-Serif" font-size="11.00">seepage</text>
<polygon fill="none" stroke="black" points="487,-283 487,-305 559,-305 559,-283 487,-283"/>
<text text-anchor="start" x="490" y="-291.2" font-family="Helvetica,sans-Serif" font-size="11.00">int4[10]</text>
<polygon fill="#ffffff" stroke="transparent" points="333,-261 333,-283 487,-283 487,-261 333,-261"/>
<polygon fill="none" stroke="black" points="333,-261 333,-283 487,-283 487,-261 333,-261"/>
<image xlink:href="../../images/foreignKeys.png" width="11px" height="12px" preserveAspectRatio="xMinYMin meet" x="338" y="-278"/>
<text text-anchor="start" x="353" y="-269.2" font-family="Helvetica,sans-Serif" font-size="11.00">usage_current</text>
<polygon fill="none" stroke="black" points="487,-261 487,-283 559,-283 559,-261 487,-261"/>
<text text-anchor="start" x="490" y="-269.2" font-family="Helvetica,sans-Serif" font-size="11.00">int4[10]</text>
<polygon fill="none" stroke="black" points="333,-239 333,-261 487,-261 487,-239 333,-239"/>
<image xlink:href="../../images/foreignKeys.png" width="11px" height="12px" preserveAspectRatio="xMinYMin meet" x="338" y="-256"/>
<text text-anchor="start" x="353" y="-247.2" font-family="Helvetica,sans-Serif" font-size="11.00">usage_planned</text>
<polygon fill="none" stroke="black" points="487,-239 487,-261 559,-261 559,-239 487,-239"/>
<text text-anchor="start" x="490" y="-247.2" font-family="Helvetica,sans-Serif" font-size="11.00">int4[10]</text>
<polygon fill="#ffffff" stroke="transparent" points="333,-221 333,-239 414,-239 414,-221 333,-221"/>
<polygon fill="none" stroke="black" points="333,-221 333,-239 414,-239 414,-221 333,-221"/>
<text text-anchor="start" x="336" y="-227.2" font-family="Helvetica,sans-Serif" font-size="11.00">&lt; 9</text>
<polygon fill="#ffffff" stroke="transparent" points="414,-221 414,-239 487,-239 487,-221 414,-221"/>
<polygon fill="none" stroke="black" points="414,-221 414,-239 487,-239 487,-221 414,-221"/>
<text text-anchor="start" x="477" y="-227.2" font-family="Helvetica,sans-Serif" font-size="11.00"> &#160;</text>
<polygon fill="#ffffff" stroke="transparent" points="487,-221 487,-239 559,-239 559,-221 487,-221"/>
<polygon fill="none" stroke="black" points="487,-221 487,-239 559,-239 559,-221 487,-221"/>
<text text-anchor="start" x="540" y="-227.2" font-family="Helvetica,sans-Serif" font-size="11.00">1 &gt;</text>
<polygon fill="none" stroke="black" stroke-width="2" points="332,-220 332,-504 560,-504 560,-220 332,-220"/>
</a>
</g>
</g>
<!-- tww_vl.channel_bedding_encasement -->
<g id="node2" class="node">
<title>tww_vl.channel_bedding_encasement</title>
<g id="a_node2"><a xlink:href="../../../tww_vl/tables/channel_bedding_encasement.html" xlink:title="tww_vl.channel_bedding_encasement" target="_top">
<polygon fill="#ffffff" stroke="transparent" points="11.5,-590 11.5,-648 278.5,-648 278.5,-590 11.5,-590"/>
<polygon fill="#f5f5f5" stroke="transparent" points="12,-626 12,-648 279,-648 279,-626 12,-626"/>
<polygon fill="none" stroke="black" points="12,-626 12,-648 279,-648 279,-626 12,-626"/>
<text text-anchor="start" x="17" y="-635.2" font-family="Helvetica,sans-Serif" font-weight="bold" font-size="11.00">tww_vl.channel_bedding_encasement</text>
<text text-anchor="start" x="240" y="-634.2" font-family="Helvetica,sans-Serif" font-size="11.00">[table]</text>
<polygon fill="none" stroke="black" points="12,-608 12,-626 279,-626 279,-608 12,-608"/>
<text text-anchor="start" x="15" y="-614.2" font-family="Helvetica,sans-Serif" font-size="11.00">...</text>
<polygon fill="#ffffff" stroke="transparent" points="12,-590 12,-608 121,-608 121,-590 12,-590"/>
<polygon fill="none" stroke="black" points="12,-590 12,-608 121,-608 121,-590 12,-590"/>
<text text-anchor="start" x="15" y="-596.2" font-family="Helvetica,sans-Serif" font-size="11.00"> &#160;</text>
<polygon fill="#ffffff" stroke="transparent" points="121,-590 121,-608 209,-608 209,-590 121,-590"/>
<polygon fill="none" stroke="black" points="121,-590 121,-608 209,-608 209,-590 121,-590"/>
<text text-anchor="start" x="172" y="-596.2" font-family="Helvetica,sans-Serif" font-size="11.00">0 rows</text>
<polygon fill="#ffffff" stroke="transparent" points="209,-590 209,-608 279,-608 279,-590 209,-590"/>
<polygon fill="none" stroke="black" points="209,-590 209,-608 279,-608 279,-590 209,-590"/>
<text text-anchor="start" x="260" y="-596.2" font-family="Helvetica,sans-Serif" font-size="11.00">1 &gt;</text>
</a>
</g>
</g>
<!-- channel&#45;&gt;tww_vl.channel_bedding_encasement -->
<g id="edge1" class="edge">
<title>channel:w&#45;&gt;tww_vl.channel_bedding_encasement:e</title>
<path fill="none" stroke="black" d="M317.34,-450.43C281.91,-465.02 330.13,-541.58 290,-580 287.85,-582.06 285.6,-584.01 283.27,-585.87"/>
<polygon fill="black" stroke="black" points="324.11,-449.31 332.59,-451.55 328.05,-448.65 332,-448 332,-448 332,-448 328.05,-448.65 331.41,-444.45 324.11,-449.31 324.11,-449.31"/>
<ellipse fill="none" stroke="black" cx="320.95" cy="-449.83" rx="3.2" ry="3.2"/>
</g>
<!-- tww_vl.channel_connection_type -->
<g id="node3" class="node">
<title>tww_vl.channel_connection_type</title>
<g id="a_node3"><a xlink:href="../../../tww_vl/tables/channel_connection_type.html" xlink:title="tww_vl.channel_connection_type" target="_top">
<polygon fill="#ffffff" stroke="transparent" points="25.5,-511 25.5,-569 264.5,-569 264.5,-511 25.5,-511"/>
<polygon fill="#f5f5f5" stroke="transparent" points="26,-547 26,-569 265,-569 265,-547 26,-547"/>
<polygon fill="none" stroke="black" points="26,-547 26,-569 265,-569 265,-547 26,-547"/>
<text text-anchor="start" x="31" y="-556.2" font-family="Helvetica,sans-Serif" font-weight="bold" font-size="11.00">tww_vl.channel_connection_type</text>
<text text-anchor="start" x="226" y="-555.2" font-family="Helvetica,sans-Serif" font-size="11.00">[table]</text>
<polygon fill="none" stroke="black" points="26,-529 26,-547 265,-547 265,-529 26,-529"/>
<text text-anchor="start" x="29" y="-535.2" font-family="Helvetica,sans-Serif" font-size="11.00">...</text>
<polygon fill="#ffffff" stroke="transparent" points="26,-511 26,-529 121,-529 121,-511 26,-511"/>
<polygon fill="none" stroke="black" points="26,-511 26,-529 121,-529 121,-511 26,-511"/>
<text text-anchor="start" x="29" y="-517.2" font-family="Helvetica,sans-Serif" font-size="11.00"> &#160;</text>
<polygon fill="#ffffff" stroke="transparent" points="121,-511 121,-529 202,-529 202,-511 121,-511"/>
<polygon fill="none" stroke="black" points="121,-511 121,-529 202,-529 202,-511 121,-511"/>
<text text-anchor="start" x="165" y="-517.2" font-family="Helvetica,sans-Serif" font-size="11.00">0 rows</text>
<polygon fill="#ffffff" stroke="transparent" points="202,-511 202,-529 265,-529 265,-511 202,-511"/>
<polygon fill="none" stroke="black" points="202,-511 202,-529 265,-529 265,-511 202,-511"/>
<text text-anchor="start" x="246" y="-517.2" font-family="Helvetica,sans-Serif" font-size="11.00">1 &gt;</text>
</a>
</g>
</g>
<!-- channel&#45;&gt;tww_vl.channel_connection_type -->
<g id="edge2" class="edge">
<title>channel:w&#45;&gt;tww_vl.channel_connection_type:e</title>
<path fill="none" stroke="black" d="M317.87,-429.81C300.92,-442.15 315.18,-481.36 290,-501 284.59,-505.22 278.75,-508.99 272.64,-512.34"/>
<polygon fill="black" stroke="black" points="324.28,-428.08 332.94,-429.48 328.14,-427.04 332,-426 332,-426 332,-426 328.14,-427.04 331.06,-422.52 324.28,-428.08 324.28,-428.08"/>
<ellipse fill="none" stroke="black" cx="321.19" cy="-428.91" rx="3.2" ry="3.2"/>
</g>
<!-- tww_vl.channel_function_amelioration -->
<g id="node4" class="node">
<title>tww_vl.channel_function_amelioration</title>
<g id="a_node4"><a xlink:href="../../../tww_vl/tables/channel_function_amelioration.html" xlink:title="tww_vl.channel_function_amelioration" target="_top">
<polygon fill="#ffffff" stroke="transparent" points="8,-432 8,-490 282,-490 282,-432 8,-432"/>
<polygon fill="#f5f5f5" stroke="transparent" points="8,-468 8,-490 282,-490 282,-468 8,-468"/>
<polygon fill="none" stroke="black" points="8,-468 8,-490 282,-490 282,-468 8,-468"/>
<text text-anchor="start" x="13" y="-477.2" font-family="Helvetica,sans-Serif" font-weight="bold" font-size="11.00">tww_vl.channel_function_amelioration</text>
<text text-anchor="start" x="243" y="-476.2" font-family="Helvetica,sans-Serif" font-size="11.00">[table]</text>
<polygon fill="none" stroke="black" points="8,-450 8,-468 282,-468 282,-450 8,-450"/>
<text text-anchor="start" x="11" y="-456.2" font-family="Helvetica,sans-Serif" font-size="11.00">...</text>
<polygon fill="#ffffff" stroke="transparent" points="8,-432 8,-450 120,-450 120,-432 8,-432"/>
<polygon fill="none" stroke="black" points="8,-432 8,-450 120,-450 120,-432 8,-432"/>
<text text-anchor="start" x="11" y="-438.2" font-family="Helvetica,sans-Serif" font-size="11.00"> &#160;</text>
<polygon fill="#ffffff" stroke="transparent" points="120,-432 120,-450 210,-450 210,-432 120,-432"/>
<polygon fill="none" stroke="black" points="120,-432 120,-450 210,-450 210,-432 120,-432"/>
<text text-anchor="start" x="173" y="-438.2" font-family="Helvetica,sans-Serif" font-size="11.00">0 rows</text>
<polygon fill="#ffffff" stroke="transparent" points="210,-432 210,-450 282,-450 282,-432 210,-432"/>
<polygon fill="none" stroke="black" points="210,-432 210,-450 282,-450 282,-432 210,-432"/>
<text text-anchor="start" x="263" y="-438.2" font-family="Helvetica,sans-Serif" font-size="11.00">1 &gt;</text>
</a>
</g>
</g>
<!-- channel&#45;&gt;tww_vl.channel_function_amelioration -->
<g id="edge3" class="edge">
<title>channel:w&#45;&gt;tww_vl.channel_function_amelioration:e</title>
<path fill="none" stroke="black" d="M317.72,-406.58C308.73,-410.32 303.49,-417.31 290,-422 284.13,-424.04 278.09,-426.04 271.97,-427.99"/>
<polygon fill="black" stroke="black" points="324.13,-405.42 332.64,-407.54 328.06,-404.71 332,-404 332,-404 332,-404 328.06,-404.71 331.36,-400.46 324.13,-405.42 324.13,-405.42"/>
<ellipse fill="none" stroke="black" cx="320.98" cy="-405.99" rx="3.2" ry="3.2"/>
</g>
<!-- tww_vl.channel_function_hierarchic -->
<g id="node5" class="node">
<title>tww_vl.channel_function_hierarchic</title>
<g id="a_node5"><a xlink:href="../../../tww_vl/tables/channel_function_hierarchic.html" xlink:title="tww_vl.channel_function_hierarchic" target="_top">
<polygon fill="#ffffff" stroke="transparent" points="16.5,-353 16.5,-411 273.5,-411 273.5,-353 16.5,-353"/>
<polygon fill="#f5f5f5" stroke="transparent" points="17,-389 17,-411 274,-411 274,-389 17,-389"/>
<polygon fill="none" stroke="black" points="17,-389 17,-411 274,-411 274,-389 17,-389"/>
<text text-anchor="start" x="22" y="-398.2" font-family="Helvetica,sans-Serif" font-weight="bold" font-size="11.00">tww_vl.channel_function_hierarchic</text>
<text text-anchor="start" x="235" y="-397.2" font-family="Helvetica,sans-Serif" font-size="11.00">[table]</text>
<polygon fill="none" stroke="black" points="17,-371 17,-389 274,-389 274,-371 17,-371"/>
<text text-anchor="start" x="20" y="-377.2" font-family="Helvetica,sans-Serif" font-size="11.00">...</text>
<polygon fill="#ffffff" stroke="transparent" points="17,-353 17,-371 121,-371 121,-353 17,-353"/>
<polygon fill="none" stroke="black" points="17,-353 17,-371 121,-371 121,-353 17,-353"/>
<text text-anchor="start" x="20" y="-359.2" font-family="Helvetica,sans-Serif" font-size="11.00"> &#160;</text>
<polygon fill="#ffffff" stroke="transparent" points="121,-353 121,-371 206,-371 206,-353 121,-353"/>
<polygon fill="none" stroke="black" points="121,-353 121,-371 206,-371 206,-353 121,-353"/>
<text text-anchor="start" x="169" y="-359.2" font-family="Helvetica,sans-Serif" font-size="11.00">0 rows</text>
<polygon fill="#ffffff" stroke="transparent" points="206,-353 206,-371 274,-371 274,-353 206,-353"/>
<polygon fill="none" stroke="black" points="206,-353 206,-371 274,-371 274,-353 206,-353"/>
<text text-anchor="start" x="255" y="-359.2" font-family="Helvetica,sans-Serif" font-size="11.00">1 &gt;</text>
</a>
</g>
</g>
<!-- channel&#45;&gt;tww_vl.channel_function_hierarchic -->
<g id="edge4" class="edge">
<title>channel:w&#45;&gt;tww_vl.channel_function_hierarchic:e</title>
<path fill="none" stroke="black" d="M317.29,-382C305.55,-382 293.55,-382 281.62,-382"/>
<polygon fill="black" stroke="black" points="324,-382 332,-385.6 328,-382 332,-382 332,-382 332,-382 328,-382 332,-378.4 324,-382 324,-382"/>
<ellipse fill="none" stroke="black" cx="320.8" cy="-382" rx="3.2" ry="3.2"/>
</g>
<!-- tww_vl.channel_function_hydraulic -->
<g id="node6" class="node">
<title>tww_vl.channel_function_hydraulic</title>
<g id="a_node6"><a xlink:href="../../../tww_vl/tables/channel_function_hydraulic.html" xlink:title="tww_vl.channel_function_hydraulic" target="_top">
<polygon fill="#ffffff" stroke="transparent" points="18.5,-274 18.5,-332 271.5,-332 271.5,-274 18.5,-274"/>
<polygon fill="#f5f5f5" stroke="transparent" points="19,-310 19,-332 272,-332 272,-310 19,-310"/>
<polygon fill="none" stroke="black" points="19,-310 19,-332 272,-332 272,-310 19,-310"/>
<text text-anchor="start" x="24" y="-319.2" font-family="Helvetica,sans-Serif" font-weight="bold" font-size="11.00">tww_vl.channel_function_hydraulic</text>
<text text-anchor="start" x="233" y="-318.2" font-family="Helvetica,sans-Serif" font-size="11.00">[table]</text>
<polygon fill="none" stroke="black" points="19,-292 19,-310 272,-310 272,-292 19,-292"/>
<text text-anchor="start" x="22" y="-298.2" font-family="Helvetica,sans-Serif" font-size="11.00">...</text>
<polygon fill="#ffffff" stroke="transparent" points="19,-274 19,-292 121,-292 121,-274 19,-274"/>
<polygon fill="none" stroke="black" points="19,-274 19,-292 121,-292 121,-274 19,-274"/>
<text text-anchor="start" x="22" y="-280.2" font-family="Helvetica,sans-Serif" font-size="11.00"> &#160;</text>
<polygon fill="#ffffff" stroke="transparent" points="121,-274 121,-292 205,-292 205,-274 121,-274"/>
<polygon fill="none" stroke="black" points="121,-274 121,-292 205,-292 205,-274 121,-274"/>
<text text-anchor="start" x="168" y="-280.2" font-family="Helvetica,sans-Serif" font-size="11.00">0 rows</text>
<polygon fill="#ffffff" stroke="transparent" points="205,-274 205,-292 272,-292 272,-274 205,-274"/>
<polygon fill="none" stroke="black" points="205,-274 205,-292 272,-292 272,-274 205,-274"/>
<text text-anchor="start" x="253" y="-280.2" font-family="Helvetica,sans-Serif" font-size="11.00">1 &gt;</text>
</a>
</g>
</g>
<!-- channel&#45;&gt;tww_vl.channel_function_hydraulic -->
<g id="edge5" class="edge">
<title>channel:w&#45;&gt;tww_vl.channel_function_hydraulic:e</title>
<path fill="none" stroke="black" d="M317.72,-357.42C308.73,-353.68 303.49,-346.69 290,-342 284.13,-339.96 278.09,-337.96 271.97,-336.01"/>
<polygon fill="black" stroke="black" points="324.13,-358.58 331.36,-363.54 328.06,-359.29 332,-360 332,-360 332,-360 328.06,-359.29 332.64,-356.46 324.13,-358.58 324.13,-358.58"/>
<ellipse fill="none" stroke="black" cx="320.98" cy="-358.01" rx="3.2" ry="3.2"/>
</g>
<!-- wastewater_structure -->
<g id="node7" class="node">
<title>wastewater_structure</title>
<g id="a_node7"><a xlink:href="../../tables/wastewater_structure.html" xlink:title="wastewater_structure" target="_top">
<polygon fill="#ffffff" stroke="transparent" points="47.5,-669 47.5,-1079 242.5,-1079 242.5,-669 47.5,-669"/>
<polygon fill="#f5f5f5" stroke="transparent" points="48,-1057 48,-1079 243,-1079 243,-1057 48,-1057"/>
<polygon fill="none" stroke="black" points="48,-1057 48,-1079 243,-1079 243,-1057 48,-1057"/>
<text text-anchor="start" x="53" y="-1066.2" font-family="Helvetica,sans-Serif" font-weight="bold" font-size="11.00">wastewater_structure</text>
<text text-anchor="start" x="204" y="-1065.2" font-family="Helvetica,sans-Serif" font-size="11.00">[table]</text>
<polygon fill="none" stroke="black" points="48,-1035 48,-1057 243,-1057 243,-1035 48,-1035"/>
<image xlink:href="../../images/primaryKeys.png" width="11px" height="12px" preserveAspectRatio="xMinYMin meet" x="53" y="-1052"/>
<text text-anchor="start" x="68" y="-1043.2" font-family="Helvetica,sans-Serif" font-size="11.00">obj_id</text>
<polygon fill="none" stroke="black" points="48,-1013 48,-1035 243,-1035 243,-1013 48,-1013"/>
<image xlink:href="../../images/foreignKeys.png" width="11px" height="12px" preserveAspectRatio="xMinYMin meet" x="53" y="-1030"/>
<text text-anchor="start" x="68" y="-1021.2" font-family="Helvetica,sans-Serif" font-size="11.00">accessibility</text>
<polygon fill="#ffffff" stroke="transparent" points="48,-991 48,-1013 243,-1013 243,-991 48,-991"/>
<polygon fill="none" stroke="black" points="48,-991 48,-1013 243,-1013 243,-991 48,-991"/>
<text text-anchor="start" x="68" y="-999.2" font-family="Helvetica,sans-Serif" font-size="11.00">detail_geometry3d_geometry</text>
<polygon fill="none" stroke="black" points="48,-969 48,-991 243,-991 243,-969 48,-969"/>
<image xlink:href="../../images/foreignKeys.png" width="11px" height="12px" preserveAspectRatio="xMinYMin meet" x="53" y="-986"/>
<text text-anchor="start" x="68" y="-977.2" font-family="Helvetica,sans-Serif" font-size="11.00">elevation_determination</text>
<polygon fill="none" stroke="black" points="48,-947 48,-969 243,-969 243,-947 48,-947"/>
<image xlink:href="../../images/foreignKeys.png" width="11px" height="12px" preserveAspectRatio="xMinYMin meet" x="53" y="-964"/>
<text text-anchor="start" x="68" y="-955.2" font-family="Helvetica,sans-Serif" font-size="11.00">financing</text>
<polygon fill="#ffffff" stroke="transparent" points="48,-925 48,-947 243,-947 243,-925 48,-925"/>
<polygon fill="none" stroke="black" points="48,-925 48,-947 243,-947 243,-925 48,-925"/>
<text text-anchor="start" x="68" y="-933.2" font-family="Helvetica,sans-Serif" font-size="11.00">identifier</text>
<polygon fill="none" stroke="black" points="48,-903 48,-925 243,-925 243,-903 48,-903"/>
<image xlink:href="../../images/foreignKeys.png" width="11px" height="12px" preserveAspectRatio="xMinYMin meet" x="53" y="-920"/>
<text text-anchor="start" x="68" y="-911.2" font-family="Helvetica,sans-Serif" font-size="11.00">renovation_necessity</text>
<polygon fill="none" stroke="black" points="48,-881 48,-903 243,-903 243,-881 48,-881"/>
<image xlink:href="../../images/foreignKeys.png" width="11px" height="12px" preserveAspectRatio="xMinYMin meet" x="53" y="-898"/>
<text text-anchor="start" x="68" y="-889.2" font-family="Helvetica,sans-Serif" font-size="11.00">rv_construction_type</text>
<polygon fill="none" stroke="black" points="48,-859 48,-881 243,-881 243,-859 48,-859"/>
<image xlink:href="../../images/foreignKeys.png" width="11px" height="12px" preserveAspectRatio="xMinYMin meet" x="53" y="-876"/>
<text text-anchor="start" x="68" y="-867.2" font-family="Helvetica,sans-Serif" font-size="11.00">status</text>
<polygon fill="none" stroke="black" points="48,-837 48,-859 243,-859 243,-837 48,-837"/>
<image xlink:href="../../images/foreignKeys.png" width="11px" height="12px" preserveAspectRatio="xMinYMin meet" x="53" y="-854"/>
<text text-anchor="start" x="68" y="-845.2" font-family="Helvetica,sans-Serif" font-size="11.00">structure_condition</text>
<polygon fill="#ffffff" stroke="transparent" points="48,-815 48,-837 243,-837 243,-815 48,-815"/>
<polygon fill="none" stroke="black" points="48,-815 48,-837 243,-837 243,-815 48,-815"/>
<image xlink:href="../../images/foreignKeys.png" width="11px" height="12px" preserveAspectRatio="xMinYMin meet" x="53" y="-832"/>
<text text-anchor="start" x="68" y="-823.2" font-family="Helvetica,sans-Serif" font-size="11.00">fk_dataowner</text>
<polygon fill="none" stroke="black" points="48,-793 48,-815 243,-815 243,-793 48,-793"/>
<image xlink:href="../../images/foreignKeys.png" width="11px" height="12px" preserveAspectRatio="xMinYMin meet" x="53" y="-810"/>
<text text-anchor="start" x="68" y="-801.2" font-family="Helvetica,sans-Serif" font-size="11.00">fk_provider</text>
<polygon fill="none" stroke="black" points="48,-771 48,-793 243,-793 243,-771 48,-771"/>
<image xlink:href="../../images/foreignKeys.png" width="11px" height="12px" preserveAspectRatio="xMinYMin meet" x="53" y="-788"/>
<text text-anchor="start" x="68" y="-779.2" font-family="Helvetica,sans-Serif" font-size="11.00">fk_owner</text>
<polygon fill="none" stroke="black" points="48,-749 48,-771 243,-771 243,-749 48,-749"/>
<image xlink:href="../../images/foreignKeys.png" width="11px" height="12px" preserveAspectRatio="xMinYMin meet" x="53" y="-766"/>
<text text-anchor="start" x="68" y="-757.2" font-family="Helvetica,sans-Serif" font-size="11.00">fk_operator</text>
<polygon fill="none" stroke="black" points="48,-727 48,-749 243,-749 243,-727 48,-727"/>
<image xlink:href="../../images/foreignKeys.png" width="11px" height="12px" preserveAspectRatio="xMinYMin meet" x="53" y="-744"/>
<text text-anchor="start" x="68" y="-735.2" font-family="Helvetica,sans-Serif" font-size="11.00">fk_main_cover</text>
<polygon fill="none" stroke="black" points="48,-705 48,-727 243,-727 243,-705 48,-705"/>
<image xlink:href="../../images/foreignKeys.png" width="11px" height="12px" preserveAspectRatio="xMinYMin meet" x="53" y="-722"/>
<text text-anchor="start" x="68" y="-713.2" font-family="Helvetica,sans-Serif" font-size="11.00">fk_main_wastewater_node</text>
<polygon fill="none" stroke="black" points="48,-687 48,-705 243,-705 243,-687 48,-687"/>
<text text-anchor="start" x="51" y="-693.2" font-family="Helvetica,sans-Serif" font-size="11.00">...</text>
<polygon fill="#ffffff" stroke="transparent" points="48,-669 48,-687 139,-687 139,-669 48,-669"/>
<polygon fill="none" stroke="black" points="48,-669 48,-687 139,-687 139,-669 48,-669"/>
<text text-anchor="start" x="51" y="-675.2" font-family="Helvetica,sans-Serif" font-size="11.00">&lt; 13</text>
<polygon fill="#ffffff" stroke="transparent" points="139,-669 139,-687 183,-687 183,-669 139,-669"/>
<polygon fill="none" stroke="black" points="139,-669 139,-687 183,-687 183,-669 139,-669"/>
<text text-anchor="start" x="173" y="-675.2" font-family="Helvetica,sans-Serif" font-size="11.00"> &#160;</text>
<polygon fill="#ffffff" stroke="transparent" points="183,-669 183,-687 243,-687 243,-669 183,-669"/>
<polygon fill="none" stroke="black" points="183,-669 183,-687 243,-687 243,-669 183,-669"/>
<text text-anchor="start" x="218" y="-675.2" font-family="Helvetica,sans-Serif" font-size="11.00">16 &gt;</text>
</a>
</g>
</g>
<!-- channel&#45;&gt;wastewater_structure -->
<g id="edge6" class="edge">
<title>channel:w&#45;&gt;wastewater_structure:e</title>
<path fill="none" stroke="black" d="M322.61,-474.64C271.34,-529.15 305.33,-1046 244,-1046"/>
<polygon fill="black" stroke="black" points="329.51,-466.77 333.05,-473.94 331.62,-474.65 328.08,-467.48 329.51,-466.77"/>
<polyline fill="none" stroke="black" points="332,-470 328.41,-471.77 "/>
<ellipse fill="none" stroke="black" cx="325.54" cy="-473.19" rx="3.2" ry="3.2"/>
</g>
<!-- tww_vl.channel_seepage -->
<g id="node8" class="node">
<title>tww_vl.channel_seepage</title>
<g id="a_node8"><a xlink:href="../../../tww_vl/tables/channel_seepage.html" xlink:title="tww_vl.channel_seepage" target="_top">
<polygon fill="#ffffff" stroke="transparent" points="50,-195 50,-253 240,-253 240,-195 50,-195"/>
<polygon fill="#f5f5f5" stroke="transparent" points="50,-231 50,-253 240,-253 240,-231 50,-231"/>
<polygon fill="none" stroke="black" points="50,-231 50,-253 240,-253 240,-231 50,-231"/>
<text text-anchor="start" x="55" y="-240.2" font-family="Helvetica,sans-Serif" font-weight="bold" font-size="11.00">tww_vl.channel_seepage</text>
<text text-anchor="start" x="201" y="-239.2" font-family="Helvetica,sans-Serif" font-size="11.00">[table]</text>
<polygon fill="none" stroke="black" points="50,-213 50,-231 240,-231 240,-213 50,-213"/>
<text text-anchor="start" x="53" y="-219.2" font-family="Helvetica,sans-Serif" font-size="11.00">...</text>
<polygon fill="#ffffff" stroke="transparent" points="50,-195 50,-213 120,-213 120,-195 50,-195"/>
<polygon fill="none" stroke="black" points="50,-195 50,-213 120,-213 120,-195 50,-195"/>
<text text-anchor="start" x="53" y="-201.2" font-family="Helvetica,sans-Serif" font-size="11.00"> &#160;</text>
<polygon fill="#ffffff" stroke="transparent" points="120,-195 120,-213 189,-213 189,-195 120,-195"/>
<polygon fill="none" stroke="black" points="120,-195 120,-213 189,-213 189,-195 120,-195"/>
<text text-anchor="start" x="152" y="-201.2" font-family="Helvetica,sans-Serif" font-size="11.00">0 rows</text>
<polygon fill="#ffffff" stroke="transparent" points="189,-195 189,-213 240,-213 240,-195 189,-195"/>
<polygon fill="none" stroke="black" points="189,-195 189,-213 240,-213 240,-195 189,-195"/>
<text text-anchor="start" x="221" y="-201.2" font-family="Helvetica,sans-Serif" font-size="11.00">1 &gt;</text>
</a>
</g>
</g>
<!-- channel&#45;&gt;tww_vl.channel_seepage -->
<g id="edge7" class="edge">
<title>channel:w&#45;&gt;tww_vl.channel_seepage:e</title>
<path fill="none" stroke="black" d="M317.96,-290.17C308.29,-283.66 305.34,-270.41 290,-263 276.82,-256.63 262.45,-251.18 248.05,-246.54"/>
<polygon fill="black" stroke="black" points="324.28,-291.89 331.05,-297.47 328.14,-292.95 332,-294 332,-294 332,-294 328.14,-292.95 332.95,-290.53 324.28,-291.89 324.28,-291.89"/>
<ellipse fill="none" stroke="black" cx="321.19" cy="-291.05" rx="3.2" ry="3.2"/>
</g>
<!-- tww_vl.channel_usage_current -->
<g id="node9" class="node">
<title>tww_vl.channel_usage_current</title>
<g id="a_node9"><a xlink:href="../../../tww_vl/tables/channel_usage_current.html" xlink:title="tww_vl.channel_usage_current" target="_top">
<polygon fill="#ffffff" stroke="transparent" points="32,-116 32,-174 258,-174 258,-116 32,-116"/>
<polygon fill="#f5f5f5" stroke="transparent" points="32,-152 32,-174 258,-174 258,-152 32,-152"/>
<polygon fill="none" stroke="black" points="32,-152 32,-174 258,-174 258,-152 32,-152"/>
<text text-anchor="start" x="37" y="-161.2" font-family="Helvetica,sans-Serif" font-weight="bold" font-size="11.00">tww_vl.channel_usage_current</text>
<text text-anchor="start" x="219" y="-160.2" font-family="Helvetica,sans-Serif" font-size="11.00">[table]</text>
<polygon fill="none" stroke="black" points="32,-134 32,-152 258,-152 258,-134 32,-134"/>
<text text-anchor="start" x="35" y="-140.2" font-family="Helvetica,sans-Serif" font-size="11.00">...</text>
<polygon fill="#ffffff" stroke="transparent" points="32,-116 32,-134 120,-134 120,-116 32,-116"/>
<polygon fill="none" stroke="black" points="32,-116 32,-134 120,-134 120,-116 32,-116"/>
<text text-anchor="start" x="35" y="-122.2" font-family="Helvetica,sans-Serif" font-size="11.00"> &#160;</text>
<polygon fill="#ffffff" stroke="transparent" points="120,-116 120,-134 198,-134 198,-116 120,-116"/>
<polygon fill="none" stroke="black" points="120,-116 120,-134 198,-134 198,-116 120,-116"/>
<text text-anchor="start" x="161" y="-122.2" font-family="Helvetica,sans-Serif" font-size="11.00">0 rows</text>
<polygon fill="#ffffff" stroke="transparent" points="198,-116 198,-134 258,-134 258,-116 198,-116"/>
<polygon fill="none" stroke="black" points="198,-116 198,-134 258,-134 258,-116 198,-116"/>
<text text-anchor="start" x="239" y="-122.2" font-family="Helvetica,sans-Serif" font-size="11.00">1 &gt;</text>
</a>
</g>
</g>
<!-- channel&#45;&gt;tww_vl.channel_usage_current -->
<g id="edge8" class="edge">
<title>channel:w&#45;&gt;tww_vl.channel_usage_current:e</title>
<path fill="none" stroke="black" d="M317.94,-268.68C297.06,-255.7 318.6,-207.85 290,-184 282.74,-177.95 274.62,-172.83 266.04,-168.5"/>
<polygon fill="black" stroke="black" points="324.21,-270.16 331.17,-275.5 328.11,-271.08 332,-272 332,-272 332,-272 328.11,-271.08 332.83,-268.5 324.21,-270.16 324.21,-270.16"/>
<ellipse fill="none" stroke="black" cx="321.1" cy="-269.43" rx="3.2" ry="3.2"/>
</g>
<!-- tww_vl.channel_usage_planned -->
<g id="node10" class="node">
<title>tww_vl.channel_usage_planned</title>
<g id="a_node10"><a xlink:href="../../../tww_vl/tables/channel_usage_planned.html" xlink:title="tww_vl.channel_usage_planned" target="_top">
<polygon fill="#ffffff" stroke="transparent" points="30,-37 30,-95 260,-95 260,-37 30,-37"/>
<polygon fill="#f5f5f5" stroke="transparent" points="30,-73 30,-95 260,-95 260,-73 30,-73"/>
<polygon fill="none" stroke="black" points="30,-73 30,-95 260,-95 260,-73 30,-73"/>
<text text-anchor="start" x="35" y="-82.2" font-family="Helvetica,sans-Serif" font-weight="bold" font-size="11.00">tww_vl.channel_usage_planned</text>
<text text-anchor="start" x="221" y="-81.2" font-family="Helvetica,sans-Serif" font-size="11.00">[table]</text>
<polygon fill="none" stroke="black" points="30,-55 30,-73 260,-73 260,-55 30,-55"/>
<text text-anchor="start" x="33" y="-61.2" font-family="Helvetica,sans-Serif" font-size="11.00">...</text>
<polygon fill="#ffffff" stroke="transparent" points="30,-37 30,-55 120,-55 120,-37 30,-37"/>
<polygon fill="none" stroke="black" points="30,-37 30,-55 120,-55 120,-37 30,-37"/>
<text text-anchor="start" x="33" y="-43.2" font-family="Helvetica,sans-Serif" font-size="11.00"> &#160;</text>
<polygon fill="#ffffff" stroke="transparent" points="120,-37 120,-55 199,-55 199,-37 120,-37"/>
<polygon fill="none" stroke="black" points="120,-37 120,-55 199,-55 199,-37 120,-37"/>
<text text-anchor="start" x="162" y="-43.2" font-family="Helvetica,sans-Serif" font-size="11.00">0 rows</text>
<polygon fill="#ffffff" stroke="transparent" points="199,-37 199,-55 260,-55 260,-37 199,-37"/>
<polygon fill="none" stroke="black" points="199,-37 199,-55 260,-55 260,-37 199,-37"/>
<text text-anchor="start" x="241" y="-43.2" font-family="Helvetica,sans-Serif" font-size="11.00">1 &gt;</text>
</a>
</g>
</g>
<!-- channel&#45;&gt;tww_vl.channel_usage_planned -->
<g id="edge9" class="edge">
<title>channel:w&#45;&gt;tww_vl.channel_usage_planned:e</title>
<path fill="none" stroke="black" d="M317.64,-247.92C276.55,-233.54 333.74,-147.99 290,-105 283.53,-98.65 276.14,-93.3 268.21,-88.81"/>
<polygon fill="black" stroke="black" points="324.08,-248.86 331.48,-253.56 328.04,-249.43 332,-250 332,-250 332,-250 328.04,-249.43 332.52,-246.44 324.08,-248.86 324.08,-248.86"/>
<ellipse fill="none" stroke="black" cx="320.92" cy="-248.4" rx="3.2" ry="3.2"/>
</g>
<!-- sia405pt_protection_tube -->
<g id="node11" class="node">
<title>sia405pt_protection_tube</title>
<g id="a_node11"><a xlink:href="../../tables/sia405pt_protection_tube.html" xlink:title="sia405pt_protection_tube" target="_top">
<polygon fill="#ffffff" stroke="transparent" points="610,-423 610,-701 805,-701 805,-423 610,-423"/>
<polygon fill="#f5f5f5" stroke="transparent" points="610.5,-679 610.5,-701 805.5,-701 805.5,-679 610.5,-679"/>
<polygon fill="none" stroke="black" points="610.5,-679 610.5,-701 805.5,-701 805.5,-679 610.5,-679"/>
<text text-anchor="start" x="615.5" y="-688.2" font-family="Helvetica,sans-Serif" font-weight="bold" font-size="11.00">sia405pt_protection_tube</text>
<text text-anchor="start" x="766.5" y="-687.2" font-family="Helvetica,sans-Serif" font-size="11.00">[table]</text>
<polygon fill="none" stroke="black" points="610.5,-657 610.5,-679 805.5,-679 805.5,-657 610.5,-657"/>
<image xlink:href="../../images/primaryKeys.png" width="11px" height="12px" preserveAspectRatio="xMinYMin meet" x="615.5" y="-674"/>
<text text-anchor="start" x="642.5" y="-665.2" font-family="Helvetica,sans-Serif" font-size="11.00">obj_id</text>
<polygon fill="#ffffff" stroke="transparent" points="610.5,-635 610.5,-657 805.5,-657 805.5,-635 610.5,-635"/>
<polygon fill="none" stroke="black" points="610.5,-635 610.5,-657 805.5,-657 805.5,-635 610.5,-635"/>
<text text-anchor="start" x="642.5" y="-643.2" font-family="Helvetica,sans-Serif" font-size="11.00">name_number</text>
<polygon fill="none" stroke="black" points="610.5,-613 610.5,-635 805.5,-635 805.5,-613 610.5,-613"/>
<image xlink:href="../../images/foreignKeys.png" width="11px" height="12px" preserveAspectRatio="xMinYMin meet" x="615.5" y="-630"/>
<text text-anchor="start" x="642.5" y="-621.2" font-family="Helvetica,sans-Serif" font-size="11.00">material</text>
<polygon fill="none" stroke="black" points="610.5,-591 610.5,-613 805.5,-613 805.5,-591 610.5,-591"/>
<image xlink:href="../../images/foreignKeys.png" width="11px" height="12px" preserveAspectRatio="xMinYMin meet" x="615.5" y="-608"/>
<text text-anchor="start" x="642.5" y="-599.2" font-family="Helvetica,sans-Serif" font-size="11.00">horizontal_positioning</text>
<polygon fill="none" stroke="black" points="610.5,-569 610.5,-591 805.5,-591 805.5,-569 610.5,-569"/>
<image xlink:href="../../images/foreignKeys.png" width="11px" height="12px" preserveAspectRatio="xMinYMin meet" x="615.5" y="-586"/>
<text text-anchor="start" x="642.5" y="-577.2" font-family="Helvetica,sans-Serif" font-size="11.00">status</text>
<polygon fill="#ffffff" stroke="transparent" points="610.5,-547 610.5,-569 805.5,-569 805.5,-547 610.5,-547"/>
<polygon fill="none" stroke="black" points="610.5,-547 610.5,-569 805.5,-569 805.5,-547 610.5,-547"/>
<text text-anchor="start" x="642.5" y="-555.2" font-family="Helvetica,sans-Serif" font-size="11.00">geometry3d_geometry</text>
<polygon fill="#ffffff" stroke="transparent" points="610.5,-525 610.5,-547 805.5,-547 805.5,-525 610.5,-525"/>
<polygon fill="none" stroke="black" points="610.5,-525 610.5,-547 805.5,-547 805.5,-525 610.5,-525"/>
<image xlink:href="../../images/foreignKeys.png" width="11px" height="12px" preserveAspectRatio="xMinYMin meet" x="615.5" y="-542"/>
<text text-anchor="start" x="642.5" y="-533.2" font-family="Helvetica,sans-Serif" font-size="11.00">fk_dataowner</text>
<polygon fill="none" stroke="black" points="610.5,-503 610.5,-525 805.5,-525 805.5,-503 610.5,-503"/>
<image xlink:href="../../images/foreignKeys.png" width="11px" height="12px" preserveAspectRatio="xMinYMin meet" x="615.5" y="-520"/>
<text text-anchor="start" x="642.5" y="-511.2" font-family="Helvetica,sans-Serif" font-size="11.00">fk_provider</text>
<polygon fill="none" stroke="black" points="610.5,-481 610.5,-503 805.5,-503 805.5,-481 610.5,-481"/>
<image xlink:href="../../images/foreignKeys.png" width="11px" height="12px" preserveAspectRatio="xMinYMin meet" x="615.5" y="-498"/>
<text text-anchor="start" x="642.5" y="-489.2" font-family="Helvetica,sans-Serif" font-size="11.00">fk_owner</text>
<polygon fill="none" stroke="black" points="610.5,-459 610.5,-481 805.5,-481 805.5,-459 610.5,-459"/>
<image xlink:href="../../images/foreignKeys.png" width="11px" height="12px" preserveAspectRatio="xMinYMin meet" x="615.5" y="-476"/>
<text text-anchor="start" x="642.5" y="-467.2" font-family="Helvetica,sans-Serif" font-size="11.00">fk_channel</text>
<polygon fill="none" stroke="black" points="610.5,-441 610.5,-459 805.5,-459 805.5,-441 610.5,-441"/>
<text text-anchor="start" x="613.5" y="-447.2" font-family="Helvetica,sans-Serif" font-size="11.00">...</text>
<polygon fill="#ffffff" stroke="transparent" points="610.5,-423 610.5,-441 705.5,-441 705.5,-423 610.5,-423"/>
<polygon fill="none" stroke="black" points="610.5,-423 610.5,-441 705.5,-441 705.5,-423 610.5,-423"/>
<text text-anchor="start" x="613.5" y="-429.2" font-family="Helvetica,sans-Serif" font-size="11.00">&lt; 7</text>
<polygon fill="#ffffff" stroke="transparent" points="705.5,-423 705.5,-441 755.5,-441 755.5,-423 705.5,-423"/>
<polygon fill="none" stroke="black" points="705.5,-423 705.5,-441 755.5,-441 755.5,-423 705.5,-423"/>
<text text-anchor="start" x="745.5" y="-429.2" font-family="Helvetica,sans-Serif" font-size="11.00"> &#160;</text>
<polygon fill="#ffffff" stroke="transparent" points="755.5,-423 755.5,-441 805.5,-441 805.5,-423 755.5,-423"/>
<polygon fill="none" stroke="black" points="755.5,-423 755.5,-441 805.5,-441 805.5,-423 755.5,-423"/>
<text text-anchor="start" x="795.5" y="-429.2" font-family="Helvetica,sans-Serif" font-size="11.00"> &#160;</text>
</a>
</g>
</g>
<!-- sia405pt_protection_tube&#45;&gt;channel -->
<g id="edge10" class="edge">
<title>sia405pt_protection_tube:w&#45;&gt;channel:e</title>
<path fill="none" stroke="black" d="M594.84,-470C583.41,-470 576.16,-470 560,-470"/>
<polygon fill="black" stroke="black" points="601.5,-470 609.5,-473.6 605.5,-470 609.5,-470 609.5,-470 609.5,-470 605.5,-470 609.5,-466.4 601.5,-470 601.5,-470"/>
<ellipse fill="none" stroke="black" cx="598.3" cy="-470" rx="3.2" ry="3.2"/>
</g>
</g>
</svg>
