<?xml version="1.0" encoding="UTF-8" standalone="no"?>
<!DOCTYPE svg PUBLIC "-//W3C//DTD SVG 1.1//EN"
 "http://www.w3.org/Graphics/SVG/1.1/DTD/svg11.dtd">
<!-- Generated by graphviz version 2.47.1 (20210515.0534)
 -->
<!-- Title: oneDegreeRelationshipsDiagram Pages: 1 -->
<svg width="992pt" height="708pt"
 viewBox="0.00 0.00 992.00 708.00" xmlns="http://www.w3.org/2000/svg" xmlns:xlink="http://www.w3.org/1999/xlink">
<g id="graph0" class="graph" transform="scale(1 1) rotate(0) translate(4 704)">
<title>oneDegreeRelationshipsDiagram</title>
<polygon fill="#ffffff" stroke="transparent" points="-4,4 -4,-704 988,-704 988,4 -4,4"/>
<text text-anchor="middle" x="73.5" y="-7.2" font-family="Helvetica,sans-Serif" font-size="11.00">Generated by SchemaSpy</text>
<!-- control_center -->
<g id="node1" class="node">
<title>control_center</title>
<g id="a_node1"><a xlink:href="../../tables/control_center.html" xlink:title="control_center" target="_top">
<polygon fill="#ffffff" stroke="transparent" points="205,-37 205,-213 469,-213 469,-37 205,-37"/>
<polygon fill="#f5f5f5" stroke="transparent" points="207,-189 207,-211 467,-211 467,-189 207,-189"/>
<polygon fill="none" stroke="black" points="207,-189 207,-211 467,-211 467,-189 207,-189"/>
<text text-anchor="start" x="212" y="-198.2" font-family="Helvetica,sans-Serif" font-weight="bold" font-size="11.00">control_center</text>
<text text-anchor="start" x="428" y="-197.2" font-family="Helvetica,sans-Serif" font-size="11.00">[table]</text>
<polygon fill="none" stroke="black" points="207,-167 207,-189 344,-189 344,-167 207,-167"/>
<image xlink:href="../../images/primaryKeys.png" width="11px" height="12px" preserveAspectRatio="xMinYMin meet" x="212" y="-184"/>
<text text-anchor="start" x="227" y="-175.2" font-family="Helvetica,sans-Serif" font-size="11.00">obj_id</text>
<polygon fill="none" stroke="black" points="344,-167 344,-189 467,-189 467,-167 344,-167"/>
<text text-anchor="start" x="347" y="-175.2" font-family="Helvetica,sans-Serif" font-size="11.00">varchar[16]</text>
<polygon fill="#ffffff" stroke="transparent" points="207,-145 207,-167 344,-167 344,-145 207,-145"/>
<polygon fill="none" stroke="black" points="207,-145 207,-167 344,-167 344,-145 207,-145"/>
<text text-anchor="start" x="227" y="-153.2" font-family="Helvetica,sans-Serif" font-size="11.00">identifier</text>
<polygon fill="none" stroke="black" points="344,-145 344,-167 467,-167 467,-145 344,-145"/>
<text text-anchor="start" x="347" y="-153.2" font-family="Helvetica,sans-Serif" font-size="11.00">text[2147483647]</text>
<polygon fill="#ffffff" stroke="transparent" points="207,-123 207,-145 344,-145 344,-123 207,-123"/>
<polygon fill="none" stroke="black" points="207,-123 207,-145 344,-145 344,-123 207,-123"/>
<text text-anchor="start" x="227" y="-131.2" font-family="Helvetica,sans-Serif" font-size="11.00">situation_geometry</text>
<polygon fill="none" stroke="black" points="344,-123 344,-145 467,-145 467,-123 344,-123"/>
<text text-anchor="start" x="347" y="-131.2" font-family="Helvetica,sans-Serif" font-size="11.00">geometry[2147483647]</text>
<polygon fill="none" stroke="black" points="207,-101 207,-123 344,-123 344,-101 207,-101"/>
<text text-anchor="start" x="227" y="-109.2" font-family="Helvetica,sans-Serif" font-size="11.00">last_modification</text>
<polygon fill="none" stroke="black" points="344,-101 344,-123 467,-123 467,-101 344,-101"/>
<text text-anchor="start" x="347" y="-109.2" font-family="Helvetica,sans-Serif" font-size="11.00">timestamp[29,6]</text>
<polygon fill="#ffffff" stroke="transparent" points="207,-79 207,-101 344,-101 344,-79 207,-79"/>
<polygon fill="none" stroke="black" points="207,-79 207,-101 344,-101 344,-79 207,-79"/>
<image xlink:href="../../images/foreignKeys.png" width="11px" height="12px" preserveAspectRatio="xMinYMin meet" x="212" y="-96"/>
<text text-anchor="start" x="227" y="-87.2" font-family="Helvetica,sans-Serif" font-size="11.00">fk_dataowner</text>
<polygon fill="none" stroke="black" points="344,-79 344,-101 467,-101 467,-79 344,-79"/>
<text text-anchor="start" x="347" y="-87.2" font-family="Helvetica,sans-Serif" font-size="11.00">varchar[16]</text>
<polygon fill="none" stroke="black" points="207,-57 207,-79 344,-79 344,-57 207,-57"/>
<image xlink:href="../../images/foreignKeys.png" width="11px" height="12px" preserveAspectRatio="xMinYMin meet" x="212" y="-74"/>
<text text-anchor="start" x="227" y="-65.2" font-family="Helvetica,sans-Serif" font-size="11.00">fk_provider</text>
<polygon fill="none" stroke="black" points="344,-57 344,-79 467,-79 467,-57 344,-57"/>
<text text-anchor="start" x="347" y="-65.2" font-family="Helvetica,sans-Serif" font-size="11.00">varchar[16]</text>
<polygon fill="#ffffff" stroke="transparent" points="207,-39 207,-57 280,-57 280,-39 207,-39"/>
<polygon fill="none" stroke="black" points="207,-39 207,-57 280,-57 280,-39 207,-39"/>
<text text-anchor="start" x="210" y="-45.2" font-family="Helvetica,sans-Serif" font-size="11.00">&lt; 2</text>
<polygon fill="#ffffff" stroke="transparent" points="280,-39 280,-57 344,-57 344,-39 280,-39"/>
<polygon fill="none" stroke="black" points="280,-39 280,-57 344,-57 344,-39 280,-39"/>
<text text-anchor="start" x="334" y="-45.2" font-family="Helvetica,sans-Serif" font-size="11.00"> &#160;</text>
<polygon fill="#ffffff" stroke="transparent" points="344,-39 344,-57 467,-57 467,-39 344,-39"/>
<polygon fill="none" stroke="black" points="344,-39 344,-57 467,-57 467,-39 344,-39"/>
<text text-anchor="start" x="448" y="-45.2" font-family="Helvetica,sans-Serif" font-size="11.00">2 &gt;</text>
<polygon fill="none" stroke="black" stroke-width="2" points="206,-38 206,-212 468,-212 468,-38 206,-38"/>
</a>
</g>
</g>
<!-- organisation -->
<g id="node2" class="node">
<title>organisation</title>
<g id="a_node2"><a xlink:href="../../tables/organisation.html" xlink:title="organisation" target="_top">
<polygon fill="#ffffff" stroke="transparent" points="8,-105 8,-295 156,-295 156,-105 8,-105"/>
<polygon fill="#f5f5f5" stroke="transparent" points="8,-273 8,-295 156,-295 156,-273 8,-273"/>
<polygon fill="none" stroke="black" points="8,-273 8,-295 156,-295 156,-273 8,-273"/>
<text text-anchor="start" x="13" y="-282.2" font-family="Helvetica,sans-Serif" font-weight="bold" font-size="11.00">organisation</text>
<text text-anchor="start" x="117" y="-281.2" font-family="Helvetica,sans-Serif" font-size="11.00">[table]</text>
<polygon fill="none" stroke="black" points="8,-251 8,-273 156,-273 156,-251 8,-251"/>
<image xlink:href="../../images/primaryKeys.png" width="11px" height="12px" preserveAspectRatio="xMinYMin meet" x="13" y="-268"/>
<text text-anchor="start" x="28" y="-259.2" font-family="Helvetica,sans-Serif" font-size="11.00">obj_id</text>
<polygon fill="#ffffff" stroke="transparent" points="8,-229 8,-251 156,-251 156,-229 8,-229"/>
<polygon fill="none" stroke="black" points="8,-229 8,-251 156,-251 156,-229 8,-229"/>
<text text-anchor="start" x="28" y="-237.2" font-family="Helvetica,sans-Serif" font-size="11.00">identifier</text>
<polygon fill="none" stroke="black" points="8,-207 8,-229 156,-229 156,-207 8,-207"/>
<image xlink:href="../../images/foreignKeys.png" width="11px" height="12px" preserveAspectRatio="xMinYMin meet" x="13" y="-224"/>
<text text-anchor="start" x="28" y="-215.2" font-family="Helvetica,sans-Serif" font-size="11.00">organisation_type</text>
<polygon fill="none" stroke="black" points="8,-185 8,-207 156,-207 156,-185 8,-185"/>
<image xlink:href="../../images/foreignKeys.png" width="11px" height="12px" preserveAspectRatio="xMinYMin meet" x="13" y="-202"/>
<text text-anchor="start" x="28" y="-193.2" font-family="Helvetica,sans-Serif" font-size="11.00">status</text>
<polygon fill="#ffffff" stroke="transparent" points="8,-163 8,-185 156,-185 156,-163 8,-163"/>
<polygon fill="none" stroke="black" points="8,-163 8,-185 156,-185 156,-163 8,-163"/>
<image xlink:href="../../images/foreignKeys.png" width="11px" height="12px" preserveAspectRatio="xMinYMin meet" x="13" y="-180"/>
<text text-anchor="start" x="28" y="-171.2" font-family="Helvetica,sans-Serif" font-size="11.00">fk_dataowner</text>
<polygon fill="none" stroke="black" points="8,-141 8,-163 156,-163 156,-141 8,-141"/>
<image xlink:href="../../images/foreignKeys.png" width="11px" height="12px" preserveAspectRatio="xMinYMin meet" x="13" y="-158"/>
<text text-anchor="start" x="28" y="-149.2" font-family="Helvetica,sans-Serif" font-size="11.00">fk_provider</text>
<polygon fill="none" stroke="black" points="8,-123 8,-141 156,-141 156,-123 8,-123"/>
<text text-anchor="start" x="11" y="-129.2" font-family="Helvetica,sans-Serif" font-size="11.00">...</text>
<polygon fill="#ffffff" stroke="transparent" points="8,-105 8,-123 72,-123 72,-105 8,-105"/>
<polygon fill="none" stroke="black" points="8,-105 8,-123 72,-123 72,-105 8,-105"/>
<text text-anchor="start" x="11" y="-111.2" font-family="Helvetica,sans-Serif" font-size="11.00">&lt; 4</text>
<polygon fill="#ffffff" stroke="transparent" points="72,-105 72,-123 106,-123 106,-105 72,-105"/>
<polygon fill="none" stroke="black" points="72,-105 72,-123 106,-123 106,-105 72,-105"/>
<text text-anchor="start" x="96" y="-111.2" font-family="Helvetica,sans-Serif" font-size="11.00"> &#160;</text>
<polygon fill="#ffffff" stroke="transparent" points="106,-105 106,-123 156,-123 156,-105 106,-105"/>
<polygon fill="none" stroke="black" points="106,-105 106,-123 156,-123 156,-105 106,-105"/>
<text text-anchor="start" x="131" y="-111.2" font-family="Helvetica,sans-Serif" font-size="11.00">98 &gt;</text>
</a>
</g>
</g>
<!-- control_center&#45;&gt;organisation -->
<g id="edge1" class="edge">
<title>control_center:w&#45;&gt;organisation:e</title>
<path fill="none" stroke="black" d="M191.59,-92.56C141.42,-113.96 230.74,-262 157,-262"/>
<polygon fill="black" stroke="black" points="198.12,-91.4 206.63,-93.54 202.06,-90.7 206,-90 206,-90 206,-90 202.06,-90.7 205.37,-86.46 198.12,-91.4 198.12,-91.4"/>
<ellipse fill="none" stroke="black" cx="194.97" cy="-91.96" rx="3.2" ry="3.2"/>
</g>
<!-- control_center&#45;&gt;organisation -->
<g id="edge2" class="edge">
<title>control_center:w&#45;&gt;organisation:e</title>
<path fill="none" stroke="black" d="M191.4,-70.31C132.78,-92.2 240.2,-262 157,-262"/>
<polygon fill="black" stroke="black" points="198.1,-69.25 206.56,-71.56 202.05,-68.63 206,-68 206,-68 206,-68 202.05,-68.63 205.44,-64.44 198.1,-69.25 198.1,-69.25"/>
<ellipse fill="none" stroke="black" cx="194.94" cy="-69.75" rx="3.2" ry="3.2"/>
</g>
<!-- overflow -->
<g id="node3" class="node">
<title>overflow</title>
<g id="a_node3"><a xlink:href="../../tables/overflow.html" xlink:title="overflow" target="_top">
<polygon fill="#ffffff" stroke="transparent" points="518,-117 518,-461 662,-461 662,-117 518,-117"/>
<polygon fill="#f5f5f5" stroke="transparent" points="518,-439 518,-461 662,-461 662,-439 518,-439"/>
<polygon fill="none" stroke="black" points="518,-439 518,-461 662,-461 662,-439 518,-439"/>
<text text-anchor="start" x="522.5" y="-448.2" font-family="Helvetica,sans-Serif" font-weight="bold" font-size="11.00">overflow</text>
<text text-anchor="start" x="623" y="-447.2" font-family="Helvetica,sans-Serif" font-size="11.00">[table]</text>
<polygon fill="none" stroke="black" points="518,-417 518,-439 662,-439 662,-417 518,-417"/>
<image xlink:href="../../images/primaryKeys.png" width="11px" height="12px" preserveAspectRatio="xMinYMin meet" x="523" y="-434"/>
<text text-anchor="start" x="538" y="-425.2" font-family="Helvetica,sans-Serif" font-size="11.00">obj_id</text>
<polygon fill="none" stroke="black" points="518,-395 518,-417 662,-417 662,-395 518,-395"/>
<image xlink:href="../../images/foreignKeys.png" width="11px" height="12px" preserveAspectRatio="xMinYMin meet" x="523" y="-412"/>
<text text-anchor="start" x="538" y="-403.2" font-family="Helvetica,sans-Serif" font-size="11.00">actuation</text>
<polygon fill="none" stroke="black" points="518,-373 518,-395 662,-395 662,-373 518,-373"/>
<image xlink:href="../../images/foreignKeys.png" width="11px" height="12px" preserveAspectRatio="xMinYMin meet" x="523" y="-390"/>
<text text-anchor="start" x="538" y="-381.2" font-family="Helvetica,sans-Serif" font-size="11.00">adjustability</text>
<polygon fill="none" stroke="black" points="518,-351 518,-373 662,-373 662,-351 518,-351"/>
<image xlink:href="../../images/foreignKeys.png" width="11px" height="12px" preserveAspectRatio="xMinYMin meet" x="523" y="-368"/>
<text text-anchor="start" x="538" y="-359.2" font-family="Helvetica,sans-Serif" font-size="11.00">control</text>
<polygon fill="none" stroke="black" points="518,-329 518,-351 662,-351 662,-329 518,-329"/>
<image xlink:href="../../images/foreignKeys.png" width="11px" height="12px" preserveAspectRatio="xMinYMin meet" x="523" y="-346"/>
<text text-anchor="start" x="538" y="-337.2" font-family="Helvetica,sans-Serif" font-size="11.00">function</text>
<polygon fill="#ffffff" stroke="transparent" points="518,-307 518,-329 662,-329 662,-307 518,-307"/>
<polygon fill="none" stroke="black" points="518,-307 518,-329 662,-329 662,-307 518,-307"/>
<text text-anchor="start" x="538" y="-315.2" font-family="Helvetica,sans-Serif" font-size="11.00">identifier</text>
<polygon fill="none" stroke="black" points="518,-285 518,-307 662,-307 662,-285 518,-285"/>
<image xlink:href="../../images/foreignKeys.png" width="11px" height="12px" preserveAspectRatio="xMinYMin meet" x="523" y="-302"/>
<text text-anchor="start" x="538" y="-293.2" font-family="Helvetica,sans-Serif" font-size="11.00">signal_transmission</text>
<polygon fill="#ffffff" stroke="transparent" points="518,-263 518,-285 662,-285 662,-263 518,-263"/>
<polygon fill="none" stroke="black" points="518,-263 518,-285 662,-285 662,-263 518,-263"/>
<image xlink:href="../../images/foreignKeys.png" width="11px" height="12px" preserveAspectRatio="xMinYMin meet" x="523" y="-280"/>
<text text-anchor="start" x="538" y="-271.2" font-family="Helvetica,sans-Serif" font-size="11.00">fk_dataowner</text>
<polygon fill="none" stroke="black" points="518,-241 518,-263 662,-263 662,-241 518,-241"/>
<image xlink:href="../../images/foreignKeys.png" width="11px" height="12px" preserveAspectRatio="xMinYMin meet" x="523" y="-258"/>
<text text-anchor="start" x="538" y="-249.2" font-family="Helvetica,sans-Serif" font-size="11.00">fk_provider</text>
<polygon fill="none" stroke="black" points="518,-219 518,-241 662,-241 662,-219 518,-219"/>
<image xlink:href="../../images/foreignKeys.png" width="11px" height="12px" preserveAspectRatio="xMinYMin meet" x="523" y="-236"/>
<text text-anchor="start" x="538" y="-227.2" font-family="Helvetica,sans-Serif" font-size="11.00">fk_wastewater_node</text>
<polygon fill="none" stroke="black" points="518,-197 518,-219 662,-219 662,-197 518,-197"/>
<image xlink:href="../../images/foreignKeys.png" width="11px" height="12px" preserveAspectRatio="xMinYMin meet" x="523" y="-214"/>
<text text-anchor="start" x="538" y="-205.2" font-family="Helvetica,sans-Serif" font-size="11.00">fk_overflow_to</text>
<polygon fill="none" stroke="black" points="518,-175 518,-197 662,-197 662,-175 518,-175"/>
<image xlink:href="../../images/foreignKeys.png" width="11px" height="12px" preserveAspectRatio="xMinYMin meet" x="523" y="-192"/>
<text text-anchor="start" x="538" y="-183.2" font-family="Helvetica,sans-Serif" font-size="11.00">fk_overflow_char</text>
<polygon fill="none" stroke="black" points="518,-153 518,-175 662,-175 662,-153 518,-153"/>
<image xlink:href="../../images/foreignKeys.png" width="11px" height="12px" preserveAspectRatio="xMinYMin meet" x="523" y="-170"/>
<text text-anchor="start" x="538" y="-161.2" font-family="Helvetica,sans-Serif" font-size="11.00">fk_control_center</text>
<polygon fill="none" stroke="black" points="518,-135 518,-153 662,-153 662,-135 518,-135"/>
<text text-anchor="start" x="521" y="-141.2" font-family="Helvetica,sans-Serif" font-size="11.00">...</text>
<polygon fill="#ffffff" stroke="transparent" points="518,-117 518,-135 586,-135 586,-117 518,-117"/>
<polygon fill="none" stroke="black" points="518,-117 518,-135 586,-135 586,-117 518,-117"/>
<text text-anchor="start" x="521" y="-123.2" font-family="Helvetica,sans-Serif" font-size="11.00">&lt; 11</text>
<polygon fill="#ffffff" stroke="transparent" points="586,-117 586,-135 619,-135 619,-117 586,-117"/>
<polygon fill="none" stroke="black" points="586,-117 586,-135 619,-135 619,-117 586,-117"/>
<text text-anchor="start" x="609" y="-123.2" font-family="Helvetica,sans-Serif" font-size="11.00"> &#160;</text>
<polygon fill="#ffffff" stroke="transparent" points="619,-117 619,-135 662,-135 662,-117 619,-117"/>
<polygon fill="none" stroke="black" points="619,-117 619,-135 662,-135 662,-117 619,-117"/>
<text text-anchor="start" x="643" y="-123.2" font-family="Helvetica,sans-Serif" font-size="11.00">4 &gt;</text>
</a>
</g>
</g>
<!-- overflow&#45;&gt;control_center -->
<g id="edge3" class="edge">
<title>overflow:w&#45;&gt;control_center:e</title>
<path fill="none" stroke="black" d="M502.61,-166.31C491.18,-170.29 484.81,-178 468,-178"/>
<polygon fill="black" stroke="black" points="509.1,-165.27 517.57,-167.55 513.05,-164.63 517,-164 517,-164 517,-164 513.05,-164.63 516.43,-160.45 509.1,-165.27 509.1,-165.27"/>
<ellipse fill="none" stroke="black" cx="505.94" cy="-165.78" rx="3.2" ry="3.2"/>
</g>
<!-- overflow&#45;&gt;organisation -->
<g id="edge4" class="edge">
<title>overflow:w&#45;&gt;organisation:e</title>
<path fill="none" stroke="black" d="M502.34,-273.97C354.3,-273.26 312.09,-262 157,-262"/>
<polygon fill="black" stroke="black" points="509,-273.98 516.99,-277.6 513,-273.99 517,-274 517,-274 517,-274 513,-273.99 517.01,-270.4 509,-273.98 509,-273.98"/>
<ellipse fill="none" stroke="black" cx="505.8" cy="-273.97" rx="3.2" ry="3.2"/>
</g>
<!-- overflow&#45;&gt;organisation -->
<g id="edge5" class="edge">
<title>overflow:w&#45;&gt;organisation:e</title>
<path fill="none" stroke="black" d="M502.38,-252.01C372.1,-252.19 334.17,-254.86 197,-260 179.21,-260.67 174.8,-262 157,-262"/>
<polygon fill="black" stroke="black" points="509,-252.01 517,-255.6 513,-252 517,-252 517,-252 517,-252 513,-252 517,-248.4 509,-252.01 509,-252.01"/>
<ellipse fill="none" stroke="black" cx="505.8" cy="-252.01" rx="3.2" ry="3.2"/>
</g>
<!-- throttle_shut_off_unit -->
<g id="node4" class="node">
<title>throttle_shut_off_unit</title>
<g id="a_node4"><a xlink:href="../../tables/throttle_shut_off_unit.html" xlink:title="throttle_shut_off_unit" target="_top">
<polygon fill="#ffffff" stroke="transparent" points="711,-374 711,-696 976,-696 976,-374 711,-374"/>
<polygon fill="#f5f5f5" stroke="transparent" points="711.5,-674 711.5,-696 976.5,-696 976.5,-674 711.5,-674"/>
<polygon fill="none" stroke="black" points="711.5,-674 711.5,-696 976.5,-696 976.5,-674 711.5,-674"/>
<text text-anchor="start" x="716.5" y="-683.2" font-family="Helvetica,sans-Serif" font-weight="bold" font-size="11.00">throttle_shut_off_unit</text>
<text text-anchor="start" x="937.5" y="-682.2" font-family="Helvetica,sans-Serif" font-size="11.00">[table]</text>
<polygon fill="none" stroke="black" points="711.5,-652 711.5,-674 976.5,-674 976.5,-652 711.5,-652"/>
<image xlink:href="../../images/primaryKeys.png" width="11px" height="12px" preserveAspectRatio="xMinYMin meet" x="716.5" y="-669"/>
<text text-anchor="start" x="731.5" y="-660.2" font-family="Helvetica,sans-Serif" font-size="11.00">obj_id</text>
<polygon fill="none" stroke="black" points="711.5,-630 711.5,-652 976.5,-652 976.5,-630 711.5,-630"/>
<image xlink:href="../../images/foreignKeys.png" width="11px" height="12px" preserveAspectRatio="xMinYMin meet" x="716.5" y="-647"/>
<text text-anchor="start" x="731.5" y="-638.2" font-family="Helvetica,sans-Serif" font-size="11.00">actuation</text>
<polygon fill="none" stroke="black" points="711.5,-608 711.5,-630 976.5,-630 976.5,-608 711.5,-608"/>
<image xlink:href="../../images/foreignKeys.png" width="11px" height="12px" preserveAspectRatio="xMinYMin meet" x="716.5" y="-625"/>
<text text-anchor="start" x="731.5" y="-616.2" font-family="Helvetica,sans-Serif" font-size="11.00">adjustability</text>
<polygon fill="none" stroke="black" points="711.5,-586 711.5,-608 976.5,-608 976.5,-586 711.5,-586"/>
<image xlink:href="../../images/foreignKeys.png" width="11px" height="12px" preserveAspectRatio="xMinYMin meet" x="716.5" y="-603"/>
<text text-anchor="start" x="731.5" y="-594.2" font-family="Helvetica,sans-Serif" font-size="11.00">control</text>
<polygon fill="#ffffff" stroke="transparent" points="711.5,-564 711.5,-586 976.5,-586 976.5,-564 711.5,-564"/>
<polygon fill="none" stroke="black" points="711.5,-564 711.5,-586 976.5,-586 976.5,-564 711.5,-564"/>
<text text-anchor="start" x="731.5" y="-572.2" font-family="Helvetica,sans-Serif" font-size="11.00">identifier</text>
<polygon fill="none" stroke="black" points="711.5,-542 711.5,-564 976.5,-564 976.5,-542 711.5,-542"/>
<image xlink:href="../../images/foreignKeys.png" width="11px" height="12px" preserveAspectRatio="xMinYMin meet" x="716.5" y="-559"/>
<text text-anchor="start" x="731.5" y="-550.2" font-family="Helvetica,sans-Serif" font-size="11.00">kind</text>
<polygon fill="none" stroke="black" points="711.5,-520 711.5,-542 976.5,-542 976.5,-520 711.5,-520"/>
<image xlink:href="../../images/foreignKeys.png" width="11px" height="12px" preserveAspectRatio="xMinYMin meet" x="716.5" y="-537"/>
<text text-anchor="start" x="731.5" y="-528.2" font-family="Helvetica,sans-Serif" font-size="11.00">signal_transmission</text>
<polygon fill="#ffffff" stroke="transparent" points="711.5,-498 711.5,-520 976.5,-520 976.5,-498 711.5,-498"/>
<polygon fill="none" stroke="black" points="711.5,-498 711.5,-520 976.5,-520 976.5,-498 711.5,-498"/>
<image xlink:href="../../images/foreignKeys.png" width="11px" height="12px" preserveAspectRatio="xMinYMin meet" x="716.5" y="-515"/>
<text text-anchor="start" x="731.5" y="-506.2" font-family="Helvetica,sans-Serif" font-size="11.00">fk_dataowner</text>
<polygon fill="none" stroke="black" points="711.5,-476 711.5,-498 976.5,-498 976.5,-476 711.5,-476"/>
<image xlink:href="../../images/foreignKeys.png" width="11px" height="12px" preserveAspectRatio="xMinYMin meet" x="716.5" y="-493"/>
<text text-anchor="start" x="731.5" y="-484.2" font-family="Helvetica,sans-Serif" font-size="11.00">fk_provider</text>
<polygon fill="none" stroke="black" points="711.5,-454 711.5,-476 976.5,-476 976.5,-454 711.5,-454"/>
<image xlink:href="../../images/foreignKeys.png" width="11px" height="12px" preserveAspectRatio="xMinYMin meet" x="716.5" y="-471"/>
<text text-anchor="start" x="731.5" y="-462.2" font-family="Helvetica,sans-Serif" font-size="11.00">fk_wastewater_node</text>
<polygon fill="none" stroke="black" points="711.5,-432 711.5,-454 976.5,-454 976.5,-432 711.5,-432"/>
<image xlink:href="../../images/foreignKeys.png" width="11px" height="12px" preserveAspectRatio="xMinYMin meet" x="716.5" y="-449"/>
<text text-anchor="start" x="731.5" y="-440.2" font-family="Helvetica,sans-Serif" font-size="11.00">fk_control_center</text>
<polygon fill="none" stroke="black" points="711.5,-410 711.5,-432 976.5,-432 976.5,-410 711.5,-410"/>
<image xlink:href="../../images/foreignKeys.png" width="11px" height="12px" preserveAspectRatio="xMinYMin meet" x="716.5" y="-427"/>
<text text-anchor="start" x="731.5" y="-418.2" font-family="Helvetica,sans-Serif" font-size="11.00">fk_overflow</text>
<polygon fill="none" stroke="black" points="711.5,-392 711.5,-410 976.5,-410 976.5,-392 711.5,-392"/>
<text text-anchor="start" x="714.5" y="-398.2" font-family="Helvetica,sans-Serif" font-size="11.00">...</text>
<polygon fill="#ffffff" stroke="transparent" points="711.5,-374 711.5,-392 840.5,-392 840.5,-374 711.5,-374"/>
<polygon fill="none" stroke="black" points="711.5,-374 711.5,-392 840.5,-392 840.5,-374 711.5,-374"/>
<text text-anchor="start" x="714.5" y="-380.2" font-family="Helvetica,sans-Serif" font-size="11.00">&lt; 10</text>
<polygon fill="#ffffff" stroke="transparent" points="840.5,-374 840.5,-392 903.5,-392 903.5,-374 840.5,-374"/>
<polygon fill="none" stroke="black" points="840.5,-374 840.5,-392 903.5,-392 903.5,-374 840.5,-374"/>
<text text-anchor="start" x="893.5" y="-380.2" font-family="Helvetica,sans-Serif" font-size="11.00"> &#160;</text>
<polygon fill="#ffffff" stroke="transparent" points="903.5,-374 903.5,-392 976.5,-392 976.5,-374 903.5,-374"/>
<polygon fill="none" stroke="black" points="903.5,-374 903.5,-392 976.5,-392 976.5,-374 903.5,-374"/>
<text text-anchor="start" x="957.5" y="-380.2" font-family="Helvetica,sans-Serif" font-size="11.00">2 &gt;</text>
</a>
</g>
</g>
<!-- throttle_shut_off_unit&#45;&gt;control_center -->
<g id="edge6" class="edge">
<title>throttle_shut_off_unit:w&#45;&gt;control_center:e</title>
<path fill="none" stroke="black" d="M696.64,-438.7C647.5,-402.76 722.35,-152.44 670,-106 616.8,-58.81 571.66,-70.58 510,-106 477.88,-124.45 505.05,-178 468,-178"/>
<polygon fill="black" stroke="black" points="702.86,-440.63 709.43,-446.44 706.68,-441.82 710.5,-443 710.5,-443 710.5,-443 706.68,-441.82 711.57,-439.56 702.86,-440.63 702.86,-440.63"/>
<ellipse fill="none" stroke="black" cx="699.8" cy="-439.68" rx="3.2" ry="3.2"/>
</g>
<!-- throttle_shut_off_unit&#45;&gt;organisation -->
<g id="edge7" class="edge">
<title>throttle_shut_off_unit:w&#45;&gt;organisation:e</title>
<path fill="none" stroke="black" d="M695.94,-509.18C477.32,-514.69 365.83,-641.3 197,-495 117.59,-426.19 262.07,-262 157,-262"/>
<polygon fill="black" stroke="black" points="702.5,-509.1 710.55,-512.6 706.5,-509.05 710.5,-509 710.5,-509 710.5,-509 706.5,-509.05 710.45,-505.4 702.5,-509.1 702.5,-509.1"/>
<ellipse fill="none" stroke="black" cx="699.3" cy="-509.14" rx="3.2" ry="3.2"/>
</g>
<!-- throttle_shut_off_unit&#45;&gt;organisation -->
<g id="edge9" class="edge">
<title>throttle_shut_off_unit:w&#45;&gt;organisation:e</title>
<path fill="none" stroke="black" d="M695.9,-487.1C617.98,-488.13 590.39,-496.49 510,-471 488.28,-464.11 179.79,-262 157,-262"/>
<polygon fill="black" stroke="black" points="702.5,-487.05 710.52,-490.6 706.5,-487.03 710.5,-487 710.5,-487 710.5,-487 706.5,-487.03 710.48,-483.4 702.5,-487.05 702.5,-487.05"/>
<ellipse fill="none" stroke="black" cx="699.3" cy="-487.07" rx="3.2" ry="3.2"/>
</g>
<!-- throttle_shut_off_unit&#45;&gt;overflow -->
<g id="edge8" class="edge">
<title>throttle_shut_off_unit:w&#45;&gt;overflow:e</title>
<path fill="none" stroke="black" d="M696.02,-422.28C685.29,-424.3 678.5,-428 663,-428"/>
<polygon fill="black" stroke="black" points="702.53,-421.71 710.82,-424.59 706.52,-421.35 710.5,-421 710.5,-421 710.5,-421 706.52,-421.35 710.18,-417.41 702.53,-421.71 702.53,-421.71"/>
<ellipse fill="none" stroke="black" cx="699.34" cy="-421.99" rx="3.2" ry="3.2"/>
</g>
</g>
</svg>
