<?xml version="1.0" encoding="UTF-8" standalone="no"?>
<!DOCTYPE svg PUBLIC "-//W3C//DTD SVG 1.1//EN"
 "http://www.w3.org/Graphics/SVG/1.1/DTD/svg11.dtd">
<!-- Generated by graphviz version 2.43.0 (0)
 -->
<!-- Title: oneDegreeRelationshipsDiagram Pages: 1 -->
<svg width="924pt" height="665pt"
 viewBox="0.00 0.00 924.00 665.00" xmlns="http://www.w3.org/2000/svg" xmlns:xlink="http://www.w3.org/1999/xlink">
<g id="graph0" class="graph" transform="scale(1 1) rotate(0) translate(4 661)">
<title>oneDegreeRelationshipsDiagram</title>
<polygon fill="#ffffff" stroke="transparent" points="-4,4 -4,-661 920,-661 920,4 -4,4"/>
<text text-anchor="middle" x="79.5" y="-7.2" font-family="Helvetica,sans-Serif" font-size="11.00">Generated by SchemaSpy</text>
<!-- damage -->
<g id="node1" class="node">
<title>damage</title>
<g id="a_node1"><a xlink:href="../../tables/damage.html" xlink:title="damage" target="_top">
<polygon fill="#ffffff" stroke="transparent" points="375,-308 375,-594 657,-594 657,-308 375,-308"/>
<polygon fill="#f5f5f5" stroke="transparent" points="377,-570 377,-592 655,-592 655,-570 377,-570"/>
<polygon fill="none" stroke="black" points="377,-570 377,-592 655,-592 655,-570 377,-570"/>
<text text-anchor="start" x="382" y="-579.2" font-family="Helvetica,sans-Serif" font-weight="bold" font-size="11.00">damage</text>
<text text-anchor="start" x="613" y="-578.2" font-family="Helvetica,sans-Serif" font-size="11.00">[table]</text>
<polygon fill="none" stroke="black" points="377,-548 377,-570 549,-570 549,-548 377,-548"/>
<image xlink:href="../../images/primaryKeys.png" width="11px" height="12px" preserveAspectRatio="xMinYMin meet" x="382" y="-565"/>
<text text-anchor="start" x="397" y="-556.2" font-family="Helvetica,sans-Serif" font-size="11.00">obj_id</text>
<polygon fill="none" stroke="black" points="549,-548 549,-570 655,-570 655,-548 549,-548"/>
<text text-anchor="start" x="552" y="-556.2" font-family="Helvetica,sans-Serif" font-size="11.00">varchar[16]</text>
<polygon fill="none" stroke="black" points="377,-526 377,-548 549,-548 549,-526 377,-526"/>
<text text-anchor="start" x="397" y="-534.2" font-family="Helvetica,sans-Serif" font-size="11.00">comments</text>
<polygon fill="none" stroke="black" points="549,-526 549,-548 655,-548 655,-526 549,-526"/>
<text text-anchor="start" x="552" y="-534.2" font-family="Helvetica,sans-Serif" font-size="11.00">text[2147483647]</text>
<polygon fill="none" stroke="black" points="377,-504 377,-526 549,-526 549,-504 377,-504"/>
<image xlink:href="../../images/foreignKeys.png" width="11px" height="12px" preserveAspectRatio="xMinYMin meet" x="382" y="-521"/>
<text text-anchor="start" x="397" y="-512.2" font-family="Helvetica,sans-Serif" font-size="11.00">connection</text>
<polygon fill="none" stroke="black" points="549,-504 549,-526 655,-526 655,-504 549,-504"/>
<text text-anchor="start" x="552" y="-512.2" font-family="Helvetica,sans-Serif" font-size="11.00">int4[10]</text>
<polygon fill="none" stroke="black" points="377,-482 377,-504 549,-504 549,-482 377,-482"/>
<text text-anchor="start" x="397" y="-490.2" font-family="Helvetica,sans-Serif" font-size="11.00">line_damage</text>
<polygon fill="none" stroke="black" points="549,-482 549,-504 655,-504 655,-482 549,-482"/>
<text text-anchor="start" x="552" y="-490.2" font-family="Helvetica,sans-Serif" font-size="11.00">text[2147483647]</text>
<polygon fill="none" stroke="black" points="377,-460 377,-482 549,-482 549,-460 377,-460"/>
<image xlink:href="../../images/foreignKeys.png" width="11px" height="12px" preserveAspectRatio="xMinYMin meet" x="382" y="-477"/>
<text text-anchor="start" x="397" y="-468.2" font-family="Helvetica,sans-Serif" font-size="11.00">single_damage_class</text>
<polygon fill="none" stroke="black" points="549,-460 549,-482 655,-482 655,-460 549,-460"/>
<text text-anchor="start" x="552" y="-468.2" font-family="Helvetica,sans-Serif" font-size="11.00">int4[10]</text>
<polygon fill="none" stroke="black" points="377,-438 377,-460 549,-460 549,-438 377,-438"/>
<text text-anchor="start" x="397" y="-446.2" font-family="Helvetica,sans-Serif" font-size="11.00">video_counter</text>
<polygon fill="none" stroke="black" points="549,-438 549,-460 655,-460 655,-438 549,-438"/>
<text text-anchor="start" x="552" y="-446.2" font-family="Helvetica,sans-Serif" font-size="11.00">text[2147483647]</text>
<polygon fill="none" stroke="black" points="377,-416 377,-438 549,-438 549,-416 377,-416"/>
<text text-anchor="start" x="397" y="-424.2" font-family="Helvetica,sans-Serif" font-size="11.00">view_parameters</text>
<polygon fill="none" stroke="black" points="549,-416 549,-438 655,-438 655,-416 549,-416"/>
<text text-anchor="start" x="552" y="-424.2" font-family="Helvetica,sans-Serif" font-size="11.00">text[2147483647]</text>
<polygon fill="none" stroke="black" points="377,-394 377,-416 549,-416 549,-394 377,-394"/>
<text text-anchor="start" x="397" y="-402.2" font-family="Helvetica,sans-Serif" font-size="11.00">last_modification</text>
<polygon fill="none" stroke="black" points="549,-394 549,-416 655,-416 655,-394 549,-394"/>
<text text-anchor="start" x="552" y="-402.2" font-family="Helvetica,sans-Serif" font-size="11.00">timestamp[29,6]</text>
<polygon fill="none" stroke="black" points="377,-372 377,-394 549,-394 549,-372 377,-372"/>
<image xlink:href="../../images/foreignKeys.png" width="11px" height="12px" preserveAspectRatio="xMinYMin meet" x="382" y="-389"/>
<text text-anchor="start" x="397" y="-380.2" font-family="Helvetica,sans-Serif" font-size="11.00">fk_dataowner</text>
<polygon fill="none" stroke="black" points="549,-372 549,-394 655,-394 655,-372 549,-372"/>
<text text-anchor="start" x="552" y="-380.2" font-family="Helvetica,sans-Serif" font-size="11.00">varchar[16]</text>
<polygon fill="none" stroke="black" points="377,-350 377,-372 549,-372 549,-350 377,-350"/>
<image xlink:href="../../images/foreignKeys.png" width="11px" height="12px" preserveAspectRatio="xMinYMin meet" x="382" y="-367"/>
<text text-anchor="start" x="397" y="-358.2" font-family="Helvetica,sans-Serif" font-size="11.00">fk_provider</text>
<polygon fill="none" stroke="black" points="549,-350 549,-372 655,-372 655,-350 549,-350"/>
<text text-anchor="start" x="552" y="-358.2" font-family="Helvetica,sans-Serif" font-size="11.00">varchar[16]</text>
<polygon fill="none" stroke="black" points="377,-328 377,-350 549,-350 549,-328 377,-328"/>
<image xlink:href="../../images/foreignKeys.png" width="11px" height="12px" preserveAspectRatio="xMinYMin meet" x="382" y="-345"/>
<text text-anchor="start" x="397" y="-336.2" font-family="Helvetica,sans-Serif" font-size="11.00">fk_examination</text>
<polygon fill="none" stroke="black" points="549,-328 549,-350 655,-350 655,-328 549,-328"/>
<text text-anchor="start" x="552" y="-336.2" font-family="Helvetica,sans-Serif" font-size="11.00">varchar[16]</text>
<polygon fill="#ffffff" stroke="transparent" points="377,-310 377,-328 655,-328 655,-310 377,-310"/>
<polygon fill="none" stroke="black" points="377,-310 377,-328 655,-328 655,-310 377,-310"/>
<polygon fill="#ffffff" stroke="transparent" points="378,-311 378,-327 474,-327 474,-311 378,-311"/>
<text text-anchor="start" x="380" y="-316.2" font-family="Helvetica,sans-Serif" font-size="11.00">&lt; 5</text>
<polygon fill="#ffffff" stroke="transparent" points="474,-311 474,-327 558,-327 558,-311 474,-311"/>
<text text-anchor="start" x="512" y="-316.2" font-family="Helvetica,sans-Serif" font-size="11.00"> &#160;</text>
<polygon fill="#ffffff" stroke="transparent" points="558,-311 558,-327 654,-327 654,-311 558,-311"/>
<text text-anchor="start" x="632" y="-316.2" font-family="Helvetica,sans-Serif" font-size="11.00">2 &gt;</text>
<polygon fill="black" stroke="black" points="474,-311 474,-327 474,-327 474,-311 474,-311"/>
<polygon fill="black" stroke="black" points="558,-311 558,-327 558,-327 558,-311 558,-311"/>
<polygon fill="none" stroke="black" stroke-width="2" points="376,-309 376,-593 656,-593 656,-309 376,-309"/>
</a>
</g>
</g>
<!-- tww_vl.damage_connection -->
<g id="node2" class="node">
<title>tww_vl.damage_connection</title>
<g id="a_node2"><a xlink:href="../../../tww_vl/tables/damage_connection.html" xlink:title="tww_vl.damage_connection" target="_top">
<polygon fill="#ffffff" stroke="transparent" points="43.5,-518 43.5,-576 290.5,-576 290.5,-518 43.5,-518"/>
<polygon fill="#f5f5f5" stroke="transparent" points="44,-554 44,-576 291,-576 291,-554 44,-554"/>
<polygon fill="none" stroke="black" points="44,-554 44,-576 291,-576 291,-554 44,-554"/>
<text text-anchor="start" x="49" y="-563.2" font-family="Helvetica,sans-Serif" font-weight="bold" font-size="11.00">tww_vl.damage_connection</text>
<text text-anchor="start" x="249" y="-562.2" font-family="Helvetica,sans-Serif" font-size="11.00">[table]</text>
<polygon fill="none" stroke="black" points="44,-536 44,-554 291,-554 291,-536 44,-536"/>
<text text-anchor="start" x="47" y="-542.2" font-family="Helvetica,sans-Serif" font-size="11.00">...</text>
<polygon fill="#ffffff" stroke="transparent" points="44,-518 44,-536 291,-536 291,-518 44,-518"/>
<polygon fill="none" stroke="black" points="44,-518 44,-536 291,-536 291,-518 44,-518"/>
<polygon fill="#ffffff" stroke="transparent" points="45,-519 45,-535 113,-535 113,-519 45,-519"/>
<text text-anchor="start" x="47" y="-524.2" font-family="Helvetica,sans-Serif" font-size="11.00"> &#160;</text>
<polygon fill="#ffffff" stroke="transparent" points="113,-519 113,-535 210,-535 210,-519 113,-519"/>
<text text-anchor="start" x="143" y="-524.2" font-family="Helvetica,sans-Serif" font-size="11.00">0 rows</text>
<polygon fill="#ffffff" stroke="transparent" points="210,-519 210,-535 290,-535 290,-519 210,-519"/>
<text text-anchor="start" x="268" y="-524.2" font-family="Helvetica,sans-Serif" font-size="11.00">1 &gt;</text>
<polygon fill="black" stroke="black" points="113,-519 113,-535 113,-535 113,-519 113,-519"/>
<polygon fill="black" stroke="black" points="210,-519 210,-535 210,-535 210,-519 210,-519"/>
</a>
</g>
</g>
<!-- damage&#45;&gt;tww_vl.damage_connection -->
<g id="edge1" class="edge">
<title>damage:w&#45;&gt;tww_vl.damage_connection:e</title>
<path fill="none" stroke="black" d="M361.43,-515.24C340.73,-515.92 319.37,-517.95 298.74,-520.68"/>
<polygon fill="black" stroke="black" points="368,-515.13 376.06,-518.6 372,-515.07 376,-515 376,-515 376,-515 372,-515.07 375.94,-511.4 368,-515.13 368,-515.13"/>
<ellipse fill="none" stroke="black" cx="364.8" cy="-515.19" rx="3.2" ry="3.2"/>
</g>
<!-- organisation -->
<g id="node3" class="node">
<title>organisation</title>
<g id="a_node3"><a xlink:href="../../tables/organisation.html" xlink:title="organisation" target="_top">
<polygon fill="#ffffff" stroke="transparent" points="80,-204 80,-416 254,-416 254,-204 80,-204"/>
<polygon fill="#f5f5f5" stroke="transparent" points="80,-394 80,-416 254,-416 254,-394 80,-394"/>
<polygon fill="none" stroke="black" points="80,-394 80,-416 254,-416 254,-394 80,-394"/>
<text text-anchor="start" x="85" y="-403.2" font-family="Helvetica,sans-Serif" font-weight="bold" font-size="11.00">organisation</text>
<text text-anchor="start" x="212" y="-402.2" font-family="Helvetica,sans-Serif" font-size="11.00">[table]</text>
<polygon fill="none" stroke="black" points="80,-372 80,-394 254,-394 254,-372 80,-372"/>
<image xlink:href="../../images/primaryKeys.png" width="11px" height="12px" preserveAspectRatio="xMinYMin meet" x="85" y="-389"/>
<text text-anchor="start" x="100" y="-380.2" font-family="Helvetica,sans-Serif" font-size="11.00">obj_id</text>
<polygon fill="#ffffff" stroke="transparent" points="80,-350 80,-372 254,-372 254,-350 80,-350"/>
<polygon fill="none" stroke="black" points="80,-350 80,-372 254,-372 254,-350 80,-350"/>
<text text-anchor="start" x="100" y="-358.2" font-family="Helvetica,sans-Serif" font-size="11.00">identifier</text>
<polygon fill="#ffffff" stroke="transparent" points="80,-328 80,-350 254,-350 254,-328 80,-328"/>
<polygon fill="none" stroke="black" points="80,-328 80,-350 254,-350 254,-328 80,-328"/>
<image xlink:href="../../images/foreignKeys.png" width="11px" height="12px" preserveAspectRatio="xMinYMin meet" x="85" y="-345"/>
<text text-anchor="start" x="100" y="-336.2" font-family="Helvetica,sans-Serif" font-size="11.00">organisation_type</text>
<polygon fill="none" stroke="black" points="80,-306 80,-328 254,-328 254,-306 80,-306"/>
<image xlink:href="../../images/foreignKeys.png" width="11px" height="12px" preserveAspectRatio="xMinYMin meet" x="85" y="-323"/>
<text text-anchor="start" x="100" y="-314.2" font-family="Helvetica,sans-Serif" font-size="11.00">status</text>
<polygon fill="#ffffff" stroke="transparent" points="80,-284 80,-306 254,-306 254,-284 80,-284"/>
<polygon fill="none" stroke="black" points="80,-284 80,-306 254,-306 254,-284 80,-284"/>
<text text-anchor="start" x="100" y="-292.2" font-family="Helvetica,sans-Serif" font-size="11.00">uid</text>
<polygon fill="none" stroke="black" points="80,-262 80,-284 254,-284 254,-262 80,-262"/>
<image xlink:href="../../images/foreignKeys.png" width="11px" height="12px" preserveAspectRatio="xMinYMin meet" x="85" y="-279"/>
<text text-anchor="start" x="100" y="-270.2" font-family="Helvetica,sans-Serif" font-size="11.00">fk_dataowner</text>
<polygon fill="none" stroke="black" points="80,-240 80,-262 254,-262 254,-240 80,-240"/>
<image xlink:href="../../images/foreignKeys.png" width="11px" height="12px" preserveAspectRatio="xMinYMin meet" x="85" y="-257"/>
<text text-anchor="start" x="100" y="-248.2" font-family="Helvetica,sans-Serif" font-size="11.00">fk_provider</text>
<polygon fill="none" stroke="black" points="80,-222 80,-240 254,-240 254,-222 80,-222"/>
<text text-anchor="start" x="83" y="-228.2" font-family="Helvetica,sans-Serif" font-size="11.00">...</text>
<polygon fill="#ffffff" stroke="transparent" points="80,-204 80,-222 254,-222 254,-204 80,-204"/>
<polygon fill="none" stroke="black" points="80,-204 80,-222 254,-222 254,-204 80,-204"/>
<polygon fill="#ffffff" stroke="transparent" points="81,-205 81,-221 138,-221 138,-205 81,-205"/>
<text text-anchor="start" x="83" y="-210.2" font-family="Helvetica,sans-Serif" font-size="11.00">&lt; 4</text>
<polygon fill="#ffffff" stroke="transparent" points="138,-205 138,-221 183,-221 183,-205 138,-205"/>
<text text-anchor="start" x="156.5" y="-210.2" font-family="Helvetica,sans-Serif" font-size="11.00"> &#160;</text>
<polygon fill="#ffffff" stroke="transparent" points="183,-205 183,-221 253,-221 253,-205 183,-205"/>
<text text-anchor="start" x="217" y="-210.2" font-family="Helvetica,sans-Serif" font-size="11.00">101 &gt;</text>
<polygon fill="black" stroke="black" points="138,-205 138,-221 138,-221 138,-205 138,-205"/>
<polygon fill="black" stroke="black" points="183,-205 183,-221 183,-221 183,-205 183,-205"/>
</a>
</g>
</g>
<!-- damage&#45;&gt;organisation -->
<g id="edge2" class="edge">
<title>damage:w&#45;&gt;organisation:e</title>
<path fill="none" stroke="black" d="M361.6,-383C319.28,-383 303.63,-383 255,-383"/>
<polygon fill="black" stroke="black" points="368,-383 376,-386.6 372,-383 376,-383 376,-383 376,-383 372,-383 376,-379.4 368,-383 368,-383"/>
<ellipse fill="none" stroke="black" cx="364.8" cy="-383" rx="3.2" ry="3.2"/>
</g>
<!-- damage&#45;&gt;organisation -->
<g id="edge4" class="edge">
<title>damage:w&#45;&gt;organisation:e</title>
<path fill="none" stroke="black" d="M361.41,-361.57C318.71,-365.01 304.43,-383 255,-383"/>
<polygon fill="black" stroke="black" points="368.01,-361.31 376.14,-364.6 372,-361.16 376,-361 376,-361 376,-361 372,-361.16 375.86,-357.4 368.01,-361.31 368.01,-361.31"/>
<ellipse fill="none" stroke="black" cx="364.81" cy="-361.43" rx="3.2" ry="3.2"/>
</g>
<!-- examination -->
<g id="node4" class="node">
<title>examination</title>
<g id="a_node4"><a xlink:href="../../tables/examination.html" xlink:title="examination" target="_top">
<polygon fill="#ffffff" stroke="transparent" points="80,-37 80,-183 254,-183 254,-37 80,-37"/>
<polygon fill="#f5f5f5" stroke="transparent" points="80,-161 80,-183 254,-183 254,-161 80,-161"/>
<polygon fill="none" stroke="black" points="80,-161 80,-183 254,-183 254,-161 80,-161"/>
<text text-anchor="start" x="85" y="-170.2" font-family="Helvetica,sans-Serif" font-weight="bold" font-size="11.00">examination</text>
<text text-anchor="start" x="212" y="-169.2" font-family="Helvetica,sans-Serif" font-size="11.00">[table]</text>
<polygon fill="none" stroke="black" points="80,-139 80,-161 254,-161 254,-139 80,-139"/>
<image xlink:href="../../images/primaryKeys.png" width="11px" height="12px" preserveAspectRatio="xMinYMin meet" x="85" y="-156"/>
<text text-anchor="start" x="100" y="-147.2" font-family="Helvetica,sans-Serif" font-size="11.00">obj_id</text>
<polygon fill="none" stroke="black" points="80,-117 80,-139 254,-139 254,-117 80,-117"/>
<image xlink:href="../../images/foreignKeys.png" width="11px" height="12px" preserveAspectRatio="xMinYMin meet" x="85" y="-134"/>
<text text-anchor="start" x="100" y="-125.2" font-family="Helvetica,sans-Serif" font-size="11.00">recording_type</text>
<polygon fill="none" stroke="black" points="80,-95 80,-117 254,-117 254,-95 80,-95"/>
<image xlink:href="../../images/foreignKeys.png" width="11px" height="12px" preserveAspectRatio="xMinYMin meet" x="85" y="-112"/>
<text text-anchor="start" x="100" y="-103.2" font-family="Helvetica,sans-Serif" font-size="11.00">weather</text>
<polygon fill="none" stroke="black" points="80,-73 80,-95 254,-95 254,-73 80,-73"/>
<image xlink:href="../../images/foreignKeys.png" width="11px" height="12px" preserveAspectRatio="xMinYMin meet" x="85" y="-90"/>
<text text-anchor="start" x="100" y="-81.2" font-family="Helvetica,sans-Serif" font-size="11.00">fk_reach_point</text>
<polygon fill="none" stroke="black" points="80,-55 80,-73 254,-73 254,-55 80,-55"/>
<text text-anchor="start" x="83" y="-61.2" font-family="Helvetica,sans-Serif" font-size="11.00">...</text>
<polygon fill="#ffffff" stroke="transparent" points="80,-37 80,-55 254,-55 254,-37 80,-37"/>
<polygon fill="none" stroke="black" points="80,-37 80,-55 254,-55 254,-37 80,-37"/>
<polygon fill="#ffffff" stroke="transparent" points="81,-38 81,-54 143,-54 143,-38 81,-38"/>
<text text-anchor="start" x="83" y="-43.2" font-family="Helvetica,sans-Serif" font-size="11.00">&lt; 4</text>
<polygon fill="#ffffff" stroke="transparent" points="143,-38 143,-54 192,-54 192,-38 143,-38"/>
<text text-anchor="start" x="163.5" y="-43.2" font-family="Helvetica,sans-Serif" font-size="11.00"> &#160;</text>
<polygon fill="#ffffff" stroke="transparent" points="192,-38 192,-54 253,-54 253,-38 192,-38"/>
<text text-anchor="start" x="231" y="-43.2" font-family="Helvetica,sans-Serif" font-size="11.00">1 &gt;</text>
<polygon fill="black" stroke="black" points="143,-38 143,-54 143,-54 143,-38 143,-38"/>
<polygon fill="black" stroke="black" points="192,-38 192,-54 192,-54 192,-38 192,-38"/>
</a>
</g>
</g>
<!-- damage&#45;&gt;examination -->
<g id="edge3" class="edge">
<title>damage:w&#45;&gt;examination:e</title>
<path fill="none" stroke="black" d="M361.71,-337.1C319.09,-323.61 372.71,-241.24 334,-193 308.98,-161.82 294.98,-150 255,-150"/>
<polygon fill="black" stroke="black" points="368.07,-337.95 375.53,-342.57 372.03,-338.47 376,-339 376,-339 376,-339 372.03,-338.47 376.47,-335.43 368.07,-337.95 368.07,-337.95"/>
<ellipse fill="none" stroke="black" cx="364.9" cy="-337.53" rx="3.2" ry="3.2"/>
</g>
<!-- tww_vl.damage_single_damage_class -->
<g id="node5" class="node">
<title>tww_vl.damage_single_damage_class</title>
<g id="a_node5"><a xlink:href="../../../tww_vl/tables/damage_single_damage_class.html" xlink:title="tww_vl.damage_single_damage_class" target="_top">
<polygon fill="#ffffff" stroke="transparent" points="8,-439 8,-497 326,-497 326,-439 8,-439"/>
<polygon fill="#f5f5f5" stroke="transparent" points="8,-475 8,-497 326,-497 326,-475 8,-475"/>
<polygon fill="none" stroke="black" points="8,-475 8,-497 326,-497 326,-475 8,-475"/>
<text text-anchor="start" x="13" y="-484.2" font-family="Helvetica,sans-Serif" font-weight="bold" font-size="11.00">tww_vl.damage_single_damage_class</text>
<text text-anchor="start" x="284" y="-483.2" font-family="Helvetica,sans-Serif" font-size="11.00">[table]</text>
<polygon fill="none" stroke="black" points="8,-457 8,-475 326,-475 326,-457 8,-457"/>
<text text-anchor="start" x="11" y="-463.2" font-family="Helvetica,sans-Serif" font-size="11.00">...</text>
<polygon fill="#ffffff" stroke="transparent" points="8,-439 8,-457 326,-457 326,-439 8,-439"/>
<polygon fill="none" stroke="black" points="8,-439 8,-457 326,-457 326,-439 8,-439"/>
<polygon fill="#ffffff" stroke="transparent" points="9,-440 9,-456 101,-456 101,-440 9,-440"/>
<text text-anchor="start" x="11" y="-445.2" font-family="Helvetica,sans-Serif" font-size="11.00"> &#160;</text>
<polygon fill="#ffffff" stroke="transparent" points="101,-440 101,-456 222,-456 222,-440 101,-440"/>
<text text-anchor="start" x="143" y="-445.2" font-family="Helvetica,sans-Serif" font-size="11.00">0 rows</text>
<polygon fill="#ffffff" stroke="transparent" points="222,-440 222,-456 325,-456 325,-440 222,-440"/>
<text text-anchor="start" x="303" y="-445.2" font-family="Helvetica,sans-Serif" font-size="11.00">1 &gt;</text>
<polygon fill="black" stroke="black" points="101,-440 101,-456 101,-456 101,-440 101,-440"/>
<polygon fill="black" stroke="black" points="222,-440 222,-456 222,-456 222,-440 222,-440"/>
</a>
</g>
</g>
<!-- damage&#45;&gt;tww_vl.damage_single_damage_class -->
<g id="edge5" class="edge">
<title>damage:w&#45;&gt;tww_vl.damage_single_damage_class:e</title>
<path fill="none" stroke="black" d="M361.45,-470.98C352.42,-470.95 343.24,-470.9 334.04,-470.82"/>
<polygon fill="black" stroke="black" points="368,-470.99 375.99,-474.6 372,-470.99 376,-471 376,-471 376,-471 372,-470.99 376.01,-467.4 368,-470.99 368,-470.99"/>
<ellipse fill="none" stroke="black" cx="364.8" cy="-470.98" rx="3.2" ry="3.2"/>
</g>
<!-- damage_channel -->
<g id="node6" class="node">
<title>damage_channel</title>
<g id="a_node6"><a xlink:href="../../tables/damage_channel.html" xlink:title="damage_channel" target="_top">
<polygon fill="#ffffff" stroke="transparent" points="709,-551 709,-653 905,-653 905,-551 709,-551"/>
<polygon fill="#f5f5f5" stroke="transparent" points="709,-631 709,-653 905,-653 905,-631 709,-631"/>
<polygon fill="none" stroke="black" points="709,-631 709,-653 905,-653 905,-631 709,-631"/>
<text text-anchor="start" x="714" y="-640.2" font-family="Helvetica,sans-Serif" font-weight="bold" font-size="11.00">damage_channel</text>
<text text-anchor="start" x="863" y="-639.2" font-family="Helvetica,sans-Serif" font-size="11.00">[table]</text>
<polygon fill="none" stroke="black" points="709,-609 709,-631 905,-631 905,-609 709,-609"/>
<image xlink:href="../../images/primaryKeys.png" width="11px" height="12px" preserveAspectRatio="xMinYMin meet" x="714" y="-626"/>
<text text-anchor="start" x="729" y="-617.2" font-family="Helvetica,sans-Serif" font-size="11.00">obj_id</text>
<polygon fill="none" stroke="black" points="709,-587 709,-609 905,-609 905,-587 709,-587"/>
<image xlink:href="../../images/foreignKeys.png" width="11px" height="12px" preserveAspectRatio="xMinYMin meet" x="714" y="-604"/>
<text text-anchor="start" x="729" y="-595.2" font-family="Helvetica,sans-Serif" font-size="11.00">channel_damage_code</text>
<polygon fill="none" stroke="black" points="709,-569 709,-587 905,-587 905,-569 709,-569"/>
<text text-anchor="start" x="712" y="-575.2" font-family="Helvetica,sans-Serif" font-size="11.00">...</text>
<polygon fill="#ffffff" stroke="transparent" points="709,-551 709,-569 905,-569 905,-551 709,-551"/>
<polygon fill="none" stroke="black" points="709,-551 709,-569 905,-569 905,-551 709,-551"/>
<polygon fill="#ffffff" stroke="transparent" points="710,-552 710,-568 783,-568 783,-552 710,-552"/>
<text text-anchor="start" x="712" y="-557.2" font-family="Helvetica,sans-Serif" font-size="11.00">&lt; 2</text>
<polygon fill="#ffffff" stroke="transparent" points="783,-552 783,-568 844,-568 844,-552 783,-552"/>
<text text-anchor="start" x="809.5" y="-557.2" font-family="Helvetica,sans-Serif" font-size="11.00"> &#160;</text>
<polygon fill="#ffffff" stroke="transparent" points="844,-552 844,-568 904,-568 904,-552 844,-552"/>
<text text-anchor="start" x="894" y="-557.2" font-family="Helvetica,sans-Serif" font-size="11.00"> &#160;</text>
<polygon fill="black" stroke="black" points="783,-552 783,-568 783,-568 783,-552 783,-552"/>
<polygon fill="black" stroke="black" points="844,-552 844,-568 844,-568 844,-552 844,-552"/>
</a>
</g>
</g>
<!-- damage_channel&#45;&gt;damage -->
<g id="edge6" class="edge">
<title>damage_channel:w&#45;&gt;damage:e</title>
<path fill="none" stroke="black" d="M697.56,-617.68C676.13,-606.54 687.45,-559 656,-559"/>
<polygon fill="black" stroke="black" points="708.09,-615.92 706.35,-623.73 704.79,-623.39 706.52,-615.58 708.09,-615.92"/>
<polyline fill="none" stroke="black" points="708,-620 704.09,-619.13 "/>
<ellipse fill="none" stroke="black" cx="700.97" cy="-618.44" rx="3.2" ry="3.2"/>
</g>
<!-- damage_manhole -->
<g id="node7" class="node">
<title>damage_manhole</title>
<g id="a_node7"><a xlink:href="../../tables/damage_manhole.html" xlink:title="damage_manhole" target="_top">
<polygon fill="#ffffff" stroke="transparent" points="706,-406 706,-530 908,-530 908,-406 706,-406"/>
<polygon fill="#f5f5f5" stroke="transparent" points="706,-508 706,-530 908,-530 908,-508 706,-508"/>
<polygon fill="none" stroke="black" points="706,-508 706,-530 908,-530 908,-508 706,-508"/>
<text text-anchor="start" x="711" y="-517.2" font-family="Helvetica,sans-Serif" font-weight="bold" font-size="11.00">damage_manhole</text>
<text text-anchor="start" x="866" y="-516.2" font-family="Helvetica,sans-Serif" font-size="11.00">[table]</text>
<polygon fill="none" stroke="black" points="706,-486 706,-508 908,-508 908,-486 706,-486"/>
<image xlink:href="../../images/primaryKeys.png" width="11px" height="12px" preserveAspectRatio="xMinYMin meet" x="711" y="-503"/>
<text text-anchor="start" x="726" y="-494.2" font-family="Helvetica,sans-Serif" font-size="11.00">obj_id</text>
<polygon fill="none" stroke="black" points="706,-464 706,-486 908,-486 908,-464 706,-464"/>
<image xlink:href="../../images/foreignKeys.png" width="11px" height="12px" preserveAspectRatio="xMinYMin meet" x="711" y="-481"/>
<text text-anchor="start" x="726" y="-472.2" font-family="Helvetica,sans-Serif" font-size="11.00">manhole_damage_code</text>
<polygon fill="none" stroke="black" points="706,-442 706,-464 908,-464 908,-442 706,-442"/>
<image xlink:href="../../images/foreignKeys.png" width="11px" height="12px" preserveAspectRatio="xMinYMin meet" x="711" y="-459"/>
<text text-anchor="start" x="726" y="-450.2" font-family="Helvetica,sans-Serif" font-size="11.00">manhole_shaft_area</text>
<polygon fill="none" stroke="black" points="706,-424 706,-442 908,-442 908,-424 706,-424"/>
<text text-anchor="start" x="709" y="-430.2" font-family="Helvetica,sans-Serif" font-size="11.00">...</text>
<polygon fill="#ffffff" stroke="transparent" points="706,-406 706,-424 908,-424 908,-406 706,-406"/>
<polygon fill="none" stroke="black" points="706,-406 706,-424 908,-424 908,-406 706,-406"/>
<polygon fill="#ffffff" stroke="transparent" points="707,-407 707,-423 782,-423 782,-407 707,-407"/>
<text text-anchor="start" x="709" y="-412.2" font-family="Helvetica,sans-Serif" font-size="11.00">&lt; 3</text>
<polygon fill="#ffffff" stroke="transparent" points="782,-407 782,-423 845,-423 845,-407 782,-407"/>
<text text-anchor="start" x="809.5" y="-412.2" font-family="Helvetica,sans-Serif" font-size="11.00"> &#160;</text>
<polygon fill="#ffffff" stroke="transparent" points="845,-407 845,-423 907,-423 907,-407 845,-407"/>
<text text-anchor="start" x="897" y="-412.2" font-family="Helvetica,sans-Serif" font-size="11.00"> &#160;</text>
<polygon fill="black" stroke="black" points="782,-407 782,-423 782,-423 782,-407 782,-407"/>
<polygon fill="black" stroke="black" points="845,-407 845,-423 845,-423 845,-407 845,-407"/>
</a>
</g>
</g>
<!-- damage_manhole&#45;&gt;damage -->
<g id="edge7" class="edge">
<title>damage_manhole:w&#45;&gt;damage:e</title>
<path fill="none" stroke="black" d="M694.79,-499.35C674.08,-510.68 687.01,-559 656,-559"/>
<polygon fill="black" stroke="black" points="703.32,-493.28 705.12,-501.08 703.56,-501.44 701.76,-493.64 703.32,-493.28"/>
<polyline fill="none" stroke="black" points="705,-497 701.1,-497.9 "/>
<ellipse fill="none" stroke="black" cx="697.98" cy="-498.62" rx="3.2" ry="3.2"/>
</g>
</g>
</svg>
