<?xml version="1.0" encoding="UTF-8" standalone="no"?>
<!DOCTYPE svg PUBLIC "-//W3C//DTD SVG 1.1//EN"
 "http://www.w3.org/Graphics/SVG/1.1/DTD/svg11.dtd">
<!-- Generated by graphviz version 2.47.1 (20210515.0534)
 -->
<!-- Title: oneDegreeRelationshipsDiagram Pages: 1 -->
<svg width="680pt" height="403pt"
 viewBox="0.00 0.00 680.00 403.00" xmlns="http://www.w3.org/2000/svg" xmlns:xlink="http://www.w3.org/1999/xlink">
<g id="graph0" class="graph" transform="scale(1 1) rotate(0) translate(4 399)">
<title>oneDegreeRelationshipsDiagram</title>
<polygon fill="#ffffff" stroke="transparent" points="-4,4 -4,-399 676,-399 676,4 -4,4"/>
<text text-anchor="middle" x="73.5" y="-7.2" font-family="Helvetica,sans-Serif" font-size="11.00">Generated by SchemaSpy</text>
<!-- damage_manhole -->
<g id="node1" class="node">
<title>damage_manhole</title>
<g id="a_node1"><a xlink:href="../../tables/damage_manhole.html" xlink:title="damage_manhole" target="_top">
<polygon fill="#ffffff" stroke="transparent" points="395,-37 395,-257 664,-257 664,-37 395,-37"/>
<polygon fill="#f5f5f5" stroke="transparent" points="397.5,-233 397.5,-255 662.5,-255 662.5,-233 397.5,-233"/>
<polygon fill="none" stroke="black" points="397.5,-233 397.5,-255 662.5,-255 662.5,-233 397.5,-233"/>
<text text-anchor="start" x="402.5" y="-242.2" font-family="Helvetica,sans-Serif" font-weight="bold" font-size="11.00">damage_manhole</text>
<text text-anchor="start" x="623.5" y="-241.2" font-family="Helvetica,sans-Serif" font-size="11.00">[table]</text>
<polygon fill="none" stroke="black" points="397.5,-211 397.5,-233 568.5,-233 568.5,-211 397.5,-211"/>
<image xlink:href="../../images/primaryKeys.png" width="11px" height="12px" preserveAspectRatio="xMinYMin meet" x="402.5" y="-228"/>
<text text-anchor="start" x="417.5" y="-219.2" font-family="Helvetica,sans-Serif" font-size="11.00">obj_id</text>
<polygon fill="none" stroke="black" points="568.5,-211 568.5,-233 662.5,-233 662.5,-211 568.5,-211"/>
<text text-anchor="start" x="571.5" y="-219.2" font-family="Helvetica,sans-Serif" font-size="11.00">varchar[16]</text>
<polygon fill="none" stroke="black" points="397.5,-189 397.5,-211 568.5,-211 568.5,-189 397.5,-189"/>
<text text-anchor="start" x="417.5" y="-197.2" font-family="Helvetica,sans-Serif" font-size="11.00">manhole_distance</text>
<polygon fill="none" stroke="black" points="568.5,-189 568.5,-211 662.5,-211 662.5,-189 568.5,-189"/>
<text text-anchor="start" x="571.5" y="-197.2" font-family="Helvetica,sans-Serif" font-size="11.00">numeric[7,2]</text>
<polygon fill="none" stroke="black" points="397.5,-167 397.5,-189 568.5,-189 568.5,-167 397.5,-167"/>
<text text-anchor="start" x="417.5" y="-175.2" font-family="Helvetica,sans-Serif" font-size="11.00">manhole_damage_begin</text>
<polygon fill="none" stroke="black" points="568.5,-167 568.5,-189 662.5,-189 662.5,-167 568.5,-167"/>
<text text-anchor="start" x="571.5" y="-175.2" font-family="Helvetica,sans-Serif" font-size="11.00">int2[5]</text>
<polygon fill="none" stroke="black" points="397.5,-145 397.5,-167 568.5,-167 568.5,-145 397.5,-145"/>
<image xlink:href="../../images/foreignKeys.png" width="11px" height="12px" preserveAspectRatio="xMinYMin meet" x="402.5" y="-162"/>
<text text-anchor="start" x="417.5" y="-153.2" font-family="Helvetica,sans-Serif" font-size="11.00">manhole_damage_code</text>
<polygon fill="none" stroke="black" points="568.5,-145 568.5,-167 662.5,-167 662.5,-145 568.5,-145"/>
<text text-anchor="start" x="571.5" y="-153.2" font-family="Helvetica,sans-Serif" font-size="11.00">int4[10]</text>
<polygon fill="none" stroke="black" points="397.5,-123 397.5,-145 568.5,-145 568.5,-123 397.5,-123"/>
<text text-anchor="start" x="417.5" y="-131.2" font-family="Helvetica,sans-Serif" font-size="11.00">manhole_damage_end</text>
<polygon fill="none" stroke="black" points="568.5,-123 568.5,-145 662.5,-145 662.5,-123 568.5,-123"/>
<text text-anchor="start" x="571.5" y="-131.2" font-family="Helvetica,sans-Serif" font-size="11.00">int2[5]</text>
<polygon fill="none" stroke="black" points="397.5,-101 397.5,-123 568.5,-123 568.5,-101 397.5,-101"/>
<text text-anchor="start" x="417.5" y="-109.2" font-family="Helvetica,sans-Serif" font-size="11.00">manhole_quantification1</text>
<polygon fill="none" stroke="black" points="568.5,-101 568.5,-123 662.5,-123 662.5,-101 568.5,-101"/>
<text text-anchor="start" x="571.5" y="-109.2" font-family="Helvetica,sans-Serif" font-size="11.00">text[2147483647]</text>
<polygon fill="none" stroke="black" points="397.5,-79 397.5,-101 568.5,-101 568.5,-79 397.5,-79"/>
<text text-anchor="start" x="417.5" y="-87.2" font-family="Helvetica,sans-Serif" font-size="11.00">manhole_quantification2</text>
<polygon fill="none" stroke="black" points="568.5,-79 568.5,-101 662.5,-101 662.5,-79 568.5,-79"/>
<text text-anchor="start" x="571.5" y="-87.2" font-family="Helvetica,sans-Serif" font-size="11.00">text[2147483647]</text>
<polygon fill="none" stroke="black" points="397.5,-57 397.5,-79 568.5,-79 568.5,-57 397.5,-57"/>
<image xlink:href="../../images/foreignKeys.png" width="11px" height="12px" preserveAspectRatio="xMinYMin meet" x="402.5" y="-74"/>
<text text-anchor="start" x="417.5" y="-65.2" font-family="Helvetica,sans-Serif" font-size="11.00">manhole_shaft_area</text>
<polygon fill="none" stroke="black" points="568.5,-57 568.5,-79 662.5,-79 662.5,-57 568.5,-57"/>
<text text-anchor="start" x="571.5" y="-65.2" font-family="Helvetica,sans-Serif" font-size="11.00">int4[10]</text>
<polygon fill="#ffffff" stroke="transparent" points="397.5,-39 397.5,-57 487.5,-57 487.5,-39 397.5,-39"/>
<polygon fill="none" stroke="black" points="397.5,-39 397.5,-57 487.5,-57 487.5,-39 397.5,-39"/>
<text text-anchor="start" x="400.5" y="-45.2" font-family="Helvetica,sans-Serif" font-size="11.00">&lt; 3</text>
<polygon fill="#ffffff" stroke="transparent" points="487.5,-39 487.5,-57 568.5,-57 568.5,-39 487.5,-39"/>
<polygon fill="none" stroke="black" points="487.5,-39 487.5,-57 568.5,-57 568.5,-39 487.5,-39"/>
<text text-anchor="start" x="558.5" y="-45.2" font-family="Helvetica,sans-Serif" font-size="11.00"> &#160;</text>
<polygon fill="#ffffff" stroke="transparent" points="568.5,-39 568.5,-57 662.5,-57 662.5,-39 568.5,-39"/>
<polygon fill="none" stroke="black" points="568.5,-39 568.5,-57 662.5,-57 662.5,-39 568.5,-39"/>
<text text-anchor="start" x="643.5" y="-45.2" font-family="Helvetica,sans-Serif" font-size="11.00">0 &gt;</text>
<polygon fill="none" stroke="black" stroke-width="2" points="396,-38 396,-256 663,-256 663,-38 396,-38"/>
</a>
</g>
</g>
<!-- tww_vl.damage_manhole_manhole_damage_code -->
<g id="node2" class="node">
<title>tww_vl.damage_manhole_manhole_damage_code</title>
<g id="a_node2"><a xlink:href="../../../tww_vl/tables/damage_manhole_manhole_damage_code.html" xlink:title="tww_vl.damage_manhole_manhole_damage_code" target="_top">
<polygon fill="#ffffff" stroke="transparent" points="8,-122 8,-180 346,-180 346,-122 8,-122"/>
<polygon fill="#f5f5f5" stroke="transparent" points="8,-158 8,-180 346,-180 346,-158 8,-158"/>
<polygon fill="none" stroke="black" points="8,-158 8,-180 346,-180 346,-158 8,-158"/>
<text text-anchor="start" x="13" y="-167.2" font-family="Helvetica,sans-Serif" font-weight="bold" font-size="11.00">tww_vl.damage_manhole_manhole_damage_code</text>
<text text-anchor="start" x="307" y="-166.2" font-family="Helvetica,sans-Serif" font-size="11.00">[table]</text>
<polygon fill="none" stroke="black" points="8,-140 8,-158 346,-158 346,-140 8,-140"/>
<text text-anchor="start" x="11" y="-146.2" font-family="Helvetica,sans-Serif" font-size="11.00">...</text>
<polygon fill="#ffffff" stroke="transparent" points="8,-122 8,-140 152,-140 152,-122 8,-122"/>
<polygon fill="none" stroke="black" points="8,-122 8,-140 152,-140 152,-122 8,-122"/>
<text text-anchor="start" x="11" y="-128.2" font-family="Helvetica,sans-Serif" font-size="11.00"> &#160;</text>
<polygon fill="#ffffff" stroke="transparent" points="152,-122 152,-140 258,-140 258,-122 152,-122"/>
<polygon fill="none" stroke="black" points="152,-122 152,-140 258,-140 258,-122 152,-122"/>
<text text-anchor="start" x="221" y="-128.2" font-family="Helvetica,sans-Serif" font-size="11.00">0 rows</text>
<polygon fill="#ffffff" stroke="transparent" points="258,-122 258,-140 346,-140 346,-122 258,-122"/>
<polygon fill="none" stroke="black" points="258,-122 258,-140 346,-140 346,-122 258,-122"/>
<text text-anchor="start" x="327" y="-128.2" font-family="Helvetica,sans-Serif" font-size="11.00">1 &gt;</text>
</a>
</g>
</g>
<!-- damage_manhole&#45;&gt;tww_vl.damage_manhole_manhole_damage_code -->
<g id="edge1" class="edge">
<title>damage_manhole:w&#45;&gt;tww_vl.damage_manhole_manhole_damage_code:e</title>
<path fill="none" stroke="black" d="M381.83,-155.96C372.72,-155.92 363.47,-155.84 354.19,-155.73"/>
<polygon fill="black" stroke="black" points="388.5,-155.98 396.49,-159.6 392.5,-155.99 396.5,-156 396.5,-156 396.5,-156 392.5,-155.99 396.51,-152.4 388.5,-155.98 388.5,-155.98"/>
<ellipse fill="none" stroke="black" cx="385.3" cy="-155.97" rx="3.2" ry="3.2"/>
</g>
<!-- tww_vl.damage_manhole_manhole_shaft_area -->
<g id="node3" class="node">
<title>tww_vl.damage_manhole_manhole_shaft_area</title>
<g id="a_node3"><a xlink:href="../../../tww_vl/tables/damage_manhole_manhole_shaft_area.html" xlink:title="tww_vl.damage_manhole_manhole_shaft_area" target="_top">
<polygon fill="#ffffff" stroke="transparent" points="17,-39 17,-97 337,-97 337,-39 17,-39"/>
<polygon fill="#f5f5f5" stroke="transparent" points="17,-75 17,-97 337,-97 337,-75 17,-75"/>
<polygon fill="none" stroke="black" points="17,-75 17,-97 337,-97 337,-75 17,-75"/>
<text text-anchor="start" x="22" y="-84.2" font-family="Helvetica,sans-Serif" font-weight="bold" font-size="11.00">tww_vl.damage_manhole_manhole_shaft_area</text>
<text text-anchor="start" x="298" y="-83.2" font-family="Helvetica,sans-Serif" font-size="11.00">[table]</text>
<polygon fill="none" stroke="black" points="17,-57 17,-75 337,-75 337,-57 17,-57"/>
<text text-anchor="start" x="20" y="-63.2" font-family="Helvetica,sans-Serif" font-size="11.00">...</text>
<polygon fill="#ffffff" stroke="transparent" points="17,-39 17,-57 152,-57 152,-39 17,-39"/>
<polygon fill="none" stroke="black" points="17,-39 17,-57 152,-57 152,-39 17,-39"/>
<text text-anchor="start" x="20" y="-45.2" font-family="Helvetica,sans-Serif" font-size="11.00"> &#160;</text>
<polygon fill="#ffffff" stroke="transparent" points="152,-39 152,-57 253,-57 253,-39 152,-39"/>
<polygon fill="none" stroke="black" points="152,-39 152,-57 253,-57 253,-39 152,-39"/>
<text text-anchor="start" x="216" y="-45.2" font-family="Helvetica,sans-Serif" font-size="11.00">0 rows</text>
<polygon fill="#ffffff" stroke="transparent" points="253,-39 253,-57 337,-57 337,-39 253,-39"/>
<polygon fill="none" stroke="black" points="253,-39 253,-57 337,-57 337,-39 253,-39"/>
<text text-anchor="start" x="318" y="-45.2" font-family="Helvetica,sans-Serif" font-size="11.00">1 &gt;</text>
</a>
</g>
</g>
<!-- damage_manhole&#45;&gt;tww_vl.damage_manhole_manhole_shaft_area -->
<g id="edge2" class="edge">
<title>damage_manhole:w&#45;&gt;tww_vl.damage_manhole_manhole_shaft_area:e</title>
<path fill="none" stroke="black" d="M381.86,-68C369.75,-68 357.38,-68 345.02,-68"/>
<polygon fill="black" stroke="black" points="388.5,-68 396.5,-71.6 392.5,-68 396.5,-68 396.5,-68 396.5,-68 392.5,-68 396.5,-64.4 388.5,-68 388.5,-68"/>
<ellipse fill="none" stroke="black" cx="385.3" cy="-68" rx="3.2" ry="3.2"/>
</g>
<!-- damage -->
<g id="node4" class="node">
<title>damage</title>
<g id="a_node4"><a xlink:href="../../tables/damage.html" xlink:title="damage" target="_top">
<polygon fill="#ffffff" stroke="transparent" points="106,-201 106,-391 248,-391 248,-201 106,-201"/>
<polygon fill="#f5f5f5" stroke="transparent" points="106,-369 106,-391 248,-391 248,-369 106,-369"/>
<polygon fill="none" stroke="black" points="106,-369 106,-391 248,-391 248,-369 106,-369"/>
<text text-anchor="start" x="110.5" y="-378.2" font-family="Helvetica,sans-Serif" font-weight="bold" font-size="11.00">damage</text>
<text text-anchor="start" x="209" y="-377.2" font-family="Helvetica,sans-Serif" font-size="11.00">[table]</text>
<polygon fill="none" stroke="black" points="106,-347 106,-369 248,-369 248,-347 106,-347"/>
<image xlink:href="../../images/primaryKeys.png" width="11px" height="12px" preserveAspectRatio="xMinYMin meet" x="111" y="-364"/>
<text text-anchor="start" x="126" y="-355.2" font-family="Helvetica,sans-Serif" font-size="11.00">obj_id</text>
<polygon fill="none" stroke="black" points="106,-325 106,-347 248,-347 248,-325 106,-325"/>
<image xlink:href="../../images/foreignKeys.png" width="11px" height="12px" preserveAspectRatio="xMinYMin meet" x="111" y="-342"/>
<text text-anchor="start" x="126" y="-333.2" font-family="Helvetica,sans-Serif" font-size="11.00">connection</text>
<polygon fill="none" stroke="black" points="106,-303 106,-325 248,-325 248,-303 106,-303"/>
<image xlink:href="../../images/foreignKeys.png" width="11px" height="12px" preserveAspectRatio="xMinYMin meet" x="111" y="-320"/>
<text text-anchor="start" x="126" y="-311.2" font-family="Helvetica,sans-Serif" font-size="11.00">single_damage_class</text>
<polygon fill="none" stroke="black" points="106,-281 106,-303 248,-303 248,-281 106,-281"/>
<image xlink:href="../../images/foreignKeys.png" width="11px" height="12px" preserveAspectRatio="xMinYMin meet" x="111" y="-298"/>
<text text-anchor="start" x="126" y="-289.2" font-family="Helvetica,sans-Serif" font-size="11.00">fk_dataowner</text>
<polygon fill="none" stroke="black" points="106,-259 106,-281 248,-281 248,-259 106,-259"/>
<image xlink:href="../../images/foreignKeys.png" width="11px" height="12px" preserveAspectRatio="xMinYMin meet" x="111" y="-276"/>
<text text-anchor="start" x="126" y="-267.2" font-family="Helvetica,sans-Serif" font-size="11.00">fk_provider</text>
<polygon fill="none" stroke="black" points="106,-237 106,-259 248,-259 248,-237 106,-237"/>
<image xlink:href="../../images/foreignKeys.png" width="11px" height="12px" preserveAspectRatio="xMinYMin meet" x="111" y="-254"/>
<text text-anchor="start" x="126" y="-245.2" font-family="Helvetica,sans-Serif" font-size="11.00">fk_examination</text>
<polygon fill="none" stroke="black" points="106,-219 106,-237 248,-237 248,-219 106,-219"/>
<text text-anchor="start" x="109" y="-225.2" font-family="Helvetica,sans-Serif" font-size="11.00">...</text>
<polygon fill="#ffffff" stroke="transparent" points="106,-201 106,-219 170,-219 170,-201 106,-201"/>
<polygon fill="none" stroke="black" points="106,-201 106,-219 170,-219 170,-201 106,-201"/>
<text text-anchor="start" x="109" y="-207.2" font-family="Helvetica,sans-Serif" font-size="11.00">&lt; 5</text>
<polygon fill="#ffffff" stroke="transparent" points="170,-201 170,-219 204,-219 204,-201 170,-201"/>
<polygon fill="none" stroke="black" points="170,-201 170,-219 204,-219 204,-201 170,-201"/>
<text text-anchor="start" x="194" y="-207.2" font-family="Helvetica,sans-Serif" font-size="11.00"> &#160;</text>
<polygon fill="#ffffff" stroke="transparent" points="204,-201 204,-219 248,-219 248,-201 204,-201"/>
<polygon fill="none" stroke="black" points="204,-201 204,-219 248,-219 248,-201 204,-201"/>
<text text-anchor="start" x="229" y="-207.2" font-family="Helvetica,sans-Serif" font-size="11.00">2 &gt;</text>
</a>
</g>
</g>
<!-- damage_manhole&#45;&gt;damage -->
<g id="edge3" class="edge">
<title>damage_manhole:w&#45;&gt;damage:e</title>
<path fill="none" stroke="black" d="M386.12,-222.67C309.66,-232.93 334.51,-358 249,-358"/>
<polygon fill="black" stroke="black" points="395.44,-218.06 395.96,-226.04 394.36,-226.15 393.85,-218.16 395.44,-218.06"/>
<polyline fill="none" stroke="black" points="396.5,-222 392.51,-222.26 "/>
<ellipse fill="none" stroke="black" cx="389.31" cy="-222.46" rx="3.2" ry="3.2"/>
</g>
</g>
</svg>
