<?xml version="1.0" encoding="UTF-8" standalone="no"?>
<!DOCTYPE svg PUBLIC "-//W3C//DTD SVG 1.1//EN"
 "http://www.w3.org/Graphics/SVG/1.1/DTD/svg11.dtd">
<!-- Generated by graphviz version 2.43.0 (0)
 -->
<!-- Title: oneDegreeRelationshipsDiagram Pages: 1 -->
<svg width="1046pt" height="980pt"
 viewBox="0.00 0.00 1046.00 980.00" xmlns="http://www.w3.org/2000/svg" xmlns:xlink="http://www.w3.org/1999/xlink">
<g id="graph0" class="graph" transform="scale(1 1) rotate(0) translate(4 976)">
<title>oneDegreeRelationshipsDiagram</title>
<polygon fill="#ffffff" stroke="transparent" points="-4,4 -4,-976 1042,-976 1042,4 -4,4"/>
<text text-anchor="middle" x="79.5" y="-7.2" font-family="Helvetica,sans-Serif" font-size="11.00">Generated by SchemaSpy</text>
<!-- building_group -->
<g id="node1" class="node">
<title>building_group</title>
<g id="a_node1"><a xlink:href="../../tables/building_group.html" xlink:title="building_group" target="_top">
<polygon fill="#ffffff" stroke="transparent" points="262,-37 262,-425 542,-425 542,-37 262,-37"/>
<polygon fill="#f5f5f5" stroke="transparent" points="262,-403 262,-425 542,-425 542,-403 262,-403"/>
<polygon fill="none" stroke="black" points="262,-403 262,-425 542,-425 542,-403 262,-403"/>
<text text-anchor="start" x="267" y="-412.2" font-family="Helvetica,sans-Serif" font-weight="bold" font-size="11.00">building_group</text>
<text text-anchor="start" x="500" y="-411.2" font-family="Helvetica,sans-Serif" font-size="11.00">[table]</text>
<polygon fill="none" stroke="black" points="262,-381 262,-403 542,-403 542,-381 262,-381"/>
<image xlink:href="../../images/primaryKeys.png" width="11px" height="12px" preserveAspectRatio="xMinYMin meet" x="267" y="-398"/>
<text text-anchor="start" x="282" y="-389.2" font-family="Helvetica,sans-Serif" font-size="11.00">obj_id</text>
<polygon fill="none" stroke="black" points="262,-359 262,-381 542,-381 542,-359 262,-359"/>
<image xlink:href="../../images/foreignKeys.png" width="11px" height="12px" preserveAspectRatio="xMinYMin meet" x="267" y="-376"/>
<text text-anchor="start" x="282" y="-367.2" font-family="Helvetica,sans-Serif" font-size="11.00">connecting_obligation</text>
<polygon fill="none" stroke="black" points="262,-337 262,-359 542,-359 542,-337 262,-337"/>
<image xlink:href="../../images/foreignKeys.png" width="11px" height="12px" preserveAspectRatio="xMinYMin meet" x="267" y="-354"/>
<text text-anchor="start" x="282" y="-345.2" font-family="Helvetica,sans-Serif" font-size="11.00">connection_wwtp</text>
<polygon fill="none" stroke="black" points="262,-315 262,-337 542,-337 542,-315 262,-315"/>
<image xlink:href="../../images/foreignKeys.png" width="11px" height="12px" preserveAspectRatio="xMinYMin meet" x="267" y="-332"/>
<text text-anchor="start" x="282" y="-323.2" font-family="Helvetica,sans-Serif" font-size="11.00">drainage_map</text>
<polygon fill="none" stroke="black" points="262,-293 262,-315 542,-315 542,-293 262,-293"/>
<image xlink:href="../../images/foreignKeys.png" width="11px" height="12px" preserveAspectRatio="xMinYMin meet" x="267" y="-310"/>
<text text-anchor="start" x="282" y="-301.2" font-family="Helvetica,sans-Serif" font-size="11.00">drinking_water_network</text>
<polygon fill="none" stroke="black" points="262,-271 262,-293 542,-293 542,-271 262,-271"/>
<image xlink:href="../../images/foreignKeys.png" width="11px" height="12px" preserveAspectRatio="xMinYMin meet" x="267" y="-288"/>
<text text-anchor="start" x="282" y="-279.2" font-family="Helvetica,sans-Serif" font-size="11.00">drinking_water_others</text>
<polygon fill="none" stroke="black" points="262,-249 262,-271 542,-271 542,-249 262,-249"/>
<image xlink:href="../../images/foreignKeys.png" width="11px" height="12px" preserveAspectRatio="xMinYMin meet" x="267" y="-266"/>
<text text-anchor="start" x="282" y="-257.2" font-family="Helvetica,sans-Serif" font-size="11.00">electric_connection</text>
<polygon fill="none" stroke="black" points="262,-227 262,-249 542,-249 542,-227 262,-227"/>
<image xlink:href="../../images/foreignKeys.png" width="11px" height="12px" preserveAspectRatio="xMinYMin meet" x="267" y="-244"/>
<text text-anchor="start" x="282" y="-235.2" font-family="Helvetica,sans-Serif" font-size="11.00">function</text>
<polygon fill="#ffffff" stroke="transparent" points="262,-205 262,-227 542,-227 542,-205 262,-205"/>
<polygon fill="none" stroke="black" points="262,-205 262,-227 542,-227 542,-205 262,-205"/>
<text text-anchor="start" x="282" y="-213.2" font-family="Helvetica,sans-Serif" font-size="11.00">identifier</text>
<polygon fill="none" stroke="black" points="262,-183 262,-205 542,-205 542,-183 262,-183"/>
<image xlink:href="../../images/foreignKeys.png" width="11px" height="12px" preserveAspectRatio="xMinYMin meet" x="267" y="-200"/>
<text text-anchor="start" x="282" y="-191.2" font-family="Helvetica,sans-Serif" font-size="11.00">renovation_necessity</text>
<polygon fill="#ffffff" stroke="transparent" points="262,-161 262,-183 542,-183 542,-161 262,-161"/>
<polygon fill="none" stroke="black" points="262,-161 262,-183 542,-183 542,-161 262,-161"/>
<text text-anchor="start" x="282" y="-169.2" font-family="Helvetica,sans-Serif" font-size="11.00">situation_geometry</text>
<polygon fill="#ffffff" stroke="transparent" points="262,-139 262,-161 542,-161 542,-139 262,-139"/>
<polygon fill="none" stroke="black" points="262,-139 262,-161 542,-161 542,-139 262,-139"/>
<image xlink:href="../../images/foreignKeys.png" width="11px" height="12px" preserveAspectRatio="xMinYMin meet" x="267" y="-156"/>
<text text-anchor="start" x="282" y="-147.2" font-family="Helvetica,sans-Serif" font-size="11.00">fk_dataowner</text>
<polygon fill="none" stroke="black" points="262,-117 262,-139 542,-139 542,-117 262,-117"/>
<image xlink:href="../../images/foreignKeys.png" width="11px" height="12px" preserveAspectRatio="xMinYMin meet" x="267" y="-134"/>
<text text-anchor="start" x="282" y="-125.2" font-family="Helvetica,sans-Serif" font-size="11.00">fk_provider</text>
<polygon fill="none" stroke="black" points="262,-95 262,-117 542,-117 542,-95 262,-95"/>
<image xlink:href="../../images/foreignKeys.png" width="11px" height="12px" preserveAspectRatio="xMinYMin meet" x="267" y="-112"/>
<text text-anchor="start" x="282" y="-103.2" font-family="Helvetica,sans-Serif" font-size="11.00">fk_disposal</text>
<polygon fill="none" stroke="black" points="262,-73 262,-95 542,-95 542,-73 262,-73"/>
<image xlink:href="../../images/foreignKeys.png" width="11px" height="12px" preserveAspectRatio="xMinYMin meet" x="267" y="-90"/>
<text text-anchor="start" x="282" y="-81.2" font-family="Helvetica,sans-Serif" font-size="11.00">fk_measure</text>
<polygon fill="none" stroke="black" points="262,-55 262,-73 542,-73 542,-55 262,-55"/>
<text text-anchor="start" x="265" y="-61.2" font-family="Helvetica,sans-Serif" font-size="11.00">...</text>
<polygon fill="#ffffff" stroke="transparent" points="262,-37 262,-55 542,-55 542,-37 262,-37"/>
<polygon fill="none" stroke="black" points="262,-37 262,-55 542,-55 542,-37 262,-37"/>
<polygon fill="#ffffff" stroke="transparent" points="263,-38 263,-54 365,-54 365,-38 263,-38"/>
<text text-anchor="start" x="265" y="-43.2" font-family="Helvetica,sans-Serif" font-size="11.00">&lt; 12</text>
<polygon fill="#ffffff" stroke="transparent" points="365,-38 365,-54 447,-54 447,-38 365,-38"/>
<text text-anchor="start" x="402" y="-43.2" font-family="Helvetica,sans-Serif" font-size="11.00"> &#160;</text>
<polygon fill="#ffffff" stroke="transparent" points="447,-38 447,-54 541,-54 541,-38 447,-38"/>
<text text-anchor="start" x="519" y="-43.2" font-family="Helvetica,sans-Serif" font-size="11.00">3 &gt;</text>
<polygon fill="black" stroke="black" points="365,-38 365,-54 365,-54 365,-38 365,-38"/>
<polygon fill="black" stroke="black" points="447,-38 447,-54 447,-54 447,-38 447,-38"/>
</a>
</g>
</g>
<!-- organisation -->
<g id="node2" class="node">
<title>organisation</title>
<g id="a_node2"><a xlink:href="../../tables/organisation.html" xlink:title="organisation" target="_top">
<polygon fill="#ffffff" stroke="transparent" points="8,-121 8,-333 182,-333 182,-121 8,-121"/>
<polygon fill="#f5f5f5" stroke="transparent" points="8,-311 8,-333 182,-333 182,-311 8,-311"/>
<polygon fill="none" stroke="black" points="8,-311 8,-333 182,-333 182,-311 8,-311"/>
<text text-anchor="start" x="13" y="-320.2" font-family="Helvetica,sans-Serif" font-weight="bold" font-size="11.00">organisation</text>
<text text-anchor="start" x="140" y="-319.2" font-family="Helvetica,sans-Serif" font-size="11.00">[table]</text>
<polygon fill="none" stroke="black" points="8,-289 8,-311 182,-311 182,-289 8,-289"/>
<image xlink:href="../../images/primaryKeys.png" width="11px" height="12px" preserveAspectRatio="xMinYMin meet" x="13" y="-306"/>
<text text-anchor="start" x="28" y="-297.2" font-family="Helvetica,sans-Serif" font-size="11.00">obj_id</text>
<polygon fill="#ffffff" stroke="transparent" points="8,-267 8,-289 182,-289 182,-267 8,-267"/>
<polygon fill="none" stroke="black" points="8,-267 8,-289 182,-289 182,-267 8,-267"/>
<text text-anchor="start" x="28" y="-275.2" font-family="Helvetica,sans-Serif" font-size="11.00">identifier</text>
<polygon fill="#ffffff" stroke="transparent" points="8,-245 8,-267 182,-267 182,-245 8,-245"/>
<polygon fill="none" stroke="black" points="8,-245 8,-267 182,-267 182,-245 8,-245"/>
<image xlink:href="../../images/foreignKeys.png" width="11px" height="12px" preserveAspectRatio="xMinYMin meet" x="13" y="-262"/>
<text text-anchor="start" x="28" y="-253.2" font-family="Helvetica,sans-Serif" font-size="11.00">organisation_type</text>
<polygon fill="none" stroke="black" points="8,-223 8,-245 182,-245 182,-223 8,-223"/>
<image xlink:href="../../images/foreignKeys.png" width="11px" height="12px" preserveAspectRatio="xMinYMin meet" x="13" y="-240"/>
<text text-anchor="start" x="28" y="-231.2" font-family="Helvetica,sans-Serif" font-size="11.00">status</text>
<polygon fill="#ffffff" stroke="transparent" points="8,-201 8,-223 182,-223 182,-201 8,-201"/>
<polygon fill="none" stroke="black" points="8,-201 8,-223 182,-223 182,-201 8,-201"/>
<text text-anchor="start" x="28" y="-209.2" font-family="Helvetica,sans-Serif" font-size="11.00">uid</text>
<polygon fill="none" stroke="black" points="8,-179 8,-201 182,-201 182,-179 8,-179"/>
<image xlink:href="../../images/foreignKeys.png" width="11px" height="12px" preserveAspectRatio="xMinYMin meet" x="13" y="-196"/>
<text text-anchor="start" x="28" y="-187.2" font-family="Helvetica,sans-Serif" font-size="11.00">fk_dataowner</text>
<polygon fill="none" stroke="black" points="8,-157 8,-179 182,-179 182,-157 8,-157"/>
<image xlink:href="../../images/foreignKeys.png" width="11px" height="12px" preserveAspectRatio="xMinYMin meet" x="13" y="-174"/>
<text text-anchor="start" x="28" y="-165.2" font-family="Helvetica,sans-Serif" font-size="11.00">fk_provider</text>
<polygon fill="none" stroke="black" points="8,-139 8,-157 182,-157 182,-139 8,-139"/>
<text text-anchor="start" x="11" y="-145.2" font-family="Helvetica,sans-Serif" font-size="11.00">...</text>
<polygon fill="#ffffff" stroke="transparent" points="8,-121 8,-139 182,-139 182,-121 8,-121"/>
<polygon fill="none" stroke="black" points="8,-121 8,-139 182,-139 182,-121 8,-121"/>
<polygon fill="#ffffff" stroke="transparent" points="9,-122 9,-138 66,-138 66,-122 9,-122"/>
<text text-anchor="start" x="11" y="-127.2" font-family="Helvetica,sans-Serif" font-size="11.00">&lt; 4</text>
<polygon fill="#ffffff" stroke="transparent" points="66,-122 66,-138 111,-138 111,-122 66,-122"/>
<text text-anchor="start" x="84.5" y="-127.2" font-family="Helvetica,sans-Serif" font-size="11.00"> &#160;</text>
<polygon fill="#ffffff" stroke="transparent" points="111,-122 111,-138 181,-138 181,-122 111,-122"/>
<text text-anchor="start" x="145" y="-127.2" font-family="Helvetica,sans-Serif" font-size="11.00">101 &gt;</text>
<polygon fill="black" stroke="black" points="66,-122 66,-138 66,-138 66,-122 66,-122"/>
<polygon fill="black" stroke="black" points="111,-122 111,-138 111,-138 111,-122 111,-122"/>
</a>
</g>
</g>
<!-- building_group&#45;&gt;organisation -->
<g id="edge1" class="edge">
<title>building_group:w&#45;&gt;organisation:e</title>
<path fill="none" stroke="black" d="M246.58,-152.36C195.78,-171.44 252.56,-300 183,-300"/>
<polygon fill="black" stroke="black" points="253.1,-151.29 261.58,-153.55 257.05,-150.65 261,-150 261,-150 261,-150 257.05,-150.65 260.42,-146.45 253.1,-151.29 253.1,-151.29"/>
<ellipse fill="none" stroke="black" cx="249.95" cy="-151.81" rx="3.2" ry="3.2"/>
</g>
<!-- building_group&#45;&gt;organisation -->
<g id="edge2" class="edge">
<title>building_group:w&#45;&gt;organisation:e</title>
<path fill="none" stroke="black" d="M246.48,-130.17C188.23,-150.09 261.36,-300 183,-300"/>
<polygon fill="black" stroke="black" points="253.09,-129.18 261.53,-131.56 257.04,-128.59 261,-128 261,-128 261,-128 257.04,-128.59 260.47,-124.44 253.09,-129.18 253.09,-129.18"/>
<ellipse fill="none" stroke="black" cx="249.92" cy="-129.66" rx="3.2" ry="3.2"/>
</g>
<!-- farm -->
<g id="node3" class="node">
<title>farm</title>
<g id="a_node3"><a xlink:href="../../tables/farm.html" xlink:title="farm" target="_top">
<polygon fill="#ffffff" stroke="transparent" points="622,-396 622,-968 1030,-968 1030,-396 622,-396"/>
<polygon fill="#f5f5f5" stroke="transparent" points="624,-944 624,-966 1028,-966 1028,-944 624,-944"/>
<polygon fill="none" stroke="black" points="624,-944 624,-966 1028,-966 1028,-944 624,-944"/>
<text text-anchor="start" x="629" y="-953.2" font-family="Helvetica,sans-Serif" font-weight="bold" font-size="11.00">farm</text>
<text text-anchor="start" x="986" y="-952.2" font-family="Helvetica,sans-Serif" font-size="11.00">[table]</text>
<polygon fill="none" stroke="black" points="624,-922 624,-944 922,-944 922,-922 624,-922"/>
<image xlink:href="../../images/primaryKeys.png" width="11px" height="12px" preserveAspectRatio="xMinYMin meet" x="629" y="-939"/>
<text text-anchor="start" x="644" y="-930.2" font-family="Helvetica,sans-Serif" font-size="11.00">obj_id</text>
<polygon fill="none" stroke="black" points="922,-922 922,-944 1028,-944 1028,-922 922,-922"/>
<text text-anchor="start" x="925" y="-930.2" font-family="Helvetica,sans-Serif" font-size="11.00">varchar[16]</text>
<polygon fill="none" stroke="black" points="624,-900 624,-922 922,-922 922,-900 624,-900"/>
<text text-anchor="start" x="644" y="-908.2" font-family="Helvetica,sans-Serif" font-size="11.00">agriculture_arable_surface</text>
<polygon fill="none" stroke="black" points="922,-900 922,-922 1028,-922 1028,-900 922,-900"/>
<text text-anchor="start" x="925" y="-908.2" font-family="Helvetica,sans-Serif" font-size="11.00">numeric[10,4]</text>
<polygon fill="none" stroke="black" points="624,-878 624,-900 922,-900 922,-878 624,-878"/>
<text text-anchor="start" x="644" y="-886.2" font-family="Helvetica,sans-Serif" font-size="11.00">cesspit_comment</text>
<polygon fill="none" stroke="black" points="922,-878 922,-900 1028,-900 1028,-878 922,-878"/>
<text text-anchor="start" x="925" y="-886.2" font-family="Helvetica,sans-Serif" font-size="11.00">text[2147483647]</text>
<polygon fill="none" stroke="black" points="624,-856 624,-878 922,-878 922,-856 624,-856"/>
<image xlink:href="../../images/foreignKeys.png" width="11px" height="12px" preserveAspectRatio="xMinYMin meet" x="629" y="-873"/>
<text text-anchor="start" x="644" y="-864.2" font-family="Helvetica,sans-Serif" font-size="11.00">cesspit_volume</text>
<polygon fill="none" stroke="black" points="922,-856 922,-878 1028,-878 1028,-856 922,-856"/>
<text text-anchor="start" x="925" y="-864.2" font-family="Helvetica,sans-Serif" font-size="11.00">int4[10]</text>
<polygon fill="none" stroke="black" points="624,-834 624,-856 922,-856 922,-834 624,-834"/>
<text text-anchor="start" x="644" y="-842.2" font-family="Helvetica,sans-Serif" font-size="11.00">cesspit_volume_current</text>
<polygon fill="none" stroke="black" points="922,-834 922,-856 1028,-856 1028,-834 922,-834"/>
<text text-anchor="start" x="925" y="-842.2" font-family="Helvetica,sans-Serif" font-size="11.00">numeric[10,2]</text>
<polygon fill="none" stroke="black" points="624,-812 624,-834 922,-834 922,-812 624,-812"/>
<text text-anchor="start" x="644" y="-820.2" font-family="Helvetica,sans-Serif" font-size="11.00">cesspit_volume_nominal</text>
<polygon fill="none" stroke="black" points="922,-812 922,-834 1028,-834 1028,-812 922,-812"/>
<text text-anchor="start" x="925" y="-820.2" font-family="Helvetica,sans-Serif" font-size="11.00">numeric[10,2]</text>
<polygon fill="none" stroke="black" points="624,-790 624,-812 922,-812 922,-790 624,-790"/>
<text text-anchor="start" x="644" y="-798.2" font-family="Helvetica,sans-Serif" font-size="11.00">cesspit_volume_ww_treated</text>
<polygon fill="none" stroke="black" points="922,-790 922,-812 1028,-812 1028,-790 922,-790"/>
<text text-anchor="start" x="925" y="-798.2" font-family="Helvetica,sans-Serif" font-size="11.00">numeric[10,2]</text>
<polygon fill="none" stroke="black" points="624,-768 624,-790 922,-790 922,-768 624,-768"/>
<text text-anchor="start" x="644" y="-776.2" font-family="Helvetica,sans-Serif" font-size="11.00">cesspit_year_of_approval</text>
<polygon fill="none" stroke="black" points="922,-768 922,-790 1028,-790 1028,-768 922,-768"/>
<text text-anchor="start" x="925" y="-776.2" font-family="Helvetica,sans-Serif" font-size="11.00">int2[5]</text>
<polygon fill="none" stroke="black" points="624,-746 624,-768 922,-768 922,-746 624,-746"/>
<image xlink:href="../../images/foreignKeys.png" width="11px" height="12px" preserveAspectRatio="xMinYMin meet" x="629" y="-763"/>
<text text-anchor="start" x="644" y="-754.2" font-family="Helvetica,sans-Serif" font-size="11.00">conformity</text>
<polygon fill="none" stroke="black" points="922,-746 922,-768 1028,-768 1028,-746 922,-746"/>
<text text-anchor="start" x="925" y="-754.2" font-family="Helvetica,sans-Serif" font-size="11.00">int4[10]</text>
<polygon fill="none" stroke="black" points="624,-724 624,-746 922,-746 922,-724 624,-724"/>
<image xlink:href="../../images/foreignKeys.png" width="11px" height="12px" preserveAspectRatio="xMinYMin meet" x="629" y="-741"/>
<text text-anchor="start" x="644" y="-732.2" font-family="Helvetica,sans-Serif" font-size="11.00">continuance</text>
<polygon fill="none" stroke="black" points="922,-724 922,-746 1028,-746 1028,-724 922,-724"/>
<text text-anchor="start" x="925" y="-732.2" font-family="Helvetica,sans-Serif" font-size="11.00">int4[10]</text>
<polygon fill="none" stroke="black" points="624,-702 624,-724 922,-724 922,-702 624,-702"/>
<text text-anchor="start" x="644" y="-710.2" font-family="Helvetica,sans-Serif" font-size="11.00">continuance_comment</text>
<polygon fill="none" stroke="black" points="922,-702 922,-724 1028,-724 1028,-702 922,-702"/>
<text text-anchor="start" x="925" y="-710.2" font-family="Helvetica,sans-Serif" font-size="11.00">text[2147483647]</text>
<polygon fill="none" stroke="black" points="624,-680 624,-702 922,-702 922,-680 624,-680"/>
<text text-anchor="start" x="644" y="-688.2" font-family="Helvetica,sans-Serif" font-size="11.00">dung_heap_area_current</text>
<polygon fill="none" stroke="black" points="922,-680 922,-702 1028,-702 1028,-680 922,-680"/>
<text text-anchor="start" x="925" y="-688.2" font-family="Helvetica,sans-Serif" font-size="11.00">numeric[8,2]</text>
<polygon fill="none" stroke="black" points="624,-658 624,-680 922,-680 922,-658 624,-658"/>
<text text-anchor="start" x="644" y="-666.2" font-family="Helvetica,sans-Serif" font-size="11.00">dung_heap_area_nominal</text>
<polygon fill="none" stroke="black" points="922,-658 922,-680 1028,-680 1028,-658 922,-658"/>
<text text-anchor="start" x="925" y="-666.2" font-family="Helvetica,sans-Serif" font-size="11.00">numeric[8,2]</text>
<polygon fill="none" stroke="black" points="624,-636 624,-658 922,-658 922,-636 624,-636"/>
<text text-anchor="start" x="644" y="-644.2" font-family="Helvetica,sans-Serif" font-size="11.00">remark</text>
<polygon fill="none" stroke="black" points="922,-636 922,-658 1028,-658 1028,-636 922,-636"/>
<text text-anchor="start" x="925" y="-644.2" font-family="Helvetica,sans-Serif" font-size="11.00">text[2147483647]</text>
<polygon fill="none" stroke="black" points="624,-614 624,-636 922,-636 922,-614 624,-614"/>
<text text-anchor="start" x="644" y="-622.2" font-family="Helvetica,sans-Serif" font-size="11.00">shepherds_hut_comment</text>
<polygon fill="none" stroke="black" points="922,-614 922,-636 1028,-636 1028,-614 922,-614"/>
<text text-anchor="start" x="925" y="-622.2" font-family="Helvetica,sans-Serif" font-size="11.00">text[2147483647]</text>
<polygon fill="none" stroke="black" points="624,-592 624,-614 922,-614 922,-592 624,-592"/>
<text text-anchor="start" x="644" y="-600.2" font-family="Helvetica,sans-Serif" font-size="11.00">shepherds_hut_population_equivalent</text>
<polygon fill="none" stroke="black" points="922,-592 922,-614 1028,-614 1028,-592 922,-592"/>
<text text-anchor="start" x="925" y="-600.2" font-family="Helvetica,sans-Serif" font-size="11.00">int4[10]</text>
<polygon fill="none" stroke="black" points="624,-570 624,-592 922,-592 922,-570 624,-570"/>
<image xlink:href="../../images/foreignKeys.png" width="11px" height="12px" preserveAspectRatio="xMinYMin meet" x="629" y="-587"/>
<text text-anchor="start" x="644" y="-578.2" font-family="Helvetica,sans-Serif" font-size="11.00">shepherds_hut_wastewater</text>
<polygon fill="none" stroke="black" points="922,-570 922,-592 1028,-592 1028,-570 922,-570"/>
<text text-anchor="start" x="925" y="-578.2" font-family="Helvetica,sans-Serif" font-size="11.00">int4[10]</text>
<polygon fill="none" stroke="black" points="624,-548 624,-570 922,-570 922,-548 624,-548"/>
<image xlink:href="../../images/foreignKeys.png" width="11px" height="12px" preserveAspectRatio="xMinYMin meet" x="629" y="-565"/>
<text text-anchor="start" x="644" y="-556.2" font-family="Helvetica,sans-Serif" font-size="11.00">stable_cattle</text>
<polygon fill="none" stroke="black" points="922,-548 922,-570 1028,-570 1028,-548 922,-548"/>
<text text-anchor="start" x="925" y="-556.2" font-family="Helvetica,sans-Serif" font-size="11.00">int4[10]</text>
<polygon fill="none" stroke="black" points="624,-526 624,-548 922,-548 922,-526 624,-526"/>
<text text-anchor="start" x="644" y="-534.2" font-family="Helvetica,sans-Serif" font-size="11.00">stable_cattle_equivalent_other_cattle</text>
<polygon fill="none" stroke="black" points="922,-526 922,-548 1028,-548 1028,-526 922,-526"/>
<text text-anchor="start" x="925" y="-534.2" font-family="Helvetica,sans-Serif" font-size="11.00">numeric[8,2]</text>
<polygon fill="none" stroke="black" points="624,-504 624,-526 922,-526 922,-504 624,-504"/>
<text text-anchor="start" x="644" y="-512.2" font-family="Helvetica,sans-Serif" font-size="11.00">stable_cattle_equivalent_own_cattle</text>
<polygon fill="none" stroke="black" points="922,-504 922,-526 1028,-526 1028,-504 922,-504"/>
<text text-anchor="start" x="925" y="-512.2" font-family="Helvetica,sans-Serif" font-size="11.00">numeric[8,2]</text>
<polygon fill="none" stroke="black" points="624,-482 624,-504 922,-504 922,-482 624,-482"/>
<text text-anchor="start" x="644" y="-490.2" font-family="Helvetica,sans-Serif" font-size="11.00">last_modification</text>
<polygon fill="none" stroke="black" points="922,-482 922,-504 1028,-504 1028,-482 922,-482"/>
<text text-anchor="start" x="925" y="-490.2" font-family="Helvetica,sans-Serif" font-size="11.00">timestamp[29,6]</text>
<polygon fill="none" stroke="black" points="624,-460 624,-482 922,-482 922,-460 624,-460"/>
<image xlink:href="../../images/foreignKeys.png" width="11px" height="12px" preserveAspectRatio="xMinYMin meet" x="629" y="-477"/>
<text text-anchor="start" x="644" y="-468.2" font-family="Helvetica,sans-Serif" font-size="11.00">fk_dataowner</text>
<polygon fill="none" stroke="black" points="922,-460 922,-482 1028,-482 1028,-460 922,-460"/>
<text text-anchor="start" x="925" y="-468.2" font-family="Helvetica,sans-Serif" font-size="11.00">varchar[16]</text>
<polygon fill="none" stroke="black" points="624,-438 624,-460 922,-460 922,-438 624,-438"/>
<image xlink:href="../../images/foreignKeys.png" width="11px" height="12px" preserveAspectRatio="xMinYMin meet" x="629" y="-455"/>
<text text-anchor="start" x="644" y="-446.2" font-family="Helvetica,sans-Serif" font-size="11.00">fk_provider</text>
<polygon fill="none" stroke="black" points="922,-438 922,-460 1028,-460 1028,-438 922,-438"/>
<text text-anchor="start" x="925" y="-446.2" font-family="Helvetica,sans-Serif" font-size="11.00">varchar[16]</text>
<polygon fill="none" stroke="black" points="624,-416 624,-438 922,-438 922,-416 624,-416"/>
<image xlink:href="../../images/foreignKeys.png" width="11px" height="12px" preserveAspectRatio="xMinYMin meet" x="629" y="-433"/>
<text text-anchor="start" x="644" y="-424.2" font-family="Helvetica,sans-Serif" font-size="11.00">fk_building_group</text>
<polygon fill="none" stroke="black" points="922,-416 922,-438 1028,-438 1028,-416 922,-416"/>
<text text-anchor="start" x="925" y="-424.2" font-family="Helvetica,sans-Serif" font-size="11.00">varchar[16]</text>
<polygon fill="#ffffff" stroke="transparent" points="624,-398 624,-416 1028,-416 1028,-398 624,-398"/>
<polygon fill="none" stroke="black" points="624,-398 624,-416 1028,-416 1028,-398 624,-398"/>
<polygon fill="#ffffff" stroke="transparent" points="625,-399 625,-415 763,-415 763,-399 625,-399"/>
<text text-anchor="start" x="627" y="-404.2" font-family="Helvetica,sans-Serif" font-size="11.00">&lt; 8</text>
<polygon fill="#ffffff" stroke="transparent" points="763,-399 763,-415 889,-415 889,-399 763,-399"/>
<text text-anchor="start" x="822" y="-404.2" font-family="Helvetica,sans-Serif" font-size="11.00"> &#160;</text>
<polygon fill="#ffffff" stroke="transparent" points="889,-399 889,-415 1027,-415 1027,-399 889,-399"/>
<text text-anchor="start" x="1005" y="-404.2" font-family="Helvetica,sans-Serif" font-size="11.00">0 &gt;</text>
<polygon fill="black" stroke="black" points="763,-399 763,-415 763,-415 763,-399 763,-399"/>
<polygon fill="black" stroke="black" points="889,-399 889,-415 889,-415 889,-399 889,-399"/>
<polygon fill="none" stroke="black" stroke-width="2" points="623,-397 623,-967 1029,-967 1029,-397 623,-397"/>
</a>
</g>
</g>
<!-- farm&#45;&gt;building_group -->
<g id="edge6" class="edge">
<title>farm:w&#45;&gt;building_group:e</title>
<path fill="none" stroke="black" d="M608.59,-425.12C582.8,-417.85 576.35,-392 543,-392"/>
<polygon fill="black" stroke="black" points="615.07,-425.96 622.53,-430.57 619.03,-426.48 623,-427 623,-427 623,-427 619.03,-426.48 623.47,-423.43 615.07,-425.96 615.07,-425.96"/>
<ellipse fill="none" stroke="black" cx="611.89" cy="-425.55" rx="3.2" ry="3.2"/>
</g>
<!-- farm&#45;&gt;organisation -->
<g id="edge7" class="edge">
<title>farm:w&#45;&gt;organisation:e</title>
<path fill="none" stroke="black" d="M608.31,-471.32C509.96,-475.18 288.79,-511.89 223,-459 166.21,-413.34 255.87,-300 183,-300"/>
<polygon fill="black" stroke="black" points="615,-471.17 623.08,-474.6 619,-471.09 623,-471 623,-471 623,-471 619,-471.09 622.92,-467.4 615,-471.17 615,-471.17"/>
<ellipse fill="none" stroke="black" cx="611.8" cy="-471.24" rx="3.2" ry="3.2"/>
</g>
<!-- farm&#45;&gt;organisation -->
<g id="edge8" class="edge">
<title>farm:w&#45;&gt;organisation:e</title>
<path fill="none" stroke="black" d="M608.28,-449.21C531.38,-450.78 255.48,-460.15 223,-435 173.52,-396.69 245.58,-300 183,-300"/>
<polygon fill="black" stroke="black" points="615,-449.11 623.05,-452.6 619,-449.06 623,-449 623,-449 623,-449 619,-449.06 622.95,-445.4 615,-449.11 615,-449.11"/>
<ellipse fill="none" stroke="black" cx="611.8" cy="-449.16" rx="3.2" ry="3.2"/>
</g>
<!-- tww_vl.farm_cesspit_volume -->
<g id="node4" class="node">
<title>tww_vl.farm_cesspit_volume</title>
<g id="a_node4"><a xlink:href="../../../tww_vl/tables/farm_cesspit_volume.html" xlink:title="tww_vl.farm_cesspit_volume" target="_top">
<polygon fill="#ffffff" stroke="transparent" points="275,-838 275,-896 529,-896 529,-838 275,-838"/>
<polygon fill="#f5f5f5" stroke="transparent" points="275,-874 275,-896 529,-896 529,-874 275,-874"/>
<polygon fill="none" stroke="black" points="275,-874 275,-896 529,-896 529,-874 275,-874"/>
<text text-anchor="start" x="280" y="-883.2" font-family="Helvetica,sans-Serif" font-weight="bold" font-size="11.00">tww_vl.farm_cesspit_volume</text>
<text text-anchor="start" x="487" y="-882.2" font-family="Helvetica,sans-Serif" font-size="11.00">[table]</text>
<polygon fill="none" stroke="black" points="275,-856 275,-874 529,-874 529,-856 275,-856"/>
<text text-anchor="start" x="278" y="-862.2" font-family="Helvetica,sans-Serif" font-size="11.00">...</text>
<polygon fill="#ffffff" stroke="transparent" points="275,-838 275,-856 529,-856 529,-838 275,-838"/>
<polygon fill="none" stroke="black" points="275,-838 275,-856 529,-856 529,-838 275,-838"/>
<polygon fill="#ffffff" stroke="transparent" points="276,-839 276,-855 347,-855 347,-839 276,-839"/>
<text text-anchor="start" x="278" y="-844.2" font-family="Helvetica,sans-Serif" font-size="11.00"> &#160;</text>
<polygon fill="#ffffff" stroke="transparent" points="347,-839 347,-855 446,-855 446,-839 347,-839"/>
<text text-anchor="start" x="378" y="-844.2" font-family="Helvetica,sans-Serif" font-size="11.00">0 rows</text>
<polygon fill="#ffffff" stroke="transparent" points="446,-839 446,-855 528,-855 528,-839 446,-839"/>
<text text-anchor="start" x="506" y="-844.2" font-family="Helvetica,sans-Serif" font-size="11.00">1 &gt;</text>
<polygon fill="black" stroke="black" points="347,-839 347,-855 347,-855 347,-839 347,-839"/>
<polygon fill="black" stroke="black" points="446,-839 446,-855 446,-855 446,-839 446,-839"/>
</a>
</g>
</g>
<!-- farm&#45;&gt;tww_vl.farm_cesspit_volume -->
<g id="edge3" class="edge">
<title>farm:w&#45;&gt;tww_vl.farm_cesspit_volume:e</title>
<path fill="none" stroke="black" d="M608.51,-867C585.02,-867 560.58,-867 537.08,-867"/>
<polygon fill="black" stroke="black" points="615,-867 623,-870.6 619,-867 623,-867 623,-867 623,-867 619,-867 623,-863.4 615,-867 615,-867"/>
<ellipse fill="none" stroke="black" cx="611.8" cy="-867" rx="3.2" ry="3.2"/>
</g>
<!-- tww_vl.farm_conformity -->
<g id="node5" class="node">
<title>tww_vl.farm_conformity</title>
<g id="a_node5"><a xlink:href="../../../tww_vl/tables/farm_conformity.html" xlink:title="tww_vl.farm_conformity" target="_top">
<polygon fill="#ffffff" stroke="transparent" points="291,-754 291,-812 513,-812 513,-754 291,-754"/>
<polygon fill="#f5f5f5" stroke="transparent" points="291,-790 291,-812 513,-812 513,-790 291,-790"/>
<polygon fill="none" stroke="black" points="291,-790 291,-812 513,-812 513,-790 291,-790"/>
<text text-anchor="start" x="296" y="-799.2" font-family="Helvetica,sans-Serif" font-weight="bold" font-size="11.00">tww_vl.farm_conformity</text>
<text text-anchor="start" x="471" y="-798.2" font-family="Helvetica,sans-Serif" font-size="11.00">[table]</text>
<polygon fill="none" stroke="black" points="291,-772 291,-790 513,-790 513,-772 291,-772"/>
<text text-anchor="start" x="294" y="-778.2" font-family="Helvetica,sans-Serif" font-size="11.00">...</text>
<polygon fill="#ffffff" stroke="transparent" points="291,-754 291,-772 513,-772 513,-754 291,-754"/>
<polygon fill="none" stroke="black" points="291,-754 291,-772 513,-772 513,-754 291,-754"/>
<polygon fill="#ffffff" stroke="transparent" points="292,-755 292,-771 352,-771 352,-755 292,-755"/>
<text text-anchor="start" x="294" y="-760.2" font-family="Helvetica,sans-Serif" font-size="11.00"> &#160;</text>
<polygon fill="#ffffff" stroke="transparent" points="352,-755 352,-771 441,-771 441,-755 352,-755"/>
<text text-anchor="start" x="378" y="-760.2" font-family="Helvetica,sans-Serif" font-size="11.00">0 rows</text>
<polygon fill="#ffffff" stroke="transparent" points="441,-755 441,-771 512,-771 512,-755 441,-755"/>
<text text-anchor="start" x="490" y="-760.2" font-family="Helvetica,sans-Serif" font-size="11.00">1 &gt;</text>
<polygon fill="black" stroke="black" points="352,-755 352,-771 352,-771 352,-755 352,-755"/>
<polygon fill="black" stroke="black" points="441,-755 441,-771 441,-771 441,-755 441,-755"/>
</a>
</g>
</g>
<!-- farm&#45;&gt;tww_vl.farm_conformity -->
<g id="edge4" class="edge">
<title>farm:w&#45;&gt;tww_vl.farm_conformity:e</title>
<path fill="none" stroke="black" d="M608.47,-757.18C579.54,-757.87 549.28,-760.52 521.15,-763.87"/>
<polygon fill="black" stroke="black" points="615,-757.1 623.04,-760.6 619,-757.05 623,-757 623,-757 623,-757 619,-757.05 622.96,-753.4 615,-757.1 615,-757.1"/>
<ellipse fill="none" stroke="black" cx="611.8" cy="-757.14" rx="3.2" ry="3.2"/>
</g>
<!-- tww_vl.farm_continuance -->
<g id="node6" class="node">
<title>tww_vl.farm_continuance</title>
<g id="a_node6"><a xlink:href="../../../tww_vl/tables/farm_continuance.html" xlink:title="tww_vl.farm_continuance" target="_top">
<polygon fill="#ffffff" stroke="transparent" points="286,-675 286,-733 518,-733 518,-675 286,-675"/>
<polygon fill="#f5f5f5" stroke="transparent" points="286,-711 286,-733 518,-733 518,-711 286,-711"/>
<polygon fill="none" stroke="black" points="286,-711 286,-733 518,-733 518,-711 286,-711"/>
<text text-anchor="start" x="291" y="-720.2" font-family="Helvetica,sans-Serif" font-weight="bold" font-size="11.00">tww_vl.farm_continuance</text>
<text text-anchor="start" x="476" y="-719.2" font-family="Helvetica,sans-Serif" font-size="11.00">[table]</text>
<polygon fill="none" stroke="black" points="286,-693 286,-711 518,-711 518,-693 286,-693"/>
<text text-anchor="start" x="289" y="-699.2" font-family="Helvetica,sans-Serif" font-size="11.00">...</text>
<polygon fill="#ffffff" stroke="transparent" points="286,-675 286,-693 518,-693 518,-675 286,-675"/>
<polygon fill="none" stroke="black" points="286,-675 286,-693 518,-693 518,-675 286,-675"/>
<polygon fill="#ffffff" stroke="transparent" points="287,-676 287,-692 350,-692 350,-676 287,-676"/>
<text text-anchor="start" x="289" y="-681.2" font-family="Helvetica,sans-Serif" font-size="11.00"> &#160;</text>
<polygon fill="#ffffff" stroke="transparent" points="350,-676 350,-692 442,-692 442,-676 350,-676"/>
<text text-anchor="start" x="377.5" y="-681.2" font-family="Helvetica,sans-Serif" font-size="11.00">0 rows</text>
<polygon fill="#ffffff" stroke="transparent" points="442,-676 442,-692 517,-692 517,-676 442,-676"/>
<text text-anchor="start" x="495" y="-681.2" font-family="Helvetica,sans-Serif" font-size="11.00">1 &gt;</text>
<polygon fill="black" stroke="black" points="350,-676 350,-692 350,-692 350,-676 350,-676"/>
<polygon fill="black" stroke="black" points="442,-676 442,-692 442,-692 442,-676 442,-676"/>
</a>
</g>
</g>
<!-- farm&#45;&gt;tww_vl.farm_continuance -->
<g id="edge5" class="edge">
<title>farm:w&#45;&gt;tww_vl.farm_continuance:e</title>
<path fill="none" stroke="black" d="M608.45,-734.79C581.22,-734.01 552.85,-731.18 526.2,-727.54"/>
<polygon fill="black" stroke="black" points="615,-734.88 622.95,-738.6 619,-734.94 623,-735 623,-735 623,-735 619,-734.94 623.05,-731.4 615,-734.88 615,-734.88"/>
<ellipse fill="none" stroke="black" cx="611.8" cy="-734.84" rx="3.2" ry="3.2"/>
</g>
<!-- tww_vl.farm_shepherds_hut_wastewater -->
<g id="node7" class="node">
<title>tww_vl.farm_shepherds_hut_wastewater</title>
<g id="a_node7"><a xlink:href="../../../tww_vl/tables/farm_shepherds_hut_wastewater.html" xlink:title="tww_vl.farm_shepherds_hut_wastewater" target="_top">
<polygon fill="#ffffff" stroke="transparent" points="231,-585 231,-643 573,-643 573,-585 231,-585"/>
<polygon fill="#f5f5f5" stroke="transparent" points="231,-621 231,-643 573,-643 573,-621 231,-621"/>
<polygon fill="none" stroke="black" points="231,-621 231,-643 573,-643 573,-621 231,-621"/>
<text text-anchor="start" x="236" y="-630.2" font-family="Helvetica,sans-Serif" font-weight="bold" font-size="11.00">tww_vl.farm_shepherds_hut_wastewater</text>
<text text-anchor="start" x="531" y="-629.2" font-family="Helvetica,sans-Serif" font-size="11.00">[table]</text>
<polygon fill="none" stroke="black" points="231,-603 231,-621 573,-621 573,-603 231,-603"/>
<text text-anchor="start" x="234" y="-609.2" font-family="Helvetica,sans-Serif" font-size="11.00">...</text>
<polygon fill="#ffffff" stroke="transparent" points="231,-585 231,-603 573,-603 573,-585 231,-585"/>
<polygon fill="none" stroke="black" points="231,-585 231,-603 573,-603 573,-585 231,-585"/>
<polygon fill="#ffffff" stroke="transparent" points="232,-586 232,-602 332,-602 332,-586 232,-586"/>
<text text-anchor="start" x="234" y="-591.2" font-family="Helvetica,sans-Serif" font-size="11.00"> &#160;</text>
<polygon fill="#ffffff" stroke="transparent" points="332,-586 332,-602 461,-602 461,-586 332,-586"/>
<text text-anchor="start" x="378" y="-591.2" font-family="Helvetica,sans-Serif" font-size="11.00">0 rows</text>
<polygon fill="#ffffff" stroke="transparent" points="461,-586 461,-602 572,-602 572,-586 461,-586"/>
<text text-anchor="start" x="550" y="-591.2" font-family="Helvetica,sans-Serif" font-size="11.00">1 &gt;</text>
<polygon fill="black" stroke="black" points="332,-586 332,-602 332,-602 332,-586 332,-586"/>
<polygon fill="black" stroke="black" points="461,-586 461,-602 461,-602 461,-586 461,-586"/>
</a>
</g>
</g>
<!-- farm&#45;&gt;tww_vl.farm_shepherds_hut_wastewater -->
<g id="edge9" class="edge">
<title>farm:w&#45;&gt;tww_vl.farm_shepherds_hut_wastewater:e</title>
<path fill="none" stroke="black" d="M608.5,-581.22C599.51,-581.5 590.4,-582.01 581.27,-582.7"/>
<polygon fill="black" stroke="black" points="615,-581.12 623.06,-584.6 619,-581.06 623,-581 623,-581 623,-581 619,-581.06 622.94,-577.4 615,-581.12 615,-581.12"/>
<ellipse fill="none" stroke="black" cx="611.8" cy="-581.17" rx="3.2" ry="3.2"/>
</g>
<!-- tww_vl.farm_stable_cattle -->
<g id="node8" class="node">
<title>tww_vl.farm_stable_cattle</title>
<g id="a_node8"><a xlink:href="../../../tww_vl/tables/farm_stable_cattle.html" xlink:title="tww_vl.farm_stable_cattle" target="_top">
<polygon fill="#ffffff" stroke="transparent" points="284,-506 284,-564 520,-564 520,-506 284,-506"/>
<polygon fill="#f5f5f5" stroke="transparent" points="284,-542 284,-564 520,-564 520,-542 284,-542"/>
<polygon fill="none" stroke="black" points="284,-542 284,-564 520,-564 520,-542 284,-542"/>
<text text-anchor="start" x="289" y="-551.2" font-family="Helvetica,sans-Serif" font-weight="bold" font-size="11.00">tww_vl.farm_stable_cattle</text>
<text text-anchor="start" x="478" y="-550.2" font-family="Helvetica,sans-Serif" font-size="11.00">[table]</text>
<polygon fill="none" stroke="black" points="284,-524 284,-542 520,-542 520,-524 284,-524"/>
<text text-anchor="start" x="287" y="-530.2" font-family="Helvetica,sans-Serif" font-size="11.00">...</text>
<polygon fill="#ffffff" stroke="transparent" points="284,-506 284,-524 520,-524 520,-506 284,-506"/>
<polygon fill="none" stroke="black" points="284,-506 284,-524 520,-524 520,-506 284,-506"/>
<polygon fill="#ffffff" stroke="transparent" points="285,-507 285,-523 350,-523 350,-507 285,-507"/>
<text text-anchor="start" x="287" y="-512.2" font-family="Helvetica,sans-Serif" font-size="11.00"> &#160;</text>
<polygon fill="#ffffff" stroke="transparent" points="350,-507 350,-523 443,-523 443,-507 350,-507"/>
<text text-anchor="start" x="378" y="-512.2" font-family="Helvetica,sans-Serif" font-size="11.00">0 rows</text>
<polygon fill="#ffffff" stroke="transparent" points="443,-507 443,-523 519,-523 519,-507 443,-507"/>
<text text-anchor="start" x="497" y="-512.2" font-family="Helvetica,sans-Serif" font-size="11.00">1 &gt;</text>
<polygon fill="black" stroke="black" points="350,-507 350,-523 350,-523 350,-507 350,-507"/>
<polygon fill="black" stroke="black" points="443,-507 443,-523 443,-523 443,-507 443,-507"/>
</a>
</g>
</g>
<!-- farm&#45;&gt;tww_vl.farm_stable_cattle -->
<g id="edge10" class="edge">
<title>farm:w&#45;&gt;tww_vl.farm_stable_cattle:e</title>
<path fill="none" stroke="black" d="M608.4,-558.83C581.87,-558.24 554.21,-556.14 528.1,-553.4"/>
<polygon fill="black" stroke="black" points="615,-558.91 622.96,-562.6 619,-558.95 623,-559 623,-559 623,-559 619,-558.95 623.04,-555.4 615,-558.91 615,-558.91"/>
<ellipse fill="none" stroke="black" cx="611.8" cy="-558.87" rx="3.2" ry="3.2"/>
</g>
</g>
</svg>
