<?xml version="1.0" encoding="UTF-8" standalone="no"?>
<!DOCTYPE svg PUBLIC "-//W3C//DTD SVG 1.1//EN"
 "http://www.w3.org/Graphics/SVG/1.1/DTD/svg11.dtd">
<!-- Generated by graphviz version 2.47.1 (20210515.0534)
 -->
<!-- Title: oneDegreeRelationshipsDiagram Pages: 1 -->
<svg width="1123pt" height="1010pt"
 viewBox="0.00 0.00 1123.00 1009.61" xmlns="http://www.w3.org/2000/svg" xmlns:xlink="http://www.w3.org/1999/xlink">
<g id="graph0" class="graph" transform="scale(1 1) rotate(0) translate(4 1005.61)">
<title>oneDegreeRelationshipsDiagram</title>
<polygon fill="#ffffff" stroke="transparent" points="-4,4 -4,-1005.61 1119,-1005.61 1119,4 -4,4"/>
<text text-anchor="middle" x="73.5" y="-7.2" font-family="Helvetica,sans-Serif" font-size="11.00">Generated by SchemaSpy</text>
<!-- catchment_area_totals -->
<g id="node1" class="node">
<title>catchment_area_totals</title>
<g id="a_node1"><a xlink:href="../../tables/catchment_area_totals.html" xlink:title="catchment_area_totals" target="_top">
<polygon fill="#ffffff" stroke="transparent" points="918,-800 918,-990 1107,-990 1107,-800 918,-800"/>
<polygon fill="#f5f5f5" stroke="transparent" points="918.5,-968 918.5,-990 1107.5,-990 1107.5,-968 918.5,-968"/>
<polygon fill="none" stroke="black" points="918.5,-968 918.5,-990 1107.5,-990 1107.5,-968 918.5,-968"/>
<text text-anchor="start" x="923.5" y="-977.2" font-family="Helvetica,sans-Serif" font-weight="bold" font-size="11.00">catchment_area_totals</text>
<text text-anchor="start" x="1068.5" y="-976.2" font-family="Helvetica,sans-Serif" font-size="11.00">[table]</text>
<polygon fill="none" stroke="black" points="918.5,-946 918.5,-968 1107.5,-968 1107.5,-946 918.5,-946"/>
<image xlink:href="../../images/primaryKeys.png" width="11px" height="12px" preserveAspectRatio="xMinYMin meet" x="923.5" y="-963"/>
<text text-anchor="start" x="938.5" y="-954.2" font-family="Helvetica,sans-Serif" font-size="11.00">obj_id</text>
<polygon fill="#ffffff" stroke="transparent" points="918.5,-924 918.5,-946 1107.5,-946 1107.5,-924 918.5,-924"/>
<polygon fill="none" stroke="black" points="918.5,-924 918.5,-946 1107.5,-946 1107.5,-924 918.5,-924"/>
<text text-anchor="start" x="938.5" y="-932.2" font-family="Helvetica,sans-Serif" font-size="11.00">identifier</text>
<polygon fill="#ffffff" stroke="transparent" points="918.5,-902 918.5,-924 1107.5,-924 1107.5,-902 918.5,-902"/>
<polygon fill="none" stroke="black" points="918.5,-902 918.5,-924 1107.5,-924 1107.5,-902 918.5,-902"/>
<image xlink:href="../../images/foreignKeys.png" width="11px" height="12px" preserveAspectRatio="xMinYMin meet" x="923.5" y="-919"/>
<text text-anchor="start" x="938.5" y="-910.2" font-family="Helvetica,sans-Serif" font-size="11.00">fk_dataowner</text>
<polygon fill="none" stroke="black" points="918.5,-880 918.5,-902 1107.5,-902 1107.5,-880 918.5,-880"/>
<image xlink:href="../../images/foreignKeys.png" width="11px" height="12px" preserveAspectRatio="xMinYMin meet" x="923.5" y="-897"/>
<text text-anchor="start" x="938.5" y="-888.2" font-family="Helvetica,sans-Serif" font-size="11.00">fk_provider</text>
<polygon fill="none" stroke="black" points="918.5,-858 918.5,-880 1107.5,-880 1107.5,-858 918.5,-858"/>
<image xlink:href="../../images/foreignKeys.png" width="11px" height="12px" preserveAspectRatio="xMinYMin meet" x="923.5" y="-875"/>
<text text-anchor="start" x="938.5" y="-866.2" font-family="Helvetica,sans-Serif" font-size="11.00">fk_discharge_point</text>
<polygon fill="none" stroke="black" points="918.5,-836 918.5,-858 1107.5,-858 1107.5,-836 918.5,-836"/>
<image xlink:href="../../images/foreignKeys.png" width="11px" height="12px" preserveAspectRatio="xMinYMin meet" x="923.5" y="-853"/>
<text text-anchor="start" x="938.5" y="-844.2" font-family="Helvetica,sans-Serif" font-size="11.00">fk_hydraulic_char_data</text>
<polygon fill="none" stroke="black" points="918.5,-818 918.5,-836 1107.5,-836 1107.5,-818 918.5,-818"/>
<text text-anchor="start" x="921.5" y="-824.2" font-family="Helvetica,sans-Serif" font-size="11.00">...</text>
<polygon fill="#ffffff" stroke="transparent" points="918.5,-800 918.5,-818 1010.5,-818 1010.5,-800 918.5,-800"/>
<polygon fill="none" stroke="black" points="918.5,-800 918.5,-818 1010.5,-818 1010.5,-800 918.5,-800"/>
<text text-anchor="start" x="921.5" y="-806.2" font-family="Helvetica,sans-Serif" font-size="11.00">&lt; 4</text>
<polygon fill="#ffffff" stroke="transparent" points="1010.5,-800 1010.5,-818 1058.5,-818 1058.5,-800 1010.5,-800"/>
<polygon fill="none" stroke="black" points="1010.5,-800 1010.5,-818 1058.5,-818 1058.5,-800 1010.5,-800"/>
<text text-anchor="start" x="1048.5" y="-806.2" font-family="Helvetica,sans-Serif" font-size="11.00"> &#160;</text>
<polygon fill="#ffffff" stroke="transparent" points="1058.5,-800 1058.5,-818 1107.5,-818 1107.5,-800 1058.5,-800"/>
<polygon fill="none" stroke="black" points="1058.5,-800 1058.5,-818 1107.5,-818 1107.5,-800 1058.5,-800"/>
<text text-anchor="start" x="1097.5" y="-806.2" font-family="Helvetica,sans-Serif" font-size="11.00"> &#160;</text>
</a>
</g>
</g>
<!-- organisation -->
<g id="node2" class="node">
<title>organisation</title>
<g id="a_node2"><a xlink:href="../../tables/organisation.html" xlink:title="organisation" target="_top">
<polygon fill="#ffffff" stroke="transparent" points="8,-252 8,-464 156,-464 156,-252 8,-252"/>
<polygon fill="#f5f5f5" stroke="transparent" points="8,-442 8,-464 156,-464 156,-442 8,-442"/>
<polygon fill="none" stroke="black" points="8,-442 8,-464 156,-464 156,-442 8,-442"/>
<text text-anchor="start" x="13" y="-451.2" font-family="Helvetica,sans-Serif" font-weight="bold" font-size="11.00">organisation</text>
<text text-anchor="start" x="117" y="-450.2" font-family="Helvetica,sans-Serif" font-size="11.00">[table]</text>
<polygon fill="none" stroke="black" points="8,-420 8,-442 156,-442 156,-420 8,-420"/>
<image xlink:href="../../images/primaryKeys.png" width="11px" height="12px" preserveAspectRatio="xMinYMin meet" x="13" y="-437"/>
<text text-anchor="start" x="28" y="-428.2" font-family="Helvetica,sans-Serif" font-size="11.00">obj_id</text>
<polygon fill="#ffffff" stroke="transparent" points="8,-398 8,-420 156,-420 156,-398 8,-398"/>
<polygon fill="none" stroke="black" points="8,-398 8,-420 156,-420 156,-398 8,-398"/>
<text text-anchor="start" x="28" y="-406.2" font-family="Helvetica,sans-Serif" font-size="11.00">identifier</text>
<polygon fill="#ffffff" stroke="transparent" points="8,-376 8,-398 156,-398 156,-376 8,-376"/>
<polygon fill="none" stroke="black" points="8,-376 8,-398 156,-398 156,-376 8,-376"/>
<image xlink:href="../../images/foreignKeys.png" width="11px" height="12px" preserveAspectRatio="xMinYMin meet" x="13" y="-393"/>
<text text-anchor="start" x="28" y="-384.2" font-family="Helvetica,sans-Serif" font-size="11.00">organisation_type</text>
<polygon fill="none" stroke="black" points="8,-354 8,-376 156,-376 156,-354 8,-354"/>
<image xlink:href="../../images/foreignKeys.png" width="11px" height="12px" preserveAspectRatio="xMinYMin meet" x="13" y="-371"/>
<text text-anchor="start" x="28" y="-362.2" font-family="Helvetica,sans-Serif" font-size="11.00">status</text>
<polygon fill="#ffffff" stroke="transparent" points="8,-332 8,-354 156,-354 156,-332 8,-332"/>
<polygon fill="none" stroke="black" points="8,-332 8,-354 156,-354 156,-332 8,-332"/>
<text text-anchor="start" x="28" y="-340.2" font-family="Helvetica,sans-Serif" font-size="11.00">uid</text>
<polygon fill="none" stroke="black" points="8,-310 8,-332 156,-332 156,-310 8,-310"/>
<image xlink:href="../../images/foreignKeys.png" width="11px" height="12px" preserveAspectRatio="xMinYMin meet" x="13" y="-327"/>
<text text-anchor="start" x="28" y="-318.2" font-family="Helvetica,sans-Serif" font-size="11.00">fk_dataowner</text>
<polygon fill="none" stroke="black" points="8,-288 8,-310 156,-310 156,-288 8,-288"/>
<image xlink:href="../../images/foreignKeys.png" width="11px" height="12px" preserveAspectRatio="xMinYMin meet" x="13" y="-305"/>
<text text-anchor="start" x="28" y="-296.2" font-family="Helvetica,sans-Serif" font-size="11.00">fk_provider</text>
<polygon fill="none" stroke="black" points="8,-270 8,-288 156,-288 156,-270 8,-270"/>
<text text-anchor="start" x="11" y="-276.2" font-family="Helvetica,sans-Serif" font-size="11.00">...</text>
<polygon fill="#ffffff" stroke="transparent" points="8,-252 8,-270 69,-270 69,-252 8,-252"/>
<polygon fill="none" stroke="black" points="8,-252 8,-270 69,-270 69,-252 8,-252"/>
<text text-anchor="start" x="11" y="-258.2" font-family="Helvetica,sans-Serif" font-size="11.00">&lt; 4</text>
<polygon fill="#ffffff" stroke="transparent" points="69,-252 69,-270 102,-270 102,-252 69,-252"/>
<polygon fill="none" stroke="black" points="69,-252 69,-270 102,-270 102,-252 69,-252"/>
<text text-anchor="start" x="92" y="-258.2" font-family="Helvetica,sans-Serif" font-size="11.00"> &#160;</text>
<polygon fill="#ffffff" stroke="transparent" points="102,-252 102,-270 156,-270 156,-252 102,-252"/>
<polygon fill="none" stroke="black" points="102,-252 102,-270 156,-270 156,-252 102,-252"/>
<text text-anchor="start" x="125" y="-258.2" font-family="Helvetica,sans-Serif" font-size="11.00">101 &gt;</text>
</a>
</g>
</g>
<!-- catchment_area_totals&#45;&gt;organisation -->
<g id="edge1" class="edge">
<title>catchment_area_totals:w&#45;&gt;organisation:e</title>
<path fill="none" stroke="black" d="M903.06,-913.14C592.19,-919.16 427.51,-1116.3 197,-901 158.7,-865.23 209.41,-431 157,-431"/>
<polygon fill="black" stroke="black" points="909.5,-913.08 917.53,-916.6 913.5,-913.04 917.5,-913 917.5,-913 917.5,-913 913.5,-913.04 917.47,-909.4 909.5,-913.08 909.5,-913.08"/>
<ellipse fill="none" stroke="black" cx="906.3" cy="-913.11" rx="3.2" ry="3.2"/>
</g>
<!-- catchment_area_totals&#45;&gt;organisation -->
<g id="edge3" class="edge">
<title>catchment_area_totals:w&#45;&gt;organisation:e</title>
<path fill="none" stroke="black" d="M902.88,-891.1C730.92,-893.23 304.43,-928.61 197,-815 138.05,-752.66 242.8,-431 157,-431"/>
<polygon fill="black" stroke="black" points="909.5,-891.05 917.52,-894.6 913.5,-891.03 917.5,-891 917.5,-891 917.5,-891 913.5,-891.03 917.48,-887.4 909.5,-891.05 909.5,-891.05"/>
<ellipse fill="none" stroke="black" cx="906.3" cy="-891.07" rx="3.2" ry="3.2"/>
</g>
<!-- hydraulic_char_data -->
<g id="node3" class="node">
<title>hydraulic_char_data</title>
<g id="a_node3"><a xlink:href="../../tables/hydraulic_char_data.html" xlink:title="hydraulic_char_data" target="_top">
<polygon fill="#ffffff" stroke="transparent" points="596,-295 596,-867 869,-867 869,-295 596,-295"/>
<polygon fill="#f5f5f5" stroke="transparent" points="598.5,-843 598.5,-865 867.5,-865 867.5,-843 598.5,-843"/>
<polygon fill="none" stroke="black" points="598.5,-843 598.5,-865 867.5,-865 867.5,-843 598.5,-843"/>
<text text-anchor="start" x="603.5" y="-852.2" font-family="Helvetica,sans-Serif" font-weight="bold" font-size="11.00">hydraulic_char_data</text>
<text text-anchor="start" x="828.5" y="-851.2" font-family="Helvetica,sans-Serif" font-size="11.00">[table]</text>
<polygon fill="none" stroke="black" points="598.5,-821 598.5,-843 773.5,-843 773.5,-821 598.5,-821"/>
<image xlink:href="../../images/primaryKeys.png" width="11px" height="12px" preserveAspectRatio="xMinYMin meet" x="603.5" y="-838"/>
<text text-anchor="start" x="618.5" y="-829.2" font-family="Helvetica,sans-Serif" font-size="11.00">obj_id</text>
<polygon fill="none" stroke="black" points="773.5,-821 773.5,-843 867.5,-843 867.5,-821 773.5,-821"/>
<text text-anchor="start" x="776.5" y="-829.2" font-family="Helvetica,sans-Serif" font-size="11.00">varchar[16]</text>
<polygon fill="none" stroke="black" points="598.5,-799 598.5,-821 773.5,-821 773.5,-799 598.5,-799"/>
<text text-anchor="start" x="618.5" y="-807.2" font-family="Helvetica,sans-Serif" font-size="11.00">aggregate_number</text>
<polygon fill="none" stroke="black" points="773.5,-799 773.5,-821 867.5,-821 867.5,-799 773.5,-799"/>
<text text-anchor="start" x="776.5" y="-807.2" font-family="Helvetica,sans-Serif" font-size="11.00">int2[5]</text>
<polygon fill="none" stroke="black" points="598.5,-777 598.5,-799 773.5,-799 773.5,-777 598.5,-777"/>
<text text-anchor="start" x="618.5" y="-785.2" font-family="Helvetica,sans-Serif" font-size="11.00">delivery_height_geodaetic</text>
<polygon fill="none" stroke="black" points="773.5,-777 773.5,-799 867.5,-799 867.5,-777 773.5,-777"/>
<text text-anchor="start" x="776.5" y="-785.2" font-family="Helvetica,sans-Serif" font-size="11.00">numeric[7,2]</text>
<polygon fill="#ffffff" stroke="transparent" points="598.5,-755 598.5,-777 773.5,-777 773.5,-755 598.5,-755"/>
<polygon fill="none" stroke="black" points="598.5,-755 598.5,-777 773.5,-777 773.5,-755 598.5,-755"/>
<text text-anchor="start" x="618.5" y="-763.2" font-family="Helvetica,sans-Serif" font-size="11.00">identifier</text>
<polygon fill="none" stroke="black" points="773.5,-755 773.5,-777 867.5,-777 867.5,-755 773.5,-755"/>
<text text-anchor="start" x="776.5" y="-763.2" font-family="Helvetica,sans-Serif" font-size="11.00">text[2147483647]</text>
<polygon fill="none" stroke="black" points="598.5,-733 598.5,-755 773.5,-755 773.5,-733 598.5,-733"/>
<image xlink:href="../../images/foreignKeys.png" width="11px" height="12px" preserveAspectRatio="xMinYMin meet" x="603.5" y="-750"/>
<text text-anchor="start" x="618.5" y="-741.2" font-family="Helvetica,sans-Serif" font-size="11.00">is_overflowing</text>
<polygon fill="none" stroke="black" points="773.5,-733 773.5,-755 867.5,-755 867.5,-733 773.5,-733"/>
<text text-anchor="start" x="776.5" y="-741.2" font-family="Helvetica,sans-Serif" font-size="11.00">int4[10]</text>
<polygon fill="none" stroke="black" points="598.5,-711 598.5,-733 773.5,-733 773.5,-711 598.5,-711"/>
<image xlink:href="../../images/foreignKeys.png" width="11px" height="12px" preserveAspectRatio="xMinYMin meet" x="603.5" y="-728"/>
<text text-anchor="start" x="618.5" y="-719.2" font-family="Helvetica,sans-Serif" font-size="11.00">main_weir_kind</text>
<polygon fill="none" stroke="black" points="773.5,-711 773.5,-733 867.5,-733 867.5,-711 773.5,-711"/>
<text text-anchor="start" x="776.5" y="-719.2" font-family="Helvetica,sans-Serif" font-size="11.00">int4[10]</text>
<polygon fill="none" stroke="black" points="598.5,-689 598.5,-711 773.5,-711 773.5,-689 598.5,-689"/>
<text text-anchor="start" x="618.5" y="-697.2" font-family="Helvetica,sans-Serif" font-size="11.00">overcharge</text>
<polygon fill="none" stroke="black" points="773.5,-689 773.5,-711 867.5,-711 867.5,-689 773.5,-689"/>
<text text-anchor="start" x="776.5" y="-697.2" font-family="Helvetica,sans-Serif" font-size="11.00">int2[5]</text>
<polygon fill="none" stroke="black" points="598.5,-667 598.5,-689 773.5,-689 773.5,-667 598.5,-667"/>
<text text-anchor="start" x="618.5" y="-675.2" font-family="Helvetica,sans-Serif" font-size="11.00">overflow_duration</text>
<polygon fill="none" stroke="black" points="773.5,-667 773.5,-689 867.5,-689 867.5,-667 773.5,-667"/>
<text text-anchor="start" x="776.5" y="-675.2" font-family="Helvetica,sans-Serif" font-size="11.00">numeric[6,1]</text>
<polygon fill="none" stroke="black" points="598.5,-645 598.5,-667 773.5,-667 773.5,-645 598.5,-645"/>
<text text-anchor="start" x="618.5" y="-653.2" font-family="Helvetica,sans-Serif" font-size="11.00">overflow_freight</text>
<polygon fill="none" stroke="black" points="773.5,-645 773.5,-667 867.5,-667 867.5,-645 773.5,-645"/>
<text text-anchor="start" x="776.5" y="-653.2" font-family="Helvetica,sans-Serif" font-size="11.00">int4[10]</text>
<polygon fill="none" stroke="black" points="598.5,-623 598.5,-645 773.5,-645 773.5,-623 598.5,-623"/>
<text text-anchor="start" x="618.5" y="-631.2" font-family="Helvetica,sans-Serif" font-size="11.00">overflow_frequency</text>
<polygon fill="none" stroke="black" points="773.5,-623 773.5,-645 867.5,-645 867.5,-623 773.5,-623"/>
<text text-anchor="start" x="776.5" y="-631.2" font-family="Helvetica,sans-Serif" font-size="11.00">numeric[4,1]</text>
<polygon fill="none" stroke="black" points="598.5,-601 598.5,-623 773.5,-623 773.5,-601 598.5,-601"/>
<text text-anchor="start" x="618.5" y="-609.2" font-family="Helvetica,sans-Serif" font-size="11.00">overflow_volume</text>
<polygon fill="none" stroke="black" points="773.5,-601 773.5,-623 867.5,-623 867.5,-601 773.5,-601"/>
<text text-anchor="start" x="776.5" y="-609.2" font-family="Helvetica,sans-Serif" font-size="11.00">numeric[10,2]</text>
<polygon fill="none" stroke="black" points="598.5,-579 598.5,-601 773.5,-601 773.5,-579 598.5,-579"/>
<image xlink:href="../../images/foreignKeys.png" width="11px" height="12px" preserveAspectRatio="xMinYMin meet" x="603.5" y="-596"/>
<text text-anchor="start" x="618.5" y="-587.2" font-family="Helvetica,sans-Serif" font-size="11.00">pump_characteristics</text>
<polygon fill="none" stroke="black" points="773.5,-579 773.5,-601 867.5,-601 867.5,-579 773.5,-579"/>
<text text-anchor="start" x="776.5" y="-587.2" font-family="Helvetica,sans-Serif" font-size="11.00">int4[10]</text>
<polygon fill="none" stroke="black" points="598.5,-557 598.5,-579 773.5,-579 773.5,-557 598.5,-557"/>
<text text-anchor="start" x="618.5" y="-565.2" font-family="Helvetica,sans-Serif" font-size="11.00">pump_flow_max</text>
<polygon fill="none" stroke="black" points="773.5,-557 773.5,-579 867.5,-579 867.5,-557 773.5,-557"/>
<text text-anchor="start" x="776.5" y="-565.2" font-family="Helvetica,sans-Serif" font-size="11.00">numeric[9,3]</text>
<polygon fill="none" stroke="black" points="598.5,-535 598.5,-557 773.5,-557 773.5,-535 598.5,-535"/>
<text text-anchor="start" x="618.5" y="-543.2" font-family="Helvetica,sans-Serif" font-size="11.00">pump_flow_min</text>
<polygon fill="none" stroke="black" points="773.5,-535 773.5,-557 867.5,-557 867.5,-535 773.5,-535"/>
<text text-anchor="start" x="776.5" y="-543.2" font-family="Helvetica,sans-Serif" font-size="11.00">numeric[9,3]</text>
<polygon fill="none" stroke="black" points="598.5,-513 598.5,-535 773.5,-535 773.5,-513 598.5,-513"/>
<text text-anchor="start" x="618.5" y="-521.2" font-family="Helvetica,sans-Serif" font-size="11.00">q_discharge</text>
<polygon fill="none" stroke="black" points="773.5,-513 773.5,-535 867.5,-535 867.5,-513 773.5,-513"/>
<text text-anchor="start" x="776.5" y="-521.2" font-family="Helvetica,sans-Serif" font-size="11.00">numeric[9,3]</text>
<polygon fill="none" stroke="black" points="598.5,-491 598.5,-513 773.5,-513 773.5,-491 598.5,-491"/>
<text text-anchor="start" x="618.5" y="-499.2" font-family="Helvetica,sans-Serif" font-size="11.00">qon</text>
<polygon fill="none" stroke="black" points="773.5,-491 773.5,-513 867.5,-513 867.5,-491 773.5,-491"/>
<text text-anchor="start" x="776.5" y="-499.2" font-family="Helvetica,sans-Serif" font-size="11.00">numeric[9,3]</text>
<polygon fill="none" stroke="black" points="598.5,-469 598.5,-491 773.5,-491 773.5,-469 598.5,-469"/>
<text text-anchor="start" x="618.5" y="-477.2" font-family="Helvetica,sans-Serif" font-size="11.00">remark</text>
<polygon fill="none" stroke="black" points="773.5,-469 773.5,-491 867.5,-491 867.5,-469 773.5,-469"/>
<text text-anchor="start" x="776.5" y="-477.2" font-family="Helvetica,sans-Serif" font-size="11.00">text[2147483647]</text>
<polygon fill="none" stroke="black" points="598.5,-447 598.5,-469 773.5,-469 773.5,-447 598.5,-447"/>
<image xlink:href="../../images/foreignKeys.png" width="11px" height="12px" preserveAspectRatio="xMinYMin meet" x="603.5" y="-464"/>
<text text-anchor="start" x="618.5" y="-455.2" font-family="Helvetica,sans-Serif" font-size="11.00">status</text>
<polygon fill="none" stroke="black" points="773.5,-447 773.5,-469 867.5,-469 867.5,-447 773.5,-447"/>
<text text-anchor="start" x="776.5" y="-455.2" font-family="Helvetica,sans-Serif" font-size="11.00">int4[10]</text>
<polygon fill="none" stroke="black" points="598.5,-425 598.5,-447 773.5,-447 773.5,-425 598.5,-425"/>
<text text-anchor="start" x="618.5" y="-433.2" font-family="Helvetica,sans-Serif" font-size="11.00">last_modification</text>
<polygon fill="none" stroke="black" points="773.5,-425 773.5,-447 867.5,-447 867.5,-425 773.5,-425"/>
<text text-anchor="start" x="776.5" y="-433.2" font-family="Helvetica,sans-Serif" font-size="11.00">timestamp[29,6]</text>
<polygon fill="#ffffff" stroke="transparent" points="598.5,-403 598.5,-425 773.5,-425 773.5,-403 598.5,-403"/>
<polygon fill="none" stroke="black" points="598.5,-403 598.5,-425 773.5,-425 773.5,-403 598.5,-403"/>
<image xlink:href="../../images/foreignKeys.png" width="11px" height="12px" preserveAspectRatio="xMinYMin meet" x="603.5" y="-420"/>
<text text-anchor="start" x="618.5" y="-411.2" font-family="Helvetica,sans-Serif" font-size="11.00">fk_dataowner</text>
<polygon fill="none" stroke="black" points="773.5,-403 773.5,-425 867.5,-425 867.5,-403 773.5,-403"/>
<text text-anchor="start" x="776.5" y="-411.2" font-family="Helvetica,sans-Serif" font-size="11.00">varchar[16]</text>
<polygon fill="none" stroke="black" points="598.5,-381 598.5,-403 773.5,-403 773.5,-381 598.5,-381"/>
<image xlink:href="../../images/foreignKeys.png" width="11px" height="12px" preserveAspectRatio="xMinYMin meet" x="603.5" y="-398"/>
<text text-anchor="start" x="618.5" y="-389.2" font-family="Helvetica,sans-Serif" font-size="11.00">fk_provider</text>
<polygon fill="none" stroke="black" points="773.5,-381 773.5,-403 867.5,-403 867.5,-381 773.5,-381"/>
<text text-anchor="start" x="776.5" y="-389.2" font-family="Helvetica,sans-Serif" font-size="11.00">varchar[16]</text>
<polygon fill="none" stroke="black" points="598.5,-359 598.5,-381 773.5,-381 773.5,-359 598.5,-359"/>
<image xlink:href="../../images/foreignKeys.png" width="11px" height="12px" preserveAspectRatio="xMinYMin meet" x="603.5" y="-376"/>
<text text-anchor="start" x="618.5" y="-367.2" font-family="Helvetica,sans-Serif" font-size="11.00">fk_wastewater_node</text>
<polygon fill="none" stroke="black" points="773.5,-359 773.5,-381 867.5,-381 867.5,-359 773.5,-359"/>
<text text-anchor="start" x="776.5" y="-367.2" font-family="Helvetica,sans-Serif" font-size="11.00">varchar[16]</text>
<polygon fill="none" stroke="black" points="598.5,-337 598.5,-359 773.5,-359 773.5,-337 598.5,-337"/>
<image xlink:href="../../images/foreignKeys.png" width="11px" height="12px" preserveAspectRatio="xMinYMin meet" x="603.5" y="-354"/>
<text text-anchor="start" x="618.5" y="-345.2" font-family="Helvetica,sans-Serif" font-size="11.00">fk_overflow_char</text>
<polygon fill="none" stroke="black" points="773.5,-337 773.5,-359 867.5,-359 867.5,-337 773.5,-337"/>
<text text-anchor="start" x="776.5" y="-345.2" font-family="Helvetica,sans-Serif" font-size="11.00">varchar[16]</text>
<polygon fill="none" stroke="black" points="598.5,-315 598.5,-337 773.5,-337 773.5,-315 598.5,-315"/>
<image xlink:href="../../images/foreignKeys.png" width="11px" height="12px" preserveAspectRatio="xMinYMin meet" x="603.5" y="-332"/>
<text text-anchor="start" x="618.5" y="-323.2" font-family="Helvetica,sans-Serif" font-size="11.00">fk_primary_direction</text>
<polygon fill="none" stroke="black" points="773.5,-315 773.5,-337 867.5,-337 867.5,-315 773.5,-315"/>
<text text-anchor="start" x="776.5" y="-323.2" font-family="Helvetica,sans-Serif" font-size="11.00">varchar[16]</text>
<polygon fill="#ffffff" stroke="transparent" points="598.5,-297 598.5,-315 690.5,-315 690.5,-297 598.5,-297"/>
<polygon fill="none" stroke="black" points="598.5,-297 598.5,-315 690.5,-315 690.5,-297 598.5,-297"/>
<text text-anchor="start" x="601.5" y="-303.2" font-family="Helvetica,sans-Serif" font-size="11.00">&lt; 9</text>
<polygon fill="#ffffff" stroke="transparent" points="690.5,-297 690.5,-315 773.5,-315 773.5,-297 690.5,-297"/>
<polygon fill="none" stroke="black" points="690.5,-297 690.5,-315 773.5,-315 773.5,-297 690.5,-297"/>
<text text-anchor="start" x="763.5" y="-303.2" font-family="Helvetica,sans-Serif" font-size="11.00"> &#160;</text>
<polygon fill="#ffffff" stroke="transparent" points="773.5,-297 773.5,-315 867.5,-315 867.5,-297 773.5,-297"/>
<polygon fill="none" stroke="black" points="773.5,-297 773.5,-315 867.5,-315 867.5,-297 773.5,-297"/>
<text text-anchor="start" x="848.5" y="-303.2" font-family="Helvetica,sans-Serif" font-size="11.00">1 &gt;</text>
<polygon fill="none" stroke="black" stroke-width="2" points="597,-296 597,-866 868,-866 868,-296 597,-296"/>
</a>
</g>
</g>
<!-- catchment_area_totals&#45;&gt;hydraulic_char_data -->
<g id="edge2" class="edge">
<title>catchment_area_totals:w&#45;&gt;hydraulic_char_data:e</title>
<path fill="none" stroke="black" d="M903.08,-844.52C891.66,-840.26 885.4,-832 868.5,-832"/>
<polygon fill="black" stroke="black" points="909.62,-845.65 916.89,-850.55 913.56,-846.32 917.5,-847 917.5,-847 917.5,-847 913.56,-846.32 918.11,-843.45 909.62,-845.65 909.62,-845.65"/>
<ellipse fill="none" stroke="black" cx="906.46" cy="-845.1" rx="3.2" ry="3.2"/>
</g>
<!-- hydraulic_char_data&#45;&gt;organisation -->
<g id="edge4" class="edge">
<title>hydraulic_char_data:w&#45;&gt;organisation:e</title>
<path fill="none" stroke="black" d="M583.08,-416.48C574.25,-419.87 568.64,-425.76 555,-428 380.45,-456.68 333.89,-431 157,-431"/>
<polygon fill="black" stroke="black" points="589.62,-415.36 598.11,-417.55 593.56,-414.68 597.5,-414 597.5,-414 597.5,-414 593.56,-414.68 596.89,-410.45 589.62,-415.36 589.62,-415.36"/>
<ellipse fill="none" stroke="black" cx="586.46" cy="-415.9" rx="3.2" ry="3.2"/>
</g>
<!-- hydraulic_char_data&#45;&gt;organisation -->
<g id="edge7" class="edge">
<title>hydraulic_char_data:w&#45;&gt;organisation:e</title>
<path fill="none" stroke="black" d="M583.14,-394.01C574.25,-396.78 568.45,-401.67 555,-404 544.08,-405.89 168.08,-431 157,-431"/>
<polygon fill="black" stroke="black" points="589.58,-393.11 598,-395.57 593.54,-392.56 597.5,-392 597.5,-392 597.5,-392 593.54,-392.56 597,-388.43 589.58,-393.11 589.58,-393.11"/>
<ellipse fill="none" stroke="black" cx="586.41" cy="-393.56" rx="3.2" ry="3.2"/>
</g>
<!-- overflow_char -->
<g id="node4" class="node">
<title>overflow_char</title>
<g id="a_node4"><a xlink:href="../../tables/overflow_char.html" xlink:title="overflow_char" target="_top">
<polygon fill="#ffffff" stroke="transparent" points="307.5,-226 307.5,-394 444.5,-394 444.5,-226 307.5,-226"/>
<polygon fill="#f5f5f5" stroke="transparent" points="308,-372 308,-394 445,-394 445,-372 308,-372"/>
<polygon fill="none" stroke="black" points="308,-372 308,-394 445,-394 445,-372 308,-372"/>
<text text-anchor="start" x="313" y="-381.2" font-family="Helvetica,sans-Serif" font-weight="bold" font-size="11.00">overflow_char</text>
<text text-anchor="start" x="406" y="-380.2" font-family="Helvetica,sans-Serif" font-size="11.00">[table]</text>
<polygon fill="none" stroke="black" points="308,-350 308,-372 445,-372 445,-350 308,-350"/>
<image xlink:href="../../images/primaryKeys.png" width="11px" height="12px" preserveAspectRatio="xMinYMin meet" x="313" y="-367"/>
<text text-anchor="start" x="328" y="-358.2" font-family="Helvetica,sans-Serif" font-size="11.00">obj_id</text>
<polygon fill="#ffffff" stroke="transparent" points="308,-328 308,-350 445,-350 445,-328 308,-328"/>
<polygon fill="none" stroke="black" points="308,-328 308,-350 445,-350 445,-328 308,-328"/>
<text text-anchor="start" x="328" y="-336.2" font-family="Helvetica,sans-Serif" font-size="11.00">identifier</text>
<polygon fill="none" stroke="black" points="308,-306 308,-328 445,-328 445,-306 308,-306"/>
<image xlink:href="../../images/foreignKeys.png" width="11px" height="12px" preserveAspectRatio="xMinYMin meet" x="313" y="-323"/>
<text text-anchor="start" x="328" y="-314.2" font-family="Helvetica,sans-Serif" font-size="11.00">kind_overflow_char</text>
<polygon fill="#ffffff" stroke="transparent" points="308,-284 308,-306 445,-306 445,-284 308,-284"/>
<polygon fill="none" stroke="black" points="308,-284 308,-306 445,-306 445,-284 308,-284"/>
<image xlink:href="../../images/foreignKeys.png" width="11px" height="12px" preserveAspectRatio="xMinYMin meet" x="313" y="-301"/>
<text text-anchor="start" x="328" y="-292.2" font-family="Helvetica,sans-Serif" font-size="11.00">fk_dataowner</text>
<polygon fill="none" stroke="black" points="308,-262 308,-284 445,-284 445,-262 308,-262"/>
<image xlink:href="../../images/foreignKeys.png" width="11px" height="12px" preserveAspectRatio="xMinYMin meet" x="313" y="-279"/>
<text text-anchor="start" x="328" y="-270.2" font-family="Helvetica,sans-Serif" font-size="11.00">fk_provider</text>
<polygon fill="none" stroke="black" points="308,-244 308,-262 445,-262 445,-244 308,-244"/>
<text text-anchor="start" x="311" y="-250.2" font-family="Helvetica,sans-Serif" font-size="11.00">...</text>
<polygon fill="#ffffff" stroke="transparent" points="308,-226 308,-244 370,-244 370,-226 308,-226"/>
<polygon fill="none" stroke="black" points="308,-226 308,-244 370,-244 370,-226 308,-226"/>
<text text-anchor="start" x="311" y="-232.2" font-family="Helvetica,sans-Serif" font-size="11.00">&lt; 3</text>
<polygon fill="#ffffff" stroke="transparent" points="370,-226 370,-244 403,-244 403,-226 370,-226"/>
<polygon fill="none" stroke="black" points="370,-226 370,-244 403,-244 403,-226 370,-226"/>
<text text-anchor="start" x="393" y="-232.2" font-family="Helvetica,sans-Serif" font-size="11.00"> &#160;</text>
<polygon fill="#ffffff" stroke="transparent" points="403,-226 403,-244 445,-244 445,-226 403,-226"/>
<polygon fill="none" stroke="black" points="403,-226 403,-244 445,-244 445,-226 403,-226"/>
<text text-anchor="start" x="426" y="-232.2" font-family="Helvetica,sans-Serif" font-size="11.00">3 &gt;</text>
</a>
</g>
</g>
<!-- hydraulic_char_data&#45;&gt;overflow_char -->
<g id="edge5" class="edge">
<title>hydraulic_char_data:w&#45;&gt;overflow_char:e</title>
<path fill="none" stroke="black" d="M582.9,-348.21C527.13,-349.91 508.43,-361 446,-361"/>
<polygon fill="black" stroke="black" points="589.5,-348.12 597.55,-351.6 593.5,-348.06 597.5,-348 597.5,-348 597.5,-348 593.5,-348.06 597.45,-344.4 589.5,-348.12 589.5,-348.12"/>
<ellipse fill="none" stroke="black" cx="586.3" cy="-348.16" rx="3.2" ry="3.2"/>
</g>
<!-- wastewater_node -->
<g id="node5" class="node">
<title>wastewater_node</title>
<g id="a_node5"><a xlink:href="../../tables/wastewater_node.html" xlink:title="wastewater_node" target="_top">
<polygon fill="#ffffff" stroke="transparent" points="281.5,-37 281.5,-205 470.5,-205 470.5,-37 281.5,-37"/>
<polygon fill="#f5f5f5" stroke="transparent" points="282,-183 282,-205 471,-205 471,-183 282,-183"/>
<polygon fill="none" stroke="black" points="282,-183 282,-205 471,-205 471,-183 282,-183"/>
<text text-anchor="start" x="287" y="-192.2" font-family="Helvetica,sans-Serif" font-weight="bold" font-size="11.00">wastewater_node</text>
<text text-anchor="start" x="432" y="-191.2" font-family="Helvetica,sans-Serif" font-size="11.00">[table]</text>
<polygon fill="none" stroke="black" points="282,-161 282,-183 471,-183 471,-161 282,-161"/>
<image xlink:href="../../images/primaryKeys.png" width="11px" height="12px" preserveAspectRatio="xMinYMin meet" x="287" y="-178"/>
<text text-anchor="start" x="302" y="-169.2" font-family="Helvetica,sans-Serif" font-size="11.00">obj_id</text>
<polygon fill="none" stroke="black" points="282,-139 282,-161 471,-161 471,-139 282,-139"/>
<image xlink:href="../../images/foreignKeys.png" width="11px" height="12px" preserveAspectRatio="xMinYMin meet" x="287" y="-156"/>
<text text-anchor="start" x="302" y="-147.2" font-family="Helvetica,sans-Serif" font-size="11.00">elevation_accuracy</text>
<polygon fill="none" stroke="black" points="282,-117 282,-139 471,-139 471,-117 282,-117"/>
<image xlink:href="../../images/foreignKeys.png" width="11px" height="12px" preserveAspectRatio="xMinYMin meet" x="287" y="-134"/>
<text text-anchor="start" x="302" y="-125.2" font-family="Helvetica,sans-Serif" font-size="11.00">function_node_amelioration</text>
<polygon fill="#ffffff" stroke="transparent" points="282,-95 282,-117 471,-117 471,-95 282,-95"/>
<polygon fill="none" stroke="black" points="282,-95 282,-117 471,-117 471,-95 282,-95"/>
<text text-anchor="start" x="302" y="-103.2" font-family="Helvetica,sans-Serif" font-size="11.00">situation3d_geometry</text>
<polygon fill="none" stroke="black" points="282,-73 282,-95 471,-95 471,-73 282,-73"/>
<image xlink:href="../../images/foreignKeys.png" width="11px" height="12px" preserveAspectRatio="xMinYMin meet" x="287" y="-90"/>
<text text-anchor="start" x="302" y="-81.2" font-family="Helvetica,sans-Serif" font-size="11.00">fk_hydr_geometry</text>
<polygon fill="none" stroke="black" points="282,-55 282,-73 471,-73 471,-55 282,-55"/>
<text text-anchor="start" x="285" y="-61.2" font-family="Helvetica,sans-Serif" font-size="11.00">...</text>
<polygon fill="#ffffff" stroke="transparent" points="282,-37 282,-55 370,-55 370,-37 282,-37"/>
<polygon fill="none" stroke="black" points="282,-37 282,-55 370,-55 370,-37 282,-37"/>
<text text-anchor="start" x="285" y="-43.2" font-family="Helvetica,sans-Serif" font-size="11.00">&lt; 4</text>
<polygon fill="#ffffff" stroke="transparent" points="370,-37 370,-55 416,-55 416,-37 370,-37"/>
<polygon fill="none" stroke="black" points="370,-37 370,-55 416,-55 416,-37 370,-37"/>
<text text-anchor="start" x="406" y="-43.2" font-family="Helvetica,sans-Serif" font-size="11.00"> &#160;</text>
<polygon fill="#ffffff" stroke="transparent" points="416,-37 416,-55 471,-55 471,-37 416,-37"/>
<polygon fill="none" stroke="black" points="416,-37 416,-55 471,-55 471,-37 416,-37"/>
<text text-anchor="start" x="452" y="-43.2" font-family="Helvetica,sans-Serif" font-size="11.00">7 &gt;</text>
</a>
</g>
</g>
<!-- hydraulic_char_data&#45;&gt;wastewater_node -->
<g id="edge6" class="edge">
<title>hydraulic_char_data:w&#45;&gt;wastewater_node:e</title>
<path fill="none" stroke="black" d="M583.17,-323.42C554.2,-310.36 585.85,-250.75 555,-216 527.28,-184.78 513.75,-172 472,-172"/>
<polygon fill="black" stroke="black" points="589.63,-324.58 596.86,-329.54 593.56,-325.29 597.5,-326 597.5,-326 597.5,-326 593.56,-325.29 598.14,-322.46 589.63,-324.58 589.63,-324.58"/>
<ellipse fill="none" stroke="black" cx="586.48" cy="-324.02" rx="3.2" ry="3.2"/>
</g>
<!-- hydraulic_char_data&#45;&gt;wastewater_node -->
<g id="edge8" class="edge">
<title>hydraulic_char_data:w&#45;&gt;wastewater_node:e</title>
<path fill="none" stroke="black" d="M583.08,-368.18C537.43,-354.48 595.88,-266.94 555,-216 528.87,-183.44 513.75,-172 472,-172"/>
<polygon fill="black" stroke="black" points="589.56,-369 597.05,-373.57 593.53,-369.5 597.5,-370 597.5,-370 597.5,-370 593.53,-369.5 597.95,-366.43 589.56,-369 589.56,-369"/>
<ellipse fill="none" stroke="black" cx="586.39" cy="-368.59" rx="3.2" ry="3.2"/>
</g>
<!-- tww_vl.hydraulic_char_data_is_overflowing -->
<g id="node6" class="node">
<title>tww_vl.hydraulic_char_data_is_overflowing</title>
<g id="a_node6"><a xlink:href="../../../tww_vl/tables/hydraulic_char_data_is_overflowing.html" xlink:title="tww_vl.hydraulic_char_data_is_overflowing" target="_top">
<polygon fill="#ffffff" stroke="transparent" points="226.5,-746 226.5,-804 525.5,-804 525.5,-746 226.5,-746"/>
<polygon fill="#f5f5f5" stroke="transparent" points="227,-782 227,-804 526,-804 526,-782 227,-782"/>
<polygon fill="none" stroke="black" points="227,-782 227,-804 526,-804 526,-782 227,-782"/>
<text text-anchor="start" x="232" y="-791.2" font-family="Helvetica,sans-Serif" font-weight="bold" font-size="11.00">tww_vl.hydraulic_char_data_is_overflowing</text>
<text text-anchor="start" x="487" y="-790.2" font-family="Helvetica,sans-Serif" font-size="11.00">[table]</text>
<polygon fill="none" stroke="black" points="227,-764 227,-782 526,-782 526,-764 227,-764"/>
<text text-anchor="start" x="230" y="-770.2" font-family="Helvetica,sans-Serif" font-size="11.00">...</text>
<polygon fill="#ffffff" stroke="transparent" points="227,-746 227,-764 352,-764 352,-746 227,-746"/>
<polygon fill="none" stroke="black" points="227,-746 227,-764 352,-764 352,-746 227,-746"/>
<text text-anchor="start" x="230" y="-752.2" font-family="Helvetica,sans-Serif" font-size="11.00"> &#160;</text>
<polygon fill="#ffffff" stroke="transparent" points="352,-746 352,-764 448,-764 448,-746 352,-746"/>
<polygon fill="none" stroke="black" points="352,-746 352,-764 448,-764 448,-746 352,-746"/>
<text text-anchor="start" x="411" y="-752.2" font-family="Helvetica,sans-Serif" font-size="11.00">0 rows</text>
<polygon fill="#ffffff" stroke="transparent" points="448,-746 448,-764 526,-764 526,-746 448,-746"/>
<polygon fill="none" stroke="black" points="448,-746 448,-764 526,-764 526,-746 448,-746"/>
<text text-anchor="start" x="507" y="-752.2" font-family="Helvetica,sans-Serif" font-size="11.00">1 &gt;</text>
</a>
</g>
</g>
<!-- hydraulic_char_data&#45;&gt;tww_vl.hydraulic_char_data_is_overflowing -->
<g id="edge9" class="edge">
<title>hydraulic_char_data:w&#45;&gt;tww_vl.hydraulic_char_data_is_overflowing:e</title>
<path fill="none" stroke="black" d="M582.74,-744.22C566.53,-744.68 549.92,-745.87 533.51,-747.53"/>
<polygon fill="black" stroke="black" points="589.5,-744.12 597.55,-747.6 593.5,-744.06 597.5,-744 597.5,-744 597.5,-744 593.5,-744.06 597.45,-740.4 589.5,-744.12 589.5,-744.12"/>
<ellipse fill="none" stroke="black" cx="586.3" cy="-744.17" rx="3.2" ry="3.2"/>
</g>
<!-- tww_vl.hydraulic_char_data_main_weir_kind -->
<g id="node7" class="node">
<title>tww_vl.hydraulic_char_data_main_weir_kind</title>
<g id="a_node7"><a xlink:href="../../../tww_vl/tables/hydraulic_char_data_main_weir_kind.html" xlink:title="tww_vl.hydraulic_char_data_main_weir_kind" target="_top">
<polygon fill="#ffffff" stroke="transparent" points="222.5,-667 222.5,-725 529.5,-725 529.5,-667 222.5,-667"/>
<polygon fill="#f5f5f5" stroke="transparent" points="223,-703 223,-725 530,-725 530,-703 223,-703"/>
<polygon fill="none" stroke="black" points="223,-703 223,-725 530,-725 530,-703 223,-703"/>
<text text-anchor="start" x="228" y="-712.2" font-family="Helvetica,sans-Serif" font-weight="bold" font-size="11.00">tww_vl.hydraulic_char_data_main_weir_kind</text>
<text text-anchor="start" x="491" y="-711.2" font-family="Helvetica,sans-Serif" font-size="11.00">[table]</text>
<polygon fill="none" stroke="black" points="223,-685 223,-703 530,-703 530,-685 223,-685"/>
<text text-anchor="start" x="226" y="-691.2" font-family="Helvetica,sans-Serif" font-size="11.00">...</text>
<polygon fill="#ffffff" stroke="transparent" points="223,-667 223,-685 352,-685 352,-667 223,-667"/>
<polygon fill="none" stroke="black" points="223,-667 223,-685 352,-685 352,-667 223,-667"/>
<text text-anchor="start" x="226" y="-673.2" font-family="Helvetica,sans-Serif" font-size="11.00"> &#160;</text>
<polygon fill="#ffffff" stroke="transparent" points="352,-667 352,-685 450,-685 450,-667 352,-667"/>
<polygon fill="none" stroke="black" points="352,-667 352,-685 450,-685 450,-667 352,-667"/>
<text text-anchor="start" x="413" y="-673.2" font-family="Helvetica,sans-Serif" font-size="11.00">0 rows</text>
<polygon fill="#ffffff" stroke="transparent" points="450,-667 450,-685 530,-685 530,-667 450,-667"/>
<polygon fill="none" stroke="black" points="450,-667 450,-685 530,-685 530,-667 450,-667"/>
<text text-anchor="start" x="511" y="-673.2" font-family="Helvetica,sans-Serif" font-size="11.00">1 &gt;</text>
</a>
</g>
</g>
<!-- hydraulic_char_data&#45;&gt;tww_vl.hydraulic_char_data_main_weir_kind -->
<g id="edge10" class="edge">
<title>hydraulic_char_data:w&#45;&gt;tww_vl.hydraulic_char_data_main_weir_kind:e</title>
<path fill="none" stroke="black" d="M582.75,-721.82C567.86,-721.46 552.63,-720.58 537.51,-719.36"/>
<polygon fill="black" stroke="black" points="589.5,-721.9 597.46,-725.6 593.5,-721.95 597.5,-722 597.5,-722 597.5,-722 593.5,-721.95 597.54,-718.4 589.5,-721.9 589.5,-721.9"/>
<ellipse fill="none" stroke="black" cx="586.3" cy="-721.86" rx="3.2" ry="3.2"/>
</g>
<!-- tww_vl.hydraulic_char_data_pump_characteristics -->
<g id="node8" class="node">
<title>tww_vl.hydraulic_char_data_pump_characteristics</title>
<g id="a_node8"><a xlink:href="../../../tww_vl/tables/hydraulic_char_data_pump_characteristics.html" xlink:title="tww_vl.hydraulic_char_data_pump_characteristics" target="_top">
<polygon fill="#ffffff" stroke="transparent" points="205,-561 205,-619 547,-619 547,-561 205,-561"/>
<polygon fill="#f5f5f5" stroke="transparent" points="205,-597 205,-619 547,-619 547,-597 205,-597"/>
<polygon fill="none" stroke="black" points="205,-597 205,-619 547,-619 547,-597 205,-597"/>
<text text-anchor="start" x="210" y="-606.2" font-family="Helvetica,sans-Serif" font-weight="bold" font-size="11.00">tww_vl.hydraulic_char_data_pump_characteristics</text>
<text text-anchor="start" x="508" y="-605.2" font-family="Helvetica,sans-Serif" font-size="11.00">[table]</text>
<polygon fill="none" stroke="black" points="205,-579 205,-597 547,-597 547,-579 205,-579"/>
<text text-anchor="start" x="208" y="-585.2" font-family="Helvetica,sans-Serif" font-size="11.00">...</text>
<polygon fill="#ffffff" stroke="transparent" points="205,-561 205,-579 351,-579 351,-561 205,-561"/>
<polygon fill="none" stroke="black" points="205,-561 205,-579 351,-579 351,-561 205,-561"/>
<text text-anchor="start" x="208" y="-567.2" font-family="Helvetica,sans-Serif" font-size="11.00"> &#160;</text>
<polygon fill="#ffffff" stroke="transparent" points="351,-561 351,-579 458,-579 458,-561 351,-561"/>
<polygon fill="none" stroke="black" points="351,-561 351,-579 458,-579 458,-561 351,-561"/>
<text text-anchor="start" x="421" y="-567.2" font-family="Helvetica,sans-Serif" font-size="11.00">0 rows</text>
<polygon fill="#ffffff" stroke="transparent" points="458,-561 458,-579 547,-579 547,-561 458,-561"/>
<polygon fill="none" stroke="black" points="458,-561 458,-579 547,-579 547,-561 458,-561"/>
<text text-anchor="start" x="528" y="-567.2" font-family="Helvetica,sans-Serif" font-size="11.00">1 &gt;</text>
</a>
</g>
</g>
<!-- hydraulic_char_data&#45;&gt;tww_vl.hydraulic_char_data_pump_characteristics -->
<g id="edge11" class="edge">
<title>hydraulic_char_data:w&#45;&gt;tww_vl.hydraulic_char_data_pump_characteristics:e</title>
<path fill="none" stroke="black" d="M582.8,-590C573.68,-590 564.41,-590 555.11,-590"/>
<polygon fill="black" stroke="black" points="589.5,-590 597.5,-593.6 593.5,-590 597.5,-590 597.5,-590 597.5,-590 593.5,-590 597.5,-586.4 589.5,-590 589.5,-590"/>
<ellipse fill="none" stroke="black" cx="586.3" cy="-590" rx="3.2" ry="3.2"/>
</g>
<!-- tww_vl.hydraulic_char_data_status -->
<g id="node9" class="node">
<title>tww_vl.hydraulic_char_data_status</title>
<g id="a_node9"><a xlink:href="../../../tww_vl/tables/hydraulic_char_data_status.html" xlink:title="tww_vl.hydraulic_char_data_status" target="_top">
<polygon fill="#ffffff" stroke="transparent" points="250.5,-469 250.5,-527 501.5,-527 501.5,-469 250.5,-469"/>
<polygon fill="#f5f5f5" stroke="transparent" points="251,-505 251,-527 502,-527 502,-505 251,-505"/>
<polygon fill="none" stroke="black" points="251,-505 251,-527 502,-527 502,-505 251,-505"/>
<text text-anchor="start" x="256" y="-514.2" font-family="Helvetica,sans-Serif" font-weight="bold" font-size="11.00">tww_vl.hydraulic_char_data_status</text>
<text text-anchor="start" x="463" y="-513.2" font-family="Helvetica,sans-Serif" font-size="11.00">[table]</text>
<polygon fill="none" stroke="black" points="251,-487 251,-505 502,-505 502,-487 251,-487"/>
<text text-anchor="start" x="254" y="-493.2" font-family="Helvetica,sans-Serif" font-size="11.00">...</text>
<polygon fill="#ffffff" stroke="transparent" points="251,-469 251,-487 352,-487 352,-469 251,-469"/>
<polygon fill="none" stroke="black" points="251,-469 251,-487 352,-487 352,-469 251,-469"/>
<text text-anchor="start" x="254" y="-475.2" font-family="Helvetica,sans-Serif" font-size="11.00"> &#160;</text>
<polygon fill="#ffffff" stroke="transparent" points="352,-469 352,-487 436,-487 436,-469 352,-469"/>
<polygon fill="none" stroke="black" points="352,-469 352,-487 436,-487 436,-469 352,-469"/>
<text text-anchor="start" x="399" y="-475.2" font-family="Helvetica,sans-Serif" font-size="11.00">0 rows</text>
<polygon fill="#ffffff" stroke="transparent" points="436,-469 436,-487 502,-487 502,-469 436,-469"/>
<polygon fill="none" stroke="black" points="436,-469 436,-487 502,-487 502,-469 436,-469"/>
<text text-anchor="start" x="483" y="-475.2" font-family="Helvetica,sans-Serif" font-size="11.00">1 &gt;</text>
</a>
</g>
</g>
<!-- hydraulic_char_data&#45;&gt;tww_vl.hydraulic_char_data_status -->
<g id="edge12" class="edge">
<title>hydraulic_char_data:w&#45;&gt;tww_vl.hydraulic_char_data_status:e</title>
<path fill="none" stroke="black" d="M582.91,-458.27C558.62,-459.15 533.5,-462.11 509.52,-466.05"/>
<polygon fill="black" stroke="black" points="589.5,-458.15 597.57,-461.6 593.5,-458.07 597.5,-458 597.5,-458 597.5,-458 593.5,-458.07 597.43,-454.4 589.5,-458.15 589.5,-458.15"/>
<ellipse fill="none" stroke="black" cx="586.3" cy="-458.21" rx="3.2" ry="3.2"/>
</g>
<!-- overflow_char&#45;&gt;organisation -->
<g id="edge13" class="edge">
<title>overflow_char:w&#45;&gt;organisation:e</title>
<path fill="none" stroke="black" d="M292.86,-298.92C249.97,-321.22 197.42,-431 157,-431"/>
<polygon fill="black" stroke="black" points="299.29,-297.14 307.96,-298.47 303.15,-296.07 307,-295 307,-295 307,-295 303.15,-296.07 306.04,-291.53 299.29,-297.14 299.29,-297.14"/>
<ellipse fill="none" stroke="black" cx="296.21" cy="-297.99" rx="3.2" ry="3.2"/>
</g>
<!-- overflow_char&#45;&gt;organisation -->
<g id="edge14" class="edge">
<title>overflow_char:w&#45;&gt;organisation:e</title>
<path fill="none" stroke="black" d="M292.98,-277.06C248.45,-301.8 200.78,-431 157,-431"/>
<polygon fill="black" stroke="black" points="299.32,-275.23 308,-276.46 303.16,-274.11 307,-273 307,-273 307,-273 303.16,-274.11 306,-269.54 299.32,-275.23 299.32,-275.23"/>
<ellipse fill="none" stroke="black" cx="296.24" cy="-276.12" rx="3.2" ry="3.2"/>
</g>
</g>
</svg>
