<?xml version="1.0" encoding="UTF-8" standalone="no"?>
<!DOCTYPE svg PUBLIC "-//W3C//DTD SVG 1.1//EN"
 "http://www.w3.org/Graphics/SVG/1.1/DTD/svg11.dtd">
<!-- Generated by graphviz version 2.43.0 (0)
 -->
<!-- Title: oneDegreeRelationshipsDiagram Pages: 1 -->
<svg width="1136pt" height="967pt"
 viewBox="0.00 0.00 1136.00 967.00" xmlns="http://www.w3.org/2000/svg" xmlns:xlink="http://www.w3.org/1999/xlink">
<g id="graph0" class="graph" transform="scale(1 1) rotate(0) translate(4 963)">
<title>oneDegreeRelationshipsDiagram</title>
<polygon fill="#ffffff" stroke="transparent" points="-4,4 -4,-963 1132,-963 1132,4 -4,4"/>
<text text-anchor="middle" x="79.5" y="-7.2" font-family="Helvetica,sans-Serif" font-size="11.00">Generated by SchemaSpy</text>
<!-- catchment_area -->
<g id="node1" class="node">
<title>catchment_area</title>
<g id="a_node1"><a xlink:href="../../tables/catchment_area.html" xlink:title="catchment_area" target="_top">
<polygon fill="#ffffff" stroke="transparent" points="770,-435 770,-955 1120,-955 1120,-435 770,-435"/>
<polygon fill="#f5f5f5" stroke="transparent" points="770,-933 770,-955 1120,-955 1120,-933 770,-933"/>
<polygon fill="none" stroke="black" points="770,-933 770,-955 1120,-955 1120,-933 770,-933"/>
<text text-anchor="start" x="775" y="-942.2" font-family="Helvetica,sans-Serif" font-weight="bold" font-size="11.00">catchment_area</text>
<text text-anchor="start" x="1078" y="-941.2" font-family="Helvetica,sans-Serif" font-size="11.00">[table]</text>
<polygon fill="none" stroke="black" points="770,-911 770,-933 1120,-933 1120,-911 770,-911"/>
<image xlink:href="../../images/primaryKeys.png" width="11px" height="12px" preserveAspectRatio="xMinYMin meet" x="775" y="-928"/>
<text text-anchor="start" x="790" y="-919.2" font-family="Helvetica,sans-Serif" font-size="11.00">obj_id</text>
<polygon fill="none" stroke="black" points="770,-889 770,-911 1120,-911 1120,-889 770,-889"/>
<image xlink:href="../../images/foreignKeys.png" width="11px" height="12px" preserveAspectRatio="xMinYMin meet" x="775" y="-906"/>
<text text-anchor="start" x="790" y="-897.2" font-family="Helvetica,sans-Serif" font-size="11.00">direct_discharge_current</text>
<polygon fill="none" stroke="black" points="770,-867 770,-889 1120,-889 1120,-867 770,-867"/>
<image xlink:href="../../images/foreignKeys.png" width="11px" height="12px" preserveAspectRatio="xMinYMin meet" x="775" y="-884"/>
<text text-anchor="start" x="790" y="-875.2" font-family="Helvetica,sans-Serif" font-size="11.00">direct_discharge_planned</text>
<polygon fill="none" stroke="black" points="770,-845 770,-867 1120,-867 1120,-845 770,-845"/>
<image xlink:href="../../images/foreignKeys.png" width="11px" height="12px" preserveAspectRatio="xMinYMin meet" x="775" y="-862"/>
<text text-anchor="start" x="790" y="-853.2" font-family="Helvetica,sans-Serif" font-size="11.00">drainage_system_current</text>
<polygon fill="none" stroke="black" points="770,-823 770,-845 1120,-845 1120,-823 770,-823"/>
<image xlink:href="../../images/foreignKeys.png" width="11px" height="12px" preserveAspectRatio="xMinYMin meet" x="775" y="-840"/>
<text text-anchor="start" x="790" y="-831.2" font-family="Helvetica,sans-Serif" font-size="11.00">drainage_system_planned</text>
<polygon fill="#ffffff" stroke="transparent" points="770,-801 770,-823 1120,-823 1120,-801 770,-801"/>
<polygon fill="none" stroke="black" points="770,-801 770,-823 1120,-823 1120,-801 770,-801"/>
<text text-anchor="start" x="790" y="-809.2" font-family="Helvetica,sans-Serif" font-size="11.00">identifier</text>
<polygon fill="none" stroke="black" points="770,-779 770,-801 1120,-801 1120,-779 770,-779"/>
<image xlink:href="../../images/foreignKeys.png" width="11px" height="12px" preserveAspectRatio="xMinYMin meet" x="775" y="-796"/>
<text text-anchor="start" x="790" y="-787.2" font-family="Helvetica,sans-Serif" font-size="11.00">infiltration_current</text>
<polygon fill="none" stroke="black" points="770,-757 770,-779 1120,-779 1120,-757 770,-757"/>
<image xlink:href="../../images/foreignKeys.png" width="11px" height="12px" preserveAspectRatio="xMinYMin meet" x="775" y="-774"/>
<text text-anchor="start" x="790" y="-765.2" font-family="Helvetica,sans-Serif" font-size="11.00">infiltration_planned</text>
<polygon fill="#ffffff" stroke="transparent" points="770,-735 770,-757 1120,-757 1120,-735 770,-735"/>
<polygon fill="none" stroke="black" points="770,-735 770,-757 1120,-757 1120,-735 770,-735"/>
<text text-anchor="start" x="790" y="-743.2" font-family="Helvetica,sans-Serif" font-size="11.00">perimeter_geometry</text>
<polygon fill="none" stroke="black" points="770,-713 770,-735 1120,-735 1120,-713 770,-713"/>
<image xlink:href="../../images/foreignKeys.png" width="11px" height="12px" preserveAspectRatio="xMinYMin meet" x="775" y="-730"/>
<text text-anchor="start" x="790" y="-721.2" font-family="Helvetica,sans-Serif" font-size="11.00">retention_current</text>
<polygon fill="none" stroke="black" points="770,-691 770,-713 1120,-713 1120,-691 770,-691"/>
<image xlink:href="../../images/foreignKeys.png" width="11px" height="12px" preserveAspectRatio="xMinYMin meet" x="775" y="-708"/>
<text text-anchor="start" x="790" y="-699.2" font-family="Helvetica,sans-Serif" font-size="11.00">retention_planned</text>
<polygon fill="#ffffff" stroke="transparent" points="770,-669 770,-691 1120,-691 1120,-669 770,-669"/>
<polygon fill="none" stroke="black" points="770,-669 770,-691 1120,-691 1120,-669 770,-669"/>
<image xlink:href="../../images/foreignKeys.png" width="11px" height="12px" preserveAspectRatio="xMinYMin meet" x="775" y="-686"/>
<text text-anchor="start" x="790" y="-677.2" font-family="Helvetica,sans-Serif" font-size="11.00">fk_dataowner</text>
<polygon fill="none" stroke="black" points="770,-647 770,-669 1120,-669 1120,-647 770,-647"/>
<image xlink:href="../../images/foreignKeys.png" width="11px" height="12px" preserveAspectRatio="xMinYMin meet" x="775" y="-664"/>
<text text-anchor="start" x="790" y="-655.2" font-family="Helvetica,sans-Serif" font-size="11.00">fk_provider</text>
<polygon fill="none" stroke="black" points="770,-625 770,-647 1120,-647 1120,-625 770,-625"/>
<image xlink:href="../../images/foreignKeys.png" width="11px" height="12px" preserveAspectRatio="xMinYMin meet" x="775" y="-642"/>
<text text-anchor="start" x="790" y="-633.2" font-family="Helvetica,sans-Serif" font-size="11.00">fk_wastewater_networkelement_rw_current</text>
<polygon fill="none" stroke="black" points="770,-603 770,-625 1120,-625 1120,-603 770,-603"/>
<image xlink:href="../../images/foreignKeys.png" width="11px" height="12px" preserveAspectRatio="xMinYMin meet" x="775" y="-620"/>
<text text-anchor="start" x="790" y="-611.2" font-family="Helvetica,sans-Serif" font-size="11.00">fk_wastewater_networkelement_rw_planned</text>
<polygon fill="none" stroke="black" points="770,-581 770,-603 1120,-603 1120,-581 770,-581"/>
<image xlink:href="../../images/foreignKeys.png" width="11px" height="12px" preserveAspectRatio="xMinYMin meet" x="775" y="-598"/>
<text text-anchor="start" x="790" y="-589.2" font-family="Helvetica,sans-Serif" font-size="11.00">fk_wastewater_networkelement_ww_planned</text>
<polygon fill="none" stroke="black" points="770,-559 770,-581 1120,-581 1120,-559 770,-559"/>
<image xlink:href="../../images/foreignKeys.png" width="11px" height="12px" preserveAspectRatio="xMinYMin meet" x="775" y="-576"/>
<text text-anchor="start" x="790" y="-567.2" font-family="Helvetica,sans-Serif" font-size="11.00">fk_wastewater_networkelement_ww_current</text>
<polygon fill="none" stroke="black" points="770,-537 770,-559 1120,-559 1120,-537 770,-537"/>
<image xlink:href="../../images/foreignKeys.png" width="11px" height="12px" preserveAspectRatio="xMinYMin meet" x="775" y="-554"/>
<text text-anchor="start" x="790" y="-545.2" font-family="Helvetica,sans-Serif" font-size="11.00">fk_special_building_rw_planned</text>
<polygon fill="none" stroke="black" points="770,-515 770,-537 1120,-537 1120,-515 770,-515"/>
<image xlink:href="../../images/foreignKeys.png" width="11px" height="12px" preserveAspectRatio="xMinYMin meet" x="775" y="-532"/>
<text text-anchor="start" x="790" y="-523.2" font-family="Helvetica,sans-Serif" font-size="11.00">fk_special_building_rw_current</text>
<polygon fill="none" stroke="black" points="770,-493 770,-515 1120,-515 1120,-493 770,-493"/>
<image xlink:href="../../images/foreignKeys.png" width="11px" height="12px" preserveAspectRatio="xMinYMin meet" x="775" y="-510"/>
<text text-anchor="start" x="790" y="-501.2" font-family="Helvetica,sans-Serif" font-size="11.00">fk_special_building_ww_planned</text>
<polygon fill="none" stroke="black" points="770,-471 770,-493 1120,-493 1120,-471 770,-471"/>
<image xlink:href="../../images/foreignKeys.png" width="11px" height="12px" preserveAspectRatio="xMinYMin meet" x="775" y="-488"/>
<text text-anchor="start" x="790" y="-479.2" font-family="Helvetica,sans-Serif" font-size="11.00">fk_special_building_ww_current</text>
<polygon fill="none" stroke="black" points="770,-453 770,-471 1120,-471 1120,-453 770,-453"/>
<text text-anchor="start" x="773" y="-459.2" font-family="Helvetica,sans-Serif" font-size="11.00">...</text>
<polygon fill="#ffffff" stroke="transparent" points="770,-435 770,-453 1120,-453 1120,-435 770,-435"/>
<polygon fill="none" stroke="black" points="770,-435 770,-453 1120,-453 1120,-435 770,-435"/>
<polygon fill="#ffffff" stroke="transparent" points="771,-436 771,-452 896,-452 896,-436 771,-436"/>
<text text-anchor="start" x="773" y="-441.2" font-family="Helvetica,sans-Serif" font-size="11.00">&lt; 18</text>
<polygon fill="#ffffff" stroke="transparent" points="896,-436 896,-452 1002,-452 1002,-436 896,-436"/>
<text text-anchor="start" x="945" y="-441.2" font-family="Helvetica,sans-Serif" font-size="11.00"> &#160;</text>
<polygon fill="#ffffff" stroke="transparent" points="1002,-436 1002,-452 1119,-452 1119,-436 1002,-436"/>
<text text-anchor="start" x="1097" y="-441.2" font-family="Helvetica,sans-Serif" font-size="11.00">2 &gt;</text>
<polygon fill="black" stroke="black" points="896,-436 896,-452 896,-452 896,-436 896,-436"/>
<polygon fill="black" stroke="black" points="1002,-436 1002,-452 1002,-452 1002,-436 1002,-436"/>
</a>
</g>
</g>
<!-- organisation -->
<g id="node2" class="node">
<title>organisation</title>
<g id="a_node2"><a xlink:href="../../tables/organisation.html" xlink:title="organisation" target="_top">
<polygon fill="#ffffff" stroke="transparent" points="90.5,-226 90.5,-438 264.5,-438 264.5,-226 90.5,-226"/>
<polygon fill="#f5f5f5" stroke="transparent" points="90.5,-416 90.5,-438 264.5,-438 264.5,-416 90.5,-416"/>
<polygon fill="none" stroke="black" points="90.5,-416 90.5,-438 264.5,-438 264.5,-416 90.5,-416"/>
<text text-anchor="start" x="95.5" y="-425.2" font-family="Helvetica,sans-Serif" font-weight="bold" font-size="11.00">organisation</text>
<text text-anchor="start" x="222.5" y="-424.2" font-family="Helvetica,sans-Serif" font-size="11.00">[table]</text>
<polygon fill="none" stroke="black" points="90.5,-394 90.5,-416 264.5,-416 264.5,-394 90.5,-394"/>
<image xlink:href="../../images/primaryKeys.png" width="11px" height="12px" preserveAspectRatio="xMinYMin meet" x="95.5" y="-411"/>
<text text-anchor="start" x="110.5" y="-402.2" font-family="Helvetica,sans-Serif" font-size="11.00">obj_id</text>
<polygon fill="#ffffff" stroke="transparent" points="90.5,-372 90.5,-394 264.5,-394 264.5,-372 90.5,-372"/>
<polygon fill="none" stroke="black" points="90.5,-372 90.5,-394 264.5,-394 264.5,-372 90.5,-372"/>
<text text-anchor="start" x="110.5" y="-380.2" font-family="Helvetica,sans-Serif" font-size="11.00">identifier</text>
<polygon fill="#ffffff" stroke="transparent" points="90.5,-350 90.5,-372 264.5,-372 264.5,-350 90.5,-350"/>
<polygon fill="none" stroke="black" points="90.5,-350 90.5,-372 264.5,-372 264.5,-350 90.5,-350"/>
<image xlink:href="../../images/foreignKeys.png" width="11px" height="12px" preserveAspectRatio="xMinYMin meet" x="95.5" y="-367"/>
<text text-anchor="start" x="110.5" y="-358.2" font-family="Helvetica,sans-Serif" font-size="11.00">organisation_type</text>
<polygon fill="none" stroke="black" points="90.5,-328 90.5,-350 264.5,-350 264.5,-328 90.5,-328"/>
<image xlink:href="../../images/foreignKeys.png" width="11px" height="12px" preserveAspectRatio="xMinYMin meet" x="95.5" y="-345"/>
<text text-anchor="start" x="110.5" y="-336.2" font-family="Helvetica,sans-Serif" font-size="11.00">status</text>
<polygon fill="#ffffff" stroke="transparent" points="90.5,-306 90.5,-328 264.5,-328 264.5,-306 90.5,-306"/>
<polygon fill="none" stroke="black" points="90.5,-306 90.5,-328 264.5,-328 264.5,-306 90.5,-306"/>
<text text-anchor="start" x="110.5" y="-314.2" font-family="Helvetica,sans-Serif" font-size="11.00">uid</text>
<polygon fill="none" stroke="black" points="90.5,-284 90.5,-306 264.5,-306 264.5,-284 90.5,-284"/>
<image xlink:href="../../images/foreignKeys.png" width="11px" height="12px" preserveAspectRatio="xMinYMin meet" x="95.5" y="-301"/>
<text text-anchor="start" x="110.5" y="-292.2" font-family="Helvetica,sans-Serif" font-size="11.00">fk_dataowner</text>
<polygon fill="none" stroke="black" points="90.5,-262 90.5,-284 264.5,-284 264.5,-262 90.5,-262"/>
<image xlink:href="../../images/foreignKeys.png" width="11px" height="12px" preserveAspectRatio="xMinYMin meet" x="95.5" y="-279"/>
<text text-anchor="start" x="110.5" y="-270.2" font-family="Helvetica,sans-Serif" font-size="11.00">fk_provider</text>
<polygon fill="none" stroke="black" points="90.5,-244 90.5,-262 264.5,-262 264.5,-244 90.5,-244"/>
<text text-anchor="start" x="93.5" y="-250.2" font-family="Helvetica,sans-Serif" font-size="11.00">...</text>
<polygon fill="#ffffff" stroke="transparent" points="90.5,-226 90.5,-244 264.5,-244 264.5,-226 90.5,-226"/>
<polygon fill="none" stroke="black" points="90.5,-226 90.5,-244 264.5,-244 264.5,-226 90.5,-226"/>
<polygon fill="#ffffff" stroke="transparent" points="91.5,-227 91.5,-243 148.5,-243 148.5,-227 91.5,-227"/>
<text text-anchor="start" x="93.5" y="-232.2" font-family="Helvetica,sans-Serif" font-size="11.00">&lt; 4</text>
<polygon fill="#ffffff" stroke="transparent" points="148.5,-227 148.5,-243 193.5,-243 193.5,-227 148.5,-227"/>
<text text-anchor="start" x="167" y="-232.2" font-family="Helvetica,sans-Serif" font-size="11.00"> &#160;</text>
<polygon fill="#ffffff" stroke="transparent" points="193.5,-227 193.5,-243 263.5,-243 263.5,-227 193.5,-227"/>
<text text-anchor="start" x="227.5" y="-232.2" font-family="Helvetica,sans-Serif" font-size="11.00">101 &gt;</text>
<polygon fill="black" stroke="black" points="148.5,-227 148.5,-243 148.5,-243 148.5,-227 148.5,-227"/>
<polygon fill="black" stroke="black" points="193.5,-227 193.5,-243 193.5,-243 193.5,-227 193.5,-227"/>
</a>
</g>
</g>
<!-- catchment_area&#45;&gt;organisation -->
<g id="edge1" class="edge">
<title>catchment_area:w&#45;&gt;organisation:e</title>
<path fill="none" stroke="black" d="M754.3,-680.22C594.28,-685.1 509.99,-766.65 388,-656 319.97,-594.3 408.65,-526.55 355,-452 328.76,-415.53 310.43,-405 265.5,-405"/>
<polygon fill="black" stroke="black" points="761,-680.12 769.05,-683.6 765,-680.06 769,-680 769,-680 769,-680 765,-680.06 768.95,-676.4 761,-680.12 761,-680.12"/>
<ellipse fill="none" stroke="black" cx="757.8" cy="-680.17" rx="3.2" ry="3.2"/>
</g>
<!-- catchment_area&#45;&gt;organisation -->
<g id="edge2" class="edge">
<title>catchment_area:w&#45;&gt;organisation:e</title>
<path fill="none" stroke="black" d="M754.59,-657.35C684.89,-653.37 402.22,-631.96 388,-619 332.07,-568.05 400.25,-512.63 355,-452 328.13,-415.99 310.43,-405 265.5,-405"/>
<polygon fill="black" stroke="black" points="761.01,-657.64 768.84,-661.6 765,-657.82 769,-658 769,-658 769,-658 765,-657.82 769.16,-654.4 761.01,-657.64 761.01,-657.64"/>
<ellipse fill="none" stroke="black" cx="757.81" cy="-657.5" rx="3.2" ry="3.2"/>
</g>
<!-- log_card -->
<g id="node3" class="node">
<title>log_card</title>
<g id="a_node3"><a xlink:href="../../tables/log_card.html" xlink:title="log_card" target="_top">
<polygon fill="#ffffff" stroke="transparent" points="396,-242 396,-572 721,-572 721,-242 396,-242"/>
<polygon fill="#f5f5f5" stroke="transparent" points="398.5,-548 398.5,-570 719.5,-570 719.5,-548 398.5,-548"/>
<polygon fill="none" stroke="black" points="398.5,-548 398.5,-570 719.5,-570 719.5,-548 398.5,-548"/>
<text text-anchor="start" x="403.5" y="-557.2" font-family="Helvetica,sans-Serif" font-weight="bold" font-size="11.00">log_card</text>
<text text-anchor="start" x="677.5" y="-556.2" font-family="Helvetica,sans-Serif" font-size="11.00">[table]</text>
<polygon fill="none" stroke="black" points="398.5,-526 398.5,-548 613.5,-548 613.5,-526 398.5,-526"/>
<image xlink:href="../../images/primaryKeys.png" width="11px" height="12px" preserveAspectRatio="xMinYMin meet" x="403.5" y="-543"/>
<text text-anchor="start" x="418.5" y="-534.2" font-family="Helvetica,sans-Serif" font-size="11.00">obj_id</text>
<polygon fill="none" stroke="black" points="613.5,-526 613.5,-548 719.5,-548 719.5,-526 613.5,-526"/>
<text text-anchor="start" x="616.5" y="-534.2" font-family="Helvetica,sans-Serif" font-size="11.00">varchar[16]</text>
<polygon fill="none" stroke="black" points="398.5,-504 398.5,-526 613.5,-526 613.5,-504 398.5,-504"/>
<image xlink:href="../../images/foreignKeys.png" width="11px" height="12px" preserveAspectRatio="xMinYMin meet" x="403.5" y="-521"/>
<text text-anchor="start" x="418.5" y="-512.2" font-family="Helvetica,sans-Serif" font-size="11.00">control_remote_control</text>
<polygon fill="none" stroke="black" points="613.5,-504 613.5,-526 719.5,-526 719.5,-504 613.5,-504"/>
<text text-anchor="start" x="616.5" y="-512.2" font-family="Helvetica,sans-Serif" font-size="11.00">int4[10]</text>
<polygon fill="none" stroke="black" points="398.5,-482 398.5,-504 613.5,-504 613.5,-482 398.5,-482"/>
<image xlink:href="../../images/foreignKeys.png" width="11px" height="12px" preserveAspectRatio="xMinYMin meet" x="403.5" y="-499"/>
<text text-anchor="start" x="418.5" y="-490.2" font-family="Helvetica,sans-Serif" font-size="11.00">information_source</text>
<polygon fill="none" stroke="black" points="613.5,-482 613.5,-504 719.5,-504 719.5,-482 613.5,-482"/>
<text text-anchor="start" x="616.5" y="-490.2" font-family="Helvetica,sans-Serif" font-size="11.00">int4[10]</text>
<polygon fill="none" stroke="black" points="398.5,-460 398.5,-482 613.5,-482 613.5,-460 398.5,-460"/>
<text text-anchor="start" x="418.5" y="-468.2" font-family="Helvetica,sans-Serif" font-size="11.00">person_in_charge</text>
<polygon fill="none" stroke="black" points="613.5,-460 613.5,-482 719.5,-482 719.5,-460 613.5,-460"/>
<text text-anchor="start" x="616.5" y="-468.2" font-family="Helvetica,sans-Serif" font-size="11.00">text[2147483647]</text>
<polygon fill="none" stroke="black" points="398.5,-438 398.5,-460 613.5,-460 613.5,-438 398.5,-438"/>
<text text-anchor="start" x="418.5" y="-446.2" font-family="Helvetica,sans-Serif" font-size="11.00">remark</text>
<polygon fill="none" stroke="black" points="613.5,-438 613.5,-460 719.5,-460 719.5,-438 613.5,-438"/>
<text text-anchor="start" x="616.5" y="-446.2" font-family="Helvetica,sans-Serif" font-size="11.00">text[2147483647]</text>
<polygon fill="none" stroke="black" points="398.5,-416 398.5,-438 613.5,-438 613.5,-416 398.5,-416"/>
<text text-anchor="start" x="418.5" y="-424.2" font-family="Helvetica,sans-Serif" font-size="11.00">last_modification</text>
<polygon fill="none" stroke="black" points="613.5,-416 613.5,-438 719.5,-438 719.5,-416 613.5,-416"/>
<text text-anchor="start" x="616.5" y="-424.2" font-family="Helvetica,sans-Serif" font-size="11.00">timestamp[29,6]</text>
<polygon fill="none" stroke="black" points="398.5,-394 398.5,-416 613.5,-416 613.5,-394 398.5,-394"/>
<image xlink:href="../../images/foreignKeys.png" width="11px" height="12px" preserveAspectRatio="xMinYMin meet" x="403.5" y="-411"/>
<text text-anchor="start" x="418.5" y="-402.2" font-family="Helvetica,sans-Serif" font-size="11.00">fk_dataowner</text>
<polygon fill="none" stroke="black" points="613.5,-394 613.5,-416 719.5,-416 719.5,-394 613.5,-394"/>
<text text-anchor="start" x="616.5" y="-402.2" font-family="Helvetica,sans-Serif" font-size="11.00">varchar[16]</text>
<polygon fill="none" stroke="black" points="398.5,-372 398.5,-394 613.5,-394 613.5,-372 398.5,-372"/>
<image xlink:href="../../images/foreignKeys.png" width="11px" height="12px" preserveAspectRatio="xMinYMin meet" x="403.5" y="-389"/>
<text text-anchor="start" x="418.5" y="-380.2" font-family="Helvetica,sans-Serif" font-size="11.00">fk_provider</text>
<polygon fill="none" stroke="black" points="613.5,-372 613.5,-394 719.5,-394 719.5,-372 613.5,-372"/>
<text text-anchor="start" x="616.5" y="-380.2" font-family="Helvetica,sans-Serif" font-size="11.00">varchar[16]</text>
<polygon fill="none" stroke="black" points="398.5,-350 398.5,-372 613.5,-372 613.5,-350 398.5,-350"/>
<image xlink:href="../../images/foreignKeys.png" width="11px" height="12px" preserveAspectRatio="xMinYMin meet" x="403.5" y="-367"/>
<text text-anchor="start" x="418.5" y="-358.2" font-family="Helvetica,sans-Serif" font-size="11.00">fk_pwwf_wastewater_node</text>
<polygon fill="none" stroke="black" points="613.5,-350 613.5,-372 719.5,-372 719.5,-350 613.5,-350"/>
<text text-anchor="start" x="616.5" y="-358.2" font-family="Helvetica,sans-Serif" font-size="11.00">varchar[16]</text>
<polygon fill="none" stroke="black" points="398.5,-328 398.5,-350 613.5,-350 613.5,-328 398.5,-328"/>
<image xlink:href="../../images/foreignKeys.png" width="11px" height="12px" preserveAspectRatio="xMinYMin meet" x="403.5" y="-345"/>
<text text-anchor="start" x="418.5" y="-336.2" font-family="Helvetica,sans-Serif" font-size="11.00">fk_main_structure</text>
<polygon fill="none" stroke="black" points="613.5,-328 613.5,-350 719.5,-350 719.5,-328 613.5,-328"/>
<text text-anchor="start" x="616.5" y="-336.2" font-family="Helvetica,sans-Serif" font-size="11.00">varchar[16]</text>
<polygon fill="none" stroke="black" points="398.5,-306 398.5,-328 613.5,-328 613.5,-306 398.5,-306"/>
<image xlink:href="../../images/foreignKeys.png" width="11px" height="12px" preserveAspectRatio="xMinYMin meet" x="403.5" y="-323"/>
<text text-anchor="start" x="418.5" y="-314.2" font-family="Helvetica,sans-Serif" font-size="11.00">fk_agency</text>
<polygon fill="none" stroke="black" points="613.5,-306 613.5,-328 719.5,-328 719.5,-306 613.5,-306"/>
<text text-anchor="start" x="616.5" y="-314.2" font-family="Helvetica,sans-Serif" font-size="11.00">varchar[16]</text>
<polygon fill="none" stroke="black" points="398.5,-284 398.5,-306 613.5,-306 613.5,-284 398.5,-284"/>
<image xlink:href="../../images/foreignKeys.png" width="11px" height="12px" preserveAspectRatio="xMinYMin meet" x="403.5" y="-301"/>
<text text-anchor="start" x="418.5" y="-292.2" font-family="Helvetica,sans-Serif" font-size="11.00">fk_next_special_building</text>
<polygon fill="none" stroke="black" points="613.5,-284 613.5,-306 719.5,-306 719.5,-284 613.5,-284"/>
<text text-anchor="start" x="616.5" y="-292.2" font-family="Helvetica,sans-Serif" font-size="11.00">varchar[16]</text>
<polygon fill="none" stroke="black" points="398.5,-262 398.5,-284 613.5,-284 613.5,-262 398.5,-262"/>
<image xlink:href="../../images/foreignKeys.png" width="11px" height="12px" preserveAspectRatio="xMinYMin meet" x="403.5" y="-279"/>
<text text-anchor="start" x="418.5" y="-270.2" font-family="Helvetica,sans-Serif" font-size="11.00">fk_location_municipality</text>
<polygon fill="none" stroke="black" points="613.5,-262 613.5,-284 719.5,-284 719.5,-262 613.5,-262"/>
<text text-anchor="start" x="616.5" y="-270.2" font-family="Helvetica,sans-Serif" font-size="11.00">varchar[16]</text>
<polygon fill="#ffffff" stroke="transparent" points="398.5,-244 398.5,-262 719.5,-262 719.5,-244 398.5,-244"/>
<polygon fill="none" stroke="black" points="398.5,-244 398.5,-262 719.5,-262 719.5,-244 398.5,-244"/>
<polygon fill="#ffffff" stroke="transparent" points="399.5,-245 399.5,-261 510.5,-261 510.5,-245 399.5,-245"/>
<text text-anchor="start" x="401.5" y="-250.2" font-family="Helvetica,sans-Serif" font-size="11.00">&lt; 9</text>
<polygon fill="#ffffff" stroke="transparent" points="510.5,-245 510.5,-261 608.5,-261 608.5,-245 510.5,-245"/>
<text text-anchor="start" x="555.5" y="-250.2" font-family="Helvetica,sans-Serif" font-size="11.00"> &#160;</text>
<polygon fill="#ffffff" stroke="transparent" points="608.5,-245 608.5,-261 718.5,-261 718.5,-245 608.5,-245"/>
<text text-anchor="start" x="696.5" y="-250.2" font-family="Helvetica,sans-Serif" font-size="11.00">6 &gt;</text>
<polygon fill="black" stroke="black" points="510.5,-245 510.5,-261 510.5,-261 510.5,-245 510.5,-245"/>
<polygon fill="black" stroke="black" points="608.5,-245 608.5,-261 608.5,-261 608.5,-245 608.5,-245"/>
<polygon fill="none" stroke="black" stroke-width="2" points="397,-243 397,-571 720,-571 720,-243 397,-243"/>
</a>
</g>
</g>
<!-- catchment_area&#45;&gt;log_card -->
<g id="edge3" class="edge">
<title>catchment_area:w&#45;&gt;log_card:e</title>
<path fill="none" stroke="black" d="M754.49,-527.92C743.36,-531.07 736.73,-537 720.5,-537"/>
<polygon fill="black" stroke="black" points="761.07,-527.05 769.47,-529.57 765.03,-526.52 769,-526 769,-526 769,-526 765.03,-526.52 768.53,-522.43 761.07,-527.05 761.07,-527.05"/>
<ellipse fill="none" stroke="black" cx="757.9" cy="-527.47" rx="3.2" ry="3.2"/>
</g>
<!-- catchment_area&#45;&gt;log_card -->
<g id="edge4" class="edge">
<title>catchment_area:w&#45;&gt;log_card:e</title>
<path fill="none" stroke="black" d="M754.49,-546.08C743.36,-542.93 736.73,-537 720.5,-537"/>
<polygon fill="black" stroke="black" points="761.07,-546.95 768.53,-551.57 765.03,-547.48 769,-548 769,-548 769,-548 765.03,-547.48 769.47,-544.43 761.07,-546.95 761.07,-546.95"/>
<ellipse fill="none" stroke="black" cx="757.9" cy="-546.53" rx="3.2" ry="3.2"/>
</g>
<!-- catchment_area&#45;&gt;log_card -->
<g id="edge5" class="edge">
<title>catchment_area:w&#45;&gt;log_card:e</title>
<path fill="none" stroke="black" d="M755.21,-487.08C740.93,-500.69 746.98,-537 720.5,-537"/>
<polygon fill="black" stroke="black" points="761.49,-484.76 770.24,-485.38 765.25,-483.38 769,-482 769,-482 769,-482 765.25,-483.38 767.76,-478.62 761.49,-484.76 761.49,-484.76"/>
<ellipse fill="none" stroke="black" cx="758.49" cy="-485.87" rx="3.2" ry="3.2"/>
</g>
<!-- catchment_area&#45;&gt;log_card -->
<g id="edge6" class="edge">
<title>catchment_area:w&#45;&gt;log_card:e</title>
<path fill="none" stroke="black" d="M755.16,-508.31C743.05,-517.26 740.67,-537 720.5,-537"/>
<polygon fill="black" stroke="black" points="761.36,-506.38 770.07,-507.44 765.18,-505.19 769,-504 769,-504 769,-504 765.18,-505.19 767.93,-500.56 761.36,-506.38 761.36,-506.38"/>
<ellipse fill="none" stroke="black" cx="758.31" cy="-507.33" rx="3.2" ry="3.2"/>
</g>
<!-- log_card&#45;&gt;organisation -->
<g id="edge8" class="edge">
<title>log_card:w&#45;&gt;organisation:e</title>
<path fill="none" stroke="black" d="M383.05,-318.38C327.89,-329.58 330.78,-405 265.5,-405"/>
<polygon fill="black" stroke="black" points="389.54,-317.76 397.84,-320.58 393.52,-317.38 397.5,-317 397.5,-317 397.5,-317 393.52,-317.38 397.16,-313.42 389.54,-317.76 389.54,-317.76"/>
<ellipse fill="none" stroke="black" cx="386.35" cy="-318.07" rx="3.2" ry="3.2"/>
</g>
<!-- log_card&#45;&gt;organisation -->
<g id="edge9" class="edge">
<title>log_card:w&#45;&gt;organisation:e</title>
<path fill="none" stroke="black" d="M382.99,-405C335.92,-405 319.01,-405 265.5,-405"/>
<polygon fill="black" stroke="black" points="389.5,-405 397.5,-408.6 393.5,-405 397.5,-405 397.5,-405 397.5,-405 393.5,-405 397.5,-401.4 389.5,-405 389.5,-405"/>
<ellipse fill="none" stroke="black" cx="386.3" cy="-405" rx="3.2" ry="3.2"/>
</g>
<!-- log_card&#45;&gt;organisation -->
<g id="edge10" class="edge">
<title>log_card:w&#45;&gt;organisation:e</title>
<path fill="none" stroke="black" d="M382.85,-274.57C318.42,-289.47 343.12,-405 265.5,-405"/>
<polygon fill="black" stroke="black" points="389.55,-273.85 397.88,-276.58 393.52,-273.43 397.5,-273 397.5,-273 397.5,-273 393.52,-273.43 397.12,-269.42 389.55,-273.85 389.55,-273.85"/>
<ellipse fill="none" stroke="black" cx="386.36" cy="-274.2" rx="3.2" ry="3.2"/>
</g>
<!-- log_card&#45;&gt;organisation -->
<g id="edge13" class="edge">
<title>log_card:w&#45;&gt;organisation:e</title>
<path fill="none" stroke="black" d="M382.83,-383.48C335.37,-386.7 319.75,-405 265.5,-405"/>
<polygon fill="black" stroke="black" points="389.5,-383.26 397.62,-386.6 393.5,-383.13 397.5,-383 397.5,-383 397.5,-383 393.5,-383.13 397.38,-379.4 389.5,-383.26 389.5,-383.26"/>
<ellipse fill="none" stroke="black" cx="386.31" cy="-383.37" rx="3.2" ry="3.2"/>
</g>
<!-- log_card&#45;&gt;log_card -->
<g id="edge11" class="edge">
<title>log_card:w&#45;&gt;log_card:e</title>
<path fill="none" stroke="black" d="M386.79,-347.51C303.97,-415.59 314.48,-589 559,-589 814.5,-589 814.5,-580.33 719.5,-537"/>
<polygon fill="black" stroke="black" points="392.03,-343.7 400.62,-341.91 395.26,-341.35 398.5,-339 398.5,-339 398.5,-339 395.26,-341.35 396.38,-336.09 392.03,-343.7 392.03,-343.7"/>
<ellipse fill="none" stroke="black" cx="389.44" cy="-345.58" rx="3.2" ry="3.2"/>
</g>
<!-- log_card&#45;&gt;log_card -->
<g id="edge12" class="edge">
<title>log_card:w&#45;&gt;log_card:e</title>
<path fill="none" stroke="black" d="M386.79,-303.74C303.97,-375.29 314.48,-589 559,-589 814.5,-589 814.5,-580.33 719.5,-537"/>
<polygon fill="black" stroke="black" points="392.09,-299.79 400.65,-297.88 395.3,-297.39 398.5,-295 398.5,-295 398.5,-295 395.3,-297.39 396.35,-292.12 392.09,-299.79 392.09,-299.79"/>
<ellipse fill="none" stroke="black" cx="389.53" cy="-301.7" rx="3.2" ry="3.2"/>
</g>
<!-- tww_vl.log_card_control_remote_control -->
<g id="node4" class="node">
<title>tww_vl.log_card_control_remote_control</title>
<g id="a_node4"><a xlink:href="../../../tww_vl/tables/log_card_control_remote_control.html" xlink:title="tww_vl.log_card_control_remote_control" target="_top">
<polygon fill="#ffffff" stroke="transparent" points="8,-541 8,-599 347,-599 347,-541 8,-541"/>
<polygon fill="#f5f5f5" stroke="transparent" points="8.5,-577 8.5,-599 347.5,-599 347.5,-577 8.5,-577"/>
<polygon fill="none" stroke="black" points="8.5,-577 8.5,-599 347.5,-599 347.5,-577 8.5,-577"/>
<text text-anchor="start" x="13.5" y="-586.2" font-family="Helvetica,sans-Serif" font-weight="bold" font-size="11.00">tww_vl.log_card_control_remote_control</text>
<text text-anchor="start" x="305.5" y="-585.2" font-family="Helvetica,sans-Serif" font-size="11.00">[table]</text>
<polygon fill="none" stroke="black" points="8.5,-559 8.5,-577 347.5,-577 347.5,-559 8.5,-559"/>
<text text-anchor="start" x="11.5" y="-565.2" font-family="Helvetica,sans-Serif" font-size="11.00">...</text>
<polygon fill="#ffffff" stroke="transparent" points="8.5,-541 8.5,-559 347.5,-559 347.5,-541 8.5,-541"/>
<polygon fill="none" stroke="black" points="8.5,-541 8.5,-559 347.5,-559 347.5,-541 8.5,-541"/>
<polygon fill="#ffffff" stroke="transparent" points="9.5,-542 9.5,-558 108.5,-558 108.5,-542 9.5,-542"/>
<text text-anchor="start" x="11.5" y="-547.2" font-family="Helvetica,sans-Serif" font-size="11.00"> &#160;</text>
<polygon fill="#ffffff" stroke="transparent" points="108.5,-542 108.5,-558 236.5,-558 236.5,-542 108.5,-542"/>
<text text-anchor="start" x="154" y="-547.2" font-family="Helvetica,sans-Serif" font-size="11.00">0 rows</text>
<polygon fill="#ffffff" stroke="transparent" points="236.5,-542 236.5,-558 346.5,-558 346.5,-542 236.5,-542"/>
<text text-anchor="start" x="324.5" y="-547.2" font-family="Helvetica,sans-Serif" font-size="11.00">1 &gt;</text>
<polygon fill="black" stroke="black" points="108.5,-542 108.5,-558 108.5,-558 108.5,-542 108.5,-542"/>
<polygon fill="black" stroke="black" points="236.5,-542 236.5,-558 236.5,-558 236.5,-542 236.5,-542"/>
</a>
</g>
</g>
<!-- log_card&#45;&gt;tww_vl.log_card_control_remote_control -->
<g id="edge7" class="edge">
<title>log_card:w&#45;&gt;tww_vl.log_card_control_remote_control:e</title>
<path fill="none" stroke="black" d="M383.2,-517.32C374.11,-520.69 368.6,-526.96 355,-531 348.08,-533.06 340.98,-535.06 333.79,-537"/>
<polygon fill="black" stroke="black" points="389.6,-516.28 398.08,-518.55 393.55,-515.64 397.5,-515 397.5,-515 397.5,-515 393.55,-515.64 396.92,-511.45 389.6,-516.28 389.6,-516.28"/>
<ellipse fill="none" stroke="black" cx="386.45" cy="-516.8" rx="3.2" ry="3.2"/>
</g>
<!-- wastewater_node -->
<g id="node5" class="node">
<title>wastewater_node</title>
<g id="a_node5"><a xlink:href="../../tables/wastewater_node.html" xlink:title="wastewater_node" target="_top">
<polygon fill="#ffffff" stroke="transparent" points="65.5,-37 65.5,-205 289.5,-205 289.5,-37 65.5,-37"/>
<polygon fill="#f5f5f5" stroke="transparent" points="65.5,-183 65.5,-205 289.5,-205 289.5,-183 65.5,-183"/>
<polygon fill="none" stroke="black" points="65.5,-183 65.5,-205 289.5,-205 289.5,-183 65.5,-183"/>
<text text-anchor="start" x="70.5" y="-192.2" font-family="Helvetica,sans-Serif" font-weight="bold" font-size="11.00">wastewater_node</text>
<text text-anchor="start" x="247.5" y="-191.2" font-family="Helvetica,sans-Serif" font-size="11.00">[table]</text>
<polygon fill="none" stroke="black" points="65.5,-161 65.5,-183 289.5,-183 289.5,-161 65.5,-161"/>
<image xlink:href="../../images/primaryKeys.png" width="11px" height="12px" preserveAspectRatio="xMinYMin meet" x="70.5" y="-178"/>
<text text-anchor="start" x="85.5" y="-169.2" font-family="Helvetica,sans-Serif" font-size="11.00">obj_id</text>
<polygon fill="none" stroke="black" points="65.5,-139 65.5,-161 289.5,-161 289.5,-139 65.5,-139"/>
<image xlink:href="../../images/foreignKeys.png" width="11px" height="12px" preserveAspectRatio="xMinYMin meet" x="70.5" y="-156"/>
<text text-anchor="start" x="85.5" y="-147.2" font-family="Helvetica,sans-Serif" font-size="11.00">elevation_accuracy</text>
<polygon fill="none" stroke="black" points="65.5,-117 65.5,-139 289.5,-139 289.5,-117 65.5,-117"/>
<image xlink:href="../../images/foreignKeys.png" width="11px" height="12px" preserveAspectRatio="xMinYMin meet" x="70.5" y="-134"/>
<text text-anchor="start" x="85.5" y="-125.2" font-family="Helvetica,sans-Serif" font-size="11.00">function_node_amelioration</text>
<polygon fill="#ffffff" stroke="transparent" points="65.5,-95 65.5,-117 289.5,-117 289.5,-95 65.5,-95"/>
<polygon fill="none" stroke="black" points="65.5,-95 65.5,-117 289.5,-117 289.5,-95 65.5,-95"/>
<text text-anchor="start" x="85.5" y="-103.2" font-family="Helvetica,sans-Serif" font-size="11.00">situation3d_geometry</text>
<polygon fill="none" stroke="black" points="65.5,-73 65.5,-95 289.5,-95 289.5,-73 65.5,-73"/>
<image xlink:href="../../images/foreignKeys.png" width="11px" height="12px" preserveAspectRatio="xMinYMin meet" x="70.5" y="-90"/>
<text text-anchor="start" x="85.5" y="-81.2" font-family="Helvetica,sans-Serif" font-size="11.00">fk_hydr_geometry</text>
<polygon fill="none" stroke="black" points="65.5,-55 65.5,-73 289.5,-73 289.5,-55 65.5,-55"/>
<text text-anchor="start" x="68.5" y="-61.2" font-family="Helvetica,sans-Serif" font-size="11.00">...</text>
<polygon fill="#ffffff" stroke="transparent" points="65.5,-37 65.5,-55 289.5,-55 289.5,-37 65.5,-37"/>
<polygon fill="none" stroke="black" points="65.5,-37 65.5,-55 289.5,-55 289.5,-37 65.5,-37"/>
<polygon fill="#ffffff" stroke="transparent" points="66.5,-38 66.5,-54 144.5,-54 144.5,-38 66.5,-38"/>
<text text-anchor="start" x="68.5" y="-43.2" font-family="Helvetica,sans-Serif" font-size="11.00">&lt; 4</text>
<polygon fill="#ffffff" stroke="transparent" points="144.5,-38 144.5,-54 210.5,-54 210.5,-38 144.5,-38"/>
<text text-anchor="start" x="173.5" y="-43.2" font-family="Helvetica,sans-Serif" font-size="11.00"> &#160;</text>
<polygon fill="#ffffff" stroke="transparent" points="210.5,-38 210.5,-54 288.5,-54 288.5,-38 210.5,-38"/>
<text text-anchor="start" x="266.5" y="-43.2" font-family="Helvetica,sans-Serif" font-size="11.00">7 &gt;</text>
<polygon fill="black" stroke="black" points="144.5,-38 144.5,-54 144.5,-54 144.5,-38 144.5,-38"/>
<polygon fill="black" stroke="black" points="210.5,-38 210.5,-54 210.5,-54 210.5,-38 210.5,-38"/>
</a>
</g>
</g>
<!-- log_card&#45;&gt;wastewater_node -->
<g id="edge14" class="edge">
<title>log_card:w&#45;&gt;wastewater_node:e</title>
<path fill="none" stroke="black" d="M382.95,-359.07C340.6,-345.68 391.1,-265.65 355,-216 334.59,-187.93 325.2,-172 290.5,-172"/>
<polygon fill="black" stroke="black" points="389.57,-359.95 397.03,-364.57 393.53,-360.47 397.5,-361 397.5,-361 397.5,-361 393.53,-360.47 397.97,-357.43 389.57,-359.95 389.57,-359.95"/>
<ellipse fill="none" stroke="black" cx="386.4" cy="-359.53" rx="3.2" ry="3.2"/>
</g>
<!-- tww_vl.log_card_information_source -->
<g id="node6" class="node">
<title>tww_vl.log_card_information_source</title>
<g id="a_node6"><a xlink:href="../../../tww_vl/tables/log_card_information_source.html" xlink:title="tww_vl.log_card_information_source" target="_top">
<polygon fill="#ffffff" stroke="transparent" points="22.5,-462 22.5,-520 332.5,-520 332.5,-462 22.5,-462"/>
<polygon fill="#f5f5f5" stroke="transparent" points="22.5,-498 22.5,-520 332.5,-520 332.5,-498 22.5,-498"/>
<polygon fill="none" stroke="black" points="22.5,-498 22.5,-520 332.5,-520 332.5,-498 22.5,-498"/>
<text text-anchor="start" x="27.5" y="-507.2" font-family="Helvetica,sans-Serif" font-weight="bold" font-size="11.00">tww_vl.log_card_information_source</text>
<text text-anchor="start" x="290.5" y="-506.2" font-family="Helvetica,sans-Serif" font-size="11.00">[table]</text>
<polygon fill="none" stroke="black" points="22.5,-480 22.5,-498 332.5,-498 332.5,-480 22.5,-480"/>
<text text-anchor="start" x="25.5" y="-486.2" font-family="Helvetica,sans-Serif" font-size="11.00">...</text>
<polygon fill="#ffffff" stroke="transparent" points="22.5,-462 22.5,-480 332.5,-480 332.5,-462 22.5,-462"/>
<polygon fill="none" stroke="black" points="22.5,-462 22.5,-480 332.5,-480 332.5,-462 22.5,-462"/>
<polygon fill="#ffffff" stroke="transparent" points="23.5,-463 23.5,-479 112.5,-479 112.5,-463 23.5,-463"/>
<text text-anchor="start" x="25.5" y="-468.2" font-family="Helvetica,sans-Serif" font-size="11.00"> &#160;</text>
<polygon fill="#ffffff" stroke="transparent" points="112.5,-463 112.5,-479 230.5,-479 230.5,-463 112.5,-463"/>
<text text-anchor="start" x="153" y="-468.2" font-family="Helvetica,sans-Serif" font-size="11.00">0 rows</text>
<polygon fill="#ffffff" stroke="transparent" points="230.5,-463 230.5,-479 331.5,-479 331.5,-463 230.5,-463"/>
<text text-anchor="start" x="309.5" y="-468.2" font-family="Helvetica,sans-Serif" font-size="11.00">1 &gt;</text>
<polygon fill="black" stroke="black" points="112.5,-463 112.5,-479 112.5,-479 112.5,-463 112.5,-463"/>
<polygon fill="black" stroke="black" points="230.5,-463 230.5,-479 230.5,-479 230.5,-463 230.5,-463"/>
</a>
</g>
</g>
<!-- log_card&#45;&gt;tww_vl.log_card_information_source -->
<g id="edge15" class="edge">
<title>log_card:w&#45;&gt;tww_vl.log_card_information_source:e</title>
<path fill="none" stroke="black" d="M383.08,-492.99C369.11,-492.96 354.8,-492.9 340.55,-492.81"/>
<polygon fill="black" stroke="black" points="389.5,-492.99 397.5,-496.6 393.5,-493 397.5,-493 397.5,-493 397.5,-493 393.5,-493 397.5,-489.4 389.5,-492.99 389.5,-492.99"/>
<ellipse fill="none" stroke="black" cx="386.3" cy="-492.99" rx="3.2" ry="3.2"/>
</g>
</g>
</svg>
