<?xml version="1.0" encoding="UTF-8" standalone="no"?>
<!DOCTYPE svg PUBLIC "-//W3C//DTD SVG 1.1//EN"
 "http://www.w3.org/Graphics/SVG/1.1/DTD/svg11.dtd">
<!-- Generated by graphviz version 2.43.0 (0)
 -->
<!-- Title: oneDegreeRelationshipsDiagram Pages: 1 -->
<svg width="1025pt" height="758pt"
 viewBox="0.00 0.00 1025.00 758.00" xmlns="http://www.w3.org/2000/svg" xmlns:xlink="http://www.w3.org/1999/xlink">
<g id="graph0" class="graph" transform="scale(1 1) rotate(0) translate(4 754)">
<title>oneDegreeRelationshipsDiagram</title>
<polygon fill="#ffffff" stroke="transparent" points="-4,4 -4,-754 1021,-754 1021,4 -4,4"/>
<text text-anchor="middle" x="79.5" y="-7.2" font-family="Helvetica,sans-Serif" font-size="11.00">Generated by SchemaSpy</text>
<!-- building_group -->
<g id="node1" class="node">
<title>building_group</title>
<g id="a_node1"><a xlink:href="../../tables/building_group.html" xlink:title="building_group" target="_top">
<polygon fill="#ffffff" stroke="transparent" points="729,-277 729,-665 1009,-665 1009,-277 729,-277"/>
<polygon fill="#f5f5f5" stroke="transparent" points="729,-643 729,-665 1009,-665 1009,-643 729,-643"/>
<polygon fill="none" stroke="black" points="729,-643 729,-665 1009,-665 1009,-643 729,-643"/>
<text text-anchor="start" x="734" y="-652.2" font-family="Helvetica,sans-Serif" font-weight="bold" font-size="11.00">building_group</text>
<text text-anchor="start" x="967" y="-651.2" font-family="Helvetica,sans-Serif" font-size="11.00">[table]</text>
<polygon fill="none" stroke="black" points="729,-621 729,-643 1009,-643 1009,-621 729,-621"/>
<image xlink:href="../../images/primaryKeys.png" width="11px" height="12px" preserveAspectRatio="xMinYMin meet" x="734" y="-638"/>
<text text-anchor="start" x="749" y="-629.2" font-family="Helvetica,sans-Serif" font-size="11.00">obj_id</text>
<polygon fill="none" stroke="black" points="729,-599 729,-621 1009,-621 1009,-599 729,-599"/>
<image xlink:href="../../images/foreignKeys.png" width="11px" height="12px" preserveAspectRatio="xMinYMin meet" x="734" y="-616"/>
<text text-anchor="start" x="749" y="-607.2" font-family="Helvetica,sans-Serif" font-size="11.00">connecting_obligation</text>
<polygon fill="none" stroke="black" points="729,-577 729,-599 1009,-599 1009,-577 729,-577"/>
<image xlink:href="../../images/foreignKeys.png" width="11px" height="12px" preserveAspectRatio="xMinYMin meet" x="734" y="-594"/>
<text text-anchor="start" x="749" y="-585.2" font-family="Helvetica,sans-Serif" font-size="11.00">connection_wwtp</text>
<polygon fill="none" stroke="black" points="729,-555 729,-577 1009,-577 1009,-555 729,-555"/>
<image xlink:href="../../images/foreignKeys.png" width="11px" height="12px" preserveAspectRatio="xMinYMin meet" x="734" y="-572"/>
<text text-anchor="start" x="749" y="-563.2" font-family="Helvetica,sans-Serif" font-size="11.00">drainage_map</text>
<polygon fill="none" stroke="black" points="729,-533 729,-555 1009,-555 1009,-533 729,-533"/>
<image xlink:href="../../images/foreignKeys.png" width="11px" height="12px" preserveAspectRatio="xMinYMin meet" x="734" y="-550"/>
<text text-anchor="start" x="749" y="-541.2" font-family="Helvetica,sans-Serif" font-size="11.00">drinking_water_network</text>
<polygon fill="none" stroke="black" points="729,-511 729,-533 1009,-533 1009,-511 729,-511"/>
<image xlink:href="../../images/foreignKeys.png" width="11px" height="12px" preserveAspectRatio="xMinYMin meet" x="734" y="-528"/>
<text text-anchor="start" x="749" y="-519.2" font-family="Helvetica,sans-Serif" font-size="11.00">drinking_water_others</text>
<polygon fill="none" stroke="black" points="729,-489 729,-511 1009,-511 1009,-489 729,-489"/>
<image xlink:href="../../images/foreignKeys.png" width="11px" height="12px" preserveAspectRatio="xMinYMin meet" x="734" y="-506"/>
<text text-anchor="start" x="749" y="-497.2" font-family="Helvetica,sans-Serif" font-size="11.00">electric_connection</text>
<polygon fill="none" stroke="black" points="729,-467 729,-489 1009,-489 1009,-467 729,-467"/>
<image xlink:href="../../images/foreignKeys.png" width="11px" height="12px" preserveAspectRatio="xMinYMin meet" x="734" y="-484"/>
<text text-anchor="start" x="749" y="-475.2" font-family="Helvetica,sans-Serif" font-size="11.00">function</text>
<polygon fill="#ffffff" stroke="transparent" points="729,-445 729,-467 1009,-467 1009,-445 729,-445"/>
<polygon fill="none" stroke="black" points="729,-445 729,-467 1009,-467 1009,-445 729,-445"/>
<text text-anchor="start" x="749" y="-453.2" font-family="Helvetica,sans-Serif" font-size="11.00">identifier</text>
<polygon fill="none" stroke="black" points="729,-423 729,-445 1009,-445 1009,-423 729,-423"/>
<image xlink:href="../../images/foreignKeys.png" width="11px" height="12px" preserveAspectRatio="xMinYMin meet" x="734" y="-440"/>
<text text-anchor="start" x="749" y="-431.2" font-family="Helvetica,sans-Serif" font-size="11.00">renovation_necessity</text>
<polygon fill="#ffffff" stroke="transparent" points="729,-401 729,-423 1009,-423 1009,-401 729,-401"/>
<polygon fill="none" stroke="black" points="729,-401 729,-423 1009,-423 1009,-401 729,-401"/>
<text text-anchor="start" x="749" y="-409.2" font-family="Helvetica,sans-Serif" font-size="11.00">situation_geometry</text>
<polygon fill="#ffffff" stroke="transparent" points="729,-379 729,-401 1009,-401 1009,-379 729,-379"/>
<polygon fill="none" stroke="black" points="729,-379 729,-401 1009,-401 1009,-379 729,-379"/>
<image xlink:href="../../images/foreignKeys.png" width="11px" height="12px" preserveAspectRatio="xMinYMin meet" x="734" y="-396"/>
<text text-anchor="start" x="749" y="-387.2" font-family="Helvetica,sans-Serif" font-size="11.00">fk_dataowner</text>
<polygon fill="none" stroke="black" points="729,-357 729,-379 1009,-379 1009,-357 729,-357"/>
<image xlink:href="../../images/foreignKeys.png" width="11px" height="12px" preserveAspectRatio="xMinYMin meet" x="734" y="-374"/>
<text text-anchor="start" x="749" y="-365.2" font-family="Helvetica,sans-Serif" font-size="11.00">fk_provider</text>
<polygon fill="none" stroke="black" points="729,-335 729,-357 1009,-357 1009,-335 729,-335"/>
<image xlink:href="../../images/foreignKeys.png" width="11px" height="12px" preserveAspectRatio="xMinYMin meet" x="734" y="-352"/>
<text text-anchor="start" x="749" y="-343.2" font-family="Helvetica,sans-Serif" font-size="11.00">fk_disposal</text>
<polygon fill="none" stroke="black" points="729,-313 729,-335 1009,-335 1009,-313 729,-313"/>
<image xlink:href="../../images/foreignKeys.png" width="11px" height="12px" preserveAspectRatio="xMinYMin meet" x="734" y="-330"/>
<text text-anchor="start" x="749" y="-321.2" font-family="Helvetica,sans-Serif" font-size="11.00">fk_measure</text>
<polygon fill="none" stroke="black" points="729,-295 729,-313 1009,-313 1009,-295 729,-295"/>
<text text-anchor="start" x="732" y="-301.2" font-family="Helvetica,sans-Serif" font-size="11.00">...</text>
<polygon fill="#ffffff" stroke="transparent" points="729,-277 729,-295 1009,-295 1009,-277 729,-277"/>
<polygon fill="none" stroke="black" points="729,-277 729,-295 1009,-295 1009,-277 729,-277"/>
<polygon fill="#ffffff" stroke="transparent" points="730,-278 730,-294 832,-294 832,-278 730,-278"/>
<text text-anchor="start" x="732" y="-283.2" font-family="Helvetica,sans-Serif" font-size="11.00">&lt; 12</text>
<polygon fill="#ffffff" stroke="transparent" points="832,-278 832,-294 914,-294 914,-278 832,-278"/>
<text text-anchor="start" x="869" y="-283.2" font-family="Helvetica,sans-Serif" font-size="11.00"> &#160;</text>
<polygon fill="#ffffff" stroke="transparent" points="914,-278 914,-294 1008,-294 1008,-278 914,-278"/>
<text text-anchor="start" x="986" y="-283.2" font-family="Helvetica,sans-Serif" font-size="11.00">3 &gt;</text>
<polygon fill="black" stroke="black" points="832,-278 832,-294 832,-294 832,-278 832,-278"/>
<polygon fill="black" stroke="black" points="914,-278 914,-294 914,-294 914,-278 914,-278"/>
</a>
</g>
</g>
<!-- organisation -->
<g id="node2" class="node">
<title>organisation</title>
<g id="a_node2"><a xlink:href="../../tables/organisation.html" xlink:title="organisation" target="_top">
<polygon fill="#ffffff" stroke="transparent" points="39,-37 39,-249 213,-249 213,-37 39,-37"/>
<polygon fill="#f5f5f5" stroke="transparent" points="39,-227 39,-249 213,-249 213,-227 39,-227"/>
<polygon fill="none" stroke="black" points="39,-227 39,-249 213,-249 213,-227 39,-227"/>
<text text-anchor="start" x="44" y="-236.2" font-family="Helvetica,sans-Serif" font-weight="bold" font-size="11.00">organisation</text>
<text text-anchor="start" x="171" y="-235.2" font-family="Helvetica,sans-Serif" font-size="11.00">[table]</text>
<polygon fill="none" stroke="black" points="39,-205 39,-227 213,-227 213,-205 39,-205"/>
<image xlink:href="../../images/primaryKeys.png" width="11px" height="12px" preserveAspectRatio="xMinYMin meet" x="44" y="-222"/>
<text text-anchor="start" x="59" y="-213.2" font-family="Helvetica,sans-Serif" font-size="11.00">obj_id</text>
<polygon fill="#ffffff" stroke="transparent" points="39,-183 39,-205 213,-205 213,-183 39,-183"/>
<polygon fill="none" stroke="black" points="39,-183 39,-205 213,-205 213,-183 39,-183"/>
<text text-anchor="start" x="59" y="-191.2" font-family="Helvetica,sans-Serif" font-size="11.00">identifier</text>
<polygon fill="#ffffff" stroke="transparent" points="39,-161 39,-183 213,-183 213,-161 39,-161"/>
<polygon fill="none" stroke="black" points="39,-161 39,-183 213,-183 213,-161 39,-161"/>
<image xlink:href="../../images/foreignKeys.png" width="11px" height="12px" preserveAspectRatio="xMinYMin meet" x="44" y="-178"/>
<text text-anchor="start" x="59" y="-169.2" font-family="Helvetica,sans-Serif" font-size="11.00">organisation_type</text>
<polygon fill="none" stroke="black" points="39,-139 39,-161 213,-161 213,-139 39,-139"/>
<image xlink:href="../../images/foreignKeys.png" width="11px" height="12px" preserveAspectRatio="xMinYMin meet" x="44" y="-156"/>
<text text-anchor="start" x="59" y="-147.2" font-family="Helvetica,sans-Serif" font-size="11.00">status</text>
<polygon fill="#ffffff" stroke="transparent" points="39,-117 39,-139 213,-139 213,-117 39,-117"/>
<polygon fill="none" stroke="black" points="39,-117 39,-139 213,-139 213,-117 39,-117"/>
<text text-anchor="start" x="59" y="-125.2" font-family="Helvetica,sans-Serif" font-size="11.00">uid</text>
<polygon fill="none" stroke="black" points="39,-95 39,-117 213,-117 213,-95 39,-95"/>
<image xlink:href="../../images/foreignKeys.png" width="11px" height="12px" preserveAspectRatio="xMinYMin meet" x="44" y="-112"/>
<text text-anchor="start" x="59" y="-103.2" font-family="Helvetica,sans-Serif" font-size="11.00">fk_dataowner</text>
<polygon fill="none" stroke="black" points="39,-73 39,-95 213,-95 213,-73 39,-73"/>
<image xlink:href="../../images/foreignKeys.png" width="11px" height="12px" preserveAspectRatio="xMinYMin meet" x="44" y="-90"/>
<text text-anchor="start" x="59" y="-81.2" font-family="Helvetica,sans-Serif" font-size="11.00">fk_provider</text>
<polygon fill="none" stroke="black" points="39,-55 39,-73 213,-73 213,-55 39,-55"/>
<text text-anchor="start" x="42" y="-61.2" font-family="Helvetica,sans-Serif" font-size="11.00">...</text>
<polygon fill="#ffffff" stroke="transparent" points="39,-37 39,-55 213,-55 213,-37 39,-37"/>
<polygon fill="none" stroke="black" points="39,-37 39,-55 213,-55 213,-37 39,-37"/>
<polygon fill="#ffffff" stroke="transparent" points="40,-38 40,-54 97,-54 97,-38 40,-38"/>
<text text-anchor="start" x="42" y="-43.2" font-family="Helvetica,sans-Serif" font-size="11.00">&lt; 4</text>
<polygon fill="#ffffff" stroke="transparent" points="97,-38 97,-54 142,-54 142,-38 97,-38"/>
<text text-anchor="start" x="115.5" y="-43.2" font-family="Helvetica,sans-Serif" font-size="11.00"> &#160;</text>
<polygon fill="#ffffff" stroke="transparent" points="142,-38 142,-54 212,-54 212,-38 142,-38"/>
<text text-anchor="start" x="176" y="-43.2" font-family="Helvetica,sans-Serif" font-size="11.00">101 &gt;</text>
<polygon fill="black" stroke="black" points="97,-38 97,-54 97,-54 97,-38 97,-38"/>
<polygon fill="black" stroke="black" points="142,-38 142,-54 142,-54 142,-38 142,-38"/>
</a>
</g>
</g>
<!-- building_group&#45;&gt;organisation -->
<g id="edge1" class="edge">
<title>building_group:w&#45;&gt;organisation:e</title>
<path fill="none" stroke="black" d="M713.67,-388C667.93,-372.6 740.64,-272.37 688,-230 646.95,-196.96 266.69,-216 214,-216"/>
<polygon fill="black" stroke="black" points="720.08,-388.89 727.5,-393.57 724.04,-389.45 728,-390 728,-390 728,-390 724.04,-389.45 728.5,-386.43 720.08,-388.89 720.08,-388.89"/>
<ellipse fill="none" stroke="black" cx="716.91" cy="-388.45" rx="3.2" ry="3.2"/>
</g>
<!-- building_group&#45;&gt;organisation -->
<g id="edge3" class="edge">
<title>building_group:w&#45;&gt;organisation:e</title>
<path fill="none" stroke="black" d="M713.6,-365.97C667.7,-350.37 741.54,-248.87 688,-207 617.45,-151.83 374.38,-201.36 285,-207 253.26,-209 245.81,-216 214,-216"/>
<polygon fill="black" stroke="black" points="720.08,-366.88 727.5,-371.56 724.04,-367.44 728,-368 728,-368 728,-368 724.04,-367.44 728.5,-364.44 720.08,-366.88 720.08,-366.88"/>
<ellipse fill="none" stroke="black" cx="716.91" cy="-366.44" rx="3.2" ry="3.2"/>
</g>
<!-- measure -->
<g id="node3" class="node">
<title>measure</title>
<g id="a_node3"><a xlink:href="../../tables/measure.html" xlink:title="measure" target="_top">
<polygon fill="#ffffff" stroke="transparent" points="293,-240 293,-746 680,-746 680,-240 293,-240"/>
<polygon fill="#f5f5f5" stroke="transparent" points="295.5,-722 295.5,-744 678.5,-744 678.5,-722 295.5,-722"/>
<polygon fill="none" stroke="black" points="295.5,-722 295.5,-744 678.5,-744 678.5,-722 295.5,-722"/>
<text text-anchor="start" x="300.5" y="-731.2" font-family="Helvetica,sans-Serif" font-weight="bold" font-size="11.00">measure</text>
<text text-anchor="start" x="636.5" y="-730.2" font-family="Helvetica,sans-Serif" font-size="11.00">[table]</text>
<polygon fill="none" stroke="black" points="295.5,-700 295.5,-722 542.5,-722 542.5,-700 295.5,-700"/>
<image xlink:href="../../images/primaryKeys.png" width="11px" height="12px" preserveAspectRatio="xMinYMin meet" x="300.5" y="-717"/>
<text text-anchor="start" x="315.5" y="-708.2" font-family="Helvetica,sans-Serif" font-size="11.00">obj_id</text>
<polygon fill="none" stroke="black" points="542.5,-700 542.5,-722 678.5,-722 678.5,-700 542.5,-700"/>
<text text-anchor="start" x="545.5" y="-708.2" font-family="Helvetica,sans-Serif" font-size="11.00">varchar[16]</text>
<polygon fill="none" stroke="black" points="295.5,-678 295.5,-700 542.5,-700 542.5,-678 295.5,-678"/>
<image xlink:href="../../images/foreignKeys.png" width="11px" height="12px" preserveAspectRatio="xMinYMin meet" x="300.5" y="-695"/>
<text text-anchor="start" x="315.5" y="-686.2" font-family="Helvetica,sans-Serif" font-size="11.00">category</text>
<polygon fill="none" stroke="black" points="542.5,-678 542.5,-700 678.5,-700 678.5,-678 542.5,-678"/>
<text text-anchor="start" x="545.5" y="-686.2" font-family="Helvetica,sans-Serif" font-size="11.00">int4[10]</text>
<polygon fill="none" stroke="black" points="295.5,-656 295.5,-678 542.5,-678 542.5,-656 295.5,-656"/>
<text text-anchor="start" x="315.5" y="-664.2" font-family="Helvetica,sans-Serif" font-size="11.00">date_entry</text>
<polygon fill="none" stroke="black" points="542.5,-656 542.5,-678 678.5,-678 678.5,-656 542.5,-656"/>
<text text-anchor="start" x="545.5" y="-664.2" font-family="Helvetica,sans-Serif" font-size="11.00">timestamp[29,6]</text>
<polygon fill="none" stroke="black" points="295.5,-634 295.5,-656 542.5,-656 542.5,-634 295.5,-634"/>
<text text-anchor="start" x="315.5" y="-642.2" font-family="Helvetica,sans-Serif" font-size="11.00">description</text>
<polygon fill="none" stroke="black" points="542.5,-634 542.5,-656 678.5,-656 678.5,-634 542.5,-634"/>
<text text-anchor="start" x="545.5" y="-642.2" font-family="Helvetica,sans-Serif" font-size="11.00">text[2147483647]</text>
<polygon fill="#ffffff" stroke="transparent" points="295.5,-612 295.5,-634 542.5,-634 542.5,-612 295.5,-612"/>
<polygon fill="none" stroke="black" points="295.5,-612 295.5,-634 542.5,-634 542.5,-612 295.5,-612"/>
<text text-anchor="start" x="315.5" y="-620.2" font-family="Helvetica,sans-Serif" font-size="11.00">identifier</text>
<polygon fill="none" stroke="black" points="542.5,-612 542.5,-634 678.5,-634 678.5,-612 542.5,-612"/>
<text text-anchor="start" x="545.5" y="-620.2" font-family="Helvetica,sans-Serif" font-size="11.00">text[2147483647]</text>
<polygon fill="none" stroke="black" points="295.5,-590 295.5,-612 542.5,-612 542.5,-590 295.5,-590"/>
<text text-anchor="start" x="315.5" y="-598.2" font-family="Helvetica,sans-Serif" font-size="11.00">intervention_demand</text>
<polygon fill="none" stroke="black" points="542.5,-590 542.5,-612 678.5,-612 678.5,-590 542.5,-590"/>
<text text-anchor="start" x="545.5" y="-598.2" font-family="Helvetica,sans-Serif" font-size="11.00">text[2147483647]</text>
<polygon fill="#ffffff" stroke="transparent" points="295.5,-568 295.5,-590 542.5,-590 542.5,-568 295.5,-568"/>
<polygon fill="none" stroke="black" points="295.5,-568 295.5,-590 542.5,-590 542.5,-568 295.5,-568"/>
<text text-anchor="start" x="315.5" y="-576.2" font-family="Helvetica,sans-Serif" font-size="11.00">line_geometry</text>
<polygon fill="none" stroke="black" points="542.5,-568 542.5,-590 678.5,-590 678.5,-568 542.5,-568"/>
<text text-anchor="start" x="545.5" y="-576.2" font-family="Helvetica,sans-Serif" font-size="11.00">geometry[2147483647]</text>
<polygon fill="none" stroke="black" points="295.5,-546 295.5,-568 542.5,-568 542.5,-546 295.5,-546"/>
<text text-anchor="start" x="315.5" y="-554.2" font-family="Helvetica,sans-Serif" font-size="11.00">link</text>
<polygon fill="none" stroke="black" points="542.5,-546 542.5,-568 678.5,-568 678.5,-546 542.5,-546"/>
<text text-anchor="start" x="545.5" y="-554.2" font-family="Helvetica,sans-Serif" font-size="11.00">text[2147483647]</text>
<polygon fill="#ffffff" stroke="transparent" points="295.5,-524 295.5,-546 542.5,-546 542.5,-524 295.5,-524"/>
<polygon fill="none" stroke="black" points="295.5,-524 295.5,-546 542.5,-546 542.5,-524 295.5,-524"/>
<text text-anchor="start" x="315.5" y="-532.2" font-family="Helvetica,sans-Serif" font-size="11.00">perimeter_geometry</text>
<polygon fill="none" stroke="black" points="542.5,-524 542.5,-546 678.5,-546 678.5,-524 542.5,-524"/>
<text text-anchor="start" x="545.5" y="-532.2" font-family="Helvetica,sans-Serif" font-size="11.00">geometry[2147483647]</text>
<polygon fill="none" stroke="black" points="295.5,-502 295.5,-524 542.5,-524 542.5,-502 295.5,-502"/>
<image xlink:href="../../images/foreignKeys.png" width="11px" height="12px" preserveAspectRatio="xMinYMin meet" x="300.5" y="-519"/>
<text text-anchor="start" x="315.5" y="-510.2" font-family="Helvetica,sans-Serif" font-size="11.00">priority</text>
<polygon fill="none" stroke="black" points="542.5,-502 542.5,-524 678.5,-524 678.5,-502 542.5,-502"/>
<text text-anchor="start" x="545.5" y="-510.2" font-family="Helvetica,sans-Serif" font-size="11.00">int4[10]</text>
<polygon fill="none" stroke="black" points="295.5,-480 295.5,-502 542.5,-502 542.5,-480 295.5,-480"/>
<text text-anchor="start" x="315.5" y="-488.2" font-family="Helvetica,sans-Serif" font-size="11.00">remark</text>
<polygon fill="none" stroke="black" points="542.5,-480 542.5,-502 678.5,-502 678.5,-480 542.5,-480"/>
<text text-anchor="start" x="545.5" y="-488.2" font-family="Helvetica,sans-Serif" font-size="11.00">text[2147483647]</text>
<polygon fill="none" stroke="black" points="295.5,-458 295.5,-480 542.5,-480 542.5,-458 295.5,-458"/>
<image xlink:href="../../images/foreignKeys.png" width="11px" height="12px" preserveAspectRatio="xMinYMin meet" x="300.5" y="-475"/>
<text text-anchor="start" x="315.5" y="-466.2" font-family="Helvetica,sans-Serif" font-size="11.00">status</text>
<polygon fill="none" stroke="black" points="542.5,-458 542.5,-480 678.5,-480 678.5,-458 542.5,-458"/>
<text text-anchor="start" x="545.5" y="-466.2" font-family="Helvetica,sans-Serif" font-size="11.00">int4[10]</text>
<polygon fill="#ffffff" stroke="transparent" points="295.5,-436 295.5,-458 542.5,-458 542.5,-436 295.5,-436"/>
<polygon fill="none" stroke="black" points="295.5,-436 295.5,-458 542.5,-458 542.5,-436 295.5,-436"/>
<text text-anchor="start" x="315.5" y="-444.2" font-family="Helvetica,sans-Serif" font-size="11.00">symbolpos_geometry</text>
<polygon fill="none" stroke="black" points="542.5,-436 542.5,-458 678.5,-458 678.5,-436 542.5,-436"/>
<text text-anchor="start" x="545.5" y="-444.2" font-family="Helvetica,sans-Serif" font-size="11.00">geometry[2147483647]</text>
<polygon fill="none" stroke="black" points="295.5,-414 295.5,-436 542.5,-436 542.5,-414 295.5,-414"/>
<text text-anchor="start" x="315.5" y="-422.2" font-family="Helvetica,sans-Serif" font-size="11.00">total_cost</text>
<polygon fill="none" stroke="black" points="542.5,-414 542.5,-436 678.5,-436 678.5,-414 542.5,-414"/>
<text text-anchor="start" x="545.5" y="-422.2" font-family="Helvetica,sans-Serif" font-size="11.00">numeric[10,2]</text>
<polygon fill="none" stroke="black" points="295.5,-392 295.5,-414 542.5,-414 542.5,-392 295.5,-392"/>
<text text-anchor="start" x="315.5" y="-400.2" font-family="Helvetica,sans-Serif" font-size="11.00">year_implementation_effective</text>
<polygon fill="none" stroke="black" points="542.5,-392 542.5,-414 678.5,-414 678.5,-392 542.5,-392"/>
<text text-anchor="start" x="545.5" y="-400.2" font-family="Helvetica,sans-Serif" font-size="11.00">int2[5]</text>
<polygon fill="none" stroke="black" points="295.5,-370 295.5,-392 542.5,-392 542.5,-370 295.5,-370"/>
<text text-anchor="start" x="315.5" y="-378.2" font-family="Helvetica,sans-Serif" font-size="11.00">year_implementation_planned</text>
<polygon fill="none" stroke="black" points="542.5,-370 542.5,-392 678.5,-392 678.5,-370 542.5,-370"/>
<text text-anchor="start" x="545.5" y="-378.2" font-family="Helvetica,sans-Serif" font-size="11.00">int2[5]</text>
<polygon fill="none" stroke="black" points="295.5,-348 295.5,-370 542.5,-370 542.5,-348 295.5,-348"/>
<text text-anchor="start" x="315.5" y="-356.2" font-family="Helvetica,sans-Serif" font-size="11.00">last_modification</text>
<polygon fill="none" stroke="black" points="542.5,-348 542.5,-370 678.5,-370 678.5,-348 542.5,-348"/>
<text text-anchor="start" x="545.5" y="-356.2" font-family="Helvetica,sans-Serif" font-size="11.00">timestamp[29,6]</text>
<polygon fill="#ffffff" stroke="transparent" points="295.5,-326 295.5,-348 542.5,-348 542.5,-326 295.5,-326"/>
<polygon fill="none" stroke="black" points="295.5,-326 295.5,-348 542.5,-348 542.5,-326 295.5,-326"/>
<image xlink:href="../../images/foreignKeys.png" width="11px" height="12px" preserveAspectRatio="xMinYMin meet" x="300.5" y="-343"/>
<text text-anchor="start" x="315.5" y="-334.2" font-family="Helvetica,sans-Serif" font-size="11.00">fk_dataowner</text>
<polygon fill="none" stroke="black" points="542.5,-326 542.5,-348 678.5,-348 678.5,-326 542.5,-326"/>
<text text-anchor="start" x="545.5" y="-334.2" font-family="Helvetica,sans-Serif" font-size="11.00">varchar[16]</text>
<polygon fill="none" stroke="black" points="295.5,-304 295.5,-326 542.5,-326 542.5,-304 295.5,-304"/>
<image xlink:href="../../images/foreignKeys.png" width="11px" height="12px" preserveAspectRatio="xMinYMin meet" x="300.5" y="-321"/>
<text text-anchor="start" x="315.5" y="-312.2" font-family="Helvetica,sans-Serif" font-size="11.00">fk_provider</text>
<polygon fill="none" stroke="black" points="542.5,-304 542.5,-326 678.5,-326 678.5,-304 542.5,-304"/>
<text text-anchor="start" x="545.5" y="-312.2" font-family="Helvetica,sans-Serif" font-size="11.00">varchar[16]</text>
<polygon fill="none" stroke="black" points="295.5,-282 295.5,-304 542.5,-304 542.5,-282 295.5,-282"/>
<image xlink:href="../../images/foreignKeys.png" width="11px" height="12px" preserveAspectRatio="xMinYMin meet" x="300.5" y="-299"/>
<text text-anchor="start" x="315.5" y="-290.2" font-family="Helvetica,sans-Serif" font-size="11.00">fk_responsible_entity</text>
<polygon fill="none" stroke="black" points="542.5,-282 542.5,-304 678.5,-304 678.5,-282 542.5,-282"/>
<text text-anchor="start" x="545.5" y="-290.2" font-family="Helvetica,sans-Serif" font-size="11.00">varchar[16]</text>
<polygon fill="none" stroke="black" points="295.5,-260 295.5,-282 542.5,-282 542.5,-260 295.5,-260"/>
<image xlink:href="../../images/foreignKeys.png" width="11px" height="12px" preserveAspectRatio="xMinYMin meet" x="300.5" y="-277"/>
<text text-anchor="start" x="315.5" y="-268.2" font-family="Helvetica,sans-Serif" font-size="11.00">fk_responsible_start</text>
<polygon fill="none" stroke="black" points="542.5,-260 542.5,-282 678.5,-282 678.5,-260 542.5,-260"/>
<text text-anchor="start" x="545.5" y="-268.2" font-family="Helvetica,sans-Serif" font-size="11.00">varchar[16]</text>
<polygon fill="#ffffff" stroke="transparent" points="295.5,-242 295.5,-260 678.5,-260 678.5,-242 295.5,-242"/>
<polygon fill="none" stroke="black" points="295.5,-242 295.5,-260 678.5,-260 678.5,-242 295.5,-242"/>
<polygon fill="#ffffff" stroke="transparent" points="296.5,-243 296.5,-259 427.5,-259 427.5,-243 296.5,-243"/>
<text text-anchor="start" x="298.5" y="-248.2" font-family="Helvetica,sans-Serif" font-size="11.00">&lt; 7</text>
<polygon fill="#ffffff" stroke="transparent" points="427.5,-243 427.5,-259 546.5,-259 546.5,-243 427.5,-243"/>
<text text-anchor="start" x="483" y="-248.2" font-family="Helvetica,sans-Serif" font-size="11.00"> &#160;</text>
<polygon fill="#ffffff" stroke="transparent" points="546.5,-243 546.5,-259 677.5,-259 677.5,-243 546.5,-243"/>
<text text-anchor="start" x="655.5" y="-248.2" font-family="Helvetica,sans-Serif" font-size="11.00">2 &gt;</text>
<polygon fill="black" stroke="black" points="427.5,-243 427.5,-259 427.5,-259 427.5,-243 427.5,-243"/>
<polygon fill="black" stroke="black" points="546.5,-243 546.5,-259 546.5,-259 546.5,-243 546.5,-243"/>
<polygon fill="none" stroke="black" stroke-width="2" points="294,-241 294,-745 679,-745 679,-241 294,-241"/>
</a>
</g>
</g>
<!-- building_group&#45;&gt;measure -->
<g id="edge2" class="edge">
<title>building_group:w&#45;&gt;measure:e</title>
<path fill="none" stroke="black" d="M714.12,-328.35C656.11,-370.86 760.76,-711 679.5,-711"/>
<polygon fill="black" stroke="black" points="720.37,-326.39 729.08,-327.44 724.18,-325.2 728,-324 728,-324 728,-324 724.18,-325.2 726.92,-320.56 720.37,-326.39 720.37,-326.39"/>
<ellipse fill="none" stroke="black" cx="717.31" cy="-327.35" rx="3.2" ry="3.2"/>
</g>
<!-- measure&#45;&gt;organisation -->
<g id="edge9" class="edge">
<title>measure:w&#45;&gt;organisation:e</title>
<path fill="none" stroke="black" d="M280.21,-334.47C237.44,-317.1 273.04,-216 214,-216"/>
<polygon fill="black" stroke="black" points="286.62,-335.61 293.87,-340.54 290.56,-336.3 294.5,-337 294.5,-337 294.5,-337 290.56,-336.3 295.13,-333.46 286.62,-335.61 286.62,-335.61"/>
<ellipse fill="none" stroke="black" cx="283.47" cy="-335.05" rx="3.2" ry="3.2"/>
</g>
<!-- measure&#45;&gt;organisation -->
<g id="edge10" class="edge">
<title>measure:w&#45;&gt;organisation:e</title>
<path fill="none" stroke="black" d="M280.28,-312.35C243.36,-296.61 265.17,-216 214,-216"/>
<polygon fill="black" stroke="black" points="286.64,-313.54 293.84,-318.54 290.57,-314.27 294.5,-315 294.5,-315 294.5,-315 290.57,-314.27 295.16,-311.46 286.64,-313.54 286.64,-313.54"/>
<ellipse fill="none" stroke="black" cx="283.49" cy="-312.95" rx="3.2" ry="3.2"/>
</g>
<!-- measure&#45;&gt;organisation -->
<g id="edge11" class="edge">
<title>measure:w&#45;&gt;organisation:e</title>
<path fill="none" stroke="black" d="M280.1,-290.26C248.31,-276.54 257.9,-216 214,-216"/>
<polygon fill="black" stroke="black" points="286.64,-291.5 293.83,-296.54 290.57,-292.25 294.5,-293 294.5,-293 294.5,-293 290.57,-292.25 295.17,-289.46 286.64,-291.5 286.64,-291.5"/>
<ellipse fill="none" stroke="black" cx="283.5" cy="-290.91" rx="3.2" ry="3.2"/>
</g>
<!-- measure&#45;&gt;organisation -->
<g id="edge12" class="edge">
<title>measure:w&#45;&gt;organisation:e</title>
<path fill="none" stroke="black" d="M280,-268.49C251.94,-257.73 251.75,-216 214,-216"/>
<polygon fill="black" stroke="black" points="286.62,-269.64 293.89,-274.55 290.56,-270.32 294.5,-271 294.5,-271 294.5,-271 290.56,-270.32 295.11,-267.45 286.62,-269.64 286.62,-269.64"/>
<ellipse fill="none" stroke="black" cx="283.46" cy="-269.09" rx="3.2" ry="3.2"/>
</g>
<!-- tww_vl.measure_category -->
<g id="node5" class="node">
<title>tww_vl.measure_category</title>
<g id="a_node5"><a xlink:href="../../../tww_vl/tables/measure_category.html" xlink:title="tww_vl.measure_category" target="_top">
<polygon fill="#ffffff" stroke="transparent" points="8,-660 8,-718 244,-718 244,-660 8,-660"/>
<polygon fill="#f5f5f5" stroke="transparent" points="8,-696 8,-718 244,-718 244,-696 8,-696"/>
<polygon fill="none" stroke="black" points="8,-696 8,-718 244,-718 244,-696 8,-696"/>
<text text-anchor="start" x="13" y="-705.2" font-family="Helvetica,sans-Serif" font-weight="bold" font-size="11.00">tww_vl.measure_category</text>
<text text-anchor="start" x="202" y="-704.2" font-family="Helvetica,sans-Serif" font-size="11.00">[table]</text>
<polygon fill="none" stroke="black" points="8,-678 8,-696 244,-696 244,-678 8,-678"/>
<text text-anchor="start" x="11" y="-684.2" font-family="Helvetica,sans-Serif" font-size="11.00">...</text>
<polygon fill="#ffffff" stroke="transparent" points="8,-660 8,-678 244,-678 244,-660 8,-660"/>
<polygon fill="none" stroke="black" points="8,-660 8,-678 244,-678 244,-660 8,-660"/>
<polygon fill="#ffffff" stroke="transparent" points="9,-661 9,-677 74,-677 74,-661 9,-661"/>
<text text-anchor="start" x="11" y="-666.2" font-family="Helvetica,sans-Serif" font-size="11.00"> &#160;</text>
<polygon fill="#ffffff" stroke="transparent" points="74,-661 74,-677 167,-677 167,-661 74,-661"/>
<text text-anchor="start" x="102" y="-666.2" font-family="Helvetica,sans-Serif" font-size="11.00">0 rows</text>
<polygon fill="#ffffff" stroke="transparent" points="167,-661 167,-677 243,-677 243,-661 167,-661"/>
<text text-anchor="start" x="221" y="-666.2" font-family="Helvetica,sans-Serif" font-size="11.00">1 &gt;</text>
<polygon fill="black" stroke="black" points="74,-661 74,-677 74,-677 74,-661 74,-661"/>
<polygon fill="black" stroke="black" points="167,-661 167,-677 167,-677 167,-661 167,-661"/>
</a>
</g>
</g>
<!-- measure&#45;&gt;tww_vl.measure_category -->
<g id="edge8" class="edge">
<title>measure:w&#45;&gt;tww_vl.measure_category:e</title>
<path fill="none" stroke="black" d="M279.88,-689C270.79,-689 261.53,-689 252.31,-689"/>
<polygon fill="black" stroke="black" points="286.5,-689 294.5,-692.6 290.5,-689 294.5,-689 294.5,-689 294.5,-689 290.5,-689 294.5,-685.4 286.5,-689 286.5,-689"/>
<ellipse fill="none" stroke="black" cx="283.3" cy="-689" rx="3.2" ry="3.2"/>
</g>
<!-- tww_vl.measure_priority -->
<g id="node6" class="node">
<title>tww_vl.measure_priority</title>
<g id="a_node6"><a xlink:href="../../../tww_vl/tables/measure_priority.html" xlink:title="tww_vl.measure_priority" target="_top">
<polygon fill="#ffffff" stroke="transparent" points="13,-502 13,-560 239,-560 239,-502 13,-502"/>
<polygon fill="#f5f5f5" stroke="transparent" points="13,-538 13,-560 239,-560 239,-538 13,-538"/>
<polygon fill="none" stroke="black" points="13,-538 13,-560 239,-560 239,-538 13,-538"/>
<text text-anchor="start" x="18" y="-547.2" font-family="Helvetica,sans-Serif" font-weight="bold" font-size="11.00">tww_vl.measure_priority</text>
<text text-anchor="start" x="197" y="-546.2" font-family="Helvetica,sans-Serif" font-size="11.00">[table]</text>
<polygon fill="none" stroke="black" points="13,-520 13,-538 239,-538 239,-520 13,-520"/>
<text text-anchor="start" x="16" y="-526.2" font-family="Helvetica,sans-Serif" font-size="11.00">...</text>
<polygon fill="#ffffff" stroke="transparent" points="13,-502 13,-520 239,-520 239,-502 13,-502"/>
<polygon fill="none" stroke="black" points="13,-502 13,-520 239,-520 239,-502 13,-502"/>
<polygon fill="#ffffff" stroke="transparent" points="14,-503 14,-519 75,-519 75,-503 14,-503"/>
<text text-anchor="start" x="16" y="-508.2" font-family="Helvetica,sans-Serif" font-size="11.00"> &#160;</text>
<polygon fill="#ffffff" stroke="transparent" points="75,-503 75,-519 165,-519 165,-503 75,-503"/>
<text text-anchor="start" x="101.5" y="-508.2" font-family="Helvetica,sans-Serif" font-size="11.00">0 rows</text>
<polygon fill="#ffffff" stroke="transparent" points="165,-503 165,-519 238,-519 238,-503 165,-503"/>
<text text-anchor="start" x="216" y="-508.2" font-family="Helvetica,sans-Serif" font-size="11.00">1 &gt;</text>
<polygon fill="black" stroke="black" points="75,-503 75,-519 75,-519 75,-503 75,-503"/>
<polygon fill="black" stroke="black" points="165,-503 165,-519 165,-519 165,-503 165,-503"/>
</a>
</g>
</g>
<!-- measure&#45;&gt;tww_vl.measure_priority -->
<g id="edge13" class="edge">
<title>measure:w&#45;&gt;tww_vl.measure_priority:e</title>
<path fill="none" stroke="black" d="M279.92,-513.21C269.1,-513.52 258.08,-514.13 247.15,-514.96"/>
<polygon fill="black" stroke="black" points="286.5,-513.12 294.55,-516.6 290.5,-513.06 294.5,-513 294.5,-513 294.5,-513 290.5,-513.06 294.45,-509.4 286.5,-513.12 286.5,-513.12"/>
<ellipse fill="none" stroke="black" cx="283.3" cy="-513.16" rx="3.2" ry="3.2"/>
</g>
<!-- tww_vl.measure_status -->
<g id="node7" class="node">
<title>tww_vl.measure_status</title>
<g id="a_node7"><a xlink:href="../../../tww_vl/tables/measure_status.html" xlink:title="tww_vl.measure_status" target="_top">
<polygon fill="#ffffff" stroke="transparent" points="17.5,-423 17.5,-481 234.5,-481 234.5,-423 17.5,-423"/>
<polygon fill="#f5f5f5" stroke="transparent" points="18,-459 18,-481 235,-481 235,-459 18,-459"/>
<polygon fill="none" stroke="black" points="18,-459 18,-481 235,-481 235,-459 18,-459"/>
<text text-anchor="start" x="23" y="-468.2" font-family="Helvetica,sans-Serif" font-weight="bold" font-size="11.00">tww_vl.measure_status</text>
<text text-anchor="start" x="193" y="-467.2" font-family="Helvetica,sans-Serif" font-size="11.00">[table]</text>
<polygon fill="none" stroke="black" points="18,-441 18,-459 235,-459 235,-441 18,-441"/>
<text text-anchor="start" x="21" y="-447.2" font-family="Helvetica,sans-Serif" font-size="11.00">...</text>
<polygon fill="#ffffff" stroke="transparent" points="18,-423 18,-441 235,-441 235,-423 18,-423"/>
<polygon fill="none" stroke="black" points="18,-423 18,-441 235,-441 235,-423 18,-423"/>
<polygon fill="#ffffff" stroke="transparent" points="19,-424 19,-440 77,-440 77,-424 19,-424"/>
<text text-anchor="start" x="21" y="-429.2" font-family="Helvetica,sans-Serif" font-size="11.00"> &#160;</text>
<polygon fill="#ffffff" stroke="transparent" points="77,-424 77,-440 164,-440 164,-424 77,-424"/>
<text text-anchor="start" x="102" y="-429.2" font-family="Helvetica,sans-Serif" font-size="11.00">0 rows</text>
<polygon fill="#ffffff" stroke="transparent" points="164,-424 164,-440 234,-440 234,-424 164,-424"/>
<text text-anchor="start" x="212" y="-429.2" font-family="Helvetica,sans-Serif" font-size="11.00">1 &gt;</text>
<polygon fill="black" stroke="black" points="77,-424 77,-440 77,-440 77,-424 77,-424"/>
<polygon fill="black" stroke="black" points="164,-424 164,-440 164,-440 164,-424 164,-424"/>
</a>
</g>
</g>
<!-- measure&#45;&gt;tww_vl.measure_status -->
<g id="edge14" class="edge">
<title>measure:w&#45;&gt;tww_vl.measure_status:e</title>
<path fill="none" stroke="black" d="M279.73,-468.79C267.49,-468.46 254.97,-467.76 242.63,-466.81"/>
<polygon fill="black" stroke="black" points="286.5,-468.89 294.45,-472.6 290.5,-468.94 294.5,-469 294.5,-469 294.5,-469 290.5,-468.94 294.55,-465.4 286.5,-468.89 286.5,-468.89"/>
<ellipse fill="none" stroke="black" cx="283.3" cy="-468.84" rx="3.2" ry="3.2"/>
</g>
<!-- maintenance_event -->
<g id="node4" class="node">
<title>maintenance_event</title>
<g id="a_node4"><a xlink:href="../../tables/maintenance_event.html" xlink:title="maintenance_event" target="_top">
<polygon fill="#ffffff" stroke="transparent" points="774.5,-44 774.5,-256 963.5,-256 963.5,-44 774.5,-44"/>
<polygon fill="#f5f5f5" stroke="transparent" points="775,-234 775,-256 964,-256 964,-234 775,-234"/>
<polygon fill="none" stroke="black" points="775,-234 775,-256 964,-256 964,-234 775,-234"/>
<text text-anchor="start" x="780" y="-243.2" font-family="Helvetica,sans-Serif" font-weight="bold" font-size="11.00">maintenance_event</text>
<text text-anchor="start" x="922" y="-242.2" font-family="Helvetica,sans-Serif" font-size="11.00">[table]</text>
<polygon fill="none" stroke="black" points="775,-212 775,-234 964,-234 964,-212 775,-212"/>
<image xlink:href="../../images/primaryKeys.png" width="11px" height="12px" preserveAspectRatio="xMinYMin meet" x="780" y="-229"/>
<text text-anchor="start" x="797" y="-220.2" font-family="Helvetica,sans-Serif" font-size="11.00">obj_id</text>
<polygon fill="#ffffff" stroke="transparent" points="775,-190 775,-212 964,-212 964,-190 775,-190"/>
<polygon fill="none" stroke="black" points="775,-190 775,-212 964,-212 964,-190 775,-190"/>
<text text-anchor="start" x="797" y="-198.2" font-family="Helvetica,sans-Serif" font-size="11.00">identifier</text>
<polygon fill="none" stroke="black" points="775,-168 775,-190 964,-190 964,-168 775,-168"/>
<image xlink:href="../../images/foreignKeys.png" width="11px" height="12px" preserveAspectRatio="xMinYMin meet" x="780" y="-185"/>
<text text-anchor="start" x="797" y="-176.2" font-family="Helvetica,sans-Serif" font-size="11.00">status</text>
<polygon fill="#ffffff" stroke="transparent" points="775,-146 775,-168 964,-168 964,-146 775,-146"/>
<polygon fill="none" stroke="black" points="775,-146 775,-168 964,-168 964,-146 775,-146"/>
<image xlink:href="../../images/foreignKeys.png" width="11px" height="12px" preserveAspectRatio="xMinYMin meet" x="780" y="-163"/>
<text text-anchor="start" x="797" y="-154.2" font-family="Helvetica,sans-Serif" font-size="11.00">fk_dataowner</text>
<polygon fill="none" stroke="black" points="775,-124 775,-146 964,-146 964,-124 775,-124"/>
<image xlink:href="../../images/foreignKeys.png" width="11px" height="12px" preserveAspectRatio="xMinYMin meet" x="780" y="-141"/>
<text text-anchor="start" x="797" y="-132.2" font-family="Helvetica,sans-Serif" font-size="11.00">fk_provider</text>
<polygon fill="none" stroke="black" points="775,-102 775,-124 964,-124 964,-102 775,-102"/>
<image xlink:href="../../images/foreignKeys.png" width="11px" height="12px" preserveAspectRatio="xMinYMin meet" x="780" y="-119"/>
<text text-anchor="start" x="797" y="-110.2" font-family="Helvetica,sans-Serif" font-size="11.00">fk_operating_company</text>
<polygon fill="none" stroke="black" points="775,-80 775,-102 964,-102 964,-80 775,-80"/>
<image xlink:href="../../images/foreignKeys.png" width="11px" height="12px" preserveAspectRatio="xMinYMin meet" x="780" y="-97"/>
<text text-anchor="start" x="797" y="-88.2" font-family="Helvetica,sans-Serif" font-size="11.00">fk_measure</text>
<polygon fill="none" stroke="black" points="775,-62 775,-80 964,-80 964,-62 775,-62"/>
<text text-anchor="start" x="778" y="-68.2" font-family="Helvetica,sans-Serif" font-size="11.00">...</text>
<polygon fill="#ffffff" stroke="transparent" points="775,-44 775,-62 964,-62 964,-44 775,-44"/>
<polygon fill="none" stroke="black" points="775,-44 775,-62 964,-62 964,-44 775,-44"/>
<polygon fill="#ffffff" stroke="transparent" points="776,-45 776,-61 843,-61 843,-45 776,-45"/>
<text text-anchor="start" x="778" y="-50.2" font-family="Helvetica,sans-Serif" font-size="11.00">&lt; 5</text>
<polygon fill="#ffffff" stroke="transparent" points="843,-45 843,-61 897,-61 897,-45 843,-45"/>
<text text-anchor="start" x="866" y="-50.2" font-family="Helvetica,sans-Serif" font-size="11.00"> &#160;</text>
<polygon fill="#ffffff" stroke="transparent" points="897,-45 897,-61 963,-61 963,-45 897,-45"/>
<text text-anchor="start" x="941" y="-50.2" font-family="Helvetica,sans-Serif" font-size="11.00">4 &gt;</text>
<polygon fill="black" stroke="black" points="843,-45 843,-61 843,-61 843,-45 843,-45"/>
<polygon fill="black" stroke="black" points="897,-45 897,-61 897,-61 897,-45 897,-45"/>
</a>
</g>
</g>
<!-- maintenance_event&#45;&gt;organisation -->
<g id="edge4" class="edge">
<title>maintenance_event:w&#45;&gt;organisation:e</title>
<path fill="none" stroke="black" d="M759.57,-156.95C553.62,-155.5 490.37,-123.78 285,-179 250.64,-188.24 249.58,-216 214,-216"/>
<polygon fill="black" stroke="black" points="766,-156.97 773.99,-160.6 770,-156.99 774,-157 774,-157 774,-157 770,-156.99 774.01,-153.4 766,-156.97 766,-156.97"/>
<ellipse fill="none" stroke="black" cx="762.8" cy="-156.96" rx="3.2" ry="3.2"/>
</g>
<!-- maintenance_event&#45;&gt;organisation -->
<g id="edge6" class="edge">
<title>maintenance_event:w&#45;&gt;organisation:e</title>
<path fill="none" stroke="black" d="M759.56,-112.87C553.06,-109.24 474.82,-29.44 285,-125 239.18,-148.07 265.3,-216 214,-216"/>
<polygon fill="black" stroke="black" points="766,-112.93 773.97,-116.6 770,-112.96 774,-113 774,-113 774,-113 770,-112.96 774.03,-109.4 766,-112.93 766,-112.93"/>
<ellipse fill="none" stroke="black" cx="762.8" cy="-112.9" rx="3.2" ry="3.2"/>
</g>
<!-- maintenance_event&#45;&gt;organisation -->
<g id="edge7" class="edge">
<title>maintenance_event:w&#45;&gt;organisation:e</title>
<path fill="none" stroke="black" d="M759.43,-134.84C642.09,-132.5 380.89,-105.41 285,-146 244.19,-163.27 258.31,-216 214,-216"/>
<polygon fill="black" stroke="black" points="766,-134.91 773.96,-138.6 770,-134.96 774,-135 774,-135 774,-135 770,-134.96 774.04,-131.4 766,-134.91 766,-134.91"/>
<ellipse fill="none" stroke="black" cx="762.8" cy="-134.88" rx="3.2" ry="3.2"/>
</g>
<!-- maintenance_event&#45;&gt;measure -->
<g id="edge5" class="edge">
<title>maintenance_event:w&#45;&gt;measure:e</title>
<path fill="none" stroke="black" d="M759.34,-92.24C697.93,-103.66 735.62,-192.15 721,-267 711.5,-315.63 729.05,-711 679.5,-711"/>
<polygon fill="black" stroke="black" points="766.03,-91.67 774.3,-94.59 770.01,-91.34 774,-91 774,-91 774,-91 770.01,-91.34 773.7,-87.41 766.03,-91.67 766.03,-91.67"/>
<ellipse fill="none" stroke="black" cx="762.84" cy="-91.94" rx="3.2" ry="3.2"/>
</g>
</g>
</svg>
