<?xml version="1.0" encoding="UTF-8" standalone="no"?>
<!DOCTYPE svg PUBLIC "-//W3C//DTD SVG 1.1//EN"
 "http://www.w3.org/Graphics/SVG/1.1/DTD/svg11.dtd">
<!-- Generated by graphviz version 2.43.0 (0)
 -->
<!-- Title: oneDegreeRelationshipsDiagram Pages: 1 -->
<svg width="1025pt" height="1021pt"
 viewBox="0.00 0.00 1025.00 1021.00" xmlns="http://www.w3.org/2000/svg" xmlns:xlink="http://www.w3.org/1999/xlink">
<g id="graph0" class="graph" transform="scale(1 1) rotate(0) translate(4 1017)">
<title>oneDegreeRelationshipsDiagram</title>
<polygon fill="#ffffff" stroke="transparent" points="-4,4 -4,-1017 1021,-1017 1021,4 -4,4"/>
<text text-anchor="middle" x="79.5" y="-7.2" font-family="Helvetica,sans-Serif" font-size="11.00">Generated by SchemaSpy</text>
<!-- agxx_measure_text -->
<g id="node1" class="node">
<title>agxx_measure_text</title>
<g id="a_node1"><a xlink:href="../../tables/agxx_measure_text.html" xlink:title="agxx_measure_text" target="_top">
<polygon fill="#ffffff" stroke="transparent" points="775.5,-432 775.5,-600 962.5,-600 962.5,-432 775.5,-432"/>
<polygon fill="#f5f5f5" stroke="transparent" points="776,-578 776,-600 963,-600 963,-578 776,-578"/>
<polygon fill="none" stroke="black" points="776,-578 776,-600 963,-600 963,-578 776,-578"/>
<text text-anchor="start" x="781" y="-587.2" font-family="Helvetica,sans-Serif" font-weight="bold" font-size="11.00">agxx_measure_text</text>
<text text-anchor="start" x="921" y="-586.2" font-family="Helvetica,sans-Serif" font-size="11.00">[table]</text>
<polygon fill="none" stroke="black" points="776,-556 776,-578 963,-578 963,-556 776,-556"/>
<image xlink:href="../../images/primaryKeys.png" width="11px" height="12px" preserveAspectRatio="xMinYMin meet" x="781" y="-573"/>
<text text-anchor="start" x="809" y="-564.2" font-family="Helvetica,sans-Serif" font-size="11.00">obj_id</text>
<polygon fill="none" stroke="black" points="776,-534 776,-556 963,-556 963,-534 776,-534"/>
<image xlink:href="../../images/foreignKeys.png" width="11px" height="12px" preserveAspectRatio="xMinYMin meet" x="781" y="-551"/>
<text text-anchor="start" x="809" y="-542.2" font-family="Helvetica,sans-Serif" font-size="11.00">plantype</text>
<polygon fill="none" stroke="black" points="776,-512 776,-534 963,-534 963,-512 776,-512"/>
<image xlink:href="../../images/foreignKeys.png" width="11px" height="12px" preserveAspectRatio="xMinYMin meet" x="781" y="-529"/>
<text text-anchor="start" x="809" y="-520.2" font-family="Helvetica,sans-Serif" font-size="11.00">texthali</text>
<polygon fill="none" stroke="black" points="776,-490 776,-512 963,-512 963,-490 776,-490"/>
<image xlink:href="../../images/foreignKeys.png" width="11px" height="12px" preserveAspectRatio="xMinYMin meet" x="781" y="-507"/>
<text text-anchor="start" x="809" y="-498.2" font-family="Helvetica,sans-Serif" font-size="11.00">textvali</text>
<polygon fill="none" stroke="black" points="776,-468 776,-490 963,-490 963,-468 776,-468"/>
<image xlink:href="../../images/foreignKeys.png" width="11px" height="12px" preserveAspectRatio="xMinYMin meet" x="781" y="-485"/>
<text text-anchor="start" x="809" y="-476.2" font-family="Helvetica,sans-Serif" font-size="11.00">fk_measure</text>
<polygon fill="none" stroke="black" points="776,-450 776,-468 963,-468 963,-450 776,-450"/>
<text text-anchor="start" x="779" y="-456.2" font-family="Helvetica,sans-Serif" font-size="11.00">...</text>
<polygon fill="#ffffff" stroke="transparent" points="776,-432 776,-450 963,-450 963,-432 776,-432"/>
<polygon fill="none" stroke="black" points="776,-432 776,-450 963,-450 963,-432 776,-432"/>
<polygon fill="#ffffff" stroke="transparent" points="777,-433 777,-449 847,-449 847,-433 777,-433"/>
<text text-anchor="start" x="779" y="-438.2" font-family="Helvetica,sans-Serif" font-size="11.00">&lt; 4</text>
<polygon fill="#ffffff" stroke="transparent" points="847,-433 847,-449 905,-449 905,-433 847,-433"/>
<text text-anchor="start" x="872" y="-438.2" font-family="Helvetica,sans-Serif" font-size="11.00"> &#160;</text>
<polygon fill="#ffffff" stroke="transparent" points="905,-433 905,-449 962,-449 962,-433 905,-433"/>
<text text-anchor="start" x="952" y="-438.2" font-family="Helvetica,sans-Serif" font-size="11.00"> &#160;</text>
<polygon fill="black" stroke="black" points="847,-433 847,-449 847,-449 847,-433 847,-433"/>
<polygon fill="black" stroke="black" points="905,-433 905,-449 905,-449 905,-433 905,-433"/>
</a>
</g>
</g>
<!-- measure -->
<g id="node2" class="node">
<title>measure</title>
<g id="a_node2"><a xlink:href="../../tables/measure.html" xlink:title="measure" target="_top">
<polygon fill="#ffffff" stroke="transparent" points="293,-177 293,-683 680,-683 680,-177 293,-177"/>
<polygon fill="#f5f5f5" stroke="transparent" points="295.5,-659 295.5,-681 678.5,-681 678.5,-659 295.5,-659"/>
<polygon fill="none" stroke="black" points="295.5,-659 295.5,-681 678.5,-681 678.5,-659 295.5,-659"/>
<text text-anchor="start" x="300.5" y="-668.2" font-family="Helvetica,sans-Serif" font-weight="bold" font-size="11.00">measure</text>
<text text-anchor="start" x="636.5" y="-667.2" font-family="Helvetica,sans-Serif" font-size="11.00">[table]</text>
<polygon fill="none" stroke="black" points="295.5,-637 295.5,-659 542.5,-659 542.5,-637 295.5,-637"/>
<image xlink:href="../../images/primaryKeys.png" width="11px" height="12px" preserveAspectRatio="xMinYMin meet" x="300.5" y="-654"/>
<text text-anchor="start" x="315.5" y="-645.2" font-family="Helvetica,sans-Serif" font-size="11.00">obj_id</text>
<polygon fill="none" stroke="black" points="542.5,-637 542.5,-659 678.5,-659 678.5,-637 542.5,-637"/>
<text text-anchor="start" x="545.5" y="-645.2" font-family="Helvetica,sans-Serif" font-size="11.00">varchar[16]</text>
<polygon fill="none" stroke="black" points="295.5,-615 295.5,-637 542.5,-637 542.5,-615 295.5,-615"/>
<image xlink:href="../../images/foreignKeys.png" width="11px" height="12px" preserveAspectRatio="xMinYMin meet" x="300.5" y="-632"/>
<text text-anchor="start" x="315.5" y="-623.2" font-family="Helvetica,sans-Serif" font-size="11.00">category</text>
<polygon fill="none" stroke="black" points="542.5,-615 542.5,-637 678.5,-637 678.5,-615 542.5,-615"/>
<text text-anchor="start" x="545.5" y="-623.2" font-family="Helvetica,sans-Serif" font-size="11.00">int4[10]</text>
<polygon fill="none" stroke="black" points="295.5,-593 295.5,-615 542.5,-615 542.5,-593 295.5,-593"/>
<text text-anchor="start" x="315.5" y="-601.2" font-family="Helvetica,sans-Serif" font-size="11.00">date_entry</text>
<polygon fill="none" stroke="black" points="542.5,-593 542.5,-615 678.5,-615 678.5,-593 542.5,-593"/>
<text text-anchor="start" x="545.5" y="-601.2" font-family="Helvetica,sans-Serif" font-size="11.00">timestamp[29,6]</text>
<polygon fill="none" stroke="black" points="295.5,-571 295.5,-593 542.5,-593 542.5,-571 295.5,-571"/>
<text text-anchor="start" x="315.5" y="-579.2" font-family="Helvetica,sans-Serif" font-size="11.00">description</text>
<polygon fill="none" stroke="black" points="542.5,-571 542.5,-593 678.5,-593 678.5,-571 542.5,-571"/>
<text text-anchor="start" x="545.5" y="-579.2" font-family="Helvetica,sans-Serif" font-size="11.00">text[2147483647]</text>
<polygon fill="#ffffff" stroke="transparent" points="295.5,-549 295.5,-571 542.5,-571 542.5,-549 295.5,-549"/>
<polygon fill="none" stroke="black" points="295.5,-549 295.5,-571 542.5,-571 542.5,-549 295.5,-549"/>
<text text-anchor="start" x="315.5" y="-557.2" font-family="Helvetica,sans-Serif" font-size="11.00">identifier</text>
<polygon fill="none" stroke="black" points="542.5,-549 542.5,-571 678.5,-571 678.5,-549 542.5,-549"/>
<text text-anchor="start" x="545.5" y="-557.2" font-family="Helvetica,sans-Serif" font-size="11.00">text[2147483647]</text>
<polygon fill="none" stroke="black" points="295.5,-527 295.5,-549 542.5,-549 542.5,-527 295.5,-527"/>
<text text-anchor="start" x="315.5" y="-535.2" font-family="Helvetica,sans-Serif" font-size="11.00">intervention_demand</text>
<polygon fill="none" stroke="black" points="542.5,-527 542.5,-549 678.5,-549 678.5,-527 542.5,-527"/>
<text text-anchor="start" x="545.5" y="-535.2" font-family="Helvetica,sans-Serif" font-size="11.00">text[2147483647]</text>
<polygon fill="#ffffff" stroke="transparent" points="295.5,-505 295.5,-527 542.5,-527 542.5,-505 295.5,-505"/>
<polygon fill="none" stroke="black" points="295.5,-505 295.5,-527 542.5,-527 542.5,-505 295.5,-505"/>
<text text-anchor="start" x="315.5" y="-513.2" font-family="Helvetica,sans-Serif" font-size="11.00">line_geometry</text>
<polygon fill="none" stroke="black" points="542.5,-505 542.5,-527 678.5,-527 678.5,-505 542.5,-505"/>
<text text-anchor="start" x="545.5" y="-513.2" font-family="Helvetica,sans-Serif" font-size="11.00">geometry[2147483647]</text>
<polygon fill="none" stroke="black" points="295.5,-483 295.5,-505 542.5,-505 542.5,-483 295.5,-483"/>
<text text-anchor="start" x="315.5" y="-491.2" font-family="Helvetica,sans-Serif" font-size="11.00">link</text>
<polygon fill="none" stroke="black" points="542.5,-483 542.5,-505 678.5,-505 678.5,-483 542.5,-483"/>
<text text-anchor="start" x="545.5" y="-491.2" font-family="Helvetica,sans-Serif" font-size="11.00">text[2147483647]</text>
<polygon fill="#ffffff" stroke="transparent" points="295.5,-461 295.5,-483 542.5,-483 542.5,-461 295.5,-461"/>
<polygon fill="none" stroke="black" points="295.5,-461 295.5,-483 542.5,-483 542.5,-461 295.5,-461"/>
<text text-anchor="start" x="315.5" y="-469.2" font-family="Helvetica,sans-Serif" font-size="11.00">perimeter_geometry</text>
<polygon fill="none" stroke="black" points="542.5,-461 542.5,-483 678.5,-483 678.5,-461 542.5,-461"/>
<text text-anchor="start" x="545.5" y="-469.2" font-family="Helvetica,sans-Serif" font-size="11.00">geometry[2147483647]</text>
<polygon fill="none" stroke="black" points="295.5,-439 295.5,-461 542.5,-461 542.5,-439 295.5,-439"/>
<image xlink:href="../../images/foreignKeys.png" width="11px" height="12px" preserveAspectRatio="xMinYMin meet" x="300.5" y="-456"/>
<text text-anchor="start" x="315.5" y="-447.2" font-family="Helvetica,sans-Serif" font-size="11.00">priority</text>
<polygon fill="none" stroke="black" points="542.5,-439 542.5,-461 678.5,-461 678.5,-439 542.5,-439"/>
<text text-anchor="start" x="545.5" y="-447.2" font-family="Helvetica,sans-Serif" font-size="11.00">int4[10]</text>
<polygon fill="none" stroke="black" points="295.5,-417 295.5,-439 542.5,-439 542.5,-417 295.5,-417"/>
<text text-anchor="start" x="315.5" y="-425.2" font-family="Helvetica,sans-Serif" font-size="11.00">remark</text>
<polygon fill="none" stroke="black" points="542.5,-417 542.5,-439 678.5,-439 678.5,-417 542.5,-417"/>
<text text-anchor="start" x="545.5" y="-425.2" font-family="Helvetica,sans-Serif" font-size="11.00">text[2147483647]</text>
<polygon fill="none" stroke="black" points="295.5,-395 295.5,-417 542.5,-417 542.5,-395 295.5,-395"/>
<image xlink:href="../../images/foreignKeys.png" width="11px" height="12px" preserveAspectRatio="xMinYMin meet" x="300.5" y="-412"/>
<text text-anchor="start" x="315.5" y="-403.2" font-family="Helvetica,sans-Serif" font-size="11.00">status</text>
<polygon fill="none" stroke="black" points="542.5,-395 542.5,-417 678.5,-417 678.5,-395 542.5,-395"/>
<text text-anchor="start" x="545.5" y="-403.2" font-family="Helvetica,sans-Serif" font-size="11.00">int4[10]</text>
<polygon fill="#ffffff" stroke="transparent" points="295.5,-373 295.5,-395 542.5,-395 542.5,-373 295.5,-373"/>
<polygon fill="none" stroke="black" points="295.5,-373 295.5,-395 542.5,-395 542.5,-373 295.5,-373"/>
<text text-anchor="start" x="315.5" y="-381.2" font-family="Helvetica,sans-Serif" font-size="11.00">symbolpos_geometry</text>
<polygon fill="none" stroke="black" points="542.5,-373 542.5,-395 678.5,-395 678.5,-373 542.5,-373"/>
<text text-anchor="start" x="545.5" y="-381.2" font-family="Helvetica,sans-Serif" font-size="11.00">geometry[2147483647]</text>
<polygon fill="none" stroke="black" points="295.5,-351 295.5,-373 542.5,-373 542.5,-351 295.5,-351"/>
<text text-anchor="start" x="315.5" y="-359.2" font-family="Helvetica,sans-Serif" font-size="11.00">total_cost</text>
<polygon fill="none" stroke="black" points="542.5,-351 542.5,-373 678.5,-373 678.5,-351 542.5,-351"/>
<text text-anchor="start" x="545.5" y="-359.2" font-family="Helvetica,sans-Serif" font-size="11.00">numeric[10,2]</text>
<polygon fill="none" stroke="black" points="295.5,-329 295.5,-351 542.5,-351 542.5,-329 295.5,-329"/>
<text text-anchor="start" x="315.5" y="-337.2" font-family="Helvetica,sans-Serif" font-size="11.00">year_implementation_effective</text>
<polygon fill="none" stroke="black" points="542.5,-329 542.5,-351 678.5,-351 678.5,-329 542.5,-329"/>
<text text-anchor="start" x="545.5" y="-337.2" font-family="Helvetica,sans-Serif" font-size="11.00">int2[5]</text>
<polygon fill="none" stroke="black" points="295.5,-307 295.5,-329 542.5,-329 542.5,-307 295.5,-307"/>
<text text-anchor="start" x="315.5" y="-315.2" font-family="Helvetica,sans-Serif" font-size="11.00">year_implementation_planned</text>
<polygon fill="none" stroke="black" points="542.5,-307 542.5,-329 678.5,-329 678.5,-307 542.5,-307"/>
<text text-anchor="start" x="545.5" y="-315.2" font-family="Helvetica,sans-Serif" font-size="11.00">int2[5]</text>
<polygon fill="none" stroke="black" points="295.5,-285 295.5,-307 542.5,-307 542.5,-285 295.5,-285"/>
<text text-anchor="start" x="315.5" y="-293.2" font-family="Helvetica,sans-Serif" font-size="11.00">last_modification</text>
<polygon fill="none" stroke="black" points="542.5,-285 542.5,-307 678.5,-307 678.5,-285 542.5,-285"/>
<text text-anchor="start" x="545.5" y="-293.2" font-family="Helvetica,sans-Serif" font-size="11.00">timestamp[29,6]</text>
<polygon fill="#ffffff" stroke="transparent" points="295.5,-263 295.5,-285 542.5,-285 542.5,-263 295.5,-263"/>
<polygon fill="none" stroke="black" points="295.5,-263 295.5,-285 542.5,-285 542.5,-263 295.5,-263"/>
<image xlink:href="../../images/foreignKeys.png" width="11px" height="12px" preserveAspectRatio="xMinYMin meet" x="300.5" y="-280"/>
<text text-anchor="start" x="315.5" y="-271.2" font-family="Helvetica,sans-Serif" font-size="11.00">fk_dataowner</text>
<polygon fill="none" stroke="black" points="542.5,-263 542.5,-285 678.5,-285 678.5,-263 542.5,-263"/>
<text text-anchor="start" x="545.5" y="-271.2" font-family="Helvetica,sans-Serif" font-size="11.00">varchar[16]</text>
<polygon fill="none" stroke="black" points="295.5,-241 295.5,-263 542.5,-263 542.5,-241 295.5,-241"/>
<image xlink:href="../../images/foreignKeys.png" width="11px" height="12px" preserveAspectRatio="xMinYMin meet" x="300.5" y="-258"/>
<text text-anchor="start" x="315.5" y="-249.2" font-family="Helvetica,sans-Serif" font-size="11.00">fk_provider</text>
<polygon fill="none" stroke="black" points="542.5,-241 542.5,-263 678.5,-263 678.5,-241 542.5,-241"/>
<text text-anchor="start" x="545.5" y="-249.2" font-family="Helvetica,sans-Serif" font-size="11.00">varchar[16]</text>
<polygon fill="none" stroke="black" points="295.5,-219 295.5,-241 542.5,-241 542.5,-219 295.5,-219"/>
<image xlink:href="../../images/foreignKeys.png" width="11px" height="12px" preserveAspectRatio="xMinYMin meet" x="300.5" y="-236"/>
<text text-anchor="start" x="315.5" y="-227.2" font-family="Helvetica,sans-Serif" font-size="11.00">fk_responsible_entity</text>
<polygon fill="none" stroke="black" points="542.5,-219 542.5,-241 678.5,-241 678.5,-219 542.5,-219"/>
<text text-anchor="start" x="545.5" y="-227.2" font-family="Helvetica,sans-Serif" font-size="11.00">varchar[16]</text>
<polygon fill="none" stroke="black" points="295.5,-197 295.5,-219 542.5,-219 542.5,-197 295.5,-197"/>
<image xlink:href="../../images/foreignKeys.png" width="11px" height="12px" preserveAspectRatio="xMinYMin meet" x="300.5" y="-214"/>
<text text-anchor="start" x="315.5" y="-205.2" font-family="Helvetica,sans-Serif" font-size="11.00">fk_responsible_start</text>
<polygon fill="none" stroke="black" points="542.5,-197 542.5,-219 678.5,-219 678.5,-197 542.5,-197"/>
<text text-anchor="start" x="545.5" y="-205.2" font-family="Helvetica,sans-Serif" font-size="11.00">varchar[16]</text>
<polygon fill="#ffffff" stroke="transparent" points="295.5,-179 295.5,-197 678.5,-197 678.5,-179 295.5,-179"/>
<polygon fill="none" stroke="black" points="295.5,-179 295.5,-197 678.5,-197 678.5,-179 295.5,-179"/>
<polygon fill="#ffffff" stroke="transparent" points="296.5,-180 296.5,-196 427.5,-196 427.5,-180 296.5,-180"/>
<text text-anchor="start" x="298.5" y="-185.2" font-family="Helvetica,sans-Serif" font-size="11.00">&lt; 7</text>
<polygon fill="#ffffff" stroke="transparent" points="427.5,-180 427.5,-196 546.5,-196 546.5,-180 427.5,-180"/>
<text text-anchor="start" x="483" y="-185.2" font-family="Helvetica,sans-Serif" font-size="11.00"> &#160;</text>
<polygon fill="#ffffff" stroke="transparent" points="546.5,-180 546.5,-196 677.5,-196 677.5,-180 546.5,-180"/>
<text text-anchor="start" x="655.5" y="-185.2" font-family="Helvetica,sans-Serif" font-size="11.00">4 &gt;</text>
<polygon fill="black" stroke="black" points="427.5,-180 427.5,-196 427.5,-196 427.5,-180 427.5,-180"/>
<polygon fill="black" stroke="black" points="546.5,-180 546.5,-196 546.5,-196 546.5,-180 546.5,-180"/>
<polygon fill="none" stroke="black" stroke-width="2" points="294,-178 294,-682 679,-682 679,-178 294,-178"/>
</a>
</g>
</g>
<!-- agxx_measure_text&#45;&gt;measure -->
<g id="edge1" class="edge">
<title>agxx_measure_text:w&#45;&gt;measure:e</title>
<path fill="none" stroke="black" d="M761.55,-485.01C729.34,-515.12 717.75,-648 679.5,-648"/>
<polygon fill="black" stroke="black" points="767.7,-482.27 776.47,-482.29 771.35,-480.63 775,-479 775,-479 775,-479 771.35,-480.63 773.53,-475.71 767.7,-482.27 767.7,-482.27"/>
<ellipse fill="none" stroke="black" cx="764.78" cy="-483.57" rx="3.2" ry="3.2"/>
</g>
<!-- organisation -->
<g id="node5" class="node">
<title>organisation</title>
<g id="a_node5"><a xlink:href="../../tables/organisation.html" xlink:title="organisation" target="_top">
<polygon fill="#ffffff" stroke="transparent" points="39,-51 39,-263 213,-263 213,-51 39,-51"/>
<polygon fill="#f5f5f5" stroke="transparent" points="39,-241 39,-263 213,-263 213,-241 39,-241"/>
<polygon fill="none" stroke="black" points="39,-241 39,-263 213,-263 213,-241 39,-241"/>
<text text-anchor="start" x="44" y="-250.2" font-family="Helvetica,sans-Serif" font-weight="bold" font-size="11.00">organisation</text>
<text text-anchor="start" x="171" y="-249.2" font-family="Helvetica,sans-Serif" font-size="11.00">[table]</text>
<polygon fill="none" stroke="black" points="39,-219 39,-241 213,-241 213,-219 39,-219"/>
<image xlink:href="../../images/primaryKeys.png" width="11px" height="12px" preserveAspectRatio="xMinYMin meet" x="44" y="-236"/>
<text text-anchor="start" x="59" y="-227.2" font-family="Helvetica,sans-Serif" font-size="11.00">obj_id</text>
<polygon fill="#ffffff" stroke="transparent" points="39,-197 39,-219 213,-219 213,-197 39,-197"/>
<polygon fill="none" stroke="black" points="39,-197 39,-219 213,-219 213,-197 39,-197"/>
<text text-anchor="start" x="59" y="-205.2" font-family="Helvetica,sans-Serif" font-size="11.00">identifier</text>
<polygon fill="#ffffff" stroke="transparent" points="39,-175 39,-197 213,-197 213,-175 39,-175"/>
<polygon fill="none" stroke="black" points="39,-175 39,-197 213,-197 213,-175 39,-175"/>
<image xlink:href="../../images/foreignKeys.png" width="11px" height="12px" preserveAspectRatio="xMinYMin meet" x="44" y="-192"/>
<text text-anchor="start" x="59" y="-183.2" font-family="Helvetica,sans-Serif" font-size="11.00">organisation_type</text>
<polygon fill="none" stroke="black" points="39,-153 39,-175 213,-175 213,-153 39,-153"/>
<image xlink:href="../../images/foreignKeys.png" width="11px" height="12px" preserveAspectRatio="xMinYMin meet" x="44" y="-170"/>
<text text-anchor="start" x="59" y="-161.2" font-family="Helvetica,sans-Serif" font-size="11.00">status</text>
<polygon fill="#ffffff" stroke="transparent" points="39,-131 39,-153 213,-153 213,-131 39,-131"/>
<polygon fill="none" stroke="black" points="39,-131 39,-153 213,-153 213,-131 39,-131"/>
<text text-anchor="start" x="59" y="-139.2" font-family="Helvetica,sans-Serif" font-size="11.00">uid</text>
<polygon fill="none" stroke="black" points="39,-109 39,-131 213,-131 213,-109 39,-109"/>
<image xlink:href="../../images/foreignKeys.png" width="11px" height="12px" preserveAspectRatio="xMinYMin meet" x="44" y="-126"/>
<text text-anchor="start" x="59" y="-117.2" font-family="Helvetica,sans-Serif" font-size="11.00">fk_dataowner</text>
<polygon fill="none" stroke="black" points="39,-87 39,-109 213,-109 213,-87 39,-87"/>
<image xlink:href="../../images/foreignKeys.png" width="11px" height="12px" preserveAspectRatio="xMinYMin meet" x="44" y="-104"/>
<text text-anchor="start" x="59" y="-95.2" font-family="Helvetica,sans-Serif" font-size="11.00">fk_provider</text>
<polygon fill="none" stroke="black" points="39,-69 39,-87 213,-87 213,-69 39,-69"/>
<text text-anchor="start" x="42" y="-75.2" font-family="Helvetica,sans-Serif" font-size="11.00">...</text>
<polygon fill="#ffffff" stroke="transparent" points="39,-51 39,-69 213,-69 213,-51 39,-51"/>
<polygon fill="none" stroke="black" points="39,-51 39,-69 213,-69 213,-51 39,-51"/>
<polygon fill="#ffffff" stroke="transparent" points="40,-52 40,-68 97,-68 97,-52 40,-52"/>
<text text-anchor="start" x="42" y="-57.2" font-family="Helvetica,sans-Serif" font-size="11.00">&lt; 4</text>
<polygon fill="#ffffff" stroke="transparent" points="97,-52 97,-68 142,-68 142,-52 97,-52"/>
<text text-anchor="start" x="115.5" y="-57.2" font-family="Helvetica,sans-Serif" font-size="11.00"> &#160;</text>
<polygon fill="#ffffff" stroke="transparent" points="142,-52 142,-68 212,-68 212,-52 142,-52"/>
<text text-anchor="start" x="176" y="-57.2" font-family="Helvetica,sans-Serif" font-size="11.00">105 &gt;</text>
<polygon fill="black" stroke="black" points="97,-52 97,-68 97,-68 97,-52 97,-52"/>
<polygon fill="black" stroke="black" points="142,-52 142,-68 142,-68 142,-52 142,-52"/>
</a>
</g>
</g>
<!-- measure&#45;&gt;organisation -->
<g id="edge11" class="edge">
<title>measure:w&#45;&gt;organisation:e</title>
<path fill="none" stroke="black" d="M279.91,-271.76C253.23,-262.79 249.2,-230 214,-230"/>
<polygon fill="black" stroke="black" points="286.59,-272.78 293.95,-277.56 290.55,-273.39 294.5,-274 294.5,-274 294.5,-274 290.55,-273.39 295.05,-270.44 286.59,-272.78 286.59,-272.78"/>
<ellipse fill="none" stroke="black" cx="283.43" cy="-272.3" rx="3.2" ry="3.2"/>
</g>
<!-- measure&#45;&gt;organisation -->
<g id="edge12" class="edge">
<title>measure:w&#45;&gt;organisation:e</title>
<path fill="none" stroke="black" d="M279.82,-250.69C254.86,-245.95 245.58,-230 214,-230"/>
<polygon fill="black" stroke="black" points="286.53,-251.29 294.18,-255.59 290.52,-251.64 294.5,-252 294.5,-252 294.5,-252 290.52,-251.64 294.82,-248.41 286.53,-251.29 286.53,-251.29"/>
<ellipse fill="none" stroke="black" cx="283.34" cy="-251" rx="3.2" ry="3.2"/>
</g>
<!-- measure&#45;&gt;organisation -->
<g id="edge13" class="edge">
<title>measure:w&#45;&gt;organisation:e</title>
<path fill="none" stroke="black" d="M279.83,-230C255.37,-230 244.33,-230 214,-230"/>
<polygon fill="black" stroke="black" points="286.5,-230 294.5,-233.6 290.5,-230 294.5,-230 294.5,-230 294.5,-230 290.5,-230 294.5,-226.4 286.5,-230 286.5,-230"/>
<ellipse fill="none" stroke="black" cx="283.3" cy="-230" rx="3.2" ry="3.2"/>
</g>
<!-- measure&#45;&gt;organisation -->
<g id="edge14" class="edge">
<title>measure:w&#45;&gt;organisation:e</title>
<path fill="none" stroke="black" d="M279.82,-209.31C254.86,-214.05 245.58,-230 214,-230"/>
<polygon fill="black" stroke="black" points="286.53,-208.71 294.82,-211.59 290.52,-208.36 294.5,-208 294.5,-208 294.5,-208 290.52,-208.36 294.18,-204.41 286.53,-208.71 286.53,-208.71"/>
<ellipse fill="none" stroke="black" cx="283.34" cy="-209" rx="3.2" ry="3.2"/>
</g>
<!-- tww_vl.measure_category -->
<g id="node7" class="node">
<title>tww_vl.measure_category</title>
<g id="a_node7"><a xlink:href="../../../tww_vl/tables/measure_category.html" xlink:title="tww_vl.measure_category" target="_top">
<polygon fill="#ffffff" stroke="transparent" points="8,-597 8,-655 244,-655 244,-597 8,-597"/>
<polygon fill="#f5f5f5" stroke="transparent" points="8,-633 8,-655 244,-655 244,-633 8,-633"/>
<polygon fill="none" stroke="black" points="8,-633 8,-655 244,-655 244,-633 8,-633"/>
<text text-anchor="start" x="13" y="-642.2" font-family="Helvetica,sans-Serif" font-weight="bold" font-size="11.00">tww_vl.measure_category</text>
<text text-anchor="start" x="202" y="-641.2" font-family="Helvetica,sans-Serif" font-size="11.00">[table]</text>
<polygon fill="none" stroke="black" points="8,-615 8,-633 244,-633 244,-615 8,-615"/>
<text text-anchor="start" x="11" y="-621.2" font-family="Helvetica,sans-Serif" font-size="11.00">...</text>
<polygon fill="#ffffff" stroke="transparent" points="8,-597 8,-615 244,-615 244,-597 8,-597"/>
<polygon fill="none" stroke="black" points="8,-597 8,-615 244,-615 244,-597 8,-597"/>
<polygon fill="#ffffff" stroke="transparent" points="9,-598 9,-614 74,-614 74,-598 9,-598"/>
<text text-anchor="start" x="11" y="-603.2" font-family="Helvetica,sans-Serif" font-size="11.00"> &#160;</text>
<polygon fill="#ffffff" stroke="transparent" points="74,-598 74,-614 167,-614 167,-598 74,-598"/>
<text text-anchor="start" x="102" y="-603.2" font-family="Helvetica,sans-Serif" font-size="11.00">0 rows</text>
<polygon fill="#ffffff" stroke="transparent" points="167,-598 167,-614 243,-614 243,-598 167,-598"/>
<text text-anchor="start" x="221" y="-603.2" font-family="Helvetica,sans-Serif" font-size="11.00">1 &gt;</text>
<polygon fill="black" stroke="black" points="74,-598 74,-614 74,-614 74,-598 74,-598"/>
<polygon fill="black" stroke="black" points="167,-598 167,-614 167,-614 167,-598 167,-598"/>
</a>
</g>
</g>
<!-- measure&#45;&gt;tww_vl.measure_category -->
<g id="edge10" class="edge">
<title>measure:w&#45;&gt;tww_vl.measure_category:e</title>
<path fill="none" stroke="black" d="M279.88,-626C270.79,-626 261.53,-626 252.31,-626"/>
<polygon fill="black" stroke="black" points="286.5,-626 294.5,-629.6 290.5,-626 294.5,-626 294.5,-626 294.5,-626 290.5,-626 294.5,-622.4 286.5,-626 286.5,-626"/>
<ellipse fill="none" stroke="black" cx="283.3" cy="-626" rx="3.2" ry="3.2"/>
</g>
<!-- tww_vl.measure_priority -->
<g id="node8" class="node">
<title>tww_vl.measure_priority</title>
<g id="a_node8"><a xlink:href="../../../tww_vl/tables/measure_priority.html" xlink:title="tww_vl.measure_priority" target="_top">
<polygon fill="#ffffff" stroke="transparent" points="13,-439 13,-497 239,-497 239,-439 13,-439"/>
<polygon fill="#f5f5f5" stroke="transparent" points="13,-475 13,-497 239,-497 239,-475 13,-475"/>
<polygon fill="none" stroke="black" points="13,-475 13,-497 239,-497 239,-475 13,-475"/>
<text text-anchor="start" x="18" y="-484.2" font-family="Helvetica,sans-Serif" font-weight="bold" font-size="11.00">tww_vl.measure_priority</text>
<text text-anchor="start" x="197" y="-483.2" font-family="Helvetica,sans-Serif" font-size="11.00">[table]</text>
<polygon fill="none" stroke="black" points="13,-457 13,-475 239,-475 239,-457 13,-457"/>
<text text-anchor="start" x="16" y="-463.2" font-family="Helvetica,sans-Serif" font-size="11.00">...</text>
<polygon fill="#ffffff" stroke="transparent" points="13,-439 13,-457 239,-457 239,-439 13,-439"/>
<polygon fill="none" stroke="black" points="13,-439 13,-457 239,-457 239,-439 13,-439"/>
<polygon fill="#ffffff" stroke="transparent" points="14,-440 14,-456 75,-456 75,-440 14,-440"/>
<text text-anchor="start" x="16" y="-445.2" font-family="Helvetica,sans-Serif" font-size="11.00"> &#160;</text>
<polygon fill="#ffffff" stroke="transparent" points="75,-440 75,-456 165,-456 165,-440 75,-440"/>
<text text-anchor="start" x="101.5" y="-445.2" font-family="Helvetica,sans-Serif" font-size="11.00">0 rows</text>
<polygon fill="#ffffff" stroke="transparent" points="165,-440 165,-456 238,-456 238,-440 165,-440"/>
<text text-anchor="start" x="216" y="-445.2" font-family="Helvetica,sans-Serif" font-size="11.00">1 &gt;</text>
<polygon fill="black" stroke="black" points="75,-440 75,-456 75,-456 75,-440 75,-440"/>
<polygon fill="black" stroke="black" points="165,-440 165,-456 165,-456 165,-440 165,-440"/>
</a>
</g>
</g>
<!-- measure&#45;&gt;tww_vl.measure_priority -->
<g id="edge15" class="edge">
<title>measure:w&#45;&gt;tww_vl.measure_priority:e</title>
<path fill="none" stroke="black" d="M279.92,-450.21C269.1,-450.52 258.08,-451.13 247.15,-451.96"/>
<polygon fill="black" stroke="black" points="286.5,-450.12 294.55,-453.6 290.5,-450.06 294.5,-450 294.5,-450 294.5,-450 290.5,-450.06 294.45,-446.4 286.5,-450.12 286.5,-450.12"/>
<ellipse fill="none" stroke="black" cx="283.3" cy="-450.16" rx="3.2" ry="3.2"/>
</g>
<!-- tww_vl.measure_status -->
<g id="node9" class="node">
<title>tww_vl.measure_status</title>
<g id="a_node9"><a xlink:href="../../../tww_vl/tables/measure_status.html" xlink:title="tww_vl.measure_status" target="_top">
<polygon fill="#ffffff" stroke="transparent" points="17.5,-360 17.5,-418 234.5,-418 234.5,-360 17.5,-360"/>
<polygon fill="#f5f5f5" stroke="transparent" points="18,-396 18,-418 235,-418 235,-396 18,-396"/>
<polygon fill="none" stroke="black" points="18,-396 18,-418 235,-418 235,-396 18,-396"/>
<text text-anchor="start" x="23" y="-405.2" font-family="Helvetica,sans-Serif" font-weight="bold" font-size="11.00">tww_vl.measure_status</text>
<text text-anchor="start" x="193" y="-404.2" font-family="Helvetica,sans-Serif" font-size="11.00">[table]</text>
<polygon fill="none" stroke="black" points="18,-378 18,-396 235,-396 235,-378 18,-378"/>
<text text-anchor="start" x="21" y="-384.2" font-family="Helvetica,sans-Serif" font-size="11.00">...</text>
<polygon fill="#ffffff" stroke="transparent" points="18,-360 18,-378 235,-378 235,-360 18,-360"/>
<polygon fill="none" stroke="black" points="18,-360 18,-378 235,-378 235,-360 18,-360"/>
<polygon fill="#ffffff" stroke="transparent" points="19,-361 19,-377 77,-377 77,-361 19,-361"/>
<text text-anchor="start" x="21" y="-366.2" font-family="Helvetica,sans-Serif" font-size="11.00"> &#160;</text>
<polygon fill="#ffffff" stroke="transparent" points="77,-361 77,-377 164,-377 164,-361 77,-361"/>
<text text-anchor="start" x="102" y="-366.2" font-family="Helvetica,sans-Serif" font-size="11.00">0 rows</text>
<polygon fill="#ffffff" stroke="transparent" points="164,-361 164,-377 234,-377 234,-361 164,-361"/>
<text text-anchor="start" x="212" y="-366.2" font-family="Helvetica,sans-Serif" font-size="11.00">1 &gt;</text>
<polygon fill="black" stroke="black" points="77,-361 77,-377 77,-377 77,-361 77,-361"/>
<polygon fill="black" stroke="black" points="164,-361 164,-377 164,-377 164,-361 164,-361"/>
</a>
</g>
</g>
<!-- measure&#45;&gt;tww_vl.measure_status -->
<g id="edge16" class="edge">
<title>measure:w&#45;&gt;tww_vl.measure_status:e</title>
<path fill="none" stroke="black" d="M279.73,-405.79C267.49,-405.46 254.97,-404.76 242.63,-403.81"/>
<polygon fill="black" stroke="black" points="286.5,-405.89 294.45,-409.6 290.5,-405.94 294.5,-406 294.5,-406 294.5,-406 290.5,-405.94 294.55,-402.4 286.5,-405.89 286.5,-405.89"/>
<ellipse fill="none" stroke="black" cx="283.3" cy="-405.84" rx="3.2" ry="3.2"/>
</g>
<!-- agxx_wastewater_structure -->
<g id="node3" class="node">
<title>agxx_wastewater_structure</title>
<g id="a_node3"><a xlink:href="../../tables/agxx_wastewater_structure.html" xlink:title="agxx_wastewater_structure" target="_top">
<polygon fill="#ffffff" stroke="transparent" points="745,-305 745,-411 993,-411 993,-305 745,-305"/>
<polygon fill="#f5f5f5" stroke="transparent" points="745,-389 745,-411 993,-411 993,-389 745,-389"/>
<polygon fill="none" stroke="black" points="745,-389 745,-411 993,-411 993,-389 745,-389"/>
<text text-anchor="start" x="750" y="-398.2" font-family="Helvetica,sans-Serif" font-weight="bold" font-size="11.00">agxx_wastewater_structure</text>
<text text-anchor="start" x="951" y="-397.2" font-family="Helvetica,sans-Serif" font-size="11.00">[table]</text>
<polygon fill="none" stroke="black" points="745,-367 745,-389 993,-389 993,-367 745,-367"/>
<image xlink:href="../../images/primaryKeys.png" width="11px" height="12px" preserveAspectRatio="xMinYMin meet" x="750" y="-384"/>
<text text-anchor="start" x="778" y="-375.2" font-family="Helvetica,sans-Serif" font-size="11.00">uuid</text>
<polygon fill="none" stroke="black" points="745,-345 745,-367 993,-367 993,-345 745,-345"/>
<image xlink:href="../../images/foreignKeys.png" width="11px" height="12px" preserveAspectRatio="xMinYMin meet" x="750" y="-362"/>
<text text-anchor="start" x="778" y="-353.2" font-family="Helvetica,sans-Serif" font-size="11.00">fk_wastewater_structure</text>
<polygon fill="none" stroke="black" points="745,-323 745,-345 993,-345 993,-323 745,-323"/>
<image xlink:href="../../images/foreignKeys.png" width="11px" height="12px" preserveAspectRatio="xMinYMin meet" x="750" y="-340"/>
<text text-anchor="start" x="778" y="-331.2" font-family="Helvetica,sans-Serif" font-size="11.00">ag96_fk_measure</text>
<polygon fill="#ffffff" stroke="transparent" points="745,-305 745,-323 993,-323 993,-305 745,-305"/>
<polygon fill="none" stroke="black" points="745,-305 745,-323 993,-323 993,-305 745,-305"/>
<polygon fill="#ffffff" stroke="transparent" points="746,-306 746,-322 836,-322 836,-306 746,-306"/>
<text text-anchor="start" x="748" y="-311.2" font-family="Helvetica,sans-Serif" font-size="11.00">&lt; 2</text>
<polygon fill="#ffffff" stroke="transparent" points="836,-306 836,-322 914,-322 914,-306 836,-306"/>
<text text-anchor="start" x="871" y="-311.2" font-family="Helvetica,sans-Serif" font-size="11.00"> &#160;</text>
<polygon fill="#ffffff" stroke="transparent" points="914,-306 914,-322 992,-322 992,-306 914,-306"/>
<text text-anchor="start" x="982" y="-311.2" font-family="Helvetica,sans-Serif" font-size="11.00"> &#160;</text>
<polygon fill="black" stroke="black" points="836,-306 836,-322 836,-322 836,-306 836,-306"/>
<polygon fill="black" stroke="black" points="914,-306 914,-322 914,-322 914,-306 914,-306"/>
</a>
</g>
</g>
<!-- agxx_wastewater_structure&#45;&gt;measure -->
<g id="edge2" class="edge">
<title>agxx_wastewater_structure:w&#45;&gt;measure:e</title>
<path fill="none" stroke="black" d="M730.19,-339.19C683.78,-380.01 745.31,-648 679.5,-648"/>
<polygon fill="black" stroke="black" points="736.51,-336.81 745.27,-337.37 740.26,-335.41 744,-334 744,-334 744,-334 740.26,-335.41 742.73,-330.63 736.51,-336.81 736.51,-336.81"/>
<ellipse fill="none" stroke="black" cx="733.52" cy="-337.94" rx="3.2" ry="3.2"/>
</g>
<!-- building_group -->
<g id="node4" class="node">
<title>building_group</title>
<g id="a_node4"><a xlink:href="../../tables/building_group.html" xlink:title="building_group" target="_top">
<polygon fill="#ffffff" stroke="transparent" points="729,-621 729,-1009 1009,-1009 1009,-621 729,-621"/>
<polygon fill="#f5f5f5" stroke="transparent" points="729,-987 729,-1009 1009,-1009 1009,-987 729,-987"/>
<polygon fill="none" stroke="black" points="729,-987 729,-1009 1009,-1009 1009,-987 729,-987"/>
<text text-anchor="start" x="734" y="-996.2" font-family="Helvetica,sans-Serif" font-weight="bold" font-size="11.00">building_group</text>
<text text-anchor="start" x="967" y="-995.2" font-family="Helvetica,sans-Serif" font-size="11.00">[table]</text>
<polygon fill="none" stroke="black" points="729,-965 729,-987 1009,-987 1009,-965 729,-965"/>
<image xlink:href="../../images/primaryKeys.png" width="11px" height="12px" preserveAspectRatio="xMinYMin meet" x="734" y="-982"/>
<text text-anchor="start" x="749" y="-973.2" font-family="Helvetica,sans-Serif" font-size="11.00">obj_id</text>
<polygon fill="none" stroke="black" points="729,-943 729,-965 1009,-965 1009,-943 729,-943"/>
<image xlink:href="../../images/foreignKeys.png" width="11px" height="12px" preserveAspectRatio="xMinYMin meet" x="734" y="-960"/>
<text text-anchor="start" x="749" y="-951.2" font-family="Helvetica,sans-Serif" font-size="11.00">connecting_obligation</text>
<polygon fill="none" stroke="black" points="729,-921 729,-943 1009,-943 1009,-921 729,-921"/>
<image xlink:href="../../images/foreignKeys.png" width="11px" height="12px" preserveAspectRatio="xMinYMin meet" x="734" y="-938"/>
<text text-anchor="start" x="749" y="-929.2" font-family="Helvetica,sans-Serif" font-size="11.00">connection_wwtp</text>
<polygon fill="none" stroke="black" points="729,-899 729,-921 1009,-921 1009,-899 729,-899"/>
<image xlink:href="../../images/foreignKeys.png" width="11px" height="12px" preserveAspectRatio="xMinYMin meet" x="734" y="-916"/>
<text text-anchor="start" x="749" y="-907.2" font-family="Helvetica,sans-Serif" font-size="11.00">drainage_map</text>
<polygon fill="none" stroke="black" points="729,-877 729,-899 1009,-899 1009,-877 729,-877"/>
<image xlink:href="../../images/foreignKeys.png" width="11px" height="12px" preserveAspectRatio="xMinYMin meet" x="734" y="-894"/>
<text text-anchor="start" x="749" y="-885.2" font-family="Helvetica,sans-Serif" font-size="11.00">drinking_water_network</text>
<polygon fill="none" stroke="black" points="729,-855 729,-877 1009,-877 1009,-855 729,-855"/>
<image xlink:href="../../images/foreignKeys.png" width="11px" height="12px" preserveAspectRatio="xMinYMin meet" x="734" y="-872"/>
<text text-anchor="start" x="749" y="-863.2" font-family="Helvetica,sans-Serif" font-size="11.00">drinking_water_others</text>
<polygon fill="none" stroke="black" points="729,-833 729,-855 1009,-855 1009,-833 729,-833"/>
<image xlink:href="../../images/foreignKeys.png" width="11px" height="12px" preserveAspectRatio="xMinYMin meet" x="734" y="-850"/>
<text text-anchor="start" x="749" y="-841.2" font-family="Helvetica,sans-Serif" font-size="11.00">electric_connection</text>
<polygon fill="none" stroke="black" points="729,-811 729,-833 1009,-833 1009,-811 729,-811"/>
<image xlink:href="../../images/foreignKeys.png" width="11px" height="12px" preserveAspectRatio="xMinYMin meet" x="734" y="-828"/>
<text text-anchor="start" x="749" y="-819.2" font-family="Helvetica,sans-Serif" font-size="11.00">function</text>
<polygon fill="#ffffff" stroke="transparent" points="729,-789 729,-811 1009,-811 1009,-789 729,-789"/>
<polygon fill="none" stroke="black" points="729,-789 729,-811 1009,-811 1009,-789 729,-789"/>
<text text-anchor="start" x="749" y="-797.2" font-family="Helvetica,sans-Serif" font-size="11.00">identifier</text>
<polygon fill="none" stroke="black" points="729,-767 729,-789 1009,-789 1009,-767 729,-767"/>
<image xlink:href="../../images/foreignKeys.png" width="11px" height="12px" preserveAspectRatio="xMinYMin meet" x="734" y="-784"/>
<text text-anchor="start" x="749" y="-775.2" font-family="Helvetica,sans-Serif" font-size="11.00">renovation_necessity</text>
<polygon fill="#ffffff" stroke="transparent" points="729,-745 729,-767 1009,-767 1009,-745 729,-745"/>
<polygon fill="none" stroke="black" points="729,-745 729,-767 1009,-767 1009,-745 729,-745"/>
<text text-anchor="start" x="749" y="-753.2" font-family="Helvetica,sans-Serif" font-size="11.00">situation_geometry</text>
<polygon fill="#ffffff" stroke="transparent" points="729,-723 729,-745 1009,-745 1009,-723 729,-723"/>
<polygon fill="none" stroke="black" points="729,-723 729,-745 1009,-745 1009,-723 729,-723"/>
<image xlink:href="../../images/foreignKeys.png" width="11px" height="12px" preserveAspectRatio="xMinYMin meet" x="734" y="-740"/>
<text text-anchor="start" x="749" y="-731.2" font-family="Helvetica,sans-Serif" font-size="11.00">fk_dataowner</text>
<polygon fill="none" stroke="black" points="729,-701 729,-723 1009,-723 1009,-701 729,-701"/>
<image xlink:href="../../images/foreignKeys.png" width="11px" height="12px" preserveAspectRatio="xMinYMin meet" x="734" y="-718"/>
<text text-anchor="start" x="749" y="-709.2" font-family="Helvetica,sans-Serif" font-size="11.00">fk_provider</text>
<polygon fill="none" stroke="black" points="729,-679 729,-701 1009,-701 1009,-679 729,-679"/>
<image xlink:href="../../images/foreignKeys.png" width="11px" height="12px" preserveAspectRatio="xMinYMin meet" x="734" y="-696"/>
<text text-anchor="start" x="749" y="-687.2" font-family="Helvetica,sans-Serif" font-size="11.00">fk_disposal</text>
<polygon fill="none" stroke="black" points="729,-657 729,-679 1009,-679 1009,-657 729,-657"/>
<image xlink:href="../../images/foreignKeys.png" width="11px" height="12px" preserveAspectRatio="xMinYMin meet" x="734" y="-674"/>
<text text-anchor="start" x="749" y="-665.2" font-family="Helvetica,sans-Serif" font-size="11.00">fk_measure</text>
<polygon fill="none" stroke="black" points="729,-639 729,-657 1009,-657 1009,-639 729,-639"/>
<text text-anchor="start" x="732" y="-645.2" font-family="Helvetica,sans-Serif" font-size="11.00">...</text>
<polygon fill="#ffffff" stroke="transparent" points="729,-621 729,-639 1009,-639 1009,-621 729,-621"/>
<polygon fill="none" stroke="black" points="729,-621 729,-639 1009,-639 1009,-621 729,-621"/>
<polygon fill="#ffffff" stroke="transparent" points="730,-622 730,-638 832,-638 832,-622 730,-622"/>
<text text-anchor="start" x="732" y="-627.2" font-family="Helvetica,sans-Serif" font-size="11.00">&lt; 12</text>
<polygon fill="#ffffff" stroke="transparent" points="832,-622 832,-638 914,-638 914,-622 832,-622"/>
<text text-anchor="start" x="869" y="-627.2" font-family="Helvetica,sans-Serif" font-size="11.00"> &#160;</text>
<polygon fill="#ffffff" stroke="transparent" points="914,-622 914,-638 1008,-638 1008,-622 914,-622"/>
<text text-anchor="start" x="986" y="-627.2" font-family="Helvetica,sans-Serif" font-size="11.00">5 &gt;</text>
<polygon fill="black" stroke="black" points="832,-622 832,-638 832,-638 832,-622 832,-622"/>
<polygon fill="black" stroke="black" points="914,-622 914,-638 914,-638 914,-622 914,-622"/>
</a>
</g>
</g>
<!-- building_group&#45;&gt;measure -->
<g id="edge4" class="edge">
<title>building_group:w&#45;&gt;measure:e</title>
<path fill="none" stroke="black" d="M713.86,-664.88C702.41,-659.25 696.99,-648 679.5,-648"/>
<polygon fill="black" stroke="black" points="720.19,-666.27 727.22,-671.52 724.09,-667.14 728,-668 728,-668 728,-668 724.09,-667.14 728.78,-664.48 720.19,-666.27 720.19,-666.27"/>
<ellipse fill="none" stroke="black" cx="717.06" cy="-665.58" rx="3.2" ry="3.2"/>
</g>
<!-- building_group&#45;&gt;organisation -->
<g id="edge3" class="edge">
<title>building_group:w&#45;&gt;organisation:e</title>
<path fill="none" stroke="black" d="M713.45,-734.22C525.81,-739.75 424.3,-849.32 285,-717 205.71,-641.68 323.37,-230 214,-230"/>
<polygon fill="black" stroke="black" points="720,-734.12 728.05,-737.6 724,-734.06 728,-734 728,-734 728,-734 724,-734.06 727.95,-730.4 720,-734.12 720,-734.12"/>
<ellipse fill="none" stroke="black" cx="716.8" cy="-734.17" rx="3.2" ry="3.2"/>
</g>
<!-- building_group&#45;&gt;organisation -->
<g id="edge5" class="edge">
<title>building_group:w&#45;&gt;organisation:e</title>
<path fill="none" stroke="black" d="M713.51,-712.21C630.65,-713.96 318.3,-725.51 285,-694 209.24,-622.3 318.31,-230 214,-230"/>
<polygon fill="black" stroke="black" points="720,-712.11 728.05,-715.6 724,-712.06 728,-712 728,-712 728,-712 724,-712.06 727.95,-708.4 720,-712.11 720,-712.11"/>
<ellipse fill="none" stroke="black" cx="716.8" cy="-712.16" rx="3.2" ry="3.2"/>
</g>
<!-- maintenance_event -->
<g id="node6" class="node">
<title>maintenance_event</title>
<g id="a_node6"><a xlink:href="../../tables/maintenance_event.html" xlink:title="maintenance_event" target="_top">
<polygon fill="#ffffff" stroke="transparent" points="774.5,-37 774.5,-249 963.5,-249 963.5,-37 774.5,-37"/>
<polygon fill="#f5f5f5" stroke="transparent" points="775,-227 775,-249 964,-249 964,-227 775,-227"/>
<polygon fill="none" stroke="black" points="775,-227 775,-249 964,-249 964,-227 775,-227"/>
<text text-anchor="start" x="780" y="-236.2" font-family="Helvetica,sans-Serif" font-weight="bold" font-size="11.00">maintenance_event</text>
<text text-anchor="start" x="922" y="-235.2" font-family="Helvetica,sans-Serif" font-size="11.00">[table]</text>
<polygon fill="none" stroke="black" points="775,-205 775,-227 964,-227 964,-205 775,-205"/>
<image xlink:href="../../images/primaryKeys.png" width="11px" height="12px" preserveAspectRatio="xMinYMin meet" x="780" y="-222"/>
<text text-anchor="start" x="797" y="-213.2" font-family="Helvetica,sans-Serif" font-size="11.00">obj_id</text>
<polygon fill="#ffffff" stroke="transparent" points="775,-183 775,-205 964,-205 964,-183 775,-183"/>
<polygon fill="none" stroke="black" points="775,-183 775,-205 964,-205 964,-183 775,-183"/>
<text text-anchor="start" x="797" y="-191.2" font-family="Helvetica,sans-Serif" font-size="11.00">identifier</text>
<polygon fill="none" stroke="black" points="775,-161 775,-183 964,-183 964,-161 775,-161"/>
<image xlink:href="../../images/foreignKeys.png" width="11px" height="12px" preserveAspectRatio="xMinYMin meet" x="780" y="-178"/>
<text text-anchor="start" x="797" y="-169.2" font-family="Helvetica,sans-Serif" font-size="11.00">status</text>
<polygon fill="#ffffff" stroke="transparent" points="775,-139 775,-161 964,-161 964,-139 775,-139"/>
<polygon fill="none" stroke="black" points="775,-139 775,-161 964,-161 964,-139 775,-139"/>
<image xlink:href="../../images/foreignKeys.png" width="11px" height="12px" preserveAspectRatio="xMinYMin meet" x="780" y="-156"/>
<text text-anchor="start" x="797" y="-147.2" font-family="Helvetica,sans-Serif" font-size="11.00">fk_dataowner</text>
<polygon fill="none" stroke="black" points="775,-117 775,-139 964,-139 964,-117 775,-117"/>
<image xlink:href="../../images/foreignKeys.png" width="11px" height="12px" preserveAspectRatio="xMinYMin meet" x="780" y="-134"/>
<text text-anchor="start" x="797" y="-125.2" font-family="Helvetica,sans-Serif" font-size="11.00">fk_provider</text>
<polygon fill="none" stroke="black" points="775,-95 775,-117 964,-117 964,-95 775,-95"/>
<image xlink:href="../../images/foreignKeys.png" width="11px" height="12px" preserveAspectRatio="xMinYMin meet" x="780" y="-112"/>
<text text-anchor="start" x="797" y="-103.2" font-family="Helvetica,sans-Serif" font-size="11.00">fk_operating_company</text>
<polygon fill="none" stroke="black" points="775,-73 775,-95 964,-95 964,-73 775,-73"/>
<image xlink:href="../../images/foreignKeys.png" width="11px" height="12px" preserveAspectRatio="xMinYMin meet" x="780" y="-90"/>
<text text-anchor="start" x="797" y="-81.2" font-family="Helvetica,sans-Serif" font-size="11.00">fk_measure</text>
<polygon fill="none" stroke="black" points="775,-55 775,-73 964,-73 964,-55 775,-55"/>
<text text-anchor="start" x="778" y="-61.2" font-family="Helvetica,sans-Serif" font-size="11.00">...</text>
<polygon fill="#ffffff" stroke="transparent" points="775,-37 775,-55 964,-55 964,-37 775,-37"/>
<polygon fill="none" stroke="black" points="775,-37 775,-55 964,-55 964,-37 775,-37"/>
<polygon fill="#ffffff" stroke="transparent" points="776,-38 776,-54 843,-54 843,-38 776,-38"/>
<text text-anchor="start" x="778" y="-43.2" font-family="Helvetica,sans-Serif" font-size="11.00">&lt; 5</text>
<polygon fill="#ffffff" stroke="transparent" points="843,-38 843,-54 897,-54 897,-38 843,-38"/>
<text text-anchor="start" x="866" y="-43.2" font-family="Helvetica,sans-Serif" font-size="11.00"> &#160;</text>
<polygon fill="#ffffff" stroke="transparent" points="897,-38 897,-54 963,-54 963,-38 897,-38"/>
<text text-anchor="start" x="941" y="-43.2" font-family="Helvetica,sans-Serif" font-size="11.00">4 &gt;</text>
<polygon fill="black" stroke="black" points="843,-38 843,-54 843,-54 843,-38 843,-38"/>
<polygon fill="black" stroke="black" points="897,-38 897,-54 897,-54 897,-38 897,-38"/>
</a>
</g>
</g>
<!-- maintenance_event&#45;&gt;measure -->
<g id="edge7" class="edge">
<title>maintenance_event:w&#45;&gt;measure:e</title>
<path fill="none" stroke="black" d="M759.51,-85.02C683.76,-96.61 737.5,-205.1 721,-295 713.87,-333.84 718.99,-648 679.5,-648"/>
<polygon fill="black" stroke="black" points="766.02,-84.56 774.25,-87.59 770.01,-84.28 774,-84 774,-84 774,-84 770.01,-84.28 773.75,-80.41 766.02,-84.56 766.02,-84.56"/>
<ellipse fill="none" stroke="black" cx="762.83" cy="-84.78" rx="3.2" ry="3.2"/>
</g>
<!-- maintenance_event&#45;&gt;organisation -->
<g id="edge6" class="edge">
<title>maintenance_event:w&#45;&gt;organisation:e</title>
<path fill="none" stroke="black" d="M759.43,-149.88C642.13,-148.15 381.73,-128.34 285,-167 245.83,-182.66 256.19,-230 214,-230"/>
<polygon fill="black" stroke="black" points="766,-149.94 773.97,-153.6 770,-149.97 774,-150 774,-150 774,-150 770,-149.97 774.03,-146.4 766,-149.94 766,-149.94"/>
<ellipse fill="none" stroke="black" cx="762.8" cy="-149.91" rx="3.2" ry="3.2"/>
</g>
<!-- maintenance_event&#45;&gt;organisation -->
<g id="edge8" class="edge">
<title>maintenance_event:w&#45;&gt;organisation:e</title>
<path fill="none" stroke="black" d="M759.55,-105.86C552.85,-101.73 469.71,-10.95 285,-116 233.11,-145.51 273.69,-230 214,-230"/>
<polygon fill="black" stroke="black" points="766,-105.92 773.96,-109.6 770,-105.96 774,-106 774,-106 774,-106 770,-105.96 774.04,-102.4 766,-105.92 766,-105.92"/>
<ellipse fill="none" stroke="black" cx="762.8" cy="-105.89" rx="3.2" ry="3.2"/>
</g>
<!-- maintenance_event&#45;&gt;organisation -->
<g id="edge9" class="edge">
<title>maintenance_event:w&#45;&gt;organisation:e</title>
<path fill="none" stroke="black" d="M759.41,-127.82C641.85,-125.08 378.14,-93.42 285,-140 239.43,-162.79 264.95,-230 214,-230"/>
<polygon fill="black" stroke="black" points="766,-127.9 773.95,-131.6 770,-127.95 774,-128 774,-128 774,-128 770,-127.95 774.05,-124.4 766,-127.9 766,-127.9"/>
<ellipse fill="none" stroke="black" cx="762.8" cy="-127.86" rx="3.2" ry="3.2"/>
</g>
</g>
</svg>
