<?xml version="1.0" encoding="UTF-8" standalone="no"?>
<!DOCTYPE svg PUBLIC "-//W3C//DTD SVG 1.1//EN"
 "http://www.w3.org/Graphics/SVG/1.1/DTD/svg11.dtd">
<!-- Generated by graphviz version 2.43.0 (0)
 -->
<!-- Title: oneDegreeRelationshipsDiagram Pages: 1 -->
<svg width="822pt" height="343pt"
 viewBox="0.00 0.00 822.00 343.00" xmlns="http://www.w3.org/2000/svg" xmlns:xlink="http://www.w3.org/1999/xlink">
<g id="graph0" class="graph" transform="scale(1 1) rotate(0) translate(4 339)">
<title>oneDegreeRelationshipsDiagram</title>
<polygon fill="#ffffff" stroke="transparent" points="-4,4 -4,-339 818,-339 818,4 -4,4"/>
<text text-anchor="middle" x="79.5" y="-7.2" font-family="Helvetica,sans-Serif" font-size="11.00">Generated by SchemaSpy</text>
<!-- network_node -->
<g id="node1" class="node">
<title>network_node</title>
<g id="a_node1"><a xlink:href="../../tables/network_node.html" xlink:title="network_node" target="_top">
<polygon fill="#ffffff" stroke="transparent" points="316,-139 316,-285 466,-285 466,-139 316,-139"/>
<polygon fill="#f5f5f5" stroke="transparent" points="316,-263 316,-285 466,-285 466,-263 316,-263"/>
<polygon fill="none" stroke="black" points="316,-263 316,-285 466,-285 466,-263 316,-263"/>
<text text-anchor="start" x="321" y="-272.2" font-family="Helvetica,sans-Serif" font-weight="bold" font-size="11.00">network_node</text>
<text text-anchor="start" x="424" y="-271.2" font-family="Helvetica,sans-Serif" font-size="11.00">[table]</text>
<polygon fill="none" stroke="black" points="316,-241 316,-263 466,-263 466,-241 316,-241"/>
<image xlink:href="../../images/primaryKeys.png" width="11px" height="12px" preserveAspectRatio="xMinYMin meet" x="321" y="-258"/>
<text text-anchor="start" x="349" y="-249.2" font-family="Helvetica,sans-Serif" font-size="11.00">id</text>
<polygon fill="none" stroke="black" points="316,-219 316,-241 466,-241 466,-219 316,-219"/>
<image xlink:href="../../images/foreignKeys.png" width="11px" height="12px" preserveAspectRatio="xMinYMin meet" x="321" y="-236"/>
<text text-anchor="start" x="349" y="-227.2" font-family="Helvetica,sans-Serif" font-size="11.00">ne_id</text>
<polygon fill="none" stroke="black" points="316,-197 316,-219 466,-219 466,-197 316,-197"/>
<image xlink:href="../../images/foreignKeys.png" width="11px" height="12px" preserveAspectRatio="xMinYMin meet" x="321" y="-214"/>
<text text-anchor="start" x="349" y="-205.2" font-family="Helvetica,sans-Serif" font-size="11.00">rp_id</text>
<polygon fill="#ffffff" stroke="transparent" points="316,-175 316,-197 466,-197 466,-175 316,-175"/>
<polygon fill="none" stroke="black" points="316,-175 316,-197 466,-197 466,-175 316,-175"/>
<text text-anchor="start" x="349" y="-183.2" font-family="Helvetica,sans-Serif" font-size="11.00">geom</text>
<polygon fill="none" stroke="black" points="316,-157 316,-175 466,-175 466,-157 316,-157"/>
<text text-anchor="start" x="319" y="-163.2" font-family="Helvetica,sans-Serif" font-size="11.00">...</text>
<polygon fill="#ffffff" stroke="transparent" points="316,-139 316,-157 466,-157 466,-139 316,-139"/>
<polygon fill="none" stroke="black" points="316,-139 316,-157 466,-157 466,-139 316,-139"/>
<polygon fill="#ffffff" stroke="transparent" points="317,-140 317,-156 371,-156 371,-140 317,-140"/>
<text text-anchor="start" x="319" y="-145.2" font-family="Helvetica,sans-Serif" font-size="11.00">&lt; 2</text>
<polygon fill="#ffffff" stroke="transparent" points="371,-140 371,-156 412,-156 412,-140 371,-140"/>
<text text-anchor="start" x="387.5" y="-145.2" font-family="Helvetica,sans-Serif" font-size="11.00"> &#160;</text>
<polygon fill="#ffffff" stroke="transparent" points="412,-140 412,-156 465,-156 465,-140 412,-140"/>
<text text-anchor="start" x="443" y="-145.2" font-family="Helvetica,sans-Serif" font-size="11.00">2 &gt;</text>
<polygon fill="black" stroke="black" points="371,-140 371,-156 371,-156 371,-140 371,-140"/>
<polygon fill="black" stroke="black" points="412,-140 412,-156 412,-156 412,-140 412,-140"/>
</a>
</g>
</g>
<!-- wastewater_networkelement -->
<g id="node2" class="node">
<title>wastewater_networkelement</title>
<g id="a_node2"><a xlink:href="../../tables/wastewater_networkelement.html" xlink:title="wastewater_networkelement" target="_top">
<polygon fill="#ffffff" stroke="transparent" points="8,-37 8,-205 267,-205 267,-37 8,-37"/>
<polygon fill="#f5f5f5" stroke="transparent" points="8.5,-183 8.5,-205 267.5,-205 267.5,-183 8.5,-183"/>
<polygon fill="none" stroke="black" points="8.5,-183 8.5,-205 267.5,-205 267.5,-183 8.5,-183"/>
<text text-anchor="start" x="13.5" y="-192.2" font-family="Helvetica,sans-Serif" font-weight="bold" font-size="11.00">wastewater_networkelement</text>
<text text-anchor="start" x="225.5" y="-191.2" font-family="Helvetica,sans-Serif" font-size="11.00">[table]</text>
<polygon fill="none" stroke="black" points="8.5,-161 8.5,-183 267.5,-183 267.5,-161 8.5,-161"/>
<image xlink:href="../../images/primaryKeys.png" width="11px" height="12px" preserveAspectRatio="xMinYMin meet" x="13.5" y="-178"/>
<text text-anchor="start" x="41.5" y="-169.2" font-family="Helvetica,sans-Serif" font-size="11.00">obj_id</text>
<polygon fill="#ffffff" stroke="transparent" points="8.5,-139 8.5,-161 267.5,-161 267.5,-139 8.5,-139"/>
<polygon fill="none" stroke="black" points="8.5,-139 8.5,-161 267.5,-161 267.5,-139 8.5,-139"/>
<text text-anchor="start" x="41.5" y="-147.2" font-family="Helvetica,sans-Serif" font-size="11.00">identifier</text>
<polygon fill="#ffffff" stroke="transparent" points="8.5,-117 8.5,-139 267.5,-139 267.5,-117 8.5,-117"/>
<polygon fill="none" stroke="black" points="8.5,-117 8.5,-139 267.5,-139 267.5,-117 8.5,-117"/>
<image xlink:href="../../images/foreignKeys.png" width="11px" height="12px" preserveAspectRatio="xMinYMin meet" x="13.5" y="-134"/>
<text text-anchor="start" x="41.5" y="-125.2" font-family="Helvetica,sans-Serif" font-size="11.00">fk_dataowner</text>
<polygon fill="none" stroke="black" points="8.5,-95 8.5,-117 267.5,-117 267.5,-95 8.5,-95"/>
<image xlink:href="../../images/foreignKeys.png" width="11px" height="12px" preserveAspectRatio="xMinYMin meet" x="13.5" y="-112"/>
<text text-anchor="start" x="41.5" y="-103.2" font-family="Helvetica,sans-Serif" font-size="11.00">fk_provider</text>
<polygon fill="none" stroke="black" points="8.5,-73 8.5,-95 267.5,-95 267.5,-73 8.5,-73"/>
<image xlink:href="../../images/foreignKeys.png" width="11px" height="12px" preserveAspectRatio="xMinYMin meet" x="13.5" y="-90"/>
<text text-anchor="start" x="41.5" y="-81.2" font-family="Helvetica,sans-Serif" font-size="11.00">fk_wastewater_structure</text>
<polygon fill="none" stroke="black" points="8.5,-55 8.5,-73 267.5,-73 267.5,-55 8.5,-55"/>
<text text-anchor="start" x="11.5" y="-61.2" font-family="Helvetica,sans-Serif" font-size="11.00">...</text>
<polygon fill="#ffffff" stroke="transparent" points="8.5,-37 8.5,-55 267.5,-55 267.5,-37 8.5,-37"/>
<polygon fill="none" stroke="black" points="8.5,-37 8.5,-55 267.5,-55 267.5,-37 8.5,-37"/>
<polygon fill="#ffffff" stroke="transparent" points="9.5,-38 9.5,-54 97.5,-54 97.5,-38 9.5,-38"/>
<text text-anchor="start" x="11.5" y="-43.2" font-family="Helvetica,sans-Serif" font-size="11.00">&lt; 3</text>
<polygon fill="#ffffff" stroke="transparent" points="97.5,-38 97.5,-54 172.5,-54 172.5,-38 97.5,-38"/>
<text text-anchor="start" x="131" y="-43.2" font-family="Helvetica,sans-Serif" font-size="11.00"> &#160;</text>
<polygon fill="#ffffff" stroke="transparent" points="172.5,-38 172.5,-54 266.5,-54 266.5,-38 172.5,-38"/>
<text text-anchor="start" x="237.5" y="-43.2" font-family="Helvetica,sans-Serif" font-size="11.00">12 &gt;</text>
<polygon fill="black" stroke="black" points="97.5,-38 97.5,-54 97.5,-54 97.5,-38 97.5,-38"/>
<polygon fill="black" stroke="black" points="172.5,-38 172.5,-54 172.5,-54 172.5,-38 172.5,-38"/>
</a>
</g>
</g>
<!-- network_node&#45;&gt;wastewater_networkelement -->
<g id="edge1" class="edge">
<title>network_node:w&#45;&gt;wastewater_networkelement:e</title>
<path fill="none" stroke="black" d="M301.27,-224.65C287.45,-210.29 295.34,-172 268.5,-172"/>
<polygon fill="black" stroke="black" points="307.55,-227.09 313.69,-233.35 311.27,-228.55 315,-230 315,-230 315,-230 311.27,-228.55 316.31,-226.65 307.55,-227.09 307.55,-227.09"/>
<ellipse fill="none" stroke="black" cx="304.57" cy="-225.93" rx="3.2" ry="3.2"/>
</g>
<!-- network_segment -->
<g id="node3" class="node">
<title>network_segment</title>
<g id="a_node3"><a xlink:href="../../tables/network_segment.html" xlink:title="network_segment" target="_top">
<polygon fill="#ffffff" stroke="transparent" points="515,-155 515,-331 806,-331 806,-155 515,-155"/>
<polygon fill="#f5f5f5" stroke="transparent" points="517.5,-307 517.5,-329 804.5,-329 804.5,-307 517.5,-307"/>
<polygon fill="none" stroke="black" points="517.5,-307 517.5,-329 804.5,-329 804.5,-307 517.5,-307"/>
<text text-anchor="start" x="522.5" y="-316.2" font-family="Helvetica,sans-Serif" font-weight="bold" font-size="11.00">network_segment</text>
<text text-anchor="start" x="762.5" y="-315.2" font-family="Helvetica,sans-Serif" font-size="11.00">[table]</text>
<polygon fill="none" stroke="black" points="517.5,-285 517.5,-307 668.5,-307 668.5,-285 517.5,-285"/>
<image xlink:href="../../images/primaryKeys.png" width="11px" height="12px" preserveAspectRatio="xMinYMin meet" x="522.5" y="-302"/>
<text text-anchor="start" x="537.5" y="-293.2" font-family="Helvetica,sans-Serif" font-size="11.00">id</text>
<polygon fill="none" stroke="black" points="668.5,-285 668.5,-307 804.5,-307 804.5,-285 668.5,-285"/>
<text text-anchor="start" x="671.5" y="-293.2" font-family="Helvetica,sans-Serif" font-size="11.00">serial[10]</text>
<polygon fill="none" stroke="black" points="517.5,-263 517.5,-285 668.5,-285 668.5,-263 517.5,-263"/>
<text text-anchor="start" x="537.5" y="-271.2" font-family="Helvetica,sans-Serif" font-size="11.00">segment_type</text>
<polygon fill="none" stroke="black" points="668.5,-263 668.5,-285 804.5,-285 804.5,-263 668.5,-263"/>
<text text-anchor="start" x="671.5" y="-271.2" font-family="Helvetica,sans-Serif" font-size="11.00">text[2147483647]</text>
<polygon fill="none" stroke="black" points="517.5,-241 517.5,-263 668.5,-263 668.5,-241 517.5,-241"/>
<image xlink:href="../../images/foreignKeys.png" width="11px" height="12px" preserveAspectRatio="xMinYMin meet" x="522.5" y="-258"/>
<text text-anchor="start" x="537.5" y="-249.2" font-family="Helvetica,sans-Serif" font-size="11.00">from_node</text>
<polygon fill="none" stroke="black" points="668.5,-241 668.5,-263 804.5,-263 804.5,-241 668.5,-241"/>
<text text-anchor="start" x="671.5" y="-249.2" font-family="Helvetica,sans-Serif" font-size="11.00">int4[10]</text>
<polygon fill="none" stroke="black" points="517.5,-219 517.5,-241 668.5,-241 668.5,-219 517.5,-219"/>
<image xlink:href="../../images/foreignKeys.png" width="11px" height="12px" preserveAspectRatio="xMinYMin meet" x="522.5" y="-236"/>
<text text-anchor="start" x="537.5" y="-227.2" font-family="Helvetica,sans-Serif" font-size="11.00">to_node</text>
<polygon fill="none" stroke="black" points="668.5,-219 668.5,-241 804.5,-241 804.5,-219 668.5,-219"/>
<text text-anchor="start" x="671.5" y="-227.2" font-family="Helvetica,sans-Serif" font-size="11.00">int4[10]</text>
<polygon fill="none" stroke="black" points="517.5,-197 517.5,-219 668.5,-219 668.5,-197 517.5,-197"/>
<image xlink:href="../../images/foreignKeys.png" width="11px" height="12px" preserveAspectRatio="xMinYMin meet" x="522.5" y="-214"/>
<text text-anchor="start" x="537.5" y="-205.2" font-family="Helvetica,sans-Serif" font-size="11.00">ne_id</text>
<polygon fill="none" stroke="black" points="668.5,-197 668.5,-219 804.5,-219 804.5,-197 668.5,-197"/>
<text text-anchor="start" x="671.5" y="-205.2" font-family="Helvetica,sans-Serif" font-size="11.00">text[2147483647]</text>
<polygon fill="#ffffff" stroke="transparent" points="517.5,-175 517.5,-197 668.5,-197 668.5,-175 517.5,-175"/>
<polygon fill="none" stroke="black" points="517.5,-175 517.5,-197 668.5,-197 668.5,-175 517.5,-175"/>
<text text-anchor="start" x="537.5" y="-183.2" font-family="Helvetica,sans-Serif" font-size="11.00">geom</text>
<polygon fill="none" stroke="black" points="668.5,-175 668.5,-197 804.5,-197 804.5,-175 668.5,-175"/>
<text text-anchor="start" x="671.5" y="-183.2" font-family="Helvetica,sans-Serif" font-size="11.00">geometry[2147483647]</text>
<polygon fill="#ffffff" stroke="transparent" points="517.5,-157 517.5,-175 804.5,-175 804.5,-157 517.5,-157"/>
<polygon fill="none" stroke="black" points="517.5,-157 517.5,-175 804.5,-175 804.5,-157 517.5,-157"/>
<polygon fill="#ffffff" stroke="transparent" points="518.5,-158 518.5,-174 617.5,-174 617.5,-158 518.5,-158"/>
<text text-anchor="start" x="520.5" y="-163.2" font-family="Helvetica,sans-Serif" font-size="11.00">&lt; 3</text>
<polygon fill="#ffffff" stroke="transparent" points="617.5,-158 617.5,-174 704.5,-174 704.5,-158 617.5,-158"/>
<text text-anchor="start" x="657" y="-163.2" font-family="Helvetica,sans-Serif" font-size="11.00"> &#160;</text>
<polygon fill="#ffffff" stroke="transparent" points="704.5,-158 704.5,-174 803.5,-174 803.5,-158 704.5,-158"/>
<text text-anchor="start" x="781.5" y="-163.2" font-family="Helvetica,sans-Serif" font-size="11.00">0 &gt;</text>
<polygon fill="black" stroke="black" points="617.5,-158 617.5,-174 617.5,-174 617.5,-158 617.5,-158"/>
<polygon fill="black" stroke="black" points="704.5,-158 704.5,-174 704.5,-174 704.5,-158 704.5,-158"/>
<polygon fill="none" stroke="black" stroke-width="2" points="516,-156 516,-330 805,-330 805,-156 516,-156"/>
</a>
</g>
</g>
<!-- network_segment&#45;&gt;network_node -->
<g id="edge2" class="edge">
<title>network_segment:w&#45;&gt;network_node:e</title>
<path fill="none" stroke="black" d="M501.84,-252C490.41,-252 483.16,-252 467,-252"/>
<polygon fill="black" stroke="black" points="508.5,-252 516.5,-255.6 512.5,-252 516.5,-252 516.5,-252 516.5,-252 512.5,-252 516.5,-248.4 508.5,-252 508.5,-252"/>
<ellipse fill="none" stroke="black" cx="505.3" cy="-252" rx="3.2" ry="3.2"/>
</g>
<!-- network_segment&#45;&gt;network_node -->
<g id="edge4" class="edge">
<title>network_segment:w&#45;&gt;network_node:e</title>
<path fill="none" stroke="black" d="M502.36,-233.25C490.44,-239.37 485.24,-252 467,-252"/>
<polygon fill="black" stroke="black" points="508.7,-231.79 517.31,-233.51 512.6,-230.9 516.5,-230 516.5,-230 516.5,-230 512.6,-230.9 515.69,-226.49 508.7,-231.79 508.7,-231.79"/>
<ellipse fill="none" stroke="black" cx="505.58" cy="-232.51" rx="3.2" ry="3.2"/>
</g>
<!-- network_segment&#45;&gt;wastewater_networkelement -->
<g id="edge3" class="edge">
<title>network_segment:w&#45;&gt;wastewater_networkelement:e</title>
<path fill="none" stroke="black" d="M502.52,-204.08C484.9,-190.63 502.88,-146.26 474,-129 410.67,-91.16 375.55,-99.33 308,-129 284.24,-139.44 294.45,-172 268.5,-172"/>
<polygon fill="black" stroke="black" points="508.8,-205.84 515.53,-211.47 512.65,-206.92 516.5,-208 516.5,-208 516.5,-208 512.65,-206.92 517.47,-204.53 508.8,-205.84 508.8,-205.84"/>
<ellipse fill="none" stroke="black" cx="505.72" cy="-204.98" rx="3.2" ry="3.2"/>
</g>
</g>
</svg>
