<?xml version="1.0" encoding="UTF-8" standalone="no"?>
<!DOCTYPE svg PUBLIC "-//W3C//DTD SVG 1.1//EN"
 "http://www.w3.org/Graphics/SVG/1.1/DTD/svg11.dtd">
<!-- Generated by graphviz version 2.47.1 (20210515.0534)
 -->
<!-- Title: oneDegreeRelationshipsDiagram Pages: 1 -->
<svg width="814pt" height="615pt"
 viewBox="0.00 0.00 814.00 615.00" xmlns="http://www.w3.org/2000/svg" xmlns:xlink="http://www.w3.org/1999/xlink">
<g id="graph0" class="graph" transform="scale(1 1) rotate(0) translate(4 611)">
<title>oneDegreeRelationshipsDiagram</title>
<polygon fill="#ffffff" stroke="transparent" points="-4,4 -4,-611 810,-611 810,4 -4,4"/>
<text text-anchor="middle" x="73.5" y="-7.2" font-family="Helvetica,sans-Serif" font-size="11.00">Generated by SchemaSpy</text>
<!-- building_group -->
<g id="node1" class="node">
<title>building_group</title>
<g id="a_node1"><a xlink:href="../../tables/building_group.html" xlink:title="building_group" target="_top">
<polygon fill="#ffffff" stroke="transparent" points="234,-215 234,-603 467,-603 467,-215 234,-215"/>
<polygon fill="#f5f5f5" stroke="transparent" points="234.5,-581 234.5,-603 467.5,-603 467.5,-581 234.5,-581"/>
<polygon fill="none" stroke="black" points="234.5,-581 234.5,-603 467.5,-603 467.5,-581 234.5,-581"/>
<text text-anchor="start" x="239.5" y="-590.2" font-family="Helvetica,sans-Serif" font-weight="bold" font-size="11.00">building_group</text>
<text text-anchor="start" x="428.5" y="-589.2" font-family="Helvetica,sans-Serif" font-size="11.00">[table]</text>
<polygon fill="none" stroke="black" points="234.5,-559 234.5,-581 467.5,-581 467.5,-559 234.5,-559"/>
<image xlink:href="../../images/primaryKeys.png" width="11px" height="12px" preserveAspectRatio="xMinYMin meet" x="239.5" y="-576"/>
<text text-anchor="start" x="254.5" y="-567.2" font-family="Helvetica,sans-Serif" font-size="11.00">obj_id</text>
<polygon fill="none" stroke="black" points="234.5,-537 234.5,-559 467.5,-559 467.5,-537 234.5,-537"/>
<image xlink:href="../../images/foreignKeys.png" width="11px" height="12px" preserveAspectRatio="xMinYMin meet" x="239.5" y="-554"/>
<text text-anchor="start" x="254.5" y="-545.2" font-family="Helvetica,sans-Serif" font-size="11.00">connecting_obligation</text>
<polygon fill="none" stroke="black" points="234.5,-515 234.5,-537 467.5,-537 467.5,-515 234.5,-515"/>
<image xlink:href="../../images/foreignKeys.png" width="11px" height="12px" preserveAspectRatio="xMinYMin meet" x="239.5" y="-532"/>
<text text-anchor="start" x="254.5" y="-523.2" font-family="Helvetica,sans-Serif" font-size="11.00">connection_wwtp</text>
<polygon fill="none" stroke="black" points="234.5,-493 234.5,-515 467.5,-515 467.5,-493 234.5,-493"/>
<image xlink:href="../../images/foreignKeys.png" width="11px" height="12px" preserveAspectRatio="xMinYMin meet" x="239.5" y="-510"/>
<text text-anchor="start" x="254.5" y="-501.2" font-family="Helvetica,sans-Serif" font-size="11.00">drainage_map</text>
<polygon fill="none" stroke="black" points="234.5,-471 234.5,-493 467.5,-493 467.5,-471 234.5,-471"/>
<image xlink:href="../../images/foreignKeys.png" width="11px" height="12px" preserveAspectRatio="xMinYMin meet" x="239.5" y="-488"/>
<text text-anchor="start" x="254.5" y="-479.2" font-family="Helvetica,sans-Serif" font-size="11.00">drinking_water_network</text>
<polygon fill="none" stroke="black" points="234.5,-449 234.5,-471 467.5,-471 467.5,-449 234.5,-449"/>
<image xlink:href="../../images/foreignKeys.png" width="11px" height="12px" preserveAspectRatio="xMinYMin meet" x="239.5" y="-466"/>
<text text-anchor="start" x="254.5" y="-457.2" font-family="Helvetica,sans-Serif" font-size="11.00">drinking_water_others</text>
<polygon fill="none" stroke="black" points="234.5,-427 234.5,-449 467.5,-449 467.5,-427 234.5,-427"/>
<image xlink:href="../../images/foreignKeys.png" width="11px" height="12px" preserveAspectRatio="xMinYMin meet" x="239.5" y="-444"/>
<text text-anchor="start" x="254.5" y="-435.2" font-family="Helvetica,sans-Serif" font-size="11.00">electric_connection</text>
<polygon fill="none" stroke="black" points="234.5,-405 234.5,-427 467.5,-427 467.5,-405 234.5,-405"/>
<image xlink:href="../../images/foreignKeys.png" width="11px" height="12px" preserveAspectRatio="xMinYMin meet" x="239.5" y="-422"/>
<text text-anchor="start" x="254.5" y="-413.2" font-family="Helvetica,sans-Serif" font-size="11.00">function</text>
<polygon fill="#ffffff" stroke="transparent" points="234.5,-383 234.5,-405 467.5,-405 467.5,-383 234.5,-383"/>
<polygon fill="none" stroke="black" points="234.5,-383 234.5,-405 467.5,-405 467.5,-383 234.5,-383"/>
<text text-anchor="start" x="254.5" y="-391.2" font-family="Helvetica,sans-Serif" font-size="11.00">identifier</text>
<polygon fill="none" stroke="black" points="234.5,-361 234.5,-383 467.5,-383 467.5,-361 234.5,-361"/>
<image xlink:href="../../images/foreignKeys.png" width="11px" height="12px" preserveAspectRatio="xMinYMin meet" x="239.5" y="-378"/>
<text text-anchor="start" x="254.5" y="-369.2" font-family="Helvetica,sans-Serif" font-size="11.00">renovation_necessity</text>
<polygon fill="#ffffff" stroke="transparent" points="234.5,-339 234.5,-361 467.5,-361 467.5,-339 234.5,-339"/>
<polygon fill="none" stroke="black" points="234.5,-339 234.5,-361 467.5,-361 467.5,-339 234.5,-339"/>
<text text-anchor="start" x="254.5" y="-347.2" font-family="Helvetica,sans-Serif" font-size="11.00">situation_geometry</text>
<polygon fill="#ffffff" stroke="transparent" points="234.5,-317 234.5,-339 467.5,-339 467.5,-317 234.5,-317"/>
<polygon fill="none" stroke="black" points="234.5,-317 234.5,-339 467.5,-339 467.5,-317 234.5,-317"/>
<image xlink:href="../../images/foreignKeys.png" width="11px" height="12px" preserveAspectRatio="xMinYMin meet" x="239.5" y="-334"/>
<text text-anchor="start" x="254.5" y="-325.2" font-family="Helvetica,sans-Serif" font-size="11.00">fk_dataowner</text>
<polygon fill="none" stroke="black" points="234.5,-295 234.5,-317 467.5,-317 467.5,-295 234.5,-295"/>
<image xlink:href="../../images/foreignKeys.png" width="11px" height="12px" preserveAspectRatio="xMinYMin meet" x="239.5" y="-312"/>
<text text-anchor="start" x="254.5" y="-303.2" font-family="Helvetica,sans-Serif" font-size="11.00">fk_provider</text>
<polygon fill="none" stroke="black" points="234.5,-273 234.5,-295 467.5,-295 467.5,-273 234.5,-273"/>
<image xlink:href="../../images/foreignKeys.png" width="11px" height="12px" preserveAspectRatio="xMinYMin meet" x="239.5" y="-290"/>
<text text-anchor="start" x="254.5" y="-281.2" font-family="Helvetica,sans-Serif" font-size="11.00">fk_disposal</text>
<polygon fill="none" stroke="black" points="234.5,-251 234.5,-273 467.5,-273 467.5,-251 234.5,-251"/>
<image xlink:href="../../images/foreignKeys.png" width="11px" height="12px" preserveAspectRatio="xMinYMin meet" x="239.5" y="-268"/>
<text text-anchor="start" x="254.5" y="-259.2" font-family="Helvetica,sans-Serif" font-size="11.00">fk_measure</text>
<polygon fill="none" stroke="black" points="234.5,-233 234.5,-251 467.5,-251 467.5,-233 234.5,-233"/>
<text text-anchor="start" x="237.5" y="-239.2" font-family="Helvetica,sans-Serif" font-size="11.00">...</text>
<polygon fill="#ffffff" stroke="transparent" points="234.5,-215 234.5,-233 347.5,-233 347.5,-215 234.5,-215"/>
<polygon fill="none" stroke="black" points="234.5,-215 234.5,-233 347.5,-233 347.5,-215 234.5,-215"/>
<text text-anchor="start" x="237.5" y="-221.2" font-family="Helvetica,sans-Serif" font-size="11.00">&lt; 12</text>
<polygon fill="#ffffff" stroke="transparent" points="347.5,-215 347.5,-233 402.5,-233 402.5,-215 347.5,-215"/>
<polygon fill="none" stroke="black" points="347.5,-215 347.5,-233 402.5,-233 402.5,-215 347.5,-215"/>
<text text-anchor="start" x="392.5" y="-221.2" font-family="Helvetica,sans-Serif" font-size="11.00"> &#160;</text>
<polygon fill="#ffffff" stroke="transparent" points="402.5,-215 402.5,-233 467.5,-233 467.5,-215 402.5,-215"/>
<polygon fill="none" stroke="black" points="402.5,-215 402.5,-233 467.5,-233 467.5,-215 402.5,-215"/>
<text text-anchor="start" x="448.5" y="-221.2" font-family="Helvetica,sans-Serif" font-size="11.00">3 &gt;</text>
</a>
</g>
</g>
<!-- disposal -->
<g id="node2" class="node">
<title>disposal</title>
<g id="a_node2"><a xlink:href="../../tables/disposal.html" xlink:title="disposal" target="_top">
<polygon fill="#ffffff" stroke="transparent" points="8,-37 8,-271 185,-271 185,-37 8,-37"/>
<polygon fill="#f5f5f5" stroke="transparent" points="8.5,-249 8.5,-271 185.5,-271 185.5,-249 8.5,-249"/>
<polygon fill="none" stroke="black" points="8.5,-249 8.5,-271 185.5,-271 185.5,-249 8.5,-249"/>
<text text-anchor="start" x="13.5" y="-258.2" font-family="Helvetica,sans-Serif" font-weight="bold" font-size="11.00">disposal</text>
<text text-anchor="start" x="146.5" y="-257.2" font-family="Helvetica,sans-Serif" font-size="11.00">[table]</text>
<polygon fill="none" stroke="black" points="8.5,-227 8.5,-249 185.5,-249 185.5,-227 8.5,-227"/>
<image xlink:href="../../images/primaryKeys.png" width="11px" height="12px" preserveAspectRatio="xMinYMin meet" x="13.5" y="-244"/>
<text text-anchor="start" x="28.5" y="-235.2" font-family="Helvetica,sans-Serif" font-size="11.00">obj_id</text>
<polygon fill="none" stroke="black" points="8.5,-205 8.5,-227 185.5,-227 185.5,-205 8.5,-205"/>
<image xlink:href="../../images/foreignKeys.png" width="11px" height="12px" preserveAspectRatio="xMinYMin meet" x="13.5" y="-222"/>
<text text-anchor="start" x="28.5" y="-213.2" font-family="Helvetica,sans-Serif" font-size="11.00">disposal_place_current</text>
<polygon fill="none" stroke="black" points="8.5,-183 8.5,-205 185.5,-205 185.5,-183 8.5,-183"/>
<image xlink:href="../../images/foreignKeys.png" width="11px" height="12px" preserveAspectRatio="xMinYMin meet" x="13.5" y="-200"/>
<text text-anchor="start" x="28.5" y="-191.2" font-family="Helvetica,sans-Serif" font-size="11.00">disposal_place_planned</text>
<polygon fill="none" stroke="black" points="8.5,-161 8.5,-183 185.5,-183 185.5,-161 8.5,-161"/>
<image xlink:href="../../images/foreignKeys.png" width="11px" height="12px" preserveAspectRatio="xMinYMin meet" x="13.5" y="-178"/>
<text text-anchor="start" x="28.5" y="-169.2" font-family="Helvetica,sans-Serif" font-size="11.00">fk_dataowner</text>
<polygon fill="none" stroke="black" points="8.5,-139 8.5,-161 185.5,-161 185.5,-139 8.5,-139"/>
<image xlink:href="../../images/foreignKeys.png" width="11px" height="12px" preserveAspectRatio="xMinYMin meet" x="13.5" y="-156"/>
<text text-anchor="start" x="28.5" y="-147.2" font-family="Helvetica,sans-Serif" font-size="11.00">fk_provider</text>
<polygon fill="none" stroke="black" points="8.5,-117 8.5,-139 185.5,-139 185.5,-117 8.5,-117"/>
<image xlink:href="../../images/foreignKeys.png" width="11px" height="12px" preserveAspectRatio="xMinYMin meet" x="13.5" y="-134"/>
<text text-anchor="start" x="28.5" y="-125.2" font-family="Helvetica,sans-Serif" font-size="11.00">fk_infiltration_installation</text>
<polygon fill="none" stroke="black" points="8.5,-95 8.5,-117 185.5,-117 185.5,-95 8.5,-95"/>
<image xlink:href="../../images/foreignKeys.png" width="11px" height="12px" preserveAspectRatio="xMinYMin meet" x="13.5" y="-112"/>
<text text-anchor="start" x="28.5" y="-103.2" font-family="Helvetica,sans-Serif" font-size="11.00">fk_discharge_point</text>
<polygon fill="none" stroke="black" points="8.5,-73 8.5,-95 185.5,-95 185.5,-73 8.5,-73"/>
<image xlink:href="../../images/foreignKeys.png" width="11px" height="12px" preserveAspectRatio="xMinYMin meet" x="13.5" y="-90"/>
<text text-anchor="start" x="28.5" y="-81.2" font-family="Helvetica,sans-Serif" font-size="11.00">fk_wastewater_structure</text>
<polygon fill="none" stroke="black" points="8.5,-55 8.5,-73 185.5,-73 185.5,-55 8.5,-55"/>
<text text-anchor="start" x="11.5" y="-61.2" font-family="Helvetica,sans-Serif" font-size="11.00">...</text>
<polygon fill="#ffffff" stroke="transparent" points="8.5,-37 8.5,-55 90.5,-55 90.5,-37 8.5,-37"/>
<polygon fill="none" stroke="black" points="8.5,-37 8.5,-55 90.5,-55 90.5,-37 8.5,-37"/>
<text text-anchor="start" x="11.5" y="-43.2" font-family="Helvetica,sans-Serif" font-size="11.00">&lt; 7</text>
<polygon fill="#ffffff" stroke="transparent" points="90.5,-37 90.5,-55 133.5,-55 133.5,-37 90.5,-37"/>
<polygon fill="none" stroke="black" points="90.5,-37 90.5,-55 133.5,-55 133.5,-37 90.5,-37"/>
<text text-anchor="start" x="123.5" y="-43.2" font-family="Helvetica,sans-Serif" font-size="11.00"> &#160;</text>
<polygon fill="#ffffff" stroke="transparent" points="133.5,-37 133.5,-55 185.5,-55 185.5,-37 133.5,-37"/>
<polygon fill="none" stroke="black" points="133.5,-37 133.5,-55 185.5,-55 185.5,-37 133.5,-37"/>
<text text-anchor="start" x="166.5" y="-43.2" font-family="Helvetica,sans-Serif" font-size="11.00">2 &gt;</text>
</a>
</g>
</g>
<!-- building_group&#45;&gt;disposal -->
<g id="edge1" class="edge">
<title>building_group:w&#45;&gt;disposal:e</title>
<path fill="none" stroke="black" d="M219.67,-278.72C207.29,-266.64 209.56,-238 186.5,-238"/>
<polygon fill="black" stroke="black" points="226.03,-281.15 232.22,-287.36 229.76,-282.57 233.5,-284 233.5,-284 233.5,-284 229.76,-282.57 234.78,-280.64 226.03,-281.15 226.03,-281.15"/>
<ellipse fill="none" stroke="black" cx="223.04" cy="-280.01" rx="3.2" ry="3.2"/>
</g>
<!-- re_building_group_disposal -->
<g id="node3" class="node">
<title>re_building_group_disposal</title>
<g id="a_node3"><a xlink:href="../../tables/re_building_group_disposal.html" xlink:title="re_building_group_disposal" target="_top">
<polygon fill="#ffffff" stroke="transparent" points="516,-338 516,-448 798,-448 798,-338 516,-338"/>
<polygon fill="#f5f5f5" stroke="transparent" points="518,-424 518,-446 796,-446 796,-424 518,-424"/>
<polygon fill="none" stroke="black" points="518,-424 518,-446 796,-446 796,-424 518,-424"/>
<text text-anchor="start" x="523" y="-433.2" font-family="Helvetica,sans-Serif" font-weight="bold" font-size="11.00">re_building_group_disposal</text>
<text text-anchor="start" x="757" y="-432.2" font-family="Helvetica,sans-Serif" font-size="11.00">[table]</text>
<polygon fill="none" stroke="black" points="518,-402 518,-424 699,-424 699,-402 518,-402"/>
<image xlink:href="../../images/primaryKeys.png" width="11px" height="12px" preserveAspectRatio="xMinYMin meet" x="523" y="-419"/>
<text text-anchor="start" x="538" y="-410.2" font-family="Helvetica,sans-Serif" font-size="11.00">id</text>
<polygon fill="none" stroke="black" points="699,-402 699,-424 796,-424 796,-402 699,-402"/>
<text text-anchor="start" x="702" y="-410.2" font-family="Helvetica,sans-Serif" font-size="11.00">uuid[2147483647]</text>
<polygon fill="none" stroke="black" points="518,-380 518,-402 699,-402 699,-380 518,-380"/>
<image xlink:href="../../images/foreignKeys.png" width="11px" height="12px" preserveAspectRatio="xMinYMin meet" x="523" y="-397"/>
<text text-anchor="start" x="538" y="-388.2" font-family="Helvetica,sans-Serif" font-size="11.00">fk_building_group</text>
<polygon fill="none" stroke="black" points="699,-380 699,-402 796,-402 796,-380 699,-380"/>
<text text-anchor="start" x="702" y="-388.2" font-family="Helvetica,sans-Serif" font-size="11.00">varchar[16]</text>
<polygon fill="none" stroke="black" points="518,-358 518,-380 699,-380 699,-358 518,-358"/>
<image xlink:href="../../images/foreignKeys.png" width="11px" height="12px" preserveAspectRatio="xMinYMin meet" x="523" y="-375"/>
<text text-anchor="start" x="538" y="-366.2" font-family="Helvetica,sans-Serif" font-size="11.00">fk_disposal</text>
<polygon fill="none" stroke="black" points="699,-358 699,-380 796,-380 796,-358 699,-358"/>
<text text-anchor="start" x="702" y="-366.2" font-family="Helvetica,sans-Serif" font-size="11.00">varchar[16]</text>
<polygon fill="#ffffff" stroke="transparent" points="518,-340 518,-358 613,-358 613,-340 518,-340"/>
<polygon fill="none" stroke="black" points="518,-340 518,-358 613,-358 613,-340 518,-340"/>
<text text-anchor="start" x="521" y="-346.2" font-family="Helvetica,sans-Serif" font-size="11.00">&lt; 2</text>
<polygon fill="#ffffff" stroke="transparent" points="613,-340 613,-358 699,-358 699,-340 613,-340"/>
<polygon fill="none" stroke="black" points="613,-340 613,-358 699,-358 699,-340 613,-340"/>
<text text-anchor="start" x="689" y="-346.2" font-family="Helvetica,sans-Serif" font-size="11.00"> &#160;</text>
<polygon fill="#ffffff" stroke="transparent" points="699,-340 699,-358 796,-358 796,-340 699,-340"/>
<polygon fill="none" stroke="black" points="699,-340 699,-358 796,-358 796,-340 699,-340"/>
<text text-anchor="start" x="777" y="-346.2" font-family="Helvetica,sans-Serif" font-size="11.00">0 &gt;</text>
<polygon fill="none" stroke="black" stroke-width="2" points="517,-339 517,-447 797,-447 797,-339 517,-339"/>
</a>
</g>
</g>
<!-- re_building_group_disposal&#45;&gt;building_group -->
<g id="edge2" class="edge">
<title>re_building_group_disposal:w&#45;&gt;building_group:e</title>
<path fill="none" stroke="black" d="M502.76,-393.4C449.55,-414.64 545.29,-570 468.5,-570"/>
<polygon fill="black" stroke="black" points="509.11,-392.33 517.6,-394.55 513.06,-391.66 517,-391 517,-391 517,-391 513.06,-391.66 516.4,-387.45 509.11,-392.33 509.11,-392.33"/>
<ellipse fill="none" stroke="black" cx="505.96" cy="-392.86" rx="3.2" ry="3.2"/>
</g>
<!-- re_building_group_disposal&#45;&gt;disposal -->
<g id="edge3" class="edge">
<title>re_building_group_disposal:w&#45;&gt;disposal:e</title>
<path fill="none" stroke="black" d="M502.59,-367.03C455,-351.46 529.91,-247.62 475,-205 387.58,-137.14 330.03,-167.26 226,-205 204.5,-212.8 209.38,-238 186.5,-238"/>
<polygon fill="black" stroke="black" points="509.07,-367.92 516.51,-372.57 513.04,-368.46 517,-369 517,-369 517,-369 513.04,-368.46 517.49,-365.43 509.07,-367.92 509.07,-367.92"/>
<ellipse fill="none" stroke="black" cx="505.9" cy="-367.48" rx="3.2" ry="3.2"/>
</g>
</g>
</svg>
