<?xml version="1.0" encoding="UTF-8" standalone="no"?>
<!DOCTYPE svg PUBLIC "-//W3C//DTD SVG 1.1//EN"
 "http://www.w3.org/Graphics/SVG/1.1/DTD/svg11.dtd">
<!-- Generated by graphviz version 2.47.1 (20210515.0534)
 -->
<!-- Title: oneDegreeRelationshipsDiagram Pages: 1 -->
<svg width="662pt" height="692pt"
 viewBox="0.00 0.00 662.00 692.00" xmlns="http://www.w3.org/2000/svg" xmlns:xlink="http://www.w3.org/1999/xlink">
<g id="graph0" class="graph" transform="scale(1 1) rotate(0) translate(4 688)">
<title>oneDegreeRelationshipsDiagram</title>
<polygon fill="#ffffff" stroke="transparent" points="-4,4 -4,-688 658,-688 658,4 -4,4"/>
<text text-anchor="middle" x="73.5" y="-7.2" font-family="Helvetica,sans-Serif" font-size="11.00">Generated by SchemaSpy</text>
<!-- re_maintenance_event_wastewater_structure -->
<g id="node1" class="node">
<title>re_maintenance_event_wastewater_structure</title>
<g id="a_node1"><a xlink:href="../../tables/re_maintenance_event_wastewater_2bbd2eae.html" xlink:title="re_maintenance_event_wastewater_structure" target="_top">
<polygon fill="#ffffff" stroke="transparent" points="252,-389 252,-499 646,-499 646,-389 252,-389"/>
<polygon fill="#f5f5f5" stroke="transparent" points="254,-475 254,-497 644,-497 644,-475 254,-475"/>
<polygon fill="none" stroke="black" points="254,-475 254,-497 644,-497 644,-475 254,-475"/>
<text text-anchor="start" x="259" y="-484.2" font-family="Helvetica,sans-Serif" font-weight="bold" font-size="11.00">re_maintenance_event_wastewater_structure</text>
<text text-anchor="start" x="605" y="-483.2" font-family="Helvetica,sans-Serif" font-size="11.00">[table]</text>
<polygon fill="none" stroke="black" points="254,-453 254,-475 547,-475 547,-453 254,-453"/>
<image xlink:href="../../images/primaryKeys.png" width="11px" height="12px" preserveAspectRatio="xMinYMin meet" x="259" y="-470"/>
<text text-anchor="start" x="274" y="-461.2" font-family="Helvetica,sans-Serif" font-size="11.00">id</text>
<polygon fill="none" stroke="black" points="547,-453 547,-475 644,-475 644,-453 547,-453"/>
<text text-anchor="start" x="550" y="-461.2" font-family="Helvetica,sans-Serif" font-size="11.00">uuid[2147483647]</text>
<polygon fill="none" stroke="black" points="254,-431 254,-453 547,-453 547,-431 254,-431"/>
<image xlink:href="../../images/foreignKeys.png" width="11px" height="12px" preserveAspectRatio="xMinYMin meet" x="259" y="-448"/>
<text text-anchor="start" x="274" y="-439.2" font-family="Helvetica,sans-Serif" font-size="11.00">fk_wastewater_structure</text>
<polygon fill="none" stroke="black" points="547,-431 547,-453 644,-453 644,-431 547,-431"/>
<text text-anchor="start" x="550" y="-439.2" font-family="Helvetica,sans-Serif" font-size="11.00">varchar[16]</text>
<polygon fill="none" stroke="black" points="254,-409 254,-431 547,-431 547,-409 254,-409"/>
<image xlink:href="../../images/foreignKeys.png" width="11px" height="12px" preserveAspectRatio="xMinYMin meet" x="259" y="-426"/>
<text text-anchor="start" x="274" y="-417.2" font-family="Helvetica,sans-Serif" font-size="11.00">fk_maintenance_event</text>
<polygon fill="none" stroke="black" points="547,-409 547,-431 644,-431 644,-409 547,-409"/>
<text text-anchor="start" x="550" y="-417.2" font-family="Helvetica,sans-Serif" font-size="11.00">varchar[16]</text>
<polygon fill="#ffffff" stroke="transparent" points="254,-391 254,-409 405,-409 405,-391 254,-391"/>
<polygon fill="none" stroke="black" points="254,-391 254,-409 405,-409 405,-391 254,-391"/>
<text text-anchor="start" x="257" y="-397.2" font-family="Helvetica,sans-Serif" font-size="11.00">&lt; 2</text>
<polygon fill="#ffffff" stroke="transparent" points="405,-391 405,-409 547,-409 547,-391 405,-391"/>
<polygon fill="none" stroke="black" points="405,-391 405,-409 547,-409 547,-391 405,-391"/>
<text text-anchor="start" x="537" y="-397.2" font-family="Helvetica,sans-Serif" font-size="11.00"> &#160;</text>
<polygon fill="#ffffff" stroke="transparent" points="547,-391 547,-409 644,-409 644,-391 547,-391"/>
<polygon fill="none" stroke="black" points="547,-391 547,-409 644,-409 644,-391 547,-391"/>
<text text-anchor="start" x="625" y="-397.2" font-family="Helvetica,sans-Serif" font-size="11.00">0 &gt;</text>
<polygon fill="none" stroke="black" stroke-width="2" points="253,-390 253,-498 645,-498 645,-390 253,-390"/>
</a>
</g>
</g>
<!-- maintenance_event -->
<g id="node2" class="node">
<title>maintenance_event</title>
<g id="a_node2"><a xlink:href="../../tables/maintenance_event.html" xlink:title="maintenance_event" target="_top">
<polygon fill="#ffffff" stroke="transparent" points="24.5,-37 24.5,-249 186.5,-249 186.5,-37 24.5,-37"/>
<polygon fill="#f5f5f5" stroke="transparent" points="24.5,-227 24.5,-249 186.5,-249 186.5,-227 24.5,-227"/>
<polygon fill="none" stroke="black" points="24.5,-227 24.5,-249 186.5,-249 186.5,-227 24.5,-227"/>
<text text-anchor="start" x="29.5" y="-236.2" font-family="Helvetica,sans-Serif" font-weight="bold" font-size="11.00">maintenance_event</text>
<text text-anchor="start" x="147.5" y="-235.2" font-family="Helvetica,sans-Serif" font-size="11.00">[table]</text>
<polygon fill="none" stroke="black" points="24.5,-205 24.5,-227 186.5,-227 186.5,-205 24.5,-205"/>
<image xlink:href="../../images/primaryKeys.png" width="11px" height="12px" preserveAspectRatio="xMinYMin meet" x="29.5" y="-222"/>
<text text-anchor="start" x="47.5" y="-213.2" font-family="Helvetica,sans-Serif" font-size="11.00">obj_id</text>
<polygon fill="#ffffff" stroke="transparent" points="24.5,-183 24.5,-205 186.5,-205 186.5,-183 24.5,-183"/>
<polygon fill="none" stroke="black" points="24.5,-183 24.5,-205 186.5,-205 186.5,-183 24.5,-183"/>
<text text-anchor="start" x="47.5" y="-191.2" font-family="Helvetica,sans-Serif" font-size="11.00">identifier</text>
<polygon fill="none" stroke="black" points="24.5,-161 24.5,-183 186.5,-183 186.5,-161 24.5,-161"/>
<image xlink:href="../../images/foreignKeys.png" width="11px" height="12px" preserveAspectRatio="xMinYMin meet" x="29.5" y="-178"/>
<text text-anchor="start" x="47.5" y="-169.2" font-family="Helvetica,sans-Serif" font-size="11.00">status</text>
<polygon fill="#ffffff" stroke="transparent" points="24.5,-139 24.5,-161 186.5,-161 186.5,-139 24.5,-139"/>
<polygon fill="none" stroke="black" points="24.5,-139 24.5,-161 186.5,-161 186.5,-139 24.5,-139"/>
<image xlink:href="../../images/foreignKeys.png" width="11px" height="12px" preserveAspectRatio="xMinYMin meet" x="29.5" y="-156"/>
<text text-anchor="start" x="47.5" y="-147.2" font-family="Helvetica,sans-Serif" font-size="11.00">fk_dataowner</text>
<polygon fill="none" stroke="black" points="24.5,-117 24.5,-139 186.5,-139 186.5,-117 24.5,-117"/>
<image xlink:href="../../images/foreignKeys.png" width="11px" height="12px" preserveAspectRatio="xMinYMin meet" x="29.5" y="-134"/>
<text text-anchor="start" x="47.5" y="-125.2" font-family="Helvetica,sans-Serif" font-size="11.00">fk_provider</text>
<polygon fill="none" stroke="black" points="24.5,-95 24.5,-117 186.5,-117 186.5,-95 24.5,-95"/>
<image xlink:href="../../images/foreignKeys.png" width="11px" height="12px" preserveAspectRatio="xMinYMin meet" x="29.5" y="-112"/>
<text text-anchor="start" x="47.5" y="-103.2" font-family="Helvetica,sans-Serif" font-size="11.00">fk_operating_company</text>
<polygon fill="none" stroke="black" points="24.5,-73 24.5,-95 186.5,-95 186.5,-73 24.5,-73"/>
<image xlink:href="../../images/foreignKeys.png" width="11px" height="12px" preserveAspectRatio="xMinYMin meet" x="29.5" y="-90"/>
<text text-anchor="start" x="47.5" y="-81.2" font-family="Helvetica,sans-Serif" font-size="11.00">fk_measure</text>
<polygon fill="none" stroke="black" points="24.5,-55 24.5,-73 186.5,-73 186.5,-55 24.5,-55"/>
<text text-anchor="start" x="27.5" y="-61.2" font-family="Helvetica,sans-Serif" font-size="11.00">...</text>
<polygon fill="#ffffff" stroke="transparent" points="24.5,-37 24.5,-55 98.5,-55 98.5,-37 24.5,-37"/>
<polygon fill="none" stroke="black" points="24.5,-37 24.5,-55 98.5,-55 98.5,-37 24.5,-37"/>
<text text-anchor="start" x="27.5" y="-43.2" font-family="Helvetica,sans-Serif" font-size="11.00">&lt; 5</text>
<polygon fill="#ffffff" stroke="transparent" points="98.5,-37 98.5,-55 137.5,-55 137.5,-37 98.5,-37"/>
<polygon fill="none" stroke="black" points="98.5,-37 98.5,-55 137.5,-55 137.5,-37 98.5,-37"/>
<text text-anchor="start" x="127.5" y="-43.2" font-family="Helvetica,sans-Serif" font-size="11.00"> &#160;</text>
<polygon fill="#ffffff" stroke="transparent" points="137.5,-37 137.5,-55 186.5,-55 186.5,-37 137.5,-37"/>
<polygon fill="none" stroke="black" points="137.5,-37 137.5,-55 186.5,-55 186.5,-37 137.5,-37"/>
<text text-anchor="start" x="167.5" y="-43.2" font-family="Helvetica,sans-Serif" font-size="11.00">4 &gt;</text>
</a>
</g>
</g>
<!-- re_maintenance_event_wastewater_structure&#45;&gt;maintenance_event -->
<g id="edge1" class="edge">
<title>re_maintenance_event_wastewater_structure:w&#45;&gt;maintenance_event:e</title>
<path fill="none" stroke="black" d="M238.44,-417.98C171.66,-396.79 277.15,-216 187.5,-216"/>
<polygon fill="black" stroke="black" points="245.08,-418.9 252.51,-423.57 249.04,-419.45 253,-420 253,-420 253,-420 249.04,-419.45 253.49,-416.43 245.08,-418.9 245.08,-418.9"/>
<ellipse fill="none" stroke="black" cx="241.91" cy="-418.46" rx="3.2" ry="3.2"/>
</g>
<!-- wastewater_structure -->
<g id="node3" class="node">
<title>wastewater_structure</title>
<g id="a_node3"><a xlink:href="../../tables/wastewater_structure.html" xlink:title="wastewater_structure" target="_top">
<polygon fill="#ffffff" stroke="transparent" points="8,-270 8,-680 203,-680 203,-270 8,-270"/>
<polygon fill="#f5f5f5" stroke="transparent" points="8.5,-658 8.5,-680 203.5,-680 203.5,-658 8.5,-658"/>
<polygon fill="none" stroke="black" points="8.5,-658 8.5,-680 203.5,-680 203.5,-658 8.5,-658"/>
<text text-anchor="start" x="13.5" y="-667.2" font-family="Helvetica,sans-Serif" font-weight="bold" font-size="11.00">wastewater_structure</text>
<text text-anchor="start" x="164.5" y="-666.2" font-family="Helvetica,sans-Serif" font-size="11.00">[table]</text>
<polygon fill="none" stroke="black" points="8.5,-636 8.5,-658 203.5,-658 203.5,-636 8.5,-636"/>
<image xlink:href="../../images/primaryKeys.png" width="11px" height="12px" preserveAspectRatio="xMinYMin meet" x="13.5" y="-653"/>
<text text-anchor="start" x="28.5" y="-644.2" font-family="Helvetica,sans-Serif" font-size="11.00">obj_id</text>
<polygon fill="none" stroke="black" points="8.5,-614 8.5,-636 203.5,-636 203.5,-614 8.5,-614"/>
<image xlink:href="../../images/foreignKeys.png" width="11px" height="12px" preserveAspectRatio="xMinYMin meet" x="13.5" y="-631"/>
<text text-anchor="start" x="28.5" y="-622.2" font-family="Helvetica,sans-Serif" font-size="11.00">accessibility</text>
<polygon fill="#ffffff" stroke="transparent" points="8.5,-592 8.5,-614 203.5,-614 203.5,-592 8.5,-592"/>
<polygon fill="none" stroke="black" points="8.5,-592 8.5,-614 203.5,-614 203.5,-592 8.5,-592"/>
<text text-anchor="start" x="28.5" y="-600.2" font-family="Helvetica,sans-Serif" font-size="11.00">detail_geometry3d_geometry</text>
<polygon fill="none" stroke="black" points="8.5,-570 8.5,-592 203.5,-592 203.5,-570 8.5,-570"/>
<image xlink:href="../../images/foreignKeys.png" width="11px" height="12px" preserveAspectRatio="xMinYMin meet" x="13.5" y="-587"/>
<text text-anchor="start" x="28.5" y="-578.2" font-family="Helvetica,sans-Serif" font-size="11.00">elevation_determination</text>
<polygon fill="none" stroke="black" points="8.5,-548 8.5,-570 203.5,-570 203.5,-548 8.5,-548"/>
<image xlink:href="../../images/foreignKeys.png" width="11px" height="12px" preserveAspectRatio="xMinYMin meet" x="13.5" y="-565"/>
<text text-anchor="start" x="28.5" y="-556.2" font-family="Helvetica,sans-Serif" font-size="11.00">financing</text>
<polygon fill="#ffffff" stroke="transparent" points="8.5,-526 8.5,-548 203.5,-548 203.5,-526 8.5,-526"/>
<polygon fill="none" stroke="black" points="8.5,-526 8.5,-548 203.5,-548 203.5,-526 8.5,-526"/>
<text text-anchor="start" x="28.5" y="-534.2" font-family="Helvetica,sans-Serif" font-size="11.00">identifier</text>
<polygon fill="none" stroke="black" points="8.5,-504 8.5,-526 203.5,-526 203.5,-504 8.5,-504"/>
<image xlink:href="../../images/foreignKeys.png" width="11px" height="12px" preserveAspectRatio="xMinYMin meet" x="13.5" y="-521"/>
<text text-anchor="start" x="28.5" y="-512.2" font-family="Helvetica,sans-Serif" font-size="11.00">renovation_necessity</text>
<polygon fill="none" stroke="black" points="8.5,-482 8.5,-504 203.5,-504 203.5,-482 8.5,-482"/>
<image xlink:href="../../images/foreignKeys.png" width="11px" height="12px" preserveAspectRatio="xMinYMin meet" x="13.5" y="-499"/>
<text text-anchor="start" x="28.5" y="-490.2" font-family="Helvetica,sans-Serif" font-size="11.00">rv_construction_type</text>
<polygon fill="none" stroke="black" points="8.5,-460 8.5,-482 203.5,-482 203.5,-460 8.5,-460"/>
<image xlink:href="../../images/foreignKeys.png" width="11px" height="12px" preserveAspectRatio="xMinYMin meet" x="13.5" y="-477"/>
<text text-anchor="start" x="28.5" y="-468.2" font-family="Helvetica,sans-Serif" font-size="11.00">status</text>
<polygon fill="none" stroke="black" points="8.5,-438 8.5,-460 203.5,-460 203.5,-438 8.5,-438"/>
<image xlink:href="../../images/foreignKeys.png" width="11px" height="12px" preserveAspectRatio="xMinYMin meet" x="13.5" y="-455"/>
<text text-anchor="start" x="28.5" y="-446.2" font-family="Helvetica,sans-Serif" font-size="11.00">structure_condition</text>
<polygon fill="#ffffff" stroke="transparent" points="8.5,-416 8.5,-438 203.5,-438 203.5,-416 8.5,-416"/>
<polygon fill="none" stroke="black" points="8.5,-416 8.5,-438 203.5,-438 203.5,-416 8.5,-416"/>
<image xlink:href="../../images/foreignKeys.png" width="11px" height="12px" preserveAspectRatio="xMinYMin meet" x="13.5" y="-433"/>
<text text-anchor="start" x="28.5" y="-424.2" font-family="Helvetica,sans-Serif" font-size="11.00">fk_dataowner</text>
<polygon fill="none" stroke="black" points="8.5,-394 8.5,-416 203.5,-416 203.5,-394 8.5,-394"/>
<image xlink:href="../../images/foreignKeys.png" width="11px" height="12px" preserveAspectRatio="xMinYMin meet" x="13.5" y="-411"/>
<text text-anchor="start" x="28.5" y="-402.2" font-family="Helvetica,sans-Serif" font-size="11.00">fk_provider</text>
<polygon fill="none" stroke="black" points="8.5,-372 8.5,-394 203.5,-394 203.5,-372 8.5,-372"/>
<image xlink:href="../../images/foreignKeys.png" width="11px" height="12px" preserveAspectRatio="xMinYMin meet" x="13.5" y="-389"/>
<text text-anchor="start" x="28.5" y="-380.2" font-family="Helvetica,sans-Serif" font-size="11.00">fk_owner</text>
<polygon fill="none" stroke="black" points="8.5,-350 8.5,-372 203.5,-372 203.5,-350 8.5,-350"/>
<image xlink:href="../../images/foreignKeys.png" width="11px" height="12px" preserveAspectRatio="xMinYMin meet" x="13.5" y="-367"/>
<text text-anchor="start" x="28.5" y="-358.2" font-family="Helvetica,sans-Serif" font-size="11.00">fk_operator</text>
<polygon fill="none" stroke="black" points="8.5,-328 8.5,-350 203.5,-350 203.5,-328 8.5,-328"/>
<image xlink:href="../../images/foreignKeys.png" width="11px" height="12px" preserveAspectRatio="xMinYMin meet" x="13.5" y="-345"/>
<text text-anchor="start" x="28.5" y="-336.2" font-family="Helvetica,sans-Serif" font-size="11.00">fk_main_cover</text>
<polygon fill="none" stroke="black" points="8.5,-306 8.5,-328 203.5,-328 203.5,-306 8.5,-306"/>
<image xlink:href="../../images/foreignKeys.png" width="11px" height="12px" preserveAspectRatio="xMinYMin meet" x="13.5" y="-323"/>
<text text-anchor="start" x="28.5" y="-314.2" font-family="Helvetica,sans-Serif" font-size="11.00">fk_main_wastewater_node</text>
<polygon fill="none" stroke="black" points="8.5,-288 8.5,-306 203.5,-306 203.5,-288 8.5,-288"/>
<text text-anchor="start" x="11.5" y="-294.2" font-family="Helvetica,sans-Serif" font-size="11.00">...</text>
<polygon fill="#ffffff" stroke="transparent" points="8.5,-270 8.5,-288 99.5,-288 99.5,-270 8.5,-270"/>
<polygon fill="none" stroke="black" points="8.5,-270 8.5,-288 99.5,-288 99.5,-270 8.5,-270"/>
<text text-anchor="start" x="11.5" y="-276.2" font-family="Helvetica,sans-Serif" font-size="11.00">&lt; 13</text>
<polygon fill="#ffffff" stroke="transparent" points="99.5,-270 99.5,-288 143.5,-288 143.5,-270 99.5,-270"/>
<polygon fill="none" stroke="black" points="99.5,-270 99.5,-288 143.5,-288 143.5,-270 99.5,-270"/>
<text text-anchor="start" x="133.5" y="-276.2" font-family="Helvetica,sans-Serif" font-size="11.00"> &#160;</text>
<polygon fill="#ffffff" stroke="transparent" points="143.5,-270 143.5,-288 203.5,-288 203.5,-270 143.5,-270"/>
<polygon fill="none" stroke="black" points="143.5,-270 143.5,-288 203.5,-288 203.5,-270 143.5,-270"/>
<text text-anchor="start" x="178.5" y="-276.2" font-family="Helvetica,sans-Serif" font-size="11.00">16 &gt;</text>
</a>
</g>
</g>
<!-- re_maintenance_event_wastewater_structure&#45;&gt;wastewater_structure -->
<g id="edge2" class="edge">
<title>re_maintenance_event_wastewater_structure:w&#45;&gt;wastewater_structure:e</title>
<path fill="none" stroke="black" d="M238.45,-444.16C175.32,-466.07 292.46,-647 204.5,-647"/>
<polygon fill="black" stroke="black" points="245.09,-443.18 253.53,-445.56 249.04,-442.59 253,-442 253,-442 253,-442 249.04,-442.59 252.47,-438.44 245.09,-443.18 245.09,-443.18"/>
<ellipse fill="none" stroke="black" cx="241.92" cy="-443.65" rx="3.2" ry="3.2"/>
</g>
</g>
</svg>
