<?xml version="1.0" encoding="UTF-8" standalone="no"?>
<!DOCTYPE svg PUBLIC "-//W3C//DTD SVG 1.1//EN"
 "http://www.w3.org/Graphics/SVG/1.1/DTD/svg11.dtd">
<!-- Generated by graphviz version 2.43.0 (0)
 -->
<!-- Title: oneDegreeRelationshipsDiagram Pages: 1 -->
<svg width="849pt" height="491pt"
 viewBox="0.00 0.00 849.00 491.00" xmlns="http://www.w3.org/2000/svg" xmlns:xlink="http://www.w3.org/1999/xlink">
<g id="graph0" class="graph" transform="scale(1 1) rotate(0) translate(4 487)">
<title>oneDegreeRelationshipsDiagram</title>
<polygon fill="#ffffff" stroke="transparent" points="-4,4 -4,-487 845,-487 845,4 -4,4"/>
<text text-anchor="middle" x="79.5" y="-7.2" font-family="Helvetica,sans-Serif" font-size="11.00">Generated by SchemaSpy</text>
<!-- reach_progression_alternative -->
<g id="node1" class="node">
<title>reach_progression_alternative</title>
<g id="a_node1"><a xlink:href="../../tables/reach_progression_alternative.html" xlink:title="reach_progression_alternative" target="_top">
<polygon fill="#ffffff" stroke="transparent" points="451,-325 451,-479 833,-479 833,-325 451,-325"/>
<polygon fill="#f5f5f5" stroke="transparent" points="453,-455 453,-477 831,-477 831,-455 453,-455"/>
<polygon fill="none" stroke="black" points="453,-455 453,-477 831,-477 831,-455 453,-455"/>
<text text-anchor="start" x="458" y="-464.2" font-family="Helvetica,sans-Serif" font-weight="bold" font-size="11.00">reach_progression_alternative</text>
<text text-anchor="start" x="789" y="-463.2" font-family="Helvetica,sans-Serif" font-size="11.00">[table]</text>
<polygon fill="none" stroke="black" points="453,-433 453,-455 695,-455 695,-433 453,-433"/>
<image xlink:href="../../images/primaryKeys.png" width="11px" height="12px" preserveAspectRatio="xMinYMin meet" x="458" y="-450"/>
<text text-anchor="start" x="473" y="-441.2" font-family="Helvetica,sans-Serif" font-size="11.00">obj_id</text>
<polygon fill="none" stroke="black" points="695,-433 695,-455 831,-455 831,-433 695,-433"/>
<text text-anchor="start" x="698" y="-441.2" font-family="Helvetica,sans-Serif" font-size="11.00">varchar[16]</text>
<polygon fill="none" stroke="black" points="453,-411 453,-433 695,-433 695,-411 453,-411"/>
<image xlink:href="../../images/foreignKeys.png" width="11px" height="12px" preserveAspectRatio="xMinYMin meet" x="458" y="-428"/>
<text text-anchor="start" x="473" y="-419.2" font-family="Helvetica,sans-Serif" font-size="11.00">plantype</text>
<polygon fill="none" stroke="black" points="695,-411 695,-433 831,-433 831,-411 695,-411"/>
<text text-anchor="start" x="698" y="-419.2" font-family="Helvetica,sans-Serif" font-size="11.00">int4[10]</text>
<polygon fill="#ffffff" stroke="transparent" points="453,-389 453,-411 695,-411 695,-389 453,-389"/>
<polygon fill="none" stroke="black" points="453,-389 453,-411 695,-411 695,-389 453,-389"/>
<text text-anchor="start" x="473" y="-397.2" font-family="Helvetica,sans-Serif" font-size="11.00">progression_geometry</text>
<polygon fill="none" stroke="black" points="695,-389 695,-411 831,-411 831,-389 695,-389"/>
<text text-anchor="start" x="698" y="-397.2" font-family="Helvetica,sans-Serif" font-size="11.00">geometry[2147483647]</text>
<polygon fill="none" stroke="black" points="453,-367 453,-389 695,-389 695,-367 453,-367"/>
<text text-anchor="start" x="473" y="-375.2" font-family="Helvetica,sans-Serif" font-size="11.00">last_modification</text>
<polygon fill="none" stroke="black" points="695,-367 695,-389 831,-389 831,-367 695,-367"/>
<text text-anchor="start" x="698" y="-375.2" font-family="Helvetica,sans-Serif" font-size="11.00">timestamp[29,6]</text>
<polygon fill="none" stroke="black" points="453,-345 453,-367 695,-367 695,-345 453,-345"/>
<image xlink:href="../../images/foreignKeys.png" width="11px" height="12px" preserveAspectRatio="xMinYMin meet" x="458" y="-362"/>
<text text-anchor="start" x="473" y="-353.2" font-family="Helvetica,sans-Serif" font-size="11.00">fk_reach</text>
<polygon fill="none" stroke="black" points="695,-345 695,-367 831,-367 831,-345 695,-345"/>
<text text-anchor="start" x="698" y="-353.2" font-family="Helvetica,sans-Serif" font-size="11.00">varchar[16]</text>
<polygon fill="#ffffff" stroke="transparent" points="453,-327 453,-345 831,-345 831,-327 453,-327"/>
<polygon fill="none" stroke="black" points="453,-327 453,-345 831,-345 831,-327 453,-327"/>
<polygon fill="#ffffff" stroke="transparent" points="454,-328 454,-344 584,-344 584,-328 454,-328"/>
<text text-anchor="start" x="456" y="-333.2" font-family="Helvetica,sans-Serif" font-size="11.00">&lt; 2</text>
<polygon fill="#ffffff" stroke="transparent" points="584,-328 584,-344 701,-344 701,-328 584,-328"/>
<text text-anchor="start" x="638.5" y="-333.2" font-family="Helvetica,sans-Serif" font-size="11.00"> &#160;</text>
<polygon fill="#ffffff" stroke="transparent" points="701,-328 701,-344 830,-344 830,-328 701,-328"/>
<text text-anchor="start" x="808" y="-333.2" font-family="Helvetica,sans-Serif" font-size="11.00">0 &gt;</text>
<polygon fill="black" stroke="black" points="584,-328 584,-344 584,-344 584,-328 584,-328"/>
<polygon fill="black" stroke="black" points="701,-328 701,-344 701,-344 701,-328 701,-328"/>
<polygon fill="none" stroke="black" stroke-width="2" points="452,-326 452,-478 832,-478 832,-326 452,-326"/>
</a>
</g>
</g>
<!-- reach -->
<g id="node2" class="node">
<title>reach</title>
<g id="a_node2"><a xlink:href="../../tables/reach.html" xlink:title="reach" target="_top">
<polygon fill="#ffffff" stroke="transparent" points="59.5,-37 59.5,-381 350.5,-381 350.5,-37 59.5,-37"/>
<polygon fill="#f5f5f5" stroke="transparent" points="60,-359 60,-381 351,-381 351,-359 60,-359"/>
<polygon fill="none" stroke="black" points="60,-359 60,-381 351,-381 351,-359 60,-359"/>
<text text-anchor="start" x="65" y="-368.2" font-family="Helvetica,sans-Serif" font-weight="bold" font-size="11.00">reach</text>
<text text-anchor="start" x="309" y="-367.2" font-family="Helvetica,sans-Serif" font-size="11.00">[table]</text>
<polygon fill="none" stroke="black" points="60,-337 60,-359 351,-359 351,-337 60,-337"/>
<image xlink:href="../../images/primaryKeys.png" width="11px" height="12px" preserveAspectRatio="xMinYMin meet" x="65" y="-354"/>
<text text-anchor="start" x="80" y="-345.2" font-family="Helvetica,sans-Serif" font-size="11.00">obj_id</text>
<polygon fill="none" stroke="black" points="60,-315 60,-337 351,-337 351,-315 60,-315"/>
<image xlink:href="../../images/foreignKeys.png" width="11px" height="12px" preserveAspectRatio="xMinYMin meet" x="65" y="-332"/>
<text text-anchor="start" x="80" y="-323.2" font-family="Helvetica,sans-Serif" font-size="11.00">elevation_determination</text>
<polygon fill="none" stroke="black" points="60,-293 60,-315 351,-315 351,-293 60,-293"/>
<image xlink:href="../../images/foreignKeys.png" width="11px" height="12px" preserveAspectRatio="xMinYMin meet" x="65" y="-310"/>
<text text-anchor="start" x="80" y="-301.2" font-family="Helvetica,sans-Serif" font-size="11.00">horizontal_positioning</text>
<polygon fill="none" stroke="black" points="60,-271 60,-293 351,-293 351,-271 60,-271"/>
<image xlink:href="../../images/foreignKeys.png" width="11px" height="12px" preserveAspectRatio="xMinYMin meet" x="65" y="-288"/>
<text text-anchor="start" x="80" y="-279.2" font-family="Helvetica,sans-Serif" font-size="11.00">inside_coating</text>
<polygon fill="none" stroke="black" points="60,-249 60,-271 351,-271 351,-249 60,-249"/>
<image xlink:href="../../images/foreignKeys.png" width="11px" height="12px" preserveAspectRatio="xMinYMin meet" x="65" y="-266"/>
<text text-anchor="start" x="80" y="-257.2" font-family="Helvetica,sans-Serif" font-size="11.00">leak_protection</text>
<polygon fill="none" stroke="black" points="60,-227 60,-249 351,-249 351,-227 60,-227"/>
<image xlink:href="../../images/foreignKeys.png" width="11px" height="12px" preserveAspectRatio="xMinYMin meet" x="65" y="-244"/>
<text text-anchor="start" x="80" y="-235.2" font-family="Helvetica,sans-Serif" font-size="11.00">material</text>
<polygon fill="#ffffff" stroke="transparent" points="60,-205 60,-227 351,-227 351,-205 60,-205"/>
<polygon fill="none" stroke="black" points="60,-205 60,-227 351,-227 351,-205 60,-205"/>
<text text-anchor="start" x="80" y="-213.2" font-family="Helvetica,sans-Serif" font-size="11.00">progression3d_geometry</text>
<polygon fill="none" stroke="black" points="60,-183 60,-205 351,-205 351,-183 60,-183"/>
<image xlink:href="../../images/foreignKeys.png" width="11px" height="12px" preserveAspectRatio="xMinYMin meet" x="65" y="-200"/>
<text text-anchor="start" x="80" y="-191.2" font-family="Helvetica,sans-Serif" font-size="11.00">reliner_material</text>
<polygon fill="none" stroke="black" points="60,-161 60,-183 351,-183 351,-161 60,-161"/>
<image xlink:href="../../images/foreignKeys.png" width="11px" height="12px" preserveAspectRatio="xMinYMin meet" x="65" y="-178"/>
<text text-anchor="start" x="80" y="-169.2" font-family="Helvetica,sans-Serif" font-size="11.00">relining_construction</text>
<polygon fill="none" stroke="black" points="60,-139 60,-161 351,-161 351,-139 60,-139"/>
<image xlink:href="../../images/foreignKeys.png" width="11px" height="12px" preserveAspectRatio="xMinYMin meet" x="65" y="-156"/>
<text text-anchor="start" x="80" y="-147.2" font-family="Helvetica,sans-Serif" font-size="11.00">relining_kind</text>
<polygon fill="none" stroke="black" points="60,-117 60,-139 351,-139 351,-117 60,-117"/>
<image xlink:href="../../images/foreignKeys.png" width="11px" height="12px" preserveAspectRatio="xMinYMin meet" x="65" y="-134"/>
<text text-anchor="start" x="80" y="-125.2" font-family="Helvetica,sans-Serif" font-size="11.00">fk_reach_point_from</text>
<polygon fill="none" stroke="black" points="60,-95 60,-117 351,-117 351,-95 60,-95"/>
<image xlink:href="../../images/foreignKeys.png" width="11px" height="12px" preserveAspectRatio="xMinYMin meet" x="65" y="-112"/>
<text text-anchor="start" x="80" y="-103.2" font-family="Helvetica,sans-Serif" font-size="11.00">fk_reach_point_to</text>
<polygon fill="none" stroke="black" points="60,-73 60,-95 351,-95 351,-73 60,-73"/>
<image xlink:href="../../images/foreignKeys.png" width="11px" height="12px" preserveAspectRatio="xMinYMin meet" x="65" y="-90"/>
<text text-anchor="start" x="80" y="-81.2" font-family="Helvetica,sans-Serif" font-size="11.00">fk_pipe_profile</text>
<polygon fill="none" stroke="black" points="60,-55 60,-73 351,-73 351,-55 60,-55"/>
<text text-anchor="start" x="63" y="-61.2" font-family="Helvetica,sans-Serif" font-size="11.00">...</text>
<polygon fill="#ffffff" stroke="transparent" points="60,-37 60,-55 351,-55 351,-37 60,-37"/>
<polygon fill="none" stroke="black" points="60,-37 60,-55 351,-55 351,-37 60,-37"/>
<polygon fill="#ffffff" stroke="transparent" points="61,-38 61,-54 166,-54 166,-38 61,-38"/>
<text text-anchor="start" x="63" y="-43.2" font-family="Helvetica,sans-Serif" font-size="11.00">&lt; 12</text>
<polygon fill="#ffffff" stroke="transparent" points="166,-38 166,-54 252,-54 252,-38 166,-38"/>
<text text-anchor="start" x="205" y="-43.2" font-family="Helvetica,sans-Serif" font-size="11.00"> &#160;</text>
<polygon fill="#ffffff" stroke="transparent" points="252,-38 252,-54 350,-54 350,-38 252,-38"/>
<text text-anchor="start" x="328" y="-43.2" font-family="Helvetica,sans-Serif" font-size="11.00">3 &gt;</text>
<polygon fill="black" stroke="black" points="166,-38 166,-54 166,-54 166,-38 166,-38"/>
<polygon fill="black" stroke="black" points="252,-38 252,-54 252,-54 252,-38 252,-38"/>
</a>
</g>
</g>
<!-- reach_progression_alternative&#45;&gt;reach -->
<g id="edge1" class="edge">
<title>reach_progression_alternative:w&#45;&gt;reach:e</title>
<path fill="none" stroke="black" d="M437.17,-355.68C404.3,-354.18 391.19,-348 352,-348"/>
<polygon fill="black" stroke="black" points="444,-355.83 451.92,-359.6 448,-355.91 452,-356 452,-356 452,-356 448,-355.91 452.08,-352.4 444,-355.83 444,-355.83"/>
<ellipse fill="none" stroke="black" cx="440.8" cy="-355.76" rx="3.2" ry="3.2"/>
</g>
<!-- tww_vl.reach_progression_alternative_plantype -->
<g id="node3" class="node">
<title>tww_vl.reach_progression_alternative_plantype</title>
<g id="a_node3"><a xlink:href="../../../tww_vl/tables/reach_progression_alternative_plantype.html" xlink:title="tww_vl.reach_progression_alternative_plantype" target="_top">
<polygon fill="#ffffff" stroke="transparent" points="8,-402 8,-460 402,-460 402,-402 8,-402"/>
<polygon fill="#f5f5f5" stroke="transparent" points="8,-438 8,-460 402,-460 402,-438 8,-438"/>
<polygon fill="none" stroke="black" points="8,-438 8,-460 402,-460 402,-438 8,-438"/>
<text text-anchor="start" x="13" y="-447.2" font-family="Helvetica,sans-Serif" font-weight="bold" font-size="11.00">tww_vl.reach_progression_alternative_plantype</text>
<text text-anchor="start" x="360" y="-446.2" font-family="Helvetica,sans-Serif" font-size="11.00">[table]</text>
<polygon fill="none" stroke="black" points="8,-420 8,-438 402,-438 402,-420 8,-420"/>
<text text-anchor="start" x="11" y="-426.2" font-family="Helvetica,sans-Serif" font-size="11.00">...</text>
<polygon fill="#ffffff" stroke="transparent" points="8,-402 8,-420 402,-420 402,-402 8,-402"/>
<polygon fill="none" stroke="black" points="8,-402 8,-420 402,-420 402,-402 8,-402"/>
<polygon fill="#ffffff" stroke="transparent" points="9,-403 9,-419 126,-419 126,-403 9,-403"/>
<text text-anchor="start" x="11" y="-408.2" font-family="Helvetica,sans-Serif" font-size="11.00"> &#160;</text>
<polygon fill="#ffffff" stroke="transparent" points="126,-403 126,-419 272,-419 272,-403 126,-403"/>
<text text-anchor="start" x="180.5" y="-408.2" font-family="Helvetica,sans-Serif" font-size="11.00">0 rows</text>
<polygon fill="#ffffff" stroke="transparent" points="272,-403 272,-419 401,-419 401,-403 272,-403"/>
<text text-anchor="start" x="379" y="-408.2" font-family="Helvetica,sans-Serif" font-size="11.00">1 &gt;</text>
<polygon fill="black" stroke="black" points="126,-403 126,-419 126,-419 126,-403 126,-403"/>
<polygon fill="black" stroke="black" points="272,-403 272,-419 272,-419 272,-403 272,-403"/>
</a>
</g>
</g>
<!-- reach_progression_alternative&#45;&gt;tww_vl.reach_progression_alternative_plantype -->
<g id="edge2" class="edge">
<title>reach_progression_alternative:w&#45;&gt;tww_vl.reach_progression_alternative_plantype:e</title>
<path fill="none" stroke="black" d="M437.43,-422.05C428.4,-422.11 419.23,-422.23 410.02,-422.39"/>
<polygon fill="black" stroke="black" points="444,-422.03 452.01,-425.6 448,-422.01 452,-422 452,-422 452,-422 448,-422.01 451.99,-418.4 444,-422.03 444,-422.03"/>
<ellipse fill="none" stroke="black" cx="440.8" cy="-422.04" rx="3.2" ry="3.2"/>
</g>
</g>
</svg>
