<?xml version="1.0" encoding="UTF-8" standalone="no"?>
<!DOCTYPE svg PUBLIC "-//W3C//DTD SVG 1.1//EN"
 "http://www.w3.org/Graphics/SVG/1.1/DTD/svg11.dtd">
<!-- Generated by graphviz version 2.43.0 (0)
 -->
<!-- Title: oneDegreeRelationshipsDiagram Pages: 1 -->
<svg width="1014pt" height="720pt"
 viewBox="0.00 0.00 1014.00 720.00" xmlns="http://www.w3.org/2000/svg" xmlns:xlink="http://www.w3.org/1999/xlink">
<g id="graph0" class="graph" transform="scale(1 1) rotate(0) translate(4 716)">
<title>oneDegreeRelationshipsDiagram</title>
<polygon fill="#ffffff" stroke="transparent" points="-4,4 -4,-716 1010,-716 1010,4 -4,4"/>
<text text-anchor="middle" x="79.5" y="-7.2" font-family="Helvetica,sans-Serif" font-size="11.00">Generated by SchemaSpy</text>
<!-- sludge_treatment -->
<g id="node1" class="node">
<title>sludge_treatment</title>
<g id="a_node1"><a xlink:href="../../tables/sludge_treatment.html" xlink:title="sludge_treatment" target="_top">
<polygon fill="#ffffff" stroke="transparent" points="608,-246 608,-708 998,-708 998,-246 608,-246"/>
<polygon fill="#f5f5f5" stroke="transparent" points="610,-684 610,-706 996,-706 996,-684 610,-684"/>
<polygon fill="none" stroke="black" points="610,-684 610,-706 996,-706 996,-684 610,-684"/>
<text text-anchor="start" x="615" y="-693.2" font-family="Helvetica,sans-Serif" font-weight="bold" font-size="11.00">sludge_treatment</text>
<text text-anchor="start" x="954" y="-692.2" font-family="Helvetica,sans-Serif" font-size="11.00">[table]</text>
<polygon fill="none" stroke="black" points="610,-662 610,-684 890,-684 890,-662 610,-662"/>
<image xlink:href="../../images/primaryKeys.png" width="11px" height="12px" preserveAspectRatio="xMinYMin meet" x="615" y="-679"/>
<text text-anchor="start" x="630" y="-670.2" font-family="Helvetica,sans-Serif" font-size="11.00">obj_id</text>
<polygon fill="none" stroke="black" points="890,-662 890,-684 996,-684 996,-662 890,-662"/>
<text text-anchor="start" x="893" y="-670.2" font-family="Helvetica,sans-Serif" font-size="11.00">varchar[16]</text>
<polygon fill="none" stroke="black" points="610,-640 610,-662 890,-662 890,-640 610,-640"/>
<text text-anchor="start" x="630" y="-648.2" font-family="Helvetica,sans-Serif" font-size="11.00">composting</text>
<polygon fill="none" stroke="black" points="890,-640 890,-662 996,-662 996,-640 890,-640"/>
<text text-anchor="start" x="893" y="-648.2" font-family="Helvetica,sans-Serif" font-size="11.00">numeric[7,2]</text>
<polygon fill="none" stroke="black" points="610,-618 610,-640 890,-640 890,-618 610,-618"/>
<text text-anchor="start" x="630" y="-626.2" font-family="Helvetica,sans-Serif" font-size="11.00">dehydration</text>
<polygon fill="none" stroke="black" points="890,-618 890,-640 996,-640 996,-618 890,-618"/>
<text text-anchor="start" x="893" y="-626.2" font-family="Helvetica,sans-Serif" font-size="11.00">numeric[7,2]</text>
<polygon fill="none" stroke="black" points="610,-596 610,-618 890,-618 890,-596 610,-596"/>
<text text-anchor="start" x="630" y="-604.2" font-family="Helvetica,sans-Serif" font-size="11.00">digested_sludge_combustion</text>
<polygon fill="none" stroke="black" points="890,-596 890,-618 996,-618 996,-596 890,-596"/>
<text text-anchor="start" x="893" y="-604.2" font-family="Helvetica,sans-Serif" font-size="11.00">numeric[7,2]</text>
<polygon fill="none" stroke="black" points="610,-574 610,-596 890,-596 890,-574 610,-574"/>
<text text-anchor="start" x="630" y="-582.2" font-family="Helvetica,sans-Serif" font-size="11.00">drying</text>
<polygon fill="none" stroke="black" points="890,-574 890,-596 996,-596 996,-574 890,-574"/>
<text text-anchor="start" x="893" y="-582.2" font-family="Helvetica,sans-Serif" font-size="11.00">numeric[7,2]</text>
<polygon fill="none" stroke="black" points="610,-552 610,-574 890,-574 890,-552 610,-552"/>
<text text-anchor="start" x="630" y="-560.2" font-family="Helvetica,sans-Serif" font-size="11.00">fresh_sludge_combustion</text>
<polygon fill="none" stroke="black" points="890,-552 890,-574 996,-574 996,-552 890,-552"/>
<text text-anchor="start" x="893" y="-560.2" font-family="Helvetica,sans-Serif" font-size="11.00">numeric[7,2]</text>
<polygon fill="none" stroke="black" points="610,-530 610,-552 890,-552 890,-530 610,-530"/>
<text text-anchor="start" x="630" y="-538.2" font-family="Helvetica,sans-Serif" font-size="11.00">hygenisation</text>
<polygon fill="none" stroke="black" points="890,-530 890,-552 996,-552 996,-530 890,-530"/>
<text text-anchor="start" x="893" y="-538.2" font-family="Helvetica,sans-Serif" font-size="11.00">numeric[7,2]</text>
<polygon fill="#ffffff" stroke="transparent" points="610,-508 610,-530 890,-530 890,-508 610,-508"/>
<polygon fill="none" stroke="black" points="610,-508 610,-530 890,-530 890,-508 610,-508"/>
<text text-anchor="start" x="630" y="-516.2" font-family="Helvetica,sans-Serif" font-size="11.00">identifier</text>
<polygon fill="none" stroke="black" points="890,-508 890,-530 996,-530 996,-508 890,-508"/>
<text text-anchor="start" x="893" y="-516.2" font-family="Helvetica,sans-Serif" font-size="11.00">text[2147483647]</text>
<polygon fill="none" stroke="black" points="610,-486 610,-508 890,-508 890,-486 610,-486"/>
<text text-anchor="start" x="630" y="-494.2" font-family="Helvetica,sans-Serif" font-size="11.00">predensification_of_excess_sludge</text>
<polygon fill="none" stroke="black" points="890,-486 890,-508 996,-508 996,-486 890,-486"/>
<text text-anchor="start" x="893" y="-494.2" font-family="Helvetica,sans-Serif" font-size="11.00">numeric[10,2]</text>
<polygon fill="none" stroke="black" points="610,-464 610,-486 890,-486 890,-464 610,-464"/>
<text text-anchor="start" x="630" y="-472.2" font-family="Helvetica,sans-Serif" font-size="11.00">predensification_of_mixed_sludge</text>
<polygon fill="none" stroke="black" points="890,-464 890,-486 996,-486 996,-464 890,-464"/>
<text text-anchor="start" x="893" y="-472.2" font-family="Helvetica,sans-Serif" font-size="11.00">numeric[10,2]</text>
<polygon fill="none" stroke="black" points="610,-442 610,-464 890,-464 890,-442 610,-442"/>
<text text-anchor="start" x="630" y="-450.2" font-family="Helvetica,sans-Serif" font-size="11.00">predensification_of_primary_sludge</text>
<polygon fill="none" stroke="black" points="890,-442 890,-464 996,-464 996,-442 890,-442"/>
<text text-anchor="start" x="893" y="-450.2" font-family="Helvetica,sans-Serif" font-size="11.00">numeric[10,2]</text>
<polygon fill="none" stroke="black" points="610,-420 610,-442 890,-442 890,-420 610,-420"/>
<text text-anchor="start" x="630" y="-428.2" font-family="Helvetica,sans-Serif" font-size="11.00">remark</text>
<polygon fill="none" stroke="black" points="890,-420 890,-442 996,-442 996,-420 890,-420"/>
<text text-anchor="start" x="893" y="-428.2" font-family="Helvetica,sans-Serif" font-size="11.00">text[2147483647]</text>
<polygon fill="none" stroke="black" points="610,-398 610,-420 890,-420 890,-398 610,-398"/>
<image xlink:href="../../images/foreignKeys.png" width="11px" height="12px" preserveAspectRatio="xMinYMin meet" x="615" y="-415"/>
<text text-anchor="start" x="630" y="-406.2" font-family="Helvetica,sans-Serif" font-size="11.00">stabilisation</text>
<polygon fill="none" stroke="black" points="890,-398 890,-420 996,-420 996,-398 890,-398"/>
<text text-anchor="start" x="893" y="-406.2" font-family="Helvetica,sans-Serif" font-size="11.00">int4[10]</text>
<polygon fill="none" stroke="black" points="610,-376 610,-398 890,-398 890,-376 610,-376"/>
<text text-anchor="start" x="630" y="-384.2" font-family="Helvetica,sans-Serif" font-size="11.00">stacking_of_dehydrated_sludge</text>
<polygon fill="none" stroke="black" points="890,-376 890,-398 996,-398 996,-376 890,-376"/>
<text text-anchor="start" x="893" y="-384.2" font-family="Helvetica,sans-Serif" font-size="11.00">numeric[10,2]</text>
<polygon fill="none" stroke="black" points="610,-354 610,-376 890,-376 890,-354 610,-354"/>
<text text-anchor="start" x="630" y="-362.2" font-family="Helvetica,sans-Serif" font-size="11.00">stacking_of_liquid_sludge</text>
<polygon fill="none" stroke="black" points="890,-354 890,-376 996,-376 996,-354 890,-354"/>
<text text-anchor="start" x="893" y="-362.2" font-family="Helvetica,sans-Serif" font-size="11.00">numeric[10,2]</text>
<polygon fill="none" stroke="black" points="610,-332 610,-354 890,-354 890,-332 610,-332"/>
<text text-anchor="start" x="630" y="-340.2" font-family="Helvetica,sans-Serif" font-size="11.00">last_modification</text>
<polygon fill="none" stroke="black" points="890,-332 890,-354 996,-354 996,-332 890,-332"/>
<text text-anchor="start" x="893" y="-340.2" font-family="Helvetica,sans-Serif" font-size="11.00">timestamp[29,6]</text>
<polygon fill="#ffffff" stroke="transparent" points="610,-310 610,-332 890,-332 890,-310 610,-310"/>
<polygon fill="none" stroke="black" points="610,-310 610,-332 890,-332 890,-310 610,-310"/>
<image xlink:href="../../images/foreignKeys.png" width="11px" height="12px" preserveAspectRatio="xMinYMin meet" x="615" y="-327"/>
<text text-anchor="start" x="630" y="-318.2" font-family="Helvetica,sans-Serif" font-size="11.00">fk_dataowner</text>
<polygon fill="none" stroke="black" points="890,-310 890,-332 996,-332 996,-310 890,-310"/>
<text text-anchor="start" x="893" y="-318.2" font-family="Helvetica,sans-Serif" font-size="11.00">varchar[16]</text>
<polygon fill="none" stroke="black" points="610,-288 610,-310 890,-310 890,-288 610,-288"/>
<image xlink:href="../../images/foreignKeys.png" width="11px" height="12px" preserveAspectRatio="xMinYMin meet" x="615" y="-305"/>
<text text-anchor="start" x="630" y="-296.2" font-family="Helvetica,sans-Serif" font-size="11.00">fk_provider</text>
<polygon fill="none" stroke="black" points="890,-288 890,-310 996,-310 996,-288 890,-288"/>
<text text-anchor="start" x="893" y="-296.2" font-family="Helvetica,sans-Serif" font-size="11.00">varchar[16]</text>
<polygon fill="none" stroke="black" points="610,-266 610,-288 890,-288 890,-266 610,-266"/>
<image xlink:href="../../images/foreignKeys.png" width="11px" height="12px" preserveAspectRatio="xMinYMin meet" x="615" y="-283"/>
<text text-anchor="start" x="630" y="-274.2" font-family="Helvetica,sans-Serif" font-size="11.00">fk_waste_water_treatment_plant</text>
<polygon fill="none" stroke="black" points="890,-266 890,-288 996,-288 996,-266 890,-266"/>
<text text-anchor="start" x="893" y="-274.2" font-family="Helvetica,sans-Serif" font-size="11.00">varchar[16]</text>
<polygon fill="#ffffff" stroke="transparent" points="610,-248 610,-266 996,-266 996,-248 610,-248"/>
<polygon fill="none" stroke="black" points="610,-248 610,-266 996,-266 996,-248 610,-248"/>
<polygon fill="#ffffff" stroke="transparent" points="611,-249 611,-265 743,-265 743,-249 611,-249"/>
<text text-anchor="start" x="613" y="-254.2" font-family="Helvetica,sans-Serif" font-size="11.00">&lt; 4</text>
<polygon fill="#ffffff" stroke="transparent" points="743,-249 743,-265 863,-265 863,-249 743,-249"/>
<text text-anchor="start" x="799" y="-254.2" font-family="Helvetica,sans-Serif" font-size="11.00"> &#160;</text>
<polygon fill="#ffffff" stroke="transparent" points="863,-249 863,-265 995,-265 995,-249 863,-249"/>
<text text-anchor="start" x="973" y="-254.2" font-family="Helvetica,sans-Serif" font-size="11.00">0 &gt;</text>
<polygon fill="black" stroke="black" points="743,-249 743,-265 743,-265 743,-249 743,-249"/>
<polygon fill="black" stroke="black" points="863,-249 863,-265 863,-265 863,-249 863,-249"/>
<polygon fill="none" stroke="black" stroke-width="2" points="609,-247 609,-707 997,-707 997,-247 609,-247"/>
</a>
</g>
</g>
<!-- organisation -->
<g id="node2" class="node">
<title>organisation</title>
<g id="a_node2"><a xlink:href="../../tables/organisation.html" xlink:title="organisation" target="_top">
<polygon fill="#ffffff" stroke="transparent" points="8,-37 8,-249 182,-249 182,-37 8,-37"/>
<polygon fill="#f5f5f5" stroke="transparent" points="8,-227 8,-249 182,-249 182,-227 8,-227"/>
<polygon fill="none" stroke="black" points="8,-227 8,-249 182,-249 182,-227 8,-227"/>
<text text-anchor="start" x="13" y="-236.2" font-family="Helvetica,sans-Serif" font-weight="bold" font-size="11.00">organisation</text>
<text text-anchor="start" x="140" y="-235.2" font-family="Helvetica,sans-Serif" font-size="11.00">[table]</text>
<polygon fill="none" stroke="black" points="8,-205 8,-227 182,-227 182,-205 8,-205"/>
<image xlink:href="../../images/primaryKeys.png" width="11px" height="12px" preserveAspectRatio="xMinYMin meet" x="13" y="-222"/>
<text text-anchor="start" x="28" y="-213.2" font-family="Helvetica,sans-Serif" font-size="11.00">obj_id</text>
<polygon fill="#ffffff" stroke="transparent" points="8,-183 8,-205 182,-205 182,-183 8,-183"/>
<polygon fill="none" stroke="black" points="8,-183 8,-205 182,-205 182,-183 8,-183"/>
<text text-anchor="start" x="28" y="-191.2" font-family="Helvetica,sans-Serif" font-size="11.00">identifier</text>
<polygon fill="#ffffff" stroke="transparent" points="8,-161 8,-183 182,-183 182,-161 8,-161"/>
<polygon fill="none" stroke="black" points="8,-161 8,-183 182,-183 182,-161 8,-161"/>
<image xlink:href="../../images/foreignKeys.png" width="11px" height="12px" preserveAspectRatio="xMinYMin meet" x="13" y="-178"/>
<text text-anchor="start" x="28" y="-169.2" font-family="Helvetica,sans-Serif" font-size="11.00">organisation_type</text>
<polygon fill="none" stroke="black" points="8,-139 8,-161 182,-161 182,-139 8,-139"/>
<image xlink:href="../../images/foreignKeys.png" width="11px" height="12px" preserveAspectRatio="xMinYMin meet" x="13" y="-156"/>
<text text-anchor="start" x="28" y="-147.2" font-family="Helvetica,sans-Serif" font-size="11.00">status</text>
<polygon fill="#ffffff" stroke="transparent" points="8,-117 8,-139 182,-139 182,-117 8,-117"/>
<polygon fill="none" stroke="black" points="8,-117 8,-139 182,-139 182,-117 8,-117"/>
<text text-anchor="start" x="28" y="-125.2" font-family="Helvetica,sans-Serif" font-size="11.00">uid</text>
<polygon fill="none" stroke="black" points="8,-95 8,-117 182,-117 182,-95 8,-95"/>
<image xlink:href="../../images/foreignKeys.png" width="11px" height="12px" preserveAspectRatio="xMinYMin meet" x="13" y="-112"/>
<text text-anchor="start" x="28" y="-103.2" font-family="Helvetica,sans-Serif" font-size="11.00">fk_dataowner</text>
<polygon fill="none" stroke="black" points="8,-73 8,-95 182,-95 182,-73 8,-73"/>
<image xlink:href="../../images/foreignKeys.png" width="11px" height="12px" preserveAspectRatio="xMinYMin meet" x="13" y="-90"/>
<text text-anchor="start" x="28" y="-81.2" font-family="Helvetica,sans-Serif" font-size="11.00">fk_provider</text>
<polygon fill="none" stroke="black" points="8,-55 8,-73 182,-73 182,-55 8,-55"/>
<text text-anchor="start" x="11" y="-61.2" font-family="Helvetica,sans-Serif" font-size="11.00">...</text>
<polygon fill="#ffffff" stroke="transparent" points="8,-37 8,-55 182,-55 182,-37 8,-37"/>
<polygon fill="none" stroke="black" points="8,-37 8,-55 182,-55 182,-37 8,-37"/>
<polygon fill="#ffffff" stroke="transparent" points="9,-38 9,-54 66,-54 66,-38 9,-38"/>
<text text-anchor="start" x="11" y="-43.2" font-family="Helvetica,sans-Serif" font-size="11.00">&lt; 4</text>
<polygon fill="#ffffff" stroke="transparent" points="66,-38 66,-54 111,-54 111,-38 66,-38"/>
<text text-anchor="start" x="84.5" y="-43.2" font-family="Helvetica,sans-Serif" font-size="11.00"> &#160;</text>
<polygon fill="#ffffff" stroke="transparent" points="111,-38 111,-54 181,-54 181,-38 111,-38"/>
<text text-anchor="start" x="145" y="-43.2" font-family="Helvetica,sans-Serif" font-size="11.00">105 &gt;</text>
<polygon fill="black" stroke="black" points="66,-38 66,-54 66,-54 66,-38 66,-38"/>
<polygon fill="black" stroke="black" points="111,-38 111,-54 111,-54 111,-38 111,-38"/>
</a>
</g>
</g>
<!-- sludge_treatment&#45;&gt;organisation -->
<g id="edge1" class="edge">
<title>sludge_treatment:w&#45;&gt;organisation:e</title>
<path fill="none" stroke="black" d="M594.17,-321.21C433.05,-325.8 360.71,-402.78 223,-309 185.81,-283.67 227.99,-216 183,-216"/>
<polygon fill="black" stroke="black" points="601,-321.11 609.05,-324.6 605,-321.06 609,-321 609,-321 609,-321 605,-321.06 608.95,-317.4 601,-321.11 601,-321.11"/>
<ellipse fill="none" stroke="black" cx="597.8" cy="-321.16" rx="3.2" ry="3.2"/>
</g>
<!-- sludge_treatment&#45;&gt;organisation -->
<g id="edge2" class="edge">
<title>sludge_treatment:w&#45;&gt;organisation:e</title>
<path fill="none" stroke="black" d="M594.58,-299.24C500.12,-302.04 292.69,-328.03 223,-286 192.32,-267.5 218.83,-216 183,-216"/>
<polygon fill="black" stroke="black" points="601,-299.13 609.06,-302.6 605,-299.07 609,-299 609,-299 609,-299 605,-299.07 608.94,-295.4 601,-299.13 601,-299.13"/>
<ellipse fill="none" stroke="black" cx="597.8" cy="-299.18" rx="3.2" ry="3.2"/>
</g>
<!-- waste_water_treatment_plant -->
<g id="node3" class="node">
<title>waste_water_treatment_plant</title>
<g id="a_node3"><a xlink:href="../../tables/waste_water_treatment_plant.html" xlink:title="waste_water_treatment_plant" target="_top">
<polygon fill="#ffffff" stroke="transparent" points="263,-63 263,-275 527,-275 527,-63 263,-63"/>
<polygon fill="#f5f5f5" stroke="transparent" points="263,-253 263,-275 527,-275 527,-253 263,-253"/>
<polygon fill="none" stroke="black" points="263,-253 263,-275 527,-275 527,-253 263,-253"/>
<text text-anchor="start" x="268" y="-262.2" font-family="Helvetica,sans-Serif" font-weight="bold" font-size="11.00">waste_water_treatment_plant</text>
<text text-anchor="start" x="485" y="-261.2" font-family="Helvetica,sans-Serif" font-size="11.00">[table]</text>
<polygon fill="none" stroke="black" points="263,-231 263,-253 527,-253 527,-231 263,-231"/>
<image xlink:href="../../images/primaryKeys.png" width="11px" height="12px" preserveAspectRatio="xMinYMin meet" x="268" y="-248"/>
<text text-anchor="start" x="296" y="-239.2" font-family="Helvetica,sans-Serif" font-size="11.00">obj_id</text>
<polygon fill="#ffffff" stroke="transparent" points="263,-209 263,-231 527,-231 527,-209 263,-209"/>
<polygon fill="none" stroke="black" points="263,-209 263,-231 527,-231 527,-209 263,-209"/>
<text text-anchor="start" x="296" y="-217.2" font-family="Helvetica,sans-Serif" font-size="11.00">area_geometry</text>
<polygon fill="#ffffff" stroke="transparent" points="263,-187 263,-209 527,-209 527,-187 263,-187"/>
<polygon fill="none" stroke="black" points="263,-187 263,-209 527,-209 527,-187 263,-187"/>
<text text-anchor="start" x="296" y="-195.2" font-family="Helvetica,sans-Serif" font-size="11.00">identifier</text>
<polygon fill="none" stroke="black" points="263,-165 263,-187 527,-187 527,-165 263,-165"/>
<image xlink:href="../../images/foreignKeys.png" width="11px" height="12px" preserveAspectRatio="xMinYMin meet" x="268" y="-182"/>
<text text-anchor="start" x="296" y="-173.2" font-family="Helvetica,sans-Serif" font-size="11.00">operator_type</text>
<polygon fill="#ffffff" stroke="transparent" points="263,-143 263,-165 527,-165 527,-143 263,-143"/>
<polygon fill="none" stroke="black" points="263,-143 263,-165 527,-165 527,-143 263,-143"/>
<text text-anchor="start" x="296" y="-151.2" font-family="Helvetica,sans-Serif" font-size="11.00">situation_geometry</text>
<polygon fill="#ffffff" stroke="transparent" points="263,-121 263,-143 527,-143 527,-121 263,-121"/>
<polygon fill="none" stroke="black" points="263,-121 263,-143 527,-143 527,-121 263,-121"/>
<image xlink:href="../../images/foreignKeys.png" width="11px" height="12px" preserveAspectRatio="xMinYMin meet" x="268" y="-138"/>
<text text-anchor="start" x="296" y="-129.2" font-family="Helvetica,sans-Serif" font-size="11.00">fk_dataowner</text>
<polygon fill="none" stroke="black" points="263,-99 263,-121 527,-121 527,-99 263,-99"/>
<image xlink:href="../../images/foreignKeys.png" width="11px" height="12px" preserveAspectRatio="xMinYMin meet" x="268" y="-116"/>
<text text-anchor="start" x="296" y="-107.2" font-family="Helvetica,sans-Serif" font-size="11.00">fk_provider</text>
<polygon fill="none" stroke="black" points="263,-81 263,-99 527,-99 527,-81 263,-81"/>
<text text-anchor="start" x="266" y="-87.2" font-family="Helvetica,sans-Serif" font-size="11.00">...</text>
<polygon fill="#ffffff" stroke="transparent" points="263,-63 263,-81 527,-81 527,-63 263,-63"/>
<polygon fill="none" stroke="black" points="263,-63 263,-81 527,-81 527,-63 263,-63"/>
<polygon fill="#ffffff" stroke="transparent" points="264,-64 264,-80 356,-80 356,-64 264,-64"/>
<text text-anchor="start" x="266" y="-69.2" font-family="Helvetica,sans-Serif" font-size="11.00">&lt; 3</text>
<polygon fill="#ffffff" stroke="transparent" points="356,-64 356,-80 435,-80 435,-64 356,-64"/>
<text text-anchor="start" x="391.5" y="-69.2" font-family="Helvetica,sans-Serif" font-size="11.00"> &#160;</text>
<polygon fill="#ffffff" stroke="transparent" points="435,-64 435,-80 526,-80 526,-64 435,-64"/>
<text text-anchor="start" x="504" y="-69.2" font-family="Helvetica,sans-Serif" font-size="11.00">5 &gt;</text>
<polygon fill="black" stroke="black" points="356,-64 356,-80 356,-80 356,-64 356,-64"/>
<polygon fill="black" stroke="black" points="435,-64 435,-80 435,-80 435,-64 435,-64"/>
</a>
</g>
</g>
<!-- sludge_treatment&#45;&gt;waste_water_treatment_plant -->
<g id="edge3" class="edge">
<title>sludge_treatment:w&#45;&gt;waste_water_treatment_plant:e</title>
<path fill="none" stroke="black" d="M594.43,-275.12C568.34,-267.85 561.7,-242 528,-242"/>
<polygon fill="black" stroke="black" points="601.07,-275.98 608.54,-280.57 605.03,-276.49 609,-277 609,-277 609,-277 605.03,-276.49 609.46,-273.43 601.07,-275.98 601.07,-275.98"/>
<ellipse fill="none" stroke="black" cx="597.89" cy="-275.57" rx="3.2" ry="3.2"/>
</g>
<!-- tww_vl.sludge_treatment_stabilisation -->
<g id="node4" class="node">
<title>tww_vl.sludge_treatment_stabilisation</title>
<g id="a_node4"><a xlink:href="../../../tww_vl/tables/sludge_treatment_stabilisation.html" xlink:title="tww_vl.sludge_treatment_stabilisation" target="_top">
<polygon fill="#ffffff" stroke="transparent" points="231,-380 231,-438 559,-438 559,-380 231,-380"/>
<polygon fill="#f5f5f5" stroke="transparent" points="231,-416 231,-438 559,-438 559,-416 231,-416"/>
<polygon fill="none" stroke="black" points="231,-416 231,-438 559,-438 559,-416 231,-416"/>
<text text-anchor="start" x="236" y="-425.2" font-family="Helvetica,sans-Serif" font-weight="bold" font-size="11.00">tww_vl.sludge_treatment_stabilisation</text>
<text text-anchor="start" x="517" y="-424.2" font-family="Helvetica,sans-Serif" font-size="11.00">[table]</text>
<polygon fill="none" stroke="black" points="231,-398 231,-416 559,-416 559,-398 231,-398"/>
<text text-anchor="start" x="234" y="-404.2" font-family="Helvetica,sans-Serif" font-size="11.00">...</text>
<polygon fill="#ffffff" stroke="transparent" points="231,-380 231,-398 559,-398 559,-380 231,-380"/>
<polygon fill="none" stroke="black" points="231,-380 231,-398 559,-398 559,-380 231,-380"/>
<polygon fill="#ffffff" stroke="transparent" points="232,-381 232,-397 327,-397 327,-381 232,-381"/>
<text text-anchor="start" x="234" y="-386.2" font-family="Helvetica,sans-Serif" font-size="11.00"> &#160;</text>
<polygon fill="#ffffff" stroke="transparent" points="327,-381 327,-397 451,-397 451,-381 327,-381"/>
<text text-anchor="start" x="370.5" y="-386.2" font-family="Helvetica,sans-Serif" font-size="11.00">0 rows</text>
<polygon fill="#ffffff" stroke="transparent" points="451,-381 451,-397 558,-397 558,-381 451,-381"/>
<text text-anchor="start" x="536" y="-386.2" font-family="Helvetica,sans-Serif" font-size="11.00">1 &gt;</text>
<polygon fill="black" stroke="black" points="327,-381 327,-397 327,-397 327,-381 327,-381"/>
<polygon fill="black" stroke="black" points="451,-381 451,-397 451,-397 451,-381 451,-381"/>
</a>
</g>
</g>
<!-- sludge_treatment&#45;&gt;tww_vl.sludge_treatment_stabilisation -->
<g id="edge4" class="edge">
<title>sludge_treatment:w&#45;&gt;tww_vl.sludge_treatment_stabilisation:e</title>
<path fill="none" stroke="black" d="M594.5,-409C585.5,-409 576.36,-409 567.19,-409"/>
<polygon fill="black" stroke="black" points="601,-409 609,-412.6 605,-409 609,-409 609,-409 609,-409 605,-409 609,-405.4 601,-409 601,-409"/>
<ellipse fill="none" stroke="black" cx="597.8" cy="-409" rx="3.2" ry="3.2"/>
</g>
<!-- waste_water_treatment_plant&#45;&gt;organisation -->
<g id="edge5" class="edge">
<title>waste_water_treatment_plant:w&#45;&gt;organisation:e</title>
<path fill="none" stroke="black" d="M247.67,-134.79C215,-149.37 228.64,-216 183,-216"/>
<polygon fill="black" stroke="black" points="254.15,-133.53 262.69,-135.53 258.07,-132.77 262,-132 262,-132 262,-132 258.07,-132.77 261.31,-128.47 254.15,-133.53 254.15,-133.53"/>
<ellipse fill="none" stroke="black" cx="251.01" cy="-134.14" rx="3.2" ry="3.2"/>
</g>
<!-- waste_water_treatment_plant&#45;&gt;organisation -->
<g id="edge6" class="edge">
<title>waste_water_treatment_plant:w&#45;&gt;organisation:e</title>
<path fill="none" stroke="black" d="M247.39,-112.84C209.84,-129.69 236.02,-216 183,-216"/>
<polygon fill="black" stroke="black" points="254.15,-111.52 262.69,-113.53 258.07,-110.76 262,-110 262,-110 262,-110 258.07,-110.76 261.31,-106.47 254.15,-111.52 254.15,-111.52"/>
<ellipse fill="none" stroke="black" cx="251.01" cy="-112.13" rx="3.2" ry="3.2"/>
</g>
</g>
</svg>
