<?xml version="1.0" encoding="UTF-8" standalone="no"?>
<!DOCTYPE svg PUBLIC "-//W3C//DTD SVG 1.1//EN"
 "http://www.w3.org/Graphics/SVG/1.1/DTD/svg11.dtd">
<!-- Generated by graphviz version 2.43.0 (0)
 -->
<!-- Title: oneDegreeRelationshipsDiagram Pages: 1 -->
<svg width="1207pt" height="874pt"
 viewBox="0.00 0.00 1207.00 874.00" xmlns="http://www.w3.org/2000/svg" xmlns:xlink="http://www.w3.org/1999/xlink">
<g id="graph0" class="graph" transform="scale(1 1) rotate(0) translate(4 870)">
<title>oneDegreeRelationshipsDiagram</title>
<polygon fill="#ffffff" stroke="transparent" points="-4,4 -4,-870 1203,-870 1203,4 -4,4"/>
<text text-anchor="middle" x="79.5" y="-7.2" font-family="Helvetica,sans-Serif" font-size="11.00">Generated by SchemaSpy</text>
<!-- catchment_area -->
<g id="node1" class="node">
<title>catchment_area</title>
<g id="a_node1"><a xlink:href="../../tables/catchment_area.html" xlink:title="catchment_area" target="_top">
<polygon fill="#ffffff" stroke="transparent" points="231,-37 231,-557 581,-557 581,-37 231,-37"/>
<polygon fill="#f5f5f5" stroke="transparent" points="231,-535 231,-557 581,-557 581,-535 231,-535"/>
<polygon fill="none" stroke="black" points="231,-535 231,-557 581,-557 581,-535 231,-535"/>
<text text-anchor="start" x="236" y="-544.2" font-family="Helvetica,sans-Serif" font-weight="bold" font-size="11.00">catchment_area</text>
<text text-anchor="start" x="539" y="-543.2" font-family="Helvetica,sans-Serif" font-size="11.00">[table]</text>
<polygon fill="none" stroke="black" points="231,-513 231,-535 581,-535 581,-513 231,-513"/>
<image xlink:href="../../images/primaryKeys.png" width="11px" height="12px" preserveAspectRatio="xMinYMin meet" x="236" y="-530"/>
<text text-anchor="start" x="251" y="-521.2" font-family="Helvetica,sans-Serif" font-size="11.00">obj_id</text>
<polygon fill="none" stroke="black" points="231,-491 231,-513 581,-513 581,-491 231,-491"/>
<image xlink:href="../../images/foreignKeys.png" width="11px" height="12px" preserveAspectRatio="xMinYMin meet" x="236" y="-508"/>
<text text-anchor="start" x="251" y="-499.2" font-family="Helvetica,sans-Serif" font-size="11.00">direct_discharge_current</text>
<polygon fill="none" stroke="black" points="231,-469 231,-491 581,-491 581,-469 231,-469"/>
<image xlink:href="../../images/foreignKeys.png" width="11px" height="12px" preserveAspectRatio="xMinYMin meet" x="236" y="-486"/>
<text text-anchor="start" x="251" y="-477.2" font-family="Helvetica,sans-Serif" font-size="11.00">direct_discharge_planned</text>
<polygon fill="none" stroke="black" points="231,-447 231,-469 581,-469 581,-447 231,-447"/>
<image xlink:href="../../images/foreignKeys.png" width="11px" height="12px" preserveAspectRatio="xMinYMin meet" x="236" y="-464"/>
<text text-anchor="start" x="251" y="-455.2" font-family="Helvetica,sans-Serif" font-size="11.00">drainage_system_current</text>
<polygon fill="none" stroke="black" points="231,-425 231,-447 581,-447 581,-425 231,-425"/>
<image xlink:href="../../images/foreignKeys.png" width="11px" height="12px" preserveAspectRatio="xMinYMin meet" x="236" y="-442"/>
<text text-anchor="start" x="251" y="-433.2" font-family="Helvetica,sans-Serif" font-size="11.00">drainage_system_planned</text>
<polygon fill="#ffffff" stroke="transparent" points="231,-403 231,-425 581,-425 581,-403 231,-403"/>
<polygon fill="none" stroke="black" points="231,-403 231,-425 581,-425 581,-403 231,-403"/>
<text text-anchor="start" x="251" y="-411.2" font-family="Helvetica,sans-Serif" font-size="11.00">identifier</text>
<polygon fill="none" stroke="black" points="231,-381 231,-403 581,-403 581,-381 231,-381"/>
<image xlink:href="../../images/foreignKeys.png" width="11px" height="12px" preserveAspectRatio="xMinYMin meet" x="236" y="-398"/>
<text text-anchor="start" x="251" y="-389.2" font-family="Helvetica,sans-Serif" font-size="11.00">infiltration_current</text>
<polygon fill="none" stroke="black" points="231,-359 231,-381 581,-381 581,-359 231,-359"/>
<image xlink:href="../../images/foreignKeys.png" width="11px" height="12px" preserveAspectRatio="xMinYMin meet" x="236" y="-376"/>
<text text-anchor="start" x="251" y="-367.2" font-family="Helvetica,sans-Serif" font-size="11.00">infiltration_planned</text>
<polygon fill="#ffffff" stroke="transparent" points="231,-337 231,-359 581,-359 581,-337 231,-337"/>
<polygon fill="none" stroke="black" points="231,-337 231,-359 581,-359 581,-337 231,-337"/>
<text text-anchor="start" x="251" y="-345.2" font-family="Helvetica,sans-Serif" font-size="11.00">perimeter_geometry</text>
<polygon fill="none" stroke="black" points="231,-315 231,-337 581,-337 581,-315 231,-315"/>
<image xlink:href="../../images/foreignKeys.png" width="11px" height="12px" preserveAspectRatio="xMinYMin meet" x="236" y="-332"/>
<text text-anchor="start" x="251" y="-323.2" font-family="Helvetica,sans-Serif" font-size="11.00">retention_current</text>
<polygon fill="none" stroke="black" points="231,-293 231,-315 581,-315 581,-293 231,-293"/>
<image xlink:href="../../images/foreignKeys.png" width="11px" height="12px" preserveAspectRatio="xMinYMin meet" x="236" y="-310"/>
<text text-anchor="start" x="251" y="-301.2" font-family="Helvetica,sans-Serif" font-size="11.00">retention_planned</text>
<polygon fill="#ffffff" stroke="transparent" points="231,-271 231,-293 581,-293 581,-271 231,-271"/>
<polygon fill="none" stroke="black" points="231,-271 231,-293 581,-293 581,-271 231,-271"/>
<image xlink:href="../../images/foreignKeys.png" width="11px" height="12px" preserveAspectRatio="xMinYMin meet" x="236" y="-288"/>
<text text-anchor="start" x="251" y="-279.2" font-family="Helvetica,sans-Serif" font-size="11.00">fk_dataowner</text>
<polygon fill="none" stroke="black" points="231,-249 231,-271 581,-271 581,-249 231,-249"/>
<image xlink:href="../../images/foreignKeys.png" width="11px" height="12px" preserveAspectRatio="xMinYMin meet" x="236" y="-266"/>
<text text-anchor="start" x="251" y="-257.2" font-family="Helvetica,sans-Serif" font-size="11.00">fk_provider</text>
<polygon fill="none" stroke="black" points="231,-227 231,-249 581,-249 581,-227 231,-227"/>
<image xlink:href="../../images/foreignKeys.png" width="11px" height="12px" preserveAspectRatio="xMinYMin meet" x="236" y="-244"/>
<text text-anchor="start" x="251" y="-235.2" font-family="Helvetica,sans-Serif" font-size="11.00">fk_wastewater_networkelement_rw_current</text>
<polygon fill="none" stroke="black" points="231,-205 231,-227 581,-227 581,-205 231,-205"/>
<image xlink:href="../../images/foreignKeys.png" width="11px" height="12px" preserveAspectRatio="xMinYMin meet" x="236" y="-222"/>
<text text-anchor="start" x="251" y="-213.2" font-family="Helvetica,sans-Serif" font-size="11.00">fk_wastewater_networkelement_rw_planned</text>
<polygon fill="none" stroke="black" points="231,-183 231,-205 581,-205 581,-183 231,-183"/>
<image xlink:href="../../images/foreignKeys.png" width="11px" height="12px" preserveAspectRatio="xMinYMin meet" x="236" y="-200"/>
<text text-anchor="start" x="251" y="-191.2" font-family="Helvetica,sans-Serif" font-size="11.00">fk_wastewater_networkelement_ww_planned</text>
<polygon fill="none" stroke="black" points="231,-161 231,-183 581,-183 581,-161 231,-161"/>
<image xlink:href="../../images/foreignKeys.png" width="11px" height="12px" preserveAspectRatio="xMinYMin meet" x="236" y="-178"/>
<text text-anchor="start" x="251" y="-169.2" font-family="Helvetica,sans-Serif" font-size="11.00">fk_wastewater_networkelement_ww_current</text>
<polygon fill="none" stroke="black" points="231,-139 231,-161 581,-161 581,-139 231,-139"/>
<image xlink:href="../../images/foreignKeys.png" width="11px" height="12px" preserveAspectRatio="xMinYMin meet" x="236" y="-156"/>
<text text-anchor="start" x="251" y="-147.2" font-family="Helvetica,sans-Serif" font-size="11.00">fk_special_building_rw_planned</text>
<polygon fill="none" stroke="black" points="231,-117 231,-139 581,-139 581,-117 231,-117"/>
<image xlink:href="../../images/foreignKeys.png" width="11px" height="12px" preserveAspectRatio="xMinYMin meet" x="236" y="-134"/>
<text text-anchor="start" x="251" y="-125.2" font-family="Helvetica,sans-Serif" font-size="11.00">fk_special_building_rw_current</text>
<polygon fill="none" stroke="black" points="231,-95 231,-117 581,-117 581,-95 231,-95"/>
<image xlink:href="../../images/foreignKeys.png" width="11px" height="12px" preserveAspectRatio="xMinYMin meet" x="236" y="-112"/>
<text text-anchor="start" x="251" y="-103.2" font-family="Helvetica,sans-Serif" font-size="11.00">fk_special_building_ww_planned</text>
<polygon fill="none" stroke="black" points="231,-73 231,-95 581,-95 581,-73 231,-73"/>
<image xlink:href="../../images/foreignKeys.png" width="11px" height="12px" preserveAspectRatio="xMinYMin meet" x="236" y="-90"/>
<text text-anchor="start" x="251" y="-81.2" font-family="Helvetica,sans-Serif" font-size="11.00">fk_special_building_ww_current</text>
<polygon fill="none" stroke="black" points="231,-55 231,-73 581,-73 581,-55 231,-55"/>
<text text-anchor="start" x="234" y="-61.2" font-family="Helvetica,sans-Serif" font-size="11.00">...</text>
<polygon fill="#ffffff" stroke="transparent" points="231,-37 231,-55 581,-55 581,-37 231,-37"/>
<polygon fill="none" stroke="black" points="231,-37 231,-55 581,-55 581,-37 231,-37"/>
<polygon fill="#ffffff" stroke="transparent" points="232,-38 232,-54 357,-54 357,-38 232,-38"/>
<text text-anchor="start" x="234" y="-43.2" font-family="Helvetica,sans-Serif" font-size="11.00">&lt; 18</text>
<polygon fill="#ffffff" stroke="transparent" points="357,-38 357,-54 463,-54 463,-38 357,-38"/>
<text text-anchor="start" x="406" y="-43.2" font-family="Helvetica,sans-Serif" font-size="11.00"> &#160;</text>
<polygon fill="#ffffff" stroke="transparent" points="463,-38 463,-54 580,-54 580,-38 463,-38"/>
<text text-anchor="start" x="558" y="-43.2" font-family="Helvetica,sans-Serif" font-size="11.00">2 &gt;</text>
<polygon fill="black" stroke="black" points="357,-38 357,-54 357,-54 357,-38 357,-38"/>
<polygon fill="black" stroke="black" points="463,-38 463,-54 463,-54 463,-38 463,-38"/>
</a>
</g>
</g>
<!-- organisation -->
<g id="node2" class="node">
<title>organisation</title>
<g id="a_node2"><a xlink:href="../../tables/organisation.html" xlink:title="organisation" target="_top">
<polygon fill="#ffffff" stroke="transparent" points="8,-252 8,-464 182,-464 182,-252 8,-252"/>
<polygon fill="#f5f5f5" stroke="transparent" points="8,-442 8,-464 182,-464 182,-442 8,-442"/>
<polygon fill="none" stroke="black" points="8,-442 8,-464 182,-464 182,-442 8,-442"/>
<text text-anchor="start" x="13" y="-451.2" font-family="Helvetica,sans-Serif" font-weight="bold" font-size="11.00">organisation</text>
<text text-anchor="start" x="140" y="-450.2" font-family="Helvetica,sans-Serif" font-size="11.00">[table]</text>
<polygon fill="none" stroke="black" points="8,-420 8,-442 182,-442 182,-420 8,-420"/>
<image xlink:href="../../images/primaryKeys.png" width="11px" height="12px" preserveAspectRatio="xMinYMin meet" x="13" y="-437"/>
<text text-anchor="start" x="28" y="-428.2" font-family="Helvetica,sans-Serif" font-size="11.00">obj_id</text>
<polygon fill="#ffffff" stroke="transparent" points="8,-398 8,-420 182,-420 182,-398 8,-398"/>
<polygon fill="none" stroke="black" points="8,-398 8,-420 182,-420 182,-398 8,-398"/>
<text text-anchor="start" x="28" y="-406.2" font-family="Helvetica,sans-Serif" font-size="11.00">identifier</text>
<polygon fill="#ffffff" stroke="transparent" points="8,-376 8,-398 182,-398 182,-376 8,-376"/>
<polygon fill="none" stroke="black" points="8,-376 8,-398 182,-398 182,-376 8,-376"/>
<image xlink:href="../../images/foreignKeys.png" width="11px" height="12px" preserveAspectRatio="xMinYMin meet" x="13" y="-393"/>
<text text-anchor="start" x="28" y="-384.2" font-family="Helvetica,sans-Serif" font-size="11.00">organisation_type</text>
<polygon fill="none" stroke="black" points="8,-354 8,-376 182,-376 182,-354 8,-354"/>
<image xlink:href="../../images/foreignKeys.png" width="11px" height="12px" preserveAspectRatio="xMinYMin meet" x="13" y="-371"/>
<text text-anchor="start" x="28" y="-362.2" font-family="Helvetica,sans-Serif" font-size="11.00">status</text>
<polygon fill="#ffffff" stroke="transparent" points="8,-332 8,-354 182,-354 182,-332 8,-332"/>
<polygon fill="none" stroke="black" points="8,-332 8,-354 182,-354 182,-332 8,-332"/>
<text text-anchor="start" x="28" y="-340.2" font-family="Helvetica,sans-Serif" font-size="11.00">uid</text>
<polygon fill="none" stroke="black" points="8,-310 8,-332 182,-332 182,-310 8,-310"/>
<image xlink:href="../../images/foreignKeys.png" width="11px" height="12px" preserveAspectRatio="xMinYMin meet" x="13" y="-327"/>
<text text-anchor="start" x="28" y="-318.2" font-family="Helvetica,sans-Serif" font-size="11.00">fk_dataowner</text>
<polygon fill="none" stroke="black" points="8,-288 8,-310 182,-310 182,-288 8,-288"/>
<image xlink:href="../../images/foreignKeys.png" width="11px" height="12px" preserveAspectRatio="xMinYMin meet" x="13" y="-305"/>
<text text-anchor="start" x="28" y="-296.2" font-family="Helvetica,sans-Serif" font-size="11.00">fk_provider</text>
<polygon fill="none" stroke="black" points="8,-270 8,-288 182,-288 182,-270 8,-270"/>
<text text-anchor="start" x="11" y="-276.2" font-family="Helvetica,sans-Serif" font-size="11.00">...</text>
<polygon fill="#ffffff" stroke="transparent" points="8,-252 8,-270 182,-270 182,-252 8,-252"/>
<polygon fill="none" stroke="black" points="8,-252 8,-270 182,-270 182,-252 8,-252"/>
<polygon fill="#ffffff" stroke="transparent" points="9,-253 9,-269 66,-269 66,-253 9,-253"/>
<text text-anchor="start" x="11" y="-258.2" font-family="Helvetica,sans-Serif" font-size="11.00">&lt; 4</text>
<polygon fill="#ffffff" stroke="transparent" points="66,-253 66,-269 111,-269 111,-253 66,-253"/>
<text text-anchor="start" x="84.5" y="-258.2" font-family="Helvetica,sans-Serif" font-size="11.00"> &#160;</text>
<polygon fill="#ffffff" stroke="transparent" points="111,-253 111,-269 181,-269 181,-253 111,-253"/>
<text text-anchor="start" x="145" y="-258.2" font-family="Helvetica,sans-Serif" font-size="11.00">105 &gt;</text>
<polygon fill="black" stroke="black" points="66,-253 66,-269 66,-269 66,-253 66,-253"/>
<polygon fill="black" stroke="black" points="111,-253 111,-269 111,-269 111,-253 111,-253"/>
</a>
</g>
</g>
<!-- catchment_area&#45;&gt;organisation -->
<g id="edge1" class="edge">
<title>catchment_area:w&#45;&gt;organisation:e</title>
<path fill="none" stroke="black" d="M215.73,-284.98C174.86,-305.98 246.61,-431 183,-431"/>
<polygon fill="black" stroke="black" points="222.17,-283.63 230.73,-285.52 226.08,-282.82 230,-282 230,-282 230,-282 226.08,-282.82 229.27,-278.48 222.17,-283.63 222.17,-283.63"/>
<ellipse fill="none" stroke="black" cx="219.04" cy="-284.29" rx="3.2" ry="3.2"/>
</g>
<!-- catchment_area&#45;&gt;organisation -->
<g id="edge2" class="edge">
<title>catchment_area:w&#45;&gt;organisation:e</title>
<path fill="none" stroke="black" d="M215.74,-262.55C166.18,-283.82 256.12,-431 183,-431"/>
<polygon fill="black" stroke="black" points="222.12,-261.41 230.63,-263.54 226.06,-260.7 230,-260 230,-260 230,-260 226.06,-260.7 229.37,-256.46 222.12,-261.41 222.12,-261.41"/>
<ellipse fill="none" stroke="black" cx="218.97" cy="-261.97" rx="3.2" ry="3.2"/>
</g>
<!-- param_ca_general -->
<g id="node3" class="node">
<title>param_ca_general</title>
<g id="a_node3"><a xlink:href="../../tables/param_ca_general.html" xlink:title="param_ca_general" target="_top">
<polygon fill="#ffffff" stroke="transparent" points="1007,-782 1007,-862 1191,-862 1191,-782 1007,-782"/>
<polygon fill="#f5f5f5" stroke="transparent" points="1007,-840 1007,-862 1191,-862 1191,-840 1007,-840"/>
<polygon fill="none" stroke="black" points="1007,-840 1007,-862 1191,-862 1191,-840 1007,-840"/>
<text text-anchor="start" x="1012" y="-849.2" font-family="Helvetica,sans-Serif" font-weight="bold" font-size="11.00">param_ca_general</text>
<text text-anchor="start" x="1149" y="-848.2" font-family="Helvetica,sans-Serif" font-size="11.00">[table]</text>
<polygon fill="none" stroke="black" points="1007,-818 1007,-840 1191,-840 1191,-818 1007,-818"/>
<image xlink:href="../../images/primaryKeys.png" width="11px" height="12px" preserveAspectRatio="xMinYMin meet" x="1012" y="-835"/>
<text text-anchor="start" x="1027" y="-826.2" font-family="Helvetica,sans-Serif" font-size="11.00">obj_id</text>
<polygon fill="none" stroke="black" points="1007,-800 1007,-818 1191,-818 1191,-800 1007,-800"/>
<text text-anchor="start" x="1010" y="-806.2" font-family="Helvetica,sans-Serif" font-size="11.00">...</text>
<polygon fill="#ffffff" stroke="transparent" points="1007,-782 1007,-800 1191,-800 1191,-782 1007,-782"/>
<polygon fill="none" stroke="black" points="1007,-782 1007,-800 1191,-800 1191,-782 1007,-782"/>
<polygon fill="#ffffff" stroke="transparent" points="1008,-783 1008,-799 1077,-799 1077,-783 1008,-783"/>
<text text-anchor="start" x="1010" y="-788.2" font-family="Helvetica,sans-Serif" font-size="11.00">&lt; 1</text>
<polygon fill="#ffffff" stroke="transparent" points="1077,-783 1077,-799 1134,-799 1134,-783 1077,-783"/>
<text text-anchor="start" x="1101.5" y="-788.2" font-family="Helvetica,sans-Serif" font-size="11.00"> &#160;</text>
<polygon fill="#ffffff" stroke="transparent" points="1134,-783 1134,-799 1190,-799 1190,-783 1134,-783"/>
<text text-anchor="start" x="1180" y="-788.2" font-family="Helvetica,sans-Serif" font-size="11.00"> &#160;</text>
<polygon fill="black" stroke="black" points="1077,-783 1077,-799 1077,-799 1077,-783 1077,-783"/>
<polygon fill="black" stroke="black" points="1134,-783 1134,-799 1134,-799 1134,-783 1134,-783"/>
</a>
</g>
</g>
<!-- surface_runoff_parameters -->
<g id="node4" class="node">
<title>surface_runoff_parameters</title>
<g id="a_node4"><a xlink:href="../../tables/surface_runoff_parameters.html" xlink:title="surface_runoff_parameters" target="_top">
<polygon fill="#ffffff" stroke="transparent" points="630,-528 630,-814 958,-814 958,-528 630,-528"/>
<polygon fill="#f5f5f5" stroke="transparent" points="632,-790 632,-812 956,-812 956,-790 632,-790"/>
<polygon fill="none" stroke="black" points="632,-790 632,-812 956,-812 956,-790 632,-790"/>
<text text-anchor="start" x="637" y="-799.2" font-family="Helvetica,sans-Serif" font-weight="bold" font-size="11.00">surface_runoff_parameters</text>
<text text-anchor="start" x="914" y="-798.2" font-family="Helvetica,sans-Serif" font-size="11.00">[table]</text>
<polygon fill="none" stroke="black" points="632,-768 632,-790 850,-790 850,-768 632,-768"/>
<image xlink:href="../../images/primaryKeys.png" width="11px" height="12px" preserveAspectRatio="xMinYMin meet" x="637" y="-785"/>
<text text-anchor="start" x="652" y="-776.2" font-family="Helvetica,sans-Serif" font-size="11.00">obj_id</text>
<polygon fill="none" stroke="black" points="850,-768 850,-790 956,-790 956,-768 850,-768"/>
<text text-anchor="start" x="853" y="-776.2" font-family="Helvetica,sans-Serif" font-size="11.00">varchar[16]</text>
<polygon fill="none" stroke="black" points="632,-746 632,-768 850,-768 850,-746 632,-746"/>
<text text-anchor="start" x="652" y="-754.2" font-family="Helvetica,sans-Serif" font-size="11.00">evaporation_loss</text>
<polygon fill="none" stroke="black" points="850,-746 850,-768 956,-768 956,-746 850,-746"/>
<text text-anchor="start" x="853" y="-754.2" font-family="Helvetica,sans-Serif" font-size="11.00">numeric[4,1]</text>
<polygon fill="#ffffff" stroke="transparent" points="632,-724 632,-746 850,-746 850,-724 632,-724"/>
<polygon fill="none" stroke="black" points="632,-724 632,-746 850,-746 850,-724 632,-724"/>
<text text-anchor="start" x="652" y="-732.2" font-family="Helvetica,sans-Serif" font-size="11.00">identifier</text>
<polygon fill="none" stroke="black" points="850,-724 850,-746 956,-746 956,-724 850,-724"/>
<text text-anchor="start" x="853" y="-732.2" font-family="Helvetica,sans-Serif" font-size="11.00">text[2147483647]</text>
<polygon fill="none" stroke="black" points="632,-702 632,-724 850,-724 850,-702 632,-702"/>
<text text-anchor="start" x="652" y="-710.2" font-family="Helvetica,sans-Serif" font-size="11.00">infiltration_loss</text>
<polygon fill="none" stroke="black" points="850,-702 850,-724 956,-724 956,-702 850,-702"/>
<text text-anchor="start" x="853" y="-710.2" font-family="Helvetica,sans-Serif" font-size="11.00">numeric[4,1]</text>
<polygon fill="none" stroke="black" points="632,-680 632,-702 850,-702 850,-680 632,-680"/>
<text text-anchor="start" x="652" y="-688.2" font-family="Helvetica,sans-Serif" font-size="11.00">remark</text>
<polygon fill="none" stroke="black" points="850,-680 850,-702 956,-702 956,-680 850,-680"/>
<text text-anchor="start" x="853" y="-688.2" font-family="Helvetica,sans-Serif" font-size="11.00">text[2147483647]</text>
<polygon fill="none" stroke="black" points="632,-658 632,-680 850,-680 850,-658 632,-658"/>
<text text-anchor="start" x="652" y="-666.2" font-family="Helvetica,sans-Serif" font-size="11.00">surface_storage</text>
<polygon fill="none" stroke="black" points="850,-658 850,-680 956,-680 956,-658 850,-658"/>
<text text-anchor="start" x="853" y="-666.2" font-family="Helvetica,sans-Serif" font-size="11.00">numeric[4,1]</text>
<polygon fill="none" stroke="black" points="632,-636 632,-658 850,-658 850,-636 632,-636"/>
<text text-anchor="start" x="652" y="-644.2" font-family="Helvetica,sans-Serif" font-size="11.00">wetting_loss</text>
<polygon fill="none" stroke="black" points="850,-636 850,-658 956,-658 956,-636 850,-636"/>
<text text-anchor="start" x="853" y="-644.2" font-family="Helvetica,sans-Serif" font-size="11.00">numeric[4,1]</text>
<polygon fill="none" stroke="black" points="632,-614 632,-636 850,-636 850,-614 632,-614"/>
<text text-anchor="start" x="652" y="-622.2" font-family="Helvetica,sans-Serif" font-size="11.00">last_modification</text>
<polygon fill="none" stroke="black" points="850,-614 850,-636 956,-636 956,-614 850,-614"/>
<text text-anchor="start" x="853" y="-622.2" font-family="Helvetica,sans-Serif" font-size="11.00">timestamp[29,6]</text>
<polygon fill="#ffffff" stroke="transparent" points="632,-592 632,-614 850,-614 850,-592 632,-592"/>
<polygon fill="none" stroke="black" points="632,-592 632,-614 850,-614 850,-592 632,-592"/>
<image xlink:href="../../images/foreignKeys.png" width="11px" height="12px" preserveAspectRatio="xMinYMin meet" x="637" y="-609"/>
<text text-anchor="start" x="652" y="-600.2" font-family="Helvetica,sans-Serif" font-size="11.00">fk_dataowner</text>
<polygon fill="none" stroke="black" points="850,-592 850,-614 956,-614 956,-592 850,-592"/>
<text text-anchor="start" x="853" y="-600.2" font-family="Helvetica,sans-Serif" font-size="11.00">varchar[16]</text>
<polygon fill="none" stroke="black" points="632,-570 632,-592 850,-592 850,-570 632,-570"/>
<image xlink:href="../../images/foreignKeys.png" width="11px" height="12px" preserveAspectRatio="xMinYMin meet" x="637" y="-587"/>
<text text-anchor="start" x="652" y="-578.2" font-family="Helvetica,sans-Serif" font-size="11.00">fk_provider</text>
<polygon fill="none" stroke="black" points="850,-570 850,-592 956,-592 956,-570 850,-570"/>
<text text-anchor="start" x="853" y="-578.2" font-family="Helvetica,sans-Serif" font-size="11.00">varchar[16]</text>
<polygon fill="none" stroke="black" points="632,-548 632,-570 850,-570 850,-548 632,-548"/>
<image xlink:href="../../images/foreignKeys.png" width="11px" height="12px" preserveAspectRatio="xMinYMin meet" x="637" y="-565"/>
<text text-anchor="start" x="652" y="-556.2" font-family="Helvetica,sans-Serif" font-size="11.00">fk_catchment_area</text>
<polygon fill="none" stroke="black" points="850,-548 850,-570 956,-570 956,-548 850,-548"/>
<text text-anchor="start" x="853" y="-556.2" font-family="Helvetica,sans-Serif" font-size="11.00">varchar[16]</text>
<polygon fill="#ffffff" stroke="transparent" points="632,-530 632,-548 956,-548 956,-530 632,-530"/>
<polygon fill="none" stroke="black" points="632,-530 632,-548 956,-548 956,-530 632,-530"/>
<polygon fill="#ffffff" stroke="transparent" points="633,-531 633,-547 745,-547 745,-531 633,-531"/>
<text text-anchor="start" x="635" y="-536.2" font-family="Helvetica,sans-Serif" font-size="11.00">&lt; 3</text>
<polygon fill="#ffffff" stroke="transparent" points="745,-531 745,-547 844,-547 844,-531 745,-531"/>
<text text-anchor="start" x="790.5" y="-536.2" font-family="Helvetica,sans-Serif" font-size="11.00"> &#160;</text>
<polygon fill="#ffffff" stroke="transparent" points="844,-531 844,-547 955,-547 955,-531 844,-531"/>
<text text-anchor="start" x="933" y="-536.2" font-family="Helvetica,sans-Serif" font-size="11.00">2 &gt;</text>
<polygon fill="black" stroke="black" points="745,-531 745,-547 745,-547 745,-531 745,-531"/>
<polygon fill="black" stroke="black" points="844,-531 844,-547 844,-547 844,-531 844,-531"/>
<polygon fill="none" stroke="black" stroke-width="2" points="631,-529 631,-813 957,-813 957,-529 631,-529"/>
</a>
</g>
</g>
<!-- param_ca_general&#45;&gt;surface_runoff_parameters -->
<g id="edge3" class="edge">
<title>param_ca_general:w&#45;&gt;surface_runoff_parameters:e</title>
<path fill="none" stroke="black" d="M995.74,-826.59C977.62,-816.6 983.98,-779 957,-779"/>
<polygon fill="black" stroke="black" points="1006.14,-824.92 1004.31,-832.71 1002.75,-832.34 1004.58,-824.56 1006.14,-824.92"/>
<polyline fill="none" stroke="black" points="1006,-829 1002.11,-828.08 "/>
<ellipse fill="none" stroke="black" cx="998.99" cy="-827.35" rx="3.2" ry="3.2"/>
</g>
<!-- surface_runoff_parameters&#45;&gt;catchment_area -->
<g id="edge5" class="edge">
<title>surface_runoff_parameters:w&#45;&gt;catchment_area:e</title>
<path fill="none" stroke="black" d="M616.9,-554.42C604.68,-544.94 602.7,-524 582,-524"/>
<polygon fill="black" stroke="black" points="623.39,-556.53 629.89,-562.42 627.2,-557.77 631,-559 631,-559 631,-559 627.2,-557.77 632.11,-555.58 623.39,-556.53 623.39,-556.53"/>
<ellipse fill="none" stroke="black" cx="620.35" cy="-555.54" rx="3.2" ry="3.2"/>
</g>
<!-- surface_runoff_parameters&#45;&gt;organisation -->
<g id="edge6" class="edge">
<title>surface_runoff_parameters:w&#45;&gt;organisation:e</title>
<path fill="none" stroke="black" d="M616.59,-603.21C444.97,-608.31 360.54,-701.68 223,-591 165.89,-545.05 256.3,-431 183,-431"/>
<polygon fill="black" stroke="black" points="623,-603.12 631.05,-606.6 627,-603.06 631,-603 631,-603 631,-603 627,-603.06 630.95,-599.4 623,-603.12 623,-603.12"/>
<ellipse fill="none" stroke="black" cx="619.8" cy="-603.17" rx="3.2" ry="3.2"/>
</g>
<!-- surface_runoff_parameters&#45;&gt;organisation -->
<g id="edge7" class="edge">
<title>surface_runoff_parameters:w&#45;&gt;organisation:e</title>
<path fill="none" stroke="black" d="M616.48,-581.21C538.73,-582.82 256.19,-592.73 223,-567 173.21,-528.39 246,-431 183,-431"/>
<polygon fill="black" stroke="black" points="623,-581.11 631.05,-584.6 627,-581.06 631,-581 631,-581 631,-581 627,-581.06 630.95,-577.4 623,-581.11 623,-581.11"/>
<ellipse fill="none" stroke="black" cx="619.8" cy="-581.16" rx="3.2" ry="3.2"/>
</g>
<!-- param_ca_mouse1 -->
<g id="node5" class="node">
<title>param_ca_mouse1</title>
<g id="a_node5"><a xlink:href="../../tables/param_ca_mouse1.html" xlink:title="param_ca_mouse1" target="_top">
<polygon fill="#ffffff" stroke="transparent" points="1007,-681 1007,-761 1191,-761 1191,-681 1007,-681"/>
<polygon fill="#f5f5f5" stroke="transparent" points="1007,-739 1007,-761 1191,-761 1191,-739 1007,-739"/>
<polygon fill="none" stroke="black" points="1007,-739 1007,-761 1191,-761 1191,-739 1007,-739"/>
<text text-anchor="start" x="1012" y="-748.2" font-family="Helvetica,sans-Serif" font-weight="bold" font-size="11.00">param_ca_mouse1</text>
<text text-anchor="start" x="1149" y="-747.2" font-family="Helvetica,sans-Serif" font-size="11.00">[table]</text>
<polygon fill="none" stroke="black" points="1007,-717 1007,-739 1191,-739 1191,-717 1007,-717"/>
<image xlink:href="../../images/primaryKeys.png" width="11px" height="12px" preserveAspectRatio="xMinYMin meet" x="1012" y="-734"/>
<text text-anchor="start" x="1027" y="-725.2" font-family="Helvetica,sans-Serif" font-size="11.00">obj_id</text>
<polygon fill="none" stroke="black" points="1007,-699 1007,-717 1191,-717 1191,-699 1007,-699"/>
<text text-anchor="start" x="1010" y="-705.2" font-family="Helvetica,sans-Serif" font-size="11.00">...</text>
<polygon fill="#ffffff" stroke="transparent" points="1007,-681 1007,-699 1191,-699 1191,-681 1007,-681"/>
<polygon fill="none" stroke="black" points="1007,-681 1007,-699 1191,-699 1191,-681 1007,-681"/>
<polygon fill="#ffffff" stroke="transparent" points="1008,-682 1008,-698 1077,-698 1077,-682 1008,-682"/>
<text text-anchor="start" x="1010" y="-687.2" font-family="Helvetica,sans-Serif" font-size="11.00">&lt; 1</text>
<polygon fill="#ffffff" stroke="transparent" points="1077,-682 1077,-698 1134,-698 1134,-682 1077,-682"/>
<text text-anchor="start" x="1101.5" y="-687.2" font-family="Helvetica,sans-Serif" font-size="11.00"> &#160;</text>
<polygon fill="#ffffff" stroke="transparent" points="1134,-682 1134,-698 1190,-698 1190,-682 1134,-682"/>
<text text-anchor="start" x="1180" y="-687.2" font-family="Helvetica,sans-Serif" font-size="11.00"> &#160;</text>
<polygon fill="black" stroke="black" points="1077,-682 1077,-698 1077,-698 1077,-682 1077,-682"/>
<polygon fill="black" stroke="black" points="1134,-682 1134,-698 1134,-698 1134,-682 1134,-682"/>
</a>
</g>
</g>
<!-- param_ca_mouse1&#45;&gt;surface_runoff_parameters -->
<g id="edge4" class="edge">
<title>param_ca_mouse1:w&#45;&gt;surface_runoff_parameters:e</title>
<path fill="none" stroke="black" d="M995.66,-730.46C977.45,-740.65 984.26,-779 957,-779"/>
<polygon fill="black" stroke="black" points="1004.3,-724.29 1006.15,-732.08 1004.59,-732.45 1002.74,-724.66 1004.3,-724.29"/>
<polyline fill="none" stroke="black" points="1006,-728 1002.11,-728.93 "/>
<ellipse fill="none" stroke="black" cx="999" cy="-729.67" rx="3.2" ry="3.2"/>
</g>
</g>
</svg>
