<?xml version="1.0" encoding="UTF-8" standalone="no"?>
<!DOCTYPE svg PUBLIC "-//W3C//DTD SVG 1.1//EN"
 "http://www.w3.org/Graphics/SVG/1.1/DTD/svg11.dtd">
<!-- Generated by graphviz version 2.43.0 (0)
 -->
<!-- Title: oneDegreeRelationshipsDiagram Pages: 1 -->
<svg width="678pt" height="461pt"
 viewBox="0.00 0.00 678.00 461.00" xmlns="http://www.w3.org/2000/svg" xmlns:xlink="http://www.w3.org/1999/xlink">
<g id="graph0" class="graph" transform="scale(1 1) rotate(0) translate(4 457)">
<title>oneDegreeRelationshipsDiagram</title>
<polygon fill="#ffffff" stroke="transparent" points="-4,4 -4,-457 674,-457 674,4 -4,4"/>
<text text-anchor="middle" x="79.5" y="-7.2" font-family="Helvetica,sans-Serif" font-size="11.00">Generated by SchemaSpy</text>
<!-- tww_wastewater_structure_label -->
<g id="node1" class="node">
<title>tww_wastewater_structure_label</title>
<g id="a_node1"><a xlink:href="../../tables/tww_wastewater_structure_label.html" xlink:title="tww_wastewater_structure_label" target="_top">
<polygon fill="#ffffff" stroke="transparent" points="292,-317 292,-449 662,-449 662,-317 292,-317"/>
<polygon fill="#f5f5f5" stroke="transparent" points="294,-425 294,-447 660,-447 660,-425 294,-425"/>
<polygon fill="none" stroke="black" points="294,-425 294,-447 660,-447 660,-425 294,-425"/>
<text text-anchor="start" x="299" y="-434.2" font-family="Helvetica,sans-Serif" font-weight="bold" font-size="11.00">tww_wastewater_structure_label</text>
<text text-anchor="start" x="618" y="-433.2" font-family="Helvetica,sans-Serif" font-size="11.00">[table]</text>
<polygon fill="none" stroke="black" points="294,-403 294,-425 554,-425 554,-403 294,-403"/>
<image xlink:href="../../images/primaryKeys.png" width="11px" height="12px" preserveAspectRatio="xMinYMin meet" x="299" y="-420"/>
<text text-anchor="start" x="314" y="-411.2" font-family="Helvetica,sans-Serif" font-size="11.00">fk_wastewater_structure</text>
<polygon fill="none" stroke="black" points="554,-403 554,-425 660,-425 660,-403 554,-403"/>
<text text-anchor="start" x="557" y="-411.2" font-family="Helvetica,sans-Serif" font-size="11.00">varchar[16]</text>
<polygon fill="none" stroke="black" points="294,-381 294,-403 554,-403 554,-381 294,-381"/>
<text text-anchor="start" x="314" y="-389.2" font-family="Helvetica,sans-Serif" font-size="11.00">label_text_c</text>
<polygon fill="none" stroke="black" points="554,-381 554,-403 660,-403 660,-381 554,-381"/>
<text text-anchor="start" x="557" y="-389.2" font-family="Helvetica,sans-Serif" font-size="11.00">text[2147483647]</text>
<polygon fill="none" stroke="black" points="294,-359 294,-381 554,-381 554,-359 294,-359"/>
<text text-anchor="start" x="314" y="-367.2" font-family="Helvetica,sans-Serif" font-size="11.00">label_text_b</text>
<polygon fill="none" stroke="black" points="554,-359 554,-381 660,-381 660,-359 554,-359"/>
<text text-anchor="start" x="557" y="-367.2" font-family="Helvetica,sans-Serif" font-size="11.00">text[2147483647]</text>
<polygon fill="none" stroke="black" points="294,-337 294,-359 554,-359 554,-337 294,-337"/>
<text text-anchor="start" x="314" y="-345.2" font-family="Helvetica,sans-Serif" font-size="11.00">label_text_rp</text>
<polygon fill="none" stroke="black" points="554,-337 554,-359 660,-359 660,-337 554,-337"/>
<text text-anchor="start" x="557" y="-345.2" font-family="Helvetica,sans-Serif" font-size="11.00">text[2147483647]</text>
<polygon fill="#ffffff" stroke="transparent" points="294,-319 294,-337 660,-337 660,-319 294,-319"/>
<polygon fill="none" stroke="black" points="294,-319 294,-337 660,-337 660,-319 294,-319"/>
<polygon fill="#ffffff" stroke="transparent" points="295,-320 295,-336 421,-336 421,-320 295,-320"/>
<text text-anchor="start" x="297" y="-325.2" font-family="Helvetica,sans-Serif" font-size="11.00">&lt; 1</text>
<polygon fill="#ffffff" stroke="transparent" points="421,-320 421,-336 534,-336 534,-320 421,-320"/>
<text text-anchor="start" x="473.5" y="-325.2" font-family="Helvetica,sans-Serif" font-size="11.00"> &#160;</text>
<polygon fill="#ffffff" stroke="transparent" points="534,-320 534,-336 659,-336 659,-320 534,-320"/>
<text text-anchor="start" x="637" y="-325.2" font-family="Helvetica,sans-Serif" font-size="11.00">0 &gt;</text>
<polygon fill="black" stroke="black" points="421,-320 421,-336 421,-336 421,-320 421,-320"/>
<polygon fill="black" stroke="black" points="534,-320 534,-336 534,-336 534,-320 534,-320"/>
<polygon fill="none" stroke="black" stroke-width="2" points="293,-318 293,-448 661,-448 661,-318 293,-318"/>
</a>
</g>
</g>
<!-- wastewater_structure -->
<g id="node2" class="node">
<title>wastewater_structure</title>
<g id="a_node2"><a xlink:href="../../tables/wastewater_structure.html" xlink:title="wastewater_structure" target="_top">
<polygon fill="#ffffff" stroke="transparent" points="8,-37 8,-447 243,-447 243,-37 8,-37"/>
<polygon fill="#f5f5f5" stroke="transparent" points="8.5,-425 8.5,-447 243.5,-447 243.5,-425 8.5,-425"/>
<polygon fill="none" stroke="black" points="8.5,-425 8.5,-447 243.5,-447 243.5,-425 8.5,-425"/>
<text text-anchor="start" x="13.5" y="-434.2" font-family="Helvetica,sans-Serif" font-weight="bold" font-size="11.00">wastewater_structure</text>
<text text-anchor="start" x="201.5" y="-433.2" font-family="Helvetica,sans-Serif" font-size="11.00">[table]</text>
<polygon fill="none" stroke="black" points="8.5,-403 8.5,-425 243.5,-425 243.5,-403 8.5,-403"/>
<image xlink:href="../../images/primaryKeys.png" width="11px" height="12px" preserveAspectRatio="xMinYMin meet" x="13.5" y="-420"/>
<text text-anchor="start" x="28.5" y="-411.2" font-family="Helvetica,sans-Serif" font-size="11.00">obj_id</text>
<polygon fill="none" stroke="black" points="8.5,-381 8.5,-403 243.5,-403 243.5,-381 8.5,-381"/>
<image xlink:href="../../images/foreignKeys.png" width="11px" height="12px" preserveAspectRatio="xMinYMin meet" x="13.5" y="-398"/>
<text text-anchor="start" x="28.5" y="-389.2" font-family="Helvetica,sans-Serif" font-size="11.00">accessibility</text>
<polygon fill="#ffffff" stroke="transparent" points="8.5,-359 8.5,-381 243.5,-381 243.5,-359 8.5,-359"/>
<polygon fill="none" stroke="black" points="8.5,-359 8.5,-381 243.5,-381 243.5,-359 8.5,-359"/>
<text text-anchor="start" x="28.5" y="-367.2" font-family="Helvetica,sans-Serif" font-size="11.00">detail_geometry3d_geometry</text>
<polygon fill="none" stroke="black" points="8.5,-337 8.5,-359 243.5,-359 243.5,-337 8.5,-337"/>
<image xlink:href="../../images/foreignKeys.png" width="11px" height="12px" preserveAspectRatio="xMinYMin meet" x="13.5" y="-354"/>
<text text-anchor="start" x="28.5" y="-345.2" font-family="Helvetica,sans-Serif" font-size="11.00">elevation_determination</text>
<polygon fill="none" stroke="black" points="8.5,-315 8.5,-337 243.5,-337 243.5,-315 8.5,-315"/>
<image xlink:href="../../images/foreignKeys.png" width="11px" height="12px" preserveAspectRatio="xMinYMin meet" x="13.5" y="-332"/>
<text text-anchor="start" x="28.5" y="-323.2" font-family="Helvetica,sans-Serif" font-size="11.00">financing</text>
<polygon fill="#ffffff" stroke="transparent" points="8.5,-293 8.5,-315 243.5,-315 243.5,-293 8.5,-293"/>
<polygon fill="none" stroke="black" points="8.5,-293 8.5,-315 243.5,-315 243.5,-293 8.5,-293"/>
<text text-anchor="start" x="28.5" y="-301.2" font-family="Helvetica,sans-Serif" font-size="11.00">identifier</text>
<polygon fill="none" stroke="black" points="8.5,-271 8.5,-293 243.5,-293 243.5,-271 8.5,-271"/>
<image xlink:href="../../images/foreignKeys.png" width="11px" height="12px" preserveAspectRatio="xMinYMin meet" x="13.5" y="-288"/>
<text text-anchor="start" x="28.5" y="-279.2" font-family="Helvetica,sans-Serif" font-size="11.00">renovation_necessity</text>
<polygon fill="none" stroke="black" points="8.5,-249 8.5,-271 243.5,-271 243.5,-249 8.5,-249"/>
<image xlink:href="../../images/foreignKeys.png" width="11px" height="12px" preserveAspectRatio="xMinYMin meet" x="13.5" y="-266"/>
<text text-anchor="start" x="28.5" y="-257.2" font-family="Helvetica,sans-Serif" font-size="11.00">rv_construction_type</text>
<polygon fill="none" stroke="black" points="8.5,-227 8.5,-249 243.5,-249 243.5,-227 8.5,-227"/>
<image xlink:href="../../images/foreignKeys.png" width="11px" height="12px" preserveAspectRatio="xMinYMin meet" x="13.5" y="-244"/>
<text text-anchor="start" x="28.5" y="-235.2" font-family="Helvetica,sans-Serif" font-size="11.00">status</text>
<polygon fill="none" stroke="black" points="8.5,-205 8.5,-227 243.5,-227 243.5,-205 8.5,-205"/>
<image xlink:href="../../images/foreignKeys.png" width="11px" height="12px" preserveAspectRatio="xMinYMin meet" x="13.5" y="-222"/>
<text text-anchor="start" x="28.5" y="-213.2" font-family="Helvetica,sans-Serif" font-size="11.00">structure_condition</text>
<polygon fill="#ffffff" stroke="transparent" points="8.5,-183 8.5,-205 243.5,-205 243.5,-183 8.5,-183"/>
<polygon fill="none" stroke="black" points="8.5,-183 8.5,-205 243.5,-205 243.5,-183 8.5,-183"/>
<image xlink:href="../../images/foreignKeys.png" width="11px" height="12px" preserveAspectRatio="xMinYMin meet" x="13.5" y="-200"/>
<text text-anchor="start" x="28.5" y="-191.2" font-family="Helvetica,sans-Serif" font-size="11.00">fk_dataowner</text>
<polygon fill="none" stroke="black" points="8.5,-161 8.5,-183 243.5,-183 243.5,-161 8.5,-161"/>
<image xlink:href="../../images/foreignKeys.png" width="11px" height="12px" preserveAspectRatio="xMinYMin meet" x="13.5" y="-178"/>
<text text-anchor="start" x="28.5" y="-169.2" font-family="Helvetica,sans-Serif" font-size="11.00">fk_provider</text>
<polygon fill="#ffffff" stroke="transparent" points="8.5,-139 8.5,-161 243.5,-161 243.5,-139 8.5,-139"/>
<polygon fill="none" stroke="black" points="8.5,-139 8.5,-161 243.5,-161 243.5,-139 8.5,-139"/>
<image xlink:href="../../images/foreignKeys.png" width="11px" height="12px" preserveAspectRatio="xMinYMin meet" x="13.5" y="-156"/>
<text text-anchor="start" x="28.5" y="-147.2" font-family="Helvetica,sans-Serif" font-size="11.00">fk_owner</text>
<polygon fill="none" stroke="black" points="8.5,-117 8.5,-139 243.5,-139 243.5,-117 8.5,-117"/>
<image xlink:href="../../images/foreignKeys.png" width="11px" height="12px" preserveAspectRatio="xMinYMin meet" x="13.5" y="-134"/>
<text text-anchor="start" x="28.5" y="-125.2" font-family="Helvetica,sans-Serif" font-size="11.00">fk_operator</text>
<polygon fill="#ffffff" stroke="transparent" points="8.5,-95 8.5,-117 243.5,-117 243.5,-95 8.5,-95"/>
<polygon fill="none" stroke="black" points="8.5,-95 8.5,-117 243.5,-117 243.5,-95 8.5,-95"/>
<image xlink:href="../../images/foreignKeys.png" width="11px" height="12px" preserveAspectRatio="xMinYMin meet" x="13.5" y="-112"/>
<text text-anchor="start" x="28.5" y="-103.2" font-family="Helvetica,sans-Serif" font-size="11.00">fk_main_cover</text>
<polygon fill="#ffffff" stroke="transparent" points="8.5,-73 8.5,-95 243.5,-95 243.5,-73 8.5,-73"/>
<polygon fill="none" stroke="black" points="8.5,-73 8.5,-95 243.5,-95 243.5,-73 8.5,-73"/>
<image xlink:href="../../images/foreignKeys.png" width="11px" height="12px" preserveAspectRatio="xMinYMin meet" x="13.5" y="-90"/>
<text text-anchor="start" x="28.5" y="-81.2" font-family="Helvetica,sans-Serif" font-size="11.00">fk_main_wastewater_node</text>
<polygon fill="none" stroke="black" points="8.5,-55 8.5,-73 243.5,-73 243.5,-55 8.5,-55"/>
<text text-anchor="start" x="11.5" y="-61.2" font-family="Helvetica,sans-Serif" font-size="11.00">...</text>
<polygon fill="#ffffff" stroke="transparent" points="8.5,-37 8.5,-55 243.5,-55 243.5,-37 8.5,-37"/>
<polygon fill="none" stroke="black" points="8.5,-37 8.5,-55 243.5,-55 243.5,-37 8.5,-37"/>
<polygon fill="#ffffff" stroke="transparent" points="9.5,-38 9.5,-54 93.5,-54 93.5,-38 9.5,-38"/>
<text text-anchor="start" x="11.5" y="-43.2" font-family="Helvetica,sans-Serif" font-size="11.00">&lt; 13</text>
<polygon fill="#ffffff" stroke="transparent" points="93.5,-38 93.5,-54 158.5,-54 158.5,-38 93.5,-38"/>
<text text-anchor="start" x="122" y="-43.2" font-family="Helvetica,sans-Serif" font-size="11.00"> &#160;</text>
<polygon fill="#ffffff" stroke="transparent" points="158.5,-38 158.5,-54 242.5,-54 242.5,-38 158.5,-38"/>
<text text-anchor="start" x="213.5" y="-43.2" font-family="Helvetica,sans-Serif" font-size="11.00">19 &gt;</text>
<polygon fill="black" stroke="black" points="93.5,-38 93.5,-54 93.5,-54 93.5,-38 93.5,-38"/>
<polygon fill="black" stroke="black" points="158.5,-38 158.5,-54 158.5,-54 158.5,-38 158.5,-38"/>
</a>
</g>
</g>
<!-- tww_wastewater_structure_label&#45;&gt;wastewater_structure -->
<g id="edge1" class="edge">
<title>tww_wastewater_structure_label:w&#45;&gt;wastewater_structure:e</title>
<path fill="none" stroke="black" d="M282.37,-414C268.86,-414 262.01,-414 244.5,-414"/>
<polygon fill="black" stroke="black" points="292.2,-410 292.2,-418 290.6,-418 290.6,-410 292.2,-410"/>
<polyline fill="none" stroke="black" points="293,-414 289,-414 "/>
<ellipse fill="none" stroke="black" cx="285.8" cy="-414" rx="3.2" ry="3.2"/>
</g>
</g>
</svg>
