<?xml version="1.0" encoding="UTF-8" standalone="no"?>
<!DOCTYPE svg PUBLIC "-//W3C//DTD SVG 1.1//EN"
 "http://www.w3.org/Graphics/SVG/1.1/DTD/svg11.dtd">
<!-- Generated by graphviz version 2.43.0 (0)
 -->
<!-- Title: oneDegreeRelationshipsDiagram Pages: 1 -->
<svg width="936pt" height="641pt"
 viewBox="0.00 0.00 936.00 641.00" xmlns="http://www.w3.org/2000/svg" xmlns:xlink="http://www.w3.org/1999/xlink">
<g id="graph0" class="graph" transform="scale(1 1) rotate(0) translate(4 637)">
<title>oneDegreeRelationshipsDiagram</title>
<polygon fill="#ffffff" stroke="transparent" points="-4,4 -4,-637 932,-637 932,4 -4,4"/>
<text text-anchor="middle" x="79.5" y="-7.2" font-family="Helvetica,sans-Serif" font-size="11.00">Generated by SchemaSpy</text>
<!-- tww_od.bio_ecol_assessment -->
<g id="node1" class="node">
<title>tww_od.bio_ecol_assessment</title>
<g id="a_node1"><a xlink:href="../../../tww_od/tables/bio_ecol_assessment.html" xlink:title="tww_od.bio_ecol_assessment" target="_top">
<polygon fill="#ffffff" stroke="transparent" points="519,-373 519,-629 920,-629 920,-373 519,-373"/>
<polygon fill="#f5f5f5" stroke="transparent" points="519.5,-607 519.5,-629 920.5,-629 920.5,-607 519.5,-607"/>
<polygon fill="none" stroke="black" points="519.5,-607 519.5,-629 920.5,-629 920.5,-607 519.5,-607"/>
<text text-anchor="start" x="524.5" y="-616.2" font-family="Helvetica,sans-Serif" font-weight="bold" font-size="11.00">tww_od.bio_ecol_assessment</text>
<text text-anchor="start" x="878.5" y="-615.2" font-family="Helvetica,sans-Serif" font-size="11.00">[table]</text>
<polygon fill="none" stroke="black" points="519.5,-585 519.5,-607 920.5,-607 920.5,-585 519.5,-585"/>
<image xlink:href="../../images/foreignKeys.png" width="11px" height="12px" preserveAspectRatio="xMinYMin meet" x="524.5" y="-602"/>
<text text-anchor="start" x="539.5" y="-593.2" font-family="Helvetica,sans-Serif" font-size="11.00">comparison_last</text>
<polygon fill="none" stroke="black" points="519.5,-563 519.5,-585 920.5,-585 920.5,-563 519.5,-563"/>
<image xlink:href="../../images/foreignKeys.png" width="11px" height="12px" preserveAspectRatio="xMinYMin meet" x="524.5" y="-580"/>
<text text-anchor="start" x="539.5" y="-571.2" font-family="Helvetica,sans-Serif" font-size="11.00">impact_auxiliary_indic</text>
<polygon fill="none" stroke="black" points="519.5,-541 519.5,-563 920.5,-563 920.5,-541 519.5,-541"/>
<image xlink:href="../../images/foreignKeys.png" width="11px" height="12px" preserveAspectRatio="xMinYMin meet" x="524.5" y="-558"/>
<text text-anchor="start" x="539.5" y="-549.2" font-family="Helvetica,sans-Serif" font-size="11.00">impact_external_aspect</text>
<polygon fill="none" stroke="black" points="519.5,-519 519.5,-541 920.5,-541 920.5,-519 519.5,-519"/>
<image xlink:href="../../images/foreignKeys.png" width="11px" height="12px" preserveAspectRatio="xMinYMin meet" x="524.5" y="-536"/>
<text text-anchor="start" x="539.5" y="-527.2" font-family="Helvetica,sans-Serif" font-size="11.00">impact_macroinvertebrates</text>
<polygon fill="none" stroke="black" points="519.5,-497 519.5,-519 920.5,-519 920.5,-497 519.5,-497"/>
<image xlink:href="../../images/foreignKeys.png" width="11px" height="12px" preserveAspectRatio="xMinYMin meet" x="524.5" y="-514"/>
<text text-anchor="start" x="539.5" y="-505.2" font-family="Helvetica,sans-Serif" font-size="11.00">impact_water_plants</text>
<polygon fill="none" stroke="black" points="519.5,-475 519.5,-497 920.5,-497 920.5,-475 519.5,-475"/>
<image xlink:href="../../images/foreignKeys.png" width="11px" height="12px" preserveAspectRatio="xMinYMin meet" x="524.5" y="-492"/>
<text text-anchor="start" x="539.5" y="-483.2" font-family="Helvetica,sans-Serif" font-size="11.00">intervention_demand</text>
<polygon fill="none" stroke="black" points="519.5,-453 519.5,-475 920.5,-475 920.5,-453 519.5,-453"/>
<image xlink:href="../../images/foreignKeys.png" width="11px" height="12px" preserveAspectRatio="xMinYMin meet" x="524.5" y="-470"/>
<text text-anchor="start" x="539.5" y="-461.2" font-family="Helvetica,sans-Serif" font-size="11.00">io_calculation</text>
<polygon fill="none" stroke="black" points="519.5,-431 519.5,-453 920.5,-453 920.5,-431 519.5,-431"/>
<image xlink:href="../../images/foreignKeys.png" width="11px" height="12px" preserveAspectRatio="xMinYMin meet" x="524.5" y="-448"/>
<text text-anchor="start" x="539.5" y="-439.2" font-family="Helvetica,sans-Serif" font-size="11.00">kind_water_body</text>
<polygon fill="none" stroke="black" points="519.5,-409 519.5,-431 920.5,-431 920.5,-409 519.5,-409"/>
<image xlink:href="../../images/foreignKeys.png" width="11px" height="12px" preserveAspectRatio="xMinYMin meet" x="524.5" y="-426"/>
<text text-anchor="start" x="539.5" y="-417.2" font-family="Helvetica,sans-Serif" font-size="11.00">relevance_matrix</text>
<polygon fill="none" stroke="black" points="519.5,-391 519.5,-409 920.5,-409 920.5,-391 519.5,-391"/>
<text text-anchor="start" x="522.5" y="-397.2" font-family="Helvetica,sans-Serif" font-size="11.00">...</text>
<polygon fill="#ffffff" stroke="transparent" points="519.5,-373 519.5,-391 920.5,-391 920.5,-373 519.5,-373"/>
<polygon fill="none" stroke="black" points="519.5,-373 519.5,-391 920.5,-391 920.5,-373 519.5,-373"/>
<polygon fill="#ffffff" stroke="transparent" points="520.5,-374 520.5,-390 652.5,-390 652.5,-374 520.5,-374"/>
<text text-anchor="start" x="522.5" y="-379.2" font-family="Helvetica,sans-Serif" font-size="11.00">&lt; 9</text>
<polygon fill="#ffffff" stroke="transparent" points="652.5,-374 652.5,-390 800.5,-390 800.5,-374 652.5,-374"/>
<text text-anchor="start" x="708" y="-379.2" font-family="Helvetica,sans-Serif" font-size="11.00">0 rows</text>
<polygon fill="#ffffff" stroke="transparent" points="800.5,-374 800.5,-390 919.5,-390 919.5,-374 800.5,-374"/>
<text text-anchor="start" x="909.5" y="-379.2" font-family="Helvetica,sans-Serif" font-size="11.00"> &#160;</text>
<polygon fill="black" stroke="black" points="652.5,-374 652.5,-390 652.5,-390 652.5,-374 652.5,-374"/>
<polygon fill="black" stroke="black" points="800.5,-374 800.5,-390 800.5,-390 800.5,-374 800.5,-374"/>
</a>
</g>
</g>
<!-- bio_ecol_assessment_impact_external_aspect -->
<g id="node2" class="node">
<title>bio_ecol_assessment_impact_external_aspect</title>
<g id="a_node2"><a xlink:href="../../tables/bio_ecol_assessment_impact_exte_5b9a3743.html" xlink:title="bio_ecol_assessment_impact_external_aspect" target="_top">
<polygon fill="#ffffff" stroke="transparent" points="8,-37 8,-587 470,-587 470,-37 8,-37"/>
<polygon fill="#f5f5f5" stroke="transparent" points="10,-563 10,-585 468,-585 468,-563 10,-563"/>
<polygon fill="none" stroke="black" points="10,-563 10,-585 468,-585 468,-563 10,-563"/>
<text text-anchor="start" x="15" y="-572.2" font-family="Helvetica,sans-Serif" font-weight="bold" font-size="11.00">bio_ecol_assessment_impact_external_aspect</text>
<text text-anchor="start" x="426" y="-571.2" font-family="Helvetica,sans-Serif" font-size="11.00">[table]</text>
<polygon fill="none" stroke="black" points="10,-541 10,-563 362,-563 362,-541 10,-541"/>
<image xlink:href="../../images/primaryKeys.png" width="11px" height="12px" preserveAspectRatio="xMinYMin meet" x="15" y="-558"/>
<text text-anchor="start" x="30" y="-549.2" font-family="Helvetica,sans-Serif" font-size="11.00">code</text>
<polygon fill="none" stroke="black" points="362,-541 362,-563 468,-563 468,-541 362,-541"/>
<text text-anchor="start" x="365" y="-549.2" font-family="Helvetica,sans-Serif" font-size="11.00">int4[10]</text>
<polygon fill="none" stroke="black" points="10,-519 10,-541 362,-541 362,-519 10,-519"/>
<text text-anchor="start" x="30" y="-527.2" font-family="Helvetica,sans-Serif" font-size="11.00">vsacode</text>
<polygon fill="none" stroke="black" points="362,-519 362,-541 468,-541 468,-519 362,-519"/>
<text text-anchor="start" x="365" y="-527.2" font-family="Helvetica,sans-Serif" font-size="11.00">int4[10]</text>
<polygon fill="none" stroke="black" points="10,-497 10,-519 362,-519 362,-497 10,-497"/>
<text text-anchor="start" x="30" y="-505.2" font-family="Helvetica,sans-Serif" font-size="11.00">value_en</text>
<polygon fill="none" stroke="black" points="362,-497 362,-519 468,-519 468,-497 362,-497"/>
<text text-anchor="start" x="365" y="-505.2" font-family="Helvetica,sans-Serif" font-size="11.00">varchar[100]</text>
<polygon fill="none" stroke="black" points="10,-475 10,-497 362,-497 362,-475 10,-475"/>
<text text-anchor="start" x="30" y="-483.2" font-family="Helvetica,sans-Serif" font-size="11.00">value_de</text>
<polygon fill="none" stroke="black" points="362,-475 362,-497 468,-497 468,-475 362,-475"/>
<text text-anchor="start" x="365" y="-483.2" font-family="Helvetica,sans-Serif" font-size="11.00">varchar[100]</text>
<polygon fill="none" stroke="black" points="10,-453 10,-475 362,-475 362,-453 10,-453"/>
<text text-anchor="start" x="30" y="-461.2" font-family="Helvetica,sans-Serif" font-size="11.00">value_fr</text>
<polygon fill="none" stroke="black" points="362,-453 362,-475 468,-475 468,-453 362,-453"/>
<text text-anchor="start" x="365" y="-461.2" font-family="Helvetica,sans-Serif" font-size="11.00">varchar[100]</text>
<polygon fill="none" stroke="black" points="10,-431 10,-453 362,-453 362,-431 10,-431"/>
<text text-anchor="start" x="30" y="-439.2" font-family="Helvetica,sans-Serif" font-size="11.00">value_it</text>
<polygon fill="none" stroke="black" points="362,-431 362,-453 468,-453 468,-431 362,-431"/>
<text text-anchor="start" x="365" y="-439.2" font-family="Helvetica,sans-Serif" font-size="11.00">varchar[100]</text>
<polygon fill="none" stroke="black" points="10,-409 10,-431 362,-431 362,-409 10,-409"/>
<text text-anchor="start" x="30" y="-417.2" font-family="Helvetica,sans-Serif" font-size="11.00">value_ro</text>
<polygon fill="none" stroke="black" points="362,-409 362,-431 468,-431 468,-409 362,-409"/>
<text text-anchor="start" x="365" y="-417.2" font-family="Helvetica,sans-Serif" font-size="11.00">varchar[100]</text>
<polygon fill="none" stroke="black" points="10,-387 10,-409 362,-409 362,-387 10,-387"/>
<text text-anchor="start" x="30" y="-395.2" font-family="Helvetica,sans-Serif" font-size="11.00">abbr_en</text>
<polygon fill="none" stroke="black" points="362,-387 362,-409 468,-409 468,-387 362,-387"/>
<text text-anchor="start" x="365" y="-395.2" font-family="Helvetica,sans-Serif" font-size="11.00">varchar[3]</text>
<polygon fill="none" stroke="black" points="10,-365 10,-387 362,-387 362,-365 10,-365"/>
<text text-anchor="start" x="30" y="-373.2" font-family="Helvetica,sans-Serif" font-size="11.00">abbr_de</text>
<polygon fill="none" stroke="black" points="362,-365 362,-387 468,-387 468,-365 362,-365"/>
<text text-anchor="start" x="365" y="-373.2" font-family="Helvetica,sans-Serif" font-size="11.00">varchar[3]</text>
<polygon fill="none" stroke="black" points="10,-343 10,-365 362,-365 362,-343 10,-343"/>
<text text-anchor="start" x="30" y="-351.2" font-family="Helvetica,sans-Serif" font-size="11.00">abbr_fr</text>
<polygon fill="none" stroke="black" points="362,-343 362,-365 468,-365 468,-343 362,-343"/>
<text text-anchor="start" x="365" y="-351.2" font-family="Helvetica,sans-Serif" font-size="11.00">varchar[3]</text>
<polygon fill="none" stroke="black" points="10,-321 10,-343 362,-343 362,-321 10,-321"/>
<text text-anchor="start" x="30" y="-329.2" font-family="Helvetica,sans-Serif" font-size="11.00">abbr_it</text>
<polygon fill="none" stroke="black" points="362,-321 362,-343 468,-343 468,-321 362,-321"/>
<text text-anchor="start" x="365" y="-329.2" font-family="Helvetica,sans-Serif" font-size="11.00">varchar[3]</text>
<polygon fill="none" stroke="black" points="10,-299 10,-321 362,-321 362,-299 10,-299"/>
<text text-anchor="start" x="30" y="-307.2" font-family="Helvetica,sans-Serif" font-size="11.00">abbr_ro</text>
<polygon fill="none" stroke="black" points="362,-299 362,-321 468,-321 468,-299 362,-299"/>
<text text-anchor="start" x="365" y="-307.2" font-family="Helvetica,sans-Serif" font-size="11.00">varchar[3]</text>
<polygon fill="none" stroke="black" points="10,-277 10,-299 362,-299 362,-277 10,-277"/>
<text text-anchor="start" x="30" y="-285.2" font-family="Helvetica,sans-Serif" font-size="11.00">active</text>
<polygon fill="none" stroke="black" points="362,-277 362,-299 468,-299 468,-277 362,-277"/>
<text text-anchor="start" x="365" y="-285.2" font-family="Helvetica,sans-Serif" font-size="11.00">bool[1]</text>
<polygon fill="none" stroke="black" points="10,-255 10,-277 362,-277 362,-255 10,-255"/>
<text text-anchor="start" x="30" y="-263.2" font-family="Helvetica,sans-Serif" font-size="11.00">description_en</text>
<polygon fill="none" stroke="black" points="362,-255 362,-277 468,-277 468,-255 362,-255"/>
<text text-anchor="start" x="365" y="-263.2" font-family="Helvetica,sans-Serif" font-size="11.00">text[2147483647]</text>
<polygon fill="none" stroke="black" points="10,-233 10,-255 362,-255 362,-233 10,-233"/>
<text text-anchor="start" x="30" y="-241.2" font-family="Helvetica,sans-Serif" font-size="11.00">description_de</text>
<polygon fill="none" stroke="black" points="362,-233 362,-255 468,-255 468,-233 362,-233"/>
<text text-anchor="start" x="365" y="-241.2" font-family="Helvetica,sans-Serif" font-size="11.00">text[2147483647]</text>
<polygon fill="none" stroke="black" points="10,-211 10,-233 362,-233 362,-211 10,-211"/>
<text text-anchor="start" x="30" y="-219.2" font-family="Helvetica,sans-Serif" font-size="11.00">description_fr</text>
<polygon fill="none" stroke="black" points="362,-211 362,-233 468,-233 468,-211 362,-211"/>
<text text-anchor="start" x="365" y="-219.2" font-family="Helvetica,sans-Serif" font-size="11.00">text[2147483647]</text>
<polygon fill="none" stroke="black" points="10,-189 10,-211 362,-211 362,-189 10,-189"/>
<text text-anchor="start" x="30" y="-197.2" font-family="Helvetica,sans-Serif" font-size="11.00">description_it</text>
<polygon fill="none" stroke="black" points="362,-189 362,-211 468,-211 468,-189 362,-189"/>
<text text-anchor="start" x="365" y="-197.2" font-family="Helvetica,sans-Serif" font-size="11.00">text[2147483647]</text>
<polygon fill="none" stroke="black" points="10,-167 10,-189 362,-189 362,-167 10,-167"/>
<text text-anchor="start" x="30" y="-175.2" font-family="Helvetica,sans-Serif" font-size="11.00">description_ro</text>
<polygon fill="none" stroke="black" points="362,-167 362,-189 468,-189 468,-167 362,-167"/>
<text text-anchor="start" x="365" y="-175.2" font-family="Helvetica,sans-Serif" font-size="11.00">text[2147483647]</text>
<polygon fill="none" stroke="black" points="10,-145 10,-167 362,-167 362,-145 10,-145"/>
<text text-anchor="start" x="30" y="-153.2" font-family="Helvetica,sans-Serif" font-size="11.00">display_en</text>
<polygon fill="none" stroke="black" points="362,-145 362,-167 468,-167 468,-145 362,-145"/>
<text text-anchor="start" x="365" y="-153.2" font-family="Helvetica,sans-Serif" font-size="11.00">varchar[100]</text>
<polygon fill="none" stroke="black" points="10,-123 10,-145 362,-145 362,-123 10,-123"/>
<text text-anchor="start" x="30" y="-131.2" font-family="Helvetica,sans-Serif" font-size="11.00">display_de</text>
<polygon fill="none" stroke="black" points="362,-123 362,-145 468,-145 468,-123 362,-123"/>
<text text-anchor="start" x="365" y="-131.2" font-family="Helvetica,sans-Serif" font-size="11.00">varchar[100]</text>
<polygon fill="none" stroke="black" points="10,-101 10,-123 362,-123 362,-101 10,-101"/>
<text text-anchor="start" x="30" y="-109.2" font-family="Helvetica,sans-Serif" font-size="11.00">display_fr</text>
<polygon fill="none" stroke="black" points="362,-101 362,-123 468,-123 468,-101 362,-101"/>
<text text-anchor="start" x="365" y="-109.2" font-family="Helvetica,sans-Serif" font-size="11.00">varchar[100]</text>
<polygon fill="none" stroke="black" points="10,-79 10,-101 362,-101 362,-79 10,-79"/>
<text text-anchor="start" x="30" y="-87.2" font-family="Helvetica,sans-Serif" font-size="11.00">display_it</text>
<polygon fill="none" stroke="black" points="362,-79 362,-101 468,-101 468,-79 362,-79"/>
<text text-anchor="start" x="365" y="-87.2" font-family="Helvetica,sans-Serif" font-size="11.00">varchar[100]</text>
<polygon fill="none" stroke="black" points="10,-57 10,-79 362,-79 362,-57 10,-57"/>
<text text-anchor="start" x="30" y="-65.2" font-family="Helvetica,sans-Serif" font-size="11.00">display_ro</text>
<polygon fill="none" stroke="black" points="362,-57 362,-79 468,-79 468,-57 362,-57"/>
<text text-anchor="start" x="365" y="-65.2" font-family="Helvetica,sans-Serif" font-size="11.00">varchar[100]</text>
<polygon fill="#ffffff" stroke="transparent" points="10,-39 10,-57 468,-57 468,-39 10,-39"/>
<polygon fill="none" stroke="black" points="10,-39 10,-57 468,-57 468,-39 10,-39"/>
<polygon fill="#ffffff" stroke="transparent" points="11,-40 11,-56 167,-56 167,-40 11,-40"/>
<text text-anchor="start" x="13" y="-45.2" font-family="Helvetica,sans-Serif" font-size="11.00">&lt; 0</text>
<polygon fill="#ffffff" stroke="transparent" points="167,-40 167,-56 311,-56 311,-40 167,-40"/>
<text text-anchor="start" x="235" y="-45.2" font-family="Helvetica,sans-Serif" font-size="11.00"> &#160;</text>
<polygon fill="#ffffff" stroke="transparent" points="311,-40 311,-56 467,-56 467,-40 311,-40"/>
<text text-anchor="start" x="445" y="-45.2" font-family="Helvetica,sans-Serif" font-size="11.00">1 &gt;</text>
<polygon fill="black" stroke="black" points="167,-40 167,-56 167,-56 167,-40 167,-40"/>
<polygon fill="black" stroke="black" points="311,-40 311,-56 311,-56 311,-40 311,-40"/>
<polygon fill="none" stroke="black" stroke-width="2" points="9,-38 9,-586 469,-586 469,-38 9,-38"/>
</a>
</g>
</g>
<!-- tww_od.bio_ecol_assessment&#45;&gt;bio_ecol_assessment_impact_external_aspect -->
<g id="edge1" class="edge">
<title>tww_od.bio_ecol_assessment:w&#45;&gt;bio_ecol_assessment_impact_external_aspect:e</title>
<path fill="none" stroke="black" d="M503.84,-552C492.41,-552 485.16,-552 469,-552"/>
<polygon fill="black" stroke="black" points="510.5,-552 518.5,-555.6 514.5,-552 518.5,-552 518.5,-552 518.5,-552 514.5,-552 518.5,-548.4 510.5,-552 510.5,-552"/>
<ellipse fill="none" stroke="black" cx="507.3" cy="-552" rx="3.2" ry="3.2"/>
</g>
</g>
</svg>
