<?xml version="1.0" encoding="UTF-8" standalone="no"?>
<!DOCTYPE svg PUBLIC "-//W3C//DTD SVG 1.1//EN"
 "http://www.w3.org/Graphics/SVG/1.1/DTD/svg11.dtd">
<!-- Generated by graphviz version 2.43.0 (0)
 -->
<!-- Title: oneDegreeRelationshipsDiagram Pages: 1 -->
<svg width="919pt" height="707pt"
 viewBox="0.00 0.00 919.00 707.00" xmlns="http://www.w3.org/2000/svg" xmlns:xlink="http://www.w3.org/1999/xlink">
<g id="graph0" class="graph" transform="scale(1 1) rotate(0) translate(4 703)">
<title>oneDegreeRelationshipsDiagram</title>
<polygon fill="#ffffff" stroke="transparent" points="-4,4 -4,-703 915,-703 915,4 -4,4"/>
<text text-anchor="middle" x="79.5" y="-7.2" font-family="Helvetica,sans-Serif" font-size="11.00">Generated by SchemaSpy</text>
<!-- tww_od.bio_ecol_assessment -->
<g id="node1" class="node">
<title>tww_od.bio_ecol_assessment</title>
<g id="a_node1"><a xlink:href="../../../tww_od/tables/bio_ecol_assessment.html" xlink:title="tww_od.bio_ecol_assessment" target="_top">
<polygon fill="#ffffff" stroke="transparent" points="502,-439 502,-695 903,-695 903,-439 502,-439"/>
<polygon fill="#f5f5f5" stroke="transparent" points="502.5,-673 502.5,-695 903.5,-695 903.5,-673 502.5,-673"/>
<polygon fill="none" stroke="black" points="502.5,-673 502.5,-695 903.5,-695 903.5,-673 502.5,-673"/>
<text text-anchor="start" x="507.5" y="-682.2" font-family="Helvetica,sans-Serif" font-weight="bold" font-size="11.00">tww_od.bio_ecol_assessment</text>
<text text-anchor="start" x="861.5" y="-681.2" font-family="Helvetica,sans-Serif" font-size="11.00">[table]</text>
<polygon fill="none" stroke="black" points="502.5,-651 502.5,-673 903.5,-673 903.5,-651 502.5,-651"/>
<image xlink:href="../../images/foreignKeys.png" width="11px" height="12px" preserveAspectRatio="xMinYMin meet" x="507.5" y="-668"/>
<text text-anchor="start" x="522.5" y="-659.2" font-family="Helvetica,sans-Serif" font-size="11.00">comparison_last</text>
<polygon fill="none" stroke="black" points="502.5,-629 502.5,-651 903.5,-651 903.5,-629 502.5,-629"/>
<image xlink:href="../../images/foreignKeys.png" width="11px" height="12px" preserveAspectRatio="xMinYMin meet" x="507.5" y="-646"/>
<text text-anchor="start" x="522.5" y="-637.2" font-family="Helvetica,sans-Serif" font-size="11.00">impact_auxiliary_indic</text>
<polygon fill="none" stroke="black" points="502.5,-607 502.5,-629 903.5,-629 903.5,-607 502.5,-607"/>
<image xlink:href="../../images/foreignKeys.png" width="11px" height="12px" preserveAspectRatio="xMinYMin meet" x="507.5" y="-624"/>
<text text-anchor="start" x="522.5" y="-615.2" font-family="Helvetica,sans-Serif" font-size="11.00">impact_external_aspect</text>
<polygon fill="none" stroke="black" points="502.5,-585 502.5,-607 903.5,-607 903.5,-585 502.5,-585"/>
<image xlink:href="../../images/foreignKeys.png" width="11px" height="12px" preserveAspectRatio="xMinYMin meet" x="507.5" y="-602"/>
<text text-anchor="start" x="522.5" y="-593.2" font-family="Helvetica,sans-Serif" font-size="11.00">impact_macroinvertebrates</text>
<polygon fill="none" stroke="black" points="502.5,-563 502.5,-585 903.5,-585 903.5,-563 502.5,-563"/>
<image xlink:href="../../images/foreignKeys.png" width="11px" height="12px" preserveAspectRatio="xMinYMin meet" x="507.5" y="-580"/>
<text text-anchor="start" x="522.5" y="-571.2" font-family="Helvetica,sans-Serif" font-size="11.00">impact_water_plants</text>
<polygon fill="none" stroke="black" points="502.5,-541 502.5,-563 903.5,-563 903.5,-541 502.5,-541"/>
<image xlink:href="../../images/foreignKeys.png" width="11px" height="12px" preserveAspectRatio="xMinYMin meet" x="507.5" y="-558"/>
<text text-anchor="start" x="522.5" y="-549.2" font-family="Helvetica,sans-Serif" font-size="11.00">intervention_demand</text>
<polygon fill="none" stroke="black" points="502.5,-519 502.5,-541 903.5,-541 903.5,-519 502.5,-519"/>
<image xlink:href="../../images/foreignKeys.png" width="11px" height="12px" preserveAspectRatio="xMinYMin meet" x="507.5" y="-536"/>
<text text-anchor="start" x="522.5" y="-527.2" font-family="Helvetica,sans-Serif" font-size="11.00">io_calculation</text>
<polygon fill="none" stroke="black" points="502.5,-497 502.5,-519 903.5,-519 903.5,-497 502.5,-497"/>
<image xlink:href="../../images/foreignKeys.png" width="11px" height="12px" preserveAspectRatio="xMinYMin meet" x="507.5" y="-514"/>
<text text-anchor="start" x="522.5" y="-505.2" font-family="Helvetica,sans-Serif" font-size="11.00">kind_water_body</text>
<polygon fill="none" stroke="black" points="502.5,-475 502.5,-497 903.5,-497 903.5,-475 502.5,-475"/>
<image xlink:href="../../images/foreignKeys.png" width="11px" height="12px" preserveAspectRatio="xMinYMin meet" x="507.5" y="-492"/>
<text text-anchor="start" x="522.5" y="-483.2" font-family="Helvetica,sans-Serif" font-size="11.00">relevance_matrix</text>
<polygon fill="none" stroke="black" points="502.5,-457 502.5,-475 903.5,-475 903.5,-457 502.5,-457"/>
<text text-anchor="start" x="505.5" y="-463.2" font-family="Helvetica,sans-Serif" font-size="11.00">...</text>
<polygon fill="#ffffff" stroke="transparent" points="502.5,-439 502.5,-457 903.5,-457 903.5,-439 502.5,-439"/>
<polygon fill="none" stroke="black" points="502.5,-439 502.5,-457 903.5,-457 903.5,-439 502.5,-439"/>
<polygon fill="#ffffff" stroke="transparent" points="503.5,-440 503.5,-456 635.5,-456 635.5,-440 503.5,-440"/>
<text text-anchor="start" x="505.5" y="-445.2" font-family="Helvetica,sans-Serif" font-size="11.00">&lt; 9</text>
<polygon fill="#ffffff" stroke="transparent" points="635.5,-440 635.5,-456 783.5,-456 783.5,-440 635.5,-440"/>
<text text-anchor="start" x="691" y="-445.2" font-family="Helvetica,sans-Serif" font-size="11.00">0 rows</text>
<polygon fill="#ffffff" stroke="transparent" points="783.5,-440 783.5,-456 902.5,-456 902.5,-440 783.5,-440"/>
<text text-anchor="start" x="892.5" y="-445.2" font-family="Helvetica,sans-Serif" font-size="11.00"> &#160;</text>
<polygon fill="black" stroke="black" points="635.5,-440 635.5,-456 635.5,-456 635.5,-440 635.5,-440"/>
<polygon fill="black" stroke="black" points="783.5,-440 783.5,-456 783.5,-456 783.5,-440 783.5,-440"/>
</a>
</g>
</g>
<!-- bio_ecol_assessment_intervention_demand -->
<g id="node2" class="node">
<title>bio_ecol_assessment_intervention_demand</title>
<g id="a_node2"><a xlink:href="../../tables/bio_ecol_assessment_intervention_demand.html" xlink:title="bio_ecol_assessment_intervention_demand" target="_top">
<polygon fill="#ffffff" stroke="transparent" points="8,-37 8,-587 453,-587 453,-37 8,-37"/>
<polygon fill="#f5f5f5" stroke="transparent" points="10.5,-563 10.5,-585 451.5,-585 451.5,-563 10.5,-563"/>
<polygon fill="none" stroke="black" points="10.5,-563 10.5,-585 451.5,-585 451.5,-563 10.5,-563"/>
<text text-anchor="start" x="15.5" y="-572.2" font-family="Helvetica,sans-Serif" font-weight="bold" font-size="11.00">bio_ecol_assessment_intervention_demand</text>
<text text-anchor="start" x="409.5" y="-571.2" font-family="Helvetica,sans-Serif" font-size="11.00">[table]</text>
<polygon fill="none" stroke="black" points="10.5,-541 10.5,-563 345.5,-563 345.5,-541 10.5,-541"/>
<image xlink:href="../../images/primaryKeys.png" width="11px" height="12px" preserveAspectRatio="xMinYMin meet" x="15.5" y="-558"/>
<text text-anchor="start" x="30.5" y="-549.2" font-family="Helvetica,sans-Serif" font-size="11.00">code</text>
<polygon fill="none" stroke="black" points="345.5,-541 345.5,-563 451.5,-563 451.5,-541 345.5,-541"/>
<text text-anchor="start" x="348.5" y="-549.2" font-family="Helvetica,sans-Serif" font-size="11.00">int4[10]</text>
<polygon fill="none" stroke="black" points="10.5,-519 10.5,-541 345.5,-541 345.5,-519 10.5,-519"/>
<text text-anchor="start" x="30.5" y="-527.2" font-family="Helvetica,sans-Serif" font-size="11.00">vsacode</text>
<polygon fill="none" stroke="black" points="345.5,-519 345.5,-541 451.5,-541 451.5,-519 345.5,-519"/>
<text text-anchor="start" x="348.5" y="-527.2" font-family="Helvetica,sans-Serif" font-size="11.00">int4[10]</text>
<polygon fill="none" stroke="black" points="10.5,-497 10.5,-519 345.5,-519 345.5,-497 10.5,-497"/>
<text text-anchor="start" x="30.5" y="-505.2" font-family="Helvetica,sans-Serif" font-size="11.00">value_en</text>
<polygon fill="none" stroke="black" points="345.5,-497 345.5,-519 451.5,-519 451.5,-497 345.5,-497"/>
<text text-anchor="start" x="348.5" y="-505.2" font-family="Helvetica,sans-Serif" font-size="11.00">varchar[100]</text>
<polygon fill="none" stroke="black" points="10.5,-475 10.5,-497 345.5,-497 345.5,-475 10.5,-475"/>
<text text-anchor="start" x="30.5" y="-483.2" font-family="Helvetica,sans-Serif" font-size="11.00">value_de</text>
<polygon fill="none" stroke="black" points="345.5,-475 345.5,-497 451.5,-497 451.5,-475 345.5,-475"/>
<text text-anchor="start" x="348.5" y="-483.2" font-family="Helvetica,sans-Serif" font-size="11.00">varchar[100]</text>
<polygon fill="none" stroke="black" points="10.5,-453 10.5,-475 345.5,-475 345.5,-453 10.5,-453"/>
<text text-anchor="start" x="30.5" y="-461.2" font-family="Helvetica,sans-Serif" font-size="11.00">value_fr</text>
<polygon fill="none" stroke="black" points="345.5,-453 345.5,-475 451.5,-475 451.5,-453 345.5,-453"/>
<text text-anchor="start" x="348.5" y="-461.2" font-family="Helvetica,sans-Serif" font-size="11.00">varchar[100]</text>
<polygon fill="none" stroke="black" points="10.5,-431 10.5,-453 345.5,-453 345.5,-431 10.5,-431"/>
<text text-anchor="start" x="30.5" y="-439.2" font-family="Helvetica,sans-Serif" font-size="11.00">value_it</text>
<polygon fill="none" stroke="black" points="345.5,-431 345.5,-453 451.5,-453 451.5,-431 345.5,-431"/>
<text text-anchor="start" x="348.5" y="-439.2" font-family="Helvetica,sans-Serif" font-size="11.00">varchar[100]</text>
<polygon fill="none" stroke="black" points="10.5,-409 10.5,-431 345.5,-431 345.5,-409 10.5,-409"/>
<text text-anchor="start" x="30.5" y="-417.2" font-family="Helvetica,sans-Serif" font-size="11.00">value_ro</text>
<polygon fill="none" stroke="black" points="345.5,-409 345.5,-431 451.5,-431 451.5,-409 345.5,-409"/>
<text text-anchor="start" x="348.5" y="-417.2" font-family="Helvetica,sans-Serif" font-size="11.00">varchar[100]</text>
<polygon fill="none" stroke="black" points="10.5,-387 10.5,-409 345.5,-409 345.5,-387 10.5,-387"/>
<text text-anchor="start" x="30.5" y="-395.2" font-family="Helvetica,sans-Serif" font-size="11.00">abbr_en</text>
<polygon fill="none" stroke="black" points="345.5,-387 345.5,-409 451.5,-409 451.5,-387 345.5,-387"/>
<text text-anchor="start" x="348.5" y="-395.2" font-family="Helvetica,sans-Serif" font-size="11.00">varchar[3]</text>
<polygon fill="none" stroke="black" points="10.5,-365 10.5,-387 345.5,-387 345.5,-365 10.5,-365"/>
<text text-anchor="start" x="30.5" y="-373.2" font-family="Helvetica,sans-Serif" font-size="11.00">abbr_de</text>
<polygon fill="none" stroke="black" points="345.5,-365 345.5,-387 451.5,-387 451.5,-365 345.5,-365"/>
<text text-anchor="start" x="348.5" y="-373.2" font-family="Helvetica,sans-Serif" font-size="11.00">varchar[3]</text>
<polygon fill="none" stroke="black" points="10.5,-343 10.5,-365 345.5,-365 345.5,-343 10.5,-343"/>
<text text-anchor="start" x="30.5" y="-351.2" font-family="Helvetica,sans-Serif" font-size="11.00">abbr_fr</text>
<polygon fill="none" stroke="black" points="345.5,-343 345.5,-365 451.5,-365 451.5,-343 345.5,-343"/>
<text text-anchor="start" x="348.5" y="-351.2" font-family="Helvetica,sans-Serif" font-size="11.00">varchar[3]</text>
<polygon fill="none" stroke="black" points="10.5,-321 10.5,-343 345.5,-343 345.5,-321 10.5,-321"/>
<text text-anchor="start" x="30.5" y="-329.2" font-family="Helvetica,sans-Serif" font-size="11.00">abbr_it</text>
<polygon fill="none" stroke="black" points="345.5,-321 345.5,-343 451.5,-343 451.5,-321 345.5,-321"/>
<text text-anchor="start" x="348.5" y="-329.2" font-family="Helvetica,sans-Serif" font-size="11.00">varchar[3]</text>
<polygon fill="none" stroke="black" points="10.5,-299 10.5,-321 345.5,-321 345.5,-299 10.5,-299"/>
<text text-anchor="start" x="30.5" y="-307.2" font-family="Helvetica,sans-Serif" font-size="11.00">abbr_ro</text>
<polygon fill="none" stroke="black" points="345.5,-299 345.5,-321 451.5,-321 451.5,-299 345.5,-299"/>
<text text-anchor="start" x="348.5" y="-307.2" font-family="Helvetica,sans-Serif" font-size="11.00">varchar[3]</text>
<polygon fill="none" stroke="black" points="10.5,-277 10.5,-299 345.5,-299 345.5,-277 10.5,-277"/>
<text text-anchor="start" x="30.5" y="-285.2" font-family="Helvetica,sans-Serif" font-size="11.00">active</text>
<polygon fill="none" stroke="black" points="345.5,-277 345.5,-299 451.5,-299 451.5,-277 345.5,-277"/>
<text text-anchor="start" x="348.5" y="-285.2" font-family="Helvetica,sans-Serif" font-size="11.00">bool[1]</text>
<polygon fill="none" stroke="black" points="10.5,-255 10.5,-277 345.5,-277 345.5,-255 10.5,-255"/>
<text text-anchor="start" x="30.5" y="-263.2" font-family="Helvetica,sans-Serif" font-size="11.00">description_en</text>
<polygon fill="none" stroke="black" points="345.5,-255 345.5,-277 451.5,-277 451.5,-255 345.5,-255"/>
<text text-anchor="start" x="348.5" y="-263.2" font-family="Helvetica,sans-Serif" font-size="11.00">text[2147483647]</text>
<polygon fill="none" stroke="black" points="10.5,-233 10.5,-255 345.5,-255 345.5,-233 10.5,-233"/>
<text text-anchor="start" x="30.5" y="-241.2" font-family="Helvetica,sans-Serif" font-size="11.00">description_de</text>
<polygon fill="none" stroke="black" points="345.5,-233 345.5,-255 451.5,-255 451.5,-233 345.5,-233"/>
<text text-anchor="start" x="348.5" y="-241.2" font-family="Helvetica,sans-Serif" font-size="11.00">text[2147483647]</text>
<polygon fill="none" stroke="black" points="10.5,-211 10.5,-233 345.5,-233 345.5,-211 10.5,-211"/>
<text text-anchor="start" x="30.5" y="-219.2" font-family="Helvetica,sans-Serif" font-size="11.00">description_fr</text>
<polygon fill="none" stroke="black" points="345.5,-211 345.5,-233 451.5,-233 451.5,-211 345.5,-211"/>
<text text-anchor="start" x="348.5" y="-219.2" font-family="Helvetica,sans-Serif" font-size="11.00">text[2147483647]</text>
<polygon fill="none" stroke="black" points="10.5,-189 10.5,-211 345.5,-211 345.5,-189 10.5,-189"/>
<text text-anchor="start" x="30.5" y="-197.2" font-family="Helvetica,sans-Serif" font-size="11.00">description_it</text>
<polygon fill="none" stroke="black" points="345.5,-189 345.5,-211 451.5,-211 451.5,-189 345.5,-189"/>
<text text-anchor="start" x="348.5" y="-197.2" font-family="Helvetica,sans-Serif" font-size="11.00">text[2147483647]</text>
<polygon fill="none" stroke="black" points="10.5,-167 10.5,-189 345.5,-189 345.5,-167 10.5,-167"/>
<text text-anchor="start" x="30.5" y="-175.2" font-family="Helvetica,sans-Serif" font-size="11.00">description_ro</text>
<polygon fill="none" stroke="black" points="345.5,-167 345.5,-189 451.5,-189 451.5,-167 345.5,-167"/>
<text text-anchor="start" x="348.5" y="-175.2" font-family="Helvetica,sans-Serif" font-size="11.00">text[2147483647]</text>
<polygon fill="none" stroke="black" points="10.5,-145 10.5,-167 345.5,-167 345.5,-145 10.5,-145"/>
<text text-anchor="start" x="30.5" y="-153.2" font-family="Helvetica,sans-Serif" font-size="11.00">display_en</text>
<polygon fill="none" stroke="black" points="345.5,-145 345.5,-167 451.5,-167 451.5,-145 345.5,-145"/>
<text text-anchor="start" x="348.5" y="-153.2" font-family="Helvetica,sans-Serif" font-size="11.00">varchar[100]</text>
<polygon fill="none" stroke="black" points="10.5,-123 10.5,-145 345.5,-145 345.5,-123 10.5,-123"/>
<text text-anchor="start" x="30.5" y="-131.2" font-family="Helvetica,sans-Serif" font-size="11.00">display_de</text>
<polygon fill="none" stroke="black" points="345.5,-123 345.5,-145 451.5,-145 451.5,-123 345.5,-123"/>
<text text-anchor="start" x="348.5" y="-131.2" font-family="Helvetica,sans-Serif" font-size="11.00">varchar[100]</text>
<polygon fill="none" stroke="black" points="10.5,-101 10.5,-123 345.5,-123 345.5,-101 10.5,-101"/>
<text text-anchor="start" x="30.5" y="-109.2" font-family="Helvetica,sans-Serif" font-size="11.00">display_fr</text>
<polygon fill="none" stroke="black" points="345.5,-101 345.5,-123 451.5,-123 451.5,-101 345.5,-101"/>
<text text-anchor="start" x="348.5" y="-109.2" font-family="Helvetica,sans-Serif" font-size="11.00">varchar[100]</text>
<polygon fill="none" stroke="black" points="10.5,-79 10.5,-101 345.5,-101 345.5,-79 10.5,-79"/>
<text text-anchor="start" x="30.5" y="-87.2" font-family="Helvetica,sans-Serif" font-size="11.00">display_it</text>
<polygon fill="none" stroke="black" points="345.5,-79 345.5,-101 451.5,-101 451.5,-79 345.5,-79"/>
<text text-anchor="start" x="348.5" y="-87.2" font-family="Helvetica,sans-Serif" font-size="11.00">varchar[100]</text>
<polygon fill="none" stroke="black" points="10.5,-57 10.5,-79 345.5,-79 345.5,-57 10.5,-57"/>
<text text-anchor="start" x="30.5" y="-65.2" font-family="Helvetica,sans-Serif" font-size="11.00">display_ro</text>
<polygon fill="none" stroke="black" points="345.5,-57 345.5,-79 451.5,-79 451.5,-57 345.5,-57"/>
<text text-anchor="start" x="348.5" y="-65.2" font-family="Helvetica,sans-Serif" font-size="11.00">varchar[100]</text>
<polygon fill="#ffffff" stroke="transparent" points="10.5,-39 10.5,-57 451.5,-57 451.5,-39 10.5,-39"/>
<polygon fill="none" stroke="black" points="10.5,-39 10.5,-57 451.5,-57 451.5,-39 10.5,-39"/>
<polygon fill="#ffffff" stroke="transparent" points="11.5,-40 11.5,-56 162.5,-56 162.5,-40 11.5,-40"/>
<text text-anchor="start" x="13.5" y="-45.2" font-family="Helvetica,sans-Serif" font-size="11.00">&lt; 0</text>
<polygon fill="#ffffff" stroke="transparent" points="162.5,-40 162.5,-56 300.5,-56 300.5,-40 162.5,-40"/>
<text text-anchor="start" x="227.5" y="-45.2" font-family="Helvetica,sans-Serif" font-size="11.00"> &#160;</text>
<polygon fill="#ffffff" stroke="transparent" points="300.5,-40 300.5,-56 450.5,-56 450.5,-40 300.5,-40"/>
<text text-anchor="start" x="428.5" y="-45.2" font-family="Helvetica,sans-Serif" font-size="11.00">1 &gt;</text>
<polygon fill="black" stroke="black" points="162.5,-40 162.5,-56 162.5,-56 162.5,-40 162.5,-40"/>
<polygon fill="black" stroke="black" points="300.5,-40 300.5,-56 300.5,-56 300.5,-40 300.5,-40"/>
<polygon fill="none" stroke="black" stroke-width="2" points="9,-38 9,-586 452,-586 452,-38 9,-38"/>
</a>
</g>
</g>
<!-- tww_od.bio_ecol_assessment&#45;&gt;bio_ecol_assessment_intervention_demand -->
<g id="edge1" class="edge">
<title>tww_od.bio_ecol_assessment:w&#45;&gt;bio_ecol_assessment_intervention_demand:e</title>
<path fill="none" stroke="black" d="M486.99,-552C475.68,-552 468.49,-552 452.5,-552"/>
<polygon fill="black" stroke="black" points="493.5,-552 501.5,-555.6 497.5,-552 501.5,-552 501.5,-552 501.5,-552 497.5,-552 501.5,-548.4 493.5,-552 493.5,-552"/>
<ellipse fill="none" stroke="black" cx="490.3" cy="-552" rx="3.2" ry="3.2"/>
</g>
</g>
</svg>
