<?xml version="1.0" encoding="UTF-8" standalone="no"?>
<!DOCTYPE svg PUBLIC "-//W3C//DTD SVG 1.1//EN"
 "http://www.w3.org/Graphics/SVG/1.1/DTD/svg11.dtd">
<!-- Generated by graphviz version 2.43.0 (0)
 -->
<!-- Title: oneDegreeRelationshipsDiagram Pages: 1 -->
<svg width="925pt" height="619pt"
 viewBox="0.00 0.00 925.00 619.00" xmlns="http://www.w3.org/2000/svg" xmlns:xlink="http://www.w3.org/1999/xlink">
<g id="graph0" class="graph" transform="scale(1 1) rotate(0) translate(4 615)">
<title>oneDegreeRelationshipsDiagram</title>
<polygon fill="#ffffff" stroke="transparent" points="-4,4 -4,-615 921,-615 921,4 -4,4"/>
<text text-anchor="middle" x="79.5" y="-7.2" font-family="Helvetica,sans-Serif" font-size="11.00">Generated by SchemaSpy</text>
<!-- tww_od.bio_ecol_assessment -->
<g id="node1" class="node">
<title>tww_od.bio_ecol_assessment</title>
<g id="a_node1"><a xlink:href="../../../tww_od/tables/bio_ecol_assessment.html" xlink:title="tww_od.bio_ecol_assessment" target="_top">
<polygon fill="#ffffff" stroke="transparent" points="508,-351 508,-607 909,-607 909,-351 508,-351"/>
<polygon fill="#f5f5f5" stroke="transparent" points="508.5,-585 508.5,-607 909.5,-607 909.5,-585 508.5,-585"/>
<polygon fill="none" stroke="black" points="508.5,-585 508.5,-607 909.5,-607 909.5,-585 508.5,-585"/>
<text text-anchor="start" x="513.5" y="-594.2" font-family="Helvetica,sans-Serif" font-weight="bold" font-size="11.00">tww_od.bio_ecol_assessment</text>
<text text-anchor="start" x="867.5" y="-593.2" font-family="Helvetica,sans-Serif" font-size="11.00">[table]</text>
<polygon fill="none" stroke="black" points="508.5,-563 508.5,-585 909.5,-585 909.5,-563 508.5,-563"/>
<image xlink:href="../../images/foreignKeys.png" width="11px" height="12px" preserveAspectRatio="xMinYMin meet" x="513.5" y="-580"/>
<text text-anchor="start" x="528.5" y="-571.2" font-family="Helvetica,sans-Serif" font-size="11.00">comparison_last</text>
<polygon fill="none" stroke="black" points="508.5,-541 508.5,-563 909.5,-563 909.5,-541 508.5,-541"/>
<image xlink:href="../../images/foreignKeys.png" width="11px" height="12px" preserveAspectRatio="xMinYMin meet" x="513.5" y="-558"/>
<text text-anchor="start" x="528.5" y="-549.2" font-family="Helvetica,sans-Serif" font-size="11.00">impact_auxiliary_indic</text>
<polygon fill="none" stroke="black" points="508.5,-519 508.5,-541 909.5,-541 909.5,-519 508.5,-519"/>
<image xlink:href="../../images/foreignKeys.png" width="11px" height="12px" preserveAspectRatio="xMinYMin meet" x="513.5" y="-536"/>
<text text-anchor="start" x="528.5" y="-527.2" font-family="Helvetica,sans-Serif" font-size="11.00">impact_external_aspect</text>
<polygon fill="none" stroke="black" points="508.5,-497 508.5,-519 909.5,-519 909.5,-497 508.5,-497"/>
<image xlink:href="../../images/foreignKeys.png" width="11px" height="12px" preserveAspectRatio="xMinYMin meet" x="513.5" y="-514"/>
<text text-anchor="start" x="528.5" y="-505.2" font-family="Helvetica,sans-Serif" font-size="11.00">impact_macroinvertebrates</text>
<polygon fill="none" stroke="black" points="508.5,-475 508.5,-497 909.5,-497 909.5,-475 508.5,-475"/>
<image xlink:href="../../images/foreignKeys.png" width="11px" height="12px" preserveAspectRatio="xMinYMin meet" x="513.5" y="-492"/>
<text text-anchor="start" x="528.5" y="-483.2" font-family="Helvetica,sans-Serif" font-size="11.00">impact_water_plants</text>
<polygon fill="none" stroke="black" points="508.5,-453 508.5,-475 909.5,-475 909.5,-453 508.5,-453"/>
<image xlink:href="../../images/foreignKeys.png" width="11px" height="12px" preserveAspectRatio="xMinYMin meet" x="513.5" y="-470"/>
<text text-anchor="start" x="528.5" y="-461.2" font-family="Helvetica,sans-Serif" font-size="11.00">intervention_demand</text>
<polygon fill="none" stroke="black" points="508.5,-431 508.5,-453 909.5,-453 909.5,-431 508.5,-431"/>
<image xlink:href="../../images/foreignKeys.png" width="11px" height="12px" preserveAspectRatio="xMinYMin meet" x="513.5" y="-448"/>
<text text-anchor="start" x="528.5" y="-439.2" font-family="Helvetica,sans-Serif" font-size="11.00">io_calculation</text>
<polygon fill="none" stroke="black" points="508.5,-409 508.5,-431 909.5,-431 909.5,-409 508.5,-409"/>
<image xlink:href="../../images/foreignKeys.png" width="11px" height="12px" preserveAspectRatio="xMinYMin meet" x="513.5" y="-426"/>
<text text-anchor="start" x="528.5" y="-417.2" font-family="Helvetica,sans-Serif" font-size="11.00">kind_water_body</text>
<polygon fill="none" stroke="black" points="508.5,-387 508.5,-409 909.5,-409 909.5,-387 508.5,-387"/>
<image xlink:href="../../images/foreignKeys.png" width="11px" height="12px" preserveAspectRatio="xMinYMin meet" x="513.5" y="-404"/>
<text text-anchor="start" x="528.5" y="-395.2" font-family="Helvetica,sans-Serif" font-size="11.00">relevance_matrix</text>
<polygon fill="none" stroke="black" points="508.5,-369 508.5,-387 909.5,-387 909.5,-369 508.5,-369"/>
<text text-anchor="start" x="511.5" y="-375.2" font-family="Helvetica,sans-Serif" font-size="11.00">...</text>
<polygon fill="#ffffff" stroke="transparent" points="508.5,-351 508.5,-369 909.5,-369 909.5,-351 508.5,-351"/>
<polygon fill="none" stroke="black" points="508.5,-351 508.5,-369 909.5,-369 909.5,-351 508.5,-351"/>
<polygon fill="#ffffff" stroke="transparent" points="509.5,-352 509.5,-368 641.5,-368 641.5,-352 509.5,-352"/>
<text text-anchor="start" x="511.5" y="-357.2" font-family="Helvetica,sans-Serif" font-size="11.00">&lt; 9</text>
<polygon fill="#ffffff" stroke="transparent" points="641.5,-352 641.5,-368 789.5,-368 789.5,-352 641.5,-352"/>
<text text-anchor="start" x="697" y="-357.2" font-family="Helvetica,sans-Serif" font-size="11.00">0 rows</text>
<polygon fill="#ffffff" stroke="transparent" points="789.5,-352 789.5,-368 908.5,-368 908.5,-352 789.5,-352"/>
<text text-anchor="start" x="898.5" y="-357.2" font-family="Helvetica,sans-Serif" font-size="11.00"> &#160;</text>
<polygon fill="black" stroke="black" points="641.5,-352 641.5,-368 641.5,-368 641.5,-352 641.5,-352"/>
<polygon fill="black" stroke="black" points="789.5,-352 789.5,-368 789.5,-368 789.5,-352 789.5,-352"/>
</a>
</g>
</g>
<!-- bio_ecol_assessment_impact_auxiliary_indic -->
<g id="node2" class="node">
<title>bio_ecol_assessment_impact_auxiliary_indic</title>
<g id="a_node2"><a xlink:href="../../tables/bio_ecol_assessment_impact_auxi_af4c0477.html" xlink:title="bio_ecol_assessment_impact_auxiliary_indic" target="_top">
<polygon fill="#ffffff" stroke="transparent" points="8,-37 8,-587 459,-587 459,-37 8,-37"/>
<polygon fill="#f5f5f5" stroke="transparent" points="10.5,-563 10.5,-585 457.5,-585 457.5,-563 10.5,-563"/>
<polygon fill="none" stroke="black" points="10.5,-563 10.5,-585 457.5,-585 457.5,-563 10.5,-563"/>
<text text-anchor="start" x="15.5" y="-572.2" font-family="Helvetica,sans-Serif" font-weight="bold" font-size="11.00">bio_ecol_assessment_impact_auxiliary_indic</text>
<text text-anchor="start" x="415.5" y="-571.2" font-family="Helvetica,sans-Serif" font-size="11.00">[table]</text>
<polygon fill="none" stroke="black" points="10.5,-541 10.5,-563 351.5,-563 351.5,-541 10.5,-541"/>
<image xlink:href="../../images/primaryKeys.png" width="11px" height="12px" preserveAspectRatio="xMinYMin meet" x="15.5" y="-558"/>
<text text-anchor="start" x="30.5" y="-549.2" font-family="Helvetica,sans-Serif" font-size="11.00">code</text>
<polygon fill="none" stroke="black" points="351.5,-541 351.5,-563 457.5,-563 457.5,-541 351.5,-541"/>
<text text-anchor="start" x="354.5" y="-549.2" font-family="Helvetica,sans-Serif" font-size="11.00">int4[10]</text>
<polygon fill="none" stroke="black" points="10.5,-519 10.5,-541 351.5,-541 351.5,-519 10.5,-519"/>
<text text-anchor="start" x="30.5" y="-527.2" font-family="Helvetica,sans-Serif" font-size="11.00">vsacode</text>
<polygon fill="none" stroke="black" points="351.5,-519 351.5,-541 457.5,-541 457.5,-519 351.5,-519"/>
<text text-anchor="start" x="354.5" y="-527.2" font-family="Helvetica,sans-Serif" font-size="11.00">int4[10]</text>
<polygon fill="none" stroke="black" points="10.5,-497 10.5,-519 351.5,-519 351.5,-497 10.5,-497"/>
<text text-anchor="start" x="30.5" y="-505.2" font-family="Helvetica,sans-Serif" font-size="11.00">value_en</text>
<polygon fill="none" stroke="black" points="351.5,-497 351.5,-519 457.5,-519 457.5,-497 351.5,-497"/>
<text text-anchor="start" x="354.5" y="-505.2" font-family="Helvetica,sans-Serif" font-size="11.00">varchar[100]</text>
<polygon fill="none" stroke="black" points="10.5,-475 10.5,-497 351.5,-497 351.5,-475 10.5,-475"/>
<text text-anchor="start" x="30.5" y="-483.2" font-family="Helvetica,sans-Serif" font-size="11.00">value_de</text>
<polygon fill="none" stroke="black" points="351.5,-475 351.5,-497 457.5,-497 457.5,-475 351.5,-475"/>
<text text-anchor="start" x="354.5" y="-483.2" font-family="Helvetica,sans-Serif" font-size="11.00">varchar[100]</text>
<polygon fill="none" stroke="black" points="10.5,-453 10.5,-475 351.5,-475 351.5,-453 10.5,-453"/>
<text text-anchor="start" x="30.5" y="-461.2" font-family="Helvetica,sans-Serif" font-size="11.00">value_fr</text>
<polygon fill="none" stroke="black" points="351.5,-453 351.5,-475 457.5,-475 457.5,-453 351.5,-453"/>
<text text-anchor="start" x="354.5" y="-461.2" font-family="Helvetica,sans-Serif" font-size="11.00">varchar[100]</text>
<polygon fill="none" stroke="black" points="10.5,-431 10.5,-453 351.5,-453 351.5,-431 10.5,-431"/>
<text text-anchor="start" x="30.5" y="-439.2" font-family="Helvetica,sans-Serif" font-size="11.00">value_it</text>
<polygon fill="none" stroke="black" points="351.5,-431 351.5,-453 457.5,-453 457.5,-431 351.5,-431"/>
<text text-anchor="start" x="354.5" y="-439.2" font-family="Helvetica,sans-Serif" font-size="11.00">varchar[100]</text>
<polygon fill="none" stroke="black" points="10.5,-409 10.5,-431 351.5,-431 351.5,-409 10.5,-409"/>
<text text-anchor="start" x="30.5" y="-417.2" font-family="Helvetica,sans-Serif" font-size="11.00">value_ro</text>
<polygon fill="none" stroke="black" points="351.5,-409 351.5,-431 457.5,-431 457.5,-409 351.5,-409"/>
<text text-anchor="start" x="354.5" y="-417.2" font-family="Helvetica,sans-Serif" font-size="11.00">varchar[100]</text>
<polygon fill="none" stroke="black" points="10.5,-387 10.5,-409 351.5,-409 351.5,-387 10.5,-387"/>
<text text-anchor="start" x="30.5" y="-395.2" font-family="Helvetica,sans-Serif" font-size="11.00">abbr_en</text>
<polygon fill="none" stroke="black" points="351.5,-387 351.5,-409 457.5,-409 457.5,-387 351.5,-387"/>
<text text-anchor="start" x="354.5" y="-395.2" font-family="Helvetica,sans-Serif" font-size="11.00">varchar[3]</text>
<polygon fill="none" stroke="black" points="10.5,-365 10.5,-387 351.5,-387 351.5,-365 10.5,-365"/>
<text text-anchor="start" x="30.5" y="-373.2" font-family="Helvetica,sans-Serif" font-size="11.00">abbr_de</text>
<polygon fill="none" stroke="black" points="351.5,-365 351.5,-387 457.5,-387 457.5,-365 351.5,-365"/>
<text text-anchor="start" x="354.5" y="-373.2" font-family="Helvetica,sans-Serif" font-size="11.00">varchar[3]</text>
<polygon fill="none" stroke="black" points="10.5,-343 10.5,-365 351.5,-365 351.5,-343 10.5,-343"/>
<text text-anchor="start" x="30.5" y="-351.2" font-family="Helvetica,sans-Serif" font-size="11.00">abbr_fr</text>
<polygon fill="none" stroke="black" points="351.5,-343 351.5,-365 457.5,-365 457.5,-343 351.5,-343"/>
<text text-anchor="start" x="354.5" y="-351.2" font-family="Helvetica,sans-Serif" font-size="11.00">varchar[3]</text>
<polygon fill="none" stroke="black" points="10.5,-321 10.5,-343 351.5,-343 351.5,-321 10.5,-321"/>
<text text-anchor="start" x="30.5" y="-329.2" font-family="Helvetica,sans-Serif" font-size="11.00">abbr_it</text>
<polygon fill="none" stroke="black" points="351.5,-321 351.5,-343 457.5,-343 457.5,-321 351.5,-321"/>
<text text-anchor="start" x="354.5" y="-329.2" font-family="Helvetica,sans-Serif" font-size="11.00">varchar[3]</text>
<polygon fill="none" stroke="black" points="10.5,-299 10.5,-321 351.5,-321 351.5,-299 10.5,-299"/>
<text text-anchor="start" x="30.5" y="-307.2" font-family="Helvetica,sans-Serif" font-size="11.00">abbr_ro</text>
<polygon fill="none" stroke="black" points="351.5,-299 351.5,-321 457.5,-321 457.5,-299 351.5,-299"/>
<text text-anchor="start" x="354.5" y="-307.2" font-family="Helvetica,sans-Serif" font-size="11.00">varchar[3]</text>
<polygon fill="none" stroke="black" points="10.5,-277 10.5,-299 351.5,-299 351.5,-277 10.5,-277"/>
<text text-anchor="start" x="30.5" y="-285.2" font-family="Helvetica,sans-Serif" font-size="11.00">active</text>
<polygon fill="none" stroke="black" points="351.5,-277 351.5,-299 457.5,-299 457.5,-277 351.5,-277"/>
<text text-anchor="start" x="354.5" y="-285.2" font-family="Helvetica,sans-Serif" font-size="11.00">bool[1]</text>
<polygon fill="none" stroke="black" points="10.5,-255 10.5,-277 351.5,-277 351.5,-255 10.5,-255"/>
<text text-anchor="start" x="30.5" y="-263.2" font-family="Helvetica,sans-Serif" font-size="11.00">description_en</text>
<polygon fill="none" stroke="black" points="351.5,-255 351.5,-277 457.5,-277 457.5,-255 351.5,-255"/>
<text text-anchor="start" x="354.5" y="-263.2" font-family="Helvetica,sans-Serif" font-size="11.00">text[2147483647]</text>
<polygon fill="none" stroke="black" points="10.5,-233 10.5,-255 351.5,-255 351.5,-233 10.5,-233"/>
<text text-anchor="start" x="30.5" y="-241.2" font-family="Helvetica,sans-Serif" font-size="11.00">description_de</text>
<polygon fill="none" stroke="black" points="351.5,-233 351.5,-255 457.5,-255 457.5,-233 351.5,-233"/>
<text text-anchor="start" x="354.5" y="-241.2" font-family="Helvetica,sans-Serif" font-size="11.00">text[2147483647]</text>
<polygon fill="none" stroke="black" points="10.5,-211 10.5,-233 351.5,-233 351.5,-211 10.5,-211"/>
<text text-anchor="start" x="30.5" y="-219.2" font-family="Helvetica,sans-Serif" font-size="11.00">description_fr</text>
<polygon fill="none" stroke="black" points="351.5,-211 351.5,-233 457.5,-233 457.5,-211 351.5,-211"/>
<text text-anchor="start" x="354.5" y="-219.2" font-family="Helvetica,sans-Serif" font-size="11.00">text[2147483647]</text>
<polygon fill="none" stroke="black" points="10.5,-189 10.5,-211 351.5,-211 351.5,-189 10.5,-189"/>
<text text-anchor="start" x="30.5" y="-197.2" font-family="Helvetica,sans-Serif" font-size="11.00">description_it</text>
<polygon fill="none" stroke="black" points="351.5,-189 351.5,-211 457.5,-211 457.5,-189 351.5,-189"/>
<text text-anchor="start" x="354.5" y="-197.2" font-family="Helvetica,sans-Serif" font-size="11.00">text[2147483647]</text>
<polygon fill="none" stroke="black" points="10.5,-167 10.5,-189 351.5,-189 351.5,-167 10.5,-167"/>
<text text-anchor="start" x="30.5" y="-175.2" font-family="Helvetica,sans-Serif" font-size="11.00">description_ro</text>
<polygon fill="none" stroke="black" points="351.5,-167 351.5,-189 457.5,-189 457.5,-167 351.5,-167"/>
<text text-anchor="start" x="354.5" y="-175.2" font-family="Helvetica,sans-Serif" font-size="11.00">text[2147483647]</text>
<polygon fill="none" stroke="black" points="10.5,-145 10.5,-167 351.5,-167 351.5,-145 10.5,-145"/>
<text text-anchor="start" x="30.5" y="-153.2" font-family="Helvetica,sans-Serif" font-size="11.00">display_en</text>
<polygon fill="none" stroke="black" points="351.5,-145 351.5,-167 457.5,-167 457.5,-145 351.5,-145"/>
<text text-anchor="start" x="354.5" y="-153.2" font-family="Helvetica,sans-Serif" font-size="11.00">varchar[100]</text>
<polygon fill="none" stroke="black" points="10.5,-123 10.5,-145 351.5,-145 351.5,-123 10.5,-123"/>
<text text-anchor="start" x="30.5" y="-131.2" font-family="Helvetica,sans-Serif" font-size="11.00">display_de</text>
<polygon fill="none" stroke="black" points="351.5,-123 351.5,-145 457.5,-145 457.5,-123 351.5,-123"/>
<text text-anchor="start" x="354.5" y="-131.2" font-family="Helvetica,sans-Serif" font-size="11.00">varchar[100]</text>
<polygon fill="none" stroke="black" points="10.5,-101 10.5,-123 351.5,-123 351.5,-101 10.5,-101"/>
<text text-anchor="start" x="30.5" y="-109.2" font-family="Helvetica,sans-Serif" font-size="11.00">display_fr</text>
<polygon fill="none" stroke="black" points="351.5,-101 351.5,-123 457.5,-123 457.5,-101 351.5,-101"/>
<text text-anchor="start" x="354.5" y="-109.2" font-family="Helvetica,sans-Serif" font-size="11.00">varchar[100]</text>
<polygon fill="none" stroke="black" points="10.5,-79 10.5,-101 351.5,-101 351.5,-79 10.5,-79"/>
<text text-anchor="start" x="30.5" y="-87.2" font-family="Helvetica,sans-Serif" font-size="11.00">display_it</text>
<polygon fill="none" stroke="black" points="351.5,-79 351.5,-101 457.5,-101 457.5,-79 351.5,-79"/>
<text text-anchor="start" x="354.5" y="-87.2" font-family="Helvetica,sans-Serif" font-size="11.00">varchar[100]</text>
<polygon fill="none" stroke="black" points="10.5,-57 10.5,-79 351.5,-79 351.5,-57 10.5,-57"/>
<text text-anchor="start" x="30.5" y="-65.2" font-family="Helvetica,sans-Serif" font-size="11.00">display_ro</text>
<polygon fill="none" stroke="black" points="351.5,-57 351.5,-79 457.5,-79 457.5,-57 351.5,-57"/>
<text text-anchor="start" x="354.5" y="-65.2" font-family="Helvetica,sans-Serif" font-size="11.00">varchar[100]</text>
<polygon fill="#ffffff" stroke="transparent" points="10.5,-39 10.5,-57 457.5,-57 457.5,-39 10.5,-39"/>
<polygon fill="none" stroke="black" points="10.5,-39 10.5,-57 457.5,-57 457.5,-39 10.5,-39"/>
<polygon fill="#ffffff" stroke="transparent" points="11.5,-40 11.5,-56 164.5,-56 164.5,-40 11.5,-40"/>
<text text-anchor="start" x="13.5" y="-45.2" font-family="Helvetica,sans-Serif" font-size="11.00">&lt; 0</text>
<polygon fill="#ffffff" stroke="transparent" points="164.5,-40 164.5,-56 304.5,-56 304.5,-40 164.5,-40"/>
<text text-anchor="start" x="230.5" y="-45.2" font-family="Helvetica,sans-Serif" font-size="11.00"> &#160;</text>
<polygon fill="#ffffff" stroke="transparent" points="304.5,-40 304.5,-56 456.5,-56 456.5,-40 304.5,-40"/>
<text text-anchor="start" x="434.5" y="-45.2" font-family="Helvetica,sans-Serif" font-size="11.00">1 &gt;</text>
<polygon fill="black" stroke="black" points="164.5,-40 164.5,-56 164.5,-56 164.5,-40 164.5,-40"/>
<polygon fill="black" stroke="black" points="304.5,-40 304.5,-56 304.5,-56 304.5,-40 304.5,-40"/>
<polygon fill="none" stroke="black" stroke-width="2" points="9,-38 9,-586 458,-586 458,-38 9,-38"/>
</a>
</g>
</g>
<!-- tww_od.bio_ecol_assessment&#45;&gt;bio_ecol_assessment_impact_auxiliary_indic -->
<g id="edge1" class="edge">
<title>tww_od.bio_ecol_assessment:w&#45;&gt;bio_ecol_assessment_impact_auxiliary_indic:e</title>
<path fill="none" stroke="black" d="M492.99,-552C481.68,-552 474.49,-552 458.5,-552"/>
<polygon fill="black" stroke="black" points="499.5,-552 507.5,-555.6 503.5,-552 507.5,-552 507.5,-552 507.5,-552 503.5,-552 507.5,-548.4 499.5,-552 499.5,-552"/>
<ellipse fill="none" stroke="black" cx="496.3" cy="-552" rx="3.2" ry="3.2"/>
</g>
</g>
</svg>
