<?xml version="1.0" encoding="UTF-8" standalone="no"?>
<!DOCTYPE svg PUBLIC "-//W3C//DTD SVG 1.1//EN"
 "http://www.w3.org/Graphics/SVG/1.1/DTD/svg11.dtd">
<!-- Generated by graphviz version 2.43.0 (0)
 -->
<!-- Title: oneDegreeRelationshipsDiagram Pages: 1 -->
<svg width="859pt" height="599pt"
 viewBox="0.00 0.00 859.00 599.00" xmlns="http://www.w3.org/2000/svg" xmlns:xlink="http://www.w3.org/1999/xlink">
<g id="graph0" class="graph" transform="scale(1 1) rotate(0) translate(4 595)">
<title>oneDegreeRelationshipsDiagram</title>
<polygon fill="#ffffff" stroke="transparent" points="-4,4 -4,-595 855,-595 855,4 -4,4"/>
<text text-anchor="middle" x="79.5" y="-7.2" font-family="Helvetica,sans-Serif" font-size="11.00">Generated by SchemaSpy</text>
<!-- tww_od.catchment_area -->
<g id="node1" class="node">
<title>tww_od.catchment_area</title>
<g id="a_node1"><a xlink:href="../../../tww_od/tables/catchment_area.html" xlink:title="tww_od.catchment_area" target="_top">
<polygon fill="#ffffff" stroke="transparent" points="493,-351 493,-585 843,-585 843,-351 493,-351"/>
<polygon fill="#f5f5f5" stroke="transparent" points="493,-563 493,-585 843,-585 843,-563 493,-563"/>
<polygon fill="none" stroke="black" points="493,-563 493,-585 843,-585 843,-563 493,-563"/>
<text text-anchor="start" x="498" y="-572.2" font-family="Helvetica,sans-Serif" font-weight="bold" font-size="11.00">tww_od.catchment_area</text>
<text text-anchor="start" x="801" y="-571.2" font-family="Helvetica,sans-Serif" font-size="11.00">[table]</text>
<polygon fill="none" stroke="black" points="493,-541 493,-563 843,-563 843,-541 493,-541"/>
<image xlink:href="../../images/foreignKeys.png" width="11px" height="12px" preserveAspectRatio="xMinYMin meet" x="498" y="-558"/>
<text text-anchor="start" x="513" y="-549.2" font-family="Helvetica,sans-Serif" font-size="11.00">direct_discharge_current</text>
<polygon fill="none" stroke="black" points="493,-519 493,-541 843,-541 843,-519 493,-519"/>
<image xlink:href="../../images/foreignKeys.png" width="11px" height="12px" preserveAspectRatio="xMinYMin meet" x="498" y="-536"/>
<text text-anchor="start" x="513" y="-527.2" font-family="Helvetica,sans-Serif" font-size="11.00">direct_discharge_planned</text>
<polygon fill="none" stroke="black" points="493,-497 493,-519 843,-519 843,-497 493,-497"/>
<image xlink:href="../../images/foreignKeys.png" width="11px" height="12px" preserveAspectRatio="xMinYMin meet" x="498" y="-514"/>
<text text-anchor="start" x="513" y="-505.2" font-family="Helvetica,sans-Serif" font-size="11.00">drainage_system_current</text>
<polygon fill="none" stroke="black" points="493,-475 493,-497 843,-497 843,-475 493,-475"/>
<image xlink:href="../../images/foreignKeys.png" width="11px" height="12px" preserveAspectRatio="xMinYMin meet" x="498" y="-492"/>
<text text-anchor="start" x="513" y="-483.2" font-family="Helvetica,sans-Serif" font-size="11.00">drainage_system_planned</text>
<polygon fill="none" stroke="black" points="493,-453 493,-475 843,-475 843,-453 493,-453"/>
<image xlink:href="../../images/foreignKeys.png" width="11px" height="12px" preserveAspectRatio="xMinYMin meet" x="498" y="-470"/>
<text text-anchor="start" x="513" y="-461.2" font-family="Helvetica,sans-Serif" font-size="11.00">infiltration_current</text>
<polygon fill="none" stroke="black" points="493,-431 493,-453 843,-453 843,-431 493,-431"/>
<image xlink:href="../../images/foreignKeys.png" width="11px" height="12px" preserveAspectRatio="xMinYMin meet" x="498" y="-448"/>
<text text-anchor="start" x="513" y="-439.2" font-family="Helvetica,sans-Serif" font-size="11.00">infiltration_planned</text>
<polygon fill="none" stroke="black" points="493,-409 493,-431 843,-431 843,-409 493,-409"/>
<image xlink:href="../../images/foreignKeys.png" width="11px" height="12px" preserveAspectRatio="xMinYMin meet" x="498" y="-426"/>
<text text-anchor="start" x="513" y="-417.2" font-family="Helvetica,sans-Serif" font-size="11.00">retention_current</text>
<polygon fill="none" stroke="black" points="493,-387 493,-409 843,-409 843,-387 493,-387"/>
<image xlink:href="../../images/foreignKeys.png" width="11px" height="12px" preserveAspectRatio="xMinYMin meet" x="498" y="-404"/>
<text text-anchor="start" x="513" y="-395.2" font-family="Helvetica,sans-Serif" font-size="11.00">retention_planned</text>
<polygon fill="none" stroke="black" points="493,-369 493,-387 843,-387 843,-369 493,-369"/>
<text text-anchor="start" x="496" y="-375.2" font-family="Helvetica,sans-Serif" font-size="11.00">...</text>
<polygon fill="#ffffff" stroke="transparent" points="493,-351 493,-369 843,-369 843,-351 493,-351"/>
<polygon fill="none" stroke="black" points="493,-351 493,-369 843,-369 843,-351 493,-351"/>
<polygon fill="#ffffff" stroke="transparent" points="494,-352 494,-368 609,-368 609,-352 494,-352"/>
<text text-anchor="start" x="496" y="-357.2" font-family="Helvetica,sans-Serif" font-size="11.00">&lt; 8</text>
<polygon fill="#ffffff" stroke="transparent" points="609,-352 609,-368 740,-368 740,-352 609,-352"/>
<text text-anchor="start" x="656" y="-357.2" font-family="Helvetica,sans-Serif" font-size="11.00">0 rows</text>
<polygon fill="#ffffff" stroke="transparent" points="740,-352 740,-368 842,-368 842,-352 740,-352"/>
<text text-anchor="start" x="832" y="-357.2" font-family="Helvetica,sans-Serif" font-size="11.00"> &#160;</text>
<polygon fill="black" stroke="black" points="609,-352 609,-368 609,-368 609,-352 609,-352"/>
<polygon fill="black" stroke="black" points="740,-352 740,-368 740,-368 740,-352 740,-352"/>
</a>
</g>
</g>
<!-- catchment_area_direct_discharge_current -->
<g id="node2" class="node">
<title>catchment_area_direct_discharge_current</title>
<g id="a_node2"><a xlink:href="../../tables/catchment_area_direct_discharge_current.html" xlink:title="catchment_area_direct_discharge_current" target="_top">
<polygon fill="#ffffff" stroke="transparent" points="8,-37 8,-587 444,-587 444,-37 8,-37"/>
<polygon fill="#f5f5f5" stroke="transparent" points="10,-563 10,-585 442,-585 442,-563 10,-563"/>
<polygon fill="none" stroke="black" points="10,-563 10,-585 442,-585 442,-563 10,-563"/>
<text text-anchor="start" x="15" y="-572.2" font-family="Helvetica,sans-Serif" font-weight="bold" font-size="11.00">catchment_area_direct_discharge_current</text>
<text text-anchor="start" x="400" y="-571.2" font-family="Helvetica,sans-Serif" font-size="11.00">[table]</text>
<polygon fill="none" stroke="black" points="10,-541 10,-563 336,-563 336,-541 10,-541"/>
<image xlink:href="../../images/primaryKeys.png" width="11px" height="12px" preserveAspectRatio="xMinYMin meet" x="15" y="-558"/>
<text text-anchor="start" x="30" y="-549.2" font-family="Helvetica,sans-Serif" font-size="11.00">code</text>
<polygon fill="none" stroke="black" points="336,-541 336,-563 442,-563 442,-541 336,-541"/>
<text text-anchor="start" x="339" y="-549.2" font-family="Helvetica,sans-Serif" font-size="11.00">int4[10]</text>
<polygon fill="none" stroke="black" points="10,-519 10,-541 336,-541 336,-519 10,-519"/>
<text text-anchor="start" x="30" y="-527.2" font-family="Helvetica,sans-Serif" font-size="11.00">vsacode</text>
<polygon fill="none" stroke="black" points="336,-519 336,-541 442,-541 442,-519 336,-519"/>
<text text-anchor="start" x="339" y="-527.2" font-family="Helvetica,sans-Serif" font-size="11.00">int4[10]</text>
<polygon fill="none" stroke="black" points="10,-497 10,-519 336,-519 336,-497 10,-497"/>
<text text-anchor="start" x="30" y="-505.2" font-family="Helvetica,sans-Serif" font-size="11.00">value_en</text>
<polygon fill="none" stroke="black" points="336,-497 336,-519 442,-519 442,-497 336,-497"/>
<text text-anchor="start" x="339" y="-505.2" font-family="Helvetica,sans-Serif" font-size="11.00">varchar[100]</text>
<polygon fill="none" stroke="black" points="10,-475 10,-497 336,-497 336,-475 10,-475"/>
<text text-anchor="start" x="30" y="-483.2" font-family="Helvetica,sans-Serif" font-size="11.00">value_de</text>
<polygon fill="none" stroke="black" points="336,-475 336,-497 442,-497 442,-475 336,-475"/>
<text text-anchor="start" x="339" y="-483.2" font-family="Helvetica,sans-Serif" font-size="11.00">varchar[100]</text>
<polygon fill="none" stroke="black" points="10,-453 10,-475 336,-475 336,-453 10,-453"/>
<text text-anchor="start" x="30" y="-461.2" font-family="Helvetica,sans-Serif" font-size="11.00">value_fr</text>
<polygon fill="none" stroke="black" points="336,-453 336,-475 442,-475 442,-453 336,-453"/>
<text text-anchor="start" x="339" y="-461.2" font-family="Helvetica,sans-Serif" font-size="11.00">varchar[100]</text>
<polygon fill="none" stroke="black" points="10,-431 10,-453 336,-453 336,-431 10,-431"/>
<text text-anchor="start" x="30" y="-439.2" font-family="Helvetica,sans-Serif" font-size="11.00">value_it</text>
<polygon fill="none" stroke="black" points="336,-431 336,-453 442,-453 442,-431 336,-431"/>
<text text-anchor="start" x="339" y="-439.2" font-family="Helvetica,sans-Serif" font-size="11.00">varchar[100]</text>
<polygon fill="none" stroke="black" points="10,-409 10,-431 336,-431 336,-409 10,-409"/>
<text text-anchor="start" x="30" y="-417.2" font-family="Helvetica,sans-Serif" font-size="11.00">value_ro</text>
<polygon fill="none" stroke="black" points="336,-409 336,-431 442,-431 442,-409 336,-409"/>
<text text-anchor="start" x="339" y="-417.2" font-family="Helvetica,sans-Serif" font-size="11.00">varchar[100]</text>
<polygon fill="none" stroke="black" points="10,-387 10,-409 336,-409 336,-387 10,-387"/>
<text text-anchor="start" x="30" y="-395.2" font-family="Helvetica,sans-Serif" font-size="11.00">abbr_en</text>
<polygon fill="none" stroke="black" points="336,-387 336,-409 442,-409 442,-387 336,-387"/>
<text text-anchor="start" x="339" y="-395.2" font-family="Helvetica,sans-Serif" font-size="11.00">varchar[3]</text>
<polygon fill="none" stroke="black" points="10,-365 10,-387 336,-387 336,-365 10,-365"/>
<text text-anchor="start" x="30" y="-373.2" font-family="Helvetica,sans-Serif" font-size="11.00">abbr_de</text>
<polygon fill="none" stroke="black" points="336,-365 336,-387 442,-387 442,-365 336,-365"/>
<text text-anchor="start" x="339" y="-373.2" font-family="Helvetica,sans-Serif" font-size="11.00">varchar[3]</text>
<polygon fill="none" stroke="black" points="10,-343 10,-365 336,-365 336,-343 10,-343"/>
<text text-anchor="start" x="30" y="-351.2" font-family="Helvetica,sans-Serif" font-size="11.00">abbr_fr</text>
<polygon fill="none" stroke="black" points="336,-343 336,-365 442,-365 442,-343 336,-343"/>
<text text-anchor="start" x="339" y="-351.2" font-family="Helvetica,sans-Serif" font-size="11.00">varchar[3]</text>
<polygon fill="none" stroke="black" points="10,-321 10,-343 336,-343 336,-321 10,-321"/>
<text text-anchor="start" x="30" y="-329.2" font-family="Helvetica,sans-Serif" font-size="11.00">abbr_it</text>
<polygon fill="none" stroke="black" points="336,-321 336,-343 442,-343 442,-321 336,-321"/>
<text text-anchor="start" x="339" y="-329.2" font-family="Helvetica,sans-Serif" font-size="11.00">varchar[3]</text>
<polygon fill="none" stroke="black" points="10,-299 10,-321 336,-321 336,-299 10,-299"/>
<text text-anchor="start" x="30" y="-307.2" font-family="Helvetica,sans-Serif" font-size="11.00">abbr_ro</text>
<polygon fill="none" stroke="black" points="336,-299 336,-321 442,-321 442,-299 336,-299"/>
<text text-anchor="start" x="339" y="-307.2" font-family="Helvetica,sans-Serif" font-size="11.00">varchar[3]</text>
<polygon fill="none" stroke="black" points="10,-277 10,-299 336,-299 336,-277 10,-277"/>
<text text-anchor="start" x="30" y="-285.2" font-family="Helvetica,sans-Serif" font-size="11.00">active</text>
<polygon fill="none" stroke="black" points="336,-277 336,-299 442,-299 442,-277 336,-277"/>
<text text-anchor="start" x="339" y="-285.2" font-family="Helvetica,sans-Serif" font-size="11.00">bool[1]</text>
<polygon fill="none" stroke="black" points="10,-255 10,-277 336,-277 336,-255 10,-255"/>
<text text-anchor="start" x="30" y="-263.2" font-family="Helvetica,sans-Serif" font-size="11.00">description_en</text>
<polygon fill="none" stroke="black" points="336,-255 336,-277 442,-277 442,-255 336,-255"/>
<text text-anchor="start" x="339" y="-263.2" font-family="Helvetica,sans-Serif" font-size="11.00">text[2147483647]</text>
<polygon fill="none" stroke="black" points="10,-233 10,-255 336,-255 336,-233 10,-233"/>
<text text-anchor="start" x="30" y="-241.2" font-family="Helvetica,sans-Serif" font-size="11.00">description_de</text>
<polygon fill="none" stroke="black" points="336,-233 336,-255 442,-255 442,-233 336,-233"/>
<text text-anchor="start" x="339" y="-241.2" font-family="Helvetica,sans-Serif" font-size="11.00">text[2147483647]</text>
<polygon fill="none" stroke="black" points="10,-211 10,-233 336,-233 336,-211 10,-211"/>
<text text-anchor="start" x="30" y="-219.2" font-family="Helvetica,sans-Serif" font-size="11.00">description_fr</text>
<polygon fill="none" stroke="black" points="336,-211 336,-233 442,-233 442,-211 336,-211"/>
<text text-anchor="start" x="339" y="-219.2" font-family="Helvetica,sans-Serif" font-size="11.00">text[2147483647]</text>
<polygon fill="none" stroke="black" points="10,-189 10,-211 336,-211 336,-189 10,-189"/>
<text text-anchor="start" x="30" y="-197.2" font-family="Helvetica,sans-Serif" font-size="11.00">description_it</text>
<polygon fill="none" stroke="black" points="336,-189 336,-211 442,-211 442,-189 336,-189"/>
<text text-anchor="start" x="339" y="-197.2" font-family="Helvetica,sans-Serif" font-size="11.00">text[2147483647]</text>
<polygon fill="none" stroke="black" points="10,-167 10,-189 336,-189 336,-167 10,-167"/>
<text text-anchor="start" x="30" y="-175.2" font-family="Helvetica,sans-Serif" font-size="11.00">description_ro</text>
<polygon fill="none" stroke="black" points="336,-167 336,-189 442,-189 442,-167 336,-167"/>
<text text-anchor="start" x="339" y="-175.2" font-family="Helvetica,sans-Serif" font-size="11.00">text[2147483647]</text>
<polygon fill="none" stroke="black" points="10,-145 10,-167 336,-167 336,-145 10,-145"/>
<text text-anchor="start" x="30" y="-153.2" font-family="Helvetica,sans-Serif" font-size="11.00">display_en</text>
<polygon fill="none" stroke="black" points="336,-145 336,-167 442,-167 442,-145 336,-145"/>
<text text-anchor="start" x="339" y="-153.2" font-family="Helvetica,sans-Serif" font-size="11.00">varchar[100]</text>
<polygon fill="none" stroke="black" points="10,-123 10,-145 336,-145 336,-123 10,-123"/>
<text text-anchor="start" x="30" y="-131.2" font-family="Helvetica,sans-Serif" font-size="11.00">display_de</text>
<polygon fill="none" stroke="black" points="336,-123 336,-145 442,-145 442,-123 336,-123"/>
<text text-anchor="start" x="339" y="-131.2" font-family="Helvetica,sans-Serif" font-size="11.00">varchar[100]</text>
<polygon fill="none" stroke="black" points="10,-101 10,-123 336,-123 336,-101 10,-101"/>
<text text-anchor="start" x="30" y="-109.2" font-family="Helvetica,sans-Serif" font-size="11.00">display_fr</text>
<polygon fill="none" stroke="black" points="336,-101 336,-123 442,-123 442,-101 336,-101"/>
<text text-anchor="start" x="339" y="-109.2" font-family="Helvetica,sans-Serif" font-size="11.00">varchar[100]</text>
<polygon fill="none" stroke="black" points="10,-79 10,-101 336,-101 336,-79 10,-79"/>
<text text-anchor="start" x="30" y="-87.2" font-family="Helvetica,sans-Serif" font-size="11.00">display_it</text>
<polygon fill="none" stroke="black" points="336,-79 336,-101 442,-101 442,-79 336,-79"/>
<text text-anchor="start" x="339" y="-87.2" font-family="Helvetica,sans-Serif" font-size="11.00">varchar[100]</text>
<polygon fill="none" stroke="black" points="10,-57 10,-79 336,-79 336,-57 10,-57"/>
<text text-anchor="start" x="30" y="-65.2" font-family="Helvetica,sans-Serif" font-size="11.00">display_ro</text>
<polygon fill="none" stroke="black" points="336,-57 336,-79 442,-79 442,-57 336,-57"/>
<text text-anchor="start" x="339" y="-65.2" font-family="Helvetica,sans-Serif" font-size="11.00">varchar[100]</text>
<polygon fill="#ffffff" stroke="transparent" points="10,-39 10,-57 442,-57 442,-39 10,-39"/>
<polygon fill="none" stroke="black" points="10,-39 10,-57 442,-57 442,-39 10,-39"/>
<polygon fill="#ffffff" stroke="transparent" points="11,-40 11,-56 159,-56 159,-40 11,-40"/>
<text text-anchor="start" x="13" y="-45.2" font-family="Helvetica,sans-Serif" font-size="11.00">&lt; 0</text>
<polygon fill="#ffffff" stroke="transparent" points="159,-40 159,-56 294,-56 294,-40 159,-40"/>
<text text-anchor="start" x="222.5" y="-45.2" font-family="Helvetica,sans-Serif" font-size="11.00"> &#160;</text>
<polygon fill="#ffffff" stroke="transparent" points="294,-40 294,-56 441,-56 441,-40 294,-40"/>
<text text-anchor="start" x="419" y="-45.2" font-family="Helvetica,sans-Serif" font-size="11.00">1 &gt;</text>
<polygon fill="black" stroke="black" points="159,-40 159,-56 159,-56 159,-40 159,-40"/>
<polygon fill="black" stroke="black" points="294,-40 294,-56 294,-56 294,-40 294,-40"/>
<polygon fill="none" stroke="black" stroke-width="2" points="9,-38 9,-586 443,-586 443,-38 9,-38"/>
</a>
</g>
</g>
<!-- tww_od.catchment_area&#45;&gt;catchment_area_direct_discharge_current -->
<g id="edge1" class="edge">
<title>tww_od.catchment_area:w&#45;&gt;catchment_area_direct_discharge_current:e</title>
<path fill="none" stroke="black" d="M477.49,-552C466.18,-552 458.99,-552 443,-552"/>
<polygon fill="black" stroke="black" points="484,-552 492,-555.6 488,-552 492,-552 492,-552 492,-552 488,-552 492,-548.4 484,-552 484,-552"/>
<ellipse fill="none" stroke="black" cx="480.8" cy="-552" rx="3.2" ry="3.2"/>
</g>
</g>
</svg>
