<?xml version="1.0" encoding="UTF-8" standalone="no"?>
<!DOCTYPE svg PUBLIC "-//W3C//DTD SVG 1.1//EN"
 "http://www.w3.org/Graphics/SVG/1.1/DTD/svg11.dtd">
<!-- Generated by graphviz version 2.43.0 (0)
 -->
<!-- Title: oneDegreeRelationshipsDiagram Pages: 1 -->
<svg width="861pt" height="641pt"
 viewBox="0.00 0.00 861.00 641.00" xmlns="http://www.w3.org/2000/svg" xmlns:xlink="http://www.w3.org/1999/xlink">
<g id="graph0" class="graph" transform="scale(1 1) rotate(0) translate(4 637)">
<title>oneDegreeRelationshipsDiagram</title>
<polygon fill="#ffffff" stroke="transparent" points="-4,4 -4,-637 857,-637 857,4 -4,4"/>
<text text-anchor="middle" x="79.5" y="-7.2" font-family="Helvetica,sans-Serif" font-size="11.00">Generated by SchemaSpy</text>
<!-- tww_od.catchment_area -->
<g id="node1" class="node">
<title>tww_od.catchment_area</title>
<g id="a_node1"><a xlink:href="../../../tww_od/tables/catchment_area.html" xlink:title="tww_od.catchment_area" target="_top">
<polygon fill="#ffffff" stroke="transparent" points="495,-395 495,-629 845,-629 845,-395 495,-395"/>
<polygon fill="#f5f5f5" stroke="transparent" points="495,-607 495,-629 845,-629 845,-607 495,-607"/>
<polygon fill="none" stroke="black" points="495,-607 495,-629 845,-629 845,-607 495,-607"/>
<text text-anchor="start" x="500" y="-616.2" font-family="Helvetica,sans-Serif" font-weight="bold" font-size="11.00">tww_od.catchment_area</text>
<text text-anchor="start" x="803" y="-615.2" font-family="Helvetica,sans-Serif" font-size="11.00">[table]</text>
<polygon fill="none" stroke="black" points="495,-585 495,-607 845,-607 845,-585 495,-585"/>
<image xlink:href="../../images/foreignKeys.png" width="11px" height="12px" preserveAspectRatio="xMinYMin meet" x="500" y="-602"/>
<text text-anchor="start" x="515" y="-593.2" font-family="Helvetica,sans-Serif" font-size="11.00">direct_discharge_current</text>
<polygon fill="none" stroke="black" points="495,-563 495,-585 845,-585 845,-563 495,-563"/>
<image xlink:href="../../images/foreignKeys.png" width="11px" height="12px" preserveAspectRatio="xMinYMin meet" x="500" y="-580"/>
<text text-anchor="start" x="515" y="-571.2" font-family="Helvetica,sans-Serif" font-size="11.00">direct_discharge_planned</text>
<polygon fill="none" stroke="black" points="495,-541 495,-563 845,-563 845,-541 495,-541"/>
<image xlink:href="../../images/foreignKeys.png" width="11px" height="12px" preserveAspectRatio="xMinYMin meet" x="500" y="-558"/>
<text text-anchor="start" x="515" y="-549.2" font-family="Helvetica,sans-Serif" font-size="11.00">drainage_system_current</text>
<polygon fill="none" stroke="black" points="495,-519 495,-541 845,-541 845,-519 495,-519"/>
<image xlink:href="../../images/foreignKeys.png" width="11px" height="12px" preserveAspectRatio="xMinYMin meet" x="500" y="-536"/>
<text text-anchor="start" x="515" y="-527.2" font-family="Helvetica,sans-Serif" font-size="11.00">drainage_system_planned</text>
<polygon fill="none" stroke="black" points="495,-497 495,-519 845,-519 845,-497 495,-497"/>
<image xlink:href="../../images/foreignKeys.png" width="11px" height="12px" preserveAspectRatio="xMinYMin meet" x="500" y="-514"/>
<text text-anchor="start" x="515" y="-505.2" font-family="Helvetica,sans-Serif" font-size="11.00">infiltration_current</text>
<polygon fill="none" stroke="black" points="495,-475 495,-497 845,-497 845,-475 495,-475"/>
<image xlink:href="../../images/foreignKeys.png" width="11px" height="12px" preserveAspectRatio="xMinYMin meet" x="500" y="-492"/>
<text text-anchor="start" x="515" y="-483.2" font-family="Helvetica,sans-Serif" font-size="11.00">infiltration_planned</text>
<polygon fill="none" stroke="black" points="495,-453 495,-475 845,-475 845,-453 495,-453"/>
<image xlink:href="../../images/foreignKeys.png" width="11px" height="12px" preserveAspectRatio="xMinYMin meet" x="500" y="-470"/>
<text text-anchor="start" x="515" y="-461.2" font-family="Helvetica,sans-Serif" font-size="11.00">retention_current</text>
<polygon fill="none" stroke="black" points="495,-431 495,-453 845,-453 845,-431 495,-431"/>
<image xlink:href="../../images/foreignKeys.png" width="11px" height="12px" preserveAspectRatio="xMinYMin meet" x="500" y="-448"/>
<text text-anchor="start" x="515" y="-439.2" font-family="Helvetica,sans-Serif" font-size="11.00">retention_planned</text>
<polygon fill="none" stroke="black" points="495,-413 495,-431 845,-431 845,-413 495,-413"/>
<text text-anchor="start" x="498" y="-419.2" font-family="Helvetica,sans-Serif" font-size="11.00">...</text>
<polygon fill="#ffffff" stroke="transparent" points="495,-395 495,-413 845,-413 845,-395 495,-395"/>
<polygon fill="none" stroke="black" points="495,-395 495,-413 845,-413 845,-395 495,-395"/>
<polygon fill="#ffffff" stroke="transparent" points="496,-396 496,-412 611,-412 611,-396 496,-396"/>
<text text-anchor="start" x="498" y="-401.2" font-family="Helvetica,sans-Serif" font-size="11.00">&lt; 8</text>
<polygon fill="#ffffff" stroke="transparent" points="611,-396 611,-412 742,-412 742,-396 611,-396"/>
<text text-anchor="start" x="658" y="-401.2" font-family="Helvetica,sans-Serif" font-size="11.00">0 rows</text>
<polygon fill="#ffffff" stroke="transparent" points="742,-396 742,-412 844,-412 844,-396 742,-396"/>
<text text-anchor="start" x="834" y="-401.2" font-family="Helvetica,sans-Serif" font-size="11.00"> &#160;</text>
<polygon fill="black" stroke="black" points="611,-396 611,-412 611,-412 611,-396 611,-396"/>
<polygon fill="black" stroke="black" points="742,-396 742,-412 742,-412 742,-396 742,-396"/>
</a>
</g>
</g>
<!-- catchment_area_drainage_system_current -->
<g id="node2" class="node">
<title>catchment_area_drainage_system_current</title>
<g id="a_node2"><a xlink:href="../../tables/catchment_area_drainage_system_current.html" xlink:title="catchment_area_drainage_system_current" target="_top">
<polygon fill="#ffffff" stroke="transparent" points="8,-37 8,-587 446,-587 446,-37 8,-37"/>
<polygon fill="#f5f5f5" stroke="transparent" points="10,-563 10,-585 444,-585 444,-563 10,-563"/>
<polygon fill="none" stroke="black" points="10,-563 10,-585 444,-585 444,-563 10,-563"/>
<text text-anchor="start" x="15" y="-572.2" font-family="Helvetica,sans-Serif" font-weight="bold" font-size="11.00">catchment_area_drainage_system_current</text>
<text text-anchor="start" x="402" y="-571.2" font-family="Helvetica,sans-Serif" font-size="11.00">[table]</text>
<polygon fill="none" stroke="black" points="10,-541 10,-563 338,-563 338,-541 10,-541"/>
<image xlink:href="../../images/primaryKeys.png" width="11px" height="12px" preserveAspectRatio="xMinYMin meet" x="15" y="-558"/>
<text text-anchor="start" x="30" y="-549.2" font-family="Helvetica,sans-Serif" font-size="11.00">code</text>
<polygon fill="none" stroke="black" points="338,-541 338,-563 444,-563 444,-541 338,-541"/>
<text text-anchor="start" x="341" y="-549.2" font-family="Helvetica,sans-Serif" font-size="11.00">int4[10]</text>
<polygon fill="none" stroke="black" points="10,-519 10,-541 338,-541 338,-519 10,-519"/>
<text text-anchor="start" x="30" y="-527.2" font-family="Helvetica,sans-Serif" font-size="11.00">vsacode</text>
<polygon fill="none" stroke="black" points="338,-519 338,-541 444,-541 444,-519 338,-519"/>
<text text-anchor="start" x="341" y="-527.2" font-family="Helvetica,sans-Serif" font-size="11.00">int4[10]</text>
<polygon fill="none" stroke="black" points="10,-497 10,-519 338,-519 338,-497 10,-497"/>
<text text-anchor="start" x="30" y="-505.2" font-family="Helvetica,sans-Serif" font-size="11.00">value_en</text>
<polygon fill="none" stroke="black" points="338,-497 338,-519 444,-519 444,-497 338,-497"/>
<text text-anchor="start" x="341" y="-505.2" font-family="Helvetica,sans-Serif" font-size="11.00">varchar[100]</text>
<polygon fill="none" stroke="black" points="10,-475 10,-497 338,-497 338,-475 10,-475"/>
<text text-anchor="start" x="30" y="-483.2" font-family="Helvetica,sans-Serif" font-size="11.00">value_de</text>
<polygon fill="none" stroke="black" points="338,-475 338,-497 444,-497 444,-475 338,-475"/>
<text text-anchor="start" x="341" y="-483.2" font-family="Helvetica,sans-Serif" font-size="11.00">varchar[100]</text>
<polygon fill="none" stroke="black" points="10,-453 10,-475 338,-475 338,-453 10,-453"/>
<text text-anchor="start" x="30" y="-461.2" font-family="Helvetica,sans-Serif" font-size="11.00">value_fr</text>
<polygon fill="none" stroke="black" points="338,-453 338,-475 444,-475 444,-453 338,-453"/>
<text text-anchor="start" x="341" y="-461.2" font-family="Helvetica,sans-Serif" font-size="11.00">varchar[100]</text>
<polygon fill="none" stroke="black" points="10,-431 10,-453 338,-453 338,-431 10,-431"/>
<text text-anchor="start" x="30" y="-439.2" font-family="Helvetica,sans-Serif" font-size="11.00">value_it</text>
<polygon fill="none" stroke="black" points="338,-431 338,-453 444,-453 444,-431 338,-431"/>
<text text-anchor="start" x="341" y="-439.2" font-family="Helvetica,sans-Serif" font-size="11.00">varchar[100]</text>
<polygon fill="none" stroke="black" points="10,-409 10,-431 338,-431 338,-409 10,-409"/>
<text text-anchor="start" x="30" y="-417.2" font-family="Helvetica,sans-Serif" font-size="11.00">value_ro</text>
<polygon fill="none" stroke="black" points="338,-409 338,-431 444,-431 444,-409 338,-409"/>
<text text-anchor="start" x="341" y="-417.2" font-family="Helvetica,sans-Serif" font-size="11.00">varchar[100]</text>
<polygon fill="none" stroke="black" points="10,-387 10,-409 338,-409 338,-387 10,-387"/>
<text text-anchor="start" x="30" y="-395.2" font-family="Helvetica,sans-Serif" font-size="11.00">abbr_en</text>
<polygon fill="none" stroke="black" points="338,-387 338,-409 444,-409 444,-387 338,-387"/>
<text text-anchor="start" x="341" y="-395.2" font-family="Helvetica,sans-Serif" font-size="11.00">varchar[3]</text>
<polygon fill="none" stroke="black" points="10,-365 10,-387 338,-387 338,-365 10,-365"/>
<text text-anchor="start" x="30" y="-373.2" font-family="Helvetica,sans-Serif" font-size="11.00">abbr_de</text>
<polygon fill="none" stroke="black" points="338,-365 338,-387 444,-387 444,-365 338,-365"/>
<text text-anchor="start" x="341" y="-373.2" font-family="Helvetica,sans-Serif" font-size="11.00">varchar[3]</text>
<polygon fill="none" stroke="black" points="10,-343 10,-365 338,-365 338,-343 10,-343"/>
<text text-anchor="start" x="30" y="-351.2" font-family="Helvetica,sans-Serif" font-size="11.00">abbr_fr</text>
<polygon fill="none" stroke="black" points="338,-343 338,-365 444,-365 444,-343 338,-343"/>
<text text-anchor="start" x="341" y="-351.2" font-family="Helvetica,sans-Serif" font-size="11.00">varchar[3]</text>
<polygon fill="none" stroke="black" points="10,-321 10,-343 338,-343 338,-321 10,-321"/>
<text text-anchor="start" x="30" y="-329.2" font-family="Helvetica,sans-Serif" font-size="11.00">abbr_it</text>
<polygon fill="none" stroke="black" points="338,-321 338,-343 444,-343 444,-321 338,-321"/>
<text text-anchor="start" x="341" y="-329.2" font-family="Helvetica,sans-Serif" font-size="11.00">varchar[3]</text>
<polygon fill="none" stroke="black" points="10,-299 10,-321 338,-321 338,-299 10,-299"/>
<text text-anchor="start" x="30" y="-307.2" font-family="Helvetica,sans-Serif" font-size="11.00">abbr_ro</text>
<polygon fill="none" stroke="black" points="338,-299 338,-321 444,-321 444,-299 338,-299"/>
<text text-anchor="start" x="341" y="-307.2" font-family="Helvetica,sans-Serif" font-size="11.00">varchar[3]</text>
<polygon fill="none" stroke="black" points="10,-277 10,-299 338,-299 338,-277 10,-277"/>
<text text-anchor="start" x="30" y="-285.2" font-family="Helvetica,sans-Serif" font-size="11.00">active</text>
<polygon fill="none" stroke="black" points="338,-277 338,-299 444,-299 444,-277 338,-277"/>
<text text-anchor="start" x="341" y="-285.2" font-family="Helvetica,sans-Serif" font-size="11.00">bool[1]</text>
<polygon fill="none" stroke="black" points="10,-255 10,-277 338,-277 338,-255 10,-255"/>
<text text-anchor="start" x="30" y="-263.2" font-family="Helvetica,sans-Serif" font-size="11.00">description_en</text>
<polygon fill="none" stroke="black" points="338,-255 338,-277 444,-277 444,-255 338,-255"/>
<text text-anchor="start" x="341" y="-263.2" font-family="Helvetica,sans-Serif" font-size="11.00">text[2147483647]</text>
<polygon fill="none" stroke="black" points="10,-233 10,-255 338,-255 338,-233 10,-233"/>
<text text-anchor="start" x="30" y="-241.2" font-family="Helvetica,sans-Serif" font-size="11.00">description_de</text>
<polygon fill="none" stroke="black" points="338,-233 338,-255 444,-255 444,-233 338,-233"/>
<text text-anchor="start" x="341" y="-241.2" font-family="Helvetica,sans-Serif" font-size="11.00">text[2147483647]</text>
<polygon fill="none" stroke="black" points="10,-211 10,-233 338,-233 338,-211 10,-211"/>
<text text-anchor="start" x="30" y="-219.2" font-family="Helvetica,sans-Serif" font-size="11.00">description_fr</text>
<polygon fill="none" stroke="black" points="338,-211 338,-233 444,-233 444,-211 338,-211"/>
<text text-anchor="start" x="341" y="-219.2" font-family="Helvetica,sans-Serif" font-size="11.00">text[2147483647]</text>
<polygon fill="none" stroke="black" points="10,-189 10,-211 338,-211 338,-189 10,-189"/>
<text text-anchor="start" x="30" y="-197.2" font-family="Helvetica,sans-Serif" font-size="11.00">description_it</text>
<polygon fill="none" stroke="black" points="338,-189 338,-211 444,-211 444,-189 338,-189"/>
<text text-anchor="start" x="341" y="-197.2" font-family="Helvetica,sans-Serif" font-size="11.00">text[2147483647]</text>
<polygon fill="none" stroke="black" points="10,-167 10,-189 338,-189 338,-167 10,-167"/>
<text text-anchor="start" x="30" y="-175.2" font-family="Helvetica,sans-Serif" font-size="11.00">description_ro</text>
<polygon fill="none" stroke="black" points="338,-167 338,-189 444,-189 444,-167 338,-167"/>
<text text-anchor="start" x="341" y="-175.2" font-family="Helvetica,sans-Serif" font-size="11.00">text[2147483647]</text>
<polygon fill="none" stroke="black" points="10,-145 10,-167 338,-167 338,-145 10,-145"/>
<text text-anchor="start" x="30" y="-153.2" font-family="Helvetica,sans-Serif" font-size="11.00">display_en</text>
<polygon fill="none" stroke="black" points="338,-145 338,-167 444,-167 444,-145 338,-145"/>
<text text-anchor="start" x="341" y="-153.2" font-family="Helvetica,sans-Serif" font-size="11.00">varchar[100]</text>
<polygon fill="none" stroke="black" points="10,-123 10,-145 338,-145 338,-123 10,-123"/>
<text text-anchor="start" x="30" y="-131.2" font-family="Helvetica,sans-Serif" font-size="11.00">display_de</text>
<polygon fill="none" stroke="black" points="338,-123 338,-145 444,-145 444,-123 338,-123"/>
<text text-anchor="start" x="341" y="-131.2" font-family="Helvetica,sans-Serif" font-size="11.00">varchar[100]</text>
<polygon fill="none" stroke="black" points="10,-101 10,-123 338,-123 338,-101 10,-101"/>
<text text-anchor="start" x="30" y="-109.2" font-family="Helvetica,sans-Serif" font-size="11.00">display_fr</text>
<polygon fill="none" stroke="black" points="338,-101 338,-123 444,-123 444,-101 338,-101"/>
<text text-anchor="start" x="341" y="-109.2" font-family="Helvetica,sans-Serif" font-size="11.00">varchar[100]</text>
<polygon fill="none" stroke="black" points="10,-79 10,-101 338,-101 338,-79 10,-79"/>
<text text-anchor="start" x="30" y="-87.2" font-family="Helvetica,sans-Serif" font-size="11.00">display_it</text>
<polygon fill="none" stroke="black" points="338,-79 338,-101 444,-101 444,-79 338,-79"/>
<text text-anchor="start" x="341" y="-87.2" font-family="Helvetica,sans-Serif" font-size="11.00">varchar[100]</text>
<polygon fill="none" stroke="black" points="10,-57 10,-79 338,-79 338,-57 10,-57"/>
<text text-anchor="start" x="30" y="-65.2" font-family="Helvetica,sans-Serif" font-size="11.00">display_ro</text>
<polygon fill="none" stroke="black" points="338,-57 338,-79 444,-79 444,-57 338,-57"/>
<text text-anchor="start" x="341" y="-65.2" font-family="Helvetica,sans-Serif" font-size="11.00">varchar[100]</text>
<polygon fill="#ffffff" stroke="transparent" points="10,-39 10,-57 444,-57 444,-39 10,-39"/>
<polygon fill="none" stroke="black" points="10,-39 10,-57 444,-57 444,-39 10,-39"/>
<polygon fill="#ffffff" stroke="transparent" points="11,-40 11,-56 159,-56 159,-40 11,-40"/>
<text text-anchor="start" x="13" y="-45.2" font-family="Helvetica,sans-Serif" font-size="11.00">&lt; 0</text>
<polygon fill="#ffffff" stroke="transparent" points="159,-40 159,-56 295,-56 295,-40 159,-40"/>
<text text-anchor="start" x="223" y="-45.2" font-family="Helvetica,sans-Serif" font-size="11.00"> &#160;</text>
<polygon fill="#ffffff" stroke="transparent" points="295,-40 295,-56 443,-56 443,-40 295,-40"/>
<text text-anchor="start" x="421" y="-45.2" font-family="Helvetica,sans-Serif" font-size="11.00">1 &gt;</text>
<polygon fill="black" stroke="black" points="159,-40 159,-56 159,-56 159,-40 159,-40"/>
<polygon fill="black" stroke="black" points="295,-40 295,-56 295,-56 295,-40 295,-40"/>
<polygon fill="none" stroke="black" stroke-width="2" points="9,-38 9,-586 445,-586 445,-38 9,-38"/>
</a>
</g>
</g>
<!-- tww_od.catchment_area&#45;&gt;catchment_area_drainage_system_current -->
<g id="edge1" class="edge">
<title>tww_od.catchment_area:w&#45;&gt;catchment_area_drainage_system_current:e</title>
<path fill="none" stroke="black" d="M479.49,-552C468.18,-552 460.99,-552 445,-552"/>
<polygon fill="black" stroke="black" points="486,-552 494,-555.6 490,-552 494,-552 494,-552 494,-552 490,-552 494,-548.4 486,-552 486,-552"/>
<ellipse fill="none" stroke="black" cx="482.8" cy="-552" rx="3.2" ry="3.2"/>
</g>
</g>
</svg>
