<?xml version="1.0" encoding="UTF-8" standalone="no"?>
<!DOCTYPE svg PUBLIC "-//W3C//DTD SVG 1.1//EN"
 "http://www.w3.org/Graphics/SVG/1.1/DTD/svg11.dtd">
<!-- Generated by graphviz version 2.43.0 (0)
 -->
<!-- Title: oneDegreeRelationshipsDiagram Pages: 1 -->
<svg width="648pt" height="599pt"
 viewBox="0.00 0.00 648.00 599.00" xmlns="http://www.w3.org/2000/svg" xmlns:xlink="http://www.w3.org/1999/xlink">
<g id="graph0" class="graph" transform="scale(1 1) rotate(0) translate(4 595)">
<title>oneDegreeRelationshipsDiagram</title>
<polygon fill="#ffffff" stroke="transparent" points="-4,4 -4,-595 644,-595 644,4 -4,4"/>
<text text-anchor="middle" x="79.5" y="-7.2" font-family="Helvetica,sans-Serif" font-size="11.00">Generated by SchemaSpy</text>
<!-- tww_od.disposal -->
<g id="node1" class="node">
<title>tww_od.disposal</title>
<g id="a_node1"><a xlink:href="../../../tww_od/tables/disposal.html" xlink:title="tww_od.disposal" target="_top">
<polygon fill="#ffffff" stroke="transparent" points="422,-483 422,-585 632,-585 632,-483 422,-483"/>
<polygon fill="#f5f5f5" stroke="transparent" points="422,-563 422,-585 632,-585 632,-563 422,-563"/>
<polygon fill="none" stroke="black" points="422,-563 422,-585 632,-585 632,-563 422,-563"/>
<text text-anchor="start" x="427" y="-572.2" font-family="Helvetica,sans-Serif" font-weight="bold" font-size="11.00">tww_od.disposal</text>
<text text-anchor="start" x="590" y="-571.2" font-family="Helvetica,sans-Serif" font-size="11.00">[table]</text>
<polygon fill="none" stroke="black" points="422,-541 422,-563 632,-563 632,-541 422,-541"/>
<image xlink:href="../../images/foreignKeys.png" width="11px" height="12px" preserveAspectRatio="xMinYMin meet" x="427" y="-558"/>
<text text-anchor="start" x="442" y="-549.2" font-family="Helvetica,sans-Serif" font-size="11.00">disposal_place_current</text>
<polygon fill="none" stroke="black" points="422,-519 422,-541 632,-541 632,-519 422,-519"/>
<image xlink:href="../../images/foreignKeys.png" width="11px" height="12px" preserveAspectRatio="xMinYMin meet" x="427" y="-536"/>
<text text-anchor="start" x="442" y="-527.2" font-family="Helvetica,sans-Serif" font-size="11.00">disposal_place_planned</text>
<polygon fill="none" stroke="black" points="422,-501 422,-519 632,-519 632,-501 422,-501"/>
<text text-anchor="start" x="425" y="-507.2" font-family="Helvetica,sans-Serif" font-size="11.00">...</text>
<polygon fill="#ffffff" stroke="transparent" points="422,-483 422,-501 632,-501 632,-483 422,-483"/>
<polygon fill="none" stroke="black" points="422,-483 422,-501 632,-501 632,-483 422,-483"/>
<polygon fill="#ffffff" stroke="transparent" points="423,-484 423,-500 491,-500 491,-484 423,-484"/>
<text text-anchor="start" x="425" y="-489.2" font-family="Helvetica,sans-Serif" font-size="11.00">&lt; 2</text>
<polygon fill="#ffffff" stroke="transparent" points="491,-484 491,-500 576,-500 576,-484 491,-484"/>
<text text-anchor="start" x="515" y="-489.2" font-family="Helvetica,sans-Serif" font-size="11.00">0 rows</text>
<polygon fill="#ffffff" stroke="transparent" points="576,-484 576,-500 631,-500 631,-484 576,-484"/>
<text text-anchor="start" x="621" y="-489.2" font-family="Helvetica,sans-Serif" font-size="11.00"> &#160;</text>
<polygon fill="black" stroke="black" points="491,-484 491,-500 491,-500 491,-484 491,-484"/>
<polygon fill="black" stroke="black" points="576,-484 576,-500 576,-500 576,-484 576,-484"/>
</a>
</g>
</g>
<!-- disposal_disposal_place_current -->
<g id="node2" class="node">
<title>disposal_disposal_place_current</title>
<g id="a_node2"><a xlink:href="../../tables/disposal_disposal_place_current.html" xlink:title="disposal_disposal_place_current" target="_top">
<polygon fill="#ffffff" stroke="transparent" points="8,-37 8,-587 373,-587 373,-37 8,-37"/>
<polygon fill="#f5f5f5" stroke="transparent" points="10.5,-563 10.5,-585 371.5,-585 371.5,-563 10.5,-563"/>
<polygon fill="none" stroke="black" points="10.5,-563 10.5,-585 371.5,-585 371.5,-563 10.5,-563"/>
<text text-anchor="start" x="15.5" y="-572.2" font-family="Helvetica,sans-Serif" font-weight="bold" font-size="11.00">disposal_disposal_place_current</text>
<text text-anchor="start" x="329.5" y="-571.2" font-family="Helvetica,sans-Serif" font-size="11.00">[table]</text>
<polygon fill="none" stroke="black" points="10.5,-541 10.5,-563 265.5,-563 265.5,-541 10.5,-541"/>
<image xlink:href="../../images/primaryKeys.png" width="11px" height="12px" preserveAspectRatio="xMinYMin meet" x="15.5" y="-558"/>
<text text-anchor="start" x="30.5" y="-549.2" font-family="Helvetica,sans-Serif" font-size="11.00">code</text>
<polygon fill="none" stroke="black" points="265.5,-541 265.5,-563 371.5,-563 371.5,-541 265.5,-541"/>
<text text-anchor="start" x="268.5" y="-549.2" font-family="Helvetica,sans-Serif" font-size="11.00">int4[10]</text>
<polygon fill="none" stroke="black" points="10.5,-519 10.5,-541 265.5,-541 265.5,-519 10.5,-519"/>
<text text-anchor="start" x="30.5" y="-527.2" font-family="Helvetica,sans-Serif" font-size="11.00">vsacode</text>
<polygon fill="none" stroke="black" points="265.5,-519 265.5,-541 371.5,-541 371.5,-519 265.5,-519"/>
<text text-anchor="start" x="268.5" y="-527.2" font-family="Helvetica,sans-Serif" font-size="11.00">int4[10]</text>
<polygon fill="none" stroke="black" points="10.5,-497 10.5,-519 265.5,-519 265.5,-497 10.5,-497"/>
<text text-anchor="start" x="30.5" y="-505.2" font-family="Helvetica,sans-Serif" font-size="11.00">value_en</text>
<polygon fill="none" stroke="black" points="265.5,-497 265.5,-519 371.5,-519 371.5,-497 265.5,-497"/>
<text text-anchor="start" x="268.5" y="-505.2" font-family="Helvetica,sans-Serif" font-size="11.00">varchar[100]</text>
<polygon fill="none" stroke="black" points="10.5,-475 10.5,-497 265.5,-497 265.5,-475 10.5,-475"/>
<text text-anchor="start" x="30.5" y="-483.2" font-family="Helvetica,sans-Serif" font-size="11.00">value_de</text>
<polygon fill="none" stroke="black" points="265.5,-475 265.5,-497 371.5,-497 371.5,-475 265.5,-475"/>
<text text-anchor="start" x="268.5" y="-483.2" font-family="Helvetica,sans-Serif" font-size="11.00">varchar[100]</text>
<polygon fill="none" stroke="black" points="10.5,-453 10.5,-475 265.5,-475 265.5,-453 10.5,-453"/>
<text text-anchor="start" x="30.5" y="-461.2" font-family="Helvetica,sans-Serif" font-size="11.00">value_fr</text>
<polygon fill="none" stroke="black" points="265.5,-453 265.5,-475 371.5,-475 371.5,-453 265.5,-453"/>
<text text-anchor="start" x="268.5" y="-461.2" font-family="Helvetica,sans-Serif" font-size="11.00">varchar[100]</text>
<polygon fill="none" stroke="black" points="10.5,-431 10.5,-453 265.5,-453 265.5,-431 10.5,-431"/>
<text text-anchor="start" x="30.5" y="-439.2" font-family="Helvetica,sans-Serif" font-size="11.00">value_it</text>
<polygon fill="none" stroke="black" points="265.5,-431 265.5,-453 371.5,-453 371.5,-431 265.5,-431"/>
<text text-anchor="start" x="268.5" y="-439.2" font-family="Helvetica,sans-Serif" font-size="11.00">varchar[100]</text>
<polygon fill="none" stroke="black" points="10.5,-409 10.5,-431 265.5,-431 265.5,-409 10.5,-409"/>
<text text-anchor="start" x="30.5" y="-417.2" font-family="Helvetica,sans-Serif" font-size="11.00">value_ro</text>
<polygon fill="none" stroke="black" points="265.5,-409 265.5,-431 371.5,-431 371.5,-409 265.5,-409"/>
<text text-anchor="start" x="268.5" y="-417.2" font-family="Helvetica,sans-Serif" font-size="11.00">varchar[100]</text>
<polygon fill="none" stroke="black" points="10.5,-387 10.5,-409 265.5,-409 265.5,-387 10.5,-387"/>
<text text-anchor="start" x="30.5" y="-395.2" font-family="Helvetica,sans-Serif" font-size="11.00">abbr_en</text>
<polygon fill="none" stroke="black" points="265.5,-387 265.5,-409 371.5,-409 371.5,-387 265.5,-387"/>
<text text-anchor="start" x="268.5" y="-395.2" font-family="Helvetica,sans-Serif" font-size="11.00">varchar[3]</text>
<polygon fill="none" stroke="black" points="10.5,-365 10.5,-387 265.5,-387 265.5,-365 10.5,-365"/>
<text text-anchor="start" x="30.5" y="-373.2" font-family="Helvetica,sans-Serif" font-size="11.00">abbr_de</text>
<polygon fill="none" stroke="black" points="265.5,-365 265.5,-387 371.5,-387 371.5,-365 265.5,-365"/>
<text text-anchor="start" x="268.5" y="-373.2" font-family="Helvetica,sans-Serif" font-size="11.00">varchar[3]</text>
<polygon fill="none" stroke="black" points="10.5,-343 10.5,-365 265.5,-365 265.5,-343 10.5,-343"/>
<text text-anchor="start" x="30.5" y="-351.2" font-family="Helvetica,sans-Serif" font-size="11.00">abbr_fr</text>
<polygon fill="none" stroke="black" points="265.5,-343 265.5,-365 371.5,-365 371.5,-343 265.5,-343"/>
<text text-anchor="start" x="268.5" y="-351.2" font-family="Helvetica,sans-Serif" font-size="11.00">varchar[3]</text>
<polygon fill="none" stroke="black" points="10.5,-321 10.5,-343 265.5,-343 265.5,-321 10.5,-321"/>
<text text-anchor="start" x="30.5" y="-329.2" font-family="Helvetica,sans-Serif" font-size="11.00">abbr_it</text>
<polygon fill="none" stroke="black" points="265.5,-321 265.5,-343 371.5,-343 371.5,-321 265.5,-321"/>
<text text-anchor="start" x="268.5" y="-329.2" font-family="Helvetica,sans-Serif" font-size="11.00">varchar[3]</text>
<polygon fill="none" stroke="black" points="10.5,-299 10.5,-321 265.5,-321 265.5,-299 10.5,-299"/>
<text text-anchor="start" x="30.5" y="-307.2" font-family="Helvetica,sans-Serif" font-size="11.00">abbr_ro</text>
<polygon fill="none" stroke="black" points="265.5,-299 265.5,-321 371.5,-321 371.5,-299 265.5,-299"/>
<text text-anchor="start" x="268.5" y="-307.2" font-family="Helvetica,sans-Serif" font-size="11.00">varchar[3]</text>
<polygon fill="none" stroke="black" points="10.5,-277 10.5,-299 265.5,-299 265.5,-277 10.5,-277"/>
<text text-anchor="start" x="30.5" y="-285.2" font-family="Helvetica,sans-Serif" font-size="11.00">active</text>
<polygon fill="none" stroke="black" points="265.5,-277 265.5,-299 371.5,-299 371.5,-277 265.5,-277"/>
<text text-anchor="start" x="268.5" y="-285.2" font-family="Helvetica,sans-Serif" font-size="11.00">bool[1]</text>
<polygon fill="none" stroke="black" points="10.5,-255 10.5,-277 265.5,-277 265.5,-255 10.5,-255"/>
<text text-anchor="start" x="30.5" y="-263.2" font-family="Helvetica,sans-Serif" font-size="11.00">description_en</text>
<polygon fill="none" stroke="black" points="265.5,-255 265.5,-277 371.5,-277 371.5,-255 265.5,-255"/>
<text text-anchor="start" x="268.5" y="-263.2" font-family="Helvetica,sans-Serif" font-size="11.00">text[2147483647]</text>
<polygon fill="none" stroke="black" points="10.5,-233 10.5,-255 265.5,-255 265.5,-233 10.5,-233"/>
<text text-anchor="start" x="30.5" y="-241.2" font-family="Helvetica,sans-Serif" font-size="11.00">description_de</text>
<polygon fill="none" stroke="black" points="265.5,-233 265.5,-255 371.5,-255 371.5,-233 265.5,-233"/>
<text text-anchor="start" x="268.5" y="-241.2" font-family="Helvetica,sans-Serif" font-size="11.00">text[2147483647]</text>
<polygon fill="none" stroke="black" points="10.5,-211 10.5,-233 265.5,-233 265.5,-211 10.5,-211"/>
<text text-anchor="start" x="30.5" y="-219.2" font-family="Helvetica,sans-Serif" font-size="11.00">description_fr</text>
<polygon fill="none" stroke="black" points="265.5,-211 265.5,-233 371.5,-233 371.5,-211 265.5,-211"/>
<text text-anchor="start" x="268.5" y="-219.2" font-family="Helvetica,sans-Serif" font-size="11.00">text[2147483647]</text>
<polygon fill="none" stroke="black" points="10.5,-189 10.5,-211 265.5,-211 265.5,-189 10.5,-189"/>
<text text-anchor="start" x="30.5" y="-197.2" font-family="Helvetica,sans-Serif" font-size="11.00">description_it</text>
<polygon fill="none" stroke="black" points="265.5,-189 265.5,-211 371.5,-211 371.5,-189 265.5,-189"/>
<text text-anchor="start" x="268.5" y="-197.2" font-family="Helvetica,sans-Serif" font-size="11.00">text[2147483647]</text>
<polygon fill="none" stroke="black" points="10.5,-167 10.5,-189 265.5,-189 265.5,-167 10.5,-167"/>
<text text-anchor="start" x="30.5" y="-175.2" font-family="Helvetica,sans-Serif" font-size="11.00">description_ro</text>
<polygon fill="none" stroke="black" points="265.5,-167 265.5,-189 371.5,-189 371.5,-167 265.5,-167"/>
<text text-anchor="start" x="268.5" y="-175.2" font-family="Helvetica,sans-Serif" font-size="11.00">text[2147483647]</text>
<polygon fill="none" stroke="black" points="10.5,-145 10.5,-167 265.5,-167 265.5,-145 10.5,-145"/>
<text text-anchor="start" x="30.5" y="-153.2" font-family="Helvetica,sans-Serif" font-size="11.00">display_en</text>
<polygon fill="none" stroke="black" points="265.5,-145 265.5,-167 371.5,-167 371.5,-145 265.5,-145"/>
<text text-anchor="start" x="268.5" y="-153.2" font-family="Helvetica,sans-Serif" font-size="11.00">varchar[100]</text>
<polygon fill="none" stroke="black" points="10.5,-123 10.5,-145 265.5,-145 265.5,-123 10.5,-123"/>
<text text-anchor="start" x="30.5" y="-131.2" font-family="Helvetica,sans-Serif" font-size="11.00">display_de</text>
<polygon fill="none" stroke="black" points="265.5,-123 265.5,-145 371.5,-145 371.5,-123 265.5,-123"/>
<text text-anchor="start" x="268.5" y="-131.2" font-family="Helvetica,sans-Serif" font-size="11.00">varchar[100]</text>
<polygon fill="none" stroke="black" points="10.5,-101 10.5,-123 265.5,-123 265.5,-101 10.5,-101"/>
<text text-anchor="start" x="30.5" y="-109.2" font-family="Helvetica,sans-Serif" font-size="11.00">display_fr</text>
<polygon fill="none" stroke="black" points="265.5,-101 265.5,-123 371.5,-123 371.5,-101 265.5,-101"/>
<text text-anchor="start" x="268.5" y="-109.2" font-family="Helvetica,sans-Serif" font-size="11.00">varchar[100]</text>
<polygon fill="none" stroke="black" points="10.5,-79 10.5,-101 265.5,-101 265.5,-79 10.5,-79"/>
<text text-anchor="start" x="30.5" y="-87.2" font-family="Helvetica,sans-Serif" font-size="11.00">display_it</text>
<polygon fill="none" stroke="black" points="265.5,-79 265.5,-101 371.5,-101 371.5,-79 265.5,-79"/>
<text text-anchor="start" x="268.5" y="-87.2" font-family="Helvetica,sans-Serif" font-size="11.00">varchar[100]</text>
<polygon fill="none" stroke="black" points="10.5,-57 10.5,-79 265.5,-79 265.5,-57 10.5,-57"/>
<text text-anchor="start" x="30.5" y="-65.2" font-family="Helvetica,sans-Serif" font-size="11.00">display_ro</text>
<polygon fill="none" stroke="black" points="265.5,-57 265.5,-79 371.5,-79 371.5,-57 265.5,-57"/>
<text text-anchor="start" x="268.5" y="-65.2" font-family="Helvetica,sans-Serif" font-size="11.00">varchar[100]</text>
<polygon fill="#ffffff" stroke="transparent" points="10.5,-39 10.5,-57 371.5,-57 371.5,-39 10.5,-39"/>
<polygon fill="none" stroke="black" points="10.5,-39 10.5,-57 371.5,-57 371.5,-39 10.5,-39"/>
<polygon fill="#ffffff" stroke="transparent" points="11.5,-40 11.5,-56 135.5,-56 135.5,-40 11.5,-40"/>
<text text-anchor="start" x="13.5" y="-45.2" font-family="Helvetica,sans-Serif" font-size="11.00">&lt; 0</text>
<polygon fill="#ffffff" stroke="transparent" points="135.5,-40 135.5,-56 247.5,-56 247.5,-40 135.5,-40"/>
<text text-anchor="start" x="187.5" y="-45.2" font-family="Helvetica,sans-Serif" font-size="11.00"> &#160;</text>
<polygon fill="#ffffff" stroke="transparent" points="247.5,-40 247.5,-56 370.5,-56 370.5,-40 247.5,-40"/>
<text text-anchor="start" x="348.5" y="-45.2" font-family="Helvetica,sans-Serif" font-size="11.00">1 &gt;</text>
<polygon fill="black" stroke="black" points="135.5,-40 135.5,-56 135.5,-56 135.5,-40 135.5,-40"/>
<polygon fill="black" stroke="black" points="247.5,-40 247.5,-56 247.5,-56 247.5,-40 247.5,-40"/>
<polygon fill="none" stroke="black" stroke-width="2" points="9,-38 9,-586 372,-586 372,-38 9,-38"/>
</a>
</g>
</g>
<!-- tww_od.disposal&#45;&gt;disposal_disposal_place_current -->
<g id="edge1" class="edge">
<title>tww_od.disposal:w&#45;&gt;disposal_disposal_place_current:e</title>
<path fill="none" stroke="black" d="M406.28,-552C395.29,-552 388.16,-552 372.5,-552"/>
<polygon fill="black" stroke="black" points="413,-552 421,-555.6 417,-552 421,-552 421,-552 421,-552 417,-552 421,-548.4 413,-552 413,-552"/>
<ellipse fill="none" stroke="black" cx="409.8" cy="-552" rx="3.2" ry="3.2"/>
</g>
</g>
</svg>
