<?xml version="1.0" encoding="UTF-8" standalone="no"?>
<!DOCTYPE svg PUBLIC "-//W3C//DTD SVG 1.1//EN"
 "http://www.w3.org/Graphics/SVG/1.1/DTD/svg11.dtd">
<!-- Generated by graphviz version 2.43.0 (0)
 -->
<!-- Title: oneDegreeRelationshipsDiagram Pages: 1 -->
<svg width="651pt" height="619pt"
 viewBox="0.00 0.00 651.00 619.00" xmlns="http://www.w3.org/2000/svg" xmlns:xlink="http://www.w3.org/1999/xlink">
<g id="graph0" class="graph" transform="scale(1 1) rotate(0) translate(4 615)">
<title>oneDegreeRelationshipsDiagram</title>
<polygon fill="#ffffff" stroke="transparent" points="-4,4 -4,-615 647,-615 647,4 -4,4"/>
<text text-anchor="middle" x="79.5" y="-7.2" font-family="Helvetica,sans-Serif" font-size="11.00">Generated by SchemaSpy</text>
<!-- tww_od.measuring_point -->
<g id="node1" class="node">
<title>tww_od.measuring_point</title>
<g id="a_node1"><a xlink:href="../../../tww_od/tables/measuring_point.html" xlink:title="tww_od.measuring_point" target="_top">
<polygon fill="#ffffff" stroke="transparent" points="376,-505 376,-607 635,-607 635,-505 376,-505"/>
<polygon fill="#f5f5f5" stroke="transparent" points="376.5,-585 376.5,-607 635.5,-607 635.5,-585 376.5,-585"/>
<polygon fill="none" stroke="black" points="376.5,-585 376.5,-607 635.5,-607 635.5,-585 376.5,-585"/>
<text text-anchor="start" x="381.5" y="-594.2" font-family="Helvetica,sans-Serif" font-weight="bold" font-size="11.00">tww_od.measuring_point</text>
<text text-anchor="start" x="593.5" y="-593.2" font-family="Helvetica,sans-Serif" font-size="11.00">[table]</text>
<polygon fill="none" stroke="black" points="376.5,-563 376.5,-585 635.5,-585 635.5,-563 376.5,-563"/>
<image xlink:href="../../images/foreignKeys.png" width="11px" height="12px" preserveAspectRatio="xMinYMin meet" x="381.5" y="-580"/>
<text text-anchor="start" x="396.5" y="-571.2" font-family="Helvetica,sans-Serif" font-size="11.00">damming_device</text>
<polygon fill="none" stroke="black" points="376.5,-541 376.5,-563 635.5,-563 635.5,-541 376.5,-541"/>
<image xlink:href="../../images/foreignKeys.png" width="11px" height="12px" preserveAspectRatio="xMinYMin meet" x="381.5" y="-558"/>
<text text-anchor="start" x="396.5" y="-549.2" font-family="Helvetica,sans-Serif" font-size="11.00">purpose</text>
<polygon fill="none" stroke="black" points="376.5,-523 376.5,-541 635.5,-541 635.5,-523 376.5,-523"/>
<text text-anchor="start" x="379.5" y="-529.2" font-family="Helvetica,sans-Serif" font-size="11.00">...</text>
<polygon fill="#ffffff" stroke="transparent" points="376.5,-505 376.5,-523 635.5,-523 635.5,-505 376.5,-505"/>
<polygon fill="none" stroke="black" points="376.5,-505 376.5,-523 635.5,-523 635.5,-505 376.5,-505"/>
<polygon fill="#ffffff" stroke="transparent" points="377.5,-506 377.5,-522 461.5,-522 461.5,-506 377.5,-506"/>
<text text-anchor="start" x="379.5" y="-511.2" font-family="Helvetica,sans-Serif" font-size="11.00">&lt; 2</text>
<polygon fill="#ffffff" stroke="transparent" points="461.5,-506 461.5,-522 562.5,-522 562.5,-506 461.5,-506"/>
<text text-anchor="start" x="493.5" y="-511.2" font-family="Helvetica,sans-Serif" font-size="11.00">0 rows</text>
<polygon fill="#ffffff" stroke="transparent" points="562.5,-506 562.5,-522 634.5,-522 634.5,-506 562.5,-506"/>
<text text-anchor="start" x="624.5" y="-511.2" font-family="Helvetica,sans-Serif" font-size="11.00"> &#160;</text>
<polygon fill="black" stroke="black" points="461.5,-506 461.5,-522 461.5,-522 461.5,-506 461.5,-506"/>
<polygon fill="black" stroke="black" points="562.5,-506 562.5,-522 562.5,-522 562.5,-506 562.5,-506"/>
</a>
</g>
</g>
<!-- measuring_point_purpose -->
<g id="node2" class="node">
<title>measuring_point_purpose</title>
<g id="a_node2"><a xlink:href="../../tables/measuring_point_purpose.html" xlink:title="measuring_point_purpose" target="_top">
<polygon fill="#ffffff" stroke="transparent" points="8,-37 8,-587 327,-587 327,-37 8,-37"/>
<polygon fill="#f5f5f5" stroke="transparent" points="10.5,-563 10.5,-585 325.5,-585 325.5,-563 10.5,-563"/>
<polygon fill="none" stroke="black" points="10.5,-563 10.5,-585 325.5,-585 325.5,-563 10.5,-563"/>
<text text-anchor="start" x="15.5" y="-572.2" font-family="Helvetica,sans-Serif" font-weight="bold" font-size="11.00">measuring_point_purpose</text>
<text text-anchor="start" x="283.5" y="-571.2" font-family="Helvetica,sans-Serif" font-size="11.00">[table]</text>
<polygon fill="none" stroke="black" points="10.5,-541 10.5,-563 219.5,-563 219.5,-541 10.5,-541"/>
<image xlink:href="../../images/primaryKeys.png" width="11px" height="12px" preserveAspectRatio="xMinYMin meet" x="15.5" y="-558"/>
<text text-anchor="start" x="30.5" y="-549.2" font-family="Helvetica,sans-Serif" font-size="11.00">code</text>
<polygon fill="none" stroke="black" points="219.5,-541 219.5,-563 325.5,-563 325.5,-541 219.5,-541"/>
<text text-anchor="start" x="222.5" y="-549.2" font-family="Helvetica,sans-Serif" font-size="11.00">int4[10]</text>
<polygon fill="none" stroke="black" points="10.5,-519 10.5,-541 219.5,-541 219.5,-519 10.5,-519"/>
<text text-anchor="start" x="30.5" y="-527.2" font-family="Helvetica,sans-Serif" font-size="11.00">vsacode</text>
<polygon fill="none" stroke="black" points="219.5,-519 219.5,-541 325.5,-541 325.5,-519 219.5,-519"/>
<text text-anchor="start" x="222.5" y="-527.2" font-family="Helvetica,sans-Serif" font-size="11.00">int4[10]</text>
<polygon fill="none" stroke="black" points="10.5,-497 10.5,-519 219.5,-519 219.5,-497 10.5,-497"/>
<text text-anchor="start" x="30.5" y="-505.2" font-family="Helvetica,sans-Serif" font-size="11.00">value_en</text>
<polygon fill="none" stroke="black" points="219.5,-497 219.5,-519 325.5,-519 325.5,-497 219.5,-497"/>
<text text-anchor="start" x="222.5" y="-505.2" font-family="Helvetica,sans-Serif" font-size="11.00">varchar[100]</text>
<polygon fill="none" stroke="black" points="10.5,-475 10.5,-497 219.5,-497 219.5,-475 10.5,-475"/>
<text text-anchor="start" x="30.5" y="-483.2" font-family="Helvetica,sans-Serif" font-size="11.00">value_de</text>
<polygon fill="none" stroke="black" points="219.5,-475 219.5,-497 325.5,-497 325.5,-475 219.5,-475"/>
<text text-anchor="start" x="222.5" y="-483.2" font-family="Helvetica,sans-Serif" font-size="11.00">varchar[100]</text>
<polygon fill="none" stroke="black" points="10.5,-453 10.5,-475 219.5,-475 219.5,-453 10.5,-453"/>
<text text-anchor="start" x="30.5" y="-461.2" font-family="Helvetica,sans-Serif" font-size="11.00">value_fr</text>
<polygon fill="none" stroke="black" points="219.5,-453 219.5,-475 325.5,-475 325.5,-453 219.5,-453"/>
<text text-anchor="start" x="222.5" y="-461.2" font-family="Helvetica,sans-Serif" font-size="11.00">varchar[100]</text>
<polygon fill="none" stroke="black" points="10.5,-431 10.5,-453 219.5,-453 219.5,-431 10.5,-431"/>
<text text-anchor="start" x="30.5" y="-439.2" font-family="Helvetica,sans-Serif" font-size="11.00">value_it</text>
<polygon fill="none" stroke="black" points="219.5,-431 219.5,-453 325.5,-453 325.5,-431 219.5,-431"/>
<text text-anchor="start" x="222.5" y="-439.2" font-family="Helvetica,sans-Serif" font-size="11.00">varchar[100]</text>
<polygon fill="none" stroke="black" points="10.5,-409 10.5,-431 219.5,-431 219.5,-409 10.5,-409"/>
<text text-anchor="start" x="30.5" y="-417.2" font-family="Helvetica,sans-Serif" font-size="11.00">value_ro</text>
<polygon fill="none" stroke="black" points="219.5,-409 219.5,-431 325.5,-431 325.5,-409 219.5,-409"/>
<text text-anchor="start" x="222.5" y="-417.2" font-family="Helvetica,sans-Serif" font-size="11.00">varchar[100]</text>
<polygon fill="none" stroke="black" points="10.5,-387 10.5,-409 219.5,-409 219.5,-387 10.5,-387"/>
<text text-anchor="start" x="30.5" y="-395.2" font-family="Helvetica,sans-Serif" font-size="11.00">abbr_en</text>
<polygon fill="none" stroke="black" points="219.5,-387 219.5,-409 325.5,-409 325.5,-387 219.5,-387"/>
<text text-anchor="start" x="222.5" y="-395.2" font-family="Helvetica,sans-Serif" font-size="11.00">varchar[3]</text>
<polygon fill="none" stroke="black" points="10.5,-365 10.5,-387 219.5,-387 219.5,-365 10.5,-365"/>
<text text-anchor="start" x="30.5" y="-373.2" font-family="Helvetica,sans-Serif" font-size="11.00">abbr_de</text>
<polygon fill="none" stroke="black" points="219.5,-365 219.5,-387 325.5,-387 325.5,-365 219.5,-365"/>
<text text-anchor="start" x="222.5" y="-373.2" font-family="Helvetica,sans-Serif" font-size="11.00">varchar[3]</text>
<polygon fill="none" stroke="black" points="10.5,-343 10.5,-365 219.5,-365 219.5,-343 10.5,-343"/>
<text text-anchor="start" x="30.5" y="-351.2" font-family="Helvetica,sans-Serif" font-size="11.00">abbr_fr</text>
<polygon fill="none" stroke="black" points="219.5,-343 219.5,-365 325.5,-365 325.5,-343 219.5,-343"/>
<text text-anchor="start" x="222.5" y="-351.2" font-family="Helvetica,sans-Serif" font-size="11.00">varchar[3]</text>
<polygon fill="none" stroke="black" points="10.5,-321 10.5,-343 219.5,-343 219.5,-321 10.5,-321"/>
<text text-anchor="start" x="30.5" y="-329.2" font-family="Helvetica,sans-Serif" font-size="11.00">abbr_it</text>
<polygon fill="none" stroke="black" points="219.5,-321 219.5,-343 325.5,-343 325.5,-321 219.5,-321"/>
<text text-anchor="start" x="222.5" y="-329.2" font-family="Helvetica,sans-Serif" font-size="11.00">varchar[3]</text>
<polygon fill="none" stroke="black" points="10.5,-299 10.5,-321 219.5,-321 219.5,-299 10.5,-299"/>
<text text-anchor="start" x="30.5" y="-307.2" font-family="Helvetica,sans-Serif" font-size="11.00">abbr_ro</text>
<polygon fill="none" stroke="black" points="219.5,-299 219.5,-321 325.5,-321 325.5,-299 219.5,-299"/>
<text text-anchor="start" x="222.5" y="-307.2" font-family="Helvetica,sans-Serif" font-size="11.00">varchar[3]</text>
<polygon fill="none" stroke="black" points="10.5,-277 10.5,-299 219.5,-299 219.5,-277 10.5,-277"/>
<text text-anchor="start" x="30.5" y="-285.2" font-family="Helvetica,sans-Serif" font-size="11.00">active</text>
<polygon fill="none" stroke="black" points="219.5,-277 219.5,-299 325.5,-299 325.5,-277 219.5,-277"/>
<text text-anchor="start" x="222.5" y="-285.2" font-family="Helvetica,sans-Serif" font-size="11.00">bool[1]</text>
<polygon fill="none" stroke="black" points="10.5,-255 10.5,-277 219.5,-277 219.5,-255 10.5,-255"/>
<text text-anchor="start" x="30.5" y="-263.2" font-family="Helvetica,sans-Serif" font-size="11.00">description_en</text>
<polygon fill="none" stroke="black" points="219.5,-255 219.5,-277 325.5,-277 325.5,-255 219.5,-255"/>
<text text-anchor="start" x="222.5" y="-263.2" font-family="Helvetica,sans-Serif" font-size="11.00">text[2147483647]</text>
<polygon fill="none" stroke="black" points="10.5,-233 10.5,-255 219.5,-255 219.5,-233 10.5,-233"/>
<text text-anchor="start" x="30.5" y="-241.2" font-family="Helvetica,sans-Serif" font-size="11.00">description_de</text>
<polygon fill="none" stroke="black" points="219.5,-233 219.5,-255 325.5,-255 325.5,-233 219.5,-233"/>
<text text-anchor="start" x="222.5" y="-241.2" font-family="Helvetica,sans-Serif" font-size="11.00">text[2147483647]</text>
<polygon fill="none" stroke="black" points="10.5,-211 10.5,-233 219.5,-233 219.5,-211 10.5,-211"/>
<text text-anchor="start" x="30.5" y="-219.2" font-family="Helvetica,sans-Serif" font-size="11.00">description_fr</text>
<polygon fill="none" stroke="black" points="219.5,-211 219.5,-233 325.5,-233 325.5,-211 219.5,-211"/>
<text text-anchor="start" x="222.5" y="-219.2" font-family="Helvetica,sans-Serif" font-size="11.00">text[2147483647]</text>
<polygon fill="none" stroke="black" points="10.5,-189 10.5,-211 219.5,-211 219.5,-189 10.5,-189"/>
<text text-anchor="start" x="30.5" y="-197.2" font-family="Helvetica,sans-Serif" font-size="11.00">description_it</text>
<polygon fill="none" stroke="black" points="219.5,-189 219.5,-211 325.5,-211 325.5,-189 219.5,-189"/>
<text text-anchor="start" x="222.5" y="-197.2" font-family="Helvetica,sans-Serif" font-size="11.00">text[2147483647]</text>
<polygon fill="none" stroke="black" points="10.5,-167 10.5,-189 219.5,-189 219.5,-167 10.5,-167"/>
<text text-anchor="start" x="30.5" y="-175.2" font-family="Helvetica,sans-Serif" font-size="11.00">description_ro</text>
<polygon fill="none" stroke="black" points="219.5,-167 219.5,-189 325.5,-189 325.5,-167 219.5,-167"/>
<text text-anchor="start" x="222.5" y="-175.2" font-family="Helvetica,sans-Serif" font-size="11.00">text[2147483647]</text>
<polygon fill="none" stroke="black" points="10.5,-145 10.5,-167 219.5,-167 219.5,-145 10.5,-145"/>
<text text-anchor="start" x="30.5" y="-153.2" font-family="Helvetica,sans-Serif" font-size="11.00">display_en</text>
<polygon fill="none" stroke="black" points="219.5,-145 219.5,-167 325.5,-167 325.5,-145 219.5,-145"/>
<text text-anchor="start" x="222.5" y="-153.2" font-family="Helvetica,sans-Serif" font-size="11.00">varchar[100]</text>
<polygon fill="none" stroke="black" points="10.5,-123 10.5,-145 219.5,-145 219.5,-123 10.5,-123"/>
<text text-anchor="start" x="30.5" y="-131.2" font-family="Helvetica,sans-Serif" font-size="11.00">display_de</text>
<polygon fill="none" stroke="black" points="219.5,-123 219.5,-145 325.5,-145 325.5,-123 219.5,-123"/>
<text text-anchor="start" x="222.5" y="-131.2" font-family="Helvetica,sans-Serif" font-size="11.00">varchar[100]</text>
<polygon fill="none" stroke="black" points="10.5,-101 10.5,-123 219.5,-123 219.5,-101 10.5,-101"/>
<text text-anchor="start" x="30.5" y="-109.2" font-family="Helvetica,sans-Serif" font-size="11.00">display_fr</text>
<polygon fill="none" stroke="black" points="219.5,-101 219.5,-123 325.5,-123 325.5,-101 219.5,-101"/>
<text text-anchor="start" x="222.5" y="-109.2" font-family="Helvetica,sans-Serif" font-size="11.00">varchar[100]</text>
<polygon fill="none" stroke="black" points="10.5,-79 10.5,-101 219.5,-101 219.5,-79 10.5,-79"/>
<text text-anchor="start" x="30.5" y="-87.2" font-family="Helvetica,sans-Serif" font-size="11.00">display_it</text>
<polygon fill="none" stroke="black" points="219.5,-79 219.5,-101 325.5,-101 325.5,-79 219.5,-79"/>
<text text-anchor="start" x="222.5" y="-87.2" font-family="Helvetica,sans-Serif" font-size="11.00">varchar[100]</text>
<polygon fill="none" stroke="black" points="10.5,-57 10.5,-79 219.5,-79 219.5,-57 10.5,-57"/>
<text text-anchor="start" x="30.5" y="-65.2" font-family="Helvetica,sans-Serif" font-size="11.00">display_ro</text>
<polygon fill="none" stroke="black" points="219.5,-57 219.5,-79 325.5,-79 325.5,-57 219.5,-57"/>
<text text-anchor="start" x="222.5" y="-65.2" font-family="Helvetica,sans-Serif" font-size="11.00">varchar[100]</text>
<polygon fill="#ffffff" stroke="transparent" points="10.5,-39 10.5,-57 325.5,-57 325.5,-39 10.5,-39"/>
<polygon fill="none" stroke="black" points="10.5,-39 10.5,-57 325.5,-57 325.5,-39 10.5,-39"/>
<polygon fill="#ffffff" stroke="transparent" points="11.5,-40 11.5,-56 120.5,-56 120.5,-40 11.5,-40"/>
<text text-anchor="start" x="13.5" y="-45.2" font-family="Helvetica,sans-Serif" font-size="11.00">&lt; 0</text>
<polygon fill="#ffffff" stroke="transparent" points="120.5,-40 120.5,-56 216.5,-56 216.5,-40 120.5,-40"/>
<text text-anchor="start" x="164.5" y="-45.2" font-family="Helvetica,sans-Serif" font-size="11.00"> &#160;</text>
<polygon fill="#ffffff" stroke="transparent" points="216.5,-40 216.5,-56 324.5,-56 324.5,-40 216.5,-40"/>
<text text-anchor="start" x="302.5" y="-45.2" font-family="Helvetica,sans-Serif" font-size="11.00">1 &gt;</text>
<polygon fill="black" stroke="black" points="120.5,-40 120.5,-56 120.5,-56 120.5,-40 120.5,-40"/>
<polygon fill="black" stroke="black" points="216.5,-40 216.5,-56 216.5,-56 216.5,-40 216.5,-40"/>
<polygon fill="none" stroke="black" stroke-width="2" points="9,-38 9,-586 326,-586 326,-38 9,-38"/>
</a>
</g>
</g>
<!-- tww_od.measuring_point&#45;&gt;measuring_point_purpose -->
<g id="edge1" class="edge">
<title>tww_od.measuring_point:w&#45;&gt;measuring_point_purpose:e</title>
<path fill="none" stroke="black" d="M360.99,-552C349.68,-552 342.49,-552 326.5,-552"/>
<polygon fill="black" stroke="black" points="367.5,-552 375.5,-555.6 371.5,-552 375.5,-552 375.5,-552 375.5,-552 371.5,-552 375.5,-548.4 367.5,-552 367.5,-552"/>
<ellipse fill="none" stroke="black" cx="364.3" cy="-552" rx="3.2" ry="3.2"/>
</g>
</g>
</svg>
