<?xml version="1.0" encoding="UTF-8" standalone="no"?>
<!DOCTYPE svg PUBLIC "-//W3C//DTD SVG 1.1//EN"
 "http://www.w3.org/Graphics/SVG/1.1/DTD/svg11.dtd">
<!-- Generated by graphviz version 2.43.0 (0)
 -->
<!-- Title: oneDegreeRelationshipsDiagram Pages: 1 -->
<svg width="633pt" height="599pt"
 viewBox="0.00 0.00 633.00 599.00" xmlns="http://www.w3.org/2000/svg" xmlns:xlink="http://www.w3.org/1999/xlink">
<g id="graph0" class="graph" transform="scale(1 1) rotate(0) translate(4 595)">
<title>oneDegreeRelationshipsDiagram</title>
<polygon fill="#ffffff" stroke="transparent" points="-4,4 -4,-595 629,-595 629,4 -4,4"/>
<text text-anchor="middle" x="79.5" y="-7.2" font-family="Helvetica,sans-Serif" font-size="11.00">Generated by SchemaSpy</text>
<!-- tww_od.organisation -->
<g id="node1" class="node">
<title>tww_od.organisation</title>
<g id="a_node1"><a xlink:href="../../../tww_od/tables/organisation.html" xlink:title="tww_od.organisation" target="_top">
<polygon fill="#ffffff" stroke="transparent" points="418,-483 418,-585 617,-585 617,-483 418,-483"/>
<polygon fill="#f5f5f5" stroke="transparent" points="418.5,-563 418.5,-585 617.5,-585 617.5,-563 418.5,-563"/>
<polygon fill="none" stroke="black" points="418.5,-563 418.5,-585 617.5,-585 617.5,-563 418.5,-563"/>
<text text-anchor="start" x="423.5" y="-572.2" font-family="Helvetica,sans-Serif" font-weight="bold" font-size="11.00">tww_od.organisation</text>
<text text-anchor="start" x="575.5" y="-571.2" font-family="Helvetica,sans-Serif" font-size="11.00">[table]</text>
<polygon fill="none" stroke="black" points="418.5,-541 418.5,-563 617.5,-563 617.5,-541 418.5,-541"/>
<image xlink:href="../../images/foreignKeys.png" width="11px" height="12px" preserveAspectRatio="xMinYMin meet" x="423.5" y="-558"/>
<text text-anchor="start" x="451.5" y="-549.2" font-family="Helvetica,sans-Serif" font-size="11.00">organisation_type</text>
<polygon fill="none" stroke="black" points="418.5,-519 418.5,-541 617.5,-541 617.5,-519 418.5,-519"/>
<image xlink:href="../../images/foreignKeys.png" width="11px" height="12px" preserveAspectRatio="xMinYMin meet" x="423.5" y="-536"/>
<text text-anchor="start" x="451.5" y="-527.2" font-family="Helvetica,sans-Serif" font-size="11.00">status</text>
<polygon fill="none" stroke="black" points="418.5,-501 418.5,-519 617.5,-519 617.5,-501 418.5,-501"/>
<text text-anchor="start" x="421.5" y="-507.2" font-family="Helvetica,sans-Serif" font-size="11.00">...</text>
<polygon fill="#ffffff" stroke="transparent" points="418.5,-483 418.5,-501 617.5,-501 617.5,-483 418.5,-483"/>
<polygon fill="none" stroke="black" points="418.5,-483 418.5,-501 617.5,-501 617.5,-483 418.5,-483"/>
<polygon fill="#ffffff" stroke="transparent" points="419.5,-484 419.5,-500 483.5,-500 483.5,-484 419.5,-484"/>
<text text-anchor="start" x="421.5" y="-489.2" font-family="Helvetica,sans-Serif" font-size="11.00">&lt; 2</text>
<polygon fill="#ffffff" stroke="transparent" points="483.5,-484 483.5,-500 564.5,-500 564.5,-484 483.5,-484"/>
<text text-anchor="start" x="505.5" y="-489.2" font-family="Helvetica,sans-Serif" font-size="11.00">0 rows</text>
<polygon fill="#ffffff" stroke="transparent" points="564.5,-484 564.5,-500 616.5,-500 616.5,-484 564.5,-484"/>
<text text-anchor="start" x="606.5" y="-489.2" font-family="Helvetica,sans-Serif" font-size="11.00"> &#160;</text>
<polygon fill="black" stroke="black" points="483.5,-484 483.5,-500 483.5,-500 483.5,-484 483.5,-484"/>
<polygon fill="black" stroke="black" points="564.5,-484 564.5,-500 564.5,-500 564.5,-484 564.5,-484"/>
</a>
</g>
</g>
<!-- organisation_organisation_type -->
<g id="node2" class="node">
<title>organisation_organisation_type</title>
<g id="a_node2"><a xlink:href="../../tables/organisation_organisation_type.html" xlink:title="organisation_organisation_type" target="_top">
<polygon fill="#ffffff" stroke="transparent" points="8,-37 8,-587 369,-587 369,-37 8,-37"/>
<polygon fill="#f5f5f5" stroke="transparent" points="10.5,-563 10.5,-585 367.5,-585 367.5,-563 10.5,-563"/>
<polygon fill="none" stroke="black" points="10.5,-563 10.5,-585 367.5,-585 367.5,-563 10.5,-563"/>
<text text-anchor="start" x="15.5" y="-572.2" font-family="Helvetica,sans-Serif" font-weight="bold" font-size="11.00">organisation_organisation_type</text>
<text text-anchor="start" x="325.5" y="-571.2" font-family="Helvetica,sans-Serif" font-size="11.00">[table]</text>
<polygon fill="none" stroke="black" points="10.5,-541 10.5,-563 261.5,-563 261.5,-541 10.5,-541"/>
<image xlink:href="../../images/primaryKeys.png" width="11px" height="12px" preserveAspectRatio="xMinYMin meet" x="15.5" y="-558"/>
<text text-anchor="start" x="30.5" y="-549.2" font-family="Helvetica,sans-Serif" font-size="11.00">code</text>
<polygon fill="none" stroke="black" points="261.5,-541 261.5,-563 367.5,-563 367.5,-541 261.5,-541"/>
<text text-anchor="start" x="264.5" y="-549.2" font-family="Helvetica,sans-Serif" font-size="11.00">int4[10]</text>
<polygon fill="none" stroke="black" points="10.5,-519 10.5,-541 261.5,-541 261.5,-519 10.5,-519"/>
<text text-anchor="start" x="30.5" y="-527.2" font-family="Helvetica,sans-Serif" font-size="11.00">vsacode</text>
<polygon fill="none" stroke="black" points="261.5,-519 261.5,-541 367.5,-541 367.5,-519 261.5,-519"/>
<text text-anchor="start" x="264.5" y="-527.2" font-family="Helvetica,sans-Serif" font-size="11.00">int4[10]</text>
<polygon fill="none" stroke="black" points="10.5,-497 10.5,-519 261.5,-519 261.5,-497 10.5,-497"/>
<text text-anchor="start" x="30.5" y="-505.2" font-family="Helvetica,sans-Serif" font-size="11.00">value_en</text>
<polygon fill="none" stroke="black" points="261.5,-497 261.5,-519 367.5,-519 367.5,-497 261.5,-497"/>
<text text-anchor="start" x="264.5" y="-505.2" font-family="Helvetica,sans-Serif" font-size="11.00">varchar[100]</text>
<polygon fill="none" stroke="black" points="10.5,-475 10.5,-497 261.5,-497 261.5,-475 10.5,-475"/>
<text text-anchor="start" x="30.5" y="-483.2" font-family="Helvetica,sans-Serif" font-size="11.00">value_de</text>
<polygon fill="none" stroke="black" points="261.5,-475 261.5,-497 367.5,-497 367.5,-475 261.5,-475"/>
<text text-anchor="start" x="264.5" y="-483.2" font-family="Helvetica,sans-Serif" font-size="11.00">varchar[100]</text>
<polygon fill="none" stroke="black" points="10.5,-453 10.5,-475 261.5,-475 261.5,-453 10.5,-453"/>
<text text-anchor="start" x="30.5" y="-461.2" font-family="Helvetica,sans-Serif" font-size="11.00">value_fr</text>
<polygon fill="none" stroke="black" points="261.5,-453 261.5,-475 367.5,-475 367.5,-453 261.5,-453"/>
<text text-anchor="start" x="264.5" y="-461.2" font-family="Helvetica,sans-Serif" font-size="11.00">varchar[100]</text>
<polygon fill="none" stroke="black" points="10.5,-431 10.5,-453 261.5,-453 261.5,-431 10.5,-431"/>
<text text-anchor="start" x="30.5" y="-439.2" font-family="Helvetica,sans-Serif" font-size="11.00">value_it</text>
<polygon fill="none" stroke="black" points="261.5,-431 261.5,-453 367.5,-453 367.5,-431 261.5,-431"/>
<text text-anchor="start" x="264.5" y="-439.2" font-family="Helvetica,sans-Serif" font-size="11.00">varchar[100]</text>
<polygon fill="none" stroke="black" points="10.5,-409 10.5,-431 261.5,-431 261.5,-409 10.5,-409"/>
<text text-anchor="start" x="30.5" y="-417.2" font-family="Helvetica,sans-Serif" font-size="11.00">value_ro</text>
<polygon fill="none" stroke="black" points="261.5,-409 261.5,-431 367.5,-431 367.5,-409 261.5,-409"/>
<text text-anchor="start" x="264.5" y="-417.2" font-family="Helvetica,sans-Serif" font-size="11.00">varchar[100]</text>
<polygon fill="none" stroke="black" points="10.5,-387 10.5,-409 261.5,-409 261.5,-387 10.5,-387"/>
<text text-anchor="start" x="30.5" y="-395.2" font-family="Helvetica,sans-Serif" font-size="11.00">abbr_en</text>
<polygon fill="none" stroke="black" points="261.5,-387 261.5,-409 367.5,-409 367.5,-387 261.5,-387"/>
<text text-anchor="start" x="264.5" y="-395.2" font-family="Helvetica,sans-Serif" font-size="11.00">varchar[3]</text>
<polygon fill="none" stroke="black" points="10.5,-365 10.5,-387 261.5,-387 261.5,-365 10.5,-365"/>
<text text-anchor="start" x="30.5" y="-373.2" font-family="Helvetica,sans-Serif" font-size="11.00">abbr_de</text>
<polygon fill="none" stroke="black" points="261.5,-365 261.5,-387 367.5,-387 367.5,-365 261.5,-365"/>
<text text-anchor="start" x="264.5" y="-373.2" font-family="Helvetica,sans-Serif" font-size="11.00">varchar[3]</text>
<polygon fill="none" stroke="black" points="10.5,-343 10.5,-365 261.5,-365 261.5,-343 10.5,-343"/>
<text text-anchor="start" x="30.5" y="-351.2" font-family="Helvetica,sans-Serif" font-size="11.00">abbr_fr</text>
<polygon fill="none" stroke="black" points="261.5,-343 261.5,-365 367.5,-365 367.5,-343 261.5,-343"/>
<text text-anchor="start" x="264.5" y="-351.2" font-family="Helvetica,sans-Serif" font-size="11.00">varchar[3]</text>
<polygon fill="none" stroke="black" points="10.5,-321 10.5,-343 261.5,-343 261.5,-321 10.5,-321"/>
<text text-anchor="start" x="30.5" y="-329.2" font-family="Helvetica,sans-Serif" font-size="11.00">abbr_it</text>
<polygon fill="none" stroke="black" points="261.5,-321 261.5,-343 367.5,-343 367.5,-321 261.5,-321"/>
<text text-anchor="start" x="264.5" y="-329.2" font-family="Helvetica,sans-Serif" font-size="11.00">varchar[3]</text>
<polygon fill="none" stroke="black" points="10.5,-299 10.5,-321 261.5,-321 261.5,-299 10.5,-299"/>
<text text-anchor="start" x="30.5" y="-307.2" font-family="Helvetica,sans-Serif" font-size="11.00">abbr_ro</text>
<polygon fill="none" stroke="black" points="261.5,-299 261.5,-321 367.5,-321 367.5,-299 261.5,-299"/>
<text text-anchor="start" x="264.5" y="-307.2" font-family="Helvetica,sans-Serif" font-size="11.00">varchar[3]</text>
<polygon fill="none" stroke="black" points="10.5,-277 10.5,-299 261.5,-299 261.5,-277 10.5,-277"/>
<text text-anchor="start" x="30.5" y="-285.2" font-family="Helvetica,sans-Serif" font-size="11.00">active</text>
<polygon fill="none" stroke="black" points="261.5,-277 261.5,-299 367.5,-299 367.5,-277 261.5,-277"/>
<text text-anchor="start" x="264.5" y="-285.2" font-family="Helvetica,sans-Serif" font-size="11.00">bool[1]</text>
<polygon fill="none" stroke="black" points="10.5,-255 10.5,-277 261.5,-277 261.5,-255 10.5,-255"/>
<text text-anchor="start" x="30.5" y="-263.2" font-family="Helvetica,sans-Serif" font-size="11.00">description_en</text>
<polygon fill="none" stroke="black" points="261.5,-255 261.5,-277 367.5,-277 367.5,-255 261.5,-255"/>
<text text-anchor="start" x="264.5" y="-263.2" font-family="Helvetica,sans-Serif" font-size="11.00">text[2147483647]</text>
<polygon fill="none" stroke="black" points="10.5,-233 10.5,-255 261.5,-255 261.5,-233 10.5,-233"/>
<text text-anchor="start" x="30.5" y="-241.2" font-family="Helvetica,sans-Serif" font-size="11.00">description_de</text>
<polygon fill="none" stroke="black" points="261.5,-233 261.5,-255 367.5,-255 367.5,-233 261.5,-233"/>
<text text-anchor="start" x="264.5" y="-241.2" font-family="Helvetica,sans-Serif" font-size="11.00">text[2147483647]</text>
<polygon fill="none" stroke="black" points="10.5,-211 10.5,-233 261.5,-233 261.5,-211 10.5,-211"/>
<text text-anchor="start" x="30.5" y="-219.2" font-family="Helvetica,sans-Serif" font-size="11.00">description_fr</text>
<polygon fill="none" stroke="black" points="261.5,-211 261.5,-233 367.5,-233 367.5,-211 261.5,-211"/>
<text text-anchor="start" x="264.5" y="-219.2" font-family="Helvetica,sans-Serif" font-size="11.00">text[2147483647]</text>
<polygon fill="none" stroke="black" points="10.5,-189 10.5,-211 261.5,-211 261.5,-189 10.5,-189"/>
<text text-anchor="start" x="30.5" y="-197.2" font-family="Helvetica,sans-Serif" font-size="11.00">description_it</text>
<polygon fill="none" stroke="black" points="261.5,-189 261.5,-211 367.5,-211 367.5,-189 261.5,-189"/>
<text text-anchor="start" x="264.5" y="-197.2" font-family="Helvetica,sans-Serif" font-size="11.00">text[2147483647]</text>
<polygon fill="none" stroke="black" points="10.5,-167 10.5,-189 261.5,-189 261.5,-167 10.5,-167"/>
<text text-anchor="start" x="30.5" y="-175.2" font-family="Helvetica,sans-Serif" font-size="11.00">description_ro</text>
<polygon fill="none" stroke="black" points="261.5,-167 261.5,-189 367.5,-189 367.5,-167 261.5,-167"/>
<text text-anchor="start" x="264.5" y="-175.2" font-family="Helvetica,sans-Serif" font-size="11.00">text[2147483647]</text>
<polygon fill="none" stroke="black" points="10.5,-145 10.5,-167 261.5,-167 261.5,-145 10.5,-145"/>
<text text-anchor="start" x="30.5" y="-153.2" font-family="Helvetica,sans-Serif" font-size="11.00">display_en</text>
<polygon fill="none" stroke="black" points="261.5,-145 261.5,-167 367.5,-167 367.5,-145 261.5,-145"/>
<text text-anchor="start" x="264.5" y="-153.2" font-family="Helvetica,sans-Serif" font-size="11.00">varchar[100]</text>
<polygon fill="none" stroke="black" points="10.5,-123 10.5,-145 261.5,-145 261.5,-123 10.5,-123"/>
<text text-anchor="start" x="30.5" y="-131.2" font-family="Helvetica,sans-Serif" font-size="11.00">display_de</text>
<polygon fill="none" stroke="black" points="261.5,-123 261.5,-145 367.5,-145 367.5,-123 261.5,-123"/>
<text text-anchor="start" x="264.5" y="-131.2" font-family="Helvetica,sans-Serif" font-size="11.00">varchar[100]</text>
<polygon fill="none" stroke="black" points="10.5,-101 10.5,-123 261.5,-123 261.5,-101 10.5,-101"/>
<text text-anchor="start" x="30.5" y="-109.2" font-family="Helvetica,sans-Serif" font-size="11.00">display_fr</text>
<polygon fill="none" stroke="black" points="261.5,-101 261.5,-123 367.5,-123 367.5,-101 261.5,-101"/>
<text text-anchor="start" x="264.5" y="-109.2" font-family="Helvetica,sans-Serif" font-size="11.00">varchar[100]</text>
<polygon fill="none" stroke="black" points="10.5,-79 10.5,-101 261.5,-101 261.5,-79 10.5,-79"/>
<text text-anchor="start" x="30.5" y="-87.2" font-family="Helvetica,sans-Serif" font-size="11.00">display_it</text>
<polygon fill="none" stroke="black" points="261.5,-79 261.5,-101 367.5,-101 367.5,-79 261.5,-79"/>
<text text-anchor="start" x="264.5" y="-87.2" font-family="Helvetica,sans-Serif" font-size="11.00">varchar[100]</text>
<polygon fill="none" stroke="black" points="10.5,-57 10.5,-79 261.5,-79 261.5,-57 10.5,-57"/>
<text text-anchor="start" x="30.5" y="-65.2" font-family="Helvetica,sans-Serif" font-size="11.00">display_ro</text>
<polygon fill="none" stroke="black" points="261.5,-57 261.5,-79 367.5,-79 367.5,-57 261.5,-57"/>
<text text-anchor="start" x="264.5" y="-65.2" font-family="Helvetica,sans-Serif" font-size="11.00">varchar[100]</text>
<polygon fill="#ffffff" stroke="transparent" points="10.5,-39 10.5,-57 367.5,-57 367.5,-39 10.5,-39"/>
<polygon fill="none" stroke="black" points="10.5,-39 10.5,-57 367.5,-57 367.5,-39 10.5,-39"/>
<polygon fill="#ffffff" stroke="transparent" points="11.5,-40 11.5,-56 134.5,-56 134.5,-40 11.5,-40"/>
<text text-anchor="start" x="13.5" y="-45.2" font-family="Helvetica,sans-Serif" font-size="11.00">&lt; 0</text>
<polygon fill="#ffffff" stroke="transparent" points="134.5,-40 134.5,-56 244.5,-56 244.5,-40 134.5,-40"/>
<text text-anchor="start" x="185.5" y="-45.2" font-family="Helvetica,sans-Serif" font-size="11.00"> &#160;</text>
<polygon fill="#ffffff" stroke="transparent" points="244.5,-40 244.5,-56 366.5,-56 366.5,-40 244.5,-40"/>
<text text-anchor="start" x="344.5" y="-45.2" font-family="Helvetica,sans-Serif" font-size="11.00">1 &gt;</text>
<polygon fill="black" stroke="black" points="134.5,-40 134.5,-56 134.5,-56 134.5,-40 134.5,-40"/>
<polygon fill="black" stroke="black" points="244.5,-40 244.5,-56 244.5,-56 244.5,-40 244.5,-40"/>
<polygon fill="none" stroke="black" stroke-width="2" points="9,-38 9,-586 368,-586 368,-38 9,-38"/>
</a>
</g>
</g>
<!-- tww_od.organisation&#45;&gt;organisation_organisation_type -->
<g id="edge1" class="edge">
<title>tww_od.organisation:w&#45;&gt;organisation_organisation_type:e</title>
<path fill="none" stroke="black" d="M402.99,-552C391.68,-552 384.49,-552 368.5,-552"/>
<polygon fill="black" stroke="black" points="409.5,-552 417.5,-555.6 413.5,-552 417.5,-552 417.5,-552 417.5,-552 413.5,-552 417.5,-548.4 409.5,-552 409.5,-552"/>
<ellipse fill="none" stroke="black" cx="406.3" cy="-552" rx="3.2" ry="3.2"/>
</g>
</g>
</svg>
