<?xml version="1.0" encoding="UTF-8" standalone="no"?>
<!DOCTYPE svg PUBLIC "-//W3C//DTD SVG 1.1//EN"
 "http://www.w3.org/Graphics/SVG/1.1/DTD/svg11.dtd">
<!-- Generated by graphviz version 2.43.0 (0)
 -->
<!-- Title: oneDegreeRelationshipsDiagram Pages: 1 -->
<svg width="637pt" height="751pt"
 viewBox="0.00 0.00 637.00 751.00" xmlns="http://www.w3.org/2000/svg" xmlns:xlink="http://www.w3.org/1999/xlink">
<g id="graph0" class="graph" transform="scale(1 1) rotate(0) translate(4 747)">
<title>oneDegreeRelationshipsDiagram</title>
<polygon fill="#ffffff" stroke="transparent" points="-4,4 -4,-747 633,-747 633,4 -4,4"/>
<text text-anchor="middle" x="79.5" y="-7.2" font-family="Helvetica,sans-Serif" font-size="11.00">Generated by SchemaSpy</text>
<!-- tww_od.reach -->
<g id="node1" class="node">
<title>tww_od.reach</title>
<g id="a_node1"><a xlink:href="../../../tww_od/tables/reach.html" xlink:title="tww_od.reach" target="_top">
<polygon fill="#ffffff" stroke="transparent" points="330,-505 330,-739 621,-739 621,-505 330,-505"/>
<polygon fill="#f5f5f5" stroke="transparent" points="330.5,-717 330.5,-739 621.5,-739 621.5,-717 330.5,-717"/>
<polygon fill="none" stroke="black" points="330.5,-717 330.5,-739 621.5,-739 621.5,-717 330.5,-717"/>
<text text-anchor="start" x="335.5" y="-726.2" font-family="Helvetica,sans-Serif" font-weight="bold" font-size="11.00">tww_od.reach</text>
<text text-anchor="start" x="579.5" y="-725.2" font-family="Helvetica,sans-Serif" font-size="11.00">[table]</text>
<polygon fill="none" stroke="black" points="330.5,-695 330.5,-717 621.5,-717 621.5,-695 330.5,-695"/>
<image xlink:href="../../images/foreignKeys.png" width="11px" height="12px" preserveAspectRatio="xMinYMin meet" x="335.5" y="-712"/>
<text text-anchor="start" x="350.5" y="-703.2" font-family="Helvetica,sans-Serif" font-size="11.00">elevation_determination</text>
<polygon fill="none" stroke="black" points="330.5,-673 330.5,-695 621.5,-695 621.5,-673 330.5,-673"/>
<image xlink:href="../../images/foreignKeys.png" width="11px" height="12px" preserveAspectRatio="xMinYMin meet" x="335.5" y="-690"/>
<text text-anchor="start" x="350.5" y="-681.2" font-family="Helvetica,sans-Serif" font-size="11.00">horizontal_positioning</text>
<polygon fill="none" stroke="black" points="330.5,-651 330.5,-673 621.5,-673 621.5,-651 330.5,-651"/>
<image xlink:href="../../images/foreignKeys.png" width="11px" height="12px" preserveAspectRatio="xMinYMin meet" x="335.5" y="-668"/>
<text text-anchor="start" x="350.5" y="-659.2" font-family="Helvetica,sans-Serif" font-size="11.00">inside_coating</text>
<polygon fill="none" stroke="black" points="330.5,-629 330.5,-651 621.5,-651 621.5,-629 330.5,-629"/>
<image xlink:href="../../images/foreignKeys.png" width="11px" height="12px" preserveAspectRatio="xMinYMin meet" x="335.5" y="-646"/>
<text text-anchor="start" x="350.5" y="-637.2" font-family="Helvetica,sans-Serif" font-size="11.00">leak_protection</text>
<polygon fill="none" stroke="black" points="330.5,-607 330.5,-629 621.5,-629 621.5,-607 330.5,-607"/>
<image xlink:href="../../images/foreignKeys.png" width="11px" height="12px" preserveAspectRatio="xMinYMin meet" x="335.5" y="-624"/>
<text text-anchor="start" x="350.5" y="-615.2" font-family="Helvetica,sans-Serif" font-size="11.00">material</text>
<polygon fill="none" stroke="black" points="330.5,-585 330.5,-607 621.5,-607 621.5,-585 330.5,-585"/>
<image xlink:href="../../images/foreignKeys.png" width="11px" height="12px" preserveAspectRatio="xMinYMin meet" x="335.5" y="-602"/>
<text text-anchor="start" x="350.5" y="-593.2" font-family="Helvetica,sans-Serif" font-size="11.00">reliner_material</text>
<polygon fill="none" stroke="black" points="330.5,-563 330.5,-585 621.5,-585 621.5,-563 330.5,-563"/>
<image xlink:href="../../images/foreignKeys.png" width="11px" height="12px" preserveAspectRatio="xMinYMin meet" x="335.5" y="-580"/>
<text text-anchor="start" x="350.5" y="-571.2" font-family="Helvetica,sans-Serif" font-size="11.00">relining_construction</text>
<polygon fill="none" stroke="black" points="330.5,-541 330.5,-563 621.5,-563 621.5,-541 330.5,-541"/>
<image xlink:href="../../images/foreignKeys.png" width="11px" height="12px" preserveAspectRatio="xMinYMin meet" x="335.5" y="-558"/>
<text text-anchor="start" x="350.5" y="-549.2" font-family="Helvetica,sans-Serif" font-size="11.00">relining_kind</text>
<polygon fill="none" stroke="black" points="330.5,-523 330.5,-541 621.5,-541 621.5,-523 330.5,-523"/>
<text text-anchor="start" x="333.5" y="-529.2" font-family="Helvetica,sans-Serif" font-size="11.00">...</text>
<polygon fill="#ffffff" stroke="transparent" points="330.5,-505 330.5,-523 621.5,-523 621.5,-505 330.5,-505"/>
<polygon fill="none" stroke="black" points="330.5,-505 330.5,-523 621.5,-523 621.5,-505 330.5,-505"/>
<polygon fill="#ffffff" stroke="transparent" points="331.5,-506 331.5,-522 426.5,-522 426.5,-506 331.5,-506"/>
<text text-anchor="start" x="333.5" y="-511.2" font-family="Helvetica,sans-Serif" font-size="11.00">&lt; 8</text>
<polygon fill="#ffffff" stroke="transparent" points="426.5,-506 426.5,-522 538.5,-522 538.5,-506 426.5,-506"/>
<text text-anchor="start" x="464" y="-511.2" font-family="Helvetica,sans-Serif" font-size="11.00">0 rows</text>
<polygon fill="#ffffff" stroke="transparent" points="538.5,-506 538.5,-522 620.5,-522 620.5,-506 538.5,-506"/>
<text text-anchor="start" x="610.5" y="-511.2" font-family="Helvetica,sans-Serif" font-size="11.00"> &#160;</text>
<polygon fill="black" stroke="black" points="426.5,-506 426.5,-522 426.5,-522 426.5,-506 426.5,-506"/>
<polygon fill="black" stroke="black" points="538.5,-506 538.5,-522 538.5,-522 538.5,-506 538.5,-506"/>
</a>
</g>
</g>
<!-- reach_relining_kind -->
<g id="node2" class="node">
<title>reach_relining_kind</title>
<g id="a_node2"><a xlink:href="../../tables/reach_relining_kind.html" xlink:title="reach_relining_kind" target="_top">
<polygon fill="#ffffff" stroke="transparent" points="8,-37 8,-587 281,-587 281,-37 8,-37"/>
<polygon fill="#f5f5f5" stroke="transparent" points="10.5,-563 10.5,-585 279.5,-585 279.5,-563 10.5,-563"/>
<polygon fill="none" stroke="black" points="10.5,-563 10.5,-585 279.5,-585 279.5,-563 10.5,-563"/>
<text text-anchor="start" x="15.5" y="-572.2" font-family="Helvetica,sans-Serif" font-weight="bold" font-size="11.00">reach_relining_kind</text>
<text text-anchor="start" x="237.5" y="-571.2" font-family="Helvetica,sans-Serif" font-size="11.00">[table]</text>
<polygon fill="none" stroke="black" points="10.5,-541 10.5,-563 173.5,-563 173.5,-541 10.5,-541"/>
<image xlink:href="../../images/primaryKeys.png" width="11px" height="12px" preserveAspectRatio="xMinYMin meet" x="15.5" y="-558"/>
<text text-anchor="start" x="30.5" y="-549.2" font-family="Helvetica,sans-Serif" font-size="11.00">code</text>
<polygon fill="none" stroke="black" points="173.5,-541 173.5,-563 279.5,-563 279.5,-541 173.5,-541"/>
<text text-anchor="start" x="176.5" y="-549.2" font-family="Helvetica,sans-Serif" font-size="11.00">int4[10]</text>
<polygon fill="none" stroke="black" points="10.5,-519 10.5,-541 173.5,-541 173.5,-519 10.5,-519"/>
<text text-anchor="start" x="30.5" y="-527.2" font-family="Helvetica,sans-Serif" font-size="11.00">vsacode</text>
<polygon fill="none" stroke="black" points="173.5,-519 173.5,-541 279.5,-541 279.5,-519 173.5,-519"/>
<text text-anchor="start" x="176.5" y="-527.2" font-family="Helvetica,sans-Serif" font-size="11.00">int4[10]</text>
<polygon fill="none" stroke="black" points="10.5,-497 10.5,-519 173.5,-519 173.5,-497 10.5,-497"/>
<text text-anchor="start" x="30.5" y="-505.2" font-family="Helvetica,sans-Serif" font-size="11.00">value_en</text>
<polygon fill="none" stroke="black" points="173.5,-497 173.5,-519 279.5,-519 279.5,-497 173.5,-497"/>
<text text-anchor="start" x="176.5" y="-505.2" font-family="Helvetica,sans-Serif" font-size="11.00">varchar[100]</text>
<polygon fill="none" stroke="black" points="10.5,-475 10.5,-497 173.5,-497 173.5,-475 10.5,-475"/>
<text text-anchor="start" x="30.5" y="-483.2" font-family="Helvetica,sans-Serif" font-size="11.00">value_de</text>
<polygon fill="none" stroke="black" points="173.5,-475 173.5,-497 279.5,-497 279.5,-475 173.5,-475"/>
<text text-anchor="start" x="176.5" y="-483.2" font-family="Helvetica,sans-Serif" font-size="11.00">varchar[100]</text>
<polygon fill="none" stroke="black" points="10.5,-453 10.5,-475 173.5,-475 173.5,-453 10.5,-453"/>
<text text-anchor="start" x="30.5" y="-461.2" font-family="Helvetica,sans-Serif" font-size="11.00">value_fr</text>
<polygon fill="none" stroke="black" points="173.5,-453 173.5,-475 279.5,-475 279.5,-453 173.5,-453"/>
<text text-anchor="start" x="176.5" y="-461.2" font-family="Helvetica,sans-Serif" font-size="11.00">varchar[100]</text>
<polygon fill="none" stroke="black" points="10.5,-431 10.5,-453 173.5,-453 173.5,-431 10.5,-431"/>
<text text-anchor="start" x="30.5" y="-439.2" font-family="Helvetica,sans-Serif" font-size="11.00">value_it</text>
<polygon fill="none" stroke="black" points="173.5,-431 173.5,-453 279.5,-453 279.5,-431 173.5,-431"/>
<text text-anchor="start" x="176.5" y="-439.2" font-family="Helvetica,sans-Serif" font-size="11.00">varchar[100]</text>
<polygon fill="none" stroke="black" points="10.5,-409 10.5,-431 173.5,-431 173.5,-409 10.5,-409"/>
<text text-anchor="start" x="30.5" y="-417.2" font-family="Helvetica,sans-Serif" font-size="11.00">value_ro</text>
<polygon fill="none" stroke="black" points="173.5,-409 173.5,-431 279.5,-431 279.5,-409 173.5,-409"/>
<text text-anchor="start" x="176.5" y="-417.2" font-family="Helvetica,sans-Serif" font-size="11.00">varchar[100]</text>
<polygon fill="none" stroke="black" points="10.5,-387 10.5,-409 173.5,-409 173.5,-387 10.5,-387"/>
<text text-anchor="start" x="30.5" y="-395.2" font-family="Helvetica,sans-Serif" font-size="11.00">abbr_en</text>
<polygon fill="none" stroke="black" points="173.5,-387 173.5,-409 279.5,-409 279.5,-387 173.5,-387"/>
<text text-anchor="start" x="176.5" y="-395.2" font-family="Helvetica,sans-Serif" font-size="11.00">varchar[3]</text>
<polygon fill="none" stroke="black" points="10.5,-365 10.5,-387 173.5,-387 173.5,-365 10.5,-365"/>
<text text-anchor="start" x="30.5" y="-373.2" font-family="Helvetica,sans-Serif" font-size="11.00">abbr_de</text>
<polygon fill="none" stroke="black" points="173.5,-365 173.5,-387 279.5,-387 279.5,-365 173.5,-365"/>
<text text-anchor="start" x="176.5" y="-373.2" font-family="Helvetica,sans-Serif" font-size="11.00">varchar[3]</text>
<polygon fill="none" stroke="black" points="10.5,-343 10.5,-365 173.5,-365 173.5,-343 10.5,-343"/>
<text text-anchor="start" x="30.5" y="-351.2" font-family="Helvetica,sans-Serif" font-size="11.00">abbr_fr</text>
<polygon fill="none" stroke="black" points="173.5,-343 173.5,-365 279.5,-365 279.5,-343 173.5,-343"/>
<text text-anchor="start" x="176.5" y="-351.2" font-family="Helvetica,sans-Serif" font-size="11.00">varchar[3]</text>
<polygon fill="none" stroke="black" points="10.5,-321 10.5,-343 173.5,-343 173.5,-321 10.5,-321"/>
<text text-anchor="start" x="30.5" y="-329.2" font-family="Helvetica,sans-Serif" font-size="11.00">abbr_it</text>
<polygon fill="none" stroke="black" points="173.5,-321 173.5,-343 279.5,-343 279.5,-321 173.5,-321"/>
<text text-anchor="start" x="176.5" y="-329.2" font-family="Helvetica,sans-Serif" font-size="11.00">varchar[3]</text>
<polygon fill="none" stroke="black" points="10.5,-299 10.5,-321 173.5,-321 173.5,-299 10.5,-299"/>
<text text-anchor="start" x="30.5" y="-307.2" font-family="Helvetica,sans-Serif" font-size="11.00">abbr_ro</text>
<polygon fill="none" stroke="black" points="173.5,-299 173.5,-321 279.5,-321 279.5,-299 173.5,-299"/>
<text text-anchor="start" x="176.5" y="-307.2" font-family="Helvetica,sans-Serif" font-size="11.00">varchar[3]</text>
<polygon fill="none" stroke="black" points="10.5,-277 10.5,-299 173.5,-299 173.5,-277 10.5,-277"/>
<text text-anchor="start" x="30.5" y="-285.2" font-family="Helvetica,sans-Serif" font-size="11.00">active</text>
<polygon fill="none" stroke="black" points="173.5,-277 173.5,-299 279.5,-299 279.5,-277 173.5,-277"/>
<text text-anchor="start" x="176.5" y="-285.2" font-family="Helvetica,sans-Serif" font-size="11.00">bool[1]</text>
<polygon fill="none" stroke="black" points="10.5,-255 10.5,-277 173.5,-277 173.5,-255 10.5,-255"/>
<text text-anchor="start" x="30.5" y="-263.2" font-family="Helvetica,sans-Serif" font-size="11.00">description_en</text>
<polygon fill="none" stroke="black" points="173.5,-255 173.5,-277 279.5,-277 279.5,-255 173.5,-255"/>
<text text-anchor="start" x="176.5" y="-263.2" font-family="Helvetica,sans-Serif" font-size="11.00">text[2147483647]</text>
<polygon fill="none" stroke="black" points="10.5,-233 10.5,-255 173.5,-255 173.5,-233 10.5,-233"/>
<text text-anchor="start" x="30.5" y="-241.2" font-family="Helvetica,sans-Serif" font-size="11.00">description_de</text>
<polygon fill="none" stroke="black" points="173.5,-233 173.5,-255 279.5,-255 279.5,-233 173.5,-233"/>
<text text-anchor="start" x="176.5" y="-241.2" font-family="Helvetica,sans-Serif" font-size="11.00">text[2147483647]</text>
<polygon fill="none" stroke="black" points="10.5,-211 10.5,-233 173.5,-233 173.5,-211 10.5,-211"/>
<text text-anchor="start" x="30.5" y="-219.2" font-family="Helvetica,sans-Serif" font-size="11.00">description_fr</text>
<polygon fill="none" stroke="black" points="173.5,-211 173.5,-233 279.5,-233 279.5,-211 173.5,-211"/>
<text text-anchor="start" x="176.5" y="-219.2" font-family="Helvetica,sans-Serif" font-size="11.00">text[2147483647]</text>
<polygon fill="none" stroke="black" points="10.5,-189 10.5,-211 173.5,-211 173.5,-189 10.5,-189"/>
<text text-anchor="start" x="30.5" y="-197.2" font-family="Helvetica,sans-Serif" font-size="11.00">description_it</text>
<polygon fill="none" stroke="black" points="173.5,-189 173.5,-211 279.5,-211 279.5,-189 173.5,-189"/>
<text text-anchor="start" x="176.5" y="-197.2" font-family="Helvetica,sans-Serif" font-size="11.00">text[2147483647]</text>
<polygon fill="none" stroke="black" points="10.5,-167 10.5,-189 173.5,-189 173.5,-167 10.5,-167"/>
<text text-anchor="start" x="30.5" y="-175.2" font-family="Helvetica,sans-Serif" font-size="11.00">description_ro</text>
<polygon fill="none" stroke="black" points="173.5,-167 173.5,-189 279.5,-189 279.5,-167 173.5,-167"/>
<text text-anchor="start" x="176.5" y="-175.2" font-family="Helvetica,sans-Serif" font-size="11.00">text[2147483647]</text>
<polygon fill="none" stroke="black" points="10.5,-145 10.5,-167 173.5,-167 173.5,-145 10.5,-145"/>
<text text-anchor="start" x="30.5" y="-153.2" font-family="Helvetica,sans-Serif" font-size="11.00">display_en</text>
<polygon fill="none" stroke="black" points="173.5,-145 173.5,-167 279.5,-167 279.5,-145 173.5,-145"/>
<text text-anchor="start" x="176.5" y="-153.2" font-family="Helvetica,sans-Serif" font-size="11.00">varchar[100]</text>
<polygon fill="none" stroke="black" points="10.5,-123 10.5,-145 173.5,-145 173.5,-123 10.5,-123"/>
<text text-anchor="start" x="30.5" y="-131.2" font-family="Helvetica,sans-Serif" font-size="11.00">display_de</text>
<polygon fill="none" stroke="black" points="173.5,-123 173.5,-145 279.5,-145 279.5,-123 173.5,-123"/>
<text text-anchor="start" x="176.5" y="-131.2" font-family="Helvetica,sans-Serif" font-size="11.00">varchar[100]</text>
<polygon fill="none" stroke="black" points="10.5,-101 10.5,-123 173.5,-123 173.5,-101 10.5,-101"/>
<text text-anchor="start" x="30.5" y="-109.2" font-family="Helvetica,sans-Serif" font-size="11.00">display_fr</text>
<polygon fill="none" stroke="black" points="173.5,-101 173.5,-123 279.5,-123 279.5,-101 173.5,-101"/>
<text text-anchor="start" x="176.5" y="-109.2" font-family="Helvetica,sans-Serif" font-size="11.00">varchar[100]</text>
<polygon fill="none" stroke="black" points="10.5,-79 10.5,-101 173.5,-101 173.5,-79 10.5,-79"/>
<text text-anchor="start" x="30.5" y="-87.2" font-family="Helvetica,sans-Serif" font-size="11.00">display_it</text>
<polygon fill="none" stroke="black" points="173.5,-79 173.5,-101 279.5,-101 279.5,-79 173.5,-79"/>
<text text-anchor="start" x="176.5" y="-87.2" font-family="Helvetica,sans-Serif" font-size="11.00">varchar[100]</text>
<polygon fill="none" stroke="black" points="10.5,-57 10.5,-79 173.5,-79 173.5,-57 10.5,-57"/>
<text text-anchor="start" x="30.5" y="-65.2" font-family="Helvetica,sans-Serif" font-size="11.00">display_ro</text>
<polygon fill="none" stroke="black" points="173.5,-57 173.5,-79 279.5,-79 279.5,-57 173.5,-57"/>
<text text-anchor="start" x="176.5" y="-65.2" font-family="Helvetica,sans-Serif" font-size="11.00">varchar[100]</text>
<polygon fill="#ffffff" stroke="transparent" points="10.5,-39 10.5,-57 279.5,-57 279.5,-39 10.5,-39"/>
<polygon fill="none" stroke="black" points="10.5,-39 10.5,-57 279.5,-57 279.5,-39 10.5,-39"/>
<polygon fill="#ffffff" stroke="transparent" points="11.5,-40 11.5,-56 104.5,-56 104.5,-40 11.5,-40"/>
<text text-anchor="start" x="13.5" y="-45.2" font-family="Helvetica,sans-Serif" font-size="11.00">&lt; 0</text>
<polygon fill="#ffffff" stroke="transparent" points="104.5,-40 104.5,-56 185.5,-56 185.5,-40 104.5,-40"/>
<text text-anchor="start" x="141" y="-45.2" font-family="Helvetica,sans-Serif" font-size="11.00"> &#160;</text>
<polygon fill="#ffffff" stroke="transparent" points="185.5,-40 185.5,-56 278.5,-56 278.5,-40 185.5,-40"/>
<text text-anchor="start" x="256.5" y="-45.2" font-family="Helvetica,sans-Serif" font-size="11.00">1 &gt;</text>
<polygon fill="black" stroke="black" points="104.5,-40 104.5,-56 104.5,-56 104.5,-40 104.5,-40"/>
<polygon fill="black" stroke="black" points="185.5,-40 185.5,-56 185.5,-56 185.5,-40 185.5,-40"/>
<polygon fill="none" stroke="black" stroke-width="2" points="9,-38 9,-586 280,-586 280,-38 9,-38"/>
</a>
</g>
</g>
<!-- tww_od.reach&#45;&gt;reach_relining_kind -->
<g id="edge1" class="edge">
<title>tww_od.reach:w&#45;&gt;reach_relining_kind:e</title>
<path fill="none" stroke="black" d="M314.99,-552C303.68,-552 296.49,-552 280.5,-552"/>
<polygon fill="black" stroke="black" points="321.5,-552 329.5,-555.6 325.5,-552 329.5,-552 329.5,-552 329.5,-552 325.5,-552 329.5,-548.4 321.5,-552 321.5,-552"/>
<ellipse fill="none" stroke="black" cx="318.3" cy="-552" rx="3.2" ry="3.2"/>
</g>
</g>
</svg>
