<?xml version="1.0" encoding="UTF-8" standalone="no"?>
<!DOCTYPE svg PUBLIC "-//W3C//DTD SVG 1.1//EN"
 "http://www.w3.org/Graphics/SVG/1.1/DTD/svg11.dtd">
<!-- Generated by graphviz version 2.43.0 (0)
 -->
<!-- Title: oneDegreeRelationshipsDiagram Pages: 1 -->
<svg width="644pt" height="619pt"
 viewBox="0.00 0.00 644.00 619.00" xmlns="http://www.w3.org/2000/svg" xmlns:xlink="http://www.w3.org/1999/xlink">
<g id="graph0" class="graph" transform="scale(1 1) rotate(0) translate(4 615)">
<title>oneDegreeRelationshipsDiagram</title>
<polygon fill="#ffffff" stroke="transparent" points="-4,4 -4,-615 640,-615 640,4 -4,4"/>
<text text-anchor="middle" x="79.5" y="-7.2" font-family="Helvetica,sans-Serif" font-size="11.00">Generated by SchemaSpy</text>
<!-- tww_od.reach_point -->
<g id="node1" class="node">
<title>tww_od.reach_point</title>
<g id="a_node1"><a xlink:href="../../../tww_od/tables/reach_point.html" xlink:title="tww_od.reach_point" target="_top">
<polygon fill="#ffffff" stroke="transparent" points="374,-483 374,-607 628,-607 628,-483 374,-483"/>
<polygon fill="#f5f5f5" stroke="transparent" points="374,-585 374,-607 628,-607 628,-585 374,-585"/>
<polygon fill="none" stroke="black" points="374,-585 374,-607 628,-607 628,-585 374,-585"/>
<text text-anchor="start" x="379" y="-594.2" font-family="Helvetica,sans-Serif" font-weight="bold" font-size="11.00">tww_od.reach_point</text>
<text text-anchor="start" x="586" y="-593.2" font-family="Helvetica,sans-Serif" font-size="11.00">[table]</text>
<polygon fill="none" stroke="black" points="374,-563 374,-585 628,-585 628,-563 374,-563"/>
<image xlink:href="../../images/foreignKeys.png" width="11px" height="12px" preserveAspectRatio="xMinYMin meet" x="379" y="-580"/>
<text text-anchor="start" x="394" y="-571.2" font-family="Helvetica,sans-Serif" font-size="11.00">elevation_accuracy</text>
<polygon fill="none" stroke="black" points="374,-541 374,-563 628,-563 628,-541 374,-541"/>
<image xlink:href="../../images/foreignKeys.png" width="11px" height="12px" preserveAspectRatio="xMinYMin meet" x="379" y="-558"/>
<text text-anchor="start" x="394" y="-549.2" font-family="Helvetica,sans-Serif" font-size="11.00">outlet_shape</text>
<polygon fill="none" stroke="black" points="374,-519 374,-541 628,-541 628,-519 374,-519"/>
<image xlink:href="../../images/foreignKeys.png" width="11px" height="12px" preserveAspectRatio="xMinYMin meet" x="379" y="-536"/>
<text text-anchor="start" x="394" y="-527.2" font-family="Helvetica,sans-Serif" font-size="11.00">pipe_closure</text>
<polygon fill="none" stroke="black" points="374,-501 374,-519 628,-519 628,-501 374,-501"/>
<text text-anchor="start" x="377" y="-507.2" font-family="Helvetica,sans-Serif" font-size="11.00">...</text>
<polygon fill="#ffffff" stroke="transparent" points="374,-483 374,-501 628,-501 628,-483 374,-483"/>
<polygon fill="none" stroke="black" points="374,-483 374,-501 628,-501 628,-483 374,-483"/>
<polygon fill="#ffffff" stroke="transparent" points="375,-484 375,-500 458,-500 458,-484 375,-484"/>
<text text-anchor="start" x="377" y="-489.2" font-family="Helvetica,sans-Serif" font-size="11.00">&lt; 3</text>
<polygon fill="#ffffff" stroke="transparent" points="458,-484 458,-500 557,-500 557,-484 458,-484"/>
<text text-anchor="start" x="489" y="-489.2" font-family="Helvetica,sans-Serif" font-size="11.00">0 rows</text>
<polygon fill="#ffffff" stroke="transparent" points="557,-484 557,-500 627,-500 627,-484 557,-484"/>
<text text-anchor="start" x="617" y="-489.2" font-family="Helvetica,sans-Serif" font-size="11.00"> &#160;</text>
<polygon fill="black" stroke="black" points="458,-484 458,-500 458,-500 458,-484 458,-484"/>
<polygon fill="black" stroke="black" points="557,-484 557,-500 557,-500 557,-484 557,-484"/>
</a>
</g>
</g>
<!-- reach_point_outlet_shape -->
<g id="node2" class="node">
<title>reach_point_outlet_shape</title>
<g id="a_node2"><a xlink:href="../../tables/reach_point_outlet_shape.html" xlink:title="reach_point_outlet_shape" target="_top">
<polygon fill="#ffffff" stroke="transparent" points="8,-37 8,-587 325,-587 325,-37 8,-37"/>
<polygon fill="#f5f5f5" stroke="transparent" points="10.5,-563 10.5,-585 323.5,-585 323.5,-563 10.5,-563"/>
<polygon fill="none" stroke="black" points="10.5,-563 10.5,-585 323.5,-585 323.5,-563 10.5,-563"/>
<text text-anchor="start" x="15.5" y="-572.2" font-family="Helvetica,sans-Serif" font-weight="bold" font-size="11.00">reach_point_outlet_shape</text>
<text text-anchor="start" x="281.5" y="-571.2" font-family="Helvetica,sans-Serif" font-size="11.00">[table]</text>
<polygon fill="none" stroke="black" points="10.5,-541 10.5,-563 217.5,-563 217.5,-541 10.5,-541"/>
<image xlink:href="../../images/primaryKeys.png" width="11px" height="12px" preserveAspectRatio="xMinYMin meet" x="15.5" y="-558"/>
<text text-anchor="start" x="30.5" y="-549.2" font-family="Helvetica,sans-Serif" font-size="11.00">code</text>
<polygon fill="none" stroke="black" points="217.5,-541 217.5,-563 323.5,-563 323.5,-541 217.5,-541"/>
<text text-anchor="start" x="220.5" y="-549.2" font-family="Helvetica,sans-Serif" font-size="11.00">int4[10]</text>
<polygon fill="none" stroke="black" points="10.5,-519 10.5,-541 217.5,-541 217.5,-519 10.5,-519"/>
<text text-anchor="start" x="30.5" y="-527.2" font-family="Helvetica,sans-Serif" font-size="11.00">vsacode</text>
<polygon fill="none" stroke="black" points="217.5,-519 217.5,-541 323.5,-541 323.5,-519 217.5,-519"/>
<text text-anchor="start" x="220.5" y="-527.2" font-family="Helvetica,sans-Serif" font-size="11.00">int4[10]</text>
<polygon fill="none" stroke="black" points="10.5,-497 10.5,-519 217.5,-519 217.5,-497 10.5,-497"/>
<text text-anchor="start" x="30.5" y="-505.2" font-family="Helvetica,sans-Serif" font-size="11.00">value_en</text>
<polygon fill="none" stroke="black" points="217.5,-497 217.5,-519 323.5,-519 323.5,-497 217.5,-497"/>
<text text-anchor="start" x="220.5" y="-505.2" font-family="Helvetica,sans-Serif" font-size="11.00">varchar[100]</text>
<polygon fill="none" stroke="black" points="10.5,-475 10.5,-497 217.5,-497 217.5,-475 10.5,-475"/>
<text text-anchor="start" x="30.5" y="-483.2" font-family="Helvetica,sans-Serif" font-size="11.00">value_de</text>
<polygon fill="none" stroke="black" points="217.5,-475 217.5,-497 323.5,-497 323.5,-475 217.5,-475"/>
<text text-anchor="start" x="220.5" y="-483.2" font-family="Helvetica,sans-Serif" font-size="11.00">varchar[100]</text>
<polygon fill="none" stroke="black" points="10.5,-453 10.5,-475 217.5,-475 217.5,-453 10.5,-453"/>
<text text-anchor="start" x="30.5" y="-461.2" font-family="Helvetica,sans-Serif" font-size="11.00">value_fr</text>
<polygon fill="none" stroke="black" points="217.5,-453 217.5,-475 323.5,-475 323.5,-453 217.5,-453"/>
<text text-anchor="start" x="220.5" y="-461.2" font-family="Helvetica,sans-Serif" font-size="11.00">varchar[100]</text>
<polygon fill="none" stroke="black" points="10.5,-431 10.5,-453 217.5,-453 217.5,-431 10.5,-431"/>
<text text-anchor="start" x="30.5" y="-439.2" font-family="Helvetica,sans-Serif" font-size="11.00">value_it</text>
<polygon fill="none" stroke="black" points="217.5,-431 217.5,-453 323.5,-453 323.5,-431 217.5,-431"/>
<text text-anchor="start" x="220.5" y="-439.2" font-family="Helvetica,sans-Serif" font-size="11.00">varchar[100]</text>
<polygon fill="none" stroke="black" points="10.5,-409 10.5,-431 217.5,-431 217.5,-409 10.5,-409"/>
<text text-anchor="start" x="30.5" y="-417.2" font-family="Helvetica,sans-Serif" font-size="11.00">value_ro</text>
<polygon fill="none" stroke="black" points="217.5,-409 217.5,-431 323.5,-431 323.5,-409 217.5,-409"/>
<text text-anchor="start" x="220.5" y="-417.2" font-family="Helvetica,sans-Serif" font-size="11.00">varchar[100]</text>
<polygon fill="none" stroke="black" points="10.5,-387 10.5,-409 217.5,-409 217.5,-387 10.5,-387"/>
<text text-anchor="start" x="30.5" y="-395.2" font-family="Helvetica,sans-Serif" font-size="11.00">abbr_en</text>
<polygon fill="none" stroke="black" points="217.5,-387 217.5,-409 323.5,-409 323.5,-387 217.5,-387"/>
<text text-anchor="start" x="220.5" y="-395.2" font-family="Helvetica,sans-Serif" font-size="11.00">varchar[3]</text>
<polygon fill="none" stroke="black" points="10.5,-365 10.5,-387 217.5,-387 217.5,-365 10.5,-365"/>
<text text-anchor="start" x="30.5" y="-373.2" font-family="Helvetica,sans-Serif" font-size="11.00">abbr_de</text>
<polygon fill="none" stroke="black" points="217.5,-365 217.5,-387 323.5,-387 323.5,-365 217.5,-365"/>
<text text-anchor="start" x="220.5" y="-373.2" font-family="Helvetica,sans-Serif" font-size="11.00">varchar[3]</text>
<polygon fill="none" stroke="black" points="10.5,-343 10.5,-365 217.5,-365 217.5,-343 10.5,-343"/>
<text text-anchor="start" x="30.5" y="-351.2" font-family="Helvetica,sans-Serif" font-size="11.00">abbr_fr</text>
<polygon fill="none" stroke="black" points="217.5,-343 217.5,-365 323.5,-365 323.5,-343 217.5,-343"/>
<text text-anchor="start" x="220.5" y="-351.2" font-family="Helvetica,sans-Serif" font-size="11.00">varchar[3]</text>
<polygon fill="none" stroke="black" points="10.5,-321 10.5,-343 217.5,-343 217.5,-321 10.5,-321"/>
<text text-anchor="start" x="30.5" y="-329.2" font-family="Helvetica,sans-Serif" font-size="11.00">abbr_it</text>
<polygon fill="none" stroke="black" points="217.5,-321 217.5,-343 323.5,-343 323.5,-321 217.5,-321"/>
<text text-anchor="start" x="220.5" y="-329.2" font-family="Helvetica,sans-Serif" font-size="11.00">varchar[3]</text>
<polygon fill="none" stroke="black" points="10.5,-299 10.5,-321 217.5,-321 217.5,-299 10.5,-299"/>
<text text-anchor="start" x="30.5" y="-307.2" font-family="Helvetica,sans-Serif" font-size="11.00">abbr_ro</text>
<polygon fill="none" stroke="black" points="217.5,-299 217.5,-321 323.5,-321 323.5,-299 217.5,-299"/>
<text text-anchor="start" x="220.5" y="-307.2" font-family="Helvetica,sans-Serif" font-size="11.00">varchar[3]</text>
<polygon fill="none" stroke="black" points="10.5,-277 10.5,-299 217.5,-299 217.5,-277 10.5,-277"/>
<text text-anchor="start" x="30.5" y="-285.2" font-family="Helvetica,sans-Serif" font-size="11.00">active</text>
<polygon fill="none" stroke="black" points="217.5,-277 217.5,-299 323.5,-299 323.5,-277 217.5,-277"/>
<text text-anchor="start" x="220.5" y="-285.2" font-family="Helvetica,sans-Serif" font-size="11.00">bool[1]</text>
<polygon fill="none" stroke="black" points="10.5,-255 10.5,-277 217.5,-277 217.5,-255 10.5,-255"/>
<text text-anchor="start" x="30.5" y="-263.2" font-family="Helvetica,sans-Serif" font-size="11.00">description_en</text>
<polygon fill="none" stroke="black" points="217.5,-255 217.5,-277 323.5,-277 323.5,-255 217.5,-255"/>
<text text-anchor="start" x="220.5" y="-263.2" font-family="Helvetica,sans-Serif" font-size="11.00">text[2147483647]</text>
<polygon fill="none" stroke="black" points="10.5,-233 10.5,-255 217.5,-255 217.5,-233 10.5,-233"/>
<text text-anchor="start" x="30.5" y="-241.2" font-family="Helvetica,sans-Serif" font-size="11.00">description_de</text>
<polygon fill="none" stroke="black" points="217.5,-233 217.5,-255 323.5,-255 323.5,-233 217.5,-233"/>
<text text-anchor="start" x="220.5" y="-241.2" font-family="Helvetica,sans-Serif" font-size="11.00">text[2147483647]</text>
<polygon fill="none" stroke="black" points="10.5,-211 10.5,-233 217.5,-233 217.5,-211 10.5,-211"/>
<text text-anchor="start" x="30.5" y="-219.2" font-family="Helvetica,sans-Serif" font-size="11.00">description_fr</text>
<polygon fill="none" stroke="black" points="217.5,-211 217.5,-233 323.5,-233 323.5,-211 217.5,-211"/>
<text text-anchor="start" x="220.5" y="-219.2" font-family="Helvetica,sans-Serif" font-size="11.00">text[2147483647]</text>
<polygon fill="none" stroke="black" points="10.5,-189 10.5,-211 217.5,-211 217.5,-189 10.5,-189"/>
<text text-anchor="start" x="30.5" y="-197.2" font-family="Helvetica,sans-Serif" font-size="11.00">description_it</text>
<polygon fill="none" stroke="black" points="217.5,-189 217.5,-211 323.5,-211 323.5,-189 217.5,-189"/>
<text text-anchor="start" x="220.5" y="-197.2" font-family="Helvetica,sans-Serif" font-size="11.00">text[2147483647]</text>
<polygon fill="none" stroke="black" points="10.5,-167 10.5,-189 217.5,-189 217.5,-167 10.5,-167"/>
<text text-anchor="start" x="30.5" y="-175.2" font-family="Helvetica,sans-Serif" font-size="11.00">description_ro</text>
<polygon fill="none" stroke="black" points="217.5,-167 217.5,-189 323.5,-189 323.5,-167 217.5,-167"/>
<text text-anchor="start" x="220.5" y="-175.2" font-family="Helvetica,sans-Serif" font-size="11.00">text[2147483647]</text>
<polygon fill="none" stroke="black" points="10.5,-145 10.5,-167 217.5,-167 217.5,-145 10.5,-145"/>
<text text-anchor="start" x="30.5" y="-153.2" font-family="Helvetica,sans-Serif" font-size="11.00">display_en</text>
<polygon fill="none" stroke="black" points="217.5,-145 217.5,-167 323.5,-167 323.5,-145 217.5,-145"/>
<text text-anchor="start" x="220.5" y="-153.2" font-family="Helvetica,sans-Serif" font-size="11.00">varchar[100]</text>
<polygon fill="none" stroke="black" points="10.5,-123 10.5,-145 217.5,-145 217.5,-123 10.5,-123"/>
<text text-anchor="start" x="30.5" y="-131.2" font-family="Helvetica,sans-Serif" font-size="11.00">display_de</text>
<polygon fill="none" stroke="black" points="217.5,-123 217.5,-145 323.5,-145 323.5,-123 217.5,-123"/>
<text text-anchor="start" x="220.5" y="-131.2" font-family="Helvetica,sans-Serif" font-size="11.00">varchar[100]</text>
<polygon fill="none" stroke="black" points="10.5,-101 10.5,-123 217.5,-123 217.5,-101 10.5,-101"/>
<text text-anchor="start" x="30.5" y="-109.2" font-family="Helvetica,sans-Serif" font-size="11.00">display_fr</text>
<polygon fill="none" stroke="black" points="217.5,-101 217.5,-123 323.5,-123 323.5,-101 217.5,-101"/>
<text text-anchor="start" x="220.5" y="-109.2" font-family="Helvetica,sans-Serif" font-size="11.00">varchar[100]</text>
<polygon fill="none" stroke="black" points="10.5,-79 10.5,-101 217.5,-101 217.5,-79 10.5,-79"/>
<text text-anchor="start" x="30.5" y="-87.2" font-family="Helvetica,sans-Serif" font-size="11.00">display_it</text>
<polygon fill="none" stroke="black" points="217.5,-79 217.5,-101 323.5,-101 323.5,-79 217.5,-79"/>
<text text-anchor="start" x="220.5" y="-87.2" font-family="Helvetica,sans-Serif" font-size="11.00">varchar[100]</text>
<polygon fill="none" stroke="black" points="10.5,-57 10.5,-79 217.5,-79 217.5,-57 10.5,-57"/>
<text text-anchor="start" x="30.5" y="-65.2" font-family="Helvetica,sans-Serif" font-size="11.00">display_ro</text>
<polygon fill="none" stroke="black" points="217.5,-57 217.5,-79 323.5,-79 323.5,-57 217.5,-57"/>
<text text-anchor="start" x="220.5" y="-65.2" font-family="Helvetica,sans-Serif" font-size="11.00">varchar[100]</text>
<polygon fill="#ffffff" stroke="transparent" points="10.5,-39 10.5,-57 323.5,-57 323.5,-39 10.5,-39"/>
<polygon fill="none" stroke="black" points="10.5,-39 10.5,-57 323.5,-57 323.5,-39 10.5,-39"/>
<polygon fill="#ffffff" stroke="transparent" points="11.5,-40 11.5,-56 119.5,-56 119.5,-40 11.5,-40"/>
<text text-anchor="start" x="13.5" y="-45.2" font-family="Helvetica,sans-Serif" font-size="11.00">&lt; 0</text>
<polygon fill="#ffffff" stroke="transparent" points="119.5,-40 119.5,-56 215.5,-56 215.5,-40 119.5,-40"/>
<text text-anchor="start" x="163.5" y="-45.2" font-family="Helvetica,sans-Serif" font-size="11.00"> &#160;</text>
<polygon fill="#ffffff" stroke="transparent" points="215.5,-40 215.5,-56 322.5,-56 322.5,-40 215.5,-40"/>
<text text-anchor="start" x="300.5" y="-45.2" font-family="Helvetica,sans-Serif" font-size="11.00">1 &gt;</text>
<polygon fill="black" stroke="black" points="119.5,-40 119.5,-56 119.5,-56 119.5,-40 119.5,-40"/>
<polygon fill="black" stroke="black" points="215.5,-40 215.5,-56 215.5,-56 215.5,-40 215.5,-40"/>
<polygon fill="none" stroke="black" stroke-width="2" points="9,-38 9,-586 324,-586 324,-38 9,-38"/>
</a>
</g>
</g>
<!-- tww_od.reach_point&#45;&gt;reach_point_outlet_shape -->
<g id="edge1" class="edge">
<title>tww_od.reach_point:w&#45;&gt;reach_point_outlet_shape:e</title>
<path fill="none" stroke="black" d="M358.28,-552C347.29,-552 340.16,-552 324.5,-552"/>
<polygon fill="black" stroke="black" points="365,-552 373,-555.6 369,-552 373,-552 373,-552 373,-552 369,-552 373,-548.4 365,-552 365,-552"/>
<ellipse fill="none" stroke="black" cx="361.8" cy="-552" rx="3.2" ry="3.2"/>
</g>
</g>
</svg>
