<?xml version="1.0" encoding="UTF-8" standalone="no"?>
<!DOCTYPE svg PUBLIC "-//W3C//DTD SVG 1.1//EN"
 "http://www.w3.org/Graphics/SVG/1.1/DTD/svg11.dtd">
<!-- Generated by graphviz version 2.43.0 (0)
 -->
<!-- Title: oneDegreeRelationshipsDiagram Pages: 1 -->
<svg width="603pt" height="685pt"
 viewBox="0.00 0.00 603.00 685.00" xmlns="http://www.w3.org/2000/svg" xmlns:xlink="http://www.w3.org/1999/xlink">
<g id="graph0" class="graph" transform="scale(1 1) rotate(0) translate(4 681)">
<title>oneDegreeRelationshipsDiagram</title>
<polygon fill="#ffffff" stroke="transparent" points="-4,4 -4,-681 599,-681 599,4 -4,4"/>
<text text-anchor="middle" x="79.5" y="-7.2" font-family="Helvetica,sans-Serif" font-size="11.00">Generated by SchemaSpy</text>
<!-- tww_od.reach -->
<g id="node1" class="node">
<title>tww_od.reach</title>
<g id="a_node1"><a xlink:href="../../../tww_od/tables/reach.html" xlink:title="tww_od.reach" target="_top">
<polygon fill="#ffffff" stroke="transparent" points="296,-439 296,-673 587,-673 587,-439 296,-439"/>
<polygon fill="#f5f5f5" stroke="transparent" points="296.5,-651 296.5,-673 587.5,-673 587.5,-651 296.5,-651"/>
<polygon fill="none" stroke="black" points="296.5,-651 296.5,-673 587.5,-673 587.5,-651 296.5,-651"/>
<text text-anchor="start" x="301.5" y="-660.2" font-family="Helvetica,sans-Serif" font-weight="bold" font-size="11.00">tww_od.reach</text>
<text text-anchor="start" x="545.5" y="-659.2" font-family="Helvetica,sans-Serif" font-size="11.00">[table]</text>
<polygon fill="none" stroke="black" points="296.5,-629 296.5,-651 587.5,-651 587.5,-629 296.5,-629"/>
<image xlink:href="../../images/foreignKeys.png" width="11px" height="12px" preserveAspectRatio="xMinYMin meet" x="301.5" y="-646"/>
<text text-anchor="start" x="316.5" y="-637.2" font-family="Helvetica,sans-Serif" font-size="11.00">elevation_determination</text>
<polygon fill="none" stroke="black" points="296.5,-607 296.5,-629 587.5,-629 587.5,-607 296.5,-607"/>
<image xlink:href="../../images/foreignKeys.png" width="11px" height="12px" preserveAspectRatio="xMinYMin meet" x="301.5" y="-624"/>
<text text-anchor="start" x="316.5" y="-615.2" font-family="Helvetica,sans-Serif" font-size="11.00">horizontal_positioning</text>
<polygon fill="none" stroke="black" points="296.5,-585 296.5,-607 587.5,-607 587.5,-585 296.5,-585"/>
<image xlink:href="../../images/foreignKeys.png" width="11px" height="12px" preserveAspectRatio="xMinYMin meet" x="301.5" y="-602"/>
<text text-anchor="start" x="316.5" y="-593.2" font-family="Helvetica,sans-Serif" font-size="11.00">inside_coating</text>
<polygon fill="none" stroke="black" points="296.5,-563 296.5,-585 587.5,-585 587.5,-563 296.5,-563"/>
<image xlink:href="../../images/foreignKeys.png" width="11px" height="12px" preserveAspectRatio="xMinYMin meet" x="301.5" y="-580"/>
<text text-anchor="start" x="316.5" y="-571.2" font-family="Helvetica,sans-Serif" font-size="11.00">leak_protection</text>
<polygon fill="none" stroke="black" points="296.5,-541 296.5,-563 587.5,-563 587.5,-541 296.5,-541"/>
<image xlink:href="../../images/foreignKeys.png" width="11px" height="12px" preserveAspectRatio="xMinYMin meet" x="301.5" y="-558"/>
<text text-anchor="start" x="316.5" y="-549.2" font-family="Helvetica,sans-Serif" font-size="11.00">material</text>
<polygon fill="none" stroke="black" points="296.5,-519 296.5,-541 587.5,-541 587.5,-519 296.5,-519"/>
<image xlink:href="../../images/foreignKeys.png" width="11px" height="12px" preserveAspectRatio="xMinYMin meet" x="301.5" y="-536"/>
<text text-anchor="start" x="316.5" y="-527.2" font-family="Helvetica,sans-Serif" font-size="11.00">reliner_material</text>
<polygon fill="none" stroke="black" points="296.5,-497 296.5,-519 587.5,-519 587.5,-497 296.5,-497"/>
<image xlink:href="../../images/foreignKeys.png" width="11px" height="12px" preserveAspectRatio="xMinYMin meet" x="301.5" y="-514"/>
<text text-anchor="start" x="316.5" y="-505.2" font-family="Helvetica,sans-Serif" font-size="11.00">relining_construction</text>
<polygon fill="none" stroke="black" points="296.5,-475 296.5,-497 587.5,-497 587.5,-475 296.5,-475"/>
<image xlink:href="../../images/foreignKeys.png" width="11px" height="12px" preserveAspectRatio="xMinYMin meet" x="301.5" y="-492"/>
<text text-anchor="start" x="316.5" y="-483.2" font-family="Helvetica,sans-Serif" font-size="11.00">relining_kind</text>
<polygon fill="none" stroke="black" points="296.5,-457 296.5,-475 587.5,-475 587.5,-457 296.5,-457"/>
<text text-anchor="start" x="299.5" y="-463.2" font-family="Helvetica,sans-Serif" font-size="11.00">...</text>
<polygon fill="#ffffff" stroke="transparent" points="296.5,-439 296.5,-457 587.5,-457 587.5,-439 296.5,-439"/>
<polygon fill="none" stroke="black" points="296.5,-439 296.5,-457 587.5,-457 587.5,-439 296.5,-439"/>
<polygon fill="#ffffff" stroke="transparent" points="297.5,-440 297.5,-456 392.5,-456 392.5,-440 297.5,-440"/>
<text text-anchor="start" x="299.5" y="-445.2" font-family="Helvetica,sans-Serif" font-size="11.00">&lt; 8</text>
<polygon fill="#ffffff" stroke="transparent" points="392.5,-440 392.5,-456 504.5,-456 504.5,-440 392.5,-440"/>
<text text-anchor="start" x="430" y="-445.2" font-family="Helvetica,sans-Serif" font-size="11.00">0 rows</text>
<polygon fill="#ffffff" stroke="transparent" points="504.5,-440 504.5,-456 586.5,-456 586.5,-440 504.5,-440"/>
<text text-anchor="start" x="576.5" y="-445.2" font-family="Helvetica,sans-Serif" font-size="11.00"> &#160;</text>
<polygon fill="black" stroke="black" points="392.5,-440 392.5,-456 392.5,-456 392.5,-440 392.5,-440"/>
<polygon fill="black" stroke="black" points="504.5,-440 504.5,-456 504.5,-456 504.5,-440 504.5,-440"/>
</a>
</g>
</g>
<!-- reach_material -->
<g id="node2" class="node">
<title>reach_material</title>
<g id="a_node2"><a xlink:href="../../tables/reach_material.html" xlink:title="reach_material" target="_top">
<polygon fill="#ffffff" stroke="transparent" points="8,-37 8,-587 247,-587 247,-37 8,-37"/>
<polygon fill="#f5f5f5" stroke="transparent" points="10.5,-563 10.5,-585 245.5,-585 245.5,-563 10.5,-563"/>
<polygon fill="none" stroke="black" points="10.5,-563 10.5,-585 245.5,-585 245.5,-563 10.5,-563"/>
<text text-anchor="start" x="15.5" y="-572.2" font-family="Helvetica,sans-Serif" font-weight="bold" font-size="11.00">reach_material</text>
<text text-anchor="start" x="203.5" y="-571.2" font-family="Helvetica,sans-Serif" font-size="11.00">[table]</text>
<polygon fill="none" stroke="black" points="10.5,-541 10.5,-563 139.5,-563 139.5,-541 10.5,-541"/>
<image xlink:href="../../images/primaryKeys.png" width="11px" height="12px" preserveAspectRatio="xMinYMin meet" x="15.5" y="-558"/>
<text text-anchor="start" x="30.5" y="-549.2" font-family="Helvetica,sans-Serif" font-size="11.00">code</text>
<polygon fill="none" stroke="black" points="139.5,-541 139.5,-563 245.5,-563 245.5,-541 139.5,-541"/>
<text text-anchor="start" x="142.5" y="-549.2" font-family="Helvetica,sans-Serif" font-size="11.00">int4[10]</text>
<polygon fill="none" stroke="black" points="10.5,-519 10.5,-541 139.5,-541 139.5,-519 10.5,-519"/>
<text text-anchor="start" x="30.5" y="-527.2" font-family="Helvetica,sans-Serif" font-size="11.00">vsacode</text>
<polygon fill="none" stroke="black" points="139.5,-519 139.5,-541 245.5,-541 245.5,-519 139.5,-519"/>
<text text-anchor="start" x="142.5" y="-527.2" font-family="Helvetica,sans-Serif" font-size="11.00">int4[10]</text>
<polygon fill="none" stroke="black" points="10.5,-497 10.5,-519 139.5,-519 139.5,-497 10.5,-497"/>
<text text-anchor="start" x="30.5" y="-505.2" font-family="Helvetica,sans-Serif" font-size="11.00">value_en</text>
<polygon fill="none" stroke="black" points="139.5,-497 139.5,-519 245.5,-519 245.5,-497 139.5,-497"/>
<text text-anchor="start" x="142.5" y="-505.2" font-family="Helvetica,sans-Serif" font-size="11.00">varchar[100]</text>
<polygon fill="none" stroke="black" points="10.5,-475 10.5,-497 139.5,-497 139.5,-475 10.5,-475"/>
<text text-anchor="start" x="30.5" y="-483.2" font-family="Helvetica,sans-Serif" font-size="11.00">value_de</text>
<polygon fill="none" stroke="black" points="139.5,-475 139.5,-497 245.5,-497 245.5,-475 139.5,-475"/>
<text text-anchor="start" x="142.5" y="-483.2" font-family="Helvetica,sans-Serif" font-size="11.00">varchar[100]</text>
<polygon fill="none" stroke="black" points="10.5,-453 10.5,-475 139.5,-475 139.5,-453 10.5,-453"/>
<text text-anchor="start" x="30.5" y="-461.2" font-family="Helvetica,sans-Serif" font-size="11.00">value_fr</text>
<polygon fill="none" stroke="black" points="139.5,-453 139.5,-475 245.5,-475 245.5,-453 139.5,-453"/>
<text text-anchor="start" x="142.5" y="-461.2" font-family="Helvetica,sans-Serif" font-size="11.00">varchar[100]</text>
<polygon fill="none" stroke="black" points="10.5,-431 10.5,-453 139.5,-453 139.5,-431 10.5,-431"/>
<text text-anchor="start" x="30.5" y="-439.2" font-family="Helvetica,sans-Serif" font-size="11.00">value_it</text>
<polygon fill="none" stroke="black" points="139.5,-431 139.5,-453 245.5,-453 245.5,-431 139.5,-431"/>
<text text-anchor="start" x="142.5" y="-439.2" font-family="Helvetica,sans-Serif" font-size="11.00">varchar[100]</text>
<polygon fill="none" stroke="black" points="10.5,-409 10.5,-431 139.5,-431 139.5,-409 10.5,-409"/>
<text text-anchor="start" x="30.5" y="-417.2" font-family="Helvetica,sans-Serif" font-size="11.00">value_ro</text>
<polygon fill="none" stroke="black" points="139.5,-409 139.5,-431 245.5,-431 245.5,-409 139.5,-409"/>
<text text-anchor="start" x="142.5" y="-417.2" font-family="Helvetica,sans-Serif" font-size="11.00">varchar[100]</text>
<polygon fill="none" stroke="black" points="10.5,-387 10.5,-409 139.5,-409 139.5,-387 10.5,-387"/>
<text text-anchor="start" x="30.5" y="-395.2" font-family="Helvetica,sans-Serif" font-size="11.00">abbr_en</text>
<polygon fill="none" stroke="black" points="139.5,-387 139.5,-409 245.5,-409 245.5,-387 139.5,-387"/>
<text text-anchor="start" x="142.5" y="-395.2" font-family="Helvetica,sans-Serif" font-size="11.00">varchar[3]</text>
<polygon fill="none" stroke="black" points="10.5,-365 10.5,-387 139.5,-387 139.5,-365 10.5,-365"/>
<text text-anchor="start" x="30.5" y="-373.2" font-family="Helvetica,sans-Serif" font-size="11.00">abbr_de</text>
<polygon fill="none" stroke="black" points="139.5,-365 139.5,-387 245.5,-387 245.5,-365 139.5,-365"/>
<text text-anchor="start" x="142.5" y="-373.2" font-family="Helvetica,sans-Serif" font-size="11.00">varchar[3]</text>
<polygon fill="none" stroke="black" points="10.5,-343 10.5,-365 139.5,-365 139.5,-343 10.5,-343"/>
<text text-anchor="start" x="30.5" y="-351.2" font-family="Helvetica,sans-Serif" font-size="11.00">abbr_fr</text>
<polygon fill="none" stroke="black" points="139.5,-343 139.5,-365 245.5,-365 245.5,-343 139.5,-343"/>
<text text-anchor="start" x="142.5" y="-351.2" font-family="Helvetica,sans-Serif" font-size="11.00">varchar[3]</text>
<polygon fill="none" stroke="black" points="10.5,-321 10.5,-343 139.5,-343 139.5,-321 10.5,-321"/>
<text text-anchor="start" x="30.5" y="-329.2" font-family="Helvetica,sans-Serif" font-size="11.00">abbr_it</text>
<polygon fill="none" stroke="black" points="139.5,-321 139.5,-343 245.5,-343 245.5,-321 139.5,-321"/>
<text text-anchor="start" x="142.5" y="-329.2" font-family="Helvetica,sans-Serif" font-size="11.00">varchar[3]</text>
<polygon fill="none" stroke="black" points="10.5,-299 10.5,-321 139.5,-321 139.5,-299 10.5,-299"/>
<text text-anchor="start" x="30.5" y="-307.2" font-family="Helvetica,sans-Serif" font-size="11.00">abbr_ro</text>
<polygon fill="none" stroke="black" points="139.5,-299 139.5,-321 245.5,-321 245.5,-299 139.5,-299"/>
<text text-anchor="start" x="142.5" y="-307.2" font-family="Helvetica,sans-Serif" font-size="11.00">varchar[3]</text>
<polygon fill="none" stroke="black" points="10.5,-277 10.5,-299 139.5,-299 139.5,-277 10.5,-277"/>
<text text-anchor="start" x="30.5" y="-285.2" font-family="Helvetica,sans-Serif" font-size="11.00">active</text>
<polygon fill="none" stroke="black" points="139.5,-277 139.5,-299 245.5,-299 245.5,-277 139.5,-277"/>
<text text-anchor="start" x="142.5" y="-285.2" font-family="Helvetica,sans-Serif" font-size="11.00">bool[1]</text>
<polygon fill="none" stroke="black" points="10.5,-255 10.5,-277 139.5,-277 139.5,-255 10.5,-255"/>
<text text-anchor="start" x="30.5" y="-263.2" font-family="Helvetica,sans-Serif" font-size="11.00">description_en</text>
<polygon fill="none" stroke="black" points="139.5,-255 139.5,-277 245.5,-277 245.5,-255 139.5,-255"/>
<text text-anchor="start" x="142.5" y="-263.2" font-family="Helvetica,sans-Serif" font-size="11.00">text[2147483647]</text>
<polygon fill="none" stroke="black" points="10.5,-233 10.5,-255 139.5,-255 139.5,-233 10.5,-233"/>
<text text-anchor="start" x="30.5" y="-241.2" font-family="Helvetica,sans-Serif" font-size="11.00">description_de</text>
<polygon fill="none" stroke="black" points="139.5,-233 139.5,-255 245.5,-255 245.5,-233 139.5,-233"/>
<text text-anchor="start" x="142.5" y="-241.2" font-family="Helvetica,sans-Serif" font-size="11.00">text[2147483647]</text>
<polygon fill="none" stroke="black" points="10.5,-211 10.5,-233 139.5,-233 139.5,-211 10.5,-211"/>
<text text-anchor="start" x="30.5" y="-219.2" font-family="Helvetica,sans-Serif" font-size="11.00">description_fr</text>
<polygon fill="none" stroke="black" points="139.5,-211 139.5,-233 245.5,-233 245.5,-211 139.5,-211"/>
<text text-anchor="start" x="142.5" y="-219.2" font-family="Helvetica,sans-Serif" font-size="11.00">text[2147483647]</text>
<polygon fill="none" stroke="black" points="10.5,-189 10.5,-211 139.5,-211 139.5,-189 10.5,-189"/>
<text text-anchor="start" x="30.5" y="-197.2" font-family="Helvetica,sans-Serif" font-size="11.00">description_it</text>
<polygon fill="none" stroke="black" points="139.5,-189 139.5,-211 245.5,-211 245.5,-189 139.5,-189"/>
<text text-anchor="start" x="142.5" y="-197.2" font-family="Helvetica,sans-Serif" font-size="11.00">text[2147483647]</text>
<polygon fill="none" stroke="black" points="10.5,-167 10.5,-189 139.5,-189 139.5,-167 10.5,-167"/>
<text text-anchor="start" x="30.5" y="-175.2" font-family="Helvetica,sans-Serif" font-size="11.00">description_ro</text>
<polygon fill="none" stroke="black" points="139.5,-167 139.5,-189 245.5,-189 245.5,-167 139.5,-167"/>
<text text-anchor="start" x="142.5" y="-175.2" font-family="Helvetica,sans-Serif" font-size="11.00">text[2147483647]</text>
<polygon fill="none" stroke="black" points="10.5,-145 10.5,-167 139.5,-167 139.5,-145 10.5,-145"/>
<text text-anchor="start" x="30.5" y="-153.2" font-family="Helvetica,sans-Serif" font-size="11.00">display_en</text>
<polygon fill="none" stroke="black" points="139.5,-145 139.5,-167 245.5,-167 245.5,-145 139.5,-145"/>
<text text-anchor="start" x="142.5" y="-153.2" font-family="Helvetica,sans-Serif" font-size="11.00">varchar[100]</text>
<polygon fill="none" stroke="black" points="10.5,-123 10.5,-145 139.5,-145 139.5,-123 10.5,-123"/>
<text text-anchor="start" x="30.5" y="-131.2" font-family="Helvetica,sans-Serif" font-size="11.00">display_de</text>
<polygon fill="none" stroke="black" points="139.5,-123 139.5,-145 245.5,-145 245.5,-123 139.5,-123"/>
<text text-anchor="start" x="142.5" y="-131.2" font-family="Helvetica,sans-Serif" font-size="11.00">varchar[100]</text>
<polygon fill="none" stroke="black" points="10.5,-101 10.5,-123 139.5,-123 139.5,-101 10.5,-101"/>
<text text-anchor="start" x="30.5" y="-109.2" font-family="Helvetica,sans-Serif" font-size="11.00">display_fr</text>
<polygon fill="none" stroke="black" points="139.5,-101 139.5,-123 245.5,-123 245.5,-101 139.5,-101"/>
<text text-anchor="start" x="142.5" y="-109.2" font-family="Helvetica,sans-Serif" font-size="11.00">varchar[100]</text>
<polygon fill="none" stroke="black" points="10.5,-79 10.5,-101 139.5,-101 139.5,-79 10.5,-79"/>
<text text-anchor="start" x="30.5" y="-87.2" font-family="Helvetica,sans-Serif" font-size="11.00">display_it</text>
<polygon fill="none" stroke="black" points="139.5,-79 139.5,-101 245.5,-101 245.5,-79 139.5,-79"/>
<text text-anchor="start" x="142.5" y="-87.2" font-family="Helvetica,sans-Serif" font-size="11.00">varchar[100]</text>
<polygon fill="none" stroke="black" points="10.5,-57 10.5,-79 139.5,-79 139.5,-57 10.5,-57"/>
<text text-anchor="start" x="30.5" y="-65.2" font-family="Helvetica,sans-Serif" font-size="11.00">display_ro</text>
<polygon fill="none" stroke="black" points="139.5,-57 139.5,-79 245.5,-79 245.5,-57 139.5,-57"/>
<text text-anchor="start" x="142.5" y="-65.2" font-family="Helvetica,sans-Serif" font-size="11.00">varchar[100]</text>
<polygon fill="#ffffff" stroke="transparent" points="10.5,-39 10.5,-57 245.5,-57 245.5,-39 10.5,-39"/>
<polygon fill="none" stroke="black" points="10.5,-39 10.5,-57 245.5,-57 245.5,-39 10.5,-39"/>
<polygon fill="#ffffff" stroke="transparent" points="11.5,-40 11.5,-56 93.5,-56 93.5,-40 11.5,-40"/>
<text text-anchor="start" x="13.5" y="-45.2" font-family="Helvetica,sans-Serif" font-size="11.00">&lt; 0</text>
<polygon fill="#ffffff" stroke="transparent" points="93.5,-40 93.5,-56 163.5,-56 163.5,-40 93.5,-40"/>
<text text-anchor="start" x="124.5" y="-45.2" font-family="Helvetica,sans-Serif" font-size="11.00"> &#160;</text>
<polygon fill="#ffffff" stroke="transparent" points="163.5,-40 163.5,-56 244.5,-56 244.5,-40 163.5,-40"/>
<text text-anchor="start" x="222.5" y="-45.2" font-family="Helvetica,sans-Serif" font-size="11.00">1 &gt;</text>
<polygon fill="black" stroke="black" points="93.5,-40 93.5,-56 93.5,-56 93.5,-40 93.5,-40"/>
<polygon fill="black" stroke="black" points="163.5,-40 163.5,-56 163.5,-56 163.5,-40 163.5,-40"/>
<polygon fill="none" stroke="black" stroke-width="2" points="9,-38 9,-586 246,-586 246,-38 9,-38"/>
</a>
</g>
</g>
<!-- tww_od.reach&#45;&gt;reach_material -->
<g id="edge1" class="edge">
<title>tww_od.reach:w&#45;&gt;reach_material:e</title>
<path fill="none" stroke="black" d="M280.99,-552C269.68,-552 262.49,-552 246.5,-552"/>
<polygon fill="black" stroke="black" points="287.5,-552 295.5,-555.6 291.5,-552 295.5,-552 295.5,-552 295.5,-552 291.5,-552 295.5,-548.4 287.5,-552 287.5,-552"/>
<ellipse fill="none" stroke="black" cx="284.3" cy="-552" rx="3.2" ry="3.2"/>
</g>
</g>
</svg>
