<?xml version="1.0" encoding="UTF-8" standalone="no"?>
<!DOCTYPE svg PUBLIC "-//W3C//DTD SVG 1.1//EN"
 "http://www.w3.org/Graphics/SVG/1.1/DTD/svg11.dtd">
<!-- Generated by graphviz version 2.43.0 (0)
 -->
<!-- Title: oneDegreeRelationshipsDiagram Pages: 1 -->
<svg width="735pt" height="641pt"
 viewBox="0.00 0.00 735.00 641.00" xmlns="http://www.w3.org/2000/svg" xmlns:xlink="http://www.w3.org/1999/xlink">
<g id="graph0" class="graph" transform="scale(1 1) rotate(0) translate(4 637)">
<title>oneDegreeRelationshipsDiagram</title>
<polygon fill="#ffffff" stroke="transparent" points="-4,4 -4,-637 731,-637 731,4 -4,4"/>
<text text-anchor="middle" x="79.5" y="-7.2" font-family="Helvetica,sans-Serif" font-size="11.00">Generated by SchemaSpy</text>
<!-- tww_od.sia405pt_protection_tube -->
<g id="node1" class="node">
<title>tww_od.sia405pt_protection_tube</title>
<g id="a_node1"><a xlink:href="../../../tww_od/tables/sia405pt_protection_tube.html" xlink:title="tww_od.sia405pt_protection_tube" target="_top">
<polygon fill="#ffffff" stroke="transparent" points="426,-505 426,-629 719,-629 719,-505 426,-505"/>
<polygon fill="#f5f5f5" stroke="transparent" points="426.5,-607 426.5,-629 719.5,-629 719.5,-607 426.5,-607"/>
<polygon fill="none" stroke="black" points="426.5,-607 426.5,-629 719.5,-629 719.5,-607 426.5,-607"/>
<text text-anchor="start" x="431.5" y="-616.2" font-family="Helvetica,sans-Serif" font-weight="bold" font-size="11.00">tww_od.sia405pt_protection_tube</text>
<text text-anchor="start" x="677.5" y="-615.2" font-family="Helvetica,sans-Serif" font-size="11.00">[table]</text>
<polygon fill="none" stroke="black" points="426.5,-585 426.5,-607 719.5,-607 719.5,-585 426.5,-585"/>
<image xlink:href="../../images/foreignKeys.png" width="11px" height="12px" preserveAspectRatio="xMinYMin meet" x="431.5" y="-602"/>
<text text-anchor="start" x="489.5" y="-593.2" font-family="Helvetica,sans-Serif" font-size="11.00">material</text>
<polygon fill="none" stroke="black" points="426.5,-563 426.5,-585 719.5,-585 719.5,-563 426.5,-563"/>
<image xlink:href="../../images/foreignKeys.png" width="11px" height="12px" preserveAspectRatio="xMinYMin meet" x="431.5" y="-580"/>
<text text-anchor="start" x="489.5" y="-571.2" font-family="Helvetica,sans-Serif" font-size="11.00">horizontal_positioning</text>
<polygon fill="none" stroke="black" points="426.5,-541 426.5,-563 719.5,-563 719.5,-541 426.5,-541"/>
<image xlink:href="../../images/foreignKeys.png" width="11px" height="12px" preserveAspectRatio="xMinYMin meet" x="431.5" y="-558"/>
<text text-anchor="start" x="489.5" y="-549.2" font-family="Helvetica,sans-Serif" font-size="11.00">status</text>
<polygon fill="none" stroke="black" points="426.5,-523 426.5,-541 719.5,-541 719.5,-523 426.5,-523"/>
<text text-anchor="start" x="429.5" y="-529.2" font-family="Helvetica,sans-Serif" font-size="11.00">...</text>
<polygon fill="#ffffff" stroke="transparent" points="426.5,-505 426.5,-523 719.5,-523 719.5,-505 426.5,-505"/>
<polygon fill="none" stroke="black" points="426.5,-505 426.5,-523 719.5,-523 719.5,-505 426.5,-505"/>
<polygon fill="#ffffff" stroke="transparent" points="427.5,-506 427.5,-522 523.5,-522 523.5,-506 427.5,-506"/>
<text text-anchor="start" x="429.5" y="-511.2" font-family="Helvetica,sans-Serif" font-size="11.00">&lt; 3</text>
<polygon fill="#ffffff" stroke="transparent" points="523.5,-506 523.5,-522 635.5,-522 635.5,-506 523.5,-506"/>
<text text-anchor="start" x="561" y="-511.2" font-family="Helvetica,sans-Serif" font-size="11.00">0 rows</text>
<polygon fill="#ffffff" stroke="transparent" points="635.5,-506 635.5,-522 718.5,-522 718.5,-506 635.5,-506"/>
<text text-anchor="start" x="708.5" y="-511.2" font-family="Helvetica,sans-Serif" font-size="11.00"> &#160;</text>
<polygon fill="black" stroke="black" points="523.5,-506 523.5,-522 523.5,-522 523.5,-506 523.5,-506"/>
<polygon fill="black" stroke="black" points="635.5,-506 635.5,-522 635.5,-522 635.5,-506 635.5,-506"/>
</a>
</g>
</g>
<!-- sia405pt_protection_tube_status -->
<g id="node2" class="node">
<title>sia405pt_protection_tube_status</title>
<g id="a_node2"><a xlink:href="../../tables/sia405pt_protection_tube_status.html" xlink:title="sia405pt_protection_tube_status" target="_top">
<polygon fill="#ffffff" stroke="transparent" points="8,-37 8,-587 377,-587 377,-37 8,-37"/>
<polygon fill="#f5f5f5" stroke="transparent" points="10.5,-563 10.5,-585 375.5,-585 375.5,-563 10.5,-563"/>
<polygon fill="none" stroke="black" points="10.5,-563 10.5,-585 375.5,-585 375.5,-563 10.5,-563"/>
<text text-anchor="start" x="15.5" y="-572.2" font-family="Helvetica,sans-Serif" font-weight="bold" font-size="11.00">sia405pt_protection_tube_status</text>
<text text-anchor="start" x="333.5" y="-571.2" font-family="Helvetica,sans-Serif" font-size="11.00">[table]</text>
<polygon fill="none" stroke="black" points="10.5,-541 10.5,-563 269.5,-563 269.5,-541 10.5,-541"/>
<image xlink:href="../../images/primaryKeys.png" width="11px" height="12px" preserveAspectRatio="xMinYMin meet" x="15.5" y="-558"/>
<text text-anchor="start" x="30.5" y="-549.2" font-family="Helvetica,sans-Serif" font-size="11.00">code</text>
<polygon fill="none" stroke="black" points="269.5,-541 269.5,-563 375.5,-563 375.5,-541 269.5,-541"/>
<text text-anchor="start" x="272.5" y="-549.2" font-family="Helvetica,sans-Serif" font-size="11.00">int4[10]</text>
<polygon fill="none" stroke="black" points="10.5,-519 10.5,-541 269.5,-541 269.5,-519 10.5,-519"/>
<text text-anchor="start" x="30.5" y="-527.2" font-family="Helvetica,sans-Serif" font-size="11.00">vsacode</text>
<polygon fill="none" stroke="black" points="269.5,-519 269.5,-541 375.5,-541 375.5,-519 269.5,-519"/>
<text text-anchor="start" x="272.5" y="-527.2" font-family="Helvetica,sans-Serif" font-size="11.00">int4[10]</text>
<polygon fill="none" stroke="black" points="10.5,-497 10.5,-519 269.5,-519 269.5,-497 10.5,-497"/>
<text text-anchor="start" x="30.5" y="-505.2" font-family="Helvetica,sans-Serif" font-size="11.00">value_en</text>
<polygon fill="none" stroke="black" points="269.5,-497 269.5,-519 375.5,-519 375.5,-497 269.5,-497"/>
<text text-anchor="start" x="272.5" y="-505.2" font-family="Helvetica,sans-Serif" font-size="11.00">varchar[100]</text>
<polygon fill="none" stroke="black" points="10.5,-475 10.5,-497 269.5,-497 269.5,-475 10.5,-475"/>
<text text-anchor="start" x="30.5" y="-483.2" font-family="Helvetica,sans-Serif" font-size="11.00">value_de</text>
<polygon fill="none" stroke="black" points="269.5,-475 269.5,-497 375.5,-497 375.5,-475 269.5,-475"/>
<text text-anchor="start" x="272.5" y="-483.2" font-family="Helvetica,sans-Serif" font-size="11.00">varchar[100]</text>
<polygon fill="none" stroke="black" points="10.5,-453 10.5,-475 269.5,-475 269.5,-453 10.5,-453"/>
<text text-anchor="start" x="30.5" y="-461.2" font-family="Helvetica,sans-Serif" font-size="11.00">value_fr</text>
<polygon fill="none" stroke="black" points="269.5,-453 269.5,-475 375.5,-475 375.5,-453 269.5,-453"/>
<text text-anchor="start" x="272.5" y="-461.2" font-family="Helvetica,sans-Serif" font-size="11.00">varchar[100]</text>
<polygon fill="none" stroke="black" points="10.5,-431 10.5,-453 269.5,-453 269.5,-431 10.5,-431"/>
<text text-anchor="start" x="30.5" y="-439.2" font-family="Helvetica,sans-Serif" font-size="11.00">value_it</text>
<polygon fill="none" stroke="black" points="269.5,-431 269.5,-453 375.5,-453 375.5,-431 269.5,-431"/>
<text text-anchor="start" x="272.5" y="-439.2" font-family="Helvetica,sans-Serif" font-size="11.00">varchar[100]</text>
<polygon fill="none" stroke="black" points="10.5,-409 10.5,-431 269.5,-431 269.5,-409 10.5,-409"/>
<text text-anchor="start" x="30.5" y="-417.2" font-family="Helvetica,sans-Serif" font-size="11.00">value_ro</text>
<polygon fill="none" stroke="black" points="269.5,-409 269.5,-431 375.5,-431 375.5,-409 269.5,-409"/>
<text text-anchor="start" x="272.5" y="-417.2" font-family="Helvetica,sans-Serif" font-size="11.00">varchar[100]</text>
<polygon fill="none" stroke="black" points="10.5,-387 10.5,-409 269.5,-409 269.5,-387 10.5,-387"/>
<text text-anchor="start" x="30.5" y="-395.2" font-family="Helvetica,sans-Serif" font-size="11.00">abbr_en</text>
<polygon fill="none" stroke="black" points="269.5,-387 269.5,-409 375.5,-409 375.5,-387 269.5,-387"/>
<text text-anchor="start" x="272.5" y="-395.2" font-family="Helvetica,sans-Serif" font-size="11.00">varchar[3]</text>
<polygon fill="none" stroke="black" points="10.5,-365 10.5,-387 269.5,-387 269.5,-365 10.5,-365"/>
<text text-anchor="start" x="30.5" y="-373.2" font-family="Helvetica,sans-Serif" font-size="11.00">abbr_de</text>
<polygon fill="none" stroke="black" points="269.5,-365 269.5,-387 375.5,-387 375.5,-365 269.5,-365"/>
<text text-anchor="start" x="272.5" y="-373.2" font-family="Helvetica,sans-Serif" font-size="11.00">varchar[3]</text>
<polygon fill="none" stroke="black" points="10.5,-343 10.5,-365 269.5,-365 269.5,-343 10.5,-343"/>
<text text-anchor="start" x="30.5" y="-351.2" font-family="Helvetica,sans-Serif" font-size="11.00">abbr_fr</text>
<polygon fill="none" stroke="black" points="269.5,-343 269.5,-365 375.5,-365 375.5,-343 269.5,-343"/>
<text text-anchor="start" x="272.5" y="-351.2" font-family="Helvetica,sans-Serif" font-size="11.00">varchar[3]</text>
<polygon fill="none" stroke="black" points="10.5,-321 10.5,-343 269.5,-343 269.5,-321 10.5,-321"/>
<text text-anchor="start" x="30.5" y="-329.2" font-family="Helvetica,sans-Serif" font-size="11.00">abbr_it</text>
<polygon fill="none" stroke="black" points="269.5,-321 269.5,-343 375.5,-343 375.5,-321 269.5,-321"/>
<text text-anchor="start" x="272.5" y="-329.2" font-family="Helvetica,sans-Serif" font-size="11.00">varchar[3]</text>
<polygon fill="none" stroke="black" points="10.5,-299 10.5,-321 269.5,-321 269.5,-299 10.5,-299"/>
<text text-anchor="start" x="30.5" y="-307.2" font-family="Helvetica,sans-Serif" font-size="11.00">abbr_ro</text>
<polygon fill="none" stroke="black" points="269.5,-299 269.5,-321 375.5,-321 375.5,-299 269.5,-299"/>
<text text-anchor="start" x="272.5" y="-307.2" font-family="Helvetica,sans-Serif" font-size="11.00">varchar[3]</text>
<polygon fill="none" stroke="black" points="10.5,-277 10.5,-299 269.5,-299 269.5,-277 10.5,-277"/>
<text text-anchor="start" x="30.5" y="-285.2" font-family="Helvetica,sans-Serif" font-size="11.00">active</text>
<polygon fill="none" stroke="black" points="269.5,-277 269.5,-299 375.5,-299 375.5,-277 269.5,-277"/>
<text text-anchor="start" x="272.5" y="-285.2" font-family="Helvetica,sans-Serif" font-size="11.00">bool[1]</text>
<polygon fill="none" stroke="black" points="10.5,-255 10.5,-277 269.5,-277 269.5,-255 10.5,-255"/>
<text text-anchor="start" x="30.5" y="-263.2" font-family="Helvetica,sans-Serif" font-size="11.00">description_en</text>
<polygon fill="none" stroke="black" points="269.5,-255 269.5,-277 375.5,-277 375.5,-255 269.5,-255"/>
<text text-anchor="start" x="272.5" y="-263.2" font-family="Helvetica,sans-Serif" font-size="11.00">text[2147483647]</text>
<polygon fill="none" stroke="black" points="10.5,-233 10.5,-255 269.5,-255 269.5,-233 10.5,-233"/>
<text text-anchor="start" x="30.5" y="-241.2" font-family="Helvetica,sans-Serif" font-size="11.00">description_de</text>
<polygon fill="none" stroke="black" points="269.5,-233 269.5,-255 375.5,-255 375.5,-233 269.5,-233"/>
<text text-anchor="start" x="272.5" y="-241.2" font-family="Helvetica,sans-Serif" font-size="11.00">text[2147483647]</text>
<polygon fill="none" stroke="black" points="10.5,-211 10.5,-233 269.5,-233 269.5,-211 10.5,-211"/>
<text text-anchor="start" x="30.5" y="-219.2" font-family="Helvetica,sans-Serif" font-size="11.00">description_fr</text>
<polygon fill="none" stroke="black" points="269.5,-211 269.5,-233 375.5,-233 375.5,-211 269.5,-211"/>
<text text-anchor="start" x="272.5" y="-219.2" font-family="Helvetica,sans-Serif" font-size="11.00">text[2147483647]</text>
<polygon fill="none" stroke="black" points="10.5,-189 10.5,-211 269.5,-211 269.5,-189 10.5,-189"/>
<text text-anchor="start" x="30.5" y="-197.2" font-family="Helvetica,sans-Serif" font-size="11.00">description_it</text>
<polygon fill="none" stroke="black" points="269.5,-189 269.5,-211 375.5,-211 375.5,-189 269.5,-189"/>
<text text-anchor="start" x="272.5" y="-197.2" font-family="Helvetica,sans-Serif" font-size="11.00">text[2147483647]</text>
<polygon fill="none" stroke="black" points="10.5,-167 10.5,-189 269.5,-189 269.5,-167 10.5,-167"/>
<text text-anchor="start" x="30.5" y="-175.2" font-family="Helvetica,sans-Serif" font-size="11.00">description_ro</text>
<polygon fill="none" stroke="black" points="269.5,-167 269.5,-189 375.5,-189 375.5,-167 269.5,-167"/>
<text text-anchor="start" x="272.5" y="-175.2" font-family="Helvetica,sans-Serif" font-size="11.00">text[2147483647]</text>
<polygon fill="none" stroke="black" points="10.5,-145 10.5,-167 269.5,-167 269.5,-145 10.5,-145"/>
<text text-anchor="start" x="30.5" y="-153.2" font-family="Helvetica,sans-Serif" font-size="11.00">display_en</text>
<polygon fill="none" stroke="black" points="269.5,-145 269.5,-167 375.5,-167 375.5,-145 269.5,-145"/>
<text text-anchor="start" x="272.5" y="-153.2" font-family="Helvetica,sans-Serif" font-size="11.00">varchar[100]</text>
<polygon fill="none" stroke="black" points="10.5,-123 10.5,-145 269.5,-145 269.5,-123 10.5,-123"/>
<text text-anchor="start" x="30.5" y="-131.2" font-family="Helvetica,sans-Serif" font-size="11.00">display_de</text>
<polygon fill="none" stroke="black" points="269.5,-123 269.5,-145 375.5,-145 375.5,-123 269.5,-123"/>
<text text-anchor="start" x="272.5" y="-131.2" font-family="Helvetica,sans-Serif" font-size="11.00">varchar[100]</text>
<polygon fill="none" stroke="black" points="10.5,-101 10.5,-123 269.5,-123 269.5,-101 10.5,-101"/>
<text text-anchor="start" x="30.5" y="-109.2" font-family="Helvetica,sans-Serif" font-size="11.00">display_fr</text>
<polygon fill="none" stroke="black" points="269.5,-101 269.5,-123 375.5,-123 375.5,-101 269.5,-101"/>
<text text-anchor="start" x="272.5" y="-109.2" font-family="Helvetica,sans-Serif" font-size="11.00">varchar[100]</text>
<polygon fill="none" stroke="black" points="10.5,-79 10.5,-101 269.5,-101 269.5,-79 10.5,-79"/>
<text text-anchor="start" x="30.5" y="-87.2" font-family="Helvetica,sans-Serif" font-size="11.00">display_it</text>
<polygon fill="none" stroke="black" points="269.5,-79 269.5,-101 375.5,-101 375.5,-79 269.5,-79"/>
<text text-anchor="start" x="272.5" y="-87.2" font-family="Helvetica,sans-Serif" font-size="11.00">varchar[100]</text>
<polygon fill="none" stroke="black" points="10.5,-57 10.5,-79 269.5,-79 269.5,-57 10.5,-57"/>
<text text-anchor="start" x="30.5" y="-65.2" font-family="Helvetica,sans-Serif" font-size="11.00">display_ro</text>
<polygon fill="none" stroke="black" points="269.5,-57 269.5,-79 375.5,-79 375.5,-57 269.5,-57"/>
<text text-anchor="start" x="272.5" y="-65.2" font-family="Helvetica,sans-Serif" font-size="11.00">varchar[100]</text>
<polygon fill="#ffffff" stroke="transparent" points="10.5,-39 10.5,-57 375.5,-57 375.5,-39 10.5,-39"/>
<polygon fill="none" stroke="black" points="10.5,-39 10.5,-57 375.5,-57 375.5,-39 10.5,-39"/>
<polygon fill="#ffffff" stroke="transparent" points="11.5,-40 11.5,-56 136.5,-56 136.5,-40 11.5,-40"/>
<text text-anchor="start" x="13.5" y="-45.2" font-family="Helvetica,sans-Serif" font-size="11.00">&lt; 0</text>
<polygon fill="#ffffff" stroke="transparent" points="136.5,-40 136.5,-56 249.5,-56 249.5,-40 136.5,-40"/>
<text text-anchor="start" x="189" y="-45.2" font-family="Helvetica,sans-Serif" font-size="11.00"> &#160;</text>
<polygon fill="#ffffff" stroke="transparent" points="249.5,-40 249.5,-56 374.5,-56 374.5,-40 249.5,-40"/>
<text text-anchor="start" x="352.5" y="-45.2" font-family="Helvetica,sans-Serif" font-size="11.00">1 &gt;</text>
<polygon fill="black" stroke="black" points="136.5,-40 136.5,-56 136.5,-56 136.5,-40 136.5,-40"/>
<polygon fill="black" stroke="black" points="249.5,-40 249.5,-56 249.5,-56 249.5,-40 249.5,-40"/>
<polygon fill="none" stroke="black" stroke-width="2" points="9,-38 9,-586 376,-586 376,-38 9,-38"/>
</a>
</g>
</g>
<!-- tww_od.sia405pt_protection_tube&#45;&gt;sia405pt_protection_tube_status -->
<g id="edge1" class="edge">
<title>tww_od.sia405pt_protection_tube:w&#45;&gt;sia405pt_protection_tube_status:e</title>
<path fill="none" stroke="black" d="M410.99,-552C399.68,-552 392.49,-552 376.5,-552"/>
<polygon fill="black" stroke="black" points="417.5,-552 425.5,-555.6 421.5,-552 425.5,-552 425.5,-552 425.5,-552 421.5,-552 425.5,-548.4 417.5,-552 417.5,-552"/>
<ellipse fill="none" stroke="black" cx="414.3" cy="-552" rx="3.2" ry="3.2"/>
</g>
</g>
</svg>
