<?xml version="1.0" encoding="UTF-8" standalone="no"?>
<!DOCTYPE svg PUBLIC "-//W3C//DTD SVG 1.1//EN"
 "http://www.w3.org/Graphics/SVG/1.1/DTD/svg11.dtd">
<!-- Generated by graphviz version 2.43.0 (0)
 -->
<!-- Title: oneDegreeRelationshipsDiagram Pages: 1 -->
<svg width="809pt" height="707pt"
 viewBox="0.00 0.00 809.00 707.00" xmlns="http://www.w3.org/2000/svg" xmlns:xlink="http://www.w3.org/1999/xlink">
<g id="graph0" class="graph" transform="scale(1 1) rotate(0) translate(4 703)">
<title>oneDegreeRelationshipsDiagram</title>
<polygon fill="#ffffff" stroke="transparent" points="-4,4 -4,-703 805,-703 805,4 -4,4"/>
<text text-anchor="middle" x="79.5" y="-7.2" font-family="Helvetica,sans-Serif" font-size="11.00">Generated by SchemaSpy</text>
<!-- tww_od.special_structure -->
<g id="node1" class="node">
<title>tww_od.special_structure</title>
<g id="a_node1"><a xlink:href="../../../tww_od/tables/special_structure.html" xlink:title="tww_od.special_structure" target="_top">
<polygon fill="#ffffff" stroke="transparent" points="546,-505 546,-695 793,-695 793,-505 546,-505"/>
<polygon fill="#f5f5f5" stroke="transparent" points="546.5,-673 546.5,-695 793.5,-695 793.5,-673 546.5,-673"/>
<polygon fill="none" stroke="black" points="546.5,-673 546.5,-695 793.5,-695 793.5,-673 546.5,-673"/>
<text text-anchor="start" x="551.5" y="-682.2" font-family="Helvetica,sans-Serif" font-weight="bold" font-size="11.00">tww_od.special_structure</text>
<text text-anchor="start" x="751.5" y="-681.2" font-family="Helvetica,sans-Serif" font-size="11.00">[table]</text>
<polygon fill="none" stroke="black" points="546.5,-651 546.5,-673 793.5,-673 793.5,-651 546.5,-651"/>
<image xlink:href="../../images/foreignKeys.png" width="11px" height="12px" preserveAspectRatio="xMinYMin meet" x="551.5" y="-668"/>
<text text-anchor="start" x="566.5" y="-659.2" font-family="Helvetica,sans-Serif" font-size="11.00">amphibian_exit</text>
<polygon fill="none" stroke="black" points="546.5,-629 546.5,-651 793.5,-651 793.5,-629 546.5,-629"/>
<image xlink:href="../../images/foreignKeys.png" width="11px" height="12px" preserveAspectRatio="xMinYMin meet" x="551.5" y="-646"/>
<text text-anchor="start" x="566.5" y="-637.2" font-family="Helvetica,sans-Serif" font-size="11.00">bypass</text>
<polygon fill="none" stroke="black" points="546.5,-607 546.5,-629 793.5,-629 793.5,-607 546.5,-607"/>
<image xlink:href="../../images/foreignKeys.png" width="11px" height="12px" preserveAspectRatio="xMinYMin meet" x="551.5" y="-624"/>
<text text-anchor="start" x="566.5" y="-615.2" font-family="Helvetica,sans-Serif" font-size="11.00">emergency_overflow</text>
<polygon fill="none" stroke="black" points="546.5,-585 546.5,-607 793.5,-607 793.5,-585 546.5,-585"/>
<image xlink:href="../../images/foreignKeys.png" width="11px" height="12px" preserveAspectRatio="xMinYMin meet" x="551.5" y="-602"/>
<text text-anchor="start" x="566.5" y="-593.2" font-family="Helvetica,sans-Serif" font-size="11.00">function</text>
<polygon fill="none" stroke="black" points="546.5,-563 546.5,-585 793.5,-585 793.5,-563 546.5,-563"/>
<image xlink:href="../../images/foreignKeys.png" width="11px" height="12px" preserveAspectRatio="xMinYMin meet" x="551.5" y="-580"/>
<text text-anchor="start" x="566.5" y="-571.2" font-family="Helvetica,sans-Serif" font-size="11.00">possibility_intervention</text>
<polygon fill="none" stroke="black" points="546.5,-541 546.5,-563 793.5,-563 793.5,-541 546.5,-541"/>
<image xlink:href="../../images/foreignKeys.png" width="11px" height="12px" preserveAspectRatio="xMinYMin meet" x="551.5" y="-558"/>
<text text-anchor="start" x="566.5" y="-549.2" font-family="Helvetica,sans-Serif" font-size="11.00">stormwater_tank_arrangement</text>
<polygon fill="none" stroke="black" points="546.5,-523 546.5,-541 793.5,-541 793.5,-523 546.5,-523"/>
<text text-anchor="start" x="549.5" y="-529.2" font-family="Helvetica,sans-Serif" font-size="11.00">...</text>
<polygon fill="#ffffff" stroke="transparent" points="546.5,-505 546.5,-523 793.5,-523 793.5,-505 546.5,-505"/>
<polygon fill="none" stroke="black" points="546.5,-505 546.5,-523 793.5,-523 793.5,-505 546.5,-505"/>
<polygon fill="#ffffff" stroke="transparent" points="547.5,-506 547.5,-522 627.5,-522 627.5,-506 547.5,-506"/>
<text text-anchor="start" x="549.5" y="-511.2" font-family="Helvetica,sans-Serif" font-size="11.00">&lt; 6</text>
<polygon fill="#ffffff" stroke="transparent" points="627.5,-506 627.5,-522 724.5,-522 724.5,-506 627.5,-506"/>
<text text-anchor="start" x="657.5" y="-511.2" font-family="Helvetica,sans-Serif" font-size="11.00">0 rows</text>
<polygon fill="#ffffff" stroke="transparent" points="724.5,-506 724.5,-522 792.5,-522 792.5,-506 724.5,-506"/>
<text text-anchor="start" x="782.5" y="-511.2" font-family="Helvetica,sans-Serif" font-size="11.00"> &#160;</text>
<polygon fill="black" stroke="black" points="627.5,-506 627.5,-522 627.5,-522 627.5,-506 627.5,-506"/>
<polygon fill="black" stroke="black" points="724.5,-506 724.5,-522 724.5,-522 724.5,-506 724.5,-506"/>
</a>
</g>
</g>
<!-- special_structure_stormwater_tank_arrangement -->
<g id="node2" class="node">
<title>special_structure_stormwater_tank_arrangement</title>
<g id="a_node2"><a xlink:href="../../tables/special_structure_stormwater_ta_419625b4.html" xlink:title="special_structure_stormwater_tank_arrangement" target="_top">
<polygon fill="#ffffff" stroke="transparent" points="8,-37 8,-587 497,-587 497,-37 8,-37"/>
<polygon fill="#f5f5f5" stroke="transparent" points="10.5,-563 10.5,-585 495.5,-585 495.5,-563 10.5,-563"/>
<polygon fill="none" stroke="black" points="10.5,-563 10.5,-585 495.5,-585 495.5,-563 10.5,-563"/>
<text text-anchor="start" x="15.5" y="-572.2" font-family="Helvetica,sans-Serif" font-weight="bold" font-size="11.00">special_structure_stormwater_tank_arrangement</text>
<text text-anchor="start" x="453.5" y="-571.2" font-family="Helvetica,sans-Serif" font-size="11.00">[table]</text>
<polygon fill="none" stroke="black" points="10.5,-541 10.5,-563 389.5,-563 389.5,-541 10.5,-541"/>
<image xlink:href="../../images/primaryKeys.png" width="11px" height="12px" preserveAspectRatio="xMinYMin meet" x="15.5" y="-558"/>
<text text-anchor="start" x="30.5" y="-549.2" font-family="Helvetica,sans-Serif" font-size="11.00">code</text>
<polygon fill="none" stroke="black" points="389.5,-541 389.5,-563 495.5,-563 495.5,-541 389.5,-541"/>
<text text-anchor="start" x="392.5" y="-549.2" font-family="Helvetica,sans-Serif" font-size="11.00">int4[10]</text>
<polygon fill="none" stroke="black" points="10.5,-519 10.5,-541 389.5,-541 389.5,-519 10.5,-519"/>
<text text-anchor="start" x="30.5" y="-527.2" font-family="Helvetica,sans-Serif" font-size="11.00">vsacode</text>
<polygon fill="none" stroke="black" points="389.5,-519 389.5,-541 495.5,-541 495.5,-519 389.5,-519"/>
<text text-anchor="start" x="392.5" y="-527.2" font-family="Helvetica,sans-Serif" font-size="11.00">int4[10]</text>
<polygon fill="none" stroke="black" points="10.5,-497 10.5,-519 389.5,-519 389.5,-497 10.5,-497"/>
<text text-anchor="start" x="30.5" y="-505.2" font-family="Helvetica,sans-Serif" font-size="11.00">value_en</text>
<polygon fill="none" stroke="black" points="389.5,-497 389.5,-519 495.5,-519 495.5,-497 389.5,-497"/>
<text text-anchor="start" x="392.5" y="-505.2" font-family="Helvetica,sans-Serif" font-size="11.00">varchar[100]</text>
<polygon fill="none" stroke="black" points="10.5,-475 10.5,-497 389.5,-497 389.5,-475 10.5,-475"/>
<text text-anchor="start" x="30.5" y="-483.2" font-family="Helvetica,sans-Serif" font-size="11.00">value_de</text>
<polygon fill="none" stroke="black" points="389.5,-475 389.5,-497 495.5,-497 495.5,-475 389.5,-475"/>
<text text-anchor="start" x="392.5" y="-483.2" font-family="Helvetica,sans-Serif" font-size="11.00">varchar[100]</text>
<polygon fill="none" stroke="black" points="10.5,-453 10.5,-475 389.5,-475 389.5,-453 10.5,-453"/>
<text text-anchor="start" x="30.5" y="-461.2" font-family="Helvetica,sans-Serif" font-size="11.00">value_fr</text>
<polygon fill="none" stroke="black" points="389.5,-453 389.5,-475 495.5,-475 495.5,-453 389.5,-453"/>
<text text-anchor="start" x="392.5" y="-461.2" font-family="Helvetica,sans-Serif" font-size="11.00">varchar[100]</text>
<polygon fill="none" stroke="black" points="10.5,-431 10.5,-453 389.5,-453 389.5,-431 10.5,-431"/>
<text text-anchor="start" x="30.5" y="-439.2" font-family="Helvetica,sans-Serif" font-size="11.00">value_it</text>
<polygon fill="none" stroke="black" points="389.5,-431 389.5,-453 495.5,-453 495.5,-431 389.5,-431"/>
<text text-anchor="start" x="392.5" y="-439.2" font-family="Helvetica,sans-Serif" font-size="11.00">varchar[100]</text>
<polygon fill="none" stroke="black" points="10.5,-409 10.5,-431 389.5,-431 389.5,-409 10.5,-409"/>
<text text-anchor="start" x="30.5" y="-417.2" font-family="Helvetica,sans-Serif" font-size="11.00">value_ro</text>
<polygon fill="none" stroke="black" points="389.5,-409 389.5,-431 495.5,-431 495.5,-409 389.5,-409"/>
<text text-anchor="start" x="392.5" y="-417.2" font-family="Helvetica,sans-Serif" font-size="11.00">varchar[100]</text>
<polygon fill="none" stroke="black" points="10.5,-387 10.5,-409 389.5,-409 389.5,-387 10.5,-387"/>
<text text-anchor="start" x="30.5" y="-395.2" font-family="Helvetica,sans-Serif" font-size="11.00">abbr_en</text>
<polygon fill="none" stroke="black" points="389.5,-387 389.5,-409 495.5,-409 495.5,-387 389.5,-387"/>
<text text-anchor="start" x="392.5" y="-395.2" font-family="Helvetica,sans-Serif" font-size="11.00">varchar[3]</text>
<polygon fill="none" stroke="black" points="10.5,-365 10.5,-387 389.5,-387 389.5,-365 10.5,-365"/>
<text text-anchor="start" x="30.5" y="-373.2" font-family="Helvetica,sans-Serif" font-size="11.00">abbr_de</text>
<polygon fill="none" stroke="black" points="389.5,-365 389.5,-387 495.5,-387 495.5,-365 389.5,-365"/>
<text text-anchor="start" x="392.5" y="-373.2" font-family="Helvetica,sans-Serif" font-size="11.00">varchar[3]</text>
<polygon fill="none" stroke="black" points="10.5,-343 10.5,-365 389.5,-365 389.5,-343 10.5,-343"/>
<text text-anchor="start" x="30.5" y="-351.2" font-family="Helvetica,sans-Serif" font-size="11.00">abbr_fr</text>
<polygon fill="none" stroke="black" points="389.5,-343 389.5,-365 495.5,-365 495.5,-343 389.5,-343"/>
<text text-anchor="start" x="392.5" y="-351.2" font-family="Helvetica,sans-Serif" font-size="11.00">varchar[3]</text>
<polygon fill="none" stroke="black" points="10.5,-321 10.5,-343 389.5,-343 389.5,-321 10.5,-321"/>
<text text-anchor="start" x="30.5" y="-329.2" font-family="Helvetica,sans-Serif" font-size="11.00">abbr_it</text>
<polygon fill="none" stroke="black" points="389.5,-321 389.5,-343 495.5,-343 495.5,-321 389.5,-321"/>
<text text-anchor="start" x="392.5" y="-329.2" font-family="Helvetica,sans-Serif" font-size="11.00">varchar[3]</text>
<polygon fill="none" stroke="black" points="10.5,-299 10.5,-321 389.5,-321 389.5,-299 10.5,-299"/>
<text text-anchor="start" x="30.5" y="-307.2" font-family="Helvetica,sans-Serif" font-size="11.00">abbr_ro</text>
<polygon fill="none" stroke="black" points="389.5,-299 389.5,-321 495.5,-321 495.5,-299 389.5,-299"/>
<text text-anchor="start" x="392.5" y="-307.2" font-family="Helvetica,sans-Serif" font-size="11.00">varchar[3]</text>
<polygon fill="none" stroke="black" points="10.5,-277 10.5,-299 389.5,-299 389.5,-277 10.5,-277"/>
<text text-anchor="start" x="30.5" y="-285.2" font-family="Helvetica,sans-Serif" font-size="11.00">active</text>
<polygon fill="none" stroke="black" points="389.5,-277 389.5,-299 495.5,-299 495.5,-277 389.5,-277"/>
<text text-anchor="start" x="392.5" y="-285.2" font-family="Helvetica,sans-Serif" font-size="11.00">bool[1]</text>
<polygon fill="none" stroke="black" points="10.5,-255 10.5,-277 389.5,-277 389.5,-255 10.5,-255"/>
<text text-anchor="start" x="30.5" y="-263.2" font-family="Helvetica,sans-Serif" font-size="11.00">description_en</text>
<polygon fill="none" stroke="black" points="389.5,-255 389.5,-277 495.5,-277 495.5,-255 389.5,-255"/>
<text text-anchor="start" x="392.5" y="-263.2" font-family="Helvetica,sans-Serif" font-size="11.00">text[2147483647]</text>
<polygon fill="none" stroke="black" points="10.5,-233 10.5,-255 389.5,-255 389.5,-233 10.5,-233"/>
<text text-anchor="start" x="30.5" y="-241.2" font-family="Helvetica,sans-Serif" font-size="11.00">description_de</text>
<polygon fill="none" stroke="black" points="389.5,-233 389.5,-255 495.5,-255 495.5,-233 389.5,-233"/>
<text text-anchor="start" x="392.5" y="-241.2" font-family="Helvetica,sans-Serif" font-size="11.00">text[2147483647]</text>
<polygon fill="none" stroke="black" points="10.5,-211 10.5,-233 389.5,-233 389.5,-211 10.5,-211"/>
<text text-anchor="start" x="30.5" y="-219.2" font-family="Helvetica,sans-Serif" font-size="11.00">description_fr</text>
<polygon fill="none" stroke="black" points="389.5,-211 389.5,-233 495.5,-233 495.5,-211 389.5,-211"/>
<text text-anchor="start" x="392.5" y="-219.2" font-family="Helvetica,sans-Serif" font-size="11.00">text[2147483647]</text>
<polygon fill="none" stroke="black" points="10.5,-189 10.5,-211 389.5,-211 389.5,-189 10.5,-189"/>
<text text-anchor="start" x="30.5" y="-197.2" font-family="Helvetica,sans-Serif" font-size="11.00">description_it</text>
<polygon fill="none" stroke="black" points="389.5,-189 389.5,-211 495.5,-211 495.5,-189 389.5,-189"/>
<text text-anchor="start" x="392.5" y="-197.2" font-family="Helvetica,sans-Serif" font-size="11.00">text[2147483647]</text>
<polygon fill="none" stroke="black" points="10.5,-167 10.5,-189 389.5,-189 389.5,-167 10.5,-167"/>
<text text-anchor="start" x="30.5" y="-175.2" font-family="Helvetica,sans-Serif" font-size="11.00">description_ro</text>
<polygon fill="none" stroke="black" points="389.5,-167 389.5,-189 495.5,-189 495.5,-167 389.5,-167"/>
<text text-anchor="start" x="392.5" y="-175.2" font-family="Helvetica,sans-Serif" font-size="11.00">text[2147483647]</text>
<polygon fill="none" stroke="black" points="10.5,-145 10.5,-167 389.5,-167 389.5,-145 10.5,-145"/>
<text text-anchor="start" x="30.5" y="-153.2" font-family="Helvetica,sans-Serif" font-size="11.00">display_en</text>
<polygon fill="none" stroke="black" points="389.5,-145 389.5,-167 495.5,-167 495.5,-145 389.5,-145"/>
<text text-anchor="start" x="392.5" y="-153.2" font-family="Helvetica,sans-Serif" font-size="11.00">varchar[100]</text>
<polygon fill="none" stroke="black" points="10.5,-123 10.5,-145 389.5,-145 389.5,-123 10.5,-123"/>
<text text-anchor="start" x="30.5" y="-131.2" font-family="Helvetica,sans-Serif" font-size="11.00">display_de</text>
<polygon fill="none" stroke="black" points="389.5,-123 389.5,-145 495.5,-145 495.5,-123 389.5,-123"/>
<text text-anchor="start" x="392.5" y="-131.2" font-family="Helvetica,sans-Serif" font-size="11.00">varchar[100]</text>
<polygon fill="none" stroke="black" points="10.5,-101 10.5,-123 389.5,-123 389.5,-101 10.5,-101"/>
<text text-anchor="start" x="30.5" y="-109.2" font-family="Helvetica,sans-Serif" font-size="11.00">display_fr</text>
<polygon fill="none" stroke="black" points="389.5,-101 389.5,-123 495.5,-123 495.5,-101 389.5,-101"/>
<text text-anchor="start" x="392.5" y="-109.2" font-family="Helvetica,sans-Serif" font-size="11.00">varchar[100]</text>
<polygon fill="none" stroke="black" points="10.5,-79 10.5,-101 389.5,-101 389.5,-79 10.5,-79"/>
<text text-anchor="start" x="30.5" y="-87.2" font-family="Helvetica,sans-Serif" font-size="11.00">display_it</text>
<polygon fill="none" stroke="black" points="389.5,-79 389.5,-101 495.5,-101 495.5,-79 389.5,-79"/>
<text text-anchor="start" x="392.5" y="-87.2" font-family="Helvetica,sans-Serif" font-size="11.00">varchar[100]</text>
<polygon fill="none" stroke="black" points="10.5,-57 10.5,-79 389.5,-79 389.5,-57 10.5,-57"/>
<text text-anchor="start" x="30.5" y="-65.2" font-family="Helvetica,sans-Serif" font-size="11.00">display_ro</text>
<polygon fill="none" stroke="black" points="389.5,-57 389.5,-79 495.5,-79 495.5,-57 389.5,-57"/>
<text text-anchor="start" x="392.5" y="-65.2" font-family="Helvetica,sans-Serif" font-size="11.00">varchar[100]</text>
<polygon fill="#ffffff" stroke="transparent" points="10.5,-39 10.5,-57 495.5,-57 495.5,-39 10.5,-39"/>
<polygon fill="none" stroke="black" points="10.5,-39 10.5,-57 495.5,-57 495.5,-39 10.5,-39"/>
<polygon fill="#ffffff" stroke="transparent" points="11.5,-40 11.5,-56 176.5,-56 176.5,-40 11.5,-40"/>
<text text-anchor="start" x="13.5" y="-45.2" font-family="Helvetica,sans-Serif" font-size="11.00">&lt; 0</text>
<polygon fill="#ffffff" stroke="transparent" points="176.5,-40 176.5,-56 329.5,-56 329.5,-40 176.5,-40"/>
<text text-anchor="start" x="249" y="-45.2" font-family="Helvetica,sans-Serif" font-size="11.00"> &#160;</text>
<polygon fill="#ffffff" stroke="transparent" points="329.5,-40 329.5,-56 494.5,-56 494.5,-40 329.5,-40"/>
<text text-anchor="start" x="472.5" y="-45.2" font-family="Helvetica,sans-Serif" font-size="11.00">1 &gt;</text>
<polygon fill="black" stroke="black" points="176.5,-40 176.5,-56 176.5,-56 176.5,-40 176.5,-40"/>
<polygon fill="black" stroke="black" points="329.5,-40 329.5,-56 329.5,-56 329.5,-40 329.5,-40"/>
<polygon fill="none" stroke="black" stroke-width="2" points="9,-38 9,-586 496,-586 496,-38 9,-38"/>
</a>
</g>
</g>
<!-- tww_od.special_structure&#45;&gt;special_structure_stormwater_tank_arrangement -->
<g id="edge1" class="edge">
<title>tww_od.special_structure:w&#45;&gt;special_structure_stormwater_tank_arrangement:e</title>
<path fill="none" stroke="black" d="M530.99,-552C519.68,-552 512.49,-552 496.5,-552"/>
<polygon fill="black" stroke="black" points="537.5,-552 545.5,-555.6 541.5,-552 545.5,-552 545.5,-552 545.5,-552 541.5,-552 545.5,-548.4 537.5,-552 537.5,-552"/>
<ellipse fill="none" stroke="black" cx="534.3" cy="-552" rx="3.2" ry="3.2"/>
</g>
</g>
</svg>
