<?xml version="1.0" encoding="UTF-8" standalone="no"?>
<!DOCTYPE svg PUBLIC "-//W3C//DTD SVG 1.1//EN"
 "http://www.w3.org/Graphics/SVG/1.1/DTD/svg11.dtd">
<!-- Generated by graphviz version 2.43.0 (0)
 -->
<!-- Title: oneDegreeRelationshipsDiagram Pages: 1 -->
<svg width="551pt" height="599pt"
 viewBox="0.00 0.00 551.00 599.00" xmlns="http://www.w3.org/2000/svg" xmlns:xlink="http://www.w3.org/1999/xlink">
<g id="graph0" class="graph" transform="scale(1 1) rotate(0) translate(4 595)">
<title>oneDegreeRelationshipsDiagram</title>
<polygon fill="#ffffff" stroke="transparent" points="-4,4 -4,-595 547,-595 547,4 -4,4"/>
<text text-anchor="middle" x="79.5" y="-7.2" font-family="Helvetica,sans-Serif" font-size="11.00">Generated by SchemaSpy</text>
<!-- tww_od.tank_cleaning -->
<g id="node1" class="node">
<title>tww_od.tank_cleaning</title>
<g id="a_node1"><a xlink:href="../../../tww_od/tables/tank_cleaning.html" xlink:title="tww_od.tank_cleaning" target="_top">
<polygon fill="#ffffff" stroke="transparent" points="327,-505 327,-585 535,-585 535,-505 327,-505"/>
<polygon fill="#f5f5f5" stroke="transparent" points="327,-563 327,-585 535,-585 535,-563 327,-563"/>
<polygon fill="none" stroke="black" points="327,-563 327,-585 535,-585 535,-563 327,-563"/>
<text text-anchor="start" x="332" y="-572.2" font-family="Helvetica,sans-Serif" font-weight="bold" font-size="11.00">tww_od.tank_cleaning</text>
<text text-anchor="start" x="493" y="-571.2" font-family="Helvetica,sans-Serif" font-size="11.00">[table]</text>
<polygon fill="none" stroke="black" points="327,-541 327,-563 535,-563 535,-541 327,-541"/>
<image xlink:href="../../images/foreignKeys.png" width="11px" height="12px" preserveAspectRatio="xMinYMin meet" x="332" y="-558"/>
<text text-anchor="start" x="365" y="-549.2" font-family="Helvetica,sans-Serif" font-size="11.00">kind</text>
<polygon fill="none" stroke="black" points="327,-523 327,-541 535,-541 535,-523 327,-523"/>
<text text-anchor="start" x="330" y="-529.2" font-family="Helvetica,sans-Serif" font-size="11.00">...</text>
<polygon fill="#ffffff" stroke="transparent" points="327,-505 327,-523 535,-523 535,-505 327,-505"/>
<polygon fill="none" stroke="black" points="327,-505 327,-523 535,-523 535,-505 327,-505"/>
<polygon fill="#ffffff" stroke="transparent" points="328,-506 328,-522 395,-522 395,-506 328,-506"/>
<text text-anchor="start" x="330" y="-511.2" font-family="Helvetica,sans-Serif" font-size="11.00">&lt; 1</text>
<polygon fill="#ffffff" stroke="transparent" points="395,-506 395,-522 479,-522 479,-506 395,-506"/>
<text text-anchor="start" x="418.5" y="-511.2" font-family="Helvetica,sans-Serif" font-size="11.00">0 rows</text>
<polygon fill="#ffffff" stroke="transparent" points="479,-506 479,-522 534,-522 534,-506 479,-506"/>
<text text-anchor="start" x="524" y="-511.2" font-family="Helvetica,sans-Serif" font-size="11.00"> &#160;</text>
<polygon fill="black" stroke="black" points="395,-506 395,-522 395,-522 395,-506 395,-506"/>
<polygon fill="black" stroke="black" points="479,-506 479,-522 479,-522 479,-506 479,-506"/>
</a>
</g>
</g>
<!-- tank_cleaning_kind -->
<g id="node2" class="node">
<title>tank_cleaning_kind</title>
<g id="a_node2"><a xlink:href="../../tables/tank_cleaning_kind.html" xlink:title="tank_cleaning_kind" target="_top">
<polygon fill="#ffffff" stroke="transparent" points="8,-37 8,-587 278,-587 278,-37 8,-37"/>
<polygon fill="#f5f5f5" stroke="transparent" points="10,-563 10,-585 276,-585 276,-563 10,-563"/>
<polygon fill="none" stroke="black" points="10,-563 10,-585 276,-585 276,-563 10,-563"/>
<text text-anchor="start" x="15" y="-572.2" font-family="Helvetica,sans-Serif" font-weight="bold" font-size="11.00">tank_cleaning_kind</text>
<text text-anchor="start" x="234" y="-571.2" font-family="Helvetica,sans-Serif" font-size="11.00">[table]</text>
<polygon fill="none" stroke="black" points="10,-541 10,-563 170,-563 170,-541 10,-541"/>
<image xlink:href="../../images/primaryKeys.png" width="11px" height="12px" preserveAspectRatio="xMinYMin meet" x="15" y="-558"/>
<text text-anchor="start" x="30" y="-549.2" font-family="Helvetica,sans-Serif" font-size="11.00">code</text>
<polygon fill="none" stroke="black" points="170,-541 170,-563 276,-563 276,-541 170,-541"/>
<text text-anchor="start" x="173" y="-549.2" font-family="Helvetica,sans-Serif" font-size="11.00">int4[10]</text>
<polygon fill="none" stroke="black" points="10,-519 10,-541 170,-541 170,-519 10,-519"/>
<text text-anchor="start" x="30" y="-527.2" font-family="Helvetica,sans-Serif" font-size="11.00">vsacode</text>
<polygon fill="none" stroke="black" points="170,-519 170,-541 276,-541 276,-519 170,-519"/>
<text text-anchor="start" x="173" y="-527.2" font-family="Helvetica,sans-Serif" font-size="11.00">int4[10]</text>
<polygon fill="none" stroke="black" points="10,-497 10,-519 170,-519 170,-497 10,-497"/>
<text text-anchor="start" x="30" y="-505.2" font-family="Helvetica,sans-Serif" font-size="11.00">value_en</text>
<polygon fill="none" stroke="black" points="170,-497 170,-519 276,-519 276,-497 170,-497"/>
<text text-anchor="start" x="173" y="-505.2" font-family="Helvetica,sans-Serif" font-size="11.00">varchar[100]</text>
<polygon fill="none" stroke="black" points="10,-475 10,-497 170,-497 170,-475 10,-475"/>
<text text-anchor="start" x="30" y="-483.2" font-family="Helvetica,sans-Serif" font-size="11.00">value_de</text>
<polygon fill="none" stroke="black" points="170,-475 170,-497 276,-497 276,-475 170,-475"/>
<text text-anchor="start" x="173" y="-483.2" font-family="Helvetica,sans-Serif" font-size="11.00">varchar[100]</text>
<polygon fill="none" stroke="black" points="10,-453 10,-475 170,-475 170,-453 10,-453"/>
<text text-anchor="start" x="30" y="-461.2" font-family="Helvetica,sans-Serif" font-size="11.00">value_fr</text>
<polygon fill="none" stroke="black" points="170,-453 170,-475 276,-475 276,-453 170,-453"/>
<text text-anchor="start" x="173" y="-461.2" font-family="Helvetica,sans-Serif" font-size="11.00">varchar[100]</text>
<polygon fill="none" stroke="black" points="10,-431 10,-453 170,-453 170,-431 10,-431"/>
<text text-anchor="start" x="30" y="-439.2" font-family="Helvetica,sans-Serif" font-size="11.00">value_it</text>
<polygon fill="none" stroke="black" points="170,-431 170,-453 276,-453 276,-431 170,-431"/>
<text text-anchor="start" x="173" y="-439.2" font-family="Helvetica,sans-Serif" font-size="11.00">varchar[100]</text>
<polygon fill="none" stroke="black" points="10,-409 10,-431 170,-431 170,-409 10,-409"/>
<text text-anchor="start" x="30" y="-417.2" font-family="Helvetica,sans-Serif" font-size="11.00">value_ro</text>
<polygon fill="none" stroke="black" points="170,-409 170,-431 276,-431 276,-409 170,-409"/>
<text text-anchor="start" x="173" y="-417.2" font-family="Helvetica,sans-Serif" font-size="11.00">varchar[100]</text>
<polygon fill="none" stroke="black" points="10,-387 10,-409 170,-409 170,-387 10,-387"/>
<text text-anchor="start" x="30" y="-395.2" font-family="Helvetica,sans-Serif" font-size="11.00">abbr_en</text>
<polygon fill="none" stroke="black" points="170,-387 170,-409 276,-409 276,-387 170,-387"/>
<text text-anchor="start" x="173" y="-395.2" font-family="Helvetica,sans-Serif" font-size="11.00">varchar[3]</text>
<polygon fill="none" stroke="black" points="10,-365 10,-387 170,-387 170,-365 10,-365"/>
<text text-anchor="start" x="30" y="-373.2" font-family="Helvetica,sans-Serif" font-size="11.00">abbr_de</text>
<polygon fill="none" stroke="black" points="170,-365 170,-387 276,-387 276,-365 170,-365"/>
<text text-anchor="start" x="173" y="-373.2" font-family="Helvetica,sans-Serif" font-size="11.00">varchar[3]</text>
<polygon fill="none" stroke="black" points="10,-343 10,-365 170,-365 170,-343 10,-343"/>
<text text-anchor="start" x="30" y="-351.2" font-family="Helvetica,sans-Serif" font-size="11.00">abbr_fr</text>
<polygon fill="none" stroke="black" points="170,-343 170,-365 276,-365 276,-343 170,-343"/>
<text text-anchor="start" x="173" y="-351.2" font-family="Helvetica,sans-Serif" font-size="11.00">varchar[3]</text>
<polygon fill="none" stroke="black" points="10,-321 10,-343 170,-343 170,-321 10,-321"/>
<text text-anchor="start" x="30" y="-329.2" font-family="Helvetica,sans-Serif" font-size="11.00">abbr_it</text>
<polygon fill="none" stroke="black" points="170,-321 170,-343 276,-343 276,-321 170,-321"/>
<text text-anchor="start" x="173" y="-329.2" font-family="Helvetica,sans-Serif" font-size="11.00">varchar[3]</text>
<polygon fill="none" stroke="black" points="10,-299 10,-321 170,-321 170,-299 10,-299"/>
<text text-anchor="start" x="30" y="-307.2" font-family="Helvetica,sans-Serif" font-size="11.00">abbr_ro</text>
<polygon fill="none" stroke="black" points="170,-299 170,-321 276,-321 276,-299 170,-299"/>
<text text-anchor="start" x="173" y="-307.2" font-family="Helvetica,sans-Serif" font-size="11.00">varchar[3]</text>
<polygon fill="none" stroke="black" points="10,-277 10,-299 170,-299 170,-277 10,-277"/>
<text text-anchor="start" x="30" y="-285.2" font-family="Helvetica,sans-Serif" font-size="11.00">active</text>
<polygon fill="none" stroke="black" points="170,-277 170,-299 276,-299 276,-277 170,-277"/>
<text text-anchor="start" x="173" y="-285.2" font-family="Helvetica,sans-Serif" font-size="11.00">bool[1]</text>
<polygon fill="none" stroke="black" points="10,-255 10,-277 170,-277 170,-255 10,-255"/>
<text text-anchor="start" x="30" y="-263.2" font-family="Helvetica,sans-Serif" font-size="11.00">description_en</text>
<polygon fill="none" stroke="black" points="170,-255 170,-277 276,-277 276,-255 170,-255"/>
<text text-anchor="start" x="173" y="-263.2" font-family="Helvetica,sans-Serif" font-size="11.00">text[2147483647]</text>
<polygon fill="none" stroke="black" points="10,-233 10,-255 170,-255 170,-233 10,-233"/>
<text text-anchor="start" x="30" y="-241.2" font-family="Helvetica,sans-Serif" font-size="11.00">description_de</text>
<polygon fill="none" stroke="black" points="170,-233 170,-255 276,-255 276,-233 170,-233"/>
<text text-anchor="start" x="173" y="-241.2" font-family="Helvetica,sans-Serif" font-size="11.00">text[2147483647]</text>
<polygon fill="none" stroke="black" points="10,-211 10,-233 170,-233 170,-211 10,-211"/>
<text text-anchor="start" x="30" y="-219.2" font-family="Helvetica,sans-Serif" font-size="11.00">description_fr</text>
<polygon fill="none" stroke="black" points="170,-211 170,-233 276,-233 276,-211 170,-211"/>
<text text-anchor="start" x="173" y="-219.2" font-family="Helvetica,sans-Serif" font-size="11.00">text[2147483647]</text>
<polygon fill="none" stroke="black" points="10,-189 10,-211 170,-211 170,-189 10,-189"/>
<text text-anchor="start" x="30" y="-197.2" font-family="Helvetica,sans-Serif" font-size="11.00">description_it</text>
<polygon fill="none" stroke="black" points="170,-189 170,-211 276,-211 276,-189 170,-189"/>
<text text-anchor="start" x="173" y="-197.2" font-family="Helvetica,sans-Serif" font-size="11.00">text[2147483647]</text>
<polygon fill="none" stroke="black" points="10,-167 10,-189 170,-189 170,-167 10,-167"/>
<text text-anchor="start" x="30" y="-175.2" font-family="Helvetica,sans-Serif" font-size="11.00">description_ro</text>
<polygon fill="none" stroke="black" points="170,-167 170,-189 276,-189 276,-167 170,-167"/>
<text text-anchor="start" x="173" y="-175.2" font-family="Helvetica,sans-Serif" font-size="11.00">text[2147483647]</text>
<polygon fill="none" stroke="black" points="10,-145 10,-167 170,-167 170,-145 10,-145"/>
<text text-anchor="start" x="30" y="-153.2" font-family="Helvetica,sans-Serif" font-size="11.00">display_en</text>
<polygon fill="none" stroke="black" points="170,-145 170,-167 276,-167 276,-145 170,-145"/>
<text text-anchor="start" x="173" y="-153.2" font-family="Helvetica,sans-Serif" font-size="11.00">varchar[100]</text>
<polygon fill="none" stroke="black" points="10,-123 10,-145 170,-145 170,-123 10,-123"/>
<text text-anchor="start" x="30" y="-131.2" font-family="Helvetica,sans-Serif" font-size="11.00">display_de</text>
<polygon fill="none" stroke="black" points="170,-123 170,-145 276,-145 276,-123 170,-123"/>
<text text-anchor="start" x="173" y="-131.2" font-family="Helvetica,sans-Serif" font-size="11.00">varchar[100]</text>
<polygon fill="none" stroke="black" points="10,-101 10,-123 170,-123 170,-101 10,-101"/>
<text text-anchor="start" x="30" y="-109.2" font-family="Helvetica,sans-Serif" font-size="11.00">display_fr</text>
<polygon fill="none" stroke="black" points="170,-101 170,-123 276,-123 276,-101 170,-101"/>
<text text-anchor="start" x="173" y="-109.2" font-family="Helvetica,sans-Serif" font-size="11.00">varchar[100]</text>
<polygon fill="none" stroke="black" points="10,-79 10,-101 170,-101 170,-79 10,-79"/>
<text text-anchor="start" x="30" y="-87.2" font-family="Helvetica,sans-Serif" font-size="11.00">display_it</text>
<polygon fill="none" stroke="black" points="170,-79 170,-101 276,-101 276,-79 170,-79"/>
<text text-anchor="start" x="173" y="-87.2" font-family="Helvetica,sans-Serif" font-size="11.00">varchar[100]</text>
<polygon fill="none" stroke="black" points="10,-57 10,-79 170,-79 170,-57 10,-57"/>
<text text-anchor="start" x="30" y="-65.2" font-family="Helvetica,sans-Serif" font-size="11.00">display_ro</text>
<polygon fill="none" stroke="black" points="170,-57 170,-79 276,-79 276,-57 170,-57"/>
<text text-anchor="start" x="173" y="-65.2" font-family="Helvetica,sans-Serif" font-size="11.00">varchar[100]</text>
<polygon fill="#ffffff" stroke="transparent" points="10,-39 10,-57 276,-57 276,-39 10,-39"/>
<polygon fill="none" stroke="black" points="10,-39 10,-57 276,-57 276,-39 10,-39"/>
<polygon fill="#ffffff" stroke="transparent" points="11,-40 11,-56 103,-56 103,-40 11,-40"/>
<text text-anchor="start" x="13" y="-45.2" font-family="Helvetica,sans-Serif" font-size="11.00">&lt; 0</text>
<polygon fill="#ffffff" stroke="transparent" points="103,-40 103,-56 183,-56 183,-40 103,-40"/>
<text text-anchor="start" x="139" y="-45.2" font-family="Helvetica,sans-Serif" font-size="11.00"> &#160;</text>
<polygon fill="#ffffff" stroke="transparent" points="183,-40 183,-56 275,-56 275,-40 183,-40"/>
<text text-anchor="start" x="253" y="-45.2" font-family="Helvetica,sans-Serif" font-size="11.00">1 &gt;</text>
<polygon fill="black" stroke="black" points="103,-40 103,-56 103,-56 103,-40 103,-40"/>
<polygon fill="black" stroke="black" points="183,-40 183,-56 183,-56 183,-40 183,-40"/>
<polygon fill="none" stroke="black" stroke-width="2" points="9,-38 9,-586 277,-586 277,-38 9,-38"/>
</a>
</g>
</g>
<!-- tww_od.tank_cleaning&#45;&gt;tank_cleaning_kind -->
<g id="edge1" class="edge">
<title>tww_od.tank_cleaning:w&#45;&gt;tank_cleaning_kind:e</title>
<path fill="none" stroke="black" d="M311.49,-552C300.18,-552 292.99,-552 277,-552"/>
<polygon fill="black" stroke="black" points="318,-552 326,-555.6 322,-552 326,-552 326,-552 326,-552 322,-552 326,-548.4 318,-552 318,-552"/>
<ellipse fill="none" stroke="black" cx="314.8" cy="-552" rx="3.2" ry="3.2"/>
</g>
</g>
</svg>
