<?xml version="1.0" encoding="UTF-8" standalone="no"?>
<!DOCTYPE svg PUBLIC "-//W3C//DTD SVG 1.1//EN"
 "http://www.w3.org/Graphics/SVG/1.1/DTD/svg11.dtd">
<!-- Generated by graphviz version 2.43.0 (0)
 -->
<!-- Title: oneDegreeRelationshipsDiagram Pages: 1 -->
<svg width="831pt" height="685pt"
 viewBox="0.00 0.00 831.00 685.00" xmlns="http://www.w3.org/2000/svg" xmlns:xlink="http://www.w3.org/1999/xlink">
<g id="graph0" class="graph" transform="scale(1 1) rotate(0) translate(4 681)">
<title>oneDegreeRelationshipsDiagram</title>
<polygon fill="#ffffff" stroke="transparent" points="-4,4 -4,-681 827,-681 827,4 -4,4"/>
<text text-anchor="middle" x="79.5" y="-7.2" font-family="Helvetica,sans-Serif" font-size="11.00">Generated by SchemaSpy</text>
<!-- tww_od.throttle_shut_off_unit -->
<g id="node1" class="node">
<title>tww_od.throttle_shut_off_unit</title>
<g id="a_node1"><a xlink:href="../../../tww_od/tables/throttle_shut_off_unit.html" xlink:title="tww_od.throttle_shut_off_unit" target="_top">
<polygon fill="#ffffff" stroke="transparent" points="497,-505 497,-673 815,-673 815,-505 497,-505"/>
<polygon fill="#f5f5f5" stroke="transparent" points="497,-651 497,-673 815,-673 815,-651 497,-651"/>
<polygon fill="none" stroke="black" points="497,-651 497,-673 815,-673 815,-651 497,-651"/>
<text text-anchor="start" x="502" y="-660.2" font-family="Helvetica,sans-Serif" font-weight="bold" font-size="11.00">tww_od.throttle_shut_off_unit</text>
<text text-anchor="start" x="773" y="-659.2" font-family="Helvetica,sans-Serif" font-size="11.00">[table]</text>
<polygon fill="none" stroke="black" points="497,-629 497,-651 815,-651 815,-629 497,-629"/>
<image xlink:href="../../images/foreignKeys.png" width="11px" height="12px" preserveAspectRatio="xMinYMin meet" x="502" y="-646"/>
<text text-anchor="start" x="517" y="-637.2" font-family="Helvetica,sans-Serif" font-size="11.00">actuation</text>
<polygon fill="none" stroke="black" points="497,-607 497,-629 815,-629 815,-607 497,-607"/>
<image xlink:href="../../images/foreignKeys.png" width="11px" height="12px" preserveAspectRatio="xMinYMin meet" x="502" y="-624"/>
<text text-anchor="start" x="517" y="-615.2" font-family="Helvetica,sans-Serif" font-size="11.00">adjustability</text>
<polygon fill="none" stroke="black" points="497,-585 497,-607 815,-607 815,-585 497,-585"/>
<image xlink:href="../../images/foreignKeys.png" width="11px" height="12px" preserveAspectRatio="xMinYMin meet" x="502" y="-602"/>
<text text-anchor="start" x="517" y="-593.2" font-family="Helvetica,sans-Serif" font-size="11.00">control</text>
<polygon fill="none" stroke="black" points="497,-563 497,-585 815,-585 815,-563 497,-563"/>
<image xlink:href="../../images/foreignKeys.png" width="11px" height="12px" preserveAspectRatio="xMinYMin meet" x="502" y="-580"/>
<text text-anchor="start" x="517" y="-571.2" font-family="Helvetica,sans-Serif" font-size="11.00">kind</text>
<polygon fill="none" stroke="black" points="497,-541 497,-563 815,-563 815,-541 497,-541"/>
<image xlink:href="../../images/foreignKeys.png" width="11px" height="12px" preserveAspectRatio="xMinYMin meet" x="502" y="-558"/>
<text text-anchor="start" x="517" y="-549.2" font-family="Helvetica,sans-Serif" font-size="11.00">signal_transmission</text>
<polygon fill="none" stroke="black" points="497,-523 497,-541 815,-541 815,-523 497,-523"/>
<text text-anchor="start" x="500" y="-529.2" font-family="Helvetica,sans-Serif" font-size="11.00">...</text>
<polygon fill="#ffffff" stroke="transparent" points="497,-505 497,-523 815,-523 815,-505 497,-505"/>
<polygon fill="none" stroke="black" points="497,-505 497,-523 815,-523 815,-505 497,-505"/>
<polygon fill="#ffffff" stroke="transparent" points="498,-506 498,-522 602,-522 602,-506 498,-506"/>
<text text-anchor="start" x="500" y="-511.2" font-family="Helvetica,sans-Serif" font-size="11.00">&lt; 5</text>
<polygon fill="#ffffff" stroke="transparent" points="602,-506 602,-522 723,-522 723,-506 602,-506"/>
<text text-anchor="start" x="644" y="-511.2" font-family="Helvetica,sans-Serif" font-size="11.00">0 rows</text>
<polygon fill="#ffffff" stroke="transparent" points="723,-506 723,-522 814,-522 814,-506 723,-506"/>
<text text-anchor="start" x="804" y="-511.2" font-family="Helvetica,sans-Serif" font-size="11.00"> &#160;</text>
<polygon fill="black" stroke="black" points="602,-506 602,-522 602,-522 602,-506 602,-506"/>
<polygon fill="black" stroke="black" points="723,-506 723,-522 723,-522 723,-506 723,-506"/>
</a>
</g>
</g>
<!-- throttle_shut_off_unit_signal_transmission -->
<g id="node2" class="node">
<title>throttle_shut_off_unit_signal_transmission</title>
<g id="a_node2"><a xlink:href="../../tables/throttle_shut_off_unit_signal_t_efcd6086.html" xlink:title="throttle_shut_off_unit_signal_transmission" target="_top">
<polygon fill="#ffffff" stroke="transparent" points="8,-37 8,-587 448,-587 448,-37 8,-37"/>
<polygon fill="#f5f5f5" stroke="transparent" points="10,-563 10,-585 446,-585 446,-563 10,-563"/>
<polygon fill="none" stroke="black" points="10,-563 10,-585 446,-585 446,-563 10,-563"/>
<text text-anchor="start" x="15" y="-572.2" font-family="Helvetica,sans-Serif" font-weight="bold" font-size="11.00">throttle_shut_off_unit_signal_transmission</text>
<text text-anchor="start" x="404" y="-571.2" font-family="Helvetica,sans-Serif" font-size="11.00">[table]</text>
<polygon fill="none" stroke="black" points="10,-541 10,-563 340,-563 340,-541 10,-541"/>
<image xlink:href="../../images/primaryKeys.png" width="11px" height="12px" preserveAspectRatio="xMinYMin meet" x="15" y="-558"/>
<text text-anchor="start" x="30" y="-549.2" font-family="Helvetica,sans-Serif" font-size="11.00">code</text>
<polygon fill="none" stroke="black" points="340,-541 340,-563 446,-563 446,-541 340,-541"/>
<text text-anchor="start" x="343" y="-549.2" font-family="Helvetica,sans-Serif" font-size="11.00">int4[10]</text>
<polygon fill="none" stroke="black" points="10,-519 10,-541 340,-541 340,-519 10,-519"/>
<text text-anchor="start" x="30" y="-527.2" font-family="Helvetica,sans-Serif" font-size="11.00">vsacode</text>
<polygon fill="none" stroke="black" points="340,-519 340,-541 446,-541 446,-519 340,-519"/>
<text text-anchor="start" x="343" y="-527.2" font-family="Helvetica,sans-Serif" font-size="11.00">int4[10]</text>
<polygon fill="none" stroke="black" points="10,-497 10,-519 340,-519 340,-497 10,-497"/>
<text text-anchor="start" x="30" y="-505.2" font-family="Helvetica,sans-Serif" font-size="11.00">value_en</text>
<polygon fill="none" stroke="black" points="340,-497 340,-519 446,-519 446,-497 340,-497"/>
<text text-anchor="start" x="343" y="-505.2" font-family="Helvetica,sans-Serif" font-size="11.00">varchar[100]</text>
<polygon fill="none" stroke="black" points="10,-475 10,-497 340,-497 340,-475 10,-475"/>
<text text-anchor="start" x="30" y="-483.2" font-family="Helvetica,sans-Serif" font-size="11.00">value_de</text>
<polygon fill="none" stroke="black" points="340,-475 340,-497 446,-497 446,-475 340,-475"/>
<text text-anchor="start" x="343" y="-483.2" font-family="Helvetica,sans-Serif" font-size="11.00">varchar[100]</text>
<polygon fill="none" stroke="black" points="10,-453 10,-475 340,-475 340,-453 10,-453"/>
<text text-anchor="start" x="30" y="-461.2" font-family="Helvetica,sans-Serif" font-size="11.00">value_fr</text>
<polygon fill="none" stroke="black" points="340,-453 340,-475 446,-475 446,-453 340,-453"/>
<text text-anchor="start" x="343" y="-461.2" font-family="Helvetica,sans-Serif" font-size="11.00">varchar[100]</text>
<polygon fill="none" stroke="black" points="10,-431 10,-453 340,-453 340,-431 10,-431"/>
<text text-anchor="start" x="30" y="-439.2" font-family="Helvetica,sans-Serif" font-size="11.00">value_it</text>
<polygon fill="none" stroke="black" points="340,-431 340,-453 446,-453 446,-431 340,-431"/>
<text text-anchor="start" x="343" y="-439.2" font-family="Helvetica,sans-Serif" font-size="11.00">varchar[100]</text>
<polygon fill="none" stroke="black" points="10,-409 10,-431 340,-431 340,-409 10,-409"/>
<text text-anchor="start" x="30" y="-417.2" font-family="Helvetica,sans-Serif" font-size="11.00">value_ro</text>
<polygon fill="none" stroke="black" points="340,-409 340,-431 446,-431 446,-409 340,-409"/>
<text text-anchor="start" x="343" y="-417.2" font-family="Helvetica,sans-Serif" font-size="11.00">varchar[100]</text>
<polygon fill="none" stroke="black" points="10,-387 10,-409 340,-409 340,-387 10,-387"/>
<text text-anchor="start" x="30" y="-395.2" font-family="Helvetica,sans-Serif" font-size="11.00">abbr_en</text>
<polygon fill="none" stroke="black" points="340,-387 340,-409 446,-409 446,-387 340,-387"/>
<text text-anchor="start" x="343" y="-395.2" font-family="Helvetica,sans-Serif" font-size="11.00">varchar[3]</text>
<polygon fill="none" stroke="black" points="10,-365 10,-387 340,-387 340,-365 10,-365"/>
<text text-anchor="start" x="30" y="-373.2" font-family="Helvetica,sans-Serif" font-size="11.00">abbr_de</text>
<polygon fill="none" stroke="black" points="340,-365 340,-387 446,-387 446,-365 340,-365"/>
<text text-anchor="start" x="343" y="-373.2" font-family="Helvetica,sans-Serif" font-size="11.00">varchar[3]</text>
<polygon fill="none" stroke="black" points="10,-343 10,-365 340,-365 340,-343 10,-343"/>
<text text-anchor="start" x="30" y="-351.2" font-family="Helvetica,sans-Serif" font-size="11.00">abbr_fr</text>
<polygon fill="none" stroke="black" points="340,-343 340,-365 446,-365 446,-343 340,-343"/>
<text text-anchor="start" x="343" y="-351.2" font-family="Helvetica,sans-Serif" font-size="11.00">varchar[3]</text>
<polygon fill="none" stroke="black" points="10,-321 10,-343 340,-343 340,-321 10,-321"/>
<text text-anchor="start" x="30" y="-329.2" font-family="Helvetica,sans-Serif" font-size="11.00">abbr_it</text>
<polygon fill="none" stroke="black" points="340,-321 340,-343 446,-343 446,-321 340,-321"/>
<text text-anchor="start" x="343" y="-329.2" font-family="Helvetica,sans-Serif" font-size="11.00">varchar[3]</text>
<polygon fill="none" stroke="black" points="10,-299 10,-321 340,-321 340,-299 10,-299"/>
<text text-anchor="start" x="30" y="-307.2" font-family="Helvetica,sans-Serif" font-size="11.00">abbr_ro</text>
<polygon fill="none" stroke="black" points="340,-299 340,-321 446,-321 446,-299 340,-299"/>
<text text-anchor="start" x="343" y="-307.2" font-family="Helvetica,sans-Serif" font-size="11.00">varchar[3]</text>
<polygon fill="none" stroke="black" points="10,-277 10,-299 340,-299 340,-277 10,-277"/>
<text text-anchor="start" x="30" y="-285.2" font-family="Helvetica,sans-Serif" font-size="11.00">active</text>
<polygon fill="none" stroke="black" points="340,-277 340,-299 446,-299 446,-277 340,-277"/>
<text text-anchor="start" x="343" y="-285.2" font-family="Helvetica,sans-Serif" font-size="11.00">bool[1]</text>
<polygon fill="none" stroke="black" points="10,-255 10,-277 340,-277 340,-255 10,-255"/>
<text text-anchor="start" x="30" y="-263.2" font-family="Helvetica,sans-Serif" font-size="11.00">description_en</text>
<polygon fill="none" stroke="black" points="340,-255 340,-277 446,-277 446,-255 340,-255"/>
<text text-anchor="start" x="343" y="-263.2" font-family="Helvetica,sans-Serif" font-size="11.00">text[2147483647]</text>
<polygon fill="none" stroke="black" points="10,-233 10,-255 340,-255 340,-233 10,-233"/>
<text text-anchor="start" x="30" y="-241.2" font-family="Helvetica,sans-Serif" font-size="11.00">description_de</text>
<polygon fill="none" stroke="black" points="340,-233 340,-255 446,-255 446,-233 340,-233"/>
<text text-anchor="start" x="343" y="-241.2" font-family="Helvetica,sans-Serif" font-size="11.00">text[2147483647]</text>
<polygon fill="none" stroke="black" points="10,-211 10,-233 340,-233 340,-211 10,-211"/>
<text text-anchor="start" x="30" y="-219.2" font-family="Helvetica,sans-Serif" font-size="11.00">description_fr</text>
<polygon fill="none" stroke="black" points="340,-211 340,-233 446,-233 446,-211 340,-211"/>
<text text-anchor="start" x="343" y="-219.2" font-family="Helvetica,sans-Serif" font-size="11.00">text[2147483647]</text>
<polygon fill="none" stroke="black" points="10,-189 10,-211 340,-211 340,-189 10,-189"/>
<text text-anchor="start" x="30" y="-197.2" font-family="Helvetica,sans-Serif" font-size="11.00">description_it</text>
<polygon fill="none" stroke="black" points="340,-189 340,-211 446,-211 446,-189 340,-189"/>
<text text-anchor="start" x="343" y="-197.2" font-family="Helvetica,sans-Serif" font-size="11.00">text[2147483647]</text>
<polygon fill="none" stroke="black" points="10,-167 10,-189 340,-189 340,-167 10,-167"/>
<text text-anchor="start" x="30" y="-175.2" font-family="Helvetica,sans-Serif" font-size="11.00">description_ro</text>
<polygon fill="none" stroke="black" points="340,-167 340,-189 446,-189 446,-167 340,-167"/>
<text text-anchor="start" x="343" y="-175.2" font-family="Helvetica,sans-Serif" font-size="11.00">text[2147483647]</text>
<polygon fill="none" stroke="black" points="10,-145 10,-167 340,-167 340,-145 10,-145"/>
<text text-anchor="start" x="30" y="-153.2" font-family="Helvetica,sans-Serif" font-size="11.00">display_en</text>
<polygon fill="none" stroke="black" points="340,-145 340,-167 446,-167 446,-145 340,-145"/>
<text text-anchor="start" x="343" y="-153.2" font-family="Helvetica,sans-Serif" font-size="11.00">varchar[100]</text>
<polygon fill="none" stroke="black" points="10,-123 10,-145 340,-145 340,-123 10,-123"/>
<text text-anchor="start" x="30" y="-131.2" font-family="Helvetica,sans-Serif" font-size="11.00">display_de</text>
<polygon fill="none" stroke="black" points="340,-123 340,-145 446,-145 446,-123 340,-123"/>
<text text-anchor="start" x="343" y="-131.2" font-family="Helvetica,sans-Serif" font-size="11.00">varchar[100]</text>
<polygon fill="none" stroke="black" points="10,-101 10,-123 340,-123 340,-101 10,-101"/>
<text text-anchor="start" x="30" y="-109.2" font-family="Helvetica,sans-Serif" font-size="11.00">display_fr</text>
<polygon fill="none" stroke="black" points="340,-101 340,-123 446,-123 446,-101 340,-101"/>
<text text-anchor="start" x="343" y="-109.2" font-family="Helvetica,sans-Serif" font-size="11.00">varchar[100]</text>
<polygon fill="none" stroke="black" points="10,-79 10,-101 340,-101 340,-79 10,-79"/>
<text text-anchor="start" x="30" y="-87.2" font-family="Helvetica,sans-Serif" font-size="11.00">display_it</text>
<polygon fill="none" stroke="black" points="340,-79 340,-101 446,-101 446,-79 340,-79"/>
<text text-anchor="start" x="343" y="-87.2" font-family="Helvetica,sans-Serif" font-size="11.00">varchar[100]</text>
<polygon fill="none" stroke="black" points="10,-57 10,-79 340,-79 340,-57 10,-57"/>
<text text-anchor="start" x="30" y="-65.2" font-family="Helvetica,sans-Serif" font-size="11.00">display_ro</text>
<polygon fill="none" stroke="black" points="340,-57 340,-79 446,-79 446,-57 340,-57"/>
<text text-anchor="start" x="343" y="-65.2" font-family="Helvetica,sans-Serif" font-size="11.00">varchar[100]</text>
<polygon fill="#ffffff" stroke="transparent" points="10,-39 10,-57 446,-57 446,-39 10,-39"/>
<polygon fill="none" stroke="black" points="10,-39 10,-57 446,-57 446,-39 10,-39"/>
<polygon fill="#ffffff" stroke="transparent" points="11,-40 11,-56 160,-56 160,-40 11,-40"/>
<text text-anchor="start" x="13" y="-45.2" font-family="Helvetica,sans-Serif" font-size="11.00">&lt; 0</text>
<polygon fill="#ffffff" stroke="transparent" points="160,-40 160,-56 297,-56 297,-40 160,-40"/>
<text text-anchor="start" x="224.5" y="-45.2" font-family="Helvetica,sans-Serif" font-size="11.00"> &#160;</text>
<polygon fill="#ffffff" stroke="transparent" points="297,-40 297,-56 445,-56 445,-40 297,-40"/>
<text text-anchor="start" x="423" y="-45.2" font-family="Helvetica,sans-Serif" font-size="11.00">1 &gt;</text>
<polygon fill="black" stroke="black" points="160,-40 160,-56 160,-56 160,-40 160,-40"/>
<polygon fill="black" stroke="black" points="297,-40 297,-56 297,-56 297,-40 297,-40"/>
<polygon fill="none" stroke="black" stroke-width="2" points="9,-38 9,-586 447,-586 447,-38 9,-38"/>
</a>
</g>
</g>
<!-- tww_od.throttle_shut_off_unit&#45;&gt;throttle_shut_off_unit_signal_transmission -->
<g id="edge1" class="edge">
<title>tww_od.throttle_shut_off_unit:w&#45;&gt;throttle_shut_off_unit_signal_transmission:e</title>
<path fill="none" stroke="black" d="M481.49,-552C470.18,-552 462.99,-552 447,-552"/>
<polygon fill="black" stroke="black" points="488,-552 496,-555.6 492,-552 496,-552 496,-552 496,-552 492,-552 496,-548.4 488,-552 488,-552"/>
<ellipse fill="none" stroke="black" cx="484.8" cy="-552" rx="3.2" ry="3.2"/>
</g>
</g>
</svg>
