<?xml version="1.0" encoding="UTF-8" standalone="no"?>
<!DOCTYPE svg PUBLIC "-//W3C//DTD SVG 1.1//EN"
 "http://www.w3.org/Graphics/SVG/1.1/DTD/svg11.dtd">
<!-- Generated by graphviz version 2.43.0 (0)
 -->
<!-- Title: oneDegreeRelationshipsDiagram Pages: 1 -->
<svg width="855pt" height="599pt"
 viewBox="0.00 0.00 855.00 599.00" xmlns="http://www.w3.org/2000/svg" xmlns:xlink="http://www.w3.org/1999/xlink">
<g id="graph0" class="graph" transform="scale(1 1) rotate(0) translate(4 595)">
<title>oneDegreeRelationshipsDiagram</title>
<polygon fill="#ffffff" stroke="transparent" points="-4,4 -4,-595 851,-595 851,4 -4,4"/>
<text text-anchor="middle" x="79.5" y="-7.2" font-family="Helvetica,sans-Serif" font-size="11.00">Generated by SchemaSpy</text>
<!-- tww_od.waste_water_treatment_plant -->
<g id="node1" class="node">
<title>tww_od.waste_water_treatment_plant</title>
<g id="a_node1"><a xlink:href="../../../tww_od/tables/waste_water_treatment_plant.html" xlink:title="tww_od.waste_water_treatment_plant" target="_top">
<polygon fill="#ffffff" stroke="transparent" points="515,-505 515,-585 839,-585 839,-505 515,-505"/>
<polygon fill="#f5f5f5" stroke="transparent" points="515,-563 515,-585 839,-585 839,-563 515,-563"/>
<polygon fill="none" stroke="black" points="515,-563 515,-585 839,-585 839,-563 515,-563"/>
<text text-anchor="start" x="520" y="-572.2" font-family="Helvetica,sans-Serif" font-weight="bold" font-size="11.00">tww_od.waste_water_treatment_plant</text>
<text text-anchor="start" x="797" y="-571.2" font-family="Helvetica,sans-Serif" font-size="11.00">[table]</text>
<polygon fill="none" stroke="black" points="515,-541 515,-563 839,-563 839,-541 515,-541"/>
<image xlink:href="../../images/foreignKeys.png" width="11px" height="12px" preserveAspectRatio="xMinYMin meet" x="520" y="-558"/>
<text text-anchor="start" x="578" y="-549.2" font-family="Helvetica,sans-Serif" font-size="11.00">operator_type</text>
<polygon fill="none" stroke="black" points="515,-523 515,-541 839,-541 839,-523 515,-523"/>
<text text-anchor="start" x="518" y="-529.2" font-family="Helvetica,sans-Serif" font-size="11.00">...</text>
<polygon fill="#ffffff" stroke="transparent" points="515,-505 515,-523 839,-523 839,-505 515,-505"/>
<polygon fill="none" stroke="black" points="515,-505 515,-523 839,-523 839,-505 515,-505"/>
<polygon fill="#ffffff" stroke="transparent" points="516,-506 516,-522 622,-522 622,-506 516,-506"/>
<text text-anchor="start" x="518" y="-511.2" font-family="Helvetica,sans-Serif" font-size="11.00">&lt; 1</text>
<polygon fill="#ffffff" stroke="transparent" points="622,-506 622,-522 745,-522 745,-506 622,-506"/>
<text text-anchor="start" x="665" y="-511.2" font-family="Helvetica,sans-Serif" font-size="11.00">0 rows</text>
<polygon fill="#ffffff" stroke="transparent" points="745,-506 745,-522 838,-522 838,-506 745,-506"/>
<text text-anchor="start" x="828" y="-511.2" font-family="Helvetica,sans-Serif" font-size="11.00"> &#160;</text>
<polygon fill="black" stroke="black" points="622,-506 622,-522 622,-522 622,-506 622,-506"/>
<polygon fill="black" stroke="black" points="745,-506 745,-522 745,-522 745,-506 745,-506"/>
</a>
</g>
</g>
<!-- waste_water_treatment_plant_operator_type -->
<g id="node2" class="node">
<title>waste_water_treatment_plant_operator_type</title>
<g id="a_node2"><a xlink:href="../../tables/waste_water_treatment_plant_ope_5d4cf10d.html" xlink:title="waste_water_treatment_plant_operator_type" target="_top">
<polygon fill="#ffffff" stroke="transparent" points="8,-37 8,-587 466,-587 466,-37 8,-37"/>
<polygon fill="#f5f5f5" stroke="transparent" points="10,-563 10,-585 464,-585 464,-563 10,-563"/>
<polygon fill="none" stroke="black" points="10,-563 10,-585 464,-585 464,-563 10,-563"/>
<text text-anchor="start" x="15" y="-572.2" font-family="Helvetica,sans-Serif" font-weight="bold" font-size="11.00">waste_water_treatment_plant_operator_type</text>
<text text-anchor="start" x="422" y="-571.2" font-family="Helvetica,sans-Serif" font-size="11.00">[table]</text>
<polygon fill="none" stroke="black" points="10,-541 10,-563 358,-563 358,-541 10,-541"/>
<image xlink:href="../../images/primaryKeys.png" width="11px" height="12px" preserveAspectRatio="xMinYMin meet" x="15" y="-558"/>
<text text-anchor="start" x="30" y="-549.2" font-family="Helvetica,sans-Serif" font-size="11.00">code</text>
<polygon fill="none" stroke="black" points="358,-541 358,-563 464,-563 464,-541 358,-541"/>
<text text-anchor="start" x="361" y="-549.2" font-family="Helvetica,sans-Serif" font-size="11.00">int4[10]</text>
<polygon fill="none" stroke="black" points="10,-519 10,-541 358,-541 358,-519 10,-519"/>
<text text-anchor="start" x="30" y="-527.2" font-family="Helvetica,sans-Serif" font-size="11.00">vsacode</text>
<polygon fill="none" stroke="black" points="358,-519 358,-541 464,-541 464,-519 358,-519"/>
<text text-anchor="start" x="361" y="-527.2" font-family="Helvetica,sans-Serif" font-size="11.00">int4[10]</text>
<polygon fill="none" stroke="black" points="10,-497 10,-519 358,-519 358,-497 10,-497"/>
<text text-anchor="start" x="30" y="-505.2" font-family="Helvetica,sans-Serif" font-size="11.00">value_en</text>
<polygon fill="none" stroke="black" points="358,-497 358,-519 464,-519 464,-497 358,-497"/>
<text text-anchor="start" x="361" y="-505.2" font-family="Helvetica,sans-Serif" font-size="11.00">varchar[100]</text>
<polygon fill="none" stroke="black" points="10,-475 10,-497 358,-497 358,-475 10,-475"/>
<text text-anchor="start" x="30" y="-483.2" font-family="Helvetica,sans-Serif" font-size="11.00">value_de</text>
<polygon fill="none" stroke="black" points="358,-475 358,-497 464,-497 464,-475 358,-475"/>
<text text-anchor="start" x="361" y="-483.2" font-family="Helvetica,sans-Serif" font-size="11.00">varchar[100]</text>
<polygon fill="none" stroke="black" points="10,-453 10,-475 358,-475 358,-453 10,-453"/>
<text text-anchor="start" x="30" y="-461.2" font-family="Helvetica,sans-Serif" font-size="11.00">value_fr</text>
<polygon fill="none" stroke="black" points="358,-453 358,-475 464,-475 464,-453 358,-453"/>
<text text-anchor="start" x="361" y="-461.2" font-family="Helvetica,sans-Serif" font-size="11.00">varchar[100]</text>
<polygon fill="none" stroke="black" points="10,-431 10,-453 358,-453 358,-431 10,-431"/>
<text text-anchor="start" x="30" y="-439.2" font-family="Helvetica,sans-Serif" font-size="11.00">value_it</text>
<polygon fill="none" stroke="black" points="358,-431 358,-453 464,-453 464,-431 358,-431"/>
<text text-anchor="start" x="361" y="-439.2" font-family="Helvetica,sans-Serif" font-size="11.00">varchar[100]</text>
<polygon fill="none" stroke="black" points="10,-409 10,-431 358,-431 358,-409 10,-409"/>
<text text-anchor="start" x="30" y="-417.2" font-family="Helvetica,sans-Serif" font-size="11.00">value_ro</text>
<polygon fill="none" stroke="black" points="358,-409 358,-431 464,-431 464,-409 358,-409"/>
<text text-anchor="start" x="361" y="-417.2" font-family="Helvetica,sans-Serif" font-size="11.00">varchar[100]</text>
<polygon fill="none" stroke="black" points="10,-387 10,-409 358,-409 358,-387 10,-387"/>
<text text-anchor="start" x="30" y="-395.2" font-family="Helvetica,sans-Serif" font-size="11.00">abbr_en</text>
<polygon fill="none" stroke="black" points="358,-387 358,-409 464,-409 464,-387 358,-387"/>
<text text-anchor="start" x="361" y="-395.2" font-family="Helvetica,sans-Serif" font-size="11.00">varchar[3]</text>
<polygon fill="none" stroke="black" points="10,-365 10,-387 358,-387 358,-365 10,-365"/>
<text text-anchor="start" x="30" y="-373.2" font-family="Helvetica,sans-Serif" font-size="11.00">abbr_de</text>
<polygon fill="none" stroke="black" points="358,-365 358,-387 464,-387 464,-365 358,-365"/>
<text text-anchor="start" x="361" y="-373.2" font-family="Helvetica,sans-Serif" font-size="11.00">varchar[3]</text>
<polygon fill="none" stroke="black" points="10,-343 10,-365 358,-365 358,-343 10,-343"/>
<text text-anchor="start" x="30" y="-351.2" font-family="Helvetica,sans-Serif" font-size="11.00">abbr_fr</text>
<polygon fill="none" stroke="black" points="358,-343 358,-365 464,-365 464,-343 358,-343"/>
<text text-anchor="start" x="361" y="-351.2" font-family="Helvetica,sans-Serif" font-size="11.00">varchar[3]</text>
<polygon fill="none" stroke="black" points="10,-321 10,-343 358,-343 358,-321 10,-321"/>
<text text-anchor="start" x="30" y="-329.2" font-family="Helvetica,sans-Serif" font-size="11.00">abbr_it</text>
<polygon fill="none" stroke="black" points="358,-321 358,-343 464,-343 464,-321 358,-321"/>
<text text-anchor="start" x="361" y="-329.2" font-family="Helvetica,sans-Serif" font-size="11.00">varchar[3]</text>
<polygon fill="none" stroke="black" points="10,-299 10,-321 358,-321 358,-299 10,-299"/>
<text text-anchor="start" x="30" y="-307.2" font-family="Helvetica,sans-Serif" font-size="11.00">abbr_ro</text>
<polygon fill="none" stroke="black" points="358,-299 358,-321 464,-321 464,-299 358,-299"/>
<text text-anchor="start" x="361" y="-307.2" font-family="Helvetica,sans-Serif" font-size="11.00">varchar[3]</text>
<polygon fill="none" stroke="black" points="10,-277 10,-299 358,-299 358,-277 10,-277"/>
<text text-anchor="start" x="30" y="-285.2" font-family="Helvetica,sans-Serif" font-size="11.00">active</text>
<polygon fill="none" stroke="black" points="358,-277 358,-299 464,-299 464,-277 358,-277"/>
<text text-anchor="start" x="361" y="-285.2" font-family="Helvetica,sans-Serif" font-size="11.00">bool[1]</text>
<polygon fill="none" stroke="black" points="10,-255 10,-277 358,-277 358,-255 10,-255"/>
<text text-anchor="start" x="30" y="-263.2" font-family="Helvetica,sans-Serif" font-size="11.00">description_en</text>
<polygon fill="none" stroke="black" points="358,-255 358,-277 464,-277 464,-255 358,-255"/>
<text text-anchor="start" x="361" y="-263.2" font-family="Helvetica,sans-Serif" font-size="11.00">text[2147483647]</text>
<polygon fill="none" stroke="black" points="10,-233 10,-255 358,-255 358,-233 10,-233"/>
<text text-anchor="start" x="30" y="-241.2" font-family="Helvetica,sans-Serif" font-size="11.00">description_de</text>
<polygon fill="none" stroke="black" points="358,-233 358,-255 464,-255 464,-233 358,-233"/>
<text text-anchor="start" x="361" y="-241.2" font-family="Helvetica,sans-Serif" font-size="11.00">text[2147483647]</text>
<polygon fill="none" stroke="black" points="10,-211 10,-233 358,-233 358,-211 10,-211"/>
<text text-anchor="start" x="30" y="-219.2" font-family="Helvetica,sans-Serif" font-size="11.00">description_fr</text>
<polygon fill="none" stroke="black" points="358,-211 358,-233 464,-233 464,-211 358,-211"/>
<text text-anchor="start" x="361" y="-219.2" font-family="Helvetica,sans-Serif" font-size="11.00">text[2147483647]</text>
<polygon fill="none" stroke="black" points="10,-189 10,-211 358,-211 358,-189 10,-189"/>
<text text-anchor="start" x="30" y="-197.2" font-family="Helvetica,sans-Serif" font-size="11.00">description_it</text>
<polygon fill="none" stroke="black" points="358,-189 358,-211 464,-211 464,-189 358,-189"/>
<text text-anchor="start" x="361" y="-197.2" font-family="Helvetica,sans-Serif" font-size="11.00">text[2147483647]</text>
<polygon fill="none" stroke="black" points="10,-167 10,-189 358,-189 358,-167 10,-167"/>
<text text-anchor="start" x="30" y="-175.2" font-family="Helvetica,sans-Serif" font-size="11.00">description_ro</text>
<polygon fill="none" stroke="black" points="358,-167 358,-189 464,-189 464,-167 358,-167"/>
<text text-anchor="start" x="361" y="-175.2" font-family="Helvetica,sans-Serif" font-size="11.00">text[2147483647]</text>
<polygon fill="none" stroke="black" points="10,-145 10,-167 358,-167 358,-145 10,-145"/>
<text text-anchor="start" x="30" y="-153.2" font-family="Helvetica,sans-Serif" font-size="11.00">display_en</text>
<polygon fill="none" stroke="black" points="358,-145 358,-167 464,-167 464,-145 358,-145"/>
<text text-anchor="start" x="361" y="-153.2" font-family="Helvetica,sans-Serif" font-size="11.00">varchar[100]</text>
<polygon fill="none" stroke="black" points="10,-123 10,-145 358,-145 358,-123 10,-123"/>
<text text-anchor="start" x="30" y="-131.2" font-family="Helvetica,sans-Serif" font-size="11.00">display_de</text>
<polygon fill="none" stroke="black" points="358,-123 358,-145 464,-145 464,-123 358,-123"/>
<text text-anchor="start" x="361" y="-131.2" font-family="Helvetica,sans-Serif" font-size="11.00">varchar[100]</text>
<polygon fill="none" stroke="black" points="10,-101 10,-123 358,-123 358,-101 10,-101"/>
<text text-anchor="start" x="30" y="-109.2" font-family="Helvetica,sans-Serif" font-size="11.00">display_fr</text>
<polygon fill="none" stroke="black" points="358,-101 358,-123 464,-123 464,-101 358,-101"/>
<text text-anchor="start" x="361" y="-109.2" font-family="Helvetica,sans-Serif" font-size="11.00">varchar[100]</text>
<polygon fill="none" stroke="black" points="10,-79 10,-101 358,-101 358,-79 10,-79"/>
<text text-anchor="start" x="30" y="-87.2" font-family="Helvetica,sans-Serif" font-size="11.00">display_it</text>
<polygon fill="none" stroke="black" points="358,-79 358,-101 464,-101 464,-79 358,-79"/>
<text text-anchor="start" x="361" y="-87.2" font-family="Helvetica,sans-Serif" font-size="11.00">varchar[100]</text>
<polygon fill="none" stroke="black" points="10,-57 10,-79 358,-79 358,-57 10,-57"/>
<text text-anchor="start" x="30" y="-65.2" font-family="Helvetica,sans-Serif" font-size="11.00">display_ro</text>
<polygon fill="none" stroke="black" points="358,-57 358,-79 464,-79 464,-57 358,-57"/>
<text text-anchor="start" x="361" y="-65.2" font-family="Helvetica,sans-Serif" font-size="11.00">varchar[100]</text>
<polygon fill="#ffffff" stroke="transparent" points="10,-39 10,-57 464,-57 464,-39 10,-39"/>
<polygon fill="none" stroke="black" points="10,-39 10,-57 464,-57 464,-39 10,-39"/>
<polygon fill="#ffffff" stroke="transparent" points="11,-40 11,-56 166,-56 166,-40 11,-40"/>
<text text-anchor="start" x="13" y="-45.2" font-family="Helvetica,sans-Serif" font-size="11.00">&lt; 0</text>
<polygon fill="#ffffff" stroke="transparent" points="166,-40 166,-56 309,-56 309,-40 166,-40"/>
<text text-anchor="start" x="233.5" y="-45.2" font-family="Helvetica,sans-Serif" font-size="11.00"> &#160;</text>
<polygon fill="#ffffff" stroke="transparent" points="309,-40 309,-56 463,-56 463,-40 309,-40"/>
<text text-anchor="start" x="441" y="-45.2" font-family="Helvetica,sans-Serif" font-size="11.00">1 &gt;</text>
<polygon fill="black" stroke="black" points="166,-40 166,-56 166,-56 166,-40 166,-40"/>
<polygon fill="black" stroke="black" points="309,-40 309,-56 309,-56 309,-40 309,-40"/>
<polygon fill="none" stroke="black" stroke-width="2" points="9,-38 9,-586 465,-586 465,-38 9,-38"/>
</a>
</g>
</g>
<!-- tww_od.waste_water_treatment_plant&#45;&gt;waste_water_treatment_plant_operator_type -->
<g id="edge1" class="edge">
<title>tww_od.waste_water_treatment_plant:w&#45;&gt;waste_water_treatment_plant_operator_type:e</title>
<path fill="none" stroke="black" d="M499.49,-552C488.18,-552 480.99,-552 465,-552"/>
<polygon fill="black" stroke="black" points="506,-552 514,-555.6 510,-552 514,-552 514,-552 514,-552 510,-552 514,-548.4 506,-552 506,-552"/>
<ellipse fill="none" stroke="black" cx="502.8" cy="-552" rx="3.2" ry="3.2"/>
</g>
</g>
</svg>
