<?xml version="1.0" encoding="UTF-8" standalone="no"?>
<!DOCTYPE svg PUBLIC "-//W3C//DTD SVG 1.1//EN"
 "http://www.w3.org/Graphics/SVG/1.1/DTD/svg11.dtd">
<!-- Generated by graphviz version 2.43.0 (0)
 -->
<!-- Title: oneDegreeRelationshipsDiagram Pages: 1 -->
<svg width="820pt" height="599pt"
 viewBox="0.00 0.00 820.00 599.00" xmlns="http://www.w3.org/2000/svg" xmlns:xlink="http://www.w3.org/1999/xlink">
<g id="graph0" class="graph" transform="scale(1 1) rotate(0) translate(4 595)">
<title>oneDegreeRelationshipsDiagram</title>
<polygon fill="#ffffff" stroke="transparent" points="-4,4 -4,-595 816,-595 816,4 -4,4"/>
<text text-anchor="middle" x="79.5" y="-7.2" font-family="Helvetica,sans-Serif" font-size="11.00">Generated by SchemaSpy</text>
<!-- tww_od.wastewater_structure_symbol -->
<g id="node1" class="node">
<title>tww_od.wastewater_structure_symbol</title>
<g id="a_node1"><a xlink:href="../../../tww_od/tables/wastewater_structure_symbol.html" xlink:title="tww_od.wastewater_structure_symbol" target="_top">
<polygon fill="#ffffff" stroke="transparent" points="478,-505 478,-585 804,-585 804,-505 478,-505"/>
<polygon fill="#f5f5f5" stroke="transparent" points="478,-563 478,-585 804,-585 804,-563 478,-563"/>
<polygon fill="none" stroke="black" points="478,-563 478,-585 804,-585 804,-563 478,-563"/>
<text text-anchor="start" x="483" y="-572.2" font-family="Helvetica,sans-Serif" font-weight="bold" font-size="11.00">tww_od.wastewater_structure_symbol</text>
<text text-anchor="start" x="762" y="-571.2" font-family="Helvetica,sans-Serif" font-size="11.00">[table]</text>
<polygon fill="none" stroke="black" points="478,-541 478,-563 804,-563 804,-541 478,-541"/>
<image xlink:href="../../images/foreignKeys.png" width="11px" height="12px" preserveAspectRatio="xMinYMin meet" x="483" y="-558"/>
<text text-anchor="start" x="541" y="-549.2" font-family="Helvetica,sans-Serif" font-size="11.00">plantype</text>
<polygon fill="none" stroke="black" points="478,-523 478,-541 804,-541 804,-523 478,-523"/>
<text text-anchor="start" x="481" y="-529.2" font-family="Helvetica,sans-Serif" font-size="11.00">...</text>
<polygon fill="#ffffff" stroke="transparent" points="478,-505 478,-523 804,-523 804,-505 478,-505"/>
<polygon fill="none" stroke="black" points="478,-505 478,-523 804,-523 804,-505 478,-505"/>
<polygon fill="#ffffff" stroke="transparent" points="479,-506 479,-522 586,-522 586,-506 479,-506"/>
<text text-anchor="start" x="481" y="-511.2" font-family="Helvetica,sans-Serif" font-size="11.00">&lt; 1</text>
<polygon fill="#ffffff" stroke="transparent" points="586,-506 586,-522 709,-522 709,-506 586,-506"/>
<text text-anchor="start" x="629" y="-511.2" font-family="Helvetica,sans-Serif" font-size="11.00">0 rows</text>
<polygon fill="#ffffff" stroke="transparent" points="709,-506 709,-522 803,-522 803,-506 709,-506"/>
<text text-anchor="start" x="793" y="-511.2" font-family="Helvetica,sans-Serif" font-size="11.00"> &#160;</text>
<polygon fill="black" stroke="black" points="586,-506 586,-522 586,-522 586,-506 586,-506"/>
<polygon fill="black" stroke="black" points="709,-506 709,-522 709,-522 709,-506 709,-506"/>
</a>
</g>
</g>
<!-- wastewater_structure_symbol_plantype -->
<g id="node2" class="node">
<title>wastewater_structure_symbol_plantype</title>
<g id="a_node2"><a xlink:href="../../tables/wastewater_structure_symbol_plantype.html" xlink:title="wastewater_structure_symbol_plantype" target="_top">
<polygon fill="#ffffff" stroke="transparent" points="8,-37 8,-587 429,-587 429,-37 8,-37"/>
<polygon fill="#f5f5f5" stroke="transparent" points="10.5,-563 10.5,-585 427.5,-585 427.5,-563 10.5,-563"/>
<polygon fill="none" stroke="black" points="10.5,-563 10.5,-585 427.5,-585 427.5,-563 10.5,-563"/>
<text text-anchor="start" x="15.5" y="-572.2" font-family="Helvetica,sans-Serif" font-weight="bold" font-size="11.00">wastewater_structure_symbol_plantype</text>
<text text-anchor="start" x="385.5" y="-571.2" font-family="Helvetica,sans-Serif" font-size="11.00">[table]</text>
<polygon fill="none" stroke="black" points="10.5,-541 10.5,-563 321.5,-563 321.5,-541 10.5,-541"/>
<image xlink:href="../../images/primaryKeys.png" width="11px" height="12px" preserveAspectRatio="xMinYMin meet" x="15.5" y="-558"/>
<text text-anchor="start" x="30.5" y="-549.2" font-family="Helvetica,sans-Serif" font-size="11.00">code</text>
<polygon fill="none" stroke="black" points="321.5,-541 321.5,-563 427.5,-563 427.5,-541 321.5,-541"/>
<text text-anchor="start" x="324.5" y="-549.2" font-family="Helvetica,sans-Serif" font-size="11.00">int4[10]</text>
<polygon fill="none" stroke="black" points="10.5,-519 10.5,-541 321.5,-541 321.5,-519 10.5,-519"/>
<text text-anchor="start" x="30.5" y="-527.2" font-family="Helvetica,sans-Serif" font-size="11.00">vsacode</text>
<polygon fill="none" stroke="black" points="321.5,-519 321.5,-541 427.5,-541 427.5,-519 321.5,-519"/>
<text text-anchor="start" x="324.5" y="-527.2" font-family="Helvetica,sans-Serif" font-size="11.00">int4[10]</text>
<polygon fill="none" stroke="black" points="10.5,-497 10.5,-519 321.5,-519 321.5,-497 10.5,-497"/>
<text text-anchor="start" x="30.5" y="-505.2" font-family="Helvetica,sans-Serif" font-size="11.00">value_en</text>
<polygon fill="none" stroke="black" points="321.5,-497 321.5,-519 427.5,-519 427.5,-497 321.5,-497"/>
<text text-anchor="start" x="324.5" y="-505.2" font-family="Helvetica,sans-Serif" font-size="11.00">varchar[100]</text>
<polygon fill="none" stroke="black" points="10.5,-475 10.5,-497 321.5,-497 321.5,-475 10.5,-475"/>
<text text-anchor="start" x="30.5" y="-483.2" font-family="Helvetica,sans-Serif" font-size="11.00">value_de</text>
<polygon fill="none" stroke="black" points="321.5,-475 321.5,-497 427.5,-497 427.5,-475 321.5,-475"/>
<text text-anchor="start" x="324.5" y="-483.2" font-family="Helvetica,sans-Serif" font-size="11.00">varchar[100]</text>
<polygon fill="none" stroke="black" points="10.5,-453 10.5,-475 321.5,-475 321.5,-453 10.5,-453"/>
<text text-anchor="start" x="30.5" y="-461.2" font-family="Helvetica,sans-Serif" font-size="11.00">value_fr</text>
<polygon fill="none" stroke="black" points="321.5,-453 321.5,-475 427.5,-475 427.5,-453 321.5,-453"/>
<text text-anchor="start" x="324.5" y="-461.2" font-family="Helvetica,sans-Serif" font-size="11.00">varchar[100]</text>
<polygon fill="none" stroke="black" points="10.5,-431 10.5,-453 321.5,-453 321.5,-431 10.5,-431"/>
<text text-anchor="start" x="30.5" y="-439.2" font-family="Helvetica,sans-Serif" font-size="11.00">value_it</text>
<polygon fill="none" stroke="black" points="321.5,-431 321.5,-453 427.5,-453 427.5,-431 321.5,-431"/>
<text text-anchor="start" x="324.5" y="-439.2" font-family="Helvetica,sans-Serif" font-size="11.00">varchar[100]</text>
<polygon fill="none" stroke="black" points="10.5,-409 10.5,-431 321.5,-431 321.5,-409 10.5,-409"/>
<text text-anchor="start" x="30.5" y="-417.2" font-family="Helvetica,sans-Serif" font-size="11.00">value_ro</text>
<polygon fill="none" stroke="black" points="321.5,-409 321.5,-431 427.5,-431 427.5,-409 321.5,-409"/>
<text text-anchor="start" x="324.5" y="-417.2" font-family="Helvetica,sans-Serif" font-size="11.00">varchar[100]</text>
<polygon fill="none" stroke="black" points="10.5,-387 10.5,-409 321.5,-409 321.5,-387 10.5,-387"/>
<text text-anchor="start" x="30.5" y="-395.2" font-family="Helvetica,sans-Serif" font-size="11.00">abbr_en</text>
<polygon fill="none" stroke="black" points="321.5,-387 321.5,-409 427.5,-409 427.5,-387 321.5,-387"/>
<text text-anchor="start" x="324.5" y="-395.2" font-family="Helvetica,sans-Serif" font-size="11.00">varchar[3]</text>
<polygon fill="none" stroke="black" points="10.5,-365 10.5,-387 321.5,-387 321.5,-365 10.5,-365"/>
<text text-anchor="start" x="30.5" y="-373.2" font-family="Helvetica,sans-Serif" font-size="11.00">abbr_de</text>
<polygon fill="none" stroke="black" points="321.5,-365 321.5,-387 427.5,-387 427.5,-365 321.5,-365"/>
<text text-anchor="start" x="324.5" y="-373.2" font-family="Helvetica,sans-Serif" font-size="11.00">varchar[3]</text>
<polygon fill="none" stroke="black" points="10.5,-343 10.5,-365 321.5,-365 321.5,-343 10.5,-343"/>
<text text-anchor="start" x="30.5" y="-351.2" font-family="Helvetica,sans-Serif" font-size="11.00">abbr_fr</text>
<polygon fill="none" stroke="black" points="321.5,-343 321.5,-365 427.5,-365 427.5,-343 321.5,-343"/>
<text text-anchor="start" x="324.5" y="-351.2" font-family="Helvetica,sans-Serif" font-size="11.00">varchar[3]</text>
<polygon fill="none" stroke="black" points="10.5,-321 10.5,-343 321.5,-343 321.5,-321 10.5,-321"/>
<text text-anchor="start" x="30.5" y="-329.2" font-family="Helvetica,sans-Serif" font-size="11.00">abbr_it</text>
<polygon fill="none" stroke="black" points="321.5,-321 321.5,-343 427.5,-343 427.5,-321 321.5,-321"/>
<text text-anchor="start" x="324.5" y="-329.2" font-family="Helvetica,sans-Serif" font-size="11.00">varchar[3]</text>
<polygon fill="none" stroke="black" points="10.5,-299 10.5,-321 321.5,-321 321.5,-299 10.5,-299"/>
<text text-anchor="start" x="30.5" y="-307.2" font-family="Helvetica,sans-Serif" font-size="11.00">abbr_ro</text>
<polygon fill="none" stroke="black" points="321.5,-299 321.5,-321 427.5,-321 427.5,-299 321.5,-299"/>
<text text-anchor="start" x="324.5" y="-307.2" font-family="Helvetica,sans-Serif" font-size="11.00">varchar[3]</text>
<polygon fill="none" stroke="black" points="10.5,-277 10.5,-299 321.5,-299 321.5,-277 10.5,-277"/>
<text text-anchor="start" x="30.5" y="-285.2" font-family="Helvetica,sans-Serif" font-size="11.00">active</text>
<polygon fill="none" stroke="black" points="321.5,-277 321.5,-299 427.5,-299 427.5,-277 321.5,-277"/>
<text text-anchor="start" x="324.5" y="-285.2" font-family="Helvetica,sans-Serif" font-size="11.00">bool[1]</text>
<polygon fill="none" stroke="black" points="10.5,-255 10.5,-277 321.5,-277 321.5,-255 10.5,-255"/>
<text text-anchor="start" x="30.5" y="-263.2" font-family="Helvetica,sans-Serif" font-size="11.00">description_en</text>
<polygon fill="none" stroke="black" points="321.5,-255 321.5,-277 427.5,-277 427.5,-255 321.5,-255"/>
<text text-anchor="start" x="324.5" y="-263.2" font-family="Helvetica,sans-Serif" font-size="11.00">text[2147483647]</text>
<polygon fill="none" stroke="black" points="10.5,-233 10.5,-255 321.5,-255 321.5,-233 10.5,-233"/>
<text text-anchor="start" x="30.5" y="-241.2" font-family="Helvetica,sans-Serif" font-size="11.00">description_de</text>
<polygon fill="none" stroke="black" points="321.5,-233 321.5,-255 427.5,-255 427.5,-233 321.5,-233"/>
<text text-anchor="start" x="324.5" y="-241.2" font-family="Helvetica,sans-Serif" font-size="11.00">text[2147483647]</text>
<polygon fill="none" stroke="black" points="10.5,-211 10.5,-233 321.5,-233 321.5,-211 10.5,-211"/>
<text text-anchor="start" x="30.5" y="-219.2" font-family="Helvetica,sans-Serif" font-size="11.00">description_fr</text>
<polygon fill="none" stroke="black" points="321.5,-211 321.5,-233 427.5,-233 427.5,-211 321.5,-211"/>
<text text-anchor="start" x="324.5" y="-219.2" font-family="Helvetica,sans-Serif" font-size="11.00">text[2147483647]</text>
<polygon fill="none" stroke="black" points="10.5,-189 10.5,-211 321.5,-211 321.5,-189 10.5,-189"/>
<text text-anchor="start" x="30.5" y="-197.2" font-family="Helvetica,sans-Serif" font-size="11.00">description_it</text>
<polygon fill="none" stroke="black" points="321.5,-189 321.5,-211 427.5,-211 427.5,-189 321.5,-189"/>
<text text-anchor="start" x="324.5" y="-197.2" font-family="Helvetica,sans-Serif" font-size="11.00">text[2147483647]</text>
<polygon fill="none" stroke="black" points="10.5,-167 10.5,-189 321.5,-189 321.5,-167 10.5,-167"/>
<text text-anchor="start" x="30.5" y="-175.2" font-family="Helvetica,sans-Serif" font-size="11.00">description_ro</text>
<polygon fill="none" stroke="black" points="321.5,-167 321.5,-189 427.5,-189 427.5,-167 321.5,-167"/>
<text text-anchor="start" x="324.5" y="-175.2" font-family="Helvetica,sans-Serif" font-size="11.00">text[2147483647]</text>
<polygon fill="none" stroke="black" points="10.5,-145 10.5,-167 321.5,-167 321.5,-145 10.5,-145"/>
<text text-anchor="start" x="30.5" y="-153.2" font-family="Helvetica,sans-Serif" font-size="11.00">display_en</text>
<polygon fill="none" stroke="black" points="321.5,-145 321.5,-167 427.5,-167 427.5,-145 321.5,-145"/>
<text text-anchor="start" x="324.5" y="-153.2" font-family="Helvetica,sans-Serif" font-size="11.00">varchar[100]</text>
<polygon fill="none" stroke="black" points="10.5,-123 10.5,-145 321.5,-145 321.5,-123 10.5,-123"/>
<text text-anchor="start" x="30.5" y="-131.2" font-family="Helvetica,sans-Serif" font-size="11.00">display_de</text>
<polygon fill="none" stroke="black" points="321.5,-123 321.5,-145 427.5,-145 427.5,-123 321.5,-123"/>
<text text-anchor="start" x="324.5" y="-131.2" font-family="Helvetica,sans-Serif" font-size="11.00">varchar[100]</text>
<polygon fill="none" stroke="black" points="10.5,-101 10.5,-123 321.5,-123 321.5,-101 10.5,-101"/>
<text text-anchor="start" x="30.5" y="-109.2" font-family="Helvetica,sans-Serif" font-size="11.00">display_fr</text>
<polygon fill="none" stroke="black" points="321.5,-101 321.5,-123 427.5,-123 427.5,-101 321.5,-101"/>
<text text-anchor="start" x="324.5" y="-109.2" font-family="Helvetica,sans-Serif" font-size="11.00">varchar[100]</text>
<polygon fill="none" stroke="black" points="10.5,-79 10.5,-101 321.5,-101 321.5,-79 10.5,-79"/>
<text text-anchor="start" x="30.5" y="-87.2" font-family="Helvetica,sans-Serif" font-size="11.00">display_it</text>
<polygon fill="none" stroke="black" points="321.5,-79 321.5,-101 427.5,-101 427.5,-79 321.5,-79"/>
<text text-anchor="start" x="324.5" y="-87.2" font-family="Helvetica,sans-Serif" font-size="11.00">varchar[100]</text>
<polygon fill="none" stroke="black" points="10.5,-57 10.5,-79 321.5,-79 321.5,-57 10.5,-57"/>
<text text-anchor="start" x="30.5" y="-65.2" font-family="Helvetica,sans-Serif" font-size="11.00">display_ro</text>
<polygon fill="none" stroke="black" points="321.5,-57 321.5,-79 427.5,-79 427.5,-57 321.5,-57"/>
<text text-anchor="start" x="324.5" y="-65.2" font-family="Helvetica,sans-Serif" font-size="11.00">varchar[100]</text>
<polygon fill="#ffffff" stroke="transparent" points="10.5,-39 10.5,-57 427.5,-57 427.5,-39 10.5,-39"/>
<polygon fill="none" stroke="black" points="10.5,-39 10.5,-57 427.5,-57 427.5,-39 10.5,-39"/>
<polygon fill="#ffffff" stroke="transparent" points="11.5,-40 11.5,-56 154.5,-56 154.5,-40 11.5,-40"/>
<text text-anchor="start" x="13.5" y="-45.2" font-family="Helvetica,sans-Serif" font-size="11.00">&lt; 0</text>
<polygon fill="#ffffff" stroke="transparent" points="154.5,-40 154.5,-56 284.5,-56 284.5,-40 154.5,-40"/>
<text text-anchor="start" x="215.5" y="-45.2" font-family="Helvetica,sans-Serif" font-size="11.00"> &#160;</text>
<polygon fill="#ffffff" stroke="transparent" points="284.5,-40 284.5,-56 426.5,-56 426.5,-40 284.5,-40"/>
<text text-anchor="start" x="404.5" y="-45.2" font-family="Helvetica,sans-Serif" font-size="11.00">1 &gt;</text>
<polygon fill="black" stroke="black" points="154.5,-40 154.5,-56 154.5,-56 154.5,-40 154.5,-40"/>
<polygon fill="black" stroke="black" points="284.5,-40 284.5,-56 284.5,-56 284.5,-40 284.5,-40"/>
<polygon fill="none" stroke="black" stroke-width="2" points="9,-38 9,-586 428,-586 428,-38 9,-38"/>
</a>
</g>
</g>
<!-- tww_od.wastewater_structure_symbol&#45;&gt;wastewater_structure_symbol_plantype -->
<g id="edge1" class="edge">
<title>tww_od.wastewater_structure_symbol:w&#45;&gt;wastewater_structure_symbol_plantype:e</title>
<path fill="none" stroke="black" d="M462.28,-552C451.29,-552 444.16,-552 428.5,-552"/>
<polygon fill="black" stroke="black" points="469,-552 477,-555.6 473,-552 477,-552 477,-552 477,-552 473,-552 477,-548.4 469,-552 469,-552"/>
<ellipse fill="none" stroke="black" cx="465.8" cy="-552" rx="3.2" ry="3.2"/>
</g>
</g>
</svg>
