<?xml version="1.0" encoding="UTF-8" standalone="no"?>
<!DOCTYPE svg PUBLIC "-//W3C//DTD SVG 1.1//EN"
 "http://www.w3.org/Graphics/SVG/1.1/DTD/svg11.dtd">
<!-- Generated by graphviz version 2.47.1 (20210515.0534)
 -->
<!-- Title: oneDegreeRelationshipsDiagram Pages: 1 -->
<svg width="240pt" height="137pt"
 viewBox="0.00 0.00 240.00 137.00" xmlns="http://www.w3.org/2000/svg" xmlns:xlink="http://www.w3.org/1999/xlink">
<g id="graph0" class="graph" transform="scale(1 1) rotate(0) translate(4 133)">
<title>oneDegreeRelationshipsDiagram</title>
<polygon fill="#ffffff" stroke="transparent" points="-4,4 -4,-133 236,-133 236,4 -4,4"/>
<text text-anchor="middle" x="73.5" y="-7.2" font-family="Helvetica,sans-Serif" font-size="11.00">Generated by SchemaSpy</text>
<!-- logged_relations -->
<g id="node1" class="node">
<title>logged_relations</title>
<g id="a_node1"><a xlink:href="../../tables/logged_relations.html" xlink:title="logged_relations" target="_top">
<polygon fill="#ffffff" stroke="transparent" points="8,-37 8,-125 224,-125 224,-37 8,-37"/>
<polygon fill="#f5f5f5" stroke="transparent" points="10,-101 10,-123 222,-123 222,-101 10,-101"/>
<polygon fill="none" stroke="black" points="10,-101 10,-123 222,-123 222,-101 10,-101"/>
<text text-anchor="start" x="15" y="-110.2" font-family="Helvetica,sans-Serif" font-weight="bold" font-size="11.00">logged_relations</text>
<text text-anchor="start" x="183" y="-109.2" font-family="Helvetica,sans-Serif" font-size="11.00">[table]</text>
<polygon fill="none" stroke="black" points="10,-79 10,-101 128,-101 128,-79 10,-79"/>
<image xlink:href="../../images/primaryKeys.png" width="11px" height="12px" preserveAspectRatio="xMinYMin meet" x="15" y="-96"/>
<text text-anchor="start" x="30" y="-87.2" font-family="Helvetica,sans-Serif" font-size="11.00">relation_name</text>
<polygon fill="none" stroke="black" points="128,-79 128,-101 222,-101 222,-79 128,-79"/>
<text text-anchor="start" x="131" y="-87.2" font-family="Helvetica,sans-Serif" font-size="11.00">text[2147483647]</text>
<polygon fill="none" stroke="black" points="10,-57 10,-79 128,-79 128,-57 10,-57"/>
<image xlink:href="../../images/primaryKeys.png" width="11px" height="12px" preserveAspectRatio="xMinYMin meet" x="15" y="-74"/>
<text text-anchor="start" x="30" y="-65.2" font-family="Helvetica,sans-Serif" font-size="11.00">uid_column</text>
<polygon fill="none" stroke="black" points="128,-57 128,-79 222,-79 222,-57 128,-57"/>
<text text-anchor="start" x="131" y="-65.2" font-family="Helvetica,sans-Serif" font-size="11.00">text[2147483647]</text>
<polygon fill="#ffffff" stroke="transparent" points="10,-39 10,-57 73,-57 73,-39 10,-39"/>
<polygon fill="none" stroke="black" points="10,-39 10,-57 73,-57 73,-39 10,-39"/>
<text text-anchor="start" x="13" y="-45.2" font-family="Helvetica,sans-Serif" font-size="11.00">&lt; 0</text>
<polygon fill="#ffffff" stroke="transparent" points="73,-39 73,-57 128,-57 128,-39 73,-39"/>
<polygon fill="none" stroke="black" points="73,-39 73,-57 128,-57 128,-39 73,-39"/>
<text text-anchor="start" x="118" y="-45.2" font-family="Helvetica,sans-Serif" font-size="11.00"> &#160;</text>
<polygon fill="#ffffff" stroke="transparent" points="128,-39 128,-57 222,-57 222,-39 128,-39"/>
<polygon fill="none" stroke="black" points="128,-39 128,-57 222,-57 222,-39 128,-39"/>
<text text-anchor="start" x="203" y="-45.2" font-family="Helvetica,sans-Serif" font-size="11.00">0 &gt;</text>
<polygon fill="none" stroke="black" stroke-width="2" points="9,-38 9,-124 223,-124 223,-38 9,-38"/>
</a>
</g>
</g>
</g>
</svg>
