<?xml version="1.0" encoding="UTF-8" standalone="no"?>
<!DOCTYPE svg PUBLIC "-//W3C//DTD SVG 1.1//EN"
 "http://www.w3.org/Graphics/SVG/1.1/DTD/svg11.dtd">
<!-- Generated by graphviz version 2.43.0 (0)
 -->
<!-- Title: oneDegreeRelationshipsDiagram Pages: 1 -->
<svg width="359pt" height="1043pt"
 viewBox="0.00 0.00 359.00 1043.00" xmlns="http://www.w3.org/2000/svg" xmlns:xlink="http://www.w3.org/1999/xlink">
<g id="graph0" class="graph" transform="scale(1 1) rotate(0) translate(4 1039)">
<title>oneDegreeRelationshipsDiagram</title>
<polygon fill="#ffffff" stroke="transparent" points="-4,4 -4,-1039 355,-1039 355,4 -4,4"/>
<text text-anchor="middle" x="79.5" y="-7.2" font-family="Helvetica,sans-Serif" font-size="11.00">Generated by SchemaSpy</text>
<!-- import_vw_manhole -->
<g id="node1" class="node">
<title>import_vw_manhole</title>
<g id="a_node1"><a xlink:href="../../tables/import_vw_manhole.html" xlink:title="import_vw_manhole" target="_top">
<polygon fill="#ffffff" stroke="transparent" points="8,-37 8,-1031 343,-1031 343,-37 8,-37"/>
<polygon fill="#f5f5f5" stroke="transparent" points="10.5,-1007 10.5,-1029 341.5,-1029 341.5,-1007 10.5,-1007"/>
<polygon fill="none" stroke="black" points="10.5,-1007 10.5,-1029 341.5,-1029 341.5,-1007 10.5,-1007"/>
<text text-anchor="start" x="15.5" y="-1016.2" font-family="Helvetica,sans-Serif" font-weight="bold" font-size="11.00">import_vw_manhole</text>
<text text-anchor="start" x="301.5" y="-1015.2" font-family="Helvetica,sans-Serif" font-size="11.00">[view]</text>
<polygon fill="none" stroke="black" points="10.5,-985 10.5,-1007 205.5,-1007 205.5,-985 10.5,-985"/>
<text text-anchor="start" x="30.5" y="-993.2" font-family="Helvetica,sans-Serif" font-size="11.00">obj_id</text>
<polygon fill="none" stroke="black" points="205.5,-985 205.5,-1007 341.5,-1007 341.5,-985 205.5,-985"/>
<text text-anchor="start" x="208.5" y="-993.2" font-family="Helvetica,sans-Serif" font-size="11.00">varchar[16]</text>
<polygon fill="none" stroke="black" points="10.5,-963 10.5,-985 205.5,-985 205.5,-963 10.5,-963"/>
<text text-anchor="start" x="30.5" y="-971.2" font-family="Helvetica,sans-Serif" font-size="11.00">identifier</text>
<polygon fill="none" stroke="black" points="205.5,-963 205.5,-985 341.5,-985 341.5,-963 205.5,-963"/>
<text text-anchor="start" x="208.5" y="-971.2" font-family="Helvetica,sans-Serif" font-size="11.00">text[2147483647]</text>
<polygon fill="none" stroke="black" points="10.5,-941 10.5,-963 205.5,-963 205.5,-941 10.5,-941"/>
<text text-anchor="start" x="30.5" y="-949.2" font-family="Helvetica,sans-Serif" font-size="11.00">situation_geometry</text>
<polygon fill="none" stroke="black" points="205.5,-941 205.5,-963 341.5,-963 341.5,-941 205.5,-941"/>
<text text-anchor="start" x="208.5" y="-949.2" font-family="Helvetica,sans-Serif" font-size="11.00">geometry[2147483647]</text>
<polygon fill="none" stroke="black" points="10.5,-919 10.5,-941 205.5,-941 205.5,-919 10.5,-919"/>
<text text-anchor="start" x="30.5" y="-927.2" font-family="Helvetica,sans-Serif" font-size="11.00">co_shape</text>
<polygon fill="none" stroke="black" points="205.5,-919 205.5,-941 341.5,-941 341.5,-919 205.5,-919"/>
<text text-anchor="start" x="208.5" y="-927.2" font-family="Helvetica,sans-Serif" font-size="11.00">int4[10]</text>
<polygon fill="none" stroke="black" points="10.5,-897 10.5,-919 205.5,-919 205.5,-897 10.5,-897"/>
<text text-anchor="start" x="30.5" y="-905.2" font-family="Helvetica,sans-Serif" font-size="11.00">co_diameter</text>
<polygon fill="none" stroke="black" points="205.5,-897 205.5,-919 341.5,-919 341.5,-897 205.5,-897"/>
<text text-anchor="start" x="208.5" y="-905.2" font-family="Helvetica,sans-Serif" font-size="11.00">int2[5]</text>
<polygon fill="none" stroke="black" points="10.5,-875 10.5,-897 205.5,-897 205.5,-875 10.5,-875"/>
<text text-anchor="start" x="30.5" y="-883.2" font-family="Helvetica,sans-Serif" font-size="11.00">co_material</text>
<polygon fill="none" stroke="black" points="205.5,-875 205.5,-897 341.5,-897 341.5,-875 205.5,-875"/>
<text text-anchor="start" x="208.5" y="-883.2" font-family="Helvetica,sans-Serif" font-size="11.00">int4[10]</text>
<polygon fill="none" stroke="black" points="10.5,-853 10.5,-875 205.5,-875 205.5,-853 10.5,-853"/>
<text text-anchor="start" x="30.5" y="-861.2" font-family="Helvetica,sans-Serif" font-size="11.00">co_positional_accuracy</text>
<polygon fill="none" stroke="black" points="205.5,-853 205.5,-875 341.5,-875 341.5,-853 205.5,-853"/>
<text text-anchor="start" x="208.5" y="-861.2" font-family="Helvetica,sans-Serif" font-size="11.00">int4[10]</text>
<polygon fill="none" stroke="black" points="10.5,-831 10.5,-853 205.5,-853 205.5,-831 10.5,-831"/>
<text text-anchor="start" x="30.5" y="-839.2" font-family="Helvetica,sans-Serif" font-size="11.00">co_level</text>
<polygon fill="none" stroke="black" points="205.5,-831 205.5,-853 341.5,-853 341.5,-831 205.5,-831"/>
<text text-anchor="start" x="208.5" y="-839.2" font-family="Helvetica,sans-Serif" font-size="11.00">numeric[7,3]</text>
<polygon fill="none" stroke="black" points="10.5,-809 10.5,-831 205.5,-831 205.5,-809 10.5,-809"/>
<text text-anchor="start" x="30.5" y="-817.2" font-family="Helvetica,sans-Serif" font-size="11.00">_depth</text>
<polygon fill="none" stroke="black" points="205.5,-809 205.5,-831 341.5,-831 341.5,-809 205.5,-809"/>
<text text-anchor="start" x="208.5" y="-817.2" font-family="Helvetica,sans-Serif" font-size="11.00">numeric[6,3]</text>
<polygon fill="none" stroke="black" points="10.5,-787 10.5,-809 205.5,-809 205.5,-787 10.5,-787"/>
<text text-anchor="start" x="30.5" y="-795.2" font-family="Helvetica,sans-Serif" font-size="11.00">_channel_usage_current</text>
<polygon fill="none" stroke="black" points="205.5,-787 205.5,-809 341.5,-809 341.5,-787 205.5,-787"/>
<text text-anchor="start" x="208.5" y="-795.2" font-family="Helvetica,sans-Serif" font-size="11.00">int4[10]</text>
<polygon fill="none" stroke="black" points="10.5,-765 10.5,-787 205.5,-787 205.5,-765 10.5,-765"/>
<text text-anchor="start" x="30.5" y="-773.2" font-family="Helvetica,sans-Serif" font-size="11.00">ma_material</text>
<polygon fill="none" stroke="black" points="205.5,-765 205.5,-787 341.5,-787 341.5,-765 205.5,-765"/>
<text text-anchor="start" x="208.5" y="-773.2" font-family="Helvetica,sans-Serif" font-size="11.00">int4[10]</text>
<polygon fill="none" stroke="black" points="10.5,-743 10.5,-765 205.5,-765 205.5,-743 10.5,-743"/>
<text text-anchor="start" x="30.5" y="-751.2" font-family="Helvetica,sans-Serif" font-size="11.00">ma_dimension1</text>
<polygon fill="none" stroke="black" points="205.5,-743 205.5,-765 341.5,-765 341.5,-743 205.5,-743"/>
<text text-anchor="start" x="208.5" y="-751.2" font-family="Helvetica,sans-Serif" font-size="11.00">int2[5]</text>
<polygon fill="none" stroke="black" points="10.5,-721 10.5,-743 205.5,-743 205.5,-721 10.5,-721"/>
<text text-anchor="start" x="30.5" y="-729.2" font-family="Helvetica,sans-Serif" font-size="11.00">ma_dimension2</text>
<polygon fill="none" stroke="black" points="205.5,-721 205.5,-743 341.5,-743 341.5,-721 205.5,-721"/>
<text text-anchor="start" x="208.5" y="-729.2" font-family="Helvetica,sans-Serif" font-size="11.00">int2[5]</text>
<polygon fill="none" stroke="black" points="10.5,-699 10.5,-721 205.5,-721 205.5,-699 10.5,-699"/>
<text text-anchor="start" x="30.5" y="-707.2" font-family="Helvetica,sans-Serif" font-size="11.00">ws_type</text>
<polygon fill="none" stroke="black" points="205.5,-699 205.5,-721 341.5,-721 341.5,-699 205.5,-699"/>
<text text-anchor="start" x="208.5" y="-707.2" font-family="Helvetica,sans-Serif" font-size="11.00">text[2147483647]</text>
<polygon fill="none" stroke="black" points="10.5,-677 10.5,-699 205.5,-699 205.5,-677 10.5,-677"/>
<text text-anchor="start" x="30.5" y="-685.2" font-family="Helvetica,sans-Serif" font-size="11.00">ma_function</text>
<polygon fill="none" stroke="black" points="205.5,-677 205.5,-699 341.5,-699 341.5,-677 205.5,-677"/>
<text text-anchor="start" x="208.5" y="-685.2" font-family="Helvetica,sans-Serif" font-size="11.00">int4[10]</text>
<polygon fill="none" stroke="black" points="10.5,-655 10.5,-677 205.5,-677 205.5,-655 10.5,-655"/>
<text text-anchor="start" x="30.5" y="-663.2" font-family="Helvetica,sans-Serif" font-size="11.00">ss_function</text>
<polygon fill="none" stroke="black" points="205.5,-655 205.5,-677 341.5,-677 341.5,-655 205.5,-655"/>
<text text-anchor="start" x="208.5" y="-663.2" font-family="Helvetica,sans-Serif" font-size="11.00">int4[10]</text>
<polygon fill="none" stroke="black" points="10.5,-633 10.5,-655 205.5,-655 205.5,-633 10.5,-633"/>
<text text-anchor="start" x="30.5" y="-641.2" font-family="Helvetica,sans-Serif" font-size="11.00">remark</text>
<polygon fill="none" stroke="black" points="205.5,-633 205.5,-655 341.5,-655 341.5,-633 205.5,-633"/>
<text text-anchor="start" x="208.5" y="-641.2" font-family="Helvetica,sans-Serif" font-size="11.00">text[2147483647]</text>
<polygon fill="none" stroke="black" points="10.5,-611 10.5,-633 205.5,-633 205.5,-611 10.5,-611"/>
<text text-anchor="start" x="30.5" y="-619.2" font-family="Helvetica,sans-Serif" font-size="11.00">wn_bottom_level</text>
<polygon fill="none" stroke="black" points="205.5,-611 205.5,-633 341.5,-633 341.5,-611 205.5,-611"/>
<text text-anchor="start" x="208.5" y="-619.2" font-family="Helvetica,sans-Serif" font-size="11.00">numeric[7,3]</text>
<polygon fill="none" stroke="black" points="10.5,-589 10.5,-611 205.5,-611 205.5,-589 10.5,-589"/>
<text text-anchor="start" x="30.5" y="-597.2" font-family="Helvetica,sans-Serif" font-size="11.00">photo1</text>
<polygon fill="none" stroke="black" points="205.5,-589 205.5,-611 341.5,-611 341.5,-589 205.5,-589"/>
<text text-anchor="start" x="208.5" y="-597.2" font-family="Helvetica,sans-Serif" font-size="11.00">text[2147483647]</text>
<polygon fill="none" stroke="black" points="10.5,-567 10.5,-589 205.5,-589 205.5,-567 10.5,-567"/>
<text text-anchor="start" x="30.5" y="-575.2" font-family="Helvetica,sans-Serif" font-size="11.00">photo2</text>
<polygon fill="none" stroke="black" points="205.5,-567 205.5,-589 341.5,-589 341.5,-567 205.5,-567"/>
<text text-anchor="start" x="208.5" y="-575.2" font-family="Helvetica,sans-Serif" font-size="11.00">text[2147483647]</text>
<polygon fill="none" stroke="black" points="10.5,-545 10.5,-567 205.5,-567 205.5,-545 10.5,-545"/>
<text text-anchor="start" x="30.5" y="-553.2" font-family="Helvetica,sans-Serif" font-size="11.00">inlet_3_material</text>
<polygon fill="none" stroke="black" points="205.5,-545 205.5,-567 341.5,-567 341.5,-545 205.5,-545"/>
<text text-anchor="start" x="208.5" y="-553.2" font-family="Helvetica,sans-Serif" font-size="11.00">int2[5]</text>
<polygon fill="none" stroke="black" points="10.5,-523 10.5,-545 205.5,-545 205.5,-523 10.5,-523"/>
<text text-anchor="start" x="30.5" y="-531.2" font-family="Helvetica,sans-Serif" font-size="11.00">inlet_3_clear_height</text>
<polygon fill="none" stroke="black" points="205.5,-523 205.5,-545 341.5,-545 341.5,-523 205.5,-523"/>
<text text-anchor="start" x="208.5" y="-531.2" font-family="Helvetica,sans-Serif" font-size="11.00">int4[10]</text>
<polygon fill="none" stroke="black" points="10.5,-501 10.5,-523 205.5,-523 205.5,-501 10.5,-501"/>
<text text-anchor="start" x="30.5" y="-509.2" font-family="Helvetica,sans-Serif" font-size="11.00">inlet_3_depth_m</text>
<polygon fill="none" stroke="black" points="205.5,-501 205.5,-523 341.5,-523 341.5,-501 205.5,-501"/>
<text text-anchor="start" x="208.5" y="-509.2" font-family="Helvetica,sans-Serif" font-size="11.00">numeric[7,3]</text>
<polygon fill="none" stroke="black" points="10.5,-479 10.5,-501 205.5,-501 205.5,-479 10.5,-479"/>
<text text-anchor="start" x="30.5" y="-487.2" font-family="Helvetica,sans-Serif" font-size="11.00">inlet_4_material</text>
<polygon fill="none" stroke="black" points="205.5,-479 205.5,-501 341.5,-501 341.5,-479 205.5,-479"/>
<text text-anchor="start" x="208.5" y="-487.2" font-family="Helvetica,sans-Serif" font-size="11.00">int2[5]</text>
<polygon fill="none" stroke="black" points="10.5,-457 10.5,-479 205.5,-479 205.5,-457 10.5,-457"/>
<text text-anchor="start" x="30.5" y="-465.2" font-family="Helvetica,sans-Serif" font-size="11.00">inlet_4_clear_height</text>
<polygon fill="none" stroke="black" points="205.5,-457 205.5,-479 341.5,-479 341.5,-457 205.5,-457"/>
<text text-anchor="start" x="208.5" y="-465.2" font-family="Helvetica,sans-Serif" font-size="11.00">int4[10]</text>
<polygon fill="none" stroke="black" points="10.5,-435 10.5,-457 205.5,-457 205.5,-435 10.5,-435"/>
<text text-anchor="start" x="30.5" y="-443.2" font-family="Helvetica,sans-Serif" font-size="11.00">inlet_4_depth_m</text>
<polygon fill="none" stroke="black" points="205.5,-435 205.5,-457 341.5,-457 341.5,-435 205.5,-435"/>
<text text-anchor="start" x="208.5" y="-443.2" font-family="Helvetica,sans-Serif" font-size="11.00">numeric[7,3]</text>
<polygon fill="none" stroke="black" points="10.5,-413 10.5,-435 205.5,-435 205.5,-413 10.5,-413"/>
<text text-anchor="start" x="30.5" y="-421.2" font-family="Helvetica,sans-Serif" font-size="11.00">inlet_5_material</text>
<polygon fill="none" stroke="black" points="205.5,-413 205.5,-435 341.5,-435 341.5,-413 205.5,-413"/>
<text text-anchor="start" x="208.5" y="-421.2" font-family="Helvetica,sans-Serif" font-size="11.00">int2[5]</text>
<polygon fill="none" stroke="black" points="10.5,-391 10.5,-413 205.5,-413 205.5,-391 10.5,-391"/>
<text text-anchor="start" x="30.5" y="-399.2" font-family="Helvetica,sans-Serif" font-size="11.00">inlet_5_clear_height</text>
<polygon fill="none" stroke="black" points="205.5,-391 205.5,-413 341.5,-413 341.5,-391 205.5,-391"/>
<text text-anchor="start" x="208.5" y="-399.2" font-family="Helvetica,sans-Serif" font-size="11.00">int4[10]</text>
<polygon fill="none" stroke="black" points="10.5,-369 10.5,-391 205.5,-391 205.5,-369 10.5,-369"/>
<text text-anchor="start" x="30.5" y="-377.2" font-family="Helvetica,sans-Serif" font-size="11.00">inlet_5_depth_m</text>
<polygon fill="none" stroke="black" points="205.5,-369 205.5,-391 341.5,-391 341.5,-369 205.5,-369"/>
<text text-anchor="start" x="208.5" y="-377.2" font-family="Helvetica,sans-Serif" font-size="11.00">numeric[7,3]</text>
<polygon fill="none" stroke="black" points="10.5,-347 10.5,-369 205.5,-369 205.5,-347 10.5,-347"/>
<text text-anchor="start" x="30.5" y="-355.2" font-family="Helvetica,sans-Serif" font-size="11.00">inlet_6_material</text>
<polygon fill="none" stroke="black" points="205.5,-347 205.5,-369 341.5,-369 341.5,-347 205.5,-347"/>
<text text-anchor="start" x="208.5" y="-355.2" font-family="Helvetica,sans-Serif" font-size="11.00">int2[5]</text>
<polygon fill="none" stroke="black" points="10.5,-325 10.5,-347 205.5,-347 205.5,-325 10.5,-325"/>
<text text-anchor="start" x="30.5" y="-333.2" font-family="Helvetica,sans-Serif" font-size="11.00">inlet_6_clear_height</text>
<polygon fill="none" stroke="black" points="205.5,-325 205.5,-347 341.5,-347 341.5,-325 205.5,-325"/>
<text text-anchor="start" x="208.5" y="-333.2" font-family="Helvetica,sans-Serif" font-size="11.00">int4[10]</text>
<polygon fill="none" stroke="black" points="10.5,-303 10.5,-325 205.5,-325 205.5,-303 10.5,-303"/>
<text text-anchor="start" x="30.5" y="-311.2" font-family="Helvetica,sans-Serif" font-size="11.00">inlet_6_depth_m</text>
<polygon fill="none" stroke="black" points="205.5,-303 205.5,-325 341.5,-325 341.5,-303 205.5,-303"/>
<text text-anchor="start" x="208.5" y="-311.2" font-family="Helvetica,sans-Serif" font-size="11.00">numeric[7,3]</text>
<polygon fill="none" stroke="black" points="10.5,-281 10.5,-303 205.5,-303 205.5,-281 10.5,-281"/>
<text text-anchor="start" x="30.5" y="-289.2" font-family="Helvetica,sans-Serif" font-size="11.00">inlet_7_material</text>
<polygon fill="none" stroke="black" points="205.5,-281 205.5,-303 341.5,-303 341.5,-281 205.5,-281"/>
<text text-anchor="start" x="208.5" y="-289.2" font-family="Helvetica,sans-Serif" font-size="11.00">int2[5]</text>
<polygon fill="none" stroke="black" points="10.5,-259 10.5,-281 205.5,-281 205.5,-259 10.5,-259"/>
<text text-anchor="start" x="30.5" y="-267.2" font-family="Helvetica,sans-Serif" font-size="11.00">inlet_7_clear_height</text>
<polygon fill="none" stroke="black" points="205.5,-259 205.5,-281 341.5,-281 341.5,-259 205.5,-259"/>
<text text-anchor="start" x="208.5" y="-267.2" font-family="Helvetica,sans-Serif" font-size="11.00">int4[10]</text>
<polygon fill="none" stroke="black" points="10.5,-237 10.5,-259 205.5,-259 205.5,-237 10.5,-237"/>
<text text-anchor="start" x="30.5" y="-245.2" font-family="Helvetica,sans-Serif" font-size="11.00">inlet_7_depth_m</text>
<polygon fill="none" stroke="black" points="205.5,-237 205.5,-259 341.5,-259 341.5,-237 205.5,-237"/>
<text text-anchor="start" x="208.5" y="-245.2" font-family="Helvetica,sans-Serif" font-size="11.00">numeric[7,3]</text>
<polygon fill="none" stroke="black" points="10.5,-215 10.5,-237 205.5,-237 205.5,-215 10.5,-215"/>
<text text-anchor="start" x="30.5" y="-223.2" font-family="Helvetica,sans-Serif" font-size="11.00">outlet_1_material</text>
<polygon fill="none" stroke="black" points="205.5,-215 205.5,-237 341.5,-237 341.5,-215 205.5,-215"/>
<text text-anchor="start" x="208.5" y="-223.2" font-family="Helvetica,sans-Serif" font-size="11.00">int2[5]</text>
<polygon fill="none" stroke="black" points="10.5,-193 10.5,-215 205.5,-215 205.5,-193 10.5,-193"/>
<text text-anchor="start" x="30.5" y="-201.2" font-family="Helvetica,sans-Serif" font-size="11.00">outlet_1_clear_height</text>
<polygon fill="none" stroke="black" points="205.5,-193 205.5,-215 341.5,-215 341.5,-193 205.5,-193"/>
<text text-anchor="start" x="208.5" y="-201.2" font-family="Helvetica,sans-Serif" font-size="11.00">int4[10]</text>
<polygon fill="none" stroke="black" points="10.5,-171 10.5,-193 205.5,-193 205.5,-171 10.5,-171"/>
<text text-anchor="start" x="30.5" y="-179.2" font-family="Helvetica,sans-Serif" font-size="11.00">outlet_1_depth_m</text>
<polygon fill="none" stroke="black" points="205.5,-171 205.5,-193 341.5,-193 341.5,-171 205.5,-171"/>
<text text-anchor="start" x="208.5" y="-179.2" font-family="Helvetica,sans-Serif" font-size="11.00">numeric[7,3]</text>
<polygon fill="none" stroke="black" points="10.5,-149 10.5,-171 205.5,-171 205.5,-149 10.5,-149"/>
<text text-anchor="start" x="30.5" y="-157.2" font-family="Helvetica,sans-Serif" font-size="11.00">outlet_2_material</text>
<polygon fill="none" stroke="black" points="205.5,-149 205.5,-171 341.5,-171 341.5,-149 205.5,-149"/>
<text text-anchor="start" x="208.5" y="-157.2" font-family="Helvetica,sans-Serif" font-size="11.00">int2[5]</text>
<polygon fill="none" stroke="black" points="10.5,-127 10.5,-149 205.5,-149 205.5,-127 10.5,-127"/>
<text text-anchor="start" x="30.5" y="-135.2" font-family="Helvetica,sans-Serif" font-size="11.00">outlet_2_clear_height</text>
<polygon fill="none" stroke="black" points="205.5,-127 205.5,-149 341.5,-149 341.5,-127 205.5,-127"/>
<text text-anchor="start" x="208.5" y="-135.2" font-family="Helvetica,sans-Serif" font-size="11.00">int4[10]</text>
<polygon fill="none" stroke="black" points="10.5,-105 10.5,-127 205.5,-127 205.5,-105 10.5,-105"/>
<text text-anchor="start" x="30.5" y="-113.2" font-family="Helvetica,sans-Serif" font-size="11.00">outlet_2_depth_m</text>
<polygon fill="none" stroke="black" points="205.5,-105 205.5,-127 341.5,-127 341.5,-105 205.5,-105"/>
<text text-anchor="start" x="208.5" y="-113.2" font-family="Helvetica,sans-Serif" font-size="11.00">numeric[7,3]</text>
<polygon fill="none" stroke="black" points="10.5,-83 10.5,-105 205.5,-105 205.5,-83 10.5,-83"/>
<text text-anchor="start" x="30.5" y="-91.2" font-family="Helvetica,sans-Serif" font-size="11.00">verified</text>
<polygon fill="none" stroke="black" points="205.5,-83 205.5,-105 341.5,-105 341.5,-83 205.5,-83"/>
<text text-anchor="start" x="208.5" y="-91.2" font-family="Helvetica,sans-Serif" font-size="11.00">bool[1]</text>
<polygon fill="none" stroke="black" points="10.5,-61 10.5,-83 205.5,-83 205.5,-61 10.5,-61"/>
<text text-anchor="start" x="30.5" y="-69.2" font-family="Helvetica,sans-Serif" font-size="11.00">in_quarantine</text>
<polygon fill="none" stroke="black" points="205.5,-61 205.5,-83 341.5,-83 341.5,-61 205.5,-61"/>
<text text-anchor="start" x="208.5" y="-69.2" font-family="Helvetica,sans-Serif" font-size="11.00">bool[1]</text>
<polygon fill="none" stroke="black" points="10.5,-39 10.5,-61 205.5,-61 205.5,-39 10.5,-39"/>
<text text-anchor="start" x="30.5" y="-47.2" font-family="Helvetica,sans-Serif" font-size="11.00">deleted</text>
<polygon fill="none" stroke="black" points="205.5,-39 205.5,-61 341.5,-61 341.5,-39 205.5,-39"/>
<text text-anchor="start" x="208.5" y="-47.2" font-family="Helvetica,sans-Serif" font-size="11.00">bool[1]</text>
<polygon fill="none" stroke="black" stroke-width="2" points="9,-38 9,-1030 342,-1030 342,-38 9,-38"/>
</a>
</g>
</g>
</g>
</svg>
