<?xml version="1.0" encoding="UTF-8" standalone="no"?>
<!DOCTYPE svg PUBLIC "-//W3C//DTD SVG 1.1//EN"
 "http://www.w3.org/Graphics/SVG/1.1/DTD/svg11.dtd">
<!-- Generated by graphviz version 2.47.1 (20210515.0534)
 -->
<!-- Title: oneDegreeRelationshipsDiagram Pages: 1 -->
<svg width="296pt" height="273pt"
 viewBox="0.00 0.00 296.00 273.00" xmlns="http://www.w3.org/2000/svg" xmlns:xlink="http://www.w3.org/1999/xlink">
<g id="graph0" class="graph" transform="scale(1 1) rotate(0) translate(4 269)">
<title>oneDegreeRelationshipsDiagram</title>
<polygon fill="#ffffff" stroke="transparent" points="-4,4 -4,-269 292,-269 292,4 -4,4"/>
<text text-anchor="middle" x="73.5" y="-7.2" font-family="Helvetica,sans-Serif" font-size="11.00">Generated by SchemaSpy</text>
<!-- swmm_vw_raingages -->
<g id="node1" class="node">
<title>swmm_vw_raingages</title>
<g id="a_node1"><a xlink:href="../../tables/swmm_vw_raingages.html" xlink:title="swmm_vw_raingages" target="_top">
<polygon fill="#ffffff" stroke="transparent" points="8,-37 8,-261 280,-261 280,-37 8,-37"/>
<polygon fill="#f5f5f5" stroke="transparent" points="10,-237 10,-259 278,-259 278,-237 10,-237"/>
<polygon fill="none" stroke="black" points="10,-237 10,-259 278,-259 278,-237 10,-237"/>
<text text-anchor="start" x="15" y="-246.2" font-family="Helvetica,sans-Serif" font-weight="bold" font-size="11.00">swmm_vw_raingages</text>
<text text-anchor="start" x="242" y="-245.2" font-family="Helvetica,sans-Serif" font-size="11.00">[view]</text>
<polygon fill="none" stroke="black" points="10,-215 10,-237 155,-237 155,-215 10,-215"/>
<text text-anchor="start" x="30" y="-223.2" font-family="Helvetica,sans-Serif" font-size="11.00">name</text>
<polygon fill="none" stroke="black" points="155,-215 155,-237 278,-237 278,-215 155,-215"/>
<text text-anchor="start" x="158" y="-223.2" font-family="Helvetica,sans-Serif" font-size="11.00">varchar[2147483647]</text>
<polygon fill="none" stroke="black" points="10,-193 10,-215 155,-215 155,-193 10,-193"/>
<text text-anchor="start" x="30" y="-201.2" font-family="Helvetica,sans-Serif" font-size="11.00">format</text>
<polygon fill="none" stroke="black" points="155,-193 155,-215 278,-215 278,-193 155,-193"/>
<text text-anchor="start" x="158" y="-201.2" font-family="Helvetica,sans-Serif" font-size="11.00">varchar[2147483647]</text>
<polygon fill="none" stroke="black" points="10,-171 10,-193 155,-193 155,-171 10,-171"/>
<text text-anchor="start" x="30" y="-179.2" font-family="Helvetica,sans-Serif" font-size="11.00">interval</text>
<polygon fill="none" stroke="black" points="155,-171 155,-193 278,-193 278,-171 155,-171"/>
<text text-anchor="start" x="158" y="-179.2" font-family="Helvetica,sans-Serif" font-size="11.00">varchar[2147483647]</text>
<polygon fill="none" stroke="black" points="10,-149 10,-171 155,-171 155,-149 10,-149"/>
<text text-anchor="start" x="30" y="-157.2" font-family="Helvetica,sans-Serif" font-size="11.00">scf</text>
<polygon fill="none" stroke="black" points="155,-149 155,-171 278,-171 278,-149 155,-149"/>
<text text-anchor="start" x="158" y="-157.2" font-family="Helvetica,sans-Serif" font-size="11.00">varchar[2147483647]</text>
<polygon fill="none" stroke="black" points="10,-127 10,-149 155,-149 155,-127 10,-127"/>
<text text-anchor="start" x="30" y="-135.2" font-family="Helvetica,sans-Serif" font-size="11.00">source</text>
<polygon fill="none" stroke="black" points="155,-127 155,-149 278,-149 278,-127 155,-127"/>
<text text-anchor="start" x="158" y="-135.2" font-family="Helvetica,sans-Serif" font-size="11.00">varchar[2147483647]</text>
<polygon fill="none" stroke="black" points="10,-105 10,-127 155,-127 155,-105 10,-105"/>
<text text-anchor="start" x="30" y="-113.2" font-family="Helvetica,sans-Serif" font-size="11.00">geom</text>
<polygon fill="none" stroke="black" points="155,-105 155,-127 278,-127 278,-105 155,-105"/>
<text text-anchor="start" x="158" y="-113.2" font-family="Helvetica,sans-Serif" font-size="11.00">geometry[2147483647]</text>
<polygon fill="none" stroke="black" points="10,-83 10,-105 155,-105 155,-83 10,-83"/>
<text text-anchor="start" x="30" y="-91.2" font-family="Helvetica,sans-Serif" font-size="11.00">state</text>
<polygon fill="none" stroke="black" points="155,-83 155,-105 278,-105 278,-83 155,-83"/>
<text text-anchor="start" x="158" y="-91.2" font-family="Helvetica,sans-Serif" font-size="11.00">text[2147483647]</text>
<polygon fill="none" stroke="black" points="10,-61 10,-83 155,-83 155,-61 10,-61"/>
<text text-anchor="start" x="30" y="-69.2" font-family="Helvetica,sans-Serif" font-size="11.00">hierarchy</text>
<polygon fill="none" stroke="black" points="155,-61 155,-83 278,-83 278,-61 155,-61"/>
<text text-anchor="start" x="158" y="-69.2" font-family="Helvetica,sans-Serif" font-size="11.00">text[2147483647]</text>
<polygon fill="none" stroke="black" points="10,-39 10,-61 155,-61 155,-39 10,-39"/>
<text text-anchor="start" x="30" y="-47.2" font-family="Helvetica,sans-Serif" font-size="11.00">obj_id</text>
<polygon fill="none" stroke="black" points="155,-39 155,-61 278,-61 278,-39 155,-39"/>
<text text-anchor="start" x="158" y="-47.2" font-family="Helvetica,sans-Serif" font-size="11.00">varchar[16]</text>
<polygon fill="none" stroke="black" stroke-width="2" points="9,-38 9,-260 279,-260 279,-38 9,-38"/>
</a>
</g>
</g>
</g>
</svg>
