<?xml version="1.0" encoding="UTF-8" standalone="no"?>
<!DOCTYPE svg PUBLIC "-//W3C//DTD SVG 1.1//EN"
 "http://www.w3.org/Graphics/SVG/1.1/DTD/svg11.dtd">
<!-- Generated by graphviz version 2.47.1 (20210515.0534)
 -->
<!-- Title: oneDegreeRelationshipsDiagram Pages: 1 -->
<svg width="266pt" height="317pt"
 viewBox="0.00 0.00 266.00 317.00" xmlns="http://www.w3.org/2000/svg" xmlns:xlink="http://www.w3.org/1999/xlink">
<g id="graph0" class="graph" transform="scale(1 1) rotate(0) translate(4 313)">
<title>oneDegreeRelationshipsDiagram</title>
<polygon fill="#ffffff" stroke="transparent" points="-4,4 -4,-313 262,-313 262,4 -4,4"/>
<text text-anchor="middle" x="73.5" y="-7.2" font-family="Helvetica,sans-Serif" font-size="11.00">Generated by SchemaSpy</text>
<!-- swmm_vw_xsections -->
<g id="node1" class="node">
<title>swmm_vw_xsections</title>
<g id="a_node1"><a xlink:href="../../tables/swmm_vw_xsections.html" xlink:title="swmm_vw_xsections" target="_top">
<polygon fill="#ffffff" stroke="transparent" points="8,-37 8,-305 250,-305 250,-37 8,-37"/>
<polygon fill="#f5f5f5" stroke="transparent" points="10,-281 10,-303 248,-303 248,-281 10,-281"/>
<polygon fill="none" stroke="black" points="10,-281 10,-303 248,-303 248,-281 10,-281"/>
<text text-anchor="start" x="15" y="-290.2" font-family="Helvetica,sans-Serif" font-weight="bold" font-size="11.00">swmm_vw_xsections</text>
<text text-anchor="start" x="212" y="-289.2" font-family="Helvetica,sans-Serif" font-size="11.00">[view]</text>
<polygon fill="none" stroke="black" points="10,-259 10,-281 154,-281 154,-259 10,-259"/>
<text text-anchor="start" x="30" y="-267.2" font-family="Helvetica,sans-Serif" font-size="11.00">link</text>
<polygon fill="none" stroke="black" points="154,-259 154,-281 248,-281 248,-259 154,-259"/>
<text text-anchor="start" x="157" y="-267.2" font-family="Helvetica,sans-Serif" font-size="11.00">varchar[16]</text>
<polygon fill="none" stroke="black" points="10,-237 10,-259 154,-259 154,-237 10,-237"/>
<text text-anchor="start" x="30" y="-245.2" font-family="Helvetica,sans-Serif" font-size="11.00">shape</text>
<polygon fill="none" stroke="black" points="154,-237 154,-259 248,-259 248,-237 154,-237"/>
<text text-anchor="start" x="157" y="-245.2" font-family="Helvetica,sans-Serif" font-size="11.00">text[2147483647]</text>
<polygon fill="none" stroke="black" points="10,-215 10,-237 154,-237 154,-215 10,-215"/>
<text text-anchor="start" x="30" y="-223.2" font-family="Helvetica,sans-Serif" font-size="11.00">geom1</text>
<polygon fill="none" stroke="black" points="154,-215 154,-237 248,-237 248,-215 154,-215"/>
<text text-anchor="start" x="157" y="-223.2" font-family="Helvetica,sans-Serif" font-size="11.00">float8[17,17]</text>
<polygon fill="none" stroke="black" points="10,-193 10,-215 154,-215 154,-193 10,-193"/>
<text text-anchor="start" x="30" y="-201.2" font-family="Helvetica,sans-Serif" font-size="11.00">geom2</text>
<polygon fill="none" stroke="black" points="154,-193 154,-215 248,-215 248,-193 154,-193"/>
<text text-anchor="start" x="157" y="-201.2" font-family="Helvetica,sans-Serif" font-size="11.00">float8[17,17]</text>
<polygon fill="none" stroke="black" points="10,-171 10,-193 154,-193 154,-171 10,-171"/>
<text text-anchor="start" x="30" y="-179.2" font-family="Helvetica,sans-Serif" font-size="11.00">geom3</text>
<polygon fill="none" stroke="black" points="154,-171 154,-193 248,-193 248,-171 154,-171"/>
<text text-anchor="start" x="157" y="-179.2" font-family="Helvetica,sans-Serif" font-size="11.00">int4[10]</text>
<polygon fill="none" stroke="black" points="10,-149 10,-171 154,-171 154,-149 10,-149"/>
<text text-anchor="start" x="30" y="-157.2" font-family="Helvetica,sans-Serif" font-size="11.00">geom4</text>
<polygon fill="none" stroke="black" points="154,-149 154,-171 248,-171 248,-149 154,-149"/>
<text text-anchor="start" x="157" y="-157.2" font-family="Helvetica,sans-Serif" font-size="11.00">int4[10]</text>
<polygon fill="none" stroke="black" points="10,-127 10,-149 154,-149 154,-127 10,-127"/>
<text text-anchor="start" x="30" y="-135.2" font-family="Helvetica,sans-Serif" font-size="11.00">barrels</text>
<polygon fill="none" stroke="black" points="154,-127 154,-149 248,-149 248,-127 154,-127"/>
<text text-anchor="start" x="157" y="-135.2" font-family="Helvetica,sans-Serif" font-size="11.00">int4[10]</text>
<polygon fill="none" stroke="black" points="10,-105 10,-127 154,-127 154,-105 10,-105"/>
<text text-anchor="start" x="30" y="-113.2" font-family="Helvetica,sans-Serif" font-size="11.00">culvert</text>
<polygon fill="none" stroke="black" points="154,-105 154,-127 248,-127 248,-105 154,-105"/>
<text text-anchor="start" x="157" y="-113.2" font-family="Helvetica,sans-Serif" font-size="11.00">text[2147483647]</text>
<polygon fill="none" stroke="black" points="10,-83 10,-105 154,-105 154,-83 10,-83"/>
<text text-anchor="start" x="30" y="-91.2" font-family="Helvetica,sans-Serif" font-size="11.00">state</text>
<polygon fill="none" stroke="black" points="154,-83 154,-105 248,-105 248,-83 154,-83"/>
<text text-anchor="start" x="157" y="-91.2" font-family="Helvetica,sans-Serif" font-size="11.00">text[2147483647]</text>
<polygon fill="none" stroke="black" points="10,-61 10,-83 154,-83 154,-61 10,-61"/>
<text text-anchor="start" x="30" y="-69.2" font-family="Helvetica,sans-Serif" font-size="11.00">hierarchy</text>
<polygon fill="none" stroke="black" points="154,-61 154,-83 248,-83 248,-61 154,-61"/>
<text text-anchor="start" x="157" y="-69.2" font-family="Helvetica,sans-Serif" font-size="11.00">text[2147483647]</text>
<polygon fill="none" stroke="black" points="10,-39 10,-61 154,-61 154,-39 10,-39"/>
<text text-anchor="start" x="30" y="-47.2" font-family="Helvetica,sans-Serif" font-size="11.00">obj_id</text>
<polygon fill="none" stroke="black" points="154,-39 154,-61 248,-61 248,-39 154,-39"/>
<text text-anchor="start" x="157" y="-47.2" font-family="Helvetica,sans-Serif" font-size="11.00">varchar[16]</text>
<polygon fill="none" stroke="black" stroke-width="2" points="9,-38 9,-304 249,-304 249,-38 9,-38"/>
</a>
</g>
</g>
</g>
</svg>
