<?xml version="1.0" encoding="UTF-8" standalone="no"?>
<!DOCTYPE svg PUBLIC "-//W3C//DTD SVG 1.1//EN"
 "http://www.w3.org/Graphics/SVG/1.1/DTD/svg11.dtd">
<!-- Generated by graphviz version 2.47.1 (20210515.0534)
 -->
<!-- Title: oneDegreeRelationshipsDiagram Pages: 1 -->
<svg width="396pt" height="163pt"
 viewBox="0.00 0.00 396.00 163.00" xmlns="http://www.w3.org/2000/svg" xmlns:xlink="http://www.w3.org/1999/xlink">
<g id="graph0" class="graph" transform="scale(1 1) rotate(0) translate(4 159)">
<title>oneDegreeRelationshipsDiagram</title>
<polygon fill="#ffffff" stroke="transparent" points="-4,4 -4,-159 392,-159 392,4 -4,4"/>
<text text-anchor="middle" x="73.5" y="-7.2" font-family="Helvetica,sans-Serif" font-size="11.00">Generated by SchemaSpy</text>
<!-- vw_catchment_area_rwp_connections -->
<g id="node1" class="node">
<title>vw_catchment_area_rwp_connections</title>
<g id="a_node1"><a xlink:href="../../tables/vw_catchment_area_rwp_connections.html" xlink:title="vw_catchment_area_rwp_connections" target="_top">
<polygon fill="#ffffff" stroke="transparent" points="8,-37 8,-151 380,-151 380,-37 8,-37"/>
<polygon fill="#f5f5f5" stroke="transparent" points="10,-127 10,-149 378,-149 378,-127 10,-127"/>
<polygon fill="none" stroke="black" points="10,-127 10,-149 378,-149 378,-127 10,-127"/>
<text text-anchor="start" x="15" y="-136.2" font-family="Helvetica,sans-Serif" font-weight="bold" font-size="11.00">vw_catchment_area_rwp_connections</text>
<text text-anchor="start" x="342" y="-135.2" font-family="Helvetica,sans-Serif" font-size="11.00">[view]</text>
<polygon fill="none" stroke="black" points="10,-105 10,-127 255,-127 255,-105 10,-105"/>
<text text-anchor="start" x="30" y="-113.2" font-family="Helvetica,sans-Serif" font-size="11.00">obj_id</text>
<polygon fill="none" stroke="black" points="255,-105 255,-127 378,-127 378,-105 255,-105"/>
<text text-anchor="start" x="258" y="-113.2" font-family="Helvetica,sans-Serif" font-size="11.00">varchar[16]</text>
<polygon fill="none" stroke="black" points="10,-83 10,-105 255,-105 255,-83 10,-83"/>
<text text-anchor="start" x="30" y="-91.2" font-family="Helvetica,sans-Serif" font-size="11.00">connection_rw_planned_geometry</text>
<polygon fill="none" stroke="black" points="255,-83 255,-105 378,-105 378,-83 255,-83"/>
<text text-anchor="start" x="258" y="-91.2" font-family="Helvetica,sans-Serif" font-size="11.00">geometry[2147483647]</text>
<polygon fill="none" stroke="black" points="10,-61 10,-83 255,-83 255,-61 10,-61"/>
<text text-anchor="start" x="30" y="-69.2" font-family="Helvetica,sans-Serif" font-size="11.00">length_rw_planned</text>
<polygon fill="none" stroke="black" points="255,-61 255,-83 378,-83 378,-61 255,-61"/>
<text text-anchor="start" x="258" y="-69.2" font-family="Helvetica,sans-Serif" font-size="11.00">float8[17,17]</text>
<polygon fill="none" stroke="black" points="10,-39 10,-61 255,-61 255,-39 10,-39"/>
<text text-anchor="start" x="30" y="-47.2" font-family="Helvetica,sans-Serif" font-size="11.00">node_rw_planned_obj_id</text>
<polygon fill="none" stroke="black" points="255,-39 255,-61 378,-61 378,-39 255,-39"/>
<text text-anchor="start" x="258" y="-47.2" font-family="Helvetica,sans-Serif" font-size="11.00">varchar[16]</text>
<polygon fill="none" stroke="black" stroke-width="2" points="9,-38 9,-150 379,-150 379,-38 9,-38"/>
</a>
</g>
</g>
</g>
</svg>
