<?xml version="1.0" encoding="UTF-8" standalone="no"?>
<!DOCTYPE svg PUBLIC "-//W3C//DTD SVG 1.1//EN"
 "http://www.w3.org/Graphics/SVG/1.1/DTD/svg11.dtd">
<!-- Generated by graphviz version 2.47.1 (20210515.0534)
 -->
<!-- Title: oneDegreeRelationshipsDiagram Pages: 1 -->
<svg width="346pt" height="317pt"
 viewBox="0.00 0.00 346.00 317.00" xmlns="http://www.w3.org/2000/svg" xmlns:xlink="http://www.w3.org/1999/xlink">
<g id="graph0" class="graph" transform="scale(1 1) rotate(0) translate(4 313)">
<title>oneDegreeRelationshipsDiagram</title>
<polygon fill="#ffffff" stroke="transparent" points="-4,4 -4,-313 342,-313 342,4 -4,4"/>
<text text-anchor="middle" x="73.5" y="-7.2" font-family="Helvetica,sans-Serif" font-size="11.00">Generated by SchemaSpy</text>
<!-- vw_electromechanical_equipment -->
<g id="node1" class="node">
<title>vw_electromechanical_equipment</title>
<g id="a_node1"><a xlink:href="../../tables/vw_electromechanical_equipment.html" xlink:title="vw_electromechanical_equipment" target="_top">
<polygon fill="#ffffff" stroke="transparent" points="8,-37 8,-305 330,-305 330,-37 8,-37"/>
<polygon fill="#f5f5f5" stroke="transparent" points="10,-281 10,-303 328,-303 328,-281 10,-281"/>
<polygon fill="none" stroke="black" points="10,-281 10,-303 328,-303 328,-281 10,-281"/>
<text text-anchor="start" x="15" y="-290.2" font-family="Helvetica,sans-Serif" font-weight="bold" font-size="11.00">vw_electromechanical_equipment</text>
<text text-anchor="start" x="292" y="-289.2" font-family="Helvetica,sans-Serif" font-size="11.00">[view]</text>
<polygon fill="none" stroke="black" points="10,-259 10,-281 234,-281 234,-259 10,-259"/>
<text text-anchor="start" x="30" y="-267.2" font-family="Helvetica,sans-Serif" font-size="11.00">obj_id</text>
<polygon fill="none" stroke="black" points="234,-259 234,-281 328,-281 328,-259 234,-259"/>
<text text-anchor="start" x="237" y="-267.2" font-family="Helvetica,sans-Serif" font-size="11.00">varchar[16]</text>
<polygon fill="none" stroke="black" points="10,-237 10,-259 234,-259 234,-237 10,-237"/>
<text text-anchor="start" x="30" y="-245.2" font-family="Helvetica,sans-Serif" font-size="11.00">gross_costs</text>
<polygon fill="none" stroke="black" points="234,-237 234,-259 328,-259 328,-237 234,-237"/>
<text text-anchor="start" x="237" y="-245.2" font-family="Helvetica,sans-Serif" font-size="11.00">numeric[10,2]</text>
<polygon fill="none" stroke="black" points="10,-215 10,-237 234,-237 234,-215 10,-215"/>
<text text-anchor="start" x="30" y="-223.2" font-family="Helvetica,sans-Serif" font-size="11.00">kind</text>
<polygon fill="none" stroke="black" points="234,-215 234,-237 328,-237 328,-215 234,-215"/>
<text text-anchor="start" x="237" y="-223.2" font-family="Helvetica,sans-Serif" font-size="11.00">int4[10]</text>
<polygon fill="none" stroke="black" points="10,-193 10,-215 234,-215 234,-193 10,-193"/>
<text text-anchor="start" x="30" y="-201.2" font-family="Helvetica,sans-Serif" font-size="11.00">year_of_replacement</text>
<polygon fill="none" stroke="black" points="234,-193 234,-215 328,-215 328,-193 234,-193"/>
<text text-anchor="start" x="237" y="-201.2" font-family="Helvetica,sans-Serif" font-size="11.00">int2[5]</text>
<polygon fill="none" stroke="black" points="10,-171 10,-193 234,-193 234,-171 10,-171"/>
<text text-anchor="start" x="30" y="-179.2" font-family="Helvetica,sans-Serif" font-size="11.00">fk_dataowner</text>
<polygon fill="none" stroke="black" points="234,-171 234,-193 328,-193 328,-171 234,-171"/>
<text text-anchor="start" x="237" y="-179.2" font-family="Helvetica,sans-Serif" font-size="11.00">varchar[16]</text>
<polygon fill="none" stroke="black" points="10,-149 10,-171 234,-171 234,-149 10,-149"/>
<text text-anchor="start" x="30" y="-157.2" font-family="Helvetica,sans-Serif" font-size="11.00">fk_provider</text>
<polygon fill="none" stroke="black" points="234,-149 234,-171 328,-171 328,-149 234,-149"/>
<text text-anchor="start" x="237" y="-157.2" font-family="Helvetica,sans-Serif" font-size="11.00">varchar[16]</text>
<polygon fill="none" stroke="black" points="10,-127 10,-149 234,-149 234,-127 10,-127"/>
<text text-anchor="start" x="30" y="-135.2" font-family="Helvetica,sans-Serif" font-size="11.00">fk_wastewater_structure</text>
<polygon fill="none" stroke="black" points="234,-127 234,-149 328,-149 328,-127 234,-127"/>
<text text-anchor="start" x="237" y="-135.2" font-family="Helvetica,sans-Serif" font-size="11.00">varchar[16]</text>
<polygon fill="none" stroke="black" points="10,-105 10,-127 234,-127 234,-105 10,-105"/>
<text text-anchor="start" x="30" y="-113.2" font-family="Helvetica,sans-Serif" font-size="11.00">identifier</text>
<polygon fill="none" stroke="black" points="234,-105 234,-127 328,-127 328,-105 234,-105"/>
<text text-anchor="start" x="237" y="-113.2" font-family="Helvetica,sans-Serif" font-size="11.00">text[2147483647]</text>
<polygon fill="none" stroke="black" points="10,-83 10,-105 234,-105 234,-83 10,-83"/>
<text text-anchor="start" x="30" y="-91.2" font-family="Helvetica,sans-Serif" font-size="11.00">last_modification</text>
<polygon fill="none" stroke="black" points="234,-83 234,-105 328,-105 328,-83 234,-83"/>
<text text-anchor="start" x="237" y="-91.2" font-family="Helvetica,sans-Serif" font-size="11.00">timestamp[29,6]</text>
<polygon fill="none" stroke="black" points="10,-61 10,-83 234,-83 234,-61 10,-61"/>
<text text-anchor="start" x="30" y="-69.2" font-family="Helvetica,sans-Serif" font-size="11.00">remark</text>
<polygon fill="none" stroke="black" points="234,-61 234,-83 328,-83 328,-61 234,-61"/>
<text text-anchor="start" x="237" y="-69.2" font-family="Helvetica,sans-Serif" font-size="11.00">text[2147483647]</text>
<polygon fill="none" stroke="black" points="10,-39 10,-61 234,-61 234,-39 10,-39"/>
<text text-anchor="start" x="30" y="-47.2" font-family="Helvetica,sans-Serif" font-size="11.00">renovation_demand</text>
<polygon fill="none" stroke="black" points="234,-39 234,-61 328,-61 328,-39 234,-39"/>
<text text-anchor="start" x="237" y="-47.2" font-family="Helvetica,sans-Serif" font-size="11.00">int4[10]</text>
<polygon fill="none" stroke="black" stroke-width="2" points="9,-38 9,-304 329,-304 329,-38 9,-38"/>
</a>
</g>
</g>
</g>
</svg>
