<?xml version="1.0" encoding="UTF-8" standalone="no"?>
<!DOCTYPE svg PUBLIC "-//W3C//DTD SVG 1.1//EN"
 "http://www.w3.org/Graphics/SVG/1.1/DTD/svg11.dtd">
<!-- Generated by graphviz version 2.43.0 (0)
 -->
<!-- Title: oneDegreeRelationshipsDiagram Pages: 1 -->
<svg width="233pt" height="273pt"
 viewBox="0.00 0.00 233.00 273.00" xmlns="http://www.w3.org/2000/svg" xmlns:xlink="http://www.w3.org/1999/xlink">
<g id="graph0" class="graph" transform="scale(1 1) rotate(0) translate(4 269)">
<title>oneDegreeRelationshipsDiagram</title>
<polygon fill="#ffffff" stroke="transparent" points="-4,4 -4,-269 229,-269 229,4 -4,4"/>
<text text-anchor="middle" x="79.5" y="-7.2" font-family="Helvetica,sans-Serif" font-size="11.00">Generated by SchemaSpy</text>
<!-- vw_file -->
<g id="node1" class="node">
<title>vw_file</title>
<g id="a_node1"><a xlink:href="../../tables/vw_file.html" xlink:title="vw_file" target="_top">
<polygon fill="#ffffff" stroke="transparent" points="8,-37 8,-261 217,-261 217,-37 8,-37"/>
<polygon fill="#f5f5f5" stroke="transparent" points="10.5,-237 10.5,-259 215.5,-259 215.5,-237 10.5,-237"/>
<polygon fill="none" stroke="black" points="10.5,-237 10.5,-259 215.5,-259 215.5,-237 10.5,-237"/>
<text text-anchor="start" x="15.5" y="-246.2" font-family="Helvetica,sans-Serif" font-weight="bold" font-size="11.00">vw_file</text>
<text text-anchor="start" x="175.5" y="-245.2" font-family="Helvetica,sans-Serif" font-size="11.00">[view]</text>
<polygon fill="none" stroke="black" points="10.5,-215 10.5,-237 109.5,-237 109.5,-215 10.5,-215"/>
<text text-anchor="start" x="30.5" y="-223.2" font-family="Helvetica,sans-Serif" font-size="11.00">obj_id</text>
<polygon fill="none" stroke="black" points="109.5,-215 109.5,-237 215.5,-237 215.5,-215 109.5,-215"/>
<text text-anchor="start" x="112.5" y="-223.2" font-family="Helvetica,sans-Serif" font-size="11.00">varchar[16]</text>
<polygon fill="none" stroke="black" points="10.5,-193 10.5,-215 109.5,-215 109.5,-193 10.5,-193"/>
<text text-anchor="start" x="30.5" y="-201.2" font-family="Helvetica,sans-Serif" font-size="11.00">identifier</text>
<polygon fill="none" stroke="black" points="109.5,-193 109.5,-215 215.5,-215 215.5,-193 109.5,-193"/>
<text text-anchor="start" x="112.5" y="-201.2" font-family="Helvetica,sans-Serif" font-size="11.00">text[2147483647]</text>
<polygon fill="none" stroke="black" points="10.5,-171 10.5,-193 109.5,-193 109.5,-171 10.5,-171"/>
<text text-anchor="start" x="30.5" y="-179.2" font-family="Helvetica,sans-Serif" font-size="11.00">kind</text>
<polygon fill="none" stroke="black" points="109.5,-171 109.5,-193 215.5,-193 215.5,-171 109.5,-171"/>
<text text-anchor="start" x="112.5" y="-179.2" font-family="Helvetica,sans-Serif" font-size="11.00">int4[10]</text>
<polygon fill="none" stroke="black" points="10.5,-149 10.5,-171 109.5,-171 109.5,-149 10.5,-149"/>
<text text-anchor="start" x="30.5" y="-157.2" font-family="Helvetica,sans-Serif" font-size="11.00">object</text>
<polygon fill="none" stroke="black" points="109.5,-149 109.5,-171 215.5,-171 215.5,-149 109.5,-149"/>
<text text-anchor="start" x="112.5" y="-157.2" font-family="Helvetica,sans-Serif" font-size="11.00">text[2147483647]</text>
<polygon fill="none" stroke="black" points="10.5,-127 10.5,-149 109.5,-149 109.5,-127 10.5,-127"/>
<text text-anchor="start" x="30.5" y="-135.2" font-family="Helvetica,sans-Serif" font-size="11.00">classname</text>
<polygon fill="none" stroke="black" points="109.5,-127 109.5,-149 215.5,-149 215.5,-127 109.5,-127"/>
<text text-anchor="start" x="112.5" y="-135.2" font-family="Helvetica,sans-Serif" font-size="11.00">int4[10]</text>
<polygon fill="none" stroke="black" points="10.5,-105 10.5,-127 109.5,-127 109.5,-105 10.5,-105"/>
<text text-anchor="start" x="30.5" y="-113.2" font-family="Helvetica,sans-Serif" font-size="11.00">_url</text>
<polygon fill="none" stroke="black" points="109.5,-105 109.5,-127 215.5,-127 215.5,-105 109.5,-105"/>
<text text-anchor="start" x="112.5" y="-113.2" font-family="Helvetica,sans-Serif" font-size="11.00">text[2147483647]</text>
<polygon fill="none" stroke="black" points="10.5,-83 10.5,-105 109.5,-105 109.5,-83 10.5,-83"/>
<text text-anchor="start" x="30.5" y="-91.2" font-family="Helvetica,sans-Serif" font-size="11.00">dataowner</text>
<polygon fill="none" stroke="black" points="109.5,-83 109.5,-105 215.5,-105 215.5,-83 109.5,-83"/>
<text text-anchor="start" x="112.5" y="-91.2" font-family="Helvetica,sans-Serif" font-size="11.00">varchar[16]</text>
<polygon fill="none" stroke="black" points="10.5,-61 10.5,-83 109.5,-83 109.5,-61 10.5,-61"/>
<text text-anchor="start" x="30.5" y="-69.2" font-family="Helvetica,sans-Serif" font-size="11.00">provider</text>
<polygon fill="none" stroke="black" points="109.5,-61 109.5,-83 215.5,-83 215.5,-61 109.5,-61"/>
<text text-anchor="start" x="112.5" y="-69.2" font-family="Helvetica,sans-Serif" font-size="11.00">varchar[16]</text>
<polygon fill="none" stroke="black" points="10.5,-39 10.5,-61 109.5,-61 109.5,-39 10.5,-39"/>
<text text-anchor="start" x="30.5" y="-47.2" font-family="Helvetica,sans-Serif" font-size="11.00">remark</text>
<polygon fill="none" stroke="black" points="109.5,-39 109.5,-61 215.5,-61 215.5,-39 109.5,-39"/>
<text text-anchor="start" x="112.5" y="-47.2" font-family="Helvetica,sans-Serif" font-size="11.00">text[2147483647]</text>
<polygon fill="none" stroke="black" stroke-width="2" points="9,-38 9,-260 216,-260 216,-38 9,-38"/>
</a>
</g>
</g>
</g>
</svg>
