<?xml version="1.0" encoding="UTF-8" standalone="no"?>
<!DOCTYPE svg PUBLIC "-//W3C//DTD SVG 1.1//EN"
 "http://www.w3.org/Graphics/SVG/1.1/DTD/svg11.dtd">
<!-- Generated by graphviz version 2.47.1 (20210515.0534)
 -->
<!-- Title: oneDegreeRelationshipsDiagram Pages: 1 -->
<svg width="346pt" height="1219pt"
 viewBox="0.00 0.00 346.00 1219.00" xmlns="http://www.w3.org/2000/svg" xmlns:xlink="http://www.w3.org/1999/xlink">
<g id="graph0" class="graph" transform="scale(1 1) rotate(0) translate(4 1215)">
<title>oneDegreeRelationshipsDiagram</title>
<polygon fill="#ffffff" stroke="transparent" points="-4,4 -4,-1215 342,-1215 342,4 -4,4"/>
<text text-anchor="middle" x="73.5" y="-7.2" font-family="Helvetica,sans-Serif" font-size="11.00">Generated by SchemaSpy</text>
<!-- vw_infiltration_installation -->
<g id="node1" class="node">
<title>vw_infiltration_installation</title>
<g id="a_node1"><a xlink:href="../../tables/vw_infiltration_installation.html" xlink:title="vw_infiltration_installation" target="_top">
<polygon fill="#ffffff" stroke="transparent" points="8,-37 8,-1207 330,-1207 330,-37 8,-37"/>
<polygon fill="#f5f5f5" stroke="transparent" points="10,-1183 10,-1205 328,-1205 328,-1183 10,-1183"/>
<polygon fill="none" stroke="black" points="10,-1183 10,-1205 328,-1205 328,-1183 10,-1183"/>
<text text-anchor="start" x="15" y="-1192.2" font-family="Helvetica,sans-Serif" font-weight="bold" font-size="11.00">vw_infiltration_installation</text>
<text text-anchor="start" x="292" y="-1191.2" font-family="Helvetica,sans-Serif" font-size="11.00">[view]</text>
<polygon fill="none" stroke="black" points="10,-1161 10,-1183 205,-1183 205,-1161 10,-1161"/>
<text text-anchor="start" x="30" y="-1169.2" font-family="Helvetica,sans-Serif" font-size="11.00">obj_id</text>
<polygon fill="none" stroke="black" points="205,-1161 205,-1183 328,-1183 328,-1161 205,-1161"/>
<text text-anchor="start" x="208" y="-1169.2" font-family="Helvetica,sans-Serif" font-size="11.00">varchar[16]</text>
<polygon fill="none" stroke="black" points="10,-1139 10,-1161 205,-1161 205,-1139 10,-1139"/>
<text text-anchor="start" x="30" y="-1147.2" font-family="Helvetica,sans-Serif" font-size="11.00">absorption_capacity</text>
<polygon fill="none" stroke="black" points="205,-1139 205,-1161 328,-1161 328,-1139 205,-1139"/>
<text text-anchor="start" x="208" y="-1147.2" font-family="Helvetica,sans-Serif" font-size="11.00">numeric[9,3]</text>
<polygon fill="none" stroke="black" points="10,-1117 10,-1139 205,-1139 205,-1117 10,-1117"/>
<text text-anchor="start" x="30" y="-1125.2" font-family="Helvetica,sans-Serif" font-size="11.00">defects</text>
<polygon fill="none" stroke="black" points="205,-1117 205,-1139 328,-1139 328,-1117 205,-1117"/>
<text text-anchor="start" x="208" y="-1125.2" font-family="Helvetica,sans-Serif" font-size="11.00">int4[10]</text>
<polygon fill="none" stroke="black" points="10,-1095 10,-1117 205,-1117 205,-1095 10,-1095"/>
<text text-anchor="start" x="30" y="-1103.2" font-family="Helvetica,sans-Serif" font-size="11.00">dimension1</text>
<polygon fill="none" stroke="black" points="205,-1095 205,-1117 328,-1117 328,-1095 205,-1095"/>
<text text-anchor="start" x="208" y="-1103.2" font-family="Helvetica,sans-Serif" font-size="11.00">int2[5]</text>
<polygon fill="none" stroke="black" points="10,-1073 10,-1095 205,-1095 205,-1073 10,-1073"/>
<text text-anchor="start" x="30" y="-1081.2" font-family="Helvetica,sans-Serif" font-size="11.00">dimension2</text>
<polygon fill="none" stroke="black" points="205,-1073 205,-1095 328,-1095 328,-1073 205,-1073"/>
<text text-anchor="start" x="208" y="-1081.2" font-family="Helvetica,sans-Serif" font-size="11.00">int2[5]</text>
<polygon fill="none" stroke="black" points="10,-1051 10,-1073 205,-1073 205,-1051 10,-1051"/>
<text text-anchor="start" x="30" y="-1059.2" font-family="Helvetica,sans-Serif" font-size="11.00">distance_to_aquifer</text>
<polygon fill="none" stroke="black" points="205,-1051 205,-1073 328,-1073 328,-1051 205,-1051"/>
<text text-anchor="start" x="208" y="-1059.2" font-family="Helvetica,sans-Serif" font-size="11.00">numeric[7,2]</text>
<polygon fill="none" stroke="black" points="10,-1029 10,-1051 205,-1051 205,-1029 10,-1029"/>
<text text-anchor="start" x="30" y="-1037.2" font-family="Helvetica,sans-Serif" font-size="11.00">effective_area</text>
<polygon fill="none" stroke="black" points="205,-1029 205,-1051 328,-1051 328,-1029 205,-1029"/>
<text text-anchor="start" x="208" y="-1037.2" font-family="Helvetica,sans-Serif" font-size="11.00">numeric[8,2]</text>
<polygon fill="none" stroke="black" points="10,-1007 10,-1029 205,-1029 205,-1007 10,-1007"/>
<text text-anchor="start" x="30" y="-1015.2" font-family="Helvetica,sans-Serif" font-size="11.00">emergency_overflow</text>
<polygon fill="none" stroke="black" points="205,-1007 205,-1029 328,-1029 328,-1007 205,-1007"/>
<text text-anchor="start" x="208" y="-1015.2" font-family="Helvetica,sans-Serif" font-size="11.00">int4[10]</text>
<polygon fill="none" stroke="black" points="10,-985 10,-1007 205,-1007 205,-985 10,-985"/>
<text text-anchor="start" x="30" y="-993.2" font-family="Helvetica,sans-Serif" font-size="11.00">filling_material</text>
<polygon fill="none" stroke="black" points="205,-985 205,-1007 328,-1007 328,-985 205,-985"/>
<text text-anchor="start" x="208" y="-993.2" font-family="Helvetica,sans-Serif" font-size="11.00">int4[10]</text>
<polygon fill="none" stroke="black" points="10,-963 10,-985 205,-985 205,-963 10,-963"/>
<text text-anchor="start" x="30" y="-971.2" font-family="Helvetica,sans-Serif" font-size="11.00">fk_dss15_aquifer</text>
<polygon fill="none" stroke="black" points="205,-963 205,-985 328,-985 328,-963 205,-963"/>
<text text-anchor="start" x="208" y="-971.2" font-family="Helvetica,sans-Serif" font-size="11.00">varchar[16]</text>
<polygon fill="none" stroke="black" points="10,-941 10,-963 205,-963 205,-941 10,-941"/>
<text text-anchor="start" x="30" y="-949.2" font-family="Helvetica,sans-Serif" font-size="11.00">kind</text>
<polygon fill="none" stroke="black" points="205,-941 205,-963 328,-963 328,-941 205,-941"/>
<text text-anchor="start" x="208" y="-949.2" font-family="Helvetica,sans-Serif" font-size="11.00">int4[10]</text>
<polygon fill="none" stroke="black" points="10,-919 10,-941 205,-941 205,-919 10,-919"/>
<text text-anchor="start" x="30" y="-927.2" font-family="Helvetica,sans-Serif" font-size="11.00">labeling</text>
<polygon fill="none" stroke="black" points="205,-919 205,-941 328,-941 328,-919 205,-919"/>
<text text-anchor="start" x="208" y="-927.2" font-family="Helvetica,sans-Serif" font-size="11.00">int4[10]</text>
<polygon fill="none" stroke="black" points="10,-897 10,-919 205,-919 205,-897 10,-897"/>
<text text-anchor="start" x="30" y="-905.2" font-family="Helvetica,sans-Serif" font-size="11.00">seepage_utilization</text>
<polygon fill="none" stroke="black" points="205,-897 205,-919 328,-919 328,-897 205,-897"/>
<text text-anchor="start" x="208" y="-905.2" font-family="Helvetica,sans-Serif" font-size="11.00">int4[10]</text>
<polygon fill="none" stroke="black" points="10,-875 10,-897 205,-897 205,-875 10,-875"/>
<text text-anchor="start" x="30" y="-883.2" font-family="Helvetica,sans-Serif" font-size="11.00">upper_elevation</text>
<polygon fill="none" stroke="black" points="205,-875 205,-897 328,-897 328,-875 205,-875"/>
<text text-anchor="start" x="208" y="-883.2" font-family="Helvetica,sans-Serif" font-size="11.00">numeric[7,3]</text>
<polygon fill="none" stroke="black" points="10,-853 10,-875 205,-875 205,-853 10,-853"/>
<text text-anchor="start" x="30" y="-861.2" font-family="Helvetica,sans-Serif" font-size="11.00">vehicle_access</text>
<polygon fill="none" stroke="black" points="205,-853 205,-875 328,-875 328,-853 205,-853"/>
<text text-anchor="start" x="208" y="-861.2" font-family="Helvetica,sans-Serif" font-size="11.00">int4[10]</text>
<polygon fill="none" stroke="black" points="10,-831 10,-853 205,-853 205,-831 10,-831"/>
<text text-anchor="start" x="30" y="-839.2" font-family="Helvetica,sans-Serif" font-size="11.00">watertightness</text>
<polygon fill="none" stroke="black" points="205,-831 205,-853 328,-853 328,-831 205,-831"/>
<text text-anchor="start" x="208" y="-839.2" font-family="Helvetica,sans-Serif" font-size="11.00">int4[10]</text>
<polygon fill="none" stroke="black" points="10,-809 10,-831 205,-831 205,-809 10,-809"/>
<text text-anchor="start" x="30" y="-817.2" font-family="Helvetica,sans-Serif" font-size="11.00">_bottom_label</text>
<polygon fill="none" stroke="black" points="205,-809 205,-831 328,-831 328,-809 205,-809"/>
<text text-anchor="start" x="208" y="-817.2" font-family="Helvetica,sans-Serif" font-size="11.00">text[2147483647]</text>
<polygon fill="none" stroke="black" points="10,-787 10,-809 205,-809 205,-787 10,-787"/>
<text text-anchor="start" x="30" y="-795.2" font-family="Helvetica,sans-Serif" font-size="11.00">_cover_label</text>
<polygon fill="none" stroke="black" points="205,-787 205,-809 328,-809 328,-787 205,-787"/>
<text text-anchor="start" x="208" y="-795.2" font-family="Helvetica,sans-Serif" font-size="11.00">text[2147483647]</text>
<polygon fill="none" stroke="black" points="10,-765 10,-787 205,-787 205,-765 10,-765"/>
<text text-anchor="start" x="30" y="-773.2" font-family="Helvetica,sans-Serif" font-size="11.00">_depth</text>
<polygon fill="none" stroke="black" points="205,-765 205,-787 328,-787 328,-765 205,-765"/>
<text text-anchor="start" x="208" y="-773.2" font-family="Helvetica,sans-Serif" font-size="11.00">numeric[6,3]</text>
<polygon fill="none" stroke="black" points="10,-743 10,-765 205,-765 205,-743 10,-743"/>
<text text-anchor="start" x="30" y="-751.2" font-family="Helvetica,sans-Serif" font-size="11.00">_input_label</text>
<polygon fill="none" stroke="black" points="205,-743 205,-765 328,-765 328,-743 205,-743"/>
<text text-anchor="start" x="208" y="-751.2" font-family="Helvetica,sans-Serif" font-size="11.00">text[2147483647]</text>
<polygon fill="none" stroke="black" points="10,-721 10,-743 205,-743 205,-721 10,-721"/>
<text text-anchor="start" x="30" y="-729.2" font-family="Helvetica,sans-Serif" font-size="11.00">_label</text>
<polygon fill="none" stroke="black" points="205,-721 205,-743 328,-743 328,-721 205,-721"/>
<text text-anchor="start" x="208" y="-729.2" font-family="Helvetica,sans-Serif" font-size="11.00">text[2147483647]</text>
<polygon fill="none" stroke="black" points="10,-699 10,-721 205,-721 205,-699 10,-699"/>
<text text-anchor="start" x="30" y="-707.2" font-family="Helvetica,sans-Serif" font-size="11.00">_output_label</text>
<polygon fill="none" stroke="black" points="205,-699 205,-721 328,-721 328,-699 205,-699"/>
<text text-anchor="start" x="208" y="-707.2" font-family="Helvetica,sans-Serif" font-size="11.00">text[2147483647]</text>
<polygon fill="none" stroke="black" points="10,-677 10,-699 205,-699 205,-677 10,-677"/>
<text text-anchor="start" x="30" y="-685.2" font-family="Helvetica,sans-Serif" font-size="11.00">accessibility</text>
<polygon fill="none" stroke="black" points="205,-677 205,-699 328,-699 328,-677 205,-677"/>
<text text-anchor="start" x="208" y="-685.2" font-family="Helvetica,sans-Serif" font-size="11.00">int4[10]</text>
<polygon fill="none" stroke="black" points="10,-655 10,-677 205,-677 205,-655 10,-655"/>
<text text-anchor="start" x="30" y="-663.2" font-family="Helvetica,sans-Serif" font-size="11.00">condition_score</text>
<polygon fill="none" stroke="black" points="205,-655 205,-677 328,-677 328,-655 205,-655"/>
<text text-anchor="start" x="208" y="-663.2" font-family="Helvetica,sans-Serif" font-size="11.00">numeric[3,2]</text>
<polygon fill="none" stroke="black" points="10,-633 10,-655 205,-655 205,-633 10,-633"/>
<text text-anchor="start" x="30" y="-641.2" font-family="Helvetica,sans-Serif" font-size="11.00">contract_section</text>
<polygon fill="none" stroke="black" points="205,-633 205,-655 328,-655 328,-633 205,-633"/>
<text text-anchor="start" x="208" y="-641.2" font-family="Helvetica,sans-Serif" font-size="11.00">text[2147483647]</text>
<polygon fill="none" stroke="black" points="10,-611 10,-633 205,-633 205,-611 10,-611"/>
<text text-anchor="start" x="30" y="-619.2" font-family="Helvetica,sans-Serif" font-size="11.00">detail_geometry3d_geometry</text>
<polygon fill="none" stroke="black" points="205,-611 205,-633 328,-633 328,-611 205,-611"/>
<text text-anchor="start" x="208" y="-619.2" font-family="Helvetica,sans-Serif" font-size="11.00">geometry[2147483647]</text>
<polygon fill="none" stroke="black" points="10,-589 10,-611 205,-611 205,-589 10,-589"/>
<text text-anchor="start" x="30" y="-597.2" font-family="Helvetica,sans-Serif" font-size="11.00">elevation_determination</text>
<polygon fill="none" stroke="black" points="205,-589 205,-611 328,-611 328,-589 205,-589"/>
<text text-anchor="start" x="208" y="-597.2" font-family="Helvetica,sans-Serif" font-size="11.00">int4[10]</text>
<polygon fill="none" stroke="black" points="10,-567 10,-589 205,-589 205,-567 10,-567"/>
<text text-anchor="start" x="30" y="-575.2" font-family="Helvetica,sans-Serif" font-size="11.00">financing</text>
<polygon fill="none" stroke="black" points="205,-567 205,-589 328,-589 328,-567 205,-567"/>
<text text-anchor="start" x="208" y="-575.2" font-family="Helvetica,sans-Serif" font-size="11.00">int4[10]</text>
<polygon fill="none" stroke="black" points="10,-545 10,-567 205,-567 205,-545 10,-545"/>
<text text-anchor="start" x="30" y="-553.2" font-family="Helvetica,sans-Serif" font-size="11.00">fk_dataowner</text>
<polygon fill="none" stroke="black" points="205,-545 205,-567 328,-567 328,-545 205,-545"/>
<text text-anchor="start" x="208" y="-553.2" font-family="Helvetica,sans-Serif" font-size="11.00">varchar[16]</text>
<polygon fill="none" stroke="black" points="10,-523 10,-545 205,-545 205,-523 10,-523"/>
<text text-anchor="start" x="30" y="-531.2" font-family="Helvetica,sans-Serif" font-size="11.00">fk_main_cover</text>
<polygon fill="none" stroke="black" points="205,-523 205,-545 328,-545 328,-523 205,-523"/>
<text text-anchor="start" x="208" y="-531.2" font-family="Helvetica,sans-Serif" font-size="11.00">varchar[16]</text>
<polygon fill="none" stroke="black" points="10,-501 10,-523 205,-523 205,-501 10,-501"/>
<text text-anchor="start" x="30" y="-509.2" font-family="Helvetica,sans-Serif" font-size="11.00">fk_main_wastewater_node</text>
<polygon fill="none" stroke="black" points="205,-501 205,-523 328,-523 328,-501 205,-501"/>
<text text-anchor="start" x="208" y="-509.2" font-family="Helvetica,sans-Serif" font-size="11.00">varchar[16]</text>
<polygon fill="none" stroke="black" points="10,-479 10,-501 205,-501 205,-479 10,-479"/>
<text text-anchor="start" x="30" y="-487.2" font-family="Helvetica,sans-Serif" font-size="11.00">fk_operator</text>
<polygon fill="none" stroke="black" points="205,-479 205,-501 328,-501 328,-479 205,-479"/>
<text text-anchor="start" x="208" y="-487.2" font-family="Helvetica,sans-Serif" font-size="11.00">varchar[16]</text>
<polygon fill="none" stroke="black" points="10,-457 10,-479 205,-479 205,-457 10,-457"/>
<text text-anchor="start" x="30" y="-465.2" font-family="Helvetica,sans-Serif" font-size="11.00">fk_owner</text>
<polygon fill="none" stroke="black" points="205,-457 205,-479 328,-479 328,-457 205,-457"/>
<text text-anchor="start" x="208" y="-465.2" font-family="Helvetica,sans-Serif" font-size="11.00">varchar[16]</text>
<polygon fill="none" stroke="black" points="10,-435 10,-457 205,-457 205,-435 10,-435"/>
<text text-anchor="start" x="30" y="-443.2" font-family="Helvetica,sans-Serif" font-size="11.00">fk_provider</text>
<polygon fill="none" stroke="black" points="205,-435 205,-457 328,-457 328,-435 205,-435"/>
<text text-anchor="start" x="208" y="-443.2" font-family="Helvetica,sans-Serif" font-size="11.00">varchar[16]</text>
<polygon fill="none" stroke="black" points="10,-413 10,-435 205,-435 205,-413 10,-413"/>
<text text-anchor="start" x="30" y="-421.2" font-family="Helvetica,sans-Serif" font-size="11.00">gross_costs</text>
<polygon fill="none" stroke="black" points="205,-413 205,-435 328,-435 328,-413 205,-413"/>
<text text-anchor="start" x="208" y="-421.2" font-family="Helvetica,sans-Serif" font-size="11.00">numeric[10,2]</text>
<polygon fill="none" stroke="black" points="10,-391 10,-413 205,-413 205,-391 10,-391"/>
<text text-anchor="start" x="30" y="-399.2" font-family="Helvetica,sans-Serif" font-size="11.00">identifier</text>
<polygon fill="none" stroke="black" points="205,-391 205,-413 328,-413 328,-391 205,-391"/>
<text text-anchor="start" x="208" y="-399.2" font-family="Helvetica,sans-Serif" font-size="11.00">text[2147483647]</text>
<polygon fill="none" stroke="black" points="10,-369 10,-391 205,-391 205,-369 10,-369"/>
<text text-anchor="start" x="30" y="-377.2" font-family="Helvetica,sans-Serif" font-size="11.00">inspection_interval</text>
<polygon fill="none" stroke="black" points="205,-369 205,-391 328,-391 328,-369 205,-369"/>
<text text-anchor="start" x="208" y="-377.2" font-family="Helvetica,sans-Serif" font-size="11.00">numeric[4,2]</text>
<polygon fill="none" stroke="black" points="10,-347 10,-369 205,-369 205,-347 10,-347"/>
<text text-anchor="start" x="30" y="-355.2" font-family="Helvetica,sans-Serif" font-size="11.00">last_modification</text>
<polygon fill="none" stroke="black" points="205,-347 205,-369 328,-369 328,-347 205,-347"/>
<text text-anchor="start" x="208" y="-355.2" font-family="Helvetica,sans-Serif" font-size="11.00">timestamp[29,6]</text>
<polygon fill="none" stroke="black" points="10,-325 10,-347 205,-347 205,-325 10,-325"/>
<text text-anchor="start" x="30" y="-333.2" font-family="Helvetica,sans-Serif" font-size="11.00">location_name</text>
<polygon fill="none" stroke="black" points="205,-325 205,-347 328,-347 328,-325 205,-325"/>
<text text-anchor="start" x="208" y="-333.2" font-family="Helvetica,sans-Serif" font-size="11.00">text[2147483647]</text>
<polygon fill="none" stroke="black" points="10,-303 10,-325 205,-325 205,-303 10,-303"/>
<text text-anchor="start" x="30" y="-311.2" font-family="Helvetica,sans-Serif" font-size="11.00">records</text>
<polygon fill="none" stroke="black" points="205,-303 205,-325 328,-325 328,-303 205,-303"/>
<text text-anchor="start" x="208" y="-311.2" font-family="Helvetica,sans-Serif" font-size="11.00">text[2147483647]</text>
<polygon fill="none" stroke="black" points="10,-281 10,-303 205,-303 205,-281 10,-281"/>
<text text-anchor="start" x="30" y="-289.2" font-family="Helvetica,sans-Serif" font-size="11.00">remark</text>
<polygon fill="none" stroke="black" points="205,-281 205,-303 328,-303 328,-281 205,-281"/>
<text text-anchor="start" x="208" y="-289.2" font-family="Helvetica,sans-Serif" font-size="11.00">text[2147483647]</text>
<polygon fill="none" stroke="black" points="10,-259 10,-281 205,-281 205,-259 10,-259"/>
<text text-anchor="start" x="30" y="-267.2" font-family="Helvetica,sans-Serif" font-size="11.00">renovation_necessity</text>
<polygon fill="none" stroke="black" points="205,-259 205,-281 328,-281 328,-259 205,-259"/>
<text text-anchor="start" x="208" y="-267.2" font-family="Helvetica,sans-Serif" font-size="11.00">int4[10]</text>
<polygon fill="none" stroke="black" points="10,-237 10,-259 205,-259 205,-237 10,-237"/>
<text text-anchor="start" x="30" y="-245.2" font-family="Helvetica,sans-Serif" font-size="11.00">replacement_value</text>
<polygon fill="none" stroke="black" points="205,-237 205,-259 328,-259 328,-237 205,-237"/>
<text text-anchor="start" x="208" y="-245.2" font-family="Helvetica,sans-Serif" font-size="11.00">numeric[10,2]</text>
<polygon fill="none" stroke="black" points="10,-215 10,-237 205,-237 205,-215 10,-215"/>
<text text-anchor="start" x="30" y="-223.2" font-family="Helvetica,sans-Serif" font-size="11.00">rv_base_year</text>
<polygon fill="none" stroke="black" points="205,-215 205,-237 328,-237 328,-215 205,-215"/>
<text text-anchor="start" x="208" y="-223.2" font-family="Helvetica,sans-Serif" font-size="11.00">int2[5]</text>
<polygon fill="none" stroke="black" points="10,-193 10,-215 205,-215 205,-193 10,-193"/>
<text text-anchor="start" x="30" y="-201.2" font-family="Helvetica,sans-Serif" font-size="11.00">rv_construction_type</text>
<polygon fill="none" stroke="black" points="205,-193 205,-215 328,-215 328,-193 205,-193"/>
<text text-anchor="start" x="208" y="-201.2" font-family="Helvetica,sans-Serif" font-size="11.00">int4[10]</text>
<polygon fill="none" stroke="black" points="10,-171 10,-193 205,-193 205,-171 10,-171"/>
<text text-anchor="start" x="30" y="-179.2" font-family="Helvetica,sans-Serif" font-size="11.00">status</text>
<polygon fill="none" stroke="black" points="205,-171 205,-193 328,-193 328,-171 205,-171"/>
<text text-anchor="start" x="208" y="-179.2" font-family="Helvetica,sans-Serif" font-size="11.00">int4[10]</text>
<polygon fill="none" stroke="black" points="10,-149 10,-171 205,-171 205,-149 10,-149"/>
<text text-anchor="start" x="30" y="-157.2" font-family="Helvetica,sans-Serif" font-size="11.00">status_survey_year</text>
<polygon fill="none" stroke="black" points="205,-149 205,-171 328,-171 328,-149 205,-149"/>
<text text-anchor="start" x="208" y="-157.2" font-family="Helvetica,sans-Serif" font-size="11.00">int2[5]</text>
<polygon fill="none" stroke="black" points="10,-127 10,-149 205,-149 205,-127 10,-127"/>
<text text-anchor="start" x="30" y="-135.2" font-family="Helvetica,sans-Serif" font-size="11.00">structure_condition</text>
<polygon fill="none" stroke="black" points="205,-127 205,-149 328,-149 328,-127 205,-127"/>
<text text-anchor="start" x="208" y="-135.2" font-family="Helvetica,sans-Serif" font-size="11.00">int4[10]</text>
<polygon fill="none" stroke="black" points="10,-105 10,-127 205,-127 205,-105 10,-105"/>
<text text-anchor="start" x="30" y="-113.2" font-family="Helvetica,sans-Serif" font-size="11.00">subsidies</text>
<polygon fill="none" stroke="black" points="205,-105 205,-127 328,-127 328,-105 205,-105"/>
<text text-anchor="start" x="208" y="-113.2" font-family="Helvetica,sans-Serif" font-size="11.00">numeric[10,2]</text>
<polygon fill="none" stroke="black" points="10,-83 10,-105 205,-105 205,-83 10,-83"/>
<text text-anchor="start" x="30" y="-91.2" font-family="Helvetica,sans-Serif" font-size="11.00">urgency_figure</text>
<polygon fill="none" stroke="black" points="205,-83 205,-105 328,-105 328,-83 205,-83"/>
<text text-anchor="start" x="208" y="-91.2" font-family="Helvetica,sans-Serif" font-size="11.00">int2[5]</text>
<polygon fill="none" stroke="black" points="10,-61 10,-83 205,-83 205,-61 10,-61"/>
<text text-anchor="start" x="30" y="-69.2" font-family="Helvetica,sans-Serif" font-size="11.00">year_of_construction</text>
<polygon fill="none" stroke="black" points="205,-61 205,-83 328,-83 328,-61 205,-61"/>
<text text-anchor="start" x="208" y="-69.2" font-family="Helvetica,sans-Serif" font-size="11.00">int2[5]</text>
<polygon fill="none" stroke="black" points="10,-39 10,-61 205,-61 205,-39 10,-39"/>
<text text-anchor="start" x="30" y="-47.2" font-family="Helvetica,sans-Serif" font-size="11.00">year_of_replacement</text>
<polygon fill="none" stroke="black" points="205,-39 205,-61 328,-61 328,-39 205,-39"/>
<text text-anchor="start" x="208" y="-47.2" font-family="Helvetica,sans-Serif" font-size="11.00">int2[5]</text>
<polygon fill="none" stroke="black" stroke-width="2" points="9,-38 9,-1206 329,-1206 329,-38 9,-38"/>
</a>
</g>
</g>
</g>
</svg>
