<?xml version="1.0" encoding="UTF-8" standalone="no"?>
<!DOCTYPE svg PUBLIC "-//W3C//DTD SVG 1.1//EN"
 "http://www.w3.org/Graphics/SVG/1.1/DTD/svg11.dtd">
<!-- Generated by graphviz version 2.43.0 (0)
 -->
<!-- Title: oneDegreeRelationshipsDiagram Pages: 1 -->
<svg width="352pt" height="317pt"
 viewBox="0.00 0.00 352.00 317.00" xmlns="http://www.w3.org/2000/svg" xmlns:xlink="http://www.w3.org/1999/xlink">
<g id="graph0" class="graph" transform="scale(1 1) rotate(0) translate(4 313)">
<title>oneDegreeRelationshipsDiagram</title>
<polygon fill="#ffffff" stroke="transparent" points="-4,4 -4,-313 348,-313 348,4 -4,4"/>
<text text-anchor="middle" x="79.5" y="-7.2" font-family="Helvetica,sans-Serif" font-size="11.00">Generated by SchemaSpy</text>
<!-- vw_network_node -->
<g id="node1" class="node">
<title>vw_network_node</title>
<g id="a_node1"><a xlink:href="../../tables/vw_network_node.html" xlink:title="vw_network_node" target="_top">
<polygon fill="#ffffff" stroke="transparent" points="8,-37 8,-305 336,-305 336,-37 8,-37"/>
<polygon fill="#f5f5f5" stroke="transparent" points="10,-281 10,-303 334,-303 334,-281 10,-281"/>
<polygon fill="none" stroke="black" points="10,-281 10,-303 334,-303 334,-281 10,-281"/>
<text text-anchor="start" x="15" y="-290.2" font-family="Helvetica,sans-Serif" font-weight="bold" font-size="11.00">vw_network_node</text>
<text text-anchor="start" x="294" y="-289.2" font-family="Helvetica,sans-Serif" font-size="11.00">[view]</text>
<polygon fill="none" stroke="black" points="10,-259 10,-281 198,-281 198,-259 10,-259"/>
<text text-anchor="start" x="30" y="-267.2" font-family="Helvetica,sans-Serif" font-size="11.00">gid</text>
<polygon fill="none" stroke="black" points="198,-259 198,-281 334,-281 334,-259 198,-259"/>
<text text-anchor="start" x="201" y="-267.2" font-family="Helvetica,sans-Serif" font-size="11.00">int4[10]</text>
<polygon fill="none" stroke="black" points="10,-237 10,-259 198,-259 198,-237 10,-237"/>
<text text-anchor="start" x="30" y="-245.2" font-family="Helvetica,sans-Serif" font-size="11.00">obj_id</text>
<polygon fill="none" stroke="black" points="198,-237 198,-259 334,-259 334,-237 198,-237"/>
<text text-anchor="start" x="201" y="-245.2" font-family="Helvetica,sans-Serif" font-size="11.00">text[2147483647]</text>
<polygon fill="none" stroke="black" points="10,-215 10,-237 198,-237 198,-215 10,-215"/>
<text text-anchor="start" x="30" y="-223.2" font-family="Helvetica,sans-Serif" font-size="11.00">type</text>
<polygon fill="none" stroke="black" points="198,-215 198,-237 334,-237 334,-215 198,-215"/>
<text text-anchor="start" x="201" y="-223.2" font-family="Helvetica,sans-Serif" font-size="11.00">text[2147483647]</text>
<polygon fill="none" stroke="black" points="10,-193 10,-215 198,-215 198,-193 10,-193"/>
<text text-anchor="start" x="30" y="-201.2" font-family="Helvetica,sans-Serif" font-size="11.00">node_type</text>
<polygon fill="none" stroke="black" points="198,-193 198,-215 334,-215 334,-193 198,-193"/>
<text text-anchor="start" x="201" y="-201.2" font-family="Helvetica,sans-Serif" font-size="11.00">text[2147483647]</text>
<polygon fill="none" stroke="black" points="10,-171 10,-193 198,-193 198,-171 10,-171"/>
<text text-anchor="start" x="30" y="-179.2" font-family="Helvetica,sans-Serif" font-size="11.00">level</text>
<polygon fill="none" stroke="black" points="198,-171 198,-193 334,-193 334,-171 198,-171"/>
<text text-anchor="start" x="201" y="-179.2" font-family="Helvetica,sans-Serif" font-size="11.00">numeric[0]</text>
<polygon fill="none" stroke="black" points="10,-149 10,-171 198,-171 198,-149 10,-149"/>
<text text-anchor="start" x="30" y="-157.2" font-family="Helvetica,sans-Serif" font-size="11.00">usage_current</text>
<polygon fill="none" stroke="black" points="198,-149 198,-171 334,-171 334,-149 198,-149"/>
<text text-anchor="start" x="201" y="-157.2" font-family="Helvetica,sans-Serif" font-size="11.00">text[2147483647]</text>
<polygon fill="none" stroke="black" points="10,-127 10,-149 198,-149 198,-127 10,-127"/>
<text text-anchor="start" x="30" y="-135.2" font-family="Helvetica,sans-Serif" font-size="11.00">cover_level</text>
<polygon fill="none" stroke="black" points="198,-127 198,-149 334,-149 334,-127 198,-127"/>
<text text-anchor="start" x="201" y="-135.2" font-family="Helvetica,sans-Serif" font-size="11.00">numeric[0]</text>
<polygon fill="none" stroke="black" points="10,-105 10,-127 198,-127 198,-105 10,-105"/>
<text text-anchor="start" x="30" y="-113.2" font-family="Helvetica,sans-Serif" font-size="11.00">backflow_level_current</text>
<polygon fill="none" stroke="black" points="198,-105 198,-127 334,-127 334,-105 198,-105"/>
<text text-anchor="start" x="201" y="-113.2" font-family="Helvetica,sans-Serif" font-size="11.00">float8[17,17]</text>
<polygon fill="none" stroke="black" points="10,-83 10,-105 198,-105 198,-83 10,-83"/>
<text text-anchor="start" x="30" y="-91.2" font-family="Helvetica,sans-Serif" font-size="11.00">description</text>
<polygon fill="none" stroke="black" points="198,-83 198,-105 334,-105 334,-83 198,-83"/>
<text text-anchor="start" x="201" y="-91.2" font-family="Helvetica,sans-Serif" font-size="11.00">text[2147483647]</text>
<polygon fill="none" stroke="black" points="10,-61 10,-83 198,-83 198,-61 10,-61"/>
<text text-anchor="start" x="30" y="-69.2" font-family="Helvetica,sans-Serif" font-size="11.00">situation_geometry</text>
<polygon fill="none" stroke="black" points="198,-61 198,-83 334,-83 334,-61 198,-61"/>
<text text-anchor="start" x="201" y="-69.2" font-family="Helvetica,sans-Serif" font-size="11.00">geometry[2147483647]</text>
<polygon fill="none" stroke="black" points="10,-39 10,-61 198,-61 198,-39 10,-39"/>
<text text-anchor="start" x="30" y="-47.2" font-family="Helvetica,sans-Serif" font-size="11.00">detail_geometry</text>
<polygon fill="none" stroke="black" points="198,-39 198,-61 334,-61 334,-39 198,-39"/>
<text text-anchor="start" x="201" y="-47.2" font-family="Helvetica,sans-Serif" font-size="11.00">geometry[2147483647]</text>
<polygon fill="none" stroke="black" stroke-width="2" points="9,-38 9,-304 335,-304 335,-38 9,-38"/>
</a>
</g>
</g>
</g>
</svg>
