<?xml version="1.0" encoding="UTF-8" standalone="no"?>
<!DOCTYPE svg PUBLIC "-//W3C//DTD SVG 1.1//EN"
 "http://www.w3.org/Graphics/SVG/1.1/DTD/svg11.dtd">
<!-- Generated by graphviz version 2.43.0 (0)
 -->
<!-- Title: oneDegreeRelationshipsDiagram Pages: 1 -->
<svg width="371pt" height="603pt"
 viewBox="0.00 0.00 371.00 603.00" xmlns="http://www.w3.org/2000/svg" xmlns:xlink="http://www.w3.org/1999/xlink">
<g id="graph0" class="graph" transform="scale(1 1) rotate(0) translate(4 599)">
<title>oneDegreeRelationshipsDiagram</title>
<polygon fill="#ffffff" stroke="transparent" points="-4,4 -4,-599 367,-599 367,4 -4,4"/>
<text text-anchor="middle" x="79.5" y="-7.2" font-family="Helvetica,sans-Serif" font-size="11.00">Generated by SchemaSpy</text>
<!-- vw_tww_damage_channel -->
<g id="node1" class="node">
<title>vw_tww_damage_channel</title>
<g id="a_node1"><a xlink:href="../../tables/vw_tww_damage_channel.html" xlink:title="vw_tww_damage_channel" target="_top">
<polygon fill="#ffffff" stroke="transparent" points="8,-37 8,-591 355,-591 355,-37 8,-37"/>
<polygon fill="#f5f5f5" stroke="transparent" points="10.5,-567 10.5,-589 353.5,-589 353.5,-567 10.5,-567"/>
<polygon fill="none" stroke="black" points="10.5,-567 10.5,-589 353.5,-589 353.5,-567 10.5,-567"/>
<text text-anchor="start" x="15.5" y="-576.2" font-family="Helvetica,sans-Serif" font-weight="bold" font-size="11.00">vw_tww_damage_channel</text>
<text text-anchor="start" x="313.5" y="-575.2" font-family="Helvetica,sans-Serif" font-size="11.00">[view]</text>
<polygon fill="none" stroke="black" points="10.5,-545 10.5,-567 217.5,-567 217.5,-545 10.5,-545"/>
<text text-anchor="start" x="30.5" y="-553.2" font-family="Helvetica,sans-Serif" font-size="11.00">comments</text>
<polygon fill="none" stroke="black" points="217.5,-545 217.5,-567 353.5,-567 353.5,-545 217.5,-545"/>
<text text-anchor="start" x="220.5" y="-553.2" font-family="Helvetica,sans-Serif" font-size="11.00">text[2147483647]</text>
<polygon fill="none" stroke="black" points="10.5,-523 10.5,-545 217.5,-545 217.5,-523 10.5,-523"/>
<text text-anchor="start" x="30.5" y="-531.2" font-family="Helvetica,sans-Serif" font-size="11.00">connection</text>
<polygon fill="none" stroke="black" points="217.5,-523 217.5,-545 353.5,-545 353.5,-523 217.5,-523"/>
<text text-anchor="start" x="220.5" y="-531.2" font-family="Helvetica,sans-Serif" font-size="11.00">int4[10]</text>
<polygon fill="none" stroke="black" points="10.5,-501 10.5,-523 217.5,-523 217.5,-501 10.5,-501"/>
<text text-anchor="start" x="30.5" y="-509.2" font-family="Helvetica,sans-Serif" font-size="11.00">fk_dataowner</text>
<polygon fill="none" stroke="black" points="217.5,-501 217.5,-523 353.5,-523 353.5,-501 217.5,-501"/>
<text text-anchor="start" x="220.5" y="-509.2" font-family="Helvetica,sans-Serif" font-size="11.00">varchar[16]</text>
<polygon fill="none" stroke="black" points="10.5,-479 10.5,-501 217.5,-501 217.5,-479 10.5,-479"/>
<text text-anchor="start" x="30.5" y="-487.2" font-family="Helvetica,sans-Serif" font-size="11.00">fk_examination</text>
<polygon fill="none" stroke="black" points="217.5,-479 217.5,-501 353.5,-501 353.5,-479 217.5,-479"/>
<text text-anchor="start" x="220.5" y="-487.2" font-family="Helvetica,sans-Serif" font-size="11.00">varchar[16]</text>
<polygon fill="none" stroke="black" points="10.5,-457 10.5,-479 217.5,-479 217.5,-457 10.5,-457"/>
<text text-anchor="start" x="30.5" y="-465.2" font-family="Helvetica,sans-Serif" font-size="11.00">fk_provider</text>
<polygon fill="none" stroke="black" points="217.5,-457 217.5,-479 353.5,-479 353.5,-457 217.5,-457"/>
<text text-anchor="start" x="220.5" y="-465.2" font-family="Helvetica,sans-Serif" font-size="11.00">varchar[16]</text>
<polygon fill="none" stroke="black" points="10.5,-435 10.5,-457 217.5,-457 217.5,-435 10.5,-435"/>
<text text-anchor="start" x="30.5" y="-443.2" font-family="Helvetica,sans-Serif" font-size="11.00">last_modification</text>
<polygon fill="none" stroke="black" points="217.5,-435 217.5,-457 353.5,-457 353.5,-435 217.5,-435"/>
<text text-anchor="start" x="220.5" y="-443.2" font-family="Helvetica,sans-Serif" font-size="11.00">timestamp[29,6]</text>
<polygon fill="none" stroke="black" points="10.5,-413 10.5,-435 217.5,-435 217.5,-413 10.5,-413"/>
<text text-anchor="start" x="30.5" y="-421.2" font-family="Helvetica,sans-Serif" font-size="11.00">line_damage</text>
<polygon fill="none" stroke="black" points="217.5,-413 217.5,-435 353.5,-435 353.5,-413 217.5,-413"/>
<text text-anchor="start" x="220.5" y="-421.2" font-family="Helvetica,sans-Serif" font-size="11.00">text[2147483647]</text>
<polygon fill="none" stroke="black" points="10.5,-391 10.5,-413 217.5,-413 217.5,-391 10.5,-391"/>
<text text-anchor="start" x="30.5" y="-399.2" font-family="Helvetica,sans-Serif" font-size="11.00">single_damage_class</text>
<polygon fill="none" stroke="black" points="217.5,-391 217.5,-413 353.5,-413 353.5,-391 217.5,-391"/>
<text text-anchor="start" x="220.5" y="-399.2" font-family="Helvetica,sans-Serif" font-size="11.00">int4[10]</text>
<polygon fill="none" stroke="black" points="10.5,-369 10.5,-391 217.5,-391 217.5,-369 10.5,-369"/>
<text text-anchor="start" x="30.5" y="-377.2" font-family="Helvetica,sans-Serif" font-size="11.00">video_counter</text>
<polygon fill="none" stroke="black" points="217.5,-369 217.5,-391 353.5,-391 353.5,-369 217.5,-369"/>
<text text-anchor="start" x="220.5" y="-377.2" font-family="Helvetica,sans-Serif" font-size="11.00">text[2147483647]</text>
<polygon fill="none" stroke="black" points="10.5,-347 10.5,-369 217.5,-369 217.5,-347 10.5,-347"/>
<text text-anchor="start" x="30.5" y="-355.2" font-family="Helvetica,sans-Serif" font-size="11.00">view_parameters</text>
<polygon fill="none" stroke="black" points="217.5,-347 217.5,-369 353.5,-369 353.5,-347 217.5,-347"/>
<text text-anchor="start" x="220.5" y="-355.2" font-family="Helvetica,sans-Serif" font-size="11.00">text[2147483647]</text>
<polygon fill="none" stroke="black" points="10.5,-325 10.5,-347 217.5,-347 217.5,-325 10.5,-325"/>
<text text-anchor="start" x="30.5" y="-333.2" font-family="Helvetica,sans-Serif" font-size="11.00">obj_id</text>
<polygon fill="none" stroke="black" points="217.5,-325 217.5,-347 353.5,-347 353.5,-325 217.5,-325"/>
<text text-anchor="start" x="220.5" y="-333.2" font-family="Helvetica,sans-Serif" font-size="11.00">varchar[16]</text>
<polygon fill="none" stroke="black" points="10.5,-303 10.5,-325 217.5,-325 217.5,-303 10.5,-303"/>
<text text-anchor="start" x="30.5" y="-311.2" font-family="Helvetica,sans-Serif" font-size="11.00">channel_damage_begin</text>
<polygon fill="none" stroke="black" points="217.5,-303 217.5,-325 353.5,-325 353.5,-303 217.5,-303"/>
<text text-anchor="start" x="220.5" y="-311.2" font-family="Helvetica,sans-Serif" font-size="11.00">int2[5]</text>
<polygon fill="none" stroke="black" points="10.5,-281 10.5,-303 217.5,-303 217.5,-281 10.5,-281"/>
<text text-anchor="start" x="30.5" y="-289.2" font-family="Helvetica,sans-Serif" font-size="11.00">channel_damage_code</text>
<polygon fill="none" stroke="black" points="217.5,-281 217.5,-303 353.5,-303 353.5,-281 217.5,-281"/>
<text text-anchor="start" x="220.5" y="-289.2" font-family="Helvetica,sans-Serif" font-size="11.00">int4[10]</text>
<polygon fill="none" stroke="black" points="10.5,-259 10.5,-281 217.5,-281 217.5,-259 10.5,-259"/>
<text text-anchor="start" x="30.5" y="-267.2" font-family="Helvetica,sans-Serif" font-size="11.00">channel_damage_end</text>
<polygon fill="none" stroke="black" points="217.5,-259 217.5,-281 353.5,-281 353.5,-259 217.5,-259"/>
<text text-anchor="start" x="220.5" y="-267.2" font-family="Helvetica,sans-Serif" font-size="11.00">int2[5]</text>
<polygon fill="none" stroke="black" points="10.5,-237 10.5,-259 217.5,-259 217.5,-237 10.5,-237"/>
<text text-anchor="start" x="30.5" y="-245.2" font-family="Helvetica,sans-Serif" font-size="11.00">channel_distance</text>
<polygon fill="none" stroke="black" points="217.5,-237 217.5,-259 353.5,-259 353.5,-237 217.5,-237"/>
<text text-anchor="start" x="220.5" y="-245.2" font-family="Helvetica,sans-Serif" font-size="11.00">numeric[7,2]</text>
<polygon fill="none" stroke="black" points="10.5,-215 10.5,-237 217.5,-237 217.5,-215 10.5,-215"/>
<text text-anchor="start" x="30.5" y="-223.2" font-family="Helvetica,sans-Serif" font-size="11.00">channel_quantification1</text>
<polygon fill="none" stroke="black" points="217.5,-215 217.5,-237 353.5,-237 353.5,-215 217.5,-215"/>
<text text-anchor="start" x="220.5" y="-223.2" font-family="Helvetica,sans-Serif" font-size="11.00">int4[10]</text>
<polygon fill="none" stroke="black" points="10.5,-193 10.5,-215 217.5,-215 217.5,-193 10.5,-193"/>
<text text-anchor="start" x="30.5" y="-201.2" font-family="Helvetica,sans-Serif" font-size="11.00">channel_quantification2</text>
<polygon fill="none" stroke="black" points="217.5,-193 217.5,-215 353.5,-215 353.5,-193 217.5,-193"/>
<text text-anchor="start" x="220.5" y="-201.2" font-family="Helvetica,sans-Serif" font-size="11.00">int4[10]</text>
<polygon fill="none" stroke="black" points="10.5,-171 10.5,-193 217.5,-193 217.5,-171 10.5,-171"/>
<text text-anchor="start" x="30.5" y="-179.2" font-family="Helvetica,sans-Serif" font-size="11.00">ws_identifier</text>
<polygon fill="none" stroke="black" points="217.5,-171 217.5,-193 353.5,-193 353.5,-171 217.5,-171"/>
<text text-anchor="start" x="220.5" y="-179.2" font-family="Helvetica,sans-Serif" font-size="11.00">text[2147483647]</text>
<polygon fill="none" stroke="black" points="10.5,-149 10.5,-171 217.5,-171 217.5,-149 10.5,-149"/>
<text text-anchor="start" x="30.5" y="-157.2" font-family="Helvetica,sans-Serif" font-size="11.00">situation2d_geometry</text>
<polygon fill="none" stroke="black" points="217.5,-149 217.5,-171 353.5,-171 353.5,-149 217.5,-149"/>
<text text-anchor="start" x="220.5" y="-157.2" font-family="Helvetica,sans-Serif" font-size="11.00">geometry[2147483647]</text>
<polygon fill="none" stroke="black" points="10.5,-127 10.5,-149 217.5,-149 217.5,-127 10.5,-127"/>
<text text-anchor="start" x="30.5" y="-135.2" font-family="Helvetica,sans-Serif" font-size="11.00">direction</text>
<polygon fill="none" stroke="black" points="217.5,-127 217.5,-149 353.5,-149 353.5,-127 217.5,-127"/>
<text text-anchor="start" x="220.5" y="-135.2" font-family="Helvetica,sans-Serif" font-size="11.00">text[2147483647]</text>
<polygon fill="none" stroke="black" points="10.5,-105 10.5,-127 217.5,-127 217.5,-105 10.5,-105"/>
<text text-anchor="start" x="30.5" y="-113.2" font-family="Helvetica,sans-Serif" font-size="11.00">tww_is_primary</text>
<polygon fill="none" stroke="black" points="217.5,-105 217.5,-127 353.5,-127 353.5,-105 217.5,-105"/>
<text text-anchor="start" x="220.5" y="-113.2" font-family="Helvetica,sans-Serif" font-size="11.00">bool[1]</text>
<polygon fill="none" stroke="black" points="10.5,-83 10.5,-105 217.5,-105 217.5,-83 10.5,-83"/>
<text text-anchor="start" x="30.5" y="-91.2" font-family="Helvetica,sans-Serif" font-size="11.00">picture_1</text>
<polygon fill="none" stroke="black" points="217.5,-83 217.5,-105 353.5,-105 353.5,-83 217.5,-83"/>
<text text-anchor="start" x="220.5" y="-91.2" font-family="Helvetica,sans-Serif" font-size="11.00">text[2147483647]</text>
<polygon fill="none" stroke="black" points="10.5,-61 10.5,-83 217.5,-83 217.5,-61 10.5,-61"/>
<text text-anchor="start" x="30.5" y="-69.2" font-family="Helvetica,sans-Serif" font-size="11.00">picture_2</text>
<polygon fill="none" stroke="black" points="217.5,-61 217.5,-83 353.5,-83 353.5,-61 217.5,-61"/>
<text text-anchor="start" x="220.5" y="-69.2" font-family="Helvetica,sans-Serif" font-size="11.00">text[2147483647]</text>
<polygon fill="none" stroke="black" points="10.5,-39 10.5,-61 217.5,-61 217.5,-39 10.5,-39"/>
<text text-anchor="start" x="30.5" y="-47.2" font-family="Helvetica,sans-Serif" font-size="11.00">video</text>
<polygon fill="none" stroke="black" points="217.5,-39 217.5,-61 353.5,-61 353.5,-39 217.5,-39"/>
<text text-anchor="start" x="220.5" y="-47.2" font-family="Helvetica,sans-Serif" font-size="11.00">text[2147483647]</text>
<polygon fill="none" stroke="black" stroke-width="2" points="9,-38 9,-590 354,-590 354,-38 9,-38"/>
</a>
</g>
</g>
</g>
</svg>
