<?xml version="1.0" encoding="UTF-8" standalone="no"?>
<!DOCTYPE svg PUBLIC "-//W3C//DTD SVG 1.1//EN"
 "http://www.w3.org/Graphics/SVG/1.1/DTD/svg11.dtd">
<!-- Generated by graphviz version 2.47.1 (20210515.0534)
 -->
<!-- Title: oneDegreeRelationshipsDiagram Pages: 1 -->
<svg width="336pt" height="317pt"
 viewBox="0.00 0.00 336.00 317.00" xmlns="http://www.w3.org/2000/svg" xmlns:xlink="http://www.w3.org/1999/xlink">
<g id="graph0" class="graph" transform="scale(1 1) rotate(0) translate(4 313)">
<title>oneDegreeRelationshipsDiagram</title>
<polygon fill="#ffffff" stroke="transparent" points="-4,4 -4,-313 332,-313 332,4 -4,4"/>
<text text-anchor="middle" x="73.5" y="-7.2" font-family="Helvetica,sans-Serif" font-size="11.00">Generated by SchemaSpy</text>
<!-- vw_tww_measurement_series -->
<g id="node1" class="node">
<title>vw_tww_measurement_series</title>
<g id="a_node1"><a xlink:href="../../tables/vw_tww_measurement_series.html" xlink:title="vw_tww_measurement_series" target="_top">
<polygon fill="#ffffff" stroke="transparent" points="8,-37 8,-305 320,-305 320,-37 8,-37"/>
<polygon fill="#f5f5f5" stroke="transparent" points="10,-281 10,-303 318,-303 318,-281 10,-281"/>
<polygon fill="none" stroke="black" points="10,-281 10,-303 318,-303 318,-281 10,-281"/>
<text text-anchor="start" x="15" y="-290.2" font-family="Helvetica,sans-Serif" font-weight="bold" font-size="11.00">vw_tww_measurement_series</text>
<text text-anchor="start" x="282" y="-289.2" font-family="Helvetica,sans-Serif" font-size="11.00">[view]</text>
<polygon fill="none" stroke="black" points="10,-259 10,-281 224,-281 224,-259 10,-259"/>
<text text-anchor="start" x="30" y="-267.2" font-family="Helvetica,sans-Serif" font-size="11.00">obj_id</text>
<polygon fill="none" stroke="black" points="224,-259 224,-281 318,-281 318,-259 224,-259"/>
<text text-anchor="start" x="227" y="-267.2" font-family="Helvetica,sans-Serif" font-size="11.00">varchar[16]</text>
<polygon fill="none" stroke="black" points="10,-237 10,-259 224,-259 224,-237 10,-237"/>
<text text-anchor="start" x="30" y="-245.2" font-family="Helvetica,sans-Serif" font-size="11.00">dimension</text>
<polygon fill="none" stroke="black" points="224,-237 224,-259 318,-259 318,-237 224,-237"/>
<text text-anchor="start" x="227" y="-245.2" font-family="Helvetica,sans-Serif" font-size="11.00">text[2147483647]</text>
<polygon fill="none" stroke="black" points="10,-215 10,-237 224,-237 224,-215 10,-215"/>
<text text-anchor="start" x="30" y="-223.2" font-family="Helvetica,sans-Serif" font-size="11.00">fk_dataowner</text>
<polygon fill="none" stroke="black" points="224,-215 224,-237 318,-237 318,-215 224,-215"/>
<text text-anchor="start" x="227" y="-223.2" font-family="Helvetica,sans-Serif" font-size="11.00">varchar[16]</text>
<polygon fill="none" stroke="black" points="10,-193 10,-215 224,-215 224,-193 10,-193"/>
<text text-anchor="start" x="30" y="-201.2" font-family="Helvetica,sans-Serif" font-size="11.00">fk_measuring_point</text>
<polygon fill="none" stroke="black" points="224,-193 224,-215 318,-215 318,-193 224,-193"/>
<text text-anchor="start" x="227" y="-201.2" font-family="Helvetica,sans-Serif" font-size="11.00">varchar[16]</text>
<polygon fill="none" stroke="black" points="10,-171 10,-193 224,-193 224,-171 10,-171"/>
<text text-anchor="start" x="30" y="-179.2" font-family="Helvetica,sans-Serif" font-size="11.00">fk_provider</text>
<polygon fill="none" stroke="black" points="224,-171 224,-193 318,-193 318,-171 224,-171"/>
<text text-anchor="start" x="227" y="-179.2" font-family="Helvetica,sans-Serif" font-size="11.00">varchar[16]</text>
<polygon fill="none" stroke="black" points="10,-149 10,-171 224,-171 224,-149 10,-149"/>
<text text-anchor="start" x="30" y="-157.2" font-family="Helvetica,sans-Serif" font-size="11.00">fk_wastewater_networkelement</text>
<polygon fill="none" stroke="black" points="224,-149 224,-171 318,-171 318,-149 224,-149"/>
<text text-anchor="start" x="227" y="-157.2" font-family="Helvetica,sans-Serif" font-size="11.00">varchar[16]</text>
<polygon fill="none" stroke="black" points="10,-127 10,-149 224,-149 224,-127 10,-127"/>
<text text-anchor="start" x="30" y="-135.2" font-family="Helvetica,sans-Serif" font-size="11.00">identifier</text>
<polygon fill="none" stroke="black" points="224,-127 224,-149 318,-149 318,-127 224,-127"/>
<text text-anchor="start" x="227" y="-135.2" font-family="Helvetica,sans-Serif" font-size="11.00">text[2147483647]</text>
<polygon fill="none" stroke="black" points="10,-105 10,-127 224,-127 224,-105 10,-105"/>
<text text-anchor="start" x="30" y="-113.2" font-family="Helvetica,sans-Serif" font-size="11.00">kind</text>
<polygon fill="none" stroke="black" points="224,-105 224,-127 318,-127 318,-105 224,-105"/>
<text text-anchor="start" x="227" y="-113.2" font-family="Helvetica,sans-Serif" font-size="11.00">int4[10]</text>
<polygon fill="none" stroke="black" points="10,-83 10,-105 224,-105 224,-83 10,-83"/>
<text text-anchor="start" x="30" y="-91.2" font-family="Helvetica,sans-Serif" font-size="11.00">last_modification</text>
<polygon fill="none" stroke="black" points="224,-83 224,-105 318,-105 318,-83 224,-83"/>
<text text-anchor="start" x="227" y="-91.2" font-family="Helvetica,sans-Serif" font-size="11.00">timestamp[29,6]</text>
<polygon fill="none" stroke="black" points="10,-61 10,-83 224,-83 224,-61 10,-61"/>
<text text-anchor="start" x="30" y="-69.2" font-family="Helvetica,sans-Serif" font-size="11.00">remark</text>
<polygon fill="none" stroke="black" points="224,-61 224,-83 318,-83 318,-61 224,-61"/>
<text text-anchor="start" x="227" y="-69.2" font-family="Helvetica,sans-Serif" font-size="11.00">text[2147483647]</text>
<polygon fill="none" stroke="black" points="10,-39 10,-61 224,-61 224,-39 10,-39"/>
<text text-anchor="start" x="30" y="-47.2" font-family="Helvetica,sans-Serif" font-size="11.00">mr_values</text>
<polygon fill="none" stroke="black" points="224,-39 224,-61 318,-61 318,-39 224,-39"/>
<text text-anchor="start" x="227" y="-47.2" font-family="Helvetica,sans-Serif" font-size="11.00">_float4[8,8]</text>
<polygon fill="none" stroke="black" stroke-width="2" points="9,-38 9,-304 319,-304 319,-38 9,-38"/>
</a>
</g>
</g>
</g>
</svg>
