<?xml version="1.0" encoding="UTF-8" standalone="no"?>
<!DOCTYPE svg PUBLIC "-//W3C//DTD SVG 1.1//EN"
 "http://www.w3.org/Graphics/SVG/1.1/DTD/svg11.dtd">
<!-- Generated by graphviz version 2.47.1 (20210515.0534)
 -->
<!-- Title: oneDegreeRelationshipsDiagram Pages: 1 -->
<svg width="418pt" height="625pt"
 viewBox="0.00 0.00 418.00 625.00" xmlns="http://www.w3.org/2000/svg" xmlns:xlink="http://www.w3.org/1999/xlink">
<g id="graph0" class="graph" transform="scale(1 1) rotate(0) translate(4 621)">
<title>oneDegreeRelationshipsDiagram</title>
<polygon fill="#ffffff" stroke="transparent" points="-4,4 -4,-621 414,-621 414,4 -4,4"/>
<text text-anchor="middle" x="73.5" y="-7.2" font-family="Helvetica,sans-Serif" font-size="11.00">Generated by SchemaSpy</text>
<!-- vw_tww_damage -->
<g id="node1" class="node">
<title>vw_tww_damage</title>
<g id="a_node1"><a xlink:href="../../tables/vw_tww_damage.html" xlink:title="vw_tww_damage" target="_top">
<polygon fill="#ffffff" stroke="transparent" points="8,-37 8,-613 402,-613 402,-37 8,-37"/>
<polygon fill="#f5f5f5" stroke="transparent" points="10,-589 10,-611 400,-611 400,-589 10,-589"/>
<polygon fill="none" stroke="black" points="10,-589 10,-611 400,-611 400,-589 10,-589"/>
<text text-anchor="start" x="15" y="-598.2" font-family="Helvetica,sans-Serif" font-weight="bold" font-size="11.00">vw_tww_damage</text>
<text text-anchor="start" x="364" y="-597.2" font-family="Helvetica,sans-Serif" font-size="11.00">[view]</text>
<polygon fill="none" stroke="black" points="10,-567 10,-589 192,-589 192,-567 10,-567"/>
<text text-anchor="start" x="30" y="-575.2" font-family="Helvetica,sans-Serif" font-size="11.00">damage_type</text>
<polygon fill="none" stroke="black" points="192,-567 192,-589 400,-589 400,-567 192,-567"/>
<text text-anchor="start" x="195" y="-575.2" font-family="Helvetica,sans-Serif" font-size="11.00">&quot;tww_app&quot;.&quot;damage_type&quot;[2147483647]</text>
<polygon fill="none" stroke="black" points="10,-545 10,-567 192,-567 192,-545 10,-545"/>
<text text-anchor="start" x="30" y="-553.2" font-family="Helvetica,sans-Serif" font-size="11.00">obj_id</text>
<polygon fill="none" stroke="black" points="192,-545 192,-567 400,-567 400,-545 192,-545"/>
<text text-anchor="start" x="195" y="-553.2" font-family="Helvetica,sans-Serif" font-size="11.00">varchar[16]</text>
<polygon fill="none" stroke="black" points="10,-523 10,-545 192,-545 192,-523 10,-523"/>
<text text-anchor="start" x="30" y="-531.2" font-family="Helvetica,sans-Serif" font-size="11.00">comments</text>
<polygon fill="none" stroke="black" points="192,-523 192,-545 400,-545 400,-523 192,-523"/>
<text text-anchor="start" x="195" y="-531.2" font-family="Helvetica,sans-Serif" font-size="11.00">text[2147483647]</text>
<polygon fill="none" stroke="black" points="10,-501 10,-523 192,-523 192,-501 10,-501"/>
<text text-anchor="start" x="30" y="-509.2" font-family="Helvetica,sans-Serif" font-size="11.00">connection</text>
<polygon fill="none" stroke="black" points="192,-501 192,-523 400,-523 400,-501 192,-501"/>
<text text-anchor="start" x="195" y="-509.2" font-family="Helvetica,sans-Serif" font-size="11.00">int4[10]</text>
<polygon fill="none" stroke="black" points="10,-479 10,-501 192,-501 192,-479 10,-479"/>
<text text-anchor="start" x="30" y="-487.2" font-family="Helvetica,sans-Serif" font-size="11.00">fk_dataowner</text>
<polygon fill="none" stroke="black" points="192,-479 192,-501 400,-501 400,-479 192,-479"/>
<text text-anchor="start" x="195" y="-487.2" font-family="Helvetica,sans-Serif" font-size="11.00">varchar[16]</text>
<polygon fill="none" stroke="black" points="10,-457 10,-479 192,-479 192,-457 10,-457"/>
<text text-anchor="start" x="30" y="-465.2" font-family="Helvetica,sans-Serif" font-size="11.00">fk_examination</text>
<polygon fill="none" stroke="black" points="192,-457 192,-479 400,-479 400,-457 192,-457"/>
<text text-anchor="start" x="195" y="-465.2" font-family="Helvetica,sans-Serif" font-size="11.00">varchar[16]</text>
<polygon fill="none" stroke="black" points="10,-435 10,-457 192,-457 192,-435 10,-435"/>
<text text-anchor="start" x="30" y="-443.2" font-family="Helvetica,sans-Serif" font-size="11.00">fk_provider</text>
<polygon fill="none" stroke="black" points="192,-435 192,-457 400,-457 400,-435 192,-435"/>
<text text-anchor="start" x="195" y="-443.2" font-family="Helvetica,sans-Serif" font-size="11.00">varchar[16]</text>
<polygon fill="none" stroke="black" points="10,-413 10,-435 192,-435 192,-413 10,-413"/>
<text text-anchor="start" x="30" y="-421.2" font-family="Helvetica,sans-Serif" font-size="11.00">last_modification</text>
<polygon fill="none" stroke="black" points="192,-413 192,-435 400,-435 400,-413 192,-413"/>
<text text-anchor="start" x="195" y="-421.2" font-family="Helvetica,sans-Serif" font-size="11.00">timestamp[29,6]</text>
<polygon fill="none" stroke="black" points="10,-391 10,-413 192,-413 192,-391 10,-391"/>
<text text-anchor="start" x="30" y="-399.2" font-family="Helvetica,sans-Serif" font-size="11.00">line_damage</text>
<polygon fill="none" stroke="black" points="192,-391 192,-413 400,-413 400,-391 192,-391"/>
<text text-anchor="start" x="195" y="-399.2" font-family="Helvetica,sans-Serif" font-size="11.00">text[2147483647]</text>
<polygon fill="none" stroke="black" points="10,-369 10,-391 192,-391 192,-369 10,-369"/>
<text text-anchor="start" x="30" y="-377.2" font-family="Helvetica,sans-Serif" font-size="11.00">single_damage_class</text>
<polygon fill="none" stroke="black" points="192,-369 192,-391 400,-391 400,-369 192,-369"/>
<text text-anchor="start" x="195" y="-377.2" font-family="Helvetica,sans-Serif" font-size="11.00">int4[10]</text>
<polygon fill="none" stroke="black" points="10,-347 10,-369 192,-369 192,-347 10,-347"/>
<text text-anchor="start" x="30" y="-355.2" font-family="Helvetica,sans-Serif" font-size="11.00">video_counter</text>
<polygon fill="none" stroke="black" points="192,-347 192,-369 400,-369 400,-347 192,-347"/>
<text text-anchor="start" x="195" y="-355.2" font-family="Helvetica,sans-Serif" font-size="11.00">text[2147483647]</text>
<polygon fill="none" stroke="black" points="10,-325 10,-347 192,-347 192,-325 10,-325"/>
<text text-anchor="start" x="30" y="-333.2" font-family="Helvetica,sans-Serif" font-size="11.00">view_parameters</text>
<polygon fill="none" stroke="black" points="192,-325 192,-347 400,-347 400,-325 192,-325"/>
<text text-anchor="start" x="195" y="-333.2" font-family="Helvetica,sans-Serif" font-size="11.00">text[2147483647]</text>
<polygon fill="none" stroke="black" points="10,-303 10,-325 192,-325 192,-303 10,-303"/>
<text text-anchor="start" x="30" y="-311.2" font-family="Helvetica,sans-Serif" font-size="11.00">channel_damage_begin</text>
<polygon fill="none" stroke="black" points="192,-303 192,-325 400,-325 400,-303 192,-303"/>
<text text-anchor="start" x="195" y="-311.2" font-family="Helvetica,sans-Serif" font-size="11.00">int2[5]</text>
<polygon fill="none" stroke="black" points="10,-281 10,-303 192,-303 192,-281 10,-281"/>
<text text-anchor="start" x="30" y="-289.2" font-family="Helvetica,sans-Serif" font-size="11.00">channel_damage_code</text>
<polygon fill="none" stroke="black" points="192,-281 192,-303 400,-303 400,-281 192,-281"/>
<text text-anchor="start" x="195" y="-289.2" font-family="Helvetica,sans-Serif" font-size="11.00">int4[10]</text>
<polygon fill="none" stroke="black" points="10,-259 10,-281 192,-281 192,-259 10,-259"/>
<text text-anchor="start" x="30" y="-267.2" font-family="Helvetica,sans-Serif" font-size="11.00">channel_damage_end</text>
<polygon fill="none" stroke="black" points="192,-259 192,-281 400,-281 400,-259 192,-259"/>
<text text-anchor="start" x="195" y="-267.2" font-family="Helvetica,sans-Serif" font-size="11.00">int2[5]</text>
<polygon fill="none" stroke="black" points="10,-237 10,-259 192,-259 192,-237 10,-237"/>
<text text-anchor="start" x="30" y="-245.2" font-family="Helvetica,sans-Serif" font-size="11.00">channel_distance</text>
<polygon fill="none" stroke="black" points="192,-237 192,-259 400,-259 400,-237 192,-237"/>
<text text-anchor="start" x="195" y="-245.2" font-family="Helvetica,sans-Serif" font-size="11.00">numeric[7,2]</text>
<polygon fill="none" stroke="black" points="10,-215 10,-237 192,-237 192,-215 10,-215"/>
<text text-anchor="start" x="30" y="-223.2" font-family="Helvetica,sans-Serif" font-size="11.00">channel_quantification1</text>
<polygon fill="none" stroke="black" points="192,-215 192,-237 400,-237 400,-215 192,-215"/>
<text text-anchor="start" x="195" y="-223.2" font-family="Helvetica,sans-Serif" font-size="11.00">int4[10]</text>
<polygon fill="none" stroke="black" points="10,-193 10,-215 192,-215 192,-193 10,-193"/>
<text text-anchor="start" x="30" y="-201.2" font-family="Helvetica,sans-Serif" font-size="11.00">channel_quantification2</text>
<polygon fill="none" stroke="black" points="192,-193 192,-215 400,-215 400,-193 192,-193"/>
<text text-anchor="start" x="195" y="-201.2" font-family="Helvetica,sans-Serif" font-size="11.00">int4[10]</text>
<polygon fill="none" stroke="black" points="10,-171 10,-193 192,-193 192,-171 10,-171"/>
<text text-anchor="start" x="30" y="-179.2" font-family="Helvetica,sans-Serif" font-size="11.00">manhole_channel_distance</text>
<polygon fill="none" stroke="black" points="192,-171 192,-193 400,-193 400,-171 192,-171"/>
<text text-anchor="start" x="195" y="-179.2" font-family="Helvetica,sans-Serif" font-size="11.00">numeric[7,2]</text>
<polygon fill="none" stroke="black" points="10,-149 10,-171 192,-171 192,-149 10,-149"/>
<text text-anchor="start" x="30" y="-157.2" font-family="Helvetica,sans-Serif" font-size="11.00">manhole_damage_begin</text>
<polygon fill="none" stroke="black" points="192,-149 192,-171 400,-171 400,-149 192,-149"/>
<text text-anchor="start" x="195" y="-157.2" font-family="Helvetica,sans-Serif" font-size="11.00">int2[5]</text>
<polygon fill="none" stroke="black" points="10,-127 10,-149 192,-149 192,-127 10,-127"/>
<text text-anchor="start" x="30" y="-135.2" font-family="Helvetica,sans-Serif" font-size="11.00">manhole_damage_code</text>
<polygon fill="none" stroke="black" points="192,-127 192,-149 400,-149 400,-127 192,-127"/>
<text text-anchor="start" x="195" y="-135.2" font-family="Helvetica,sans-Serif" font-size="11.00">int4[10]</text>
<polygon fill="none" stroke="black" points="10,-105 10,-127 192,-127 192,-105 10,-105"/>
<text text-anchor="start" x="30" y="-113.2" font-family="Helvetica,sans-Serif" font-size="11.00">manhole_damage_end</text>
<polygon fill="none" stroke="black" points="192,-105 192,-127 400,-127 400,-105 192,-105"/>
<text text-anchor="start" x="195" y="-113.2" font-family="Helvetica,sans-Serif" font-size="11.00">int2[5]</text>
<polygon fill="none" stroke="black" points="10,-83 10,-105 192,-105 192,-83 10,-83"/>
<text text-anchor="start" x="30" y="-91.2" font-family="Helvetica,sans-Serif" font-size="11.00">manhole_quantification1</text>
<polygon fill="none" stroke="black" points="192,-83 192,-105 400,-105 400,-83 192,-83"/>
<text text-anchor="start" x="195" y="-91.2" font-family="Helvetica,sans-Serif" font-size="11.00">text[2147483647]</text>
<polygon fill="none" stroke="black" points="10,-61 10,-83 192,-83 192,-61 10,-61"/>
<text text-anchor="start" x="30" y="-69.2" font-family="Helvetica,sans-Serif" font-size="11.00">manhole_quantification2</text>
<polygon fill="none" stroke="black" points="192,-61 192,-83 400,-83 400,-61 192,-61"/>
<text text-anchor="start" x="195" y="-69.2" font-family="Helvetica,sans-Serif" font-size="11.00">text[2147483647]</text>
<polygon fill="none" stroke="black" points="10,-39 10,-61 192,-61 192,-39 10,-39"/>
<text text-anchor="start" x="30" y="-47.2" font-family="Helvetica,sans-Serif" font-size="11.00">manhole_shaft_area</text>
<polygon fill="none" stroke="black" points="192,-39 192,-61 400,-61 400,-39 192,-39"/>
<text text-anchor="start" x="195" y="-47.2" font-family="Helvetica,sans-Serif" font-size="11.00">int4[10]</text>
<polygon fill="none" stroke="black" stroke-width="2" points="9,-38 9,-612 401,-612 401,-38 9,-38"/>
</a>
</g>
</g>
</g>
</svg>
