<?xml version="1.0" encoding="UTF-8" standalone="no"?>
<!DOCTYPE svg PUBLIC "-//W3C//DTD SVG 1.1//EN"
 "http://www.w3.org/Graphics/SVG/1.1/DTD/svg11.dtd">
<!-- Generated by graphviz version 2.47.1 (20210515.0534)
 -->
<!-- Title: oneDegreeRelationshipsDiagram Pages: 1 -->
<svg width="340pt" height="449pt"
 viewBox="0.00 0.00 340.00 449.00" xmlns="http://www.w3.org/2000/svg" xmlns:xlink="http://www.w3.org/1999/xlink">
<g id="graph0" class="graph" transform="scale(1 1) rotate(0) translate(4 445)">
<title>oneDegreeRelationshipsDiagram</title>
<polygon fill="#ffffff" stroke="transparent" points="-4,4 -4,-445 336,-445 336,4 -4,4"/>
<text text-anchor="middle" x="73.5" y="-7.2" font-family="Helvetica,sans-Serif" font-size="11.00">Generated by SchemaSpy</text>
<!-- vw_wastewater_node -->
<g id="node1" class="node">
<title>vw_wastewater_node</title>
<g id="a_node1"><a xlink:href="../../tables/vw_wastewater_node.html" xlink:title="vw_wastewater_node" target="_top">
<polygon fill="#ffffff" stroke="transparent" points="8,-37 8,-437 324,-437 324,-37 8,-37"/>
<polygon fill="#f5f5f5" stroke="transparent" points="10,-413 10,-435 322,-435 322,-413 10,-413"/>
<polygon fill="none" stroke="black" points="10,-413 10,-435 322,-435 322,-413 10,-413"/>
<text text-anchor="start" x="15" y="-422.2" font-family="Helvetica,sans-Serif" font-weight="bold" font-size="11.00">vw_wastewater_node</text>
<text text-anchor="start" x="286" y="-421.2" font-family="Helvetica,sans-Serif" font-size="11.00">[view]</text>
<polygon fill="none" stroke="black" points="10,-391 10,-413 199,-413 199,-391 10,-391"/>
<text text-anchor="start" x="30" y="-399.2" font-family="Helvetica,sans-Serif" font-size="11.00">obj_id</text>
<polygon fill="none" stroke="black" points="199,-391 199,-413 322,-413 322,-391 199,-391"/>
<text text-anchor="start" x="202" y="-399.2" font-family="Helvetica,sans-Serif" font-size="11.00">varchar[16]</text>
<polygon fill="none" stroke="black" points="10,-369 10,-391 199,-391 199,-369 10,-369"/>
<text text-anchor="start" x="30" y="-377.2" font-family="Helvetica,sans-Serif" font-size="11.00">_function_hierarchic</text>
<polygon fill="none" stroke="black" points="199,-369 199,-391 322,-391 322,-369 199,-369"/>
<text text-anchor="start" x="202" y="-377.2" font-family="Helvetica,sans-Serif" font-size="11.00">int4[10]</text>
<polygon fill="none" stroke="black" points="10,-347 10,-369 199,-369 199,-347 10,-347"/>
<text text-anchor="start" x="30" y="-355.2" font-family="Helvetica,sans-Serif" font-size="11.00">_status</text>
<polygon fill="none" stroke="black" points="199,-347 199,-369 322,-369 322,-347 199,-347"/>
<text text-anchor="start" x="202" y="-355.2" font-family="Helvetica,sans-Serif" font-size="11.00">int4[10]</text>
<polygon fill="none" stroke="black" points="10,-325 10,-347 199,-347 199,-325 10,-325"/>
<text text-anchor="start" x="30" y="-333.2" font-family="Helvetica,sans-Serif" font-size="11.00">_usage_current</text>
<polygon fill="none" stroke="black" points="199,-325 199,-347 322,-347 322,-325 199,-325"/>
<text text-anchor="start" x="202" y="-333.2" font-family="Helvetica,sans-Serif" font-size="11.00">int4[10]</text>
<polygon fill="none" stroke="black" points="10,-303 10,-325 199,-325 199,-303 10,-303"/>
<text text-anchor="start" x="30" y="-311.2" font-family="Helvetica,sans-Serif" font-size="11.00">backflow_level_current</text>
<polygon fill="none" stroke="black" points="199,-303 199,-325 322,-325 322,-303 199,-303"/>
<text text-anchor="start" x="202" y="-311.2" font-family="Helvetica,sans-Serif" font-size="11.00">numeric[7,3]</text>
<polygon fill="none" stroke="black" points="10,-281 10,-303 199,-303 199,-281 10,-281"/>
<text text-anchor="start" x="30" y="-289.2" font-family="Helvetica,sans-Serif" font-size="11.00">bottom_level</text>
<polygon fill="none" stroke="black" points="199,-281 199,-303 322,-303 322,-281 199,-281"/>
<text text-anchor="start" x="202" y="-289.2" font-family="Helvetica,sans-Serif" font-size="11.00">numeric[7,3]</text>
<polygon fill="none" stroke="black" points="10,-259 10,-281 199,-281 199,-259 10,-259"/>
<text text-anchor="start" x="30" y="-267.2" font-family="Helvetica,sans-Serif" font-size="11.00">elevation_accuracy</text>
<polygon fill="none" stroke="black" points="199,-259 199,-281 322,-281 322,-259 199,-259"/>
<text text-anchor="start" x="202" y="-267.2" font-family="Helvetica,sans-Serif" font-size="11.00">int4[10]</text>
<polygon fill="none" stroke="black" points="10,-237 10,-259 199,-259 199,-237 10,-237"/>
<text text-anchor="start" x="30" y="-245.2" font-family="Helvetica,sans-Serif" font-size="11.00">fk_hydr_geometry</text>
<polygon fill="none" stroke="black" points="199,-237 199,-259 322,-259 322,-237 199,-237"/>
<text text-anchor="start" x="202" y="-245.2" font-family="Helvetica,sans-Serif" font-size="11.00">varchar[16]</text>
<polygon fill="none" stroke="black" points="10,-215 10,-237 199,-237 199,-215 10,-215"/>
<text text-anchor="start" x="30" y="-223.2" font-family="Helvetica,sans-Serif" font-size="11.00">function_node_amelioration</text>
<polygon fill="none" stroke="black" points="199,-215 199,-237 322,-237 322,-215 199,-215"/>
<text text-anchor="start" x="202" y="-223.2" font-family="Helvetica,sans-Serif" font-size="11.00">int4[10]</text>
<polygon fill="none" stroke="black" points="10,-193 10,-215 199,-215 199,-193 10,-193"/>
<text text-anchor="start" x="30" y="-201.2" font-family="Helvetica,sans-Serif" font-size="11.00">situation3d_geometry</text>
<polygon fill="none" stroke="black" points="199,-193 199,-215 322,-215 322,-193 199,-193"/>
<text text-anchor="start" x="202" y="-201.2" font-family="Helvetica,sans-Serif" font-size="11.00">geometry[2147483647]</text>
<polygon fill="none" stroke="black" points="10,-171 10,-193 199,-193 199,-171 10,-171"/>
<text text-anchor="start" x="30" y="-179.2" font-family="Helvetica,sans-Serif" font-size="11.00">wwtp_number</text>
<polygon fill="none" stroke="black" points="199,-171 199,-193 322,-193 322,-171 199,-171"/>
<text text-anchor="start" x="202" y="-179.2" font-family="Helvetica,sans-Serif" font-size="11.00">int4[10]</text>
<polygon fill="none" stroke="black" points="10,-149 10,-171 199,-171 199,-149 10,-149"/>
<text text-anchor="start" x="30" y="-157.2" font-family="Helvetica,sans-Serif" font-size="11.00">fk_dataowner</text>
<polygon fill="none" stroke="black" points="199,-149 199,-171 322,-171 322,-149 199,-149"/>
<text text-anchor="start" x="202" y="-157.2" font-family="Helvetica,sans-Serif" font-size="11.00">varchar[16]</text>
<polygon fill="none" stroke="black" points="10,-127 10,-149 199,-149 199,-127 10,-127"/>
<text text-anchor="start" x="30" y="-135.2" font-family="Helvetica,sans-Serif" font-size="11.00">fk_provider</text>
<polygon fill="none" stroke="black" points="199,-127 199,-149 322,-149 322,-127 199,-127"/>
<text text-anchor="start" x="202" y="-135.2" font-family="Helvetica,sans-Serif" font-size="11.00">varchar[16]</text>
<polygon fill="none" stroke="black" points="10,-105 10,-127 199,-127 199,-105 10,-105"/>
<text text-anchor="start" x="30" y="-113.2" font-family="Helvetica,sans-Serif" font-size="11.00">fk_wastewater_structure</text>
<polygon fill="none" stroke="black" points="199,-105 199,-127 322,-127 322,-105 199,-105"/>
<text text-anchor="start" x="202" y="-113.2" font-family="Helvetica,sans-Serif" font-size="11.00">varchar[16]</text>
<polygon fill="none" stroke="black" points="10,-83 10,-105 199,-105 199,-83 10,-83"/>
<text text-anchor="start" x="30" y="-91.2" font-family="Helvetica,sans-Serif" font-size="11.00">identifier</text>
<polygon fill="none" stroke="black" points="199,-83 199,-105 322,-105 322,-83 199,-83"/>
<text text-anchor="start" x="202" y="-91.2" font-family="Helvetica,sans-Serif" font-size="11.00">text[2147483647]</text>
<polygon fill="none" stroke="black" points="10,-61 10,-83 199,-83 199,-61 10,-61"/>
<text text-anchor="start" x="30" y="-69.2" font-family="Helvetica,sans-Serif" font-size="11.00">last_modification</text>
<polygon fill="none" stroke="black" points="199,-61 199,-83 322,-83 322,-61 199,-61"/>
<text text-anchor="start" x="202" y="-69.2" font-family="Helvetica,sans-Serif" font-size="11.00">timestamp[29,6]</text>
<polygon fill="none" stroke="black" points="10,-39 10,-61 199,-61 199,-39 10,-39"/>
<text text-anchor="start" x="30" y="-47.2" font-family="Helvetica,sans-Serif" font-size="11.00">remark</text>
<polygon fill="none" stroke="black" points="199,-39 199,-61 322,-61 322,-39 199,-39"/>
<text text-anchor="start" x="202" y="-47.2" font-family="Helvetica,sans-Serif" font-size="11.00">text[2147483647]</text>
<polygon fill="none" stroke="black" stroke-width="2" points="9,-38 9,-436 323,-436 323,-38 9,-38"/>
</a>
</g>
</g>
</g>
</svg>
