<?xml version="1.0" encoding="UTF-8" standalone="no"?>
<!DOCTYPE svg PUBLIC "-//W3C//DTD SVG 1.1//EN"
 "http://www.w3.org/Graphics/SVG/1.1/DTD/svg11.dtd">
<!-- Generated by graphviz version 2.43.0 (0)
 -->
<!-- Title: oneDegreeRelationshipsDiagram Pages: 1 -->
<svg width="358pt" height="137pt"
 viewBox="0.00 0.00 358.00 137.00" xmlns="http://www.w3.org/2000/svg" xmlns:xlink="http://www.w3.org/1999/xlink">
<g id="graph0" class="graph" transform="scale(1 1) rotate(0) translate(4 133)">
<title>oneDegreeRelationshipsDiagram</title>
<polygon fill="#ffffff" stroke="transparent" points="-4,4 -4,-133 354,-133 354,4 -4,4"/>
<text text-anchor="middle" x="79.5" y="-7.2" font-family="Helvetica,sans-Serif" font-size="11.00">Generated by SchemaSpy</text>
<!-- agxx_last_modification_updater -->
<g id="node1" class="node">
<title>agxx_last_modification_updater</title>
<g id="a_node1"><a xlink:href="../../tables/agxx_last_modification_updater.html" xlink:title="agxx_last_modification_updater" target="_top">
<polygon fill="#ffffff" stroke="transparent" points="8,-37 8,-125 342,-125 342,-37 8,-37"/>
<polygon fill="#f5f5f5" stroke="transparent" points="10,-101 10,-123 340,-123 340,-101 10,-101"/>
<polygon fill="none" stroke="black" points="10,-101 10,-123 340,-123 340,-101 10,-101"/>
<text text-anchor="start" x="15" y="-110.2" font-family="Helvetica,sans-Serif" font-weight="bold" font-size="11.00">agxx_last_modification_updater</text>
<text text-anchor="start" x="298" y="-109.2" font-family="Helvetica,sans-Serif" font-size="11.00">[table]</text>
<polygon fill="none" stroke="black" points="10,-79 10,-101 262,-101 262,-79 10,-79"/>
<image xlink:href="../../images/primaryKeys.png" width="11px" height="12px" preserveAspectRatio="xMinYMin meet" x="15" y="-96"/>
<text text-anchor="start" x="30" y="-87.2" font-family="Helvetica,sans-Serif" font-size="11.00">username</text>
<polygon fill="none" stroke="black" points="262,-79 262,-101 340,-101 340,-79 262,-79"/>
<text text-anchor="start" x="265" y="-87.2" font-family="Helvetica,sans-Serif" font-size="11.00">varchar[200]</text>
<polygon fill="none" stroke="black" points="10,-57 10,-79 262,-79 262,-57 10,-57"/>
<text text-anchor="start" x="30" y="-65.2" font-family="Helvetica,sans-Serif" font-size="11.00">ag_update_type</text>
<polygon fill="none" stroke="black" points="262,-57 262,-79 340,-79 340,-57 262,-57"/>
<text text-anchor="start" x="265" y="-65.2" font-family="Helvetica,sans-Serif" font-size="11.00">varchar[4]</text>
<polygon fill="#ffffff" stroke="transparent" points="10,-39 10,-57 340,-57 340,-39 10,-39"/>
<polygon fill="none" stroke="black" points="10,-39 10,-57 340,-57 340,-39 10,-39"/>
<polygon fill="#ffffff" stroke="transparent" points="11,-40 11,-56 125,-56 125,-40 11,-40"/>
<text text-anchor="start" x="13" y="-45.2" font-family="Helvetica,sans-Serif" font-size="11.00">&lt; 0</text>
<polygon fill="#ffffff" stroke="transparent" points="125,-40 125,-56 226,-56 226,-40 125,-40"/>
<text text-anchor="start" x="171.5" y="-45.2" font-family="Helvetica,sans-Serif" font-size="11.00"> &#160;</text>
<polygon fill="#ffffff" stroke="transparent" points="226,-40 226,-56 339,-56 339,-40 226,-40"/>
<text text-anchor="start" x="317" y="-45.2" font-family="Helvetica,sans-Serif" font-size="11.00">0 &gt;</text>
<polygon fill="black" stroke="black" points="125,-40 125,-56 125,-56 125,-40 125,-40"/>
<polygon fill="black" stroke="black" points="226,-40 226,-56 226,-56 226,-40 226,-40"/>
<polygon fill="none" stroke="black" stroke-width="2" points="9,-38 9,-124 341,-124 341,-38 9,-38"/>
</a>
</g>
</g>
</g>
</svg>
