<?xml version="1.0" encoding="UTF-8" standalone="no"?>
<!DOCTYPE svg PUBLIC "-//W3C//DTD SVG 1.1//EN"
 "http://www.w3.org/Graphics/SVG/1.1/DTD/svg11.dtd">
<!-- Generated by graphviz version 2.43.0 (0)
 -->
<!-- Title: oneDegreeRelationshipsDiagram Pages: 1 -->
<svg width="620pt" height="472pt"
 viewBox="0.00 0.00 620.00 472.00" xmlns="http://www.w3.org/2000/svg" xmlns:xlink="http://www.w3.org/1999/xlink">
<g id="graph0" class="graph" transform="scale(1 1) rotate(0) translate(4 468)">
<title>oneDegreeRelationshipsDiagram</title>
<polygon fill="#ffffff" stroke="transparent" points="-4,4 -4,-468 616,-468 616,4 -4,4"/>
<text text-anchor="middle" x="79.5" y="-7.2" font-family="Helvetica,sans-Serif" font-size="11.00">Generated by SchemaSpy</text>
<!-- agxx_cover -->
<g id="node1" class="node">
<title>agxx_cover</title>
<g id="a_node1"><a xlink:href="../../tables/agxx_cover.html" xlink:title="agxx_cover" target="_top">
<polygon fill="#ffffff" stroke="transparent" points="281,-257 281,-367 604,-367 604,-257 281,-257"/>
<polygon fill="#f5f5f5" stroke="transparent" points="283.5,-343 283.5,-365 602.5,-365 602.5,-343 283.5,-343"/>
<polygon fill="none" stroke="black" points="283.5,-343 283.5,-365 602.5,-365 602.5,-343 283.5,-343"/>
<text text-anchor="start" x="288.5" y="-352.2" font-family="Helvetica,sans-Serif" font-weight="bold" font-size="11.00">agxx_cover</text>
<text text-anchor="start" x="560.5" y="-351.2" font-family="Helvetica,sans-Serif" font-size="11.00">[table]</text>
<polygon fill="none" stroke="black" points="283.5,-321 283.5,-343 496.5,-343 496.5,-321 283.5,-321"/>
<image xlink:href="../../images/primaryKeys.png" width="11px" height="12px" preserveAspectRatio="xMinYMin meet" x="288.5" y="-338"/>
<text text-anchor="start" x="303.5" y="-329.2" font-family="Helvetica,sans-Serif" font-size="11.00">uuid</text>
<polygon fill="none" stroke="black" points="496.5,-321 496.5,-343 602.5,-343 602.5,-321 496.5,-321"/>
<text text-anchor="start" x="499.5" y="-329.2" font-family="Helvetica,sans-Serif" font-size="11.00">uuid[2147483647]</text>
<polygon fill="none" stroke="black" points="283.5,-299 283.5,-321 496.5,-321 496.5,-299 283.5,-299"/>
<image xlink:href="../../images/foreignKeys.png" width="11px" height="12px" preserveAspectRatio="xMinYMin meet" x="288.5" y="-316"/>
<text text-anchor="start" x="303.5" y="-307.2" font-family="Helvetica,sans-Serif" font-size="11.00">fk_cover</text>
<polygon fill="none" stroke="black" points="496.5,-299 496.5,-321 602.5,-321 602.5,-299 496.5,-299"/>
<text text-anchor="start" x="499.5" y="-307.2" font-family="Helvetica,sans-Serif" font-size="11.00">varchar[16]</text>
<polygon fill="none" stroke="black" points="283.5,-277 283.5,-299 496.5,-299 496.5,-277 283.5,-277"/>
<image xlink:href="../../images/foreignKeys.png" width="11px" height="12px" preserveAspectRatio="xMinYMin meet" x="288.5" y="-294"/>
<text text-anchor="start" x="303.5" y="-285.2" font-family="Helvetica,sans-Serif" font-size="11.00">ag64_fk_wastewater_node</text>
<polygon fill="none" stroke="black" points="496.5,-277 496.5,-299 602.5,-299 602.5,-277 496.5,-277"/>
<text text-anchor="start" x="499.5" y="-285.2" font-family="Helvetica,sans-Serif" font-size="11.00">varchar[16]</text>
<polygon fill="#ffffff" stroke="transparent" points="283.5,-259 283.5,-277 602.5,-277 602.5,-259 283.5,-259"/>
<polygon fill="none" stroke="black" points="283.5,-259 283.5,-277 602.5,-277 602.5,-259 283.5,-259"/>
<polygon fill="#ffffff" stroke="transparent" points="284.5,-260 284.5,-276 394.5,-276 394.5,-260 284.5,-260"/>
<text text-anchor="start" x="286.5" y="-265.2" font-family="Helvetica,sans-Serif" font-size="11.00">&lt; 2</text>
<polygon fill="#ffffff" stroke="transparent" points="394.5,-260 394.5,-276 492.5,-276 492.5,-260 394.5,-260"/>
<text text-anchor="start" x="439.5" y="-265.2" font-family="Helvetica,sans-Serif" font-size="11.00"> &#160;</text>
<polygon fill="#ffffff" stroke="transparent" points="492.5,-260 492.5,-276 601.5,-276 601.5,-260 492.5,-260"/>
<text text-anchor="start" x="579.5" y="-265.2" font-family="Helvetica,sans-Serif" font-size="11.00">0 &gt;</text>
<polygon fill="black" stroke="black" points="394.5,-260 394.5,-276 394.5,-276 394.5,-260 394.5,-260"/>
<polygon fill="black" stroke="black" points="492.5,-260 492.5,-276 492.5,-276 492.5,-260 492.5,-260"/>
<polygon fill="none" stroke="black" stroke-width="2" points="282,-258 282,-366 603,-366 603,-258 282,-258"/>
</a>
</g>
</g>
<!-- wastewater_node -->
<g id="node2" class="node">
<title>wastewater_node</title>
<g id="a_node2"><a xlink:href="../../tables/wastewater_node.html" xlink:title="wastewater_node" target="_top">
<polygon fill="#ffffff" stroke="transparent" points="8,-37 8,-205 232,-205 232,-37 8,-37"/>
<polygon fill="#f5f5f5" stroke="transparent" points="8,-183 8,-205 232,-205 232,-183 8,-183"/>
<polygon fill="none" stroke="black" points="8,-183 8,-205 232,-205 232,-183 8,-183"/>
<text text-anchor="start" x="13" y="-192.2" font-family="Helvetica,sans-Serif" font-weight="bold" font-size="11.00">wastewater_node</text>
<text text-anchor="start" x="190" y="-191.2" font-family="Helvetica,sans-Serif" font-size="11.00">[table]</text>
<polygon fill="none" stroke="black" points="8,-161 8,-183 232,-183 232,-161 8,-161"/>
<image xlink:href="../../images/primaryKeys.png" width="11px" height="12px" preserveAspectRatio="xMinYMin meet" x="13" y="-178"/>
<text text-anchor="start" x="28" y="-169.2" font-family="Helvetica,sans-Serif" font-size="11.00">obj_id</text>
<polygon fill="none" stroke="black" points="8,-139 8,-161 232,-161 232,-139 8,-139"/>
<image xlink:href="../../images/foreignKeys.png" width="11px" height="12px" preserveAspectRatio="xMinYMin meet" x="13" y="-156"/>
<text text-anchor="start" x="28" y="-147.2" font-family="Helvetica,sans-Serif" font-size="11.00">elevation_accuracy</text>
<polygon fill="none" stroke="black" points="8,-117 8,-139 232,-139 232,-117 8,-117"/>
<image xlink:href="../../images/foreignKeys.png" width="11px" height="12px" preserveAspectRatio="xMinYMin meet" x="13" y="-134"/>
<text text-anchor="start" x="28" y="-125.2" font-family="Helvetica,sans-Serif" font-size="11.00">function_node_amelioration</text>
<polygon fill="#ffffff" stroke="transparent" points="8,-95 8,-117 232,-117 232,-95 8,-95"/>
<polygon fill="none" stroke="black" points="8,-95 8,-117 232,-117 232,-95 8,-95"/>
<text text-anchor="start" x="28" y="-103.2" font-family="Helvetica,sans-Serif" font-size="11.00">situation3d_geometry</text>
<polygon fill="none" stroke="black" points="8,-73 8,-95 232,-95 232,-73 8,-73"/>
<image xlink:href="../../images/foreignKeys.png" width="11px" height="12px" preserveAspectRatio="xMinYMin meet" x="13" y="-90"/>
<text text-anchor="start" x="28" y="-81.2" font-family="Helvetica,sans-Serif" font-size="11.00">fk_hydr_geometry</text>
<polygon fill="none" stroke="black" points="8,-55 8,-73 232,-73 232,-55 8,-55"/>
<text text-anchor="start" x="11" y="-61.2" font-family="Helvetica,sans-Serif" font-size="11.00">...</text>
<polygon fill="#ffffff" stroke="transparent" points="8,-37 8,-55 232,-55 232,-37 8,-37"/>
<polygon fill="none" stroke="black" points="8,-37 8,-55 232,-55 232,-37 8,-37"/>
<polygon fill="#ffffff" stroke="transparent" points="9,-38 9,-54 87,-54 87,-38 9,-38"/>
<text text-anchor="start" x="11" y="-43.2" font-family="Helvetica,sans-Serif" font-size="11.00">&lt; 4</text>
<polygon fill="#ffffff" stroke="transparent" points="87,-38 87,-54 153,-54 153,-38 87,-38"/>
<text text-anchor="start" x="116" y="-43.2" font-family="Helvetica,sans-Serif" font-size="11.00"> &#160;</text>
<polygon fill="#ffffff" stroke="transparent" points="153,-38 153,-54 231,-54 231,-38 153,-38"/>
<text text-anchor="start" x="209" y="-43.2" font-family="Helvetica,sans-Serif" font-size="11.00">9 &gt;</text>
<polygon fill="black" stroke="black" points="87,-38 87,-54 87,-54 87,-38 87,-38"/>
<polygon fill="black" stroke="black" points="153,-38 153,-54 153,-54 153,-38 153,-38"/>
</a>
</g>
</g>
<!-- agxx_cover&#45;&gt;wastewater_node -->
<g id="edge1" class="edge">
<title>agxx_cover:w&#45;&gt;wastewater_node:e</title>
<path fill="none" stroke="black" d="M268.45,-284.4C238.33,-264.82 283.14,-172 233,-172"/>
<polygon fill="black" stroke="black" points="274.75,-286.02 281.61,-291.49 278.63,-287.01 282.5,-288 282.5,-288 282.5,-288 278.63,-287.01 283.39,-284.51 274.75,-286.02 274.75,-286.02"/>
<ellipse fill="none" stroke="black" cx="271.65" cy="-285.22" rx="3.2" ry="3.2"/>
</g>
<!-- cover -->
<g id="node3" class="node">
<title>cover</title>
<g id="a_node3"><a xlink:href="../../tables/cover.html" xlink:title="cover" target="_top">
<polygon fill="#ffffff" stroke="transparent" points="29.5,-226 29.5,-460 210.5,-460 210.5,-226 29.5,-226"/>
<polygon fill="#f5f5f5" stroke="transparent" points="30,-438 30,-460 211,-460 211,-438 30,-438"/>
<polygon fill="none" stroke="black" points="30,-438 30,-460 211,-460 211,-438 30,-438"/>
<text text-anchor="start" x="35" y="-447.2" font-family="Helvetica,sans-Serif" font-weight="bold" font-size="11.00">cover</text>
<text text-anchor="start" x="169" y="-446.2" font-family="Helvetica,sans-Serif" font-size="11.00">[table]</text>
<polygon fill="none" stroke="black" points="30,-416 30,-438 211,-438 211,-416 30,-416"/>
<image xlink:href="../../images/primaryKeys.png" width="11px" height="12px" preserveAspectRatio="xMinYMin meet" x="35" y="-433"/>
<text text-anchor="start" x="50" y="-424.2" font-family="Helvetica,sans-Serif" font-size="11.00">obj_id</text>
<polygon fill="none" stroke="black" points="30,-394 30,-416 211,-416 211,-394 30,-394"/>
<image xlink:href="../../images/foreignKeys.png" width="11px" height="12px" preserveAspectRatio="xMinYMin meet" x="35" y="-411"/>
<text text-anchor="start" x="50" y="-402.2" font-family="Helvetica,sans-Serif" font-size="11.00">cover_shape</text>
<polygon fill="none" stroke="black" points="30,-372 30,-394 211,-394 211,-372 30,-372"/>
<image xlink:href="../../images/foreignKeys.png" width="11px" height="12px" preserveAspectRatio="xMinYMin meet" x="35" y="-389"/>
<text text-anchor="start" x="50" y="-380.2" font-family="Helvetica,sans-Serif" font-size="11.00">fastening</text>
<polygon fill="none" stroke="black" points="30,-350 30,-372 211,-372 211,-350 30,-350"/>
<image xlink:href="../../images/foreignKeys.png" width="11px" height="12px" preserveAspectRatio="xMinYMin meet" x="35" y="-367"/>
<text text-anchor="start" x="50" y="-358.2" font-family="Helvetica,sans-Serif" font-size="11.00">material</text>
<polygon fill="none" stroke="black" points="30,-328 30,-350 211,-350 211,-328 30,-328"/>
<image xlink:href="../../images/foreignKeys.png" width="11px" height="12px" preserveAspectRatio="xMinYMin meet" x="35" y="-345"/>
<text text-anchor="start" x="50" y="-336.2" font-family="Helvetica,sans-Serif" font-size="11.00">positional_accuracy</text>
<polygon fill="#ffffff" stroke="transparent" points="30,-306 30,-328 211,-328 211,-306 30,-306"/>
<polygon fill="none" stroke="black" points="30,-306 30,-328 211,-328 211,-306 30,-306"/>
<text text-anchor="start" x="50" y="-314.2" font-family="Helvetica,sans-Serif" font-size="11.00">situation3d_geometry</text>
<polygon fill="none" stroke="black" points="30,-284 30,-306 211,-306 211,-284 30,-284"/>
<image xlink:href="../../images/foreignKeys.png" width="11px" height="12px" preserveAspectRatio="xMinYMin meet" x="35" y="-301"/>
<text text-anchor="start" x="50" y="-292.2" font-family="Helvetica,sans-Serif" font-size="11.00">sludge_bucket</text>
<polygon fill="none" stroke="black" points="30,-262 30,-284 211,-284 211,-262 30,-262"/>
<image xlink:href="../../images/foreignKeys.png" width="11px" height="12px" preserveAspectRatio="xMinYMin meet" x="35" y="-279"/>
<text text-anchor="start" x="50" y="-270.2" font-family="Helvetica,sans-Serif" font-size="11.00">venting</text>
<polygon fill="none" stroke="black" points="30,-244 30,-262 211,-262 211,-244 30,-244"/>
<text text-anchor="start" x="33" y="-250.2" font-family="Helvetica,sans-Serif" font-size="11.00">...</text>
<polygon fill="#ffffff" stroke="transparent" points="30,-226 30,-244 211,-244 211,-226 30,-226"/>
<polygon fill="none" stroke="black" points="30,-226 30,-244 211,-244 211,-226 30,-226"/>
<polygon fill="#ffffff" stroke="transparent" points="31,-227 31,-243 95,-243 95,-227 31,-227"/>
<text text-anchor="start" x="33" y="-232.2" font-family="Helvetica,sans-Serif" font-size="11.00">&lt; 7</text>
<polygon fill="#ffffff" stroke="transparent" points="95,-227 95,-243 147,-243 147,-227 95,-227"/>
<text text-anchor="start" x="117" y="-232.2" font-family="Helvetica,sans-Serif" font-size="11.00"> &#160;</text>
<polygon fill="#ffffff" stroke="transparent" points="147,-227 147,-243 210,-243 210,-227 147,-227"/>
<text text-anchor="start" x="188" y="-232.2" font-family="Helvetica,sans-Serif" font-size="11.00">2 &gt;</text>
<polygon fill="black" stroke="black" points="95,-227 95,-243 95,-243 95,-227 95,-227"/>
<polygon fill="black" stroke="black" points="147,-227 147,-243 147,-243 147,-227 147,-227"/>
</a>
</g>
</g>
<!-- agxx_cover&#45;&gt;cover -->
<g id="edge2" class="edge">
<title>agxx_cover:w&#45;&gt;cover:e</title>
<path fill="none" stroke="black" d="M268.18,-312.89C230.36,-330.91 267.02,-427 212,-427"/>
<polygon fill="black" stroke="black" points="274.66,-311.58 283.21,-313.53 278.58,-310.79 282.5,-310 282.5,-310 282.5,-310 278.58,-310.79 281.79,-306.47 274.66,-311.58 274.66,-311.58"/>
<ellipse fill="none" stroke="black" cx="271.52" cy="-312.22" rx="3.2" ry="3.2"/>
</g>
</g>
</svg>
