<?xml version="1.0" encoding="UTF-8" standalone="no"?>
<!DOCTYPE svg PUBLIC "-//W3C//DTD SVG 1.1//EN"
 "http://www.w3.org/Graphics/SVG/1.1/DTD/svg11.dtd">
<!-- Generated by graphviz version 2.47.1 (20210515.0534)
 -->
<!-- Title: oneDegreeRelationshipsDiagram Pages: 1 -->
<svg width="884pt" height="972pt"
 viewBox="0.00 0.00 884.00 972.00" xmlns="http://www.w3.org/2000/svg" xmlns:xlink="http://www.w3.org/1999/xlink">
<g id="graph0" class="graph" transform="scale(1 1) rotate(0) translate(4 968)">
<title>oneDegreeRelationshipsDiagram</title>
<polygon fill="#ffffff" stroke="transparent" points="-4,4 -4,-968 880,-968 880,4 -4,4"/>
<text text-anchor="middle" x="73.5" y="-7.2" font-family="Helvetica,sans-Serif" font-size="11.00">Generated by SchemaSpy</text>
<!-- bio_ecol_assessment -->
<g id="node1" class="node">
<title>bio_ecol_assessment</title>
<g id="a_node1"><a xlink:href="../../tables/bio_ecol_assessment.html" xlink:title="bio_ecol_assessment" target="_top">
<polygon fill="#ffffff" stroke="transparent" points="440,-137 440,-577 868,-577 868,-137 440,-137"/>
<polygon fill="#f5f5f5" stroke="transparent" points="442,-553 442,-575 866,-575 866,-553 442,-553"/>
<polygon fill="none" stroke="black" points="442,-553 442,-575 866,-575 866,-553 442,-553"/>
<text text-anchor="start" x="447" y="-562.2" font-family="Helvetica,sans-Serif" font-weight="bold" font-size="11.00">bio_ecol_assessment</text>
<text text-anchor="start" x="827" y="-561.2" font-family="Helvetica,sans-Serif" font-size="11.00">[table]</text>
<polygon fill="none" stroke="black" points="442,-531 442,-553 772,-553 772,-531 442,-531"/>
<image xlink:href="../../images/primaryKeys.png" width="11px" height="12px" preserveAspectRatio="xMinYMin meet" x="447" y="-548"/>
<text text-anchor="start" x="462" y="-539.2" font-family="Helvetica,sans-Serif" font-size="11.00">obj_id</text>
<polygon fill="none" stroke="black" points="772,-531 772,-553 866,-553 866,-531 772,-531"/>
<text text-anchor="start" x="775" y="-539.2" font-family="Helvetica,sans-Serif" font-size="11.00">varchar[16]</text>
<polygon fill="none" stroke="black" points="442,-509 442,-531 772,-531 772,-509 442,-509"/>
<image xlink:href="../../images/foreignKeys.png" width="11px" height="12px" preserveAspectRatio="xMinYMin meet" x="447" y="-526"/>
<text text-anchor="start" x="462" y="-517.2" font-family="Helvetica,sans-Serif" font-size="11.00">comparison_last</text>
<polygon fill="none" stroke="black" points="772,-509 772,-531 866,-531 866,-509 772,-509"/>
<text text-anchor="start" x="775" y="-517.2" font-family="Helvetica,sans-Serif" font-size="11.00">int4[10]</text>
<polygon fill="none" stroke="black" points="442,-487 442,-509 772,-509 772,-487 442,-487"/>
<text text-anchor="start" x="462" y="-495.2" font-family="Helvetica,sans-Serif" font-size="11.00">date_last_examen</text>
<polygon fill="none" stroke="black" points="772,-487 772,-509 866,-509 866,-487 772,-487"/>
<text text-anchor="start" x="775" y="-495.2" font-family="Helvetica,sans-Serif" font-size="11.00">timestamp[29,6]</text>
<polygon fill="none" stroke="black" points="442,-465 442,-487 772,-487 772,-465 442,-465"/>
<image xlink:href="../../images/foreignKeys.png" width="11px" height="12px" preserveAspectRatio="xMinYMin meet" x="447" y="-482"/>
<text text-anchor="start" x="462" y="-473.2" font-family="Helvetica,sans-Serif" font-size="11.00">impact_auxiliary_indic</text>
<polygon fill="none" stroke="black" points="772,-465 772,-487 866,-487 866,-465 772,-465"/>
<text text-anchor="start" x="775" y="-473.2" font-family="Helvetica,sans-Serif" font-size="11.00">int4[10]</text>
<polygon fill="none" stroke="black" points="442,-443 442,-465 772,-465 772,-443 442,-443"/>
<image xlink:href="../../images/foreignKeys.png" width="11px" height="12px" preserveAspectRatio="xMinYMin meet" x="447" y="-460"/>
<text text-anchor="start" x="462" y="-451.2" font-family="Helvetica,sans-Serif" font-size="11.00">impact_external_aspect</text>
<polygon fill="none" stroke="black" points="772,-443 772,-465 866,-465 866,-443 772,-443"/>
<text text-anchor="start" x="775" y="-451.2" font-family="Helvetica,sans-Serif" font-size="11.00">int4[10]</text>
<polygon fill="none" stroke="black" points="442,-421 442,-443 772,-443 772,-421 442,-421"/>
<image xlink:href="../../images/foreignKeys.png" width="11px" height="12px" preserveAspectRatio="xMinYMin meet" x="447" y="-438"/>
<text text-anchor="start" x="462" y="-429.2" font-family="Helvetica,sans-Serif" font-size="11.00">impact_macroinvertebrates</text>
<polygon fill="none" stroke="black" points="772,-421 772,-443 866,-443 866,-421 772,-421"/>
<text text-anchor="start" x="775" y="-429.2" font-family="Helvetica,sans-Serif" font-size="11.00">int4[10]</text>
<polygon fill="none" stroke="black" points="442,-399 442,-421 772,-421 772,-399 442,-399"/>
<image xlink:href="../../images/foreignKeys.png" width="11px" height="12px" preserveAspectRatio="xMinYMin meet" x="447" y="-416"/>
<text text-anchor="start" x="462" y="-407.2" font-family="Helvetica,sans-Serif" font-size="11.00">impact_water_plants</text>
<polygon fill="none" stroke="black" points="772,-399 772,-421 866,-421 866,-399 772,-399"/>
<text text-anchor="start" x="775" y="-407.2" font-family="Helvetica,sans-Serif" font-size="11.00">int4[10]</text>
<polygon fill="none" stroke="black" points="442,-377 442,-399 772,-399 772,-377 442,-377"/>
<image xlink:href="../../images/foreignKeys.png" width="11px" height="12px" preserveAspectRatio="xMinYMin meet" x="447" y="-394"/>
<text text-anchor="start" x="462" y="-385.2" font-family="Helvetica,sans-Serif" font-size="11.00">intervention_demand</text>
<polygon fill="none" stroke="black" points="772,-377 772,-399 866,-399 866,-377 772,-377"/>
<text text-anchor="start" x="775" y="-385.2" font-family="Helvetica,sans-Serif" font-size="11.00">int4[10]</text>
<polygon fill="none" stroke="black" points="442,-355 442,-377 772,-377 772,-355 442,-355"/>
<image xlink:href="../../images/foreignKeys.png" width="11px" height="12px" preserveAspectRatio="xMinYMin meet" x="447" y="-372"/>
<text text-anchor="start" x="462" y="-363.2" font-family="Helvetica,sans-Serif" font-size="11.00">io_calculation</text>
<polygon fill="none" stroke="black" points="772,-355 772,-377 866,-377 866,-355 772,-355"/>
<text text-anchor="start" x="775" y="-363.2" font-family="Helvetica,sans-Serif" font-size="11.00">int4[10]</text>
<polygon fill="none" stroke="black" points="442,-333 442,-355 772,-355 772,-333 442,-333"/>
<text text-anchor="start" x="462" y="-341.2" font-family="Helvetica,sans-Serif" font-size="11.00">outlet_pipe_clear_height</text>
<polygon fill="none" stroke="black" points="772,-333 772,-355 866,-355 866,-333 772,-333"/>
<text text-anchor="start" x="775" y="-341.2" font-family="Helvetica,sans-Serif" font-size="11.00">int4[10]</text>
<polygon fill="none" stroke="black" points="442,-311 442,-333 772,-333 772,-311 442,-311"/>
<text text-anchor="start" x="462" y="-319.2" font-family="Helvetica,sans-Serif" font-size="11.00">q347</text>
<polygon fill="none" stroke="black" points="772,-311 772,-333 866,-333 866,-311 772,-311"/>
<text text-anchor="start" x="775" y="-319.2" font-family="Helvetica,sans-Serif" font-size="11.00">numeric[8,3]</text>
<polygon fill="none" stroke="black" points="442,-289 442,-311 772,-311 772,-289 442,-289"/>
<image xlink:href="../../images/foreignKeys.png" width="11px" height="12px" preserveAspectRatio="xMinYMin meet" x="447" y="-306"/>
<text text-anchor="start" x="462" y="-297.2" font-family="Helvetica,sans-Serif" font-size="11.00">relevance_matrix</text>
<polygon fill="none" stroke="black" points="772,-289 772,-311 866,-311 866,-289 772,-289"/>
<text text-anchor="start" x="775" y="-297.2" font-family="Helvetica,sans-Serif" font-size="11.00">int4[10]</text>
<polygon fill="none" stroke="black" points="442,-267 442,-289 772,-289 772,-267 442,-267"/>
<text text-anchor="start" x="462" y="-275.2" font-family="Helvetica,sans-Serif" font-size="11.00">relevant_slope</text>
<polygon fill="none" stroke="black" points="772,-267 772,-289 866,-289 866,-267 772,-267"/>
<text text-anchor="start" x="775" y="-275.2" font-family="Helvetica,sans-Serif" font-size="11.00">int2[5]</text>
<polygon fill="none" stroke="black" points="442,-245 442,-267 772,-267 772,-245 442,-245"/>
<text text-anchor="start" x="462" y="-253.2" font-family="Helvetica,sans-Serif" font-size="11.00">surface_water_bodies</text>
<polygon fill="none" stroke="black" points="772,-245 772,-267 866,-267 866,-245 772,-245"/>
<text text-anchor="start" x="775" y="-253.2" font-family="Helvetica,sans-Serif" font-size="11.00">text[2147483647]</text>
<polygon fill="none" stroke="black" points="442,-223 442,-245 772,-245 772,-223 442,-223"/>
<image xlink:href="../../images/foreignKeys.png" width="11px" height="12px" preserveAspectRatio="xMinYMin meet" x="447" y="-240"/>
<text text-anchor="start" x="462" y="-231.2" font-family="Helvetica,sans-Serif" font-size="11.00">type_water_body</text>
<polygon fill="none" stroke="black" points="772,-223 772,-245 866,-245 866,-223 772,-223"/>
<text text-anchor="start" x="775" y="-231.2" font-family="Helvetica,sans-Serif" font-size="11.00">int4[10]</text>
<polygon fill="none" stroke="black" points="442,-201 442,-223 772,-223 772,-201 442,-201"/>
<text text-anchor="start" x="462" y="-209.2" font-family="Helvetica,sans-Serif" font-size="11.00">water_specific_discharge_freight_nh4_n_current</text>
<polygon fill="none" stroke="black" points="772,-201 772,-223 866,-223 866,-201 772,-201"/>
<text text-anchor="start" x="775" y="-209.2" font-family="Helvetica,sans-Serif" font-size="11.00">int2[5]</text>
<polygon fill="none" stroke="black" points="442,-179 442,-201 772,-201 772,-179 442,-179"/>
<text text-anchor="start" x="462" y="-187.2" font-family="Helvetica,sans-Serif" font-size="11.00">water_specific_discharge_freight_nh4_n_current_opt</text>
<polygon fill="none" stroke="black" points="772,-179 772,-201 866,-201 866,-179 772,-179"/>
<text text-anchor="start" x="775" y="-187.2" font-family="Helvetica,sans-Serif" font-size="11.00">int2[5]</text>
<polygon fill="none" stroke="black" points="442,-157 442,-179 772,-179 772,-157 442,-157"/>
<text text-anchor="start" x="462" y="-165.2" font-family="Helvetica,sans-Serif" font-size="11.00">water_specific_discharge_freight_nh4_n_planned</text>
<polygon fill="none" stroke="black" points="772,-157 772,-179 866,-179 866,-157 772,-157"/>
<text text-anchor="start" x="775" y="-165.2" font-family="Helvetica,sans-Serif" font-size="11.00">int2[5]</text>
<polygon fill="#ffffff" stroke="transparent" points="442,-139 442,-157 614,-157 614,-139 442,-139"/>
<polygon fill="none" stroke="black" points="442,-139 442,-157 614,-157 614,-139 442,-139"/>
<text text-anchor="start" x="445" y="-145.2" font-family="Helvetica,sans-Serif" font-size="11.00">&lt; 10</text>
<polygon fill="#ffffff" stroke="transparent" points="614,-139 614,-157 772,-157 772,-139 614,-139"/>
<polygon fill="none" stroke="black" points="614,-139 614,-157 772,-157 772,-139 614,-139"/>
<text text-anchor="start" x="762" y="-145.2" font-family="Helvetica,sans-Serif" font-size="11.00"> &#160;</text>
<polygon fill="#ffffff" stroke="transparent" points="772,-139 772,-157 866,-157 866,-139 772,-139"/>
<polygon fill="none" stroke="black" points="772,-139 772,-157 866,-157 866,-139 772,-139"/>
<text text-anchor="start" x="847" y="-145.2" font-family="Helvetica,sans-Serif" font-size="11.00">0 &gt;</text>
<polygon fill="none" stroke="black" stroke-width="2" points="441,-138 441,-576 867,-576 867,-138 441,-138"/>
</a>
</g>
</g>
<!-- tww_vl.bio_ecol_assessment_comparison_last -->
<g id="node2" class="node">
<title>tww_vl.bio_ecol_assessment_comparison_last</title>
<g id="a_node2"><a xlink:href="../../../tww_vl/tables/bio_ecol_assessment_comparison_last.html" xlink:title="tww_vl.bio_ecol_assessment_comparison_last" target="_top">
<polygon fill="#ffffff" stroke="transparent" points="42.5,-669 42.5,-727 356.5,-727 356.5,-669 42.5,-669"/>
<polygon fill="#f5f5f5" stroke="transparent" points="42.5,-705 42.5,-727 356.5,-727 356.5,-705 42.5,-705"/>
<polygon fill="none" stroke="black" points="42.5,-705 42.5,-727 356.5,-727 356.5,-705 42.5,-705"/>
<text text-anchor="start" x="47.5" y="-714.2" font-family="Helvetica,sans-Serif" font-weight="bold" font-size="11.00">tww_vl.bio_ecol_assessment_comparison_last</text>
<text text-anchor="start" x="317.5" y="-713.2" font-family="Helvetica,sans-Serif" font-size="11.00">[table]</text>
<polygon fill="none" stroke="black" points="42.5,-687 42.5,-705 356.5,-705 356.5,-687 42.5,-687"/>
<text text-anchor="start" x="45.5" y="-693.2" font-family="Helvetica,sans-Serif" font-size="11.00">...</text>
<polygon fill="#ffffff" stroke="transparent" points="42.5,-669 42.5,-687 174.5,-687 174.5,-669 42.5,-669"/>
<polygon fill="none" stroke="black" points="42.5,-669 42.5,-687 174.5,-687 174.5,-669 42.5,-669"/>
<text text-anchor="start" x="45.5" y="-675.2" font-family="Helvetica,sans-Serif" font-size="11.00"> &#160;</text>
<polygon fill="#ffffff" stroke="transparent" points="174.5,-669 174.5,-687 274.5,-687 274.5,-669 174.5,-669"/>
<polygon fill="none" stroke="black" points="174.5,-669 174.5,-687 274.5,-687 274.5,-669 174.5,-669"/>
<text text-anchor="start" x="237.5" y="-675.2" font-family="Helvetica,sans-Serif" font-size="11.00">0 rows</text>
<polygon fill="#ffffff" stroke="transparent" points="274.5,-669 274.5,-687 356.5,-687 356.5,-669 274.5,-669"/>
<polygon fill="none" stroke="black" points="274.5,-669 274.5,-687 356.5,-687 356.5,-669 274.5,-669"/>
<text text-anchor="start" x="337.5" y="-675.2" font-family="Helvetica,sans-Serif" font-size="11.00">1 &gt;</text>
</a>
</g>
</g>
<!-- bio_ecol_assessment&#45;&gt;tww_vl.bio_ecol_assessment_comparison_last -->
<g id="edge1" class="edge">
<title>bio_ecol_assessment:w&#45;&gt;tww_vl.bio_ecol_assessment_comparison_last:e</title>
<path fill="none" stroke="black" d="M426.69,-522.21C388.16,-536.77 442.55,-619.58 399,-659 388.85,-668.19 377.18,-675.49 364.69,-681.25"/>
<polygon fill="black" stroke="black" points="433.09,-521.22 441.55,-523.56 437.05,-520.61 441,-520 441,-520 441,-520 437.05,-520.61 440.45,-516.44 433.09,-521.22 433.09,-521.22"/>
<ellipse fill="none" stroke="black" cx="429.93" cy="-521.71" rx="3.2" ry="3.2"/>
</g>
<!-- tww_vl.bio_ecol_assessment_impact_auxiliary_indic -->
<g id="node3" class="node">
<title>tww_vl.bio_ecol_assessment_impact_auxiliary_indic</title>
<g id="a_node3"><a xlink:href="../../../tww_vl/tables/bio_ecol_assessment_impact_auxi_af4c0477.html" xlink:title="tww_vl.bio_ecol_assessment_impact_auxiliary_indic" target="_top">
<polygon fill="#ffffff" stroke="transparent" points="25,-590 25,-648 374,-648 374,-590 25,-590"/>
<polygon fill="#f5f5f5" stroke="transparent" points="25.5,-626 25.5,-648 374.5,-648 374.5,-626 25.5,-626"/>
<polygon fill="none" stroke="black" points="25.5,-626 25.5,-648 374.5,-648 374.5,-626 25.5,-626"/>
<text text-anchor="start" x="30.5" y="-635.2" font-family="Helvetica,sans-Serif" font-weight="bold" font-size="11.00">tww_vl.bio_ecol_assessment_impact_auxiliary_indic</text>
<text text-anchor="start" x="335.5" y="-634.2" font-family="Helvetica,sans-Serif" font-size="11.00">[table]</text>
<polygon fill="none" stroke="black" points="25.5,-608 25.5,-626 374.5,-626 374.5,-608 25.5,-608"/>
<text text-anchor="start" x="28.5" y="-614.2" font-family="Helvetica,sans-Serif" font-size="11.00">...</text>
<polygon fill="#ffffff" stroke="transparent" points="25.5,-590 25.5,-608 175.5,-608 175.5,-590 25.5,-590"/>
<polygon fill="none" stroke="black" points="25.5,-590 25.5,-608 175.5,-608 175.5,-590 25.5,-590"/>
<text text-anchor="start" x="28.5" y="-596.2" font-family="Helvetica,sans-Serif" font-size="11.00"> &#160;</text>
<polygon fill="#ffffff" stroke="transparent" points="175.5,-590 175.5,-608 283.5,-608 283.5,-590 175.5,-590"/>
<polygon fill="none" stroke="black" points="175.5,-590 175.5,-608 283.5,-608 283.5,-590 175.5,-590"/>
<text text-anchor="start" x="246.5" y="-596.2" font-family="Helvetica,sans-Serif" font-size="11.00">0 rows</text>
<polygon fill="#ffffff" stroke="transparent" points="283.5,-590 283.5,-608 374.5,-608 374.5,-590 283.5,-590"/>
<polygon fill="none" stroke="black" points="283.5,-590 283.5,-608 374.5,-608 374.5,-590 283.5,-590"/>
<text text-anchor="start" x="355.5" y="-596.2" font-family="Helvetica,sans-Serif" font-size="11.00">1 &gt;</text>
</a>
</g>
</g>
<!-- bio_ecol_assessment&#45;&gt;tww_vl.bio_ecol_assessment_impact_auxiliary_indic -->
<g id="edge2" class="edge">
<title>bio_ecol_assessment:w&#45;&gt;tww_vl.bio_ecol_assessment_impact_auxiliary_indic:e</title>
<path fill="none" stroke="black" d="M426.8,-478.98C401.12,-492.9 432.78,-552.09 399,-580 393.72,-584.36 388.09,-588.29 382.2,-591.81"/>
<polygon fill="black" stroke="black" points="433.17,-477.64 441.74,-479.52 437.09,-476.82 441,-476 441,-476 441,-476 437.09,-476.82 440.26,-472.48 433.17,-477.64 433.17,-477.64"/>
<ellipse fill="none" stroke="black" cx="430.04" cy="-478.3" rx="3.2" ry="3.2"/>
</g>
<!-- tww_vl.bio_ecol_assessment_impact_external_aspect -->
<g id="node4" class="node">
<title>tww_vl.bio_ecol_assessment_impact_external_aspect</title>
<g id="a_node4"><a xlink:href="../../../tww_vl/tables/bio_ecol_assessment_impact_exte_5b9a3743.html" xlink:title="tww_vl.bio_ecol_assessment_impact_external_aspect" target="_top">
<polygon fill="#ffffff" stroke="transparent" points="21,-511 21,-569 378,-569 378,-511 21,-511"/>
<polygon fill="#f5f5f5" stroke="transparent" points="21.5,-547 21.5,-569 378.5,-569 378.5,-547 21.5,-547"/>
<polygon fill="none" stroke="black" points="21.5,-547 21.5,-569 378.5,-569 378.5,-547 21.5,-547"/>
<text text-anchor="start" x="26.5" y="-556.2" font-family="Helvetica,sans-Serif" font-weight="bold" font-size="11.00">tww_vl.bio_ecol_assessment_impact_external_aspect</text>
<text text-anchor="start" x="339.5" y="-555.2" font-family="Helvetica,sans-Serif" font-size="11.00">[table]</text>
<polygon fill="none" stroke="black" points="21.5,-529 21.5,-547 378.5,-547 378.5,-529 21.5,-529"/>
<text text-anchor="start" x="24.5" y="-535.2" font-family="Helvetica,sans-Serif" font-size="11.00">...</text>
<polygon fill="#ffffff" stroke="transparent" points="21.5,-511 21.5,-529 175.5,-529 175.5,-511 21.5,-511"/>
<polygon fill="none" stroke="black" points="21.5,-511 21.5,-529 175.5,-529 175.5,-511 21.5,-511"/>
<text text-anchor="start" x="24.5" y="-517.2" font-family="Helvetica,sans-Serif" font-size="11.00"> &#160;</text>
<polygon fill="#ffffff" stroke="transparent" points="175.5,-511 175.5,-529 285.5,-529 285.5,-511 175.5,-511"/>
<polygon fill="none" stroke="black" points="175.5,-511 175.5,-529 285.5,-529 285.5,-511 175.5,-511"/>
<text text-anchor="start" x="248.5" y="-517.2" font-family="Helvetica,sans-Serif" font-size="11.00">0 rows</text>
<polygon fill="#ffffff" stroke="transparent" points="285.5,-511 285.5,-529 378.5,-529 378.5,-511 285.5,-511"/>
<polygon fill="none" stroke="black" points="285.5,-511 285.5,-529 378.5,-529 378.5,-511 285.5,-511"/>
<text text-anchor="start" x="359.5" y="-517.2" font-family="Helvetica,sans-Serif" font-size="11.00">1 &gt;</text>
</a>
</g>
</g>
<!-- bio_ecol_assessment&#45;&gt;tww_vl.bio_ecol_assessment_impact_external_aspect -->
<g id="edge3" class="edge">
<title>bio_ecol_assessment:w&#45;&gt;tww_vl.bio_ecol_assessment_impact_external_aspect:e</title>
<path fill="none" stroke="black" d="M427.02,-458.49C415.9,-468.03 417.83,-490.28 399,-501 394.88,-503.35 390.64,-505.55 386.31,-507.63"/>
<polygon fill="black" stroke="black" points="433.38,-456.45 442.1,-457.43 437.19,-455.22 441,-454 441,-454 441,-454 437.19,-455.22 439.9,-450.57 433.38,-456.45 433.38,-456.45"/>
<ellipse fill="none" stroke="black" cx="430.34" cy="-457.43" rx="3.2" ry="3.2"/>
</g>
<!-- tww_vl.bio_ecol_assessment_impact_macroinvertebrates -->
<g id="node5" class="node">
<title>tww_vl.bio_ecol_assessment_impact_macroinvertebrates</title>
<g id="a_node5"><a xlink:href="../../../tww_vl/tables/bio_ecol_assessment_impact_macr_f0c024dd.html" xlink:title="tww_vl.bio_ecol_assessment_impact_macroinvertebrates" target="_top">
<polygon fill="#ffffff" stroke="transparent" points="8,-432 8,-490 391,-490 391,-432 8,-432"/>
<polygon fill="#f5f5f5" stroke="transparent" points="8.5,-468 8.5,-490 391.5,-490 391.5,-468 8.5,-468"/>
<polygon fill="none" stroke="black" points="8.5,-468 8.5,-490 391.5,-490 391.5,-468 8.5,-468"/>
<text text-anchor="start" x="13.5" y="-477.2" font-family="Helvetica,sans-Serif" font-weight="bold" font-size="11.00">tww_vl.bio_ecol_assessment_impact_macroinvertebrates</text>
<text text-anchor="start" x="352.5" y="-476.2" font-family="Helvetica,sans-Serif" font-size="11.00">[table]</text>
<polygon fill="none" stroke="black" points="8.5,-450 8.5,-468 391.5,-468 391.5,-450 8.5,-450"/>
<text text-anchor="start" x="11.5" y="-456.2" font-family="Helvetica,sans-Serif" font-size="11.00">...</text>
<polygon fill="#ffffff" stroke="transparent" points="8.5,-432 8.5,-450 175.5,-450 175.5,-432 8.5,-432"/>
<polygon fill="none" stroke="black" points="8.5,-432 8.5,-450 175.5,-450 175.5,-432 8.5,-432"/>
<text text-anchor="start" x="11.5" y="-438.2" font-family="Helvetica,sans-Serif" font-size="11.00"> &#160;</text>
<polygon fill="#ffffff" stroke="transparent" points="175.5,-432 175.5,-450 292.5,-450 292.5,-432 175.5,-432"/>
<polygon fill="none" stroke="black" points="175.5,-432 175.5,-450 292.5,-450 292.5,-432 175.5,-432"/>
<text text-anchor="start" x="255.5" y="-438.2" font-family="Helvetica,sans-Serif" font-size="11.00">0 rows</text>
<polygon fill="#ffffff" stroke="transparent" points="292.5,-432 292.5,-450 391.5,-450 391.5,-432 292.5,-432"/>
<polygon fill="none" stroke="black" points="292.5,-432 292.5,-450 391.5,-450 391.5,-432 292.5,-432"/>
<text text-anchor="start" x="372.5" y="-438.2" font-family="Helvetica,sans-Serif" font-size="11.00">1 &gt;</text>
</a>
</g>
</g>
<!-- bio_ecol_assessment&#45;&gt;tww_vl.bio_ecol_assessment_impact_macroinvertebrates -->
<g id="edge4" class="edge">
<title>bio_ecol_assessment:w&#45;&gt;tww_vl.bio_ecol_assessment_impact_macroinvertebrates:e</title>
<path fill="none" stroke="black" d="M426.45,-432.17C417.43,-432.37 408.28,-432.75 399.1,-433.28"/>
<polygon fill="black" stroke="black" points="433,-432.09 441.04,-435.6 437,-432.05 441,-432 441,-432 441,-432 437,-432.05 440.96,-428.4 433,-432.09 433,-432.09"/>
<ellipse fill="none" stroke="black" cx="429.8" cy="-432.13" rx="3.2" ry="3.2"/>
</g>
<!-- tww_vl.bio_ecol_assessment_impact_water_plants -->
<g id="node6" class="node">
<title>tww_vl.bio_ecol_assessment_impact_water_plants</title>
<g id="a_node6"><a xlink:href="../../../tww_vl/tables/bio_ecol_assessment_impact_water_plants.html" xlink:title="tww_vl.bio_ecol_assessment_impact_water_plants" target="_top">
<polygon fill="#ffffff" stroke="transparent" points="29.5,-353 29.5,-411 369.5,-411 369.5,-353 29.5,-353"/>
<polygon fill="#f5f5f5" stroke="transparent" points="29.5,-389 29.5,-411 369.5,-411 369.5,-389 29.5,-389"/>
<polygon fill="none" stroke="black" points="29.5,-389 29.5,-411 369.5,-411 369.5,-389 29.5,-389"/>
<text text-anchor="start" x="34.5" y="-398.2" font-family="Helvetica,sans-Serif" font-weight="bold" font-size="11.00">tww_vl.bio_ecol_assessment_impact_water_plants</text>
<text text-anchor="start" x="330.5" y="-397.2" font-family="Helvetica,sans-Serif" font-size="11.00">[table]</text>
<polygon fill="none" stroke="black" points="29.5,-371 29.5,-389 369.5,-389 369.5,-371 29.5,-371"/>
<text text-anchor="start" x="32.5" y="-377.2" font-family="Helvetica,sans-Serif" font-size="11.00">...</text>
<polygon fill="#ffffff" stroke="transparent" points="29.5,-353 29.5,-371 174.5,-371 174.5,-353 29.5,-353"/>
<polygon fill="none" stroke="black" points="29.5,-353 29.5,-371 174.5,-371 174.5,-353 29.5,-353"/>
<text text-anchor="start" x="32.5" y="-359.2" font-family="Helvetica,sans-Serif" font-size="11.00"> &#160;</text>
<polygon fill="#ffffff" stroke="transparent" points="174.5,-353 174.5,-371 280.5,-371 280.5,-353 174.5,-353"/>
<polygon fill="none" stroke="black" points="174.5,-353 174.5,-371 280.5,-371 280.5,-353 174.5,-353"/>
<text text-anchor="start" x="243.5" y="-359.2" font-family="Helvetica,sans-Serif" font-size="11.00">0 rows</text>
<polygon fill="#ffffff" stroke="transparent" points="280.5,-353 280.5,-371 369.5,-371 369.5,-353 280.5,-353"/>
<polygon fill="none" stroke="black" points="280.5,-353 280.5,-371 369.5,-371 369.5,-353 280.5,-353"/>
<text text-anchor="start" x="350.5" y="-359.2" font-family="Helvetica,sans-Serif" font-size="11.00">1 &gt;</text>
</a>
</g>
</g>
<!-- bio_ecol_assessment&#45;&gt;tww_vl.bio_ecol_assessment_impact_water_plants -->
<g id="edge5" class="edge">
<title>bio_ecol_assessment:w&#45;&gt;tww_vl.bio_ecol_assessment_impact_water_plants:e</title>
<path fill="none" stroke="black" d="M426.38,-409.84C410.32,-409.48 393.88,-408.59 377.54,-407.32"/>
<polygon fill="black" stroke="black" points="433,-409.91 440.96,-413.6 437,-409.96 441,-410 441,-410 441,-410 437,-409.96 441.04,-406.4 433,-409.91 433,-409.91"/>
<ellipse fill="none" stroke="black" cx="429.8" cy="-409.87" rx="3.2" ry="3.2"/>
</g>
<!-- tww_vl.bio_ecol_assessment_intervention_demand -->
<g id="node7" class="node">
<title>tww_vl.bio_ecol_assessment_intervention_demand</title>
<g id="a_node7"><a xlink:href="../../../tww_vl/tables/bio_ecol_assessment_intervention_demand.html" xlink:title="tww_vl.bio_ecol_assessment_intervention_demand" target="_top">
<polygon fill="#ffffff" stroke="transparent" points="26.5,-274 26.5,-332 372.5,-332 372.5,-274 26.5,-274"/>
<polygon fill="#f5f5f5" stroke="transparent" points="26.5,-310 26.5,-332 372.5,-332 372.5,-310 26.5,-310"/>
<polygon fill="none" stroke="black" points="26.5,-310 26.5,-332 372.5,-332 372.5,-310 26.5,-310"/>
<text text-anchor="start" x="31.5" y="-319.2" font-family="Helvetica,sans-Serif" font-weight="bold" font-size="11.00">tww_vl.bio_ecol_assessment_intervention_demand</text>
<text text-anchor="start" x="333.5" y="-318.2" font-family="Helvetica,sans-Serif" font-size="11.00">[table]</text>
<polygon fill="none" stroke="black" points="26.5,-292 26.5,-310 372.5,-310 372.5,-292 26.5,-292"/>
<text text-anchor="start" x="29.5" y="-298.2" font-family="Helvetica,sans-Serif" font-size="11.00">...</text>
<polygon fill="#ffffff" stroke="transparent" points="26.5,-274 26.5,-292 174.5,-292 174.5,-274 26.5,-274"/>
<polygon fill="none" stroke="black" points="26.5,-274 26.5,-292 174.5,-292 174.5,-274 26.5,-274"/>
<text text-anchor="start" x="29.5" y="-280.2" font-family="Helvetica,sans-Serif" font-size="11.00"> &#160;</text>
<polygon fill="#ffffff" stroke="transparent" points="174.5,-274 174.5,-292 282.5,-292 282.5,-274 174.5,-274"/>
<polygon fill="none" stroke="black" points="174.5,-274 174.5,-292 282.5,-292 282.5,-274 174.5,-274"/>
<text text-anchor="start" x="245.5" y="-280.2" font-family="Helvetica,sans-Serif" font-size="11.00">0 rows</text>
<polygon fill="#ffffff" stroke="transparent" points="282.5,-274 282.5,-292 372.5,-292 372.5,-274 282.5,-274"/>
<polygon fill="none" stroke="black" points="282.5,-274 282.5,-292 372.5,-292 372.5,-274 282.5,-274"/>
<text text-anchor="start" x="353.5" y="-280.2" font-family="Helvetica,sans-Serif" font-size="11.00">1 &gt;</text>
</a>
</g>
</g>
<!-- bio_ecol_assessment&#45;&gt;tww_vl.bio_ecol_assessment_intervention_demand -->
<g id="edge6" class="edge">
<title>bio_ecol_assessment:w&#45;&gt;tww_vl.bio_ecol_assessment_intervention_demand:e</title>
<path fill="none" stroke="black" d="M427.23,-383.71C416.13,-374.59 417.47,-353.32 399,-343 393.17,-339.74 387.11,-336.75 380.89,-334"/>
<polygon fill="black" stroke="black" points="433.36,-385.62 439.93,-391.44 437.18,-386.81 441,-388 441,-388 441,-388 437.18,-386.81 442.07,-384.56 433.36,-385.62 433.36,-385.62"/>
<ellipse fill="none" stroke="black" cx="430.31" cy="-384.67" rx="3.2" ry="3.2"/>
</g>
<!-- tww_vl.bio_ecol_assessment_io_calculation -->
<g id="node8" class="node">
<title>tww_vl.bio_ecol_assessment_io_calculation</title>
<g id="a_node8"><a xlink:href="../../../tww_vl/tables/bio_ecol_assessment_io_calculation.html" xlink:title="tww_vl.bio_ecol_assessment_io_calculation" target="_top">
<polygon fill="#ffffff" stroke="transparent" points="50.5,-195 50.5,-253 348.5,-253 348.5,-195 50.5,-195"/>
<polygon fill="#f5f5f5" stroke="transparent" points="50.5,-231 50.5,-253 348.5,-253 348.5,-231 50.5,-231"/>
<polygon fill="none" stroke="black" points="50.5,-231 50.5,-253 348.5,-253 348.5,-231 50.5,-231"/>
<text text-anchor="start" x="55.5" y="-240.2" font-family="Helvetica,sans-Serif" font-weight="bold" font-size="11.00">tww_vl.bio_ecol_assessment_io_calculation</text>
<text text-anchor="start" x="309.5" y="-239.2" font-family="Helvetica,sans-Serif" font-size="11.00">[table]</text>
<polygon fill="none" stroke="black" points="50.5,-213 50.5,-231 348.5,-231 348.5,-213 50.5,-213"/>
<text text-anchor="start" x="53.5" y="-219.2" font-family="Helvetica,sans-Serif" font-size="11.00">...</text>
<polygon fill="#ffffff" stroke="transparent" points="50.5,-195 50.5,-213 174.5,-213 174.5,-195 50.5,-195"/>
<polygon fill="none" stroke="black" points="50.5,-195 50.5,-213 174.5,-213 174.5,-195 50.5,-195"/>
<text text-anchor="start" x="53.5" y="-201.2" font-family="Helvetica,sans-Serif" font-size="11.00"> &#160;</text>
<polygon fill="#ffffff" stroke="transparent" points="174.5,-195 174.5,-213 270.5,-213 270.5,-195 174.5,-195"/>
<polygon fill="none" stroke="black" points="174.5,-195 174.5,-213 270.5,-213 270.5,-195 174.5,-195"/>
<text text-anchor="start" x="233.5" y="-201.2" font-family="Helvetica,sans-Serif" font-size="11.00">0 rows</text>
<polygon fill="#ffffff" stroke="transparent" points="270.5,-195 270.5,-213 348.5,-213 348.5,-195 270.5,-195"/>
<polygon fill="none" stroke="black" points="270.5,-195 270.5,-213 348.5,-213 348.5,-195 270.5,-195"/>
<text text-anchor="start" x="329.5" y="-201.2" font-family="Helvetica,sans-Serif" font-size="11.00">1 &gt;</text>
</a>
</g>
</g>
<!-- bio_ecol_assessment&#45;&gt;tww_vl.bio_ecol_assessment_io_calculation -->
<g id="edge7" class="edge">
<title>bio_ecol_assessment:w&#45;&gt;tww_vl.bio_ecol_assessment_io_calculation:e</title>
<path fill="none" stroke="black" d="M426.67,-362.9C401.9,-348.92 432.1,-291.29 399,-264 386.52,-253.71 372.12,-245.83 356.89,-239.82"/>
<polygon fill="black" stroke="black" points="433.18,-364.31 440.24,-369.52 437.09,-365.15 441,-366 441,-366 441,-366 437.09,-365.15 441.76,-362.48 433.18,-364.31 433.18,-364.31"/>
<ellipse fill="none" stroke="black" cx="430.05" cy="-363.63" rx="3.2" ry="3.2"/>
</g>
<!-- maintenance_event -->
<g id="node9" class="node">
<title>maintenance_event</title>
<g id="a_node9"><a xlink:href="../../tables/maintenance_event.html" xlink:title="maintenance_event" target="_top">
<polygon fill="#ffffff" stroke="transparent" points="118.5,-748 118.5,-960 280.5,-960 280.5,-748 118.5,-748"/>
<polygon fill="#f5f5f5" stroke="transparent" points="118.5,-938 118.5,-960 280.5,-960 280.5,-938 118.5,-938"/>
<polygon fill="none" stroke="black" points="118.5,-938 118.5,-960 280.5,-960 280.5,-938 118.5,-938"/>
<text text-anchor="start" x="123.5" y="-947.2" font-family="Helvetica,sans-Serif" font-weight="bold" font-size="11.00">maintenance_event</text>
<text text-anchor="start" x="241.5" y="-946.2" font-family="Helvetica,sans-Serif" font-size="11.00">[table]</text>
<polygon fill="none" stroke="black" points="118.5,-916 118.5,-938 280.5,-938 280.5,-916 118.5,-916"/>
<image xlink:href="../../images/primaryKeys.png" width="11px" height="12px" preserveAspectRatio="xMinYMin meet" x="123.5" y="-933"/>
<text text-anchor="start" x="141.5" y="-924.2" font-family="Helvetica,sans-Serif" font-size="11.00">obj_id</text>
<polygon fill="#ffffff" stroke="transparent" points="118.5,-894 118.5,-916 280.5,-916 280.5,-894 118.5,-894"/>
<polygon fill="none" stroke="black" points="118.5,-894 118.5,-916 280.5,-916 280.5,-894 118.5,-894"/>
<text text-anchor="start" x="141.5" y="-902.2" font-family="Helvetica,sans-Serif" font-size="11.00">identifier</text>
<polygon fill="none" stroke="black" points="118.5,-872 118.5,-894 280.5,-894 280.5,-872 118.5,-872"/>
<image xlink:href="../../images/foreignKeys.png" width="11px" height="12px" preserveAspectRatio="xMinYMin meet" x="123.5" y="-889"/>
<text text-anchor="start" x="141.5" y="-880.2" font-family="Helvetica,sans-Serif" font-size="11.00">status</text>
<polygon fill="#ffffff" stroke="transparent" points="118.5,-850 118.5,-872 280.5,-872 280.5,-850 118.5,-850"/>
<polygon fill="none" stroke="black" points="118.5,-850 118.5,-872 280.5,-872 280.5,-850 118.5,-850"/>
<image xlink:href="../../images/foreignKeys.png" width="11px" height="12px" preserveAspectRatio="xMinYMin meet" x="123.5" y="-867"/>
<text text-anchor="start" x="141.5" y="-858.2" font-family="Helvetica,sans-Serif" font-size="11.00">fk_dataowner</text>
<polygon fill="none" stroke="black" points="118.5,-828 118.5,-850 280.5,-850 280.5,-828 118.5,-828"/>
<image xlink:href="../../images/foreignKeys.png" width="11px" height="12px" preserveAspectRatio="xMinYMin meet" x="123.5" y="-845"/>
<text text-anchor="start" x="141.5" y="-836.2" font-family="Helvetica,sans-Serif" font-size="11.00">fk_provider</text>
<polygon fill="none" stroke="black" points="118.5,-806 118.5,-828 280.5,-828 280.5,-806 118.5,-806"/>
<image xlink:href="../../images/foreignKeys.png" width="11px" height="12px" preserveAspectRatio="xMinYMin meet" x="123.5" y="-823"/>
<text text-anchor="start" x="141.5" y="-814.2" font-family="Helvetica,sans-Serif" font-size="11.00">fk_operating_company</text>
<polygon fill="none" stroke="black" points="118.5,-784 118.5,-806 280.5,-806 280.5,-784 118.5,-784"/>
<image xlink:href="../../images/foreignKeys.png" width="11px" height="12px" preserveAspectRatio="xMinYMin meet" x="123.5" y="-801"/>
<text text-anchor="start" x="141.5" y="-792.2" font-family="Helvetica,sans-Serif" font-size="11.00">fk_measure</text>
<polygon fill="none" stroke="black" points="118.5,-766 118.5,-784 280.5,-784 280.5,-766 118.5,-766"/>
<text text-anchor="start" x="121.5" y="-772.2" font-family="Helvetica,sans-Serif" font-size="11.00">...</text>
<polygon fill="#ffffff" stroke="transparent" points="118.5,-748 118.5,-766 192.5,-766 192.5,-748 118.5,-748"/>
<polygon fill="none" stroke="black" points="118.5,-748 118.5,-766 192.5,-766 192.5,-748 118.5,-748"/>
<text text-anchor="start" x="121.5" y="-754.2" font-family="Helvetica,sans-Serif" font-size="11.00">&lt; 5</text>
<polygon fill="#ffffff" stroke="transparent" points="192.5,-748 192.5,-766 231.5,-766 231.5,-748 192.5,-748"/>
<polygon fill="none" stroke="black" points="192.5,-748 192.5,-766 231.5,-766 231.5,-748 192.5,-748"/>
<text text-anchor="start" x="221.5" y="-754.2" font-family="Helvetica,sans-Serif" font-size="11.00"> &#160;</text>
<polygon fill="#ffffff" stroke="transparent" points="231.5,-748 231.5,-766 280.5,-766 280.5,-748 231.5,-748"/>
<polygon fill="none" stroke="black" points="231.5,-748 231.5,-766 280.5,-766 280.5,-748 231.5,-748"/>
<text text-anchor="start" x="261.5" y="-754.2" font-family="Helvetica,sans-Serif" font-size="11.00">4 &gt;</text>
</a>
</g>
</g>
<!-- bio_ecol_assessment&#45;&gt;maintenance_event -->
<g id="edge8" class="edge">
<title>bio_ecol_assessment:w&#45;&gt;maintenance_event:e</title>
<path fill="none" stroke="black" d="M430.87,-545.26C399.49,-567.75 414.24,-700.24 399,-738 361.98,-829.72 380.41,-927 281.5,-927"/>
<polygon fill="black" stroke="black" points="439.01,-538.44 441.46,-546.05 439.94,-546.54 437.49,-538.93 439.01,-538.44"/>
<polyline fill="none" stroke="black" points="441,-542 437.19,-543.22 "/>
<ellipse fill="none" stroke="black" cx="434.15" cy="-544.2" rx="3.2" ry="3.2"/>
</g>
<!-- tww_vl.bio_ecol_assessment_relevance_matrix -->
<g id="node10" class="node">
<title>tww_vl.bio_ecol_assessment_relevance_matrix</title>
<g id="a_node10"><a xlink:href="../../../tww_vl/tables/bio_ecol_assessment_relevance_matrix.html" xlink:title="tww_vl.bio_ecol_assessment_relevance_matrix" target="_top">
<polygon fill="#ffffff" stroke="transparent" points="39.5,-116 39.5,-174 359.5,-174 359.5,-116 39.5,-116"/>
<polygon fill="#f5f5f5" stroke="transparent" points="39.5,-152 39.5,-174 359.5,-174 359.5,-152 39.5,-152"/>
<polygon fill="none" stroke="black" points="39.5,-152 39.5,-174 359.5,-174 359.5,-152 39.5,-152"/>
<text text-anchor="start" x="44.5" y="-161.2" font-family="Helvetica,sans-Serif" font-weight="bold" font-size="11.00">tww_vl.bio_ecol_assessment_relevance_matrix</text>
<text text-anchor="start" x="320.5" y="-160.2" font-family="Helvetica,sans-Serif" font-size="11.00">[table]</text>
<polygon fill="none" stroke="black" points="39.5,-134 39.5,-152 359.5,-152 359.5,-134 39.5,-134"/>
<text text-anchor="start" x="42.5" y="-140.2" font-family="Helvetica,sans-Serif" font-size="11.00">...</text>
<polygon fill="#ffffff" stroke="transparent" points="39.5,-116 39.5,-134 174.5,-134 174.5,-116 39.5,-116"/>
<polygon fill="none" stroke="black" points="39.5,-116 39.5,-134 174.5,-134 174.5,-116 39.5,-116"/>
<text text-anchor="start" x="42.5" y="-122.2" font-family="Helvetica,sans-Serif" font-size="11.00"> &#160;</text>
<polygon fill="#ffffff" stroke="transparent" points="174.5,-116 174.5,-134 275.5,-134 275.5,-116 174.5,-116"/>
<polygon fill="none" stroke="black" points="174.5,-116 174.5,-134 275.5,-134 275.5,-116 174.5,-116"/>
<text text-anchor="start" x="238.5" y="-122.2" font-family="Helvetica,sans-Serif" font-size="11.00">0 rows</text>
<polygon fill="#ffffff" stroke="transparent" points="275.5,-116 275.5,-134 359.5,-134 359.5,-116 275.5,-116"/>
<polygon fill="none" stroke="black" points="275.5,-116 275.5,-134 359.5,-134 359.5,-116 275.5,-116"/>
<text text-anchor="start" x="340.5" y="-122.2" font-family="Helvetica,sans-Serif" font-size="11.00">1 &gt;</text>
</a>
</g>
</g>
<!-- bio_ecol_assessment&#45;&gt;tww_vl.bio_ecol_assessment_relevance_matrix -->
<g id="edge9" class="edge">
<title>bio_ecol_assessment:w&#45;&gt;tww_vl.bio_ecol_assessment_relevance_matrix:e</title>
<path fill="none" stroke="black" d="M426.76,-297.31C397.19,-283.13 435.76,-216.58 399,-185 389.53,-176.87 378.88,-170.22 367.54,-164.81"/>
<polygon fill="black" stroke="black" points="433.14,-298.51 440.33,-303.54 437.07,-299.26 441,-300 441,-300 441,-300 437.07,-299.26 441.67,-296.46 433.14,-298.51 433.14,-298.51"/>
<ellipse fill="none" stroke="black" cx="430" cy="-297.92" rx="3.2" ry="3.2"/>
</g>
<!-- tww_vl.bio_ecol_assessment_type_water_body -->
<g id="node11" class="node">
<title>tww_vl.bio_ecol_assessment_type_water_body</title>
<g id="a_node11"><a xlink:href="../../../tww_vl/tables/bio_ecol_assessment_type_water_body.html" xlink:title="tww_vl.bio_ecol_assessment_type_water_body" target="_top">
<polygon fill="#ffffff" stroke="transparent" points="41,-37 41,-95 358,-95 358,-37 41,-37"/>
<polygon fill="#f5f5f5" stroke="transparent" points="41.5,-73 41.5,-95 358.5,-95 358.5,-73 41.5,-73"/>
<polygon fill="none" stroke="black" points="41.5,-73 41.5,-95 358.5,-95 358.5,-73 41.5,-73"/>
<text text-anchor="start" x="46.5" y="-82.2" font-family="Helvetica,sans-Serif" font-weight="bold" font-size="11.00">tww_vl.bio_ecol_assessment_type_water_body</text>
<text text-anchor="start" x="319.5" y="-81.2" font-family="Helvetica,sans-Serif" font-size="11.00">[table]</text>
<polygon fill="none" stroke="black" points="41.5,-55 41.5,-73 358.5,-73 358.5,-55 41.5,-55"/>
<text text-anchor="start" x="44.5" y="-61.2" font-family="Helvetica,sans-Serif" font-size="11.00">...</text>
<polygon fill="#ffffff" stroke="transparent" points="41.5,-37 41.5,-55 175.5,-55 175.5,-37 41.5,-37"/>
<polygon fill="none" stroke="black" points="41.5,-37 41.5,-55 175.5,-55 175.5,-37 41.5,-37"/>
<text text-anchor="start" x="44.5" y="-43.2" font-family="Helvetica,sans-Serif" font-size="11.00"> &#160;</text>
<polygon fill="#ffffff" stroke="transparent" points="175.5,-37 175.5,-55 275.5,-55 275.5,-37 175.5,-37"/>
<polygon fill="none" stroke="black" points="175.5,-37 175.5,-55 275.5,-55 275.5,-37 175.5,-37"/>
<text text-anchor="start" x="238.5" y="-43.2" font-family="Helvetica,sans-Serif" font-size="11.00">0 rows</text>
<polygon fill="#ffffff" stroke="transparent" points="275.5,-37 275.5,-55 358.5,-55 358.5,-37 275.5,-37"/>
<polygon fill="none" stroke="black" points="275.5,-37 275.5,-55 358.5,-55 358.5,-37 275.5,-37"/>
<text text-anchor="start" x="339.5" y="-43.2" font-family="Helvetica,sans-Serif" font-size="11.00">1 &gt;</text>
</a>
</g>
</g>
<!-- bio_ecol_assessment&#45;&gt;tww_vl.bio_ecol_assessment_type_water_body -->
<g id="edge10" class="edge">
<title>bio_ecol_assessment:w&#45;&gt;tww_vl.bio_ecol_assessment_type_water_body:e</title>
<path fill="none" stroke="black" d="M426.75,-231.6C392.34,-217.23 439.39,-141.88 399,-106 389.28,-97.36 378.22,-90.39 366.41,-84.77"/>
<polygon fill="black" stroke="black" points="433.11,-232.67 440.4,-237.55 437.06,-233.34 441,-234 441,-234 441,-234 437.06,-233.34 441.6,-230.45 433.11,-232.67 433.11,-232.67"/>
<ellipse fill="none" stroke="black" cx="429.96" cy="-232.14" rx="3.2" ry="3.2"/>
</g>
</g>
</svg>
