<?xml version="1.0" encoding="UTF-8" standalone="no"?>
<!DOCTYPE svg PUBLIC "-//W3C//DTD SVG 1.1//EN"
 "http://www.w3.org/Graphics/SVG/1.1/DTD/svg11.dtd">
<!-- Generated by graphviz version 2.47.1 (20210515.0534)
 -->
<!-- Title: oneDegreeRelationshipsDiagram Pages: 1 -->
<svg width="761pt" height="865pt"
 viewBox="0.00 0.00 761.00 865.00" xmlns="http://www.w3.org/2000/svg" xmlns:xlink="http://www.w3.org/1999/xlink">
<g id="graph0" class="graph" transform="scale(1 1) rotate(0) translate(4 861)">
<title>oneDegreeRelationshipsDiagram</title>
<polygon fill="#ffffff" stroke="transparent" points="-4,4 -4,-861 757,-861 757,4 -4,4"/>
<text text-anchor="middle" x="73.5" y="-7.2" font-family="Helvetica,sans-Serif" font-size="11.00">Generated by SchemaSpy</text>
<!-- catchment_area_totals -->
<g id="node1" class="node">
<title>catchment_area_totals</title>
<g id="a_node1"><a xlink:href="../../tables/catchment_area_totals.html" xlink:title="catchment_area_totals" target="_top">
<polygon fill="#ffffff" stroke="transparent" points="458,-391 458,-853 745,-853 745,-391 458,-391"/>
<polygon fill="#f5f5f5" stroke="transparent" points="460.5,-829 460.5,-851 743.5,-851 743.5,-829 460.5,-829"/>
<polygon fill="none" stroke="black" points="460.5,-829 460.5,-851 743.5,-851 743.5,-829 460.5,-829"/>
<text text-anchor="start" x="465.5" y="-838.2" font-family="Helvetica,sans-Serif" font-weight="bold" font-size="11.00">catchment_area_totals</text>
<text text-anchor="start" x="704.5" y="-837.2" font-family="Helvetica,sans-Serif" font-size="11.00">[table]</text>
<polygon fill="none" stroke="black" points="460.5,-807 460.5,-829 649.5,-829 649.5,-807 460.5,-807"/>
<image xlink:href="../../images/primaryKeys.png" width="11px" height="12px" preserveAspectRatio="xMinYMin meet" x="465.5" y="-824"/>
<text text-anchor="start" x="480.5" y="-815.2" font-family="Helvetica,sans-Serif" font-size="11.00">obj_id</text>
<polygon fill="none" stroke="black" points="649.5,-807 649.5,-829 743.5,-829 743.5,-807 649.5,-807"/>
<text text-anchor="start" x="652.5" y="-815.2" font-family="Helvetica,sans-Serif" font-size="11.00">varchar[16]</text>
<polygon fill="none" stroke="black" points="460.5,-785 460.5,-807 649.5,-807 649.5,-785 460.5,-785"/>
<text text-anchor="start" x="480.5" y="-793.2" font-family="Helvetica,sans-Serif" font-size="11.00">discharge_freight_nh4_n</text>
<polygon fill="none" stroke="black" points="649.5,-785 649.5,-807 743.5,-807 743.5,-785 649.5,-785"/>
<text text-anchor="start" x="652.5" y="-793.2" font-family="Helvetica,sans-Serif" font-size="11.00">int4[10]</text>
<polygon fill="none" stroke="black" points="460.5,-763 460.5,-785 649.5,-785 649.5,-763 460.5,-763"/>
<text text-anchor="start" x="480.5" y="-771.2" font-family="Helvetica,sans-Serif" font-size="11.00">discharge_proportion_nh4_n</text>
<polygon fill="none" stroke="black" points="649.5,-763 649.5,-785 743.5,-785 743.5,-763 649.5,-763"/>
<text text-anchor="start" x="652.5" y="-771.2" font-family="Helvetica,sans-Serif" font-size="11.00">numeric[5,2]</text>
<polygon fill="#ffffff" stroke="transparent" points="460.5,-741 460.5,-763 649.5,-763 649.5,-741 460.5,-741"/>
<polygon fill="none" stroke="black" points="460.5,-741 460.5,-763 649.5,-763 649.5,-741 460.5,-741"/>
<text text-anchor="start" x="480.5" y="-749.2" font-family="Helvetica,sans-Serif" font-size="11.00">identifier</text>
<polygon fill="none" stroke="black" points="649.5,-741 649.5,-763 743.5,-763 743.5,-741 649.5,-741"/>
<text text-anchor="start" x="652.5" y="-749.2" font-family="Helvetica,sans-Serif" font-size="11.00">text[2147483647]</text>
<polygon fill="none" stroke="black" points="460.5,-719 460.5,-741 649.5,-741 649.5,-719 460.5,-719"/>
<text text-anchor="start" x="480.5" y="-727.2" font-family="Helvetica,sans-Serif" font-size="11.00">population</text>
<polygon fill="none" stroke="black" points="649.5,-719 649.5,-741 743.5,-741 743.5,-719 649.5,-719"/>
<text text-anchor="start" x="652.5" y="-727.2" font-family="Helvetica,sans-Serif" font-size="11.00">int4[10]</text>
<polygon fill="none" stroke="black" points="460.5,-697 460.5,-719 649.5,-719 649.5,-697 460.5,-697"/>
<text text-anchor="start" x="480.5" y="-705.2" font-family="Helvetica,sans-Serif" font-size="11.00">population_dim</text>
<polygon fill="none" stroke="black" points="649.5,-697 649.5,-719 743.5,-719 743.5,-697 649.5,-697"/>
<text text-anchor="start" x="652.5" y="-705.2" font-family="Helvetica,sans-Serif" font-size="11.00">int4[10]</text>
<polygon fill="none" stroke="black" points="460.5,-675 460.5,-697 649.5,-697 649.5,-675 460.5,-675"/>
<text text-anchor="start" x="480.5" y="-683.2" font-family="Helvetica,sans-Serif" font-size="11.00">sewer_infiltration_water</text>
<polygon fill="none" stroke="black" points="649.5,-675 649.5,-697 743.5,-697 743.5,-675 649.5,-675"/>
<text text-anchor="start" x="652.5" y="-683.2" font-family="Helvetica,sans-Serif" font-size="11.00">numeric[9,3]</text>
<polygon fill="none" stroke="black" points="460.5,-653 460.5,-675 649.5,-675 649.5,-653 460.5,-653"/>
<text text-anchor="start" x="480.5" y="-661.2" font-family="Helvetica,sans-Serif" font-size="11.00">surface_area</text>
<polygon fill="none" stroke="black" points="649.5,-653 649.5,-675 743.5,-675 743.5,-653 649.5,-653"/>
<text text-anchor="start" x="652.5" y="-661.2" font-family="Helvetica,sans-Serif" font-size="11.00">numeric[10,4]</text>
<polygon fill="none" stroke="black" points="460.5,-631 460.5,-653 649.5,-653 649.5,-631 460.5,-631"/>
<text text-anchor="start" x="480.5" y="-639.2" font-family="Helvetica,sans-Serif" font-size="11.00">surface_dim</text>
<polygon fill="none" stroke="black" points="649.5,-631 649.5,-653 743.5,-653 743.5,-631 649.5,-631"/>
<text text-anchor="start" x="652.5" y="-639.2" font-family="Helvetica,sans-Serif" font-size="11.00">numeric[10,4]</text>
<polygon fill="none" stroke="black" points="460.5,-609 460.5,-631 649.5,-631 649.5,-609 460.5,-609"/>
<text text-anchor="start" x="480.5" y="-617.2" font-family="Helvetica,sans-Serif" font-size="11.00">surface_imp</text>
<polygon fill="none" stroke="black" points="649.5,-609 649.5,-631 743.5,-631 743.5,-609 649.5,-609"/>
<text text-anchor="start" x="652.5" y="-617.2" font-family="Helvetica,sans-Serif" font-size="11.00">numeric[10,4]</text>
<polygon fill="none" stroke="black" points="460.5,-587 460.5,-609 649.5,-609 649.5,-587 460.5,-587"/>
<text text-anchor="start" x="480.5" y="-595.2" font-family="Helvetica,sans-Serif" font-size="11.00">surface_imp_dim</text>
<polygon fill="none" stroke="black" points="649.5,-587 649.5,-609 743.5,-609 743.5,-587 649.5,-587"/>
<text text-anchor="start" x="652.5" y="-595.2" font-family="Helvetica,sans-Serif" font-size="11.00">numeric[10,4]</text>
<polygon fill="none" stroke="black" points="460.5,-565 460.5,-587 649.5,-587 649.5,-565 460.5,-565"/>
<text text-anchor="start" x="480.5" y="-573.2" font-family="Helvetica,sans-Serif" font-size="11.00">surface_red</text>
<polygon fill="none" stroke="black" points="649.5,-565 649.5,-587 743.5,-587 743.5,-565 649.5,-565"/>
<text text-anchor="start" x="652.5" y="-573.2" font-family="Helvetica,sans-Serif" font-size="11.00">numeric[10,4]</text>
<polygon fill="none" stroke="black" points="460.5,-543 460.5,-565 649.5,-565 649.5,-543 460.5,-543"/>
<text text-anchor="start" x="480.5" y="-551.2" font-family="Helvetica,sans-Serif" font-size="11.00">surface_red_dim</text>
<polygon fill="none" stroke="black" points="649.5,-543 649.5,-565 743.5,-565 743.5,-543 649.5,-543"/>
<text text-anchor="start" x="652.5" y="-551.2" font-family="Helvetica,sans-Serif" font-size="11.00">numeric[10,4]</text>
<polygon fill="none" stroke="black" points="460.5,-521 460.5,-543 649.5,-543 649.5,-521 460.5,-521"/>
<text text-anchor="start" x="480.5" y="-529.2" font-family="Helvetica,sans-Serif" font-size="11.00">waste_water_production</text>
<polygon fill="none" stroke="black" points="649.5,-521 649.5,-543 743.5,-543 743.5,-521 649.5,-521"/>
<text text-anchor="start" x="652.5" y="-529.2" font-family="Helvetica,sans-Serif" font-size="11.00">numeric[9,3]</text>
<polygon fill="none" stroke="black" points="460.5,-499 460.5,-521 649.5,-521 649.5,-499 460.5,-499"/>
<text text-anchor="start" x="480.5" y="-507.2" font-family="Helvetica,sans-Serif" font-size="11.00">last_modification</text>
<polygon fill="none" stroke="black" points="649.5,-499 649.5,-521 743.5,-521 743.5,-499 649.5,-499"/>
<text text-anchor="start" x="652.5" y="-507.2" font-family="Helvetica,sans-Serif" font-size="11.00">timestamp[29,6]</text>
<polygon fill="#ffffff" stroke="transparent" points="460.5,-477 460.5,-499 649.5,-499 649.5,-477 460.5,-477"/>
<polygon fill="none" stroke="black" points="460.5,-477 460.5,-499 649.5,-499 649.5,-477 460.5,-477"/>
<image xlink:href="../../images/foreignKeys.png" width="11px" height="12px" preserveAspectRatio="xMinYMin meet" x="465.5" y="-494"/>
<text text-anchor="start" x="480.5" y="-485.2" font-family="Helvetica,sans-Serif" font-size="11.00">fk_dataowner</text>
<polygon fill="none" stroke="black" points="649.5,-477 649.5,-499 743.5,-499 743.5,-477 649.5,-477"/>
<text text-anchor="start" x="652.5" y="-485.2" font-family="Helvetica,sans-Serif" font-size="11.00">varchar[16]</text>
<polygon fill="none" stroke="black" points="460.5,-455 460.5,-477 649.5,-477 649.5,-455 460.5,-455"/>
<image xlink:href="../../images/foreignKeys.png" width="11px" height="12px" preserveAspectRatio="xMinYMin meet" x="465.5" y="-472"/>
<text text-anchor="start" x="480.5" y="-463.2" font-family="Helvetica,sans-Serif" font-size="11.00">fk_provider</text>
<polygon fill="none" stroke="black" points="649.5,-455 649.5,-477 743.5,-477 743.5,-455 649.5,-455"/>
<text text-anchor="start" x="652.5" y="-463.2" font-family="Helvetica,sans-Serif" font-size="11.00">varchar[16]</text>
<polygon fill="none" stroke="black" points="460.5,-433 460.5,-455 649.5,-455 649.5,-433 460.5,-433"/>
<image xlink:href="../../images/foreignKeys.png" width="11px" height="12px" preserveAspectRatio="xMinYMin meet" x="465.5" y="-450"/>
<text text-anchor="start" x="480.5" y="-441.2" font-family="Helvetica,sans-Serif" font-size="11.00">fk_discharge_point</text>
<polygon fill="none" stroke="black" points="649.5,-433 649.5,-455 743.5,-455 743.5,-433 649.5,-433"/>
<text text-anchor="start" x="652.5" y="-441.2" font-family="Helvetica,sans-Serif" font-size="11.00">varchar[16]</text>
<polygon fill="none" stroke="black" points="460.5,-411 460.5,-433 649.5,-433 649.5,-411 460.5,-411"/>
<image xlink:href="../../images/foreignKeys.png" width="11px" height="12px" preserveAspectRatio="xMinYMin meet" x="465.5" y="-428"/>
<text text-anchor="start" x="480.5" y="-419.2" font-family="Helvetica,sans-Serif" font-size="11.00">fk_hydraulic_char_data</text>
<polygon fill="none" stroke="black" points="649.5,-411 649.5,-433 743.5,-433 743.5,-411 649.5,-411"/>
<text text-anchor="start" x="652.5" y="-419.2" font-family="Helvetica,sans-Serif" font-size="11.00">varchar[16]</text>
<polygon fill="#ffffff" stroke="transparent" points="460.5,-393 460.5,-411 559.5,-411 559.5,-393 460.5,-393"/>
<polygon fill="none" stroke="black" points="460.5,-393 460.5,-411 559.5,-411 559.5,-393 460.5,-393"/>
<text text-anchor="start" x="463.5" y="-399.2" font-family="Helvetica,sans-Serif" font-size="11.00">&lt; 4</text>
<polygon fill="#ffffff" stroke="transparent" points="559.5,-393 559.5,-411 649.5,-411 649.5,-393 559.5,-393"/>
<polygon fill="none" stroke="black" points="559.5,-393 559.5,-411 649.5,-411 649.5,-393 559.5,-393"/>
<text text-anchor="start" x="639.5" y="-399.2" font-family="Helvetica,sans-Serif" font-size="11.00"> &#160;</text>
<polygon fill="#ffffff" stroke="transparent" points="649.5,-393 649.5,-411 743.5,-411 743.5,-393 649.5,-393"/>
<polygon fill="none" stroke="black" points="649.5,-393 649.5,-411 743.5,-411 743.5,-393 649.5,-393"/>
<text text-anchor="start" x="724.5" y="-399.2" font-family="Helvetica,sans-Serif" font-size="11.00">0 &gt;</text>
<polygon fill="none" stroke="black" stroke-width="2" points="459,-392 459,-852 744,-852 744,-392 459,-392"/>
</a>
</g>
</g>
<!-- organisation -->
<g id="node2" class="node">
<title>organisation</title>
<g id="a_node2"><a xlink:href="../../tables/organisation.html" xlink:title="organisation" target="_top">
<polygon fill="#ffffff" stroke="transparent" points="8,-171 8,-361 156,-361 156,-171 8,-171"/>
<polygon fill="#f5f5f5" stroke="transparent" points="8,-339 8,-361 156,-361 156,-339 8,-339"/>
<polygon fill="none" stroke="black" points="8,-339 8,-361 156,-361 156,-339 8,-339"/>
<text text-anchor="start" x="13" y="-348.2" font-family="Helvetica,sans-Serif" font-weight="bold" font-size="11.00">organisation</text>
<text text-anchor="start" x="117" y="-347.2" font-family="Helvetica,sans-Serif" font-size="11.00">[table]</text>
<polygon fill="none" stroke="black" points="8,-317 8,-339 156,-339 156,-317 8,-317"/>
<image xlink:href="../../images/primaryKeys.png" width="11px" height="12px" preserveAspectRatio="xMinYMin meet" x="13" y="-334"/>
<text text-anchor="start" x="28" y="-325.2" font-family="Helvetica,sans-Serif" font-size="11.00">obj_id</text>
<polygon fill="#ffffff" stroke="transparent" points="8,-295 8,-317 156,-317 156,-295 8,-295"/>
<polygon fill="none" stroke="black" points="8,-295 8,-317 156,-317 156,-295 8,-295"/>
<text text-anchor="start" x="28" y="-303.2" font-family="Helvetica,sans-Serif" font-size="11.00">identifier</text>
<polygon fill="none" stroke="black" points="8,-273 8,-295 156,-295 156,-273 8,-273"/>
<image xlink:href="../../images/foreignKeys.png" width="11px" height="12px" preserveAspectRatio="xMinYMin meet" x="13" y="-290"/>
<text text-anchor="start" x="28" y="-281.2" font-family="Helvetica,sans-Serif" font-size="11.00">organisation_type</text>
<polygon fill="none" stroke="black" points="8,-251 8,-273 156,-273 156,-251 8,-251"/>
<image xlink:href="../../images/foreignKeys.png" width="11px" height="12px" preserveAspectRatio="xMinYMin meet" x="13" y="-268"/>
<text text-anchor="start" x="28" y="-259.2" font-family="Helvetica,sans-Serif" font-size="11.00">status</text>
<polygon fill="#ffffff" stroke="transparent" points="8,-229 8,-251 156,-251 156,-229 8,-229"/>
<polygon fill="none" stroke="black" points="8,-229 8,-251 156,-251 156,-229 8,-229"/>
<image xlink:href="../../images/foreignKeys.png" width="11px" height="12px" preserveAspectRatio="xMinYMin meet" x="13" y="-246"/>
<text text-anchor="start" x="28" y="-237.2" font-family="Helvetica,sans-Serif" font-size="11.00">fk_dataowner</text>
<polygon fill="none" stroke="black" points="8,-207 8,-229 156,-229 156,-207 8,-207"/>
<image xlink:href="../../images/foreignKeys.png" width="11px" height="12px" preserveAspectRatio="xMinYMin meet" x="13" y="-224"/>
<text text-anchor="start" x="28" y="-215.2" font-family="Helvetica,sans-Serif" font-size="11.00">fk_provider</text>
<polygon fill="none" stroke="black" points="8,-189 8,-207 156,-207 156,-189 8,-189"/>
<text text-anchor="start" x="11" y="-195.2" font-family="Helvetica,sans-Serif" font-size="11.00">...</text>
<polygon fill="#ffffff" stroke="transparent" points="8,-171 8,-189 72,-189 72,-171 8,-171"/>
<polygon fill="none" stroke="black" points="8,-171 8,-189 72,-189 72,-171 8,-171"/>
<text text-anchor="start" x="11" y="-177.2" font-family="Helvetica,sans-Serif" font-size="11.00">&lt; 4</text>
<polygon fill="#ffffff" stroke="transparent" points="72,-171 72,-189 106,-189 106,-171 72,-171"/>
<polygon fill="none" stroke="black" points="72,-171 72,-189 106,-189 106,-171 72,-171"/>
<text text-anchor="start" x="96" y="-177.2" font-family="Helvetica,sans-Serif" font-size="11.00"> &#160;</text>
<polygon fill="#ffffff" stroke="transparent" points="106,-171 106,-189 156,-189 156,-171 106,-171"/>
<polygon fill="none" stroke="black" points="106,-171 106,-189 156,-189 156,-171 106,-171"/>
<text text-anchor="start" x="131" y="-177.2" font-family="Helvetica,sans-Serif" font-size="11.00">98 &gt;</text>
</a>
</g>
</g>
<!-- catchment_area_totals&#45;&gt;organisation -->
<g id="edge1" class="edge">
<title>catchment_area_totals:w&#45;&gt;organisation:e</title>
<path fill="none" stroke="black" d="M445.02,-489.12C436.25,-490.59 430.08,-493.08 417,-494 319.46,-500.85 273.81,-554.5 197,-494 137.38,-447.04 232.89,-328 157,-328"/>
<polygon fill="black" stroke="black" points="451.52,-488.62 459.78,-491.59 455.51,-488.31 459.5,-488 459.5,-488 459.5,-488 455.51,-488.31 459.22,-484.41 451.52,-488.62 451.52,-488.62"/>
<ellipse fill="none" stroke="black" cx="448.33" cy="-488.87" rx="3.2" ry="3.2"/>
</g>
<!-- catchment_area_totals&#45;&gt;organisation -->
<g id="edge4" class="edge">
<title>catchment_area_totals:w&#45;&gt;organisation:e</title>
<path fill="none" stroke="black" d="M445.04,-466.94C436.26,-468.16 430.05,-470.23 417,-471 368.19,-473.86 235.95,-500.55 197,-471 144.42,-431.11 223,-328 157,-328"/>
<polygon fill="black" stroke="black" points="451.52,-466.52 459.73,-469.59 455.51,-466.26 459.5,-466 459.5,-466 459.5,-466 455.51,-466.26 459.27,-462.41 451.52,-466.52 451.52,-466.52"/>
<ellipse fill="none" stroke="black" cx="448.32" cy="-466.72" rx="3.2" ry="3.2"/>
</g>
<!-- discharge_point -->
<g id="node3" class="node">
<title>discharge_point</title>
<g id="a_node3"><a xlink:href="../../tables/discharge_point.html" xlink:title="discharge_point" target="_top">
<polygon fill="#ffffff" stroke="transparent" points="205,-358 205,-460 409,-460 409,-358 205,-358"/>
<polygon fill="#f5f5f5" stroke="transparent" points="205,-438 205,-460 409,-460 409,-438 205,-438"/>
<polygon fill="none" stroke="black" points="205,-438 205,-460 409,-460 409,-438 205,-438"/>
<text text-anchor="start" x="210" y="-447.2" font-family="Helvetica,sans-Serif" font-weight="bold" font-size="11.00">discharge_point</text>
<text text-anchor="start" x="370" y="-446.2" font-family="Helvetica,sans-Serif" font-size="11.00">[table]</text>
<polygon fill="none" stroke="black" points="205,-416 205,-438 409,-438 409,-416 205,-416"/>
<image xlink:href="../../images/primaryKeys.png" width="11px" height="12px" preserveAspectRatio="xMinYMin meet" x="210" y="-433"/>
<text text-anchor="start" x="225" y="-424.2" font-family="Helvetica,sans-Serif" font-size="11.00">obj_id</text>
<polygon fill="none" stroke="black" points="205,-394 205,-416 409,-416 409,-394 205,-394"/>
<image xlink:href="../../images/foreignKeys.png" width="11px" height="12px" preserveAspectRatio="xMinYMin meet" x="210" y="-411"/>
<text text-anchor="start" x="225" y="-402.2" font-family="Helvetica,sans-Serif" font-size="11.00">relevance</text>
<polygon fill="none" stroke="black" points="205,-376 205,-394 409,-394 409,-376 205,-376"/>
<text text-anchor="start" x="208" y="-382.2" font-family="Helvetica,sans-Serif" font-size="11.00">...</text>
<polygon fill="#ffffff" stroke="transparent" points="205,-358 205,-376 300,-376 300,-358 205,-358"/>
<polygon fill="none" stroke="black" points="205,-358 205,-376 300,-376 300,-358 205,-358"/>
<text text-anchor="start" x="208" y="-364.2" font-family="Helvetica,sans-Serif" font-size="11.00">&lt; 2</text>
<polygon fill="#ffffff" stroke="transparent" points="300,-358 300,-376 350,-376 350,-358 300,-358"/>
<polygon fill="none" stroke="black" points="300,-358 300,-376 350,-376 350,-358 300,-358"/>
<text text-anchor="start" x="340" y="-364.2" font-family="Helvetica,sans-Serif" font-size="11.00"> &#160;</text>
<polygon fill="#ffffff" stroke="transparent" points="350,-358 350,-376 409,-376 409,-358 350,-358"/>
<polygon fill="none" stroke="black" points="350,-358 350,-376 409,-376 409,-358 350,-358"/>
<text text-anchor="start" x="390" y="-364.2" font-family="Helvetica,sans-Serif" font-size="11.00">2 &gt;</text>
</a>
</g>
</g>
<!-- catchment_area_totals&#45;&gt;discharge_point -->
<g id="edge2" class="edge">
<title>catchment_area_totals:w&#45;&gt;discharge_point:e</title>
<path fill="none" stroke="black" d="M445.22,-441.34C433.48,-436.56 427.45,-427 410,-427"/>
<polygon fill="black" stroke="black" points="451.63,-442.54 458.84,-447.54 455.57,-443.27 459.5,-444 459.5,-444 459.5,-444 455.57,-443.27 460.16,-440.46 451.63,-442.54 451.63,-442.54"/>
<ellipse fill="none" stroke="black" cx="448.49" cy="-441.95" rx="3.2" ry="3.2"/>
</g>
<!-- hydraulic_char_data -->
<g id="node4" class="node">
<title>hydraulic_char_data</title>
<g id="a_node4"><a xlink:href="../../tables/hydraulic_char_data.html" xlink:title="hydraulic_char_data" target="_top">
<polygon fill="#ffffff" stroke="transparent" points="219.5,-37 219.5,-337 394.5,-337 394.5,-37 219.5,-37"/>
<polygon fill="#f5f5f5" stroke="transparent" points="220,-315 220,-337 395,-337 395,-315 220,-315"/>
<polygon fill="none" stroke="black" points="220,-315 220,-337 395,-337 395,-315 220,-315"/>
<text text-anchor="start" x="225" y="-324.2" font-family="Helvetica,sans-Serif" font-weight="bold" font-size="11.00">hydraulic_char_data</text>
<text text-anchor="start" x="356" y="-323.2" font-family="Helvetica,sans-Serif" font-size="11.00">[table]</text>
<polygon fill="none" stroke="black" points="220,-293 220,-315 395,-315 395,-293 220,-293"/>
<image xlink:href="../../images/primaryKeys.png" width="11px" height="12px" preserveAspectRatio="xMinYMin meet" x="225" y="-310"/>
<text text-anchor="start" x="240" y="-301.2" font-family="Helvetica,sans-Serif" font-size="11.00">obj_id</text>
<polygon fill="#ffffff" stroke="transparent" points="220,-271 220,-293 395,-293 395,-271 220,-271"/>
<polygon fill="none" stroke="black" points="220,-271 220,-293 395,-293 395,-271 220,-271"/>
<text text-anchor="start" x="240" y="-279.2" font-family="Helvetica,sans-Serif" font-size="11.00">identifier</text>
<polygon fill="none" stroke="black" points="220,-249 220,-271 395,-271 395,-249 220,-249"/>
<image xlink:href="../../images/foreignKeys.png" width="11px" height="12px" preserveAspectRatio="xMinYMin meet" x="225" y="-266"/>
<text text-anchor="start" x="240" y="-257.2" font-family="Helvetica,sans-Serif" font-size="11.00">is_overflowing</text>
<polygon fill="none" stroke="black" points="220,-227 220,-249 395,-249 395,-227 220,-227"/>
<image xlink:href="../../images/foreignKeys.png" width="11px" height="12px" preserveAspectRatio="xMinYMin meet" x="225" y="-244"/>
<text text-anchor="start" x="240" y="-235.2" font-family="Helvetica,sans-Serif" font-size="11.00">main_weir_kind</text>
<polygon fill="none" stroke="black" points="220,-205 220,-227 395,-227 395,-205 220,-205"/>
<image xlink:href="../../images/foreignKeys.png" width="11px" height="12px" preserveAspectRatio="xMinYMin meet" x="225" y="-222"/>
<text text-anchor="start" x="240" y="-213.2" font-family="Helvetica,sans-Serif" font-size="11.00">pump_characteristics</text>
<polygon fill="none" stroke="black" points="220,-183 220,-205 395,-205 395,-183 220,-183"/>
<image xlink:href="../../images/foreignKeys.png" width="11px" height="12px" preserveAspectRatio="xMinYMin meet" x="225" y="-200"/>
<text text-anchor="start" x="240" y="-191.2" font-family="Helvetica,sans-Serif" font-size="11.00">status</text>
<polygon fill="#ffffff" stroke="transparent" points="220,-161 220,-183 395,-183 395,-161 220,-161"/>
<polygon fill="none" stroke="black" points="220,-161 220,-183 395,-183 395,-161 220,-161"/>
<image xlink:href="../../images/foreignKeys.png" width="11px" height="12px" preserveAspectRatio="xMinYMin meet" x="225" y="-178"/>
<text text-anchor="start" x="240" y="-169.2" font-family="Helvetica,sans-Serif" font-size="11.00">fk_dataowner</text>
<polygon fill="none" stroke="black" points="220,-139 220,-161 395,-161 395,-139 220,-139"/>
<image xlink:href="../../images/foreignKeys.png" width="11px" height="12px" preserveAspectRatio="xMinYMin meet" x="225" y="-156"/>
<text text-anchor="start" x="240" y="-147.2" font-family="Helvetica,sans-Serif" font-size="11.00">fk_provider</text>
<polygon fill="none" stroke="black" points="220,-117 220,-139 395,-139 395,-117 220,-117"/>
<image xlink:href="../../images/foreignKeys.png" width="11px" height="12px" preserveAspectRatio="xMinYMin meet" x="225" y="-134"/>
<text text-anchor="start" x="240" y="-125.2" font-family="Helvetica,sans-Serif" font-size="11.00">fk_wastewater_node</text>
<polygon fill="none" stroke="black" points="220,-95 220,-117 395,-117 395,-95 220,-95"/>
<image xlink:href="../../images/foreignKeys.png" width="11px" height="12px" preserveAspectRatio="xMinYMin meet" x="225" y="-112"/>
<text text-anchor="start" x="240" y="-103.2" font-family="Helvetica,sans-Serif" font-size="11.00">fk_overflow_char</text>
<polygon fill="none" stroke="black" points="220,-73 220,-95 395,-95 395,-73 220,-73"/>
<image xlink:href="../../images/foreignKeys.png" width="11px" height="12px" preserveAspectRatio="xMinYMin meet" x="225" y="-90"/>
<text text-anchor="start" x="240" y="-81.2" font-family="Helvetica,sans-Serif" font-size="11.00">fk_primary_direction</text>
<polygon fill="none" stroke="black" points="220,-55 220,-73 395,-73 395,-55 220,-55"/>
<text text-anchor="start" x="223" y="-61.2" font-family="Helvetica,sans-Serif" font-size="11.00">...</text>
<polygon fill="#ffffff" stroke="transparent" points="220,-37 220,-55 301,-55 301,-37 220,-37"/>
<polygon fill="none" stroke="black" points="220,-37 220,-55 301,-55 301,-37 220,-37"/>
<text text-anchor="start" x="223" y="-43.2" font-family="Helvetica,sans-Serif" font-size="11.00">&lt; 9</text>
<polygon fill="#ffffff" stroke="transparent" points="301,-37 301,-55 343,-55 343,-37 301,-37"/>
<polygon fill="none" stroke="black" points="301,-37 301,-55 343,-55 343,-37 301,-37"/>
<text text-anchor="start" x="333" y="-43.2" font-family="Helvetica,sans-Serif" font-size="11.00"> &#160;</text>
<polygon fill="#ffffff" stroke="transparent" points="343,-37 343,-55 395,-55 395,-37 343,-37"/>
<polygon fill="none" stroke="black" points="343,-37 343,-55 395,-55 395,-37 343,-37"/>
<text text-anchor="start" x="376" y="-43.2" font-family="Helvetica,sans-Serif" font-size="11.00">1 &gt;</text>
</a>
</g>
</g>
<!-- catchment_area_totals&#45;&gt;hydraulic_char_data -->
<g id="edge3" class="edge">
<title>catchment_area_totals:w&#45;&gt;hydraulic_char_data:e</title>
<path fill="none" stroke="black" d="M445.13,-418.84C409.71,-400.08 449.74,-304 396,-304"/>
<polygon fill="black" stroke="black" points="451.69,-420.28 458.73,-425.52 455.59,-421.14 459.5,-422 459.5,-422 459.5,-422 455.59,-421.14 460.27,-418.48 451.69,-420.28 451.69,-420.28"/>
<ellipse fill="none" stroke="black" cx="448.56" cy="-419.6" rx="3.2" ry="3.2"/>
</g>
<!-- hydraulic_char_data&#45;&gt;organisation -->
<g id="edge5" class="edge">
<title>hydraulic_char_data:w&#45;&gt;organisation:e</title>
<path fill="none" stroke="black" d="M204.62,-174.58C156.74,-194.86 225.93,-328 157,-328"/>
<polygon fill="black" stroke="black" points="211.13,-173.41 219.64,-175.54 215.06,-172.71 219,-172 219,-172 219,-172 215.06,-172.71 218.36,-168.46 211.13,-173.41 211.13,-173.41"/>
<ellipse fill="none" stroke="black" cx="207.98" cy="-173.98" rx="3.2" ry="3.2"/>
</g>
<!-- hydraulic_char_data&#45;&gt;organisation -->
<g id="edge6" class="edge">
<title>hydraulic_char_data:w&#45;&gt;organisation:e</title>
<path fill="none" stroke="black" d="M204.7,-152.25C148.41,-172.86 235.21,-328 157,-328"/>
<polygon fill="black" stroke="black" points="211.1,-151.24 219.56,-153.56 215.05,-150.62 219,-150 219,-150 219,-150 215.05,-150.62 218.44,-146.44 211.1,-151.24 211.1,-151.24"/>
<ellipse fill="none" stroke="black" cx="207.94" cy="-151.74" rx="3.2" ry="3.2"/>
</g>
</g>
</svg>
