<?xml version="1.0" encoding="UTF-8" standalone="no"?>
<!DOCTYPE svg PUBLIC "-//W3C//DTD SVG 1.1//EN"
 "http://www.w3.org/Graphics/SVG/1.1/DTD/svg11.dtd">
<!-- Generated by graphviz version 2.43.0 (0)
 -->
<!-- Title: oneDegreeRelationshipsDiagram Pages: 1 -->
<svg width="1000pt" height="692pt"
 viewBox="0.00 0.00 1000.00 692.00" xmlns="http://www.w3.org/2000/svg" xmlns:xlink="http://www.w3.org/1999/xlink">
<g id="graph0" class="graph" transform="scale(1 1) rotate(0) translate(4 688)">
<title>oneDegreeRelationshipsDiagram</title>
<polygon fill="#ffffff" stroke="transparent" points="-4,4 -4,-688 996,-688 996,4 -4,4"/>
<text text-anchor="middle" x="79.5" y="-7.2" font-family="Helvetica,sans-Serif" font-size="11.00">Generated by SchemaSpy</text>
<!-- catchment_area_totals -->
<g id="node1" class="node">
<title>catchment_area_totals</title>
<g id="a_node1"><a xlink:href="../../tables/catchment_area_totals.html" xlink:title="catchment_area_totals" target="_top">
<polygon fill="#ffffff" stroke="transparent" points="757,-235 757,-425 984,-425 984,-235 757,-235"/>
<polygon fill="#f5f5f5" stroke="transparent" points="757.5,-403 757.5,-425 984.5,-425 984.5,-403 757.5,-403"/>
<polygon fill="none" stroke="black" points="757.5,-403 757.5,-425 984.5,-425 984.5,-403 757.5,-403"/>
<text text-anchor="start" x="762.5" y="-412.2" font-family="Helvetica,sans-Serif" font-weight="bold" font-size="11.00">catchment_area_totals</text>
<text text-anchor="start" x="942.5" y="-411.2" font-family="Helvetica,sans-Serif" font-size="11.00">[table]</text>
<polygon fill="none" stroke="black" points="757.5,-381 757.5,-403 984.5,-403 984.5,-381 757.5,-381"/>
<image xlink:href="../../images/primaryKeys.png" width="11px" height="12px" preserveAspectRatio="xMinYMin meet" x="762.5" y="-398"/>
<text text-anchor="start" x="777.5" y="-389.2" font-family="Helvetica,sans-Serif" font-size="11.00">obj_id</text>
<polygon fill="#ffffff" stroke="transparent" points="757.5,-359 757.5,-381 984.5,-381 984.5,-359 757.5,-359"/>
<polygon fill="none" stroke="black" points="757.5,-359 757.5,-381 984.5,-381 984.5,-359 757.5,-359"/>
<text text-anchor="start" x="777.5" y="-367.2" font-family="Helvetica,sans-Serif" font-size="11.00">identifier</text>
<polygon fill="#ffffff" stroke="transparent" points="757.5,-337 757.5,-359 984.5,-359 984.5,-337 757.5,-337"/>
<polygon fill="none" stroke="black" points="757.5,-337 757.5,-359 984.5,-359 984.5,-337 757.5,-337"/>
<image xlink:href="../../images/foreignKeys.png" width="11px" height="12px" preserveAspectRatio="xMinYMin meet" x="762.5" y="-354"/>
<text text-anchor="start" x="777.5" y="-345.2" font-family="Helvetica,sans-Serif" font-size="11.00">fk_dataowner</text>
<polygon fill="none" stroke="black" points="757.5,-315 757.5,-337 984.5,-337 984.5,-315 757.5,-315"/>
<image xlink:href="../../images/foreignKeys.png" width="11px" height="12px" preserveAspectRatio="xMinYMin meet" x="762.5" y="-332"/>
<text text-anchor="start" x="777.5" y="-323.2" font-family="Helvetica,sans-Serif" font-size="11.00">fk_provider</text>
<polygon fill="none" stroke="black" points="757.5,-293 757.5,-315 984.5,-315 984.5,-293 757.5,-293"/>
<image xlink:href="../../images/foreignKeys.png" width="11px" height="12px" preserveAspectRatio="xMinYMin meet" x="762.5" y="-310"/>
<text text-anchor="start" x="777.5" y="-301.2" font-family="Helvetica,sans-Serif" font-size="11.00">fk_discharge_point</text>
<polygon fill="none" stroke="black" points="757.5,-271 757.5,-293 984.5,-293 984.5,-271 757.5,-271"/>
<image xlink:href="../../images/foreignKeys.png" width="11px" height="12px" preserveAspectRatio="xMinYMin meet" x="762.5" y="-288"/>
<text text-anchor="start" x="777.5" y="-279.2" font-family="Helvetica,sans-Serif" font-size="11.00">fk_hydraulic_char_data</text>
<polygon fill="none" stroke="black" points="757.5,-253 757.5,-271 984.5,-271 984.5,-253 757.5,-253"/>
<text text-anchor="start" x="760.5" y="-259.2" font-family="Helvetica,sans-Serif" font-size="11.00">...</text>
<polygon fill="#ffffff" stroke="transparent" points="757.5,-235 757.5,-253 984.5,-253 984.5,-235 757.5,-235"/>
<polygon fill="none" stroke="black" points="757.5,-235 757.5,-253 984.5,-253 984.5,-235 757.5,-235"/>
<polygon fill="#ffffff" stroke="transparent" points="758.5,-236 758.5,-252 837.5,-252 837.5,-236 758.5,-236"/>
<text text-anchor="start" x="760.5" y="-241.2" font-family="Helvetica,sans-Serif" font-size="11.00">&lt; 4</text>
<polygon fill="#ffffff" stroke="transparent" points="837.5,-236 837.5,-252 904.5,-252 904.5,-236 837.5,-236"/>
<text text-anchor="start" x="867" y="-241.2" font-family="Helvetica,sans-Serif" font-size="11.00"> &#160;</text>
<polygon fill="#ffffff" stroke="transparent" points="904.5,-236 904.5,-252 983.5,-252 983.5,-236 904.5,-236"/>
<text text-anchor="start" x="961.5" y="-241.2" font-family="Helvetica,sans-Serif" font-size="11.00">1 &gt;</text>
<polygon fill="black" stroke="black" points="837.5,-236 837.5,-252 837.5,-252 837.5,-236 837.5,-236"/>
<polygon fill="black" stroke="black" points="904.5,-236 904.5,-252 904.5,-252 904.5,-236 904.5,-236"/>
</a>
</g>
</g>
<!-- discharge_point -->
<g id="node2" class="node">
<title>discharge_point</title>
<g id="a_node2"><a xlink:href="../../tables/discharge_point.html" xlink:title="discharge_point" target="_top">
<polygon fill="#ffffff" stroke="transparent" points="353,-184 353,-404 708,-404 708,-184 353,-184"/>
<polygon fill="#f5f5f5" stroke="transparent" points="355.5,-380 355.5,-402 706.5,-402 706.5,-380 355.5,-380"/>
<polygon fill="none" stroke="black" points="355.5,-380 355.5,-402 706.5,-402 706.5,-380 355.5,-380"/>
<text text-anchor="start" x="360.5" y="-389.2" font-family="Helvetica,sans-Serif" font-weight="bold" font-size="11.00">discharge_point</text>
<text text-anchor="start" x="664.5" y="-388.2" font-family="Helvetica,sans-Serif" font-size="11.00">[table]</text>
<polygon fill="none" stroke="black" points="355.5,-358 355.5,-380 600.5,-380 600.5,-358 355.5,-358"/>
<image xlink:href="../../images/primaryKeys.png" width="11px" height="12px" preserveAspectRatio="xMinYMin meet" x="360.5" y="-375"/>
<text text-anchor="start" x="375.5" y="-366.2" font-family="Helvetica,sans-Serif" font-size="11.00">obj_id</text>
<polygon fill="none" stroke="black" points="600.5,-358 600.5,-380 706.5,-380 706.5,-358 600.5,-358"/>
<text text-anchor="start" x="603.5" y="-366.2" font-family="Helvetica,sans-Serif" font-size="11.00">varchar[16]</text>
<polygon fill="none" stroke="black" points="355.5,-336 355.5,-358 600.5,-358 600.5,-336 355.5,-336"/>
<text text-anchor="start" x="375.5" y="-344.2" font-family="Helvetica,sans-Serif" font-size="11.00">highwater_level</text>
<polygon fill="none" stroke="black" points="600.5,-336 600.5,-358 706.5,-358 706.5,-336 600.5,-336"/>
<text text-anchor="start" x="603.5" y="-344.2" font-family="Helvetica,sans-Serif" font-size="11.00">numeric[7,3]</text>
<polygon fill="none" stroke="black" points="355.5,-314 355.5,-336 600.5,-336 600.5,-314 355.5,-314"/>
<image xlink:href="../../images/foreignKeys.png" width="11px" height="12px" preserveAspectRatio="xMinYMin meet" x="360.5" y="-331"/>
<text text-anchor="start" x="375.5" y="-322.2" font-family="Helvetica,sans-Serif" font-size="11.00">relevance</text>
<polygon fill="none" stroke="black" points="600.5,-314 600.5,-336 706.5,-336 706.5,-314 600.5,-314"/>
<text text-anchor="start" x="603.5" y="-322.2" font-family="Helvetica,sans-Serif" font-size="11.00">int4[10]</text>
<polygon fill="none" stroke="black" points="355.5,-292 355.5,-314 600.5,-314 600.5,-292 355.5,-292"/>
<text text-anchor="start" x="375.5" y="-300.2" font-family="Helvetica,sans-Serif" font-size="11.00">terrain_level</text>
<polygon fill="none" stroke="black" points="600.5,-292 600.5,-314 706.5,-314 706.5,-292 600.5,-292"/>
<text text-anchor="start" x="603.5" y="-300.2" font-family="Helvetica,sans-Serif" font-size="11.00">numeric[7,3]</text>
<polygon fill="none" stroke="black" points="355.5,-270 355.5,-292 600.5,-292 600.5,-270 355.5,-270"/>
<text text-anchor="start" x="375.5" y="-278.2" font-family="Helvetica,sans-Serif" font-size="11.00">upper_elevation</text>
<polygon fill="none" stroke="black" points="600.5,-270 600.5,-292 706.5,-292 706.5,-270 600.5,-270"/>
<text text-anchor="start" x="603.5" y="-278.2" font-family="Helvetica,sans-Serif" font-size="11.00">numeric[7,3]</text>
<polygon fill="none" stroke="black" points="355.5,-248 355.5,-270 600.5,-270 600.5,-248 355.5,-248"/>
<text text-anchor="start" x="375.5" y="-256.2" font-family="Helvetica,sans-Serif" font-size="11.00">water_course_number</text>
<polygon fill="none" stroke="black" points="600.5,-248 600.5,-270 706.5,-270 706.5,-248 600.5,-248"/>
<text text-anchor="start" x="603.5" y="-256.2" font-family="Helvetica,sans-Serif" font-size="11.00">text[2147483647]</text>
<polygon fill="none" stroke="black" points="355.5,-226 355.5,-248 600.5,-248 600.5,-226 355.5,-226"/>
<text text-anchor="start" x="375.5" y="-234.2" font-family="Helvetica,sans-Serif" font-size="11.00">water_course_segment_canton</text>
<polygon fill="none" stroke="black" points="600.5,-226 600.5,-248 706.5,-248 706.5,-226 600.5,-226"/>
<text text-anchor="start" x="603.5" y="-234.2" font-family="Helvetica,sans-Serif" font-size="11.00">text[2147483647]</text>
<polygon fill="none" stroke="black" points="355.5,-204 355.5,-226 600.5,-226 600.5,-204 355.5,-204"/>
<text text-anchor="start" x="375.5" y="-212.2" font-family="Helvetica,sans-Serif" font-size="11.00">waterlevel_hydraulic</text>
<polygon fill="none" stroke="black" points="600.5,-204 600.5,-226 706.5,-226 706.5,-204 600.5,-204"/>
<text text-anchor="start" x="603.5" y="-212.2" font-family="Helvetica,sans-Serif" font-size="11.00">numeric[7,3]</text>
<polygon fill="#ffffff" stroke="transparent" points="355.5,-186 355.5,-204 706.5,-204 706.5,-186 355.5,-186"/>
<polygon fill="none" stroke="black" points="355.5,-186 355.5,-204 706.5,-204 706.5,-186 355.5,-186"/>
<polygon fill="#ffffff" stroke="transparent" points="356.5,-187 356.5,-203 477.5,-203 477.5,-187 356.5,-187"/>
<text text-anchor="start" x="358.5" y="-192.2" font-family="Helvetica,sans-Serif" font-size="11.00">&lt; 2</text>
<polygon fill="#ffffff" stroke="transparent" points="477.5,-187 477.5,-203 585.5,-203 585.5,-187 477.5,-187"/>
<text text-anchor="start" x="527.5" y="-192.2" font-family="Helvetica,sans-Serif" font-size="11.00"> &#160;</text>
<polygon fill="#ffffff" stroke="transparent" points="585.5,-187 585.5,-203 705.5,-203 705.5,-187 585.5,-187"/>
<text text-anchor="start" x="683.5" y="-192.2" font-family="Helvetica,sans-Serif" font-size="11.00">2 &gt;</text>
<polygon fill="black" stroke="black" points="477.5,-187 477.5,-203 477.5,-203 477.5,-187 477.5,-187"/>
<polygon fill="black" stroke="black" points="585.5,-187 585.5,-203 585.5,-203 585.5,-187 585.5,-187"/>
<polygon fill="none" stroke="black" stroke-width="2" points="354,-185 354,-403 707,-403 707,-185 354,-185"/>
</a>
</g>
</g>
<!-- catchment_area_totals&#45;&gt;discharge_point -->
<g id="edge1" class="edge">
<title>catchment_area_totals:w&#45;&gt;discharge_point:e</title>
<path fill="none" stroke="black" d="M742.52,-309.1C726.59,-324.42 737.46,-369 707.5,-369"/>
<polygon fill="black" stroke="black" points="748.98,-306.74 757.73,-307.38 752.74,-305.37 756.5,-304 756.5,-304 756.5,-304 752.74,-305.37 755.27,-300.62 748.98,-306.74 748.98,-306.74"/>
<ellipse fill="none" stroke="black" cx="745.98" cy="-307.84" rx="3.2" ry="3.2"/>
</g>
<!-- wastewater_structure -->
<g id="node3" class="node">
<title>wastewater_structure</title>
<g id="a_node3"><a xlink:href="../../tables/wastewater_structure.html" xlink:title="wastewater_structure" target="_top">
<polygon fill="#ffffff" stroke="transparent" points="38.5,-116 38.5,-526 273.5,-526 273.5,-116 38.5,-116"/>
<polygon fill="#f5f5f5" stroke="transparent" points="39,-504 39,-526 274,-526 274,-504 39,-504"/>
<polygon fill="none" stroke="black" points="39,-504 39,-526 274,-526 274,-504 39,-504"/>
<text text-anchor="start" x="44" y="-513.2" font-family="Helvetica,sans-Serif" font-weight="bold" font-size="11.00">wastewater_structure</text>
<text text-anchor="start" x="232" y="-512.2" font-family="Helvetica,sans-Serif" font-size="11.00">[table]</text>
<polygon fill="none" stroke="black" points="39,-482 39,-504 274,-504 274,-482 39,-482"/>
<image xlink:href="../../images/primaryKeys.png" width="11px" height="12px" preserveAspectRatio="xMinYMin meet" x="44" y="-499"/>
<text text-anchor="start" x="59" y="-490.2" font-family="Helvetica,sans-Serif" font-size="11.00">obj_id</text>
<polygon fill="none" stroke="black" points="39,-460 39,-482 274,-482 274,-460 39,-460"/>
<image xlink:href="../../images/foreignKeys.png" width="11px" height="12px" preserveAspectRatio="xMinYMin meet" x="44" y="-477"/>
<text text-anchor="start" x="59" y="-468.2" font-family="Helvetica,sans-Serif" font-size="11.00">accessibility</text>
<polygon fill="#ffffff" stroke="transparent" points="39,-438 39,-460 274,-460 274,-438 39,-438"/>
<polygon fill="none" stroke="black" points="39,-438 39,-460 274,-460 274,-438 39,-438"/>
<text text-anchor="start" x="59" y="-446.2" font-family="Helvetica,sans-Serif" font-size="11.00">detail_geometry3d_geometry</text>
<polygon fill="none" stroke="black" points="39,-416 39,-438 274,-438 274,-416 39,-416"/>
<image xlink:href="../../images/foreignKeys.png" width="11px" height="12px" preserveAspectRatio="xMinYMin meet" x="44" y="-433"/>
<text text-anchor="start" x="59" y="-424.2" font-family="Helvetica,sans-Serif" font-size="11.00">elevation_determination</text>
<polygon fill="none" stroke="black" points="39,-394 39,-416 274,-416 274,-394 39,-394"/>
<image xlink:href="../../images/foreignKeys.png" width="11px" height="12px" preserveAspectRatio="xMinYMin meet" x="44" y="-411"/>
<text text-anchor="start" x="59" y="-402.2" font-family="Helvetica,sans-Serif" font-size="11.00">financing</text>
<polygon fill="#ffffff" stroke="transparent" points="39,-372 39,-394 274,-394 274,-372 39,-372"/>
<polygon fill="none" stroke="black" points="39,-372 39,-394 274,-394 274,-372 39,-372"/>
<text text-anchor="start" x="59" y="-380.2" font-family="Helvetica,sans-Serif" font-size="11.00">identifier</text>
<polygon fill="none" stroke="black" points="39,-350 39,-372 274,-372 274,-350 39,-350"/>
<image xlink:href="../../images/foreignKeys.png" width="11px" height="12px" preserveAspectRatio="xMinYMin meet" x="44" y="-367"/>
<text text-anchor="start" x="59" y="-358.2" font-family="Helvetica,sans-Serif" font-size="11.00">renovation_necessity</text>
<polygon fill="none" stroke="black" points="39,-328 39,-350 274,-350 274,-328 39,-328"/>
<image xlink:href="../../images/foreignKeys.png" width="11px" height="12px" preserveAspectRatio="xMinYMin meet" x="44" y="-345"/>
<text text-anchor="start" x="59" y="-336.2" font-family="Helvetica,sans-Serif" font-size="11.00">rv_construction_type</text>
<polygon fill="none" stroke="black" points="39,-306 39,-328 274,-328 274,-306 39,-306"/>
<image xlink:href="../../images/foreignKeys.png" width="11px" height="12px" preserveAspectRatio="xMinYMin meet" x="44" y="-323"/>
<text text-anchor="start" x="59" y="-314.2" font-family="Helvetica,sans-Serif" font-size="11.00">status</text>
<polygon fill="none" stroke="black" points="39,-284 39,-306 274,-306 274,-284 39,-284"/>
<image xlink:href="../../images/foreignKeys.png" width="11px" height="12px" preserveAspectRatio="xMinYMin meet" x="44" y="-301"/>
<text text-anchor="start" x="59" y="-292.2" font-family="Helvetica,sans-Serif" font-size="11.00">structure_condition</text>
<polygon fill="#ffffff" stroke="transparent" points="39,-262 39,-284 274,-284 274,-262 39,-262"/>
<polygon fill="none" stroke="black" points="39,-262 39,-284 274,-284 274,-262 39,-262"/>
<image xlink:href="../../images/foreignKeys.png" width="11px" height="12px" preserveAspectRatio="xMinYMin meet" x="44" y="-279"/>
<text text-anchor="start" x="59" y="-270.2" font-family="Helvetica,sans-Serif" font-size="11.00">fk_dataowner</text>
<polygon fill="none" stroke="black" points="39,-240 39,-262 274,-262 274,-240 39,-240"/>
<image xlink:href="../../images/foreignKeys.png" width="11px" height="12px" preserveAspectRatio="xMinYMin meet" x="44" y="-257"/>
<text text-anchor="start" x="59" y="-248.2" font-family="Helvetica,sans-Serif" font-size="11.00">fk_provider</text>
<polygon fill="none" stroke="black" points="39,-218 39,-240 274,-240 274,-218 39,-218"/>
<image xlink:href="../../images/foreignKeys.png" width="11px" height="12px" preserveAspectRatio="xMinYMin meet" x="44" y="-235"/>
<text text-anchor="start" x="59" y="-226.2" font-family="Helvetica,sans-Serif" font-size="11.00">fk_owner</text>
<polygon fill="none" stroke="black" points="39,-196 39,-218 274,-218 274,-196 39,-196"/>
<image xlink:href="../../images/foreignKeys.png" width="11px" height="12px" preserveAspectRatio="xMinYMin meet" x="44" y="-213"/>
<text text-anchor="start" x="59" y="-204.2" font-family="Helvetica,sans-Serif" font-size="11.00">fk_operator</text>
<polygon fill="none" stroke="black" points="39,-174 39,-196 274,-196 274,-174 39,-174"/>
<image xlink:href="../../images/foreignKeys.png" width="11px" height="12px" preserveAspectRatio="xMinYMin meet" x="44" y="-191"/>
<text text-anchor="start" x="59" y="-182.2" font-family="Helvetica,sans-Serif" font-size="11.00">fk_main_cover</text>
<polygon fill="none" stroke="black" points="39,-152 39,-174 274,-174 274,-152 39,-152"/>
<image xlink:href="../../images/foreignKeys.png" width="11px" height="12px" preserveAspectRatio="xMinYMin meet" x="44" y="-169"/>
<text text-anchor="start" x="59" y="-160.2" font-family="Helvetica,sans-Serif" font-size="11.00">fk_main_wastewater_node</text>
<polygon fill="none" stroke="black" points="39,-134 39,-152 274,-152 274,-134 39,-134"/>
<text text-anchor="start" x="42" y="-140.2" font-family="Helvetica,sans-Serif" font-size="11.00">...</text>
<polygon fill="#ffffff" stroke="transparent" points="39,-116 39,-134 274,-134 274,-116 39,-116"/>
<polygon fill="none" stroke="black" points="39,-116 39,-134 274,-134 274,-116 39,-116"/>
<polygon fill="#ffffff" stroke="transparent" points="40,-117 40,-133 124,-133 124,-117 40,-117"/>
<text text-anchor="start" x="42" y="-122.2" font-family="Helvetica,sans-Serif" font-size="11.00">&lt; 13</text>
<polygon fill="#ffffff" stroke="transparent" points="124,-117 124,-133 189,-133 189,-117 124,-117"/>
<text text-anchor="start" x="152.5" y="-122.2" font-family="Helvetica,sans-Serif" font-size="11.00"> &#160;</text>
<polygon fill="#ffffff" stroke="transparent" points="189,-117 189,-133 273,-133 273,-117 189,-117"/>
<text text-anchor="start" x="244" y="-122.2" font-family="Helvetica,sans-Serif" font-size="11.00">17 &gt;</text>
<polygon fill="black" stroke="black" points="124,-117 124,-133 124,-133 124,-117 124,-117"/>
<polygon fill="black" stroke="black" points="189,-117 189,-133 189,-133 189,-117 189,-117"/>
</a>
</g>
</g>
<!-- discharge_point&#45;&gt;wastewater_structure -->
<g id="edge2" class="edge">
<title>discharge_point:w&#45;&gt;wastewater_structure:e</title>
<path fill="none" stroke="black" d="M344.15,-370.23C294.66,-383.11 336.63,-493 275,-493"/>
<polygon fill="black" stroke="black" points="353.23,-365.12 354.18,-373.07 352.59,-373.25 351.65,-365.31 353.23,-365.12"/>
<polyline fill="none" stroke="black" points="354.5,-369 350.53,-369.47 "/>
<ellipse fill="none" stroke="black" cx="347.35" cy="-369.85" rx="3.2" ry="3.2"/>
</g>
<!-- tww_vl.discharge_point_relevance -->
<g id="node4" class="node">
<title>tww_vl.discharge_point_relevance</title>
<g id="a_node4"><a xlink:href="../../../tww_vl/tables/discharge_point_relevance.html" xlink:title="tww_vl.discharge_point_relevance" target="_top">
<polygon fill="#ffffff" stroke="transparent" points="8,-37 8,-95 304,-95 304,-37 8,-37"/>
<polygon fill="#f5f5f5" stroke="transparent" points="8,-73 8,-95 304,-95 304,-73 8,-73"/>
<polygon fill="none" stroke="black" points="8,-73 8,-95 304,-95 304,-73 8,-73"/>
<text text-anchor="start" x="13" y="-82.2" font-family="Helvetica,sans-Serif" font-weight="bold" font-size="11.00">tww_vl.discharge_point_relevance</text>
<text text-anchor="start" x="262" y="-81.2" font-family="Helvetica,sans-Serif" font-size="11.00">[table]</text>
<polygon fill="none" stroke="black" points="8,-55 8,-73 304,-73 304,-55 8,-55"/>
<text text-anchor="start" x="11" y="-61.2" font-family="Helvetica,sans-Serif" font-size="11.00">...</text>
<polygon fill="#ffffff" stroke="transparent" points="8,-37 8,-55 304,-55 304,-37 8,-37"/>
<polygon fill="none" stroke="black" points="8,-37 8,-55 304,-55 304,-37 8,-37"/>
<polygon fill="#ffffff" stroke="transparent" points="9,-38 9,-54 94,-54 94,-38 9,-38"/>
<text text-anchor="start" x="11" y="-43.2" font-family="Helvetica,sans-Serif" font-size="11.00"> &#160;</text>
<polygon fill="#ffffff" stroke="transparent" points="94,-38 94,-54 207,-54 207,-38 94,-38"/>
<text text-anchor="start" x="132" y="-43.2" font-family="Helvetica,sans-Serif" font-size="11.00">0 rows</text>
<polygon fill="#ffffff" stroke="transparent" points="207,-38 207,-54 303,-54 303,-38 207,-38"/>
<text text-anchor="start" x="281" y="-43.2" font-family="Helvetica,sans-Serif" font-size="11.00">1 &gt;</text>
<polygon fill="black" stroke="black" points="94,-38 94,-54 94,-54 94,-38 94,-38"/>
<polygon fill="black" stroke="black" points="207,-38 207,-54 207,-54 207,-38 207,-38"/>
</a>
</g>
</g>
<!-- discharge_point&#45;&gt;tww_vl.discharge_point_relevance -->
<g id="edge3" class="edge">
<title>discharge_point:w&#45;&gt;tww_vl.discharge_point_relevance:e</title>
<path fill="none" stroke="black" d="M340.11,-323.71C268.06,-309.08 376.69,-173.39 312,-105 310.09,-102.98 308.1,-101.07 306.03,-99.24"/>
<polygon fill="black" stroke="black" points="346.53,-324.29 354.18,-328.59 350.52,-324.64 354.5,-325 354.5,-325 354.5,-325 350.52,-324.64 354.82,-321.41 346.53,-324.29 346.53,-324.29"/>
<ellipse fill="none" stroke="black" cx="343.34" cy="-324" rx="3.2" ry="3.2"/>
</g>
<!-- disposal -->
<g id="node5" class="node">
<title>disposal</title>
<g id="a_node5"><a xlink:href="../../tables/disposal.html" xlink:title="disposal" target="_top">
<polygon fill="#ffffff" stroke="transparent" points="765.5,-446 765.5,-680 975.5,-680 975.5,-446 765.5,-446"/>
<polygon fill="#f5f5f5" stroke="transparent" points="765.5,-658 765.5,-680 975.5,-680 975.5,-658 765.5,-658"/>
<polygon fill="none" stroke="black" points="765.5,-658 765.5,-680 975.5,-680 975.5,-658 765.5,-658"/>
<text text-anchor="start" x="770.5" y="-667.2" font-family="Helvetica,sans-Serif" font-weight="bold" font-size="11.00">disposal</text>
<text text-anchor="start" x="933.5" y="-666.2" font-family="Helvetica,sans-Serif" font-size="11.00">[table]</text>
<polygon fill="none" stroke="black" points="765.5,-636 765.5,-658 975.5,-658 975.5,-636 765.5,-636"/>
<image xlink:href="../../images/primaryKeys.png" width="11px" height="12px" preserveAspectRatio="xMinYMin meet" x="770.5" y="-653"/>
<text text-anchor="start" x="785.5" y="-644.2" font-family="Helvetica,sans-Serif" font-size="11.00">obj_id</text>
<polygon fill="none" stroke="black" points="765.5,-614 765.5,-636 975.5,-636 975.5,-614 765.5,-614"/>
<image xlink:href="../../images/foreignKeys.png" width="11px" height="12px" preserveAspectRatio="xMinYMin meet" x="770.5" y="-631"/>
<text text-anchor="start" x="785.5" y="-622.2" font-family="Helvetica,sans-Serif" font-size="11.00">disposal_place_current</text>
<polygon fill="none" stroke="black" points="765.5,-592 765.5,-614 975.5,-614 975.5,-592 765.5,-592"/>
<image xlink:href="../../images/foreignKeys.png" width="11px" height="12px" preserveAspectRatio="xMinYMin meet" x="770.5" y="-609"/>
<text text-anchor="start" x="785.5" y="-600.2" font-family="Helvetica,sans-Serif" font-size="11.00">disposal_place_planned</text>
<polygon fill="none" stroke="black" points="765.5,-570 765.5,-592 975.5,-592 975.5,-570 765.5,-570"/>
<image xlink:href="../../images/foreignKeys.png" width="11px" height="12px" preserveAspectRatio="xMinYMin meet" x="770.5" y="-587"/>
<text text-anchor="start" x="785.5" y="-578.2" font-family="Helvetica,sans-Serif" font-size="11.00">fk_dataowner</text>
<polygon fill="none" stroke="black" points="765.5,-548 765.5,-570 975.5,-570 975.5,-548 765.5,-548"/>
<image xlink:href="../../images/foreignKeys.png" width="11px" height="12px" preserveAspectRatio="xMinYMin meet" x="770.5" y="-565"/>
<text text-anchor="start" x="785.5" y="-556.2" font-family="Helvetica,sans-Serif" font-size="11.00">fk_provider</text>
<polygon fill="none" stroke="black" points="765.5,-526 765.5,-548 975.5,-548 975.5,-526 765.5,-526"/>
<image xlink:href="../../images/foreignKeys.png" width="11px" height="12px" preserveAspectRatio="xMinYMin meet" x="770.5" y="-543"/>
<text text-anchor="start" x="785.5" y="-534.2" font-family="Helvetica,sans-Serif" font-size="11.00">fk_infiltration_installation</text>
<polygon fill="none" stroke="black" points="765.5,-504 765.5,-526 975.5,-526 975.5,-504 765.5,-504"/>
<image xlink:href="../../images/foreignKeys.png" width="11px" height="12px" preserveAspectRatio="xMinYMin meet" x="770.5" y="-521"/>
<text text-anchor="start" x="785.5" y="-512.2" font-family="Helvetica,sans-Serif" font-size="11.00">fk_discharge_point</text>
<polygon fill="none" stroke="black" points="765.5,-482 765.5,-504 975.5,-504 975.5,-482 765.5,-482"/>
<image xlink:href="../../images/foreignKeys.png" width="11px" height="12px" preserveAspectRatio="xMinYMin meet" x="770.5" y="-499"/>
<text text-anchor="start" x="785.5" y="-490.2" font-family="Helvetica,sans-Serif" font-size="11.00">fk_wastewater_structure</text>
<polygon fill="none" stroke="black" points="765.5,-464 765.5,-482 975.5,-482 975.5,-464 765.5,-464"/>
<text text-anchor="start" x="768.5" y="-470.2" font-family="Helvetica,sans-Serif" font-size="11.00">...</text>
<polygon fill="#ffffff" stroke="transparent" points="765.5,-446 765.5,-464 975.5,-464 975.5,-446 765.5,-446"/>
<polygon fill="none" stroke="black" points="765.5,-446 765.5,-464 975.5,-464 975.5,-446 765.5,-446"/>
<polygon fill="#ffffff" stroke="transparent" points="766.5,-447 766.5,-463 840.5,-463 840.5,-447 766.5,-447"/>
<text text-anchor="start" x="768.5" y="-452.2" font-family="Helvetica,sans-Serif" font-size="11.00">&lt; 7</text>
<polygon fill="#ffffff" stroke="transparent" points="840.5,-447 840.5,-463 901.5,-463 901.5,-447 840.5,-447"/>
<text text-anchor="start" x="867" y="-452.2" font-family="Helvetica,sans-Serif" font-size="11.00"> &#160;</text>
<polygon fill="#ffffff" stroke="transparent" points="901.5,-447 901.5,-463 974.5,-463 974.5,-447 901.5,-447"/>
<text text-anchor="start" x="952.5" y="-452.2" font-family="Helvetica,sans-Serif" font-size="11.00">2 &gt;</text>
<polygon fill="black" stroke="black" points="840.5,-447 840.5,-463 840.5,-463 840.5,-447 840.5,-447"/>
<polygon fill="black" stroke="black" points="901.5,-447 901.5,-463 901.5,-463 901.5,-447 901.5,-447"/>
</a>
</g>
</g>
<!-- disposal&#45;&gt;discharge_point -->
<g id="edge4" class="edge">
<title>disposal:w&#45;&gt;discharge_point:e</title>
<path fill="none" stroke="black" d="M750.26,-512.21C707.32,-492.03 771.44,-369 707.5,-369"/>
<polygon fill="black" stroke="black" points="756.65,-513.46 763.81,-518.53 760.57,-514.23 764.5,-515 764.5,-515 764.5,-515 760.57,-514.23 765.19,-511.47 756.65,-513.46 756.65,-513.46"/>
<ellipse fill="none" stroke="black" cx="753.51" cy="-512.85" rx="3.2" ry="3.2"/>
</g>
<!-- disposal&#45;&gt;wastewater_structure -->
<g id="edge5" class="edge">
<title>disposal:w&#45;&gt;wastewater_structure:e</title>
<path fill="none" stroke="black" d="M750.08,-493C544.42,-493 487.67,-493 275,-493"/>
<polygon fill="black" stroke="black" points="756.5,-493 764.5,-496.6 760.5,-493 764.5,-493 764.5,-493 764.5,-493 760.5,-493 764.5,-489.4 756.5,-493 756.5,-493"/>
<ellipse fill="none" stroke="black" cx="753.3" cy="-493" rx="3.2" ry="3.2"/>
</g>
</g>
</svg>
