<?xml version="1.0" encoding="UTF-8" standalone="no"?>
<!DOCTYPE svg PUBLIC "-//W3C//DTD SVG 1.1//EN"
 "http://www.w3.org/Graphics/SVG/1.1/DTD/svg11.dtd">
<!-- Generated by graphviz version 2.47.1 (20210515.0534)
 -->
<!-- Title: oneDegreeRelationshipsDiagram Pages: 1 -->
<svg width="588pt" height="274pt"
 viewBox="0.00 0.00 588.00 274.00" xmlns="http://www.w3.org/2000/svg" xmlns:xlink="http://www.w3.org/1999/xlink">
<g id="graph0" class="graph" transform="scale(1 1) rotate(0) translate(4 270)">
<title>oneDegreeRelationshipsDiagram</title>
<polygon fill="#ffffff" stroke="transparent" points="-4,4 -4,-270 584,-270 584,4 -4,4"/>
<text text-anchor="middle" x="73.5" y="-7.2" font-family="Helvetica,sans-Serif" font-size="11.00">Generated by SchemaSpy</text>
<!-- dss15_planning_zone -->
<g id="node1" class="node">
<title>dss15_planning_zone</title>
<g id="a_node1"><a xlink:href="../../tables/dss15_planning_zone.html" xlink:title="dss15_planning_zone" target="_top">
<polygon fill="#ffffff" stroke="transparent" points="301,-83 301,-193 572,-193 572,-83 301,-83"/>
<polygon fill="#f5f5f5" stroke="transparent" points="303.5,-169 303.5,-191 570.5,-191 570.5,-169 303.5,-169"/>
<polygon fill="none" stroke="black" points="303.5,-169 303.5,-191 570.5,-191 570.5,-169 303.5,-169"/>
<text text-anchor="start" x="308.5" y="-178.2" font-family="Helvetica,sans-Serif" font-weight="bold" font-size="11.00">dss15_planning_zone</text>
<text text-anchor="start" x="531.5" y="-177.2" font-family="Helvetica,sans-Serif" font-size="11.00">[table]</text>
<polygon fill="none" stroke="black" points="303.5,-147 303.5,-169 447.5,-169 447.5,-147 303.5,-147"/>
<image xlink:href="../../images/primaryKeys.png" width="11px" height="12px" preserveAspectRatio="xMinYMin meet" x="308.5" y="-164"/>
<text text-anchor="start" x="323.5" y="-155.2" font-family="Helvetica,sans-Serif" font-size="11.00">obj_id</text>
<polygon fill="none" stroke="black" points="447.5,-147 447.5,-169 570.5,-169 570.5,-147 447.5,-147"/>
<text text-anchor="start" x="450.5" y="-155.2" font-family="Helvetica,sans-Serif" font-size="11.00">varchar[16]</text>
<polygon fill="none" stroke="black" points="303.5,-125 303.5,-147 447.5,-147 447.5,-125 303.5,-125"/>
<image xlink:href="../../images/foreignKeys.png" width="11px" height="12px" preserveAspectRatio="xMinYMin meet" x="308.5" y="-142"/>
<text text-anchor="start" x="323.5" y="-133.2" font-family="Helvetica,sans-Serif" font-size="11.00">kind</text>
<polygon fill="none" stroke="black" points="447.5,-125 447.5,-147 570.5,-147 570.5,-125 447.5,-125"/>
<text text-anchor="start" x="450.5" y="-133.2" font-family="Helvetica,sans-Serif" font-size="11.00">int4[10]</text>
<polygon fill="#ffffff" stroke="transparent" points="303.5,-103 303.5,-125 447.5,-125 447.5,-103 303.5,-103"/>
<polygon fill="none" stroke="black" points="303.5,-103 303.5,-125 447.5,-125 447.5,-103 303.5,-103"/>
<text text-anchor="start" x="323.5" y="-111.2" font-family="Helvetica,sans-Serif" font-size="11.00">perimeter_geometry</text>
<polygon fill="none" stroke="black" points="447.5,-103 447.5,-125 570.5,-125 570.5,-103 447.5,-103"/>
<text text-anchor="start" x="450.5" y="-111.2" font-family="Helvetica,sans-Serif" font-size="11.00">geometry[2147483647]</text>
<polygon fill="#ffffff" stroke="transparent" points="303.5,-85 303.5,-103 379.5,-103 379.5,-85 303.5,-85"/>
<polygon fill="none" stroke="black" points="303.5,-85 303.5,-103 379.5,-103 379.5,-85 303.5,-85"/>
<text text-anchor="start" x="306.5" y="-91.2" font-family="Helvetica,sans-Serif" font-size="11.00">&lt; 2</text>
<polygon fill="#ffffff" stroke="transparent" points="379.5,-85 379.5,-103 447.5,-103 447.5,-85 379.5,-85"/>
<polygon fill="none" stroke="black" points="379.5,-85 379.5,-103 447.5,-103 447.5,-85 379.5,-85"/>
<text text-anchor="start" x="437.5" y="-91.2" font-family="Helvetica,sans-Serif" font-size="11.00"> &#160;</text>
<polygon fill="#ffffff" stroke="transparent" points="447.5,-85 447.5,-103 570.5,-103 570.5,-85 447.5,-85"/>
<polygon fill="none" stroke="black" points="447.5,-85 447.5,-103 570.5,-103 570.5,-85 447.5,-85"/>
<text text-anchor="start" x="551.5" y="-91.2" font-family="Helvetica,sans-Serif" font-size="11.00">0 &gt;</text>
<polygon fill="none" stroke="black" stroke-width="2" points="302,-84 302,-192 571,-192 571,-84 302,-84"/>
</a>
</g>
</g>
<!-- tww_vl.dss15_planning_zone_kind -->
<g id="node2" class="node">
<title>tww_vl.dss15_planning_zone_kind</title>
<g id="a_node2"><a xlink:href="../../../tww_vl/tables/dss15_planning_zone_kind.html" xlink:title="tww_vl.dss15_planning_zone_kind" target="_top">
<polygon fill="#ffffff" stroke="transparent" points="8,-37 8,-95 252,-95 252,-37 8,-37"/>
<polygon fill="#f5f5f5" stroke="transparent" points="8,-73 8,-95 252,-95 252,-73 8,-73"/>
<polygon fill="none" stroke="black" points="8,-73 8,-95 252,-95 252,-73 8,-73"/>
<text text-anchor="start" x="13" y="-82.2" font-family="Helvetica,sans-Serif" font-weight="bold" font-size="11.00">tww_vl.dss15_planning_zone_kind</text>
<text text-anchor="start" x="213" y="-81.2" font-family="Helvetica,sans-Serif" font-size="11.00">[table]</text>
<polygon fill="none" stroke="black" points="8,-55 8,-73 252,-73 252,-55 8,-55"/>
<text text-anchor="start" x="11" y="-61.2" font-family="Helvetica,sans-Serif" font-size="11.00">...</text>
<polygon fill="#ffffff" stroke="transparent" points="8,-37 8,-55 105,-55 105,-37 8,-37"/>
<polygon fill="none" stroke="black" points="8,-37 8,-55 105,-55 105,-37 8,-37"/>
<text text-anchor="start" x="11" y="-43.2" font-family="Helvetica,sans-Serif" font-size="11.00"> &#160;</text>
<polygon fill="#ffffff" stroke="transparent" points="105,-37 105,-55 187,-55 187,-37 105,-37"/>
<polygon fill="none" stroke="black" points="105,-37 105,-55 187,-55 187,-37 105,-37"/>
<text text-anchor="start" x="150" y="-43.2" font-family="Helvetica,sans-Serif" font-size="11.00">0 rows</text>
<polygon fill="#ffffff" stroke="transparent" points="187,-37 187,-55 252,-55 252,-37 187,-37"/>
<polygon fill="none" stroke="black" points="187,-37 187,-55 252,-55 252,-37 187,-37"/>
<text text-anchor="start" x="233" y="-43.2" font-family="Helvetica,sans-Serif" font-size="11.00">1 &gt;</text>
</a>
</g>
</g>
<!-- dss15_planning_zone&#45;&gt;tww_vl.dss15_planning_zone_kind -->
<g id="edge1" class="edge">
<title>dss15_planning_zone:w&#45;&gt;tww_vl.dss15_planning_zone_kind:e</title>
<path fill="none" stroke="black" d="M288.3,-132.22C278.48,-125.78 275.37,-112.65 260,-105 255.81,-102.91 251.49,-100.92 247.08,-99.01"/>
<polygon fill="black" stroke="black" points="294.77,-133.94 301.57,-139.48 298.63,-134.97 302.5,-136 302.5,-136 302.5,-136 298.63,-134.97 303.43,-132.52 294.77,-133.94 294.77,-133.94"/>
<ellipse fill="none" stroke="black" cx="291.68" cy="-133.12" rx="3.2" ry="3.2"/>
</g>
<!-- zone -->
<g id="node3" class="node">
<title>zone</title>
<g id="a_node3"><a xlink:href="../../tables/zone.html" xlink:title="zone" target="_top">
<polygon fill="#ffffff" stroke="transparent" points="68,-116 68,-262 192,-262 192,-116 68,-116"/>
<polygon fill="#f5f5f5" stroke="transparent" points="68,-240 68,-262 192,-262 192,-240 68,-240"/>
<polygon fill="none" stroke="black" points="68,-240 68,-262 192,-262 192,-240 68,-240"/>
<text text-anchor="start" x="71.5" y="-249.2" font-family="Helvetica,sans-Serif" font-weight="bold" font-size="11.00">zone</text>
<text text-anchor="start" x="153" y="-248.2" font-family="Helvetica,sans-Serif" font-size="11.00">[table]</text>
<polygon fill="none" stroke="black" points="68,-218 68,-240 192,-240 192,-218 68,-218"/>
<image xlink:href="../../images/primaryKeys.png" width="11px" height="12px" preserveAspectRatio="xMinYMin meet" x="73" y="-235"/>
<text text-anchor="start" x="88" y="-226.2" font-family="Helvetica,sans-Serif" font-size="11.00">obj_id</text>
<polygon fill="#ffffff" stroke="transparent" points="68,-196 68,-218 192,-218 192,-196 68,-196"/>
<polygon fill="none" stroke="black" points="68,-196 68,-218 192,-218 192,-196 68,-196"/>
<text text-anchor="start" x="88" y="-204.2" font-family="Helvetica,sans-Serif" font-size="11.00">identifier</text>
<polygon fill="#ffffff" stroke="transparent" points="68,-174 68,-196 192,-196 192,-174 68,-174"/>
<polygon fill="none" stroke="black" points="68,-174 68,-196 192,-196 192,-174 68,-174"/>
<image xlink:href="../../images/foreignKeys.png" width="11px" height="12px" preserveAspectRatio="xMinYMin meet" x="73" y="-191"/>
<text text-anchor="start" x="88" y="-182.2" font-family="Helvetica,sans-Serif" font-size="11.00">fk_dataowner</text>
<polygon fill="none" stroke="black" points="68,-152 68,-174 192,-174 192,-152 68,-152"/>
<image xlink:href="../../images/foreignKeys.png" width="11px" height="12px" preserveAspectRatio="xMinYMin meet" x="73" y="-169"/>
<text text-anchor="start" x="88" y="-160.2" font-family="Helvetica,sans-Serif" font-size="11.00">fk_provider</text>
<polygon fill="none" stroke="black" points="68,-134 68,-152 192,-152 192,-134 68,-134"/>
<text text-anchor="start" x="71" y="-140.2" font-family="Helvetica,sans-Serif" font-size="11.00">...</text>
<polygon fill="#ffffff" stroke="transparent" points="68,-116 68,-134 123,-134 123,-116 68,-116"/>
<polygon fill="none" stroke="black" points="68,-116 68,-134 123,-134 123,-116 68,-116"/>
<text text-anchor="start" x="71" y="-122.2" font-family="Helvetica,sans-Serif" font-size="11.00">&lt; 2</text>
<polygon fill="#ffffff" stroke="transparent" points="123,-116 123,-134 153,-134 153,-116 123,-116"/>
<polygon fill="none" stroke="black" points="123,-116 123,-134 153,-134 153,-116 123,-116"/>
<text text-anchor="start" x="143" y="-122.2" font-family="Helvetica,sans-Serif" font-size="11.00"> &#160;</text>
<polygon fill="#ffffff" stroke="transparent" points="153,-116 153,-134 192,-134 192,-116 153,-116"/>
<polygon fill="none" stroke="black" points="153,-116 153,-134 192,-134 192,-116 153,-116"/>
<text text-anchor="start" x="173" y="-122.2" font-family="Helvetica,sans-Serif" font-size="11.00">3 &gt;</text>
</a>
</g>
</g>
<!-- dss15_planning_zone&#45;&gt;zone -->
<g id="edge2" class="edge">
<title>dss15_planning_zone:w&#45;&gt;zone:e</title>
<path fill="none" stroke="black" d="M292.05,-158.85C245.07,-166.86 247.26,-229 193,-229"/>
<polygon fill="black" stroke="black" points="301.38,-154.08 302.03,-162.05 300.43,-162.18 299.78,-154.21 301.38,-154.08"/>
<polyline fill="none" stroke="black" points="302.5,-158 298.51,-158.32 "/>
<ellipse fill="none" stroke="black" cx="295.32" cy="-158.58" rx="3.2" ry="3.2"/>
</g>
</g>
</svg>
