<?xml version="1.0" encoding="UTF-8" standalone="no"?>
<!DOCTYPE svg PUBLIC "-//W3C//DTD SVG 1.1//EN"
 "http://www.w3.org/Graphics/SVG/1.1/DTD/svg11.dtd">
<!-- Generated by graphviz version 2.47.1 (20210515.0534)
 -->
<!-- Title: oneDegreeRelationshipsDiagram Pages: 1 -->
<svg width="535pt" height="318pt"
 viewBox="0.00 0.00 535.00 318.00" xmlns="http://www.w3.org/2000/svg" xmlns:xlink="http://www.w3.org/1999/xlink">
<g id="graph0" class="graph" transform="scale(1 1) rotate(0) translate(4 314)">
<title>oneDegreeRelationshipsDiagram</title>
<polygon fill="#ffffff" stroke="transparent" points="-4,4 -4,-314 531,-314 531,4 -4,4"/>
<text text-anchor="middle" x="73.5" y="-7.2" font-family="Helvetica,sans-Serif" font-size="11.00">Generated by SchemaSpy</text>
<!-- electric_equipment -->
<g id="node1" class="node">
<title>electric_equipment</title>
<g id="a_node1"><a xlink:href="../../tables/electric_equipment.html" xlink:title="electric_equipment" target="_top">
<polygon fill="#ffffff" stroke="transparent" points="292,-94 292,-226 519,-226 519,-94 292,-94"/>
<polygon fill="#f5f5f5" stroke="transparent" points="294.5,-202 294.5,-224 517.5,-224 517.5,-202 294.5,-202"/>
<polygon fill="none" stroke="black" points="294.5,-202 294.5,-224 517.5,-224 517.5,-202 294.5,-202"/>
<text text-anchor="start" x="299.5" y="-211.2" font-family="Helvetica,sans-Serif" font-weight="bold" font-size="11.00">electric_equipment</text>
<text text-anchor="start" x="478.5" y="-210.2" font-family="Helvetica,sans-Serif" font-size="11.00">[table]</text>
<polygon fill="none" stroke="black" points="294.5,-180 294.5,-202 439.5,-202 439.5,-180 294.5,-180"/>
<image xlink:href="../../images/primaryKeys.png" width="11px" height="12px" preserveAspectRatio="xMinYMin meet" x="299.5" y="-197"/>
<text text-anchor="start" x="314.5" y="-188.2" font-family="Helvetica,sans-Serif" font-size="11.00">obj_id</text>
<polygon fill="none" stroke="black" points="439.5,-180 439.5,-202 517.5,-202 517.5,-180 439.5,-180"/>
<text text-anchor="start" x="442.5" y="-188.2" font-family="Helvetica,sans-Serif" font-size="11.00">varchar[16]</text>
<polygon fill="none" stroke="black" points="294.5,-158 294.5,-180 439.5,-180 439.5,-158 294.5,-158"/>
<text text-anchor="start" x="314.5" y="-166.2" font-family="Helvetica,sans-Serif" font-size="11.00">gross_costs</text>
<polygon fill="none" stroke="black" points="439.5,-158 439.5,-180 517.5,-180 517.5,-158 439.5,-158"/>
<text text-anchor="start" x="442.5" y="-166.2" font-family="Helvetica,sans-Serif" font-size="11.00">numeric[10,2]</text>
<polygon fill="none" stroke="black" points="294.5,-136 294.5,-158 439.5,-158 439.5,-136 294.5,-136"/>
<image xlink:href="../../images/foreignKeys.png" width="11px" height="12px" preserveAspectRatio="xMinYMin meet" x="299.5" y="-153"/>
<text text-anchor="start" x="314.5" y="-144.2" font-family="Helvetica,sans-Serif" font-size="11.00">kind</text>
<polygon fill="none" stroke="black" points="439.5,-136 439.5,-158 517.5,-158 517.5,-136 439.5,-136"/>
<text text-anchor="start" x="442.5" y="-144.2" font-family="Helvetica,sans-Serif" font-size="11.00">int4[10]</text>
<polygon fill="none" stroke="black" points="294.5,-114 294.5,-136 439.5,-136 439.5,-114 294.5,-114"/>
<text text-anchor="start" x="314.5" y="-122.2" font-family="Helvetica,sans-Serif" font-size="11.00">year_of_replacement</text>
<polygon fill="none" stroke="black" points="439.5,-114 439.5,-136 517.5,-136 517.5,-114 439.5,-114"/>
<text text-anchor="start" x="442.5" y="-122.2" font-family="Helvetica,sans-Serif" font-size="11.00">int2[5]</text>
<polygon fill="#ffffff" stroke="transparent" points="294.5,-96 294.5,-114 371.5,-114 371.5,-96 294.5,-96"/>
<polygon fill="none" stroke="black" points="294.5,-96 294.5,-114 371.5,-114 371.5,-96 294.5,-96"/>
<text text-anchor="start" x="297.5" y="-102.2" font-family="Helvetica,sans-Serif" font-size="11.00">&lt; 2</text>
<polygon fill="#ffffff" stroke="transparent" points="371.5,-96 371.5,-114 439.5,-114 439.5,-96 371.5,-96"/>
<polygon fill="none" stroke="black" points="371.5,-96 371.5,-114 439.5,-114 439.5,-96 371.5,-96"/>
<text text-anchor="start" x="429.5" y="-102.2" font-family="Helvetica,sans-Serif" font-size="11.00"> &#160;</text>
<polygon fill="#ffffff" stroke="transparent" points="439.5,-96 439.5,-114 517.5,-114 517.5,-96 439.5,-96"/>
<polygon fill="none" stroke="black" points="439.5,-96 439.5,-114 517.5,-114 517.5,-96 439.5,-96"/>
<text text-anchor="start" x="498.5" y="-102.2" font-family="Helvetica,sans-Serif" font-size="11.00">0 &gt;</text>
<polygon fill="none" stroke="black" stroke-width="2" points="293,-95 293,-225 518,-225 518,-95 293,-95"/>
</a>
</g>
</g>
<!-- tww_vl.electric_equipment_kind -->
<g id="node2" class="node">
<title>tww_vl.electric_equipment_kind</title>
<g id="a_node2"><a xlink:href="../../../tww_vl/tables/electric_equipment_kind.html" xlink:title="tww_vl.electric_equipment_kind" target="_top">
<polygon fill="#ffffff" stroke="transparent" points="8,-37 8,-95 243,-95 243,-37 8,-37"/>
<polygon fill="#f5f5f5" stroke="transparent" points="8.5,-73 8.5,-95 243.5,-95 243.5,-73 8.5,-73"/>
<polygon fill="none" stroke="black" points="8.5,-73 8.5,-95 243.5,-95 243.5,-73 8.5,-73"/>
<text text-anchor="start" x="13.5" y="-82.2" font-family="Helvetica,sans-Serif" font-weight="bold" font-size="11.00">tww_vl.electric_equipment_kind</text>
<text text-anchor="start" x="204.5" y="-81.2" font-family="Helvetica,sans-Serif" font-size="11.00">[table]</text>
<polygon fill="none" stroke="black" points="8.5,-55 8.5,-73 243.5,-73 243.5,-55 8.5,-55"/>
<text text-anchor="start" x="11.5" y="-61.2" font-family="Helvetica,sans-Serif" font-size="11.00">...</text>
<polygon fill="#ffffff" stroke="transparent" points="8.5,-37 8.5,-55 101.5,-55 101.5,-37 8.5,-37"/>
<polygon fill="none" stroke="black" points="8.5,-37 8.5,-55 101.5,-55 101.5,-37 8.5,-37"/>
<text text-anchor="start" x="11.5" y="-43.2" font-family="Helvetica,sans-Serif" font-size="11.00"> &#160;</text>
<polygon fill="#ffffff" stroke="transparent" points="101.5,-37 101.5,-55 181.5,-55 181.5,-37 101.5,-37"/>
<polygon fill="none" stroke="black" points="101.5,-37 101.5,-55 181.5,-55 181.5,-37 101.5,-37"/>
<text text-anchor="start" x="144.5" y="-43.2" font-family="Helvetica,sans-Serif" font-size="11.00">0 rows</text>
<polygon fill="#ffffff" stroke="transparent" points="181.5,-37 181.5,-55 243.5,-55 243.5,-37 181.5,-37"/>
<polygon fill="none" stroke="black" points="181.5,-37 181.5,-55 243.5,-55 243.5,-37 181.5,-37"/>
<text text-anchor="start" x="224.5" y="-43.2" font-family="Helvetica,sans-Serif" font-size="11.00">1 &gt;</text>
</a>
</g>
</g>
<!-- electric_equipment&#45;&gt;tww_vl.electric_equipment_kind -->
<g id="edge1" class="edge">
<title>electric_equipment:w&#45;&gt;tww_vl.electric_equipment_kind:e</title>
<path fill="none" stroke="black" d="M279.52,-142.89C268.51,-134.53 268.42,-115.48 251,-105 247.6,-102.96 244.09,-101.01 240.49,-99.16"/>
<polygon fill="black" stroke="black" points="285.83,-144.74 292.48,-150.45 289.66,-145.87 293.5,-147 293.5,-147 293.5,-147 289.66,-145.87 294.52,-143.55 285.83,-144.74 285.83,-144.74"/>
<ellipse fill="none" stroke="black" cx="282.76" cy="-143.84" rx="3.2" ry="3.2"/>
</g>
<!-- structure_part -->
<g id="node3" class="node">
<title>structure_part</title>
<g id="a_node3"><a xlink:href="../../tables/structure_part.html" xlink:title="structure_part" target="_top">
<polygon fill="#ffffff" stroke="transparent" points="40.5,-116 40.5,-306 210.5,-306 210.5,-116 40.5,-116"/>
<polygon fill="#f5f5f5" stroke="transparent" points="40.5,-284 40.5,-306 210.5,-306 210.5,-284 40.5,-284"/>
<polygon fill="none" stroke="black" points="40.5,-284 40.5,-306 210.5,-306 210.5,-284 40.5,-284"/>
<text text-anchor="start" x="45.5" y="-293.2" font-family="Helvetica,sans-Serif" font-weight="bold" font-size="11.00">structure_part</text>
<text text-anchor="start" x="171.5" y="-292.2" font-family="Helvetica,sans-Serif" font-size="11.00">[table]</text>
<polygon fill="none" stroke="black" points="40.5,-262 40.5,-284 210.5,-284 210.5,-262 40.5,-262"/>
<image xlink:href="../../images/primaryKeys.png" width="11px" height="12px" preserveAspectRatio="xMinYMin meet" x="45.5" y="-279"/>
<text text-anchor="start" x="60.5" y="-270.2" font-family="Helvetica,sans-Serif" font-size="11.00">obj_id</text>
<polygon fill="#ffffff" stroke="transparent" points="40.5,-240 40.5,-262 210.5,-262 210.5,-240 40.5,-240"/>
<polygon fill="none" stroke="black" points="40.5,-240 40.5,-262 210.5,-262 210.5,-240 40.5,-240"/>
<text text-anchor="start" x="60.5" y="-248.2" font-family="Helvetica,sans-Serif" font-size="11.00">identifier</text>
<polygon fill="none" stroke="black" points="40.5,-218 40.5,-240 210.5,-240 210.5,-218 40.5,-218"/>
<image xlink:href="../../images/foreignKeys.png" width="11px" height="12px" preserveAspectRatio="xMinYMin meet" x="45.5" y="-235"/>
<text text-anchor="start" x="60.5" y="-226.2" font-family="Helvetica,sans-Serif" font-size="11.00">renovation_demand</text>
<polygon fill="#ffffff" stroke="transparent" points="40.5,-196 40.5,-218 210.5,-218 210.5,-196 40.5,-196"/>
<polygon fill="none" stroke="black" points="40.5,-196 40.5,-218 210.5,-218 210.5,-196 40.5,-196"/>
<image xlink:href="../../images/foreignKeys.png" width="11px" height="12px" preserveAspectRatio="xMinYMin meet" x="45.5" y="-213"/>
<text text-anchor="start" x="60.5" y="-204.2" font-family="Helvetica,sans-Serif" font-size="11.00">fk_dataowner</text>
<polygon fill="none" stroke="black" points="40.5,-174 40.5,-196 210.5,-196 210.5,-174 40.5,-174"/>
<image xlink:href="../../images/foreignKeys.png" width="11px" height="12px" preserveAspectRatio="xMinYMin meet" x="45.5" y="-191"/>
<text text-anchor="start" x="60.5" y="-182.2" font-family="Helvetica,sans-Serif" font-size="11.00">fk_provider</text>
<polygon fill="none" stroke="black" points="40.5,-152 40.5,-174 210.5,-174 210.5,-152 40.5,-152"/>
<image xlink:href="../../images/foreignKeys.png" width="11px" height="12px" preserveAspectRatio="xMinYMin meet" x="45.5" y="-169"/>
<text text-anchor="start" x="60.5" y="-160.2" font-family="Helvetica,sans-Serif" font-size="11.00">fk_wastewater_structure</text>
<polygon fill="none" stroke="black" points="40.5,-134 40.5,-152 210.5,-152 210.5,-134 40.5,-134"/>
<text text-anchor="start" x="43.5" y="-140.2" font-family="Helvetica,sans-Serif" font-size="11.00">...</text>
<polygon fill="#ffffff" stroke="transparent" points="40.5,-116 40.5,-134 115.5,-134 115.5,-116 40.5,-116"/>
<polygon fill="none" stroke="black" points="40.5,-116 40.5,-134 115.5,-134 115.5,-116 40.5,-116"/>
<text text-anchor="start" x="43.5" y="-122.2" font-family="Helvetica,sans-Serif" font-size="11.00">&lt; 4</text>
<polygon fill="#ffffff" stroke="transparent" points="115.5,-116 115.5,-134 155.5,-134 155.5,-116 115.5,-116"/>
<polygon fill="none" stroke="black" points="115.5,-116 115.5,-134 155.5,-134 155.5,-116 115.5,-116"/>
<text text-anchor="start" x="145.5" y="-122.2" font-family="Helvetica,sans-Serif" font-size="11.00"> &#160;</text>
<polygon fill="#ffffff" stroke="transparent" points="155.5,-116 155.5,-134 210.5,-134 210.5,-116 155.5,-116"/>
<polygon fill="none" stroke="black" points="155.5,-116 155.5,-134 210.5,-134 210.5,-116 155.5,-116"/>
<text text-anchor="start" x="185.5" y="-122.2" font-family="Helvetica,sans-Serif" font-size="11.00">12 &gt;</text>
</a>
</g>
</g>
<!-- electric_equipment&#45;&gt;structure_part -->
<g id="edge2" class="edge">
<title>electric_equipment:w&#45;&gt;structure_part:e</title>
<path fill="none" stroke="black" d="M283.16,-192.29C244.69,-202.72 259.21,-273 211.5,-273"/>
<polygon fill="black" stroke="black" points="292.21,-187.13 293.2,-195.07 291.61,-195.27 290.62,-187.33 292.21,-187.13"/>
<polyline fill="none" stroke="black" points="293.5,-191 289.53,-191.49 "/>
<ellipse fill="none" stroke="black" cx="286.36" cy="-191.89" rx="3.2" ry="3.2"/>
</g>
</g>
</svg>
