<?xml version="1.0" encoding="UTF-8" standalone="no"?>
<!DOCTYPE svg PUBLIC "-//W3C//DTD SVG 1.1//EN"
 "http://www.w3.org/Graphics/SVG/1.1/DTD/svg11.dtd">
<!-- Generated by graphviz version 2.47.1 (20210515.0534)
 -->
<!-- Title: oneDegreeRelationshipsDiagram Pages: 1 -->
<svg width="626pt" height="457pt"
 viewBox="0.00 0.00 626.00 457.00" xmlns="http://www.w3.org/2000/svg" xmlns:xlink="http://www.w3.org/1999/xlink">
<g id="graph0" class="graph" transform="scale(1 1) rotate(0) translate(4 453)">
<title>oneDegreeRelationshipsDiagram</title>
<polygon fill="#ffffff" stroke="transparent" points="-4,4 -4,-453 622,-453 622,4 -4,4"/>
<text text-anchor="middle" x="73.5" y="-7.2" font-family="Helvetica,sans-Serif" font-size="11.00">Generated by SchemaSpy</text>
<!-- hq_relation -->
<g id="node1" class="node">
<title>hq_relation</title>
<g id="a_node1"><a xlink:href="../../tables/hq_relation.html" xlink:title="hq_relation" target="_top">
<polygon fill="#ffffff" stroke="transparent" points="391,-225 391,-445 610,-445 610,-225 391,-225"/>
<polygon fill="#f5f5f5" stroke="transparent" points="393.5,-421 393.5,-443 608.5,-443 608.5,-421 393.5,-421"/>
<polygon fill="none" stroke="black" points="393.5,-421 393.5,-443 608.5,-443 608.5,-421 393.5,-421"/>
<text text-anchor="start" x="398.5" y="-430.2" font-family="Helvetica,sans-Serif" font-weight="bold" font-size="11.00">hq_relation</text>
<text text-anchor="start" x="569.5" y="-429.2" font-family="Helvetica,sans-Serif" font-size="11.00">[table]</text>
<polygon fill="none" stroke="black" points="393.5,-399 393.5,-421 517.5,-421 517.5,-399 393.5,-399"/>
<image xlink:href="../../images/primaryKeys.png" width="11px" height="12px" preserveAspectRatio="xMinYMin meet" x="398.5" y="-416"/>
<text text-anchor="start" x="413.5" y="-407.2" font-family="Helvetica,sans-Serif" font-size="11.00">obj_id</text>
<polygon fill="none" stroke="black" points="517.5,-399 517.5,-421 608.5,-421 608.5,-399 517.5,-399"/>
<text text-anchor="start" x="520.5" y="-407.2" font-family="Helvetica,sans-Serif" font-size="11.00">varchar[16]</text>
<polygon fill="none" stroke="black" points="393.5,-377 393.5,-399 517.5,-399 517.5,-377 393.5,-377"/>
<text text-anchor="start" x="413.5" y="-385.2" font-family="Helvetica,sans-Serif" font-size="11.00">altitude</text>
<polygon fill="none" stroke="black" points="517.5,-377 517.5,-399 608.5,-399 608.5,-377 517.5,-377"/>
<text text-anchor="start" x="520.5" y="-385.2" font-family="Helvetica,sans-Serif" font-size="11.00">numeric[7,3]</text>
<polygon fill="none" stroke="black" points="393.5,-355 393.5,-377 517.5,-377 517.5,-355 393.5,-355"/>
<text text-anchor="start" x="413.5" y="-363.2" font-family="Helvetica,sans-Serif" font-size="11.00">flow</text>
<polygon fill="none" stroke="black" points="517.5,-355 517.5,-377 608.5,-377 608.5,-355 517.5,-355"/>
<text text-anchor="start" x="520.5" y="-363.2" font-family="Helvetica,sans-Serif" font-size="11.00">numeric[9,3]</text>
<polygon fill="none" stroke="black" points="393.5,-333 393.5,-355 517.5,-355 517.5,-333 393.5,-333"/>
<text text-anchor="start" x="413.5" y="-341.2" font-family="Helvetica,sans-Serif" font-size="11.00">flow_from</text>
<polygon fill="none" stroke="black" points="517.5,-333 517.5,-355 608.5,-355 608.5,-333 517.5,-333"/>
<text text-anchor="start" x="520.5" y="-341.2" font-family="Helvetica,sans-Serif" font-size="11.00">numeric[9,3]</text>
<polygon fill="none" stroke="black" points="393.5,-311 393.5,-333 517.5,-333 517.5,-311 393.5,-311"/>
<text text-anchor="start" x="413.5" y="-319.2" font-family="Helvetica,sans-Serif" font-size="11.00">last_modification</text>
<polygon fill="none" stroke="black" points="517.5,-311 517.5,-333 608.5,-333 608.5,-311 517.5,-311"/>
<text text-anchor="start" x="520.5" y="-319.2" font-family="Helvetica,sans-Serif" font-size="11.00">timestamp[29,6]</text>
<polygon fill="none" stroke="black" points="393.5,-289 393.5,-311 517.5,-311 517.5,-289 393.5,-289"/>
<image xlink:href="../../images/foreignKeys.png" width="11px" height="12px" preserveAspectRatio="xMinYMin meet" x="398.5" y="-306"/>
<text text-anchor="start" x="413.5" y="-297.2" font-family="Helvetica,sans-Serif" font-size="11.00">fk_dataowner</text>
<polygon fill="none" stroke="black" points="517.5,-289 517.5,-311 608.5,-311 608.5,-289 517.5,-289"/>
<text text-anchor="start" x="520.5" y="-297.2" font-family="Helvetica,sans-Serif" font-size="11.00">varchar[16]</text>
<polygon fill="none" stroke="black" points="393.5,-267 393.5,-289 517.5,-289 517.5,-267 393.5,-267"/>
<image xlink:href="../../images/foreignKeys.png" width="11px" height="12px" preserveAspectRatio="xMinYMin meet" x="398.5" y="-284"/>
<text text-anchor="start" x="413.5" y="-275.2" font-family="Helvetica,sans-Serif" font-size="11.00">fk_provider</text>
<polygon fill="none" stroke="black" points="517.5,-267 517.5,-289 608.5,-289 608.5,-267 517.5,-267"/>
<text text-anchor="start" x="520.5" y="-275.2" font-family="Helvetica,sans-Serif" font-size="11.00">varchar[16]</text>
<polygon fill="none" stroke="black" points="393.5,-245 393.5,-267 517.5,-267 517.5,-245 393.5,-245"/>
<image xlink:href="../../images/foreignKeys.png" width="11px" height="12px" preserveAspectRatio="xMinYMin meet" x="398.5" y="-262"/>
<text text-anchor="start" x="413.5" y="-253.2" font-family="Helvetica,sans-Serif" font-size="11.00">fk_overflow_char</text>
<polygon fill="none" stroke="black" points="517.5,-245 517.5,-267 608.5,-267 608.5,-245 517.5,-245"/>
<text text-anchor="start" x="520.5" y="-253.2" font-family="Helvetica,sans-Serif" font-size="11.00">varchar[16]</text>
<polygon fill="#ffffff" stroke="transparent" points="393.5,-227 393.5,-245 459.5,-245 459.5,-227 393.5,-227"/>
<polygon fill="none" stroke="black" points="393.5,-227 393.5,-245 459.5,-245 459.5,-227 393.5,-227"/>
<text text-anchor="start" x="396.5" y="-233.2" font-family="Helvetica,sans-Serif" font-size="11.00">&lt; 3</text>
<polygon fill="#ffffff" stroke="transparent" points="459.5,-227 459.5,-245 517.5,-245 517.5,-227 459.5,-227"/>
<polygon fill="none" stroke="black" points="459.5,-227 459.5,-245 517.5,-245 517.5,-227 459.5,-227"/>
<text text-anchor="start" x="507.5" y="-233.2" font-family="Helvetica,sans-Serif" font-size="11.00"> &#160;</text>
<polygon fill="#ffffff" stroke="transparent" points="517.5,-227 517.5,-245 608.5,-245 608.5,-227 517.5,-227"/>
<polygon fill="none" stroke="black" points="517.5,-227 517.5,-245 608.5,-245 608.5,-227 517.5,-227"/>
<text text-anchor="start" x="589.5" y="-233.2" font-family="Helvetica,sans-Serif" font-size="11.00">0 &gt;</text>
<polygon fill="none" stroke="black" stroke-width="2" points="392,-226 392,-444 609,-444 609,-226 392,-226"/>
</a>
</g>
</g>
<!-- organisation -->
<g id="node2" class="node">
<title>organisation</title>
<g id="a_node2"><a xlink:href="../../tables/organisation.html" xlink:title="organisation" target="_top">
<polygon fill="#ffffff" stroke="transparent" points="8,-37 8,-249 156,-249 156,-37 8,-37"/>
<polygon fill="#f5f5f5" stroke="transparent" points="8,-227 8,-249 156,-249 156,-227 8,-227"/>
<polygon fill="none" stroke="black" points="8,-227 8,-249 156,-249 156,-227 8,-227"/>
<text text-anchor="start" x="13" y="-236.2" font-family="Helvetica,sans-Serif" font-weight="bold" font-size="11.00">organisation</text>
<text text-anchor="start" x="117" y="-235.2" font-family="Helvetica,sans-Serif" font-size="11.00">[table]</text>
<polygon fill="none" stroke="black" points="8,-205 8,-227 156,-227 156,-205 8,-205"/>
<image xlink:href="../../images/primaryKeys.png" width="11px" height="12px" preserveAspectRatio="xMinYMin meet" x="13" y="-222"/>
<text text-anchor="start" x="28" y="-213.2" font-family="Helvetica,sans-Serif" font-size="11.00">obj_id</text>
<polygon fill="#ffffff" stroke="transparent" points="8,-183 8,-205 156,-205 156,-183 8,-183"/>
<polygon fill="none" stroke="black" points="8,-183 8,-205 156,-205 156,-183 8,-183"/>
<text text-anchor="start" x="28" y="-191.2" font-family="Helvetica,sans-Serif" font-size="11.00">identifier</text>
<polygon fill="#ffffff" stroke="transparent" points="8,-161 8,-183 156,-183 156,-161 8,-161"/>
<polygon fill="none" stroke="black" points="8,-161 8,-183 156,-183 156,-161 8,-161"/>
<image xlink:href="../../images/foreignKeys.png" width="11px" height="12px" preserveAspectRatio="xMinYMin meet" x="13" y="-178"/>
<text text-anchor="start" x="28" y="-169.2" font-family="Helvetica,sans-Serif" font-size="11.00">organisation_type</text>
<polygon fill="none" stroke="black" points="8,-139 8,-161 156,-161 156,-139 8,-139"/>
<image xlink:href="../../images/foreignKeys.png" width="11px" height="12px" preserveAspectRatio="xMinYMin meet" x="13" y="-156"/>
<text text-anchor="start" x="28" y="-147.2" font-family="Helvetica,sans-Serif" font-size="11.00">status</text>
<polygon fill="#ffffff" stroke="transparent" points="8,-117 8,-139 156,-139 156,-117 8,-117"/>
<polygon fill="none" stroke="black" points="8,-117 8,-139 156,-139 156,-117 8,-117"/>
<text text-anchor="start" x="28" y="-125.2" font-family="Helvetica,sans-Serif" font-size="11.00">uid</text>
<polygon fill="none" stroke="black" points="8,-95 8,-117 156,-117 156,-95 8,-95"/>
<image xlink:href="../../images/foreignKeys.png" width="11px" height="12px" preserveAspectRatio="xMinYMin meet" x="13" y="-112"/>
<text text-anchor="start" x="28" y="-103.2" font-family="Helvetica,sans-Serif" font-size="11.00">fk_dataowner</text>
<polygon fill="none" stroke="black" points="8,-73 8,-95 156,-95 156,-73 8,-73"/>
<image xlink:href="../../images/foreignKeys.png" width="11px" height="12px" preserveAspectRatio="xMinYMin meet" x="13" y="-90"/>
<text text-anchor="start" x="28" y="-81.2" font-family="Helvetica,sans-Serif" font-size="11.00">fk_provider</text>
<polygon fill="none" stroke="black" points="8,-55 8,-73 156,-73 156,-55 8,-55"/>
<text text-anchor="start" x="11" y="-61.2" font-family="Helvetica,sans-Serif" font-size="11.00">...</text>
<polygon fill="#ffffff" stroke="transparent" points="8,-37 8,-55 72,-55 72,-37 8,-37"/>
<polygon fill="none" stroke="black" points="8,-37 8,-55 72,-55 72,-37 8,-37"/>
<text text-anchor="start" x="11" y="-43.2" font-family="Helvetica,sans-Serif" font-size="11.00">&lt; 4</text>
<polygon fill="#ffffff" stroke="transparent" points="72,-37 72,-55 106,-55 106,-37 72,-37"/>
<polygon fill="none" stroke="black" points="72,-37 72,-55 106,-55 106,-37 72,-37"/>
<text text-anchor="start" x="96" y="-43.2" font-family="Helvetica,sans-Serif" font-size="11.00"> &#160;</text>
<polygon fill="#ffffff" stroke="transparent" points="106,-37 106,-55 156,-55 156,-37 106,-37"/>
<polygon fill="none" stroke="black" points="106,-37 106,-55 156,-55 156,-37 106,-37"/>
<text text-anchor="start" x="131" y="-43.2" font-family="Helvetica,sans-Serif" font-size="11.00">98 &gt;</text>
</a>
</g>
</g>
<!-- hq_relation&#45;&gt;organisation -->
<g id="edge1" class="edge">
<title>hq_relation:w&#45;&gt;organisation:e</title>
<path fill="none" stroke="black" d="M377.72,-300.33C301.24,-303.76 266.32,-331.71 197,-288 166.03,-268.48 193.61,-216 157,-216"/>
<polygon fill="black" stroke="black" points="384.5,-300.18 392.58,-303.6 388.5,-300.09 392.5,-300 392.5,-300 392.5,-300 388.5,-300.09 392.42,-296.4 384.5,-300.18 384.5,-300.18"/>
<ellipse fill="none" stroke="black" cx="381.3" cy="-300.25" rx="3.2" ry="3.2"/>
</g>
<!-- hq_relation&#45;&gt;organisation -->
<g id="edge3" class="edge">
<title>hq_relation:w&#45;&gt;organisation:e</title>
<path fill="none" stroke="black" d="M377.75,-278.25C301.61,-280.79 269.97,-301.42 197,-264 172.29,-251.33 184.77,-216 157,-216"/>
<polygon fill="black" stroke="black" points="384.5,-278.13 392.56,-281.6 388.5,-278.07 392.5,-278 392.5,-278 392.5,-278 388.5,-278.07 392.44,-274.4 384.5,-278.13 384.5,-278.13"/>
<ellipse fill="none" stroke="black" cx="381.3" cy="-278.19" rx="3.2" ry="3.2"/>
</g>
<!-- overflow_char -->
<g id="node3" class="node">
<title>overflow_char</title>
<g id="a_node3"><a xlink:href="../../tables/overflow_char.html" xlink:title="overflow_char" target="_top">
<polygon fill="#ffffff" stroke="transparent" points="205,-86 205,-254 342,-254 342,-86 205,-86"/>
<polygon fill="#f5f5f5" stroke="transparent" points="205.5,-232 205.5,-254 342.5,-254 342.5,-232 205.5,-232"/>
<polygon fill="none" stroke="black" points="205.5,-232 205.5,-254 342.5,-254 342.5,-232 205.5,-232"/>
<text text-anchor="start" x="210.5" y="-241.2" font-family="Helvetica,sans-Serif" font-weight="bold" font-size="11.00">overflow_char</text>
<text text-anchor="start" x="303.5" y="-240.2" font-family="Helvetica,sans-Serif" font-size="11.00">[table]</text>
<polygon fill="none" stroke="black" points="205.5,-210 205.5,-232 342.5,-232 342.5,-210 205.5,-210"/>
<image xlink:href="../../images/primaryKeys.png" width="11px" height="12px" preserveAspectRatio="xMinYMin meet" x="210.5" y="-227"/>
<text text-anchor="start" x="225.5" y="-218.2" font-family="Helvetica,sans-Serif" font-size="11.00">obj_id</text>
<polygon fill="#ffffff" stroke="transparent" points="205.5,-188 205.5,-210 342.5,-210 342.5,-188 205.5,-188"/>
<polygon fill="none" stroke="black" points="205.5,-188 205.5,-210 342.5,-210 342.5,-188 205.5,-188"/>
<text text-anchor="start" x="225.5" y="-196.2" font-family="Helvetica,sans-Serif" font-size="11.00">identifier</text>
<polygon fill="none" stroke="black" points="205.5,-166 205.5,-188 342.5,-188 342.5,-166 205.5,-166"/>
<image xlink:href="../../images/foreignKeys.png" width="11px" height="12px" preserveAspectRatio="xMinYMin meet" x="210.5" y="-183"/>
<text text-anchor="start" x="225.5" y="-174.2" font-family="Helvetica,sans-Serif" font-size="11.00">kind_overflow_char</text>
<polygon fill="#ffffff" stroke="transparent" points="205.5,-144 205.5,-166 342.5,-166 342.5,-144 205.5,-144"/>
<polygon fill="none" stroke="black" points="205.5,-144 205.5,-166 342.5,-166 342.5,-144 205.5,-144"/>
<image xlink:href="../../images/foreignKeys.png" width="11px" height="12px" preserveAspectRatio="xMinYMin meet" x="210.5" y="-161"/>
<text text-anchor="start" x="225.5" y="-152.2" font-family="Helvetica,sans-Serif" font-size="11.00">fk_dataowner</text>
<polygon fill="none" stroke="black" points="205.5,-122 205.5,-144 342.5,-144 342.5,-122 205.5,-122"/>
<image xlink:href="../../images/foreignKeys.png" width="11px" height="12px" preserveAspectRatio="xMinYMin meet" x="210.5" y="-139"/>
<text text-anchor="start" x="225.5" y="-130.2" font-family="Helvetica,sans-Serif" font-size="11.00">fk_provider</text>
<polygon fill="none" stroke="black" points="205.5,-104 205.5,-122 342.5,-122 342.5,-104 205.5,-104"/>
<text text-anchor="start" x="208.5" y="-110.2" font-family="Helvetica,sans-Serif" font-size="11.00">...</text>
<polygon fill="#ffffff" stroke="transparent" points="205.5,-86 205.5,-104 267.5,-104 267.5,-86 205.5,-86"/>
<polygon fill="none" stroke="black" points="205.5,-86 205.5,-104 267.5,-104 267.5,-86 205.5,-86"/>
<text text-anchor="start" x="208.5" y="-92.2" font-family="Helvetica,sans-Serif" font-size="11.00">&lt; 3</text>
<polygon fill="#ffffff" stroke="transparent" points="267.5,-86 267.5,-104 300.5,-104 300.5,-86 267.5,-86"/>
<polygon fill="none" stroke="black" points="267.5,-86 267.5,-104 300.5,-104 300.5,-86 267.5,-86"/>
<text text-anchor="start" x="290.5" y="-92.2" font-family="Helvetica,sans-Serif" font-size="11.00"> &#160;</text>
<polygon fill="#ffffff" stroke="transparent" points="300.5,-86 300.5,-104 342.5,-104 342.5,-86 300.5,-86"/>
<polygon fill="none" stroke="black" points="300.5,-86 300.5,-104 342.5,-104 342.5,-86 300.5,-86"/>
<text text-anchor="start" x="323.5" y="-92.2" font-family="Helvetica,sans-Serif" font-size="11.00">3 &gt;</text>
</a>
</g>
</g>
<!-- hq_relation&#45;&gt;overflow_char -->
<g id="edge2" class="edge">
<title>hq_relation:w&#45;&gt;overflow_char:e</title>
<path fill="none" stroke="black" d="M378.4,-251.42C366.18,-241.94 364.2,-221 343.5,-221"/>
<polygon fill="black" stroke="black" points="384.89,-253.53 391.39,-259.42 388.7,-254.77 392.5,-256 392.5,-256 392.5,-256 388.7,-254.77 393.61,-252.58 384.89,-253.53 384.89,-253.53"/>
<ellipse fill="none" stroke="black" cx="381.85" cy="-252.54" rx="3.2" ry="3.2"/>
</g>
<!-- overflow_char&#45;&gt;organisation -->
<g id="edge4" class="edge">
<title>overflow_char:w&#45;&gt;organisation:e</title>
<path fill="none" stroke="black" d="M190.72,-160.2C175.97,-174.95 185.19,-216 157,-216"/>
<polygon fill="black" stroke="black" points="197.02,-157.82 205.77,-158.37 200.76,-156.41 204.5,-155 204.5,-155 204.5,-155 200.76,-156.41 203.23,-151.63 197.02,-157.82 197.02,-157.82"/>
<ellipse fill="none" stroke="black" cx="194.02" cy="-158.95" rx="3.2" ry="3.2"/>
</g>
<!-- overflow_char&#45;&gt;organisation -->
<g id="edge5" class="edge">
<title>overflow_char:w&#45;&gt;organisation:e</title>
<path fill="none" stroke="black" d="M190.6,-137.7C171.17,-155.26 193.36,-216 157,-216"/>
<polygon fill="black" stroke="black" points="196.92,-135.56 205.65,-136.41 200.71,-134.28 204.5,-133 204.5,-133 204.5,-133 200.71,-134.28 203.35,-129.59 196.92,-135.56 196.92,-135.56"/>
<ellipse fill="none" stroke="black" cx="193.89" cy="-136.59" rx="3.2" ry="3.2"/>
</g>
</g>
</svg>
