<?xml version="1.0" encoding="UTF-8" standalone="no"?>
<!DOCTYPE svg PUBLIC "-//W3C//DTD SVG 1.1//EN"
 "http://www.w3.org/Graphics/SVG/1.1/DTD/svg11.dtd">
<!-- Generated by graphviz version 2.47.1 (20210515.0534)
 -->
<!-- Title: oneDegreeRelationshipsDiagram Pages: 1 -->
<svg width="511pt" height="472pt"
 viewBox="0.00 0.00 511.00 472.00" xmlns="http://www.w3.org/2000/svg" xmlns:xlink="http://www.w3.org/1999/xlink">
<g id="graph0" class="graph" transform="scale(1 1) rotate(0) translate(4 468)">
<title>oneDegreeRelationshipsDiagram</title>
<polygon fill="#ffffff" stroke="transparent" points="-4,4 -4,-468 507,-468 507,4 -4,4"/>
<text text-anchor="middle" x="73.5" y="-7.2" font-family="Helvetica,sans-Serif" font-size="11.00">Generated by SchemaSpy</text>
<!-- leapingweir -->
<g id="node1" class="node">
<title>leapingweir</title>
<g id="a_node1"><a xlink:href="../../tables/leapingweir.html" xlink:title="leapingweir" target="_top">
<polygon fill="#ffffff" stroke="transparent" points="309,-171 309,-303 495,-303 495,-171 309,-171"/>
<polygon fill="#f5f5f5" stroke="transparent" points="311,-279 311,-301 493,-301 493,-279 311,-279"/>
<polygon fill="none" stroke="black" points="311,-279 311,-301 493,-301 493,-279 311,-279"/>
<text text-anchor="start" x="316" y="-288.2" font-family="Helvetica,sans-Serif" font-weight="bold" font-size="11.00">leapingweir</text>
<text text-anchor="start" x="454" y="-287.2" font-family="Helvetica,sans-Serif" font-size="11.00">[table]</text>
<polygon fill="none" stroke="black" points="311,-257 311,-279 421,-279 421,-257 311,-257"/>
<image xlink:href="../../images/primaryKeys.png" width="11px" height="12px" preserveAspectRatio="xMinYMin meet" x="316" y="-274"/>
<text text-anchor="start" x="331" y="-265.2" font-family="Helvetica,sans-Serif" font-size="11.00">obj_id</text>
<polygon fill="none" stroke="black" points="421,-257 421,-279 493,-279 493,-257 421,-257"/>
<text text-anchor="start" x="424" y="-265.2" font-family="Helvetica,sans-Serif" font-size="11.00">varchar[16]</text>
<polygon fill="none" stroke="black" points="311,-235 311,-257 421,-257 421,-235 311,-235"/>
<text text-anchor="start" x="331" y="-243.2" font-family="Helvetica,sans-Serif" font-size="11.00">length</text>
<polygon fill="none" stroke="black" points="421,-235 421,-257 493,-257 493,-235 421,-235"/>
<text text-anchor="start" x="424" y="-243.2" font-family="Helvetica,sans-Serif" font-size="11.00">numeric[7,2]</text>
<polygon fill="none" stroke="black" points="311,-213 311,-235 421,-235 421,-213 311,-213"/>
<image xlink:href="../../images/foreignKeys.png" width="11px" height="12px" preserveAspectRatio="xMinYMin meet" x="316" y="-230"/>
<text text-anchor="start" x="331" y="-221.2" font-family="Helvetica,sans-Serif" font-size="11.00">opening_shape</text>
<polygon fill="none" stroke="black" points="421,-213 421,-235 493,-235 493,-213 421,-213"/>
<text text-anchor="start" x="424" y="-221.2" font-family="Helvetica,sans-Serif" font-size="11.00">int4[10]</text>
<polygon fill="none" stroke="black" points="311,-191 311,-213 421,-213 421,-191 311,-191"/>
<text text-anchor="start" x="331" y="-199.2" font-family="Helvetica,sans-Serif" font-size="11.00">width</text>
<polygon fill="none" stroke="black" points="421,-191 421,-213 493,-213 493,-191 421,-191"/>
<text text-anchor="start" x="424" y="-199.2" font-family="Helvetica,sans-Serif" font-size="11.00">numeric[7,2]</text>
<polygon fill="#ffffff" stroke="transparent" points="311,-173 311,-191 370,-191 370,-173 311,-173"/>
<polygon fill="none" stroke="black" points="311,-173 311,-191 370,-191 370,-173 311,-173"/>
<text text-anchor="start" x="314" y="-179.2" font-family="Helvetica,sans-Serif" font-size="11.00">&lt; 2</text>
<polygon fill="#ffffff" stroke="transparent" points="370,-173 370,-191 421,-191 421,-173 370,-173"/>
<polygon fill="none" stroke="black" points="370,-173 370,-191 421,-191 421,-173 370,-173"/>
<text text-anchor="start" x="411" y="-179.2" font-family="Helvetica,sans-Serif" font-size="11.00"> &#160;</text>
<polygon fill="#ffffff" stroke="transparent" points="421,-173 421,-191 493,-191 493,-173 421,-173"/>
<polygon fill="none" stroke="black" points="421,-173 421,-191 493,-191 493,-173 421,-173"/>
<text text-anchor="start" x="474" y="-179.2" font-family="Helvetica,sans-Serif" font-size="11.00">0 &gt;</text>
<polygon fill="none" stroke="black" stroke-width="2" points="310,-172 310,-302 494,-302 494,-172 310,-172"/>
</a>
</g>
</g>
<!-- overflow -->
<g id="node2" class="node">
<title>overflow</title>
<g id="a_node2"><a xlink:href="../../tables/overflow.html" xlink:title="overflow" target="_top">
<polygon fill="#ffffff" stroke="transparent" points="62,-116 62,-460 206,-460 206,-116 62,-116"/>
<polygon fill="#f5f5f5" stroke="transparent" points="62,-438 62,-460 206,-460 206,-438 62,-438"/>
<polygon fill="none" stroke="black" points="62,-438 62,-460 206,-460 206,-438 62,-438"/>
<text text-anchor="start" x="66.5" y="-447.2" font-family="Helvetica,sans-Serif" font-weight="bold" font-size="11.00">overflow</text>
<text text-anchor="start" x="167" y="-446.2" font-family="Helvetica,sans-Serif" font-size="11.00">[table]</text>
<polygon fill="none" stroke="black" points="62,-416 62,-438 206,-438 206,-416 62,-416"/>
<image xlink:href="../../images/primaryKeys.png" width="11px" height="12px" preserveAspectRatio="xMinYMin meet" x="67" y="-433"/>
<text text-anchor="start" x="82" y="-424.2" font-family="Helvetica,sans-Serif" font-size="11.00">obj_id</text>
<polygon fill="none" stroke="black" points="62,-394 62,-416 206,-416 206,-394 62,-394"/>
<image xlink:href="../../images/foreignKeys.png" width="11px" height="12px" preserveAspectRatio="xMinYMin meet" x="67" y="-411"/>
<text text-anchor="start" x="82" y="-402.2" font-family="Helvetica,sans-Serif" font-size="11.00">actuation</text>
<polygon fill="none" stroke="black" points="62,-372 62,-394 206,-394 206,-372 62,-372"/>
<image xlink:href="../../images/foreignKeys.png" width="11px" height="12px" preserveAspectRatio="xMinYMin meet" x="67" y="-389"/>
<text text-anchor="start" x="82" y="-380.2" font-family="Helvetica,sans-Serif" font-size="11.00">adjustability</text>
<polygon fill="none" stroke="black" points="62,-350 62,-372 206,-372 206,-350 62,-350"/>
<image xlink:href="../../images/foreignKeys.png" width="11px" height="12px" preserveAspectRatio="xMinYMin meet" x="67" y="-367"/>
<text text-anchor="start" x="82" y="-358.2" font-family="Helvetica,sans-Serif" font-size="11.00">control</text>
<polygon fill="none" stroke="black" points="62,-328 62,-350 206,-350 206,-328 62,-328"/>
<image xlink:href="../../images/foreignKeys.png" width="11px" height="12px" preserveAspectRatio="xMinYMin meet" x="67" y="-345"/>
<text text-anchor="start" x="82" y="-336.2" font-family="Helvetica,sans-Serif" font-size="11.00">function</text>
<polygon fill="#ffffff" stroke="transparent" points="62,-306 62,-328 206,-328 206,-306 62,-306"/>
<polygon fill="none" stroke="black" points="62,-306 62,-328 206,-328 206,-306 62,-306"/>
<text text-anchor="start" x="82" y="-314.2" font-family="Helvetica,sans-Serif" font-size="11.00">identifier</text>
<polygon fill="none" stroke="black" points="62,-284 62,-306 206,-306 206,-284 62,-284"/>
<image xlink:href="../../images/foreignKeys.png" width="11px" height="12px" preserveAspectRatio="xMinYMin meet" x="67" y="-301"/>
<text text-anchor="start" x="82" y="-292.2" font-family="Helvetica,sans-Serif" font-size="11.00">signal_transmission</text>
<polygon fill="#ffffff" stroke="transparent" points="62,-262 62,-284 206,-284 206,-262 62,-262"/>
<polygon fill="none" stroke="black" points="62,-262 62,-284 206,-284 206,-262 62,-262"/>
<image xlink:href="../../images/foreignKeys.png" width="11px" height="12px" preserveAspectRatio="xMinYMin meet" x="67" y="-279"/>
<text text-anchor="start" x="82" y="-270.2" font-family="Helvetica,sans-Serif" font-size="11.00">fk_dataowner</text>
<polygon fill="none" stroke="black" points="62,-240 62,-262 206,-262 206,-240 62,-240"/>
<image xlink:href="../../images/foreignKeys.png" width="11px" height="12px" preserveAspectRatio="xMinYMin meet" x="67" y="-257"/>
<text text-anchor="start" x="82" y="-248.2" font-family="Helvetica,sans-Serif" font-size="11.00">fk_provider</text>
<polygon fill="none" stroke="black" points="62,-218 62,-240 206,-240 206,-218 62,-218"/>
<image xlink:href="../../images/foreignKeys.png" width="11px" height="12px" preserveAspectRatio="xMinYMin meet" x="67" y="-235"/>
<text text-anchor="start" x="82" y="-226.2" font-family="Helvetica,sans-Serif" font-size="11.00">fk_wastewater_node</text>
<polygon fill="none" stroke="black" points="62,-196 62,-218 206,-218 206,-196 62,-196"/>
<image xlink:href="../../images/foreignKeys.png" width="11px" height="12px" preserveAspectRatio="xMinYMin meet" x="67" y="-213"/>
<text text-anchor="start" x="82" y="-204.2" font-family="Helvetica,sans-Serif" font-size="11.00">fk_overflow_to</text>
<polygon fill="none" stroke="black" points="62,-174 62,-196 206,-196 206,-174 62,-174"/>
<image xlink:href="../../images/foreignKeys.png" width="11px" height="12px" preserveAspectRatio="xMinYMin meet" x="67" y="-191"/>
<text text-anchor="start" x="82" y="-182.2" font-family="Helvetica,sans-Serif" font-size="11.00">fk_overflow_char</text>
<polygon fill="none" stroke="black" points="62,-152 62,-174 206,-174 206,-152 62,-152"/>
<image xlink:href="../../images/foreignKeys.png" width="11px" height="12px" preserveAspectRatio="xMinYMin meet" x="67" y="-169"/>
<text text-anchor="start" x="82" y="-160.2" font-family="Helvetica,sans-Serif" font-size="11.00">fk_control_center</text>
<polygon fill="none" stroke="black" points="62,-134 62,-152 206,-152 206,-134 62,-134"/>
<text text-anchor="start" x="65" y="-140.2" font-family="Helvetica,sans-Serif" font-size="11.00">...</text>
<polygon fill="#ffffff" stroke="transparent" points="62,-116 62,-134 130,-134 130,-116 62,-116"/>
<polygon fill="none" stroke="black" points="62,-116 62,-134 130,-134 130,-116 62,-116"/>
<text text-anchor="start" x="65" y="-122.2" font-family="Helvetica,sans-Serif" font-size="11.00">&lt; 11</text>
<polygon fill="#ffffff" stroke="transparent" points="130,-116 130,-134 163,-134 163,-116 130,-116"/>
<polygon fill="none" stroke="black" points="130,-116 130,-134 163,-134 163,-116 130,-116"/>
<text text-anchor="start" x="153" y="-122.2" font-family="Helvetica,sans-Serif" font-size="11.00"> &#160;</text>
<polygon fill="#ffffff" stroke="transparent" points="163,-116 163,-134 206,-134 206,-116 163,-116"/>
<polygon fill="none" stroke="black" points="163,-116 163,-134 206,-134 206,-116 163,-116"/>
<text text-anchor="start" x="187" y="-122.2" font-family="Helvetica,sans-Serif" font-size="11.00">4 &gt;</text>
</a>
</g>
</g>
<!-- leapingweir&#45;&gt;overflow -->
<g id="edge1" class="edge">
<title>leapingweir:w&#45;&gt;overflow:e</title>
<path fill="none" stroke="black" d="M299.53,-268.93C231.38,-281.96 287.42,-427 207,-427"/>
<polygon fill="black" stroke="black" points="308.85,-264.09 309.56,-272.06 307.96,-272.2 307.25,-264.23 308.85,-264.09"/>
<polyline fill="none" stroke="black" points="310,-268 306.02,-268.36 "/>
<ellipse fill="none" stroke="black" cx="302.83" cy="-268.64" rx="3.2" ry="3.2"/>
</g>
<!-- tww_vl.leapingweir_opening_shape -->
<g id="node3" class="node">
<title>tww_vl.leapingweir_opening_shape</title>
<g id="a_node3"><a xlink:href="../../../tww_vl/tables/leapingweir_opening_shape.html" xlink:title="tww_vl.leapingweir_opening_shape" target="_top">
<polygon fill="#ffffff" stroke="transparent" points="8,-37 8,-95 260,-95 260,-37 8,-37"/>
<polygon fill="#f5f5f5" stroke="transparent" points="8,-73 8,-95 260,-95 260,-73 8,-73"/>
<polygon fill="none" stroke="black" points="8,-73 8,-95 260,-95 260,-73 8,-73"/>
<text text-anchor="start" x="13" y="-82.2" font-family="Helvetica,sans-Serif" font-weight="bold" font-size="11.00">tww_vl.leapingweir_opening_shape</text>
<text text-anchor="start" x="221" y="-81.2" font-family="Helvetica,sans-Serif" font-size="11.00">[table]</text>
<polygon fill="none" stroke="black" points="8,-55 8,-73 260,-73 260,-55 8,-55"/>
<text text-anchor="start" x="11" y="-61.2" font-family="Helvetica,sans-Serif" font-size="11.00">...</text>
<polygon fill="#ffffff" stroke="transparent" points="8,-37 8,-55 109,-55 109,-37 8,-37"/>
<polygon fill="none" stroke="black" points="8,-37 8,-55 109,-55 109,-37 8,-37"/>
<text text-anchor="start" x="11" y="-43.2" font-family="Helvetica,sans-Serif" font-size="11.00"> &#160;</text>
<polygon fill="#ffffff" stroke="transparent" points="109,-37 109,-55 193,-55 193,-37 109,-37"/>
<polygon fill="none" stroke="black" points="109,-37 109,-55 193,-55 193,-37 109,-37"/>
<text text-anchor="start" x="156" y="-43.2" font-family="Helvetica,sans-Serif" font-size="11.00">0 rows</text>
<polygon fill="#ffffff" stroke="transparent" points="193,-37 193,-55 260,-55 260,-37 193,-37"/>
<polygon fill="none" stroke="black" points="193,-37 193,-55 260,-55 260,-37 193,-37"/>
<text text-anchor="start" x="241" y="-43.2" font-family="Helvetica,sans-Serif" font-size="11.00">1 &gt;</text>
</a>
</g>
</g>
<!-- leapingweir&#45;&gt;tww_vl.leapingweir_opening_shape -->
<g id="edge2" class="edge">
<title>leapingweir:w&#45;&gt;tww_vl.leapingweir_opening_shape:e</title>
<path fill="none" stroke="black" d="M295.81,-221.48C264.67,-207.66 304.08,-140.32 268,-106 265.47,-103.59 262.79,-101.32 260.01,-99.2"/>
<polygon fill="black" stroke="black" points="302.12,-222.6 309.37,-227.54 306.06,-223.3 310,-224 310,-224 310,-224 306.06,-223.3 310.63,-220.46 302.12,-222.6 302.12,-222.6"/>
<ellipse fill="none" stroke="black" cx="298.97" cy="-222.05" rx="3.2" ry="3.2"/>
</g>
</g>
</svg>
