<?xml version="1.0" encoding="UTF-8" standalone="no"?>
<!DOCTYPE svg PUBLIC "-//W3C//DTD SVG 1.1//EN"
 "http://www.w3.org/Graphics/SVG/1.1/DTD/svg11.dtd">
<!-- Generated by graphviz version 2.47.1 (20210515.0534)
 -->
<!-- Title: oneDegreeRelationshipsDiagram Pages: 1 -->
<svg width="950pt" height="696pt"
 viewBox="0.00 0.00 950.00 696.00" xmlns="http://www.w3.org/2000/svg" xmlns:xlink="http://www.w3.org/1999/xlink">
<g id="graph0" class="graph" transform="scale(1 1) rotate(0) translate(4 692)">
<title>oneDegreeRelationshipsDiagram</title>
<polygon fill="#ffffff" stroke="transparent" points="-4,4 -4,-692 946,-692 946,4 -4,4"/>
<text text-anchor="middle" x="73.5" y="-7.2" font-family="Helvetica,sans-Serif" font-size="11.00">Generated by SchemaSpy</text>
<!-- measurement_result -->
<g id="node1" class="node">
<title>measurement_result</title>
<g id="a_node1"><a xlink:href="../../tables/measurement_result.html" xlink:title="measurement_result" target="_top">
<polygon fill="#ffffff" stroke="transparent" points="766,-472 766,-684 934,-684 934,-472 766,-472"/>
<polygon fill="#f5f5f5" stroke="transparent" points="766,-662 766,-684 934,-684 934,-662 766,-662"/>
<polygon fill="none" stroke="black" points="766,-662 766,-684 934,-684 934,-662 766,-662"/>
<text text-anchor="start" x="771" y="-671.2" font-family="Helvetica,sans-Serif" font-weight="bold" font-size="11.00">measurement_result</text>
<text text-anchor="start" x="895" y="-670.2" font-family="Helvetica,sans-Serif" font-size="11.00">[table]</text>
<polygon fill="none" stroke="black" points="766,-640 766,-662 934,-662 934,-640 766,-640"/>
<image xlink:href="../../images/primaryKeys.png" width="11px" height="12px" preserveAspectRatio="xMinYMin meet" x="771" y="-657"/>
<text text-anchor="start" x="789" y="-648.2" font-family="Helvetica,sans-Serif" font-size="11.00">obj_id</text>
<polygon fill="#ffffff" stroke="transparent" points="766,-618 766,-640 934,-640 934,-618 766,-618"/>
<polygon fill="none" stroke="black" points="766,-618 766,-640 934,-640 934,-618 766,-618"/>
<text text-anchor="start" x="789" y="-626.2" font-family="Helvetica,sans-Serif" font-size="11.00">identifier</text>
<polygon fill="none" stroke="black" points="766,-596 766,-618 934,-618 934,-596 766,-596"/>
<image xlink:href="../../images/foreignKeys.png" width="11px" height="12px" preserveAspectRatio="xMinYMin meet" x="771" y="-613"/>
<text text-anchor="start" x="789" y="-604.2" font-family="Helvetica,sans-Serif" font-size="11.00">measurement_type</text>
<polygon fill="#ffffff" stroke="transparent" points="766,-574 766,-596 934,-596 934,-574 766,-574"/>
<polygon fill="none" stroke="black" points="766,-574 766,-596 934,-596 934,-574 766,-574"/>
<image xlink:href="../../images/foreignKeys.png" width="11px" height="12px" preserveAspectRatio="xMinYMin meet" x="771" y="-591"/>
<text text-anchor="start" x="789" y="-582.2" font-family="Helvetica,sans-Serif" font-size="11.00">fk_dataowner</text>
<polygon fill="none" stroke="black" points="766,-552 766,-574 934,-574 934,-552 766,-552"/>
<image xlink:href="../../images/foreignKeys.png" width="11px" height="12px" preserveAspectRatio="xMinYMin meet" x="771" y="-569"/>
<text text-anchor="start" x="789" y="-560.2" font-family="Helvetica,sans-Serif" font-size="11.00">fk_provider</text>
<polygon fill="none" stroke="black" points="766,-530 766,-552 934,-552 934,-530 766,-530"/>
<image xlink:href="../../images/foreignKeys.png" width="11px" height="12px" preserveAspectRatio="xMinYMin meet" x="771" y="-547"/>
<text text-anchor="start" x="789" y="-538.2" font-family="Helvetica,sans-Serif" font-size="11.00">fk_measuring_device</text>
<polygon fill="none" stroke="black" points="766,-508 766,-530 934,-530 934,-508 766,-508"/>
<image xlink:href="../../images/foreignKeys.png" width="11px" height="12px" preserveAspectRatio="xMinYMin meet" x="771" y="-525"/>
<text text-anchor="start" x="789" y="-516.2" font-family="Helvetica,sans-Serif" font-size="11.00">fk_measurement_series</text>
<polygon fill="none" stroke="black" points="766,-490 766,-508 934,-508 934,-490 766,-490"/>
<text text-anchor="start" x="769" y="-496.2" font-family="Helvetica,sans-Serif" font-size="11.00">...</text>
<polygon fill="#ffffff" stroke="transparent" points="766,-472 766,-490 848,-490 848,-472 766,-472"/>
<polygon fill="none" stroke="black" points="766,-472 766,-490 848,-490 848,-472 766,-472"/>
<text text-anchor="start" x="769" y="-478.2" font-family="Helvetica,sans-Serif" font-size="11.00">&lt; 5</text>
<polygon fill="#ffffff" stroke="transparent" points="848,-472 848,-490 891,-490 891,-472 848,-472"/>
<polygon fill="none" stroke="black" points="848,-472 848,-490 891,-490 891,-472 848,-472"/>
<text text-anchor="start" x="881" y="-478.2" font-family="Helvetica,sans-Serif" font-size="11.00"> &#160;</text>
<polygon fill="#ffffff" stroke="transparent" points="891,-472 891,-490 934,-490 934,-472 891,-472"/>
<polygon fill="none" stroke="black" points="891,-472 891,-490 934,-490 934,-472 891,-472"/>
<text text-anchor="start" x="924" y="-478.2" font-family="Helvetica,sans-Serif" font-size="11.00"> &#160;</text>
</a>
</g>
</g>
<!-- organisation -->
<g id="node2" class="node">
<title>organisation</title>
<g id="a_node2"><a xlink:href="../../tables/organisation.html" xlink:title="organisation" target="_top">
<polygon fill="#ffffff" stroke="transparent" points="8,-182 8,-394 156,-394 156,-182 8,-182"/>
<polygon fill="#f5f5f5" stroke="transparent" points="8,-372 8,-394 156,-394 156,-372 8,-372"/>
<polygon fill="none" stroke="black" points="8,-372 8,-394 156,-394 156,-372 8,-372"/>
<text text-anchor="start" x="13" y="-381.2" font-family="Helvetica,sans-Serif" font-weight="bold" font-size="11.00">organisation</text>
<text text-anchor="start" x="117" y="-380.2" font-family="Helvetica,sans-Serif" font-size="11.00">[table]</text>
<polygon fill="none" stroke="black" points="8,-350 8,-372 156,-372 156,-350 8,-350"/>
<image xlink:href="../../images/primaryKeys.png" width="11px" height="12px" preserveAspectRatio="xMinYMin meet" x="13" y="-367"/>
<text text-anchor="start" x="28" y="-358.2" font-family="Helvetica,sans-Serif" font-size="11.00">obj_id</text>
<polygon fill="#ffffff" stroke="transparent" points="8,-328 8,-350 156,-350 156,-328 8,-328"/>
<polygon fill="none" stroke="black" points="8,-328 8,-350 156,-350 156,-328 8,-328"/>
<text text-anchor="start" x="28" y="-336.2" font-family="Helvetica,sans-Serif" font-size="11.00">identifier</text>
<polygon fill="#ffffff" stroke="transparent" points="8,-306 8,-328 156,-328 156,-306 8,-306"/>
<polygon fill="none" stroke="black" points="8,-306 8,-328 156,-328 156,-306 8,-306"/>
<image xlink:href="../../images/foreignKeys.png" width="11px" height="12px" preserveAspectRatio="xMinYMin meet" x="13" y="-323"/>
<text text-anchor="start" x="28" y="-314.2" font-family="Helvetica,sans-Serif" font-size="11.00">organisation_type</text>
<polygon fill="none" stroke="black" points="8,-284 8,-306 156,-306 156,-284 8,-284"/>
<image xlink:href="../../images/foreignKeys.png" width="11px" height="12px" preserveAspectRatio="xMinYMin meet" x="13" y="-301"/>
<text text-anchor="start" x="28" y="-292.2" font-family="Helvetica,sans-Serif" font-size="11.00">status</text>
<polygon fill="#ffffff" stroke="transparent" points="8,-262 8,-284 156,-284 156,-262 8,-262"/>
<polygon fill="none" stroke="black" points="8,-262 8,-284 156,-284 156,-262 8,-262"/>
<text text-anchor="start" x="28" y="-270.2" font-family="Helvetica,sans-Serif" font-size="11.00">uid</text>
<polygon fill="none" stroke="black" points="8,-240 8,-262 156,-262 156,-240 8,-240"/>
<image xlink:href="../../images/foreignKeys.png" width="11px" height="12px" preserveAspectRatio="xMinYMin meet" x="13" y="-257"/>
<text text-anchor="start" x="28" y="-248.2" font-family="Helvetica,sans-Serif" font-size="11.00">fk_dataowner</text>
<polygon fill="none" stroke="black" points="8,-218 8,-240 156,-240 156,-218 8,-218"/>
<image xlink:href="../../images/foreignKeys.png" width="11px" height="12px" preserveAspectRatio="xMinYMin meet" x="13" y="-235"/>
<text text-anchor="start" x="28" y="-226.2" font-family="Helvetica,sans-Serif" font-size="11.00">fk_provider</text>
<polygon fill="none" stroke="black" points="8,-200 8,-218 156,-218 156,-200 8,-200"/>
<text text-anchor="start" x="11" y="-206.2" font-family="Helvetica,sans-Serif" font-size="11.00">...</text>
<polygon fill="#ffffff" stroke="transparent" points="8,-182 8,-200 69,-200 69,-182 8,-182"/>
<polygon fill="none" stroke="black" points="8,-182 8,-200 69,-200 69,-182 8,-182"/>
<text text-anchor="start" x="11" y="-188.2" font-family="Helvetica,sans-Serif" font-size="11.00">&lt; 4</text>
<polygon fill="#ffffff" stroke="transparent" points="69,-182 69,-200 102,-200 102,-182 69,-182"/>
<polygon fill="none" stroke="black" points="69,-182 69,-200 102,-200 102,-182 69,-182"/>
<text text-anchor="start" x="92" y="-188.2" font-family="Helvetica,sans-Serif" font-size="11.00"> &#160;</text>
<polygon fill="#ffffff" stroke="transparent" points="102,-182 102,-200 156,-200 156,-182 102,-182"/>
<polygon fill="none" stroke="black" points="102,-182 102,-200 156,-200 156,-182 102,-182"/>
<text text-anchor="start" x="125" y="-188.2" font-family="Helvetica,sans-Serif" font-size="11.00">101 &gt;</text>
</a>
</g>
</g>
<!-- measurement_result&#45;&gt;organisation -->
<g id="edge1" class="edge">
<title>measurement_result:w&#45;&gt;organisation:e</title>
<path fill="none" stroke="black" d="M750.35,-585.17C507.67,-590.79 385.92,-733 197,-573 123.83,-511.03 252.88,-361 157,-361"/>
<polygon fill="black" stroke="black" points="757,-585.09 765.04,-588.6 761,-585.05 765,-585 765,-585 765,-585 761,-585.05 764.96,-581.4 757,-585.09 757,-585.09"/>
<ellipse fill="none" stroke="black" cx="753.8" cy="-585.13" rx="3.2" ry="3.2"/>
</g>
<!-- measurement_result&#45;&gt;organisation -->
<g id="edge3" class="edge">
<title>measurement_result:w&#45;&gt;organisation:e</title>
<path fill="none" stroke="black" d="M750.34,-563.01C612.73,-563.22 287.19,-564.52 197,-481 155.75,-442.8 213.22,-361 157,-361"/>
<polygon fill="black" stroke="black" points="757,-563.01 765,-566.6 761,-563 765,-563 765,-563 765,-563 761,-563 765,-559.4 757,-563.01 757,-563.01"/>
<ellipse fill="none" stroke="black" cx="753.8" cy="-563.01" rx="3.2" ry="3.2"/>
</g>
<!-- measuring_device -->
<g id="node3" class="node">
<title>measuring_device</title>
<g id="a_node3"><a xlink:href="../../tables/measuring_device.html" xlink:title="measuring_device" target="_top">
<polygon fill="#ffffff" stroke="transparent" points="481,-275 481,-539 717,-539 717,-275 481,-275"/>
<polygon fill="#f5f5f5" stroke="transparent" points="483,-515 483,-537 715,-537 715,-515 483,-515"/>
<polygon fill="none" stroke="black" points="483,-515 483,-537 715,-537 715,-515 483,-515"/>
<text text-anchor="start" x="488" y="-524.2" font-family="Helvetica,sans-Serif" font-weight="bold" font-size="11.00">measuring_device</text>
<text text-anchor="start" x="676" y="-523.2" font-family="Helvetica,sans-Serif" font-size="11.00">[table]</text>
<polygon fill="none" stroke="black" points="483,-493 483,-515 621,-515 621,-493 483,-493"/>
<image xlink:href="../../images/primaryKeys.png" width="11px" height="12px" preserveAspectRatio="xMinYMin meet" x="488" y="-510"/>
<text text-anchor="start" x="503" y="-501.2" font-family="Helvetica,sans-Serif" font-size="11.00">obj_id</text>
<polygon fill="none" stroke="black" points="621,-493 621,-515 715,-515 715,-493 621,-493"/>
<text text-anchor="start" x="624" y="-501.2" font-family="Helvetica,sans-Serif" font-size="11.00">varchar[16]</text>
<polygon fill="none" stroke="black" points="483,-471 483,-493 621,-493 621,-471 483,-471"/>
<text text-anchor="start" x="503" y="-479.2" font-family="Helvetica,sans-Serif" font-size="11.00">brand</text>
<polygon fill="none" stroke="black" points="621,-471 621,-493 715,-493 715,-471 621,-471"/>
<text text-anchor="start" x="624" y="-479.2" font-family="Helvetica,sans-Serif" font-size="11.00">text[2147483647]</text>
<polygon fill="#ffffff" stroke="transparent" points="483,-449 483,-471 621,-471 621,-449 483,-449"/>
<polygon fill="none" stroke="black" points="483,-449 483,-471 621,-471 621,-449 483,-449"/>
<text text-anchor="start" x="503" y="-457.2" font-family="Helvetica,sans-Serif" font-size="11.00">identifier</text>
<polygon fill="none" stroke="black" points="621,-449 621,-471 715,-471 715,-449 621,-449"/>
<text text-anchor="start" x="624" y="-457.2" font-family="Helvetica,sans-Serif" font-size="11.00">text[2147483647]</text>
<polygon fill="none" stroke="black" points="483,-427 483,-449 621,-449 621,-427 483,-427"/>
<image xlink:href="../../images/foreignKeys.png" width="11px" height="12px" preserveAspectRatio="xMinYMin meet" x="488" y="-444"/>
<text text-anchor="start" x="503" y="-435.2" font-family="Helvetica,sans-Serif" font-size="11.00">kind</text>
<polygon fill="none" stroke="black" points="621,-427 621,-449 715,-449 715,-427 621,-427"/>
<text text-anchor="start" x="624" y="-435.2" font-family="Helvetica,sans-Serif" font-size="11.00">int4[10]</text>
<polygon fill="none" stroke="black" points="483,-405 483,-427 621,-427 621,-405 483,-405"/>
<text text-anchor="start" x="503" y="-413.2" font-family="Helvetica,sans-Serif" font-size="11.00">remark</text>
<polygon fill="none" stroke="black" points="621,-405 621,-427 715,-427 715,-405 621,-405"/>
<text text-anchor="start" x="624" y="-413.2" font-family="Helvetica,sans-Serif" font-size="11.00">text[2147483647]</text>
<polygon fill="none" stroke="black" points="483,-383 483,-405 621,-405 621,-383 483,-383"/>
<text text-anchor="start" x="503" y="-391.2" font-family="Helvetica,sans-Serif" font-size="11.00">serial_number</text>
<polygon fill="none" stroke="black" points="621,-383 621,-405 715,-405 715,-383 621,-383"/>
<text text-anchor="start" x="624" y="-391.2" font-family="Helvetica,sans-Serif" font-size="11.00">text[2147483647]</text>
<polygon fill="none" stroke="black" points="483,-361 483,-383 621,-383 621,-361 483,-361"/>
<text text-anchor="start" x="503" y="-369.2" font-family="Helvetica,sans-Serif" font-size="11.00">last_modification</text>
<polygon fill="none" stroke="black" points="621,-361 621,-383 715,-383 715,-361 621,-361"/>
<text text-anchor="start" x="624" y="-369.2" font-family="Helvetica,sans-Serif" font-size="11.00">timestamp[29,6]</text>
<polygon fill="#ffffff" stroke="transparent" points="483,-339 483,-361 621,-361 621,-339 483,-339"/>
<polygon fill="none" stroke="black" points="483,-339 483,-361 621,-361 621,-339 483,-339"/>
<image xlink:href="../../images/foreignKeys.png" width="11px" height="12px" preserveAspectRatio="xMinYMin meet" x="488" y="-356"/>
<text text-anchor="start" x="503" y="-347.2" font-family="Helvetica,sans-Serif" font-size="11.00">fk_dataowner</text>
<polygon fill="none" stroke="black" points="621,-339 621,-361 715,-361 715,-339 621,-339"/>
<text text-anchor="start" x="624" y="-347.2" font-family="Helvetica,sans-Serif" font-size="11.00">varchar[16]</text>
<polygon fill="none" stroke="black" points="483,-317 483,-339 621,-339 621,-317 483,-317"/>
<image xlink:href="../../images/foreignKeys.png" width="11px" height="12px" preserveAspectRatio="xMinYMin meet" x="488" y="-334"/>
<text text-anchor="start" x="503" y="-325.2" font-family="Helvetica,sans-Serif" font-size="11.00">fk_provider</text>
<polygon fill="none" stroke="black" points="621,-317 621,-339 715,-339 715,-317 621,-317"/>
<text text-anchor="start" x="624" y="-325.2" font-family="Helvetica,sans-Serif" font-size="11.00">varchar[16]</text>
<polygon fill="none" stroke="black" points="483,-295 483,-317 621,-317 621,-295 483,-295"/>
<image xlink:href="../../images/foreignKeys.png" width="11px" height="12px" preserveAspectRatio="xMinYMin meet" x="488" y="-312"/>
<text text-anchor="start" x="503" y="-303.2" font-family="Helvetica,sans-Serif" font-size="11.00">fk_measuring_point</text>
<polygon fill="none" stroke="black" points="621,-295 621,-317 715,-317 715,-295 621,-295"/>
<text text-anchor="start" x="624" y="-303.2" font-family="Helvetica,sans-Serif" font-size="11.00">varchar[16]</text>
<polygon fill="#ffffff" stroke="transparent" points="483,-277 483,-295 556,-295 556,-277 483,-277"/>
<polygon fill="none" stroke="black" points="483,-277 483,-295 556,-295 556,-277 483,-277"/>
<text text-anchor="start" x="486" y="-283.2" font-family="Helvetica,sans-Serif" font-size="11.00">&lt; 4</text>
<polygon fill="#ffffff" stroke="transparent" points="556,-277 556,-295 621,-295 621,-277 556,-277"/>
<polygon fill="none" stroke="black" points="556,-277 556,-295 621,-295 621,-277 556,-277"/>
<text text-anchor="start" x="611" y="-283.2" font-family="Helvetica,sans-Serif" font-size="11.00"> &#160;</text>
<polygon fill="#ffffff" stroke="transparent" points="621,-277 621,-295 715,-295 715,-277 621,-277"/>
<polygon fill="none" stroke="black" points="621,-277 621,-295 715,-295 715,-277 621,-277"/>
<text text-anchor="start" x="696" y="-283.2" font-family="Helvetica,sans-Serif" font-size="11.00">1 &gt;</text>
<polygon fill="none" stroke="black" stroke-width="2" points="482,-276 482,-538 716,-538 716,-276 482,-276"/>
</a>
</g>
</g>
<!-- measurement_result&#45;&gt;measuring_device -->
<g id="edge2" class="edge">
<title>measurement_result:w&#45;&gt;measuring_device:e</title>
<path fill="none" stroke="black" d="M751.12,-536.46C738.58,-526.58 737.32,-504 716,-504"/>
<polygon fill="black" stroke="black" points="757.4,-538.51 763.88,-544.42 761.2,-539.76 765,-541 765,-541 765,-541 761.2,-539.76 766.12,-537.58 757.4,-538.51 757.4,-538.51"/>
<ellipse fill="none" stroke="black" cx="754.35" cy="-537.52" rx="3.2" ry="3.2"/>
</g>
<!-- measuring_device&#45;&gt;organisation -->
<g id="edge4" class="edge">
<title>measuring_device:w&#45;&gt;organisation:e</title>
<path fill="none" stroke="black" d="M467.97,-353.4C459.03,-358.42 454.44,-367.59 440,-371 334.89,-395.81 304.19,-384.2 197,-371 178.81,-368.76 175.32,-361 157,-361"/>
<polygon fill="black" stroke="black" points="474.22,-351.88 482.85,-353.5 478.11,-350.94 482,-350 482,-350 482,-350 478.11,-350.94 481.15,-346.5 474.22,-351.88 474.22,-351.88"/>
<ellipse fill="none" stroke="black" cx="471.11" cy="-352.63" rx="3.2" ry="3.2"/>
</g>
<!-- measuring_device&#45;&gt;organisation -->
<g id="edge6" class="edge">
<title>measuring_device:w&#45;&gt;organisation:e</title>
<path fill="none" stroke="black" d="M467.72,-331.31C458.92,-336.02 454.1,-344.47 440,-348 317.85,-378.56 282.91,-361 157,-361"/>
<polygon fill="black" stroke="black" points="474.21,-329.81 482.81,-331.51 478.1,-328.9 482,-328 482,-328 482,-328 478.1,-328.9 481.19,-324.49 474.21,-329.81 474.21,-329.81"/>
<ellipse fill="none" stroke="black" cx="471.09" cy="-330.53" rx="3.2" ry="3.2"/>
</g>
<!-- measuring_point -->
<g id="node4" class="node">
<title>measuring_point</title>
<g id="a_node4"><a xlink:href="../../tables/measuring_point.html" xlink:title="measuring_point" target="_top">
<polygon fill="#ffffff" stroke="transparent" points="210,-37 210,-337 427,-337 427,-37 210,-37"/>
<polygon fill="#f5f5f5" stroke="transparent" points="210.5,-315 210.5,-337 427.5,-337 427.5,-315 210.5,-315"/>
<polygon fill="none" stroke="black" points="210.5,-315 210.5,-337 427.5,-337 427.5,-315 210.5,-315"/>
<text text-anchor="start" x="215.5" y="-324.2" font-family="Helvetica,sans-Serif" font-weight="bold" font-size="11.00">measuring_point</text>
<text text-anchor="start" x="388.5" y="-323.2" font-family="Helvetica,sans-Serif" font-size="11.00">[table]</text>
<polygon fill="none" stroke="black" points="210.5,-293 210.5,-315 427.5,-315 427.5,-293 210.5,-293"/>
<image xlink:href="../../images/primaryKeys.png" width="11px" height="12px" preserveAspectRatio="xMinYMin meet" x="215.5" y="-310"/>
<text text-anchor="start" x="230.5" y="-301.2" font-family="Helvetica,sans-Serif" font-size="11.00">obj_id</text>
<polygon fill="none" stroke="black" points="210.5,-271 210.5,-293 427.5,-293 427.5,-271 210.5,-271"/>
<image xlink:href="../../images/foreignKeys.png" width="11px" height="12px" preserveAspectRatio="xMinYMin meet" x="215.5" y="-288"/>
<text text-anchor="start" x="230.5" y="-279.2" font-family="Helvetica,sans-Serif" font-size="11.00">damming_device</text>
<polygon fill="#ffffff" stroke="transparent" points="210.5,-249 210.5,-271 427.5,-271 427.5,-249 210.5,-249"/>
<polygon fill="none" stroke="black" points="210.5,-249 210.5,-271 427.5,-271 427.5,-249 210.5,-249"/>
<text text-anchor="start" x="230.5" y="-257.2" font-family="Helvetica,sans-Serif" font-size="11.00">identifier</text>
<polygon fill="none" stroke="black" points="210.5,-227 210.5,-249 427.5,-249 427.5,-227 210.5,-227"/>
<image xlink:href="../../images/foreignKeys.png" width="11px" height="12px" preserveAspectRatio="xMinYMin meet" x="215.5" y="-244"/>
<text text-anchor="start" x="230.5" y="-235.2" font-family="Helvetica,sans-Serif" font-size="11.00">purpose</text>
<polygon fill="#ffffff" stroke="transparent" points="210.5,-205 210.5,-227 427.5,-227 427.5,-205 210.5,-205"/>
<polygon fill="none" stroke="black" points="210.5,-205 210.5,-227 427.5,-227 427.5,-205 210.5,-205"/>
<text text-anchor="start" x="230.5" y="-213.2" font-family="Helvetica,sans-Serif" font-size="11.00">situation_geometry</text>
<polygon fill="#ffffff" stroke="transparent" points="210.5,-183 210.5,-205 427.5,-205 427.5,-183 210.5,-183"/>
<polygon fill="none" stroke="black" points="210.5,-183 210.5,-205 427.5,-205 427.5,-183 210.5,-183"/>
<image xlink:href="../../images/foreignKeys.png" width="11px" height="12px" preserveAspectRatio="xMinYMin meet" x="215.5" y="-200"/>
<text text-anchor="start" x="230.5" y="-191.2" font-family="Helvetica,sans-Serif" font-size="11.00">fk_dataowner</text>
<polygon fill="none" stroke="black" points="210.5,-161 210.5,-183 427.5,-183 427.5,-161 210.5,-161"/>
<image xlink:href="../../images/foreignKeys.png" width="11px" height="12px" preserveAspectRatio="xMinYMin meet" x="215.5" y="-178"/>
<text text-anchor="start" x="230.5" y="-169.2" font-family="Helvetica,sans-Serif" font-size="11.00">fk_provider</text>
<polygon fill="none" stroke="black" points="210.5,-139 210.5,-161 427.5,-161 427.5,-139 210.5,-139"/>
<image xlink:href="../../images/foreignKeys.png" width="11px" height="12px" preserveAspectRatio="xMinYMin meet" x="215.5" y="-156"/>
<text text-anchor="start" x="230.5" y="-147.2" font-family="Helvetica,sans-Serif" font-size="11.00">fk_reference_station</text>
<polygon fill="none" stroke="black" points="210.5,-117 210.5,-139 427.5,-139 427.5,-117 210.5,-117"/>
<image xlink:href="../../images/foreignKeys.png" width="11px" height="12px" preserveAspectRatio="xMinYMin meet" x="215.5" y="-134"/>
<text text-anchor="start" x="230.5" y="-125.2" font-family="Helvetica,sans-Serif" font-size="11.00">fk_operator</text>
<polygon fill="none" stroke="black" points="210.5,-95 210.5,-117 427.5,-117 427.5,-95 210.5,-95"/>
<image xlink:href="../../images/foreignKeys.png" width="11px" height="12px" preserveAspectRatio="xMinYMin meet" x="215.5" y="-112"/>
<text text-anchor="start" x="230.5" y="-103.2" font-family="Helvetica,sans-Serif" font-size="11.00">fk_waste_water_treatment_plant</text>
<polygon fill="none" stroke="black" points="210.5,-73 210.5,-95 427.5,-95 427.5,-73 210.5,-73"/>
<image xlink:href="../../images/foreignKeys.png" width="11px" height="12px" preserveAspectRatio="xMinYMin meet" x="215.5" y="-90"/>
<text text-anchor="start" x="230.5" y="-81.2" font-family="Helvetica,sans-Serif" font-size="11.00">fk_wastewater_structure</text>
<polygon fill="none" stroke="black" points="210.5,-55 210.5,-73 427.5,-73 427.5,-55 210.5,-55"/>
<text text-anchor="start" x="213.5" y="-61.2" font-family="Helvetica,sans-Serif" font-size="11.00">...</text>
<polygon fill="#ffffff" stroke="transparent" points="210.5,-37 210.5,-55 312.5,-55 312.5,-37 210.5,-37"/>
<polygon fill="none" stroke="black" points="210.5,-37 210.5,-55 312.5,-55 312.5,-37 210.5,-37"/>
<text text-anchor="start" x="213.5" y="-43.2" font-family="Helvetica,sans-Serif" font-size="11.00">&lt; 8</text>
<polygon fill="#ffffff" stroke="transparent" points="312.5,-37 312.5,-55 365.5,-55 365.5,-37 312.5,-37"/>
<polygon fill="none" stroke="black" points="312.5,-37 312.5,-55 365.5,-55 365.5,-37 312.5,-37"/>
<text text-anchor="start" x="355.5" y="-43.2" font-family="Helvetica,sans-Serif" font-size="11.00"> &#160;</text>
<polygon fill="#ffffff" stroke="transparent" points="365.5,-37 365.5,-55 427.5,-55 427.5,-37 365.5,-37"/>
<polygon fill="none" stroke="black" points="365.5,-37 365.5,-55 427.5,-55 427.5,-37 365.5,-37"/>
<text text-anchor="start" x="408.5" y="-43.2" font-family="Helvetica,sans-Serif" font-size="11.00">3 &gt;</text>
</a>
</g>
</g>
<!-- measuring_device&#45;&gt;measuring_point -->
<g id="edge5" class="edge">
<title>measuring_device:w&#45;&gt;measuring_point:e</title>
<path fill="none" stroke="black" d="M467.35,-305.7C454.29,-305.15 446.53,-304 428.5,-304"/>
<polygon fill="black" stroke="black" points="474,-305.84 481.93,-309.6 478,-305.92 482,-306 482,-306 482,-306 478,-305.92 482.07,-302.4 474,-305.84 474,-305.84"/>
<ellipse fill="none" stroke="black" cx="470.8" cy="-305.77" rx="3.2" ry="3.2"/>
</g>
<!-- tww_vl.measuring_device_kind -->
<g id="node5" class="node">
<title>tww_vl.measuring_device_kind</title>
<g id="a_node5"><a xlink:href="../../../tww_vl/tables/measuring_device_kind.html" xlink:title="tww_vl.measuring_device_kind" target="_top">
<polygon fill="#ffffff" stroke="transparent" points="205,-412 205,-470 432,-470 432,-412 205,-412"/>
<polygon fill="#f5f5f5" stroke="transparent" points="205.5,-448 205.5,-470 432.5,-470 432.5,-448 205.5,-448"/>
<polygon fill="none" stroke="black" points="205.5,-448 205.5,-470 432.5,-470 432.5,-448 205.5,-448"/>
<text text-anchor="start" x="210.5" y="-457.2" font-family="Helvetica,sans-Serif" font-weight="bold" font-size="11.00">tww_vl.measuring_device_kind</text>
<text text-anchor="start" x="393.5" y="-456.2" font-family="Helvetica,sans-Serif" font-size="11.00">[table]</text>
<polygon fill="none" stroke="black" points="205.5,-430 205.5,-448 432.5,-448 432.5,-430 205.5,-430"/>
<text text-anchor="start" x="208.5" y="-436.2" font-family="Helvetica,sans-Serif" font-size="11.00">...</text>
<polygon fill="#ffffff" stroke="transparent" points="205.5,-412 205.5,-430 294.5,-430 294.5,-412 205.5,-412"/>
<polygon fill="none" stroke="black" points="205.5,-412 205.5,-430 294.5,-430 294.5,-412 205.5,-412"/>
<text text-anchor="start" x="208.5" y="-418.2" font-family="Helvetica,sans-Serif" font-size="11.00"> &#160;</text>
<polygon fill="#ffffff" stroke="transparent" points="294.5,-412 294.5,-430 372.5,-430 372.5,-412 294.5,-412"/>
<polygon fill="none" stroke="black" points="294.5,-412 294.5,-430 372.5,-430 372.5,-412 294.5,-412"/>
<text text-anchor="start" x="335.5" y="-418.2" font-family="Helvetica,sans-Serif" font-size="11.00">0 rows</text>
<polygon fill="#ffffff" stroke="transparent" points="372.5,-412 372.5,-430 432.5,-430 432.5,-412 372.5,-412"/>
<polygon fill="none" stroke="black" points="372.5,-412 372.5,-430 432.5,-430 432.5,-412 372.5,-412"/>
<text text-anchor="start" x="413.5" y="-418.2" font-family="Helvetica,sans-Serif" font-size="11.00">1 &gt;</text>
</a>
</g>
</g>
<!-- measuring_device&#45;&gt;tww_vl.measuring_device_kind -->
<g id="edge7" class="edge">
<title>measuring_device:w&#45;&gt;tww_vl.measuring_device_kind:e</title>
<path fill="none" stroke="black" d="M467.51,-438.04C458.5,-438.08 449.32,-438.17 440.18,-438.28"/>
<polygon fill="black" stroke="black" points="474,-438.02 482.01,-441.6 478,-438.01 482,-438 482,-438 482,-438 478,-438.01 481.99,-434.4 474,-438.02 474,-438.02"/>
<ellipse fill="none" stroke="black" cx="470.8" cy="-438.03" rx="3.2" ry="3.2"/>
</g>
<!-- measuring_point&#45;&gt;organisation -->
<g id="edge8" class="edge">
<title>measuring_point:w&#45;&gt;organisation:e</title>
<path fill="none" stroke="black" d="M195.02,-196.62C146,-217.87 229.03,-361 157,-361"/>
<polygon fill="black" stroke="black" points="201.63,-195.43 210.14,-197.54 205.56,-194.71 209.5,-194 209.5,-194 209.5,-194 205.56,-194.71 208.86,-190.46 201.63,-195.43 201.63,-195.43"/>
<ellipse fill="none" stroke="black" cx="198.48" cy="-196" rx="3.2" ry="3.2"/>
</g>
<!-- measuring_point&#45;&gt;organisation -->
<g id="edge9" class="edge">
<title>measuring_point:w&#45;&gt;organisation:e</title>
<path fill="none" stroke="black" d="M194.85,-129.88C119.46,-151.93 257.55,-361 157,-361"/>
<polygon fill="black" stroke="black" points="201.56,-129.02 209.96,-131.57 205.53,-128.51 209.5,-128 209.5,-128 209.5,-128 205.53,-128.51 209.04,-124.43 201.56,-129.02 201.56,-129.02"/>
<ellipse fill="none" stroke="black" cx="198.39" cy="-129.42" rx="3.2" ry="3.2"/>
</g>
<!-- measuring_point&#45;&gt;organisation -->
<g id="edge10" class="edge">
<title>measuring_point:w&#45;&gt;organisation:e</title>
<path fill="none" stroke="black" d="M195.14,-174.25C137.16,-195.58 238.56,-361 157,-361"/>
<polygon fill="black" stroke="black" points="201.6,-173.24 210.06,-175.56 205.55,-172.62 209.5,-172 209.5,-172 209.5,-172 205.55,-172.62 208.94,-168.44 201.6,-173.24 201.6,-173.24"/>
<ellipse fill="none" stroke="black" cx="198.44" cy="-173.74" rx="3.2" ry="3.2"/>
</g>
</g>
</svg>
