<?xml version="1.0" encoding="UTF-8" standalone="no"?>
<!DOCTYPE svg PUBLIC "-//W3C//DTD SVG 1.1//EN"
 "http://www.w3.org/Graphics/SVG/1.1/DTD/svg11.dtd">
<!-- Generated by graphviz version 2.43.0 (0)
 -->
<!-- Title: oneDegreeRelationshipsDiagram Pages: 1 -->
<svg width="630pt" height="551pt"
 viewBox="0.00 0.00 630.00 551.00" xmlns="http://www.w3.org/2000/svg" xmlns:xlink="http://www.w3.org/1999/xlink">
<g id="graph0" class="graph" transform="scale(1 1) rotate(0) translate(4 547)">
<title>oneDegreeRelationshipsDiagram</title>
<polygon fill="#ffffff" stroke="transparent" points="-4,4 -4,-547 626,-547 626,4 -4,4"/>
<text text-anchor="middle" x="79.5" y="-7.2" font-family="Helvetica,sans-Serif" font-size="11.00">Generated by SchemaSpy</text>
<!-- prank_weir -->
<g id="node1" class="node">
<title>prank_weir</title>
<g id="a_node1"><a xlink:href="../../tables/prank_weir.html" xlink:title="prank_weir" target="_top">
<polygon fill="#ffffff" stroke="transparent" points="320,-92 320,-268 614,-268 614,-92 320,-92"/>
<polygon fill="#f5f5f5" stroke="transparent" points="322,-244 322,-266 612,-266 612,-244 322,-244"/>
<polygon fill="none" stroke="black" points="322,-244 322,-266 612,-266 612,-244 322,-244"/>
<text text-anchor="start" x="327" y="-253.2" font-family="Helvetica,sans-Serif" font-weight="bold" font-size="11.00">prank_weir</text>
<text text-anchor="start" x="570" y="-252.2" font-family="Helvetica,sans-Serif" font-size="11.00">[table]</text>
<polygon fill="none" stroke="black" points="322,-222 322,-244 535,-244 535,-222 322,-222"/>
<image xlink:href="../../images/primaryKeys.png" width="11px" height="12px" preserveAspectRatio="xMinYMin meet" x="327" y="-239"/>
<text text-anchor="start" x="342" y="-230.2" font-family="Helvetica,sans-Serif" font-size="11.00">obj_id</text>
<polygon fill="none" stroke="black" points="535,-222 535,-244 612,-244 612,-222 535,-222"/>
<text text-anchor="start" x="538" y="-230.2" font-family="Helvetica,sans-Serif" font-size="11.00">varchar[16]</text>
<polygon fill="none" stroke="black" points="322,-200 322,-222 535,-222 535,-200 322,-200"/>
<text text-anchor="start" x="342" y="-208.2" font-family="Helvetica,sans-Serif" font-size="11.00">hydraulic_overflow_length</text>
<polygon fill="none" stroke="black" points="535,-200 535,-222 612,-222 612,-200 535,-200"/>
<text text-anchor="start" x="538" y="-208.2" font-family="Helvetica,sans-Serif" font-size="11.00">numeric[7,2]</text>
<polygon fill="none" stroke="black" points="322,-178 322,-200 535,-200 535,-178 322,-178"/>
<text text-anchor="start" x="342" y="-186.2" font-family="Helvetica,sans-Serif" font-size="11.00">level_max</text>
<polygon fill="none" stroke="black" points="535,-178 535,-200 612,-200 612,-178 535,-178"/>
<text text-anchor="start" x="538" y="-186.2" font-family="Helvetica,sans-Serif" font-size="11.00">numeric[7,3]</text>
<polygon fill="none" stroke="black" points="322,-156 322,-178 535,-178 535,-156 322,-156"/>
<text text-anchor="start" x="342" y="-164.2" font-family="Helvetica,sans-Serif" font-size="11.00">level_min</text>
<polygon fill="none" stroke="black" points="535,-156 535,-178 612,-178 612,-156 535,-156"/>
<text text-anchor="start" x="538" y="-164.2" font-family="Helvetica,sans-Serif" font-size="11.00">numeric[7,3]</text>
<polygon fill="none" stroke="black" points="322,-134 322,-156 535,-156 535,-134 322,-134"/>
<image xlink:href="../../images/foreignKeys.png" width="11px" height="12px" preserveAspectRatio="xMinYMin meet" x="327" y="-151"/>
<text text-anchor="start" x="342" y="-142.2" font-family="Helvetica,sans-Serif" font-size="11.00">weir_edge</text>
<polygon fill="none" stroke="black" points="535,-134 535,-156 612,-156 612,-134 535,-134"/>
<text text-anchor="start" x="538" y="-142.2" font-family="Helvetica,sans-Serif" font-size="11.00">int4[10]</text>
<polygon fill="none" stroke="black" points="322,-112 322,-134 535,-134 535,-112 322,-112"/>
<image xlink:href="../../images/foreignKeys.png" width="11px" height="12px" preserveAspectRatio="xMinYMin meet" x="327" y="-129"/>
<text text-anchor="start" x="342" y="-120.2" font-family="Helvetica,sans-Serif" font-size="11.00">weir_kind</text>
<polygon fill="none" stroke="black" points="535,-112 535,-134 612,-134 612,-112 535,-112"/>
<text text-anchor="start" x="538" y="-120.2" font-family="Helvetica,sans-Serif" font-size="11.00">int4[10]</text>
<polygon fill="#ffffff" stroke="transparent" points="322,-94 322,-112 612,-112 612,-94 322,-94"/>
<polygon fill="none" stroke="black" points="322,-94 322,-112 612,-112 612,-94 322,-94"/>
<polygon fill="#ffffff" stroke="transparent" points="323,-95 323,-111 423,-111 423,-95 323,-95"/>
<text text-anchor="start" x="325" y="-100.2" font-family="Helvetica,sans-Serif" font-size="11.00">&lt; 3</text>
<polygon fill="#ffffff" stroke="transparent" points="423,-95 423,-111 511,-111 511,-95 423,-95"/>
<text text-anchor="start" x="463" y="-100.2" font-family="Helvetica,sans-Serif" font-size="11.00"> &#160;</text>
<polygon fill="#ffffff" stroke="transparent" points="511,-95 511,-111 611,-111 611,-95 511,-95"/>
<text text-anchor="start" x="589" y="-100.2" font-family="Helvetica,sans-Serif" font-size="11.00">0 &gt;</text>
<polygon fill="black" stroke="black" points="423,-95 423,-111 423,-111 423,-95 423,-95"/>
<polygon fill="black" stroke="black" points="511,-95 511,-111 511,-111 511,-95 511,-95"/>
<polygon fill="none" stroke="black" stroke-width="2" points="321,-93 321,-267 613,-267 613,-93 321,-93"/>
</a>
</g>
</g>
<!-- overflow -->
<g id="node2" class="node">
<title>overflow</title>
<g id="a_node2"><a xlink:href="../../tables/overflow.html" xlink:title="overflow" target="_top">
<polygon fill="#ffffff" stroke="transparent" points="54.5,-195 54.5,-539 224.5,-539 224.5,-195 54.5,-195"/>
<polygon fill="#f5f5f5" stroke="transparent" points="54.5,-517 54.5,-539 224.5,-539 224.5,-517 54.5,-517"/>
<polygon fill="none" stroke="black" points="54.5,-517 54.5,-539 224.5,-539 224.5,-517 54.5,-517"/>
<text text-anchor="start" x="59.5" y="-526.2" font-family="Helvetica,sans-Serif" font-weight="bold" font-size="11.00">overflow</text>
<text text-anchor="start" x="182.5" y="-525.2" font-family="Helvetica,sans-Serif" font-size="11.00">[table]</text>
<polygon fill="none" stroke="black" points="54.5,-495 54.5,-517 224.5,-517 224.5,-495 54.5,-495"/>
<image xlink:href="../../images/primaryKeys.png" width="11px" height="12px" preserveAspectRatio="xMinYMin meet" x="59.5" y="-512"/>
<text text-anchor="start" x="74.5" y="-503.2" font-family="Helvetica,sans-Serif" font-size="11.00">obj_id</text>
<polygon fill="none" stroke="black" points="54.5,-473 54.5,-495 224.5,-495 224.5,-473 54.5,-473"/>
<image xlink:href="../../images/foreignKeys.png" width="11px" height="12px" preserveAspectRatio="xMinYMin meet" x="59.5" y="-490"/>
<text text-anchor="start" x="74.5" y="-481.2" font-family="Helvetica,sans-Serif" font-size="11.00">actuation</text>
<polygon fill="none" stroke="black" points="54.5,-451 54.5,-473 224.5,-473 224.5,-451 54.5,-451"/>
<image xlink:href="../../images/foreignKeys.png" width="11px" height="12px" preserveAspectRatio="xMinYMin meet" x="59.5" y="-468"/>
<text text-anchor="start" x="74.5" y="-459.2" font-family="Helvetica,sans-Serif" font-size="11.00">adjustability</text>
<polygon fill="none" stroke="black" points="54.5,-429 54.5,-451 224.5,-451 224.5,-429 54.5,-429"/>
<image xlink:href="../../images/foreignKeys.png" width="11px" height="12px" preserveAspectRatio="xMinYMin meet" x="59.5" y="-446"/>
<text text-anchor="start" x="74.5" y="-437.2" font-family="Helvetica,sans-Serif" font-size="11.00">control</text>
<polygon fill="none" stroke="black" points="54.5,-407 54.5,-429 224.5,-429 224.5,-407 54.5,-407"/>
<image xlink:href="../../images/foreignKeys.png" width="11px" height="12px" preserveAspectRatio="xMinYMin meet" x="59.5" y="-424"/>
<text text-anchor="start" x="74.5" y="-415.2" font-family="Helvetica,sans-Serif" font-size="11.00">function</text>
<polygon fill="#ffffff" stroke="transparent" points="54.5,-385 54.5,-407 224.5,-407 224.5,-385 54.5,-385"/>
<polygon fill="none" stroke="black" points="54.5,-385 54.5,-407 224.5,-407 224.5,-385 54.5,-385"/>
<text text-anchor="start" x="74.5" y="-393.2" font-family="Helvetica,sans-Serif" font-size="11.00">identifier</text>
<polygon fill="none" stroke="black" points="54.5,-363 54.5,-385 224.5,-385 224.5,-363 54.5,-363"/>
<image xlink:href="../../images/foreignKeys.png" width="11px" height="12px" preserveAspectRatio="xMinYMin meet" x="59.5" y="-380"/>
<text text-anchor="start" x="74.5" y="-371.2" font-family="Helvetica,sans-Serif" font-size="11.00">signal_transmission</text>
<polygon fill="#ffffff" stroke="transparent" points="54.5,-341 54.5,-363 224.5,-363 224.5,-341 54.5,-341"/>
<polygon fill="none" stroke="black" points="54.5,-341 54.5,-363 224.5,-363 224.5,-341 54.5,-341"/>
<image xlink:href="../../images/foreignKeys.png" width="11px" height="12px" preserveAspectRatio="xMinYMin meet" x="59.5" y="-358"/>
<text text-anchor="start" x="74.5" y="-349.2" font-family="Helvetica,sans-Serif" font-size="11.00">fk_dataowner</text>
<polygon fill="none" stroke="black" points="54.5,-319 54.5,-341 224.5,-341 224.5,-319 54.5,-319"/>
<image xlink:href="../../images/foreignKeys.png" width="11px" height="12px" preserveAspectRatio="xMinYMin meet" x="59.5" y="-336"/>
<text text-anchor="start" x="74.5" y="-327.2" font-family="Helvetica,sans-Serif" font-size="11.00">fk_provider</text>
<polygon fill="none" stroke="black" points="54.5,-297 54.5,-319 224.5,-319 224.5,-297 54.5,-297"/>
<image xlink:href="../../images/foreignKeys.png" width="11px" height="12px" preserveAspectRatio="xMinYMin meet" x="59.5" y="-314"/>
<text text-anchor="start" x="74.5" y="-305.2" font-family="Helvetica,sans-Serif" font-size="11.00">fk_wastewater_node</text>
<polygon fill="none" stroke="black" points="54.5,-275 54.5,-297 224.5,-297 224.5,-275 54.5,-275"/>
<image xlink:href="../../images/foreignKeys.png" width="11px" height="12px" preserveAspectRatio="xMinYMin meet" x="59.5" y="-292"/>
<text text-anchor="start" x="74.5" y="-283.2" font-family="Helvetica,sans-Serif" font-size="11.00">fk_overflow_to</text>
<polygon fill="none" stroke="black" points="54.5,-253 54.5,-275 224.5,-275 224.5,-253 54.5,-253"/>
<image xlink:href="../../images/foreignKeys.png" width="11px" height="12px" preserveAspectRatio="xMinYMin meet" x="59.5" y="-270"/>
<text text-anchor="start" x="74.5" y="-261.2" font-family="Helvetica,sans-Serif" font-size="11.00">fk_overflow_char</text>
<polygon fill="none" stroke="black" points="54.5,-231 54.5,-253 224.5,-253 224.5,-231 54.5,-231"/>
<image xlink:href="../../images/foreignKeys.png" width="11px" height="12px" preserveAspectRatio="xMinYMin meet" x="59.5" y="-248"/>
<text text-anchor="start" x="74.5" y="-239.2" font-family="Helvetica,sans-Serif" font-size="11.00">fk_control_center</text>
<polygon fill="none" stroke="black" points="54.5,-213 54.5,-231 224.5,-231 224.5,-213 54.5,-213"/>
<text text-anchor="start" x="57.5" y="-219.2" font-family="Helvetica,sans-Serif" font-size="11.00">...</text>
<polygon fill="#ffffff" stroke="transparent" points="54.5,-195 54.5,-213 224.5,-213 224.5,-195 54.5,-195"/>
<polygon fill="none" stroke="black" points="54.5,-195 54.5,-213 224.5,-213 224.5,-195 54.5,-195"/>
<polygon fill="#ffffff" stroke="transparent" points="55.5,-196 55.5,-212 120.5,-212 120.5,-196 55.5,-196"/>
<text text-anchor="start" x="57.5" y="-201.2" font-family="Helvetica,sans-Serif" font-size="11.00">&lt; 11</text>
<polygon fill="#ffffff" stroke="transparent" points="120.5,-196 120.5,-212 166.5,-212 166.5,-196 120.5,-196"/>
<text text-anchor="start" x="139.5" y="-201.2" font-family="Helvetica,sans-Serif" font-size="11.00"> &#160;</text>
<polygon fill="#ffffff" stroke="transparent" points="166.5,-196 166.5,-212 223.5,-212 223.5,-196 166.5,-196"/>
<text text-anchor="start" x="201.5" y="-201.2" font-family="Helvetica,sans-Serif" font-size="11.00">4 &gt;</text>
<polygon fill="black" stroke="black" points="120.5,-196 120.5,-212 120.5,-212 120.5,-196 120.5,-196"/>
<polygon fill="black" stroke="black" points="166.5,-196 166.5,-212 166.5,-212 166.5,-196 166.5,-196"/>
</a>
</g>
</g>
<!-- prank_weir&#45;&gt;overflow -->
<g id="edge1" class="edge">
<title>prank_weir:w&#45;&gt;overflow:e</title>
<path fill="none" stroke="black" d="M310.43,-233.69C201.68,-248.76 350.28,-506 225.5,-506"/>
<polygon fill="black" stroke="black" points="319.94,-229.06 320.46,-237.04 318.87,-237.15 318.34,-229.16 319.94,-229.06"/>
<polyline fill="none" stroke="black" points="321,-233 317.01,-233.26 "/>
<ellipse fill="none" stroke="black" cx="313.82" cy="-233.47" rx="3.2" ry="3.2"/>
</g>
<!-- tww_vl.prank_weir_weir_edge -->
<g id="node3" class="node">
<title>tww_vl.prank_weir_weir_edge</title>
<g id="a_node3"><a xlink:href="../../../tww_vl/tables/prank_weir_weir_edge.html" xlink:title="tww_vl.prank_weir_weir_edge" target="_top">
<polygon fill="#ffffff" stroke="transparent" points="8,-116 8,-174 271,-174 271,-116 8,-116"/>
<polygon fill="#f5f5f5" stroke="transparent" points="8.5,-152 8.5,-174 271.5,-174 271.5,-152 8.5,-152"/>
<polygon fill="none" stroke="black" points="8.5,-152 8.5,-174 271.5,-174 271.5,-152 8.5,-152"/>
<text text-anchor="start" x="13.5" y="-161.2" font-family="Helvetica,sans-Serif" font-weight="bold" font-size="11.00">tww_vl.prank_weir_weir_edge</text>
<text text-anchor="start" x="229.5" y="-160.2" font-family="Helvetica,sans-Serif" font-size="11.00">[table]</text>
<polygon fill="none" stroke="black" points="8.5,-134 8.5,-152 271.5,-152 271.5,-134 8.5,-134"/>
<text text-anchor="start" x="11.5" y="-140.2" font-family="Helvetica,sans-Serif" font-size="11.00">...</text>
<polygon fill="#ffffff" stroke="transparent" points="8.5,-116 8.5,-134 271.5,-134 271.5,-116 8.5,-116"/>
<polygon fill="none" stroke="black" points="8.5,-116 8.5,-134 271.5,-134 271.5,-116 8.5,-116"/>
<polygon fill="#ffffff" stroke="transparent" points="9.5,-117 9.5,-133 83.5,-133 83.5,-117 9.5,-117"/>
<text text-anchor="start" x="11.5" y="-122.2" font-family="Helvetica,sans-Serif" font-size="11.00"> &#160;</text>
<polygon fill="#ffffff" stroke="transparent" points="83.5,-117 83.5,-133 185.5,-133 185.5,-117 83.5,-117"/>
<text text-anchor="start" x="116" y="-122.2" font-family="Helvetica,sans-Serif" font-size="11.00">0 rows</text>
<polygon fill="#ffffff" stroke="transparent" points="185.5,-117 185.5,-133 270.5,-133 270.5,-117 185.5,-117"/>
<text text-anchor="start" x="248.5" y="-122.2" font-family="Helvetica,sans-Serif" font-size="11.00">1 &gt;</text>
<polygon fill="black" stroke="black" points="83.5,-117 83.5,-133 83.5,-133 83.5,-117 83.5,-117"/>
<polygon fill="black" stroke="black" points="185.5,-117 185.5,-133 185.5,-133 185.5,-117 185.5,-117"/>
</a>
</g>
</g>
<!-- prank_weir&#45;&gt;tww_vl.prank_weir_weir_edge -->
<g id="edge2" class="edge">
<title>prank_weir:w&#45;&gt;tww_vl.prank_weir_weir_edge:e</title>
<path fill="none" stroke="black" d="M306.28,-145C297.43,-145 288.44,-145 279.45,-145"/>
<polygon fill="black" stroke="black" points="313,-145 321,-148.6 317,-145 321,-145 321,-145 321,-145 317,-145 321,-141.4 313,-145 313,-145"/>
<ellipse fill="none" stroke="black" cx="309.8" cy="-145" rx="3.2" ry="3.2"/>
</g>
<!-- tww_vl.prank_weir_weir_kind -->
<g id="node4" class="node">
<title>tww_vl.prank_weir_weir_kind</title>
<g id="a_node4"><a xlink:href="../../../tww_vl/tables/prank_weir_weir_kind.html" xlink:title="tww_vl.prank_weir_weir_kind" target="_top">
<polygon fill="#ffffff" stroke="transparent" points="10.5,-37 10.5,-95 268.5,-95 268.5,-37 10.5,-37"/>
<polygon fill="#f5f5f5" stroke="transparent" points="10.5,-73 10.5,-95 268.5,-95 268.5,-73 10.5,-73"/>
<polygon fill="none" stroke="black" points="10.5,-73 10.5,-95 268.5,-95 268.5,-73 10.5,-73"/>
<text text-anchor="start" x="15.5" y="-82.2" font-family="Helvetica,sans-Serif" font-weight="bold" font-size="11.00">tww_vl.prank_weir_weir_kind</text>
<text text-anchor="start" x="226.5" y="-81.2" font-family="Helvetica,sans-Serif" font-size="11.00">[table]</text>
<polygon fill="none" stroke="black" points="10.5,-55 10.5,-73 268.5,-73 268.5,-55 10.5,-55"/>
<text text-anchor="start" x="13.5" y="-61.2" font-family="Helvetica,sans-Serif" font-size="11.00">...</text>
<polygon fill="#ffffff" stroke="transparent" points="10.5,-37 10.5,-55 268.5,-55 268.5,-37 10.5,-37"/>
<polygon fill="none" stroke="black" points="10.5,-37 10.5,-55 268.5,-55 268.5,-37 10.5,-37"/>
<polygon fill="#ffffff" stroke="transparent" points="11.5,-38 11.5,-54 83.5,-54 83.5,-38 11.5,-38"/>
<text text-anchor="start" x="13.5" y="-43.2" font-family="Helvetica,sans-Serif" font-size="11.00"> &#160;</text>
<polygon fill="#ffffff" stroke="transparent" points="83.5,-38 83.5,-54 184.5,-54 184.5,-38 83.5,-38"/>
<text text-anchor="start" x="115.5" y="-43.2" font-family="Helvetica,sans-Serif" font-size="11.00">0 rows</text>
<polygon fill="#ffffff" stroke="transparent" points="184.5,-38 184.5,-54 267.5,-54 267.5,-38 184.5,-38"/>
<text text-anchor="start" x="245.5" y="-43.2" font-family="Helvetica,sans-Serif" font-size="11.00">1 &gt;</text>
<polygon fill="black" stroke="black" points="83.5,-38 83.5,-54 83.5,-54 83.5,-38 83.5,-38"/>
<polygon fill="black" stroke="black" points="184.5,-38 184.5,-54 184.5,-54 184.5,-38 184.5,-38"/>
</a>
</g>
</g>
<!-- prank_weir&#45;&gt;tww_vl.prank_weir_weir_kind -->
<g id="edge3" class="edge">
<title>prank_weir:w&#45;&gt;tww_vl.prank_weir_weir_kind:e</title>
<path fill="none" stroke="black" d="M306.76,-120.62C297.75,-117.15 292.38,-110.63 279,-106 272.26,-103.67 265.3,-101.36 258.26,-99.1"/>
<polygon fill="black" stroke="black" points="313.11,-121.68 320.41,-126.55 317.05,-122.34 321,-123 321,-123 321,-123 317.05,-122.34 321.59,-119.45 313.11,-121.68 313.11,-121.68"/>
<ellipse fill="none" stroke="black" cx="309.95" cy="-121.15" rx="3.2" ry="3.2"/>
</g>
</g>
</svg>
