<?xml version="1.0" encoding="UTF-8" standalone="no"?>
<!DOCTYPE svg PUBLIC "-//W3C//DTD SVG 1.1//EN"
 "http://www.w3.org/Graphics/SVG/1.1/DTD/svg11.dtd">
<!-- Generated by graphviz version 2.43.0 (0)
 -->
<!-- Title: oneDegreeRelationshipsDiagram Pages: 1 -->
<svg width="853pt" height="683pt"
 viewBox="0.00 0.00 853.00 683.00" xmlns="http://www.w3.org/2000/svg" xmlns:xlink="http://www.w3.org/1999/xlink">
<g id="graph0" class="graph" transform="scale(1 1) rotate(0) translate(4 679)">
<title>oneDegreeRelationshipsDiagram</title>
<polygon fill="#ffffff" stroke="transparent" points="-4,4 -4,-679 849,-679 849,4 -4,4"/>
<text text-anchor="middle" x="79.5" y="-7.2" font-family="Helvetica,sans-Serif" font-size="11.00">Generated by SchemaSpy</text>
<!-- sia405cc_cable_point -->
<g id="node1" class="node">
<title>sia405cc_cable_point</title>
<g id="a_node1"><a xlink:href="../../tables/sia405cc_cable_point.html" xlink:title="sia405cc_cable_point" target="_top">
<polygon fill="#ffffff" stroke="transparent" points="497,-163 497,-669 837,-669 837,-163 497,-163"/>
<polygon fill="#f5f5f5" stroke="transparent" points="499,-645 499,-667 835,-667 835,-645 499,-645"/>
<polygon fill="none" stroke="black" points="499,-645 499,-667 835,-667 835,-645 499,-645"/>
<text text-anchor="start" x="504" y="-654.2" font-family="Helvetica,sans-Serif" font-weight="bold" font-size="11.00">sia405cc_cable_point</text>
<text text-anchor="start" x="793" y="-653.2" font-family="Helvetica,sans-Serif" font-size="11.00">[table]</text>
<polygon fill="none" stroke="black" points="499,-623 499,-645 699,-645 699,-623 499,-623"/>
<image xlink:href="../../images/primaryKeys.png" width="11px" height="12px" preserveAspectRatio="xMinYMin meet" x="504" y="-640"/>
<text text-anchor="start" x="519" y="-631.2" font-family="Helvetica,sans-Serif" font-size="11.00">obj_id</text>
<polygon fill="none" stroke="black" points="699,-623 699,-645 835,-645 835,-623 699,-623"/>
<text text-anchor="start" x="702" y="-631.2" font-family="Helvetica,sans-Serif" font-size="11.00">varchar[16]</text>
<polygon fill="#ffffff" stroke="transparent" points="499,-601 499,-623 699,-623 699,-601 499,-601"/>
<polygon fill="none" stroke="black" points="499,-601 499,-623 699,-623 699,-601 499,-601"/>
<text text-anchor="start" x="519" y="-609.2" font-family="Helvetica,sans-Serif" font-size="11.00">name_number</text>
<polygon fill="none" stroke="black" points="699,-601 699,-623 835,-623 835,-601 699,-601"/>
<text text-anchor="start" x="702" y="-609.2" font-family="Helvetica,sans-Serif" font-size="11.00">text[2147483647]</text>
<polygon fill="#ffffff" stroke="transparent" points="499,-579 499,-601 699,-601 699,-579 499,-579"/>
<polygon fill="none" stroke="black" points="499,-579 499,-601 699,-601 699,-579 499,-579"/>
<text text-anchor="start" x="519" y="-587.2" font-family="Helvetica,sans-Serif" font-size="11.00">geometry3d_geometry</text>
<polygon fill="none" stroke="black" points="699,-579 699,-601 835,-601 835,-579 699,-579"/>
<text text-anchor="start" x="702" y="-587.2" font-family="Helvetica,sans-Serif" font-size="11.00">geometry[2147483647]</text>
<polygon fill="none" stroke="black" points="499,-557 499,-579 699,-579 699,-557 499,-557"/>
<image xlink:href="../../images/foreignKeys.png" width="11px" height="12px" preserveAspectRatio="xMinYMin meet" x="504" y="-574"/>
<text text-anchor="start" x="519" y="-565.2" font-family="Helvetica,sans-Serif" font-size="11.00">kind</text>
<polygon fill="none" stroke="black" points="699,-557 699,-579 835,-579 835,-557 699,-557"/>
<text text-anchor="start" x="702" y="-565.2" font-family="Helvetica,sans-Serif" font-size="11.00">int4[10]</text>
<polygon fill="none" stroke="black" points="499,-535 499,-557 699,-557 699,-535 499,-535"/>
<image xlink:href="../../images/foreignKeys.png" width="11px" height="12px" preserveAspectRatio="xMinYMin meet" x="504" y="-552"/>
<text text-anchor="start" x="519" y="-543.2" font-family="Helvetica,sans-Serif" font-size="11.00">horizontal_positioning</text>
<polygon fill="none" stroke="black" points="699,-535 699,-557 835,-557 835,-535 699,-535"/>
<text text-anchor="start" x="702" y="-543.2" font-family="Helvetica,sans-Serif" font-size="11.00">int4[10]</text>
<polygon fill="none" stroke="black" points="499,-513 499,-535 699,-535 699,-513 499,-513"/>
<text text-anchor="start" x="519" y="-521.2" font-family="Helvetica,sans-Serif" font-size="11.00">altitude</text>
<polygon fill="none" stroke="black" points="699,-513 699,-535 835,-535 835,-513 699,-513"/>
<text text-anchor="start" x="702" y="-521.2" font-family="Helvetica,sans-Serif" font-size="11.00">numeric[7,3]</text>
<polygon fill="none" stroke="black" points="499,-491 499,-513 699,-513 699,-491 499,-491"/>
<image xlink:href="../../images/foreignKeys.png" width="11px" height="12px" preserveAspectRatio="xMinYMin meet" x="504" y="-508"/>
<text text-anchor="start" x="519" y="-499.2" font-family="Helvetica,sans-Serif" font-size="11.00">elevation_determination</text>
<polygon fill="none" stroke="black" points="699,-491 699,-513 835,-513 835,-491 699,-491"/>
<text text-anchor="start" x="702" y="-499.2" font-family="Helvetica,sans-Serif" font-size="11.00">int4[10]</text>
<polygon fill="none" stroke="black" points="499,-469 499,-491 699,-491 699,-469 499,-469"/>
<image xlink:href="../../images/foreignKeys.png" width="11px" height="12px" preserveAspectRatio="xMinYMin meet" x="504" y="-486"/>
<text text-anchor="start" x="519" y="-477.2" font-family="Helvetica,sans-Serif" font-size="11.00">status</text>
<polygon fill="none" stroke="black" points="699,-469 699,-491 835,-491 835,-469 699,-469"/>
<text text-anchor="start" x="702" y="-477.2" font-family="Helvetica,sans-Serif" font-size="11.00">int4[10]</text>
<polygon fill="none" stroke="black" points="499,-447 499,-469 699,-469 699,-447 499,-447"/>
<text text-anchor="start" x="519" y="-455.2" font-family="Helvetica,sans-Serif" font-size="11.00">installation_year</text>
<polygon fill="none" stroke="black" points="699,-447 699,-469 835,-469 835,-447 699,-447"/>
<text text-anchor="start" x="702" y="-455.2" font-family="Helvetica,sans-Serif" font-size="11.00">int2[5]</text>
<polygon fill="none" stroke="black" points="499,-425 499,-447 699,-447 699,-425 499,-425"/>
<text text-anchor="start" x="519" y="-433.2" font-family="Helvetica,sans-Serif" font-size="11.00">sur_plus_cover</text>
<polygon fill="none" stroke="black" points="699,-425 699,-447 835,-447 835,-425 699,-425"/>
<text text-anchor="start" x="702" y="-433.2" font-family="Helvetica,sans-Serif" font-size="11.00">numeric[4,1]</text>
<polygon fill="none" stroke="black" points="499,-403 499,-425 699,-425 699,-403 499,-403"/>
<text text-anchor="start" x="519" y="-411.2" font-family="Helvetica,sans-Serif" font-size="11.00">condition</text>
<polygon fill="none" stroke="black" points="699,-403 699,-425 835,-425 835,-403 699,-403"/>
<text text-anchor="start" x="702" y="-411.2" font-family="Helvetica,sans-Serif" font-size="11.00">text[2147483647]</text>
<polygon fill="none" stroke="black" points="499,-381 499,-403 699,-403 699,-381 499,-381"/>
<text text-anchor="start" x="519" y="-389.2" font-family="Helvetica,sans-Serif" font-size="11.00">remark</text>
<polygon fill="none" stroke="black" points="699,-381 699,-403 835,-403 835,-381 699,-381"/>
<text text-anchor="start" x="702" y="-389.2" font-family="Helvetica,sans-Serif" font-size="11.00">text[2147483647]</text>
<polygon fill="none" stroke="black" points="499,-359 499,-381 699,-381 699,-359 499,-359"/>
<text text-anchor="start" x="519" y="-367.2" font-family="Helvetica,sans-Serif" font-size="11.00">dimension1</text>
<polygon fill="none" stroke="black" points="699,-359 699,-381 835,-381 835,-359 699,-359"/>
<text text-anchor="start" x="702" y="-367.2" font-family="Helvetica,sans-Serif" font-size="11.00">int2[5]</text>
<polygon fill="none" stroke="black" points="499,-337 499,-359 699,-359 699,-337 499,-337"/>
<text text-anchor="start" x="519" y="-345.2" font-family="Helvetica,sans-Serif" font-size="11.00">dimension2</text>
<polygon fill="none" stroke="black" points="699,-337 699,-359 835,-359 835,-337 699,-337"/>
<text text-anchor="start" x="702" y="-345.2" font-family="Helvetica,sans-Serif" font-size="11.00">int2[5]</text>
<polygon fill="none" stroke="black" points="499,-315 499,-337 699,-337 699,-315 499,-315"/>
<text text-anchor="start" x="519" y="-323.2" font-family="Helvetica,sans-Serif" font-size="11.00">altitude_lower_edge</text>
<polygon fill="none" stroke="black" points="699,-315 699,-337 835,-337 835,-315 699,-315"/>
<text text-anchor="start" x="702" y="-323.2" font-family="Helvetica,sans-Serif" font-size="11.00">numeric[7,3]</text>
<polygon fill="none" stroke="black" points="499,-293 499,-315 699,-315 699,-293 499,-293"/>
<text text-anchor="start" x="519" y="-301.2" font-family="Helvetica,sans-Serif" font-size="11.00">symbolori</text>
<polygon fill="none" stroke="black" points="699,-293 699,-315 835,-315 835,-293 699,-293"/>
<text text-anchor="start" x="702" y="-301.2" font-family="Helvetica,sans-Serif" font-size="11.00">numeric[4,1]</text>
<polygon fill="none" stroke="black" points="499,-271 499,-293 699,-293 699,-271 499,-271"/>
<text text-anchor="start" x="519" y="-279.2" font-family="Helvetica,sans-Serif" font-size="11.00">depth</text>
<polygon fill="none" stroke="black" points="699,-271 699,-293 835,-293 835,-271 699,-271"/>
<text text-anchor="start" x="702" y="-279.2" font-family="Helvetica,sans-Serif" font-size="11.00">int2[5]</text>
<polygon fill="none" stroke="black" points="499,-249 499,-271 699,-271 699,-249 499,-249"/>
<text text-anchor="start" x="519" y="-257.2" font-family="Helvetica,sans-Serif" font-size="11.00">last_modification</text>
<polygon fill="none" stroke="black" points="699,-249 699,-271 835,-271 835,-249 699,-249"/>
<text text-anchor="start" x="702" y="-257.2" font-family="Helvetica,sans-Serif" font-size="11.00">timestamp[29,6]</text>
<polygon fill="#ffffff" stroke="transparent" points="499,-227 499,-249 699,-249 699,-227 499,-227"/>
<polygon fill="none" stroke="black" points="499,-227 499,-249 699,-249 699,-227 499,-227"/>
<image xlink:href="../../images/foreignKeys.png" width="11px" height="12px" preserveAspectRatio="xMinYMin meet" x="504" y="-244"/>
<text text-anchor="start" x="519" y="-235.2" font-family="Helvetica,sans-Serif" font-size="11.00">fk_dataowner</text>
<polygon fill="none" stroke="black" points="699,-227 699,-249 835,-249 835,-227 699,-227"/>
<text text-anchor="start" x="702" y="-235.2" font-family="Helvetica,sans-Serif" font-size="11.00">varchar[16]</text>
<polygon fill="none" stroke="black" points="499,-205 499,-227 699,-227 699,-205 499,-205"/>
<image xlink:href="../../images/foreignKeys.png" width="11px" height="12px" preserveAspectRatio="xMinYMin meet" x="504" y="-222"/>
<text text-anchor="start" x="519" y="-213.2" font-family="Helvetica,sans-Serif" font-size="11.00">fk_provider</text>
<polygon fill="none" stroke="black" points="699,-205 699,-227 835,-227 835,-205 699,-205"/>
<text text-anchor="start" x="702" y="-213.2" font-family="Helvetica,sans-Serif" font-size="11.00">varchar[16]</text>
<polygon fill="none" stroke="black" points="499,-183 499,-205 699,-205 699,-183 499,-183"/>
<image xlink:href="../../images/foreignKeys.png" width="11px" height="12px" preserveAspectRatio="xMinYMin meet" x="504" y="-200"/>
<text text-anchor="start" x="519" y="-191.2" font-family="Helvetica,sans-Serif" font-size="11.00">fk_owner</text>
<polygon fill="none" stroke="black" points="699,-183 699,-205 835,-205 835,-183 699,-183"/>
<text text-anchor="start" x="702" y="-191.2" font-family="Helvetica,sans-Serif" font-size="11.00">varchar[16]</text>
<polygon fill="#ffffff" stroke="transparent" points="499,-165 499,-183 835,-183 835,-165 499,-165"/>
<polygon fill="none" stroke="black" points="499,-165 499,-183 835,-183 835,-165 499,-165"/>
<polygon fill="#ffffff" stroke="transparent" points="500,-166 500,-182 616,-182 616,-166 500,-166"/>
<text text-anchor="start" x="502" y="-171.2" font-family="Helvetica,sans-Serif" font-size="11.00">&lt; 7</text>
<polygon fill="#ffffff" stroke="transparent" points="616,-166 616,-182 719,-182 719,-166 616,-166"/>
<text text-anchor="start" x="663.5" y="-171.2" font-family="Helvetica,sans-Serif" font-size="11.00"> &#160;</text>
<polygon fill="#ffffff" stroke="transparent" points="719,-166 719,-182 834,-182 834,-166 719,-166"/>
<text text-anchor="start" x="812" y="-171.2" font-family="Helvetica,sans-Serif" font-size="11.00">0 &gt;</text>
<polygon fill="black" stroke="black" points="616,-166 616,-182 616,-182 616,-166 616,-166"/>
<polygon fill="black" stroke="black" points="719,-166 719,-182 719,-182 719,-166 719,-166"/>
<polygon fill="none" stroke="black" stroke-width="2" points="498,-164 498,-668 836,-668 836,-164 498,-164"/>
</a>
</g>
</g>
<!-- tww_vl.sia405cc_cable_point_elevation_determination -->
<g id="node2" class="node">
<title>tww_vl.sia405cc_cable_point_elevation_determination</title>
<g id="a_node2"><a xlink:href="../../../tww_vl/tables/sia405cc_cable_point_elevation__6472a8ff.html" xlink:title="tww_vl.sia405cc_cable_point_elevation_determination" target="_top">
<polygon fill="#ffffff" stroke="transparent" points="8,-455 8,-513 448,-513 448,-455 8,-455"/>
<polygon fill="#f5f5f5" stroke="transparent" points="8,-491 8,-513 448,-513 448,-491 8,-491"/>
<polygon fill="none" stroke="black" points="8,-491 8,-513 448,-513 448,-491 8,-491"/>
<text text-anchor="start" x="13" y="-500.2" font-family="Helvetica,sans-Serif" font-weight="bold" font-size="11.00">tww_vl.sia405cc_cable_point_elevation_determination</text>
<text text-anchor="start" x="406" y="-499.2" font-family="Helvetica,sans-Serif" font-size="11.00">[table]</text>
<polygon fill="none" stroke="black" points="8,-473 8,-491 448,-491 448,-473 8,-473"/>
<text text-anchor="start" x="11" y="-479.2" font-family="Helvetica,sans-Serif" font-size="11.00">...</text>
<polygon fill="#ffffff" stroke="transparent" points="8,-455 8,-473 448,-473 448,-455 8,-455"/>
<polygon fill="none" stroke="black" points="8,-455 8,-473 448,-473 448,-455 8,-455"/>
<polygon fill="#ffffff" stroke="transparent" points="9,-456 9,-472 142,-472 142,-456 9,-456"/>
<text text-anchor="start" x="11" y="-461.2" font-family="Helvetica,sans-Serif" font-size="11.00"> &#160;</text>
<polygon fill="#ffffff" stroke="transparent" points="142,-456 142,-472 303,-472 303,-456 142,-456"/>
<text text-anchor="start" x="204" y="-461.2" font-family="Helvetica,sans-Serif" font-size="11.00">0 rows</text>
<polygon fill="#ffffff" stroke="transparent" points="303,-456 303,-472 447,-472 447,-456 303,-456"/>
<text text-anchor="start" x="425" y="-461.2" font-family="Helvetica,sans-Serif" font-size="11.00">1 &gt;</text>
<polygon fill="black" stroke="black" points="142,-456 142,-472 142,-472 142,-456 142,-456"/>
<polygon fill="black" stroke="black" points="303,-456 303,-472 303,-472 303,-456 303,-456"/>
</a>
</g>
</g>
<!-- sia405cc_cable_point&#45;&gt;tww_vl.sia405cc_cable_point_elevation_determination -->
<g id="edge1" class="edge">
<title>sia405cc_cable_point:w&#45;&gt;tww_vl.sia405cc_cable_point_elevation_determination:e</title>
<path fill="none" stroke="black" d="M483.43,-501.92C474.4,-501.81 465.25,-501.62 456.04,-501.35"/>
<polygon fill="black" stroke="black" points="490,-501.95 497.98,-505.6 494,-501.98 498,-502 498,-502 498,-502 494,-501.98 498.02,-498.4 490,-501.95 490,-501.95"/>
<ellipse fill="none" stroke="black" cx="486.8" cy="-501.93" rx="3.2" ry="3.2"/>
</g>
<!-- organisation -->
<g id="node3" class="node">
<title>organisation</title>
<g id="a_node3"><a xlink:href="../../tables/organisation.html" xlink:title="organisation" target="_top">
<polygon fill="#ffffff" stroke="transparent" points="141,-37 141,-249 315,-249 315,-37 141,-37"/>
<polygon fill="#f5f5f5" stroke="transparent" points="141,-227 141,-249 315,-249 315,-227 141,-227"/>
<polygon fill="none" stroke="black" points="141,-227 141,-249 315,-249 315,-227 141,-227"/>
<text text-anchor="start" x="146" y="-236.2" font-family="Helvetica,sans-Serif" font-weight="bold" font-size="11.00">organisation</text>
<text text-anchor="start" x="273" y="-235.2" font-family="Helvetica,sans-Serif" font-size="11.00">[table]</text>
<polygon fill="none" stroke="black" points="141,-205 141,-227 315,-227 315,-205 141,-205"/>
<image xlink:href="../../images/primaryKeys.png" width="11px" height="12px" preserveAspectRatio="xMinYMin meet" x="146" y="-222"/>
<text text-anchor="start" x="161" y="-213.2" font-family="Helvetica,sans-Serif" font-size="11.00">obj_id</text>
<polygon fill="#ffffff" stroke="transparent" points="141,-183 141,-205 315,-205 315,-183 141,-183"/>
<polygon fill="none" stroke="black" points="141,-183 141,-205 315,-205 315,-183 141,-183"/>
<text text-anchor="start" x="161" y="-191.2" font-family="Helvetica,sans-Serif" font-size="11.00">identifier</text>
<polygon fill="#ffffff" stroke="transparent" points="141,-161 141,-183 315,-183 315,-161 141,-161"/>
<polygon fill="none" stroke="black" points="141,-161 141,-183 315,-183 315,-161 141,-161"/>
<image xlink:href="../../images/foreignKeys.png" width="11px" height="12px" preserveAspectRatio="xMinYMin meet" x="146" y="-178"/>
<text text-anchor="start" x="161" y="-169.2" font-family="Helvetica,sans-Serif" font-size="11.00">organisation_type</text>
<polygon fill="none" stroke="black" points="141,-139 141,-161 315,-161 315,-139 141,-139"/>
<image xlink:href="../../images/foreignKeys.png" width="11px" height="12px" preserveAspectRatio="xMinYMin meet" x="146" y="-156"/>
<text text-anchor="start" x="161" y="-147.2" font-family="Helvetica,sans-Serif" font-size="11.00">status</text>
<polygon fill="#ffffff" stroke="transparent" points="141,-117 141,-139 315,-139 315,-117 141,-117"/>
<polygon fill="none" stroke="black" points="141,-117 141,-139 315,-139 315,-117 141,-117"/>
<text text-anchor="start" x="161" y="-125.2" font-family="Helvetica,sans-Serif" font-size="11.00">uid</text>
<polygon fill="none" stroke="black" points="141,-95 141,-117 315,-117 315,-95 141,-95"/>
<image xlink:href="../../images/foreignKeys.png" width="11px" height="12px" preserveAspectRatio="xMinYMin meet" x="146" y="-112"/>
<text text-anchor="start" x="161" y="-103.2" font-family="Helvetica,sans-Serif" font-size="11.00">fk_dataowner</text>
<polygon fill="none" stroke="black" points="141,-73 141,-95 315,-95 315,-73 141,-73"/>
<image xlink:href="../../images/foreignKeys.png" width="11px" height="12px" preserveAspectRatio="xMinYMin meet" x="146" y="-90"/>
<text text-anchor="start" x="161" y="-81.2" font-family="Helvetica,sans-Serif" font-size="11.00">fk_provider</text>
<polygon fill="none" stroke="black" points="141,-55 141,-73 315,-73 315,-55 141,-55"/>
<text text-anchor="start" x="144" y="-61.2" font-family="Helvetica,sans-Serif" font-size="11.00">...</text>
<polygon fill="#ffffff" stroke="transparent" points="141,-37 141,-55 315,-55 315,-37 141,-37"/>
<polygon fill="none" stroke="black" points="141,-37 141,-55 315,-55 315,-37 141,-37"/>
<polygon fill="#ffffff" stroke="transparent" points="142,-38 142,-54 199,-54 199,-38 142,-38"/>
<text text-anchor="start" x="144" y="-43.2" font-family="Helvetica,sans-Serif" font-size="11.00">&lt; 4</text>
<polygon fill="#ffffff" stroke="transparent" points="199,-38 199,-54 244,-54 244,-38 199,-38"/>
<text text-anchor="start" x="217.5" y="-43.2" font-family="Helvetica,sans-Serif" font-size="11.00"> &#160;</text>
<polygon fill="#ffffff" stroke="transparent" points="244,-38 244,-54 314,-54 314,-38 244,-38"/>
<text text-anchor="start" x="278" y="-43.2" font-family="Helvetica,sans-Serif" font-size="11.00">101 &gt;</text>
<polygon fill="black" stroke="black" points="199,-38 199,-54 199,-54 199,-38 199,-38"/>
<polygon fill="black" stroke="black" points="244,-38 244,-54 244,-54 244,-38 244,-38"/>
</a>
</g>
</g>
<!-- sia405cc_cable_point&#45;&gt;organisation -->
<g id="edge2" class="edge">
<title>sia405cc_cable_point:w&#45;&gt;organisation:e</title>
<path fill="none" stroke="black" d="M483.42,-237.75C413.9,-235.34 392.39,-216 316,-216"/>
<polygon fill="black" stroke="black" points="490,-237.86 497.94,-241.6 494,-237.93 498,-238 498,-238 498,-238 494,-237.93 498.06,-234.4 490,-237.86 490,-237.86"/>
<ellipse fill="none" stroke="black" cx="486.8" cy="-237.81" rx="3.2" ry="3.2"/>
</g>
<!-- sia405cc_cable_point&#45;&gt;organisation -->
<g id="edge3" class="edge">
<title>sia405cc_cable_point:w&#45;&gt;organisation:e</title>
<path fill="none" stroke="black" d="M483.42,-194.25C413.9,-196.66 392.39,-216 316,-216"/>
<polygon fill="black" stroke="black" points="490,-194.14 498.06,-197.6 494,-194.07 498,-194 498,-194 498,-194 494,-194.07 497.94,-190.4 490,-194.14 490,-194.14"/>
<ellipse fill="none" stroke="black" cx="486.8" cy="-194.19" rx="3.2" ry="3.2"/>
</g>
<!-- sia405cc_cable_point&#45;&gt;organisation -->
<g id="edge4" class="edge">
<title>sia405cc_cable_point:w&#45;&gt;organisation:e</title>
<path fill="none" stroke="black" d="M483.51,-216C414.35,-216 391.83,-216 316,-216"/>
<polygon fill="black" stroke="black" points="490,-216 498,-219.6 494,-216 498,-216 498,-216 498,-216 494,-216 498,-212.4 490,-216 490,-216"/>
<ellipse fill="none" stroke="black" cx="486.8" cy="-216" rx="3.2" ry="3.2"/>
</g>
<!-- tww_vl.sia405cc_cable_point_horizontal_positioning -->
<g id="node4" class="node">
<title>tww_vl.sia405cc_cable_point_horizontal_positioning</title>
<g id="a_node4"><a xlink:href="../../../tww_vl/tables/sia405cc_cable_point_horizontal_dbbdef40.html" xlink:title="tww_vl.sia405cc_cable_point_horizontal_positioning" target="_top">
<polygon fill="#ffffff" stroke="transparent" points="16,-534 16,-592 440,-592 440,-534 16,-534"/>
<polygon fill="#f5f5f5" stroke="transparent" points="16,-570 16,-592 440,-592 440,-570 16,-570"/>
<polygon fill="none" stroke="black" points="16,-570 16,-592 440,-592 440,-570 16,-570"/>
<text text-anchor="start" x="21" y="-579.2" font-family="Helvetica,sans-Serif" font-weight="bold" font-size="11.00">tww_vl.sia405cc_cable_point_horizontal_positioning</text>
<text text-anchor="start" x="398" y="-578.2" font-family="Helvetica,sans-Serif" font-size="11.00">[table]</text>
<polygon fill="none" stroke="black" points="16,-552 16,-570 440,-570 440,-552 16,-552"/>
<text text-anchor="start" x="19" y="-558.2" font-family="Helvetica,sans-Serif" font-size="11.00">...</text>
<polygon fill="#ffffff" stroke="transparent" points="16,-534 16,-552 440,-552 440,-534 16,-534"/>
<polygon fill="none" stroke="black" points="16,-534 16,-552 440,-552 440,-534 16,-534"/>
<polygon fill="#ffffff" stroke="transparent" points="17,-535 17,-551 144,-551 144,-535 17,-535"/>
<text text-anchor="start" x="19" y="-540.2" font-family="Helvetica,sans-Serif" font-size="11.00"> &#160;</text>
<polygon fill="#ffffff" stroke="transparent" points="144,-535 144,-551 300,-551 300,-535 144,-535"/>
<text text-anchor="start" x="203.5" y="-540.2" font-family="Helvetica,sans-Serif" font-size="11.00">0 rows</text>
<polygon fill="#ffffff" stroke="transparent" points="300,-535 300,-551 439,-551 439,-535 300,-535"/>
<text text-anchor="start" x="417" y="-540.2" font-family="Helvetica,sans-Serif" font-size="11.00">1 &gt;</text>
<polygon fill="black" stroke="black" points="144,-535 144,-551 144,-551 144,-535 144,-535"/>
<polygon fill="black" stroke="black" points="300,-535 300,-551 300,-551 300,-535 300,-535"/>
</a>
</g>
</g>
<!-- sia405cc_cable_point&#45;&gt;tww_vl.sia405cc_cable_point_horizontal_positioning -->
<g id="edge5" class="edge">
<title>sia405cc_cable_point:w&#45;&gt;tww_vl.sia405cc_cable_point_horizontal_positioning:e</title>
<path fill="none" stroke="black" d="M483.39,-546.08C471.75,-546.21 459.92,-546.47 448.04,-546.85"/>
<polygon fill="black" stroke="black" points="490,-546.04 498.02,-549.6 494,-546.02 498,-546 498,-546 498,-546 494,-546.02 497.98,-542.4 490,-546.04 490,-546.04"/>
<ellipse fill="none" stroke="black" cx="486.8" cy="-546.06" rx="3.2" ry="3.2"/>
</g>
<!-- tww_vl.sia405cc_cable_point_kind -->
<g id="node5" class="node">
<title>tww_vl.sia405cc_cable_point_kind</title>
<g id="a_node5"><a xlink:href="../../../tww_vl/tables/sia405cc_cable_point_kind.html" xlink:title="tww_vl.sia405cc_cable_point_kind" target="_top">
<polygon fill="#ffffff" stroke="transparent" points="81.5,-613 81.5,-671 374.5,-671 374.5,-613 81.5,-613"/>
<polygon fill="#f5f5f5" stroke="transparent" points="82,-649 82,-671 375,-671 375,-649 82,-649"/>
<polygon fill="none" stroke="black" points="82,-649 82,-671 375,-671 375,-649 82,-649"/>
<text text-anchor="start" x="87" y="-658.2" font-family="Helvetica,sans-Serif" font-weight="bold" font-size="11.00">tww_vl.sia405cc_cable_point_kind</text>
<text text-anchor="start" x="333" y="-657.2" font-family="Helvetica,sans-Serif" font-size="11.00">[table]</text>
<polygon fill="none" stroke="black" points="82,-631 82,-649 375,-649 375,-631 82,-631"/>
<text text-anchor="start" x="85" y="-637.2" font-family="Helvetica,sans-Serif" font-size="11.00">...</text>
<polygon fill="#ffffff" stroke="transparent" points="82,-613 82,-631 375,-631 375,-613 82,-613"/>
<polygon fill="none" stroke="black" points="82,-613 82,-631 375,-631 375,-613 82,-613"/>
<polygon fill="#ffffff" stroke="transparent" points="83,-614 83,-630 167,-630 167,-614 83,-614"/>
<text text-anchor="start" x="85" y="-619.2" font-family="Helvetica,sans-Serif" font-size="11.00"> &#160;</text>
<polygon fill="#ffffff" stroke="transparent" points="167,-614 167,-630 279,-630 279,-614 167,-614"/>
<text text-anchor="start" x="204.5" y="-619.2" font-family="Helvetica,sans-Serif" font-size="11.00">0 rows</text>
<polygon fill="#ffffff" stroke="transparent" points="279,-614 279,-630 374,-630 374,-614 279,-614"/>
<text text-anchor="start" x="352" y="-619.2" font-family="Helvetica,sans-Serif" font-size="11.00">1 &gt;</text>
<polygon fill="black" stroke="black" points="167,-614 167,-630 167,-630 167,-614 167,-614"/>
<polygon fill="black" stroke="black" points="279,-614 279,-630 279,-630 279,-614 279,-614"/>
</a>
</g>
</g>
<!-- sia405cc_cable_point&#45;&gt;tww_vl.sia405cc_cable_point_kind -->
<g id="edge6" class="edge">
<title>sia405cc_cable_point:w&#45;&gt;tww_vl.sia405cc_cable_point_kind:e</title>
<path fill="none" stroke="black" d="M483.98,-572.27C474.19,-579.82 472.37,-595.44 456,-603 433.13,-613.56 407.76,-621.28 382.52,-626.93"/>
<polygon fill="black" stroke="black" points="490.35,-570.33 499.05,-571.44 494.17,-569.17 498,-568 498,-568 498,-568 494.17,-569.17 496.95,-564.56 490.35,-570.33 490.35,-570.33"/>
<ellipse fill="none" stroke="black" cx="487.29" cy="-571.26" rx="3.2" ry="3.2"/>
</g>
<!-- tww_vl.sia405cc_cable_point_status -->
<g id="node6" class="node">
<title>tww_vl.sia405cc_cable_point_status</title>
<g id="a_node6"><a xlink:href="../../../tww_vl/tables/sia405cc_cable_point_status.html" xlink:title="tww_vl.sia405cc_cable_point_status" target="_top">
<polygon fill="#ffffff" stroke="transparent" points="74.5,-376 74.5,-434 381.5,-434 381.5,-376 74.5,-376"/>
<polygon fill="#f5f5f5" stroke="transparent" points="75,-412 75,-434 382,-434 382,-412 75,-412"/>
<polygon fill="none" stroke="black" points="75,-412 75,-434 382,-434 382,-412 75,-412"/>
<text text-anchor="start" x="80" y="-421.2" font-family="Helvetica,sans-Serif" font-weight="bold" font-size="11.00">tww_vl.sia405cc_cable_point_status</text>
<text text-anchor="start" x="340" y="-420.2" font-family="Helvetica,sans-Serif" font-size="11.00">[table]</text>
<polygon fill="none" stroke="black" points="75,-394 75,-412 382,-412 382,-394 75,-394"/>
<text text-anchor="start" x="78" y="-400.2" font-family="Helvetica,sans-Serif" font-size="11.00">...</text>
<polygon fill="#ffffff" stroke="transparent" points="75,-376 75,-394 382,-394 382,-376 75,-376"/>
<polygon fill="none" stroke="black" points="75,-376 75,-394 382,-394 382,-376 75,-376"/>
<polygon fill="#ffffff" stroke="transparent" points="76,-377 76,-393 164,-393 164,-377 76,-377"/>
<text text-anchor="start" x="78" y="-382.2" font-family="Helvetica,sans-Serif" font-size="11.00"> &#160;</text>
<polygon fill="#ffffff" stroke="transparent" points="164,-377 164,-393 281,-393 281,-377 164,-377"/>
<text text-anchor="start" x="204" y="-382.2" font-family="Helvetica,sans-Serif" font-size="11.00">0 rows</text>
<polygon fill="#ffffff" stroke="transparent" points="281,-377 281,-393 381,-393 381,-377 281,-377"/>
<text text-anchor="start" x="359" y="-382.2" font-family="Helvetica,sans-Serif" font-size="11.00">1 &gt;</text>
<polygon fill="black" stroke="black" points="164,-377 164,-393 164,-393 164,-377 164,-377"/>
<polygon fill="black" stroke="black" points="281,-377 281,-393 281,-393 281,-377 281,-377"/>
</a>
</g>
</g>
<!-- sia405cc_cable_point&#45;&gt;tww_vl.sia405cc_cable_point_status -->
<g id="edge7" class="edge">
<title>sia405cc_cable_point:w&#45;&gt;tww_vl.sia405cc_cable_point_status:e</title>
<path fill="none" stroke="black" d="M483.97,-475.73C474.19,-468.19 472.36,-452.59 456,-445 435.31,-435.4 412.58,-428.09 389.74,-422.52"/>
<polygon fill="black" stroke="black" points="490.35,-477.67 496.95,-483.44 494.17,-478.84 498,-480 498,-480 498,-480 494.17,-478.84 499.05,-476.56 490.35,-477.67 490.35,-477.67"/>
<ellipse fill="none" stroke="black" cx="487.28" cy="-476.74" rx="3.2" ry="3.2"/>
</g>
</g>
</svg>
