<?xml version="1.0" encoding="UTF-8" standalone="no"?>
<!DOCTYPE svg PUBLIC "-//W3C//DTD SVG 1.1//EN"
 "http://www.w3.org/Graphics/SVG/1.1/DTD/svg11.dtd">
<!-- Generated by graphviz version 2.47.1 (20210515.0534)
 -->
<!-- Title: oneDegreeRelationshipsDiagram Pages: 1 -->
<svg width="516pt" height="318pt"
 viewBox="0.00 0.00 516.00 318.00" xmlns="http://www.w3.org/2000/svg" xmlns:xlink="http://www.w3.org/1999/xlink">
<g id="graph0" class="graph" transform="scale(1 1) rotate(0) translate(4 314)">
<title>oneDegreeRelationshipsDiagram</title>
<polygon fill="#ffffff" stroke="transparent" points="-4,4 -4,-314 512,-314 512,4 -4,4"/>
<text text-anchor="middle" x="73.5" y="-7.2" font-family="Helvetica,sans-Serif" font-size="11.00">Generated by SchemaSpy</text>
<!-- solids_retention -->
<g id="node1" class="node">
<title>solids_retention</title>
<g id="a_node1"><a xlink:href="../../tables/solids_retention.html" xlink:title="solids_retention" target="_top">
<polygon fill="#ffffff" stroke="transparent" points="273,-61 273,-237 500,-237 500,-61 273,-61"/>
<polygon fill="#f5f5f5" stroke="transparent" points="275.5,-213 275.5,-235 498.5,-235 498.5,-213 275.5,-213"/>
<polygon fill="none" stroke="black" points="275.5,-213 275.5,-235 498.5,-235 498.5,-213 275.5,-213"/>
<text text-anchor="start" x="280.5" y="-222.2" font-family="Helvetica,sans-Serif" font-weight="bold" font-size="11.00">solids_retention</text>
<text text-anchor="start" x="459.5" y="-221.2" font-family="Helvetica,sans-Serif" font-size="11.00">[table]</text>
<polygon fill="none" stroke="black" points="275.5,-191 275.5,-213 420.5,-213 420.5,-191 275.5,-191"/>
<image xlink:href="../../images/primaryKeys.png" width="11px" height="12px" preserveAspectRatio="xMinYMin meet" x="280.5" y="-208"/>
<text text-anchor="start" x="295.5" y="-199.2" font-family="Helvetica,sans-Serif" font-size="11.00">obj_id</text>
<polygon fill="none" stroke="black" points="420.5,-191 420.5,-213 498.5,-213 498.5,-191 420.5,-191"/>
<text text-anchor="start" x="423.5" y="-199.2" font-family="Helvetica,sans-Serif" font-size="11.00">varchar[16]</text>
<polygon fill="none" stroke="black" points="275.5,-169 275.5,-191 420.5,-191 420.5,-169 275.5,-169"/>
<text text-anchor="start" x="295.5" y="-177.2" font-family="Helvetica,sans-Serif" font-size="11.00">dimensioning_value</text>
<polygon fill="none" stroke="black" points="420.5,-169 420.5,-191 498.5,-191 498.5,-169 420.5,-169"/>
<text text-anchor="start" x="423.5" y="-177.2" font-family="Helvetica,sans-Serif" font-size="11.00">numeric[9,3]</text>
<polygon fill="none" stroke="black" points="275.5,-147 275.5,-169 420.5,-169 420.5,-147 275.5,-147"/>
<text text-anchor="start" x="295.5" y="-155.2" font-family="Helvetica,sans-Serif" font-size="11.00">gross_costs</text>
<polygon fill="none" stroke="black" points="420.5,-147 420.5,-169 498.5,-169 498.5,-147 420.5,-147"/>
<text text-anchor="start" x="423.5" y="-155.2" font-family="Helvetica,sans-Serif" font-size="11.00">numeric[10,2]</text>
<polygon fill="none" stroke="black" points="275.5,-125 275.5,-147 420.5,-147 420.5,-125 275.5,-125"/>
<image xlink:href="../../images/foreignKeys.png" width="11px" height="12px" preserveAspectRatio="xMinYMin meet" x="280.5" y="-142"/>
<text text-anchor="start" x="295.5" y="-133.2" font-family="Helvetica,sans-Serif" font-size="11.00">kind</text>
<polygon fill="none" stroke="black" points="420.5,-125 420.5,-147 498.5,-147 498.5,-125 420.5,-125"/>
<text text-anchor="start" x="423.5" y="-133.2" font-family="Helvetica,sans-Serif" font-size="11.00">int4[10]</text>
<polygon fill="none" stroke="black" points="275.5,-103 275.5,-125 420.5,-125 420.5,-103 275.5,-103"/>
<text text-anchor="start" x="295.5" y="-111.2" font-family="Helvetica,sans-Serif" font-size="11.00">overflow_level</text>
<polygon fill="none" stroke="black" points="420.5,-103 420.5,-125 498.5,-125 498.5,-103 420.5,-103"/>
<text text-anchor="start" x="423.5" y="-111.2" font-family="Helvetica,sans-Serif" font-size="11.00">numeric[7,3]</text>
<polygon fill="none" stroke="black" points="275.5,-81 275.5,-103 420.5,-103 420.5,-81 275.5,-81"/>
<text text-anchor="start" x="295.5" y="-89.2" font-family="Helvetica,sans-Serif" font-size="11.00">year_of_replacement</text>
<polygon fill="none" stroke="black" points="420.5,-81 420.5,-103 498.5,-103 498.5,-81 420.5,-81"/>
<text text-anchor="start" x="423.5" y="-89.2" font-family="Helvetica,sans-Serif" font-size="11.00">int2[5]</text>
<polygon fill="#ffffff" stroke="transparent" points="275.5,-63 275.5,-81 352.5,-81 352.5,-63 275.5,-63"/>
<polygon fill="none" stroke="black" points="275.5,-63 275.5,-81 352.5,-81 352.5,-63 275.5,-63"/>
<text text-anchor="start" x="278.5" y="-69.2" font-family="Helvetica,sans-Serif" font-size="11.00">&lt; 2</text>
<polygon fill="#ffffff" stroke="transparent" points="352.5,-63 352.5,-81 420.5,-81 420.5,-63 352.5,-63"/>
<polygon fill="none" stroke="black" points="352.5,-63 352.5,-81 420.5,-81 420.5,-63 352.5,-63"/>
<text text-anchor="start" x="410.5" y="-69.2" font-family="Helvetica,sans-Serif" font-size="11.00"> &#160;</text>
<polygon fill="#ffffff" stroke="transparent" points="420.5,-63 420.5,-81 498.5,-81 498.5,-63 420.5,-63"/>
<polygon fill="none" stroke="black" points="420.5,-63 420.5,-81 498.5,-81 498.5,-63 420.5,-63"/>
<text text-anchor="start" x="479.5" y="-69.2" font-family="Helvetica,sans-Serif" font-size="11.00">0 &gt;</text>
<polygon fill="none" stroke="black" stroke-width="2" points="274,-62 274,-236 499,-236 499,-62 274,-62"/>
</a>
</g>
</g>
<!-- tww_vl.solids_retention_kind -->
<g id="node2" class="node">
<title>tww_vl.solids_retention_kind</title>
<g id="a_node2"><a xlink:href="../../../tww_vl/tables/solids_retention_kind.html" xlink:title="tww_vl.solids_retention_kind" target="_top">
<polygon fill="#ffffff" stroke="transparent" points="8,-37 8,-95 224,-95 224,-37 8,-37"/>
<polygon fill="#f5f5f5" stroke="transparent" points="8,-73 8,-95 224,-95 224,-73 8,-73"/>
<polygon fill="none" stroke="black" points="8,-73 8,-95 224,-95 224,-73 8,-73"/>
<text text-anchor="start" x="13" y="-82.2" font-family="Helvetica,sans-Serif" font-weight="bold" font-size="11.00">tww_vl.solids_retention_kind</text>
<text text-anchor="start" x="185" y="-81.2" font-family="Helvetica,sans-Serif" font-size="11.00">[table]</text>
<polygon fill="none" stroke="black" points="8,-55 8,-73 224,-73 224,-55 8,-55"/>
<text text-anchor="start" x="11" y="-61.2" font-family="Helvetica,sans-Serif" font-size="11.00">...</text>
<polygon fill="#ffffff" stroke="transparent" points="8,-37 8,-55 91,-55 91,-37 8,-37"/>
<polygon fill="none" stroke="black" points="8,-37 8,-55 91,-55 91,-37 8,-37"/>
<text text-anchor="start" x="11" y="-43.2" font-family="Helvetica,sans-Serif" font-size="11.00"> &#160;</text>
<polygon fill="#ffffff" stroke="transparent" points="91,-37 91,-55 166,-55 166,-37 91,-37"/>
<polygon fill="none" stroke="black" points="91,-37 91,-55 166,-55 166,-37 91,-37"/>
<text text-anchor="start" x="129" y="-43.2" font-family="Helvetica,sans-Serif" font-size="11.00">0 rows</text>
<polygon fill="#ffffff" stroke="transparent" points="166,-37 166,-55 224,-55 224,-37 166,-37"/>
<polygon fill="none" stroke="black" points="166,-37 166,-55 224,-55 224,-37 166,-37"/>
<text text-anchor="start" x="205" y="-43.2" font-family="Helvetica,sans-Serif" font-size="11.00">1 &gt;</text>
</a>
</g>
</g>
<!-- solids_retention&#45;&gt;tww_vl.solids_retention_kind -->
<g id="edge1" class="edge">
<title>solids_retention:w&#45;&gt;tww_vl.solids_retention_kind:e</title>
<path fill="none" stroke="black" d="M260.28,-132.27C250.41,-125.92 247.24,-112.91 232,-105 228.07,-102.96 224.01,-100.99 219.87,-99.1"/>
<polygon fill="black" stroke="black" points="266.76,-133.97 273.59,-139.48 270.63,-134.99 274.5,-136 274.5,-136 274.5,-136 270.63,-134.99 275.41,-132.52 266.76,-133.97 266.76,-133.97"/>
<ellipse fill="none" stroke="black" cx="263.67" cy="-133.16" rx="3.2" ry="3.2"/>
</g>
<!-- structure_part -->
<g id="node3" class="node">
<title>structure_part</title>
<g id="a_node3"><a xlink:href="../../tables/structure_part.html" xlink:title="structure_part" target="_top">
<polygon fill="#ffffff" stroke="transparent" points="31,-116 31,-306 201,-306 201,-116 31,-116"/>
<polygon fill="#f5f5f5" stroke="transparent" points="31,-284 31,-306 201,-306 201,-284 31,-284"/>
<polygon fill="none" stroke="black" points="31,-284 31,-306 201,-306 201,-284 31,-284"/>
<text text-anchor="start" x="36" y="-293.2" font-family="Helvetica,sans-Serif" font-weight="bold" font-size="11.00">structure_part</text>
<text text-anchor="start" x="162" y="-292.2" font-family="Helvetica,sans-Serif" font-size="11.00">[table]</text>
<polygon fill="none" stroke="black" points="31,-262 31,-284 201,-284 201,-262 31,-262"/>
<image xlink:href="../../images/primaryKeys.png" width="11px" height="12px" preserveAspectRatio="xMinYMin meet" x="36" y="-279"/>
<text text-anchor="start" x="51" y="-270.2" font-family="Helvetica,sans-Serif" font-size="11.00">obj_id</text>
<polygon fill="#ffffff" stroke="transparent" points="31,-240 31,-262 201,-262 201,-240 31,-240"/>
<polygon fill="none" stroke="black" points="31,-240 31,-262 201,-262 201,-240 31,-240"/>
<text text-anchor="start" x="51" y="-248.2" font-family="Helvetica,sans-Serif" font-size="11.00">identifier</text>
<polygon fill="none" stroke="black" points="31,-218 31,-240 201,-240 201,-218 31,-218"/>
<image xlink:href="../../images/foreignKeys.png" width="11px" height="12px" preserveAspectRatio="xMinYMin meet" x="36" y="-235"/>
<text text-anchor="start" x="51" y="-226.2" font-family="Helvetica,sans-Serif" font-size="11.00">renovation_demand</text>
<polygon fill="#ffffff" stroke="transparent" points="31,-196 31,-218 201,-218 201,-196 31,-196"/>
<polygon fill="none" stroke="black" points="31,-196 31,-218 201,-218 201,-196 31,-196"/>
<image xlink:href="../../images/foreignKeys.png" width="11px" height="12px" preserveAspectRatio="xMinYMin meet" x="36" y="-213"/>
<text text-anchor="start" x="51" y="-204.2" font-family="Helvetica,sans-Serif" font-size="11.00">fk_dataowner</text>
<polygon fill="none" stroke="black" points="31,-174 31,-196 201,-196 201,-174 31,-174"/>
<image xlink:href="../../images/foreignKeys.png" width="11px" height="12px" preserveAspectRatio="xMinYMin meet" x="36" y="-191"/>
<text text-anchor="start" x="51" y="-182.2" font-family="Helvetica,sans-Serif" font-size="11.00">fk_provider</text>
<polygon fill="none" stroke="black" points="31,-152 31,-174 201,-174 201,-152 31,-152"/>
<image xlink:href="../../images/foreignKeys.png" width="11px" height="12px" preserveAspectRatio="xMinYMin meet" x="36" y="-169"/>
<text text-anchor="start" x="51" y="-160.2" font-family="Helvetica,sans-Serif" font-size="11.00">fk_wastewater_structure</text>
<polygon fill="none" stroke="black" points="31,-134 31,-152 201,-152 201,-134 31,-134"/>
<text text-anchor="start" x="34" y="-140.2" font-family="Helvetica,sans-Serif" font-size="11.00">...</text>
<polygon fill="#ffffff" stroke="transparent" points="31,-116 31,-134 106,-134 106,-116 31,-116"/>
<polygon fill="none" stroke="black" points="31,-116 31,-134 106,-134 106,-116 31,-116"/>
<text text-anchor="start" x="34" y="-122.2" font-family="Helvetica,sans-Serif" font-size="11.00">&lt; 4</text>
<polygon fill="#ffffff" stroke="transparent" points="106,-116 106,-134 146,-134 146,-116 106,-116"/>
<polygon fill="none" stroke="black" points="106,-116 106,-134 146,-134 146,-116 106,-116"/>
<text text-anchor="start" x="136" y="-122.2" font-family="Helvetica,sans-Serif" font-size="11.00"> &#160;</text>
<polygon fill="#ffffff" stroke="transparent" points="146,-116 146,-134 201,-134 201,-116 146,-116"/>
<polygon fill="none" stroke="black" points="146,-116 146,-134 201,-134 201,-116 146,-116"/>
<text text-anchor="start" x="176" y="-122.2" font-family="Helvetica,sans-Serif" font-size="11.00">12 &gt;</text>
</a>
</g>
</g>
<!-- solids_retention&#45;&gt;structure_part -->
<g id="edge2" class="edge">
<title>solids_retention:w&#45;&gt;structure_part:e</title>
<path fill="none" stroke="black" d="M264.18,-203.48C231.98,-213.68 243.22,-273 202,-273"/>
<polygon fill="black" stroke="black" points="273.14,-198.15 274.28,-206.07 272.69,-206.3 271.56,-198.38 273.14,-198.15"/>
<polyline fill="none" stroke="black" points="274.5,-202 270.54,-202.57 "/>
<ellipse fill="none" stroke="black" cx="267.37" cy="-203.02" rx="3.2" ry="3.2"/>
</g>
</g>
</svg>
