<?xml version="1.0" encoding="UTF-8" standalone="no"?>
<!DOCTYPE svg PUBLIC "-//W3C//DTD SVG 1.1//EN"
 "http://www.w3.org/Graphics/SVG/1.1/DTD/svg11.dtd">
<!-- Generated by graphviz version 2.47.1 (20210515.0534)
 -->
<!-- Title: oneDegreeRelationshipsDiagram Pages: 1 -->
<svg width="848pt" height="456pt"
 viewBox="0.00 0.00 848.00 456.00" xmlns="http://www.w3.org/2000/svg" xmlns:xlink="http://www.w3.org/1999/xlink">
<g id="graph0" class="graph" transform="scale(1 1) rotate(0) translate(4 452)">
<title>oneDegreeRelationshipsDiagram</title>
<polygon fill="#ffffff" stroke="transparent" points="-4,4 -4,-452 844,-452 844,4 -4,4"/>
<text text-anchor="middle" x="73.5" y="-7.2" font-family="Helvetica,sans-Serif" font-size="11.00">Generated by SchemaSpy</text>
<!-- waste_water_treatment -->
<g id="node1" class="node">
<title>waste_water_treatment</title>
<g id="a_node1"><a xlink:href="../../tables/waste_water_treatment.html" xlink:title="waste_water_treatment" target="_top">
<polygon fill="#ffffff" stroke="transparent" points="517,-224 517,-444 832,-444 832,-224 517,-224"/>
<polygon fill="#f5f5f5" stroke="transparent" points="519.5,-420 519.5,-442 830.5,-442 830.5,-420 519.5,-420"/>
<polygon fill="none" stroke="black" points="519.5,-420 519.5,-442 830.5,-442 830.5,-420 519.5,-420"/>
<text text-anchor="start" x="524.5" y="-429.2" font-family="Helvetica,sans-Serif" font-weight="bold" font-size="11.00">waste_water_treatment</text>
<text text-anchor="start" x="791.5" y="-428.2" font-family="Helvetica,sans-Serif" font-size="11.00">[table]</text>
<polygon fill="none" stroke="black" points="519.5,-398 519.5,-420 736.5,-420 736.5,-398 519.5,-398"/>
<image xlink:href="../../images/primaryKeys.png" width="11px" height="12px" preserveAspectRatio="xMinYMin meet" x="524.5" y="-415"/>
<text text-anchor="start" x="539.5" y="-406.2" font-family="Helvetica,sans-Serif" font-size="11.00">obj_id</text>
<polygon fill="none" stroke="black" points="736.5,-398 736.5,-420 830.5,-420 830.5,-398 736.5,-398"/>
<text text-anchor="start" x="739.5" y="-406.2" font-family="Helvetica,sans-Serif" font-size="11.00">varchar[16]</text>
<polygon fill="#ffffff" stroke="transparent" points="519.5,-376 519.5,-398 736.5,-398 736.5,-376 519.5,-376"/>
<polygon fill="none" stroke="black" points="519.5,-376 519.5,-398 736.5,-398 736.5,-376 519.5,-376"/>
<text text-anchor="start" x="539.5" y="-384.2" font-family="Helvetica,sans-Serif" font-size="11.00">identifier</text>
<polygon fill="none" stroke="black" points="736.5,-376 736.5,-398 830.5,-398 830.5,-376 736.5,-376"/>
<text text-anchor="start" x="739.5" y="-384.2" font-family="Helvetica,sans-Serif" font-size="11.00">text[2147483647]</text>
<polygon fill="none" stroke="black" points="519.5,-354 519.5,-376 736.5,-376 736.5,-354 519.5,-354"/>
<image xlink:href="../../images/foreignKeys.png" width="11px" height="12px" preserveAspectRatio="xMinYMin meet" x="524.5" y="-371"/>
<text text-anchor="start" x="539.5" y="-362.2" font-family="Helvetica,sans-Serif" font-size="11.00">kind</text>
<polygon fill="none" stroke="black" points="736.5,-354 736.5,-376 830.5,-376 830.5,-354 736.5,-354"/>
<text text-anchor="start" x="739.5" y="-362.2" font-family="Helvetica,sans-Serif" font-size="11.00">int4[10]</text>
<polygon fill="none" stroke="black" points="519.5,-332 519.5,-354 736.5,-354 736.5,-332 519.5,-332"/>
<text text-anchor="start" x="539.5" y="-340.2" font-family="Helvetica,sans-Serif" font-size="11.00">remark</text>
<polygon fill="none" stroke="black" points="736.5,-332 736.5,-354 830.5,-354 830.5,-332 736.5,-332"/>
<text text-anchor="start" x="739.5" y="-340.2" font-family="Helvetica,sans-Serif" font-size="11.00">text[2147483647]</text>
<polygon fill="none" stroke="black" points="519.5,-310 519.5,-332 736.5,-332 736.5,-310 519.5,-310"/>
<text text-anchor="start" x="539.5" y="-318.2" font-family="Helvetica,sans-Serif" font-size="11.00">last_modification</text>
<polygon fill="none" stroke="black" points="736.5,-310 736.5,-332 830.5,-332 830.5,-310 736.5,-310"/>
<text text-anchor="start" x="739.5" y="-318.2" font-family="Helvetica,sans-Serif" font-size="11.00">timestamp[29,6]</text>
<polygon fill="#ffffff" stroke="transparent" points="519.5,-288 519.5,-310 736.5,-310 736.5,-288 519.5,-288"/>
<polygon fill="none" stroke="black" points="519.5,-288 519.5,-310 736.5,-310 736.5,-288 519.5,-288"/>
<image xlink:href="../../images/foreignKeys.png" width="11px" height="12px" preserveAspectRatio="xMinYMin meet" x="524.5" y="-305"/>
<text text-anchor="start" x="539.5" y="-296.2" font-family="Helvetica,sans-Serif" font-size="11.00">fk_dataowner</text>
<polygon fill="none" stroke="black" points="736.5,-288 736.5,-310 830.5,-310 830.5,-288 736.5,-288"/>
<text text-anchor="start" x="739.5" y="-296.2" font-family="Helvetica,sans-Serif" font-size="11.00">varchar[16]</text>
<polygon fill="none" stroke="black" points="519.5,-266 519.5,-288 736.5,-288 736.5,-266 519.5,-266"/>
<image xlink:href="../../images/foreignKeys.png" width="11px" height="12px" preserveAspectRatio="xMinYMin meet" x="524.5" y="-283"/>
<text text-anchor="start" x="539.5" y="-274.2" font-family="Helvetica,sans-Serif" font-size="11.00">fk_provider</text>
<polygon fill="none" stroke="black" points="736.5,-266 736.5,-288 830.5,-288 830.5,-266 736.5,-266"/>
<text text-anchor="start" x="739.5" y="-274.2" font-family="Helvetica,sans-Serif" font-size="11.00">varchar[16]</text>
<polygon fill="none" stroke="black" points="519.5,-244 519.5,-266 736.5,-266 736.5,-244 519.5,-244"/>
<image xlink:href="../../images/foreignKeys.png" width="11px" height="12px" preserveAspectRatio="xMinYMin meet" x="524.5" y="-261"/>
<text text-anchor="start" x="539.5" y="-252.2" font-family="Helvetica,sans-Serif" font-size="11.00">fk_waste_water_treatment_plant</text>
<polygon fill="none" stroke="black" points="736.5,-244 736.5,-266 830.5,-266 830.5,-244 736.5,-244"/>
<text text-anchor="start" x="739.5" y="-252.2" font-family="Helvetica,sans-Serif" font-size="11.00">varchar[16]</text>
<polygon fill="#ffffff" stroke="transparent" points="519.5,-226 519.5,-244 632.5,-244 632.5,-226 519.5,-226"/>
<polygon fill="none" stroke="black" points="519.5,-226 519.5,-244 632.5,-244 632.5,-226 519.5,-226"/>
<text text-anchor="start" x="522.5" y="-232.2" font-family="Helvetica,sans-Serif" font-size="11.00">&lt; 4</text>
<polygon fill="#ffffff" stroke="transparent" points="632.5,-226 632.5,-244 736.5,-244 736.5,-226 632.5,-226"/>
<polygon fill="none" stroke="black" points="632.5,-226 632.5,-244 736.5,-244 736.5,-226 632.5,-226"/>
<text text-anchor="start" x="726.5" y="-232.2" font-family="Helvetica,sans-Serif" font-size="11.00"> &#160;</text>
<polygon fill="#ffffff" stroke="transparent" points="736.5,-226 736.5,-244 830.5,-244 830.5,-226 736.5,-226"/>
<polygon fill="none" stroke="black" points="736.5,-226 736.5,-244 830.5,-244 830.5,-226 736.5,-226"/>
<text text-anchor="start" x="811.5" y="-232.2" font-family="Helvetica,sans-Serif" font-size="11.00">0 &gt;</text>
<polygon fill="none" stroke="black" stroke-width="2" points="518,-225 518,-443 831,-443 831,-225 518,-225"/>
</a>
</g>
</g>
<!-- organisation -->
<g id="node2" class="node">
<title>organisation</title>
<g id="a_node2"><a xlink:href="../../tables/organisation.html" xlink:title="organisation" target="_top">
<polygon fill="#ffffff" stroke="transparent" points="8,-37 8,-227 156,-227 156,-37 8,-37"/>
<polygon fill="#f5f5f5" stroke="transparent" points="8,-205 8,-227 156,-227 156,-205 8,-205"/>
<polygon fill="none" stroke="black" points="8,-205 8,-227 156,-227 156,-205 8,-205"/>
<text text-anchor="start" x="13" y="-214.2" font-family="Helvetica,sans-Serif" font-weight="bold" font-size="11.00">organisation</text>
<text text-anchor="start" x="117" y="-213.2" font-family="Helvetica,sans-Serif" font-size="11.00">[table]</text>
<polygon fill="none" stroke="black" points="8,-183 8,-205 156,-205 156,-183 8,-183"/>
<image xlink:href="../../images/primaryKeys.png" width="11px" height="12px" preserveAspectRatio="xMinYMin meet" x="13" y="-200"/>
<text text-anchor="start" x="28" y="-191.2" font-family="Helvetica,sans-Serif" font-size="11.00">obj_id</text>
<polygon fill="#ffffff" stroke="transparent" points="8,-161 8,-183 156,-183 156,-161 8,-161"/>
<polygon fill="none" stroke="black" points="8,-161 8,-183 156,-183 156,-161 8,-161"/>
<text text-anchor="start" x="28" y="-169.2" font-family="Helvetica,sans-Serif" font-size="11.00">identifier</text>
<polygon fill="none" stroke="black" points="8,-139 8,-161 156,-161 156,-139 8,-139"/>
<image xlink:href="../../images/foreignKeys.png" width="11px" height="12px" preserveAspectRatio="xMinYMin meet" x="13" y="-156"/>
<text text-anchor="start" x="28" y="-147.2" font-family="Helvetica,sans-Serif" font-size="11.00">organisation_type</text>
<polygon fill="none" stroke="black" points="8,-117 8,-139 156,-139 156,-117 8,-117"/>
<image xlink:href="../../images/foreignKeys.png" width="11px" height="12px" preserveAspectRatio="xMinYMin meet" x="13" y="-134"/>
<text text-anchor="start" x="28" y="-125.2" font-family="Helvetica,sans-Serif" font-size="11.00">status</text>
<polygon fill="#ffffff" stroke="transparent" points="8,-95 8,-117 156,-117 156,-95 8,-95"/>
<polygon fill="none" stroke="black" points="8,-95 8,-117 156,-117 156,-95 8,-95"/>
<image xlink:href="../../images/foreignKeys.png" width="11px" height="12px" preserveAspectRatio="xMinYMin meet" x="13" y="-112"/>
<text text-anchor="start" x="28" y="-103.2" font-family="Helvetica,sans-Serif" font-size="11.00">fk_dataowner</text>
<polygon fill="none" stroke="black" points="8,-73 8,-95 156,-95 156,-73 8,-73"/>
<image xlink:href="../../images/foreignKeys.png" width="11px" height="12px" preserveAspectRatio="xMinYMin meet" x="13" y="-90"/>
<text text-anchor="start" x="28" y="-81.2" font-family="Helvetica,sans-Serif" font-size="11.00">fk_provider</text>
<polygon fill="none" stroke="black" points="8,-55 8,-73 156,-73 156,-55 8,-55"/>
<text text-anchor="start" x="11" y="-61.2" font-family="Helvetica,sans-Serif" font-size="11.00">...</text>
<polygon fill="#ffffff" stroke="transparent" points="8,-37 8,-55 72,-55 72,-37 8,-37"/>
<polygon fill="none" stroke="black" points="8,-37 8,-55 72,-55 72,-37 8,-37"/>
<text text-anchor="start" x="11" y="-43.2" font-family="Helvetica,sans-Serif" font-size="11.00">&lt; 4</text>
<polygon fill="#ffffff" stroke="transparent" points="72,-37 72,-55 106,-55 106,-37 72,-37"/>
<polygon fill="none" stroke="black" points="72,-37 72,-55 106,-55 106,-37 72,-37"/>
<text text-anchor="start" x="96" y="-43.2" font-family="Helvetica,sans-Serif" font-size="11.00"> &#160;</text>
<polygon fill="#ffffff" stroke="transparent" points="106,-37 106,-55 156,-55 156,-37 106,-37"/>
<polygon fill="none" stroke="black" points="106,-37 106,-55 156,-55 156,-37 106,-37"/>
<text text-anchor="start" x="131" y="-43.2" font-family="Helvetica,sans-Serif" font-size="11.00">92 &gt;</text>
</a>
</g>
</g>
<!-- waste_water_treatment&#45;&gt;organisation -->
<g id="edge1" class="edge">
<title>waste_water_treatment:w&#45;&gt;organisation:e</title>
<path fill="none" stroke="black" d="M503.76,-299.31C423.64,-302.28 252.28,-324.9 197,-287 159.89,-261.56 201.99,-194 157,-194"/>
<polygon fill="black" stroke="black" points="510.5,-299.17 518.58,-302.6 514.5,-299.08 518.5,-299 518.5,-299 518.5,-299 514.5,-299.08 518.42,-295.4 510.5,-299.17 510.5,-299.17"/>
<ellipse fill="none" stroke="black" cx="507.3" cy="-299.24" rx="3.2" ry="3.2"/>
</g>
<!-- waste_water_treatment&#45;&gt;organisation -->
<g id="edge2" class="edge">
<title>waste_water_treatment:w&#45;&gt;organisation:e</title>
<path fill="none" stroke="black" d="M503.78,-277.26C423.88,-279.78 254.29,-298.81 197,-264 166.38,-245.39 192.83,-194 157,-194"/>
<polygon fill="black" stroke="black" points="510.5,-277.14 518.56,-280.6 514.5,-277.07 518.5,-277 518.5,-277 518.5,-277 514.5,-277.07 518.44,-273.4 510.5,-277.14 510.5,-277.14"/>
<ellipse fill="none" stroke="black" cx="507.3" cy="-277.2" rx="3.2" ry="3.2"/>
</g>
<!-- waste_water_treatment_plant -->
<g id="node3" class="node">
<title>waste_water_treatment_plant</title>
<g id="a_node3"><a xlink:href="../../tables/waste_water_treatment_plant.html" xlink:title="waste_water_treatment_plant" target="_top">
<polygon fill="#ffffff" stroke="transparent" points="225,-41 225,-253 448,-253 448,-41 225,-41"/>
<polygon fill="#f5f5f5" stroke="transparent" points="225.5,-231 225.5,-253 448.5,-253 448.5,-231 225.5,-231"/>
<polygon fill="none" stroke="black" points="225.5,-231 225.5,-253 448.5,-253 448.5,-231 225.5,-231"/>
<text text-anchor="start" x="230.5" y="-240.2" font-family="Helvetica,sans-Serif" font-weight="bold" font-size="11.00">waste_water_treatment_plant</text>
<text text-anchor="start" x="409.5" y="-239.2" font-family="Helvetica,sans-Serif" font-size="11.00">[table]</text>
<polygon fill="none" stroke="black" points="225.5,-209 225.5,-231 448.5,-231 448.5,-209 225.5,-209"/>
<image xlink:href="../../images/primaryKeys.png" width="11px" height="12px" preserveAspectRatio="xMinYMin meet" x="230.5" y="-226"/>
<text text-anchor="start" x="257.5" y="-217.2" font-family="Helvetica,sans-Serif" font-size="11.00">obj_id</text>
<polygon fill="#ffffff" stroke="transparent" points="225.5,-187 225.5,-209 448.5,-209 448.5,-187 225.5,-187"/>
<polygon fill="none" stroke="black" points="225.5,-187 225.5,-209 448.5,-209 448.5,-187 225.5,-187"/>
<text text-anchor="start" x="257.5" y="-195.2" font-family="Helvetica,sans-Serif" font-size="11.00">area_geometry</text>
<polygon fill="#ffffff" stroke="transparent" points="225.5,-165 225.5,-187 448.5,-187 448.5,-165 225.5,-165"/>
<polygon fill="none" stroke="black" points="225.5,-165 225.5,-187 448.5,-187 448.5,-165 225.5,-165"/>
<text text-anchor="start" x="257.5" y="-173.2" font-family="Helvetica,sans-Serif" font-size="11.00">identifier</text>
<polygon fill="none" stroke="black" points="225.5,-143 225.5,-165 448.5,-165 448.5,-143 225.5,-143"/>
<image xlink:href="../../images/foreignKeys.png" width="11px" height="12px" preserveAspectRatio="xMinYMin meet" x="230.5" y="-160"/>
<text text-anchor="start" x="257.5" y="-151.2" font-family="Helvetica,sans-Serif" font-size="11.00">operator_type</text>
<polygon fill="#ffffff" stroke="transparent" points="225.5,-121 225.5,-143 448.5,-143 448.5,-121 225.5,-121"/>
<polygon fill="none" stroke="black" points="225.5,-121 225.5,-143 448.5,-143 448.5,-121 225.5,-121"/>
<text text-anchor="start" x="257.5" y="-129.2" font-family="Helvetica,sans-Serif" font-size="11.00">situation_geometry</text>
<polygon fill="#ffffff" stroke="transparent" points="225.5,-99 225.5,-121 448.5,-121 448.5,-99 225.5,-99"/>
<polygon fill="none" stroke="black" points="225.5,-99 225.5,-121 448.5,-121 448.5,-99 225.5,-99"/>
<image xlink:href="../../images/foreignKeys.png" width="11px" height="12px" preserveAspectRatio="xMinYMin meet" x="230.5" y="-116"/>
<text text-anchor="start" x="257.5" y="-107.2" font-family="Helvetica,sans-Serif" font-size="11.00">fk_dataowner</text>
<polygon fill="none" stroke="black" points="225.5,-77 225.5,-99 448.5,-99 448.5,-77 225.5,-77"/>
<image xlink:href="../../images/foreignKeys.png" width="11px" height="12px" preserveAspectRatio="xMinYMin meet" x="230.5" y="-94"/>
<text text-anchor="start" x="257.5" y="-85.2" font-family="Helvetica,sans-Serif" font-size="11.00">fk_provider</text>
<polygon fill="none" stroke="black" points="225.5,-59 225.5,-77 448.5,-77 448.5,-59 225.5,-59"/>
<text text-anchor="start" x="228.5" y="-65.2" font-family="Helvetica,sans-Serif" font-size="11.00">...</text>
<polygon fill="#ffffff" stroke="transparent" points="225.5,-41 225.5,-59 330.5,-59 330.5,-41 225.5,-41"/>
<polygon fill="none" stroke="black" points="225.5,-41 225.5,-59 330.5,-59 330.5,-41 225.5,-41"/>
<text text-anchor="start" x="228.5" y="-47.2" font-family="Helvetica,sans-Serif" font-size="11.00">&lt; 3</text>
<polygon fill="#ffffff" stroke="transparent" points="330.5,-41 330.5,-59 384.5,-59 384.5,-41 330.5,-41"/>
<polygon fill="none" stroke="black" points="330.5,-41 330.5,-59 384.5,-59 384.5,-41 330.5,-41"/>
<text text-anchor="start" x="374.5" y="-47.2" font-family="Helvetica,sans-Serif" font-size="11.00"> &#160;</text>
<polygon fill="#ffffff" stroke="transparent" points="384.5,-41 384.5,-59 448.5,-59 448.5,-41 384.5,-41"/>
<polygon fill="none" stroke="black" points="384.5,-41 384.5,-59 448.5,-59 448.5,-41 384.5,-41"/>
<text text-anchor="start" x="429.5" y="-47.2" font-family="Helvetica,sans-Serif" font-size="11.00">5 &gt;</text>
</a>
</g>
</g>
<!-- waste_water_treatment&#45;&gt;waste_water_treatment_plant -->
<g id="edge3" class="edge">
<title>waste_water_treatment:w&#45;&gt;waste_water_treatment_plant:e</title>
<path fill="none" stroke="black" d="M504.03,-252.48C483.12,-244.46 478.24,-220 449.5,-220"/>
<polygon fill="black" stroke="black" points="510.62,-253.63 517.88,-258.55 514.56,-254.31 518.5,-255 518.5,-255 518.5,-255 514.56,-254.31 519.12,-251.45 510.62,-253.63 510.62,-253.63"/>
<ellipse fill="none" stroke="black" cx="507.47" cy="-253.08" rx="3.2" ry="3.2"/>
</g>
<!-- tww_vl.waste_water_treatment_kind -->
<g id="node4" class="node">
<title>tww_vl.waste_water_treatment_kind</title>
<g id="a_node4"><a xlink:href="../../../tww_vl/tables/waste_water_treatment_kind.html" xlink:title="tww_vl.waste_water_treatment_kind" target="_top">
<polygon fill="#ffffff" stroke="transparent" points="205,-336 205,-394 468,-394 468,-336 205,-336"/>
<polygon fill="#f5f5f5" stroke="transparent" points="205.5,-372 205.5,-394 468.5,-394 468.5,-372 205.5,-372"/>
<polygon fill="none" stroke="black" points="205.5,-372 205.5,-394 468.5,-394 468.5,-372 205.5,-372"/>
<text text-anchor="start" x="210.5" y="-381.2" font-family="Helvetica,sans-Serif" font-weight="bold" font-size="11.00">tww_vl.waste_water_treatment_kind</text>
<text text-anchor="start" x="429.5" y="-380.2" font-family="Helvetica,sans-Serif" font-size="11.00">[table]</text>
<polygon fill="none" stroke="black" points="205.5,-354 205.5,-372 468.5,-372 468.5,-354 205.5,-354"/>
<text text-anchor="start" x="208.5" y="-360.2" font-family="Helvetica,sans-Serif" font-size="11.00">...</text>
<polygon fill="#ffffff" stroke="transparent" points="205.5,-336 205.5,-354 312.5,-354 312.5,-336 205.5,-336"/>
<polygon fill="none" stroke="black" points="205.5,-336 205.5,-354 312.5,-354 312.5,-336 205.5,-336"/>
<text text-anchor="start" x="208.5" y="-342.2" font-family="Helvetica,sans-Serif" font-size="11.00"> &#160;</text>
<polygon fill="#ffffff" stroke="transparent" points="312.5,-336 312.5,-354 399.5,-354 399.5,-336 312.5,-336"/>
<polygon fill="none" stroke="black" points="312.5,-336 312.5,-354 399.5,-354 399.5,-336 312.5,-336"/>
<text text-anchor="start" x="362.5" y="-342.2" font-family="Helvetica,sans-Serif" font-size="11.00">0 rows</text>
<polygon fill="#ffffff" stroke="transparent" points="399.5,-336 399.5,-354 468.5,-354 468.5,-336 399.5,-336"/>
<polygon fill="none" stroke="black" points="399.5,-336 399.5,-354 468.5,-354 468.5,-336 399.5,-336"/>
<text text-anchor="start" x="449.5" y="-342.2" font-family="Helvetica,sans-Serif" font-size="11.00">1 &gt;</text>
</a>
</g>
</g>
<!-- waste_water_treatment&#45;&gt;tww_vl.waste_water_treatment_kind -->
<g id="edge4" class="edge">
<title>waste_water_treatment:w&#45;&gt;tww_vl.waste_water_treatment_kind:e</title>
<path fill="none" stroke="black" d="M503.89,-365C494.81,-365 485.58,-365 476.34,-365"/>
<polygon fill="black" stroke="black" points="510.5,-365 518.5,-368.6 514.5,-365 518.5,-365 518.5,-365 518.5,-365 514.5,-365 518.5,-361.4 510.5,-365 510.5,-365"/>
<ellipse fill="none" stroke="black" cx="507.3" cy="-365" rx="3.2" ry="3.2"/>
</g>
<!-- waste_water_treatment_plant&#45;&gt;organisation -->
<g id="edge5" class="edge">
<title>waste_water_treatment_plant:w&#45;&gt;organisation:e</title>
<path fill="none" stroke="black" d="M210.18,-113.4C182.34,-129.11 199.09,-194 157,-194"/>
<polygon fill="black" stroke="black" points="216.72,-111.85 225.33,-113.5 220.61,-110.92 224.5,-110 224.5,-110 224.5,-110 220.61,-110.92 223.67,-106.5 216.72,-111.85 216.72,-111.85"/>
<ellipse fill="none" stroke="black" cx="213.6" cy="-112.59" rx="3.2" ry="3.2"/>
</g>
<!-- waste_water_treatment_plant&#45;&gt;organisation -->
<g id="edge6" class="edge">
<title>waste_water_treatment_plant:w&#45;&gt;organisation:e</title>
<path fill="none" stroke="black" d="M210.37,-91.06C176.59,-108.44 207.18,-194 157,-194"/>
<polygon fill="black" stroke="black" points="216.68,-89.69 225.26,-91.52 220.59,-88.85 224.5,-88 224.5,-88 224.5,-88 220.59,-88.85 223.74,-84.48 216.68,-89.69 216.68,-89.69"/>
<ellipse fill="none" stroke="black" cx="213.55" cy="-90.37" rx="3.2" ry="3.2"/>
</g>
</g>
</svg>
