<?xml version="1.0" encoding="UTF-8" standalone="no"?>
<!DOCTYPE svg PUBLIC "-//W3C//DTD SVG 1.1//EN"
 "http://www.w3.org/Graphics/SVG/1.1/DTD/svg11.dtd">
<!-- Generated by graphviz version 2.47.1 (20210515.0534)
 -->
<!-- Title: oneDegreeRelationshipsDiagram Pages: 1 -->
<svg width="808pt" height="522pt"
 viewBox="0.00 0.00 808.00 522.00" xmlns="http://www.w3.org/2000/svg" xmlns:xlink="http://www.w3.org/1999/xlink">
<g id="graph0" class="graph" transform="scale(1 1) rotate(0) translate(4 518)">
<title>oneDegreeRelationshipsDiagram</title>
<polygon fill="#ffffff" stroke="transparent" points="-4,4 -4,-518 804,-518 804,4 -4,4"/>
<text text-anchor="middle" x="73.5" y="-7.2" font-family="Helvetica,sans-Serif" font-size="11.00">Generated by SchemaSpy</text>
<!-- waste_water_treatment_plant -->
<g id="node1" class="node">
<title>waste_water_treatment_plant</title>
<g id="a_node1"><a xlink:href="../../tables/waste_water_treatment_plant.html" xlink:title="waste_water_treatment_plant" target="_top">
<polygon fill="#ffffff" stroke="transparent" points="205,-63 205,-275 428,-275 428,-63 205,-63"/>
<polygon fill="#f5f5f5" stroke="transparent" points="205.5,-253 205.5,-275 428.5,-275 428.5,-253 205.5,-253"/>
<polygon fill="none" stroke="black" points="205.5,-253 205.5,-275 428.5,-275 428.5,-253 205.5,-253"/>
<text text-anchor="start" x="210.5" y="-262.2" font-family="Helvetica,sans-Serif" font-weight="bold" font-size="11.00">waste_water_treatment_plant</text>
<text text-anchor="start" x="389.5" y="-261.2" font-family="Helvetica,sans-Serif" font-size="11.00">[table]</text>
<polygon fill="none" stroke="black" points="205.5,-231 205.5,-253 428.5,-253 428.5,-231 205.5,-231"/>
<image xlink:href="../../images/primaryKeys.png" width="11px" height="12px" preserveAspectRatio="xMinYMin meet" x="210.5" y="-248"/>
<text text-anchor="start" x="237.5" y="-239.2" font-family="Helvetica,sans-Serif" font-size="11.00">obj_id</text>
<polygon fill="#ffffff" stroke="transparent" points="205.5,-209 205.5,-231 428.5,-231 428.5,-209 205.5,-209"/>
<polygon fill="none" stroke="black" points="205.5,-209 205.5,-231 428.5,-231 428.5,-209 205.5,-209"/>
<text text-anchor="start" x="237.5" y="-217.2" font-family="Helvetica,sans-Serif" font-size="11.00">area_geometry</text>
<polygon fill="#ffffff" stroke="transparent" points="205.5,-187 205.5,-209 428.5,-209 428.5,-187 205.5,-187"/>
<polygon fill="none" stroke="black" points="205.5,-187 205.5,-209 428.5,-209 428.5,-187 205.5,-187"/>
<text text-anchor="start" x="237.5" y="-195.2" font-family="Helvetica,sans-Serif" font-size="11.00">identifier</text>
<polygon fill="none" stroke="black" points="205.5,-165 205.5,-187 428.5,-187 428.5,-165 205.5,-165"/>
<image xlink:href="../../images/foreignKeys.png" width="11px" height="12px" preserveAspectRatio="xMinYMin meet" x="210.5" y="-182"/>
<text text-anchor="start" x="237.5" y="-173.2" font-family="Helvetica,sans-Serif" font-size="11.00">operator_type</text>
<polygon fill="#ffffff" stroke="transparent" points="205.5,-143 205.5,-165 428.5,-165 428.5,-143 205.5,-143"/>
<polygon fill="none" stroke="black" points="205.5,-143 205.5,-165 428.5,-165 428.5,-143 205.5,-143"/>
<text text-anchor="start" x="237.5" y="-151.2" font-family="Helvetica,sans-Serif" font-size="11.00">situation_geometry</text>
<polygon fill="#ffffff" stroke="transparent" points="205.5,-121 205.5,-143 428.5,-143 428.5,-121 205.5,-121"/>
<polygon fill="none" stroke="black" points="205.5,-121 205.5,-143 428.5,-143 428.5,-121 205.5,-121"/>
<image xlink:href="../../images/foreignKeys.png" width="11px" height="12px" preserveAspectRatio="xMinYMin meet" x="210.5" y="-138"/>
<text text-anchor="start" x="237.5" y="-129.2" font-family="Helvetica,sans-Serif" font-size="11.00">fk_dataowner</text>
<polygon fill="none" stroke="black" points="205.5,-99 205.5,-121 428.5,-121 428.5,-99 205.5,-99"/>
<image xlink:href="../../images/foreignKeys.png" width="11px" height="12px" preserveAspectRatio="xMinYMin meet" x="210.5" y="-116"/>
<text text-anchor="start" x="237.5" y="-107.2" font-family="Helvetica,sans-Serif" font-size="11.00">fk_provider</text>
<polygon fill="none" stroke="black" points="205.5,-81 205.5,-99 428.5,-99 428.5,-81 205.5,-81"/>
<text text-anchor="start" x="208.5" y="-87.2" font-family="Helvetica,sans-Serif" font-size="11.00">...</text>
<polygon fill="#ffffff" stroke="transparent" points="205.5,-63 205.5,-81 310.5,-81 310.5,-63 205.5,-63"/>
<polygon fill="none" stroke="black" points="205.5,-63 205.5,-81 310.5,-81 310.5,-63 205.5,-63"/>
<text text-anchor="start" x="208.5" y="-69.2" font-family="Helvetica,sans-Serif" font-size="11.00">&lt; 3</text>
<polygon fill="#ffffff" stroke="transparent" points="310.5,-63 310.5,-81 364.5,-81 364.5,-63 310.5,-63"/>
<polygon fill="none" stroke="black" points="310.5,-63 310.5,-81 364.5,-81 364.5,-63 310.5,-63"/>
<text text-anchor="start" x="354.5" y="-69.2" font-family="Helvetica,sans-Serif" font-size="11.00"> &#160;</text>
<polygon fill="#ffffff" stroke="transparent" points="364.5,-63 364.5,-81 428.5,-81 428.5,-63 364.5,-63"/>
<polygon fill="none" stroke="black" points="364.5,-63 364.5,-81 428.5,-81 428.5,-63 364.5,-63"/>
<text text-anchor="start" x="409.5" y="-69.2" font-family="Helvetica,sans-Serif" font-size="11.00">5 &gt;</text>
</a>
</g>
</g>
<!-- organisation -->
<g id="node2" class="node">
<title>organisation</title>
<g id="a_node2"><a xlink:href="../../tables/organisation.html" xlink:title="organisation" target="_top">
<polygon fill="#ffffff" stroke="transparent" points="8,-37 8,-249 156,-249 156,-37 8,-37"/>
<polygon fill="#f5f5f5" stroke="transparent" points="8,-227 8,-249 156,-249 156,-227 8,-227"/>
<polygon fill="none" stroke="black" points="8,-227 8,-249 156,-249 156,-227 8,-227"/>
<text text-anchor="start" x="13" y="-236.2" font-family="Helvetica,sans-Serif" font-weight="bold" font-size="11.00">organisation</text>
<text text-anchor="start" x="117" y="-235.2" font-family="Helvetica,sans-Serif" font-size="11.00">[table]</text>
<polygon fill="none" stroke="black" points="8,-205 8,-227 156,-227 156,-205 8,-205"/>
<image xlink:href="../../images/primaryKeys.png" width="11px" height="12px" preserveAspectRatio="xMinYMin meet" x="13" y="-222"/>
<text text-anchor="start" x="28" y="-213.2" font-family="Helvetica,sans-Serif" font-size="11.00">obj_id</text>
<polygon fill="#ffffff" stroke="transparent" points="8,-183 8,-205 156,-205 156,-183 8,-183"/>
<polygon fill="none" stroke="black" points="8,-183 8,-205 156,-205 156,-183 8,-183"/>
<text text-anchor="start" x="28" y="-191.2" font-family="Helvetica,sans-Serif" font-size="11.00">identifier</text>
<polygon fill="#ffffff" stroke="transparent" points="8,-161 8,-183 156,-183 156,-161 8,-161"/>
<polygon fill="none" stroke="black" points="8,-161 8,-183 156,-183 156,-161 8,-161"/>
<image xlink:href="../../images/foreignKeys.png" width="11px" height="12px" preserveAspectRatio="xMinYMin meet" x="13" y="-178"/>
<text text-anchor="start" x="28" y="-169.2" font-family="Helvetica,sans-Serif" font-size="11.00">organisation_type</text>
<polygon fill="none" stroke="black" points="8,-139 8,-161 156,-161 156,-139 8,-139"/>
<image xlink:href="../../images/foreignKeys.png" width="11px" height="12px" preserveAspectRatio="xMinYMin meet" x="13" y="-156"/>
<text text-anchor="start" x="28" y="-147.2" font-family="Helvetica,sans-Serif" font-size="11.00">status</text>
<polygon fill="#ffffff" stroke="transparent" points="8,-117 8,-139 156,-139 156,-117 8,-117"/>
<polygon fill="none" stroke="black" points="8,-117 8,-139 156,-139 156,-117 8,-117"/>
<text text-anchor="start" x="28" y="-125.2" font-family="Helvetica,sans-Serif" font-size="11.00">uid</text>
<polygon fill="none" stroke="black" points="8,-95 8,-117 156,-117 156,-95 8,-95"/>
<image xlink:href="../../images/foreignKeys.png" width="11px" height="12px" preserveAspectRatio="xMinYMin meet" x="13" y="-112"/>
<text text-anchor="start" x="28" y="-103.2" font-family="Helvetica,sans-Serif" font-size="11.00">fk_dataowner</text>
<polygon fill="none" stroke="black" points="8,-73 8,-95 156,-95 156,-73 8,-73"/>
<image xlink:href="../../images/foreignKeys.png" width="11px" height="12px" preserveAspectRatio="xMinYMin meet" x="13" y="-90"/>
<text text-anchor="start" x="28" y="-81.2" font-family="Helvetica,sans-Serif" font-size="11.00">fk_provider</text>
<polygon fill="none" stroke="black" points="8,-55 8,-73 156,-73 156,-55 8,-55"/>
<text text-anchor="start" x="11" y="-61.2" font-family="Helvetica,sans-Serif" font-size="11.00">...</text>
<polygon fill="#ffffff" stroke="transparent" points="8,-37 8,-55 72,-55 72,-37 8,-37"/>
<polygon fill="none" stroke="black" points="8,-37 8,-55 72,-55 72,-37 8,-37"/>
<text text-anchor="start" x="11" y="-43.2" font-family="Helvetica,sans-Serif" font-size="11.00">&lt; 4</text>
<polygon fill="#ffffff" stroke="transparent" points="72,-37 72,-55 106,-55 106,-37 72,-37"/>
<polygon fill="none" stroke="black" points="72,-37 72,-55 106,-55 106,-37 72,-37"/>
<text text-anchor="start" x="96" y="-43.2" font-family="Helvetica,sans-Serif" font-size="11.00"> &#160;</text>
<polygon fill="#ffffff" stroke="transparent" points="106,-37 106,-55 156,-55 156,-37 106,-37"/>
<polygon fill="none" stroke="black" points="106,-37 106,-55 156,-55 156,-37 106,-37"/>
<text text-anchor="start" x="131" y="-43.2" font-family="Helvetica,sans-Serif" font-size="11.00">98 &gt;</text>
</a>
</g>
</g>
<!-- waste_water_treatment_plant&#45;&gt;organisation -->
<g id="edge1" class="edge">
<title>waste_water_treatment_plant:w&#45;&gt;organisation:e</title>
<path fill="none" stroke="black" d="M190.77,-136.52C170.77,-153.96 193.86,-216 157,-216"/>
<polygon fill="black" stroke="black" points="196.9,-134.5 205.62,-135.42 200.7,-133.25 204.5,-132 204.5,-132 204.5,-132 200.7,-133.25 203.38,-128.58 196.9,-134.5 196.9,-134.5"/>
<ellipse fill="none" stroke="black" cx="193.86" cy="-135.5" rx="3.2" ry="3.2"/>
</g>
<!-- waste_water_treatment_plant&#45;&gt;organisation -->
<g id="edge2" class="edge">
<title>waste_water_treatment_plant:w&#45;&gt;organisation:e</title>
<path fill="none" stroke="black" d="M190.43,-114.03C164.47,-133.39 202.58,-216 157,-216"/>
<polygon fill="black" stroke="black" points="196.81,-112.2 205.49,-113.46 200.65,-111.1 204.5,-110 204.5,-110 204.5,-110 200.65,-111.1 203.51,-106.54 196.81,-112.2 196.81,-112.2"/>
<ellipse fill="none" stroke="black" cx="193.73" cy="-113.08" rx="3.2" ry="3.2"/>
</g>
<!-- wwtp_energy_use -->
<g id="node3" class="node">
<title>wwtp_energy_use</title>
<g id="a_node3"><a xlink:href="../../tables/wwtp_energy_use.html" xlink:title="wwtp_energy_use" target="_top">
<polygon fill="#ffffff" stroke="transparent" points="477,-246 477,-510 792,-510 792,-246 477,-246"/>
<polygon fill="#f5f5f5" stroke="transparent" points="479.5,-486 479.5,-508 790.5,-508 790.5,-486 479.5,-486"/>
<polygon fill="none" stroke="black" points="479.5,-486 479.5,-508 790.5,-508 790.5,-486 479.5,-486"/>
<text text-anchor="start" x="484.5" y="-495.2" font-family="Helvetica,sans-Serif" font-weight="bold" font-size="11.00">wwtp_energy_use</text>
<text text-anchor="start" x="751.5" y="-494.2" font-family="Helvetica,sans-Serif" font-size="11.00">[table]</text>
<polygon fill="none" stroke="black" points="479.5,-464 479.5,-486 696.5,-486 696.5,-464 479.5,-464"/>
<image xlink:href="../../images/primaryKeys.png" width="11px" height="12px" preserveAspectRatio="xMinYMin meet" x="484.5" y="-481"/>
<text text-anchor="start" x="499.5" y="-472.2" font-family="Helvetica,sans-Serif" font-size="11.00">obj_id</text>
<polygon fill="none" stroke="black" points="696.5,-464 696.5,-486 790.5,-486 790.5,-464 696.5,-464"/>
<text text-anchor="start" x="699.5" y="-472.2" font-family="Helvetica,sans-Serif" font-size="11.00">varchar[16]</text>
<polygon fill="none" stroke="black" points="479.5,-442 479.5,-464 696.5,-464 696.5,-442 479.5,-442"/>
<text text-anchor="start" x="499.5" y="-450.2" font-family="Helvetica,sans-Serif" font-size="11.00">gas_motor</text>
<polygon fill="none" stroke="black" points="696.5,-442 696.5,-464 790.5,-464 790.5,-442 696.5,-442"/>
<text text-anchor="start" x="699.5" y="-450.2" font-family="Helvetica,sans-Serif" font-size="11.00">int4[10]</text>
<polygon fill="none" stroke="black" points="479.5,-420 479.5,-442 696.5,-442 696.5,-420 479.5,-420"/>
<text text-anchor="start" x="499.5" y="-428.2" font-family="Helvetica,sans-Serif" font-size="11.00">heat_pump</text>
<polygon fill="none" stroke="black" points="696.5,-420 696.5,-442 790.5,-442 790.5,-420 696.5,-420"/>
<text text-anchor="start" x="699.5" y="-428.2" font-family="Helvetica,sans-Serif" font-size="11.00">int4[10]</text>
<polygon fill="#ffffff" stroke="transparent" points="479.5,-398 479.5,-420 696.5,-420 696.5,-398 479.5,-398"/>
<polygon fill="none" stroke="black" points="479.5,-398 479.5,-420 696.5,-420 696.5,-398 479.5,-398"/>
<text text-anchor="start" x="499.5" y="-406.2" font-family="Helvetica,sans-Serif" font-size="11.00">identifier</text>
<polygon fill="none" stroke="black" points="696.5,-398 696.5,-420 790.5,-420 790.5,-398 696.5,-398"/>
<text text-anchor="start" x="699.5" y="-406.2" font-family="Helvetica,sans-Serif" font-size="11.00">text[2147483647]</text>
<polygon fill="none" stroke="black" points="479.5,-376 479.5,-398 696.5,-398 696.5,-376 479.5,-376"/>
<text text-anchor="start" x="499.5" y="-384.2" font-family="Helvetica,sans-Serif" font-size="11.00">remark</text>
<polygon fill="none" stroke="black" points="696.5,-376 696.5,-398 790.5,-398 790.5,-376 696.5,-376"/>
<text text-anchor="start" x="699.5" y="-384.2" font-family="Helvetica,sans-Serif" font-size="11.00">text[2147483647]</text>
<polygon fill="none" stroke="black" points="479.5,-354 479.5,-376 696.5,-376 696.5,-354 479.5,-354"/>
<text text-anchor="start" x="499.5" y="-362.2" font-family="Helvetica,sans-Serif" font-size="11.00">turbining</text>
<polygon fill="none" stroke="black" points="696.5,-354 696.5,-376 790.5,-376 790.5,-354 696.5,-354"/>
<text text-anchor="start" x="699.5" y="-362.2" font-family="Helvetica,sans-Serif" font-size="11.00">int4[10]</text>
<polygon fill="none" stroke="black" points="479.5,-332 479.5,-354 696.5,-354 696.5,-332 479.5,-332"/>
<text text-anchor="start" x="499.5" y="-340.2" font-family="Helvetica,sans-Serif" font-size="11.00">last_modification</text>
<polygon fill="none" stroke="black" points="696.5,-332 696.5,-354 790.5,-354 790.5,-332 696.5,-332"/>
<text text-anchor="start" x="699.5" y="-340.2" font-family="Helvetica,sans-Serif" font-size="11.00">timestamp[29,6]</text>
<polygon fill="#ffffff" stroke="transparent" points="479.5,-310 479.5,-332 696.5,-332 696.5,-310 479.5,-310"/>
<polygon fill="none" stroke="black" points="479.5,-310 479.5,-332 696.5,-332 696.5,-310 479.5,-310"/>
<image xlink:href="../../images/foreignKeys.png" width="11px" height="12px" preserveAspectRatio="xMinYMin meet" x="484.5" y="-327"/>
<text text-anchor="start" x="499.5" y="-318.2" font-family="Helvetica,sans-Serif" font-size="11.00">fk_dataowner</text>
<polygon fill="none" stroke="black" points="696.5,-310 696.5,-332 790.5,-332 790.5,-310 696.5,-310"/>
<text text-anchor="start" x="699.5" y="-318.2" font-family="Helvetica,sans-Serif" font-size="11.00">varchar[16]</text>
<polygon fill="none" stroke="black" points="479.5,-288 479.5,-310 696.5,-310 696.5,-288 479.5,-288"/>
<image xlink:href="../../images/foreignKeys.png" width="11px" height="12px" preserveAspectRatio="xMinYMin meet" x="484.5" y="-305"/>
<text text-anchor="start" x="499.5" y="-296.2" font-family="Helvetica,sans-Serif" font-size="11.00">fk_provider</text>
<polygon fill="none" stroke="black" points="696.5,-288 696.5,-310 790.5,-310 790.5,-288 696.5,-288"/>
<text text-anchor="start" x="699.5" y="-296.2" font-family="Helvetica,sans-Serif" font-size="11.00">varchar[16]</text>
<polygon fill="none" stroke="black" points="479.5,-266 479.5,-288 696.5,-288 696.5,-266 479.5,-266"/>
<image xlink:href="../../images/foreignKeys.png" width="11px" height="12px" preserveAspectRatio="xMinYMin meet" x="484.5" y="-283"/>
<text text-anchor="start" x="499.5" y="-274.2" font-family="Helvetica,sans-Serif" font-size="11.00">fk_waste_water_treatment_plant</text>
<polygon fill="none" stroke="black" points="696.5,-266 696.5,-288 790.5,-288 790.5,-266 696.5,-266"/>
<text text-anchor="start" x="699.5" y="-274.2" font-family="Helvetica,sans-Serif" font-size="11.00">varchar[16]</text>
<polygon fill="#ffffff" stroke="transparent" points="479.5,-248 479.5,-266 592.5,-266 592.5,-248 479.5,-248"/>
<polygon fill="none" stroke="black" points="479.5,-248 479.5,-266 592.5,-266 592.5,-248 479.5,-248"/>
<text text-anchor="start" x="482.5" y="-254.2" font-family="Helvetica,sans-Serif" font-size="11.00">&lt; 3</text>
<polygon fill="#ffffff" stroke="transparent" points="592.5,-248 592.5,-266 696.5,-266 696.5,-248 592.5,-248"/>
<polygon fill="none" stroke="black" points="592.5,-248 592.5,-266 696.5,-266 696.5,-248 592.5,-248"/>
<text text-anchor="start" x="686.5" y="-254.2" font-family="Helvetica,sans-Serif" font-size="11.00"> &#160;</text>
<polygon fill="#ffffff" stroke="transparent" points="696.5,-248 696.5,-266 790.5,-266 790.5,-248 696.5,-248"/>
<polygon fill="none" stroke="black" points="696.5,-248 696.5,-266 790.5,-266 790.5,-248 696.5,-248"/>
<text text-anchor="start" x="771.5" y="-254.2" font-family="Helvetica,sans-Serif" font-size="11.00">0 &gt;</text>
<polygon fill="none" stroke="black" stroke-width="2" points="478,-247 478,-509 791,-509 791,-247 478,-247"/>
</a>
</g>
</g>
<!-- wwtp_energy_use&#45;&gt;waste_water_treatment_plant -->
<g id="edge5" class="edge">
<title>wwtp_energy_use:w&#45;&gt;waste_water_treatment_plant:e</title>
<path fill="none" stroke="black" d="M464.4,-272.42C452.18,-262.94 450.2,-242 429.5,-242"/>
<polygon fill="black" stroke="black" points="470.89,-274.53 477.39,-280.42 474.7,-275.77 478.5,-277 478.5,-277 478.5,-277 474.7,-275.77 479.61,-273.58 470.89,-274.53 470.89,-274.53"/>
<ellipse fill="none" stroke="black" cx="467.85" cy="-273.54" rx="3.2" ry="3.2"/>
</g>
<!-- wwtp_energy_use&#45;&gt;organisation -->
<g id="edge3" class="edge">
<title>wwtp_energy_use:w&#45;&gt;organisation:e</title>
<path fill="none" stroke="black" d="M463.8,-321.27C348.94,-325.52 295.97,-377.23 197,-309 159.96,-283.46 201.99,-216 157,-216"/>
<polygon fill="black" stroke="black" points="470.5,-321.15 478.57,-324.6 474.5,-321.07 478.5,-321 478.5,-321 478.5,-321 474.5,-321.07 478.43,-317.4 470.5,-321.15 470.5,-321.15"/>
<ellipse fill="none" stroke="black" cx="467.3" cy="-321.21" rx="3.2" ry="3.2"/>
</g>
<!-- wwtp_energy_use&#45;&gt;organisation -->
<g id="edge4" class="edge">
<title>wwtp_energy_use:w&#45;&gt;organisation:e</title>
<path fill="none" stroke="black" d="M463.84,-299.27C393.16,-301.51 246.67,-316.38 197,-286 166.43,-267.3 192.83,-216 157,-216"/>
<polygon fill="black" stroke="black" points="470.5,-299.15 478.57,-302.6 474.5,-299.07 478.5,-299 478.5,-299 478.5,-299 474.5,-299.07 478.43,-295.4 470.5,-299.15 470.5,-299.15"/>
<ellipse fill="none" stroke="black" cx="467.3" cy="-299.2" rx="3.2" ry="3.2"/>
</g>
</g>
</svg>
