<?xml version="1.0" encoding="UTF-8" standalone="no"?>
<!DOCTYPE svg PUBLIC "-//W3C//DTD SVG 1.1//EN"
 "http://www.w3.org/Graphics/SVG/1.1/DTD/svg11.dtd">
<!-- Generated by graphviz version 2.47.1 (20210515.0534)
 -->
<!-- Title: oneDegreeRelationshipsDiagram Pages: 1 -->
<svg width="581pt" height="771pt"
 viewBox="0.00 0.00 581.00 771.00" xmlns="http://www.w3.org/2000/svg" xmlns:xlink="http://www.w3.org/1999/xlink">
<g id="graph0" class="graph" transform="scale(1 1) rotate(0) translate(4 767)">
<title>oneDegreeRelationshipsDiagram</title>
<polygon fill="#ffffff" stroke="transparent" points="-4,4 -4,-767 577,-767 577,4 -4,4"/>
<text text-anchor="middle" x="73.5" y="-7.2" font-family="Helvetica,sans-Serif" font-size="11.00">Generated by SchemaSpy</text>
<!-- wwtp_structure -->
<g id="node1" class="node">
<title>wwtp_structure</title>
<g id="a_node1"><a xlink:href="../../tables/wwtp_structure.html" xlink:title="wwtp_structure" target="_top">
<polygon fill="#ffffff" stroke="transparent" points="280,-246 280,-356 565,-356 565,-246 280,-246"/>
<polygon fill="#f5f5f5" stroke="transparent" points="282.5,-332 282.5,-354 563.5,-354 563.5,-332 282.5,-332"/>
<polygon fill="none" stroke="black" points="282.5,-332 282.5,-354 563.5,-354 563.5,-332 282.5,-332"/>
<text text-anchor="start" x="287.5" y="-341.2" font-family="Helvetica,sans-Serif" font-weight="bold" font-size="11.00">wwtp_structure</text>
<text text-anchor="start" x="524.5" y="-340.2" font-family="Helvetica,sans-Serif" font-size="11.00">[table]</text>
<polygon fill="none" stroke="black" points="282.5,-310 282.5,-332 499.5,-332 499.5,-310 282.5,-310"/>
<image xlink:href="../../images/primaryKeys.png" width="11px" height="12px" preserveAspectRatio="xMinYMin meet" x="287.5" y="-327"/>
<text text-anchor="start" x="302.5" y="-318.2" font-family="Helvetica,sans-Serif" font-size="11.00">obj_id</text>
<polygon fill="none" stroke="black" points="499.5,-310 499.5,-332 563.5,-332 563.5,-310 499.5,-310"/>
<text text-anchor="start" x="502.5" y="-318.2" font-family="Helvetica,sans-Serif" font-size="11.00">varchar[16]</text>
<polygon fill="none" stroke="black" points="282.5,-288 282.5,-310 499.5,-310 499.5,-288 282.5,-288"/>
<image xlink:href="../../images/foreignKeys.png" width="11px" height="12px" preserveAspectRatio="xMinYMin meet" x="287.5" y="-305"/>
<text text-anchor="start" x="302.5" y="-296.2" font-family="Helvetica,sans-Serif" font-size="11.00">kind</text>
<polygon fill="none" stroke="black" points="499.5,-288 499.5,-310 563.5,-310 563.5,-288 499.5,-288"/>
<text text-anchor="start" x="502.5" y="-296.2" font-family="Helvetica,sans-Serif" font-size="11.00">int4[10]</text>
<polygon fill="none" stroke="black" points="282.5,-266 282.5,-288 499.5,-288 499.5,-266 282.5,-266"/>
<image xlink:href="../../images/foreignKeys.png" width="11px" height="12px" preserveAspectRatio="xMinYMin meet" x="287.5" y="-283"/>
<text text-anchor="start" x="302.5" y="-274.2" font-family="Helvetica,sans-Serif" font-size="11.00">fk_waste_water_treatment_plant</text>
<polygon fill="none" stroke="black" points="499.5,-266 499.5,-288 563.5,-288 563.5,-266 499.5,-266"/>
<text text-anchor="start" x="502.5" y="-274.2" font-family="Helvetica,sans-Serif" font-size="11.00">varchar[16]</text>
<polygon fill="#ffffff" stroke="transparent" points="282.5,-248 282.5,-266 395.5,-266 395.5,-248 282.5,-248"/>
<polygon fill="none" stroke="black" points="282.5,-248 282.5,-266 395.5,-266 395.5,-248 282.5,-248"/>
<text text-anchor="start" x="285.5" y="-254.2" font-family="Helvetica,sans-Serif" font-size="11.00">&lt; 3</text>
<polygon fill="#ffffff" stroke="transparent" points="395.5,-248 395.5,-266 499.5,-266 499.5,-248 395.5,-248"/>
<polygon fill="none" stroke="black" points="395.5,-248 395.5,-266 499.5,-266 499.5,-248 395.5,-248"/>
<text text-anchor="start" x="489.5" y="-254.2" font-family="Helvetica,sans-Serif" font-size="11.00"> &#160;</text>
<polygon fill="#ffffff" stroke="transparent" points="499.5,-248 499.5,-266 563.5,-266 563.5,-248 499.5,-248"/>
<polygon fill="none" stroke="black" points="499.5,-248 499.5,-266 563.5,-266 563.5,-248 499.5,-248"/>
<text text-anchor="start" x="544.5" y="-254.2" font-family="Helvetica,sans-Serif" font-size="11.00">0 &gt;</text>
<polygon fill="none" stroke="black" stroke-width="2" points="281,-247 281,-355 564,-355 564,-247 281,-247"/>
</a>
</g>
</g>
<!-- waste_water_treatment_plant -->
<g id="node2" class="node">
<title>waste_water_treatment_plant</title>
<g id="a_node2"><a xlink:href="../../tables/waste_water_treatment_plant.html" xlink:title="waste_water_treatment_plant" target="_top">
<polygon fill="#ffffff" stroke="transparent" points="8,-37 8,-249 231,-249 231,-37 8,-37"/>
<polygon fill="#f5f5f5" stroke="transparent" points="8.5,-227 8.5,-249 231.5,-249 231.5,-227 8.5,-227"/>
<polygon fill="none" stroke="black" points="8.5,-227 8.5,-249 231.5,-249 231.5,-227 8.5,-227"/>
<text text-anchor="start" x="13.5" y="-236.2" font-family="Helvetica,sans-Serif" font-weight="bold" font-size="11.00">waste_water_treatment_plant</text>
<text text-anchor="start" x="192.5" y="-235.2" font-family="Helvetica,sans-Serif" font-size="11.00">[table]</text>
<polygon fill="none" stroke="black" points="8.5,-205 8.5,-227 231.5,-227 231.5,-205 8.5,-205"/>
<image xlink:href="../../images/primaryKeys.png" width="11px" height="12px" preserveAspectRatio="xMinYMin meet" x="13.5" y="-222"/>
<text text-anchor="start" x="40.5" y="-213.2" font-family="Helvetica,sans-Serif" font-size="11.00">obj_id</text>
<polygon fill="#ffffff" stroke="transparent" points="8.5,-183 8.5,-205 231.5,-205 231.5,-183 8.5,-183"/>
<polygon fill="none" stroke="black" points="8.5,-183 8.5,-205 231.5,-205 231.5,-183 8.5,-183"/>
<text text-anchor="start" x="40.5" y="-191.2" font-family="Helvetica,sans-Serif" font-size="11.00">area_geometry</text>
<polygon fill="#ffffff" stroke="transparent" points="8.5,-161 8.5,-183 231.5,-183 231.5,-161 8.5,-161"/>
<polygon fill="none" stroke="black" points="8.5,-161 8.5,-183 231.5,-183 231.5,-161 8.5,-161"/>
<text text-anchor="start" x="40.5" y="-169.2" font-family="Helvetica,sans-Serif" font-size="11.00">identifier</text>
<polygon fill="none" stroke="black" points="8.5,-139 8.5,-161 231.5,-161 231.5,-139 8.5,-139"/>
<image xlink:href="../../images/foreignKeys.png" width="11px" height="12px" preserveAspectRatio="xMinYMin meet" x="13.5" y="-156"/>
<text text-anchor="start" x="40.5" y="-147.2" font-family="Helvetica,sans-Serif" font-size="11.00">operator_type</text>
<polygon fill="#ffffff" stroke="transparent" points="8.5,-117 8.5,-139 231.5,-139 231.5,-117 8.5,-117"/>
<polygon fill="none" stroke="black" points="8.5,-117 8.5,-139 231.5,-139 231.5,-117 8.5,-117"/>
<text text-anchor="start" x="40.5" y="-125.2" font-family="Helvetica,sans-Serif" font-size="11.00">situation_geometry</text>
<polygon fill="#ffffff" stroke="transparent" points="8.5,-95 8.5,-117 231.5,-117 231.5,-95 8.5,-95"/>
<polygon fill="none" stroke="black" points="8.5,-95 8.5,-117 231.5,-117 231.5,-95 8.5,-95"/>
<image xlink:href="../../images/foreignKeys.png" width="11px" height="12px" preserveAspectRatio="xMinYMin meet" x="13.5" y="-112"/>
<text text-anchor="start" x="40.5" y="-103.2" font-family="Helvetica,sans-Serif" font-size="11.00">fk_dataowner</text>
<polygon fill="none" stroke="black" points="8.5,-73 8.5,-95 231.5,-95 231.5,-73 8.5,-73"/>
<image xlink:href="../../images/foreignKeys.png" width="11px" height="12px" preserveAspectRatio="xMinYMin meet" x="13.5" y="-90"/>
<text text-anchor="start" x="40.5" y="-81.2" font-family="Helvetica,sans-Serif" font-size="11.00">fk_provider</text>
<polygon fill="none" stroke="black" points="8.5,-55 8.5,-73 231.5,-73 231.5,-55 8.5,-55"/>
<text text-anchor="start" x="11.5" y="-61.2" font-family="Helvetica,sans-Serif" font-size="11.00">...</text>
<polygon fill="#ffffff" stroke="transparent" points="8.5,-37 8.5,-55 113.5,-55 113.5,-37 8.5,-37"/>
<polygon fill="none" stroke="black" points="8.5,-37 8.5,-55 113.5,-55 113.5,-37 8.5,-37"/>
<text text-anchor="start" x="11.5" y="-43.2" font-family="Helvetica,sans-Serif" font-size="11.00">&lt; 3</text>
<polygon fill="#ffffff" stroke="transparent" points="113.5,-37 113.5,-55 167.5,-55 167.5,-37 113.5,-37"/>
<polygon fill="none" stroke="black" points="113.5,-37 113.5,-55 167.5,-55 167.5,-37 113.5,-37"/>
<text text-anchor="start" x="157.5" y="-43.2" font-family="Helvetica,sans-Serif" font-size="11.00"> &#160;</text>
<polygon fill="#ffffff" stroke="transparent" points="167.5,-37 167.5,-55 231.5,-55 231.5,-37 167.5,-37"/>
<polygon fill="none" stroke="black" points="167.5,-37 167.5,-55 231.5,-55 231.5,-37 167.5,-37"/>
<text text-anchor="start" x="212.5" y="-43.2" font-family="Helvetica,sans-Serif" font-size="11.00">5 &gt;</text>
</a>
</g>
</g>
<!-- wwtp_structure&#45;&gt;waste_water_treatment_plant -->
<g id="edge1" class="edge">
<title>wwtp_structure:w&#45;&gt;waste_water_treatment_plant:e</title>
<path fill="none" stroke="black" d="M267.91,-272.21C252.15,-257.83 261.3,-216 232.5,-216"/>
<polygon fill="black" stroke="black" points="273.95,-274.34 280.3,-280.4 277.73,-275.67 281.5,-277 281.5,-277 281.5,-277 277.73,-275.67 282.7,-273.6 273.95,-274.34 273.95,-274.34"/>
<ellipse fill="none" stroke="black" cx="270.94" cy="-273.28" rx="3.2" ry="3.2"/>
</g>
<!-- tww_vl.wwtp_structure_kind -->
<g id="node3" class="node">
<title>tww_vl.wwtp_structure_kind</title>
<g id="a_node3"><a xlink:href="../../../tww_vl/tables/wwtp_structure_kind.html" xlink:title="tww_vl.wwtp_structure_kind" target="_top">
<polygon fill="#ffffff" stroke="transparent" points="12.5,-270 12.5,-328 226.5,-328 226.5,-270 12.5,-270"/>
<polygon fill="#f5f5f5" stroke="transparent" points="12.5,-306 12.5,-328 226.5,-328 226.5,-306 12.5,-306"/>
<polygon fill="none" stroke="black" points="12.5,-306 12.5,-328 226.5,-328 226.5,-306 12.5,-306"/>
<text text-anchor="start" x="17.5" y="-315.2" font-family="Helvetica,sans-Serif" font-weight="bold" font-size="11.00">tww_vl.wwtp_structure_kind</text>
<text text-anchor="start" x="187.5" y="-314.2" font-family="Helvetica,sans-Serif" font-size="11.00">[table]</text>
<polygon fill="none" stroke="black" points="12.5,-288 12.5,-306 226.5,-306 226.5,-288 12.5,-288"/>
<text text-anchor="start" x="15.5" y="-294.2" font-family="Helvetica,sans-Serif" font-size="11.00">...</text>
<polygon fill="#ffffff" stroke="transparent" points="12.5,-270 12.5,-288 94.5,-288 94.5,-270 12.5,-270"/>
<polygon fill="none" stroke="black" points="12.5,-270 12.5,-288 94.5,-288 94.5,-270 12.5,-270"/>
<text text-anchor="start" x="15.5" y="-276.2" font-family="Helvetica,sans-Serif" font-size="11.00"> &#160;</text>
<polygon fill="#ffffff" stroke="transparent" points="94.5,-270 94.5,-288 169.5,-288 169.5,-270 94.5,-270"/>
<polygon fill="none" stroke="black" points="94.5,-270 94.5,-288 169.5,-288 169.5,-270 94.5,-270"/>
<text text-anchor="start" x="132.5" y="-276.2" font-family="Helvetica,sans-Serif" font-size="11.00">0 rows</text>
<polygon fill="#ffffff" stroke="transparent" points="169.5,-270 169.5,-288 226.5,-288 226.5,-270 169.5,-270"/>
<polygon fill="none" stroke="black" points="169.5,-270 169.5,-288 226.5,-288 226.5,-270 169.5,-270"/>
<text text-anchor="start" x="207.5" y="-276.2" font-family="Helvetica,sans-Serif" font-size="11.00">1 &gt;</text>
</a>
</g>
</g>
<!-- wwtp_structure&#45;&gt;tww_vl.wwtp_structure_kind -->
<g id="edge2" class="edge">
<title>wwtp_structure:w&#45;&gt;tww_vl.wwtp_structure_kind:e</title>
<path fill="none" stroke="black" d="M266.78,-299C256.25,-299 245.49,-299 234.84,-299"/>
<polygon fill="black" stroke="black" points="273.5,-299 281.5,-302.6 277.5,-299 281.5,-299 281.5,-299 281.5,-299 277.5,-299 281.5,-295.4 273.5,-299 273.5,-299"/>
<ellipse fill="none" stroke="black" cx="270.3" cy="-299" rx="3.2" ry="3.2"/>
</g>
<!-- wastewater_structure -->
<g id="node4" class="node">
<title>wastewater_structure</title>
<g id="a_node4"><a xlink:href="../../tables/wastewater_structure.html" xlink:title="wastewater_structure" target="_top">
<polygon fill="#ffffff" stroke="transparent" points="22,-349 22,-759 217,-759 217,-349 22,-349"/>
<polygon fill="#f5f5f5" stroke="transparent" points="22.5,-737 22.5,-759 217.5,-759 217.5,-737 22.5,-737"/>
<polygon fill="none" stroke="black" points="22.5,-737 22.5,-759 217.5,-759 217.5,-737 22.5,-737"/>
<text text-anchor="start" x="27.5" y="-746.2" font-family="Helvetica,sans-Serif" font-weight="bold" font-size="11.00">wastewater_structure</text>
<text text-anchor="start" x="178.5" y="-745.2" font-family="Helvetica,sans-Serif" font-size="11.00">[table]</text>
<polygon fill="none" stroke="black" points="22.5,-715 22.5,-737 217.5,-737 217.5,-715 22.5,-715"/>
<image xlink:href="../../images/primaryKeys.png" width="11px" height="12px" preserveAspectRatio="xMinYMin meet" x="27.5" y="-732"/>
<text text-anchor="start" x="42.5" y="-723.2" font-family="Helvetica,sans-Serif" font-size="11.00">obj_id</text>
<polygon fill="none" stroke="black" points="22.5,-693 22.5,-715 217.5,-715 217.5,-693 22.5,-693"/>
<image xlink:href="../../images/foreignKeys.png" width="11px" height="12px" preserveAspectRatio="xMinYMin meet" x="27.5" y="-710"/>
<text text-anchor="start" x="42.5" y="-701.2" font-family="Helvetica,sans-Serif" font-size="11.00">accessibility</text>
<polygon fill="#ffffff" stroke="transparent" points="22.5,-671 22.5,-693 217.5,-693 217.5,-671 22.5,-671"/>
<polygon fill="none" stroke="black" points="22.5,-671 22.5,-693 217.5,-693 217.5,-671 22.5,-671"/>
<text text-anchor="start" x="42.5" y="-679.2" font-family="Helvetica,sans-Serif" font-size="11.00">detail_geometry3d_geometry</text>
<polygon fill="none" stroke="black" points="22.5,-649 22.5,-671 217.5,-671 217.5,-649 22.5,-649"/>
<image xlink:href="../../images/foreignKeys.png" width="11px" height="12px" preserveAspectRatio="xMinYMin meet" x="27.5" y="-666"/>
<text text-anchor="start" x="42.5" y="-657.2" font-family="Helvetica,sans-Serif" font-size="11.00">elevation_determination</text>
<polygon fill="none" stroke="black" points="22.5,-627 22.5,-649 217.5,-649 217.5,-627 22.5,-627"/>
<image xlink:href="../../images/foreignKeys.png" width="11px" height="12px" preserveAspectRatio="xMinYMin meet" x="27.5" y="-644"/>
<text text-anchor="start" x="42.5" y="-635.2" font-family="Helvetica,sans-Serif" font-size="11.00">financing</text>
<polygon fill="#ffffff" stroke="transparent" points="22.5,-605 22.5,-627 217.5,-627 217.5,-605 22.5,-605"/>
<polygon fill="none" stroke="black" points="22.5,-605 22.5,-627 217.5,-627 217.5,-605 22.5,-605"/>
<text text-anchor="start" x="42.5" y="-613.2" font-family="Helvetica,sans-Serif" font-size="11.00">identifier</text>
<polygon fill="none" stroke="black" points="22.5,-583 22.5,-605 217.5,-605 217.5,-583 22.5,-583"/>
<image xlink:href="../../images/foreignKeys.png" width="11px" height="12px" preserveAspectRatio="xMinYMin meet" x="27.5" y="-600"/>
<text text-anchor="start" x="42.5" y="-591.2" font-family="Helvetica,sans-Serif" font-size="11.00">renovation_necessity</text>
<polygon fill="none" stroke="black" points="22.5,-561 22.5,-583 217.5,-583 217.5,-561 22.5,-561"/>
<image xlink:href="../../images/foreignKeys.png" width="11px" height="12px" preserveAspectRatio="xMinYMin meet" x="27.5" y="-578"/>
<text text-anchor="start" x="42.5" y="-569.2" font-family="Helvetica,sans-Serif" font-size="11.00">rv_construction_type</text>
<polygon fill="none" stroke="black" points="22.5,-539 22.5,-561 217.5,-561 217.5,-539 22.5,-539"/>
<image xlink:href="../../images/foreignKeys.png" width="11px" height="12px" preserveAspectRatio="xMinYMin meet" x="27.5" y="-556"/>
<text text-anchor="start" x="42.5" y="-547.2" font-family="Helvetica,sans-Serif" font-size="11.00">status</text>
<polygon fill="none" stroke="black" points="22.5,-517 22.5,-539 217.5,-539 217.5,-517 22.5,-517"/>
<image xlink:href="../../images/foreignKeys.png" width="11px" height="12px" preserveAspectRatio="xMinYMin meet" x="27.5" y="-534"/>
<text text-anchor="start" x="42.5" y="-525.2" font-family="Helvetica,sans-Serif" font-size="11.00">structure_condition</text>
<polygon fill="#ffffff" stroke="transparent" points="22.5,-495 22.5,-517 217.5,-517 217.5,-495 22.5,-495"/>
<polygon fill="none" stroke="black" points="22.5,-495 22.5,-517 217.5,-517 217.5,-495 22.5,-495"/>
<image xlink:href="../../images/foreignKeys.png" width="11px" height="12px" preserveAspectRatio="xMinYMin meet" x="27.5" y="-512"/>
<text text-anchor="start" x="42.5" y="-503.2" font-family="Helvetica,sans-Serif" font-size="11.00">fk_dataowner</text>
<polygon fill="none" stroke="black" points="22.5,-473 22.5,-495 217.5,-495 217.5,-473 22.5,-473"/>
<image xlink:href="../../images/foreignKeys.png" width="11px" height="12px" preserveAspectRatio="xMinYMin meet" x="27.5" y="-490"/>
<text text-anchor="start" x="42.5" y="-481.2" font-family="Helvetica,sans-Serif" font-size="11.00">fk_provider</text>
<polygon fill="none" stroke="black" points="22.5,-451 22.5,-473 217.5,-473 217.5,-451 22.5,-451"/>
<image xlink:href="../../images/foreignKeys.png" width="11px" height="12px" preserveAspectRatio="xMinYMin meet" x="27.5" y="-468"/>
<text text-anchor="start" x="42.5" y="-459.2" font-family="Helvetica,sans-Serif" font-size="11.00">fk_owner</text>
<polygon fill="none" stroke="black" points="22.5,-429 22.5,-451 217.5,-451 217.5,-429 22.5,-429"/>
<image xlink:href="../../images/foreignKeys.png" width="11px" height="12px" preserveAspectRatio="xMinYMin meet" x="27.5" y="-446"/>
<text text-anchor="start" x="42.5" y="-437.2" font-family="Helvetica,sans-Serif" font-size="11.00">fk_operator</text>
<polygon fill="none" stroke="black" points="22.5,-407 22.5,-429 217.5,-429 217.5,-407 22.5,-407"/>
<image xlink:href="../../images/foreignKeys.png" width="11px" height="12px" preserveAspectRatio="xMinYMin meet" x="27.5" y="-424"/>
<text text-anchor="start" x="42.5" y="-415.2" font-family="Helvetica,sans-Serif" font-size="11.00">fk_main_cover</text>
<polygon fill="none" stroke="black" points="22.5,-385 22.5,-407 217.5,-407 217.5,-385 22.5,-385"/>
<image xlink:href="../../images/foreignKeys.png" width="11px" height="12px" preserveAspectRatio="xMinYMin meet" x="27.5" y="-402"/>
<text text-anchor="start" x="42.5" y="-393.2" font-family="Helvetica,sans-Serif" font-size="11.00">fk_main_wastewater_node</text>
<polygon fill="none" stroke="black" points="22.5,-367 22.5,-385 217.5,-385 217.5,-367 22.5,-367"/>
<text text-anchor="start" x="25.5" y="-373.2" font-family="Helvetica,sans-Serif" font-size="11.00">...</text>
<polygon fill="#ffffff" stroke="transparent" points="22.5,-349 22.5,-367 113.5,-367 113.5,-349 22.5,-349"/>
<polygon fill="none" stroke="black" points="22.5,-349 22.5,-367 113.5,-367 113.5,-349 22.5,-349"/>
<text text-anchor="start" x="25.5" y="-355.2" font-family="Helvetica,sans-Serif" font-size="11.00">&lt; 13</text>
<polygon fill="#ffffff" stroke="transparent" points="113.5,-349 113.5,-367 157.5,-367 157.5,-349 113.5,-349"/>
<polygon fill="none" stroke="black" points="113.5,-349 113.5,-367 157.5,-367 157.5,-349 113.5,-349"/>
<text text-anchor="start" x="147.5" y="-355.2" font-family="Helvetica,sans-Serif" font-size="11.00"> &#160;</text>
<polygon fill="#ffffff" stroke="transparent" points="157.5,-349 157.5,-367 217.5,-367 217.5,-349 157.5,-349"/>
<polygon fill="none" stroke="black" points="157.5,-349 157.5,-367 217.5,-367 217.5,-349 157.5,-349"/>
<text text-anchor="start" x="192.5" y="-355.2" font-family="Helvetica,sans-Serif" font-size="11.00">18 &gt;</text>
</a>
</g>
</g>
<!-- wwtp_structure&#45;&gt;wastewater_structure -->
<g id="edge3" class="edge">
<title>wwtp_structure:w&#45;&gt;wastewater_structure:e</title>
<path fill="none" stroke="black" d="M270.89,-323.18C200.27,-355.06 305.67,-726 218.5,-726"/>
<polygon fill="black" stroke="black" points="279.91,-317.24 281.52,-325.08 279.95,-325.4 278.34,-317.56 279.91,-317.24"/>
<polyline fill="none" stroke="black" points="281.5,-321 277.58,-321.8 "/>
<ellipse fill="none" stroke="black" cx="274.45" cy="-322.45" rx="3.2" ry="3.2"/>
</g>
</g>
</svg>
