<?xml version="1.0" encoding="UTF-8" standalone="no"?>
<!DOCTYPE svg PUBLIC "-//W3C//DTD SVG 1.1//EN"
 "http://www.w3.org/Graphics/SVG/1.1/DTD/svg11.dtd">
<!-- Generated by graphviz version 2.43.0 (0)
 -->
<!-- Title: oneDegreeRelationshipsDiagram Pages: 1 -->
<svg width="1354pt" height="885pt"
 viewBox="0.00 0.00 1354.00 885.00" xmlns="http://www.w3.org/2000/svg" xmlns:xlink="http://www.w3.org/1999/xlink">
<g id="graph0" class="graph" transform="scale(1 1) rotate(0) translate(4 881)">
<title>oneDegreeRelationshipsDiagram</title>
<polygon fill="#ffffff" stroke="transparent" points="-4,4 -4,-881 1350,-881 1350,4 -4,4"/>
<text text-anchor="middle" x="79.5" y="-7.2" font-family="Helvetica,sans-Serif" font-size="11.00">Generated by SchemaSpy</text>
<!-- agxx_catchment_area_totals -->
<g id="node1" class="node">
<title>agxx_catchment_area_totals</title>
<g id="a_node1"><a xlink:href="../../tables/agxx_catchment_area_totals.html" xlink:title="agxx_catchment_area_totals" target="_top">
<polygon fill="#ffffff" stroke="transparent" points="1062,-771 1062,-873 1338,-873 1338,-771 1062,-771"/>
<polygon fill="#f5f5f5" stroke="transparent" points="1062,-851 1062,-873 1338,-873 1338,-851 1062,-851"/>
<polygon fill="none" stroke="black" points="1062,-851 1062,-873 1338,-873 1338,-851 1062,-851"/>
<text text-anchor="start" x="1067" y="-860.2" font-family="Helvetica,sans-Serif" font-weight="bold" font-size="11.00">agxx_catchment_area_totals</text>
<text text-anchor="start" x="1296" y="-859.2" font-family="Helvetica,sans-Serif" font-size="11.00">[table]</text>
<polygon fill="none" stroke="black" points="1062,-829 1062,-851 1338,-851 1338,-829 1062,-829"/>
<image xlink:href="../../images/primaryKeys.png" width="11px" height="12px" preserveAspectRatio="xMinYMin meet" x="1067" y="-846"/>
<text text-anchor="start" x="1082" y="-837.2" font-family="Helvetica,sans-Serif" font-size="11.00">uuid</text>
<polygon fill="#ffffff" stroke="transparent" points="1062,-807 1062,-829 1338,-829 1338,-807 1062,-807"/>
<polygon fill="none" stroke="black" points="1062,-807 1062,-829 1338,-829 1338,-807 1062,-807"/>
<image xlink:href="../../images/foreignKeys.png" width="11px" height="12px" preserveAspectRatio="xMinYMin meet" x="1067" y="-824"/>
<text text-anchor="start" x="1082" y="-815.2" font-family="Helvetica,sans-Serif" font-size="11.00">fk_catchment_area_totals</text>
<polygon fill="none" stroke="black" points="1062,-789 1062,-807 1338,-807 1338,-789 1062,-789"/>
<text text-anchor="start" x="1065" y="-795.2" font-family="Helvetica,sans-Serif" font-size="11.00">...</text>
<polygon fill="#ffffff" stroke="transparent" points="1062,-771 1062,-789 1338,-789 1338,-771 1062,-771"/>
<polygon fill="none" stroke="black" points="1062,-771 1062,-789 1338,-789 1338,-771 1062,-771"/>
<polygon fill="#ffffff" stroke="transparent" points="1063,-772 1063,-788 1163,-788 1163,-772 1063,-772"/>
<text text-anchor="start" x="1065" y="-777.2" font-family="Helvetica,sans-Serif" font-size="11.00">&lt; 1</text>
<polygon fill="#ffffff" stroke="transparent" points="1163,-772 1163,-788 1250,-788 1250,-772 1163,-772"/>
<text text-anchor="start" x="1202.5" y="-777.2" font-family="Helvetica,sans-Serif" font-size="11.00"> &#160;</text>
<polygon fill="#ffffff" stroke="transparent" points="1250,-772 1250,-788 1337,-788 1337,-772 1250,-772"/>
<text text-anchor="start" x="1327" y="-777.2" font-family="Helvetica,sans-Serif" font-size="11.00"> &#160;</text>
<polygon fill="black" stroke="black" points="1163,-772 1163,-788 1163,-788 1163,-772 1163,-772"/>
<polygon fill="black" stroke="black" points="1250,-772 1250,-788 1250,-788 1250,-772 1250,-772"/>
</a>
</g>
</g>
<!-- catchment_area_totals -->
<g id="node2" class="node">
<title>catchment_area_totals</title>
<g id="a_node2"><a xlink:href="../../tables/catchment_area_totals.html" xlink:title="catchment_area_totals" target="_top">
<polygon fill="#ffffff" stroke="transparent" points="525,-391 525,-853 1013,-853 1013,-391 525,-391"/>
<polygon fill="#f5f5f5" stroke="transparent" points="527,-829 527,-851 1011,-851 1011,-829 527,-829"/>
<polygon fill="none" stroke="black" points="527,-829 527,-851 1011,-851 1011,-829 527,-829"/>
<text text-anchor="start" x="532" y="-838.2" font-family="Helvetica,sans-Serif" font-weight="bold" font-size="11.00">catchment_area_totals</text>
<text text-anchor="start" x="969" y="-837.2" font-family="Helvetica,sans-Serif" font-size="11.00">[table]</text>
<polygon fill="none" stroke="black" points="527,-807 527,-829 754,-829 754,-807 527,-807"/>
<image xlink:href="../../images/primaryKeys.png" width="11px" height="12px" preserveAspectRatio="xMinYMin meet" x="532" y="-824"/>
<text text-anchor="start" x="547" y="-815.2" font-family="Helvetica,sans-Serif" font-size="11.00">obj_id</text>
<polygon fill="none" stroke="black" points="754,-807 754,-829 1011,-829 1011,-807 754,-807"/>
<text text-anchor="start" x="757" y="-815.2" font-family="Helvetica,sans-Serif" font-size="11.00">&quot;tww_od&quot;.&quot;interlis_standardoid&quot;[2147483647]</text>
<polygon fill="none" stroke="black" points="527,-785 527,-807 754,-807 754,-785 527,-785"/>
<text text-anchor="start" x="547" y="-793.2" font-family="Helvetica,sans-Serif" font-size="11.00">discharge_freight_nh4_n</text>
<polygon fill="none" stroke="black" points="754,-785 754,-807 1011,-807 1011,-785 754,-785"/>
<text text-anchor="start" x="757" y="-793.2" font-family="Helvetica,sans-Serif" font-size="11.00">int4[10]</text>
<polygon fill="none" stroke="black" points="527,-763 527,-785 754,-785 754,-763 527,-763"/>
<text text-anchor="start" x="547" y="-771.2" font-family="Helvetica,sans-Serif" font-size="11.00">discharge_proportion_nh4_n</text>
<polygon fill="none" stroke="black" points="754,-763 754,-785 1011,-785 1011,-763 754,-763"/>
<text text-anchor="start" x="757" y="-771.2" font-family="Helvetica,sans-Serif" font-size="11.00">numeric[5,2]</text>
<polygon fill="#ffffff" stroke="transparent" points="527,-741 527,-763 754,-763 754,-741 527,-741"/>
<polygon fill="none" stroke="black" points="527,-741 527,-763 754,-763 754,-741 527,-741"/>
<text text-anchor="start" x="547" y="-749.2" font-family="Helvetica,sans-Serif" font-size="11.00">identifier</text>
<polygon fill="none" stroke="black" points="754,-741 754,-763 1011,-763 1011,-741 754,-741"/>
<text text-anchor="start" x="757" y="-749.2" font-family="Helvetica,sans-Serif" font-size="11.00">text[2147483647]</text>
<polygon fill="none" stroke="black" points="527,-719 527,-741 754,-741 754,-719 527,-719"/>
<text text-anchor="start" x="547" y="-727.2" font-family="Helvetica,sans-Serif" font-size="11.00">population</text>
<polygon fill="none" stroke="black" points="754,-719 754,-741 1011,-741 1011,-719 754,-719"/>
<text text-anchor="start" x="757" y="-727.2" font-family="Helvetica,sans-Serif" font-size="11.00">int4[10]</text>
<polygon fill="none" stroke="black" points="527,-697 527,-719 754,-719 754,-697 527,-697"/>
<text text-anchor="start" x="547" y="-705.2" font-family="Helvetica,sans-Serif" font-size="11.00">population_dim</text>
<polygon fill="none" stroke="black" points="754,-697 754,-719 1011,-719 1011,-697 754,-697"/>
<text text-anchor="start" x="757" y="-705.2" font-family="Helvetica,sans-Serif" font-size="11.00">int4[10]</text>
<polygon fill="none" stroke="black" points="527,-675 527,-697 754,-697 754,-675 527,-675"/>
<text text-anchor="start" x="547" y="-683.2" font-family="Helvetica,sans-Serif" font-size="11.00">sewer_infiltration_water</text>
<polygon fill="none" stroke="black" points="754,-675 754,-697 1011,-697 1011,-675 754,-675"/>
<text text-anchor="start" x="757" y="-683.2" font-family="Helvetica,sans-Serif" font-size="11.00">numeric[9,3]</text>
<polygon fill="none" stroke="black" points="527,-653 527,-675 754,-675 754,-653 527,-653"/>
<text text-anchor="start" x="547" y="-661.2" font-family="Helvetica,sans-Serif" font-size="11.00">surface_area</text>
<polygon fill="none" stroke="black" points="754,-653 754,-675 1011,-675 1011,-653 754,-653"/>
<text text-anchor="start" x="757" y="-661.2" font-family="Helvetica,sans-Serif" font-size="11.00">numeric[10,4]</text>
<polygon fill="none" stroke="black" points="527,-631 527,-653 754,-653 754,-631 527,-631"/>
<text text-anchor="start" x="547" y="-639.2" font-family="Helvetica,sans-Serif" font-size="11.00">surface_dim</text>
<polygon fill="none" stroke="black" points="754,-631 754,-653 1011,-653 1011,-631 754,-631"/>
<text text-anchor="start" x="757" y="-639.2" font-family="Helvetica,sans-Serif" font-size="11.00">numeric[10,4]</text>
<polygon fill="none" stroke="black" points="527,-609 527,-631 754,-631 754,-609 527,-609"/>
<text text-anchor="start" x="547" y="-617.2" font-family="Helvetica,sans-Serif" font-size="11.00">surface_imp</text>
<polygon fill="none" stroke="black" points="754,-609 754,-631 1011,-631 1011,-609 754,-609"/>
<text text-anchor="start" x="757" y="-617.2" font-family="Helvetica,sans-Serif" font-size="11.00">numeric[10,4]</text>
<polygon fill="none" stroke="black" points="527,-587 527,-609 754,-609 754,-587 527,-587"/>
<text text-anchor="start" x="547" y="-595.2" font-family="Helvetica,sans-Serif" font-size="11.00">surface_imp_dim</text>
<polygon fill="none" stroke="black" points="754,-587 754,-609 1011,-609 1011,-587 754,-587"/>
<text text-anchor="start" x="757" y="-595.2" font-family="Helvetica,sans-Serif" font-size="11.00">numeric[10,4]</text>
<polygon fill="none" stroke="black" points="527,-565 527,-587 754,-587 754,-565 527,-565"/>
<text text-anchor="start" x="547" y="-573.2" font-family="Helvetica,sans-Serif" font-size="11.00">surface_red</text>
<polygon fill="none" stroke="black" points="754,-565 754,-587 1011,-587 1011,-565 754,-565"/>
<text text-anchor="start" x="757" y="-573.2" font-family="Helvetica,sans-Serif" font-size="11.00">numeric[10,4]</text>
<polygon fill="none" stroke="black" points="527,-543 527,-565 754,-565 754,-543 527,-543"/>
<text text-anchor="start" x="547" y="-551.2" font-family="Helvetica,sans-Serif" font-size="11.00">surface_red_dim</text>
<polygon fill="none" stroke="black" points="754,-543 754,-565 1011,-565 1011,-543 754,-543"/>
<text text-anchor="start" x="757" y="-551.2" font-family="Helvetica,sans-Serif" font-size="11.00">numeric[10,4]</text>
<polygon fill="none" stroke="black" points="527,-521 527,-543 754,-543 754,-521 527,-521"/>
<text text-anchor="start" x="547" y="-529.2" font-family="Helvetica,sans-Serif" font-size="11.00">waste_water_production</text>
<polygon fill="none" stroke="black" points="754,-521 754,-543 1011,-543 1011,-521 754,-521"/>
<text text-anchor="start" x="757" y="-529.2" font-family="Helvetica,sans-Serif" font-size="11.00">numeric[9,3]</text>
<polygon fill="none" stroke="black" points="527,-499 527,-521 754,-521 754,-499 527,-499"/>
<text text-anchor="start" x="547" y="-507.2" font-family="Helvetica,sans-Serif" font-size="11.00">last_modification</text>
<polygon fill="none" stroke="black" points="754,-499 754,-521 1011,-521 1011,-499 754,-499"/>
<text text-anchor="start" x="757" y="-507.2" font-family="Helvetica,sans-Serif" font-size="11.00">timestamp[29,6]</text>
<polygon fill="#ffffff" stroke="transparent" points="527,-477 527,-499 754,-499 754,-477 527,-477"/>
<polygon fill="none" stroke="black" points="527,-477 527,-499 754,-499 754,-477 527,-477"/>
<image xlink:href="../../images/foreignKeys.png" width="11px" height="12px" preserveAspectRatio="xMinYMin meet" x="532" y="-494"/>
<text text-anchor="start" x="547" y="-485.2" font-family="Helvetica,sans-Serif" font-size="11.00">fk_dataowner</text>
<polygon fill="none" stroke="black" points="754,-477 754,-499 1011,-499 1011,-477 754,-477"/>
<text text-anchor="start" x="757" y="-485.2" font-family="Helvetica,sans-Serif" font-size="11.00">varchar[16]</text>
<polygon fill="none" stroke="black" points="527,-455 527,-477 754,-477 754,-455 527,-455"/>
<image xlink:href="../../images/foreignKeys.png" width="11px" height="12px" preserveAspectRatio="xMinYMin meet" x="532" y="-472"/>
<text text-anchor="start" x="547" y="-463.2" font-family="Helvetica,sans-Serif" font-size="11.00">fk_provider</text>
<polygon fill="none" stroke="black" points="754,-455 754,-477 1011,-477 1011,-455 754,-455"/>
<text text-anchor="start" x="757" y="-463.2" font-family="Helvetica,sans-Serif" font-size="11.00">varchar[16]</text>
<polygon fill="none" stroke="black" points="527,-433 527,-455 754,-455 754,-433 527,-433"/>
<image xlink:href="../../images/foreignKeys.png" width="11px" height="12px" preserveAspectRatio="xMinYMin meet" x="532" y="-450"/>
<text text-anchor="start" x="547" y="-441.2" font-family="Helvetica,sans-Serif" font-size="11.00">fk_discharge_point</text>
<polygon fill="none" stroke="black" points="754,-433 754,-455 1011,-455 1011,-433 754,-433"/>
<text text-anchor="start" x="757" y="-441.2" font-family="Helvetica,sans-Serif" font-size="11.00">varchar[16]</text>
<polygon fill="none" stroke="black" points="527,-411 527,-433 754,-433 754,-411 527,-411"/>
<image xlink:href="../../images/foreignKeys.png" width="11px" height="12px" preserveAspectRatio="xMinYMin meet" x="532" y="-428"/>
<text text-anchor="start" x="547" y="-419.2" font-family="Helvetica,sans-Serif" font-size="11.00">fk_hydraulic_char_data</text>
<polygon fill="none" stroke="black" points="754,-411 754,-433 1011,-433 1011,-411 754,-411"/>
<text text-anchor="start" x="757" y="-419.2" font-family="Helvetica,sans-Serif" font-size="11.00">varchar[16]</text>
<polygon fill="#ffffff" stroke="transparent" points="527,-393 527,-411 1011,-411 1011,-393 527,-393"/>
<polygon fill="none" stroke="black" points="527,-393 527,-411 1011,-411 1011,-393 527,-393"/>
<polygon fill="#ffffff" stroke="transparent" points="528,-394 528,-410 693,-410 693,-394 528,-394"/>
<text text-anchor="start" x="530" y="-399.2" font-family="Helvetica,sans-Serif" font-size="11.00">&lt; 4</text>
<polygon fill="#ffffff" stroke="transparent" points="693,-394 693,-410 846,-410 846,-394 693,-394"/>
<text text-anchor="start" x="765.5" y="-399.2" font-family="Helvetica,sans-Serif" font-size="11.00"> &#160;</text>
<polygon fill="#ffffff" stroke="transparent" points="846,-394 846,-410 1010,-410 1010,-394 846,-394"/>
<text text-anchor="start" x="988" y="-399.2" font-family="Helvetica,sans-Serif" font-size="11.00">1 &gt;</text>
<polygon fill="black" stroke="black" points="693,-394 693,-410 693,-410 693,-394 693,-394"/>
<polygon fill="black" stroke="black" points="846,-394 846,-410 846,-410 846,-394 846,-394"/>
<polygon fill="none" stroke="black" stroke-width="2" points="526,-392 526,-852 1012,-852 1012,-392 526,-392"/>
</a>
</g>
</g>
<!-- agxx_catchment_area_totals&#45;&gt;catchment_area_totals -->
<g id="edge1" class="edge">
<title>agxx_catchment_area_totals:w&#45;&gt;catchment_area_totals:e</title>
<path fill="none" stroke="black" d="M1046.49,-818C1035.18,-818 1027.99,-818 1012,-818"/>
<polygon fill="black" stroke="black" points="1053,-818 1061,-821.6 1057,-818 1061,-818 1061,-818 1061,-818 1057,-818 1061,-814.4 1053,-818 1053,-818"/>
<ellipse fill="none" stroke="black" cx="1049.8" cy="-818" rx="3.2" ry="3.2"/>
</g>
<!-- organisation -->
<g id="node3" class="node">
<title>organisation</title>
<g id="a_node3"><a xlink:href="../../tables/organisation.html" xlink:title="organisation" target="_top">
<polygon fill="#ffffff" stroke="transparent" points="8,-149 8,-361 182,-361 182,-149 8,-149"/>
<polygon fill="#f5f5f5" stroke="transparent" points="8,-339 8,-361 182,-361 182,-339 8,-339"/>
<polygon fill="none" stroke="black" points="8,-339 8,-361 182,-361 182,-339 8,-339"/>
<text text-anchor="start" x="13" y="-348.2" font-family="Helvetica,sans-Serif" font-weight="bold" font-size="11.00">organisation</text>
<text text-anchor="start" x="140" y="-347.2" font-family="Helvetica,sans-Serif" font-size="11.00">[table]</text>
<polygon fill="none" stroke="black" points="8,-317 8,-339 182,-339 182,-317 8,-317"/>
<image xlink:href="../../images/primaryKeys.png" width="11px" height="12px" preserveAspectRatio="xMinYMin meet" x="13" y="-334"/>
<text text-anchor="start" x="28" y="-325.2" font-family="Helvetica,sans-Serif" font-size="11.00">obj_id</text>
<polygon fill="#ffffff" stroke="transparent" points="8,-295 8,-317 182,-317 182,-295 8,-295"/>
<polygon fill="none" stroke="black" points="8,-295 8,-317 182,-317 182,-295 8,-295"/>
<text text-anchor="start" x="28" y="-303.2" font-family="Helvetica,sans-Serif" font-size="11.00">identifier</text>
<polygon fill="#ffffff" stroke="transparent" points="8,-273 8,-295 182,-295 182,-273 8,-273"/>
<polygon fill="none" stroke="black" points="8,-273 8,-295 182,-295 182,-273 8,-273"/>
<image xlink:href="../../images/foreignKeys.png" width="11px" height="12px" preserveAspectRatio="xMinYMin meet" x="13" y="-290"/>
<text text-anchor="start" x="28" y="-281.2" font-family="Helvetica,sans-Serif" font-size="11.00">organisation_type</text>
<polygon fill="none" stroke="black" points="8,-251 8,-273 182,-273 182,-251 8,-251"/>
<image xlink:href="../../images/foreignKeys.png" width="11px" height="12px" preserveAspectRatio="xMinYMin meet" x="13" y="-268"/>
<text text-anchor="start" x="28" y="-259.2" font-family="Helvetica,sans-Serif" font-size="11.00">status</text>
<polygon fill="#ffffff" stroke="transparent" points="8,-229 8,-251 182,-251 182,-229 8,-229"/>
<polygon fill="none" stroke="black" points="8,-229 8,-251 182,-251 182,-229 8,-229"/>
<text text-anchor="start" x="28" y="-237.2" font-family="Helvetica,sans-Serif" font-size="11.00">uid</text>
<polygon fill="none" stroke="black" points="8,-207 8,-229 182,-229 182,-207 8,-207"/>
<image xlink:href="../../images/foreignKeys.png" width="11px" height="12px" preserveAspectRatio="xMinYMin meet" x="13" y="-224"/>
<text text-anchor="start" x="28" y="-215.2" font-family="Helvetica,sans-Serif" font-size="11.00">fk_dataowner</text>
<polygon fill="none" stroke="black" points="8,-185 8,-207 182,-207 182,-185 8,-185"/>
<image xlink:href="../../images/foreignKeys.png" width="11px" height="12px" preserveAspectRatio="xMinYMin meet" x="13" y="-202"/>
<text text-anchor="start" x="28" y="-193.2" font-family="Helvetica,sans-Serif" font-size="11.00">fk_provider</text>
<polygon fill="none" stroke="black" points="8,-167 8,-185 182,-185 182,-167 8,-167"/>
<text text-anchor="start" x="11" y="-173.2" font-family="Helvetica,sans-Serif" font-size="11.00">...</text>
<polygon fill="#ffffff" stroke="transparent" points="8,-149 8,-167 182,-167 182,-149 8,-149"/>
<polygon fill="none" stroke="black" points="8,-149 8,-167 182,-167 182,-149 8,-149"/>
<polygon fill="#ffffff" stroke="transparent" points="9,-150 9,-166 66,-166 66,-150 9,-150"/>
<text text-anchor="start" x="11" y="-155.2" font-family="Helvetica,sans-Serif" font-size="11.00">&lt; 4</text>
<polygon fill="#ffffff" stroke="transparent" points="66,-150 66,-166 111,-166 111,-150 66,-150"/>
<text text-anchor="start" x="84.5" y="-155.2" font-family="Helvetica,sans-Serif" font-size="11.00"> &#160;</text>
<polygon fill="#ffffff" stroke="transparent" points="111,-150 111,-166 181,-166 181,-150 111,-150"/>
<text text-anchor="start" x="145" y="-155.2" font-family="Helvetica,sans-Serif" font-size="11.00">105 &gt;</text>
<polygon fill="black" stroke="black" points="66,-150 66,-166 66,-166 66,-150 66,-150"/>
<polygon fill="black" stroke="black" points="111,-150 111,-166 111,-166 111,-150 111,-150"/>
</a>
</g>
</g>
<!-- catchment_area_totals&#45;&gt;organisation -->
<g id="edge2" class="edge">
<title>catchment_area_totals:w&#45;&gt;organisation:e</title>
<path fill="none" stroke="black" d="M511.4,-489.17C502.88,-490.65 496.78,-493.09 484,-494 368.29,-502.22 314.13,-565.78 223,-494 163.38,-447.04 258.89,-328 183,-328"/>
<polygon fill="black" stroke="black" points="518.03,-488.64 526.29,-491.59 522.01,-488.32 526,-488 526,-488 526,-488 522.01,-488.32 525.71,-484.41 518.03,-488.64 518.03,-488.64"/>
<ellipse fill="none" stroke="black" cx="514.84" cy="-488.9" rx="3.2" ry="3.2"/>
</g>
<!-- catchment_area_totals&#45;&gt;organisation -->
<g id="edge5" class="edge">
<title>catchment_area_totals:w&#45;&gt;organisation:e</title>
<path fill="none" stroke="black" d="M511.41,-466.98C502.89,-468.21 496.75,-470.24 484,-471 426.1,-474.43 269.21,-506.06 223,-471 170.42,-431.11 249,-328 183,-328"/>
<polygon fill="black" stroke="black" points="518.02,-466.53 526.24,-469.59 522.01,-466.27 526,-466 526,-466 526,-466 522.01,-466.27 525.76,-462.41 518.02,-466.53 518.02,-466.53"/>
<ellipse fill="none" stroke="black" cx="514.83" cy="-466.75" rx="3.2" ry="3.2"/>
</g>
<!-- discharge_point -->
<g id="node4" class="node">
<title>discharge_point</title>
<g id="a_node4"><a xlink:href="../../tables/discharge_point.html" xlink:title="discharge_point" target="_top">
<polygon fill="#ffffff" stroke="transparent" points="231,-358 231,-460 476,-460 476,-358 231,-358"/>
<polygon fill="#f5f5f5" stroke="transparent" points="231.5,-438 231.5,-460 476.5,-460 476.5,-438 231.5,-438"/>
<polygon fill="none" stroke="black" points="231.5,-438 231.5,-460 476.5,-460 476.5,-438 231.5,-438"/>
<text text-anchor="start" x="236.5" y="-447.2" font-family="Helvetica,sans-Serif" font-weight="bold" font-size="11.00">discharge_point</text>
<text text-anchor="start" x="434.5" y="-446.2" font-family="Helvetica,sans-Serif" font-size="11.00">[table]</text>
<polygon fill="none" stroke="black" points="231.5,-416 231.5,-438 476.5,-438 476.5,-416 231.5,-416"/>
<image xlink:href="../../images/primaryKeys.png" width="11px" height="12px" preserveAspectRatio="xMinYMin meet" x="236.5" y="-433"/>
<text text-anchor="start" x="251.5" y="-424.2" font-family="Helvetica,sans-Serif" font-size="11.00">obj_id</text>
<polygon fill="none" stroke="black" points="231.5,-394 231.5,-416 476.5,-416 476.5,-394 231.5,-394"/>
<image xlink:href="../../images/foreignKeys.png" width="11px" height="12px" preserveAspectRatio="xMinYMin meet" x="236.5" y="-411"/>
<text text-anchor="start" x="251.5" y="-402.2" font-family="Helvetica,sans-Serif" font-size="11.00">relevance</text>
<polygon fill="none" stroke="black" points="231.5,-376 231.5,-394 476.5,-394 476.5,-376 231.5,-376"/>
<text text-anchor="start" x="234.5" y="-382.2" font-family="Helvetica,sans-Serif" font-size="11.00">...</text>
<polygon fill="#ffffff" stroke="transparent" points="231.5,-358 231.5,-376 476.5,-376 476.5,-358 231.5,-358"/>
<polygon fill="none" stroke="black" points="231.5,-358 231.5,-376 476.5,-376 476.5,-358 231.5,-358"/>
<polygon fill="#ffffff" stroke="transparent" points="232.5,-359 232.5,-375 317.5,-375 317.5,-359 232.5,-359"/>
<text text-anchor="start" x="234.5" y="-364.2" font-family="Helvetica,sans-Serif" font-size="11.00">&lt; 2</text>
<polygon fill="#ffffff" stroke="transparent" points="317.5,-359 317.5,-375 390.5,-375 390.5,-359 317.5,-359"/>
<text text-anchor="start" x="350" y="-364.2" font-family="Helvetica,sans-Serif" font-size="11.00"> &#160;</text>
<polygon fill="#ffffff" stroke="transparent" points="390.5,-359 390.5,-375 475.5,-375 475.5,-359 390.5,-359"/>
<text text-anchor="start" x="453.5" y="-364.2" font-family="Helvetica,sans-Serif" font-size="11.00">2 &gt;</text>
<polygon fill="black" stroke="black" points="317.5,-359 317.5,-375 317.5,-375 317.5,-359 317.5,-359"/>
<polygon fill="black" stroke="black" points="390.5,-359 390.5,-375 390.5,-375 390.5,-359 390.5,-359"/>
</a>
</g>
</g>
<!-- catchment_area_totals&#45;&gt;discharge_point -->
<g id="edge3" class="edge">
<title>catchment_area_totals:w&#45;&gt;discharge_point:e</title>
<path fill="none" stroke="black" d="M511.64,-441.19C500.38,-436.36 494.45,-427 477.5,-427"/>
<polygon fill="black" stroke="black" points="518.15,-442.47 525.31,-447.53 522.07,-443.23 526,-444 526,-444 526,-444 522.07,-443.23 526.69,-440.47 518.15,-442.47 518.15,-442.47"/>
<ellipse fill="none" stroke="black" cx="515.01" cy="-441.85" rx="3.2" ry="3.2"/>
</g>
<!-- hydraulic_char_data -->
<g id="node5" class="node">
<title>hydraulic_char_data</title>
<g id="a_node5"><a xlink:href="../../tables/hydraulic_char_data.html" xlink:title="hydraulic_char_data" target="_top">
<polygon fill="#ffffff" stroke="transparent" points="247.5,-37 247.5,-337 459.5,-337 459.5,-37 247.5,-37"/>
<polygon fill="#f5f5f5" stroke="transparent" points="247.5,-315 247.5,-337 459.5,-337 459.5,-315 247.5,-315"/>
<polygon fill="none" stroke="black" points="247.5,-315 247.5,-337 459.5,-337 459.5,-315 247.5,-315"/>
<text text-anchor="start" x="252.5" y="-324.2" font-family="Helvetica,sans-Serif" font-weight="bold" font-size="11.00">hydraulic_char_data</text>
<text text-anchor="start" x="417.5" y="-323.2" font-family="Helvetica,sans-Serif" font-size="11.00">[table]</text>
<polygon fill="none" stroke="black" points="247.5,-293 247.5,-315 459.5,-315 459.5,-293 247.5,-293"/>
<image xlink:href="../../images/primaryKeys.png" width="11px" height="12px" preserveAspectRatio="xMinYMin meet" x="252.5" y="-310"/>
<text text-anchor="start" x="267.5" y="-301.2" font-family="Helvetica,sans-Serif" font-size="11.00">obj_id</text>
<polygon fill="#ffffff" stroke="transparent" points="247.5,-271 247.5,-293 459.5,-293 459.5,-271 247.5,-271"/>
<polygon fill="none" stroke="black" points="247.5,-271 247.5,-293 459.5,-293 459.5,-271 247.5,-271"/>
<text text-anchor="start" x="267.5" y="-279.2" font-family="Helvetica,sans-Serif" font-size="11.00">identifier</text>
<polygon fill="none" stroke="black" points="247.5,-249 247.5,-271 459.5,-271 459.5,-249 247.5,-249"/>
<image xlink:href="../../images/foreignKeys.png" width="11px" height="12px" preserveAspectRatio="xMinYMin meet" x="252.5" y="-266"/>
<text text-anchor="start" x="267.5" y="-257.2" font-family="Helvetica,sans-Serif" font-size="11.00">is_overflowing</text>
<polygon fill="none" stroke="black" points="247.5,-227 247.5,-249 459.5,-249 459.5,-227 247.5,-227"/>
<image xlink:href="../../images/foreignKeys.png" width="11px" height="12px" preserveAspectRatio="xMinYMin meet" x="252.5" y="-244"/>
<text text-anchor="start" x="267.5" y="-235.2" font-family="Helvetica,sans-Serif" font-size="11.00">main_weir_kind</text>
<polygon fill="none" stroke="black" points="247.5,-205 247.5,-227 459.5,-227 459.5,-205 247.5,-205"/>
<image xlink:href="../../images/foreignKeys.png" width="11px" height="12px" preserveAspectRatio="xMinYMin meet" x="252.5" y="-222"/>
<text text-anchor="start" x="267.5" y="-213.2" font-family="Helvetica,sans-Serif" font-size="11.00">pump_characteristics</text>
<polygon fill="none" stroke="black" points="247.5,-183 247.5,-205 459.5,-205 459.5,-183 247.5,-183"/>
<image xlink:href="../../images/foreignKeys.png" width="11px" height="12px" preserveAspectRatio="xMinYMin meet" x="252.5" y="-200"/>
<text text-anchor="start" x="267.5" y="-191.2" font-family="Helvetica,sans-Serif" font-size="11.00">status</text>
<polygon fill="#ffffff" stroke="transparent" points="247.5,-161 247.5,-183 459.5,-183 459.5,-161 247.5,-161"/>
<polygon fill="none" stroke="black" points="247.5,-161 247.5,-183 459.5,-183 459.5,-161 247.5,-161"/>
<image xlink:href="../../images/foreignKeys.png" width="11px" height="12px" preserveAspectRatio="xMinYMin meet" x="252.5" y="-178"/>
<text text-anchor="start" x="267.5" y="-169.2" font-family="Helvetica,sans-Serif" font-size="11.00">fk_dataowner</text>
<polygon fill="none" stroke="black" points="247.5,-139 247.5,-161 459.5,-161 459.5,-139 247.5,-139"/>
<image xlink:href="../../images/foreignKeys.png" width="11px" height="12px" preserveAspectRatio="xMinYMin meet" x="252.5" y="-156"/>
<text text-anchor="start" x="267.5" y="-147.2" font-family="Helvetica,sans-Serif" font-size="11.00">fk_provider</text>
<polygon fill="none" stroke="black" points="247.5,-117 247.5,-139 459.5,-139 459.5,-117 247.5,-117"/>
<image xlink:href="../../images/foreignKeys.png" width="11px" height="12px" preserveAspectRatio="xMinYMin meet" x="252.5" y="-134"/>
<text text-anchor="start" x="267.5" y="-125.2" font-family="Helvetica,sans-Serif" font-size="11.00">fk_wastewater_node</text>
<polygon fill="none" stroke="black" points="247.5,-95 247.5,-117 459.5,-117 459.5,-95 247.5,-95"/>
<image xlink:href="../../images/foreignKeys.png" width="11px" height="12px" preserveAspectRatio="xMinYMin meet" x="252.5" y="-112"/>
<text text-anchor="start" x="267.5" y="-103.2" font-family="Helvetica,sans-Serif" font-size="11.00">fk_overflow_char</text>
<polygon fill="none" stroke="black" points="247.5,-73 247.5,-95 459.5,-95 459.5,-73 247.5,-73"/>
<image xlink:href="../../images/foreignKeys.png" width="11px" height="12px" preserveAspectRatio="xMinYMin meet" x="252.5" y="-90"/>
<text text-anchor="start" x="267.5" y="-81.2" font-family="Helvetica,sans-Serif" font-size="11.00">fk_primary_direction</text>
<polygon fill="none" stroke="black" points="247.5,-55 247.5,-73 459.5,-73 459.5,-55 247.5,-55"/>
<text text-anchor="start" x="250.5" y="-61.2" font-family="Helvetica,sans-Serif" font-size="11.00">...</text>
<polygon fill="#ffffff" stroke="transparent" points="247.5,-37 247.5,-55 459.5,-55 459.5,-37 247.5,-37"/>
<polygon fill="none" stroke="black" points="247.5,-37 247.5,-55 459.5,-55 459.5,-37 247.5,-37"/>
<polygon fill="#ffffff" stroke="transparent" points="248.5,-38 248.5,-54 322.5,-54 322.5,-38 248.5,-38"/>
<text text-anchor="start" x="250.5" y="-43.2" font-family="Helvetica,sans-Serif" font-size="11.00">&lt; 9</text>
<polygon fill="#ffffff" stroke="transparent" points="322.5,-38 322.5,-54 384.5,-54 384.5,-38 322.5,-38"/>
<text text-anchor="start" x="349.5" y="-43.2" font-family="Helvetica,sans-Serif" font-size="11.00"> &#160;</text>
<polygon fill="#ffffff" stroke="transparent" points="384.5,-38 384.5,-54 458.5,-54 458.5,-38 384.5,-38"/>
<text text-anchor="start" x="436.5" y="-43.2" font-family="Helvetica,sans-Serif" font-size="11.00">1 &gt;</text>
<polygon fill="black" stroke="black" points="322.5,-38 322.5,-54 322.5,-54 322.5,-38 322.5,-38"/>
<polygon fill="black" stroke="black" points="384.5,-38 384.5,-54 384.5,-54 384.5,-38 384.5,-38"/>
</a>
</g>
</g>
<!-- catchment_area_totals&#45;&gt;hydraulic_char_data -->
<g id="edge4" class="edge">
<title>catchment_area_totals:w&#45;&gt;hydraulic_char_data:e</title>
<path fill="none" stroke="black" d="M511.49,-418.84C475.56,-400.08 514.62,-304 460.5,-304"/>
<polygon fill="black" stroke="black" points="518.18,-420.3 525.23,-425.52 522.09,-421.15 526,-422 526,-422 526,-422 522.09,-421.15 526.77,-418.48 518.18,-420.3 518.18,-420.3"/>
<ellipse fill="none" stroke="black" cx="515.06" cy="-419.62" rx="3.2" ry="3.2"/>
</g>
<!-- hydraulic_char_data&#45;&gt;organisation -->
<g id="edge6" class="edge">
<title>hydraulic_char_data:w&#45;&gt;organisation:e</title>
<path fill="none" stroke="black" d="M232.06,-174.58C183.84,-194.86 252.16,-328 183,-328"/>
<polygon fill="black" stroke="black" points="238.62,-173.41 247.13,-175.54 242.56,-172.7 246.5,-172 246.5,-172 246.5,-172 242.56,-172.7 245.87,-168.46 238.62,-173.41 238.62,-173.41"/>
<ellipse fill="none" stroke="black" cx="235.47" cy="-173.97" rx="3.2" ry="3.2"/>
</g>
<!-- hydraulic_char_data&#45;&gt;organisation -->
<g id="edge7" class="edge">
<title>hydraulic_char_data:w&#45;&gt;organisation:e</title>
<path fill="none" stroke="black" d="M232.15,-152.25C175.55,-172.86 261.42,-328 183,-328"/>
<polygon fill="black" stroke="black" points="238.6,-151.24 247.06,-153.56 242.55,-150.62 246.5,-150 246.5,-150 246.5,-150 242.55,-150.62 245.94,-146.44 238.6,-151.24 238.6,-151.24"/>
<ellipse fill="none" stroke="black" cx="235.44" cy="-151.74" rx="3.2" ry="3.2"/>
</g>
</g>
</svg>
