<?xml version="1.0" encoding="UTF-8" standalone="no"?>
<!DOCTYPE svg PUBLIC "-//W3C//DTD SVG 1.1//EN"
 "http://www.w3.org/Graphics/SVG/1.1/DTD/svg11.dtd">
<!-- Generated by graphviz version 2.43.0 (0)
 -->
<!-- Title: oneDegreeRelationshipsDiagram Pages: 1 -->
<svg width="1211pt" height="651pt"
 viewBox="0.00 0.00 1211.00 651.00" xmlns="http://www.w3.org/2000/svg" xmlns:xlink="http://www.w3.org/1999/xlink">
<g id="graph0" class="graph" transform="scale(1 1) rotate(0) translate(4 647)">
<title>oneDegreeRelationshipsDiagram</title>
<polygon fill="#ffffff" stroke="transparent" points="-4,4 -4,-647 1207,-647 1207,4 -4,4"/>
<text text-anchor="middle" x="79.5" y="-7.2" font-family="Helvetica,sans-Serif" font-size="11.00">Generated by SchemaSpy</text>
<!-- building -->
<g id="node1" class="node">
<title>building</title>
<g id="a_node1"><a xlink:href="../../tables/building.html" xlink:title="building" target="_top">
<polygon fill="#ffffff" stroke="transparent" points="982,-515 982,-639 1195,-639 1195,-515 982,-515"/>
<polygon fill="#f5f5f5" stroke="transparent" points="982.5,-617 982.5,-639 1195.5,-639 1195.5,-617 982.5,-617"/>
<polygon fill="none" stroke="black" points="982.5,-617 982.5,-639 1195.5,-639 1195.5,-617 982.5,-617"/>
<text text-anchor="start" x="987.5" y="-626.2" font-family="Helvetica,sans-Serif" font-weight="bold" font-size="11.00">building</text>
<text text-anchor="start" x="1153.5" y="-625.2" font-family="Helvetica,sans-Serif" font-size="11.00">[table]</text>
<polygon fill="none" stroke="black" points="982.5,-595 982.5,-617 1195.5,-617 1195.5,-595 982.5,-595"/>
<image xlink:href="../../images/primaryKeys.png" width="11px" height="12px" preserveAspectRatio="xMinYMin meet" x="987.5" y="-612"/>
<text text-anchor="start" x="1002.5" y="-603.2" font-family="Helvetica,sans-Serif" font-size="11.00">obj_id</text>
<polygon fill="#ffffff" stroke="transparent" points="982.5,-573 982.5,-595 1195.5,-595 1195.5,-573 982.5,-573"/>
<polygon fill="none" stroke="black" points="982.5,-573 982.5,-595 1195.5,-595 1195.5,-573 982.5,-573"/>
<text text-anchor="start" x="1002.5" y="-581.2" font-family="Helvetica,sans-Serif" font-size="11.00">perimeter_geometry</text>
<polygon fill="#ffffff" stroke="transparent" points="982.5,-551 982.5,-573 1195.5,-573 1195.5,-551 982.5,-551"/>
<polygon fill="none" stroke="black" points="982.5,-551 982.5,-573 1195.5,-573 1195.5,-551 982.5,-551"/>
<text text-anchor="start" x="1002.5" y="-559.2" font-family="Helvetica,sans-Serif" font-size="11.00">reference_point_geometry</text>
<polygon fill="none" stroke="black" points="982.5,-533 982.5,-551 1195.5,-551 1195.5,-533 982.5,-533"/>
<text text-anchor="start" x="985.5" y="-539.2" font-family="Helvetica,sans-Serif" font-size="11.00">...</text>
<polygon fill="#ffffff" stroke="transparent" points="982.5,-515 982.5,-533 1195.5,-533 1195.5,-515 982.5,-515"/>
<polygon fill="none" stroke="black" points="982.5,-515 982.5,-533 1195.5,-533 1195.5,-515 982.5,-515"/>
<polygon fill="#ffffff" stroke="transparent" points="983.5,-516 983.5,-532 1062.5,-532 1062.5,-516 983.5,-516"/>
<text text-anchor="start" x="985.5" y="-521.2" font-family="Helvetica,sans-Serif" font-size="11.00">&lt; 1</text>
<polygon fill="#ffffff" stroke="transparent" points="1062.5,-516 1062.5,-532 1128.5,-532 1128.5,-516 1062.5,-516"/>
<text text-anchor="start" x="1091.5" y="-521.2" font-family="Helvetica,sans-Serif" font-size="11.00"> &#160;</text>
<polygon fill="#ffffff" stroke="transparent" points="1128.5,-516 1128.5,-532 1194.5,-532 1194.5,-516 1128.5,-516"/>
<text text-anchor="start" x="1184.5" y="-521.2" font-family="Helvetica,sans-Serif" font-size="11.00"> &#160;</text>
<polygon fill="black" stroke="black" points="1062.5,-516 1062.5,-532 1062.5,-532 1062.5,-516 1062.5,-516"/>
<polygon fill="black" stroke="black" points="1128.5,-516 1128.5,-532 1128.5,-532 1128.5,-516 1128.5,-516"/>
</a>
</g>
</g>
<!-- connection_object -->
<g id="node2" class="node">
<title>connection_object</title>
<g id="a_node2"><a xlink:href="../../tables/connection_object.html" xlink:title="connection_object" target="_top">
<polygon fill="#ffffff" stroke="transparent" points="539,-214 539,-434 933,-434 933,-214 539,-214"/>
<polygon fill="#f5f5f5" stroke="transparent" points="541,-410 541,-432 931,-432 931,-410 541,-410"/>
<polygon fill="none" stroke="black" points="541,-410 541,-432 931,-432 931,-410 541,-410"/>
<text text-anchor="start" x="546" y="-419.2" font-family="Helvetica,sans-Serif" font-weight="bold" font-size="11.00">connection_object</text>
<text text-anchor="start" x="889" y="-418.2" font-family="Helvetica,sans-Serif" font-size="11.00">[table]</text>
<polygon fill="none" stroke="black" points="541,-388 541,-410 825,-410 825,-388 541,-388"/>
<image xlink:href="../../images/primaryKeys.png" width="11px" height="12px" preserveAspectRatio="xMinYMin meet" x="546" y="-405"/>
<text text-anchor="start" x="561" y="-396.2" font-family="Helvetica,sans-Serif" font-size="11.00">obj_id</text>
<polygon fill="none" stroke="black" points="825,-388 825,-410 931,-410 931,-388 825,-388"/>
<text text-anchor="start" x="828" y="-396.2" font-family="Helvetica,sans-Serif" font-size="11.00">varchar[16]</text>
<polygon fill="#ffffff" stroke="transparent" points="541,-366 541,-388 825,-388 825,-366 541,-366"/>
<polygon fill="none" stroke="black" points="541,-366 541,-388 825,-388 825,-366 541,-366"/>
<text text-anchor="start" x="561" y="-374.2" font-family="Helvetica,sans-Serif" font-size="11.00">identifier</text>
<polygon fill="none" stroke="black" points="825,-366 825,-388 931,-388 931,-366 825,-366"/>
<text text-anchor="start" x="828" y="-374.2" font-family="Helvetica,sans-Serif" font-size="11.00">text[2147483647]</text>
<polygon fill="none" stroke="black" points="541,-344 541,-366 825,-366 825,-344 541,-344"/>
<text text-anchor="start" x="561" y="-352.2" font-family="Helvetica,sans-Serif" font-size="11.00">remark</text>
<polygon fill="none" stroke="black" points="825,-344 825,-366 931,-366 931,-344 825,-344"/>
<text text-anchor="start" x="828" y="-352.2" font-family="Helvetica,sans-Serif" font-size="11.00">text[2147483647]</text>
<polygon fill="none" stroke="black" points="541,-322 541,-344 825,-344 825,-322 541,-322"/>
<text text-anchor="start" x="561" y="-330.2" font-family="Helvetica,sans-Serif" font-size="11.00">sewer_infiltration_water_production</text>
<polygon fill="none" stroke="black" points="825,-322 825,-344 931,-344 931,-322 825,-322"/>
<text text-anchor="start" x="828" y="-330.2" font-family="Helvetica,sans-Serif" font-size="11.00">numeric[9,3]</text>
<polygon fill="none" stroke="black" points="541,-300 541,-322 825,-322 825,-300 541,-300"/>
<text text-anchor="start" x="561" y="-308.2" font-family="Helvetica,sans-Serif" font-size="11.00">last_modification</text>
<polygon fill="none" stroke="black" points="825,-300 825,-322 931,-322 931,-300 825,-300"/>
<text text-anchor="start" x="828" y="-308.2" font-family="Helvetica,sans-Serif" font-size="11.00">timestamp[29,6]</text>
<polygon fill="#ffffff" stroke="transparent" points="541,-278 541,-300 825,-300 825,-278 541,-278"/>
<polygon fill="none" stroke="black" points="541,-278 541,-300 825,-300 825,-278 541,-278"/>
<image xlink:href="../../images/foreignKeys.png" width="11px" height="12px" preserveAspectRatio="xMinYMin meet" x="546" y="-295"/>
<text text-anchor="start" x="561" y="-286.2" font-family="Helvetica,sans-Serif" font-size="11.00">fk_dataowner</text>
<polygon fill="none" stroke="black" points="825,-278 825,-300 931,-300 931,-278 825,-278"/>
<text text-anchor="start" x="828" y="-286.2" font-family="Helvetica,sans-Serif" font-size="11.00">varchar[16]</text>
<polygon fill="none" stroke="black" points="541,-256 541,-278 825,-278 825,-256 541,-256"/>
<image xlink:href="../../images/foreignKeys.png" width="11px" height="12px" preserveAspectRatio="xMinYMin meet" x="546" y="-273"/>
<text text-anchor="start" x="561" y="-264.2" font-family="Helvetica,sans-Serif" font-size="11.00">fk_provider</text>
<polygon fill="none" stroke="black" points="825,-256 825,-278 931,-278 931,-256 825,-256"/>
<text text-anchor="start" x="828" y="-264.2" font-family="Helvetica,sans-Serif" font-size="11.00">varchar[16]</text>
<polygon fill="none" stroke="black" points="541,-234 541,-256 825,-256 825,-234 541,-234"/>
<image xlink:href="../../images/foreignKeys.png" width="11px" height="12px" preserveAspectRatio="xMinYMin meet" x="546" y="-251"/>
<text text-anchor="start" x="561" y="-242.2" font-family="Helvetica,sans-Serif" font-size="11.00">fk_wastewater_networkelement</text>
<polygon fill="none" stroke="black" points="825,-234 825,-256 931,-256 931,-234 825,-234"/>
<text text-anchor="start" x="828" y="-242.2" font-family="Helvetica,sans-Serif" font-size="11.00">varchar[16]</text>
<polygon fill="#ffffff" stroke="transparent" points="541,-216 541,-234 931,-234 931,-216 541,-216"/>
<polygon fill="none" stroke="black" points="541,-216 541,-234 931,-234 931,-216 541,-216"/>
<polygon fill="#ffffff" stroke="transparent" points="542,-217 542,-233 676,-233 676,-217 542,-217"/>
<text text-anchor="start" x="544" y="-222.2" font-family="Helvetica,sans-Serif" font-size="11.00">&lt; 3</text>
<polygon fill="#ffffff" stroke="transparent" points="676,-217 676,-233 797,-233 797,-217 676,-217"/>
<text text-anchor="start" x="732.5" y="-222.2" font-family="Helvetica,sans-Serif" font-size="11.00"> &#160;</text>
<polygon fill="#ffffff" stroke="transparent" points="797,-217 797,-233 930,-233 930,-217 797,-217"/>
<text text-anchor="start" x="908" y="-222.2" font-family="Helvetica,sans-Serif" font-size="11.00">4 &gt;</text>
<polygon fill="black" stroke="black" points="676,-217 676,-233 676,-233 676,-217 676,-217"/>
<polygon fill="black" stroke="black" points="797,-217 797,-233 797,-233 797,-217 797,-217"/>
<polygon fill="none" stroke="black" stroke-width="2" points="540,-215 540,-433 932,-433 932,-215 540,-215"/>
</a>
</g>
</g>
<!-- building&#45;&gt;connection_object -->
<g id="edge1" class="edge">
<title>building:w&#45;&gt;connection_object:e</title>
<path fill="none" stroke="black" d="M971.01,-604.98C897.97,-589.37 1022.71,-399 932,-399"/>
<polygon fill="black" stroke="black" points="981.09,-601.94 980.32,-609.9 978.73,-609.75 979.5,-601.79 981.09,-601.94"/>
<polyline fill="none" stroke="black" points="981.5,-606 977.52,-605.61 "/>
<ellipse fill="none" stroke="black" cx="974.33" cy="-605.31" rx="3.2" ry="3.2"/>
</g>
<!-- organisation -->
<g id="node3" class="node">
<title>organisation</title>
<g id="a_node3"><a xlink:href="../../tables/organisation.html" xlink:title="organisation" target="_top">
<polygon fill="#ffffff" stroke="transparent" points="8,-37 8,-249 182,-249 182,-37 8,-37"/>
<polygon fill="#f5f5f5" stroke="transparent" points="8,-227 8,-249 182,-249 182,-227 8,-227"/>
<polygon fill="none" stroke="black" points="8,-227 8,-249 182,-249 182,-227 8,-227"/>
<text text-anchor="start" x="13" y="-236.2" font-family="Helvetica,sans-Serif" font-weight="bold" font-size="11.00">organisation</text>
<text text-anchor="start" x="140" y="-235.2" font-family="Helvetica,sans-Serif" font-size="11.00">[table]</text>
<polygon fill="none" stroke="black" points="8,-205 8,-227 182,-227 182,-205 8,-205"/>
<image xlink:href="../../images/primaryKeys.png" width="11px" height="12px" preserveAspectRatio="xMinYMin meet" x="13" y="-222"/>
<text text-anchor="start" x="28" y="-213.2" font-family="Helvetica,sans-Serif" font-size="11.00">obj_id</text>
<polygon fill="#ffffff" stroke="transparent" points="8,-183 8,-205 182,-205 182,-183 8,-183"/>
<polygon fill="none" stroke="black" points="8,-183 8,-205 182,-205 182,-183 8,-183"/>
<text text-anchor="start" x="28" y="-191.2" font-family="Helvetica,sans-Serif" font-size="11.00">identifier</text>
<polygon fill="#ffffff" stroke="transparent" points="8,-161 8,-183 182,-183 182,-161 8,-161"/>
<polygon fill="none" stroke="black" points="8,-161 8,-183 182,-183 182,-161 8,-161"/>
<image xlink:href="../../images/foreignKeys.png" width="11px" height="12px" preserveAspectRatio="xMinYMin meet" x="13" y="-178"/>
<text text-anchor="start" x="28" y="-169.2" font-family="Helvetica,sans-Serif" font-size="11.00">organisation_type</text>
<polygon fill="none" stroke="black" points="8,-139 8,-161 182,-161 182,-139 8,-139"/>
<image xlink:href="../../images/foreignKeys.png" width="11px" height="12px" preserveAspectRatio="xMinYMin meet" x="13" y="-156"/>
<text text-anchor="start" x="28" y="-147.2" font-family="Helvetica,sans-Serif" font-size="11.00">status</text>
<polygon fill="#ffffff" stroke="transparent" points="8,-117 8,-139 182,-139 182,-117 8,-117"/>
<polygon fill="none" stroke="black" points="8,-117 8,-139 182,-139 182,-117 8,-117"/>
<text text-anchor="start" x="28" y="-125.2" font-family="Helvetica,sans-Serif" font-size="11.00">uid</text>
<polygon fill="none" stroke="black" points="8,-95 8,-117 182,-117 182,-95 8,-95"/>
<image xlink:href="../../images/foreignKeys.png" width="11px" height="12px" preserveAspectRatio="xMinYMin meet" x="13" y="-112"/>
<text text-anchor="start" x="28" y="-103.2" font-family="Helvetica,sans-Serif" font-size="11.00">fk_dataowner</text>
<polygon fill="none" stroke="black" points="8,-73 8,-95 182,-95 182,-73 8,-73"/>
<image xlink:href="../../images/foreignKeys.png" width="11px" height="12px" preserveAspectRatio="xMinYMin meet" x="13" y="-90"/>
<text text-anchor="start" x="28" y="-81.2" font-family="Helvetica,sans-Serif" font-size="11.00">fk_provider</text>
<polygon fill="none" stroke="black" points="8,-55 8,-73 182,-73 182,-55 8,-55"/>
<text text-anchor="start" x="11" y="-61.2" font-family="Helvetica,sans-Serif" font-size="11.00">...</text>
<polygon fill="#ffffff" stroke="transparent" points="8,-37 8,-55 182,-55 182,-37 8,-37"/>
<polygon fill="none" stroke="black" points="8,-37 8,-55 182,-55 182,-37 8,-37"/>
<polygon fill="#ffffff" stroke="transparent" points="9,-38 9,-54 66,-54 66,-38 9,-38"/>
<text text-anchor="start" x="11" y="-43.2" font-family="Helvetica,sans-Serif" font-size="11.00">&lt; 4</text>
<polygon fill="#ffffff" stroke="transparent" points="66,-38 66,-54 111,-54 111,-38 66,-38"/>
<text text-anchor="start" x="84.5" y="-43.2" font-family="Helvetica,sans-Serif" font-size="11.00"> &#160;</text>
<polygon fill="#ffffff" stroke="transparent" points="111,-38 111,-54 181,-54 181,-38 111,-38"/>
<text text-anchor="start" x="145" y="-43.2" font-family="Helvetica,sans-Serif" font-size="11.00">105 &gt;</text>
<polygon fill="black" stroke="black" points="66,-38 66,-54 66,-54 66,-38 66,-38"/>
<polygon fill="black" stroke="black" points="111,-38 111,-54 111,-54 111,-38 111,-38"/>
</a>
</g>
</g>
<!-- connection_object&#45;&gt;organisation -->
<g id="edge2" class="edge">
<title>connection_object:w&#45;&gt;organisation:e</title>
<path fill="none" stroke="black" d="M525.45,-289.2C395.18,-292.87 341.45,-343.9 223,-277 194.77,-261.06 215.42,-216 183,-216"/>
<polygon fill="black" stroke="black" points="532,-289.11 540.05,-292.6 536,-289.06 540,-289 540,-289 540,-289 536,-289.06 539.95,-285.4 532,-289.11 532,-289.11"/>
<ellipse fill="none" stroke="black" cx="528.8" cy="-289.16" rx="3.2" ry="3.2"/>
</g>
<!-- connection_object&#45;&gt;organisation -->
<g id="edge3" class="edge">
<title>connection_object:w&#45;&gt;organisation:e</title>
<path fill="none" stroke="black" d="M525.53,-267.16C447.26,-268.65 283.87,-279.76 223,-254 200.42,-244.44 207.52,-216 183,-216"/>
<polygon fill="black" stroke="black" points="532,-267.09 540.04,-270.6 536,-267.04 540,-267 540,-267 540,-267 536,-267.04 539.96,-263.4 532,-267.09 532,-267.09"/>
<ellipse fill="none" stroke="black" cx="528.8" cy="-267.12" rx="3.2" ry="3.2"/>
</g>
<!-- wastewater_networkelement -->
<g id="node4" class="node">
<title>wastewater_networkelement</title>
<g id="a_node4"><a xlink:href="../../tables/wastewater_networkelement.html" xlink:title="wastewater_networkelement" target="_top">
<polygon fill="#ffffff" stroke="transparent" points="231,-75 231,-243 490,-243 490,-75 231,-75"/>
<polygon fill="#f5f5f5" stroke="transparent" points="231.5,-221 231.5,-243 490.5,-243 490.5,-221 231.5,-221"/>
<polygon fill="none" stroke="black" points="231.5,-221 231.5,-243 490.5,-243 490.5,-221 231.5,-221"/>
<text text-anchor="start" x="236.5" y="-230.2" font-family="Helvetica,sans-Serif" font-weight="bold" font-size="11.00">wastewater_networkelement</text>
<text text-anchor="start" x="448.5" y="-229.2" font-family="Helvetica,sans-Serif" font-size="11.00">[table]</text>
<polygon fill="none" stroke="black" points="231.5,-199 231.5,-221 490.5,-221 490.5,-199 231.5,-199"/>
<image xlink:href="../../images/primaryKeys.png" width="11px" height="12px" preserveAspectRatio="xMinYMin meet" x="236.5" y="-216"/>
<text text-anchor="start" x="264.5" y="-207.2" font-family="Helvetica,sans-Serif" font-size="11.00">obj_id</text>
<polygon fill="#ffffff" stroke="transparent" points="231.5,-177 231.5,-199 490.5,-199 490.5,-177 231.5,-177"/>
<polygon fill="none" stroke="black" points="231.5,-177 231.5,-199 490.5,-199 490.5,-177 231.5,-177"/>
<text text-anchor="start" x="264.5" y="-185.2" font-family="Helvetica,sans-Serif" font-size="11.00">identifier</text>
<polygon fill="#ffffff" stroke="transparent" points="231.5,-155 231.5,-177 490.5,-177 490.5,-155 231.5,-155"/>
<polygon fill="none" stroke="black" points="231.5,-155 231.5,-177 490.5,-177 490.5,-155 231.5,-155"/>
<image xlink:href="../../images/foreignKeys.png" width="11px" height="12px" preserveAspectRatio="xMinYMin meet" x="236.5" y="-172"/>
<text text-anchor="start" x="264.5" y="-163.2" font-family="Helvetica,sans-Serif" font-size="11.00">fk_dataowner</text>
<polygon fill="none" stroke="black" points="231.5,-133 231.5,-155 490.5,-155 490.5,-133 231.5,-133"/>
<image xlink:href="../../images/foreignKeys.png" width="11px" height="12px" preserveAspectRatio="xMinYMin meet" x="236.5" y="-150"/>
<text text-anchor="start" x="264.5" y="-141.2" font-family="Helvetica,sans-Serif" font-size="11.00">fk_provider</text>
<polygon fill="none" stroke="black" points="231.5,-111 231.5,-133 490.5,-133 490.5,-111 231.5,-111"/>
<image xlink:href="../../images/foreignKeys.png" width="11px" height="12px" preserveAspectRatio="xMinYMin meet" x="236.5" y="-128"/>
<text text-anchor="start" x="264.5" y="-119.2" font-family="Helvetica,sans-Serif" font-size="11.00">fk_wastewater_structure</text>
<polygon fill="none" stroke="black" points="231.5,-93 231.5,-111 490.5,-111 490.5,-93 231.5,-93"/>
<text text-anchor="start" x="234.5" y="-99.2" font-family="Helvetica,sans-Serif" font-size="11.00">...</text>
<polygon fill="#ffffff" stroke="transparent" points="231.5,-75 231.5,-93 490.5,-93 490.5,-75 231.5,-75"/>
<polygon fill="none" stroke="black" points="231.5,-75 231.5,-93 490.5,-93 490.5,-75 231.5,-75"/>
<polygon fill="#ffffff" stroke="transparent" points="232.5,-76 232.5,-92 320.5,-92 320.5,-76 232.5,-76"/>
<text text-anchor="start" x="234.5" y="-81.2" font-family="Helvetica,sans-Serif" font-size="11.00">&lt; 3</text>
<polygon fill="#ffffff" stroke="transparent" points="320.5,-76 320.5,-92 395.5,-92 395.5,-76 320.5,-76"/>
<text text-anchor="start" x="354" y="-81.2" font-family="Helvetica,sans-Serif" font-size="11.00"> &#160;</text>
<polygon fill="#ffffff" stroke="transparent" points="395.5,-76 395.5,-92 489.5,-92 489.5,-76 395.5,-76"/>
<text text-anchor="start" x="460.5" y="-81.2" font-family="Helvetica,sans-Serif" font-size="11.00">12 &gt;</text>
<polygon fill="black" stroke="black" points="320.5,-76 320.5,-92 320.5,-92 320.5,-76 320.5,-76"/>
<polygon fill="black" stroke="black" points="395.5,-76 395.5,-92 395.5,-92 395.5,-76 395.5,-76"/>
</a>
</g>
</g>
<!-- connection_object&#45;&gt;wastewater_networkelement -->
<g id="edge4" class="edge">
<title>connection_object:w&#45;&gt;wastewater_networkelement:e</title>
<path fill="none" stroke="black" d="M526.02,-240.42C513.93,-230.94 512.06,-210 491.5,-210"/>
<polygon fill="black" stroke="black" points="532.4,-242.51 538.88,-248.42 536.2,-243.76 540,-245 540,-245 540,-245 536.2,-243.76 541.12,-241.58 532.4,-242.51 532.4,-242.51"/>
<ellipse fill="none" stroke="black" cx="529.36" cy="-241.52" rx="3.2" ry="3.2"/>
</g>
<!-- wastewater_networkelement&#45;&gt;organisation -->
<g id="edge8" class="edge">
<title>wastewater_networkelement:w&#45;&gt;organisation:e</title>
<path fill="none" stroke="black" d="M216.97,-170.98C203.54,-183.62 207.66,-216 183,-216"/>
<polygon fill="black" stroke="black" points="222.99,-168.76 231.74,-169.38 226.75,-167.38 230.5,-166 230.5,-166 230.5,-166 226.75,-167.38 229.26,-162.62 222.99,-168.76 222.99,-168.76"/>
<ellipse fill="none" stroke="black" cx="219.99" cy="-169.87" rx="3.2" ry="3.2"/>
</g>
<!-- wastewater_networkelement&#45;&gt;organisation -->
<g id="edge9" class="edge">
<title>wastewater_networkelement:w&#45;&gt;organisation:e</title>
<path fill="none" stroke="black" d="M216.49,-149.18C199.92,-165.69 215.05,-216 183,-216"/>
<polygon fill="black" stroke="black" points="223,-146.77 231.75,-147.38 226.75,-145.39 230.5,-144 230.5,-144 230.5,-144 226.75,-145.39 229.25,-140.62 223,-146.77 223,-146.77"/>
<ellipse fill="none" stroke="black" cx="219.99" cy="-147.88" rx="3.2" ry="3.2"/>
</g>
<!-- fountain -->
<g id="node5" class="node">
<title>fountain</title>
<g id="a_node5"><a xlink:href="../../tables/fountain.html" xlink:title="fountain" target="_top">
<polygon fill="#ffffff" stroke="transparent" points="1007,-392 1007,-494 1170,-494 1170,-392 1007,-392"/>
<polygon fill="#f5f5f5" stroke="transparent" points="1007.5,-472 1007.5,-494 1170.5,-494 1170.5,-472 1007.5,-472"/>
<polygon fill="none" stroke="black" points="1007.5,-472 1007.5,-494 1170.5,-494 1170.5,-472 1007.5,-472"/>
<text text-anchor="start" x="1012.5" y="-481.2" font-family="Helvetica,sans-Serif" font-weight="bold" font-size="11.00">fountain</text>
<text text-anchor="start" x="1128.5" y="-480.2" font-family="Helvetica,sans-Serif" font-size="11.00">[table]</text>
<polygon fill="none" stroke="black" points="1007.5,-450 1007.5,-472 1170.5,-472 1170.5,-450 1007.5,-450"/>
<image xlink:href="../../images/primaryKeys.png" width="11px" height="12px" preserveAspectRatio="xMinYMin meet" x="1012.5" y="-467"/>
<text text-anchor="start" x="1027.5" y="-458.2" font-family="Helvetica,sans-Serif" font-size="11.00">obj_id</text>
<polygon fill="#ffffff" stroke="transparent" points="1007.5,-428 1007.5,-450 1170.5,-450 1170.5,-428 1007.5,-428"/>
<polygon fill="none" stroke="black" points="1007.5,-428 1007.5,-450 1170.5,-450 1170.5,-428 1007.5,-428"/>
<text text-anchor="start" x="1027.5" y="-436.2" font-family="Helvetica,sans-Serif" font-size="11.00">situation_geometry</text>
<polygon fill="none" stroke="black" points="1007.5,-410 1007.5,-428 1170.5,-428 1170.5,-410 1007.5,-410"/>
<text text-anchor="start" x="1010.5" y="-416.2" font-family="Helvetica,sans-Serif" font-size="11.00">...</text>
<polygon fill="#ffffff" stroke="transparent" points="1007.5,-392 1007.5,-410 1170.5,-410 1170.5,-392 1007.5,-392"/>
<polygon fill="none" stroke="black" points="1007.5,-392 1007.5,-410 1170.5,-410 1170.5,-392 1007.5,-392"/>
<polygon fill="#ffffff" stroke="transparent" points="1008.5,-393 1008.5,-409 1070.5,-409 1070.5,-393 1008.5,-393"/>
<text text-anchor="start" x="1010.5" y="-398.2" font-family="Helvetica,sans-Serif" font-size="11.00">&lt; 1</text>
<polygon fill="#ffffff" stroke="transparent" points="1070.5,-393 1070.5,-409 1120.5,-409 1120.5,-393 1070.5,-393"/>
<text text-anchor="start" x="1091.5" y="-398.2" font-family="Helvetica,sans-Serif" font-size="11.00"> &#160;</text>
<polygon fill="#ffffff" stroke="transparent" points="1120.5,-393 1120.5,-409 1169.5,-409 1169.5,-393 1120.5,-393"/>
<text text-anchor="start" x="1159.5" y="-398.2" font-family="Helvetica,sans-Serif" font-size="11.00"> &#160;</text>
<polygon fill="black" stroke="black" points="1070.5,-393 1070.5,-409 1070.5,-409 1070.5,-393 1070.5,-393"/>
<polygon fill="black" stroke="black" points="1120.5,-393 1120.5,-409 1120.5,-409 1120.5,-393 1120.5,-393"/>
</a>
</g>
</g>
<!-- fountain&#45;&gt;connection_object -->
<g id="edge5" class="edge">
<title>fountain:w&#45;&gt;connection_object:e</title>
<path fill="none" stroke="black" d="M996.14,-459.59C965.08,-450.36 971.21,-399 932,-399"/>
<polygon fill="black" stroke="black" points="1006.25,-456.93 1005.17,-464.86 1003.58,-464.64 1004.66,-456.71 1006.25,-456.93"/>
<polyline fill="none" stroke="black" points="1006.5,-461 1002.54,-460.46 "/>
<ellipse fill="none" stroke="black" cx="999.37" cy="-460.03" rx="3.2" ry="3.2"/>
</g>
<!-- individual_surface -->
<g id="node6" class="node">
<title>individual_surface</title>
<g id="a_node6"><a xlink:href="../../tables/individual_surface.html" xlink:title="individual_surface" target="_top">
<polygon fill="#ffffff" stroke="transparent" points="998.5,-225 998.5,-371 1178.5,-371 1178.5,-225 998.5,-225"/>
<polygon fill="#f5f5f5" stroke="transparent" points="998.5,-349 998.5,-371 1178.5,-371 1178.5,-349 998.5,-349"/>
<polygon fill="none" stroke="black" points="998.5,-349 998.5,-371 1178.5,-371 1178.5,-349 998.5,-349"/>
<text text-anchor="start" x="1003.5" y="-358.2" font-family="Helvetica,sans-Serif" font-weight="bold" font-size="11.00">individual_surface</text>
<text text-anchor="start" x="1136.5" y="-357.2" font-family="Helvetica,sans-Serif" font-size="11.00">[table]</text>
<polygon fill="none" stroke="black" points="998.5,-327 998.5,-349 1178.5,-349 1178.5,-327 998.5,-327"/>
<image xlink:href="../../images/primaryKeys.png" width="11px" height="12px" preserveAspectRatio="xMinYMin meet" x="1003.5" y="-344"/>
<text text-anchor="start" x="1023.5" y="-335.2" font-family="Helvetica,sans-Serif" font-size="11.00">obj_id</text>
<polygon fill="none" stroke="black" points="998.5,-305 998.5,-327 1178.5,-327 1178.5,-305 998.5,-305"/>
<image xlink:href="../../images/foreignKeys.png" width="11px" height="12px" preserveAspectRatio="xMinYMin meet" x="1003.5" y="-322"/>
<text text-anchor="start" x="1023.5" y="-313.2" font-family="Helvetica,sans-Serif" font-size="11.00">function</text>
<polygon fill="none" stroke="black" points="998.5,-283 998.5,-305 1178.5,-305 1178.5,-283 998.5,-283"/>
<image xlink:href="../../images/foreignKeys.png" width="11px" height="12px" preserveAspectRatio="xMinYMin meet" x="1003.5" y="-300"/>
<text text-anchor="start" x="1023.5" y="-291.2" font-family="Helvetica,sans-Serif" font-size="11.00">pavement</text>
<polygon fill="#ffffff" stroke="transparent" points="998.5,-261 998.5,-283 1178.5,-283 1178.5,-261 998.5,-261"/>
<polygon fill="none" stroke="black" points="998.5,-261 998.5,-283 1178.5,-283 1178.5,-261 998.5,-261"/>
<text text-anchor="start" x="1023.5" y="-269.2" font-family="Helvetica,sans-Serif" font-size="11.00">perimeter_geometry</text>
<polygon fill="none" stroke="black" points="998.5,-243 998.5,-261 1178.5,-261 1178.5,-243 998.5,-243"/>
<text text-anchor="start" x="1001.5" y="-249.2" font-family="Helvetica,sans-Serif" font-size="11.00">...</text>
<polygon fill="#ffffff" stroke="transparent" points="998.5,-225 998.5,-243 1178.5,-243 1178.5,-225 998.5,-225"/>
<polygon fill="none" stroke="black" points="998.5,-225 998.5,-243 1178.5,-243 1178.5,-225 998.5,-225"/>
<polygon fill="#ffffff" stroke="transparent" points="999.5,-226 999.5,-242 1067.5,-242 1067.5,-226 999.5,-226"/>
<text text-anchor="start" x="1001.5" y="-231.2" font-family="Helvetica,sans-Serif" font-size="11.00">&lt; 3</text>
<polygon fill="#ffffff" stroke="transparent" points="1067.5,-226 1067.5,-242 1122.5,-242 1122.5,-226 1067.5,-226"/>
<text text-anchor="start" x="1091" y="-231.2" font-family="Helvetica,sans-Serif" font-size="11.00"> &#160;</text>
<polygon fill="#ffffff" stroke="transparent" points="1122.5,-226 1122.5,-242 1177.5,-242 1177.5,-226 1122.5,-226"/>
<text text-anchor="start" x="1167.5" y="-231.2" font-family="Helvetica,sans-Serif" font-size="11.00"> &#160;</text>
<polygon fill="black" stroke="black" points="1067.5,-226 1067.5,-242 1067.5,-242 1067.5,-226 1067.5,-226"/>
<polygon fill="black" stroke="black" points="1122.5,-226 1122.5,-242 1122.5,-242 1122.5,-226 1122.5,-226"/>
</a>
</g>
</g>
<!-- individual_surface&#45;&gt;connection_object -->
<g id="edge6" class="edge">
<title>individual_surface:w&#45;&gt;connection_object:e</title>
<path fill="none" stroke="black" d="M986.93,-339.76C960.02,-349.76 967.74,-399 932,-399"/>
<polygon fill="black" stroke="black" points="996.05,-334.19 997.37,-342.08 995.79,-342.34 994.48,-334.45 996.05,-334.19"/>
<polyline fill="none" stroke="black" points="997.5,-338 993.55,-338.66 "/>
<ellipse fill="none" stroke="black" cx="990.4" cy="-339.18" rx="3.2" ry="3.2"/>
</g>
<!-- reservoir -->
<g id="node7" class="node">
<title>reservoir</title>
<g id="a_node7"><a xlink:href="../../tables/reservoir.html" xlink:title="reservoir" target="_top">
<polygon fill="#ffffff" stroke="transparent" points="1007,-102 1007,-204 1170,-204 1170,-102 1007,-102"/>
<polygon fill="#f5f5f5" stroke="transparent" points="1007.5,-182 1007.5,-204 1170.5,-204 1170.5,-182 1007.5,-182"/>
<polygon fill="none" stroke="black" points="1007.5,-182 1007.5,-204 1170.5,-204 1170.5,-182 1007.5,-182"/>
<text text-anchor="start" x="1012.5" y="-191.2" font-family="Helvetica,sans-Serif" font-weight="bold" font-size="11.00">reservoir</text>
<text text-anchor="start" x="1128.5" y="-190.2" font-family="Helvetica,sans-Serif" font-size="11.00">[table]</text>
<polygon fill="none" stroke="black" points="1007.5,-160 1007.5,-182 1170.5,-182 1170.5,-160 1007.5,-160"/>
<image xlink:href="../../images/primaryKeys.png" width="11px" height="12px" preserveAspectRatio="xMinYMin meet" x="1012.5" y="-177"/>
<text text-anchor="start" x="1027.5" y="-168.2" font-family="Helvetica,sans-Serif" font-size="11.00">obj_id</text>
<polygon fill="#ffffff" stroke="transparent" points="1007.5,-138 1007.5,-160 1170.5,-160 1170.5,-138 1007.5,-138"/>
<polygon fill="none" stroke="black" points="1007.5,-138 1007.5,-160 1170.5,-160 1170.5,-138 1007.5,-138"/>
<text text-anchor="start" x="1027.5" y="-146.2" font-family="Helvetica,sans-Serif" font-size="11.00">situation_geometry</text>
<polygon fill="none" stroke="black" points="1007.5,-120 1007.5,-138 1170.5,-138 1170.5,-120 1007.5,-120"/>
<text text-anchor="start" x="1010.5" y="-126.2" font-family="Helvetica,sans-Serif" font-size="11.00">...</text>
<polygon fill="#ffffff" stroke="transparent" points="1007.5,-102 1007.5,-120 1170.5,-120 1170.5,-102 1007.5,-102"/>
<polygon fill="none" stroke="black" points="1007.5,-102 1007.5,-120 1170.5,-120 1170.5,-102 1007.5,-102"/>
<polygon fill="#ffffff" stroke="transparent" points="1008.5,-103 1008.5,-119 1070.5,-119 1070.5,-103 1008.5,-103"/>
<text text-anchor="start" x="1010.5" y="-108.2" font-family="Helvetica,sans-Serif" font-size="11.00">&lt; 1</text>
<polygon fill="#ffffff" stroke="transparent" points="1070.5,-103 1070.5,-119 1120.5,-119 1120.5,-103 1070.5,-103"/>
<text text-anchor="start" x="1091.5" y="-108.2" font-family="Helvetica,sans-Serif" font-size="11.00"> &#160;</text>
<polygon fill="#ffffff" stroke="transparent" points="1120.5,-103 1120.5,-119 1169.5,-119 1169.5,-103 1120.5,-103"/>
<text text-anchor="start" x="1159.5" y="-108.2" font-family="Helvetica,sans-Serif" font-size="11.00"> &#160;</text>
<polygon fill="black" stroke="black" points="1070.5,-103 1070.5,-119 1070.5,-119 1070.5,-103 1070.5,-103"/>
<polygon fill="black" stroke="black" points="1120.5,-103 1120.5,-119 1120.5,-119 1120.5,-103 1120.5,-103"/>
</a>
</g>
</g>
<!-- reservoir&#45;&gt;connection_object -->
<g id="edge7" class="edge">
<title>reservoir:w&#45;&gt;connection_object:e</title>
<path fill="none" stroke="black" d="M996.1,-172.83C982.5,-178.54 982.4,-196.7 974,-215 939.01,-291.23 1015.88,-399 932,-399"/>
<polygon fill="black" stroke="black" points="1005.02,-167.2 1006.41,-175.08 1004.83,-175.36 1003.44,-167.48 1005.02,-167.2"/>
<polyline fill="none" stroke="black" points="1006.5,-171 1002.56,-171.69 "/>
<ellipse fill="none" stroke="black" cx="999.41" cy="-172.25" rx="3.2" ry="3.2"/>
</g>
</g>
</svg>
