<?xml version="1.0" encoding="UTF-8" standalone="no"?>
<!DOCTYPE svg PUBLIC "-//W3C//DTD SVG 1.1//EN"
 "http://www.w3.org/Graphics/SVG/1.1/DTD/svg11.dtd">
<!-- Generated by graphviz version 2.43.0 (0)
 -->
<!-- Title: oneDegreeRelationshipsDiagram Pages: 1 -->
<svg width="1366pt" height="807pt"
 viewBox="0.00 0.00 1366.46 807.00" xmlns="http://www.w3.org/2000/svg" xmlns:xlink="http://www.w3.org/1999/xlink">
<g id="graph0" class="graph" transform="scale(1 1) rotate(0) translate(4 803)">
<title>oneDegreeRelationshipsDiagram</title>
<polygon fill="#ffffff" stroke="transparent" points="-4,4 -4,-803 1362.46,-803 1362.46,4 -4,4"/>
<text text-anchor="middle" x="79.5" y="-7.2" font-family="Helvetica,sans-Serif" font-size="11.00">Generated by SchemaSpy</text>
<!-- agxx_cover -->
<g id="node1" class="node">
<title>agxx_cover</title>
<g id="a_node1"><a xlink:href="../../tables/agxx_cover.html" xlink:title="agxx_cover" target="_top">
<polygon fill="#ffffff" stroke="transparent" points="1137.46,-401 1137.46,-507 1350.46,-507 1350.46,-401 1137.46,-401"/>
<polygon fill="#f5f5f5" stroke="transparent" points="1137.96,-485 1137.96,-507 1350.96,-507 1350.96,-485 1137.96,-485"/>
<polygon fill="none" stroke="black" points="1137.96,-485 1137.96,-507 1350.96,-507 1350.96,-485 1137.96,-485"/>
<text text-anchor="start" x="1142.96" y="-494.2" font-family="Helvetica,sans-Serif" font-weight="bold" font-size="11.00">agxx_cover</text>
<text text-anchor="start" x="1308.96" y="-493.2" font-family="Helvetica,sans-Serif" font-size="11.00">[table]</text>
<polygon fill="none" stroke="black" points="1137.96,-463 1137.96,-485 1350.96,-485 1350.96,-463 1137.96,-463"/>
<image xlink:href="../../images/primaryKeys.png" width="11px" height="12px" preserveAspectRatio="xMinYMin meet" x="1142.96" y="-480"/>
<text text-anchor="start" x="1157.96" y="-471.2" font-family="Helvetica,sans-Serif" font-size="11.00">uuid</text>
<polygon fill="#ffffff" stroke="transparent" points="1137.96,-441 1137.96,-463 1350.96,-463 1350.96,-441 1137.96,-441"/>
<polygon fill="none" stroke="black" points="1137.96,-441 1137.96,-463 1350.96,-463 1350.96,-441 1137.96,-441"/>
<image xlink:href="../../images/foreignKeys.png" width="11px" height="12px" preserveAspectRatio="xMinYMin meet" x="1142.96" y="-458"/>
<text text-anchor="start" x="1157.96" y="-449.2" font-family="Helvetica,sans-Serif" font-size="11.00">fk_cover</text>
<polygon fill="none" stroke="black" points="1137.96,-419 1137.96,-441 1350.96,-441 1350.96,-419 1137.96,-419"/>
<image xlink:href="../../images/foreignKeys.png" width="11px" height="12px" preserveAspectRatio="xMinYMin meet" x="1142.96" y="-436"/>
<text text-anchor="start" x="1157.96" y="-427.2" font-family="Helvetica,sans-Serif" font-size="11.00">ag64_fk_wastewater_node</text>
<polygon fill="#ffffff" stroke="transparent" points="1137.96,-401 1137.96,-419 1350.96,-419 1350.96,-401 1137.96,-401"/>
<polygon fill="none" stroke="black" points="1137.96,-401 1137.96,-419 1350.96,-419 1350.96,-401 1137.96,-401"/>
<polygon fill="#ffffff" stroke="transparent" points="1138.96,-402 1138.96,-418 1217.96,-418 1217.96,-402 1138.96,-402"/>
<text text-anchor="start" x="1140.96" y="-407.2" font-family="Helvetica,sans-Serif" font-size="11.00">&lt; 2</text>
<polygon fill="#ffffff" stroke="transparent" points="1217.96,-402 1217.96,-418 1283.96,-418 1283.96,-402 1217.96,-402"/>
<text text-anchor="start" x="1246.96" y="-407.2" font-family="Helvetica,sans-Serif" font-size="11.00"> &#160;</text>
<polygon fill="#ffffff" stroke="transparent" points="1283.96,-402 1283.96,-418 1349.96,-418 1349.96,-402 1283.96,-402"/>
<text text-anchor="start" x="1339.96" y="-407.2" font-family="Helvetica,sans-Serif" font-size="11.00"> &#160;</text>
<polygon fill="black" stroke="black" points="1217.96,-402 1217.96,-418 1217.96,-418 1217.96,-402 1217.96,-402"/>
<polygon fill="black" stroke="black" points="1283.96,-402 1283.96,-418 1283.96,-418 1283.96,-402 1283.96,-402"/>
</a>
</g>
</g>
<!-- cover -->
<g id="node2" class="node">
<title>cover</title>
<g id="a_node2"><a xlink:href="../../tables/cover.html" xlink:title="cover" target="_top">
<polygon fill="#ffffff" stroke="transparent" points="646.46,-201 646.46,-487 1088.46,-487 1088.46,-201 646.46,-201"/>
<polygon fill="#f5f5f5" stroke="transparent" points="648.46,-463 648.46,-485 1086.46,-485 1086.46,-463 648.46,-463"/>
<polygon fill="none" stroke="black" points="648.46,-463 648.46,-485 1086.46,-485 1086.46,-463 648.46,-463"/>
<text text-anchor="start" x="653.46" y="-472.2" font-family="Helvetica,sans-Serif" font-weight="bold" font-size="11.00">cover</text>
<text text-anchor="start" x="1044.46" y="-471.2" font-family="Helvetica,sans-Serif" font-size="11.00">[table]</text>
<polygon fill="none" stroke="black" points="648.46,-441 648.46,-463 829.46,-463 829.46,-441 648.46,-441"/>
<image xlink:href="../../images/primaryKeys.png" width="11px" height="12px" preserveAspectRatio="xMinYMin meet" x="653.456" y="-458"/>
<text text-anchor="start" x="668.46" y="-449.2" font-family="Helvetica,sans-Serif" font-size="11.00">obj_id</text>
<polygon fill="none" stroke="black" points="829.46,-441 829.46,-463 1086.46,-463 1086.46,-441 829.46,-441"/>
<text text-anchor="start" x="832.46" y="-449.2" font-family="Helvetica,sans-Serif" font-size="11.00">&quot;tww_od&quot;.&quot;interlis_standardoid&quot;[2147483647]</text>
<polygon fill="none" stroke="black" points="648.46,-419 648.46,-441 829.46,-441 829.46,-419 648.46,-419"/>
<text text-anchor="start" x="668.46" y="-427.2" font-family="Helvetica,sans-Serif" font-size="11.00">brand</text>
<polygon fill="none" stroke="black" points="829.46,-419 829.46,-441 1086.46,-441 1086.46,-419 829.46,-419"/>
<text text-anchor="start" x="832.46" y="-427.2" font-family="Helvetica,sans-Serif" font-size="11.00">text[2147483647]</text>
<polygon fill="none" stroke="black" points="648.46,-397 648.46,-419 829.46,-419 829.46,-397 648.46,-397"/>
<image xlink:href="../../images/foreignKeys.png" width="11px" height="12px" preserveAspectRatio="xMinYMin meet" x="653.456" y="-414"/>
<text text-anchor="start" x="668.46" y="-405.2" font-family="Helvetica,sans-Serif" font-size="11.00">cover_shape</text>
<polygon fill="none" stroke="black" points="829.46,-397 829.46,-419 1086.46,-419 1086.46,-397 829.46,-397"/>
<text text-anchor="start" x="832.46" y="-405.2" font-family="Helvetica,sans-Serif" font-size="11.00">int4[10]</text>
<polygon fill="none" stroke="black" points="648.46,-375 648.46,-397 829.46,-397 829.46,-375 648.46,-375"/>
<text text-anchor="start" x="668.46" y="-383.2" font-family="Helvetica,sans-Serif" font-size="11.00">diameter</text>
<polygon fill="none" stroke="black" points="829.46,-375 829.46,-397 1086.46,-397 1086.46,-375 829.46,-375"/>
<text text-anchor="start" x="832.46" y="-383.2" font-family="Helvetica,sans-Serif" font-size="11.00">int2[5]</text>
<polygon fill="none" stroke="black" points="648.46,-353 648.46,-375 829.46,-375 829.46,-353 648.46,-353"/>
<image xlink:href="../../images/foreignKeys.png" width="11px" height="12px" preserveAspectRatio="xMinYMin meet" x="653.456" y="-370"/>
<text text-anchor="start" x="668.46" y="-361.2" font-family="Helvetica,sans-Serif" font-size="11.00">fastening</text>
<polygon fill="none" stroke="black" points="829.46,-353 829.46,-375 1086.46,-375 1086.46,-353 829.46,-353"/>
<text text-anchor="start" x="832.46" y="-361.2" font-family="Helvetica,sans-Serif" font-size="11.00">int4[10]</text>
<polygon fill="none" stroke="black" points="648.46,-331 648.46,-353 829.46,-353 829.46,-331 648.46,-331"/>
<text text-anchor="start" x="668.46" y="-339.2" font-family="Helvetica,sans-Serif" font-size="11.00">level</text>
<polygon fill="none" stroke="black" points="829.46,-331 829.46,-353 1086.46,-353 1086.46,-331 829.46,-331"/>
<text text-anchor="start" x="832.46" y="-339.2" font-family="Helvetica,sans-Serif" font-size="11.00">numeric[7,3]</text>
<polygon fill="none" stroke="black" points="648.46,-309 648.46,-331 829.46,-331 829.46,-309 648.46,-309"/>
<image xlink:href="../../images/foreignKeys.png" width="11px" height="12px" preserveAspectRatio="xMinYMin meet" x="653.456" y="-326"/>
<text text-anchor="start" x="668.46" y="-317.2" font-family="Helvetica,sans-Serif" font-size="11.00">material</text>
<polygon fill="none" stroke="black" points="829.46,-309 829.46,-331 1086.46,-331 1086.46,-309 829.46,-309"/>
<text text-anchor="start" x="832.46" y="-317.2" font-family="Helvetica,sans-Serif" font-size="11.00">int4[10]</text>
<polygon fill="none" stroke="black" points="648.46,-287 648.46,-309 829.46,-309 829.46,-287 648.46,-287"/>
<image xlink:href="../../images/foreignKeys.png" width="11px" height="12px" preserveAspectRatio="xMinYMin meet" x="653.456" y="-304"/>
<text text-anchor="start" x="668.46" y="-295.2" font-family="Helvetica,sans-Serif" font-size="11.00">positional_accuracy</text>
<polygon fill="none" stroke="black" points="829.46,-287 829.46,-309 1086.46,-309 1086.46,-287 829.46,-287"/>
<text text-anchor="start" x="832.46" y="-295.2" font-family="Helvetica,sans-Serif" font-size="11.00">int4[10]</text>
<polygon fill="#ffffff" stroke="transparent" points="648.46,-265 648.46,-287 829.46,-287 829.46,-265 648.46,-265"/>
<polygon fill="none" stroke="black" points="648.46,-265 648.46,-287 829.46,-287 829.46,-265 648.46,-265"/>
<text text-anchor="start" x="668.46" y="-273.2" font-family="Helvetica,sans-Serif" font-size="11.00">situation3d_geometry</text>
<polygon fill="none" stroke="black" points="829.46,-265 829.46,-287 1086.46,-287 1086.46,-265 829.46,-265"/>
<text text-anchor="start" x="832.46" y="-273.2" font-family="Helvetica,sans-Serif" font-size="11.00">geometry[2147483647]</text>
<polygon fill="none" stroke="black" points="648.46,-243 648.46,-265 829.46,-265 829.46,-243 648.46,-243"/>
<image xlink:href="../../images/foreignKeys.png" width="11px" height="12px" preserveAspectRatio="xMinYMin meet" x="653.456" y="-260"/>
<text text-anchor="start" x="668.46" y="-251.2" font-family="Helvetica,sans-Serif" font-size="11.00">sludge_bucket</text>
<polygon fill="none" stroke="black" points="829.46,-243 829.46,-265 1086.46,-265 1086.46,-243 829.46,-243"/>
<text text-anchor="start" x="832.46" y="-251.2" font-family="Helvetica,sans-Serif" font-size="11.00">int4[10]</text>
<polygon fill="none" stroke="black" points="648.46,-221 648.46,-243 829.46,-243 829.46,-221 648.46,-221"/>
<image xlink:href="../../images/foreignKeys.png" width="11px" height="12px" preserveAspectRatio="xMinYMin meet" x="653.456" y="-238"/>
<text text-anchor="start" x="668.46" y="-229.2" font-family="Helvetica,sans-Serif" font-size="11.00">venting</text>
<polygon fill="none" stroke="black" points="829.46,-221 829.46,-243 1086.46,-243 1086.46,-221 829.46,-221"/>
<text text-anchor="start" x="832.46" y="-229.2" font-family="Helvetica,sans-Serif" font-size="11.00">int4[10]</text>
<polygon fill="#ffffff" stroke="transparent" points="648.46,-203 648.46,-221 1086.46,-221 1086.46,-203 648.46,-203"/>
<polygon fill="none" stroke="black" points="648.46,-203 648.46,-221 1086.46,-221 1086.46,-203 648.46,-203"/>
<polygon fill="#ffffff" stroke="transparent" points="649.46,-204 649.46,-220 799.46,-220 799.46,-204 649.46,-204"/>
<text text-anchor="start" x="651.46" y="-209.2" font-family="Helvetica,sans-Serif" font-size="11.00">&lt; 7</text>
<polygon fill="#ffffff" stroke="transparent" points="799.46,-204 799.46,-220 936.46,-220 936.46,-204 799.46,-204"/>
<text text-anchor="start" x="863.96" y="-209.2" font-family="Helvetica,sans-Serif" font-size="11.00"> &#160;</text>
<polygon fill="#ffffff" stroke="transparent" points="936.46,-204 936.46,-220 1085.46,-220 1085.46,-204 936.46,-204"/>
<text text-anchor="start" x="1063.46" y="-209.2" font-family="Helvetica,sans-Serif" font-size="11.00">2 &gt;</text>
<polygon fill="black" stroke="black" points="799.46,-204 799.46,-220 799.46,-220 799.46,-204 799.46,-204"/>
<polygon fill="black" stroke="black" points="936.46,-204 936.46,-220 936.46,-220 936.46,-204 936.46,-204"/>
<polygon fill="none" stroke="black" stroke-width="2" points="647.46,-202 647.46,-486 1087.46,-486 1087.46,-202 647.46,-202"/>
</a>
</g>
</g>
<!-- agxx_cover&#45;&gt;cover -->
<g id="edge1" class="edge">
<title>agxx_cover:w&#45;&gt;cover:e</title>
<path fill="none" stroke="black" d="M1122.3,-452C1110.87,-452 1103.61,-452 1087.46,-452"/>
<polygon fill="black" stroke="black" points="1128.96,-452 1136.96,-455.6 1132.96,-452 1136.96,-452 1136.96,-452 1136.96,-452 1132.96,-452 1136.96,-448.4 1128.96,-452 1128.96,-452"/>
<ellipse fill="none" stroke="black" cx="1125.76" cy="-452" rx="3.2" ry="3.2"/>
</g>
<!-- tww_vl.cover_cover_shape -->
<g id="node3" class="node">
<title>tww_vl.cover_cover_shape</title>
<g id="a_node3"><a xlink:href="../../../tww_vl/tables/cover_cover_shape.html" xlink:title="tww_vl.cover_cover_shape" target="_top">
<polygon fill="#ffffff" stroke="transparent" points="331.96,-432 331.96,-490 570.96,-490 570.96,-432 331.96,-432"/>
<polygon fill="#f5f5f5" stroke="transparent" points="332.46,-468 332.46,-490 571.46,-490 571.46,-468 332.46,-468"/>
<polygon fill="none" stroke="black" points="332.46,-468 332.46,-490 571.46,-490 571.46,-468 332.46,-468"/>
<text text-anchor="start" x="337.46" y="-477.2" font-family="Helvetica,sans-Serif" font-weight="bold" font-size="11.00">tww_vl.cover_cover_shape</text>
<text text-anchor="start" x="529.46" y="-476.2" font-family="Helvetica,sans-Serif" font-size="11.00">[table]</text>
<polygon fill="none" stroke="black" points="332.46,-450 332.46,-468 571.46,-468 571.46,-450 332.46,-450"/>
<text text-anchor="start" x="335.46" y="-456.2" font-family="Helvetica,sans-Serif" font-size="11.00">...</text>
<polygon fill="#ffffff" stroke="transparent" points="332.46,-432 332.46,-450 571.46,-450 571.46,-432 332.46,-432"/>
<polygon fill="none" stroke="black" points="332.46,-432 332.46,-450 571.46,-450 571.46,-432 332.46,-432"/>
<polygon fill="#ffffff" stroke="transparent" points="333.46,-433 333.46,-449 399.46,-449 399.46,-433 333.46,-433"/>
<text text-anchor="start" x="335.46" y="-438.2" font-family="Helvetica,sans-Serif" font-size="11.00"> &#160;</text>
<polygon fill="#ffffff" stroke="transparent" points="399.46,-433 399.46,-449 493.46,-449 493.46,-433 399.46,-433"/>
<text text-anchor="start" x="427.96" y="-438.2" font-family="Helvetica,sans-Serif" font-size="11.00">0 rows</text>
<polygon fill="#ffffff" stroke="transparent" points="493.46,-433 493.46,-449 570.46,-449 570.46,-433 493.46,-433"/>
<text text-anchor="start" x="548.46" y="-438.2" font-family="Helvetica,sans-Serif" font-size="11.00">1 &gt;</text>
<polygon fill="black" stroke="black" points="399.46,-433 399.46,-449 399.46,-449 399.46,-433 399.46,-433"/>
<polygon fill="black" stroke="black" points="493.46,-433 493.46,-449 493.46,-449 493.46,-433 493.46,-433"/>
</a>
</g>
</g>
<!-- cover&#45;&gt;tww_vl.cover_cover_shape -->
<g id="edge2" class="edge">
<title>cover:w&#45;&gt;tww_vl.cover_cover_shape:e</title>
<path fill="none" stroke="black" d="M633.1,-410.03C624.25,-412.88 618.58,-418.14 605.46,-422 596.91,-424.51 588.06,-427.01 579.14,-429.47"/>
<polygon fill="black" stroke="black" points="639.54,-409.12 647.96,-411.56 643.5,-408.56 647.46,-408 647.46,-408 647.46,-408 643.5,-408.56 646.95,-404.44 639.54,-409.12 639.54,-409.12"/>
<ellipse fill="none" stroke="black" cx="636.37" cy="-409.57" rx="3.2" ry="3.2"/>
</g>
<!-- tww_vl.cover_fastening -->
<g id="node4" class="node">
<title>tww_vl.cover_fastening</title>
<g id="a_node4"><a xlink:href="../../../tww_vl/tables/cover_fastening.html" xlink:title="tww_vl.cover_fastening" target="_top">
<polygon fill="#ffffff" stroke="transparent" points="342.96,-353 342.96,-411 559.96,-411 559.96,-353 342.96,-353"/>
<polygon fill="#f5f5f5" stroke="transparent" points="343.46,-389 343.46,-411 560.46,-411 560.46,-389 343.46,-389"/>
<polygon fill="none" stroke="black" points="343.46,-389 343.46,-411 560.46,-411 560.46,-389 343.46,-389"/>
<text text-anchor="start" x="348.46" y="-398.2" font-family="Helvetica,sans-Serif" font-weight="bold" font-size="11.00">tww_vl.cover_fastening</text>
<text text-anchor="start" x="518.46" y="-397.2" font-family="Helvetica,sans-Serif" font-size="11.00">[table]</text>
<polygon fill="none" stroke="black" points="343.46,-371 343.46,-389 560.46,-389 560.46,-371 343.46,-371"/>
<text text-anchor="start" x="346.46" y="-377.2" font-family="Helvetica,sans-Serif" font-size="11.00">...</text>
<polygon fill="#ffffff" stroke="transparent" points="343.46,-353 343.46,-371 560.46,-371 560.46,-353 343.46,-353"/>
<polygon fill="none" stroke="black" points="343.46,-353 343.46,-371 560.46,-371 560.46,-353 343.46,-353"/>
<polygon fill="#ffffff" stroke="transparent" points="344.46,-354 344.46,-370 402.46,-370 402.46,-354 344.46,-354"/>
<text text-anchor="start" x="346.46" y="-359.2" font-family="Helvetica,sans-Serif" font-size="11.00"> &#160;</text>
<polygon fill="#ffffff" stroke="transparent" points="402.46,-354 402.46,-370 489.46,-370 489.46,-354 402.46,-354"/>
<text text-anchor="start" x="427.46" y="-359.2" font-family="Helvetica,sans-Serif" font-size="11.00">0 rows</text>
<polygon fill="#ffffff" stroke="transparent" points="489.46,-354 489.46,-370 559.46,-370 559.46,-354 489.46,-354"/>
<text text-anchor="start" x="537.46" y="-359.2" font-family="Helvetica,sans-Serif" font-size="11.00">1 &gt;</text>
<polygon fill="black" stroke="black" points="402.46,-354 402.46,-370 402.46,-370 402.46,-354 402.46,-354"/>
<polygon fill="black" stroke="black" points="489.46,-354 489.46,-370 489.46,-370 489.46,-354 489.46,-354"/>
</a>
</g>
</g>
<!-- cover&#45;&gt;tww_vl.cover_fastening -->
<g id="edge3" class="edge">
<title>cover:w&#45;&gt;tww_vl.cover_fastening:e</title>
<path fill="none" stroke="black" d="M632.8,-364.16C611.41,-364.61 589.23,-365.99 568.04,-367.8"/>
<polygon fill="black" stroke="black" points="639.46,-364.09 647.5,-367.6 643.46,-364.04 647.46,-364 647.46,-364 647.46,-364 643.46,-364.04 647.42,-360.4 639.46,-364.09 639.46,-364.09"/>
<ellipse fill="none" stroke="black" cx="636.26" cy="-364.12" rx="3.2" ry="3.2"/>
</g>
<!-- tww_vl.cover_material -->
<g id="node5" class="node">
<title>tww_vl.cover_material</title>
<g id="a_node5"><a xlink:href="../../../tww_vl/tables/cover_material.html" xlink:title="tww_vl.cover_material" target="_top">
<polygon fill="#ffffff" stroke="transparent" points="346.96,-274 346.96,-332 555.96,-332 555.96,-274 346.96,-274"/>
<polygon fill="#f5f5f5" stroke="transparent" points="347.46,-310 347.46,-332 556.46,-332 556.46,-310 347.46,-310"/>
<polygon fill="none" stroke="black" points="347.46,-310 347.46,-332 556.46,-332 556.46,-310 347.46,-310"/>
<text text-anchor="start" x="352.46" y="-319.2" font-family="Helvetica,sans-Serif" font-weight="bold" font-size="11.00">tww_vl.cover_material</text>
<text text-anchor="start" x="514.46" y="-318.2" font-family="Helvetica,sans-Serif" font-size="11.00">[table]</text>
<polygon fill="none" stroke="black" points="347.46,-292 347.46,-310 556.46,-310 556.46,-292 347.46,-292"/>
<text text-anchor="start" x="350.46" y="-298.2" font-family="Helvetica,sans-Serif" font-size="11.00">...</text>
<polygon fill="#ffffff" stroke="transparent" points="347.46,-274 347.46,-292 556.46,-292 556.46,-274 347.46,-274"/>
<polygon fill="none" stroke="black" points="347.46,-274 347.46,-292 556.46,-292 556.46,-274 347.46,-274"/>
<polygon fill="#ffffff" stroke="transparent" points="348.46,-275 348.46,-291 404.46,-291 404.46,-275 348.46,-275"/>
<text text-anchor="start" x="350.46" y="-280.2" font-family="Helvetica,sans-Serif" font-size="11.00"> &#160;</text>
<polygon fill="#ffffff" stroke="transparent" points="404.46,-275 404.46,-291 488.46,-291 488.46,-275 404.46,-275"/>
<text text-anchor="start" x="427.96" y="-280.2" font-family="Helvetica,sans-Serif" font-size="11.00">0 rows</text>
<polygon fill="#ffffff" stroke="transparent" points="488.46,-275 488.46,-291 555.46,-291 555.46,-275 488.46,-275"/>
<text text-anchor="start" x="533.46" y="-280.2" font-family="Helvetica,sans-Serif" font-size="11.00">1 &gt;</text>
<polygon fill="black" stroke="black" points="404.46,-275 404.46,-291 404.46,-291 404.46,-275 404.46,-275"/>
<polygon fill="black" stroke="black" points="488.46,-275 488.46,-291 488.46,-291 488.46,-275 488.46,-275"/>
</a>
</g>
</g>
<!-- cover&#45;&gt;tww_vl.cover_material -->
<g id="edge4" class="edge">
<title>cover:w&#45;&gt;tww_vl.cover_material:e</title>
<path fill="none" stroke="black" d="M633.04,-319.85C610.29,-319.4 586.62,-317.96 564.19,-316.1"/>
<polygon fill="black" stroke="black" points="639.46,-319.92 647.42,-323.6 643.46,-319.96 647.46,-320 647.46,-320 647.46,-320 643.46,-319.96 647.49,-316.4 639.46,-319.92 639.46,-319.92"/>
<ellipse fill="none" stroke="black" cx="636.26" cy="-319.89" rx="3.2" ry="3.2"/>
</g>
<!-- structure_part -->
<g id="node6" class="node">
<title>structure_part</title>
<g id="a_node6"><a xlink:href="../../tables/structure_part.html" xlink:title="structure_part" target="_top">
<polygon fill="#ffffff" stroke="transparent" points="350.46,-597 350.46,-787 552.46,-787 552.46,-597 350.46,-597"/>
<polygon fill="#f5f5f5" stroke="transparent" points="350.46,-765 350.46,-787 552.46,-787 552.46,-765 350.46,-765"/>
<polygon fill="none" stroke="black" points="350.46,-765 350.46,-787 552.46,-787 552.46,-765 350.46,-765"/>
<text text-anchor="start" x="355.46" y="-774.2" font-family="Helvetica,sans-Serif" font-weight="bold" font-size="11.00">structure_part</text>
<text text-anchor="start" x="510.46" y="-773.2" font-family="Helvetica,sans-Serif" font-size="11.00">[table]</text>
<polygon fill="none" stroke="black" points="350.46,-743 350.46,-765 552.46,-765 552.46,-743 350.46,-743"/>
<image xlink:href="../../images/primaryKeys.png" width="11px" height="12px" preserveAspectRatio="xMinYMin meet" x="355.456" y="-760"/>
<text text-anchor="start" x="370.46" y="-751.2" font-family="Helvetica,sans-Serif" font-size="11.00">obj_id</text>
<polygon fill="#ffffff" stroke="transparent" points="350.46,-721 350.46,-743 552.46,-743 552.46,-721 350.46,-721"/>
<polygon fill="none" stroke="black" points="350.46,-721 350.46,-743 552.46,-743 552.46,-721 350.46,-721"/>
<text text-anchor="start" x="370.46" y="-729.2" font-family="Helvetica,sans-Serif" font-size="11.00">identifier</text>
<polygon fill="none" stroke="black" points="350.46,-699 350.46,-721 552.46,-721 552.46,-699 350.46,-699"/>
<image xlink:href="../../images/foreignKeys.png" width="11px" height="12px" preserveAspectRatio="xMinYMin meet" x="355.456" y="-716"/>
<text text-anchor="start" x="370.46" y="-707.2" font-family="Helvetica,sans-Serif" font-size="11.00">renovation_demand</text>
<polygon fill="#ffffff" stroke="transparent" points="350.46,-677 350.46,-699 552.46,-699 552.46,-677 350.46,-677"/>
<polygon fill="none" stroke="black" points="350.46,-677 350.46,-699 552.46,-699 552.46,-677 350.46,-677"/>
<image xlink:href="../../images/foreignKeys.png" width="11px" height="12px" preserveAspectRatio="xMinYMin meet" x="355.456" y="-694"/>
<text text-anchor="start" x="370.46" y="-685.2" font-family="Helvetica,sans-Serif" font-size="11.00">fk_dataowner</text>
<polygon fill="none" stroke="black" points="350.46,-655 350.46,-677 552.46,-677 552.46,-655 350.46,-655"/>
<image xlink:href="../../images/foreignKeys.png" width="11px" height="12px" preserveAspectRatio="xMinYMin meet" x="355.456" y="-672"/>
<text text-anchor="start" x="370.46" y="-663.2" font-family="Helvetica,sans-Serif" font-size="11.00">fk_provider</text>
<polygon fill="none" stroke="black" points="350.46,-633 350.46,-655 552.46,-655 552.46,-633 350.46,-633"/>
<image xlink:href="../../images/foreignKeys.png" width="11px" height="12px" preserveAspectRatio="xMinYMin meet" x="355.456" y="-650"/>
<text text-anchor="start" x="370.46" y="-641.2" font-family="Helvetica,sans-Serif" font-size="11.00">fk_wastewater_structure</text>
<polygon fill="none" stroke="black" points="350.46,-615 350.46,-633 552.46,-633 552.46,-615 350.46,-615"/>
<text text-anchor="start" x="353.46" y="-621.2" font-family="Helvetica,sans-Serif" font-size="11.00">...</text>
<polygon fill="#ffffff" stroke="transparent" points="350.46,-597 350.46,-615 552.46,-615 552.46,-597 350.46,-597"/>
<polygon fill="none" stroke="black" points="350.46,-597 350.46,-615 552.46,-615 552.46,-597 350.46,-597"/>
<polygon fill="#ffffff" stroke="transparent" points="351.46,-598 351.46,-614 420.46,-614 420.46,-598 351.46,-598"/>
<text text-anchor="start" x="353.46" y="-603.2" font-family="Helvetica,sans-Serif" font-size="11.00">&lt; 4</text>
<polygon fill="#ffffff" stroke="transparent" points="420.46,-598 420.46,-614 476.46,-614 476.46,-598 420.46,-598"/>
<text text-anchor="start" x="444.46" y="-603.2" font-family="Helvetica,sans-Serif" font-size="11.00"> &#160;</text>
<polygon fill="#ffffff" stroke="transparent" points="476.46,-598 476.46,-614 551.46,-614 551.46,-598 476.46,-598"/>
<text text-anchor="start" x="522.46" y="-603.2" font-family="Helvetica,sans-Serif" font-size="11.00">12 &gt;</text>
<polygon fill="black" stroke="black" points="420.46,-598 420.46,-614 420.46,-614 420.46,-598 420.46,-598"/>
<polygon fill="black" stroke="black" points="476.46,-598 476.46,-614 476.46,-614 476.46,-598 476.46,-598"/>
</a>
</g>
</g>
<!-- cover&#45;&gt;structure_part -->
<g id="edge5" class="edge">
<title>cover:w&#45;&gt;structure_part:e</title>
<path fill="none" stroke="black" d="M637.28,-454.43C581.76,-483.01 620.04,-754 553.46,-754"/>
<polygon fill="black" stroke="black" points="645.75,-448.3 647.61,-456.08 646.05,-456.45 644.19,-448.67 645.75,-448.3"/>
<polyline fill="none" stroke="black" points="647.46,-452 643.57,-452.93 "/>
<ellipse fill="none" stroke="black" cx="640.45" cy="-453.67" rx="3.2" ry="3.2"/>
</g>
<!-- tww_vl.cover_positional_accuracy -->
<g id="node7" class="node">
<title>tww_vl.cover_positional_accuracy</title>
<g id="a_node7"><a xlink:href="../../../tww_vl/tables/cover_positional_accuracy.html" xlink:title="tww_vl.cover_positional_accuracy" target="_top">
<polygon fill="#ffffff" stroke="transparent" points="305.46,-195 305.46,-253 597.46,-253 597.46,-195 305.46,-195"/>
<polygon fill="#f5f5f5" stroke="transparent" points="305.46,-231 305.46,-253 597.46,-253 597.46,-231 305.46,-231"/>
<polygon fill="none" stroke="black" points="305.46,-231 305.46,-253 597.46,-253 597.46,-231 305.46,-231"/>
<text text-anchor="start" x="310.46" y="-240.2" font-family="Helvetica,sans-Serif" font-weight="bold" font-size="11.00">tww_vl.cover_positional_accuracy</text>
<text text-anchor="start" x="555.46" y="-239.2" font-family="Helvetica,sans-Serif" font-size="11.00">[table]</text>
<polygon fill="none" stroke="black" points="305.46,-213 305.46,-231 597.46,-231 597.46,-213 305.46,-213"/>
<text text-anchor="start" x="308.46" y="-219.2" font-family="Helvetica,sans-Serif" font-size="11.00">...</text>
<polygon fill="#ffffff" stroke="transparent" points="305.46,-195 305.46,-213 597.46,-213 597.46,-195 305.46,-195"/>
<polygon fill="none" stroke="black" points="305.46,-195 305.46,-213 597.46,-213 597.46,-195 305.46,-195"/>
<polygon fill="#ffffff" stroke="transparent" points="306.46,-196 306.46,-212 389.46,-212 389.46,-196 306.46,-196"/>
<text text-anchor="start" x="308.46" y="-201.2" font-family="Helvetica,sans-Serif" font-size="11.00"> &#160;</text>
<polygon fill="#ffffff" stroke="transparent" points="389.46,-196 389.46,-212 501.46,-212 501.46,-196 389.46,-196"/>
<text text-anchor="start" x="426.96" y="-201.2" font-family="Helvetica,sans-Serif" font-size="11.00">0 rows</text>
<polygon fill="#ffffff" stroke="transparent" points="501.46,-196 501.46,-212 596.46,-212 596.46,-196 501.46,-196"/>
<text text-anchor="start" x="574.46" y="-201.2" font-family="Helvetica,sans-Serif" font-size="11.00">1 &gt;</text>
<polygon fill="black" stroke="black" points="389.46,-196 389.46,-212 389.46,-212 389.46,-196 389.46,-196"/>
<polygon fill="black" stroke="black" points="501.46,-196 501.46,-212 501.46,-212 501.46,-196 501.46,-196"/>
</a>
</g>
</g>
<!-- cover&#45;&gt;tww_vl.cover_positional_accuracy -->
<g id="edge6" class="edge">
<title>cover:w&#45;&gt;tww_vl.cover_positional_accuracy:e</title>
<path fill="none" stroke="black" d="M633.37,-293.86C623.49,-286.51 621.52,-271.2 605.46,-263 601.43,-260.94 597.28,-258.99 593.05,-257.13"/>
<polygon fill="black" stroke="black" points="639.78,-295.74 646.44,-301.45 643.62,-296.87 647.46,-298 647.46,-298 647.46,-298 643.62,-296.87 648.47,-294.55 639.78,-295.74 639.78,-295.74"/>
<ellipse fill="none" stroke="black" cx="636.71" cy="-294.84" rx="3.2" ry="3.2"/>
</g>
<!-- tww_vl.cover_sludge_bucket -->
<g id="node8" class="node">
<title>tww_vl.cover_sludge_bucket</title>
<g id="a_node8"><a xlink:href="../../../tww_vl/tables/cover_sludge_bucket.html" xlink:title="tww_vl.cover_sludge_bucket" target="_top">
<polygon fill="#ffffff" stroke="transparent" points="324.96,-116 324.96,-174 577.96,-174 577.96,-116 324.96,-116"/>
<polygon fill="#f5f5f5" stroke="transparent" points="325.46,-152 325.46,-174 578.46,-174 578.46,-152 325.46,-152"/>
<polygon fill="none" stroke="black" points="325.46,-152 325.46,-174 578.46,-174 578.46,-152 325.46,-152"/>
<text text-anchor="start" x="330.46" y="-161.2" font-family="Helvetica,sans-Serif" font-weight="bold" font-size="11.00">tww_vl.cover_sludge_bucket</text>
<text text-anchor="start" x="536.46" y="-160.2" font-family="Helvetica,sans-Serif" font-size="11.00">[table]</text>
<polygon fill="none" stroke="black" points="325.46,-134 325.46,-152 578.46,-152 578.46,-134 325.46,-134"/>
<text text-anchor="start" x="328.46" y="-140.2" font-family="Helvetica,sans-Serif" font-size="11.00">...</text>
<polygon fill="#ffffff" stroke="transparent" points="325.46,-116 325.46,-134 578.46,-134 578.46,-116 325.46,-116"/>
<polygon fill="none" stroke="black" points="325.46,-116 325.46,-134 578.46,-134 578.46,-116 325.46,-116"/>
<polygon fill="#ffffff" stroke="transparent" points="326.46,-117 326.46,-133 396.46,-133 396.46,-117 326.46,-117"/>
<text text-anchor="start" x="328.46" y="-122.2" font-family="Helvetica,sans-Serif" font-size="11.00"> &#160;</text>
<polygon fill="#ffffff" stroke="transparent" points="396.46,-117 396.46,-133 495.46,-133 495.46,-117 396.46,-117"/>
<text text-anchor="start" x="427.46" y="-122.2" font-family="Helvetica,sans-Serif" font-size="11.00">0 rows</text>
<polygon fill="#ffffff" stroke="transparent" points="495.46,-117 495.46,-133 577.46,-133 577.46,-117 495.46,-117"/>
<text text-anchor="start" x="555.46" y="-122.2" font-family="Helvetica,sans-Serif" font-size="11.00">1 &gt;</text>
<polygon fill="black" stroke="black" points="396.46,-117 396.46,-133 396.46,-133 396.46,-117 396.46,-117"/>
<polygon fill="black" stroke="black" points="495.46,-117 495.46,-133 495.46,-133 495.46,-117 495.46,-117"/>
</a>
</g>
</g>
<!-- cover&#45;&gt;tww_vl.cover_sludge_bucket -->
<g id="edge7" class="edge">
<title>cover:w&#45;&gt;tww_vl.cover_sludge_bucket:e</title>
<path fill="none" stroke="black" d="M633.47,-250.1C617.66,-238.17 629.56,-201.94 605.46,-184 599.41,-179.5 592.9,-175.51 586.09,-171.99"/>
<polygon fill="black" stroke="black" points="639.75,-251.85 646.49,-257.47 643.6,-252.93 647.46,-254 647.46,-254 647.46,-254 643.6,-252.93 648.42,-250.53 639.75,-251.85 639.75,-251.85"/>
<ellipse fill="none" stroke="black" cx="636.67" cy="-250.99" rx="3.2" ry="3.2"/>
</g>
<!-- tww_vl.cover_venting -->
<g id="node9" class="node">
<title>tww_vl.cover_venting</title>
<g id="a_node9"><a xlink:href="../../../tww_vl/tables/cover_venting.html" xlink:title="tww_vl.cover_venting" target="_top">
<polygon fill="#ffffff" stroke="transparent" points="349.46,-37 349.46,-95 553.46,-95 553.46,-37 349.46,-37"/>
<polygon fill="#f5f5f5" stroke="transparent" points="349.46,-73 349.46,-95 553.46,-95 553.46,-73 349.46,-73"/>
<polygon fill="none" stroke="black" points="349.46,-73 349.46,-95 553.46,-95 553.46,-73 349.46,-73"/>
<text text-anchor="start" x="354.46" y="-82.2" font-family="Helvetica,sans-Serif" font-weight="bold" font-size="11.00">tww_vl.cover_venting</text>
<text text-anchor="start" x="511.46" y="-81.2" font-family="Helvetica,sans-Serif" font-size="11.00">[table]</text>
<polygon fill="none" stroke="black" points="349.46,-55 349.46,-73 553.46,-73 553.46,-55 349.46,-55"/>
<text text-anchor="start" x="352.46" y="-61.2" font-family="Helvetica,sans-Serif" font-size="11.00">...</text>
<polygon fill="#ffffff" stroke="transparent" points="349.46,-37 349.46,-55 553.46,-55 553.46,-37 349.46,-37"/>
<polygon fill="none" stroke="black" points="349.46,-37 349.46,-55 553.46,-55 553.46,-37 349.46,-37"/>
<polygon fill="#ffffff" stroke="transparent" points="350.46,-38 350.46,-54 404.46,-54 404.46,-38 350.46,-38"/>
<text text-anchor="start" x="352.46" y="-43.2" font-family="Helvetica,sans-Serif" font-size="11.00"> &#160;</text>
<polygon fill="#ffffff" stroke="transparent" points="404.46,-38 404.46,-54 487.46,-54 487.46,-38 404.46,-38"/>
<text text-anchor="start" x="427.46" y="-43.2" font-family="Helvetica,sans-Serif" font-size="11.00">0 rows</text>
<polygon fill="#ffffff" stroke="transparent" points="487.46,-38 487.46,-54 552.46,-54 552.46,-38 487.46,-38"/>
<text text-anchor="start" x="530.46" y="-43.2" font-family="Helvetica,sans-Serif" font-size="11.00">1 &gt;</text>
<polygon fill="black" stroke="black" points="404.46,-38 404.46,-54 404.46,-54 404.46,-38 404.46,-38"/>
<polygon fill="black" stroke="black" points="487.46,-38 487.46,-54 487.46,-54 487.46,-38 487.46,-38"/>
</a>
</g>
</g>
<!-- cover&#45;&gt;tww_vl.cover_venting -->
<g id="edge8" class="edge">
<title>cover:w&#45;&gt;tww_vl.cover_venting:e</title>
<path fill="none" stroke="black" d="M632.83,-229.46C599.3,-214.91 644.52,-141.43 605.46,-105 593.03,-93.41 577.64,-85.15 561.47,-79.28"/>
<polygon fill="black" stroke="black" points="639.57,-230.63 646.84,-235.55 643.51,-231.32 647.46,-232 647.46,-232 647.46,-232 643.51,-231.32 648.07,-228.45 639.57,-230.63 639.57,-230.63"/>
<ellipse fill="none" stroke="black" cx="636.42" cy="-230.09" rx="3.2" ry="3.2"/>
</g>
<!-- wastewater_structure -->
<g id="node10" class="node">
<title>wastewater_structure</title>
<g id="a_node10"><a xlink:href="../../tables/wastewater_structure.html" xlink:title="wastewater_structure" target="_top">
<polygon fill="#ffffff" stroke="transparent" points="21.46,-385 21.46,-795 256.46,-795 256.46,-385 21.46,-385"/>
<polygon fill="#f5f5f5" stroke="transparent" points="21.96,-773 21.96,-795 256.96,-795 256.96,-773 21.96,-773"/>
<polygon fill="none" stroke="black" points="21.96,-773 21.96,-795 256.96,-795 256.96,-773 21.96,-773"/>
<text text-anchor="start" x="26.96" y="-782.2" font-family="Helvetica,sans-Serif" font-weight="bold" font-size="11.00">wastewater_structure</text>
<text text-anchor="start" x="214.96" y="-781.2" font-family="Helvetica,sans-Serif" font-size="11.00">[table]</text>
<polygon fill="none" stroke="black" points="21.96,-751 21.96,-773 256.96,-773 256.96,-751 21.96,-751"/>
<image xlink:href="../../images/primaryKeys.png" width="11px" height="12px" preserveAspectRatio="xMinYMin meet" x="26.9561" y="-768"/>
<text text-anchor="start" x="41.96" y="-759.2" font-family="Helvetica,sans-Serif" font-size="11.00">obj_id</text>
<polygon fill="none" stroke="black" points="21.96,-729 21.96,-751 256.96,-751 256.96,-729 21.96,-729"/>
<image xlink:href="../../images/foreignKeys.png" width="11px" height="12px" preserveAspectRatio="xMinYMin meet" x="26.9561" y="-746"/>
<text text-anchor="start" x="41.96" y="-737.2" font-family="Helvetica,sans-Serif" font-size="11.00">accessibility</text>
<polygon fill="#ffffff" stroke="transparent" points="21.96,-707 21.96,-729 256.96,-729 256.96,-707 21.96,-707"/>
<polygon fill="none" stroke="black" points="21.96,-707 21.96,-729 256.96,-729 256.96,-707 21.96,-707"/>
<text text-anchor="start" x="41.96" y="-715.2" font-family="Helvetica,sans-Serif" font-size="11.00">detail_geometry3d_geometry</text>
<polygon fill="none" stroke="black" points="21.96,-685 21.96,-707 256.96,-707 256.96,-685 21.96,-685"/>
<image xlink:href="../../images/foreignKeys.png" width="11px" height="12px" preserveAspectRatio="xMinYMin meet" x="26.9561" y="-702"/>
<text text-anchor="start" x="41.96" y="-693.2" font-family="Helvetica,sans-Serif" font-size="11.00">elevation_determination</text>
<polygon fill="none" stroke="black" points="21.96,-663 21.96,-685 256.96,-685 256.96,-663 21.96,-663"/>
<image xlink:href="../../images/foreignKeys.png" width="11px" height="12px" preserveAspectRatio="xMinYMin meet" x="26.9561" y="-680"/>
<text text-anchor="start" x="41.96" y="-671.2" font-family="Helvetica,sans-Serif" font-size="11.00">financing</text>
<polygon fill="#ffffff" stroke="transparent" points="21.96,-641 21.96,-663 256.96,-663 256.96,-641 21.96,-641"/>
<polygon fill="none" stroke="black" points="21.96,-641 21.96,-663 256.96,-663 256.96,-641 21.96,-641"/>
<text text-anchor="start" x="41.96" y="-649.2" font-family="Helvetica,sans-Serif" font-size="11.00">identifier</text>
<polygon fill="none" stroke="black" points="21.96,-619 21.96,-641 256.96,-641 256.96,-619 21.96,-619"/>
<image xlink:href="../../images/foreignKeys.png" width="11px" height="12px" preserveAspectRatio="xMinYMin meet" x="26.9561" y="-636"/>
<text text-anchor="start" x="41.96" y="-627.2" font-family="Helvetica,sans-Serif" font-size="11.00">renovation_necessity</text>
<polygon fill="none" stroke="black" points="21.96,-597 21.96,-619 256.96,-619 256.96,-597 21.96,-597"/>
<image xlink:href="../../images/foreignKeys.png" width="11px" height="12px" preserveAspectRatio="xMinYMin meet" x="26.9561" y="-614"/>
<text text-anchor="start" x="41.96" y="-605.2" font-family="Helvetica,sans-Serif" font-size="11.00">rv_construction_type</text>
<polygon fill="none" stroke="black" points="21.96,-575 21.96,-597 256.96,-597 256.96,-575 21.96,-575"/>
<image xlink:href="../../images/foreignKeys.png" width="11px" height="12px" preserveAspectRatio="xMinYMin meet" x="26.9561" y="-592"/>
<text text-anchor="start" x="41.96" y="-583.2" font-family="Helvetica,sans-Serif" font-size="11.00">status</text>
<polygon fill="none" stroke="black" points="21.96,-553 21.96,-575 256.96,-575 256.96,-553 21.96,-553"/>
<image xlink:href="../../images/foreignKeys.png" width="11px" height="12px" preserveAspectRatio="xMinYMin meet" x="26.9561" y="-570"/>
<text text-anchor="start" x="41.96" y="-561.2" font-family="Helvetica,sans-Serif" font-size="11.00">structure_condition</text>
<polygon fill="#ffffff" stroke="transparent" points="21.96,-531 21.96,-553 256.96,-553 256.96,-531 21.96,-531"/>
<polygon fill="none" stroke="black" points="21.96,-531 21.96,-553 256.96,-553 256.96,-531 21.96,-531"/>
<image xlink:href="../../images/foreignKeys.png" width="11px" height="12px" preserveAspectRatio="xMinYMin meet" x="26.9561" y="-548"/>
<text text-anchor="start" x="41.96" y="-539.2" font-family="Helvetica,sans-Serif" font-size="11.00">fk_dataowner</text>
<polygon fill="none" stroke="black" points="21.96,-509 21.96,-531 256.96,-531 256.96,-509 21.96,-509"/>
<image xlink:href="../../images/foreignKeys.png" width="11px" height="12px" preserveAspectRatio="xMinYMin meet" x="26.9561" y="-526"/>
<text text-anchor="start" x="41.96" y="-517.2" font-family="Helvetica,sans-Serif" font-size="11.00">fk_provider</text>
<polygon fill="#ffffff" stroke="transparent" points="21.96,-487 21.96,-509 256.96,-509 256.96,-487 21.96,-487"/>
<polygon fill="none" stroke="black" points="21.96,-487 21.96,-509 256.96,-509 256.96,-487 21.96,-487"/>
<image xlink:href="../../images/foreignKeys.png" width="11px" height="12px" preserveAspectRatio="xMinYMin meet" x="26.9561" y="-504"/>
<text text-anchor="start" x="41.96" y="-495.2" font-family="Helvetica,sans-Serif" font-size="11.00">fk_owner</text>
<polygon fill="none" stroke="black" points="21.96,-465 21.96,-487 256.96,-487 256.96,-465 21.96,-465"/>
<image xlink:href="../../images/foreignKeys.png" width="11px" height="12px" preserveAspectRatio="xMinYMin meet" x="26.9561" y="-482"/>
<text text-anchor="start" x="41.96" y="-473.2" font-family="Helvetica,sans-Serif" font-size="11.00">fk_operator</text>
<polygon fill="#ffffff" stroke="transparent" points="21.96,-443 21.96,-465 256.96,-465 256.96,-443 21.96,-443"/>
<polygon fill="none" stroke="black" points="21.96,-443 21.96,-465 256.96,-465 256.96,-443 21.96,-443"/>
<image xlink:href="../../images/foreignKeys.png" width="11px" height="12px" preserveAspectRatio="xMinYMin meet" x="26.9561" y="-460"/>
<text text-anchor="start" x="41.96" y="-451.2" font-family="Helvetica,sans-Serif" font-size="11.00">fk_main_cover</text>
<polygon fill="#ffffff" stroke="transparent" points="21.96,-421 21.96,-443 256.96,-443 256.96,-421 21.96,-421"/>
<polygon fill="none" stroke="black" points="21.96,-421 21.96,-443 256.96,-443 256.96,-421 21.96,-421"/>
<image xlink:href="../../images/foreignKeys.png" width="11px" height="12px" preserveAspectRatio="xMinYMin meet" x="26.9561" y="-438"/>
<text text-anchor="start" x="41.96" y="-429.2" font-family="Helvetica,sans-Serif" font-size="11.00">fk_main_wastewater_node</text>
<polygon fill="none" stroke="black" points="21.96,-403 21.96,-421 256.96,-421 256.96,-403 21.96,-403"/>
<text text-anchor="start" x="24.96" y="-409.2" font-family="Helvetica,sans-Serif" font-size="11.00">...</text>
<polygon fill="#ffffff" stroke="transparent" points="21.96,-385 21.96,-403 256.96,-403 256.96,-385 21.96,-385"/>
<polygon fill="none" stroke="black" points="21.96,-385 21.96,-403 256.96,-403 256.96,-385 21.96,-385"/>
<polygon fill="#ffffff" stroke="transparent" points="22.96,-386 22.96,-402 106.96,-402 106.96,-386 22.96,-386"/>
<text text-anchor="start" x="24.96" y="-391.2" font-family="Helvetica,sans-Serif" font-size="11.00">&lt; 13</text>
<polygon fill="#ffffff" stroke="transparent" points="106.96,-386 106.96,-402 171.96,-402 171.96,-386 106.96,-386"/>
<text text-anchor="start" x="135.46" y="-391.2" font-family="Helvetica,sans-Serif" font-size="11.00"> &#160;</text>
<polygon fill="#ffffff" stroke="transparent" points="171.96,-386 171.96,-402 255.96,-402 255.96,-386 171.96,-386"/>
<text text-anchor="start" x="226.96" y="-391.2" font-family="Helvetica,sans-Serif" font-size="11.00">19 &gt;</text>
<polygon fill="black" stroke="black" points="106.96,-386 106.96,-402 106.96,-402 106.96,-386 106.96,-386"/>
<polygon fill="black" stroke="black" points="171.96,-386 171.96,-402 171.96,-402 171.96,-386 171.96,-386"/>
</a>
</g>
</g>
<!-- structure_part&#45;&gt;wastewater_structure -->
<g id="edge9" class="edge">
<title>structure_part:w&#45;&gt;wastewater_structure:e</title>
<path fill="none" stroke="black" d="M335.18,-646.25C289.13,-662.57 318.88,-762 257.96,-762"/>
<polygon fill="black" stroke="black" points="341.55,-645.25 350.02,-647.56 345.5,-644.62 349.46,-644 349.46,-644 349.46,-644 345.5,-644.62 348.9,-640.44 341.55,-645.25 341.55,-645.25"/>
<ellipse fill="none" stroke="black" cx="338.39" cy="-645.74" rx="3.2" ry="3.2"/>
</g>
<!-- wastewater_structure&#45;&gt;cover -->
<g id="edge10" class="edge">
<title>wastewater_structure:w&#45;&gt;cover:e</title>
<path fill="none" stroke="black" d="M7.02,-449.22C-7.16,-436.13 3.19,-399.51 21.96,-381 98.69,-305.31 178.74,-315.67 264.46,-381 308.45,-414.53 253.46,-467.47 297.46,-501 406.33,-583.98 468.74,-507.96 605.46,-501 618.84,-500.32 1098.86,-452 1085.46,-452"/>
<polygon fill="black" stroke="black" points="13.39,-451.4 19.79,-457.4 17.17,-452.7 20.96,-454 20.96,-454 20.96,-454 17.17,-452.7 22.12,-450.6 13.39,-451.4 13.39,-451.4"/>
<ellipse fill="none" stroke="black" cx="10.36" cy="-450.36" rx="3.2" ry="3.2"/>
</g>
</g>
</svg>
