<?xml version="1.0" encoding="UTF-8" standalone="no"?>
<!DOCTYPE svg PUBLIC "-//W3C//DTD SVG 1.1//EN"
 "http://www.w3.org/Graphics/SVG/1.1/DTD/svg11.dtd">
<!-- Generated by graphviz version 2.43.0 (0)
 -->
<!-- Title: oneDegreeRelationshipsDiagram Pages: 1 -->
<svg width="999pt" height="439pt"
 viewBox="0.00 0.00 999.00 439.00" xmlns="http://www.w3.org/2000/svg" xmlns:xlink="http://www.w3.org/1999/xlink">
<g id="graph0" class="graph" transform="scale(1 1) rotate(0) translate(4 435)">
<title>oneDegreeRelationshipsDiagram</title>
<polygon fill="#ffffff" stroke="transparent" points="-4,4 -4,-435 995,-435 995,4 -4,4"/>
<text text-anchor="middle" x="79.5" y="-7.2" font-family="Helvetica,sans-Serif" font-size="11.00">Generated by SchemaSpy</text>
<!-- hydr_geom_relation -->
<g id="node1" class="node">
<title>hydr_geom_relation</title>
<g id="a_node1"><a xlink:href="../../tables/hydr_geom_relation.html" xlink:title="hydr_geom_relation" target="_top">
<polygon fill="#ffffff" stroke="transparent" points="775.5,-281 775.5,-427 966.5,-427 966.5,-281 775.5,-281"/>
<polygon fill="#f5f5f5" stroke="transparent" points="776,-405 776,-427 967,-427 967,-405 776,-405"/>
<polygon fill="none" stroke="black" points="776,-405 776,-427 967,-427 967,-405 776,-405"/>
<text text-anchor="start" x="781" y="-414.2" font-family="Helvetica,sans-Serif" font-weight="bold" font-size="11.00">hydr_geom_relation</text>
<text text-anchor="start" x="925" y="-413.2" font-family="Helvetica,sans-Serif" font-size="11.00">[table]</text>
<polygon fill="none" stroke="black" points="776,-383 776,-405 967,-405 967,-383 776,-383"/>
<image xlink:href="../../images/primaryKeys.png" width="11px" height="12px" preserveAspectRatio="xMinYMin meet" x="781" y="-400"/>
<text text-anchor="start" x="796" y="-391.2" font-family="Helvetica,sans-Serif" font-size="11.00">obj_id</text>
<polygon fill="none" stroke="black" points="776,-361 776,-383 967,-383 967,-361 776,-361"/>
<image xlink:href="../../images/foreignKeys.png" width="11px" height="12px" preserveAspectRatio="xMinYMin meet" x="781" y="-378"/>
<text text-anchor="start" x="796" y="-369.2" font-family="Helvetica,sans-Serif" font-size="11.00">fk_dataowner</text>
<polygon fill="none" stroke="black" points="776,-339 776,-361 967,-361 967,-339 776,-339"/>
<image xlink:href="../../images/foreignKeys.png" width="11px" height="12px" preserveAspectRatio="xMinYMin meet" x="781" y="-356"/>
<text text-anchor="start" x="796" y="-347.2" font-family="Helvetica,sans-Serif" font-size="11.00">fk_provider</text>
<polygon fill="none" stroke="black" points="776,-317 776,-339 967,-339 967,-317 776,-317"/>
<image xlink:href="../../images/foreignKeys.png" width="11px" height="12px" preserveAspectRatio="xMinYMin meet" x="781" y="-334"/>
<text text-anchor="start" x="796" y="-325.2" font-family="Helvetica,sans-Serif" font-size="11.00">fk_hydr_geometry</text>
<polygon fill="none" stroke="black" points="776,-299 776,-317 967,-317 967,-299 776,-299"/>
<text text-anchor="start" x="779" y="-305.2" font-family="Helvetica,sans-Serif" font-size="11.00">...</text>
<polygon fill="#ffffff" stroke="transparent" points="776,-281 776,-299 967,-299 967,-281 776,-281"/>
<polygon fill="none" stroke="black" points="776,-281 776,-299 967,-299 967,-281 776,-281"/>
<polygon fill="#ffffff" stroke="transparent" points="777,-282 777,-298 848,-298 848,-282 777,-282"/>
<text text-anchor="start" x="779" y="-287.2" font-family="Helvetica,sans-Serif" font-size="11.00">&lt; 3</text>
<polygon fill="#ffffff" stroke="transparent" points="848,-282 848,-298 907,-298 907,-282 848,-282"/>
<text text-anchor="start" x="873.5" y="-287.2" font-family="Helvetica,sans-Serif" font-size="11.00"> &#160;</text>
<polygon fill="#ffffff" stroke="transparent" points="907,-282 907,-298 966,-298 966,-282 907,-282"/>
<text text-anchor="start" x="956" y="-287.2" font-family="Helvetica,sans-Serif" font-size="11.00"> &#160;</text>
<polygon fill="black" stroke="black" points="848,-282 848,-298 848,-298 848,-282 848,-282"/>
<polygon fill="black" stroke="black" points="907,-282 907,-298 907,-298 907,-282 907,-282"/>
</a>
</g>
</g>
<!-- organisation -->
<g id="node2" class="node">
<title>organisation</title>
<g id="a_node2"><a xlink:href="../../tables/organisation.html" xlink:title="organisation" target="_top">
<polygon fill="#ffffff" stroke="transparent" points="8,-40 8,-252 182,-252 182,-40 8,-40"/>
<polygon fill="#f5f5f5" stroke="transparent" points="8,-230 8,-252 182,-252 182,-230 8,-230"/>
<polygon fill="none" stroke="black" points="8,-230 8,-252 182,-252 182,-230 8,-230"/>
<text text-anchor="start" x="13" y="-239.2" font-family="Helvetica,sans-Serif" font-weight="bold" font-size="11.00">organisation</text>
<text text-anchor="start" x="140" y="-238.2" font-family="Helvetica,sans-Serif" font-size="11.00">[table]</text>
<polygon fill="none" stroke="black" points="8,-208 8,-230 182,-230 182,-208 8,-208"/>
<image xlink:href="../../images/primaryKeys.png" width="11px" height="12px" preserveAspectRatio="xMinYMin meet" x="13" y="-225"/>
<text text-anchor="start" x="28" y="-216.2" font-family="Helvetica,sans-Serif" font-size="11.00">obj_id</text>
<polygon fill="#ffffff" stroke="transparent" points="8,-186 8,-208 182,-208 182,-186 8,-186"/>
<polygon fill="none" stroke="black" points="8,-186 8,-208 182,-208 182,-186 8,-186"/>
<text text-anchor="start" x="28" y="-194.2" font-family="Helvetica,sans-Serif" font-size="11.00">identifier</text>
<polygon fill="#ffffff" stroke="transparent" points="8,-164 8,-186 182,-186 182,-164 8,-164"/>
<polygon fill="none" stroke="black" points="8,-164 8,-186 182,-186 182,-164 8,-164"/>
<image xlink:href="../../images/foreignKeys.png" width="11px" height="12px" preserveAspectRatio="xMinYMin meet" x="13" y="-181"/>
<text text-anchor="start" x="28" y="-172.2" font-family="Helvetica,sans-Serif" font-size="11.00">organisation_type</text>
<polygon fill="none" stroke="black" points="8,-142 8,-164 182,-164 182,-142 8,-142"/>
<image xlink:href="../../images/foreignKeys.png" width="11px" height="12px" preserveAspectRatio="xMinYMin meet" x="13" y="-159"/>
<text text-anchor="start" x="28" y="-150.2" font-family="Helvetica,sans-Serif" font-size="11.00">status</text>
<polygon fill="#ffffff" stroke="transparent" points="8,-120 8,-142 182,-142 182,-120 8,-120"/>
<polygon fill="none" stroke="black" points="8,-120 8,-142 182,-142 182,-120 8,-120"/>
<text text-anchor="start" x="28" y="-128.2" font-family="Helvetica,sans-Serif" font-size="11.00">uid</text>
<polygon fill="none" stroke="black" points="8,-98 8,-120 182,-120 182,-98 8,-98"/>
<image xlink:href="../../images/foreignKeys.png" width="11px" height="12px" preserveAspectRatio="xMinYMin meet" x="13" y="-115"/>
<text text-anchor="start" x="28" y="-106.2" font-family="Helvetica,sans-Serif" font-size="11.00">fk_dataowner</text>
<polygon fill="none" stroke="black" points="8,-76 8,-98 182,-98 182,-76 8,-76"/>
<image xlink:href="../../images/foreignKeys.png" width="11px" height="12px" preserveAspectRatio="xMinYMin meet" x="13" y="-93"/>
<text text-anchor="start" x="28" y="-84.2" font-family="Helvetica,sans-Serif" font-size="11.00">fk_provider</text>
<polygon fill="none" stroke="black" points="8,-58 8,-76 182,-76 182,-58 8,-58"/>
<text text-anchor="start" x="11" y="-64.2" font-family="Helvetica,sans-Serif" font-size="11.00">...</text>
<polygon fill="#ffffff" stroke="transparent" points="8,-40 8,-58 182,-58 182,-40 8,-40"/>
<polygon fill="none" stroke="black" points="8,-40 8,-58 182,-58 182,-40 8,-40"/>
<polygon fill="#ffffff" stroke="transparent" points="9,-41 9,-57 66,-57 66,-41 9,-41"/>
<text text-anchor="start" x="11" y="-46.2" font-family="Helvetica,sans-Serif" font-size="11.00">&lt; 4</text>
<polygon fill="#ffffff" stroke="transparent" points="66,-41 66,-57 111,-57 111,-41 66,-41"/>
<text text-anchor="start" x="84.5" y="-46.2" font-family="Helvetica,sans-Serif" font-size="11.00"> &#160;</text>
<polygon fill="#ffffff" stroke="transparent" points="111,-41 111,-57 181,-57 181,-41 111,-41"/>
<text text-anchor="start" x="145" y="-46.2" font-family="Helvetica,sans-Serif" font-size="11.00">105 &gt;</text>
<polygon fill="black" stroke="black" points="66,-41 66,-57 66,-57 66,-41 66,-41"/>
<polygon fill="black" stroke="black" points="111,-41 111,-57 111,-57 111,-41 111,-41"/>
</a>
</g>
</g>
<!-- hydr_geom_relation&#45;&gt;organisation -->
<g id="edge1" class="edge">
<title>hydr_geom_relation:w&#45;&gt;organisation:e</title>
<path fill="none" stroke="black" d="M760.42,-372.16C525.04,-377.29 413.31,-504.07 223,-357 172.47,-317.95 246.86,-219 183,-219"/>
<polygon fill="black" stroke="black" points="767,-372.09 775.04,-375.6 771,-372.04 775,-372 775,-372 775,-372 771,-372.04 774.96,-368.4 767,-372.09 767,-372.09"/>
<ellipse fill="none" stroke="black" cx="763.8" cy="-372.12" rx="3.2" ry="3.2"/>
</g>
<!-- hydr_geom_relation&#45;&gt;organisation -->
<g id="edge3" class="edge">
<title>hydr_geom_relation:w&#45;&gt;organisation:e</title>
<path fill="none" stroke="black" d="M760.46,-350.19C663.29,-352.18 269.59,-368.15 223,-334 179.35,-302.01 237.11,-219 183,-219"/>
<polygon fill="black" stroke="black" points="767,-350.11 775.05,-353.6 771,-350.05 775,-350 775,-350 775,-350 771,-350.05 774.95,-346.4 767,-350.11 767,-350.11"/>
<ellipse fill="none" stroke="black" cx="763.8" cy="-350.15" rx="3.2" ry="3.2"/>
</g>
<!-- hydr_geometry -->
<g id="node3" class="node">
<title>hydr_geometry</title>
<g id="a_node3"><a xlink:href="../../tables/hydr_geometry.html" xlink:title="hydr_geometry" target="_top">
<polygon fill="#ffffff" stroke="transparent" points="231,-37 231,-323 710,-323 710,-37 231,-37"/>
<polygon fill="#f5f5f5" stroke="transparent" points="233.5,-299 233.5,-321 708.5,-321 708.5,-299 233.5,-299"/>
<polygon fill="none" stroke="black" points="233.5,-299 233.5,-321 708.5,-321 708.5,-299 233.5,-299"/>
<text text-anchor="start" x="238.5" y="-308.2" font-family="Helvetica,sans-Serif" font-weight="bold" font-size="11.00">hydr_geometry</text>
<text text-anchor="start" x="666.5" y="-307.2" font-family="Helvetica,sans-Serif" font-size="11.00">[table]</text>
<polygon fill="none" stroke="black" points="233.5,-277 233.5,-299 451.5,-299 451.5,-277 233.5,-277"/>
<image xlink:href="../../images/primaryKeys.png" width="11px" height="12px" preserveAspectRatio="xMinYMin meet" x="238.5" y="-294"/>
<text text-anchor="start" x="253.5" y="-285.2" font-family="Helvetica,sans-Serif" font-size="11.00">obj_id</text>
<polygon fill="none" stroke="black" points="451.5,-277 451.5,-299 708.5,-299 708.5,-277 451.5,-277"/>
<text text-anchor="start" x="454.5" y="-285.2" font-family="Helvetica,sans-Serif" font-size="11.00">&quot;tww_od&quot;.&quot;interlis_standardoid&quot;[2147483647]</text>
<polygon fill="#ffffff" stroke="transparent" points="233.5,-255 233.5,-277 451.5,-277 451.5,-255 233.5,-255"/>
<polygon fill="none" stroke="black" points="233.5,-255 233.5,-277 451.5,-277 451.5,-255 233.5,-255"/>
<text text-anchor="start" x="253.5" y="-263.2" font-family="Helvetica,sans-Serif" font-size="11.00">identifier</text>
<polygon fill="none" stroke="black" points="451.5,-255 451.5,-277 708.5,-277 708.5,-255 451.5,-255"/>
<text text-anchor="start" x="454.5" y="-263.2" font-family="Helvetica,sans-Serif" font-size="11.00">text[2147483647]</text>
<polygon fill="none" stroke="black" points="233.5,-233 233.5,-255 451.5,-255 451.5,-233 233.5,-233"/>
<text text-anchor="start" x="253.5" y="-241.2" font-family="Helvetica,sans-Serif" font-size="11.00">remark</text>
<polygon fill="none" stroke="black" points="451.5,-233 451.5,-255 708.5,-255 708.5,-233 451.5,-233"/>
<text text-anchor="start" x="454.5" y="-241.2" font-family="Helvetica,sans-Serif" font-size="11.00">text[2147483647]</text>
<polygon fill="none" stroke="black" points="233.5,-211 233.5,-233 451.5,-233 451.5,-211 233.5,-211"/>
<text text-anchor="start" x="253.5" y="-219.2" font-family="Helvetica,sans-Serif" font-size="11.00">storage_volume</text>
<polygon fill="none" stroke="black" points="451.5,-211 451.5,-233 708.5,-233 708.5,-211 451.5,-211"/>
<text text-anchor="start" x="454.5" y="-219.2" font-family="Helvetica,sans-Serif" font-size="11.00">numeric[10,2]</text>
<polygon fill="none" stroke="black" points="233.5,-189 233.5,-211 451.5,-211 451.5,-189 233.5,-189"/>
<text text-anchor="start" x="253.5" y="-197.2" font-family="Helvetica,sans-Serif" font-size="11.00">usable_capacity_storage</text>
<polygon fill="none" stroke="black" points="451.5,-189 451.5,-211 708.5,-211 708.5,-189 451.5,-189"/>
<text text-anchor="start" x="454.5" y="-197.2" font-family="Helvetica,sans-Serif" font-size="11.00">numeric[10,2]</text>
<polygon fill="none" stroke="black" points="233.5,-167 233.5,-189 451.5,-189 451.5,-167 233.5,-167"/>
<text text-anchor="start" x="253.5" y="-175.2" font-family="Helvetica,sans-Serif" font-size="11.00">usable_capacity_treatment</text>
<polygon fill="none" stroke="black" points="451.5,-167 451.5,-189 708.5,-189 708.5,-167 451.5,-167"/>
<text text-anchor="start" x="454.5" y="-175.2" font-family="Helvetica,sans-Serif" font-size="11.00">numeric[10,2]</text>
<polygon fill="none" stroke="black" points="233.5,-145 233.5,-167 451.5,-167 451.5,-145 233.5,-145"/>
<text text-anchor="start" x="253.5" y="-153.2" font-family="Helvetica,sans-Serif" font-size="11.00">utilisable_capacity</text>
<polygon fill="none" stroke="black" points="451.5,-145 451.5,-167 708.5,-167 708.5,-145 451.5,-145"/>
<text text-anchor="start" x="454.5" y="-153.2" font-family="Helvetica,sans-Serif" font-size="11.00">numeric[10,2]</text>
<polygon fill="none" stroke="black" points="233.5,-123 233.5,-145 451.5,-145 451.5,-123 233.5,-123"/>
<text text-anchor="start" x="253.5" y="-131.2" font-family="Helvetica,sans-Serif" font-size="11.00">volume_pump_sump</text>
<polygon fill="none" stroke="black" points="451.5,-123 451.5,-145 708.5,-145 708.5,-123 451.5,-123"/>
<text text-anchor="start" x="454.5" y="-131.2" font-family="Helvetica,sans-Serif" font-size="11.00">numeric[10,2]</text>
<polygon fill="none" stroke="black" points="233.5,-101 233.5,-123 451.5,-123 451.5,-101 233.5,-101"/>
<text text-anchor="start" x="253.5" y="-109.2" font-family="Helvetica,sans-Serif" font-size="11.00">last_modification</text>
<polygon fill="none" stroke="black" points="451.5,-101 451.5,-123 708.5,-123 708.5,-101 451.5,-101"/>
<text text-anchor="start" x="454.5" y="-109.2" font-family="Helvetica,sans-Serif" font-size="11.00">timestamp[29,6]</text>
<polygon fill="#ffffff" stroke="transparent" points="233.5,-79 233.5,-101 451.5,-101 451.5,-79 233.5,-79"/>
<polygon fill="none" stroke="black" points="233.5,-79 233.5,-101 451.5,-101 451.5,-79 233.5,-79"/>
<image xlink:href="../../images/foreignKeys.png" width="11px" height="12px" preserveAspectRatio="xMinYMin meet" x="238.5" y="-96"/>
<text text-anchor="start" x="253.5" y="-87.2" font-family="Helvetica,sans-Serif" font-size="11.00">fk_dataowner</text>
<polygon fill="none" stroke="black" points="451.5,-79 451.5,-101 708.5,-101 708.5,-79 451.5,-79"/>
<text text-anchor="start" x="454.5" y="-87.2" font-family="Helvetica,sans-Serif" font-size="11.00">varchar[16]</text>
<polygon fill="none" stroke="black" points="233.5,-57 233.5,-79 451.5,-79 451.5,-57 233.5,-57"/>
<image xlink:href="../../images/foreignKeys.png" width="11px" height="12px" preserveAspectRatio="xMinYMin meet" x="238.5" y="-74"/>
<text text-anchor="start" x="253.5" y="-65.2" font-family="Helvetica,sans-Serif" font-size="11.00">fk_provider</text>
<polygon fill="none" stroke="black" points="451.5,-57 451.5,-79 708.5,-79 708.5,-57 451.5,-57"/>
<text text-anchor="start" x="454.5" y="-65.2" font-family="Helvetica,sans-Serif" font-size="11.00">varchar[16]</text>
<polygon fill="#ffffff" stroke="transparent" points="233.5,-39 233.5,-57 708.5,-57 708.5,-39 233.5,-39"/>
<polygon fill="none" stroke="black" points="233.5,-39 233.5,-57 708.5,-57 708.5,-39 233.5,-39"/>
<polygon fill="#ffffff" stroke="transparent" points="234.5,-40 234.5,-56 396.5,-56 396.5,-40 234.5,-40"/>
<text text-anchor="start" x="236.5" y="-45.2" font-family="Helvetica,sans-Serif" font-size="11.00">&lt; 2</text>
<polygon fill="#ffffff" stroke="transparent" points="396.5,-40 396.5,-56 546.5,-56 546.5,-40 396.5,-40"/>
<text text-anchor="start" x="467.5" y="-45.2" font-family="Helvetica,sans-Serif" font-size="11.00"> &#160;</text>
<polygon fill="#ffffff" stroke="transparent" points="546.5,-40 546.5,-56 707.5,-56 707.5,-40 546.5,-40"/>
<text text-anchor="start" x="685.5" y="-45.2" font-family="Helvetica,sans-Serif" font-size="11.00">2 &gt;</text>
<polygon fill="black" stroke="black" points="396.5,-40 396.5,-56 396.5,-56 396.5,-40 396.5,-40"/>
<polygon fill="black" stroke="black" points="546.5,-40 546.5,-56 546.5,-56 546.5,-40 546.5,-40"/>
<polygon fill="none" stroke="black" stroke-width="2" points="232,-38 232,-322 709,-322 709,-38 232,-38"/>
</a>
</g>
</g>
<!-- hydr_geom_relation&#45;&gt;hydr_geometry -->
<g id="edge2" class="edge">
<title>hydr_geom_relation:w&#45;&gt;hydr_geometry:e</title>
<path fill="none" stroke="black" d="M760.86,-325.12C740.79,-315.95 738.01,-288 709.5,-288"/>
<polygon fill="black" stroke="black" points="767.16,-326.41 774.28,-331.53 771.08,-327.2 775,-328 775,-328 775,-328 771.08,-327.2 775.72,-324.47 767.16,-326.41 767.16,-326.41"/>
<ellipse fill="none" stroke="black" cx="764.02" cy="-325.77" rx="3.2" ry="3.2"/>
</g>
<!-- hydr_geometry&#45;&gt;organisation -->
<g id="edge4" class="edge">
<title>hydr_geometry:w&#45;&gt;organisation:e</title>
<path fill="none" stroke="black" d="M218.11,-93.45C184.13,-113.97 238.41,-219 183,-219"/>
<polygon fill="black" stroke="black" points="224.72,-91.87 233.34,-93.5 228.61,-90.93 232.5,-90 232.5,-90 232.5,-90 228.61,-90.93 231.66,-86.5 224.72,-91.87 224.72,-91.87"/>
<ellipse fill="none" stroke="black" cx="221.61" cy="-92.61" rx="3.2" ry="3.2"/>
</g>
<!-- hydr_geometry&#45;&gt;organisation -->
<g id="edge5" class="edge">
<title>hydr_geometry:w&#45;&gt;organisation:e</title>
<path fill="none" stroke="black" d="M218.22,-70.88C175.84,-91.76 247.83,-219 183,-219"/>
<polygon fill="black" stroke="black" points="224.66,-69.58 233.21,-71.53 228.58,-68.79 232.5,-68 232.5,-68 232.5,-68 228.58,-68.79 231.79,-64.47 224.66,-69.58 224.66,-69.58"/>
<ellipse fill="none" stroke="black" cx="221.52" cy="-70.22" rx="3.2" ry="3.2"/>
</g>
<!-- wastewater_node -->
<g id="node4" class="node">
<title>wastewater_node</title>
<g id="a_node4"><a xlink:href="../../tables/wastewater_node.html" xlink:title="wastewater_node" target="_top">
<polygon fill="#ffffff" stroke="transparent" points="759,-92 759,-260 983,-260 983,-92 759,-92"/>
<polygon fill="#f5f5f5" stroke="transparent" points="759,-238 759,-260 983,-260 983,-238 759,-238"/>
<polygon fill="none" stroke="black" points="759,-238 759,-260 983,-260 983,-238 759,-238"/>
<text text-anchor="start" x="764" y="-247.2" font-family="Helvetica,sans-Serif" font-weight="bold" font-size="11.00">wastewater_node</text>
<text text-anchor="start" x="941" y="-246.2" font-family="Helvetica,sans-Serif" font-size="11.00">[table]</text>
<polygon fill="none" stroke="black" points="759,-216 759,-238 983,-238 983,-216 759,-216"/>
<image xlink:href="../../images/primaryKeys.png" width="11px" height="12px" preserveAspectRatio="xMinYMin meet" x="764" y="-233"/>
<text text-anchor="start" x="779" y="-224.2" font-family="Helvetica,sans-Serif" font-size="11.00">obj_id</text>
<polygon fill="none" stroke="black" points="759,-194 759,-216 983,-216 983,-194 759,-194"/>
<image xlink:href="../../images/foreignKeys.png" width="11px" height="12px" preserveAspectRatio="xMinYMin meet" x="764" y="-211"/>
<text text-anchor="start" x="779" y="-202.2" font-family="Helvetica,sans-Serif" font-size="11.00">elevation_accuracy</text>
<polygon fill="none" stroke="black" points="759,-172 759,-194 983,-194 983,-172 759,-172"/>
<image xlink:href="../../images/foreignKeys.png" width="11px" height="12px" preserveAspectRatio="xMinYMin meet" x="764" y="-189"/>
<text text-anchor="start" x="779" y="-180.2" font-family="Helvetica,sans-Serif" font-size="11.00">function_node_amelioration</text>
<polygon fill="#ffffff" stroke="transparent" points="759,-150 759,-172 983,-172 983,-150 759,-150"/>
<polygon fill="none" stroke="black" points="759,-150 759,-172 983,-172 983,-150 759,-150"/>
<text text-anchor="start" x="779" y="-158.2" font-family="Helvetica,sans-Serif" font-size="11.00">situation3d_geometry</text>
<polygon fill="none" stroke="black" points="759,-128 759,-150 983,-150 983,-128 759,-128"/>
<image xlink:href="../../images/foreignKeys.png" width="11px" height="12px" preserveAspectRatio="xMinYMin meet" x="764" y="-145"/>
<text text-anchor="start" x="779" y="-136.2" font-family="Helvetica,sans-Serif" font-size="11.00">fk_hydr_geometry</text>
<polygon fill="none" stroke="black" points="759,-110 759,-128 983,-128 983,-110 759,-110"/>
<text text-anchor="start" x="762" y="-116.2" font-family="Helvetica,sans-Serif" font-size="11.00">...</text>
<polygon fill="#ffffff" stroke="transparent" points="759,-92 759,-110 983,-110 983,-92 759,-92"/>
<polygon fill="none" stroke="black" points="759,-92 759,-110 983,-110 983,-92 759,-92"/>
<polygon fill="#ffffff" stroke="transparent" points="760,-93 760,-109 836,-109 836,-93 760,-93"/>
<text text-anchor="start" x="762" y="-98.2" font-family="Helvetica,sans-Serif" font-size="11.00">&lt; 4</text>
<polygon fill="#ffffff" stroke="transparent" points="836,-93 836,-109 900,-109 900,-93 836,-93"/>
<text text-anchor="start" x="864" y="-98.2" font-family="Helvetica,sans-Serif" font-size="11.00"> &#160;</text>
<polygon fill="#ffffff" stroke="transparent" points="900,-93 900,-109 982,-109 982,-93 900,-93"/>
<text text-anchor="start" x="953" y="-98.2" font-family="Helvetica,sans-Serif" font-size="11.00">10 &gt;</text>
<polygon fill="black" stroke="black" points="836,-93 836,-109 836,-109 836,-93 836,-93"/>
<polygon fill="black" stroke="black" points="900,-93 900,-109 900,-109 900,-93 900,-93"/>
</a>
</g>
</g>
<!-- wastewater_node&#45;&gt;hydr_geometry -->
<g id="edge6" class="edge">
<title>wastewater_node:w&#45;&gt;hydr_geometry:e</title>
<path fill="none" stroke="black" d="M743.66,-141.98C702.48,-162.98 773.29,-288 709.5,-288"/>
<polygon fill="black" stroke="black" points="750.17,-140.63 758.73,-142.52 754.08,-139.81 758,-139 758,-139 758,-139 754.08,-139.81 757.27,-135.48 750.17,-140.63 750.17,-140.63"/>
<ellipse fill="none" stroke="black" cx="747.03" cy="-141.28" rx="3.2" ry="3.2"/>
</g>
</g>
</svg>
