<?xml version="1.0" encoding="UTF-8" standalone="no"?>
<!DOCTYPE svg PUBLIC "-//W3C//DTD SVG 1.1//EN"
 "http://www.w3.org/Graphics/SVG/1.1/DTD/svg11.dtd">
<!-- Generated by graphviz version 2.43.0 (0)
 -->
<!-- Title: oneDegreeRelationshipsDiagram Pages: 1 -->
<svg width="702pt" height="457pt"
 viewBox="0.00 0.00 702.00 457.00" xmlns="http://www.w3.org/2000/svg" xmlns:xlink="http://www.w3.org/1999/xlink">
<g id="graph0" class="graph" transform="scale(1 1) rotate(0) translate(4 453)">
<title>oneDegreeRelationshipsDiagram</title>
<polygon fill="#ffffff" stroke="transparent" points="-4,4 -4,-453 698,-453 698,4 -4,4"/>
<text text-anchor="middle" x="79.5" y="-7.2" font-family="Helvetica,sans-Serif" font-size="11.00">Generated by SchemaSpy</text>
<!-- pipe_profile -->
<g id="node1" class="node">
<title>pipe_profile</title>
<g id="a_node1"><a xlink:href="../../tables/pipe_profile.html" xlink:title="pipe_profile" target="_top">
<polygon fill="#ffffff" stroke="transparent" points="231,-86 231,-254 388,-254 388,-86 231,-86"/>
<polygon fill="#f5f5f5" stroke="transparent" points="231.5,-232 231.5,-254 388.5,-254 388.5,-232 231.5,-232"/>
<polygon fill="none" stroke="black" points="231.5,-232 231.5,-254 388.5,-254 388.5,-232 231.5,-232"/>
<text text-anchor="start" x="236.5" y="-241.2" font-family="Helvetica,sans-Serif" font-weight="bold" font-size="11.00">pipe_profile</text>
<text text-anchor="start" x="346.5" y="-240.2" font-family="Helvetica,sans-Serif" font-size="11.00">[table]</text>
<polygon fill="none" stroke="black" points="231.5,-210 231.5,-232 388.5,-232 388.5,-210 231.5,-210"/>
<image xlink:href="../../images/primaryKeys.png" width="11px" height="12px" preserveAspectRatio="xMinYMin meet" x="236.5" y="-227"/>
<text text-anchor="start" x="251.5" y="-218.2" font-family="Helvetica,sans-Serif" font-size="11.00">obj_id</text>
<polygon fill="#ffffff" stroke="transparent" points="231.5,-188 231.5,-210 388.5,-210 388.5,-188 231.5,-188"/>
<polygon fill="none" stroke="black" points="231.5,-188 231.5,-210 388.5,-210 388.5,-188 231.5,-188"/>
<text text-anchor="start" x="251.5" y="-196.2" font-family="Helvetica,sans-Serif" font-size="11.00">identifier</text>
<polygon fill="none" stroke="black" points="231.5,-166 231.5,-188 388.5,-188 388.5,-166 231.5,-166"/>
<image xlink:href="../../images/foreignKeys.png" width="11px" height="12px" preserveAspectRatio="xMinYMin meet" x="236.5" y="-183"/>
<text text-anchor="start" x="251.5" y="-174.2" font-family="Helvetica,sans-Serif" font-size="11.00">profile_type</text>
<polygon fill="#ffffff" stroke="transparent" points="231.5,-144 231.5,-166 388.5,-166 388.5,-144 231.5,-144"/>
<polygon fill="none" stroke="black" points="231.5,-144 231.5,-166 388.5,-166 388.5,-144 231.5,-144"/>
<image xlink:href="../../images/foreignKeys.png" width="11px" height="12px" preserveAspectRatio="xMinYMin meet" x="236.5" y="-161"/>
<text text-anchor="start" x="251.5" y="-152.2" font-family="Helvetica,sans-Serif" font-size="11.00">fk_dataowner</text>
<polygon fill="none" stroke="black" points="231.5,-122 231.5,-144 388.5,-144 388.5,-122 231.5,-122"/>
<image xlink:href="../../images/foreignKeys.png" width="11px" height="12px" preserveAspectRatio="xMinYMin meet" x="236.5" y="-139"/>
<text text-anchor="start" x="251.5" y="-130.2" font-family="Helvetica,sans-Serif" font-size="11.00">fk_provider</text>
<polygon fill="none" stroke="black" points="231.5,-104 231.5,-122 388.5,-122 388.5,-104 231.5,-104"/>
<text text-anchor="start" x="234.5" y="-110.2" font-family="Helvetica,sans-Serif" font-size="11.00">...</text>
<polygon fill="#ffffff" stroke="transparent" points="231.5,-86 231.5,-104 388.5,-104 388.5,-86 231.5,-86"/>
<polygon fill="none" stroke="black" points="231.5,-86 231.5,-104 388.5,-104 388.5,-86 231.5,-86"/>
<polygon fill="#ffffff" stroke="transparent" points="232.5,-87 232.5,-103 288.5,-103 288.5,-87 232.5,-87"/>
<text text-anchor="start" x="234.5" y="-92.2" font-family="Helvetica,sans-Serif" font-size="11.00">&lt; 3</text>
<polygon fill="#ffffff" stroke="transparent" points="288.5,-87 288.5,-103 332.5,-103 332.5,-87 288.5,-87"/>
<text text-anchor="start" x="306.5" y="-92.2" font-family="Helvetica,sans-Serif" font-size="11.00"> &#160;</text>
<polygon fill="#ffffff" stroke="transparent" points="332.5,-87 332.5,-103 387.5,-103 387.5,-87 332.5,-87"/>
<text text-anchor="start" x="365.5" y="-92.2" font-family="Helvetica,sans-Serif" font-size="11.00">2 &gt;</text>
<polygon fill="black" stroke="black" points="288.5,-87 288.5,-103 288.5,-103 288.5,-87 288.5,-87"/>
<polygon fill="black" stroke="black" points="332.5,-87 332.5,-103 332.5,-103 332.5,-87 332.5,-87"/>
</a>
</g>
</g>
<!-- organisation -->
<g id="node2" class="node">
<title>organisation</title>
<g id="a_node2"><a xlink:href="../../tables/organisation.html" xlink:title="organisation" target="_top">
<polygon fill="#ffffff" stroke="transparent" points="8,-37 8,-249 182,-249 182,-37 8,-37"/>
<polygon fill="#f5f5f5" stroke="transparent" points="8,-227 8,-249 182,-249 182,-227 8,-227"/>
<polygon fill="none" stroke="black" points="8,-227 8,-249 182,-249 182,-227 8,-227"/>
<text text-anchor="start" x="13" y="-236.2" font-family="Helvetica,sans-Serif" font-weight="bold" font-size="11.00">organisation</text>
<text text-anchor="start" x="140" y="-235.2" font-family="Helvetica,sans-Serif" font-size="11.00">[table]</text>
<polygon fill="none" stroke="black" points="8,-205 8,-227 182,-227 182,-205 8,-205"/>
<image xlink:href="../../images/primaryKeys.png" width="11px" height="12px" preserveAspectRatio="xMinYMin meet" x="13" y="-222"/>
<text text-anchor="start" x="28" y="-213.2" font-family="Helvetica,sans-Serif" font-size="11.00">obj_id</text>
<polygon fill="#ffffff" stroke="transparent" points="8,-183 8,-205 182,-205 182,-183 8,-183"/>
<polygon fill="none" stroke="black" points="8,-183 8,-205 182,-205 182,-183 8,-183"/>
<text text-anchor="start" x="28" y="-191.2" font-family="Helvetica,sans-Serif" font-size="11.00">identifier</text>
<polygon fill="#ffffff" stroke="transparent" points="8,-161 8,-183 182,-183 182,-161 8,-161"/>
<polygon fill="none" stroke="black" points="8,-161 8,-183 182,-183 182,-161 8,-161"/>
<image xlink:href="../../images/foreignKeys.png" width="11px" height="12px" preserveAspectRatio="xMinYMin meet" x="13" y="-178"/>
<text text-anchor="start" x="28" y="-169.2" font-family="Helvetica,sans-Serif" font-size="11.00">organisation_type</text>
<polygon fill="none" stroke="black" points="8,-139 8,-161 182,-161 182,-139 8,-139"/>
<image xlink:href="../../images/foreignKeys.png" width="11px" height="12px" preserveAspectRatio="xMinYMin meet" x="13" y="-156"/>
<text text-anchor="start" x="28" y="-147.2" font-family="Helvetica,sans-Serif" font-size="11.00">status</text>
<polygon fill="#ffffff" stroke="transparent" points="8,-117 8,-139 182,-139 182,-117 8,-117"/>
<polygon fill="none" stroke="black" points="8,-117 8,-139 182,-139 182,-117 8,-117"/>
<text text-anchor="start" x="28" y="-125.2" font-family="Helvetica,sans-Serif" font-size="11.00">uid</text>
<polygon fill="none" stroke="black" points="8,-95 8,-117 182,-117 182,-95 8,-95"/>
<image xlink:href="../../images/foreignKeys.png" width="11px" height="12px" preserveAspectRatio="xMinYMin meet" x="13" y="-112"/>
<text text-anchor="start" x="28" y="-103.2" font-family="Helvetica,sans-Serif" font-size="11.00">fk_dataowner</text>
<polygon fill="none" stroke="black" points="8,-73 8,-95 182,-95 182,-73 8,-73"/>
<image xlink:href="../../images/foreignKeys.png" width="11px" height="12px" preserveAspectRatio="xMinYMin meet" x="13" y="-90"/>
<text text-anchor="start" x="28" y="-81.2" font-family="Helvetica,sans-Serif" font-size="11.00">fk_provider</text>
<polygon fill="none" stroke="black" points="8,-55 8,-73 182,-73 182,-55 8,-55"/>
<text text-anchor="start" x="11" y="-61.2" font-family="Helvetica,sans-Serif" font-size="11.00">...</text>
<polygon fill="#ffffff" stroke="transparent" points="8,-37 8,-55 182,-55 182,-37 8,-37"/>
<polygon fill="none" stroke="black" points="8,-37 8,-55 182,-55 182,-37 8,-37"/>
<polygon fill="#ffffff" stroke="transparent" points="9,-38 9,-54 66,-54 66,-38 9,-38"/>
<text text-anchor="start" x="11" y="-43.2" font-family="Helvetica,sans-Serif" font-size="11.00">&lt; 4</text>
<polygon fill="#ffffff" stroke="transparent" points="66,-38 66,-54 111,-54 111,-38 66,-38"/>
<text text-anchor="start" x="84.5" y="-43.2" font-family="Helvetica,sans-Serif" font-size="11.00"> &#160;</text>
<polygon fill="#ffffff" stroke="transparent" points="111,-38 111,-54 181,-54 181,-38 111,-38"/>
<text text-anchor="start" x="145" y="-43.2" font-family="Helvetica,sans-Serif" font-size="11.00">105 &gt;</text>
<polygon fill="black" stroke="black" points="66,-38 66,-54 66,-54 66,-38 66,-38"/>
<polygon fill="black" stroke="black" points="111,-38 111,-54 111,-54 111,-38 111,-38"/>
</a>
</g>
</g>
<!-- pipe_profile&#45;&gt;organisation -->
<g id="edge1" class="edge">
<title>pipe_profile:w&#45;&gt;organisation:e</title>
<path fill="none" stroke="black" d="M216.72,-160.2C201.97,-174.95 211.19,-216 183,-216"/>
<polygon fill="black" stroke="black" points="223.02,-157.82 231.77,-158.37 226.76,-156.41 230.5,-155 230.5,-155 230.5,-155 226.76,-156.41 229.23,-151.63 223.02,-157.82 223.02,-157.82"/>
<ellipse fill="none" stroke="black" cx="220.02" cy="-158.95" rx="3.2" ry="3.2"/>
</g>
<!-- pipe_profile&#45;&gt;organisation -->
<g id="edge2" class="edge">
<title>pipe_profile:w&#45;&gt;organisation:e</title>
<path fill="none" stroke="black" d="M216.6,-137.7C197.17,-155.26 219.36,-216 183,-216"/>
<polygon fill="black" stroke="black" points="222.92,-135.56 231.65,-136.41 226.71,-134.28 230.5,-133 230.5,-133 230.5,-133 226.71,-134.28 229.35,-129.59 222.92,-135.56 222.92,-135.56"/>
<ellipse fill="none" stroke="black" cx="219.89" cy="-136.59" rx="3.2" ry="3.2"/>
</g>
<!-- profile_geometry -->
<g id="node3" class="node">
<title>profile_geometry</title>
<g id="a_node3"><a xlink:href="../../tables/profile_geometry.html" xlink:title="profile_geometry" target="_top">
<polygon fill="#ffffff" stroke="transparent" points="437,-225 437,-445 686,-445 686,-225 437,-225"/>
<polygon fill="#f5f5f5" stroke="transparent" points="439.5,-421 439.5,-443 684.5,-443 684.5,-421 439.5,-421"/>
<polygon fill="none" stroke="black" points="439.5,-421 439.5,-443 684.5,-443 684.5,-421 439.5,-421"/>
<text text-anchor="start" x="444.5" y="-430.2" font-family="Helvetica,sans-Serif" font-weight="bold" font-size="11.00">profile_geometry</text>
<text text-anchor="start" x="642.5" y="-429.2" font-family="Helvetica,sans-Serif" font-size="11.00">[table]</text>
<polygon fill="none" stroke="black" points="439.5,-399 439.5,-421 585.5,-421 585.5,-399 439.5,-399"/>
<image xlink:href="../../images/primaryKeys.png" width="11px" height="12px" preserveAspectRatio="xMinYMin meet" x="444.5" y="-416"/>
<text text-anchor="start" x="459.5" y="-407.2" font-family="Helvetica,sans-Serif" font-size="11.00">obj_id</text>
<polygon fill="none" stroke="black" points="585.5,-399 585.5,-421 684.5,-421 684.5,-399 585.5,-399"/>
<text text-anchor="start" x="588.5" y="-407.2" font-family="Helvetica,sans-Serif" font-size="11.00">varchar[16]</text>
<polygon fill="none" stroke="black" points="439.5,-377 439.5,-399 585.5,-399 585.5,-377 439.5,-377"/>
<text text-anchor="start" x="459.5" y="-385.2" font-family="Helvetica,sans-Serif" font-size="11.00">sequence</text>
<polygon fill="none" stroke="black" points="585.5,-377 585.5,-399 684.5,-399 684.5,-377 585.5,-377"/>
<text text-anchor="start" x="588.5" y="-385.2" font-family="Helvetica,sans-Serif" font-size="11.00">int2[5]</text>
<polygon fill="none" stroke="black" points="439.5,-355 439.5,-377 585.5,-377 585.5,-355 439.5,-355"/>
<text text-anchor="start" x="459.5" y="-363.2" font-family="Helvetica,sans-Serif" font-size="11.00">x</text>
<polygon fill="none" stroke="black" points="585.5,-355 585.5,-377 684.5,-377 684.5,-355 585.5,-355"/>
<text text-anchor="start" x="588.5" y="-363.2" font-family="Helvetica,sans-Serif" font-size="11.00">float4[8,8]</text>
<polygon fill="none" stroke="black" points="439.5,-333 439.5,-355 585.5,-355 585.5,-333 439.5,-333"/>
<text text-anchor="start" x="459.5" y="-341.2" font-family="Helvetica,sans-Serif" font-size="11.00">y</text>
<polygon fill="none" stroke="black" points="585.5,-333 585.5,-355 684.5,-355 684.5,-333 585.5,-333"/>
<text text-anchor="start" x="588.5" y="-341.2" font-family="Helvetica,sans-Serif" font-size="11.00">float4[8,8]</text>
<polygon fill="none" stroke="black" points="439.5,-311 439.5,-333 585.5,-333 585.5,-311 439.5,-311"/>
<text text-anchor="start" x="459.5" y="-319.2" font-family="Helvetica,sans-Serif" font-size="11.00">last_modification</text>
<polygon fill="none" stroke="black" points="585.5,-311 585.5,-333 684.5,-333 684.5,-311 585.5,-311"/>
<text text-anchor="start" x="588.5" y="-319.2" font-family="Helvetica,sans-Serif" font-size="11.00">timestamp[29,6]</text>
<polygon fill="none" stroke="black" points="439.5,-289 439.5,-311 585.5,-311 585.5,-289 439.5,-289"/>
<image xlink:href="../../images/foreignKeys.png" width="11px" height="12px" preserveAspectRatio="xMinYMin meet" x="444.5" y="-306"/>
<text text-anchor="start" x="459.5" y="-297.2" font-family="Helvetica,sans-Serif" font-size="11.00">fk_dataowner</text>
<polygon fill="none" stroke="black" points="585.5,-289 585.5,-311 684.5,-311 684.5,-289 585.5,-289"/>
<text text-anchor="start" x="588.5" y="-297.2" font-family="Helvetica,sans-Serif" font-size="11.00">varchar[16]</text>
<polygon fill="none" stroke="black" points="439.5,-267 439.5,-289 585.5,-289 585.5,-267 439.5,-267"/>
<image xlink:href="../../images/foreignKeys.png" width="11px" height="12px" preserveAspectRatio="xMinYMin meet" x="444.5" y="-284"/>
<text text-anchor="start" x="459.5" y="-275.2" font-family="Helvetica,sans-Serif" font-size="11.00">fk_provider</text>
<polygon fill="none" stroke="black" points="585.5,-267 585.5,-289 684.5,-289 684.5,-267 585.5,-267"/>
<text text-anchor="start" x="588.5" y="-275.2" font-family="Helvetica,sans-Serif" font-size="11.00">varchar[16]</text>
<polygon fill="none" stroke="black" points="439.5,-245 439.5,-267 585.5,-267 585.5,-245 439.5,-245"/>
<image xlink:href="../../images/foreignKeys.png" width="11px" height="12px" preserveAspectRatio="xMinYMin meet" x="444.5" y="-262"/>
<text text-anchor="start" x="459.5" y="-253.2" font-family="Helvetica,sans-Serif" font-size="11.00">fk_pipe_profile</text>
<polygon fill="none" stroke="black" points="585.5,-245 585.5,-267 684.5,-267 684.5,-245 585.5,-245"/>
<text text-anchor="start" x="588.5" y="-253.2" font-family="Helvetica,sans-Serif" font-size="11.00">varchar[16]</text>
<polygon fill="#ffffff" stroke="transparent" points="439.5,-227 439.5,-245 684.5,-245 684.5,-227 439.5,-227"/>
<polygon fill="none" stroke="black" points="439.5,-227 439.5,-245 684.5,-245 684.5,-227 439.5,-227"/>
<polygon fill="#ffffff" stroke="transparent" points="440.5,-228 440.5,-244 525.5,-244 525.5,-228 440.5,-228"/>
<text text-anchor="start" x="442.5" y="-233.2" font-family="Helvetica,sans-Serif" font-size="11.00">&lt; 3</text>
<polygon fill="#ffffff" stroke="transparent" points="525.5,-228 525.5,-244 598.5,-244 598.5,-228 525.5,-228"/>
<text text-anchor="start" x="558" y="-233.2" font-family="Helvetica,sans-Serif" font-size="11.00"> &#160;</text>
<polygon fill="#ffffff" stroke="transparent" points="598.5,-228 598.5,-244 683.5,-244 683.5,-228 598.5,-228"/>
<text text-anchor="start" x="661.5" y="-233.2" font-family="Helvetica,sans-Serif" font-size="11.00">0 &gt;</text>
<polygon fill="black" stroke="black" points="525.5,-228 525.5,-244 525.5,-244 525.5,-228 525.5,-228"/>
<polygon fill="black" stroke="black" points="598.5,-228 598.5,-244 598.5,-244 598.5,-228 598.5,-228"/>
<polygon fill="none" stroke="black" stroke-width="2" points="438,-226 438,-444 685,-444 685,-226 438,-226"/>
</a>
</g>
</g>
<!-- profile_geometry&#45;&gt;pipe_profile -->
<g id="edge4" class="edge">
<title>profile_geometry:w&#45;&gt;pipe_profile:e</title>
<path fill="none" stroke="black" d="M424.4,-251.42C412.18,-241.94 410.2,-221 389.5,-221"/>
<polygon fill="black" stroke="black" points="430.89,-253.53 437.39,-259.42 434.7,-254.77 438.5,-256 438.5,-256 438.5,-256 434.7,-254.77 439.61,-252.58 430.89,-253.53 430.89,-253.53"/>
<ellipse fill="none" stroke="black" cx="427.85" cy="-252.54" rx="3.2" ry="3.2"/>
</g>
<!-- profile_geometry&#45;&gt;organisation -->
<g id="edge3" class="edge">
<title>profile_geometry:w&#45;&gt;organisation:e</title>
<path fill="none" stroke="black" d="M424.05,-300.29C338.5,-303.79 300.08,-336.29 223,-288 191.98,-268.57 219.61,-216 183,-216"/>
<polygon fill="black" stroke="black" points="430.5,-300.16 438.57,-303.6 434.5,-300.08 438.5,-300 438.5,-300 438.5,-300 434.5,-300.08 438.43,-296.4 430.5,-300.16 430.5,-300.16"/>
<ellipse fill="none" stroke="black" cx="427.3" cy="-300.23" rx="3.2" ry="3.2"/>
</g>
<!-- profile_geometry&#45;&gt;organisation -->
<g id="edge5" class="edge">
<title>profile_geometry:w&#45;&gt;organisation:e</title>
<path fill="none" stroke="black" d="M424.08,-278.22C338.87,-280.86 304.12,-305.26 223,-264 198.25,-251.41 210.77,-216 183,-216"/>
<polygon fill="black" stroke="black" points="430.5,-278.12 438.56,-281.6 434.5,-278.06 438.5,-278 438.5,-278 438.5,-278 434.5,-278.06 438.44,-274.4 430.5,-278.12 430.5,-278.12"/>
<ellipse fill="none" stroke="black" cx="427.3" cy="-278.17" rx="3.2" ry="3.2"/>
</g>
</g>
</svg>
