<?xml version="1.0" encoding="UTF-8" standalone="no"?>
<!DOCTYPE svg PUBLIC "-//W3C//DTD SVG 1.1//EN"
 "http://www.w3.org/Graphics/SVG/1.1/DTD/svg11.dtd">
<!-- Generated by graphviz version 2.43.0 (0)
 -->
<!-- Title: oneDegreeRelationshipsDiagram Pages: 1 -->
<svg width="781pt" height="219pt"
 viewBox="0.00 0.00 781.00 219.00" xmlns="http://www.w3.org/2000/svg" xmlns:xlink="http://www.w3.org/1999/xlink">
<g id="graph0" class="graph" transform="scale(1 1) rotate(0) translate(4 215)">
<title>oneDegreeRelationshipsDiagram</title>
<polygon fill="#ffffff" stroke="transparent" points="-4,4 -4,-215 777,-215 777,4 -4,4"/>
<text text-anchor="middle" x="79.5" y="-7.2" font-family="Helvetica,sans-Serif" font-size="11.00">Generated by SchemaSpy</text>
<!-- reservoir -->
<g id="node1" class="node">
<title>reservoir</title>
<g id="a_node1"><a xlink:href="../../tables/reservoir.html" xlink:title="reservoir" target="_top">
<polygon fill="#ffffff" stroke="transparent" points="341,-97 341,-207 765,-207 765,-97 341,-97"/>
<polygon fill="#f5f5f5" stroke="transparent" points="343,-183 343,-205 763,-205 763,-183 343,-183"/>
<polygon fill="none" stroke="black" points="343,-183 343,-205 763,-205 763,-183 343,-183"/>
<text text-anchor="start" x="348" y="-192.2" font-family="Helvetica,sans-Serif" font-weight="bold" font-size="11.00">reservoir</text>
<text text-anchor="start" x="721" y="-191.2" font-family="Helvetica,sans-Serif" font-size="11.00">[table]</text>
<polygon fill="none" stroke="black" points="343,-161 343,-183 506,-183 506,-161 343,-161"/>
<image xlink:href="../../images/primaryKeys.png" width="11px" height="12px" preserveAspectRatio="xMinYMin meet" x="348" y="-178"/>
<text text-anchor="start" x="363" y="-169.2" font-family="Helvetica,sans-Serif" font-size="11.00">obj_id</text>
<polygon fill="none" stroke="black" points="506,-161 506,-183 763,-183 763,-161 506,-161"/>
<text text-anchor="start" x="509" y="-169.2" font-family="Helvetica,sans-Serif" font-size="11.00">&quot;tww_od&quot;.&quot;interlis_standardoid&quot;[2147483647]</text>
<polygon fill="none" stroke="black" points="343,-139 343,-161 506,-161 506,-139 343,-139"/>
<text text-anchor="start" x="363" y="-147.2" font-family="Helvetica,sans-Serif" font-size="11.00">location_name</text>
<polygon fill="none" stroke="black" points="506,-139 506,-161 763,-161 763,-139 506,-139"/>
<text text-anchor="start" x="509" y="-147.2" font-family="Helvetica,sans-Serif" font-size="11.00">text[2147483647]</text>
<polygon fill="#ffffff" stroke="transparent" points="343,-117 343,-139 506,-139 506,-117 343,-117"/>
<polygon fill="none" stroke="black" points="343,-117 343,-139 506,-139 506,-117 343,-117"/>
<text text-anchor="start" x="363" y="-125.2" font-family="Helvetica,sans-Serif" font-size="11.00">situation_geometry</text>
<polygon fill="none" stroke="black" points="506,-117 506,-139 763,-139 763,-117 506,-117"/>
<text text-anchor="start" x="509" y="-125.2" font-family="Helvetica,sans-Serif" font-size="11.00">geometry[2147483647]</text>
<polygon fill="#ffffff" stroke="transparent" points="343,-99 343,-117 763,-117 763,-99 343,-99"/>
<polygon fill="none" stroke="black" points="343,-99 343,-117 763,-117 763,-99 343,-99"/>
<polygon fill="#ffffff" stroke="transparent" points="344,-100 344,-116 488,-116 488,-100 344,-100"/>
<text text-anchor="start" x="346" y="-105.2" font-family="Helvetica,sans-Serif" font-size="11.00">&lt; 1</text>
<polygon fill="#ffffff" stroke="transparent" points="488,-100 488,-116 619,-116 619,-100 488,-100"/>
<text text-anchor="start" x="549.5" y="-105.2" font-family="Helvetica,sans-Serif" font-size="11.00"> &#160;</text>
<polygon fill="#ffffff" stroke="transparent" points="619,-100 619,-116 762,-116 762,-100 619,-100"/>
<text text-anchor="start" x="740" y="-105.2" font-family="Helvetica,sans-Serif" font-size="11.00">0 &gt;</text>
<polygon fill="black" stroke="black" points="488,-100 488,-116 488,-116 488,-100 488,-100"/>
<polygon fill="black" stroke="black" points="619,-100 619,-116 619,-116 619,-100 619,-100"/>
<polygon fill="none" stroke="black" stroke-width="2" points="342,-98 342,-206 764,-206 764,-98 342,-98"/>
</a>
</g>
</g>
<!-- connection_object -->
<g id="node2" class="node">
<title>connection_object</title>
<g id="a_node2"><a xlink:href="../../tables/connection_object.html" xlink:title="connection_object" target="_top">
<polygon fill="#ffffff" stroke="transparent" points="8,-37 8,-205 292,-205 292,-37 8,-37"/>
<polygon fill="#f5f5f5" stroke="transparent" points="8,-183 8,-205 292,-205 292,-183 8,-183"/>
<polygon fill="none" stroke="black" points="8,-183 8,-205 292,-205 292,-183 8,-183"/>
<text text-anchor="start" x="13" y="-192.2" font-family="Helvetica,sans-Serif" font-weight="bold" font-size="11.00">connection_object</text>
<text text-anchor="start" x="250" y="-191.2" font-family="Helvetica,sans-Serif" font-size="11.00">[table]</text>
<polygon fill="none" stroke="black" points="8,-161 8,-183 292,-183 292,-161 8,-161"/>
<image xlink:href="../../images/primaryKeys.png" width="11px" height="12px" preserveAspectRatio="xMinYMin meet" x="13" y="-178"/>
<text text-anchor="start" x="28" y="-169.2" font-family="Helvetica,sans-Serif" font-size="11.00">obj_id</text>
<polygon fill="#ffffff" stroke="transparent" points="8,-139 8,-161 292,-161 292,-139 8,-139"/>
<polygon fill="none" stroke="black" points="8,-139 8,-161 292,-161 292,-139 8,-139"/>
<text text-anchor="start" x="28" y="-147.2" font-family="Helvetica,sans-Serif" font-size="11.00">identifier</text>
<polygon fill="#ffffff" stroke="transparent" points="8,-117 8,-139 292,-139 292,-117 8,-117"/>
<polygon fill="none" stroke="black" points="8,-117 8,-139 292,-139 292,-117 8,-117"/>
<image xlink:href="../../images/foreignKeys.png" width="11px" height="12px" preserveAspectRatio="xMinYMin meet" x="13" y="-134"/>
<text text-anchor="start" x="28" y="-125.2" font-family="Helvetica,sans-Serif" font-size="11.00">fk_dataowner</text>
<polygon fill="none" stroke="black" points="8,-95 8,-117 292,-117 292,-95 8,-95"/>
<image xlink:href="../../images/foreignKeys.png" width="11px" height="12px" preserveAspectRatio="xMinYMin meet" x="13" y="-112"/>
<text text-anchor="start" x="28" y="-103.2" font-family="Helvetica,sans-Serif" font-size="11.00">fk_provider</text>
<polygon fill="none" stroke="black" points="8,-73 8,-95 292,-95 292,-73 8,-73"/>
<image xlink:href="../../images/foreignKeys.png" width="11px" height="12px" preserveAspectRatio="xMinYMin meet" x="13" y="-90"/>
<text text-anchor="start" x="28" y="-81.2" font-family="Helvetica,sans-Serif" font-size="11.00">fk_wastewater_networkelement</text>
<polygon fill="none" stroke="black" points="8,-55 8,-73 292,-73 292,-55 8,-55"/>
<text text-anchor="start" x="11" y="-61.2" font-family="Helvetica,sans-Serif" font-size="11.00">...</text>
<polygon fill="#ffffff" stroke="transparent" points="8,-37 8,-55 292,-55 292,-37 8,-37"/>
<polygon fill="none" stroke="black" points="8,-37 8,-55 292,-55 292,-37 8,-37"/>
<polygon fill="#ffffff" stroke="transparent" points="9,-38 9,-54 107,-54 107,-38 9,-38"/>
<text text-anchor="start" x="11" y="-43.2" font-family="Helvetica,sans-Serif" font-size="11.00">&lt; 3</text>
<polygon fill="#ffffff" stroke="transparent" points="107,-38 107,-54 193,-54 193,-38 107,-38"/>
<text text-anchor="start" x="146" y="-43.2" font-family="Helvetica,sans-Serif" font-size="11.00"> &#160;</text>
<polygon fill="#ffffff" stroke="transparent" points="193,-38 193,-54 291,-54 291,-38 193,-38"/>
<text text-anchor="start" x="269" y="-43.2" font-family="Helvetica,sans-Serif" font-size="11.00">4 &gt;</text>
<polygon fill="black" stroke="black" points="107,-38 107,-54 107,-54 107,-38 107,-38"/>
<polygon fill="black" stroke="black" points="193,-38 193,-54 193,-54 193,-38 193,-38"/>
</a>
</g>
</g>
<!-- reservoir&#45;&gt;connection_object -->
<g id="edge1" class="edge">
<title>reservoir:w&#45;&gt;connection_object:e</title>
<path fill="none" stroke="black" d="M331.26,-172C317.61,-172 310.69,-172 293,-172"/>
<polygon fill="black" stroke="black" points="341.2,-168 341.2,-176 339.6,-176 339.6,-168 341.2,-168"/>
<polyline fill="none" stroke="black" points="342,-172 338,-172 "/>
<ellipse fill="none" stroke="black" cx="334.8" cy="-172" rx="3.2" ry="3.2"/>
</g>
</g>
</svg>
