<?xml version="1.0" encoding="UTF-8" standalone="no"?>
<!DOCTYPE svg PUBLIC "-//W3C//DTD SVG 1.1//EN"
 "http://www.w3.org/Graphics/SVG/1.1/DTD/svg11.dtd">
<!-- Generated by graphviz version 2.43.0 (0)
 -->
<!-- Title: oneDegreeRelationshipsDiagram Pages: 1 -->
<svg width="639pt" height="736pt"
 viewBox="0.00 0.00 639.00 736.00" xmlns="http://www.w3.org/2000/svg" xmlns:xlink="http://www.w3.org/1999/xlink">
<g id="graph0" class="graph" transform="scale(1 1) rotate(0) translate(4 732)">
<title>oneDegreeRelationshipsDiagram</title>
<polygon fill="#ffffff" stroke="transparent" points="-4,4 -4,-732 635,-732 635,4 -4,4"/>
<text text-anchor="middle" x="79.5" y="-7.2" font-family="Helvetica,sans-Serif" font-size="11.00">Generated by SchemaSpy</text>
<!-- tww_reach_point_label -->
<g id="node1" class="node">
<title>tww_reach_point_label</title>
<g id="a_node1"><a xlink:href="../../tables/tww_reach_point_label.html" xlink:title="tww_reach_point_label" target="_top">
<polygon fill="#ffffff" stroke="transparent" points="311,-444 311,-598 623,-598 623,-444 311,-444"/>
<polygon fill="#f5f5f5" stroke="transparent" points="313,-574 313,-596 621,-596 621,-574 313,-574"/>
<polygon fill="none" stroke="black" points="313,-574 313,-596 621,-596 621,-574 313,-574"/>
<text text-anchor="start" x="318" y="-583.2" font-family="Helvetica,sans-Serif" font-weight="bold" font-size="11.00">tww_reach_point_label</text>
<text text-anchor="start" x="579" y="-582.2" font-family="Helvetica,sans-Serif" font-size="11.00">[table]</text>
<polygon fill="none" stroke="black" points="313,-552 313,-574 515,-574 515,-552 313,-552"/>
<image xlink:href="../../images/primaryKeys.png" width="11px" height="12px" preserveAspectRatio="xMinYMin meet" x="318" y="-569"/>
<text text-anchor="start" x="333" y="-560.2" font-family="Helvetica,sans-Serif" font-size="11.00">fk_reach_point</text>
<polygon fill="none" stroke="black" points="515,-552 515,-574 621,-574 621,-552 515,-552"/>
<text text-anchor="start" x="518" y="-560.2" font-family="Helvetica,sans-Serif" font-size="11.00">varchar[16]</text>
<polygon fill="none" stroke="black" points="313,-530 313,-552 515,-552 515,-530 313,-530"/>
<image xlink:href="../../images/foreignKeys.png" width="11px" height="12px" preserveAspectRatio="xMinYMin meet" x="318" y="-547"/>
<text text-anchor="start" x="333" y="-538.2" font-family="Helvetica,sans-Serif" font-size="11.00">fk_wastewater_structure</text>
<polygon fill="none" stroke="black" points="515,-530 515,-552 621,-552 621,-530 515,-530"/>
<text text-anchor="start" x="518" y="-538.2" font-family="Helvetica,sans-Serif" font-size="11.00">varchar[16]</text>
<polygon fill="none" stroke="black" points="313,-508 313,-530 515,-530 515,-508 313,-508"/>
<text text-anchor="start" x="333" y="-516.2" font-family="Helvetica,sans-Serif" font-size="11.00">label_text</text>
<polygon fill="none" stroke="black" points="515,-508 515,-530 621,-530 621,-508 515,-508"/>
<text text-anchor="start" x="518" y="-516.2" font-family="Helvetica,sans-Serif" font-size="11.00">text[2147483647]</text>
<polygon fill="none" stroke="black" points="313,-486 313,-508 515,-508 515,-486 313,-486"/>
<text text-anchor="start" x="333" y="-494.2" font-family="Helvetica,sans-Serif" font-size="11.00">azimuth</text>
<polygon fill="none" stroke="black" points="515,-486 515,-508 621,-508 621,-486 515,-486"/>
<text text-anchor="start" x="518" y="-494.2" font-family="Helvetica,sans-Serif" font-size="11.00">numeric[4,3]</text>
<polygon fill="none" stroke="black" points="313,-464 313,-486 515,-486 515,-464 313,-464"/>
<text text-anchor="start" x="333" y="-472.2" font-family="Helvetica,sans-Serif" font-size="11.00">_usage_current</text>
<polygon fill="none" stroke="black" points="515,-464 515,-486 621,-486 621,-464 515,-464"/>
<text text-anchor="start" x="518" y="-472.2" font-family="Helvetica,sans-Serif" font-size="11.00">int2[5]</text>
<polygon fill="#ffffff" stroke="transparent" points="313,-446 313,-464 621,-464 621,-446 313,-446"/>
<polygon fill="none" stroke="black" points="313,-446 313,-464 621,-464 621,-446 313,-446"/>
<polygon fill="#ffffff" stroke="transparent" points="314,-447 314,-463 420,-463 420,-447 314,-447"/>
<text text-anchor="start" x="316" y="-452.2" font-family="Helvetica,sans-Serif" font-size="11.00">&lt; 2</text>
<polygon fill="#ffffff" stroke="transparent" points="420,-447 420,-463 514,-463 514,-447 420,-447"/>
<text text-anchor="start" x="463" y="-452.2" font-family="Helvetica,sans-Serif" font-size="11.00"> &#160;</text>
<polygon fill="#ffffff" stroke="transparent" points="514,-447 514,-463 620,-463 620,-447 514,-447"/>
<text text-anchor="start" x="598" y="-452.2" font-family="Helvetica,sans-Serif" font-size="11.00">0 &gt;</text>
<polygon fill="black" stroke="black" points="420,-447 420,-463 420,-463 420,-447 420,-447"/>
<polygon fill="black" stroke="black" points="514,-447 514,-463 514,-463 514,-447 514,-447"/>
<polygon fill="none" stroke="black" stroke-width="2" points="312,-445 312,-597 622,-597 622,-445 312,-445"/>
</a>
</g>
</g>
<!-- reach_point -->
<g id="node2" class="node">
<title>reach_point</title>
<g id="a_node2"><a xlink:href="../../tables/reach_point.html" xlink:title="reach_point" target="_top">
<polygon fill="#ffffff" stroke="transparent" points="8,-468 8,-724 262,-724 262,-468 8,-468"/>
<polygon fill="#f5f5f5" stroke="transparent" points="8,-702 8,-724 262,-724 262,-702 8,-702"/>
<polygon fill="none" stroke="black" points="8,-702 8,-724 262,-724 262,-702 8,-702"/>
<text text-anchor="start" x="13" y="-711.2" font-family="Helvetica,sans-Serif" font-weight="bold" font-size="11.00">reach_point</text>
<text text-anchor="start" x="220" y="-710.2" font-family="Helvetica,sans-Serif" font-size="11.00">[table]</text>
<polygon fill="none" stroke="black" points="8,-680 8,-702 262,-702 262,-680 8,-680"/>
<image xlink:href="../../images/primaryKeys.png" width="11px" height="12px" preserveAspectRatio="xMinYMin meet" x="13" y="-697"/>
<text text-anchor="start" x="28" y="-688.2" font-family="Helvetica,sans-Serif" font-size="11.00">obj_id</text>
<polygon fill="none" stroke="black" points="8,-658 8,-680 262,-680 262,-658 8,-658"/>
<image xlink:href="../../images/foreignKeys.png" width="11px" height="12px" preserveAspectRatio="xMinYMin meet" x="13" y="-675"/>
<text text-anchor="start" x="28" y="-666.2" font-family="Helvetica,sans-Serif" font-size="11.00">elevation_accuracy</text>
<polygon fill="#ffffff" stroke="transparent" points="8,-636 8,-658 262,-658 262,-636 8,-636"/>
<polygon fill="none" stroke="black" points="8,-636 8,-658 262,-658 262,-636 8,-636"/>
<text text-anchor="start" x="28" y="-644.2" font-family="Helvetica,sans-Serif" font-size="11.00">identifier</text>
<polygon fill="none" stroke="black" points="8,-614 8,-636 262,-636 262,-614 8,-614"/>
<image xlink:href="../../images/foreignKeys.png" width="11px" height="12px" preserveAspectRatio="xMinYMin meet" x="13" y="-631"/>
<text text-anchor="start" x="28" y="-622.2" font-family="Helvetica,sans-Serif" font-size="11.00">outlet_shape</text>
<polygon fill="none" stroke="black" points="8,-592 8,-614 262,-614 262,-592 8,-592"/>
<image xlink:href="../../images/foreignKeys.png" width="11px" height="12px" preserveAspectRatio="xMinYMin meet" x="13" y="-609"/>
<text text-anchor="start" x="28" y="-600.2" font-family="Helvetica,sans-Serif" font-size="11.00">pipe_closure</text>
<polygon fill="#ffffff" stroke="transparent" points="8,-570 8,-592 262,-592 262,-570 8,-570"/>
<polygon fill="none" stroke="black" points="8,-570 8,-592 262,-592 262,-570 8,-570"/>
<text text-anchor="start" x="28" y="-578.2" font-family="Helvetica,sans-Serif" font-size="11.00">situation3d_geometry</text>
<polygon fill="#ffffff" stroke="transparent" points="8,-548 8,-570 262,-570 262,-548 8,-548"/>
<polygon fill="none" stroke="black" points="8,-548 8,-570 262,-570 262,-548 8,-548"/>
<image xlink:href="../../images/foreignKeys.png" width="11px" height="12px" preserveAspectRatio="xMinYMin meet" x="13" y="-565"/>
<text text-anchor="start" x="28" y="-556.2" font-family="Helvetica,sans-Serif" font-size="11.00">fk_dataowner</text>
<polygon fill="none" stroke="black" points="8,-526 8,-548 262,-548 262,-526 8,-526"/>
<image xlink:href="../../images/foreignKeys.png" width="11px" height="12px" preserveAspectRatio="xMinYMin meet" x="13" y="-543"/>
<text text-anchor="start" x="28" y="-534.2" font-family="Helvetica,sans-Serif" font-size="11.00">fk_provider</text>
<polygon fill="#ffffff" stroke="transparent" points="8,-504 8,-526 262,-526 262,-504 8,-504"/>
<polygon fill="none" stroke="black" points="8,-504 8,-526 262,-526 262,-504 8,-504"/>
<image xlink:href="../../images/foreignKeys.png" width="11px" height="12px" preserveAspectRatio="xMinYMin meet" x="13" y="-521"/>
<text text-anchor="start" x="28" y="-512.2" font-family="Helvetica,sans-Serif" font-size="11.00">fk_wastewater_networkelement</text>
<polygon fill="none" stroke="black" points="8,-486 8,-504 262,-504 262,-486 8,-486"/>
<text text-anchor="start" x="11" y="-492.2" font-family="Helvetica,sans-Serif" font-size="11.00">...</text>
<polygon fill="#ffffff" stroke="transparent" points="8,-468 8,-486 262,-486 262,-468 8,-468"/>
<polygon fill="none" stroke="black" points="8,-468 8,-486 262,-486 262,-468 8,-468"/>
<polygon fill="#ffffff" stroke="transparent" points="9,-469 9,-485 97,-485 97,-469 9,-469"/>
<text text-anchor="start" x="11" y="-474.2" font-family="Helvetica,sans-Serif" font-size="11.00">&lt; 6</text>
<polygon fill="#ffffff" stroke="transparent" points="97,-469 97,-485 173,-485 173,-469 97,-469"/>
<text text-anchor="start" x="131" y="-474.2" font-family="Helvetica,sans-Serif" font-size="11.00"> &#160;</text>
<polygon fill="#ffffff" stroke="transparent" points="173,-469 173,-485 261,-485 261,-469 173,-469"/>
<text text-anchor="start" x="239" y="-474.2" font-family="Helvetica,sans-Serif" font-size="11.00">6 &gt;</text>
<polygon fill="black" stroke="black" points="97,-469 97,-485 97,-485 97,-469 97,-469"/>
<polygon fill="black" stroke="black" points="173,-469 173,-485 173,-485 173,-469 173,-469"/>
</a>
</g>
</g>
<!-- tww_reach_point_label&#45;&gt;reach_point -->
<g id="edge1" class="edge">
<title>tww_reach_point_label:w&#45;&gt;reach_point:e</title>
<path fill="none" stroke="black" d="M301.56,-564.62C260.17,-579.44 319.87,-691 263,-691"/>
<polygon fill="black" stroke="black" points="310.6,-559.17 311.82,-567.08 310.24,-567.32 309.02,-559.41 310.6,-559.17"/>
<polyline fill="none" stroke="black" points="312,-563 308.05,-563.61 "/>
<ellipse fill="none" stroke="black" cx="304.88" cy="-564.1" rx="3.2" ry="3.2"/>
</g>
<!-- wastewater_structure -->
<g id="node3" class="node">
<title>wastewater_structure</title>
<g id="a_node3"><a xlink:href="../../tables/wastewater_structure.html" xlink:title="wastewater_structure" target="_top">
<polygon fill="#ffffff" stroke="transparent" points="17.5,-37 17.5,-447 252.5,-447 252.5,-37 17.5,-37"/>
<polygon fill="#f5f5f5" stroke="transparent" points="18,-425 18,-447 253,-447 253,-425 18,-425"/>
<polygon fill="none" stroke="black" points="18,-425 18,-447 253,-447 253,-425 18,-425"/>
<text text-anchor="start" x="23" y="-434.2" font-family="Helvetica,sans-Serif" font-weight="bold" font-size="11.00">wastewater_structure</text>
<text text-anchor="start" x="211" y="-433.2" font-family="Helvetica,sans-Serif" font-size="11.00">[table]</text>
<polygon fill="none" stroke="black" points="18,-403 18,-425 253,-425 253,-403 18,-403"/>
<image xlink:href="../../images/primaryKeys.png" width="11px" height="12px" preserveAspectRatio="xMinYMin meet" x="23" y="-420"/>
<text text-anchor="start" x="38" y="-411.2" font-family="Helvetica,sans-Serif" font-size="11.00">obj_id</text>
<polygon fill="none" stroke="black" points="18,-381 18,-403 253,-403 253,-381 18,-381"/>
<image xlink:href="../../images/foreignKeys.png" width="11px" height="12px" preserveAspectRatio="xMinYMin meet" x="23" y="-398"/>
<text text-anchor="start" x="38" y="-389.2" font-family="Helvetica,sans-Serif" font-size="11.00">accessibility</text>
<polygon fill="#ffffff" stroke="transparent" points="18,-359 18,-381 253,-381 253,-359 18,-359"/>
<polygon fill="none" stroke="black" points="18,-359 18,-381 253,-381 253,-359 18,-359"/>
<text text-anchor="start" x="38" y="-367.2" font-family="Helvetica,sans-Serif" font-size="11.00">detail_geometry3d_geometry</text>
<polygon fill="none" stroke="black" points="18,-337 18,-359 253,-359 253,-337 18,-337"/>
<image xlink:href="../../images/foreignKeys.png" width="11px" height="12px" preserveAspectRatio="xMinYMin meet" x="23" y="-354"/>
<text text-anchor="start" x="38" y="-345.2" font-family="Helvetica,sans-Serif" font-size="11.00">elevation_determination</text>
<polygon fill="none" stroke="black" points="18,-315 18,-337 253,-337 253,-315 18,-315"/>
<image xlink:href="../../images/foreignKeys.png" width="11px" height="12px" preserveAspectRatio="xMinYMin meet" x="23" y="-332"/>
<text text-anchor="start" x="38" y="-323.2" font-family="Helvetica,sans-Serif" font-size="11.00">financing</text>
<polygon fill="#ffffff" stroke="transparent" points="18,-293 18,-315 253,-315 253,-293 18,-293"/>
<polygon fill="none" stroke="black" points="18,-293 18,-315 253,-315 253,-293 18,-293"/>
<text text-anchor="start" x="38" y="-301.2" font-family="Helvetica,sans-Serif" font-size="11.00">identifier</text>
<polygon fill="none" stroke="black" points="18,-271 18,-293 253,-293 253,-271 18,-271"/>
<image xlink:href="../../images/foreignKeys.png" width="11px" height="12px" preserveAspectRatio="xMinYMin meet" x="23" y="-288"/>
<text text-anchor="start" x="38" y="-279.2" font-family="Helvetica,sans-Serif" font-size="11.00">renovation_necessity</text>
<polygon fill="none" stroke="black" points="18,-249 18,-271 253,-271 253,-249 18,-249"/>
<image xlink:href="../../images/foreignKeys.png" width="11px" height="12px" preserveAspectRatio="xMinYMin meet" x="23" y="-266"/>
<text text-anchor="start" x="38" y="-257.2" font-family="Helvetica,sans-Serif" font-size="11.00">rv_construction_type</text>
<polygon fill="none" stroke="black" points="18,-227 18,-249 253,-249 253,-227 18,-227"/>
<image xlink:href="../../images/foreignKeys.png" width="11px" height="12px" preserveAspectRatio="xMinYMin meet" x="23" y="-244"/>
<text text-anchor="start" x="38" y="-235.2" font-family="Helvetica,sans-Serif" font-size="11.00">status</text>
<polygon fill="none" stroke="black" points="18,-205 18,-227 253,-227 253,-205 18,-205"/>
<image xlink:href="../../images/foreignKeys.png" width="11px" height="12px" preserveAspectRatio="xMinYMin meet" x="23" y="-222"/>
<text text-anchor="start" x="38" y="-213.2" font-family="Helvetica,sans-Serif" font-size="11.00">structure_condition</text>
<polygon fill="#ffffff" stroke="transparent" points="18,-183 18,-205 253,-205 253,-183 18,-183"/>
<polygon fill="none" stroke="black" points="18,-183 18,-205 253,-205 253,-183 18,-183"/>
<image xlink:href="../../images/foreignKeys.png" width="11px" height="12px" preserveAspectRatio="xMinYMin meet" x="23" y="-200"/>
<text text-anchor="start" x="38" y="-191.2" font-family="Helvetica,sans-Serif" font-size="11.00">fk_dataowner</text>
<polygon fill="none" stroke="black" points="18,-161 18,-183 253,-183 253,-161 18,-161"/>
<image xlink:href="../../images/foreignKeys.png" width="11px" height="12px" preserveAspectRatio="xMinYMin meet" x="23" y="-178"/>
<text text-anchor="start" x="38" y="-169.2" font-family="Helvetica,sans-Serif" font-size="11.00">fk_provider</text>
<polygon fill="#ffffff" stroke="transparent" points="18,-139 18,-161 253,-161 253,-139 18,-139"/>
<polygon fill="none" stroke="black" points="18,-139 18,-161 253,-161 253,-139 18,-139"/>
<image xlink:href="../../images/foreignKeys.png" width="11px" height="12px" preserveAspectRatio="xMinYMin meet" x="23" y="-156"/>
<text text-anchor="start" x="38" y="-147.2" font-family="Helvetica,sans-Serif" font-size="11.00">fk_owner</text>
<polygon fill="none" stroke="black" points="18,-117 18,-139 253,-139 253,-117 18,-117"/>
<image xlink:href="../../images/foreignKeys.png" width="11px" height="12px" preserveAspectRatio="xMinYMin meet" x="23" y="-134"/>
<text text-anchor="start" x="38" y="-125.2" font-family="Helvetica,sans-Serif" font-size="11.00">fk_operator</text>
<polygon fill="#ffffff" stroke="transparent" points="18,-95 18,-117 253,-117 253,-95 18,-95"/>
<polygon fill="none" stroke="black" points="18,-95 18,-117 253,-117 253,-95 18,-95"/>
<image xlink:href="../../images/foreignKeys.png" width="11px" height="12px" preserveAspectRatio="xMinYMin meet" x="23" y="-112"/>
<text text-anchor="start" x="38" y="-103.2" font-family="Helvetica,sans-Serif" font-size="11.00">fk_main_cover</text>
<polygon fill="#ffffff" stroke="transparent" points="18,-73 18,-95 253,-95 253,-73 18,-73"/>
<polygon fill="none" stroke="black" points="18,-73 18,-95 253,-95 253,-73 18,-73"/>
<image xlink:href="../../images/foreignKeys.png" width="11px" height="12px" preserveAspectRatio="xMinYMin meet" x="23" y="-90"/>
<text text-anchor="start" x="38" y="-81.2" font-family="Helvetica,sans-Serif" font-size="11.00">fk_main_wastewater_node</text>
<polygon fill="none" stroke="black" points="18,-55 18,-73 253,-73 253,-55 18,-55"/>
<text text-anchor="start" x="21" y="-61.2" font-family="Helvetica,sans-Serif" font-size="11.00">...</text>
<polygon fill="#ffffff" stroke="transparent" points="18,-37 18,-55 253,-55 253,-37 18,-37"/>
<polygon fill="none" stroke="black" points="18,-37 18,-55 253,-55 253,-37 18,-37"/>
<polygon fill="#ffffff" stroke="transparent" points="19,-38 19,-54 103,-54 103,-38 19,-38"/>
<text text-anchor="start" x="21" y="-43.2" font-family="Helvetica,sans-Serif" font-size="11.00">&lt; 13</text>
<polygon fill="#ffffff" stroke="transparent" points="103,-38 103,-54 168,-54 168,-38 103,-38"/>
<text text-anchor="start" x="131.5" y="-43.2" font-family="Helvetica,sans-Serif" font-size="11.00"> &#160;</text>
<polygon fill="#ffffff" stroke="transparent" points="168,-38 168,-54 252,-54 252,-38 168,-38"/>
<text text-anchor="start" x="223" y="-43.2" font-family="Helvetica,sans-Serif" font-size="11.00">19 &gt;</text>
<polygon fill="black" stroke="black" points="103,-38 103,-54 103,-54 103,-38 103,-38"/>
<polygon fill="black" stroke="black" points="168,-38 168,-54 168,-54 168,-38 168,-38"/>
</a>
</g>
</g>
<!-- tww_reach_point_label&#45;&gt;wastewater_structure -->
<g id="edge2" class="edge">
<title>tww_reach_point_label:w&#45;&gt;wastewater_structure:e</title>
<path fill="none" stroke="black" d="M297.72,-537.86C261.22,-518.3 310.23,-414 254,-414"/>
<polygon fill="black" stroke="black" points="304.19,-539.28 311.23,-544.52 308.09,-540.14 312,-541 312,-541 312,-541 308.09,-540.14 312.77,-537.48 304.19,-539.28 304.19,-539.28"/>
<ellipse fill="none" stroke="black" cx="301.06" cy="-538.6" rx="3.2" ry="3.2"/>
</g>
</g>
</svg>
