<?xml version="1.0" encoding="UTF-8" standalone="no"?>
<!DOCTYPE svg PUBLIC "-//W3C//DTD SVG 1.1//EN"
 "http://www.w3.org/Graphics/SVG/1.1/DTD/svg11.dtd">
<!-- Generated by graphviz version 2.47.1 (20210515.0534)
 -->
<!-- Title: oneDegreeRelationshipsDiagram Pages: 1 -->
<svg width="717pt" height="443pt"
 viewBox="0.00 0.00 717.00 443.00" xmlns="http://www.w3.org/2000/svg" xmlns:xlink="http://www.w3.org/1999/xlink">
<g id="graph0" class="graph" transform="scale(1 1) rotate(0) translate(4 439)">
<title>oneDegreeRelationshipsDiagram</title>
<polygon fill="#ffffff" stroke="transparent" points="-4,4 -4,-439 713,-439 713,4 -4,4"/>
<text text-anchor="middle" x="73.5" y="-7.2" font-family="Helvetica,sans-Serif" font-size="11.00">Generated by SchemaSpy</text>
<!-- tww_od.catchment_area -->
<g id="node1" class="node">
<title>tww_od.catchment_area</title>
<g id="a_node1"><a xlink:href="../../../tww_od/tables/catchment_area.html" xlink:title="tww_od.catchment_area" target="_top">
<polygon fill="#ffffff" stroke="transparent" points="408,-197 408,-431 701,-431 701,-197 408,-197"/>
<polygon fill="#f5f5f5" stroke="transparent" points="408.5,-409 408.5,-431 701.5,-431 701.5,-409 408.5,-409"/>
<polygon fill="none" stroke="black" points="408.5,-409 408.5,-431 701.5,-431 701.5,-409 408.5,-409"/>
<text text-anchor="start" x="413.5" y="-418.2" font-family="Helvetica,sans-Serif" font-weight="bold" font-size="11.00">tww_od.catchment_area</text>
<text text-anchor="start" x="662.5" y="-417.2" font-family="Helvetica,sans-Serif" font-size="11.00">[table]</text>
<polygon fill="none" stroke="black" points="408.5,-387 408.5,-409 701.5,-409 701.5,-387 408.5,-387"/>
<image xlink:href="../../images/foreignKeys.png" width="11px" height="12px" preserveAspectRatio="xMinYMin meet" x="413.5" y="-404"/>
<text text-anchor="start" x="428.5" y="-395.2" font-family="Helvetica,sans-Serif" font-size="11.00">direct_discharge_current</text>
<polygon fill="none" stroke="black" points="408.5,-365 408.5,-387 701.5,-387 701.5,-365 408.5,-365"/>
<image xlink:href="../../images/foreignKeys.png" width="11px" height="12px" preserveAspectRatio="xMinYMin meet" x="413.5" y="-382"/>
<text text-anchor="start" x="428.5" y="-373.2" font-family="Helvetica,sans-Serif" font-size="11.00">direct_discharge_planned</text>
<polygon fill="none" stroke="black" points="408.5,-343 408.5,-365 701.5,-365 701.5,-343 408.5,-343"/>
<image xlink:href="../../images/foreignKeys.png" width="11px" height="12px" preserveAspectRatio="xMinYMin meet" x="413.5" y="-360"/>
<text text-anchor="start" x="428.5" y="-351.2" font-family="Helvetica,sans-Serif" font-size="11.00">drainage_system_current</text>
<polygon fill="none" stroke="black" points="408.5,-321 408.5,-343 701.5,-343 701.5,-321 408.5,-321"/>
<image xlink:href="../../images/foreignKeys.png" width="11px" height="12px" preserveAspectRatio="xMinYMin meet" x="413.5" y="-338"/>
<text text-anchor="start" x="428.5" y="-329.2" font-family="Helvetica,sans-Serif" font-size="11.00">drainage_system_planned</text>
<polygon fill="none" stroke="black" points="408.5,-299 408.5,-321 701.5,-321 701.5,-299 408.5,-299"/>
<image xlink:href="../../images/foreignKeys.png" width="11px" height="12px" preserveAspectRatio="xMinYMin meet" x="413.5" y="-316"/>
<text text-anchor="start" x="428.5" y="-307.2" font-family="Helvetica,sans-Serif" font-size="11.00">infiltration_current</text>
<polygon fill="none" stroke="black" points="408.5,-277 408.5,-299 701.5,-299 701.5,-277 408.5,-277"/>
<image xlink:href="../../images/foreignKeys.png" width="11px" height="12px" preserveAspectRatio="xMinYMin meet" x="413.5" y="-294"/>
<text text-anchor="start" x="428.5" y="-285.2" font-family="Helvetica,sans-Serif" font-size="11.00">infiltration_planned</text>
<polygon fill="none" stroke="black" points="408.5,-255 408.5,-277 701.5,-277 701.5,-255 408.5,-255"/>
<image xlink:href="../../images/foreignKeys.png" width="11px" height="12px" preserveAspectRatio="xMinYMin meet" x="413.5" y="-272"/>
<text text-anchor="start" x="428.5" y="-263.2" font-family="Helvetica,sans-Serif" font-size="11.00">retention_current</text>
<polygon fill="none" stroke="black" points="408.5,-233 408.5,-255 701.5,-255 701.5,-233 408.5,-233"/>
<image xlink:href="../../images/foreignKeys.png" width="11px" height="12px" preserveAspectRatio="xMinYMin meet" x="413.5" y="-250"/>
<text text-anchor="start" x="428.5" y="-241.2" font-family="Helvetica,sans-Serif" font-size="11.00">retention_planned</text>
<polygon fill="none" stroke="black" points="408.5,-215 408.5,-233 701.5,-233 701.5,-215 408.5,-215"/>
<text text-anchor="start" x="411.5" y="-221.2" font-family="Helvetica,sans-Serif" font-size="11.00">...</text>
<polygon fill="#ffffff" stroke="transparent" points="408.5,-197 408.5,-215 539.5,-215 539.5,-197 408.5,-197"/>
<polygon fill="none" stroke="black" points="408.5,-197 408.5,-215 539.5,-215 539.5,-197 408.5,-197"/>
<text text-anchor="start" x="411.5" y="-203.2" font-family="Helvetica,sans-Serif" font-size="11.00">&lt; 8</text>
<polygon fill="#ffffff" stroke="transparent" points="539.5,-197 539.5,-215 633.5,-215 633.5,-197 539.5,-197"/>
<polygon fill="none" stroke="black" points="539.5,-197 539.5,-215 633.5,-215 633.5,-197 539.5,-197"/>
<text text-anchor="start" x="596.5" y="-203.2" font-family="Helvetica,sans-Serif" font-size="11.00">0 rows</text>
<polygon fill="#ffffff" stroke="transparent" points="633.5,-197 633.5,-215 701.5,-215 701.5,-197 633.5,-197"/>
<polygon fill="none" stroke="black" points="633.5,-197 633.5,-215 701.5,-215 701.5,-197 633.5,-197"/>
<text text-anchor="start" x="691.5" y="-203.2" font-family="Helvetica,sans-Serif" font-size="11.00"> &#160;</text>
</a>
</g>
</g>
<!-- catchment_area_drainage_system_planned -->
<g id="node2" class="node">
<title>catchment_area_drainage_system_planned</title>
<g id="a_node2"><a xlink:href="../../tables/catchment_area_drainage_system_planned.html" xlink:title="catchment_area_drainage_system_planned" target="_top">
<polygon fill="#ffffff" stroke="transparent" points="8,-37 8,-367 359,-367 359,-37 8,-37"/>
<polygon fill="#f5f5f5" stroke="transparent" points="10.5,-343 10.5,-365 357.5,-365 357.5,-343 10.5,-343"/>
<polygon fill="none" stroke="black" points="10.5,-343 10.5,-365 357.5,-365 357.5,-343 10.5,-343"/>
<text text-anchor="start" x="15.5" y="-352.2" font-family="Helvetica,sans-Serif" font-weight="bold" font-size="11.00">catchment_area_drainage_system_planned</text>
<text text-anchor="start" x="318.5" y="-351.2" font-family="Helvetica,sans-Serif" font-size="11.00">[table]</text>
<polygon fill="none" stroke="black" points="10.5,-321 10.5,-343 287.5,-343 287.5,-321 10.5,-321"/>
<image xlink:href="../../images/primaryKeys.png" width="11px" height="12px" preserveAspectRatio="xMinYMin meet" x="15.5" y="-338"/>
<text text-anchor="start" x="30.5" y="-329.2" font-family="Helvetica,sans-Serif" font-size="11.00">code</text>
<polygon fill="none" stroke="black" points="287.5,-321 287.5,-343 357.5,-343 357.5,-321 287.5,-321"/>
<text text-anchor="start" x="290.5" y="-329.2" font-family="Helvetica,sans-Serif" font-size="11.00">int4[10]</text>
<polygon fill="none" stroke="black" points="10.5,-299 10.5,-321 287.5,-321 287.5,-299 10.5,-299"/>
<text text-anchor="start" x="30.5" y="-307.2" font-family="Helvetica,sans-Serif" font-size="11.00">vsacode</text>
<polygon fill="none" stroke="black" points="287.5,-299 287.5,-321 357.5,-321 357.5,-299 287.5,-299"/>
<text text-anchor="start" x="290.5" y="-307.2" font-family="Helvetica,sans-Serif" font-size="11.00">int4[10]</text>
<polygon fill="none" stroke="black" points="10.5,-277 10.5,-299 287.5,-299 287.5,-277 10.5,-277"/>
<text text-anchor="start" x="30.5" y="-285.2" font-family="Helvetica,sans-Serif" font-size="11.00">value_en</text>
<polygon fill="none" stroke="black" points="287.5,-277 287.5,-299 357.5,-299 357.5,-277 287.5,-277"/>
<text text-anchor="start" x="290.5" y="-285.2" font-family="Helvetica,sans-Serif" font-size="11.00">varchar[100]</text>
<polygon fill="none" stroke="black" points="10.5,-255 10.5,-277 287.5,-277 287.5,-255 10.5,-255"/>
<text text-anchor="start" x="30.5" y="-263.2" font-family="Helvetica,sans-Serif" font-size="11.00">value_de</text>
<polygon fill="none" stroke="black" points="287.5,-255 287.5,-277 357.5,-277 357.5,-255 287.5,-255"/>
<text text-anchor="start" x="290.5" y="-263.2" font-family="Helvetica,sans-Serif" font-size="11.00">varchar[100]</text>
<polygon fill="none" stroke="black" points="10.5,-233 10.5,-255 287.5,-255 287.5,-233 10.5,-233"/>
<text text-anchor="start" x="30.5" y="-241.2" font-family="Helvetica,sans-Serif" font-size="11.00">value_fr</text>
<polygon fill="none" stroke="black" points="287.5,-233 287.5,-255 357.5,-255 357.5,-233 287.5,-233"/>
<text text-anchor="start" x="290.5" y="-241.2" font-family="Helvetica,sans-Serif" font-size="11.00">varchar[100]</text>
<polygon fill="none" stroke="black" points="10.5,-211 10.5,-233 287.5,-233 287.5,-211 10.5,-211"/>
<text text-anchor="start" x="30.5" y="-219.2" font-family="Helvetica,sans-Serif" font-size="11.00">value_it</text>
<polygon fill="none" stroke="black" points="287.5,-211 287.5,-233 357.5,-233 357.5,-211 287.5,-211"/>
<text text-anchor="start" x="290.5" y="-219.2" font-family="Helvetica,sans-Serif" font-size="11.00">varchar[100]</text>
<polygon fill="none" stroke="black" points="10.5,-189 10.5,-211 287.5,-211 287.5,-189 10.5,-189"/>
<text text-anchor="start" x="30.5" y="-197.2" font-family="Helvetica,sans-Serif" font-size="11.00">value_ro</text>
<polygon fill="none" stroke="black" points="287.5,-189 287.5,-211 357.5,-211 357.5,-189 287.5,-189"/>
<text text-anchor="start" x="290.5" y="-197.2" font-family="Helvetica,sans-Serif" font-size="11.00">varchar[100]</text>
<polygon fill="none" stroke="black" points="10.5,-167 10.5,-189 287.5,-189 287.5,-167 10.5,-167"/>
<text text-anchor="start" x="30.5" y="-175.2" font-family="Helvetica,sans-Serif" font-size="11.00">abbr_en</text>
<polygon fill="none" stroke="black" points="287.5,-167 287.5,-189 357.5,-189 357.5,-167 287.5,-167"/>
<text text-anchor="start" x="290.5" y="-175.2" font-family="Helvetica,sans-Serif" font-size="11.00">varchar[3]</text>
<polygon fill="none" stroke="black" points="10.5,-145 10.5,-167 287.5,-167 287.5,-145 10.5,-145"/>
<text text-anchor="start" x="30.5" y="-153.2" font-family="Helvetica,sans-Serif" font-size="11.00">abbr_de</text>
<polygon fill="none" stroke="black" points="287.5,-145 287.5,-167 357.5,-167 357.5,-145 287.5,-145"/>
<text text-anchor="start" x="290.5" y="-153.2" font-family="Helvetica,sans-Serif" font-size="11.00">varchar[3]</text>
<polygon fill="none" stroke="black" points="10.5,-123 10.5,-145 287.5,-145 287.5,-123 10.5,-123"/>
<text text-anchor="start" x="30.5" y="-131.2" font-family="Helvetica,sans-Serif" font-size="11.00">abbr_fr</text>
<polygon fill="none" stroke="black" points="287.5,-123 287.5,-145 357.5,-145 357.5,-123 287.5,-123"/>
<text text-anchor="start" x="290.5" y="-131.2" font-family="Helvetica,sans-Serif" font-size="11.00">varchar[3]</text>
<polygon fill="none" stroke="black" points="10.5,-101 10.5,-123 287.5,-123 287.5,-101 10.5,-101"/>
<text text-anchor="start" x="30.5" y="-109.2" font-family="Helvetica,sans-Serif" font-size="11.00">abbr_it</text>
<polygon fill="none" stroke="black" points="287.5,-101 287.5,-123 357.5,-123 357.5,-101 287.5,-101"/>
<text text-anchor="start" x="290.5" y="-109.2" font-family="Helvetica,sans-Serif" font-size="11.00">varchar[3]</text>
<polygon fill="none" stroke="black" points="10.5,-79 10.5,-101 287.5,-101 287.5,-79 10.5,-79"/>
<text text-anchor="start" x="30.5" y="-87.2" font-family="Helvetica,sans-Serif" font-size="11.00">abbr_ro</text>
<polygon fill="none" stroke="black" points="287.5,-79 287.5,-101 357.5,-101 357.5,-79 287.5,-79"/>
<text text-anchor="start" x="290.5" y="-87.2" font-family="Helvetica,sans-Serif" font-size="11.00">varchar[3]</text>
<polygon fill="none" stroke="black" points="10.5,-57 10.5,-79 287.5,-79 287.5,-57 10.5,-57"/>
<text text-anchor="start" x="30.5" y="-65.2" font-family="Helvetica,sans-Serif" font-size="11.00">active</text>
<polygon fill="none" stroke="black" points="287.5,-57 287.5,-79 357.5,-79 357.5,-57 287.5,-57"/>
<text text-anchor="start" x="290.5" y="-65.2" font-family="Helvetica,sans-Serif" font-size="11.00">bool[1]</text>
<polygon fill="#ffffff" stroke="transparent" points="10.5,-39 10.5,-57 153.5,-57 153.5,-39 10.5,-39"/>
<polygon fill="none" stroke="black" points="10.5,-39 10.5,-57 153.5,-57 153.5,-39 10.5,-39"/>
<text text-anchor="start" x="13.5" y="-45.2" font-family="Helvetica,sans-Serif" font-size="11.00">&lt; 0</text>
<polygon fill="#ffffff" stroke="transparent" points="153.5,-39 153.5,-57 287.5,-57 287.5,-39 153.5,-39"/>
<polygon fill="none" stroke="black" points="153.5,-39 153.5,-57 287.5,-57 287.5,-39 153.5,-39"/>
<text text-anchor="start" x="277.5" y="-45.2" font-family="Helvetica,sans-Serif" font-size="11.00"> &#160;</text>
<polygon fill="#ffffff" stroke="transparent" points="287.5,-39 287.5,-57 357.5,-57 357.5,-39 287.5,-39"/>
<polygon fill="none" stroke="black" points="287.5,-39 287.5,-57 357.5,-57 357.5,-39 287.5,-39"/>
<text text-anchor="start" x="338.5" y="-45.2" font-family="Helvetica,sans-Serif" font-size="11.00">1 &gt;</text>
<polygon fill="none" stroke="black" stroke-width="2" points="9,-38 9,-366 358,-366 358,-38 9,-38"/>
</a>
</g>
</g>
<!-- tww_od.catchment_area&#45;&gt;catchment_area_drainage_system_planned -->
<g id="edge1" class="edge">
<title>tww_od.catchment_area:w&#45;&gt;catchment_area_drainage_system_planned:e</title>
<path fill="none" stroke="black" d="M392.99,-332C381.68,-332 374.49,-332 358.5,-332"/>
<polygon fill="black" stroke="black" points="399.5,-332 407.5,-335.6 403.5,-332 407.5,-332 407.5,-332 407.5,-332 403.5,-332 407.5,-328.4 399.5,-332 399.5,-332"/>
<ellipse fill="none" stroke="black" cx="396.3" cy="-332" rx="3.2" ry="3.2"/>
</g>
</g>
</svg>
