<?xml version="1.0" encoding="UTF-8" standalone="no"?>
<!DOCTYPE svg PUBLIC "-//W3C//DTD SVG 1.1//EN"
 "http://www.w3.org/Graphics/SVG/1.1/DTD/svg11.dtd">
<!-- Generated by graphviz version 2.47.1 (20210515.0534)
 -->
<!-- Title: oneDegreeRelationshipsDiagram Pages: 1 -->
<svg width="571pt" height="379pt"
 viewBox="0.00 0.00 571.00 379.00" xmlns="http://www.w3.org/2000/svg" xmlns:xlink="http://www.w3.org/1999/xlink">
<g id="graph0" class="graph" transform="scale(1 1) rotate(0) translate(4 375)">
<title>oneDegreeRelationshipsDiagram</title>
<polygon fill="#ffffff" stroke="transparent" points="-4,4 -4,-375 567,-375 567,4 -4,4"/>
<text text-anchor="middle" x="73.5" y="-7.2" font-family="Helvetica,sans-Serif" font-size="11.00">Generated by SchemaSpy</text>
<!-- tww_od.catchment_area_text -->
<g id="node1" class="node">
<title>tww_od.catchment_area_text</title>
<g id="a_node1"><a xlink:href="../../../tww_od/tables/catchment_area_text.html" xlink:title="tww_od.catchment_area_text" target="_top">
<polygon fill="#ffffff" stroke="transparent" points="336,-241 336,-365 555,-365 555,-241 336,-241"/>
<polygon fill="#f5f5f5" stroke="transparent" points="336.5,-343 336.5,-365 555.5,-365 555.5,-343 336.5,-343"/>
<polygon fill="none" stroke="black" points="336.5,-343 336.5,-365 555.5,-365 555.5,-343 336.5,-343"/>
<text text-anchor="start" x="341.5" y="-352.2" font-family="Helvetica,sans-Serif" font-weight="bold" font-size="11.00">tww_od.catchment_area_text</text>
<text text-anchor="start" x="516.5" y="-351.2" font-family="Helvetica,sans-Serif" font-size="11.00">[table]</text>
<polygon fill="none" stroke="black" points="336.5,-321 336.5,-343 555.5,-343 555.5,-321 336.5,-321"/>
<image xlink:href="../../images/foreignKeys.png" width="11px" height="12px" preserveAspectRatio="xMinYMin meet" x="341.5" y="-338"/>
<text text-anchor="start" x="392.5" y="-329.2" font-family="Helvetica,sans-Serif" font-size="11.00">plantype</text>
<polygon fill="none" stroke="black" points="336.5,-299 336.5,-321 555.5,-321 555.5,-299 336.5,-299"/>
<image xlink:href="../../images/foreignKeys.png" width="11px" height="12px" preserveAspectRatio="xMinYMin meet" x="341.5" y="-316"/>
<text text-anchor="start" x="392.5" y="-307.2" font-family="Helvetica,sans-Serif" font-size="11.00">texthali</text>
<polygon fill="none" stroke="black" points="336.5,-277 336.5,-299 555.5,-299 555.5,-277 336.5,-277"/>
<image xlink:href="../../images/foreignKeys.png" width="11px" height="12px" preserveAspectRatio="xMinYMin meet" x="341.5" y="-294"/>
<text text-anchor="start" x="392.5" y="-285.2" font-family="Helvetica,sans-Serif" font-size="11.00">textvali</text>
<polygon fill="none" stroke="black" points="336.5,-259 336.5,-277 555.5,-277 555.5,-259 336.5,-259"/>
<text text-anchor="start" x="339.5" y="-265.2" font-family="Helvetica,sans-Serif" font-size="11.00">...</text>
<polygon fill="#ffffff" stroke="transparent" points="336.5,-241 336.5,-259 430.5,-259 430.5,-241 336.5,-241"/>
<polygon fill="none" stroke="black" points="336.5,-241 336.5,-259 430.5,-259 430.5,-241 336.5,-241"/>
<text text-anchor="start" x="339.5" y="-247.2" font-family="Helvetica,sans-Serif" font-size="11.00">&lt; 3</text>
<polygon fill="#ffffff" stroke="transparent" points="430.5,-241 430.5,-259 506.5,-259 506.5,-241 430.5,-241"/>
<polygon fill="none" stroke="black" points="430.5,-241 430.5,-259 506.5,-259 506.5,-241 430.5,-241"/>
<text text-anchor="start" x="469.5" y="-247.2" font-family="Helvetica,sans-Serif" font-size="11.00">0 rows</text>
<polygon fill="#ffffff" stroke="transparent" points="506.5,-241 506.5,-259 555.5,-259 555.5,-241 506.5,-241"/>
<polygon fill="none" stroke="black" points="506.5,-241 506.5,-259 555.5,-259 555.5,-241 506.5,-241"/>
<text text-anchor="start" x="545.5" y="-247.2" font-family="Helvetica,sans-Serif" font-size="11.00"> &#160;</text>
</a>
</g>
</g>
<!-- catchment_area_text_plantype -->
<g id="node2" class="node">
<title>catchment_area_text_plantype</title>
<g id="a_node2"><a xlink:href="../../tables/catchment_area_text_plantype.html" xlink:title="catchment_area_text_plantype" target="_top">
<polygon fill="#ffffff" stroke="transparent" points="8,-37 8,-367 287,-367 287,-37 8,-37"/>
<polygon fill="#f5f5f5" stroke="transparent" points="10.5,-343 10.5,-365 285.5,-365 285.5,-343 10.5,-343"/>
<polygon fill="none" stroke="black" points="10.5,-343 10.5,-365 285.5,-365 285.5,-343 10.5,-343"/>
<text text-anchor="start" x="15.5" y="-352.2" font-family="Helvetica,sans-Serif" font-weight="bold" font-size="11.00">catchment_area_text_plantype</text>
<text text-anchor="start" x="246.5" y="-351.2" font-family="Helvetica,sans-Serif" font-size="11.00">[table]</text>
<polygon fill="none" stroke="black" points="10.5,-321 10.5,-343 215.5,-343 215.5,-321 10.5,-321"/>
<image xlink:href="../../images/primaryKeys.png" width="11px" height="12px" preserveAspectRatio="xMinYMin meet" x="15.5" y="-338"/>
<text text-anchor="start" x="30.5" y="-329.2" font-family="Helvetica,sans-Serif" font-size="11.00">code</text>
<polygon fill="none" stroke="black" points="215.5,-321 215.5,-343 285.5,-343 285.5,-321 215.5,-321"/>
<text text-anchor="start" x="218.5" y="-329.2" font-family="Helvetica,sans-Serif" font-size="11.00">int4[10]</text>
<polygon fill="none" stroke="black" points="10.5,-299 10.5,-321 215.5,-321 215.5,-299 10.5,-299"/>
<text text-anchor="start" x="30.5" y="-307.2" font-family="Helvetica,sans-Serif" font-size="11.00">vsacode</text>
<polygon fill="none" stroke="black" points="215.5,-299 215.5,-321 285.5,-321 285.5,-299 215.5,-299"/>
<text text-anchor="start" x="218.5" y="-307.2" font-family="Helvetica,sans-Serif" font-size="11.00">int4[10]</text>
<polygon fill="none" stroke="black" points="10.5,-277 10.5,-299 215.5,-299 215.5,-277 10.5,-277"/>
<text text-anchor="start" x="30.5" y="-285.2" font-family="Helvetica,sans-Serif" font-size="11.00">value_en</text>
<polygon fill="none" stroke="black" points="215.5,-277 215.5,-299 285.5,-299 285.5,-277 215.5,-277"/>
<text text-anchor="start" x="218.5" y="-285.2" font-family="Helvetica,sans-Serif" font-size="11.00">varchar[100]</text>
<polygon fill="none" stroke="black" points="10.5,-255 10.5,-277 215.5,-277 215.5,-255 10.5,-255"/>
<text text-anchor="start" x="30.5" y="-263.2" font-family="Helvetica,sans-Serif" font-size="11.00">value_de</text>
<polygon fill="none" stroke="black" points="215.5,-255 215.5,-277 285.5,-277 285.5,-255 215.5,-255"/>
<text text-anchor="start" x="218.5" y="-263.2" font-family="Helvetica,sans-Serif" font-size="11.00">varchar[100]</text>
<polygon fill="none" stroke="black" points="10.5,-233 10.5,-255 215.5,-255 215.5,-233 10.5,-233"/>
<text text-anchor="start" x="30.5" y="-241.2" font-family="Helvetica,sans-Serif" font-size="11.00">value_fr</text>
<polygon fill="none" stroke="black" points="215.5,-233 215.5,-255 285.5,-255 285.5,-233 215.5,-233"/>
<text text-anchor="start" x="218.5" y="-241.2" font-family="Helvetica,sans-Serif" font-size="11.00">varchar[100]</text>
<polygon fill="none" stroke="black" points="10.5,-211 10.5,-233 215.5,-233 215.5,-211 10.5,-211"/>
<text text-anchor="start" x="30.5" y="-219.2" font-family="Helvetica,sans-Serif" font-size="11.00">value_it</text>
<polygon fill="none" stroke="black" points="215.5,-211 215.5,-233 285.5,-233 285.5,-211 215.5,-211"/>
<text text-anchor="start" x="218.5" y="-219.2" font-family="Helvetica,sans-Serif" font-size="11.00">varchar[100]</text>
<polygon fill="none" stroke="black" points="10.5,-189 10.5,-211 215.5,-211 215.5,-189 10.5,-189"/>
<text text-anchor="start" x="30.5" y="-197.2" font-family="Helvetica,sans-Serif" font-size="11.00">value_ro</text>
<polygon fill="none" stroke="black" points="215.5,-189 215.5,-211 285.5,-211 285.5,-189 215.5,-189"/>
<text text-anchor="start" x="218.5" y="-197.2" font-family="Helvetica,sans-Serif" font-size="11.00">varchar[100]</text>
<polygon fill="none" stroke="black" points="10.5,-167 10.5,-189 215.5,-189 215.5,-167 10.5,-167"/>
<text text-anchor="start" x="30.5" y="-175.2" font-family="Helvetica,sans-Serif" font-size="11.00">abbr_en</text>
<polygon fill="none" stroke="black" points="215.5,-167 215.5,-189 285.5,-189 285.5,-167 215.5,-167"/>
<text text-anchor="start" x="218.5" y="-175.2" font-family="Helvetica,sans-Serif" font-size="11.00">varchar[3]</text>
<polygon fill="none" stroke="black" points="10.5,-145 10.5,-167 215.5,-167 215.5,-145 10.5,-145"/>
<text text-anchor="start" x="30.5" y="-153.2" font-family="Helvetica,sans-Serif" font-size="11.00">abbr_de</text>
<polygon fill="none" stroke="black" points="215.5,-145 215.5,-167 285.5,-167 285.5,-145 215.5,-145"/>
<text text-anchor="start" x="218.5" y="-153.2" font-family="Helvetica,sans-Serif" font-size="11.00">varchar[3]</text>
<polygon fill="none" stroke="black" points="10.5,-123 10.5,-145 215.5,-145 215.5,-123 10.5,-123"/>
<text text-anchor="start" x="30.5" y="-131.2" font-family="Helvetica,sans-Serif" font-size="11.00">abbr_fr</text>
<polygon fill="none" stroke="black" points="215.5,-123 215.5,-145 285.5,-145 285.5,-123 215.5,-123"/>
<text text-anchor="start" x="218.5" y="-131.2" font-family="Helvetica,sans-Serif" font-size="11.00">varchar[3]</text>
<polygon fill="none" stroke="black" points="10.5,-101 10.5,-123 215.5,-123 215.5,-101 10.5,-101"/>
<text text-anchor="start" x="30.5" y="-109.2" font-family="Helvetica,sans-Serif" font-size="11.00">abbr_it</text>
<polygon fill="none" stroke="black" points="215.5,-101 215.5,-123 285.5,-123 285.5,-101 215.5,-101"/>
<text text-anchor="start" x="218.5" y="-109.2" font-family="Helvetica,sans-Serif" font-size="11.00">varchar[3]</text>
<polygon fill="none" stroke="black" points="10.5,-79 10.5,-101 215.5,-101 215.5,-79 10.5,-79"/>
<text text-anchor="start" x="30.5" y="-87.2" font-family="Helvetica,sans-Serif" font-size="11.00">abbr_ro</text>
<polygon fill="none" stroke="black" points="215.5,-79 215.5,-101 285.5,-101 285.5,-79 215.5,-79"/>
<text text-anchor="start" x="218.5" y="-87.2" font-family="Helvetica,sans-Serif" font-size="11.00">varchar[3]</text>
<polygon fill="none" stroke="black" points="10.5,-57 10.5,-79 215.5,-79 215.5,-57 10.5,-57"/>
<text text-anchor="start" x="30.5" y="-65.2" font-family="Helvetica,sans-Serif" font-size="11.00">active</text>
<polygon fill="none" stroke="black" points="215.5,-57 215.5,-79 285.5,-79 285.5,-57 215.5,-57"/>
<text text-anchor="start" x="218.5" y="-65.2" font-family="Helvetica,sans-Serif" font-size="11.00">bool[1]</text>
<polygon fill="#ffffff" stroke="transparent" points="10.5,-39 10.5,-57 117.5,-57 117.5,-39 10.5,-39"/>
<polygon fill="none" stroke="black" points="10.5,-39 10.5,-57 117.5,-57 117.5,-39 10.5,-39"/>
<text text-anchor="start" x="13.5" y="-45.2" font-family="Helvetica,sans-Serif" font-size="11.00">&lt; 0</text>
<polygon fill="#ffffff" stroke="transparent" points="117.5,-39 117.5,-57 215.5,-57 215.5,-39 117.5,-39"/>
<polygon fill="none" stroke="black" points="117.5,-39 117.5,-57 215.5,-57 215.5,-39 117.5,-39"/>
<text text-anchor="start" x="205.5" y="-45.2" font-family="Helvetica,sans-Serif" font-size="11.00"> &#160;</text>
<polygon fill="#ffffff" stroke="transparent" points="215.5,-39 215.5,-57 285.5,-57 285.5,-39 215.5,-39"/>
<polygon fill="none" stroke="black" points="215.5,-39 215.5,-57 285.5,-57 285.5,-39 215.5,-39"/>
<text text-anchor="start" x="266.5" y="-45.2" font-family="Helvetica,sans-Serif" font-size="11.00">1 &gt;</text>
<polygon fill="none" stroke="black" stroke-width="2" points="9,-38 9,-366 286,-366 286,-38 9,-38"/>
</a>
</g>
</g>
<!-- tww_od.catchment_area_text&#45;&gt;catchment_area_text_plantype -->
<g id="edge1" class="edge">
<title>tww_od.catchment_area_text:w&#45;&gt;catchment_area_text_plantype:e</title>
<path fill="none" stroke="black" d="M320.99,-332C309.68,-332 302.49,-332 286.5,-332"/>
<polygon fill="black" stroke="black" points="327.5,-332 335.5,-335.6 331.5,-332 335.5,-332 335.5,-332 335.5,-332 331.5,-332 335.5,-328.4 327.5,-332 327.5,-332"/>
<ellipse fill="none" stroke="black" cx="324.3" cy="-332" rx="3.2" ry="3.2"/>
</g>
</g>
</svg>
