<?xml version="1.0" encoding="UTF-8" standalone="no"?>
<!DOCTYPE svg PUBLIC "-//W3C//DTD SVG 1.1//EN"
 "http://www.w3.org/Graphics/SVG/1.1/DTD/svg11.dtd">
<!-- Generated by graphviz version 2.43.0 (0)
 -->
<!-- Title: oneDegreeRelationshipsDiagram Pages: 1 -->
<svg width="559pt" height="553pt"
 viewBox="0.00 0.00 559.00 553.00" xmlns="http://www.w3.org/2000/svg" xmlns:xlink="http://www.w3.org/1999/xlink">
<g id="graph0" class="graph" transform="scale(1 1) rotate(0) translate(4 549)">
<title>oneDegreeRelationshipsDiagram</title>
<polygon fill="#ffffff" stroke="transparent" points="-4,4 -4,-549 555,-549 555,4 -4,4"/>
<text text-anchor="middle" x="79.5" y="-7.2" font-family="Helvetica,sans-Serif" font-size="11.00">Generated by SchemaSpy</text>
<!-- tww_od.channel -->
<g id="node1" class="node">
<title>tww_od.channel</title>
<g id="a_node1"><a xlink:href="../../../tww_od/tables/channel.html" xlink:title="tww_od.channel" target="_top">
<polygon fill="#ffffff" stroke="transparent" points="362,-307 362,-541 543,-541 543,-307 362,-307"/>
<polygon fill="#f5f5f5" stroke="transparent" points="362.5,-519 362.5,-541 543.5,-541 543.5,-519 362.5,-519"/>
<polygon fill="none" stroke="black" points="362.5,-519 362.5,-541 543.5,-541 543.5,-519 362.5,-519"/>
<text text-anchor="start" x="367.5" y="-528.2" font-family="Helvetica,sans-Serif" font-weight="bold" font-size="11.00">tww_od.channel</text>
<text text-anchor="start" x="501.5" y="-527.2" font-family="Helvetica,sans-Serif" font-size="11.00">[table]</text>
<polygon fill="none" stroke="black" points="362.5,-497 362.5,-519 543.5,-519 543.5,-497 362.5,-497"/>
<image xlink:href="../../images/foreignKeys.png" width="11px" height="12px" preserveAspectRatio="xMinYMin meet" x="367.5" y="-514"/>
<text text-anchor="start" x="382.5" y="-505.2" font-family="Helvetica,sans-Serif" font-size="11.00">bedding_encasement</text>
<polygon fill="none" stroke="black" points="362.5,-475 362.5,-497 543.5,-497 543.5,-475 362.5,-475"/>
<image xlink:href="../../images/foreignKeys.png" width="11px" height="12px" preserveAspectRatio="xMinYMin meet" x="367.5" y="-492"/>
<text text-anchor="start" x="382.5" y="-483.2" font-family="Helvetica,sans-Serif" font-size="11.00">connection_type</text>
<polygon fill="none" stroke="black" points="362.5,-453 362.5,-475 543.5,-475 543.5,-453 362.5,-453"/>
<image xlink:href="../../images/foreignKeys.png" width="11px" height="12px" preserveAspectRatio="xMinYMin meet" x="367.5" y="-470"/>
<text text-anchor="start" x="382.5" y="-461.2" font-family="Helvetica,sans-Serif" font-size="11.00">function_amelioration</text>
<polygon fill="none" stroke="black" points="362.5,-431 362.5,-453 543.5,-453 543.5,-431 362.5,-431"/>
<image xlink:href="../../images/foreignKeys.png" width="11px" height="12px" preserveAspectRatio="xMinYMin meet" x="367.5" y="-448"/>
<text text-anchor="start" x="382.5" y="-439.2" font-family="Helvetica,sans-Serif" font-size="11.00">function_hierarchic</text>
<polygon fill="none" stroke="black" points="362.5,-409 362.5,-431 543.5,-431 543.5,-409 362.5,-409"/>
<image xlink:href="../../images/foreignKeys.png" width="11px" height="12px" preserveAspectRatio="xMinYMin meet" x="367.5" y="-426"/>
<text text-anchor="start" x="382.5" y="-417.2" font-family="Helvetica,sans-Serif" font-size="11.00">function_hydraulic</text>
<polygon fill="none" stroke="black" points="362.5,-387 362.5,-409 543.5,-409 543.5,-387 362.5,-387"/>
<image xlink:href="../../images/foreignKeys.png" width="11px" height="12px" preserveAspectRatio="xMinYMin meet" x="367.5" y="-404"/>
<text text-anchor="start" x="382.5" y="-395.2" font-family="Helvetica,sans-Serif" font-size="11.00">seepage</text>
<polygon fill="none" stroke="black" points="362.5,-365 362.5,-387 543.5,-387 543.5,-365 362.5,-365"/>
<image xlink:href="../../images/foreignKeys.png" width="11px" height="12px" preserveAspectRatio="xMinYMin meet" x="367.5" y="-382"/>
<text text-anchor="start" x="382.5" y="-373.2" font-family="Helvetica,sans-Serif" font-size="11.00">usage_current</text>
<polygon fill="none" stroke="black" points="362.5,-343 362.5,-365 543.5,-365 543.5,-343 362.5,-343"/>
<image xlink:href="../../images/foreignKeys.png" width="11px" height="12px" preserveAspectRatio="xMinYMin meet" x="367.5" y="-360"/>
<text text-anchor="start" x="382.5" y="-351.2" font-family="Helvetica,sans-Serif" font-size="11.00">usage_planned</text>
<polygon fill="none" stroke="black" points="362.5,-325 362.5,-343 543.5,-343 543.5,-325 362.5,-325"/>
<text text-anchor="start" x="365.5" y="-331.2" font-family="Helvetica,sans-Serif" font-size="11.00">...</text>
<polygon fill="#ffffff" stroke="transparent" points="362.5,-307 362.5,-325 543.5,-325 543.5,-307 362.5,-307"/>
<polygon fill="none" stroke="black" points="362.5,-307 362.5,-325 543.5,-325 543.5,-307 362.5,-307"/>
<polygon fill="#ffffff" stroke="transparent" points="363.5,-308 363.5,-324 421.5,-324 421.5,-308 363.5,-308"/>
<text text-anchor="start" x="365.5" y="-313.2" font-family="Helvetica,sans-Serif" font-size="11.00">&lt; 8</text>
<polygon fill="#ffffff" stroke="transparent" points="421.5,-308 421.5,-324 496.5,-324 496.5,-308 421.5,-308"/>
<text text-anchor="start" x="440.5" y="-313.2" font-family="Helvetica,sans-Serif" font-size="11.00">0 rows</text>
<polygon fill="#ffffff" stroke="transparent" points="496.5,-308 496.5,-324 542.5,-324 542.5,-308 496.5,-308"/>
<text text-anchor="start" x="532.5" y="-313.2" font-family="Helvetica,sans-Serif" font-size="11.00"> &#160;</text>
<polygon fill="black" stroke="black" points="421.5,-308 421.5,-324 421.5,-324 421.5,-308 421.5,-308"/>
<polygon fill="black" stroke="black" points="496.5,-308 496.5,-324 496.5,-324 496.5,-308 496.5,-308"/>
</a>
</g>
</g>
<!-- channel_usage_current -->
<g id="node2" class="node">
<title>channel_usage_current</title>
<g id="a_node2"><a xlink:href="../../tables/channel_usage_current.html" xlink:title="channel_usage_current" target="_top">
<polygon fill="#ffffff" stroke="transparent" points="8,-37 8,-411 313,-411 313,-37 8,-37"/>
<polygon fill="#f5f5f5" stroke="transparent" points="10.5,-387 10.5,-409 311.5,-409 311.5,-387 10.5,-387"/>
<polygon fill="none" stroke="black" points="10.5,-387 10.5,-409 311.5,-409 311.5,-387 10.5,-387"/>
<text text-anchor="start" x="15.5" y="-396.2" font-family="Helvetica,sans-Serif" font-weight="bold" font-size="11.00">channel_usage_current</text>
<text text-anchor="start" x="269.5" y="-395.2" font-family="Helvetica,sans-Serif" font-size="11.00">[table]</text>
<polygon fill="none" stroke="black" points="10.5,-365 10.5,-387 233.5,-387 233.5,-365 10.5,-365"/>
<image xlink:href="../../images/primaryKeys.png" width="11px" height="12px" preserveAspectRatio="xMinYMin meet" x="15.5" y="-382"/>
<text text-anchor="start" x="30.5" y="-373.2" font-family="Helvetica,sans-Serif" font-size="11.00">code</text>
<polygon fill="none" stroke="black" points="233.5,-365 233.5,-387 311.5,-387 311.5,-365 233.5,-365"/>
<text text-anchor="start" x="236.5" y="-373.2" font-family="Helvetica,sans-Serif" font-size="11.00">int4[10]</text>
<polygon fill="none" stroke="black" points="10.5,-343 10.5,-365 233.5,-365 233.5,-343 10.5,-343"/>
<text text-anchor="start" x="30.5" y="-351.2" font-family="Helvetica,sans-Serif" font-size="11.00">vsacode</text>
<polygon fill="none" stroke="black" points="233.5,-343 233.5,-365 311.5,-365 311.5,-343 233.5,-343"/>
<text text-anchor="start" x="236.5" y="-351.2" font-family="Helvetica,sans-Serif" font-size="11.00">int4[10]</text>
<polygon fill="none" stroke="black" points="10.5,-321 10.5,-343 233.5,-343 233.5,-321 10.5,-321"/>
<text text-anchor="start" x="30.5" y="-329.2" font-family="Helvetica,sans-Serif" font-size="11.00">value_en</text>
<polygon fill="none" stroke="black" points="233.5,-321 233.5,-343 311.5,-343 311.5,-321 233.5,-321"/>
<text text-anchor="start" x="236.5" y="-329.2" font-family="Helvetica,sans-Serif" font-size="11.00">varchar[100]</text>
<polygon fill="none" stroke="black" points="10.5,-299 10.5,-321 233.5,-321 233.5,-299 10.5,-299"/>
<text text-anchor="start" x="30.5" y="-307.2" font-family="Helvetica,sans-Serif" font-size="11.00">value_de</text>
<polygon fill="none" stroke="black" points="233.5,-299 233.5,-321 311.5,-321 311.5,-299 233.5,-299"/>
<text text-anchor="start" x="236.5" y="-307.2" font-family="Helvetica,sans-Serif" font-size="11.00">varchar[100]</text>
<polygon fill="none" stroke="black" points="10.5,-277 10.5,-299 233.5,-299 233.5,-277 10.5,-277"/>
<text text-anchor="start" x="30.5" y="-285.2" font-family="Helvetica,sans-Serif" font-size="11.00">value_fr</text>
<polygon fill="none" stroke="black" points="233.5,-277 233.5,-299 311.5,-299 311.5,-277 233.5,-277"/>
<text text-anchor="start" x="236.5" y="-285.2" font-family="Helvetica,sans-Serif" font-size="11.00">varchar[100]</text>
<polygon fill="none" stroke="black" points="10.5,-255 10.5,-277 233.5,-277 233.5,-255 10.5,-255"/>
<text text-anchor="start" x="30.5" y="-263.2" font-family="Helvetica,sans-Serif" font-size="11.00">value_it</text>
<polygon fill="none" stroke="black" points="233.5,-255 233.5,-277 311.5,-277 311.5,-255 233.5,-255"/>
<text text-anchor="start" x="236.5" y="-263.2" font-family="Helvetica,sans-Serif" font-size="11.00">varchar[100]</text>
<polygon fill="none" stroke="black" points="10.5,-233 10.5,-255 233.5,-255 233.5,-233 10.5,-233"/>
<text text-anchor="start" x="30.5" y="-241.2" font-family="Helvetica,sans-Serif" font-size="11.00">value_ro</text>
<polygon fill="none" stroke="black" points="233.5,-233 233.5,-255 311.5,-255 311.5,-233 233.5,-233"/>
<text text-anchor="start" x="236.5" y="-241.2" font-family="Helvetica,sans-Serif" font-size="11.00">varchar[100]</text>
<polygon fill="none" stroke="black" points="10.5,-211 10.5,-233 233.5,-233 233.5,-211 10.5,-211"/>
<text text-anchor="start" x="30.5" y="-219.2" font-family="Helvetica,sans-Serif" font-size="11.00">abbr_en</text>
<polygon fill="none" stroke="black" points="233.5,-211 233.5,-233 311.5,-233 311.5,-211 233.5,-211"/>
<text text-anchor="start" x="236.5" y="-219.2" font-family="Helvetica,sans-Serif" font-size="11.00">varchar[3]</text>
<polygon fill="none" stroke="black" points="10.5,-189 10.5,-211 233.5,-211 233.5,-189 10.5,-189"/>
<text text-anchor="start" x="30.5" y="-197.2" font-family="Helvetica,sans-Serif" font-size="11.00">abbr_de</text>
<polygon fill="none" stroke="black" points="233.5,-189 233.5,-211 311.5,-211 311.5,-189 233.5,-189"/>
<text text-anchor="start" x="236.5" y="-197.2" font-family="Helvetica,sans-Serif" font-size="11.00">varchar[3]</text>
<polygon fill="none" stroke="black" points="10.5,-167 10.5,-189 233.5,-189 233.5,-167 10.5,-167"/>
<text text-anchor="start" x="30.5" y="-175.2" font-family="Helvetica,sans-Serif" font-size="11.00">abbr_fr</text>
<polygon fill="none" stroke="black" points="233.5,-167 233.5,-189 311.5,-189 311.5,-167 233.5,-167"/>
<text text-anchor="start" x="236.5" y="-175.2" font-family="Helvetica,sans-Serif" font-size="11.00">varchar[3]</text>
<polygon fill="none" stroke="black" points="10.5,-145 10.5,-167 233.5,-167 233.5,-145 10.5,-145"/>
<text text-anchor="start" x="30.5" y="-153.2" font-family="Helvetica,sans-Serif" font-size="11.00">abbr_it</text>
<polygon fill="none" stroke="black" points="233.5,-145 233.5,-167 311.5,-167 311.5,-145 233.5,-145"/>
<text text-anchor="start" x="236.5" y="-153.2" font-family="Helvetica,sans-Serif" font-size="11.00">varchar[3]</text>
<polygon fill="none" stroke="black" points="10.5,-123 10.5,-145 233.5,-145 233.5,-123 10.5,-123"/>
<text text-anchor="start" x="30.5" y="-131.2" font-family="Helvetica,sans-Serif" font-size="11.00">abbr_ro</text>
<polygon fill="none" stroke="black" points="233.5,-123 233.5,-145 311.5,-145 311.5,-123 233.5,-123"/>
<text text-anchor="start" x="236.5" y="-131.2" font-family="Helvetica,sans-Serif" font-size="11.00">varchar[3]</text>
<polygon fill="none" stroke="black" points="10.5,-101 10.5,-123 233.5,-123 233.5,-101 10.5,-101"/>
<text text-anchor="start" x="30.5" y="-109.2" font-family="Helvetica,sans-Serif" font-size="11.00">active</text>
<polygon fill="none" stroke="black" points="233.5,-101 233.5,-123 311.5,-123 311.5,-101 233.5,-101"/>
<text text-anchor="start" x="236.5" y="-109.2" font-family="Helvetica,sans-Serif" font-size="11.00">bool[1]</text>
<polygon fill="none" stroke="black" points="10.5,-79 10.5,-101 233.5,-101 233.5,-79 10.5,-79"/>
<text text-anchor="start" x="30.5" y="-87.2" font-family="Helvetica,sans-Serif" font-size="11.00">tww_symbology_inflow_prio</text>
<polygon fill="none" stroke="black" points="233.5,-79 233.5,-101 311.5,-101 311.5,-79 233.5,-79"/>
<text text-anchor="start" x="236.5" y="-87.2" font-family="Helvetica,sans-Serif" font-size="11.00">bool[1]</text>
<polygon fill="none" stroke="black" points="10.5,-57 10.5,-79 233.5,-79 233.5,-57 10.5,-57"/>
<text text-anchor="start" x="30.5" y="-65.2" font-family="Helvetica,sans-Serif" font-size="11.00">tww_symbology_order</text>
<polygon fill="none" stroke="black" points="233.5,-57 233.5,-79 311.5,-79 311.5,-57 233.5,-57"/>
<text text-anchor="start" x="236.5" y="-65.2" font-family="Helvetica,sans-Serif" font-size="11.00">int2[5]</text>
<polygon fill="#ffffff" stroke="transparent" points="10.5,-39 10.5,-57 311.5,-57 311.5,-39 10.5,-39"/>
<polygon fill="none" stroke="black" points="10.5,-39 10.5,-57 311.5,-57 311.5,-39 10.5,-39"/>
<polygon fill="#ffffff" stroke="transparent" points="11.5,-40 11.5,-56 115.5,-56 115.5,-40 11.5,-40"/>
<text text-anchor="start" x="13.5" y="-45.2" font-family="Helvetica,sans-Serif" font-size="11.00">&lt; 0</text>
<polygon fill="#ffffff" stroke="transparent" points="115.5,-40 115.5,-56 207.5,-56 207.5,-40 115.5,-40"/>
<text text-anchor="start" x="157.5" y="-45.2" font-family="Helvetica,sans-Serif" font-size="11.00"> &#160;</text>
<polygon fill="#ffffff" stroke="transparent" points="207.5,-40 207.5,-56 310.5,-56 310.5,-40 207.5,-40"/>
<text text-anchor="start" x="288.5" y="-45.2" font-family="Helvetica,sans-Serif" font-size="11.00">1 &gt;</text>
<polygon fill="black" stroke="black" points="115.5,-40 115.5,-56 115.5,-56 115.5,-40 115.5,-40"/>
<polygon fill="black" stroke="black" points="207.5,-40 207.5,-56 207.5,-56 207.5,-40 207.5,-40"/>
<polygon fill="none" stroke="black" stroke-width="2" points="9,-38 9,-410 312,-410 312,-38 9,-38"/>
</a>
</g>
</g>
<!-- tww_od.channel&#45;&gt;channel_usage_current -->
<g id="edge1" class="edge">
<title>tww_od.channel:w&#45;&gt;channel_usage_current:e</title>
<path fill="none" stroke="black" d="M346.99,-376C335.68,-376 328.49,-376 312.5,-376"/>
<polygon fill="black" stroke="black" points="353.5,-376 361.5,-379.6 357.5,-376 361.5,-376 361.5,-376 361.5,-376 357.5,-376 361.5,-372.4 353.5,-376 353.5,-376"/>
<ellipse fill="none" stroke="black" cx="350.3" cy="-376" rx="3.2" ry="3.2"/>
</g>
</g>
</svg>
