<?xml version="1.0" encoding="UTF-8" standalone="no"?>
<!DOCTYPE svg PUBLIC "-//W3C//DTD SVG 1.1//EN"
 "http://www.w3.org/Graphics/SVG/1.1/DTD/svg11.dtd">
<!-- Generated by graphviz version 2.47.1 (20210515.0534)
 -->
<!-- Title: oneDegreeRelationshipsDiagram Pages: 1 -->
<svg width="431pt" height="379pt"
 viewBox="0.00 0.00 431.00 379.00" xmlns="http://www.w3.org/2000/svg" xmlns:xlink="http://www.w3.org/1999/xlink">
<g id="graph0" class="graph" transform="scale(1 1) rotate(0) translate(4 375)">
<title>oneDegreeRelationshipsDiagram</title>
<polygon fill="#ffffff" stroke="transparent" points="-4,4 -4,-375 427,-375 427,4 -4,4"/>
<text text-anchor="middle" x="73.5" y="-7.2" font-family="Helvetica,sans-Serif" font-size="11.00">Generated by SchemaSpy</text>
<!-- tww_od.cover -->
<g id="node1" class="node">
<title>tww_od.cover</title>
<g id="a_node1"><a xlink:href="../../../tww_od/tables/cover.html" xlink:title="tww_od.cover" target="_top">
<polygon fill="#ffffff" stroke="transparent" points="263,-175 263,-365 415,-365 415,-175 263,-175"/>
<polygon fill="#f5f5f5" stroke="transparent" points="263,-343 263,-365 415,-365 415,-343 263,-343"/>
<polygon fill="none" stroke="black" points="263,-343 263,-365 415,-365 415,-343 263,-343"/>
<text text-anchor="start" x="268" y="-352.2" font-family="Helvetica,sans-Serif" font-weight="bold" font-size="11.00">tww_od.cover</text>
<text text-anchor="start" x="376" y="-351.2" font-family="Helvetica,sans-Serif" font-size="11.00">[table]</text>
<polygon fill="none" stroke="black" points="263,-321 263,-343 415,-343 415,-321 263,-321"/>
<image xlink:href="../../images/foreignKeys.png" width="11px" height="12px" preserveAspectRatio="xMinYMin meet" x="268" y="-338"/>
<text text-anchor="start" x="283" y="-329.2" font-family="Helvetica,sans-Serif" font-size="11.00">cover_shape</text>
<polygon fill="none" stroke="black" points="263,-299 263,-321 415,-321 415,-299 263,-299"/>
<image xlink:href="../../images/foreignKeys.png" width="11px" height="12px" preserveAspectRatio="xMinYMin meet" x="268" y="-316"/>
<text text-anchor="start" x="283" y="-307.2" font-family="Helvetica,sans-Serif" font-size="11.00">fastening</text>
<polygon fill="none" stroke="black" points="263,-277 263,-299 415,-299 415,-277 263,-277"/>
<image xlink:href="../../images/foreignKeys.png" width="11px" height="12px" preserveAspectRatio="xMinYMin meet" x="268" y="-294"/>
<text text-anchor="start" x="283" y="-285.2" font-family="Helvetica,sans-Serif" font-size="11.00">material</text>
<polygon fill="none" stroke="black" points="263,-255 263,-277 415,-277 415,-255 263,-255"/>
<image xlink:href="../../images/foreignKeys.png" width="11px" height="12px" preserveAspectRatio="xMinYMin meet" x="268" y="-272"/>
<text text-anchor="start" x="283" y="-263.2" font-family="Helvetica,sans-Serif" font-size="11.00">positional_accuracy</text>
<polygon fill="none" stroke="black" points="263,-233 263,-255 415,-255 415,-233 263,-233"/>
<image xlink:href="../../images/foreignKeys.png" width="11px" height="12px" preserveAspectRatio="xMinYMin meet" x="268" y="-250"/>
<text text-anchor="start" x="283" y="-241.2" font-family="Helvetica,sans-Serif" font-size="11.00">sludge_bucket</text>
<polygon fill="none" stroke="black" points="263,-211 263,-233 415,-233 415,-211 263,-211"/>
<image xlink:href="../../images/foreignKeys.png" width="11px" height="12px" preserveAspectRatio="xMinYMin meet" x="268" y="-228"/>
<text text-anchor="start" x="283" y="-219.2" font-family="Helvetica,sans-Serif" font-size="11.00">venting</text>
<polygon fill="none" stroke="black" points="263,-193 263,-211 415,-211 415,-193 263,-193"/>
<text text-anchor="start" x="266" y="-199.2" font-family="Helvetica,sans-Serif" font-size="11.00">...</text>
<polygon fill="#ffffff" stroke="transparent" points="263,-175 263,-193 323,-193 323,-175 263,-175"/>
<polygon fill="none" stroke="black" points="263,-175 263,-193 323,-193 323,-175 263,-175"/>
<text text-anchor="start" x="266" y="-181.2" font-family="Helvetica,sans-Serif" font-size="11.00">&lt; 6</text>
<polygon fill="#ffffff" stroke="transparent" points="323,-175 323,-193 382,-193 382,-175 323,-175"/>
<polygon fill="none" stroke="black" points="323,-175 323,-193 382,-193 382,-175 323,-175"/>
<text text-anchor="start" x="345" y="-181.2" font-family="Helvetica,sans-Serif" font-size="11.00">0 rows</text>
<polygon fill="#ffffff" stroke="transparent" points="382,-175 382,-193 415,-193 415,-175 382,-175"/>
<polygon fill="none" stroke="black" points="382,-175 382,-193 415,-193 415,-175 382,-175"/>
<text text-anchor="start" x="405" y="-181.2" font-family="Helvetica,sans-Serif" font-size="11.00"> &#160;</text>
</a>
</g>
</g>
<!-- cover_cover_shape -->
<g id="node2" class="node">
<title>cover_cover_shape</title>
<g id="a_node2"><a xlink:href="../../tables/cover_cover_shape.html" xlink:title="cover_cover_shape" target="_top">
<polygon fill="#ffffff" stroke="transparent" points="8,-37 8,-367 214,-367 214,-37 8,-37"/>
<polygon fill="#f5f5f5" stroke="transparent" points="10,-343 10,-365 212,-365 212,-343 10,-343"/>
<polygon fill="none" stroke="black" points="10,-343 10,-365 212,-365 212,-343 10,-343"/>
<text text-anchor="start" x="15" y="-352.2" font-family="Helvetica,sans-Serif" font-weight="bold" font-size="11.00">cover_cover_shape</text>
<text text-anchor="start" x="173" y="-351.2" font-family="Helvetica,sans-Serif" font-size="11.00">[table]</text>
<polygon fill="none" stroke="black" points="10,-321 10,-343 142,-343 142,-321 10,-321"/>
<image xlink:href="../../images/primaryKeys.png" width="11px" height="12px" preserveAspectRatio="xMinYMin meet" x="15" y="-338"/>
<text text-anchor="start" x="30" y="-329.2" font-family="Helvetica,sans-Serif" font-size="11.00">code</text>
<polygon fill="none" stroke="black" points="142,-321 142,-343 212,-343 212,-321 142,-321"/>
<text text-anchor="start" x="145" y="-329.2" font-family="Helvetica,sans-Serif" font-size="11.00">int4[10]</text>
<polygon fill="none" stroke="black" points="10,-299 10,-321 142,-321 142,-299 10,-299"/>
<text text-anchor="start" x="30" y="-307.2" font-family="Helvetica,sans-Serif" font-size="11.00">vsacode</text>
<polygon fill="none" stroke="black" points="142,-299 142,-321 212,-321 212,-299 142,-299"/>
<text text-anchor="start" x="145" y="-307.2" font-family="Helvetica,sans-Serif" font-size="11.00">int4[10]</text>
<polygon fill="none" stroke="black" points="10,-277 10,-299 142,-299 142,-277 10,-277"/>
<text text-anchor="start" x="30" y="-285.2" font-family="Helvetica,sans-Serif" font-size="11.00">value_en</text>
<polygon fill="none" stroke="black" points="142,-277 142,-299 212,-299 212,-277 142,-277"/>
<text text-anchor="start" x="145" y="-285.2" font-family="Helvetica,sans-Serif" font-size="11.00">varchar[100]</text>
<polygon fill="none" stroke="black" points="10,-255 10,-277 142,-277 142,-255 10,-255"/>
<text text-anchor="start" x="30" y="-263.2" font-family="Helvetica,sans-Serif" font-size="11.00">value_de</text>
<polygon fill="none" stroke="black" points="142,-255 142,-277 212,-277 212,-255 142,-255"/>
<text text-anchor="start" x="145" y="-263.2" font-family="Helvetica,sans-Serif" font-size="11.00">varchar[100]</text>
<polygon fill="none" stroke="black" points="10,-233 10,-255 142,-255 142,-233 10,-233"/>
<text text-anchor="start" x="30" y="-241.2" font-family="Helvetica,sans-Serif" font-size="11.00">value_fr</text>
<polygon fill="none" stroke="black" points="142,-233 142,-255 212,-255 212,-233 142,-233"/>
<text text-anchor="start" x="145" y="-241.2" font-family="Helvetica,sans-Serif" font-size="11.00">varchar[100]</text>
<polygon fill="none" stroke="black" points="10,-211 10,-233 142,-233 142,-211 10,-211"/>
<text text-anchor="start" x="30" y="-219.2" font-family="Helvetica,sans-Serif" font-size="11.00">value_it</text>
<polygon fill="none" stroke="black" points="142,-211 142,-233 212,-233 212,-211 142,-211"/>
<text text-anchor="start" x="145" y="-219.2" font-family="Helvetica,sans-Serif" font-size="11.00">varchar[100]</text>
<polygon fill="none" stroke="black" points="10,-189 10,-211 142,-211 142,-189 10,-189"/>
<text text-anchor="start" x="30" y="-197.2" font-family="Helvetica,sans-Serif" font-size="11.00">value_ro</text>
<polygon fill="none" stroke="black" points="142,-189 142,-211 212,-211 212,-189 142,-189"/>
<text text-anchor="start" x="145" y="-197.2" font-family="Helvetica,sans-Serif" font-size="11.00">varchar[100]</text>
<polygon fill="none" stroke="black" points="10,-167 10,-189 142,-189 142,-167 10,-167"/>
<text text-anchor="start" x="30" y="-175.2" font-family="Helvetica,sans-Serif" font-size="11.00">abbr_en</text>
<polygon fill="none" stroke="black" points="142,-167 142,-189 212,-189 212,-167 142,-167"/>
<text text-anchor="start" x="145" y="-175.2" font-family="Helvetica,sans-Serif" font-size="11.00">varchar[3]</text>
<polygon fill="none" stroke="black" points="10,-145 10,-167 142,-167 142,-145 10,-145"/>
<text text-anchor="start" x="30" y="-153.2" font-family="Helvetica,sans-Serif" font-size="11.00">abbr_de</text>
<polygon fill="none" stroke="black" points="142,-145 142,-167 212,-167 212,-145 142,-145"/>
<text text-anchor="start" x="145" y="-153.2" font-family="Helvetica,sans-Serif" font-size="11.00">varchar[3]</text>
<polygon fill="none" stroke="black" points="10,-123 10,-145 142,-145 142,-123 10,-123"/>
<text text-anchor="start" x="30" y="-131.2" font-family="Helvetica,sans-Serif" font-size="11.00">abbr_fr</text>
<polygon fill="none" stroke="black" points="142,-123 142,-145 212,-145 212,-123 142,-123"/>
<text text-anchor="start" x="145" y="-131.2" font-family="Helvetica,sans-Serif" font-size="11.00">varchar[3]</text>
<polygon fill="none" stroke="black" points="10,-101 10,-123 142,-123 142,-101 10,-101"/>
<text text-anchor="start" x="30" y="-109.2" font-family="Helvetica,sans-Serif" font-size="11.00">abbr_it</text>
<polygon fill="none" stroke="black" points="142,-101 142,-123 212,-123 212,-101 142,-101"/>
<text text-anchor="start" x="145" y="-109.2" font-family="Helvetica,sans-Serif" font-size="11.00">varchar[3]</text>
<polygon fill="none" stroke="black" points="10,-79 10,-101 142,-101 142,-79 10,-79"/>
<text text-anchor="start" x="30" y="-87.2" font-family="Helvetica,sans-Serif" font-size="11.00">abbr_ro</text>
<polygon fill="none" stroke="black" points="142,-79 142,-101 212,-101 212,-79 142,-79"/>
<text text-anchor="start" x="145" y="-87.2" font-family="Helvetica,sans-Serif" font-size="11.00">varchar[3]</text>
<polygon fill="none" stroke="black" points="10,-57 10,-79 142,-79 142,-57 10,-57"/>
<text text-anchor="start" x="30" y="-65.2" font-family="Helvetica,sans-Serif" font-size="11.00">active</text>
<polygon fill="none" stroke="black" points="142,-57 142,-79 212,-79 212,-57 142,-57"/>
<text text-anchor="start" x="145" y="-65.2" font-family="Helvetica,sans-Serif" font-size="11.00">bool[1]</text>
<polygon fill="#ffffff" stroke="transparent" points="10,-39 10,-57 80,-57 80,-39 10,-39"/>
<polygon fill="none" stroke="black" points="10,-39 10,-57 80,-57 80,-39 10,-39"/>
<text text-anchor="start" x="13" y="-45.2" font-family="Helvetica,sans-Serif" font-size="11.00">&lt; 0</text>
<polygon fill="#ffffff" stroke="transparent" points="80,-39 80,-57 142,-57 142,-39 80,-39"/>
<polygon fill="none" stroke="black" points="80,-39 80,-57 142,-57 142,-39 80,-39"/>
<text text-anchor="start" x="132" y="-45.2" font-family="Helvetica,sans-Serif" font-size="11.00"> &#160;</text>
<polygon fill="#ffffff" stroke="transparent" points="142,-39 142,-57 212,-57 212,-39 142,-39"/>
<polygon fill="none" stroke="black" points="142,-39 142,-57 212,-57 212,-39 142,-39"/>
<text text-anchor="start" x="193" y="-45.2" font-family="Helvetica,sans-Serif" font-size="11.00">1 &gt;</text>
<polygon fill="none" stroke="black" stroke-width="2" points="9,-38 9,-366 213,-366 213,-38 9,-38"/>
</a>
</g>
</g>
<!-- tww_od.cover&#45;&gt;cover_cover_shape -->
<g id="edge1" class="edge">
<title>tww_od.cover:w&#45;&gt;cover_cover_shape:e</title>
<path fill="none" stroke="black" d="M247.49,-332C236.18,-332 228.99,-332 213,-332"/>
<polygon fill="black" stroke="black" points="254,-332 262,-335.6 258,-332 262,-332 262,-332 262,-332 258,-332 262,-328.4 254,-332 254,-332"/>
<ellipse fill="none" stroke="black" cx="250.8" cy="-332" rx="3.2" ry="3.2"/>
</g>
</g>
</svg>
