<?xml version="1.0" encoding="UTF-8" standalone="no"?>
<!DOCTYPE svg PUBLIC "-//W3C//DTD SVG 1.1//EN"
 "http://www.w3.org/Graphics/SVG/1.1/DTD/svg11.dtd">
<!-- Generated by graphviz version 2.43.0 (0)
 -->
<!-- Title: oneDegreeRelationshipsDiagram Pages: 1 -->
<svg width="509pt" height="465pt"
 viewBox="0.00 0.00 509.00 465.00" xmlns="http://www.w3.org/2000/svg" xmlns:xlink="http://www.w3.org/1999/xlink">
<g id="graph0" class="graph" transform="scale(1 1) rotate(0) translate(4 461)">
<title>oneDegreeRelationshipsDiagram</title>
<polygon fill="#ffffff" stroke="transparent" points="-4,4 -4,-461 505,-461 505,4 -4,4"/>
<text text-anchor="middle" x="79.5" y="-7.2" font-family="Helvetica,sans-Serif" font-size="11.00">Generated by SchemaSpy</text>
<!-- tww_od.cover -->
<g id="node1" class="node">
<title>tww_od.cover</title>
<g id="a_node1"><a xlink:href="../../../tww_od/tables/cover.html" xlink:title="tww_od.cover" target="_top">
<polygon fill="#ffffff" stroke="transparent" points="312,-263 312,-453 493,-453 493,-263 312,-263"/>
<polygon fill="#f5f5f5" stroke="transparent" points="312.5,-431 312.5,-453 493.5,-453 493.5,-431 312.5,-431"/>
<polygon fill="none" stroke="black" points="312.5,-431 312.5,-453 493.5,-453 493.5,-431 312.5,-431"/>
<text text-anchor="start" x="317.5" y="-440.2" font-family="Helvetica,sans-Serif" font-weight="bold" font-size="11.00">tww_od.cover</text>
<text text-anchor="start" x="451.5" y="-439.2" font-family="Helvetica,sans-Serif" font-size="11.00">[table]</text>
<polygon fill="none" stroke="black" points="312.5,-409 312.5,-431 493.5,-431 493.5,-409 312.5,-409"/>
<image xlink:href="../../images/foreignKeys.png" width="11px" height="12px" preserveAspectRatio="xMinYMin meet" x="317.5" y="-426"/>
<text text-anchor="start" x="332.5" y="-417.2" font-family="Helvetica,sans-Serif" font-size="11.00">cover_shape</text>
<polygon fill="none" stroke="black" points="312.5,-387 312.5,-409 493.5,-409 493.5,-387 312.5,-387"/>
<image xlink:href="../../images/foreignKeys.png" width="11px" height="12px" preserveAspectRatio="xMinYMin meet" x="317.5" y="-404"/>
<text text-anchor="start" x="332.5" y="-395.2" font-family="Helvetica,sans-Serif" font-size="11.00">fastening</text>
<polygon fill="none" stroke="black" points="312.5,-365 312.5,-387 493.5,-387 493.5,-365 312.5,-365"/>
<image xlink:href="../../images/foreignKeys.png" width="11px" height="12px" preserveAspectRatio="xMinYMin meet" x="317.5" y="-382"/>
<text text-anchor="start" x="332.5" y="-373.2" font-family="Helvetica,sans-Serif" font-size="11.00">material</text>
<polygon fill="none" stroke="black" points="312.5,-343 312.5,-365 493.5,-365 493.5,-343 312.5,-343"/>
<image xlink:href="../../images/foreignKeys.png" width="11px" height="12px" preserveAspectRatio="xMinYMin meet" x="317.5" y="-360"/>
<text text-anchor="start" x="332.5" y="-351.2" font-family="Helvetica,sans-Serif" font-size="11.00">positional_accuracy</text>
<polygon fill="none" stroke="black" points="312.5,-321 312.5,-343 493.5,-343 493.5,-321 312.5,-321"/>
<image xlink:href="../../images/foreignKeys.png" width="11px" height="12px" preserveAspectRatio="xMinYMin meet" x="317.5" y="-338"/>
<text text-anchor="start" x="332.5" y="-329.2" font-family="Helvetica,sans-Serif" font-size="11.00">sludge_bucket</text>
<polygon fill="none" stroke="black" points="312.5,-299 312.5,-321 493.5,-321 493.5,-299 312.5,-299"/>
<image xlink:href="../../images/foreignKeys.png" width="11px" height="12px" preserveAspectRatio="xMinYMin meet" x="317.5" y="-316"/>
<text text-anchor="start" x="332.5" y="-307.2" font-family="Helvetica,sans-Serif" font-size="11.00">venting</text>
<polygon fill="none" stroke="black" points="312.5,-281 312.5,-299 493.5,-299 493.5,-281 312.5,-281"/>
<text text-anchor="start" x="315.5" y="-287.2" font-family="Helvetica,sans-Serif" font-size="11.00">...</text>
<polygon fill="#ffffff" stroke="transparent" points="312.5,-263 312.5,-281 493.5,-281 493.5,-263 312.5,-263"/>
<polygon fill="none" stroke="black" points="312.5,-263 312.5,-281 493.5,-281 493.5,-263 312.5,-263"/>
<polygon fill="#ffffff" stroke="transparent" points="313.5,-264 313.5,-280 371.5,-280 371.5,-264 313.5,-264"/>
<text text-anchor="start" x="315.5" y="-269.2" font-family="Helvetica,sans-Serif" font-size="11.00">&lt; 6</text>
<polygon fill="#ffffff" stroke="transparent" points="371.5,-264 371.5,-280 446.5,-280 446.5,-264 371.5,-264"/>
<text text-anchor="start" x="390.5" y="-269.2" font-family="Helvetica,sans-Serif" font-size="11.00">0 rows</text>
<polygon fill="#ffffff" stroke="transparent" points="446.5,-264 446.5,-280 492.5,-280 492.5,-264 446.5,-264"/>
<text text-anchor="start" x="482.5" y="-269.2" font-family="Helvetica,sans-Serif" font-size="11.00"> &#160;</text>
<polygon fill="black" stroke="black" points="371.5,-264 371.5,-280 371.5,-280 371.5,-264 371.5,-264"/>
<polygon fill="black" stroke="black" points="446.5,-264 446.5,-280 446.5,-280 446.5,-264 446.5,-264"/>
</a>
</g>
</g>
<!-- cover_sludge_bucket -->
<g id="node2" class="node">
<title>cover_sludge_bucket</title>
<g id="a_node2"><a xlink:href="../../tables/cover_sludge_bucket.html" xlink:title="cover_sludge_bucket" target="_top">
<polygon fill="#ffffff" stroke="transparent" points="8,-37 8,-367 263,-367 263,-37 8,-37"/>
<polygon fill="#f5f5f5" stroke="transparent" points="10.5,-343 10.5,-365 261.5,-365 261.5,-343 10.5,-343"/>
<polygon fill="none" stroke="black" points="10.5,-343 10.5,-365 261.5,-365 261.5,-343 10.5,-343"/>
<text text-anchor="start" x="15.5" y="-352.2" font-family="Helvetica,sans-Serif" font-weight="bold" font-size="11.00">cover_sludge_bucket</text>
<text text-anchor="start" x="219.5" y="-351.2" font-family="Helvetica,sans-Serif" font-size="11.00">[table]</text>
<polygon fill="none" stroke="black" points="10.5,-321 10.5,-343 183.5,-343 183.5,-321 10.5,-321"/>
<image xlink:href="../../images/primaryKeys.png" width="11px" height="12px" preserveAspectRatio="xMinYMin meet" x="15.5" y="-338"/>
<text text-anchor="start" x="30.5" y="-329.2" font-family="Helvetica,sans-Serif" font-size="11.00">code</text>
<polygon fill="none" stroke="black" points="183.5,-321 183.5,-343 261.5,-343 261.5,-321 183.5,-321"/>
<text text-anchor="start" x="186.5" y="-329.2" font-family="Helvetica,sans-Serif" font-size="11.00">int4[10]</text>
<polygon fill="none" stroke="black" points="10.5,-299 10.5,-321 183.5,-321 183.5,-299 10.5,-299"/>
<text text-anchor="start" x="30.5" y="-307.2" font-family="Helvetica,sans-Serif" font-size="11.00">vsacode</text>
<polygon fill="none" stroke="black" points="183.5,-299 183.5,-321 261.5,-321 261.5,-299 183.5,-299"/>
<text text-anchor="start" x="186.5" y="-307.2" font-family="Helvetica,sans-Serif" font-size="11.00">int4[10]</text>
<polygon fill="none" stroke="black" points="10.5,-277 10.5,-299 183.5,-299 183.5,-277 10.5,-277"/>
<text text-anchor="start" x="30.5" y="-285.2" font-family="Helvetica,sans-Serif" font-size="11.00">value_en</text>
<polygon fill="none" stroke="black" points="183.5,-277 183.5,-299 261.5,-299 261.5,-277 183.5,-277"/>
<text text-anchor="start" x="186.5" y="-285.2" font-family="Helvetica,sans-Serif" font-size="11.00">varchar[100]</text>
<polygon fill="none" stroke="black" points="10.5,-255 10.5,-277 183.5,-277 183.5,-255 10.5,-255"/>
<text text-anchor="start" x="30.5" y="-263.2" font-family="Helvetica,sans-Serif" font-size="11.00">value_de</text>
<polygon fill="none" stroke="black" points="183.5,-255 183.5,-277 261.5,-277 261.5,-255 183.5,-255"/>
<text text-anchor="start" x="186.5" y="-263.2" font-family="Helvetica,sans-Serif" font-size="11.00">varchar[100]</text>
<polygon fill="none" stroke="black" points="10.5,-233 10.5,-255 183.5,-255 183.5,-233 10.5,-233"/>
<text text-anchor="start" x="30.5" y="-241.2" font-family="Helvetica,sans-Serif" font-size="11.00">value_fr</text>
<polygon fill="none" stroke="black" points="183.5,-233 183.5,-255 261.5,-255 261.5,-233 183.5,-233"/>
<text text-anchor="start" x="186.5" y="-241.2" font-family="Helvetica,sans-Serif" font-size="11.00">varchar[100]</text>
<polygon fill="none" stroke="black" points="10.5,-211 10.5,-233 183.5,-233 183.5,-211 10.5,-211"/>
<text text-anchor="start" x="30.5" y="-219.2" font-family="Helvetica,sans-Serif" font-size="11.00">value_it</text>
<polygon fill="none" stroke="black" points="183.5,-211 183.5,-233 261.5,-233 261.5,-211 183.5,-211"/>
<text text-anchor="start" x="186.5" y="-219.2" font-family="Helvetica,sans-Serif" font-size="11.00">varchar[100]</text>
<polygon fill="none" stroke="black" points="10.5,-189 10.5,-211 183.5,-211 183.5,-189 10.5,-189"/>
<text text-anchor="start" x="30.5" y="-197.2" font-family="Helvetica,sans-Serif" font-size="11.00">value_ro</text>
<polygon fill="none" stroke="black" points="183.5,-189 183.5,-211 261.5,-211 261.5,-189 183.5,-189"/>
<text text-anchor="start" x="186.5" y="-197.2" font-family="Helvetica,sans-Serif" font-size="11.00">varchar[100]</text>
<polygon fill="none" stroke="black" points="10.5,-167 10.5,-189 183.5,-189 183.5,-167 10.5,-167"/>
<text text-anchor="start" x="30.5" y="-175.2" font-family="Helvetica,sans-Serif" font-size="11.00">abbr_en</text>
<polygon fill="none" stroke="black" points="183.5,-167 183.5,-189 261.5,-189 261.5,-167 183.5,-167"/>
<text text-anchor="start" x="186.5" y="-175.2" font-family="Helvetica,sans-Serif" font-size="11.00">varchar[3]</text>
<polygon fill="none" stroke="black" points="10.5,-145 10.5,-167 183.5,-167 183.5,-145 10.5,-145"/>
<text text-anchor="start" x="30.5" y="-153.2" font-family="Helvetica,sans-Serif" font-size="11.00">abbr_de</text>
<polygon fill="none" stroke="black" points="183.5,-145 183.5,-167 261.5,-167 261.5,-145 183.5,-145"/>
<text text-anchor="start" x="186.5" y="-153.2" font-family="Helvetica,sans-Serif" font-size="11.00">varchar[3]</text>
<polygon fill="none" stroke="black" points="10.5,-123 10.5,-145 183.5,-145 183.5,-123 10.5,-123"/>
<text text-anchor="start" x="30.5" y="-131.2" font-family="Helvetica,sans-Serif" font-size="11.00">abbr_fr</text>
<polygon fill="none" stroke="black" points="183.5,-123 183.5,-145 261.5,-145 261.5,-123 183.5,-123"/>
<text text-anchor="start" x="186.5" y="-131.2" font-family="Helvetica,sans-Serif" font-size="11.00">varchar[3]</text>
<polygon fill="none" stroke="black" points="10.5,-101 10.5,-123 183.5,-123 183.5,-101 10.5,-101"/>
<text text-anchor="start" x="30.5" y="-109.2" font-family="Helvetica,sans-Serif" font-size="11.00">abbr_it</text>
<polygon fill="none" stroke="black" points="183.5,-101 183.5,-123 261.5,-123 261.5,-101 183.5,-101"/>
<text text-anchor="start" x="186.5" y="-109.2" font-family="Helvetica,sans-Serif" font-size="11.00">varchar[3]</text>
<polygon fill="none" stroke="black" points="10.5,-79 10.5,-101 183.5,-101 183.5,-79 10.5,-79"/>
<text text-anchor="start" x="30.5" y="-87.2" font-family="Helvetica,sans-Serif" font-size="11.00">abbr_ro</text>
<polygon fill="none" stroke="black" points="183.5,-79 183.5,-101 261.5,-101 261.5,-79 183.5,-79"/>
<text text-anchor="start" x="186.5" y="-87.2" font-family="Helvetica,sans-Serif" font-size="11.00">varchar[3]</text>
<polygon fill="none" stroke="black" points="10.5,-57 10.5,-79 183.5,-79 183.5,-57 10.5,-57"/>
<text text-anchor="start" x="30.5" y="-65.2" font-family="Helvetica,sans-Serif" font-size="11.00">active</text>
<polygon fill="none" stroke="black" points="183.5,-57 183.5,-79 261.5,-79 261.5,-57 183.5,-57"/>
<text text-anchor="start" x="186.5" y="-65.2" font-family="Helvetica,sans-Serif" font-size="11.00">bool[1]</text>
<polygon fill="#ffffff" stroke="transparent" points="10.5,-39 10.5,-57 261.5,-57 261.5,-39 10.5,-39"/>
<polygon fill="none" stroke="black" points="10.5,-39 10.5,-57 261.5,-57 261.5,-39 10.5,-39"/>
<polygon fill="#ffffff" stroke="transparent" points="11.5,-40 11.5,-56 98.5,-56 98.5,-40 11.5,-40"/>
<text text-anchor="start" x="13.5" y="-45.2" font-family="Helvetica,sans-Serif" font-size="11.00">&lt; 0</text>
<polygon fill="#ffffff" stroke="transparent" points="98.5,-40 98.5,-56 173.5,-56 173.5,-40 98.5,-40"/>
<text text-anchor="start" x="132" y="-45.2" font-family="Helvetica,sans-Serif" font-size="11.00"> &#160;</text>
<polygon fill="#ffffff" stroke="transparent" points="173.5,-40 173.5,-56 260.5,-56 260.5,-40 173.5,-40"/>
<text text-anchor="start" x="238.5" y="-45.2" font-family="Helvetica,sans-Serif" font-size="11.00">1 &gt;</text>
<polygon fill="black" stroke="black" points="98.5,-40 98.5,-56 98.5,-56 98.5,-40 98.5,-40"/>
<polygon fill="black" stroke="black" points="173.5,-40 173.5,-56 173.5,-56 173.5,-40 173.5,-40"/>
<polygon fill="none" stroke="black" stroke-width="2" points="9,-38 9,-366 262,-366 262,-38 9,-38"/>
</a>
</g>
</g>
<!-- tww_od.cover&#45;&gt;cover_sludge_bucket -->
<g id="edge1" class="edge">
<title>tww_od.cover:w&#45;&gt;cover_sludge_bucket:e</title>
<path fill="none" stroke="black" d="M296.99,-332C285.68,-332 278.49,-332 262.5,-332"/>
<polygon fill="black" stroke="black" points="303.5,-332 311.5,-335.6 307.5,-332 311.5,-332 311.5,-332 311.5,-332 307.5,-332 311.5,-328.4 303.5,-332 303.5,-332"/>
<ellipse fill="none" stroke="black" cx="300.3" cy="-332" rx="3.2" ry="3.2"/>
</g>
</g>
</svg>
