<?xml version="1.0" encoding="UTF-8" standalone="no"?>
<!DOCTYPE svg PUBLIC "-//W3C//DTD SVG 1.1//EN"
 "http://www.w3.org/Graphics/SVG/1.1/DTD/svg11.dtd">
<!-- Generated by graphviz version 2.43.0 (0)
 -->
<!-- Title: oneDegreeRelationshipsDiagram Pages: 1 -->
<svg width="615pt" height="379pt"
 viewBox="0.00 0.00 615.00 379.00" xmlns="http://www.w3.org/2000/svg" xmlns:xlink="http://www.w3.org/1999/xlink">
<g id="graph0" class="graph" transform="scale(1 1) rotate(0) translate(4 375)">
<title>oneDegreeRelationshipsDiagram</title>
<polygon fill="#ffffff" stroke="transparent" points="-4,4 -4,-375 611,-375 611,4 -4,4"/>
<text text-anchor="middle" x="79.5" y="-7.2" font-family="Helvetica,sans-Serif" font-size="11.00">Generated by SchemaSpy</text>
<!-- tww_od.discharge_point -->
<g id="node1" class="node">
<title>tww_od.discharge_point</title>
<g id="a_node1"><a xlink:href="../../../tww_od/tables/discharge_point.html" xlink:title="tww_od.discharge_point" target="_top">
<polygon fill="#ffffff" stroke="transparent" points="354,-285 354,-365 599,-365 599,-285 354,-285"/>
<polygon fill="#f5f5f5" stroke="transparent" points="354.5,-343 354.5,-365 599.5,-365 599.5,-343 354.5,-343"/>
<polygon fill="none" stroke="black" points="354.5,-343 354.5,-365 599.5,-365 599.5,-343 354.5,-343"/>
<text text-anchor="start" x="359.5" y="-352.2" font-family="Helvetica,sans-Serif" font-weight="bold" font-size="11.00">tww_od.discharge_point</text>
<text text-anchor="start" x="557.5" y="-351.2" font-family="Helvetica,sans-Serif" font-size="11.00">[table]</text>
<polygon fill="none" stroke="black" points="354.5,-321 354.5,-343 599.5,-343 599.5,-321 354.5,-321"/>
<image xlink:href="../../images/foreignKeys.png" width="11px" height="12px" preserveAspectRatio="xMinYMin meet" x="359.5" y="-338"/>
<text text-anchor="start" x="374.5" y="-329.2" font-family="Helvetica,sans-Serif" font-size="11.00">relevance</text>
<polygon fill="none" stroke="black" points="354.5,-303 354.5,-321 599.5,-321 599.5,-303 354.5,-303"/>
<text text-anchor="start" x="357.5" y="-309.2" font-family="Helvetica,sans-Serif" font-size="11.00">...</text>
<polygon fill="#ffffff" stroke="transparent" points="354.5,-285 354.5,-303 599.5,-303 599.5,-285 354.5,-285"/>
<polygon fill="none" stroke="black" points="354.5,-285 354.5,-303 599.5,-303 599.5,-285 354.5,-285"/>
<polygon fill="#ffffff" stroke="transparent" points="355.5,-286 355.5,-302 435.5,-302 435.5,-286 355.5,-286"/>
<text text-anchor="start" x="357.5" y="-291.2" font-family="Helvetica,sans-Serif" font-size="11.00">&lt; 1</text>
<polygon fill="#ffffff" stroke="transparent" points="435.5,-286 435.5,-302 531.5,-302 531.5,-286 435.5,-286"/>
<text text-anchor="start" x="465" y="-291.2" font-family="Helvetica,sans-Serif" font-size="11.00">0 rows</text>
<polygon fill="#ffffff" stroke="transparent" points="531.5,-286 531.5,-302 598.5,-302 598.5,-286 531.5,-286"/>
<text text-anchor="start" x="588.5" y="-291.2" font-family="Helvetica,sans-Serif" font-size="11.00"> &#160;</text>
<polygon fill="black" stroke="black" points="435.5,-286 435.5,-302 435.5,-302 435.5,-286 435.5,-286"/>
<polygon fill="black" stroke="black" points="531.5,-286 531.5,-302 531.5,-302 531.5,-286 531.5,-286"/>
</a>
</g>
</g>
<!-- discharge_point_relevance -->
<g id="node2" class="node">
<title>discharge_point_relevance</title>
<g id="a_node2"><a xlink:href="../../tables/discharge_point_relevance.html" xlink:title="discharge_point_relevance" target="_top">
<polygon fill="#ffffff" stroke="transparent" points="8,-37 8,-367 305,-367 305,-37 8,-37"/>
<polygon fill="#f5f5f5" stroke="transparent" points="10.5,-343 10.5,-365 303.5,-365 303.5,-343 10.5,-343"/>
<polygon fill="none" stroke="black" points="10.5,-343 10.5,-365 303.5,-365 303.5,-343 10.5,-343"/>
<text text-anchor="start" x="15.5" y="-352.2" font-family="Helvetica,sans-Serif" font-weight="bold" font-size="11.00">discharge_point_relevance</text>
<text text-anchor="start" x="261.5" y="-351.2" font-family="Helvetica,sans-Serif" font-size="11.00">[table]</text>
<polygon fill="none" stroke="black" points="10.5,-321 10.5,-343 225.5,-343 225.5,-321 10.5,-321"/>
<image xlink:href="../../images/primaryKeys.png" width="11px" height="12px" preserveAspectRatio="xMinYMin meet" x="15.5" y="-338"/>
<text text-anchor="start" x="30.5" y="-329.2" font-family="Helvetica,sans-Serif" font-size="11.00">code</text>
<polygon fill="none" stroke="black" points="225.5,-321 225.5,-343 303.5,-343 303.5,-321 225.5,-321"/>
<text text-anchor="start" x="228.5" y="-329.2" font-family="Helvetica,sans-Serif" font-size="11.00">int4[10]</text>
<polygon fill="none" stroke="black" points="10.5,-299 10.5,-321 225.5,-321 225.5,-299 10.5,-299"/>
<text text-anchor="start" x="30.5" y="-307.2" font-family="Helvetica,sans-Serif" font-size="11.00">vsacode</text>
<polygon fill="none" stroke="black" points="225.5,-299 225.5,-321 303.5,-321 303.5,-299 225.5,-299"/>
<text text-anchor="start" x="228.5" y="-307.2" font-family="Helvetica,sans-Serif" font-size="11.00">int4[10]</text>
<polygon fill="none" stroke="black" points="10.5,-277 10.5,-299 225.5,-299 225.5,-277 10.5,-277"/>
<text text-anchor="start" x="30.5" y="-285.2" font-family="Helvetica,sans-Serif" font-size="11.00">value_en</text>
<polygon fill="none" stroke="black" points="225.5,-277 225.5,-299 303.5,-299 303.5,-277 225.5,-277"/>
<text text-anchor="start" x="228.5" y="-285.2" font-family="Helvetica,sans-Serif" font-size="11.00">varchar[100]</text>
<polygon fill="none" stroke="black" points="10.5,-255 10.5,-277 225.5,-277 225.5,-255 10.5,-255"/>
<text text-anchor="start" x="30.5" y="-263.2" font-family="Helvetica,sans-Serif" font-size="11.00">value_de</text>
<polygon fill="none" stroke="black" points="225.5,-255 225.5,-277 303.5,-277 303.5,-255 225.5,-255"/>
<text text-anchor="start" x="228.5" y="-263.2" font-family="Helvetica,sans-Serif" font-size="11.00">varchar[100]</text>
<polygon fill="none" stroke="black" points="10.5,-233 10.5,-255 225.5,-255 225.5,-233 10.5,-233"/>
<text text-anchor="start" x="30.5" y="-241.2" font-family="Helvetica,sans-Serif" font-size="11.00">value_fr</text>
<polygon fill="none" stroke="black" points="225.5,-233 225.5,-255 303.5,-255 303.5,-233 225.5,-233"/>
<text text-anchor="start" x="228.5" y="-241.2" font-family="Helvetica,sans-Serif" font-size="11.00">varchar[100]</text>
<polygon fill="none" stroke="black" points="10.5,-211 10.5,-233 225.5,-233 225.5,-211 10.5,-211"/>
<text text-anchor="start" x="30.5" y="-219.2" font-family="Helvetica,sans-Serif" font-size="11.00">value_it</text>
<polygon fill="none" stroke="black" points="225.5,-211 225.5,-233 303.5,-233 303.5,-211 225.5,-211"/>
<text text-anchor="start" x="228.5" y="-219.2" font-family="Helvetica,sans-Serif" font-size="11.00">varchar[100]</text>
<polygon fill="none" stroke="black" points="10.5,-189 10.5,-211 225.5,-211 225.5,-189 10.5,-189"/>
<text text-anchor="start" x="30.5" y="-197.2" font-family="Helvetica,sans-Serif" font-size="11.00">value_ro</text>
<polygon fill="none" stroke="black" points="225.5,-189 225.5,-211 303.5,-211 303.5,-189 225.5,-189"/>
<text text-anchor="start" x="228.5" y="-197.2" font-family="Helvetica,sans-Serif" font-size="11.00">varchar[100]</text>
<polygon fill="none" stroke="black" points="10.5,-167 10.5,-189 225.5,-189 225.5,-167 10.5,-167"/>
<text text-anchor="start" x="30.5" y="-175.2" font-family="Helvetica,sans-Serif" font-size="11.00">abbr_en</text>
<polygon fill="none" stroke="black" points="225.5,-167 225.5,-189 303.5,-189 303.5,-167 225.5,-167"/>
<text text-anchor="start" x="228.5" y="-175.2" font-family="Helvetica,sans-Serif" font-size="11.00">varchar[3]</text>
<polygon fill="none" stroke="black" points="10.5,-145 10.5,-167 225.5,-167 225.5,-145 10.5,-145"/>
<text text-anchor="start" x="30.5" y="-153.2" font-family="Helvetica,sans-Serif" font-size="11.00">abbr_de</text>
<polygon fill="none" stroke="black" points="225.5,-145 225.5,-167 303.5,-167 303.5,-145 225.5,-145"/>
<text text-anchor="start" x="228.5" y="-153.2" font-family="Helvetica,sans-Serif" font-size="11.00">varchar[3]</text>
<polygon fill="none" stroke="black" points="10.5,-123 10.5,-145 225.5,-145 225.5,-123 10.5,-123"/>
<text text-anchor="start" x="30.5" y="-131.2" font-family="Helvetica,sans-Serif" font-size="11.00">abbr_fr</text>
<polygon fill="none" stroke="black" points="225.5,-123 225.5,-145 303.5,-145 303.5,-123 225.5,-123"/>
<text text-anchor="start" x="228.5" y="-131.2" font-family="Helvetica,sans-Serif" font-size="11.00">varchar[3]</text>
<polygon fill="none" stroke="black" points="10.5,-101 10.5,-123 225.5,-123 225.5,-101 10.5,-101"/>
<text text-anchor="start" x="30.5" y="-109.2" font-family="Helvetica,sans-Serif" font-size="11.00">abbr_it</text>
<polygon fill="none" stroke="black" points="225.5,-101 225.5,-123 303.5,-123 303.5,-101 225.5,-101"/>
<text text-anchor="start" x="228.5" y="-109.2" font-family="Helvetica,sans-Serif" font-size="11.00">varchar[3]</text>
<polygon fill="none" stroke="black" points="10.5,-79 10.5,-101 225.5,-101 225.5,-79 10.5,-79"/>
<text text-anchor="start" x="30.5" y="-87.2" font-family="Helvetica,sans-Serif" font-size="11.00">abbr_ro</text>
<polygon fill="none" stroke="black" points="225.5,-79 225.5,-101 303.5,-101 303.5,-79 225.5,-79"/>
<text text-anchor="start" x="228.5" y="-87.2" font-family="Helvetica,sans-Serif" font-size="11.00">varchar[3]</text>
<polygon fill="none" stroke="black" points="10.5,-57 10.5,-79 225.5,-79 225.5,-57 10.5,-57"/>
<text text-anchor="start" x="30.5" y="-65.2" font-family="Helvetica,sans-Serif" font-size="11.00">active</text>
<polygon fill="none" stroke="black" points="225.5,-57 225.5,-79 303.5,-79 303.5,-57 225.5,-57"/>
<text text-anchor="start" x="228.5" y="-65.2" font-family="Helvetica,sans-Serif" font-size="11.00">bool[1]</text>
<polygon fill="#ffffff" stroke="transparent" points="10.5,-39 10.5,-57 303.5,-57 303.5,-39 10.5,-39"/>
<polygon fill="none" stroke="black" points="10.5,-39 10.5,-57 303.5,-57 303.5,-39 10.5,-39"/>
<polygon fill="#ffffff" stroke="transparent" points="11.5,-40 11.5,-56 112.5,-56 112.5,-40 11.5,-40"/>
<text text-anchor="start" x="13.5" y="-45.2" font-family="Helvetica,sans-Serif" font-size="11.00">&lt; 0</text>
<polygon fill="#ffffff" stroke="transparent" points="112.5,-40 112.5,-56 201.5,-56 201.5,-40 112.5,-40"/>
<text text-anchor="start" x="153" y="-45.2" font-family="Helvetica,sans-Serif" font-size="11.00"> &#160;</text>
<polygon fill="#ffffff" stroke="transparent" points="201.5,-40 201.5,-56 302.5,-56 302.5,-40 201.5,-40"/>
<text text-anchor="start" x="280.5" y="-45.2" font-family="Helvetica,sans-Serif" font-size="11.00">1 &gt;</text>
<polygon fill="black" stroke="black" points="112.5,-40 112.5,-56 112.5,-56 112.5,-40 112.5,-40"/>
<polygon fill="black" stroke="black" points="201.5,-40 201.5,-56 201.5,-56 201.5,-40 201.5,-40"/>
<polygon fill="none" stroke="black" stroke-width="2" points="9,-38 9,-366 304,-366 304,-38 9,-38"/>
</a>
</g>
</g>
<!-- tww_od.discharge_point&#45;&gt;discharge_point_relevance -->
<g id="edge1" class="edge">
<title>tww_od.discharge_point:w&#45;&gt;discharge_point_relevance:e</title>
<path fill="none" stroke="black" d="M338.99,-332C327.68,-332 320.49,-332 304.5,-332"/>
<polygon fill="black" stroke="black" points="345.5,-332 353.5,-335.6 349.5,-332 353.5,-332 353.5,-332 353.5,-332 349.5,-332 353.5,-328.4 345.5,-332 345.5,-332"/>
<ellipse fill="none" stroke="black" cx="342.3" cy="-332" rx="3.2" ry="3.2"/>
</g>
</g>
</svg>
