<?xml version="1.0" encoding="UTF-8" standalone="no"?>
<!DOCTYPE svg PUBLIC "-//W3C//DTD SVG 1.1//EN"
 "http://www.w3.org/Graphics/SVG/1.1/DTD/svg11.dtd">
<!-- Generated by graphviz version 2.47.1 (20210515.0534)
 -->
<!-- Title: oneDegreeRelationshipsDiagram Pages: 1 -->
<svg width="540pt" height="379pt"
 viewBox="0.00 0.00 540.00 379.00" xmlns="http://www.w3.org/2000/svg" xmlns:xlink="http://www.w3.org/1999/xlink">
<g id="graph0" class="graph" transform="scale(1 1) rotate(0) translate(4 375)">
<title>oneDegreeRelationshipsDiagram</title>
<polygon fill="#ffffff" stroke="transparent" points="-4,4 -4,-375 536,-375 536,4 -4,4"/>
<text text-anchor="middle" x="73.5" y="-7.2" font-family="Helvetica,sans-Serif" font-size="11.00">Generated by SchemaSpy</text>
<!-- tww_od.dss15_planning_zone -->
<g id="node1" class="node">
<title>tww_od.dss15_planning_zone</title>
<g id="a_node1"><a xlink:href="../../../tww_od/tables/dss15_planning_zone.html" xlink:title="tww_od.dss15_planning_zone" target="_top">
<polygon fill="#ffffff" stroke="transparent" points="307,-285 307,-365 524,-365 524,-285 307,-285"/>
<polygon fill="#f5f5f5" stroke="transparent" points="307.5,-343 307.5,-365 524.5,-365 524.5,-343 307.5,-343"/>
<polygon fill="none" stroke="black" points="307.5,-343 307.5,-365 524.5,-365 524.5,-343 307.5,-343"/>
<text text-anchor="start" x="312.5" y="-352.2" font-family="Helvetica,sans-Serif" font-weight="bold" font-size="11.00">tww_od.dss15_planning_zone</text>
<text text-anchor="start" x="485.5" y="-351.2" font-family="Helvetica,sans-Serif" font-size="11.00">[table]</text>
<polygon fill="none" stroke="black" points="307.5,-321 307.5,-343 524.5,-343 524.5,-321 307.5,-321"/>
<image xlink:href="../../images/foreignKeys.png" width="11px" height="12px" preserveAspectRatio="xMinYMin meet" x="312.5" y="-338"/>
<text text-anchor="start" x="364.5" y="-329.2" font-family="Helvetica,sans-Serif" font-size="11.00">kind</text>
<polygon fill="none" stroke="black" points="307.5,-303 307.5,-321 524.5,-321 524.5,-303 307.5,-303"/>
<text text-anchor="start" x="310.5" y="-309.2" font-family="Helvetica,sans-Serif" font-size="11.00">...</text>
<polygon fill="#ffffff" stroke="transparent" points="307.5,-285 307.5,-303 400.5,-303 400.5,-285 307.5,-285"/>
<polygon fill="none" stroke="black" points="307.5,-285 307.5,-303 400.5,-303 400.5,-285 307.5,-285"/>
<text text-anchor="start" x="310.5" y="-291.2" font-family="Helvetica,sans-Serif" font-size="11.00">&lt; 1</text>
<polygon fill="#ffffff" stroke="transparent" points="400.5,-285 400.5,-303 475.5,-303 475.5,-285 400.5,-285"/>
<polygon fill="none" stroke="black" points="400.5,-285 400.5,-303 475.5,-303 475.5,-285 400.5,-285"/>
<text text-anchor="start" x="438.5" y="-291.2" font-family="Helvetica,sans-Serif" font-size="11.00">0 rows</text>
<polygon fill="#ffffff" stroke="transparent" points="475.5,-285 475.5,-303 524.5,-303 524.5,-285 475.5,-285"/>
<polygon fill="none" stroke="black" points="475.5,-285 475.5,-303 524.5,-303 524.5,-285 475.5,-285"/>
<text text-anchor="start" x="514.5" y="-291.2" font-family="Helvetica,sans-Serif" font-size="11.00"> &#160;</text>
</a>
</g>
</g>
<!-- dss15_planning_zone_kind -->
<g id="node2" class="node">
<title>dss15_planning_zone_kind</title>
<g id="a_node2"><a xlink:href="../../tables/dss15_planning_zone_kind.html" xlink:title="dss15_planning_zone_kind" target="_top">
<polygon fill="#ffffff" stroke="transparent" points="8,-37 8,-367 258,-367 258,-37 8,-37"/>
<polygon fill="#f5f5f5" stroke="transparent" points="10,-343 10,-365 256,-365 256,-343 10,-343"/>
<polygon fill="none" stroke="black" points="10,-343 10,-365 256,-365 256,-343 10,-343"/>
<text text-anchor="start" x="15" y="-352.2" font-family="Helvetica,sans-Serif" font-weight="bold" font-size="11.00">dss15_planning_zone_kind</text>
<text text-anchor="start" x="217" y="-351.2" font-family="Helvetica,sans-Serif" font-size="11.00">[table]</text>
<polygon fill="none" stroke="black" points="10,-321 10,-343 186,-343 186,-321 10,-321"/>
<image xlink:href="../../images/primaryKeys.png" width="11px" height="12px" preserveAspectRatio="xMinYMin meet" x="15" y="-338"/>
<text text-anchor="start" x="30" y="-329.2" font-family="Helvetica,sans-Serif" font-size="11.00">code</text>
<polygon fill="none" stroke="black" points="186,-321 186,-343 256,-343 256,-321 186,-321"/>
<text text-anchor="start" x="189" y="-329.2" font-family="Helvetica,sans-Serif" font-size="11.00">int4[10]</text>
<polygon fill="none" stroke="black" points="10,-299 10,-321 186,-321 186,-299 10,-299"/>
<text text-anchor="start" x="30" y="-307.2" font-family="Helvetica,sans-Serif" font-size="11.00">vsacode</text>
<polygon fill="none" stroke="black" points="186,-299 186,-321 256,-321 256,-299 186,-299"/>
<text text-anchor="start" x="189" y="-307.2" font-family="Helvetica,sans-Serif" font-size="11.00">int4[10]</text>
<polygon fill="none" stroke="black" points="10,-277 10,-299 186,-299 186,-277 10,-277"/>
<text text-anchor="start" x="30" y="-285.2" font-family="Helvetica,sans-Serif" font-size="11.00">value_en</text>
<polygon fill="none" stroke="black" points="186,-277 186,-299 256,-299 256,-277 186,-277"/>
<text text-anchor="start" x="189" y="-285.2" font-family="Helvetica,sans-Serif" font-size="11.00">varchar[100]</text>
<polygon fill="none" stroke="black" points="10,-255 10,-277 186,-277 186,-255 10,-255"/>
<text text-anchor="start" x="30" y="-263.2" font-family="Helvetica,sans-Serif" font-size="11.00">value_de</text>
<polygon fill="none" stroke="black" points="186,-255 186,-277 256,-277 256,-255 186,-255"/>
<text text-anchor="start" x="189" y="-263.2" font-family="Helvetica,sans-Serif" font-size="11.00">varchar[100]</text>
<polygon fill="none" stroke="black" points="10,-233 10,-255 186,-255 186,-233 10,-233"/>
<text text-anchor="start" x="30" y="-241.2" font-family="Helvetica,sans-Serif" font-size="11.00">value_fr</text>
<polygon fill="none" stroke="black" points="186,-233 186,-255 256,-255 256,-233 186,-233"/>
<text text-anchor="start" x="189" y="-241.2" font-family="Helvetica,sans-Serif" font-size="11.00">varchar[100]</text>
<polygon fill="none" stroke="black" points="10,-211 10,-233 186,-233 186,-211 10,-211"/>
<text text-anchor="start" x="30" y="-219.2" font-family="Helvetica,sans-Serif" font-size="11.00">value_it</text>
<polygon fill="none" stroke="black" points="186,-211 186,-233 256,-233 256,-211 186,-211"/>
<text text-anchor="start" x="189" y="-219.2" font-family="Helvetica,sans-Serif" font-size="11.00">varchar[100]</text>
<polygon fill="none" stroke="black" points="10,-189 10,-211 186,-211 186,-189 10,-189"/>
<text text-anchor="start" x="30" y="-197.2" font-family="Helvetica,sans-Serif" font-size="11.00">value_ro</text>
<polygon fill="none" stroke="black" points="186,-189 186,-211 256,-211 256,-189 186,-189"/>
<text text-anchor="start" x="189" y="-197.2" font-family="Helvetica,sans-Serif" font-size="11.00">varchar[100]</text>
<polygon fill="none" stroke="black" points="10,-167 10,-189 186,-189 186,-167 10,-167"/>
<text text-anchor="start" x="30" y="-175.2" font-family="Helvetica,sans-Serif" font-size="11.00">abbr_en</text>
<polygon fill="none" stroke="black" points="186,-167 186,-189 256,-189 256,-167 186,-167"/>
<text text-anchor="start" x="189" y="-175.2" font-family="Helvetica,sans-Serif" font-size="11.00">varchar[3]</text>
<polygon fill="none" stroke="black" points="10,-145 10,-167 186,-167 186,-145 10,-145"/>
<text text-anchor="start" x="30" y="-153.2" font-family="Helvetica,sans-Serif" font-size="11.00">abbr_de</text>
<polygon fill="none" stroke="black" points="186,-145 186,-167 256,-167 256,-145 186,-145"/>
<text text-anchor="start" x="189" y="-153.2" font-family="Helvetica,sans-Serif" font-size="11.00">varchar[3]</text>
<polygon fill="none" stroke="black" points="10,-123 10,-145 186,-145 186,-123 10,-123"/>
<text text-anchor="start" x="30" y="-131.2" font-family="Helvetica,sans-Serif" font-size="11.00">abbr_fr</text>
<polygon fill="none" stroke="black" points="186,-123 186,-145 256,-145 256,-123 186,-123"/>
<text text-anchor="start" x="189" y="-131.2" font-family="Helvetica,sans-Serif" font-size="11.00">varchar[3]</text>
<polygon fill="none" stroke="black" points="10,-101 10,-123 186,-123 186,-101 10,-101"/>
<text text-anchor="start" x="30" y="-109.2" font-family="Helvetica,sans-Serif" font-size="11.00">abbr_it</text>
<polygon fill="none" stroke="black" points="186,-101 186,-123 256,-123 256,-101 186,-101"/>
<text text-anchor="start" x="189" y="-109.2" font-family="Helvetica,sans-Serif" font-size="11.00">varchar[3]</text>
<polygon fill="none" stroke="black" points="10,-79 10,-101 186,-101 186,-79 10,-79"/>
<text text-anchor="start" x="30" y="-87.2" font-family="Helvetica,sans-Serif" font-size="11.00">abbr_ro</text>
<polygon fill="none" stroke="black" points="186,-79 186,-101 256,-101 256,-79 186,-79"/>
<text text-anchor="start" x="189" y="-87.2" font-family="Helvetica,sans-Serif" font-size="11.00">varchar[3]</text>
<polygon fill="none" stroke="black" points="10,-57 10,-79 186,-79 186,-57 10,-57"/>
<text text-anchor="start" x="30" y="-65.2" font-family="Helvetica,sans-Serif" font-size="11.00">active</text>
<polygon fill="none" stroke="black" points="186,-57 186,-79 256,-79 256,-57 186,-57"/>
<text text-anchor="start" x="189" y="-65.2" font-family="Helvetica,sans-Serif" font-size="11.00">bool[1]</text>
<polygon fill="#ffffff" stroke="transparent" points="10,-39 10,-57 102,-57 102,-39 10,-39"/>
<polygon fill="none" stroke="black" points="10,-39 10,-57 102,-57 102,-39 10,-39"/>
<text text-anchor="start" x="13" y="-45.2" font-family="Helvetica,sans-Serif" font-size="11.00">&lt; 0</text>
<polygon fill="#ffffff" stroke="transparent" points="102,-39 102,-57 186,-57 186,-39 102,-39"/>
<polygon fill="none" stroke="black" points="102,-39 102,-57 186,-57 186,-39 102,-39"/>
<text text-anchor="start" x="176" y="-45.2" font-family="Helvetica,sans-Serif" font-size="11.00"> &#160;</text>
<polygon fill="#ffffff" stroke="transparent" points="186,-39 186,-57 256,-57 256,-39 186,-39"/>
<polygon fill="none" stroke="black" points="186,-39 186,-57 256,-57 256,-39 186,-39"/>
<text text-anchor="start" x="237" y="-45.2" font-family="Helvetica,sans-Serif" font-size="11.00">1 &gt;</text>
<polygon fill="none" stroke="black" stroke-width="2" points="9,-38 9,-366 257,-366 257,-38 9,-38"/>
</a>
</g>
</g>
<!-- tww_od.dss15_planning_zone&#45;&gt;dss15_planning_zone_kind -->
<g id="edge1" class="edge">
<title>tww_od.dss15_planning_zone:w&#45;&gt;dss15_planning_zone_kind:e</title>
<path fill="none" stroke="black" d="M291.84,-332C280.41,-332 273.16,-332 257,-332"/>
<polygon fill="black" stroke="black" points="298.5,-332 306.5,-335.6 302.5,-332 306.5,-332 306.5,-332 306.5,-332 302.5,-332 306.5,-328.4 298.5,-332 298.5,-332"/>
<ellipse fill="none" stroke="black" cx="295.3" cy="-332" rx="3.2" ry="3.2"/>
</g>
</g>
</svg>
