<?xml version="1.0" encoding="UTF-8" standalone="no"?>
<!DOCTYPE svg PUBLIC "-//W3C//DTD SVG 1.1//EN"
 "http://www.w3.org/Graphics/SVG/1.1/DTD/svg11.dtd">
<!-- Generated by graphviz version 2.47.1 (20210515.0534)
 -->
<!-- Title: oneDegreeRelationshipsDiagram Pages: 1 -->
<svg width="517pt" height="399pt"
 viewBox="0.00 0.00 517.00 399.00" xmlns="http://www.w3.org/2000/svg" xmlns:xlink="http://www.w3.org/1999/xlink">
<g id="graph0" class="graph" transform="scale(1 1) rotate(0) translate(4 395)">
<title>oneDegreeRelationshipsDiagram</title>
<polygon fill="#ffffff" stroke="transparent" points="-4,4 -4,-395 513,-395 513,4 -4,4"/>
<text text-anchor="middle" x="73.5" y="-7.2" font-family="Helvetica,sans-Serif" font-size="11.00">Generated by SchemaSpy</text>
<!-- tww_od.farm -->
<g id="node1" class="node">
<title>tww_od.farm</title>
<g id="a_node1"><a xlink:href="../../../tww_od/tables/farm.html" xlink:title="tww_od.farm" target="_top">
<polygon fill="#ffffff" stroke="transparent" points="252,-219 252,-387 501,-387 501,-219 252,-219"/>
<polygon fill="#f5f5f5" stroke="transparent" points="252.5,-365 252.5,-387 501.5,-387 501.5,-365 252.5,-365"/>
<polygon fill="none" stroke="black" points="252.5,-365 252.5,-387 501.5,-387 501.5,-365 252.5,-365"/>
<text text-anchor="start" x="257.5" y="-374.2" font-family="Helvetica,sans-Serif" font-weight="bold" font-size="11.00">tww_od.farm</text>
<text text-anchor="start" x="462.5" y="-373.2" font-family="Helvetica,sans-Serif" font-size="11.00">[table]</text>
<polygon fill="none" stroke="black" points="252.5,-343 252.5,-365 501.5,-365 501.5,-343 252.5,-343"/>
<image xlink:href="../../images/foreignKeys.png" width="11px" height="12px" preserveAspectRatio="xMinYMin meet" x="257.5" y="-360"/>
<text text-anchor="start" x="272.5" y="-351.2" font-family="Helvetica,sans-Serif" font-size="11.00">cesspit_volume</text>
<polygon fill="none" stroke="black" points="252.5,-321 252.5,-343 501.5,-343 501.5,-321 252.5,-321"/>
<image xlink:href="../../images/foreignKeys.png" width="11px" height="12px" preserveAspectRatio="xMinYMin meet" x="257.5" y="-338"/>
<text text-anchor="start" x="272.5" y="-329.2" font-family="Helvetica,sans-Serif" font-size="11.00">conformity</text>
<polygon fill="none" stroke="black" points="252.5,-299 252.5,-321 501.5,-321 501.5,-299 252.5,-299"/>
<image xlink:href="../../images/foreignKeys.png" width="11px" height="12px" preserveAspectRatio="xMinYMin meet" x="257.5" y="-316"/>
<text text-anchor="start" x="272.5" y="-307.2" font-family="Helvetica,sans-Serif" font-size="11.00">continuance</text>
<polygon fill="none" stroke="black" points="252.5,-277 252.5,-299 501.5,-299 501.5,-277 252.5,-277"/>
<image xlink:href="../../images/foreignKeys.png" width="11px" height="12px" preserveAspectRatio="xMinYMin meet" x="257.5" y="-294"/>
<text text-anchor="start" x="272.5" y="-285.2" font-family="Helvetica,sans-Serif" font-size="11.00">shepherds_hut_wastewater</text>
<polygon fill="none" stroke="black" points="252.5,-255 252.5,-277 501.5,-277 501.5,-255 252.5,-255"/>
<image xlink:href="../../images/foreignKeys.png" width="11px" height="12px" preserveAspectRatio="xMinYMin meet" x="257.5" y="-272"/>
<text text-anchor="start" x="272.5" y="-263.2" font-family="Helvetica,sans-Serif" font-size="11.00">stable_cattle</text>
<polygon fill="none" stroke="black" points="252.5,-237 252.5,-255 501.5,-255 501.5,-237 252.5,-237"/>
<text text-anchor="start" x="255.5" y="-243.2" font-family="Helvetica,sans-Serif" font-size="11.00">...</text>
<polygon fill="#ffffff" stroke="transparent" points="252.5,-219 252.5,-237 361.5,-237 361.5,-219 252.5,-219"/>
<polygon fill="none" stroke="black" points="252.5,-219 252.5,-237 361.5,-237 361.5,-219 252.5,-219"/>
<text text-anchor="start" x="255.5" y="-225.2" font-family="Helvetica,sans-Serif" font-size="11.00">&lt; 5</text>
<polygon fill="#ffffff" stroke="transparent" points="361.5,-219 361.5,-237 444.5,-237 444.5,-219 361.5,-219"/>
<polygon fill="none" stroke="black" points="361.5,-219 361.5,-237 444.5,-237 444.5,-219 361.5,-219"/>
<text text-anchor="start" x="407.5" y="-225.2" font-family="Helvetica,sans-Serif" font-size="11.00">0 rows</text>
<polygon fill="#ffffff" stroke="transparent" points="444.5,-219 444.5,-237 501.5,-237 501.5,-219 444.5,-219"/>
<polygon fill="none" stroke="black" points="444.5,-219 444.5,-237 501.5,-237 501.5,-219 444.5,-219"/>
<text text-anchor="start" x="491.5" y="-225.2" font-family="Helvetica,sans-Serif" font-size="11.00"> &#160;</text>
</a>
</g>
</g>
<!-- farm_conformity -->
<g id="node2" class="node">
<title>farm_conformity</title>
<g id="a_node2"><a xlink:href="../../tables/farm_conformity.html" xlink:title="farm_conformity" target="_top">
<polygon fill="#ffffff" stroke="transparent" points="8,-37 8,-367 203,-367 203,-37 8,-37"/>
<polygon fill="#f5f5f5" stroke="transparent" points="10.5,-343 10.5,-365 201.5,-365 201.5,-343 10.5,-343"/>
<polygon fill="none" stroke="black" points="10.5,-343 10.5,-365 201.5,-365 201.5,-343 10.5,-343"/>
<text text-anchor="start" x="15.5" y="-352.2" font-family="Helvetica,sans-Serif" font-weight="bold" font-size="11.00">farm_conformity</text>
<text text-anchor="start" x="162.5" y="-351.2" font-family="Helvetica,sans-Serif" font-size="11.00">[table]</text>
<polygon fill="none" stroke="black" points="10.5,-321 10.5,-343 131.5,-343 131.5,-321 10.5,-321"/>
<image xlink:href="../../images/primaryKeys.png" width="11px" height="12px" preserveAspectRatio="xMinYMin meet" x="15.5" y="-338"/>
<text text-anchor="start" x="30.5" y="-329.2" font-family="Helvetica,sans-Serif" font-size="11.00">code</text>
<polygon fill="none" stroke="black" points="131.5,-321 131.5,-343 201.5,-343 201.5,-321 131.5,-321"/>
<text text-anchor="start" x="134.5" y="-329.2" font-family="Helvetica,sans-Serif" font-size="11.00">int4[10]</text>
<polygon fill="none" stroke="black" points="10.5,-299 10.5,-321 131.5,-321 131.5,-299 10.5,-299"/>
<text text-anchor="start" x="30.5" y="-307.2" font-family="Helvetica,sans-Serif" font-size="11.00">vsacode</text>
<polygon fill="none" stroke="black" points="131.5,-299 131.5,-321 201.5,-321 201.5,-299 131.5,-299"/>
<text text-anchor="start" x="134.5" y="-307.2" font-family="Helvetica,sans-Serif" font-size="11.00">int4[10]</text>
<polygon fill="none" stroke="black" points="10.5,-277 10.5,-299 131.5,-299 131.5,-277 10.5,-277"/>
<text text-anchor="start" x="30.5" y="-285.2" font-family="Helvetica,sans-Serif" font-size="11.00">value_en</text>
<polygon fill="none" stroke="black" points="131.5,-277 131.5,-299 201.5,-299 201.5,-277 131.5,-277"/>
<text text-anchor="start" x="134.5" y="-285.2" font-family="Helvetica,sans-Serif" font-size="11.00">varchar[100]</text>
<polygon fill="none" stroke="black" points="10.5,-255 10.5,-277 131.5,-277 131.5,-255 10.5,-255"/>
<text text-anchor="start" x="30.5" y="-263.2" font-family="Helvetica,sans-Serif" font-size="11.00">value_de</text>
<polygon fill="none" stroke="black" points="131.5,-255 131.5,-277 201.5,-277 201.5,-255 131.5,-255"/>
<text text-anchor="start" x="134.5" y="-263.2" font-family="Helvetica,sans-Serif" font-size="11.00">varchar[100]</text>
<polygon fill="none" stroke="black" points="10.5,-233 10.5,-255 131.5,-255 131.5,-233 10.5,-233"/>
<text text-anchor="start" x="30.5" y="-241.2" font-family="Helvetica,sans-Serif" font-size="11.00">value_fr</text>
<polygon fill="none" stroke="black" points="131.5,-233 131.5,-255 201.5,-255 201.5,-233 131.5,-233"/>
<text text-anchor="start" x="134.5" y="-241.2" font-family="Helvetica,sans-Serif" font-size="11.00">varchar[100]</text>
<polygon fill="none" stroke="black" points="10.5,-211 10.5,-233 131.5,-233 131.5,-211 10.5,-211"/>
<text text-anchor="start" x="30.5" y="-219.2" font-family="Helvetica,sans-Serif" font-size="11.00">value_it</text>
<polygon fill="none" stroke="black" points="131.5,-211 131.5,-233 201.5,-233 201.5,-211 131.5,-211"/>
<text text-anchor="start" x="134.5" y="-219.2" font-family="Helvetica,sans-Serif" font-size="11.00">varchar[100]</text>
<polygon fill="none" stroke="black" points="10.5,-189 10.5,-211 131.5,-211 131.5,-189 10.5,-189"/>
<text text-anchor="start" x="30.5" y="-197.2" font-family="Helvetica,sans-Serif" font-size="11.00">value_ro</text>
<polygon fill="none" stroke="black" points="131.5,-189 131.5,-211 201.5,-211 201.5,-189 131.5,-189"/>
<text text-anchor="start" x="134.5" y="-197.2" font-family="Helvetica,sans-Serif" font-size="11.00">varchar[100]</text>
<polygon fill="none" stroke="black" points="10.5,-167 10.5,-189 131.5,-189 131.5,-167 10.5,-167"/>
<text text-anchor="start" x="30.5" y="-175.2" font-family="Helvetica,sans-Serif" font-size="11.00">abbr_en</text>
<polygon fill="none" stroke="black" points="131.5,-167 131.5,-189 201.5,-189 201.5,-167 131.5,-167"/>
<text text-anchor="start" x="134.5" y="-175.2" font-family="Helvetica,sans-Serif" font-size="11.00">varchar[3]</text>
<polygon fill="none" stroke="black" points="10.5,-145 10.5,-167 131.5,-167 131.5,-145 10.5,-145"/>
<text text-anchor="start" x="30.5" y="-153.2" font-family="Helvetica,sans-Serif" font-size="11.00">abbr_de</text>
<polygon fill="none" stroke="black" points="131.5,-145 131.5,-167 201.5,-167 201.5,-145 131.5,-145"/>
<text text-anchor="start" x="134.5" y="-153.2" font-family="Helvetica,sans-Serif" font-size="11.00">varchar[3]</text>
<polygon fill="none" stroke="black" points="10.5,-123 10.5,-145 131.5,-145 131.5,-123 10.5,-123"/>
<text text-anchor="start" x="30.5" y="-131.2" font-family="Helvetica,sans-Serif" font-size="11.00">abbr_fr</text>
<polygon fill="none" stroke="black" points="131.5,-123 131.5,-145 201.5,-145 201.5,-123 131.5,-123"/>
<text text-anchor="start" x="134.5" y="-131.2" font-family="Helvetica,sans-Serif" font-size="11.00">varchar[3]</text>
<polygon fill="none" stroke="black" points="10.5,-101 10.5,-123 131.5,-123 131.5,-101 10.5,-101"/>
<text text-anchor="start" x="30.5" y="-109.2" font-family="Helvetica,sans-Serif" font-size="11.00">abbr_it</text>
<polygon fill="none" stroke="black" points="131.5,-101 131.5,-123 201.5,-123 201.5,-101 131.5,-101"/>
<text text-anchor="start" x="134.5" y="-109.2" font-family="Helvetica,sans-Serif" font-size="11.00">varchar[3]</text>
<polygon fill="none" stroke="black" points="10.5,-79 10.5,-101 131.5,-101 131.5,-79 10.5,-79"/>
<text text-anchor="start" x="30.5" y="-87.2" font-family="Helvetica,sans-Serif" font-size="11.00">abbr_ro</text>
<polygon fill="none" stroke="black" points="131.5,-79 131.5,-101 201.5,-101 201.5,-79 131.5,-79"/>
<text text-anchor="start" x="134.5" y="-87.2" font-family="Helvetica,sans-Serif" font-size="11.00">varchar[3]</text>
<polygon fill="none" stroke="black" points="10.5,-57 10.5,-79 131.5,-79 131.5,-57 10.5,-57"/>
<text text-anchor="start" x="30.5" y="-65.2" font-family="Helvetica,sans-Serif" font-size="11.00">active</text>
<polygon fill="none" stroke="black" points="131.5,-57 131.5,-79 201.5,-79 201.5,-57 131.5,-57"/>
<text text-anchor="start" x="134.5" y="-65.2" font-family="Helvetica,sans-Serif" font-size="11.00">bool[1]</text>
<polygon fill="#ffffff" stroke="transparent" points="10.5,-39 10.5,-57 75.5,-57 75.5,-39 10.5,-39"/>
<polygon fill="none" stroke="black" points="10.5,-39 10.5,-57 75.5,-57 75.5,-39 10.5,-39"/>
<text text-anchor="start" x="13.5" y="-45.2" font-family="Helvetica,sans-Serif" font-size="11.00">&lt; 0</text>
<polygon fill="#ffffff" stroke="transparent" points="75.5,-39 75.5,-57 131.5,-57 131.5,-39 75.5,-39"/>
<polygon fill="none" stroke="black" points="75.5,-39 75.5,-57 131.5,-57 131.5,-39 75.5,-39"/>
<text text-anchor="start" x="121.5" y="-45.2" font-family="Helvetica,sans-Serif" font-size="11.00"> &#160;</text>
<polygon fill="#ffffff" stroke="transparent" points="131.5,-39 131.5,-57 201.5,-57 201.5,-39 131.5,-39"/>
<polygon fill="none" stroke="black" points="131.5,-39 131.5,-57 201.5,-57 201.5,-39 131.5,-39"/>
<text text-anchor="start" x="182.5" y="-45.2" font-family="Helvetica,sans-Serif" font-size="11.00">1 &gt;</text>
<polygon fill="none" stroke="black" stroke-width="2" points="9,-38 9,-366 202,-366 202,-38 9,-38"/>
</a>
</g>
</g>
<!-- tww_od.farm&#45;&gt;farm_conformity -->
<g id="edge1" class="edge">
<title>tww_od.farm:w&#45;&gt;farm_conformity:e</title>
<path fill="none" stroke="black" d="M236.99,-332C225.68,-332 218.49,-332 202.5,-332"/>
<polygon fill="black" stroke="black" points="243.5,-332 251.5,-335.6 247.5,-332 251.5,-332 251.5,-332 251.5,-332 247.5,-332 251.5,-328.4 243.5,-332 243.5,-332"/>
<ellipse fill="none" stroke="black" cx="240.3" cy="-332" rx="3.2" ry="3.2"/>
</g>
</g>
</svg>
