<?xml version="1.0" encoding="UTF-8" standalone="no"?>
<!DOCTYPE svg PUBLIC "-//W3C//DTD SVG 1.1//EN"
 "http://www.w3.org/Graphics/SVG/1.1/DTD/svg11.dtd">
<!-- Generated by graphviz version 2.47.1 (20210515.0534)
 -->
<!-- Title: oneDegreeRelationshipsDiagram Pages: 1 -->
<svg width="591pt" height="465pt"
 viewBox="0.00 0.00 591.00 465.00" xmlns="http://www.w3.org/2000/svg" xmlns:xlink="http://www.w3.org/1999/xlink">
<g id="graph0" class="graph" transform="scale(1 1) rotate(0) translate(4 461)">
<title>oneDegreeRelationshipsDiagram</title>
<polygon fill="#ffffff" stroke="transparent" points="-4,4 -4,-461 587,-461 587,4 -4,4"/>
<text text-anchor="middle" x="73.5" y="-7.2" font-family="Helvetica,sans-Serif" font-size="11.00">Generated by SchemaSpy</text>
<!-- tww_od.infiltration_installation -->
<g id="node1" class="node">
<title>tww_od.infiltration_installation</title>
<g id="a_node1"><a xlink:href="../../../tww_od/tables/infiltration_installation.html" xlink:title="tww_od.infiltration_installation" target="_top">
<polygon fill="#ffffff" stroke="transparent" points="343,-219 343,-453 575,-453 575,-219 343,-219"/>
<polygon fill="#f5f5f5" stroke="transparent" points="343,-431 343,-453 575,-453 575,-431 343,-431"/>
<polygon fill="none" stroke="black" points="343,-431 343,-453 575,-453 575,-431 343,-431"/>
<text text-anchor="start" x="348" y="-440.2" font-family="Helvetica,sans-Serif" font-weight="bold" font-size="11.00">tww_od.infiltration_installation</text>
<text text-anchor="start" x="536" y="-439.2" font-family="Helvetica,sans-Serif" font-size="11.00">[table]</text>
<polygon fill="none" stroke="black" points="343,-409 343,-431 575,-431 575,-409 343,-409"/>
<image xlink:href="../../images/foreignKeys.png" width="11px" height="12px" preserveAspectRatio="xMinYMin meet" x="348" y="-426"/>
<text text-anchor="start" x="399" y="-417.2" font-family="Helvetica,sans-Serif" font-size="11.00">defects</text>
<polygon fill="none" stroke="black" points="343,-387 343,-409 575,-409 575,-387 343,-387"/>
<image xlink:href="../../images/foreignKeys.png" width="11px" height="12px" preserveAspectRatio="xMinYMin meet" x="348" y="-404"/>
<text text-anchor="start" x="399" y="-395.2" font-family="Helvetica,sans-Serif" font-size="11.00">emergency_overflow</text>
<polygon fill="none" stroke="black" points="343,-365 343,-387 575,-387 575,-365 343,-365"/>
<image xlink:href="../../images/foreignKeys.png" width="11px" height="12px" preserveAspectRatio="xMinYMin meet" x="348" y="-382"/>
<text text-anchor="start" x="399" y="-373.2" font-family="Helvetica,sans-Serif" font-size="11.00">filling_material</text>
<polygon fill="none" stroke="black" points="343,-343 343,-365 575,-365 575,-343 343,-343"/>
<image xlink:href="../../images/foreignKeys.png" width="11px" height="12px" preserveAspectRatio="xMinYMin meet" x="348" y="-360"/>
<text text-anchor="start" x="399" y="-351.2" font-family="Helvetica,sans-Serif" font-size="11.00">kind</text>
<polygon fill="none" stroke="black" points="343,-321 343,-343 575,-343 575,-321 343,-321"/>
<image xlink:href="../../images/foreignKeys.png" width="11px" height="12px" preserveAspectRatio="xMinYMin meet" x="348" y="-338"/>
<text text-anchor="start" x="399" y="-329.2" font-family="Helvetica,sans-Serif" font-size="11.00">labeling</text>
<polygon fill="none" stroke="black" points="343,-299 343,-321 575,-321 575,-299 343,-299"/>
<image xlink:href="../../images/foreignKeys.png" width="11px" height="12px" preserveAspectRatio="xMinYMin meet" x="348" y="-316"/>
<text text-anchor="start" x="399" y="-307.2" font-family="Helvetica,sans-Serif" font-size="11.00">seepage_utilization</text>
<polygon fill="none" stroke="black" points="343,-277 343,-299 575,-299 575,-277 343,-277"/>
<image xlink:href="../../images/foreignKeys.png" width="11px" height="12px" preserveAspectRatio="xMinYMin meet" x="348" y="-294"/>
<text text-anchor="start" x="399" y="-285.2" font-family="Helvetica,sans-Serif" font-size="11.00">vehicle_access</text>
<polygon fill="none" stroke="black" points="343,-255 343,-277 575,-277 575,-255 343,-255"/>
<image xlink:href="../../images/foreignKeys.png" width="11px" height="12px" preserveAspectRatio="xMinYMin meet" x="348" y="-272"/>
<text text-anchor="start" x="399" y="-263.2" font-family="Helvetica,sans-Serif" font-size="11.00">watertightness</text>
<polygon fill="none" stroke="black" points="343,-237 343,-255 575,-255 575,-237 343,-237"/>
<text text-anchor="start" x="346" y="-243.2" font-family="Helvetica,sans-Serif" font-size="11.00">...</text>
<polygon fill="#ffffff" stroke="transparent" points="343,-219 343,-237 443,-237 443,-219 343,-219"/>
<polygon fill="none" stroke="black" points="343,-219 343,-237 443,-237 443,-219 343,-219"/>
<text text-anchor="start" x="346" y="-225.2" font-family="Helvetica,sans-Serif" font-size="11.00">&lt; 8</text>
<polygon fill="#ffffff" stroke="transparent" points="443,-219 443,-237 522,-237 522,-219 443,-219"/>
<polygon fill="none" stroke="black" points="443,-219 443,-237 522,-237 522,-219 443,-219"/>
<text text-anchor="start" x="485" y="-225.2" font-family="Helvetica,sans-Serif" font-size="11.00">0 rows</text>
<polygon fill="#ffffff" stroke="transparent" points="522,-219 522,-237 575,-237 575,-219 522,-219"/>
<polygon fill="none" stroke="black" points="522,-219 522,-237 575,-237 575,-219 522,-219"/>
<text text-anchor="start" x="565" y="-225.2" font-family="Helvetica,sans-Serif" font-size="11.00"> &#160;</text>
</a>
</g>
</g>
<!-- infiltration_installation_labeling -->
<g id="node2" class="node">
<title>infiltration_installation_labeling</title>
<g id="a_node2"><a xlink:href="../../tables/infiltration_installation_labeling.html" xlink:title="infiltration_installation_labeling" target="_top">
<polygon fill="#ffffff" stroke="transparent" points="8,-37 8,-367 294,-367 294,-37 8,-37"/>
<polygon fill="#f5f5f5" stroke="transparent" points="10,-343 10,-365 292,-365 292,-343 10,-343"/>
<polygon fill="none" stroke="black" points="10,-343 10,-365 292,-365 292,-343 10,-343"/>
<text text-anchor="start" x="15" y="-352.2" font-family="Helvetica,sans-Serif" font-weight="bold" font-size="11.00">infiltration_installation_labeling</text>
<text text-anchor="start" x="253" y="-351.2" font-family="Helvetica,sans-Serif" font-size="11.00">[table]</text>
<polygon fill="none" stroke="black" points="10,-321 10,-343 222,-343 222,-321 10,-321"/>
<image xlink:href="../../images/primaryKeys.png" width="11px" height="12px" preserveAspectRatio="xMinYMin meet" x="15" y="-338"/>
<text text-anchor="start" x="30" y="-329.2" font-family="Helvetica,sans-Serif" font-size="11.00">code</text>
<polygon fill="none" stroke="black" points="222,-321 222,-343 292,-343 292,-321 222,-321"/>
<text text-anchor="start" x="225" y="-329.2" font-family="Helvetica,sans-Serif" font-size="11.00">int4[10]</text>
<polygon fill="none" stroke="black" points="10,-299 10,-321 222,-321 222,-299 10,-299"/>
<text text-anchor="start" x="30" y="-307.2" font-family="Helvetica,sans-Serif" font-size="11.00">vsacode</text>
<polygon fill="none" stroke="black" points="222,-299 222,-321 292,-321 292,-299 222,-299"/>
<text text-anchor="start" x="225" y="-307.2" font-family="Helvetica,sans-Serif" font-size="11.00">int4[10]</text>
<polygon fill="none" stroke="black" points="10,-277 10,-299 222,-299 222,-277 10,-277"/>
<text text-anchor="start" x="30" y="-285.2" font-family="Helvetica,sans-Serif" font-size="11.00">value_en</text>
<polygon fill="none" stroke="black" points="222,-277 222,-299 292,-299 292,-277 222,-277"/>
<text text-anchor="start" x="225" y="-285.2" font-family="Helvetica,sans-Serif" font-size="11.00">varchar[100]</text>
<polygon fill="none" stroke="black" points="10,-255 10,-277 222,-277 222,-255 10,-255"/>
<text text-anchor="start" x="30" y="-263.2" font-family="Helvetica,sans-Serif" font-size="11.00">value_de</text>
<polygon fill="none" stroke="black" points="222,-255 222,-277 292,-277 292,-255 222,-255"/>
<text text-anchor="start" x="225" y="-263.2" font-family="Helvetica,sans-Serif" font-size="11.00">varchar[100]</text>
<polygon fill="none" stroke="black" points="10,-233 10,-255 222,-255 222,-233 10,-233"/>
<text text-anchor="start" x="30" y="-241.2" font-family="Helvetica,sans-Serif" font-size="11.00">value_fr</text>
<polygon fill="none" stroke="black" points="222,-233 222,-255 292,-255 292,-233 222,-233"/>
<text text-anchor="start" x="225" y="-241.2" font-family="Helvetica,sans-Serif" font-size="11.00">varchar[100]</text>
<polygon fill="none" stroke="black" points="10,-211 10,-233 222,-233 222,-211 10,-211"/>
<text text-anchor="start" x="30" y="-219.2" font-family="Helvetica,sans-Serif" font-size="11.00">value_it</text>
<polygon fill="none" stroke="black" points="222,-211 222,-233 292,-233 292,-211 222,-211"/>
<text text-anchor="start" x="225" y="-219.2" font-family="Helvetica,sans-Serif" font-size="11.00">varchar[100]</text>
<polygon fill="none" stroke="black" points="10,-189 10,-211 222,-211 222,-189 10,-189"/>
<text text-anchor="start" x="30" y="-197.2" font-family="Helvetica,sans-Serif" font-size="11.00">value_ro</text>
<polygon fill="none" stroke="black" points="222,-189 222,-211 292,-211 292,-189 222,-189"/>
<text text-anchor="start" x="225" y="-197.2" font-family="Helvetica,sans-Serif" font-size="11.00">varchar[100]</text>
<polygon fill="none" stroke="black" points="10,-167 10,-189 222,-189 222,-167 10,-167"/>
<text text-anchor="start" x="30" y="-175.2" font-family="Helvetica,sans-Serif" font-size="11.00">abbr_en</text>
<polygon fill="none" stroke="black" points="222,-167 222,-189 292,-189 292,-167 222,-167"/>
<text text-anchor="start" x="225" y="-175.2" font-family="Helvetica,sans-Serif" font-size="11.00">varchar[3]</text>
<polygon fill="none" stroke="black" points="10,-145 10,-167 222,-167 222,-145 10,-145"/>
<text text-anchor="start" x="30" y="-153.2" font-family="Helvetica,sans-Serif" font-size="11.00">abbr_de</text>
<polygon fill="none" stroke="black" points="222,-145 222,-167 292,-167 292,-145 222,-145"/>
<text text-anchor="start" x="225" y="-153.2" font-family="Helvetica,sans-Serif" font-size="11.00">varchar[3]</text>
<polygon fill="none" stroke="black" points="10,-123 10,-145 222,-145 222,-123 10,-123"/>
<text text-anchor="start" x="30" y="-131.2" font-family="Helvetica,sans-Serif" font-size="11.00">abbr_fr</text>
<polygon fill="none" stroke="black" points="222,-123 222,-145 292,-145 292,-123 222,-123"/>
<text text-anchor="start" x="225" y="-131.2" font-family="Helvetica,sans-Serif" font-size="11.00">varchar[3]</text>
<polygon fill="none" stroke="black" points="10,-101 10,-123 222,-123 222,-101 10,-101"/>
<text text-anchor="start" x="30" y="-109.2" font-family="Helvetica,sans-Serif" font-size="11.00">abbr_it</text>
<polygon fill="none" stroke="black" points="222,-101 222,-123 292,-123 292,-101 222,-101"/>
<text text-anchor="start" x="225" y="-109.2" font-family="Helvetica,sans-Serif" font-size="11.00">varchar[3]</text>
<polygon fill="none" stroke="black" points="10,-79 10,-101 222,-101 222,-79 10,-79"/>
<text text-anchor="start" x="30" y="-87.2" font-family="Helvetica,sans-Serif" font-size="11.00">abbr_ro</text>
<polygon fill="none" stroke="black" points="222,-79 222,-101 292,-101 292,-79 222,-79"/>
<text text-anchor="start" x="225" y="-87.2" font-family="Helvetica,sans-Serif" font-size="11.00">varchar[3]</text>
<polygon fill="none" stroke="black" points="10,-57 10,-79 222,-79 222,-57 10,-57"/>
<text text-anchor="start" x="30" y="-65.2" font-family="Helvetica,sans-Serif" font-size="11.00">active</text>
<polygon fill="none" stroke="black" points="222,-57 222,-79 292,-79 292,-57 222,-57"/>
<text text-anchor="start" x="225" y="-65.2" font-family="Helvetica,sans-Serif" font-size="11.00">bool[1]</text>
<polygon fill="#ffffff" stroke="transparent" points="10,-39 10,-57 120,-57 120,-39 10,-39"/>
<polygon fill="none" stroke="black" points="10,-39 10,-57 120,-57 120,-39 10,-39"/>
<text text-anchor="start" x="13" y="-45.2" font-family="Helvetica,sans-Serif" font-size="11.00">&lt; 0</text>
<polygon fill="#ffffff" stroke="transparent" points="120,-39 120,-57 222,-57 222,-39 120,-39"/>
<polygon fill="none" stroke="black" points="120,-39 120,-57 222,-57 222,-39 120,-39"/>
<text text-anchor="start" x="212" y="-45.2" font-family="Helvetica,sans-Serif" font-size="11.00"> &#160;</text>
<polygon fill="#ffffff" stroke="transparent" points="222,-39 222,-57 292,-57 292,-39 222,-39"/>
<polygon fill="none" stroke="black" points="222,-39 222,-57 292,-57 292,-39 222,-39"/>
<text text-anchor="start" x="273" y="-45.2" font-family="Helvetica,sans-Serif" font-size="11.00">1 &gt;</text>
<polygon fill="none" stroke="black" stroke-width="2" points="9,-38 9,-366 293,-366 293,-38 9,-38"/>
</a>
</g>
</g>
<!-- tww_od.infiltration_installation&#45;&gt;infiltration_installation_labeling -->
<g id="edge1" class="edge">
<title>tww_od.infiltration_installation:w&#45;&gt;infiltration_installation_labeling:e</title>
<path fill="none" stroke="black" d="M327.49,-332C316.18,-332 308.99,-332 293,-332"/>
<polygon fill="black" stroke="black" points="334,-332 342,-335.6 338,-332 342,-332 342,-332 342,-332 338,-332 342,-328.4 334,-332 334,-332"/>
<ellipse fill="none" stroke="black" cx="330.8" cy="-332" rx="3.2" ry="3.2"/>
</g>
</g>
</svg>
