<?xml version="1.0" encoding="UTF-8" standalone="no"?>
<!DOCTYPE svg PUBLIC "-//W3C//DTD SVG 1.1//EN"
 "http://www.w3.org/Graphics/SVG/1.1/DTD/svg11.dtd">
<!-- Generated by graphviz version 2.47.1 (20210515.0534)
 -->
<!-- Title: oneDegreeRelationshipsDiagram Pages: 1 -->
<svg width="570pt" height="443pt"
 viewBox="0.00 0.00 570.00 443.00" xmlns="http://www.w3.org/2000/svg" xmlns:xlink="http://www.w3.org/1999/xlink">
<g id="graph0" class="graph" transform="scale(1 1) rotate(0) translate(4 439)">
<title>oneDegreeRelationshipsDiagram</title>
<polygon fill="#ffffff" stroke="transparent" points="-4,4 -4,-439 566,-439 566,4 -4,4"/>
<text text-anchor="middle" x="73.5" y="-7.2" font-family="Helvetica,sans-Serif" font-size="11.00">Generated by SchemaSpy</text>
<!-- tww_od.infiltration_installation -->
<g id="node1" class="node">
<title>tww_od.infiltration_installation</title>
<g id="a_node1"><a xlink:href="../../../tww_od/tables/infiltration_installation.html" xlink:title="tww_od.infiltration_installation" target="_top">
<polygon fill="#ffffff" stroke="transparent" points="322,-197 322,-431 554,-431 554,-197 322,-197"/>
<polygon fill="#f5f5f5" stroke="transparent" points="322,-409 322,-431 554,-431 554,-409 322,-409"/>
<polygon fill="none" stroke="black" points="322,-409 322,-431 554,-431 554,-409 322,-409"/>
<text text-anchor="start" x="327" y="-418.2" font-family="Helvetica,sans-Serif" font-weight="bold" font-size="11.00">tww_od.infiltration_installation</text>
<text text-anchor="start" x="515" y="-417.2" font-family="Helvetica,sans-Serif" font-size="11.00">[table]</text>
<polygon fill="none" stroke="black" points="322,-387 322,-409 554,-409 554,-387 322,-387"/>
<image xlink:href="../../images/foreignKeys.png" width="11px" height="12px" preserveAspectRatio="xMinYMin meet" x="327" y="-404"/>
<text text-anchor="start" x="378" y="-395.2" font-family="Helvetica,sans-Serif" font-size="11.00">defects</text>
<polygon fill="none" stroke="black" points="322,-365 322,-387 554,-387 554,-365 322,-365"/>
<image xlink:href="../../images/foreignKeys.png" width="11px" height="12px" preserveAspectRatio="xMinYMin meet" x="327" y="-382"/>
<text text-anchor="start" x="378" y="-373.2" font-family="Helvetica,sans-Serif" font-size="11.00">emergency_overflow</text>
<polygon fill="none" stroke="black" points="322,-343 322,-365 554,-365 554,-343 322,-343"/>
<image xlink:href="../../images/foreignKeys.png" width="11px" height="12px" preserveAspectRatio="xMinYMin meet" x="327" y="-360"/>
<text text-anchor="start" x="378" y="-351.2" font-family="Helvetica,sans-Serif" font-size="11.00">filling_material</text>
<polygon fill="none" stroke="black" points="322,-321 322,-343 554,-343 554,-321 322,-321"/>
<image xlink:href="../../images/foreignKeys.png" width="11px" height="12px" preserveAspectRatio="xMinYMin meet" x="327" y="-338"/>
<text text-anchor="start" x="378" y="-329.2" font-family="Helvetica,sans-Serif" font-size="11.00">kind</text>
<polygon fill="none" stroke="black" points="322,-299 322,-321 554,-321 554,-299 322,-299"/>
<image xlink:href="../../images/foreignKeys.png" width="11px" height="12px" preserveAspectRatio="xMinYMin meet" x="327" y="-316"/>
<text text-anchor="start" x="378" y="-307.2" font-family="Helvetica,sans-Serif" font-size="11.00">labeling</text>
<polygon fill="none" stroke="black" points="322,-277 322,-299 554,-299 554,-277 322,-277"/>
<image xlink:href="../../images/foreignKeys.png" width="11px" height="12px" preserveAspectRatio="xMinYMin meet" x="327" y="-294"/>
<text text-anchor="start" x="378" y="-285.2" font-family="Helvetica,sans-Serif" font-size="11.00">seepage_utilization</text>
<polygon fill="none" stroke="black" points="322,-255 322,-277 554,-277 554,-255 322,-255"/>
<image xlink:href="../../images/foreignKeys.png" width="11px" height="12px" preserveAspectRatio="xMinYMin meet" x="327" y="-272"/>
<text text-anchor="start" x="378" y="-263.2" font-family="Helvetica,sans-Serif" font-size="11.00">vehicle_access</text>
<polygon fill="none" stroke="black" points="322,-233 322,-255 554,-255 554,-233 322,-233"/>
<image xlink:href="../../images/foreignKeys.png" width="11px" height="12px" preserveAspectRatio="xMinYMin meet" x="327" y="-250"/>
<text text-anchor="start" x="378" y="-241.2" font-family="Helvetica,sans-Serif" font-size="11.00">watertightness</text>
<polygon fill="none" stroke="black" points="322,-215 322,-233 554,-233 554,-215 322,-215"/>
<text text-anchor="start" x="325" y="-221.2" font-family="Helvetica,sans-Serif" font-size="11.00">...</text>
<polygon fill="#ffffff" stroke="transparent" points="322,-197 322,-215 422,-215 422,-197 322,-197"/>
<polygon fill="none" stroke="black" points="322,-197 322,-215 422,-215 422,-197 322,-197"/>
<text text-anchor="start" x="325" y="-203.2" font-family="Helvetica,sans-Serif" font-size="11.00">&lt; 8</text>
<polygon fill="#ffffff" stroke="transparent" points="422,-197 422,-215 501,-215 501,-197 422,-197"/>
<polygon fill="none" stroke="black" points="422,-197 422,-215 501,-215 501,-197 422,-197"/>
<text text-anchor="start" x="464" y="-203.2" font-family="Helvetica,sans-Serif" font-size="11.00">0 rows</text>
<polygon fill="#ffffff" stroke="transparent" points="501,-197 501,-215 554,-215 554,-197 501,-197"/>
<polygon fill="none" stroke="black" points="501,-197 501,-215 554,-215 554,-197 501,-197"/>
<text text-anchor="start" x="544" y="-203.2" font-family="Helvetica,sans-Serif" font-size="11.00"> &#160;</text>
</a>
</g>
</g>
<!-- infiltration_installation_kind -->
<g id="node2" class="node">
<title>infiltration_installation_kind</title>
<g id="a_node2"><a xlink:href="../../tables/infiltration_installation_kind.html" xlink:title="infiltration_installation_kind" target="_top">
<polygon fill="#ffffff" stroke="transparent" points="8,-37 8,-367 273,-367 273,-37 8,-37"/>
<polygon fill="#f5f5f5" stroke="transparent" points="10.5,-343 10.5,-365 271.5,-365 271.5,-343 10.5,-343"/>
<polygon fill="none" stroke="black" points="10.5,-343 10.5,-365 271.5,-365 271.5,-343 10.5,-343"/>
<text text-anchor="start" x="15.5" y="-352.2" font-family="Helvetica,sans-Serif" font-weight="bold" font-size="11.00">infiltration_installation_kind</text>
<text text-anchor="start" x="232.5" y="-351.2" font-family="Helvetica,sans-Serif" font-size="11.00">[table]</text>
<polygon fill="none" stroke="black" points="10.5,-321 10.5,-343 201.5,-343 201.5,-321 10.5,-321"/>
<image xlink:href="../../images/primaryKeys.png" width="11px" height="12px" preserveAspectRatio="xMinYMin meet" x="15.5" y="-338"/>
<text text-anchor="start" x="30.5" y="-329.2" font-family="Helvetica,sans-Serif" font-size="11.00">code</text>
<polygon fill="none" stroke="black" points="201.5,-321 201.5,-343 271.5,-343 271.5,-321 201.5,-321"/>
<text text-anchor="start" x="204.5" y="-329.2" font-family="Helvetica,sans-Serif" font-size="11.00">int4[10]</text>
<polygon fill="none" stroke="black" points="10.5,-299 10.5,-321 201.5,-321 201.5,-299 10.5,-299"/>
<text text-anchor="start" x="30.5" y="-307.2" font-family="Helvetica,sans-Serif" font-size="11.00">vsacode</text>
<polygon fill="none" stroke="black" points="201.5,-299 201.5,-321 271.5,-321 271.5,-299 201.5,-299"/>
<text text-anchor="start" x="204.5" y="-307.2" font-family="Helvetica,sans-Serif" font-size="11.00">int4[10]</text>
<polygon fill="none" stroke="black" points="10.5,-277 10.5,-299 201.5,-299 201.5,-277 10.5,-277"/>
<text text-anchor="start" x="30.5" y="-285.2" font-family="Helvetica,sans-Serif" font-size="11.00">value_en</text>
<polygon fill="none" stroke="black" points="201.5,-277 201.5,-299 271.5,-299 271.5,-277 201.5,-277"/>
<text text-anchor="start" x="204.5" y="-285.2" font-family="Helvetica,sans-Serif" font-size="11.00">varchar[100]</text>
<polygon fill="none" stroke="black" points="10.5,-255 10.5,-277 201.5,-277 201.5,-255 10.5,-255"/>
<text text-anchor="start" x="30.5" y="-263.2" font-family="Helvetica,sans-Serif" font-size="11.00">value_de</text>
<polygon fill="none" stroke="black" points="201.5,-255 201.5,-277 271.5,-277 271.5,-255 201.5,-255"/>
<text text-anchor="start" x="204.5" y="-263.2" font-family="Helvetica,sans-Serif" font-size="11.00">varchar[100]</text>
<polygon fill="none" stroke="black" points="10.5,-233 10.5,-255 201.5,-255 201.5,-233 10.5,-233"/>
<text text-anchor="start" x="30.5" y="-241.2" font-family="Helvetica,sans-Serif" font-size="11.00">value_fr</text>
<polygon fill="none" stroke="black" points="201.5,-233 201.5,-255 271.5,-255 271.5,-233 201.5,-233"/>
<text text-anchor="start" x="204.5" y="-241.2" font-family="Helvetica,sans-Serif" font-size="11.00">varchar[100]</text>
<polygon fill="none" stroke="black" points="10.5,-211 10.5,-233 201.5,-233 201.5,-211 10.5,-211"/>
<text text-anchor="start" x="30.5" y="-219.2" font-family="Helvetica,sans-Serif" font-size="11.00">value_it</text>
<polygon fill="none" stroke="black" points="201.5,-211 201.5,-233 271.5,-233 271.5,-211 201.5,-211"/>
<text text-anchor="start" x="204.5" y="-219.2" font-family="Helvetica,sans-Serif" font-size="11.00">varchar[100]</text>
<polygon fill="none" stroke="black" points="10.5,-189 10.5,-211 201.5,-211 201.5,-189 10.5,-189"/>
<text text-anchor="start" x="30.5" y="-197.2" font-family="Helvetica,sans-Serif" font-size="11.00">value_ro</text>
<polygon fill="none" stroke="black" points="201.5,-189 201.5,-211 271.5,-211 271.5,-189 201.5,-189"/>
<text text-anchor="start" x="204.5" y="-197.2" font-family="Helvetica,sans-Serif" font-size="11.00">varchar[100]</text>
<polygon fill="none" stroke="black" points="10.5,-167 10.5,-189 201.5,-189 201.5,-167 10.5,-167"/>
<text text-anchor="start" x="30.5" y="-175.2" font-family="Helvetica,sans-Serif" font-size="11.00">abbr_en</text>
<polygon fill="none" stroke="black" points="201.5,-167 201.5,-189 271.5,-189 271.5,-167 201.5,-167"/>
<text text-anchor="start" x="204.5" y="-175.2" font-family="Helvetica,sans-Serif" font-size="11.00">varchar[3]</text>
<polygon fill="none" stroke="black" points="10.5,-145 10.5,-167 201.5,-167 201.5,-145 10.5,-145"/>
<text text-anchor="start" x="30.5" y="-153.2" font-family="Helvetica,sans-Serif" font-size="11.00">abbr_de</text>
<polygon fill="none" stroke="black" points="201.5,-145 201.5,-167 271.5,-167 271.5,-145 201.5,-145"/>
<text text-anchor="start" x="204.5" y="-153.2" font-family="Helvetica,sans-Serif" font-size="11.00">varchar[3]</text>
<polygon fill="none" stroke="black" points="10.5,-123 10.5,-145 201.5,-145 201.5,-123 10.5,-123"/>
<text text-anchor="start" x="30.5" y="-131.2" font-family="Helvetica,sans-Serif" font-size="11.00">abbr_fr</text>
<polygon fill="none" stroke="black" points="201.5,-123 201.5,-145 271.5,-145 271.5,-123 201.5,-123"/>
<text text-anchor="start" x="204.5" y="-131.2" font-family="Helvetica,sans-Serif" font-size="11.00">varchar[3]</text>
<polygon fill="none" stroke="black" points="10.5,-101 10.5,-123 201.5,-123 201.5,-101 10.5,-101"/>
<text text-anchor="start" x="30.5" y="-109.2" font-family="Helvetica,sans-Serif" font-size="11.00">abbr_it</text>
<polygon fill="none" stroke="black" points="201.5,-101 201.5,-123 271.5,-123 271.5,-101 201.5,-101"/>
<text text-anchor="start" x="204.5" y="-109.2" font-family="Helvetica,sans-Serif" font-size="11.00">varchar[3]</text>
<polygon fill="none" stroke="black" points="10.5,-79 10.5,-101 201.5,-101 201.5,-79 10.5,-79"/>
<text text-anchor="start" x="30.5" y="-87.2" font-family="Helvetica,sans-Serif" font-size="11.00">abbr_ro</text>
<polygon fill="none" stroke="black" points="201.5,-79 201.5,-101 271.5,-101 271.5,-79 201.5,-79"/>
<text text-anchor="start" x="204.5" y="-87.2" font-family="Helvetica,sans-Serif" font-size="11.00">varchar[3]</text>
<polygon fill="none" stroke="black" points="10.5,-57 10.5,-79 201.5,-79 201.5,-57 10.5,-57"/>
<text text-anchor="start" x="30.5" y="-65.2" font-family="Helvetica,sans-Serif" font-size="11.00">active</text>
<polygon fill="none" stroke="black" points="201.5,-57 201.5,-79 271.5,-79 271.5,-57 201.5,-57"/>
<text text-anchor="start" x="204.5" y="-65.2" font-family="Helvetica,sans-Serif" font-size="11.00">bool[1]</text>
<polygon fill="#ffffff" stroke="transparent" points="10.5,-39 10.5,-57 110.5,-57 110.5,-39 10.5,-39"/>
<polygon fill="none" stroke="black" points="10.5,-39 10.5,-57 110.5,-57 110.5,-39 10.5,-39"/>
<text text-anchor="start" x="13.5" y="-45.2" font-family="Helvetica,sans-Serif" font-size="11.00">&lt; 0</text>
<polygon fill="#ffffff" stroke="transparent" points="110.5,-39 110.5,-57 201.5,-57 201.5,-39 110.5,-39"/>
<polygon fill="none" stroke="black" points="110.5,-39 110.5,-57 201.5,-57 201.5,-39 110.5,-39"/>
<text text-anchor="start" x="191.5" y="-45.2" font-family="Helvetica,sans-Serif" font-size="11.00"> &#160;</text>
<polygon fill="#ffffff" stroke="transparent" points="201.5,-39 201.5,-57 271.5,-57 271.5,-39 201.5,-39"/>
<polygon fill="none" stroke="black" points="201.5,-39 201.5,-57 271.5,-57 271.5,-39 201.5,-39"/>
<text text-anchor="start" x="252.5" y="-45.2" font-family="Helvetica,sans-Serif" font-size="11.00">1 &gt;</text>
<polygon fill="none" stroke="black" stroke-width="2" points="9,-38 9,-366 272,-366 272,-38 9,-38"/>
</a>
</g>
</g>
<!-- tww_od.infiltration_installation&#45;&gt;infiltration_installation_kind -->
<g id="edge1" class="edge">
<title>tww_od.infiltration_installation:w&#45;&gt;infiltration_installation_kind:e</title>
<path fill="none" stroke="black" d="M306.28,-332C295.29,-332 288.16,-332 272.5,-332"/>
<polygon fill="black" stroke="black" points="313,-332 321,-335.6 317,-332 321,-332 321,-332 321,-332 317,-332 321,-328.4 313,-332 313,-332"/>
<ellipse fill="none" stroke="black" cx="309.8" cy="-332" rx="3.2" ry="3.2"/>
</g>
</g>
</svg>
