<?xml version="1.0" encoding="UTF-8" standalone="no"?>
<!DOCTYPE svg PUBLIC "-//W3C//DTD SVG 1.1//EN"
 "http://www.w3.org/Graphics/SVG/1.1/DTD/svg11.dtd">
<!-- Generated by graphviz version 2.43.0 (0)
 -->
<!-- Title: oneDegreeRelationshipsDiagram Pages: 1 -->
<svg width="702pt" height="599pt"
 viewBox="0.00 0.00 702.00 599.00" xmlns="http://www.w3.org/2000/svg" xmlns:xlink="http://www.w3.org/1999/xlink">
<g id="graph0" class="graph" transform="scale(1 1) rotate(0) translate(4 595)">
<title>oneDegreeRelationshipsDiagram</title>
<polygon fill="#ffffff" stroke="transparent" points="-4,4 -4,-595 698,-595 698,4 -4,4"/>
<text text-anchor="middle" x="79.5" y="-7.2" font-family="Helvetica,sans-Serif" font-size="11.00">Generated by SchemaSpy</text>
<!-- tww_od.infiltration_zone -->
<g id="node1" class="node">
<title>tww_od.infiltration_zone</title>
<g id="a_node1"><a xlink:href="../../../tww_od/tables/infiltration_zone.html" xlink:title="tww_od.infiltration_zone" target="_top">
<polygon fill="#ffffff" stroke="transparent" points="460,-505 460,-585 686,-585 686,-505 460,-505"/>
<polygon fill="#f5f5f5" stroke="transparent" points="460,-563 460,-585 686,-585 686,-563 460,-563"/>
<polygon fill="none" stroke="black" points="460,-563 460,-585 686,-585 686,-563 460,-563"/>
<text text-anchor="start" x="465" y="-572.2" font-family="Helvetica,sans-Serif" font-weight="bold" font-size="11.00">tww_od.infiltration_zone</text>
<text text-anchor="start" x="644" y="-571.2" font-family="Helvetica,sans-Serif" font-size="11.00">[table]</text>
<polygon fill="none" stroke="black" points="460,-541 460,-563 686,-563 686,-541 460,-541"/>
<image xlink:href="../../images/foreignKeys.png" width="11px" height="12px" preserveAspectRatio="xMinYMin meet" x="465" y="-558"/>
<text text-anchor="start" x="508" y="-549.2" font-family="Helvetica,sans-Serif" font-size="11.00">infiltration_capacity</text>
<polygon fill="none" stroke="black" points="460,-523 460,-541 686,-541 686,-523 460,-523"/>
<text text-anchor="start" x="463" y="-529.2" font-family="Helvetica,sans-Serif" font-size="11.00">...</text>
<polygon fill="#ffffff" stroke="transparent" points="460,-505 460,-523 686,-523 686,-505 460,-505"/>
<polygon fill="none" stroke="black" points="460,-505 460,-523 686,-523 686,-505 460,-505"/>
<polygon fill="#ffffff" stroke="transparent" points="461,-506 461,-522 534,-522 534,-506 461,-506"/>
<text text-anchor="start" x="463" y="-511.2" font-family="Helvetica,sans-Serif" font-size="11.00">&lt; 1</text>
<polygon fill="#ffffff" stroke="transparent" points="534,-506 534,-522 624,-522 624,-506 534,-506"/>
<text text-anchor="start" x="560.5" y="-511.2" font-family="Helvetica,sans-Serif" font-size="11.00">0 rows</text>
<polygon fill="#ffffff" stroke="transparent" points="624,-506 624,-522 685,-522 685,-506 624,-506"/>
<text text-anchor="start" x="675" y="-511.2" font-family="Helvetica,sans-Serif" font-size="11.00"> &#160;</text>
<polygon fill="black" stroke="black" points="534,-506 534,-522 534,-522 534,-506 534,-506"/>
<polygon fill="black" stroke="black" points="624,-506 624,-522 624,-522 624,-506 624,-506"/>
</a>
</g>
</g>
<!-- infiltration_zone_infiltration_capacity -->
<g id="node2" class="node">
<title>infiltration_zone_infiltration_capacity</title>
<g id="a_node2"><a xlink:href="../../tables/infiltration_zone_infiltration_capacity.html" xlink:title="infiltration_zone_infiltration_capacity" target="_top">
<polygon fill="#ffffff" stroke="transparent" points="8,-37 8,-587 411,-587 411,-37 8,-37"/>
<polygon fill="#f5f5f5" stroke="transparent" points="10.5,-563 10.5,-585 409.5,-585 409.5,-563 10.5,-563"/>
<polygon fill="none" stroke="black" points="10.5,-563 10.5,-585 409.5,-585 409.5,-563 10.5,-563"/>
<text text-anchor="start" x="15.5" y="-572.2" font-family="Helvetica,sans-Serif" font-weight="bold" font-size="11.00">infiltration_zone_infiltration_capacity</text>
<text text-anchor="start" x="367.5" y="-571.2" font-family="Helvetica,sans-Serif" font-size="11.00">[table]</text>
<polygon fill="none" stroke="black" points="10.5,-541 10.5,-563 303.5,-563 303.5,-541 10.5,-541"/>
<image xlink:href="../../images/primaryKeys.png" width="11px" height="12px" preserveAspectRatio="xMinYMin meet" x="15.5" y="-558"/>
<text text-anchor="start" x="30.5" y="-549.2" font-family="Helvetica,sans-Serif" font-size="11.00">code</text>
<polygon fill="none" stroke="black" points="303.5,-541 303.5,-563 409.5,-563 409.5,-541 303.5,-541"/>
<text text-anchor="start" x="306.5" y="-549.2" font-family="Helvetica,sans-Serif" font-size="11.00">int4[10]</text>
<polygon fill="none" stroke="black" points="10.5,-519 10.5,-541 303.5,-541 303.5,-519 10.5,-519"/>
<text text-anchor="start" x="30.5" y="-527.2" font-family="Helvetica,sans-Serif" font-size="11.00">vsacode</text>
<polygon fill="none" stroke="black" points="303.5,-519 303.5,-541 409.5,-541 409.5,-519 303.5,-519"/>
<text text-anchor="start" x="306.5" y="-527.2" font-family="Helvetica,sans-Serif" font-size="11.00">int4[10]</text>
<polygon fill="none" stroke="black" points="10.5,-497 10.5,-519 303.5,-519 303.5,-497 10.5,-497"/>
<text text-anchor="start" x="30.5" y="-505.2" font-family="Helvetica,sans-Serif" font-size="11.00">value_en</text>
<polygon fill="none" stroke="black" points="303.5,-497 303.5,-519 409.5,-519 409.5,-497 303.5,-497"/>
<text text-anchor="start" x="306.5" y="-505.2" font-family="Helvetica,sans-Serif" font-size="11.00">varchar[100]</text>
<polygon fill="none" stroke="black" points="10.5,-475 10.5,-497 303.5,-497 303.5,-475 10.5,-475"/>
<text text-anchor="start" x="30.5" y="-483.2" font-family="Helvetica,sans-Serif" font-size="11.00">value_de</text>
<polygon fill="none" stroke="black" points="303.5,-475 303.5,-497 409.5,-497 409.5,-475 303.5,-475"/>
<text text-anchor="start" x="306.5" y="-483.2" font-family="Helvetica,sans-Serif" font-size="11.00">varchar[100]</text>
<polygon fill="none" stroke="black" points="10.5,-453 10.5,-475 303.5,-475 303.5,-453 10.5,-453"/>
<text text-anchor="start" x="30.5" y="-461.2" font-family="Helvetica,sans-Serif" font-size="11.00">value_fr</text>
<polygon fill="none" stroke="black" points="303.5,-453 303.5,-475 409.5,-475 409.5,-453 303.5,-453"/>
<text text-anchor="start" x="306.5" y="-461.2" font-family="Helvetica,sans-Serif" font-size="11.00">varchar[100]</text>
<polygon fill="none" stroke="black" points="10.5,-431 10.5,-453 303.5,-453 303.5,-431 10.5,-431"/>
<text text-anchor="start" x="30.5" y="-439.2" font-family="Helvetica,sans-Serif" font-size="11.00">value_it</text>
<polygon fill="none" stroke="black" points="303.5,-431 303.5,-453 409.5,-453 409.5,-431 303.5,-431"/>
<text text-anchor="start" x="306.5" y="-439.2" font-family="Helvetica,sans-Serif" font-size="11.00">varchar[100]</text>
<polygon fill="none" stroke="black" points="10.5,-409 10.5,-431 303.5,-431 303.5,-409 10.5,-409"/>
<text text-anchor="start" x="30.5" y="-417.2" font-family="Helvetica,sans-Serif" font-size="11.00">value_ro</text>
<polygon fill="none" stroke="black" points="303.5,-409 303.5,-431 409.5,-431 409.5,-409 303.5,-409"/>
<text text-anchor="start" x="306.5" y="-417.2" font-family="Helvetica,sans-Serif" font-size="11.00">varchar[100]</text>
<polygon fill="none" stroke="black" points="10.5,-387 10.5,-409 303.5,-409 303.5,-387 10.5,-387"/>
<text text-anchor="start" x="30.5" y="-395.2" font-family="Helvetica,sans-Serif" font-size="11.00">abbr_en</text>
<polygon fill="none" stroke="black" points="303.5,-387 303.5,-409 409.5,-409 409.5,-387 303.5,-387"/>
<text text-anchor="start" x="306.5" y="-395.2" font-family="Helvetica,sans-Serif" font-size="11.00">varchar[3]</text>
<polygon fill="none" stroke="black" points="10.5,-365 10.5,-387 303.5,-387 303.5,-365 10.5,-365"/>
<text text-anchor="start" x="30.5" y="-373.2" font-family="Helvetica,sans-Serif" font-size="11.00">abbr_de</text>
<polygon fill="none" stroke="black" points="303.5,-365 303.5,-387 409.5,-387 409.5,-365 303.5,-365"/>
<text text-anchor="start" x="306.5" y="-373.2" font-family="Helvetica,sans-Serif" font-size="11.00">varchar[3]</text>
<polygon fill="none" stroke="black" points="10.5,-343 10.5,-365 303.5,-365 303.5,-343 10.5,-343"/>
<text text-anchor="start" x="30.5" y="-351.2" font-family="Helvetica,sans-Serif" font-size="11.00">abbr_fr</text>
<polygon fill="none" stroke="black" points="303.5,-343 303.5,-365 409.5,-365 409.5,-343 303.5,-343"/>
<text text-anchor="start" x="306.5" y="-351.2" font-family="Helvetica,sans-Serif" font-size="11.00">varchar[3]</text>
<polygon fill="none" stroke="black" points="10.5,-321 10.5,-343 303.5,-343 303.5,-321 10.5,-321"/>
<text text-anchor="start" x="30.5" y="-329.2" font-family="Helvetica,sans-Serif" font-size="11.00">abbr_it</text>
<polygon fill="none" stroke="black" points="303.5,-321 303.5,-343 409.5,-343 409.5,-321 303.5,-321"/>
<text text-anchor="start" x="306.5" y="-329.2" font-family="Helvetica,sans-Serif" font-size="11.00">varchar[3]</text>
<polygon fill="none" stroke="black" points="10.5,-299 10.5,-321 303.5,-321 303.5,-299 10.5,-299"/>
<text text-anchor="start" x="30.5" y="-307.2" font-family="Helvetica,sans-Serif" font-size="11.00">abbr_ro</text>
<polygon fill="none" stroke="black" points="303.5,-299 303.5,-321 409.5,-321 409.5,-299 303.5,-299"/>
<text text-anchor="start" x="306.5" y="-307.2" font-family="Helvetica,sans-Serif" font-size="11.00">varchar[3]</text>
<polygon fill="none" stroke="black" points="10.5,-277 10.5,-299 303.5,-299 303.5,-277 10.5,-277"/>
<text text-anchor="start" x="30.5" y="-285.2" font-family="Helvetica,sans-Serif" font-size="11.00">active</text>
<polygon fill="none" stroke="black" points="303.5,-277 303.5,-299 409.5,-299 409.5,-277 303.5,-277"/>
<text text-anchor="start" x="306.5" y="-285.2" font-family="Helvetica,sans-Serif" font-size="11.00">bool[1]</text>
<polygon fill="none" stroke="black" points="10.5,-255 10.5,-277 303.5,-277 303.5,-255 10.5,-255"/>
<text text-anchor="start" x="30.5" y="-263.2" font-family="Helvetica,sans-Serif" font-size="11.00">description_en</text>
<polygon fill="none" stroke="black" points="303.5,-255 303.5,-277 409.5,-277 409.5,-255 303.5,-255"/>
<text text-anchor="start" x="306.5" y="-263.2" font-family="Helvetica,sans-Serif" font-size="11.00">text[2147483647]</text>
<polygon fill="none" stroke="black" points="10.5,-233 10.5,-255 303.5,-255 303.5,-233 10.5,-233"/>
<text text-anchor="start" x="30.5" y="-241.2" font-family="Helvetica,sans-Serif" font-size="11.00">description_de</text>
<polygon fill="none" stroke="black" points="303.5,-233 303.5,-255 409.5,-255 409.5,-233 303.5,-233"/>
<text text-anchor="start" x="306.5" y="-241.2" font-family="Helvetica,sans-Serif" font-size="11.00">text[2147483647]</text>
<polygon fill="none" stroke="black" points="10.5,-211 10.5,-233 303.5,-233 303.5,-211 10.5,-211"/>
<text text-anchor="start" x="30.5" y="-219.2" font-family="Helvetica,sans-Serif" font-size="11.00">description_fr</text>
<polygon fill="none" stroke="black" points="303.5,-211 303.5,-233 409.5,-233 409.5,-211 303.5,-211"/>
<text text-anchor="start" x="306.5" y="-219.2" font-family="Helvetica,sans-Serif" font-size="11.00">text[2147483647]</text>
<polygon fill="none" stroke="black" points="10.5,-189 10.5,-211 303.5,-211 303.5,-189 10.5,-189"/>
<text text-anchor="start" x="30.5" y="-197.2" font-family="Helvetica,sans-Serif" font-size="11.00">description_it</text>
<polygon fill="none" stroke="black" points="303.5,-189 303.5,-211 409.5,-211 409.5,-189 303.5,-189"/>
<text text-anchor="start" x="306.5" y="-197.2" font-family="Helvetica,sans-Serif" font-size="11.00">text[2147483647]</text>
<polygon fill="none" stroke="black" points="10.5,-167 10.5,-189 303.5,-189 303.5,-167 10.5,-167"/>
<text text-anchor="start" x="30.5" y="-175.2" font-family="Helvetica,sans-Serif" font-size="11.00">description_ro</text>
<polygon fill="none" stroke="black" points="303.5,-167 303.5,-189 409.5,-189 409.5,-167 303.5,-167"/>
<text text-anchor="start" x="306.5" y="-175.2" font-family="Helvetica,sans-Serif" font-size="11.00">text[2147483647]</text>
<polygon fill="none" stroke="black" points="10.5,-145 10.5,-167 303.5,-167 303.5,-145 10.5,-145"/>
<text text-anchor="start" x="30.5" y="-153.2" font-family="Helvetica,sans-Serif" font-size="11.00">display_en</text>
<polygon fill="none" stroke="black" points="303.5,-145 303.5,-167 409.5,-167 409.5,-145 303.5,-145"/>
<text text-anchor="start" x="306.5" y="-153.2" font-family="Helvetica,sans-Serif" font-size="11.00">varchar[100]</text>
<polygon fill="none" stroke="black" points="10.5,-123 10.5,-145 303.5,-145 303.5,-123 10.5,-123"/>
<text text-anchor="start" x="30.5" y="-131.2" font-family="Helvetica,sans-Serif" font-size="11.00">display_de</text>
<polygon fill="none" stroke="black" points="303.5,-123 303.5,-145 409.5,-145 409.5,-123 303.5,-123"/>
<text text-anchor="start" x="306.5" y="-131.2" font-family="Helvetica,sans-Serif" font-size="11.00">varchar[100]</text>
<polygon fill="none" stroke="black" points="10.5,-101 10.5,-123 303.5,-123 303.5,-101 10.5,-101"/>
<text text-anchor="start" x="30.5" y="-109.2" font-family="Helvetica,sans-Serif" font-size="11.00">display_fr</text>
<polygon fill="none" stroke="black" points="303.5,-101 303.5,-123 409.5,-123 409.5,-101 303.5,-101"/>
<text text-anchor="start" x="306.5" y="-109.2" font-family="Helvetica,sans-Serif" font-size="11.00">varchar[100]</text>
<polygon fill="none" stroke="black" points="10.5,-79 10.5,-101 303.5,-101 303.5,-79 10.5,-79"/>
<text text-anchor="start" x="30.5" y="-87.2" font-family="Helvetica,sans-Serif" font-size="11.00">display_it</text>
<polygon fill="none" stroke="black" points="303.5,-79 303.5,-101 409.5,-101 409.5,-79 303.5,-79"/>
<text text-anchor="start" x="306.5" y="-87.2" font-family="Helvetica,sans-Serif" font-size="11.00">varchar[100]</text>
<polygon fill="none" stroke="black" points="10.5,-57 10.5,-79 303.5,-79 303.5,-57 10.5,-57"/>
<text text-anchor="start" x="30.5" y="-65.2" font-family="Helvetica,sans-Serif" font-size="11.00">display_ro</text>
<polygon fill="none" stroke="black" points="303.5,-57 303.5,-79 409.5,-79 409.5,-57 303.5,-57"/>
<text text-anchor="start" x="306.5" y="-65.2" font-family="Helvetica,sans-Serif" font-size="11.00">varchar[100]</text>
<polygon fill="#ffffff" stroke="transparent" points="10.5,-39 10.5,-57 409.5,-57 409.5,-39 10.5,-39"/>
<polygon fill="none" stroke="black" points="10.5,-39 10.5,-57 409.5,-57 409.5,-39 10.5,-39"/>
<polygon fill="#ffffff" stroke="transparent" points="11.5,-40 11.5,-56 148.5,-56 148.5,-40 11.5,-40"/>
<text text-anchor="start" x="13.5" y="-45.2" font-family="Helvetica,sans-Serif" font-size="11.00">&lt; 0</text>
<polygon fill="#ffffff" stroke="transparent" points="148.5,-40 148.5,-56 272.5,-56 272.5,-40 148.5,-40"/>
<text text-anchor="start" x="206.5" y="-45.2" font-family="Helvetica,sans-Serif" font-size="11.00"> &#160;</text>
<polygon fill="#ffffff" stroke="transparent" points="272.5,-40 272.5,-56 408.5,-56 408.5,-40 272.5,-40"/>
<text text-anchor="start" x="386.5" y="-45.2" font-family="Helvetica,sans-Serif" font-size="11.00">1 &gt;</text>
<polygon fill="black" stroke="black" points="148.5,-40 148.5,-56 148.5,-56 148.5,-40 148.5,-40"/>
<polygon fill="black" stroke="black" points="272.5,-40 272.5,-56 272.5,-56 272.5,-40 272.5,-40"/>
<polygon fill="none" stroke="black" stroke-width="2" points="9,-38 9,-586 410,-586 410,-38 9,-38"/>
</a>
</g>
</g>
<!-- tww_od.infiltration_zone&#45;&gt;infiltration_zone_infiltration_capacity -->
<g id="edge1" class="edge">
<title>tww_od.infiltration_zone:w&#45;&gt;infiltration_zone_infiltration_capacity:e</title>
<path fill="none" stroke="black" d="M444.28,-552C433.29,-552 426.16,-552 410.5,-552"/>
<polygon fill="black" stroke="black" points="451,-552 459,-555.6 455,-552 459,-552 459,-552 459,-552 455,-552 459,-548.4 451,-552 451,-552"/>
<ellipse fill="none" stroke="black" cx="447.8" cy="-552" rx="3.2" ry="3.2"/>
</g>
</g>
</svg>
