<?xml version="1.0" encoding="UTF-8" standalone="no"?>
<!DOCTYPE svg PUBLIC "-//W3C//DTD SVG 1.1//EN"
 "http://www.w3.org/Graphics/SVG/1.1/DTD/svg11.dtd">
<!-- Generated by graphviz version 2.43.0 (0)
 -->
<!-- Title: oneDegreeRelationshipsDiagram Pages: 1 -->
<svg width="600pt" height="399pt"
 viewBox="0.00 0.00 600.00 399.00" xmlns="http://www.w3.org/2000/svg" xmlns:xlink="http://www.w3.org/1999/xlink">
<g id="graph0" class="graph" transform="scale(1 1) rotate(0) translate(4 395)">
<title>oneDegreeRelationshipsDiagram</title>
<polygon fill="#ffffff" stroke="transparent" points="-4,4 -4,-395 596,-395 596,4 -4,4"/>
<text text-anchor="middle" x="79.5" y="-7.2" font-family="Helvetica,sans-Serif" font-size="11.00">Generated by SchemaSpy</text>
<!-- tww_od.log_card -->
<g id="node1" class="node">
<title>tww_od.log_card</title>
<g id="a_node1"><a xlink:href="../../../tww_od/tables/log_card.html" xlink:title="tww_od.log_card" target="_top">
<polygon fill="#ffffff" stroke="transparent" points="369,-285 369,-387 584,-387 584,-285 369,-285"/>
<polygon fill="#f5f5f5" stroke="transparent" points="369.5,-365 369.5,-387 584.5,-387 584.5,-365 369.5,-365"/>
<polygon fill="none" stroke="black" points="369.5,-365 369.5,-387 584.5,-387 584.5,-365 369.5,-365"/>
<text text-anchor="start" x="374.5" y="-374.2" font-family="Helvetica,sans-Serif" font-weight="bold" font-size="11.00">tww_od.log_card</text>
<text text-anchor="start" x="542.5" y="-373.2" font-family="Helvetica,sans-Serif" font-size="11.00">[table]</text>
<polygon fill="none" stroke="black" points="369.5,-343 369.5,-365 584.5,-365 584.5,-343 369.5,-343"/>
<image xlink:href="../../images/foreignKeys.png" width="11px" height="12px" preserveAspectRatio="xMinYMin meet" x="374.5" y="-360"/>
<text text-anchor="start" x="389.5" y="-351.2" font-family="Helvetica,sans-Serif" font-size="11.00">control_remote_control</text>
<polygon fill="none" stroke="black" points="369.5,-321 369.5,-343 584.5,-343 584.5,-321 369.5,-321"/>
<image xlink:href="../../images/foreignKeys.png" width="11px" height="12px" preserveAspectRatio="xMinYMin meet" x="374.5" y="-338"/>
<text text-anchor="start" x="389.5" y="-329.2" font-family="Helvetica,sans-Serif" font-size="11.00">information_source</text>
<polygon fill="none" stroke="black" points="369.5,-303 369.5,-321 584.5,-321 584.5,-303 369.5,-303"/>
<text text-anchor="start" x="372.5" y="-309.2" font-family="Helvetica,sans-Serif" font-size="11.00">...</text>
<polygon fill="#ffffff" stroke="transparent" points="369.5,-285 369.5,-303 584.5,-303 584.5,-285 369.5,-285"/>
<polygon fill="none" stroke="black" points="369.5,-285 369.5,-303 584.5,-303 584.5,-285 369.5,-285"/>
<polygon fill="#ffffff" stroke="transparent" points="370.5,-286 370.5,-302 440.5,-302 440.5,-286 370.5,-286"/>
<text text-anchor="start" x="372.5" y="-291.2" font-family="Helvetica,sans-Serif" font-size="11.00">&lt; 2</text>
<polygon fill="#ffffff" stroke="transparent" points="440.5,-286 440.5,-302 526.5,-302 526.5,-286 440.5,-286"/>
<text text-anchor="start" x="465" y="-291.2" font-family="Helvetica,sans-Serif" font-size="11.00">0 rows</text>
<polygon fill="#ffffff" stroke="transparent" points="526.5,-286 526.5,-302 583.5,-302 583.5,-286 526.5,-286"/>
<text text-anchor="start" x="573.5" y="-291.2" font-family="Helvetica,sans-Serif" font-size="11.00"> &#160;</text>
<polygon fill="black" stroke="black" points="440.5,-286 440.5,-302 440.5,-302 440.5,-286 440.5,-286"/>
<polygon fill="black" stroke="black" points="526.5,-286 526.5,-302 526.5,-302 526.5,-286 526.5,-286"/>
</a>
</g>
</g>
<!-- log_card_information_source -->
<g id="node2" class="node">
<title>log_card_information_source</title>
<g id="a_node2"><a xlink:href="../../tables/log_card_information_source.html" xlink:title="log_card_information_source" target="_top">
<polygon fill="#ffffff" stroke="transparent" points="8,-37 8,-367 320,-367 320,-37 8,-37"/>
<polygon fill="#f5f5f5" stroke="transparent" points="10,-343 10,-365 318,-365 318,-343 10,-343"/>
<polygon fill="none" stroke="black" points="10,-343 10,-365 318,-365 318,-343 10,-343"/>
<text text-anchor="start" x="15" y="-352.2" font-family="Helvetica,sans-Serif" font-weight="bold" font-size="11.00">log_card_information_source</text>
<text text-anchor="start" x="276" y="-351.2" font-family="Helvetica,sans-Serif" font-size="11.00">[table]</text>
<polygon fill="none" stroke="black" points="10,-321 10,-343 240,-343 240,-321 10,-321"/>
<image xlink:href="../../images/primaryKeys.png" width="11px" height="12px" preserveAspectRatio="xMinYMin meet" x="15" y="-338"/>
<text text-anchor="start" x="30" y="-329.2" font-family="Helvetica,sans-Serif" font-size="11.00">code</text>
<polygon fill="none" stroke="black" points="240,-321 240,-343 318,-343 318,-321 240,-321"/>
<text text-anchor="start" x="243" y="-329.2" font-family="Helvetica,sans-Serif" font-size="11.00">int4[10]</text>
<polygon fill="none" stroke="black" points="10,-299 10,-321 240,-321 240,-299 10,-299"/>
<text text-anchor="start" x="30" y="-307.2" font-family="Helvetica,sans-Serif" font-size="11.00">vsacode</text>
<polygon fill="none" stroke="black" points="240,-299 240,-321 318,-321 318,-299 240,-299"/>
<text text-anchor="start" x="243" y="-307.2" font-family="Helvetica,sans-Serif" font-size="11.00">int4[10]</text>
<polygon fill="none" stroke="black" points="10,-277 10,-299 240,-299 240,-277 10,-277"/>
<text text-anchor="start" x="30" y="-285.2" font-family="Helvetica,sans-Serif" font-size="11.00">value_en</text>
<polygon fill="none" stroke="black" points="240,-277 240,-299 318,-299 318,-277 240,-277"/>
<text text-anchor="start" x="243" y="-285.2" font-family="Helvetica,sans-Serif" font-size="11.00">varchar[100]</text>
<polygon fill="none" stroke="black" points="10,-255 10,-277 240,-277 240,-255 10,-255"/>
<text text-anchor="start" x="30" y="-263.2" font-family="Helvetica,sans-Serif" font-size="11.00">value_de</text>
<polygon fill="none" stroke="black" points="240,-255 240,-277 318,-277 318,-255 240,-255"/>
<text text-anchor="start" x="243" y="-263.2" font-family="Helvetica,sans-Serif" font-size="11.00">varchar[100]</text>
<polygon fill="none" stroke="black" points="10,-233 10,-255 240,-255 240,-233 10,-233"/>
<text text-anchor="start" x="30" y="-241.2" font-family="Helvetica,sans-Serif" font-size="11.00">value_fr</text>
<polygon fill="none" stroke="black" points="240,-233 240,-255 318,-255 318,-233 240,-233"/>
<text text-anchor="start" x="243" y="-241.2" font-family="Helvetica,sans-Serif" font-size="11.00">varchar[100]</text>
<polygon fill="none" stroke="black" points="10,-211 10,-233 240,-233 240,-211 10,-211"/>
<text text-anchor="start" x="30" y="-219.2" font-family="Helvetica,sans-Serif" font-size="11.00">value_it</text>
<polygon fill="none" stroke="black" points="240,-211 240,-233 318,-233 318,-211 240,-211"/>
<text text-anchor="start" x="243" y="-219.2" font-family="Helvetica,sans-Serif" font-size="11.00">varchar[100]</text>
<polygon fill="none" stroke="black" points="10,-189 10,-211 240,-211 240,-189 10,-189"/>
<text text-anchor="start" x="30" y="-197.2" font-family="Helvetica,sans-Serif" font-size="11.00">value_ro</text>
<polygon fill="none" stroke="black" points="240,-189 240,-211 318,-211 318,-189 240,-189"/>
<text text-anchor="start" x="243" y="-197.2" font-family="Helvetica,sans-Serif" font-size="11.00">varchar[100]</text>
<polygon fill="none" stroke="black" points="10,-167 10,-189 240,-189 240,-167 10,-167"/>
<text text-anchor="start" x="30" y="-175.2" font-family="Helvetica,sans-Serif" font-size="11.00">abbr_en</text>
<polygon fill="none" stroke="black" points="240,-167 240,-189 318,-189 318,-167 240,-167"/>
<text text-anchor="start" x="243" y="-175.2" font-family="Helvetica,sans-Serif" font-size="11.00">varchar[3]</text>
<polygon fill="none" stroke="black" points="10,-145 10,-167 240,-167 240,-145 10,-145"/>
<text text-anchor="start" x="30" y="-153.2" font-family="Helvetica,sans-Serif" font-size="11.00">abbr_de</text>
<polygon fill="none" stroke="black" points="240,-145 240,-167 318,-167 318,-145 240,-145"/>
<text text-anchor="start" x="243" y="-153.2" font-family="Helvetica,sans-Serif" font-size="11.00">varchar[3]</text>
<polygon fill="none" stroke="black" points="10,-123 10,-145 240,-145 240,-123 10,-123"/>
<text text-anchor="start" x="30" y="-131.2" font-family="Helvetica,sans-Serif" font-size="11.00">abbr_fr</text>
<polygon fill="none" stroke="black" points="240,-123 240,-145 318,-145 318,-123 240,-123"/>
<text text-anchor="start" x="243" y="-131.2" font-family="Helvetica,sans-Serif" font-size="11.00">varchar[3]</text>
<polygon fill="none" stroke="black" points="10,-101 10,-123 240,-123 240,-101 10,-101"/>
<text text-anchor="start" x="30" y="-109.2" font-family="Helvetica,sans-Serif" font-size="11.00">abbr_it</text>
<polygon fill="none" stroke="black" points="240,-101 240,-123 318,-123 318,-101 240,-101"/>
<text text-anchor="start" x="243" y="-109.2" font-family="Helvetica,sans-Serif" font-size="11.00">varchar[3]</text>
<polygon fill="none" stroke="black" points="10,-79 10,-101 240,-101 240,-79 10,-79"/>
<text text-anchor="start" x="30" y="-87.2" font-family="Helvetica,sans-Serif" font-size="11.00">abbr_ro</text>
<polygon fill="none" stroke="black" points="240,-79 240,-101 318,-101 318,-79 240,-79"/>
<text text-anchor="start" x="243" y="-87.2" font-family="Helvetica,sans-Serif" font-size="11.00">varchar[3]</text>
<polygon fill="none" stroke="black" points="10,-57 10,-79 240,-79 240,-57 10,-57"/>
<text text-anchor="start" x="30" y="-65.2" font-family="Helvetica,sans-Serif" font-size="11.00">active</text>
<polygon fill="none" stroke="black" points="240,-57 240,-79 318,-79 318,-57 240,-57"/>
<text text-anchor="start" x="243" y="-65.2" font-family="Helvetica,sans-Serif" font-size="11.00">bool[1]</text>
<polygon fill="#ffffff" stroke="transparent" points="10,-39 10,-57 318,-57 318,-39 10,-39"/>
<polygon fill="none" stroke="black" points="10,-39 10,-57 318,-57 318,-39 10,-39"/>
<polygon fill="#ffffff" stroke="transparent" points="11,-40 11,-56 117,-56 117,-40 11,-40"/>
<text text-anchor="start" x="13" y="-45.2" font-family="Helvetica,sans-Serif" font-size="11.00">&lt; 0</text>
<polygon fill="#ffffff" stroke="transparent" points="117,-40 117,-56 211,-56 211,-40 117,-40"/>
<text text-anchor="start" x="160" y="-45.2" font-family="Helvetica,sans-Serif" font-size="11.00"> &#160;</text>
<polygon fill="#ffffff" stroke="transparent" points="211,-40 211,-56 317,-56 317,-40 211,-40"/>
<text text-anchor="start" x="295" y="-45.2" font-family="Helvetica,sans-Serif" font-size="11.00">1 &gt;</text>
<polygon fill="black" stroke="black" points="117,-40 117,-56 117,-56 117,-40 117,-40"/>
<polygon fill="black" stroke="black" points="211,-40 211,-56 211,-56 211,-40 211,-40"/>
<polygon fill="none" stroke="black" stroke-width="2" points="9,-38 9,-366 319,-366 319,-38 9,-38"/>
</a>
</g>
</g>
<!-- tww_od.log_card&#45;&gt;log_card_information_source -->
<g id="edge1" class="edge">
<title>tww_od.log_card:w&#45;&gt;log_card_information_source:e</title>
<path fill="none" stroke="black" d="M353.84,-332C342.41,-332 335.16,-332 319,-332"/>
<polygon fill="black" stroke="black" points="360.5,-332 368.5,-335.6 364.5,-332 368.5,-332 368.5,-332 368.5,-332 364.5,-332 368.5,-328.4 360.5,-332 360.5,-332"/>
<ellipse fill="none" stroke="black" cx="357.3" cy="-332" rx="3.2" ry="3.2"/>
</g>
</g>
</svg>
