<?xml version="1.0" encoding="UTF-8" standalone="no"?>
<!DOCTYPE svg PUBLIC "-//W3C//DTD SVG 1.1//EN"
 "http://www.w3.org/Graphics/SVG/1.1/DTD/svg11.dtd">
<!-- Generated by graphviz version 2.43.0 (0)
 -->
<!-- Title: oneDegreeRelationshipsDiagram Pages: 1 -->
<svg width="593pt" height="379pt"
 viewBox="0.00 0.00 593.00 379.00" xmlns="http://www.w3.org/2000/svg" xmlns:xlink="http://www.w3.org/1999/xlink">
<g id="graph0" class="graph" transform="scale(1 1) rotate(0) translate(4 375)">
<title>oneDegreeRelationshipsDiagram</title>
<polygon fill="#ffffff" stroke="transparent" points="-4,4 -4,-375 589,-375 589,4 -4,4"/>
<text text-anchor="middle" x="79.5" y="-7.2" font-family="Helvetica,sans-Serif" font-size="11.00">Generated by SchemaSpy</text>
<!-- tww_od.agxx_measure_text -->
<g id="node1" class="node">
<title>tww_od.agxx_measure_text</title>
<g id="a_node1"><a xlink:href="../../../tww_od/tables/agxx_measure_text.html" xlink:title="tww_od.agxx_measure_text" target="_top">
<polygon fill="#ffffff" stroke="transparent" points="330,-241 330,-365 577,-365 577,-241 330,-241"/>
<polygon fill="#f5f5f5" stroke="transparent" points="330.5,-343 330.5,-365 577.5,-365 577.5,-343 330.5,-343"/>
<polygon fill="none" stroke="black" points="330.5,-343 330.5,-365 577.5,-365 577.5,-343 330.5,-343"/>
<text text-anchor="start" x="335.5" y="-352.2" font-family="Helvetica,sans-Serif" font-weight="bold" font-size="11.00">tww_od.agxx_measure_text</text>
<text text-anchor="start" x="535.5" y="-351.2" font-family="Helvetica,sans-Serif" font-size="11.00">[table]</text>
<polygon fill="none" stroke="black" points="330.5,-321 330.5,-343 577.5,-343 577.5,-321 330.5,-321"/>
<image xlink:href="../../images/foreignKeys.png" width="11px" height="12px" preserveAspectRatio="xMinYMin meet" x="335.5" y="-338"/>
<text text-anchor="start" x="393.5" y="-329.2" font-family="Helvetica,sans-Serif" font-size="11.00">plantype</text>
<polygon fill="none" stroke="black" points="330.5,-299 330.5,-321 577.5,-321 577.5,-299 330.5,-299"/>
<image xlink:href="../../images/foreignKeys.png" width="11px" height="12px" preserveAspectRatio="xMinYMin meet" x="335.5" y="-316"/>
<text text-anchor="start" x="393.5" y="-307.2" font-family="Helvetica,sans-Serif" font-size="11.00">texthali</text>
<polygon fill="none" stroke="black" points="330.5,-277 330.5,-299 577.5,-299 577.5,-277 330.5,-277"/>
<image xlink:href="../../images/foreignKeys.png" width="11px" height="12px" preserveAspectRatio="xMinYMin meet" x="335.5" y="-294"/>
<text text-anchor="start" x="393.5" y="-285.2" font-family="Helvetica,sans-Serif" font-size="11.00">textvali</text>
<polygon fill="none" stroke="black" points="330.5,-259 330.5,-277 577.5,-277 577.5,-259 330.5,-259"/>
<text text-anchor="start" x="333.5" y="-265.2" font-family="Helvetica,sans-Serif" font-size="11.00">...</text>
<polygon fill="#ffffff" stroke="transparent" points="330.5,-241 330.5,-259 577.5,-259 577.5,-241 330.5,-241"/>
<polygon fill="none" stroke="black" points="330.5,-241 330.5,-259 577.5,-259 577.5,-241 330.5,-241"/>
<polygon fill="#ffffff" stroke="transparent" points="331.5,-242 331.5,-258 411.5,-258 411.5,-242 331.5,-242"/>
<text text-anchor="start" x="333.5" y="-247.2" font-family="Helvetica,sans-Serif" font-size="11.00">&lt; 3</text>
<polygon fill="#ffffff" stroke="transparent" points="411.5,-242 411.5,-258 508.5,-258 508.5,-242 411.5,-242"/>
<text text-anchor="start" x="441.5" y="-247.2" font-family="Helvetica,sans-Serif" font-size="11.00">0 rows</text>
<polygon fill="#ffffff" stroke="transparent" points="508.5,-242 508.5,-258 576.5,-258 576.5,-242 508.5,-242"/>
<text text-anchor="start" x="566.5" y="-247.2" font-family="Helvetica,sans-Serif" font-size="11.00"> &#160;</text>
<polygon fill="black" stroke="black" points="411.5,-242 411.5,-258 411.5,-258 411.5,-242 411.5,-242"/>
<polygon fill="black" stroke="black" points="508.5,-242 508.5,-258 508.5,-258 508.5,-242 508.5,-242"/>
</a>
</g>
</g>
<!-- measure_text_plantype -->
<g id="node2" class="node">
<title>measure_text_plantype</title>
<g id="a_node2"><a xlink:href="../../tables/measure_text_plantype.html" xlink:title="measure_text_plantype" target="_top">
<polygon fill="#ffffff" stroke="transparent" points="8,-37 8,-367 281,-367 281,-37 8,-37"/>
<polygon fill="#f5f5f5" stroke="transparent" points="10.5,-343 10.5,-365 279.5,-365 279.5,-343 10.5,-343"/>
<polygon fill="none" stroke="black" points="10.5,-343 10.5,-365 279.5,-365 279.5,-343 10.5,-343"/>
<text text-anchor="start" x="15.5" y="-352.2" font-family="Helvetica,sans-Serif" font-weight="bold" font-size="11.00">measure_text_plantype</text>
<text text-anchor="start" x="237.5" y="-351.2" font-family="Helvetica,sans-Serif" font-size="11.00">[table]</text>
<polygon fill="none" stroke="black" points="10.5,-321 10.5,-343 201.5,-343 201.5,-321 10.5,-321"/>
<image xlink:href="../../images/primaryKeys.png" width="11px" height="12px" preserveAspectRatio="xMinYMin meet" x="15.5" y="-338"/>
<text text-anchor="start" x="30.5" y="-329.2" font-family="Helvetica,sans-Serif" font-size="11.00">code</text>
<polygon fill="none" stroke="black" points="201.5,-321 201.5,-343 279.5,-343 279.5,-321 201.5,-321"/>
<text text-anchor="start" x="204.5" y="-329.2" font-family="Helvetica,sans-Serif" font-size="11.00">int4[10]</text>
<polygon fill="none" stroke="black" points="10.5,-299 10.5,-321 201.5,-321 201.5,-299 10.5,-299"/>
<text text-anchor="start" x="30.5" y="-307.2" font-family="Helvetica,sans-Serif" font-size="11.00">vsacode</text>
<polygon fill="none" stroke="black" points="201.5,-299 201.5,-321 279.5,-321 279.5,-299 201.5,-299"/>
<text text-anchor="start" x="204.5" y="-307.2" font-family="Helvetica,sans-Serif" font-size="11.00">int4[10]</text>
<polygon fill="none" stroke="black" points="10.5,-277 10.5,-299 201.5,-299 201.5,-277 10.5,-277"/>
<text text-anchor="start" x="30.5" y="-285.2" font-family="Helvetica,sans-Serif" font-size="11.00">value_en</text>
<polygon fill="none" stroke="black" points="201.5,-277 201.5,-299 279.5,-299 279.5,-277 201.5,-277"/>
<text text-anchor="start" x="204.5" y="-285.2" font-family="Helvetica,sans-Serif" font-size="11.00">varchar[100]</text>
<polygon fill="none" stroke="black" points="10.5,-255 10.5,-277 201.5,-277 201.5,-255 10.5,-255"/>
<text text-anchor="start" x="30.5" y="-263.2" font-family="Helvetica,sans-Serif" font-size="11.00">value_de</text>
<polygon fill="none" stroke="black" points="201.5,-255 201.5,-277 279.5,-277 279.5,-255 201.5,-255"/>
<text text-anchor="start" x="204.5" y="-263.2" font-family="Helvetica,sans-Serif" font-size="11.00">varchar[100]</text>
<polygon fill="none" stroke="black" points="10.5,-233 10.5,-255 201.5,-255 201.5,-233 10.5,-233"/>
<text text-anchor="start" x="30.5" y="-241.2" font-family="Helvetica,sans-Serif" font-size="11.00">value_fr</text>
<polygon fill="none" stroke="black" points="201.5,-233 201.5,-255 279.5,-255 279.5,-233 201.5,-233"/>
<text text-anchor="start" x="204.5" y="-241.2" font-family="Helvetica,sans-Serif" font-size="11.00">varchar[100]</text>
<polygon fill="none" stroke="black" points="10.5,-211 10.5,-233 201.5,-233 201.5,-211 10.5,-211"/>
<text text-anchor="start" x="30.5" y="-219.2" font-family="Helvetica,sans-Serif" font-size="11.00">value_it</text>
<polygon fill="none" stroke="black" points="201.5,-211 201.5,-233 279.5,-233 279.5,-211 201.5,-211"/>
<text text-anchor="start" x="204.5" y="-219.2" font-family="Helvetica,sans-Serif" font-size="11.00">varchar[100]</text>
<polygon fill="none" stroke="black" points="10.5,-189 10.5,-211 201.5,-211 201.5,-189 10.5,-189"/>
<text text-anchor="start" x="30.5" y="-197.2" font-family="Helvetica,sans-Serif" font-size="11.00">value_ro</text>
<polygon fill="none" stroke="black" points="201.5,-189 201.5,-211 279.5,-211 279.5,-189 201.5,-189"/>
<text text-anchor="start" x="204.5" y="-197.2" font-family="Helvetica,sans-Serif" font-size="11.00">varchar[100]</text>
<polygon fill="none" stroke="black" points="10.5,-167 10.5,-189 201.5,-189 201.5,-167 10.5,-167"/>
<text text-anchor="start" x="30.5" y="-175.2" font-family="Helvetica,sans-Serif" font-size="11.00">abbr_en</text>
<polygon fill="none" stroke="black" points="201.5,-167 201.5,-189 279.5,-189 279.5,-167 201.5,-167"/>
<text text-anchor="start" x="204.5" y="-175.2" font-family="Helvetica,sans-Serif" font-size="11.00">varchar[3]</text>
<polygon fill="none" stroke="black" points="10.5,-145 10.5,-167 201.5,-167 201.5,-145 10.5,-145"/>
<text text-anchor="start" x="30.5" y="-153.2" font-family="Helvetica,sans-Serif" font-size="11.00">abbr_de</text>
<polygon fill="none" stroke="black" points="201.5,-145 201.5,-167 279.5,-167 279.5,-145 201.5,-145"/>
<text text-anchor="start" x="204.5" y="-153.2" font-family="Helvetica,sans-Serif" font-size="11.00">varchar[3]</text>
<polygon fill="none" stroke="black" points="10.5,-123 10.5,-145 201.5,-145 201.5,-123 10.5,-123"/>
<text text-anchor="start" x="30.5" y="-131.2" font-family="Helvetica,sans-Serif" font-size="11.00">abbr_fr</text>
<polygon fill="none" stroke="black" points="201.5,-123 201.5,-145 279.5,-145 279.5,-123 201.5,-123"/>
<text text-anchor="start" x="204.5" y="-131.2" font-family="Helvetica,sans-Serif" font-size="11.00">varchar[3]</text>
<polygon fill="none" stroke="black" points="10.5,-101 10.5,-123 201.5,-123 201.5,-101 10.5,-101"/>
<text text-anchor="start" x="30.5" y="-109.2" font-family="Helvetica,sans-Serif" font-size="11.00">abbr_it</text>
<polygon fill="none" stroke="black" points="201.5,-101 201.5,-123 279.5,-123 279.5,-101 201.5,-101"/>
<text text-anchor="start" x="204.5" y="-109.2" font-family="Helvetica,sans-Serif" font-size="11.00">varchar[3]</text>
<polygon fill="none" stroke="black" points="10.5,-79 10.5,-101 201.5,-101 201.5,-79 10.5,-79"/>
<text text-anchor="start" x="30.5" y="-87.2" font-family="Helvetica,sans-Serif" font-size="11.00">abbr_ro</text>
<polygon fill="none" stroke="black" points="201.5,-79 201.5,-101 279.5,-101 279.5,-79 201.5,-79"/>
<text text-anchor="start" x="204.5" y="-87.2" font-family="Helvetica,sans-Serif" font-size="11.00">varchar[3]</text>
<polygon fill="none" stroke="black" points="10.5,-57 10.5,-79 201.5,-79 201.5,-57 10.5,-57"/>
<text text-anchor="start" x="30.5" y="-65.2" font-family="Helvetica,sans-Serif" font-size="11.00">active</text>
<polygon fill="none" stroke="black" points="201.5,-57 201.5,-79 279.5,-79 279.5,-57 201.5,-57"/>
<text text-anchor="start" x="204.5" y="-65.2" font-family="Helvetica,sans-Serif" font-size="11.00">bool[1]</text>
<polygon fill="#ffffff" stroke="transparent" points="10.5,-39 10.5,-57 279.5,-57 279.5,-39 10.5,-39"/>
<polygon fill="none" stroke="black" points="10.5,-39 10.5,-57 279.5,-57 279.5,-39 10.5,-39"/>
<polygon fill="#ffffff" stroke="transparent" points="11.5,-40 11.5,-56 104.5,-56 104.5,-40 11.5,-40"/>
<text text-anchor="start" x="13.5" y="-45.2" font-family="Helvetica,sans-Serif" font-size="11.00">&lt; 0</text>
<polygon fill="#ffffff" stroke="transparent" points="104.5,-40 104.5,-56 185.5,-56 185.5,-40 104.5,-40"/>
<text text-anchor="start" x="141" y="-45.2" font-family="Helvetica,sans-Serif" font-size="11.00"> &#160;</text>
<polygon fill="#ffffff" stroke="transparent" points="185.5,-40 185.5,-56 278.5,-56 278.5,-40 185.5,-40"/>
<text text-anchor="start" x="256.5" y="-45.2" font-family="Helvetica,sans-Serif" font-size="11.00">1 &gt;</text>
<polygon fill="black" stroke="black" points="104.5,-40 104.5,-56 104.5,-56 104.5,-40 104.5,-40"/>
<polygon fill="black" stroke="black" points="185.5,-40 185.5,-56 185.5,-56 185.5,-40 185.5,-40"/>
<polygon fill="none" stroke="black" stroke-width="2" points="9,-38 9,-366 280,-366 280,-38 9,-38"/>
</a>
</g>
</g>
<!-- tww_od.agxx_measure_text&#45;&gt;measure_text_plantype -->
<g id="edge1" class="edge">
<title>tww_od.agxx_measure_text:w&#45;&gt;measure_text_plantype:e</title>
<path fill="none" stroke="black" d="M314.99,-332C303.68,-332 296.49,-332 280.5,-332"/>
<polygon fill="black" stroke="black" points="321.5,-332 329.5,-335.6 325.5,-332 329.5,-332 329.5,-332 329.5,-332 325.5,-332 329.5,-328.4 321.5,-332 321.5,-332"/>
<ellipse fill="none" stroke="black" cx="318.3" cy="-332" rx="3.2" ry="3.2"/>
</g>
</g>
</svg>
