<?xml version="1.0" encoding="UTF-8" standalone="no"?>
<!DOCTYPE svg PUBLIC "-//W3C//DTD SVG 1.1//EN"
 "http://www.w3.org/Graphics/SVG/1.1/DTD/svg11.dtd">
<!-- Generated by graphviz version 2.47.1 (20210515.0534)
 -->
<!-- Title: oneDegreeRelationshipsDiagram Pages: 1 -->
<svg width="539pt" height="399pt"
 viewBox="0.00 0.00 539.00 399.00" xmlns="http://www.w3.org/2000/svg" xmlns:xlink="http://www.w3.org/1999/xlink">
<g id="graph0" class="graph" transform="scale(1 1) rotate(0) translate(4 395)">
<title>oneDegreeRelationshipsDiagram</title>
<polygon fill="#ffffff" stroke="transparent" points="-4,4 -4,-395 535,-395 535,4 -4,4"/>
<text text-anchor="middle" x="73.5" y="-7.2" font-family="Helvetica,sans-Serif" font-size="11.00">Generated by SchemaSpy</text>
<!-- tww_od.measuring_point -->
<g id="node1" class="node">
<title>tww_od.measuring_point</title>
<g id="a_node1"><a xlink:href="../../../tww_od/tables/measuring_point.html" xlink:title="tww_od.measuring_point" target="_top">
<polygon fill="#ffffff" stroke="transparent" points="306,-285 306,-387 523,-387 523,-285 306,-285"/>
<polygon fill="#f5f5f5" stroke="transparent" points="306.5,-365 306.5,-387 523.5,-387 523.5,-365 306.5,-365"/>
<polygon fill="none" stroke="black" points="306.5,-365 306.5,-387 523.5,-387 523.5,-365 306.5,-365"/>
<text text-anchor="start" x="311.5" y="-374.2" font-family="Helvetica,sans-Serif" font-weight="bold" font-size="11.00">tww_od.measuring_point</text>
<text text-anchor="start" x="484.5" y="-373.2" font-family="Helvetica,sans-Serif" font-size="11.00">[table]</text>
<polygon fill="none" stroke="black" points="306.5,-343 306.5,-365 523.5,-365 523.5,-343 306.5,-343"/>
<image xlink:href="../../images/foreignKeys.png" width="11px" height="12px" preserveAspectRatio="xMinYMin meet" x="311.5" y="-360"/>
<text text-anchor="start" x="326.5" y="-351.2" font-family="Helvetica,sans-Serif" font-size="11.00">damming_device</text>
<polygon fill="none" stroke="black" points="306.5,-321 306.5,-343 523.5,-343 523.5,-321 306.5,-321"/>
<image xlink:href="../../images/foreignKeys.png" width="11px" height="12px" preserveAspectRatio="xMinYMin meet" x="311.5" y="-338"/>
<text text-anchor="start" x="326.5" y="-329.2" font-family="Helvetica,sans-Serif" font-size="11.00">purpose</text>
<polygon fill="none" stroke="black" points="306.5,-303 306.5,-321 523.5,-321 523.5,-303 306.5,-303"/>
<text text-anchor="start" x="309.5" y="-309.2" font-family="Helvetica,sans-Serif" font-size="11.00">...</text>
<polygon fill="#ffffff" stroke="transparent" points="306.5,-285 306.5,-303 399.5,-303 399.5,-285 306.5,-285"/>
<polygon fill="none" stroke="black" points="306.5,-285 306.5,-303 399.5,-303 399.5,-285 306.5,-285"/>
<text text-anchor="start" x="309.5" y="-291.2" font-family="Helvetica,sans-Serif" font-size="11.00">&lt; 2</text>
<polygon fill="#ffffff" stroke="transparent" points="399.5,-285 399.5,-303 474.5,-303 474.5,-285 399.5,-285"/>
<polygon fill="none" stroke="black" points="399.5,-285 399.5,-303 474.5,-303 474.5,-285 399.5,-285"/>
<text text-anchor="start" x="437.5" y="-291.2" font-family="Helvetica,sans-Serif" font-size="11.00">0 rows</text>
<polygon fill="#ffffff" stroke="transparent" points="474.5,-285 474.5,-303 523.5,-303 523.5,-285 474.5,-285"/>
<polygon fill="none" stroke="black" points="474.5,-285 474.5,-303 523.5,-303 523.5,-285 474.5,-285"/>
<text text-anchor="start" x="513.5" y="-291.2" font-family="Helvetica,sans-Serif" font-size="11.00"> &#160;</text>
</a>
</g>
</g>
<!-- measuring_point_purpose -->
<g id="node2" class="node">
<title>measuring_point_purpose</title>
<g id="a_node2"><a xlink:href="../../tables/measuring_point_purpose.html" xlink:title="measuring_point_purpose" target="_top">
<polygon fill="#ffffff" stroke="transparent" points="8,-37 8,-367 257,-367 257,-37 8,-37"/>
<polygon fill="#f5f5f5" stroke="transparent" points="10.5,-343 10.5,-365 255.5,-365 255.5,-343 10.5,-343"/>
<polygon fill="none" stroke="black" points="10.5,-343 10.5,-365 255.5,-365 255.5,-343 10.5,-343"/>
<text text-anchor="start" x="15.5" y="-352.2" font-family="Helvetica,sans-Serif" font-weight="bold" font-size="11.00">measuring_point_purpose</text>
<text text-anchor="start" x="216.5" y="-351.2" font-family="Helvetica,sans-Serif" font-size="11.00">[table]</text>
<polygon fill="none" stroke="black" points="10.5,-321 10.5,-343 185.5,-343 185.5,-321 10.5,-321"/>
<image xlink:href="../../images/primaryKeys.png" width="11px" height="12px" preserveAspectRatio="xMinYMin meet" x="15.5" y="-338"/>
<text text-anchor="start" x="30.5" y="-329.2" font-family="Helvetica,sans-Serif" font-size="11.00">code</text>
<polygon fill="none" stroke="black" points="185.5,-321 185.5,-343 255.5,-343 255.5,-321 185.5,-321"/>
<text text-anchor="start" x="188.5" y="-329.2" font-family="Helvetica,sans-Serif" font-size="11.00">int4[10]</text>
<polygon fill="none" stroke="black" points="10.5,-299 10.5,-321 185.5,-321 185.5,-299 10.5,-299"/>
<text text-anchor="start" x="30.5" y="-307.2" font-family="Helvetica,sans-Serif" font-size="11.00">vsacode</text>
<polygon fill="none" stroke="black" points="185.5,-299 185.5,-321 255.5,-321 255.5,-299 185.5,-299"/>
<text text-anchor="start" x="188.5" y="-307.2" font-family="Helvetica,sans-Serif" font-size="11.00">int4[10]</text>
<polygon fill="none" stroke="black" points="10.5,-277 10.5,-299 185.5,-299 185.5,-277 10.5,-277"/>
<text text-anchor="start" x="30.5" y="-285.2" font-family="Helvetica,sans-Serif" font-size="11.00">value_en</text>
<polygon fill="none" stroke="black" points="185.5,-277 185.5,-299 255.5,-299 255.5,-277 185.5,-277"/>
<text text-anchor="start" x="188.5" y="-285.2" font-family="Helvetica,sans-Serif" font-size="11.00">varchar[100]</text>
<polygon fill="none" stroke="black" points="10.5,-255 10.5,-277 185.5,-277 185.5,-255 10.5,-255"/>
<text text-anchor="start" x="30.5" y="-263.2" font-family="Helvetica,sans-Serif" font-size="11.00">value_de</text>
<polygon fill="none" stroke="black" points="185.5,-255 185.5,-277 255.5,-277 255.5,-255 185.5,-255"/>
<text text-anchor="start" x="188.5" y="-263.2" font-family="Helvetica,sans-Serif" font-size="11.00">varchar[100]</text>
<polygon fill="none" stroke="black" points="10.5,-233 10.5,-255 185.5,-255 185.5,-233 10.5,-233"/>
<text text-anchor="start" x="30.5" y="-241.2" font-family="Helvetica,sans-Serif" font-size="11.00">value_fr</text>
<polygon fill="none" stroke="black" points="185.5,-233 185.5,-255 255.5,-255 255.5,-233 185.5,-233"/>
<text text-anchor="start" x="188.5" y="-241.2" font-family="Helvetica,sans-Serif" font-size="11.00">varchar[100]</text>
<polygon fill="none" stroke="black" points="10.5,-211 10.5,-233 185.5,-233 185.5,-211 10.5,-211"/>
<text text-anchor="start" x="30.5" y="-219.2" font-family="Helvetica,sans-Serif" font-size="11.00">value_it</text>
<polygon fill="none" stroke="black" points="185.5,-211 185.5,-233 255.5,-233 255.5,-211 185.5,-211"/>
<text text-anchor="start" x="188.5" y="-219.2" font-family="Helvetica,sans-Serif" font-size="11.00">varchar[100]</text>
<polygon fill="none" stroke="black" points="10.5,-189 10.5,-211 185.5,-211 185.5,-189 10.5,-189"/>
<text text-anchor="start" x="30.5" y="-197.2" font-family="Helvetica,sans-Serif" font-size="11.00">value_ro</text>
<polygon fill="none" stroke="black" points="185.5,-189 185.5,-211 255.5,-211 255.5,-189 185.5,-189"/>
<text text-anchor="start" x="188.5" y="-197.2" font-family="Helvetica,sans-Serif" font-size="11.00">varchar[100]</text>
<polygon fill="none" stroke="black" points="10.5,-167 10.5,-189 185.5,-189 185.5,-167 10.5,-167"/>
<text text-anchor="start" x="30.5" y="-175.2" font-family="Helvetica,sans-Serif" font-size="11.00">abbr_en</text>
<polygon fill="none" stroke="black" points="185.5,-167 185.5,-189 255.5,-189 255.5,-167 185.5,-167"/>
<text text-anchor="start" x="188.5" y="-175.2" font-family="Helvetica,sans-Serif" font-size="11.00">varchar[3]</text>
<polygon fill="none" stroke="black" points="10.5,-145 10.5,-167 185.5,-167 185.5,-145 10.5,-145"/>
<text text-anchor="start" x="30.5" y="-153.2" font-family="Helvetica,sans-Serif" font-size="11.00">abbr_de</text>
<polygon fill="none" stroke="black" points="185.5,-145 185.5,-167 255.5,-167 255.5,-145 185.5,-145"/>
<text text-anchor="start" x="188.5" y="-153.2" font-family="Helvetica,sans-Serif" font-size="11.00">varchar[3]</text>
<polygon fill="none" stroke="black" points="10.5,-123 10.5,-145 185.5,-145 185.5,-123 10.5,-123"/>
<text text-anchor="start" x="30.5" y="-131.2" font-family="Helvetica,sans-Serif" font-size="11.00">abbr_fr</text>
<polygon fill="none" stroke="black" points="185.5,-123 185.5,-145 255.5,-145 255.5,-123 185.5,-123"/>
<text text-anchor="start" x="188.5" y="-131.2" font-family="Helvetica,sans-Serif" font-size="11.00">varchar[3]</text>
<polygon fill="none" stroke="black" points="10.5,-101 10.5,-123 185.5,-123 185.5,-101 10.5,-101"/>
<text text-anchor="start" x="30.5" y="-109.2" font-family="Helvetica,sans-Serif" font-size="11.00">abbr_it</text>
<polygon fill="none" stroke="black" points="185.5,-101 185.5,-123 255.5,-123 255.5,-101 185.5,-101"/>
<text text-anchor="start" x="188.5" y="-109.2" font-family="Helvetica,sans-Serif" font-size="11.00">varchar[3]</text>
<polygon fill="none" stroke="black" points="10.5,-79 10.5,-101 185.5,-101 185.5,-79 10.5,-79"/>
<text text-anchor="start" x="30.5" y="-87.2" font-family="Helvetica,sans-Serif" font-size="11.00">abbr_ro</text>
<polygon fill="none" stroke="black" points="185.5,-79 185.5,-101 255.5,-101 255.5,-79 185.5,-79"/>
<text text-anchor="start" x="188.5" y="-87.2" font-family="Helvetica,sans-Serif" font-size="11.00">varchar[3]</text>
<polygon fill="none" stroke="black" points="10.5,-57 10.5,-79 185.5,-79 185.5,-57 10.5,-57"/>
<text text-anchor="start" x="30.5" y="-65.2" font-family="Helvetica,sans-Serif" font-size="11.00">active</text>
<polygon fill="none" stroke="black" points="185.5,-57 185.5,-79 255.5,-79 255.5,-57 185.5,-57"/>
<text text-anchor="start" x="188.5" y="-65.2" font-family="Helvetica,sans-Serif" font-size="11.00">bool[1]</text>
<polygon fill="#ffffff" stroke="transparent" points="10.5,-39 10.5,-57 102.5,-57 102.5,-39 10.5,-39"/>
<polygon fill="none" stroke="black" points="10.5,-39 10.5,-57 102.5,-57 102.5,-39 10.5,-39"/>
<text text-anchor="start" x="13.5" y="-45.2" font-family="Helvetica,sans-Serif" font-size="11.00">&lt; 0</text>
<polygon fill="#ffffff" stroke="transparent" points="102.5,-39 102.5,-57 185.5,-57 185.5,-39 102.5,-39"/>
<polygon fill="none" stroke="black" points="102.5,-39 102.5,-57 185.5,-57 185.5,-39 102.5,-39"/>
<text text-anchor="start" x="175.5" y="-45.2" font-family="Helvetica,sans-Serif" font-size="11.00"> &#160;</text>
<polygon fill="#ffffff" stroke="transparent" points="185.5,-39 185.5,-57 255.5,-57 255.5,-39 185.5,-39"/>
<polygon fill="none" stroke="black" points="185.5,-39 185.5,-57 255.5,-57 255.5,-39 185.5,-39"/>
<text text-anchor="start" x="236.5" y="-45.2" font-family="Helvetica,sans-Serif" font-size="11.00">1 &gt;</text>
<polygon fill="none" stroke="black" stroke-width="2" points="9,-38 9,-366 256,-366 256,-38 9,-38"/>
</a>
</g>
</g>
<!-- tww_od.measuring_point&#45;&gt;measuring_point_purpose -->
<g id="edge1" class="edge">
<title>tww_od.measuring_point:w&#45;&gt;measuring_point_purpose:e</title>
<path fill="none" stroke="black" d="M290.99,-332C279.68,-332 272.49,-332 256.5,-332"/>
<polygon fill="black" stroke="black" points="297.5,-332 305.5,-335.6 301.5,-332 305.5,-332 305.5,-332 305.5,-332 301.5,-332 305.5,-328.4 297.5,-332 297.5,-332"/>
<ellipse fill="none" stroke="black" cx="294.3" cy="-332" rx="3.2" ry="3.2"/>
</g>
</g>
</svg>
