<?xml version="1.0" encoding="UTF-8" standalone="no"?>
<!DOCTYPE svg PUBLIC "-//W3C//DTD SVG 1.1//EN"
 "http://www.w3.org/Graphics/SVG/1.1/DTD/svg11.dtd">
<!-- Generated by graphviz version 2.43.0 (0)
 -->
<!-- Title: oneDegreeRelationshipsDiagram Pages: 1 -->
<svg width="500pt" height="399pt"
 viewBox="0.00 0.00 500.00 399.00" xmlns="http://www.w3.org/2000/svg" xmlns:xlink="http://www.w3.org/1999/xlink">
<g id="graph0" class="graph" transform="scale(1 1) rotate(0) translate(4 395)">
<title>oneDegreeRelationshipsDiagram</title>
<polygon fill="#ffffff" stroke="transparent" points="-4,4 -4,-395 496,-395 496,4 -4,4"/>
<text text-anchor="middle" x="79.5" y="-7.2" font-family="Helvetica,sans-Serif" font-size="11.00">Generated by SchemaSpy</text>
<!-- tww_od.reach_text -->
<g id="node1" class="node">
<title>tww_od.reach_text</title>
<g id="a_node1"><a xlink:href="../../../tww_od/tables/reach_text.html" xlink:title="tww_od.reach_text" target="_top">
<polygon fill="#ffffff" stroke="transparent" points="300,-263 300,-387 484,-387 484,-263 300,-263"/>
<polygon fill="#f5f5f5" stroke="transparent" points="300,-365 300,-387 484,-387 484,-365 300,-365"/>
<polygon fill="none" stroke="black" points="300,-365 300,-387 484,-387 484,-365 300,-365"/>
<text text-anchor="start" x="305" y="-374.2" font-family="Helvetica,sans-Serif" font-weight="bold" font-size="11.00">tww_od.reach_text</text>
<text text-anchor="start" x="442" y="-373.2" font-family="Helvetica,sans-Serif" font-size="11.00">[table]</text>
<polygon fill="none" stroke="black" points="300,-343 300,-365 484,-365 484,-343 300,-343"/>
<image xlink:href="../../images/foreignKeys.png" width="11px" height="12px" preserveAspectRatio="xMinYMin meet" x="305" y="-360"/>
<text text-anchor="start" x="336" y="-351.2" font-family="Helvetica,sans-Serif" font-size="11.00">plantype</text>
<polygon fill="none" stroke="black" points="300,-321 300,-343 484,-343 484,-321 300,-321"/>
<image xlink:href="../../images/foreignKeys.png" width="11px" height="12px" preserveAspectRatio="xMinYMin meet" x="305" y="-338"/>
<text text-anchor="start" x="336" y="-329.2" font-family="Helvetica,sans-Serif" font-size="11.00">texthali</text>
<polygon fill="none" stroke="black" points="300,-299 300,-321 484,-321 484,-299 300,-299"/>
<image xlink:href="../../images/foreignKeys.png" width="11px" height="12px" preserveAspectRatio="xMinYMin meet" x="305" y="-316"/>
<text text-anchor="start" x="336" y="-307.2" font-family="Helvetica,sans-Serif" font-size="11.00">textvali</text>
<polygon fill="none" stroke="black" points="300,-281 300,-299 484,-299 484,-281 300,-281"/>
<text text-anchor="start" x="303" y="-287.2" font-family="Helvetica,sans-Serif" font-size="11.00">...</text>
<polygon fill="#ffffff" stroke="transparent" points="300,-263 300,-281 484,-281 484,-263 300,-263"/>
<polygon fill="none" stroke="black" points="300,-263 300,-281 484,-281 484,-263 300,-263"/>
<polygon fill="#ffffff" stroke="transparent" points="301,-264 301,-280 360,-280 360,-264 301,-264"/>
<text text-anchor="start" x="303" y="-269.2" font-family="Helvetica,sans-Serif" font-size="11.00">&lt; 3</text>
<polygon fill="#ffffff" stroke="transparent" points="360,-264 360,-280 436,-280 436,-264 360,-264"/>
<text text-anchor="start" x="379.5" y="-269.2" font-family="Helvetica,sans-Serif" font-size="11.00">0 rows</text>
<polygon fill="#ffffff" stroke="transparent" points="436,-264 436,-280 483,-280 483,-264 436,-264"/>
<text text-anchor="start" x="473" y="-269.2" font-family="Helvetica,sans-Serif" font-size="11.00"> &#160;</text>
<polygon fill="black" stroke="black" points="360,-264 360,-280 360,-280 360,-264 360,-264"/>
<polygon fill="black" stroke="black" points="436,-264 436,-280 436,-280 436,-264 436,-264"/>
</a>
</g>
</g>
<!-- reach_text_texthali -->
<g id="node2" class="node">
<title>reach_text_texthali</title>
<g id="a_node2"><a xlink:href="../../tables/reach_text_texthali.html" xlink:title="reach_text_texthali" target="_top">
<polygon fill="#ffffff" stroke="transparent" points="8,-37 8,-367 251,-367 251,-37 8,-37"/>
<polygon fill="#f5f5f5" stroke="transparent" points="10.5,-343 10.5,-365 249.5,-365 249.5,-343 10.5,-343"/>
<polygon fill="none" stroke="black" points="10.5,-343 10.5,-365 249.5,-365 249.5,-343 10.5,-343"/>
<text text-anchor="start" x="15.5" y="-352.2" font-family="Helvetica,sans-Serif" font-weight="bold" font-size="11.00">reach_text_texthali</text>
<text text-anchor="start" x="207.5" y="-351.2" font-family="Helvetica,sans-Serif" font-size="11.00">[table]</text>
<polygon fill="none" stroke="black" points="10.5,-321 10.5,-343 171.5,-343 171.5,-321 10.5,-321"/>
<image xlink:href="../../images/primaryKeys.png" width="11px" height="12px" preserveAspectRatio="xMinYMin meet" x="15.5" y="-338"/>
<text text-anchor="start" x="30.5" y="-329.2" font-family="Helvetica,sans-Serif" font-size="11.00">code</text>
<polygon fill="none" stroke="black" points="171.5,-321 171.5,-343 249.5,-343 249.5,-321 171.5,-321"/>
<text text-anchor="start" x="174.5" y="-329.2" font-family="Helvetica,sans-Serif" font-size="11.00">int4[10]</text>
<polygon fill="none" stroke="black" points="10.5,-299 10.5,-321 171.5,-321 171.5,-299 10.5,-299"/>
<text text-anchor="start" x="30.5" y="-307.2" font-family="Helvetica,sans-Serif" font-size="11.00">vsacode</text>
<polygon fill="none" stroke="black" points="171.5,-299 171.5,-321 249.5,-321 249.5,-299 171.5,-299"/>
<text text-anchor="start" x="174.5" y="-307.2" font-family="Helvetica,sans-Serif" font-size="11.00">int4[10]</text>
<polygon fill="none" stroke="black" points="10.5,-277 10.5,-299 171.5,-299 171.5,-277 10.5,-277"/>
<text text-anchor="start" x="30.5" y="-285.2" font-family="Helvetica,sans-Serif" font-size="11.00">value_en</text>
<polygon fill="none" stroke="black" points="171.5,-277 171.5,-299 249.5,-299 249.5,-277 171.5,-277"/>
<text text-anchor="start" x="174.5" y="-285.2" font-family="Helvetica,sans-Serif" font-size="11.00">varchar[100]</text>
<polygon fill="none" stroke="black" points="10.5,-255 10.5,-277 171.5,-277 171.5,-255 10.5,-255"/>
<text text-anchor="start" x="30.5" y="-263.2" font-family="Helvetica,sans-Serif" font-size="11.00">value_de</text>
<polygon fill="none" stroke="black" points="171.5,-255 171.5,-277 249.5,-277 249.5,-255 171.5,-255"/>
<text text-anchor="start" x="174.5" y="-263.2" font-family="Helvetica,sans-Serif" font-size="11.00">varchar[100]</text>
<polygon fill="none" stroke="black" points="10.5,-233 10.5,-255 171.5,-255 171.5,-233 10.5,-233"/>
<text text-anchor="start" x="30.5" y="-241.2" font-family="Helvetica,sans-Serif" font-size="11.00">value_fr</text>
<polygon fill="none" stroke="black" points="171.5,-233 171.5,-255 249.5,-255 249.5,-233 171.5,-233"/>
<text text-anchor="start" x="174.5" y="-241.2" font-family="Helvetica,sans-Serif" font-size="11.00">varchar[100]</text>
<polygon fill="none" stroke="black" points="10.5,-211 10.5,-233 171.5,-233 171.5,-211 10.5,-211"/>
<text text-anchor="start" x="30.5" y="-219.2" font-family="Helvetica,sans-Serif" font-size="11.00">value_it</text>
<polygon fill="none" stroke="black" points="171.5,-211 171.5,-233 249.5,-233 249.5,-211 171.5,-211"/>
<text text-anchor="start" x="174.5" y="-219.2" font-family="Helvetica,sans-Serif" font-size="11.00">varchar[100]</text>
<polygon fill="none" stroke="black" points="10.5,-189 10.5,-211 171.5,-211 171.5,-189 10.5,-189"/>
<text text-anchor="start" x="30.5" y="-197.2" font-family="Helvetica,sans-Serif" font-size="11.00">value_ro</text>
<polygon fill="none" stroke="black" points="171.5,-189 171.5,-211 249.5,-211 249.5,-189 171.5,-189"/>
<text text-anchor="start" x="174.5" y="-197.2" font-family="Helvetica,sans-Serif" font-size="11.00">varchar[100]</text>
<polygon fill="none" stroke="black" points="10.5,-167 10.5,-189 171.5,-189 171.5,-167 10.5,-167"/>
<text text-anchor="start" x="30.5" y="-175.2" font-family="Helvetica,sans-Serif" font-size="11.00">abbr_en</text>
<polygon fill="none" stroke="black" points="171.5,-167 171.5,-189 249.5,-189 249.5,-167 171.5,-167"/>
<text text-anchor="start" x="174.5" y="-175.2" font-family="Helvetica,sans-Serif" font-size="11.00">varchar[3]</text>
<polygon fill="none" stroke="black" points="10.5,-145 10.5,-167 171.5,-167 171.5,-145 10.5,-145"/>
<text text-anchor="start" x="30.5" y="-153.2" font-family="Helvetica,sans-Serif" font-size="11.00">abbr_de</text>
<polygon fill="none" stroke="black" points="171.5,-145 171.5,-167 249.5,-167 249.5,-145 171.5,-145"/>
<text text-anchor="start" x="174.5" y="-153.2" font-family="Helvetica,sans-Serif" font-size="11.00">varchar[3]</text>
<polygon fill="none" stroke="black" points="10.5,-123 10.5,-145 171.5,-145 171.5,-123 10.5,-123"/>
<text text-anchor="start" x="30.5" y="-131.2" font-family="Helvetica,sans-Serif" font-size="11.00">abbr_fr</text>
<polygon fill="none" stroke="black" points="171.5,-123 171.5,-145 249.5,-145 249.5,-123 171.5,-123"/>
<text text-anchor="start" x="174.5" y="-131.2" font-family="Helvetica,sans-Serif" font-size="11.00">varchar[3]</text>
<polygon fill="none" stroke="black" points="10.5,-101 10.5,-123 171.5,-123 171.5,-101 10.5,-101"/>
<text text-anchor="start" x="30.5" y="-109.2" font-family="Helvetica,sans-Serif" font-size="11.00">abbr_it</text>
<polygon fill="none" stroke="black" points="171.5,-101 171.5,-123 249.5,-123 249.5,-101 171.5,-101"/>
<text text-anchor="start" x="174.5" y="-109.2" font-family="Helvetica,sans-Serif" font-size="11.00">varchar[3]</text>
<polygon fill="none" stroke="black" points="10.5,-79 10.5,-101 171.5,-101 171.5,-79 10.5,-79"/>
<text text-anchor="start" x="30.5" y="-87.2" font-family="Helvetica,sans-Serif" font-size="11.00">abbr_ro</text>
<polygon fill="none" stroke="black" points="171.5,-79 171.5,-101 249.5,-101 249.5,-79 171.5,-79"/>
<text text-anchor="start" x="174.5" y="-87.2" font-family="Helvetica,sans-Serif" font-size="11.00">varchar[3]</text>
<polygon fill="none" stroke="black" points="10.5,-57 10.5,-79 171.5,-79 171.5,-57 10.5,-57"/>
<text text-anchor="start" x="30.5" y="-65.2" font-family="Helvetica,sans-Serif" font-size="11.00">active</text>
<polygon fill="none" stroke="black" points="171.5,-57 171.5,-79 249.5,-79 249.5,-57 171.5,-57"/>
<text text-anchor="start" x="174.5" y="-65.2" font-family="Helvetica,sans-Serif" font-size="11.00">bool[1]</text>
<polygon fill="#ffffff" stroke="transparent" points="10.5,-39 10.5,-57 249.5,-57 249.5,-39 10.5,-39"/>
<polygon fill="none" stroke="black" points="10.5,-39 10.5,-57 249.5,-57 249.5,-39 10.5,-39"/>
<polygon fill="#ffffff" stroke="transparent" points="11.5,-40 11.5,-56 94.5,-56 94.5,-40 11.5,-40"/>
<text text-anchor="start" x="13.5" y="-45.2" font-family="Helvetica,sans-Serif" font-size="11.00">&lt; 0</text>
<polygon fill="#ffffff" stroke="transparent" points="94.5,-40 94.5,-56 165.5,-56 165.5,-40 94.5,-40"/>
<text text-anchor="start" x="126" y="-45.2" font-family="Helvetica,sans-Serif" font-size="11.00"> &#160;</text>
<polygon fill="#ffffff" stroke="transparent" points="165.5,-40 165.5,-56 248.5,-56 248.5,-40 165.5,-40"/>
<text text-anchor="start" x="226.5" y="-45.2" font-family="Helvetica,sans-Serif" font-size="11.00">1 &gt;</text>
<polygon fill="black" stroke="black" points="94.5,-40 94.5,-56 94.5,-56 94.5,-40 94.5,-40"/>
<polygon fill="black" stroke="black" points="165.5,-40 165.5,-56 165.5,-56 165.5,-40 165.5,-40"/>
<polygon fill="none" stroke="black" stroke-width="2" points="9,-38 9,-366 250,-366 250,-38 9,-38"/>
</a>
</g>
</g>
<!-- tww_od.reach_text&#45;&gt;reach_text_texthali -->
<g id="edge1" class="edge">
<title>tww_od.reach_text:w&#45;&gt;reach_text_texthali:e</title>
<path fill="none" stroke="black" d="M284.28,-332C273.29,-332 266.16,-332 250.5,-332"/>
<polygon fill="black" stroke="black" points="291,-332 299,-335.6 295,-332 299,-332 299,-332 299,-332 295,-332 299,-328.4 291,-332 291,-332"/>
<ellipse fill="none" stroke="black" cx="287.8" cy="-332" rx="3.2" ry="3.2"/>
</g>
</g>
</svg>
