<?xml version="1.0" encoding="UTF-8" standalone="no"?>
<!DOCTYPE svg PUBLIC "-//W3C//DTD SVG 1.1//EN"
 "http://www.w3.org/Graphics/SVG/1.1/DTD/svg11.dtd">
<!-- Generated by graphviz version 2.43.0 (0)
 -->
<!-- Title: oneDegreeRelationshipsDiagram Pages: 1 -->
<svg width="627pt" height="443pt"
 viewBox="0.00 0.00 627.00 443.00" xmlns="http://www.w3.org/2000/svg" xmlns:xlink="http://www.w3.org/1999/xlink">
<g id="graph0" class="graph" transform="scale(1 1) rotate(0) translate(4 439)">
<title>oneDegreeRelationshipsDiagram</title>
<polygon fill="#ffffff" stroke="transparent" points="-4,4 -4,-439 623,-439 623,4 -4,4"/>
<text text-anchor="middle" x="79.5" y="-7.2" font-family="Helvetica,sans-Serif" font-size="11.00">Generated by SchemaSpy</text>
<!-- tww_od.reach -->
<g id="node1" class="node">
<title>tww_od.reach</title>
<g id="a_node1"><a xlink:href="../../../tww_od/tables/reach.html" xlink:title="tww_od.reach" target="_top">
<polygon fill="#ffffff" stroke="transparent" points="320,-197 320,-431 611,-431 611,-197 320,-197"/>
<polygon fill="#f5f5f5" stroke="transparent" points="320.5,-409 320.5,-431 611.5,-431 611.5,-409 320.5,-409"/>
<polygon fill="none" stroke="black" points="320.5,-409 320.5,-431 611.5,-431 611.5,-409 320.5,-409"/>
<text text-anchor="start" x="325.5" y="-418.2" font-family="Helvetica,sans-Serif" font-weight="bold" font-size="11.00">tww_od.reach</text>
<text text-anchor="start" x="569.5" y="-417.2" font-family="Helvetica,sans-Serif" font-size="11.00">[table]</text>
<polygon fill="none" stroke="black" points="320.5,-387 320.5,-409 611.5,-409 611.5,-387 320.5,-387"/>
<image xlink:href="../../images/foreignKeys.png" width="11px" height="12px" preserveAspectRatio="xMinYMin meet" x="325.5" y="-404"/>
<text text-anchor="start" x="340.5" y="-395.2" font-family="Helvetica,sans-Serif" font-size="11.00">elevation_determination</text>
<polygon fill="none" stroke="black" points="320.5,-365 320.5,-387 611.5,-387 611.5,-365 320.5,-365"/>
<image xlink:href="../../images/foreignKeys.png" width="11px" height="12px" preserveAspectRatio="xMinYMin meet" x="325.5" y="-382"/>
<text text-anchor="start" x="340.5" y="-373.2" font-family="Helvetica,sans-Serif" font-size="11.00">horizontal_positioning</text>
<polygon fill="none" stroke="black" points="320.5,-343 320.5,-365 611.5,-365 611.5,-343 320.5,-343"/>
<image xlink:href="../../images/foreignKeys.png" width="11px" height="12px" preserveAspectRatio="xMinYMin meet" x="325.5" y="-360"/>
<text text-anchor="start" x="340.5" y="-351.2" font-family="Helvetica,sans-Serif" font-size="11.00">inside_coating</text>
<polygon fill="none" stroke="black" points="320.5,-321 320.5,-343 611.5,-343 611.5,-321 320.5,-321"/>
<image xlink:href="../../images/foreignKeys.png" width="11px" height="12px" preserveAspectRatio="xMinYMin meet" x="325.5" y="-338"/>
<text text-anchor="start" x="340.5" y="-329.2" font-family="Helvetica,sans-Serif" font-size="11.00">leak_protection</text>
<polygon fill="none" stroke="black" points="320.5,-299 320.5,-321 611.5,-321 611.5,-299 320.5,-299"/>
<image xlink:href="../../images/foreignKeys.png" width="11px" height="12px" preserveAspectRatio="xMinYMin meet" x="325.5" y="-316"/>
<text text-anchor="start" x="340.5" y="-307.2" font-family="Helvetica,sans-Serif" font-size="11.00">material</text>
<polygon fill="none" stroke="black" points="320.5,-277 320.5,-299 611.5,-299 611.5,-277 320.5,-277"/>
<image xlink:href="../../images/foreignKeys.png" width="11px" height="12px" preserveAspectRatio="xMinYMin meet" x="325.5" y="-294"/>
<text text-anchor="start" x="340.5" y="-285.2" font-family="Helvetica,sans-Serif" font-size="11.00">reliner_material</text>
<polygon fill="none" stroke="black" points="320.5,-255 320.5,-277 611.5,-277 611.5,-255 320.5,-255"/>
<image xlink:href="../../images/foreignKeys.png" width="11px" height="12px" preserveAspectRatio="xMinYMin meet" x="325.5" y="-272"/>
<text text-anchor="start" x="340.5" y="-263.2" font-family="Helvetica,sans-Serif" font-size="11.00">relining_construction</text>
<polygon fill="none" stroke="black" points="320.5,-233 320.5,-255 611.5,-255 611.5,-233 320.5,-233"/>
<image xlink:href="../../images/foreignKeys.png" width="11px" height="12px" preserveAspectRatio="xMinYMin meet" x="325.5" y="-250"/>
<text text-anchor="start" x="340.5" y="-241.2" font-family="Helvetica,sans-Serif" font-size="11.00">relining_kind</text>
<polygon fill="none" stroke="black" points="320.5,-215 320.5,-233 611.5,-233 611.5,-215 320.5,-215"/>
<text text-anchor="start" x="323.5" y="-221.2" font-family="Helvetica,sans-Serif" font-size="11.00">...</text>
<polygon fill="#ffffff" stroke="transparent" points="320.5,-197 320.5,-215 611.5,-215 611.5,-197 320.5,-197"/>
<polygon fill="none" stroke="black" points="320.5,-197 320.5,-215 611.5,-215 611.5,-197 320.5,-197"/>
<polygon fill="#ffffff" stroke="transparent" points="321.5,-198 321.5,-214 416.5,-214 416.5,-198 321.5,-198"/>
<text text-anchor="start" x="323.5" y="-203.2" font-family="Helvetica,sans-Serif" font-size="11.00">&lt; 8</text>
<polygon fill="#ffffff" stroke="transparent" points="416.5,-198 416.5,-214 528.5,-214 528.5,-198 416.5,-198"/>
<text text-anchor="start" x="454" y="-203.2" font-family="Helvetica,sans-Serif" font-size="11.00">0 rows</text>
<polygon fill="#ffffff" stroke="transparent" points="528.5,-198 528.5,-214 610.5,-214 610.5,-198 528.5,-198"/>
<text text-anchor="start" x="600.5" y="-203.2" font-family="Helvetica,sans-Serif" font-size="11.00"> &#160;</text>
<polygon fill="black" stroke="black" points="416.5,-198 416.5,-214 416.5,-214 416.5,-198 416.5,-198"/>
<polygon fill="black" stroke="black" points="528.5,-198 528.5,-214 528.5,-214 528.5,-198 528.5,-198"/>
</a>
</g>
</g>
<!-- reach_leak_protection -->
<g id="node2" class="node">
<title>reach_leak_protection</title>
<g id="a_node2"><a xlink:href="../../tables/reach_leak_protection.html" xlink:title="reach_leak_protection" target="_top">
<polygon fill="#ffffff" stroke="transparent" points="8,-37 8,-367 271,-367 271,-37 8,-37"/>
<polygon fill="#f5f5f5" stroke="transparent" points="10.5,-343 10.5,-365 269.5,-365 269.5,-343 10.5,-343"/>
<polygon fill="none" stroke="black" points="10.5,-343 10.5,-365 269.5,-365 269.5,-343 10.5,-343"/>
<text text-anchor="start" x="15.5" y="-352.2" font-family="Helvetica,sans-Serif" font-weight="bold" font-size="11.00">reach_leak_protection</text>
<text text-anchor="start" x="227.5" y="-351.2" font-family="Helvetica,sans-Serif" font-size="11.00">[table]</text>
<polygon fill="none" stroke="black" points="10.5,-321 10.5,-343 191.5,-343 191.5,-321 10.5,-321"/>
<image xlink:href="../../images/primaryKeys.png" width="11px" height="12px" preserveAspectRatio="xMinYMin meet" x="15.5" y="-338"/>
<text text-anchor="start" x="30.5" y="-329.2" font-family="Helvetica,sans-Serif" font-size="11.00">code</text>
<polygon fill="none" stroke="black" points="191.5,-321 191.5,-343 269.5,-343 269.5,-321 191.5,-321"/>
<text text-anchor="start" x="194.5" y="-329.2" font-family="Helvetica,sans-Serif" font-size="11.00">int4[10]</text>
<polygon fill="none" stroke="black" points="10.5,-299 10.5,-321 191.5,-321 191.5,-299 10.5,-299"/>
<text text-anchor="start" x="30.5" y="-307.2" font-family="Helvetica,sans-Serif" font-size="11.00">vsacode</text>
<polygon fill="none" stroke="black" points="191.5,-299 191.5,-321 269.5,-321 269.5,-299 191.5,-299"/>
<text text-anchor="start" x="194.5" y="-307.2" font-family="Helvetica,sans-Serif" font-size="11.00">int4[10]</text>
<polygon fill="none" stroke="black" points="10.5,-277 10.5,-299 191.5,-299 191.5,-277 10.5,-277"/>
<text text-anchor="start" x="30.5" y="-285.2" font-family="Helvetica,sans-Serif" font-size="11.00">value_en</text>
<polygon fill="none" stroke="black" points="191.5,-277 191.5,-299 269.5,-299 269.5,-277 191.5,-277"/>
<text text-anchor="start" x="194.5" y="-285.2" font-family="Helvetica,sans-Serif" font-size="11.00">varchar[100]</text>
<polygon fill="none" stroke="black" points="10.5,-255 10.5,-277 191.5,-277 191.5,-255 10.5,-255"/>
<text text-anchor="start" x="30.5" y="-263.2" font-family="Helvetica,sans-Serif" font-size="11.00">value_de</text>
<polygon fill="none" stroke="black" points="191.5,-255 191.5,-277 269.5,-277 269.5,-255 191.5,-255"/>
<text text-anchor="start" x="194.5" y="-263.2" font-family="Helvetica,sans-Serif" font-size="11.00">varchar[100]</text>
<polygon fill="none" stroke="black" points="10.5,-233 10.5,-255 191.5,-255 191.5,-233 10.5,-233"/>
<text text-anchor="start" x="30.5" y="-241.2" font-family="Helvetica,sans-Serif" font-size="11.00">value_fr</text>
<polygon fill="none" stroke="black" points="191.5,-233 191.5,-255 269.5,-255 269.5,-233 191.5,-233"/>
<text text-anchor="start" x="194.5" y="-241.2" font-family="Helvetica,sans-Serif" font-size="11.00">varchar[100]</text>
<polygon fill="none" stroke="black" points="10.5,-211 10.5,-233 191.5,-233 191.5,-211 10.5,-211"/>
<text text-anchor="start" x="30.5" y="-219.2" font-family="Helvetica,sans-Serif" font-size="11.00">value_it</text>
<polygon fill="none" stroke="black" points="191.5,-211 191.5,-233 269.5,-233 269.5,-211 191.5,-211"/>
<text text-anchor="start" x="194.5" y="-219.2" font-family="Helvetica,sans-Serif" font-size="11.00">varchar[100]</text>
<polygon fill="none" stroke="black" points="10.5,-189 10.5,-211 191.5,-211 191.5,-189 10.5,-189"/>
<text text-anchor="start" x="30.5" y="-197.2" font-family="Helvetica,sans-Serif" font-size="11.00">value_ro</text>
<polygon fill="none" stroke="black" points="191.5,-189 191.5,-211 269.5,-211 269.5,-189 191.5,-189"/>
<text text-anchor="start" x="194.5" y="-197.2" font-family="Helvetica,sans-Serif" font-size="11.00">varchar[100]</text>
<polygon fill="none" stroke="black" points="10.5,-167 10.5,-189 191.5,-189 191.5,-167 10.5,-167"/>
<text text-anchor="start" x="30.5" y="-175.2" font-family="Helvetica,sans-Serif" font-size="11.00">abbr_en</text>
<polygon fill="none" stroke="black" points="191.5,-167 191.5,-189 269.5,-189 269.5,-167 191.5,-167"/>
<text text-anchor="start" x="194.5" y="-175.2" font-family="Helvetica,sans-Serif" font-size="11.00">varchar[3]</text>
<polygon fill="none" stroke="black" points="10.5,-145 10.5,-167 191.5,-167 191.5,-145 10.5,-145"/>
<text text-anchor="start" x="30.5" y="-153.2" font-family="Helvetica,sans-Serif" font-size="11.00">abbr_de</text>
<polygon fill="none" stroke="black" points="191.5,-145 191.5,-167 269.5,-167 269.5,-145 191.5,-145"/>
<text text-anchor="start" x="194.5" y="-153.2" font-family="Helvetica,sans-Serif" font-size="11.00">varchar[3]</text>
<polygon fill="none" stroke="black" points="10.5,-123 10.5,-145 191.5,-145 191.5,-123 10.5,-123"/>
<text text-anchor="start" x="30.5" y="-131.2" font-family="Helvetica,sans-Serif" font-size="11.00">abbr_fr</text>
<polygon fill="none" stroke="black" points="191.5,-123 191.5,-145 269.5,-145 269.5,-123 191.5,-123"/>
<text text-anchor="start" x="194.5" y="-131.2" font-family="Helvetica,sans-Serif" font-size="11.00">varchar[3]</text>
<polygon fill="none" stroke="black" points="10.5,-101 10.5,-123 191.5,-123 191.5,-101 10.5,-101"/>
<text text-anchor="start" x="30.5" y="-109.2" font-family="Helvetica,sans-Serif" font-size="11.00">abbr_it</text>
<polygon fill="none" stroke="black" points="191.5,-101 191.5,-123 269.5,-123 269.5,-101 191.5,-101"/>
<text text-anchor="start" x="194.5" y="-109.2" font-family="Helvetica,sans-Serif" font-size="11.00">varchar[3]</text>
<polygon fill="none" stroke="black" points="10.5,-79 10.5,-101 191.5,-101 191.5,-79 10.5,-79"/>
<text text-anchor="start" x="30.5" y="-87.2" font-family="Helvetica,sans-Serif" font-size="11.00">abbr_ro</text>
<polygon fill="none" stroke="black" points="191.5,-79 191.5,-101 269.5,-101 269.5,-79 191.5,-79"/>
<text text-anchor="start" x="194.5" y="-87.2" font-family="Helvetica,sans-Serif" font-size="11.00">varchar[3]</text>
<polygon fill="none" stroke="black" points="10.5,-57 10.5,-79 191.5,-79 191.5,-57 10.5,-57"/>
<text text-anchor="start" x="30.5" y="-65.2" font-family="Helvetica,sans-Serif" font-size="11.00">active</text>
<polygon fill="none" stroke="black" points="191.5,-57 191.5,-79 269.5,-79 269.5,-57 191.5,-57"/>
<text text-anchor="start" x="194.5" y="-65.2" font-family="Helvetica,sans-Serif" font-size="11.00">bool[1]</text>
<polygon fill="#ffffff" stroke="transparent" points="10.5,-39 10.5,-57 269.5,-57 269.5,-39 10.5,-39"/>
<polygon fill="none" stroke="black" points="10.5,-39 10.5,-57 269.5,-57 269.5,-39 10.5,-39"/>
<polygon fill="#ffffff" stroke="transparent" points="11.5,-40 11.5,-56 101.5,-56 101.5,-40 11.5,-40"/>
<text text-anchor="start" x="13.5" y="-45.2" font-family="Helvetica,sans-Serif" font-size="11.00">&lt; 0</text>
<polygon fill="#ffffff" stroke="transparent" points="101.5,-40 101.5,-56 179.5,-56 179.5,-40 101.5,-40"/>
<text text-anchor="start" x="136.5" y="-45.2" font-family="Helvetica,sans-Serif" font-size="11.00"> &#160;</text>
<polygon fill="#ffffff" stroke="transparent" points="179.5,-40 179.5,-56 268.5,-56 268.5,-40 179.5,-40"/>
<text text-anchor="start" x="246.5" y="-45.2" font-family="Helvetica,sans-Serif" font-size="11.00">1 &gt;</text>
<polygon fill="black" stroke="black" points="101.5,-40 101.5,-56 101.5,-56 101.5,-40 101.5,-40"/>
<polygon fill="black" stroke="black" points="179.5,-40 179.5,-56 179.5,-56 179.5,-40 179.5,-40"/>
<polygon fill="none" stroke="black" stroke-width="2" points="9,-38 9,-366 270,-366 270,-38 9,-38"/>
</a>
</g>
</g>
<!-- tww_od.reach&#45;&gt;reach_leak_protection -->
<g id="edge1" class="edge">
<title>tww_od.reach:w&#45;&gt;reach_leak_protection:e</title>
<path fill="none" stroke="black" d="M304.99,-332C293.68,-332 286.49,-332 270.5,-332"/>
<polygon fill="black" stroke="black" points="311.5,-332 319.5,-335.6 315.5,-332 319.5,-332 319.5,-332 319.5,-332 315.5,-332 319.5,-328.4 311.5,-332 311.5,-332"/>
<ellipse fill="none" stroke="black" cx="308.3" cy="-332" rx="3.2" ry="3.2"/>
</g>
</g>
</svg>
