<?xml version="1.0" encoding="UTF-8" standalone="no"?>
<!DOCTYPE svg PUBLIC "-//W3C//DTD SVG 1.1//EN"
 "http://www.w3.org/Graphics/SVG/1.1/DTD/svg11.dtd">
<!-- Generated by graphviz version 2.43.0 (0)
 -->
<!-- Title: oneDegreeRelationshipsDiagram Pages: 1 -->
<svg width="542pt" height="379pt"
 viewBox="0.00 0.00 542.00 379.00" xmlns="http://www.w3.org/2000/svg" xmlns:xlink="http://www.w3.org/1999/xlink">
<g id="graph0" class="graph" transform="scale(1 1) rotate(0) translate(4 375)">
<title>oneDegreeRelationshipsDiagram</title>
<polygon fill="#ffffff" stroke="transparent" points="-4,4 -4,-375 538,-375 538,4 -4,4"/>
<text text-anchor="middle" x="79.5" y="-7.2" font-family="Helvetica,sans-Serif" font-size="11.00">Generated by SchemaSpy</text>
<!-- tww_od.retention_body -->
<g id="node1" class="node">
<title>tww_od.retention_body</title>
<g id="a_node1"><a xlink:href="../../../tww_od/tables/retention_body.html" xlink:title="tww_od.retention_body" target="_top">
<polygon fill="#ffffff" stroke="transparent" points="309,-285 309,-365 526,-365 526,-285 309,-285"/>
<polygon fill="#f5f5f5" stroke="transparent" points="309.5,-343 309.5,-365 526.5,-365 526.5,-343 309.5,-343"/>
<polygon fill="none" stroke="black" points="309.5,-343 309.5,-365 526.5,-365 526.5,-343 309.5,-343"/>
<text text-anchor="start" x="314.5" y="-352.2" font-family="Helvetica,sans-Serif" font-weight="bold" font-size="11.00">tww_od.retention_body</text>
<text text-anchor="start" x="484.5" y="-351.2" font-family="Helvetica,sans-Serif" font-size="11.00">[table]</text>
<polygon fill="none" stroke="black" points="309.5,-321 309.5,-343 526.5,-343 526.5,-321 309.5,-321"/>
<image xlink:href="../../images/foreignKeys.png" width="11px" height="12px" preserveAspectRatio="xMinYMin meet" x="314.5" y="-338"/>
<text text-anchor="start" x="333.5" y="-329.2" font-family="Helvetica,sans-Serif" font-size="11.00">kind</text>
<polygon fill="none" stroke="black" points="309.5,-303 309.5,-321 526.5,-321 526.5,-303 309.5,-303"/>
<text text-anchor="start" x="312.5" y="-309.2" font-family="Helvetica,sans-Serif" font-size="11.00">...</text>
<polygon fill="#ffffff" stroke="transparent" points="309.5,-285 309.5,-303 526.5,-303 526.5,-285 309.5,-285"/>
<polygon fill="none" stroke="black" points="309.5,-285 309.5,-303 526.5,-303 526.5,-285 309.5,-285"/>
<polygon fill="#ffffff" stroke="transparent" points="310.5,-286 310.5,-302 380.5,-302 380.5,-286 310.5,-286"/>
<text text-anchor="start" x="312.5" y="-291.2" font-family="Helvetica,sans-Serif" font-size="11.00">&lt; 1</text>
<polygon fill="#ffffff" stroke="transparent" points="380.5,-286 380.5,-302 467.5,-302 467.5,-286 380.5,-286"/>
<text text-anchor="start" x="405.5" y="-291.2" font-family="Helvetica,sans-Serif" font-size="11.00">0 rows</text>
<polygon fill="#ffffff" stroke="transparent" points="467.5,-286 467.5,-302 525.5,-302 525.5,-286 467.5,-286"/>
<text text-anchor="start" x="515.5" y="-291.2" font-family="Helvetica,sans-Serif" font-size="11.00"> &#160;</text>
<polygon fill="black" stroke="black" points="380.5,-286 380.5,-302 380.5,-302 380.5,-286 380.5,-286"/>
<polygon fill="black" stroke="black" points="467.5,-286 467.5,-302 467.5,-302 467.5,-286 467.5,-286"/>
</a>
</g>
</g>
<!-- retention_body_kind -->
<g id="node2" class="node">
<title>retention_body_kind</title>
<g id="a_node2"><a xlink:href="../../tables/retention_body_kind.html" xlink:title="retention_body_kind" target="_top">
<polygon fill="#ffffff" stroke="transparent" points="8,-37 8,-367 260,-367 260,-37 8,-37"/>
<polygon fill="#f5f5f5" stroke="transparent" points="10,-343 10,-365 258,-365 258,-343 10,-343"/>
<polygon fill="none" stroke="black" points="10,-343 10,-365 258,-365 258,-343 10,-343"/>
<text text-anchor="start" x="15" y="-352.2" font-family="Helvetica,sans-Serif" font-weight="bold" font-size="11.00">retention_body_kind</text>
<text text-anchor="start" x="216" y="-351.2" font-family="Helvetica,sans-Serif" font-size="11.00">[table]</text>
<polygon fill="none" stroke="black" points="10,-321 10,-343 180,-343 180,-321 10,-321"/>
<image xlink:href="../../images/primaryKeys.png" width="11px" height="12px" preserveAspectRatio="xMinYMin meet" x="15" y="-338"/>
<text text-anchor="start" x="30" y="-329.2" font-family="Helvetica,sans-Serif" font-size="11.00">code</text>
<polygon fill="none" stroke="black" points="180,-321 180,-343 258,-343 258,-321 180,-321"/>
<text text-anchor="start" x="183" y="-329.2" font-family="Helvetica,sans-Serif" font-size="11.00">int4[10]</text>
<polygon fill="none" stroke="black" points="10,-299 10,-321 180,-321 180,-299 10,-299"/>
<text text-anchor="start" x="30" y="-307.2" font-family="Helvetica,sans-Serif" font-size="11.00">vsacode</text>
<polygon fill="none" stroke="black" points="180,-299 180,-321 258,-321 258,-299 180,-299"/>
<text text-anchor="start" x="183" y="-307.2" font-family="Helvetica,sans-Serif" font-size="11.00">int4[10]</text>
<polygon fill="none" stroke="black" points="10,-277 10,-299 180,-299 180,-277 10,-277"/>
<text text-anchor="start" x="30" y="-285.2" font-family="Helvetica,sans-Serif" font-size="11.00">value_en</text>
<polygon fill="none" stroke="black" points="180,-277 180,-299 258,-299 258,-277 180,-277"/>
<text text-anchor="start" x="183" y="-285.2" font-family="Helvetica,sans-Serif" font-size="11.00">varchar[100]</text>
<polygon fill="none" stroke="black" points="10,-255 10,-277 180,-277 180,-255 10,-255"/>
<text text-anchor="start" x="30" y="-263.2" font-family="Helvetica,sans-Serif" font-size="11.00">value_de</text>
<polygon fill="none" stroke="black" points="180,-255 180,-277 258,-277 258,-255 180,-255"/>
<text text-anchor="start" x="183" y="-263.2" font-family="Helvetica,sans-Serif" font-size="11.00">varchar[100]</text>
<polygon fill="none" stroke="black" points="10,-233 10,-255 180,-255 180,-233 10,-233"/>
<text text-anchor="start" x="30" y="-241.2" font-family="Helvetica,sans-Serif" font-size="11.00">value_fr</text>
<polygon fill="none" stroke="black" points="180,-233 180,-255 258,-255 258,-233 180,-233"/>
<text text-anchor="start" x="183" y="-241.2" font-family="Helvetica,sans-Serif" font-size="11.00">varchar[100]</text>
<polygon fill="none" stroke="black" points="10,-211 10,-233 180,-233 180,-211 10,-211"/>
<text text-anchor="start" x="30" y="-219.2" font-family="Helvetica,sans-Serif" font-size="11.00">value_it</text>
<polygon fill="none" stroke="black" points="180,-211 180,-233 258,-233 258,-211 180,-211"/>
<text text-anchor="start" x="183" y="-219.2" font-family="Helvetica,sans-Serif" font-size="11.00">varchar[100]</text>
<polygon fill="none" stroke="black" points="10,-189 10,-211 180,-211 180,-189 10,-189"/>
<text text-anchor="start" x="30" y="-197.2" font-family="Helvetica,sans-Serif" font-size="11.00">value_ro</text>
<polygon fill="none" stroke="black" points="180,-189 180,-211 258,-211 258,-189 180,-189"/>
<text text-anchor="start" x="183" y="-197.2" font-family="Helvetica,sans-Serif" font-size="11.00">varchar[100]</text>
<polygon fill="none" stroke="black" points="10,-167 10,-189 180,-189 180,-167 10,-167"/>
<text text-anchor="start" x="30" y="-175.2" font-family="Helvetica,sans-Serif" font-size="11.00">abbr_en</text>
<polygon fill="none" stroke="black" points="180,-167 180,-189 258,-189 258,-167 180,-167"/>
<text text-anchor="start" x="183" y="-175.2" font-family="Helvetica,sans-Serif" font-size="11.00">varchar[3]</text>
<polygon fill="none" stroke="black" points="10,-145 10,-167 180,-167 180,-145 10,-145"/>
<text text-anchor="start" x="30" y="-153.2" font-family="Helvetica,sans-Serif" font-size="11.00">abbr_de</text>
<polygon fill="none" stroke="black" points="180,-145 180,-167 258,-167 258,-145 180,-145"/>
<text text-anchor="start" x="183" y="-153.2" font-family="Helvetica,sans-Serif" font-size="11.00">varchar[3]</text>
<polygon fill="none" stroke="black" points="10,-123 10,-145 180,-145 180,-123 10,-123"/>
<text text-anchor="start" x="30" y="-131.2" font-family="Helvetica,sans-Serif" font-size="11.00">abbr_fr</text>
<polygon fill="none" stroke="black" points="180,-123 180,-145 258,-145 258,-123 180,-123"/>
<text text-anchor="start" x="183" y="-131.2" font-family="Helvetica,sans-Serif" font-size="11.00">varchar[3]</text>
<polygon fill="none" stroke="black" points="10,-101 10,-123 180,-123 180,-101 10,-101"/>
<text text-anchor="start" x="30" y="-109.2" font-family="Helvetica,sans-Serif" font-size="11.00">abbr_it</text>
<polygon fill="none" stroke="black" points="180,-101 180,-123 258,-123 258,-101 180,-101"/>
<text text-anchor="start" x="183" y="-109.2" font-family="Helvetica,sans-Serif" font-size="11.00">varchar[3]</text>
<polygon fill="none" stroke="black" points="10,-79 10,-101 180,-101 180,-79 10,-79"/>
<text text-anchor="start" x="30" y="-87.2" font-family="Helvetica,sans-Serif" font-size="11.00">abbr_ro</text>
<polygon fill="none" stroke="black" points="180,-79 180,-101 258,-101 258,-79 180,-79"/>
<text text-anchor="start" x="183" y="-87.2" font-family="Helvetica,sans-Serif" font-size="11.00">varchar[3]</text>
<polygon fill="none" stroke="black" points="10,-57 10,-79 180,-79 180,-57 10,-57"/>
<text text-anchor="start" x="30" y="-65.2" font-family="Helvetica,sans-Serif" font-size="11.00">active</text>
<polygon fill="none" stroke="black" points="180,-57 180,-79 258,-79 258,-57 180,-57"/>
<text text-anchor="start" x="183" y="-65.2" font-family="Helvetica,sans-Serif" font-size="11.00">bool[1]</text>
<polygon fill="#ffffff" stroke="transparent" points="10,-39 10,-57 258,-57 258,-39 10,-39"/>
<polygon fill="none" stroke="black" points="10,-39 10,-57 258,-57 258,-39 10,-39"/>
<polygon fill="#ffffff" stroke="transparent" points="11,-40 11,-56 97,-56 97,-40 11,-40"/>
<text text-anchor="start" x="13" y="-45.2" font-family="Helvetica,sans-Serif" font-size="11.00">&lt; 0</text>
<polygon fill="#ffffff" stroke="transparent" points="97,-40 97,-56 171,-56 171,-40 97,-40"/>
<text text-anchor="start" x="130" y="-45.2" font-family="Helvetica,sans-Serif" font-size="11.00"> &#160;</text>
<polygon fill="#ffffff" stroke="transparent" points="171,-40 171,-56 257,-56 257,-40 171,-40"/>
<text text-anchor="start" x="235" y="-45.2" font-family="Helvetica,sans-Serif" font-size="11.00">1 &gt;</text>
<polygon fill="black" stroke="black" points="97,-40 97,-56 97,-56 97,-40 97,-40"/>
<polygon fill="black" stroke="black" points="171,-40 171,-56 171,-56 171,-40 171,-40"/>
<polygon fill="none" stroke="black" stroke-width="2" points="9,-38 9,-366 259,-366 259,-38 9,-38"/>
</a>
</g>
</g>
<!-- tww_od.retention_body&#45;&gt;retention_body_kind -->
<g id="edge1" class="edge">
<title>tww_od.retention_body:w&#45;&gt;retention_body_kind:e</title>
<path fill="none" stroke="black" d="M293.84,-332C282.41,-332 275.16,-332 259,-332"/>
<polygon fill="black" stroke="black" points="300.5,-332 308.5,-335.6 304.5,-332 308.5,-332 308.5,-332 308.5,-332 304.5,-332 308.5,-328.4 300.5,-332 300.5,-332"/>
<ellipse fill="none" stroke="black" cx="297.3" cy="-332" rx="3.2" ry="3.2"/>
</g>
</g>
</svg>
