<?xml version="1.0" encoding="UTF-8" standalone="no"?>
<!DOCTYPE svg PUBLIC "-//W3C//DTD SVG 1.1//EN"
 "http://www.w3.org/Graphics/SVG/1.1/DTD/svg11.dtd">
<!-- Generated by graphviz version 2.43.0 (0)
 -->
<!-- Title: oneDegreeRelationshipsDiagram Pages: 1 -->
<svg width="685pt" height="465pt"
 viewBox="0.00 0.00 685.00 465.00" xmlns="http://www.w3.org/2000/svg" xmlns:xlink="http://www.w3.org/1999/xlink">
<g id="graph0" class="graph" transform="scale(1 1) rotate(0) translate(4 461)">
<title>oneDegreeRelationshipsDiagram</title>
<polygon fill="#ffffff" stroke="transparent" points="-4,4 -4,-461 681,-461 681,4 -4,4"/>
<text text-anchor="middle" x="79.5" y="-7.2" font-family="Helvetica,sans-Serif" font-size="11.00">Generated by SchemaSpy</text>
<!-- tww_od.sia405cc_cable -->
<g id="node1" class="node">
<title>tww_od.sia405cc_cable</title>
<g id="a_node1"><a xlink:href="../../../tww_od/tables/sia405cc_cable.html" xlink:title="tww_od.sia405cc_cable" target="_top">
<polygon fill="#ffffff" stroke="transparent" points="454,-285 454,-453 669,-453 669,-285 454,-285"/>
<polygon fill="#f5f5f5" stroke="transparent" points="454.5,-431 454.5,-453 669.5,-453 669.5,-431 454.5,-431"/>
<polygon fill="none" stroke="black" points="454.5,-431 454.5,-453 669.5,-453 669.5,-431 454.5,-431"/>
<text text-anchor="start" x="459.5" y="-440.2" font-family="Helvetica,sans-Serif" font-weight="bold" font-size="11.00">tww_od.sia405cc_cable</text>
<text text-anchor="start" x="627.5" y="-439.2" font-family="Helvetica,sans-Serif" font-size="11.00">[table]</text>
<polygon fill="none" stroke="black" points="454.5,-409 454.5,-431 669.5,-431 669.5,-409 454.5,-409"/>
<image xlink:href="../../images/foreignKeys.png" width="11px" height="12px" preserveAspectRatio="xMinYMin meet" x="459.5" y="-426"/>
<text text-anchor="start" x="482.5" y="-417.2" font-family="Helvetica,sans-Serif" font-size="11.00">function</text>
<polygon fill="none" stroke="black" points="454.5,-387 454.5,-409 669.5,-409 669.5,-387 454.5,-387"/>
<image xlink:href="../../images/foreignKeys.png" width="11px" height="12px" preserveAspectRatio="xMinYMin meet" x="459.5" y="-404"/>
<text text-anchor="start" x="482.5" y="-395.2" font-family="Helvetica,sans-Serif" font-size="11.00">cable_type</text>
<polygon fill="none" stroke="black" points="454.5,-365 454.5,-387 669.5,-387 669.5,-365 454.5,-365"/>
<image xlink:href="../../images/foreignKeys.png" width="11px" height="12px" preserveAspectRatio="xMinYMin meet" x="459.5" y="-382"/>
<text text-anchor="start" x="482.5" y="-373.2" font-family="Helvetica,sans-Serif" font-size="11.00">horizontal_positioning</text>
<polygon fill="none" stroke="black" points="454.5,-343 454.5,-365 669.5,-365 669.5,-343 454.5,-343"/>
<image xlink:href="../../images/foreignKeys.png" width="11px" height="12px" preserveAspectRatio="xMinYMin meet" x="459.5" y="-360"/>
<text text-anchor="start" x="482.5" y="-351.2" font-family="Helvetica,sans-Serif" font-size="11.00">status</text>
<polygon fill="none" stroke="black" points="454.5,-321 454.5,-343 669.5,-343 669.5,-321 454.5,-321"/>
<image xlink:href="../../images/foreignKeys.png" width="11px" height="12px" preserveAspectRatio="xMinYMin meet" x="459.5" y="-338"/>
<text text-anchor="start" x="482.5" y="-329.2" font-family="Helvetica,sans-Serif" font-size="11.00">elevation_determination</text>
<polygon fill="none" stroke="black" points="454.5,-303 454.5,-321 669.5,-321 669.5,-303 454.5,-303"/>
<text text-anchor="start" x="457.5" y="-309.2" font-family="Helvetica,sans-Serif" font-size="11.00">...</text>
<polygon fill="#ffffff" stroke="transparent" points="454.5,-285 454.5,-303 669.5,-303 669.5,-285 454.5,-285"/>
<polygon fill="none" stroke="black" points="454.5,-285 454.5,-303 669.5,-303 669.5,-285 454.5,-285"/>
<polygon fill="#ffffff" stroke="transparent" points="455.5,-286 455.5,-302 525.5,-302 525.5,-286 455.5,-286"/>
<text text-anchor="start" x="457.5" y="-291.2" font-family="Helvetica,sans-Serif" font-size="11.00">&lt; 5</text>
<polygon fill="#ffffff" stroke="transparent" points="525.5,-286 525.5,-302 611.5,-302 611.5,-286 525.5,-286"/>
<text text-anchor="start" x="550" y="-291.2" font-family="Helvetica,sans-Serif" font-size="11.00">0 rows</text>
<polygon fill="#ffffff" stroke="transparent" points="611.5,-286 611.5,-302 668.5,-302 668.5,-286 611.5,-286"/>
<text text-anchor="start" x="658.5" y="-291.2" font-family="Helvetica,sans-Serif" font-size="11.00"> &#160;</text>
<polygon fill="black" stroke="black" points="525.5,-286 525.5,-302 525.5,-302 525.5,-286 525.5,-286"/>
<polygon fill="black" stroke="black" points="611.5,-286 611.5,-302 611.5,-302 611.5,-286 611.5,-286"/>
</a>
</g>
</g>
<!-- sia405cc_cable_elevation_determination -->
<g id="node2" class="node">
<title>sia405cc_cable_elevation_determination</title>
<g id="a_node2"><a xlink:href="../../tables/sia405cc_cable_elevation_determination.html" xlink:title="sia405cc_cable_elevation_determination" target="_top">
<polygon fill="#ffffff" stroke="transparent" points="8,-37 8,-367 405,-367 405,-37 8,-37"/>
<polygon fill="#f5f5f5" stroke="transparent" points="10.5,-343 10.5,-365 403.5,-365 403.5,-343 10.5,-343"/>
<polygon fill="none" stroke="black" points="10.5,-343 10.5,-365 403.5,-365 403.5,-343 10.5,-343"/>
<text text-anchor="start" x="15.5" y="-352.2" font-family="Helvetica,sans-Serif" font-weight="bold" font-size="11.00">sia405cc_cable_elevation_determination</text>
<text text-anchor="start" x="361.5" y="-351.2" font-family="Helvetica,sans-Serif" font-size="11.00">[table]</text>
<polygon fill="none" stroke="black" points="10.5,-321 10.5,-343 325.5,-343 325.5,-321 10.5,-321"/>
<image xlink:href="../../images/primaryKeys.png" width="11px" height="12px" preserveAspectRatio="xMinYMin meet" x="15.5" y="-338"/>
<text text-anchor="start" x="30.5" y="-329.2" font-family="Helvetica,sans-Serif" font-size="11.00">code</text>
<polygon fill="none" stroke="black" points="325.5,-321 325.5,-343 403.5,-343 403.5,-321 325.5,-321"/>
<text text-anchor="start" x="328.5" y="-329.2" font-family="Helvetica,sans-Serif" font-size="11.00">int4[10]</text>
<polygon fill="none" stroke="black" points="10.5,-299 10.5,-321 325.5,-321 325.5,-299 10.5,-299"/>
<text text-anchor="start" x="30.5" y="-307.2" font-family="Helvetica,sans-Serif" font-size="11.00">vsacode</text>
<polygon fill="none" stroke="black" points="325.5,-299 325.5,-321 403.5,-321 403.5,-299 325.5,-299"/>
<text text-anchor="start" x="328.5" y="-307.2" font-family="Helvetica,sans-Serif" font-size="11.00">int4[10]</text>
<polygon fill="none" stroke="black" points="10.5,-277 10.5,-299 325.5,-299 325.5,-277 10.5,-277"/>
<text text-anchor="start" x="30.5" y="-285.2" font-family="Helvetica,sans-Serif" font-size="11.00">value_en</text>
<polygon fill="none" stroke="black" points="325.5,-277 325.5,-299 403.5,-299 403.5,-277 325.5,-277"/>
<text text-anchor="start" x="328.5" y="-285.2" font-family="Helvetica,sans-Serif" font-size="11.00">varchar[100]</text>
<polygon fill="none" stroke="black" points="10.5,-255 10.5,-277 325.5,-277 325.5,-255 10.5,-255"/>
<text text-anchor="start" x="30.5" y="-263.2" font-family="Helvetica,sans-Serif" font-size="11.00">value_de</text>
<polygon fill="none" stroke="black" points="325.5,-255 325.5,-277 403.5,-277 403.5,-255 325.5,-255"/>
<text text-anchor="start" x="328.5" y="-263.2" font-family="Helvetica,sans-Serif" font-size="11.00">varchar[100]</text>
<polygon fill="none" stroke="black" points="10.5,-233 10.5,-255 325.5,-255 325.5,-233 10.5,-233"/>
<text text-anchor="start" x="30.5" y="-241.2" font-family="Helvetica,sans-Serif" font-size="11.00">value_fr</text>
<polygon fill="none" stroke="black" points="325.5,-233 325.5,-255 403.5,-255 403.5,-233 325.5,-233"/>
<text text-anchor="start" x="328.5" y="-241.2" font-family="Helvetica,sans-Serif" font-size="11.00">varchar[100]</text>
<polygon fill="none" stroke="black" points="10.5,-211 10.5,-233 325.5,-233 325.5,-211 10.5,-211"/>
<text text-anchor="start" x="30.5" y="-219.2" font-family="Helvetica,sans-Serif" font-size="11.00">value_it</text>
<polygon fill="none" stroke="black" points="325.5,-211 325.5,-233 403.5,-233 403.5,-211 325.5,-211"/>
<text text-anchor="start" x="328.5" y="-219.2" font-family="Helvetica,sans-Serif" font-size="11.00">varchar[100]</text>
<polygon fill="none" stroke="black" points="10.5,-189 10.5,-211 325.5,-211 325.5,-189 10.5,-189"/>
<text text-anchor="start" x="30.5" y="-197.2" font-family="Helvetica,sans-Serif" font-size="11.00">value_ro</text>
<polygon fill="none" stroke="black" points="325.5,-189 325.5,-211 403.5,-211 403.5,-189 325.5,-189"/>
<text text-anchor="start" x="328.5" y="-197.2" font-family="Helvetica,sans-Serif" font-size="11.00">varchar[100]</text>
<polygon fill="none" stroke="black" points="10.5,-167 10.5,-189 325.5,-189 325.5,-167 10.5,-167"/>
<text text-anchor="start" x="30.5" y="-175.2" font-family="Helvetica,sans-Serif" font-size="11.00">abbr_en</text>
<polygon fill="none" stroke="black" points="325.5,-167 325.5,-189 403.5,-189 403.5,-167 325.5,-167"/>
<text text-anchor="start" x="328.5" y="-175.2" font-family="Helvetica,sans-Serif" font-size="11.00">varchar[3]</text>
<polygon fill="none" stroke="black" points="10.5,-145 10.5,-167 325.5,-167 325.5,-145 10.5,-145"/>
<text text-anchor="start" x="30.5" y="-153.2" font-family="Helvetica,sans-Serif" font-size="11.00">abbr_de</text>
<polygon fill="none" stroke="black" points="325.5,-145 325.5,-167 403.5,-167 403.5,-145 325.5,-145"/>
<text text-anchor="start" x="328.5" y="-153.2" font-family="Helvetica,sans-Serif" font-size="11.00">varchar[3]</text>
<polygon fill="none" stroke="black" points="10.5,-123 10.5,-145 325.5,-145 325.5,-123 10.5,-123"/>
<text text-anchor="start" x="30.5" y="-131.2" font-family="Helvetica,sans-Serif" font-size="11.00">abbr_fr</text>
<polygon fill="none" stroke="black" points="325.5,-123 325.5,-145 403.5,-145 403.5,-123 325.5,-123"/>
<text text-anchor="start" x="328.5" y="-131.2" font-family="Helvetica,sans-Serif" font-size="11.00">varchar[3]</text>
<polygon fill="none" stroke="black" points="10.5,-101 10.5,-123 325.5,-123 325.5,-101 10.5,-101"/>
<text text-anchor="start" x="30.5" y="-109.2" font-family="Helvetica,sans-Serif" font-size="11.00">abbr_it</text>
<polygon fill="none" stroke="black" points="325.5,-101 325.5,-123 403.5,-123 403.5,-101 325.5,-101"/>
<text text-anchor="start" x="328.5" y="-109.2" font-family="Helvetica,sans-Serif" font-size="11.00">varchar[3]</text>
<polygon fill="none" stroke="black" points="10.5,-79 10.5,-101 325.5,-101 325.5,-79 10.5,-79"/>
<text text-anchor="start" x="30.5" y="-87.2" font-family="Helvetica,sans-Serif" font-size="11.00">abbr_ro</text>
<polygon fill="none" stroke="black" points="325.5,-79 325.5,-101 403.5,-101 403.5,-79 325.5,-79"/>
<text text-anchor="start" x="328.5" y="-87.2" font-family="Helvetica,sans-Serif" font-size="11.00">varchar[3]</text>
<polygon fill="none" stroke="black" points="10.5,-57 10.5,-79 325.5,-79 325.5,-57 10.5,-57"/>
<text text-anchor="start" x="30.5" y="-65.2" font-family="Helvetica,sans-Serif" font-size="11.00">active</text>
<polygon fill="none" stroke="black" points="325.5,-57 325.5,-79 403.5,-79 403.5,-57 325.5,-57"/>
<text text-anchor="start" x="328.5" y="-65.2" font-family="Helvetica,sans-Serif" font-size="11.00">bool[1]</text>
<polygon fill="#ffffff" stroke="transparent" points="10.5,-39 10.5,-57 403.5,-57 403.5,-39 10.5,-39"/>
<polygon fill="none" stroke="black" points="10.5,-39 10.5,-57 403.5,-57 403.5,-39 10.5,-39"/>
<polygon fill="#ffffff" stroke="transparent" points="11.5,-40 11.5,-56 146.5,-56 146.5,-40 11.5,-40"/>
<text text-anchor="start" x="13.5" y="-45.2" font-family="Helvetica,sans-Serif" font-size="11.00">&lt; 0</text>
<polygon fill="#ffffff" stroke="transparent" points="146.5,-40 146.5,-56 268.5,-56 268.5,-40 146.5,-40"/>
<text text-anchor="start" x="203.5" y="-45.2" font-family="Helvetica,sans-Serif" font-size="11.00"> &#160;</text>
<polygon fill="#ffffff" stroke="transparent" points="268.5,-40 268.5,-56 402.5,-56 402.5,-40 268.5,-40"/>
<text text-anchor="start" x="380.5" y="-45.2" font-family="Helvetica,sans-Serif" font-size="11.00">1 &gt;</text>
<polygon fill="black" stroke="black" points="146.5,-40 146.5,-56 146.5,-56 146.5,-40 146.5,-40"/>
<polygon fill="black" stroke="black" points="268.5,-40 268.5,-56 268.5,-56 268.5,-40 268.5,-40"/>
<polygon fill="none" stroke="black" stroke-width="2" points="9,-38 9,-366 404,-366 404,-38 9,-38"/>
</a>
</g>
</g>
<!-- tww_od.sia405cc_cable&#45;&gt;sia405cc_cable_elevation_determination -->
<g id="edge1" class="edge">
<title>tww_od.sia405cc_cable:w&#45;&gt;sia405cc_cable_elevation_determination:e</title>
<path fill="none" stroke="black" d="M438.99,-332C427.68,-332 420.49,-332 404.5,-332"/>
<polygon fill="black" stroke="black" points="445.5,-332 453.5,-335.6 449.5,-332 453.5,-332 453.5,-332 453.5,-332 449.5,-332 453.5,-328.4 445.5,-332 445.5,-332"/>
<ellipse fill="none" stroke="black" cx="442.3" cy="-332" rx="3.2" ry="3.2"/>
</g>
</g>
</svg>
