<?xml version="1.0" encoding="UTF-8" standalone="no"?>
<!DOCTYPE svg PUBLIC "-//W3C//DTD SVG 1.1//EN"
 "http://www.w3.org/Graphics/SVG/1.1/DTD/svg11.dtd">
<!-- Generated by graphviz version 2.43.0 (0)
 -->
<!-- Title: oneDegreeRelationshipsDiagram Pages: 1 -->
<svg width="642pt" height="443pt"
 viewBox="0.00 0.00 642.00 443.00" xmlns="http://www.w3.org/2000/svg" xmlns:xlink="http://www.w3.org/1999/xlink">
<g id="graph0" class="graph" transform="scale(1 1) rotate(0) translate(4 439)">
<title>oneDegreeRelationshipsDiagram</title>
<polygon fill="#ffffff" stroke="transparent" points="-4,4 -4,-439 638,-439 638,4 -4,4"/>
<text text-anchor="middle" x="79.5" y="-7.2" font-family="Helvetica,sans-Serif" font-size="11.00">Generated by SchemaSpy</text>
<!-- tww_od.sia405cc_cable_point -->
<g id="node1" class="node">
<title>tww_od.sia405cc_cable_point</title>
<g id="a_node1"><a xlink:href="../../../tww_od/tables/sia405cc_cable_point.html" xlink:title="tww_od.sia405cc_cable_point" target="_top">
<polygon fill="#ffffff" stroke="transparent" points="366,-285 366,-431 626,-431 626,-285 366,-285"/>
<polygon fill="#f5f5f5" stroke="transparent" points="366,-409 366,-431 626,-431 626,-409 366,-409"/>
<polygon fill="none" stroke="black" points="366,-409 366,-431 626,-431 626,-409 366,-409"/>
<text text-anchor="start" x="371" y="-418.2" font-family="Helvetica,sans-Serif" font-weight="bold" font-size="11.00">tww_od.sia405cc_cable_point</text>
<text text-anchor="start" x="584" y="-417.2" font-family="Helvetica,sans-Serif" font-size="11.00">[table]</text>
<polygon fill="none" stroke="black" points="366,-387 366,-409 626,-409 626,-387 366,-387"/>
<image xlink:href="../../images/foreignKeys.png" width="11px" height="12px" preserveAspectRatio="xMinYMin meet" x="371" y="-404"/>
<text text-anchor="start" x="416" y="-395.2" font-family="Helvetica,sans-Serif" font-size="11.00">kind</text>
<polygon fill="none" stroke="black" points="366,-365 366,-387 626,-387 626,-365 366,-365"/>
<image xlink:href="../../images/foreignKeys.png" width="11px" height="12px" preserveAspectRatio="xMinYMin meet" x="371" y="-382"/>
<text text-anchor="start" x="416" y="-373.2" font-family="Helvetica,sans-Serif" font-size="11.00">horizontal_positioning</text>
<polygon fill="none" stroke="black" points="366,-343 366,-365 626,-365 626,-343 366,-343"/>
<image xlink:href="../../images/foreignKeys.png" width="11px" height="12px" preserveAspectRatio="xMinYMin meet" x="371" y="-360"/>
<text text-anchor="start" x="416" y="-351.2" font-family="Helvetica,sans-Serif" font-size="11.00">elevation_determination</text>
<polygon fill="none" stroke="black" points="366,-321 366,-343 626,-343 626,-321 366,-321"/>
<image xlink:href="../../images/foreignKeys.png" width="11px" height="12px" preserveAspectRatio="xMinYMin meet" x="371" y="-338"/>
<text text-anchor="start" x="416" y="-329.2" font-family="Helvetica,sans-Serif" font-size="11.00">status</text>
<polygon fill="none" stroke="black" points="366,-303 366,-321 626,-321 626,-303 366,-303"/>
<text text-anchor="start" x="369" y="-309.2" font-family="Helvetica,sans-Serif" font-size="11.00">...</text>
<polygon fill="#ffffff" stroke="transparent" points="366,-285 366,-303 626,-303 626,-285 366,-285"/>
<polygon fill="none" stroke="black" points="366,-285 366,-303 626,-303 626,-285 366,-285"/>
<polygon fill="#ffffff" stroke="transparent" points="367,-286 367,-302 452,-302 452,-286 367,-286"/>
<text text-anchor="start" x="369" y="-291.2" font-family="Helvetica,sans-Serif" font-size="11.00">&lt; 4</text>
<polygon fill="#ffffff" stroke="transparent" points="452,-286 452,-302 553,-302 553,-286 452,-286"/>
<text text-anchor="start" x="484" y="-291.2" font-family="Helvetica,sans-Serif" font-size="11.00">0 rows</text>
<polygon fill="#ffffff" stroke="transparent" points="553,-286 553,-302 625,-302 625,-286 553,-286"/>
<text text-anchor="start" x="615" y="-291.2" font-family="Helvetica,sans-Serif" font-size="11.00"> &#160;</text>
<polygon fill="black" stroke="black" points="452,-286 452,-302 452,-302 452,-286 452,-286"/>
<polygon fill="black" stroke="black" points="553,-286 553,-302 553,-302 553,-286 553,-286"/>
</a>
</g>
</g>
<!-- sia405cc_cable_point_status -->
<g id="node2" class="node">
<title>sia405cc_cable_point_status</title>
<g id="a_node2"><a xlink:href="../../tables/sia405cc_cable_point_status.html" xlink:title="sia405cc_cable_point_status" target="_top">
<polygon fill="#ffffff" stroke="transparent" points="8,-37 8,-367 317,-367 317,-37 8,-37"/>
<polygon fill="#f5f5f5" stroke="transparent" points="10.5,-343 10.5,-365 315.5,-365 315.5,-343 10.5,-343"/>
<polygon fill="none" stroke="black" points="10.5,-343 10.5,-365 315.5,-365 315.5,-343 10.5,-343"/>
<text text-anchor="start" x="15.5" y="-352.2" font-family="Helvetica,sans-Serif" font-weight="bold" font-size="11.00">sia405cc_cable_point_status</text>
<text text-anchor="start" x="273.5" y="-351.2" font-family="Helvetica,sans-Serif" font-size="11.00">[table]</text>
<polygon fill="none" stroke="black" points="10.5,-321 10.5,-343 237.5,-343 237.5,-321 10.5,-321"/>
<image xlink:href="../../images/primaryKeys.png" width="11px" height="12px" preserveAspectRatio="xMinYMin meet" x="15.5" y="-338"/>
<text text-anchor="start" x="30.5" y="-329.2" font-family="Helvetica,sans-Serif" font-size="11.00">code</text>
<polygon fill="none" stroke="black" points="237.5,-321 237.5,-343 315.5,-343 315.5,-321 237.5,-321"/>
<text text-anchor="start" x="240.5" y="-329.2" font-family="Helvetica,sans-Serif" font-size="11.00">int4[10]</text>
<polygon fill="none" stroke="black" points="10.5,-299 10.5,-321 237.5,-321 237.5,-299 10.5,-299"/>
<text text-anchor="start" x="30.5" y="-307.2" font-family="Helvetica,sans-Serif" font-size="11.00">vsacode</text>
<polygon fill="none" stroke="black" points="237.5,-299 237.5,-321 315.5,-321 315.5,-299 237.5,-299"/>
<text text-anchor="start" x="240.5" y="-307.2" font-family="Helvetica,sans-Serif" font-size="11.00">int4[10]</text>
<polygon fill="none" stroke="black" points="10.5,-277 10.5,-299 237.5,-299 237.5,-277 10.5,-277"/>
<text text-anchor="start" x="30.5" y="-285.2" font-family="Helvetica,sans-Serif" font-size="11.00">value_en</text>
<polygon fill="none" stroke="black" points="237.5,-277 237.5,-299 315.5,-299 315.5,-277 237.5,-277"/>
<text text-anchor="start" x="240.5" y="-285.2" font-family="Helvetica,sans-Serif" font-size="11.00">varchar[100]</text>
<polygon fill="none" stroke="black" points="10.5,-255 10.5,-277 237.5,-277 237.5,-255 10.5,-255"/>
<text text-anchor="start" x="30.5" y="-263.2" font-family="Helvetica,sans-Serif" font-size="11.00">value_de</text>
<polygon fill="none" stroke="black" points="237.5,-255 237.5,-277 315.5,-277 315.5,-255 237.5,-255"/>
<text text-anchor="start" x="240.5" y="-263.2" font-family="Helvetica,sans-Serif" font-size="11.00">varchar[100]</text>
<polygon fill="none" stroke="black" points="10.5,-233 10.5,-255 237.5,-255 237.5,-233 10.5,-233"/>
<text text-anchor="start" x="30.5" y="-241.2" font-family="Helvetica,sans-Serif" font-size="11.00">value_fr</text>
<polygon fill="none" stroke="black" points="237.5,-233 237.5,-255 315.5,-255 315.5,-233 237.5,-233"/>
<text text-anchor="start" x="240.5" y="-241.2" font-family="Helvetica,sans-Serif" font-size="11.00">varchar[100]</text>
<polygon fill="none" stroke="black" points="10.5,-211 10.5,-233 237.5,-233 237.5,-211 10.5,-211"/>
<text text-anchor="start" x="30.5" y="-219.2" font-family="Helvetica,sans-Serif" font-size="11.00">value_it</text>
<polygon fill="none" stroke="black" points="237.5,-211 237.5,-233 315.5,-233 315.5,-211 237.5,-211"/>
<text text-anchor="start" x="240.5" y="-219.2" font-family="Helvetica,sans-Serif" font-size="11.00">varchar[100]</text>
<polygon fill="none" stroke="black" points="10.5,-189 10.5,-211 237.5,-211 237.5,-189 10.5,-189"/>
<text text-anchor="start" x="30.5" y="-197.2" font-family="Helvetica,sans-Serif" font-size="11.00">value_ro</text>
<polygon fill="none" stroke="black" points="237.5,-189 237.5,-211 315.5,-211 315.5,-189 237.5,-189"/>
<text text-anchor="start" x="240.5" y="-197.2" font-family="Helvetica,sans-Serif" font-size="11.00">varchar[100]</text>
<polygon fill="none" stroke="black" points="10.5,-167 10.5,-189 237.5,-189 237.5,-167 10.5,-167"/>
<text text-anchor="start" x="30.5" y="-175.2" font-family="Helvetica,sans-Serif" font-size="11.00">abbr_en</text>
<polygon fill="none" stroke="black" points="237.5,-167 237.5,-189 315.5,-189 315.5,-167 237.5,-167"/>
<text text-anchor="start" x="240.5" y="-175.2" font-family="Helvetica,sans-Serif" font-size="11.00">varchar[3]</text>
<polygon fill="none" stroke="black" points="10.5,-145 10.5,-167 237.5,-167 237.5,-145 10.5,-145"/>
<text text-anchor="start" x="30.5" y="-153.2" font-family="Helvetica,sans-Serif" font-size="11.00">abbr_de</text>
<polygon fill="none" stroke="black" points="237.5,-145 237.5,-167 315.5,-167 315.5,-145 237.5,-145"/>
<text text-anchor="start" x="240.5" y="-153.2" font-family="Helvetica,sans-Serif" font-size="11.00">varchar[3]</text>
<polygon fill="none" stroke="black" points="10.5,-123 10.5,-145 237.5,-145 237.5,-123 10.5,-123"/>
<text text-anchor="start" x="30.5" y="-131.2" font-family="Helvetica,sans-Serif" font-size="11.00">abbr_fr</text>
<polygon fill="none" stroke="black" points="237.5,-123 237.5,-145 315.5,-145 315.5,-123 237.5,-123"/>
<text text-anchor="start" x="240.5" y="-131.2" font-family="Helvetica,sans-Serif" font-size="11.00">varchar[3]</text>
<polygon fill="none" stroke="black" points="10.5,-101 10.5,-123 237.5,-123 237.5,-101 10.5,-101"/>
<text text-anchor="start" x="30.5" y="-109.2" font-family="Helvetica,sans-Serif" font-size="11.00">abbr_it</text>
<polygon fill="none" stroke="black" points="237.5,-101 237.5,-123 315.5,-123 315.5,-101 237.5,-101"/>
<text text-anchor="start" x="240.5" y="-109.2" font-family="Helvetica,sans-Serif" font-size="11.00">varchar[3]</text>
<polygon fill="none" stroke="black" points="10.5,-79 10.5,-101 237.5,-101 237.5,-79 10.5,-79"/>
<text text-anchor="start" x="30.5" y="-87.2" font-family="Helvetica,sans-Serif" font-size="11.00">abbr_ro</text>
<polygon fill="none" stroke="black" points="237.5,-79 237.5,-101 315.5,-101 315.5,-79 237.5,-79"/>
<text text-anchor="start" x="240.5" y="-87.2" font-family="Helvetica,sans-Serif" font-size="11.00">varchar[3]</text>
<polygon fill="none" stroke="black" points="10.5,-57 10.5,-79 237.5,-79 237.5,-57 10.5,-57"/>
<text text-anchor="start" x="30.5" y="-65.2" font-family="Helvetica,sans-Serif" font-size="11.00">active</text>
<polygon fill="none" stroke="black" points="237.5,-57 237.5,-79 315.5,-79 315.5,-57 237.5,-57"/>
<text text-anchor="start" x="240.5" y="-65.2" font-family="Helvetica,sans-Serif" font-size="11.00">bool[1]</text>
<polygon fill="#ffffff" stroke="transparent" points="10.5,-39 10.5,-57 315.5,-57 315.5,-39 10.5,-39"/>
<polygon fill="none" stroke="black" points="10.5,-39 10.5,-57 315.5,-57 315.5,-39 10.5,-39"/>
<polygon fill="#ffffff" stroke="transparent" points="11.5,-40 11.5,-56 116.5,-56 116.5,-40 11.5,-40"/>
<text text-anchor="start" x="13.5" y="-45.2" font-family="Helvetica,sans-Serif" font-size="11.00">&lt; 0</text>
<polygon fill="#ffffff" stroke="transparent" points="116.5,-40 116.5,-56 209.5,-56 209.5,-40 116.5,-40"/>
<text text-anchor="start" x="159" y="-45.2" font-family="Helvetica,sans-Serif" font-size="11.00"> &#160;</text>
<polygon fill="#ffffff" stroke="transparent" points="209.5,-40 209.5,-56 314.5,-56 314.5,-40 209.5,-40"/>
<text text-anchor="start" x="292.5" y="-45.2" font-family="Helvetica,sans-Serif" font-size="11.00">1 &gt;</text>
<polygon fill="black" stroke="black" points="116.5,-40 116.5,-56 116.5,-56 116.5,-40 116.5,-40"/>
<polygon fill="black" stroke="black" points="209.5,-40 209.5,-56 209.5,-56 209.5,-40 209.5,-40"/>
<polygon fill="none" stroke="black" stroke-width="2" points="9,-38 9,-366 316,-366 316,-38 9,-38"/>
</a>
</g>
</g>
<!-- tww_od.sia405cc_cable_point&#45;&gt;sia405cc_cable_point_status -->
<g id="edge1" class="edge">
<title>tww_od.sia405cc_cable_point:w&#45;&gt;sia405cc_cable_point_status:e</title>
<path fill="none" stroke="black" d="M350.28,-332C339.29,-332 332.16,-332 316.5,-332"/>
<polygon fill="black" stroke="black" points="357,-332 365,-335.6 361,-332 365,-332 365,-332 365,-332 361,-332 365,-328.4 357,-332 357,-332"/>
<ellipse fill="none" stroke="black" cx="353.8" cy="-332" rx="3.2" ry="3.2"/>
</g>
</g>
</svg>
