<?xml version="1.0" encoding="UTF-8" standalone="no"?>
<!DOCTYPE svg PUBLIC "-//W3C//DTD SVG 1.1//EN"
 "http://www.w3.org/Graphics/SVG/1.1/DTD/svg11.dtd">
<!-- Generated by graphviz version 2.47.1 (20210515.0534)
 -->
<!-- Title: oneDegreeRelationshipsDiagram Pages: 1 -->
<svg width="575pt" height="379pt"
 viewBox="0.00 0.00 575.00 379.00" xmlns="http://www.w3.org/2000/svg" xmlns:xlink="http://www.w3.org/1999/xlink">
<g id="graph0" class="graph" transform="scale(1 1) rotate(0) translate(4 375)">
<title>oneDegreeRelationshipsDiagram</title>
<polygon fill="#ffffff" stroke="transparent" points="-4,4 -4,-375 571,-375 571,4 -4,4"/>
<text text-anchor="middle" x="73.5" y="-7.2" font-family="Helvetica,sans-Serif" font-size="11.00">Generated by SchemaSpy</text>
<!-- tww_od.special_structure -->
<g id="node1" class="node">
<title>tww_od.special_structure</title>
<g id="a_node1"><a xlink:href="../../../tww_od/tables/special_structure.html" xlink:title="tww_od.special_structure" target="_top">
<polygon fill="#ffffff" stroke="transparent" points="351,-175 351,-365 559,-365 559,-175 351,-175"/>
<polygon fill="#f5f5f5" stroke="transparent" points="351,-343 351,-365 559,-365 559,-343 351,-343"/>
<polygon fill="none" stroke="black" points="351,-343 351,-365 559,-365 559,-343 351,-343"/>
<text text-anchor="start" x="356" y="-352.2" font-family="Helvetica,sans-Serif" font-weight="bold" font-size="11.00">tww_od.special_structure</text>
<text text-anchor="start" x="520" y="-351.2" font-family="Helvetica,sans-Serif" font-size="11.00">[table]</text>
<polygon fill="none" stroke="black" points="351,-321 351,-343 559,-343 559,-321 351,-321"/>
<image xlink:href="../../images/foreignKeys.png" width="11px" height="12px" preserveAspectRatio="xMinYMin meet" x="356" y="-338"/>
<text text-anchor="start" x="371" y="-329.2" font-family="Helvetica,sans-Serif" font-size="11.00">amphibian_exit</text>
<polygon fill="none" stroke="black" points="351,-299 351,-321 559,-321 559,-299 351,-299"/>
<image xlink:href="../../images/foreignKeys.png" width="11px" height="12px" preserveAspectRatio="xMinYMin meet" x="356" y="-316"/>
<text text-anchor="start" x="371" y="-307.2" font-family="Helvetica,sans-Serif" font-size="11.00">bypass</text>
<polygon fill="none" stroke="black" points="351,-277 351,-299 559,-299 559,-277 351,-277"/>
<image xlink:href="../../images/foreignKeys.png" width="11px" height="12px" preserveAspectRatio="xMinYMin meet" x="356" y="-294"/>
<text text-anchor="start" x="371" y="-285.2" font-family="Helvetica,sans-Serif" font-size="11.00">emergency_overflow</text>
<polygon fill="none" stroke="black" points="351,-255 351,-277 559,-277 559,-255 351,-255"/>
<image xlink:href="../../images/foreignKeys.png" width="11px" height="12px" preserveAspectRatio="xMinYMin meet" x="356" y="-272"/>
<text text-anchor="start" x="371" y="-263.2" font-family="Helvetica,sans-Serif" font-size="11.00">function</text>
<polygon fill="none" stroke="black" points="351,-233 351,-255 559,-255 559,-233 351,-233"/>
<image xlink:href="../../images/foreignKeys.png" width="11px" height="12px" preserveAspectRatio="xMinYMin meet" x="356" y="-250"/>
<text text-anchor="start" x="371" y="-241.2" font-family="Helvetica,sans-Serif" font-size="11.00">possibility_intervention</text>
<polygon fill="none" stroke="black" points="351,-211 351,-233 559,-233 559,-211 351,-211"/>
<image xlink:href="../../images/foreignKeys.png" width="11px" height="12px" preserveAspectRatio="xMinYMin meet" x="356" y="-228"/>
<text text-anchor="start" x="371" y="-219.2" font-family="Helvetica,sans-Serif" font-size="11.00">stormwater_tank_arrangement</text>
<polygon fill="none" stroke="black" points="351,-193 351,-211 559,-211 559,-193 351,-193"/>
<text text-anchor="start" x="354" y="-199.2" font-family="Helvetica,sans-Serif" font-size="11.00">...</text>
<polygon fill="#ffffff" stroke="transparent" points="351,-175 351,-193 439,-193 439,-175 351,-175"/>
<polygon fill="none" stroke="black" points="351,-175 351,-193 439,-193 439,-175 351,-175"/>
<text text-anchor="start" x="354" y="-181.2" font-family="Helvetica,sans-Serif" font-size="11.00">&lt; 6</text>
<polygon fill="#ffffff" stroke="transparent" points="439,-175 439,-193 512,-193 512,-175 439,-175"/>
<polygon fill="none" stroke="black" points="439,-175 439,-193 512,-193 512,-175 439,-175"/>
<text text-anchor="start" x="475" y="-181.2" font-family="Helvetica,sans-Serif" font-size="11.00">0 rows</text>
<polygon fill="#ffffff" stroke="transparent" points="512,-175 512,-193 559,-193 559,-175 512,-175"/>
<polygon fill="none" stroke="black" points="512,-175 512,-193 559,-193 559,-175 512,-175"/>
<text text-anchor="start" x="549" y="-181.2" font-family="Helvetica,sans-Serif" font-size="11.00"> &#160;</text>
</a>
</g>
</g>
<!-- special_structure_amphibian_exit -->
<g id="node2" class="node">
<title>special_structure_amphibian_exit</title>
<g id="a_node2"><a xlink:href="../../tables/special_structure_amphibian_exit.html" xlink:title="special_structure_amphibian_exit" target="_top">
<polygon fill="#ffffff" stroke="transparent" points="8,-37 8,-367 302,-367 302,-37 8,-37"/>
<polygon fill="#f5f5f5" stroke="transparent" points="10,-343 10,-365 300,-365 300,-343 10,-343"/>
<polygon fill="none" stroke="black" points="10,-343 10,-365 300,-365 300,-343 10,-343"/>
<text text-anchor="start" x="15" y="-352.2" font-family="Helvetica,sans-Serif" font-weight="bold" font-size="11.00">special_structure_amphibian_exit</text>
<text text-anchor="start" x="261" y="-351.2" font-family="Helvetica,sans-Serif" font-size="11.00">[table]</text>
<polygon fill="none" stroke="black" points="10,-321 10,-343 230,-343 230,-321 10,-321"/>
<image xlink:href="../../images/primaryKeys.png" width="11px" height="12px" preserveAspectRatio="xMinYMin meet" x="15" y="-338"/>
<text text-anchor="start" x="30" y="-329.2" font-family="Helvetica,sans-Serif" font-size="11.00">code</text>
<polygon fill="none" stroke="black" points="230,-321 230,-343 300,-343 300,-321 230,-321"/>
<text text-anchor="start" x="233" y="-329.2" font-family="Helvetica,sans-Serif" font-size="11.00">int4[10]</text>
<polygon fill="none" stroke="black" points="10,-299 10,-321 230,-321 230,-299 10,-299"/>
<text text-anchor="start" x="30" y="-307.2" font-family="Helvetica,sans-Serif" font-size="11.00">vsacode</text>
<polygon fill="none" stroke="black" points="230,-299 230,-321 300,-321 300,-299 230,-299"/>
<text text-anchor="start" x="233" y="-307.2" font-family="Helvetica,sans-Serif" font-size="11.00">int4[10]</text>
<polygon fill="none" stroke="black" points="10,-277 10,-299 230,-299 230,-277 10,-277"/>
<text text-anchor="start" x="30" y="-285.2" font-family="Helvetica,sans-Serif" font-size="11.00">value_en</text>
<polygon fill="none" stroke="black" points="230,-277 230,-299 300,-299 300,-277 230,-277"/>
<text text-anchor="start" x="233" y="-285.2" font-family="Helvetica,sans-Serif" font-size="11.00">varchar[100]</text>
<polygon fill="none" stroke="black" points="10,-255 10,-277 230,-277 230,-255 10,-255"/>
<text text-anchor="start" x="30" y="-263.2" font-family="Helvetica,sans-Serif" font-size="11.00">value_de</text>
<polygon fill="none" stroke="black" points="230,-255 230,-277 300,-277 300,-255 230,-255"/>
<text text-anchor="start" x="233" y="-263.2" font-family="Helvetica,sans-Serif" font-size="11.00">varchar[100]</text>
<polygon fill="none" stroke="black" points="10,-233 10,-255 230,-255 230,-233 10,-233"/>
<text text-anchor="start" x="30" y="-241.2" font-family="Helvetica,sans-Serif" font-size="11.00">value_fr</text>
<polygon fill="none" stroke="black" points="230,-233 230,-255 300,-255 300,-233 230,-233"/>
<text text-anchor="start" x="233" y="-241.2" font-family="Helvetica,sans-Serif" font-size="11.00">varchar[100]</text>
<polygon fill="none" stroke="black" points="10,-211 10,-233 230,-233 230,-211 10,-211"/>
<text text-anchor="start" x="30" y="-219.2" font-family="Helvetica,sans-Serif" font-size="11.00">value_it</text>
<polygon fill="none" stroke="black" points="230,-211 230,-233 300,-233 300,-211 230,-211"/>
<text text-anchor="start" x="233" y="-219.2" font-family="Helvetica,sans-Serif" font-size="11.00">varchar[100]</text>
<polygon fill="none" stroke="black" points="10,-189 10,-211 230,-211 230,-189 10,-189"/>
<text text-anchor="start" x="30" y="-197.2" font-family="Helvetica,sans-Serif" font-size="11.00">value_ro</text>
<polygon fill="none" stroke="black" points="230,-189 230,-211 300,-211 300,-189 230,-189"/>
<text text-anchor="start" x="233" y="-197.2" font-family="Helvetica,sans-Serif" font-size="11.00">varchar[100]</text>
<polygon fill="none" stroke="black" points="10,-167 10,-189 230,-189 230,-167 10,-167"/>
<text text-anchor="start" x="30" y="-175.2" font-family="Helvetica,sans-Serif" font-size="11.00">abbr_en</text>
<polygon fill="none" stroke="black" points="230,-167 230,-189 300,-189 300,-167 230,-167"/>
<text text-anchor="start" x="233" y="-175.2" font-family="Helvetica,sans-Serif" font-size="11.00">varchar[3]</text>
<polygon fill="none" stroke="black" points="10,-145 10,-167 230,-167 230,-145 10,-145"/>
<text text-anchor="start" x="30" y="-153.2" font-family="Helvetica,sans-Serif" font-size="11.00">abbr_de</text>
<polygon fill="none" stroke="black" points="230,-145 230,-167 300,-167 300,-145 230,-145"/>
<text text-anchor="start" x="233" y="-153.2" font-family="Helvetica,sans-Serif" font-size="11.00">varchar[3]</text>
<polygon fill="none" stroke="black" points="10,-123 10,-145 230,-145 230,-123 10,-123"/>
<text text-anchor="start" x="30" y="-131.2" font-family="Helvetica,sans-Serif" font-size="11.00">abbr_fr</text>
<polygon fill="none" stroke="black" points="230,-123 230,-145 300,-145 300,-123 230,-123"/>
<text text-anchor="start" x="233" y="-131.2" font-family="Helvetica,sans-Serif" font-size="11.00">varchar[3]</text>
<polygon fill="none" stroke="black" points="10,-101 10,-123 230,-123 230,-101 10,-101"/>
<text text-anchor="start" x="30" y="-109.2" font-family="Helvetica,sans-Serif" font-size="11.00">abbr_it</text>
<polygon fill="none" stroke="black" points="230,-101 230,-123 300,-123 300,-101 230,-101"/>
<text text-anchor="start" x="233" y="-109.2" font-family="Helvetica,sans-Serif" font-size="11.00">varchar[3]</text>
<polygon fill="none" stroke="black" points="10,-79 10,-101 230,-101 230,-79 10,-79"/>
<text text-anchor="start" x="30" y="-87.2" font-family="Helvetica,sans-Serif" font-size="11.00">abbr_ro</text>
<polygon fill="none" stroke="black" points="230,-79 230,-101 300,-101 300,-79 230,-79"/>
<text text-anchor="start" x="233" y="-87.2" font-family="Helvetica,sans-Serif" font-size="11.00">varchar[3]</text>
<polygon fill="none" stroke="black" points="10,-57 10,-79 230,-79 230,-57 10,-57"/>
<text text-anchor="start" x="30" y="-65.2" font-family="Helvetica,sans-Serif" font-size="11.00">active</text>
<polygon fill="none" stroke="black" points="230,-57 230,-79 300,-79 300,-57 230,-57"/>
<text text-anchor="start" x="233" y="-65.2" font-family="Helvetica,sans-Serif" font-size="11.00">bool[1]</text>
<polygon fill="#ffffff" stroke="transparent" points="10,-39 10,-57 124,-57 124,-39 10,-39"/>
<polygon fill="none" stroke="black" points="10,-39 10,-57 124,-57 124,-39 10,-39"/>
<text text-anchor="start" x="13" y="-45.2" font-family="Helvetica,sans-Serif" font-size="11.00">&lt; 0</text>
<polygon fill="#ffffff" stroke="transparent" points="124,-39 124,-57 230,-57 230,-39 124,-39"/>
<polygon fill="none" stroke="black" points="124,-39 124,-57 230,-57 230,-39 124,-39"/>
<text text-anchor="start" x="220" y="-45.2" font-family="Helvetica,sans-Serif" font-size="11.00"> &#160;</text>
<polygon fill="#ffffff" stroke="transparent" points="230,-39 230,-57 300,-57 300,-39 230,-39"/>
<polygon fill="none" stroke="black" points="230,-39 230,-57 300,-57 300,-39 230,-39"/>
<text text-anchor="start" x="281" y="-45.2" font-family="Helvetica,sans-Serif" font-size="11.00">1 &gt;</text>
<polygon fill="none" stroke="black" stroke-width="2" points="9,-38 9,-366 301,-366 301,-38 9,-38"/>
</a>
</g>
</g>
<!-- tww_od.special_structure&#45;&gt;special_structure_amphibian_exit -->
<g id="edge1" class="edge">
<title>tww_od.special_structure:w&#45;&gt;special_structure_amphibian_exit:e</title>
<path fill="none" stroke="black" d="M335.49,-332C324.18,-332 316.99,-332 301,-332"/>
<polygon fill="black" stroke="black" points="342,-332 350,-335.6 346,-332 350,-332 350,-332 350,-332 346,-332 350,-328.4 342,-332 342,-332"/>
<ellipse fill="none" stroke="black" cx="338.8" cy="-332" rx="3.2" ry="3.2"/>
</g>
</g>
</svg>
