<?xml version="1.0" encoding="UTF-8" standalone="no"?>
<!DOCTYPE svg PUBLIC "-//W3C//DTD SVG 1.1//EN"
 "http://www.w3.org/Graphics/SVG/1.1/DTD/svg11.dtd">
<!-- Generated by graphviz version 2.47.1 (20210515.0534)
 -->
<!-- Title: oneDegreeRelationshipsDiagram Pages: 1 -->
<svg width="671pt" height="487pt"
 viewBox="0.00 0.00 671.00 487.00" xmlns="http://www.w3.org/2000/svg" xmlns:xlink="http://www.w3.org/1999/xlink">
<g id="graph0" class="graph" transform="scale(1 1) rotate(0) translate(4 483)">
<title>oneDegreeRelationshipsDiagram</title>
<polygon fill="#ffffff" stroke="transparent" points="-4,4 -4,-483 667,-483 667,4 -4,4"/>
<text text-anchor="middle" x="73.5" y="-7.2" font-family="Helvetica,sans-Serif" font-size="11.00">Generated by SchemaSpy</text>
<!-- tww_od.special_structure -->
<g id="node1" class="node">
<title>tww_od.special_structure</title>
<g id="a_node1"><a xlink:href="../../../tww_od/tables/special_structure.html" xlink:title="tww_od.special_structure" target="_top">
<polygon fill="#ffffff" stroke="transparent" points="447,-285 447,-475 655,-475 655,-285 447,-285"/>
<polygon fill="#f5f5f5" stroke="transparent" points="447,-453 447,-475 655,-475 655,-453 447,-453"/>
<polygon fill="none" stroke="black" points="447,-453 447,-475 655,-475 655,-453 447,-453"/>
<text text-anchor="start" x="452" y="-462.2" font-family="Helvetica,sans-Serif" font-weight="bold" font-size="11.00">tww_od.special_structure</text>
<text text-anchor="start" x="616" y="-461.2" font-family="Helvetica,sans-Serif" font-size="11.00">[table]</text>
<polygon fill="none" stroke="black" points="447,-431 447,-453 655,-453 655,-431 447,-431"/>
<image xlink:href="../../images/foreignKeys.png" width="11px" height="12px" preserveAspectRatio="xMinYMin meet" x="452" y="-448"/>
<text text-anchor="start" x="467" y="-439.2" font-family="Helvetica,sans-Serif" font-size="11.00">amphibian_exit</text>
<polygon fill="none" stroke="black" points="447,-409 447,-431 655,-431 655,-409 447,-409"/>
<image xlink:href="../../images/foreignKeys.png" width="11px" height="12px" preserveAspectRatio="xMinYMin meet" x="452" y="-426"/>
<text text-anchor="start" x="467" y="-417.2" font-family="Helvetica,sans-Serif" font-size="11.00">bypass</text>
<polygon fill="none" stroke="black" points="447,-387 447,-409 655,-409 655,-387 447,-387"/>
<image xlink:href="../../images/foreignKeys.png" width="11px" height="12px" preserveAspectRatio="xMinYMin meet" x="452" y="-404"/>
<text text-anchor="start" x="467" y="-395.2" font-family="Helvetica,sans-Serif" font-size="11.00">emergency_overflow</text>
<polygon fill="none" stroke="black" points="447,-365 447,-387 655,-387 655,-365 447,-365"/>
<image xlink:href="../../images/foreignKeys.png" width="11px" height="12px" preserveAspectRatio="xMinYMin meet" x="452" y="-382"/>
<text text-anchor="start" x="467" y="-373.2" font-family="Helvetica,sans-Serif" font-size="11.00">function</text>
<polygon fill="none" stroke="black" points="447,-343 447,-365 655,-365 655,-343 447,-343"/>
<image xlink:href="../../images/foreignKeys.png" width="11px" height="12px" preserveAspectRatio="xMinYMin meet" x="452" y="-360"/>
<text text-anchor="start" x="467" y="-351.2" font-family="Helvetica,sans-Serif" font-size="11.00">possibility_intervention</text>
<polygon fill="none" stroke="black" points="447,-321 447,-343 655,-343 655,-321 447,-321"/>
<image xlink:href="../../images/foreignKeys.png" width="11px" height="12px" preserveAspectRatio="xMinYMin meet" x="452" y="-338"/>
<text text-anchor="start" x="467" y="-329.2" font-family="Helvetica,sans-Serif" font-size="11.00">stormwater_tank_arrangement</text>
<polygon fill="none" stroke="black" points="447,-303 447,-321 655,-321 655,-303 447,-303"/>
<text text-anchor="start" x="450" y="-309.2" font-family="Helvetica,sans-Serif" font-size="11.00">...</text>
<polygon fill="#ffffff" stroke="transparent" points="447,-285 447,-303 535,-303 535,-285 447,-285"/>
<polygon fill="none" stroke="black" points="447,-285 447,-303 535,-303 535,-285 447,-285"/>
<text text-anchor="start" x="450" y="-291.2" font-family="Helvetica,sans-Serif" font-size="11.00">&lt; 6</text>
<polygon fill="#ffffff" stroke="transparent" points="535,-285 535,-303 608,-303 608,-285 535,-285"/>
<polygon fill="none" stroke="black" points="535,-285 535,-303 608,-303 608,-285 535,-285"/>
<text text-anchor="start" x="571" y="-291.2" font-family="Helvetica,sans-Serif" font-size="11.00">0 rows</text>
<polygon fill="#ffffff" stroke="transparent" points="608,-285 608,-303 655,-303 655,-285 608,-285"/>
<polygon fill="none" stroke="black" points="608,-285 608,-303 655,-303 655,-285 608,-285"/>
<text text-anchor="start" x="645" y="-291.2" font-family="Helvetica,sans-Serif" font-size="11.00"> &#160;</text>
</a>
</g>
</g>
<!-- special_structure_stormwater_tank_arrangement -->
<g id="node2" class="node">
<title>special_structure_stormwater_tank_arrangement</title>
<g id="a_node2"><a xlink:href="../../tables/special_structure_stormwater_ta_419625b4.html" xlink:title="special_structure_stormwater_tank_arrangement" target="_top">
<polygon fill="#ffffff" stroke="transparent" points="8,-37 8,-367 398,-367 398,-37 8,-37"/>
<polygon fill="#f5f5f5" stroke="transparent" points="10,-343 10,-365 396,-365 396,-343 10,-343"/>
<polygon fill="none" stroke="black" points="10,-343 10,-365 396,-365 396,-343 10,-343"/>
<text text-anchor="start" x="15" y="-352.2" font-family="Helvetica,sans-Serif" font-weight="bold" font-size="11.00">special_structure_stormwater_tank_arrangement</text>
<text text-anchor="start" x="357" y="-351.2" font-family="Helvetica,sans-Serif" font-size="11.00">[table]</text>
<polygon fill="none" stroke="black" points="10,-321 10,-343 326,-343 326,-321 10,-321"/>
<image xlink:href="../../images/primaryKeys.png" width="11px" height="12px" preserveAspectRatio="xMinYMin meet" x="15" y="-338"/>
<text text-anchor="start" x="30" y="-329.2" font-family="Helvetica,sans-Serif" font-size="11.00">code</text>
<polygon fill="none" stroke="black" points="326,-321 326,-343 396,-343 396,-321 326,-321"/>
<text text-anchor="start" x="329" y="-329.2" font-family="Helvetica,sans-Serif" font-size="11.00">int4[10]</text>
<polygon fill="none" stroke="black" points="10,-299 10,-321 326,-321 326,-299 10,-299"/>
<text text-anchor="start" x="30" y="-307.2" font-family="Helvetica,sans-Serif" font-size="11.00">vsacode</text>
<polygon fill="none" stroke="black" points="326,-299 326,-321 396,-321 396,-299 326,-299"/>
<text text-anchor="start" x="329" y="-307.2" font-family="Helvetica,sans-Serif" font-size="11.00">int4[10]</text>
<polygon fill="none" stroke="black" points="10,-277 10,-299 326,-299 326,-277 10,-277"/>
<text text-anchor="start" x="30" y="-285.2" font-family="Helvetica,sans-Serif" font-size="11.00">value_en</text>
<polygon fill="none" stroke="black" points="326,-277 326,-299 396,-299 396,-277 326,-277"/>
<text text-anchor="start" x="329" y="-285.2" font-family="Helvetica,sans-Serif" font-size="11.00">varchar[100]</text>
<polygon fill="none" stroke="black" points="10,-255 10,-277 326,-277 326,-255 10,-255"/>
<text text-anchor="start" x="30" y="-263.2" font-family="Helvetica,sans-Serif" font-size="11.00">value_de</text>
<polygon fill="none" stroke="black" points="326,-255 326,-277 396,-277 396,-255 326,-255"/>
<text text-anchor="start" x="329" y="-263.2" font-family="Helvetica,sans-Serif" font-size="11.00">varchar[100]</text>
<polygon fill="none" stroke="black" points="10,-233 10,-255 326,-255 326,-233 10,-233"/>
<text text-anchor="start" x="30" y="-241.2" font-family="Helvetica,sans-Serif" font-size="11.00">value_fr</text>
<polygon fill="none" stroke="black" points="326,-233 326,-255 396,-255 396,-233 326,-233"/>
<text text-anchor="start" x="329" y="-241.2" font-family="Helvetica,sans-Serif" font-size="11.00">varchar[100]</text>
<polygon fill="none" stroke="black" points="10,-211 10,-233 326,-233 326,-211 10,-211"/>
<text text-anchor="start" x="30" y="-219.2" font-family="Helvetica,sans-Serif" font-size="11.00">value_it</text>
<polygon fill="none" stroke="black" points="326,-211 326,-233 396,-233 396,-211 326,-211"/>
<text text-anchor="start" x="329" y="-219.2" font-family="Helvetica,sans-Serif" font-size="11.00">varchar[100]</text>
<polygon fill="none" stroke="black" points="10,-189 10,-211 326,-211 326,-189 10,-189"/>
<text text-anchor="start" x="30" y="-197.2" font-family="Helvetica,sans-Serif" font-size="11.00">value_ro</text>
<polygon fill="none" stroke="black" points="326,-189 326,-211 396,-211 396,-189 326,-189"/>
<text text-anchor="start" x="329" y="-197.2" font-family="Helvetica,sans-Serif" font-size="11.00">varchar[100]</text>
<polygon fill="none" stroke="black" points="10,-167 10,-189 326,-189 326,-167 10,-167"/>
<text text-anchor="start" x="30" y="-175.2" font-family="Helvetica,sans-Serif" font-size="11.00">abbr_en</text>
<polygon fill="none" stroke="black" points="326,-167 326,-189 396,-189 396,-167 326,-167"/>
<text text-anchor="start" x="329" y="-175.2" font-family="Helvetica,sans-Serif" font-size="11.00">varchar[3]</text>
<polygon fill="none" stroke="black" points="10,-145 10,-167 326,-167 326,-145 10,-145"/>
<text text-anchor="start" x="30" y="-153.2" font-family="Helvetica,sans-Serif" font-size="11.00">abbr_de</text>
<polygon fill="none" stroke="black" points="326,-145 326,-167 396,-167 396,-145 326,-145"/>
<text text-anchor="start" x="329" y="-153.2" font-family="Helvetica,sans-Serif" font-size="11.00">varchar[3]</text>
<polygon fill="none" stroke="black" points="10,-123 10,-145 326,-145 326,-123 10,-123"/>
<text text-anchor="start" x="30" y="-131.2" font-family="Helvetica,sans-Serif" font-size="11.00">abbr_fr</text>
<polygon fill="none" stroke="black" points="326,-123 326,-145 396,-145 396,-123 326,-123"/>
<text text-anchor="start" x="329" y="-131.2" font-family="Helvetica,sans-Serif" font-size="11.00">varchar[3]</text>
<polygon fill="none" stroke="black" points="10,-101 10,-123 326,-123 326,-101 10,-101"/>
<text text-anchor="start" x="30" y="-109.2" font-family="Helvetica,sans-Serif" font-size="11.00">abbr_it</text>
<polygon fill="none" stroke="black" points="326,-101 326,-123 396,-123 396,-101 326,-101"/>
<text text-anchor="start" x="329" y="-109.2" font-family="Helvetica,sans-Serif" font-size="11.00">varchar[3]</text>
<polygon fill="none" stroke="black" points="10,-79 10,-101 326,-101 326,-79 10,-79"/>
<text text-anchor="start" x="30" y="-87.2" font-family="Helvetica,sans-Serif" font-size="11.00">abbr_ro</text>
<polygon fill="none" stroke="black" points="326,-79 326,-101 396,-101 396,-79 326,-79"/>
<text text-anchor="start" x="329" y="-87.2" font-family="Helvetica,sans-Serif" font-size="11.00">varchar[3]</text>
<polygon fill="none" stroke="black" points="10,-57 10,-79 326,-79 326,-57 10,-57"/>
<text text-anchor="start" x="30" y="-65.2" font-family="Helvetica,sans-Serif" font-size="11.00">active</text>
<polygon fill="none" stroke="black" points="326,-57 326,-79 396,-79 396,-57 326,-57"/>
<text text-anchor="start" x="329" y="-65.2" font-family="Helvetica,sans-Serif" font-size="11.00">bool[1]</text>
<polygon fill="#ffffff" stroke="transparent" points="10,-39 10,-57 172,-57 172,-39 10,-39"/>
<polygon fill="none" stroke="black" points="10,-39 10,-57 172,-57 172,-39 10,-39"/>
<text text-anchor="start" x="13" y="-45.2" font-family="Helvetica,sans-Serif" font-size="11.00">&lt; 0</text>
<polygon fill="#ffffff" stroke="transparent" points="172,-39 172,-57 326,-57 326,-39 172,-39"/>
<polygon fill="none" stroke="black" points="172,-39 172,-57 326,-57 326,-39 172,-39"/>
<text text-anchor="start" x="316" y="-45.2" font-family="Helvetica,sans-Serif" font-size="11.00"> &#160;</text>
<polygon fill="#ffffff" stroke="transparent" points="326,-39 326,-57 396,-57 396,-39 326,-39"/>
<polygon fill="none" stroke="black" points="326,-39 326,-57 396,-57 396,-39 326,-39"/>
<text text-anchor="start" x="377" y="-45.2" font-family="Helvetica,sans-Serif" font-size="11.00">1 &gt;</text>
<polygon fill="none" stroke="black" stroke-width="2" points="9,-38 9,-366 397,-366 397,-38 9,-38"/>
</a>
</g>
</g>
<!-- tww_od.special_structure&#45;&gt;special_structure_stormwater_tank_arrangement -->
<g id="edge1" class="edge">
<title>tww_od.special_structure:w&#45;&gt;special_structure_stormwater_tank_arrangement:e</title>
<path fill="none" stroke="black" d="M431.49,-332C420.18,-332 412.99,-332 397,-332"/>
<polygon fill="black" stroke="black" points="438,-332 446,-335.6 442,-332 446,-332 446,-332 446,-332 442,-332 446,-328.4 438,-332 438,-332"/>
<ellipse fill="none" stroke="black" cx="434.8" cy="-332" rx="3.2" ry="3.2"/>
</g>
</g>
</svg>
