<?xml version="1.0" encoding="UTF-8" standalone="no"?>
<!DOCTYPE svg PUBLIC "-//W3C//DTD SVG 1.1//EN"
 "http://www.w3.org/Graphics/SVG/1.1/DTD/svg11.dtd">
<!-- Generated by graphviz version 2.43.0 (0)
 -->
<!-- Title: oneDegreeRelationshipsDiagram Pages: 1 -->
<svg width="523pt" height="379pt"
 viewBox="0.00 0.00 523.00 379.00" xmlns="http://www.w3.org/2000/svg" xmlns:xlink="http://www.w3.org/1999/xlink">
<g id="graph0" class="graph" transform="scale(1 1) rotate(0) translate(4 375)">
<title>oneDegreeRelationshipsDiagram</title>
<polygon fill="#ffffff" stroke="transparent" points="-4,4 -4,-375 519,-375 519,4 -4,4"/>
<text text-anchor="middle" x="79.5" y="-7.2" font-family="Helvetica,sans-Serif" font-size="11.00">Generated by SchemaSpy</text>
<!-- tww_od.tank_cleaning -->
<g id="node1" class="node">
<title>tww_od.tank_cleaning</title>
<g id="a_node1"><a xlink:href="../../../tww_od/tables/tank_cleaning.html" xlink:title="tww_od.tank_cleaning" target="_top">
<polygon fill="#ffffff" stroke="transparent" points="299,-285 299,-365 507,-365 507,-285 299,-285"/>
<polygon fill="#f5f5f5" stroke="transparent" points="299,-343 299,-365 507,-365 507,-343 299,-343"/>
<polygon fill="none" stroke="black" points="299,-343 299,-365 507,-365 507,-343 299,-343"/>
<text text-anchor="start" x="304" y="-352.2" font-family="Helvetica,sans-Serif" font-weight="bold" font-size="11.00">tww_od.tank_cleaning</text>
<text text-anchor="start" x="465" y="-351.2" font-family="Helvetica,sans-Serif" font-size="11.00">[table]</text>
<polygon fill="none" stroke="black" points="299,-321 299,-343 507,-343 507,-321 299,-321"/>
<image xlink:href="../../images/foreignKeys.png" width="11px" height="12px" preserveAspectRatio="xMinYMin meet" x="304" y="-338"/>
<text text-anchor="start" x="337" y="-329.2" font-family="Helvetica,sans-Serif" font-size="11.00">kind</text>
<polygon fill="none" stroke="black" points="299,-303 299,-321 507,-321 507,-303 299,-303"/>
<text text-anchor="start" x="302" y="-309.2" font-family="Helvetica,sans-Serif" font-size="11.00">...</text>
<polygon fill="#ffffff" stroke="transparent" points="299,-285 299,-303 507,-303 507,-285 299,-285"/>
<polygon fill="none" stroke="black" points="299,-285 299,-303 507,-303 507,-285 299,-285"/>
<polygon fill="#ffffff" stroke="transparent" points="300,-286 300,-302 367,-302 367,-286 300,-286"/>
<text text-anchor="start" x="302" y="-291.2" font-family="Helvetica,sans-Serif" font-size="11.00">&lt; 1</text>
<polygon fill="#ffffff" stroke="transparent" points="367,-286 367,-302 451,-302 451,-286 367,-286"/>
<text text-anchor="start" x="390.5" y="-291.2" font-family="Helvetica,sans-Serif" font-size="11.00">0 rows</text>
<polygon fill="#ffffff" stroke="transparent" points="451,-286 451,-302 506,-302 506,-286 451,-286"/>
<text text-anchor="start" x="496" y="-291.2" font-family="Helvetica,sans-Serif" font-size="11.00"> &#160;</text>
<polygon fill="black" stroke="black" points="367,-286 367,-302 367,-302 367,-286 367,-286"/>
<polygon fill="black" stroke="black" points="451,-286 451,-302 451,-302 451,-286 451,-286"/>
</a>
</g>
</g>
<!-- tank_cleaning_kind -->
<g id="node2" class="node">
<title>tank_cleaning_kind</title>
<g id="a_node2"><a xlink:href="../../tables/tank_cleaning_kind.html" xlink:title="tank_cleaning_kind" target="_top">
<polygon fill="#ffffff" stroke="transparent" points="8,-37 8,-367 250,-367 250,-37 8,-37"/>
<polygon fill="#f5f5f5" stroke="transparent" points="10,-343 10,-365 248,-365 248,-343 10,-343"/>
<polygon fill="none" stroke="black" points="10,-343 10,-365 248,-365 248,-343 10,-343"/>
<text text-anchor="start" x="15" y="-352.2" font-family="Helvetica,sans-Serif" font-weight="bold" font-size="11.00">tank_cleaning_kind</text>
<text text-anchor="start" x="206" y="-351.2" font-family="Helvetica,sans-Serif" font-size="11.00">[table]</text>
<polygon fill="none" stroke="black" points="10,-321 10,-343 170,-343 170,-321 10,-321"/>
<image xlink:href="../../images/primaryKeys.png" width="11px" height="12px" preserveAspectRatio="xMinYMin meet" x="15" y="-338"/>
<text text-anchor="start" x="30" y="-329.2" font-family="Helvetica,sans-Serif" font-size="11.00">code</text>
<polygon fill="none" stroke="black" points="170,-321 170,-343 248,-343 248,-321 170,-321"/>
<text text-anchor="start" x="173" y="-329.2" font-family="Helvetica,sans-Serif" font-size="11.00">int4[10]</text>
<polygon fill="none" stroke="black" points="10,-299 10,-321 170,-321 170,-299 10,-299"/>
<text text-anchor="start" x="30" y="-307.2" font-family="Helvetica,sans-Serif" font-size="11.00">vsacode</text>
<polygon fill="none" stroke="black" points="170,-299 170,-321 248,-321 248,-299 170,-299"/>
<text text-anchor="start" x="173" y="-307.2" font-family="Helvetica,sans-Serif" font-size="11.00">int4[10]</text>
<polygon fill="none" stroke="black" points="10,-277 10,-299 170,-299 170,-277 10,-277"/>
<text text-anchor="start" x="30" y="-285.2" font-family="Helvetica,sans-Serif" font-size="11.00">value_en</text>
<polygon fill="none" stroke="black" points="170,-277 170,-299 248,-299 248,-277 170,-277"/>
<text text-anchor="start" x="173" y="-285.2" font-family="Helvetica,sans-Serif" font-size="11.00">varchar[100]</text>
<polygon fill="none" stroke="black" points="10,-255 10,-277 170,-277 170,-255 10,-255"/>
<text text-anchor="start" x="30" y="-263.2" font-family="Helvetica,sans-Serif" font-size="11.00">value_de</text>
<polygon fill="none" stroke="black" points="170,-255 170,-277 248,-277 248,-255 170,-255"/>
<text text-anchor="start" x="173" y="-263.2" font-family="Helvetica,sans-Serif" font-size="11.00">varchar[100]</text>
<polygon fill="none" stroke="black" points="10,-233 10,-255 170,-255 170,-233 10,-233"/>
<text text-anchor="start" x="30" y="-241.2" font-family="Helvetica,sans-Serif" font-size="11.00">value_fr</text>
<polygon fill="none" stroke="black" points="170,-233 170,-255 248,-255 248,-233 170,-233"/>
<text text-anchor="start" x="173" y="-241.2" font-family="Helvetica,sans-Serif" font-size="11.00">varchar[100]</text>
<polygon fill="none" stroke="black" points="10,-211 10,-233 170,-233 170,-211 10,-211"/>
<text text-anchor="start" x="30" y="-219.2" font-family="Helvetica,sans-Serif" font-size="11.00">value_it</text>
<polygon fill="none" stroke="black" points="170,-211 170,-233 248,-233 248,-211 170,-211"/>
<text text-anchor="start" x="173" y="-219.2" font-family="Helvetica,sans-Serif" font-size="11.00">varchar[100]</text>
<polygon fill="none" stroke="black" points="10,-189 10,-211 170,-211 170,-189 10,-189"/>
<text text-anchor="start" x="30" y="-197.2" font-family="Helvetica,sans-Serif" font-size="11.00">value_ro</text>
<polygon fill="none" stroke="black" points="170,-189 170,-211 248,-211 248,-189 170,-189"/>
<text text-anchor="start" x="173" y="-197.2" font-family="Helvetica,sans-Serif" font-size="11.00">varchar[100]</text>
<polygon fill="none" stroke="black" points="10,-167 10,-189 170,-189 170,-167 10,-167"/>
<text text-anchor="start" x="30" y="-175.2" font-family="Helvetica,sans-Serif" font-size="11.00">abbr_en</text>
<polygon fill="none" stroke="black" points="170,-167 170,-189 248,-189 248,-167 170,-167"/>
<text text-anchor="start" x="173" y="-175.2" font-family="Helvetica,sans-Serif" font-size="11.00">varchar[3]</text>
<polygon fill="none" stroke="black" points="10,-145 10,-167 170,-167 170,-145 10,-145"/>
<text text-anchor="start" x="30" y="-153.2" font-family="Helvetica,sans-Serif" font-size="11.00">abbr_de</text>
<polygon fill="none" stroke="black" points="170,-145 170,-167 248,-167 248,-145 170,-145"/>
<text text-anchor="start" x="173" y="-153.2" font-family="Helvetica,sans-Serif" font-size="11.00">varchar[3]</text>
<polygon fill="none" stroke="black" points="10,-123 10,-145 170,-145 170,-123 10,-123"/>
<text text-anchor="start" x="30" y="-131.2" font-family="Helvetica,sans-Serif" font-size="11.00">abbr_fr</text>
<polygon fill="none" stroke="black" points="170,-123 170,-145 248,-145 248,-123 170,-123"/>
<text text-anchor="start" x="173" y="-131.2" font-family="Helvetica,sans-Serif" font-size="11.00">varchar[3]</text>
<polygon fill="none" stroke="black" points="10,-101 10,-123 170,-123 170,-101 10,-101"/>
<text text-anchor="start" x="30" y="-109.2" font-family="Helvetica,sans-Serif" font-size="11.00">abbr_it</text>
<polygon fill="none" stroke="black" points="170,-101 170,-123 248,-123 248,-101 170,-101"/>
<text text-anchor="start" x="173" y="-109.2" font-family="Helvetica,sans-Serif" font-size="11.00">varchar[3]</text>
<polygon fill="none" stroke="black" points="10,-79 10,-101 170,-101 170,-79 10,-79"/>
<text text-anchor="start" x="30" y="-87.2" font-family="Helvetica,sans-Serif" font-size="11.00">abbr_ro</text>
<polygon fill="none" stroke="black" points="170,-79 170,-101 248,-101 248,-79 170,-79"/>
<text text-anchor="start" x="173" y="-87.2" font-family="Helvetica,sans-Serif" font-size="11.00">varchar[3]</text>
<polygon fill="none" stroke="black" points="10,-57 10,-79 170,-79 170,-57 10,-57"/>
<text text-anchor="start" x="30" y="-65.2" font-family="Helvetica,sans-Serif" font-size="11.00">active</text>
<polygon fill="none" stroke="black" points="170,-57 170,-79 248,-79 248,-57 170,-57"/>
<text text-anchor="start" x="173" y="-65.2" font-family="Helvetica,sans-Serif" font-size="11.00">bool[1]</text>
<polygon fill="#ffffff" stroke="transparent" points="10,-39 10,-57 248,-57 248,-39 10,-39"/>
<polygon fill="none" stroke="black" points="10,-39 10,-57 248,-57 248,-39 10,-39"/>
<polygon fill="#ffffff" stroke="transparent" points="11,-40 11,-56 94,-56 94,-40 11,-40"/>
<text text-anchor="start" x="13" y="-45.2" font-family="Helvetica,sans-Serif" font-size="11.00">&lt; 0</text>
<polygon fill="#ffffff" stroke="transparent" points="94,-40 94,-56 165,-56 165,-40 94,-40"/>
<text text-anchor="start" x="125.5" y="-45.2" font-family="Helvetica,sans-Serif" font-size="11.00"> &#160;</text>
<polygon fill="#ffffff" stroke="transparent" points="165,-40 165,-56 247,-56 247,-40 165,-40"/>
<text text-anchor="start" x="225" y="-45.2" font-family="Helvetica,sans-Serif" font-size="11.00">1 &gt;</text>
<polygon fill="black" stroke="black" points="94,-40 94,-56 94,-56 94,-40 94,-40"/>
<polygon fill="black" stroke="black" points="165,-40 165,-56 165,-56 165,-40 165,-40"/>
<polygon fill="none" stroke="black" stroke-width="2" points="9,-38 9,-366 249,-366 249,-38 9,-38"/>
</a>
</g>
</g>
<!-- tww_od.tank_cleaning&#45;&gt;tank_cleaning_kind -->
<g id="edge1" class="edge">
<title>tww_od.tank_cleaning:w&#45;&gt;tank_cleaning_kind:e</title>
<path fill="none" stroke="black" d="M283.49,-332C272.18,-332 264.99,-332 249,-332"/>
<polygon fill="black" stroke="black" points="290,-332 298,-335.6 294,-332 298,-332 298,-332 298,-332 294,-332 298,-328.4 290,-332 290,-332"/>
<ellipse fill="none" stroke="black" cx="286.8" cy="-332" rx="3.2" ry="3.2"/>
</g>
</g>
</svg>
