<?xml version="1.0" encoding="UTF-8" standalone="no"?>
<!DOCTYPE svg PUBLIC "-//W3C//DTD SVG 1.1//EN"
 "http://www.w3.org/Graphics/SVG/1.1/DTD/svg11.dtd">
<!-- Generated by graphviz version 2.43.0 (0)
 -->
<!-- Title: oneDegreeRelationshipsDiagram Pages: 1 -->
<svg width="690pt" height="443pt"
 viewBox="0.00 0.00 690.00 443.00" xmlns="http://www.w3.org/2000/svg" xmlns:xlink="http://www.w3.org/1999/xlink">
<g id="graph0" class="graph" transform="scale(1 1) rotate(0) translate(4 439)">
<title>oneDegreeRelationshipsDiagram</title>
<polygon fill="#ffffff" stroke="transparent" points="-4,4 -4,-439 686,-439 686,4 -4,4"/>
<text text-anchor="middle" x="79.5" y="-7.2" font-family="Helvetica,sans-Serif" font-size="11.00">Generated by SchemaSpy</text>
<!-- tww_od.throttle_shut_off_unit -->
<g id="node1" class="node">
<title>tww_od.throttle_shut_off_unit</title>
<g id="a_node1"><a xlink:href="../../../tww_od/tables/throttle_shut_off_unit.html" xlink:title="tww_od.throttle_shut_off_unit" target="_top">
<polygon fill="#ffffff" stroke="transparent" points="356,-263 356,-431 674,-431 674,-263 356,-263"/>
<polygon fill="#f5f5f5" stroke="transparent" points="356,-409 356,-431 674,-431 674,-409 356,-409"/>
<polygon fill="none" stroke="black" points="356,-409 356,-431 674,-431 674,-409 356,-409"/>
<text text-anchor="start" x="361" y="-418.2" font-family="Helvetica,sans-Serif" font-weight="bold" font-size="11.00">tww_od.throttle_shut_off_unit</text>
<text text-anchor="start" x="632" y="-417.2" font-family="Helvetica,sans-Serif" font-size="11.00">[table]</text>
<polygon fill="none" stroke="black" points="356,-387 356,-409 674,-409 674,-387 356,-387"/>
<image xlink:href="../../images/foreignKeys.png" width="11px" height="12px" preserveAspectRatio="xMinYMin meet" x="361" y="-404"/>
<text text-anchor="start" x="376" y="-395.2" font-family="Helvetica,sans-Serif" font-size="11.00">actuation</text>
<polygon fill="none" stroke="black" points="356,-365 356,-387 674,-387 674,-365 356,-365"/>
<image xlink:href="../../images/foreignKeys.png" width="11px" height="12px" preserveAspectRatio="xMinYMin meet" x="361" y="-382"/>
<text text-anchor="start" x="376" y="-373.2" font-family="Helvetica,sans-Serif" font-size="11.00">adjustability</text>
<polygon fill="none" stroke="black" points="356,-343 356,-365 674,-365 674,-343 356,-343"/>
<image xlink:href="../../images/foreignKeys.png" width="11px" height="12px" preserveAspectRatio="xMinYMin meet" x="361" y="-360"/>
<text text-anchor="start" x="376" y="-351.2" font-family="Helvetica,sans-Serif" font-size="11.00">control</text>
<polygon fill="none" stroke="black" points="356,-321 356,-343 674,-343 674,-321 356,-321"/>
<image xlink:href="../../images/foreignKeys.png" width="11px" height="12px" preserveAspectRatio="xMinYMin meet" x="361" y="-338"/>
<text text-anchor="start" x="376" y="-329.2" font-family="Helvetica,sans-Serif" font-size="11.00">kind</text>
<polygon fill="none" stroke="black" points="356,-299 356,-321 674,-321 674,-299 356,-299"/>
<image xlink:href="../../images/foreignKeys.png" width="11px" height="12px" preserveAspectRatio="xMinYMin meet" x="361" y="-316"/>
<text text-anchor="start" x="376" y="-307.2" font-family="Helvetica,sans-Serif" font-size="11.00">signal_transmission</text>
<polygon fill="none" stroke="black" points="356,-281 356,-299 674,-299 674,-281 356,-281"/>
<text text-anchor="start" x="359" y="-287.2" font-family="Helvetica,sans-Serif" font-size="11.00">...</text>
<polygon fill="#ffffff" stroke="transparent" points="356,-263 356,-281 674,-281 674,-263 356,-263"/>
<polygon fill="none" stroke="black" points="356,-263 356,-281 674,-281 674,-263 356,-263"/>
<polygon fill="#ffffff" stroke="transparent" points="357,-264 357,-280 461,-280 461,-264 357,-264"/>
<text text-anchor="start" x="359" y="-269.2" font-family="Helvetica,sans-Serif" font-size="11.00">&lt; 5</text>
<polygon fill="#ffffff" stroke="transparent" points="461,-264 461,-280 582,-280 582,-264 461,-264"/>
<text text-anchor="start" x="503" y="-269.2" font-family="Helvetica,sans-Serif" font-size="11.00">0 rows</text>
<polygon fill="#ffffff" stroke="transparent" points="582,-264 582,-280 673,-280 673,-264 582,-264"/>
<text text-anchor="start" x="663" y="-269.2" font-family="Helvetica,sans-Serif" font-size="11.00"> &#160;</text>
<polygon fill="black" stroke="black" points="461,-264 461,-280 461,-280 461,-264 461,-264"/>
<polygon fill="black" stroke="black" points="582,-264 582,-280 582,-280 582,-264 582,-264"/>
</a>
</g>
</g>
<!-- throttle_shut_off_unit_kind -->
<g id="node2" class="node">
<title>throttle_shut_off_unit_kind</title>
<g id="a_node2"><a xlink:href="../../tables/throttle_shut_off_unit_kind.html" xlink:title="throttle_shut_off_unit_kind" target="_top">
<polygon fill="#ffffff" stroke="transparent" points="8,-37 8,-367 307,-367 307,-37 8,-37"/>
<polygon fill="#f5f5f5" stroke="transparent" points="10.5,-343 10.5,-365 305.5,-365 305.5,-343 10.5,-343"/>
<polygon fill="none" stroke="black" points="10.5,-343 10.5,-365 305.5,-365 305.5,-343 10.5,-343"/>
<text text-anchor="start" x="15.5" y="-352.2" font-family="Helvetica,sans-Serif" font-weight="bold" font-size="11.00">throttle_shut_off_unit_kind</text>
<text text-anchor="start" x="263.5" y="-351.2" font-family="Helvetica,sans-Serif" font-size="11.00">[table]</text>
<polygon fill="none" stroke="black" points="10.5,-321 10.5,-343 227.5,-343 227.5,-321 10.5,-321"/>
<image xlink:href="../../images/primaryKeys.png" width="11px" height="12px" preserveAspectRatio="xMinYMin meet" x="15.5" y="-338"/>
<text text-anchor="start" x="30.5" y="-329.2" font-family="Helvetica,sans-Serif" font-size="11.00">code</text>
<polygon fill="none" stroke="black" points="227.5,-321 227.5,-343 305.5,-343 305.5,-321 227.5,-321"/>
<text text-anchor="start" x="230.5" y="-329.2" font-family="Helvetica,sans-Serif" font-size="11.00">int4[10]</text>
<polygon fill="none" stroke="black" points="10.5,-299 10.5,-321 227.5,-321 227.5,-299 10.5,-299"/>
<text text-anchor="start" x="30.5" y="-307.2" font-family="Helvetica,sans-Serif" font-size="11.00">vsacode</text>
<polygon fill="none" stroke="black" points="227.5,-299 227.5,-321 305.5,-321 305.5,-299 227.5,-299"/>
<text text-anchor="start" x="230.5" y="-307.2" font-family="Helvetica,sans-Serif" font-size="11.00">int4[10]</text>
<polygon fill="none" stroke="black" points="10.5,-277 10.5,-299 227.5,-299 227.5,-277 10.5,-277"/>
<text text-anchor="start" x="30.5" y="-285.2" font-family="Helvetica,sans-Serif" font-size="11.00">value_en</text>
<polygon fill="none" stroke="black" points="227.5,-277 227.5,-299 305.5,-299 305.5,-277 227.5,-277"/>
<text text-anchor="start" x="230.5" y="-285.2" font-family="Helvetica,sans-Serif" font-size="11.00">varchar[100]</text>
<polygon fill="none" stroke="black" points="10.5,-255 10.5,-277 227.5,-277 227.5,-255 10.5,-255"/>
<text text-anchor="start" x="30.5" y="-263.2" font-family="Helvetica,sans-Serif" font-size="11.00">value_de</text>
<polygon fill="none" stroke="black" points="227.5,-255 227.5,-277 305.5,-277 305.5,-255 227.5,-255"/>
<text text-anchor="start" x="230.5" y="-263.2" font-family="Helvetica,sans-Serif" font-size="11.00">varchar[100]</text>
<polygon fill="none" stroke="black" points="10.5,-233 10.5,-255 227.5,-255 227.5,-233 10.5,-233"/>
<text text-anchor="start" x="30.5" y="-241.2" font-family="Helvetica,sans-Serif" font-size="11.00">value_fr</text>
<polygon fill="none" stroke="black" points="227.5,-233 227.5,-255 305.5,-255 305.5,-233 227.5,-233"/>
<text text-anchor="start" x="230.5" y="-241.2" font-family="Helvetica,sans-Serif" font-size="11.00">varchar[100]</text>
<polygon fill="none" stroke="black" points="10.5,-211 10.5,-233 227.5,-233 227.5,-211 10.5,-211"/>
<text text-anchor="start" x="30.5" y="-219.2" font-family="Helvetica,sans-Serif" font-size="11.00">value_it</text>
<polygon fill="none" stroke="black" points="227.5,-211 227.5,-233 305.5,-233 305.5,-211 227.5,-211"/>
<text text-anchor="start" x="230.5" y="-219.2" font-family="Helvetica,sans-Serif" font-size="11.00">varchar[100]</text>
<polygon fill="none" stroke="black" points="10.5,-189 10.5,-211 227.5,-211 227.5,-189 10.5,-189"/>
<text text-anchor="start" x="30.5" y="-197.2" font-family="Helvetica,sans-Serif" font-size="11.00">value_ro</text>
<polygon fill="none" stroke="black" points="227.5,-189 227.5,-211 305.5,-211 305.5,-189 227.5,-189"/>
<text text-anchor="start" x="230.5" y="-197.2" font-family="Helvetica,sans-Serif" font-size="11.00">varchar[100]</text>
<polygon fill="none" stroke="black" points="10.5,-167 10.5,-189 227.5,-189 227.5,-167 10.5,-167"/>
<text text-anchor="start" x="30.5" y="-175.2" font-family="Helvetica,sans-Serif" font-size="11.00">abbr_en</text>
<polygon fill="none" stroke="black" points="227.5,-167 227.5,-189 305.5,-189 305.5,-167 227.5,-167"/>
<text text-anchor="start" x="230.5" y="-175.2" font-family="Helvetica,sans-Serif" font-size="11.00">varchar[3]</text>
<polygon fill="none" stroke="black" points="10.5,-145 10.5,-167 227.5,-167 227.5,-145 10.5,-145"/>
<text text-anchor="start" x="30.5" y="-153.2" font-family="Helvetica,sans-Serif" font-size="11.00">abbr_de</text>
<polygon fill="none" stroke="black" points="227.5,-145 227.5,-167 305.5,-167 305.5,-145 227.5,-145"/>
<text text-anchor="start" x="230.5" y="-153.2" font-family="Helvetica,sans-Serif" font-size="11.00">varchar[3]</text>
<polygon fill="none" stroke="black" points="10.5,-123 10.5,-145 227.5,-145 227.5,-123 10.5,-123"/>
<text text-anchor="start" x="30.5" y="-131.2" font-family="Helvetica,sans-Serif" font-size="11.00">abbr_fr</text>
<polygon fill="none" stroke="black" points="227.5,-123 227.5,-145 305.5,-145 305.5,-123 227.5,-123"/>
<text text-anchor="start" x="230.5" y="-131.2" font-family="Helvetica,sans-Serif" font-size="11.00">varchar[3]</text>
<polygon fill="none" stroke="black" points="10.5,-101 10.5,-123 227.5,-123 227.5,-101 10.5,-101"/>
<text text-anchor="start" x="30.5" y="-109.2" font-family="Helvetica,sans-Serif" font-size="11.00">abbr_it</text>
<polygon fill="none" stroke="black" points="227.5,-101 227.5,-123 305.5,-123 305.5,-101 227.5,-101"/>
<text text-anchor="start" x="230.5" y="-109.2" font-family="Helvetica,sans-Serif" font-size="11.00">varchar[3]</text>
<polygon fill="none" stroke="black" points="10.5,-79 10.5,-101 227.5,-101 227.5,-79 10.5,-79"/>
<text text-anchor="start" x="30.5" y="-87.2" font-family="Helvetica,sans-Serif" font-size="11.00">abbr_ro</text>
<polygon fill="none" stroke="black" points="227.5,-79 227.5,-101 305.5,-101 305.5,-79 227.5,-79"/>
<text text-anchor="start" x="230.5" y="-87.2" font-family="Helvetica,sans-Serif" font-size="11.00">varchar[3]</text>
<polygon fill="none" stroke="black" points="10.5,-57 10.5,-79 227.5,-79 227.5,-57 10.5,-57"/>
<text text-anchor="start" x="30.5" y="-65.2" font-family="Helvetica,sans-Serif" font-size="11.00">active</text>
<polygon fill="none" stroke="black" points="227.5,-57 227.5,-79 305.5,-79 305.5,-57 227.5,-57"/>
<text text-anchor="start" x="230.5" y="-65.2" font-family="Helvetica,sans-Serif" font-size="11.00">bool[1]</text>
<polygon fill="#ffffff" stroke="transparent" points="10.5,-39 10.5,-57 305.5,-57 305.5,-39 10.5,-39"/>
<polygon fill="none" stroke="black" points="10.5,-39 10.5,-57 305.5,-57 305.5,-39 10.5,-39"/>
<polygon fill="#ffffff" stroke="transparent" points="11.5,-40 11.5,-56 113.5,-56 113.5,-40 11.5,-40"/>
<text text-anchor="start" x="13.5" y="-45.2" font-family="Helvetica,sans-Serif" font-size="11.00">&lt; 0</text>
<polygon fill="#ffffff" stroke="transparent" points="113.5,-40 113.5,-56 203.5,-56 203.5,-40 113.5,-40"/>
<text text-anchor="start" x="154.5" y="-45.2" font-family="Helvetica,sans-Serif" font-size="11.00"> &#160;</text>
<polygon fill="#ffffff" stroke="transparent" points="203.5,-40 203.5,-56 304.5,-56 304.5,-40 203.5,-40"/>
<text text-anchor="start" x="282.5" y="-45.2" font-family="Helvetica,sans-Serif" font-size="11.00">1 &gt;</text>
<polygon fill="black" stroke="black" points="113.5,-40 113.5,-56 113.5,-56 113.5,-40 113.5,-40"/>
<polygon fill="black" stroke="black" points="203.5,-40 203.5,-56 203.5,-56 203.5,-40 203.5,-40"/>
<polygon fill="none" stroke="black" stroke-width="2" points="9,-38 9,-366 306,-366 306,-38 9,-38"/>
</a>
</g>
</g>
<!-- tww_od.throttle_shut_off_unit&#45;&gt;throttle_shut_off_unit_kind -->
<g id="edge1" class="edge">
<title>tww_od.throttle_shut_off_unit:w&#45;&gt;throttle_shut_off_unit_kind:e</title>
<path fill="none" stroke="black" d="M340.28,-332C329.29,-332 322.16,-332 306.5,-332"/>
<polygon fill="black" stroke="black" points="347,-332 355,-335.6 351,-332 355,-332 355,-332 355,-332 351,-332 355,-328.4 347,-332 347,-332"/>
<ellipse fill="none" stroke="black" cx="343.8" cy="-332" rx="3.2" ry="3.2"/>
</g>
</g>
</svg>
