<?xml version="1.0" encoding="UTF-8" standalone="no"?>
<!DOCTYPE svg PUBLIC "-//W3C//DTD SVG 1.1//EN"
 "http://www.w3.org/Graphics/SVG/1.1/DTD/svg11.dtd">
<!-- Generated by graphviz version 2.47.1 (20210515.0534)
 -->
<!-- Title: oneDegreeRelationshipsDiagram Pages: 1 -->
<svg width="611pt" height="421pt"
 viewBox="0.00 0.00 611.00 421.00" xmlns="http://www.w3.org/2000/svg" xmlns:xlink="http://www.w3.org/1999/xlink">
<g id="graph0" class="graph" transform="scale(1 1) rotate(0) translate(4 417)">
<title>oneDegreeRelationshipsDiagram</title>
<polygon fill="#ffffff" stroke="transparent" points="-4,4 -4,-417 607,-417 607,4 -4,4"/>
<text text-anchor="middle" x="73.5" y="-7.2" font-family="Helvetica,sans-Serif" font-size="11.00">Generated by SchemaSpy</text>
<!-- tww_od.throttle_shut_off_unit -->
<g id="node1" class="node">
<title>tww_od.throttle_shut_off_unit</title>
<g id="a_node1"><a xlink:href="../../../tww_od/tables/throttle_shut_off_unit.html" xlink:title="tww_od.throttle_shut_off_unit" target="_top">
<polygon fill="#ffffff" stroke="transparent" points="330,-241 330,-409 595,-409 595,-241 330,-241"/>
<polygon fill="#f5f5f5" stroke="transparent" points="330.5,-387 330.5,-409 595.5,-409 595.5,-387 330.5,-387"/>
<polygon fill="none" stroke="black" points="330.5,-387 330.5,-409 595.5,-409 595.5,-387 330.5,-387"/>
<text text-anchor="start" x="335.5" y="-396.2" font-family="Helvetica,sans-Serif" font-weight="bold" font-size="11.00">tww_od.throttle_shut_off_unit</text>
<text text-anchor="start" x="556.5" y="-395.2" font-family="Helvetica,sans-Serif" font-size="11.00">[table]</text>
<polygon fill="none" stroke="black" points="330.5,-365 330.5,-387 595.5,-387 595.5,-365 330.5,-365"/>
<image xlink:href="../../images/foreignKeys.png" width="11px" height="12px" preserveAspectRatio="xMinYMin meet" x="335.5" y="-382"/>
<text text-anchor="start" x="350.5" y="-373.2" font-family="Helvetica,sans-Serif" font-size="11.00">actuation</text>
<polygon fill="none" stroke="black" points="330.5,-343 330.5,-365 595.5,-365 595.5,-343 330.5,-343"/>
<image xlink:href="../../images/foreignKeys.png" width="11px" height="12px" preserveAspectRatio="xMinYMin meet" x="335.5" y="-360"/>
<text text-anchor="start" x="350.5" y="-351.2" font-family="Helvetica,sans-Serif" font-size="11.00">adjustability</text>
<polygon fill="none" stroke="black" points="330.5,-321 330.5,-343 595.5,-343 595.5,-321 330.5,-321"/>
<image xlink:href="../../images/foreignKeys.png" width="11px" height="12px" preserveAspectRatio="xMinYMin meet" x="335.5" y="-338"/>
<text text-anchor="start" x="350.5" y="-329.2" font-family="Helvetica,sans-Serif" font-size="11.00">control</text>
<polygon fill="none" stroke="black" points="330.5,-299 330.5,-321 595.5,-321 595.5,-299 330.5,-299"/>
<image xlink:href="../../images/foreignKeys.png" width="11px" height="12px" preserveAspectRatio="xMinYMin meet" x="335.5" y="-316"/>
<text text-anchor="start" x="350.5" y="-307.2" font-family="Helvetica,sans-Serif" font-size="11.00">kind</text>
<polygon fill="none" stroke="black" points="330.5,-277 330.5,-299 595.5,-299 595.5,-277 330.5,-277"/>
<image xlink:href="../../images/foreignKeys.png" width="11px" height="12px" preserveAspectRatio="xMinYMin meet" x="335.5" y="-294"/>
<text text-anchor="start" x="350.5" y="-285.2" font-family="Helvetica,sans-Serif" font-size="11.00">signal_transmission</text>
<polygon fill="none" stroke="black" points="330.5,-259 330.5,-277 595.5,-277 595.5,-259 330.5,-259"/>
<text text-anchor="start" x="333.5" y="-265.2" font-family="Helvetica,sans-Serif" font-size="11.00">...</text>
<polygon fill="#ffffff" stroke="transparent" points="330.5,-241 330.5,-259 447.5,-259 447.5,-241 330.5,-241"/>
<polygon fill="none" stroke="black" points="330.5,-241 330.5,-259 447.5,-259 447.5,-241 330.5,-241"/>
<text text-anchor="start" x="333.5" y="-247.2" font-family="Helvetica,sans-Serif" font-size="11.00">&lt; 5</text>
<polygon fill="#ffffff" stroke="transparent" points="447.5,-241 447.5,-259 534.5,-259 534.5,-241 447.5,-241"/>
<polygon fill="none" stroke="black" points="447.5,-241 447.5,-259 534.5,-259 534.5,-241 447.5,-241"/>
<text text-anchor="start" x="497.5" y="-247.2" font-family="Helvetica,sans-Serif" font-size="11.00">0 rows</text>
<polygon fill="#ffffff" stroke="transparent" points="534.5,-241 534.5,-259 595.5,-259 595.5,-241 534.5,-241"/>
<polygon fill="none" stroke="black" points="534.5,-241 534.5,-259 595.5,-259 595.5,-241 534.5,-241"/>
<text text-anchor="start" x="585.5" y="-247.2" font-family="Helvetica,sans-Serif" font-size="11.00"> &#160;</text>
</a>
</g>
</g>
<!-- throttle_shut_off_unit_control -->
<g id="node2" class="node">
<title>throttle_shut_off_unit_control</title>
<g id="a_node2"><a xlink:href="../../tables/throttle_shut_off_unit_control.html" xlink:title="throttle_shut_off_unit_control" target="_top">
<polygon fill="#ffffff" stroke="transparent" points="8,-37 8,-367 281,-367 281,-37 8,-37"/>
<polygon fill="#f5f5f5" stroke="transparent" points="10.5,-343 10.5,-365 279.5,-365 279.5,-343 10.5,-343"/>
<polygon fill="none" stroke="black" points="10.5,-343 10.5,-365 279.5,-365 279.5,-343 10.5,-343"/>
<text text-anchor="start" x="15.5" y="-352.2" font-family="Helvetica,sans-Serif" font-weight="bold" font-size="11.00">throttle_shut_off_unit_control</text>
<text text-anchor="start" x="240.5" y="-351.2" font-family="Helvetica,sans-Serif" font-size="11.00">[table]</text>
<polygon fill="none" stroke="black" points="10.5,-321 10.5,-343 209.5,-343 209.5,-321 10.5,-321"/>
<image xlink:href="../../images/primaryKeys.png" width="11px" height="12px" preserveAspectRatio="xMinYMin meet" x="15.5" y="-338"/>
<text text-anchor="start" x="30.5" y="-329.2" font-family="Helvetica,sans-Serif" font-size="11.00">code</text>
<polygon fill="none" stroke="black" points="209.5,-321 209.5,-343 279.5,-343 279.5,-321 209.5,-321"/>
<text text-anchor="start" x="212.5" y="-329.2" font-family="Helvetica,sans-Serif" font-size="11.00">int4[10]</text>
<polygon fill="none" stroke="black" points="10.5,-299 10.5,-321 209.5,-321 209.5,-299 10.5,-299"/>
<text text-anchor="start" x="30.5" y="-307.2" font-family="Helvetica,sans-Serif" font-size="11.00">vsacode</text>
<polygon fill="none" stroke="black" points="209.5,-299 209.5,-321 279.5,-321 279.5,-299 209.5,-299"/>
<text text-anchor="start" x="212.5" y="-307.2" font-family="Helvetica,sans-Serif" font-size="11.00">int4[10]</text>
<polygon fill="none" stroke="black" points="10.5,-277 10.5,-299 209.5,-299 209.5,-277 10.5,-277"/>
<text text-anchor="start" x="30.5" y="-285.2" font-family="Helvetica,sans-Serif" font-size="11.00">value_en</text>
<polygon fill="none" stroke="black" points="209.5,-277 209.5,-299 279.5,-299 279.5,-277 209.5,-277"/>
<text text-anchor="start" x="212.5" y="-285.2" font-family="Helvetica,sans-Serif" font-size="11.00">varchar[100]</text>
<polygon fill="none" stroke="black" points="10.5,-255 10.5,-277 209.5,-277 209.5,-255 10.5,-255"/>
<text text-anchor="start" x="30.5" y="-263.2" font-family="Helvetica,sans-Serif" font-size="11.00">value_de</text>
<polygon fill="none" stroke="black" points="209.5,-255 209.5,-277 279.5,-277 279.5,-255 209.5,-255"/>
<text text-anchor="start" x="212.5" y="-263.2" font-family="Helvetica,sans-Serif" font-size="11.00">varchar[100]</text>
<polygon fill="none" stroke="black" points="10.5,-233 10.5,-255 209.5,-255 209.5,-233 10.5,-233"/>
<text text-anchor="start" x="30.5" y="-241.2" font-family="Helvetica,sans-Serif" font-size="11.00">value_fr</text>
<polygon fill="none" stroke="black" points="209.5,-233 209.5,-255 279.5,-255 279.5,-233 209.5,-233"/>
<text text-anchor="start" x="212.5" y="-241.2" font-family="Helvetica,sans-Serif" font-size="11.00">varchar[100]</text>
<polygon fill="none" stroke="black" points="10.5,-211 10.5,-233 209.5,-233 209.5,-211 10.5,-211"/>
<text text-anchor="start" x="30.5" y="-219.2" font-family="Helvetica,sans-Serif" font-size="11.00">value_it</text>
<polygon fill="none" stroke="black" points="209.5,-211 209.5,-233 279.5,-233 279.5,-211 209.5,-211"/>
<text text-anchor="start" x="212.5" y="-219.2" font-family="Helvetica,sans-Serif" font-size="11.00">varchar[100]</text>
<polygon fill="none" stroke="black" points="10.5,-189 10.5,-211 209.5,-211 209.5,-189 10.5,-189"/>
<text text-anchor="start" x="30.5" y="-197.2" font-family="Helvetica,sans-Serif" font-size="11.00">value_ro</text>
<polygon fill="none" stroke="black" points="209.5,-189 209.5,-211 279.5,-211 279.5,-189 209.5,-189"/>
<text text-anchor="start" x="212.5" y="-197.2" font-family="Helvetica,sans-Serif" font-size="11.00">varchar[100]</text>
<polygon fill="none" stroke="black" points="10.5,-167 10.5,-189 209.5,-189 209.5,-167 10.5,-167"/>
<text text-anchor="start" x="30.5" y="-175.2" font-family="Helvetica,sans-Serif" font-size="11.00">abbr_en</text>
<polygon fill="none" stroke="black" points="209.5,-167 209.5,-189 279.5,-189 279.5,-167 209.5,-167"/>
<text text-anchor="start" x="212.5" y="-175.2" font-family="Helvetica,sans-Serif" font-size="11.00">varchar[3]</text>
<polygon fill="none" stroke="black" points="10.5,-145 10.5,-167 209.5,-167 209.5,-145 10.5,-145"/>
<text text-anchor="start" x="30.5" y="-153.2" font-family="Helvetica,sans-Serif" font-size="11.00">abbr_de</text>
<polygon fill="none" stroke="black" points="209.5,-145 209.5,-167 279.5,-167 279.5,-145 209.5,-145"/>
<text text-anchor="start" x="212.5" y="-153.2" font-family="Helvetica,sans-Serif" font-size="11.00">varchar[3]</text>
<polygon fill="none" stroke="black" points="10.5,-123 10.5,-145 209.5,-145 209.5,-123 10.5,-123"/>
<text text-anchor="start" x="30.5" y="-131.2" font-family="Helvetica,sans-Serif" font-size="11.00">abbr_fr</text>
<polygon fill="none" stroke="black" points="209.5,-123 209.5,-145 279.5,-145 279.5,-123 209.5,-123"/>
<text text-anchor="start" x="212.5" y="-131.2" font-family="Helvetica,sans-Serif" font-size="11.00">varchar[3]</text>
<polygon fill="none" stroke="black" points="10.5,-101 10.5,-123 209.5,-123 209.5,-101 10.5,-101"/>
<text text-anchor="start" x="30.5" y="-109.2" font-family="Helvetica,sans-Serif" font-size="11.00">abbr_it</text>
<polygon fill="none" stroke="black" points="209.5,-101 209.5,-123 279.5,-123 279.5,-101 209.5,-101"/>
<text text-anchor="start" x="212.5" y="-109.2" font-family="Helvetica,sans-Serif" font-size="11.00">varchar[3]</text>
<polygon fill="none" stroke="black" points="10.5,-79 10.5,-101 209.5,-101 209.5,-79 10.5,-79"/>
<text text-anchor="start" x="30.5" y="-87.2" font-family="Helvetica,sans-Serif" font-size="11.00">abbr_ro</text>
<polygon fill="none" stroke="black" points="209.5,-79 209.5,-101 279.5,-101 279.5,-79 209.5,-79"/>
<text text-anchor="start" x="212.5" y="-87.2" font-family="Helvetica,sans-Serif" font-size="11.00">varchar[3]</text>
<polygon fill="none" stroke="black" points="10.5,-57 10.5,-79 209.5,-79 209.5,-57 10.5,-57"/>
<text text-anchor="start" x="30.5" y="-65.2" font-family="Helvetica,sans-Serif" font-size="11.00">active</text>
<polygon fill="none" stroke="black" points="209.5,-57 209.5,-79 279.5,-79 279.5,-57 209.5,-57"/>
<text text-anchor="start" x="212.5" y="-65.2" font-family="Helvetica,sans-Serif" font-size="11.00">bool[1]</text>
<polygon fill="#ffffff" stroke="transparent" points="10.5,-39 10.5,-57 114.5,-57 114.5,-39 10.5,-39"/>
<polygon fill="none" stroke="black" points="10.5,-39 10.5,-57 114.5,-57 114.5,-39 10.5,-39"/>
<text text-anchor="start" x="13.5" y="-45.2" font-family="Helvetica,sans-Serif" font-size="11.00">&lt; 0</text>
<polygon fill="#ffffff" stroke="transparent" points="114.5,-39 114.5,-57 209.5,-57 209.5,-39 114.5,-39"/>
<polygon fill="none" stroke="black" points="114.5,-39 114.5,-57 209.5,-57 209.5,-39 114.5,-39"/>
<text text-anchor="start" x="199.5" y="-45.2" font-family="Helvetica,sans-Serif" font-size="11.00"> &#160;</text>
<polygon fill="#ffffff" stroke="transparent" points="209.5,-39 209.5,-57 279.5,-57 279.5,-39 209.5,-39"/>
<polygon fill="none" stroke="black" points="209.5,-39 209.5,-57 279.5,-57 279.5,-39 209.5,-39"/>
<text text-anchor="start" x="260.5" y="-45.2" font-family="Helvetica,sans-Serif" font-size="11.00">1 &gt;</text>
<polygon fill="none" stroke="black" stroke-width="2" points="9,-38 9,-366 280,-366 280,-38 9,-38"/>
</a>
</g>
</g>
<!-- tww_od.throttle_shut_off_unit&#45;&gt;throttle_shut_off_unit_control -->
<g id="edge1" class="edge">
<title>tww_od.throttle_shut_off_unit:w&#45;&gt;throttle_shut_off_unit_control:e</title>
<path fill="none" stroke="black" d="M314.99,-332C303.68,-332 296.49,-332 280.5,-332"/>
<polygon fill="black" stroke="black" points="321.5,-332 329.5,-335.6 325.5,-332 329.5,-332 329.5,-332 329.5,-332 325.5,-332 329.5,-328.4 321.5,-332 321.5,-332"/>
<ellipse fill="none" stroke="black" cx="318.3" cy="-332" rx="3.2" ry="3.2"/>
</g>
</g>
</svg>
