<?xml version="1.0" encoding="UTF-8" standalone="no"?>
<!DOCTYPE svg PUBLIC "-//W3C//DTD SVG 1.1//EN"
 "http://www.w3.org/Graphics/SVG/1.1/DTD/svg11.dtd">
<!-- Generated by graphviz version 2.43.0 (0)
 -->
<!-- Title: oneDegreeRelationshipsDiagram Pages: 1 -->
<svg width="666pt" height="379pt"
 viewBox="0.00 0.00 666.00 379.00" xmlns="http://www.w3.org/2000/svg" xmlns:xlink="http://www.w3.org/1999/xlink">
<g id="graph0" class="graph" transform="scale(1 1) rotate(0) translate(4 375)">
<title>oneDegreeRelationshipsDiagram</title>
<polygon fill="#ffffff" stroke="transparent" points="-4,4 -4,-375 662,-375 662,4 -4,4"/>
<text text-anchor="middle" x="79.5" y="-7.2" font-family="Helvetica,sans-Serif" font-size="11.00">Generated by SchemaSpy</text>
<!-- tww_od.waste_water_treatment -->
<g id="node1" class="node">
<title>tww_od.waste_water_treatment</title>
<g id="a_node1"><a xlink:href="../../../tww_od/tables/waste_water_treatment.html" xlink:title="tww_od.waste_water_treatment" target="_top">
<polygon fill="#ffffff" stroke="transparent" points="371,-285 371,-365 650,-365 650,-285 371,-285"/>
<polygon fill="#f5f5f5" stroke="transparent" points="371.5,-343 371.5,-365 650.5,-365 650.5,-343 371.5,-343"/>
<polygon fill="none" stroke="black" points="371.5,-343 371.5,-365 650.5,-365 650.5,-343 371.5,-343"/>
<text text-anchor="start" x="376.5" y="-352.2" font-family="Helvetica,sans-Serif" font-weight="bold" font-size="11.00">tww_od.waste_water_treatment</text>
<text text-anchor="start" x="608.5" y="-351.2" font-family="Helvetica,sans-Serif" font-size="11.00">[table]</text>
<polygon fill="none" stroke="black" points="371.5,-321 371.5,-343 650.5,-343 650.5,-321 371.5,-321"/>
<image xlink:href="../../images/foreignKeys.png" width="11px" height="12px" preserveAspectRatio="xMinYMin meet" x="376.5" y="-338"/>
<text text-anchor="start" x="401.5" y="-329.2" font-family="Helvetica,sans-Serif" font-size="11.00">kind</text>
<polygon fill="none" stroke="black" points="371.5,-303 371.5,-321 650.5,-321 650.5,-303 371.5,-303"/>
<text text-anchor="start" x="374.5" y="-309.2" font-family="Helvetica,sans-Serif" font-size="11.00">...</text>
<polygon fill="#ffffff" stroke="transparent" points="371.5,-285 371.5,-303 650.5,-303 650.5,-285 371.5,-285"/>
<polygon fill="none" stroke="black" points="371.5,-285 371.5,-303 650.5,-303 650.5,-285 371.5,-285"/>
<polygon fill="#ffffff" stroke="transparent" points="372.5,-286 372.5,-302 463.5,-302 463.5,-286 372.5,-286"/>
<text text-anchor="start" x="374.5" y="-291.2" font-family="Helvetica,sans-Serif" font-size="11.00">&lt; 1</text>
<polygon fill="#ffffff" stroke="transparent" points="463.5,-286 463.5,-302 571.5,-302 571.5,-286 463.5,-286"/>
<text text-anchor="start" x="499" y="-291.2" font-family="Helvetica,sans-Serif" font-size="11.00">0 rows</text>
<polygon fill="#ffffff" stroke="transparent" points="571.5,-286 571.5,-302 649.5,-302 649.5,-286 571.5,-286"/>
<text text-anchor="start" x="639.5" y="-291.2" font-family="Helvetica,sans-Serif" font-size="11.00"> &#160;</text>
<polygon fill="black" stroke="black" points="463.5,-286 463.5,-302 463.5,-302 463.5,-286 463.5,-286"/>
<polygon fill="black" stroke="black" points="571.5,-286 571.5,-302 571.5,-302 571.5,-286 571.5,-286"/>
</a>
</g>
</g>
<!-- waste_water_treatment_kind -->
<g id="node2" class="node">
<title>waste_water_treatment_kind</title>
<g id="a_node2"><a xlink:href="../../tables/waste_water_treatment_kind.html" xlink:title="waste_water_treatment_kind" target="_top">
<polygon fill="#ffffff" stroke="transparent" points="8,-37 8,-367 322,-367 322,-37 8,-37"/>
<polygon fill="#f5f5f5" stroke="transparent" points="10,-343 10,-365 320,-365 320,-343 10,-343"/>
<polygon fill="none" stroke="black" points="10,-343 10,-365 320,-365 320,-343 10,-343"/>
<text text-anchor="start" x="15" y="-352.2" font-family="Helvetica,sans-Serif" font-weight="bold" font-size="11.00">waste_water_treatment_kind</text>
<text text-anchor="start" x="278" y="-351.2" font-family="Helvetica,sans-Serif" font-size="11.00">[table]</text>
<polygon fill="none" stroke="black" points="10,-321 10,-343 242,-343 242,-321 10,-321"/>
<image xlink:href="../../images/primaryKeys.png" width="11px" height="12px" preserveAspectRatio="xMinYMin meet" x="15" y="-338"/>
<text text-anchor="start" x="30" y="-329.2" font-family="Helvetica,sans-Serif" font-size="11.00">code</text>
<polygon fill="none" stroke="black" points="242,-321 242,-343 320,-343 320,-321 242,-321"/>
<text text-anchor="start" x="245" y="-329.2" font-family="Helvetica,sans-Serif" font-size="11.00">int4[10]</text>
<polygon fill="none" stroke="black" points="10,-299 10,-321 242,-321 242,-299 10,-299"/>
<text text-anchor="start" x="30" y="-307.2" font-family="Helvetica,sans-Serif" font-size="11.00">vsacode</text>
<polygon fill="none" stroke="black" points="242,-299 242,-321 320,-321 320,-299 242,-299"/>
<text text-anchor="start" x="245" y="-307.2" font-family="Helvetica,sans-Serif" font-size="11.00">int4[10]</text>
<polygon fill="none" stroke="black" points="10,-277 10,-299 242,-299 242,-277 10,-277"/>
<text text-anchor="start" x="30" y="-285.2" font-family="Helvetica,sans-Serif" font-size="11.00">value_en</text>
<polygon fill="none" stroke="black" points="242,-277 242,-299 320,-299 320,-277 242,-277"/>
<text text-anchor="start" x="245" y="-285.2" font-family="Helvetica,sans-Serif" font-size="11.00">varchar[100]</text>
<polygon fill="none" stroke="black" points="10,-255 10,-277 242,-277 242,-255 10,-255"/>
<text text-anchor="start" x="30" y="-263.2" font-family="Helvetica,sans-Serif" font-size="11.00">value_de</text>
<polygon fill="none" stroke="black" points="242,-255 242,-277 320,-277 320,-255 242,-255"/>
<text text-anchor="start" x="245" y="-263.2" font-family="Helvetica,sans-Serif" font-size="11.00">varchar[100]</text>
<polygon fill="none" stroke="black" points="10,-233 10,-255 242,-255 242,-233 10,-233"/>
<text text-anchor="start" x="30" y="-241.2" font-family="Helvetica,sans-Serif" font-size="11.00">value_fr</text>
<polygon fill="none" stroke="black" points="242,-233 242,-255 320,-255 320,-233 242,-233"/>
<text text-anchor="start" x="245" y="-241.2" font-family="Helvetica,sans-Serif" font-size="11.00">varchar[100]</text>
<polygon fill="none" stroke="black" points="10,-211 10,-233 242,-233 242,-211 10,-211"/>
<text text-anchor="start" x="30" y="-219.2" font-family="Helvetica,sans-Serif" font-size="11.00">value_it</text>
<polygon fill="none" stroke="black" points="242,-211 242,-233 320,-233 320,-211 242,-211"/>
<text text-anchor="start" x="245" y="-219.2" font-family="Helvetica,sans-Serif" font-size="11.00">varchar[100]</text>
<polygon fill="none" stroke="black" points="10,-189 10,-211 242,-211 242,-189 10,-189"/>
<text text-anchor="start" x="30" y="-197.2" font-family="Helvetica,sans-Serif" font-size="11.00">value_ro</text>
<polygon fill="none" stroke="black" points="242,-189 242,-211 320,-211 320,-189 242,-189"/>
<text text-anchor="start" x="245" y="-197.2" font-family="Helvetica,sans-Serif" font-size="11.00">varchar[100]</text>
<polygon fill="none" stroke="black" points="10,-167 10,-189 242,-189 242,-167 10,-167"/>
<text text-anchor="start" x="30" y="-175.2" font-family="Helvetica,sans-Serif" font-size="11.00">abbr_en</text>
<polygon fill="none" stroke="black" points="242,-167 242,-189 320,-189 320,-167 242,-167"/>
<text text-anchor="start" x="245" y="-175.2" font-family="Helvetica,sans-Serif" font-size="11.00">varchar[3]</text>
<polygon fill="none" stroke="black" points="10,-145 10,-167 242,-167 242,-145 10,-145"/>
<text text-anchor="start" x="30" y="-153.2" font-family="Helvetica,sans-Serif" font-size="11.00">abbr_de</text>
<polygon fill="none" stroke="black" points="242,-145 242,-167 320,-167 320,-145 242,-145"/>
<text text-anchor="start" x="245" y="-153.2" font-family="Helvetica,sans-Serif" font-size="11.00">varchar[3]</text>
<polygon fill="none" stroke="black" points="10,-123 10,-145 242,-145 242,-123 10,-123"/>
<text text-anchor="start" x="30" y="-131.2" font-family="Helvetica,sans-Serif" font-size="11.00">abbr_fr</text>
<polygon fill="none" stroke="black" points="242,-123 242,-145 320,-145 320,-123 242,-123"/>
<text text-anchor="start" x="245" y="-131.2" font-family="Helvetica,sans-Serif" font-size="11.00">varchar[3]</text>
<polygon fill="none" stroke="black" points="10,-101 10,-123 242,-123 242,-101 10,-101"/>
<text text-anchor="start" x="30" y="-109.2" font-family="Helvetica,sans-Serif" font-size="11.00">abbr_it</text>
<polygon fill="none" stroke="black" points="242,-101 242,-123 320,-123 320,-101 242,-101"/>
<text text-anchor="start" x="245" y="-109.2" font-family="Helvetica,sans-Serif" font-size="11.00">varchar[3]</text>
<polygon fill="none" stroke="black" points="10,-79 10,-101 242,-101 242,-79 10,-79"/>
<text text-anchor="start" x="30" y="-87.2" font-family="Helvetica,sans-Serif" font-size="11.00">abbr_ro</text>
<polygon fill="none" stroke="black" points="242,-79 242,-101 320,-101 320,-79 242,-79"/>
<text text-anchor="start" x="245" y="-87.2" font-family="Helvetica,sans-Serif" font-size="11.00">varchar[3]</text>
<polygon fill="none" stroke="black" points="10,-57 10,-79 242,-79 242,-57 10,-57"/>
<text text-anchor="start" x="30" y="-65.2" font-family="Helvetica,sans-Serif" font-size="11.00">active</text>
<polygon fill="none" stroke="black" points="242,-57 242,-79 320,-79 320,-57 242,-57"/>
<text text-anchor="start" x="245" y="-65.2" font-family="Helvetica,sans-Serif" font-size="11.00">bool[1]</text>
<polygon fill="#ffffff" stroke="transparent" points="10,-39 10,-57 320,-57 320,-39 10,-39"/>
<polygon fill="none" stroke="black" points="10,-39 10,-57 320,-57 320,-39 10,-39"/>
<polygon fill="#ffffff" stroke="transparent" points="11,-40 11,-56 118,-56 118,-40 11,-40"/>
<text text-anchor="start" x="13" y="-45.2" font-family="Helvetica,sans-Serif" font-size="11.00">&lt; 0</text>
<polygon fill="#ffffff" stroke="transparent" points="118,-40 118,-56 213,-56 213,-40 118,-40"/>
<text text-anchor="start" x="161.5" y="-45.2" font-family="Helvetica,sans-Serif" font-size="11.00"> &#160;</text>
<polygon fill="#ffffff" stroke="transparent" points="213,-40 213,-56 319,-56 319,-40 213,-40"/>
<text text-anchor="start" x="297" y="-45.2" font-family="Helvetica,sans-Serif" font-size="11.00">1 &gt;</text>
<polygon fill="black" stroke="black" points="118,-40 118,-56 118,-56 118,-40 118,-40"/>
<polygon fill="black" stroke="black" points="213,-40 213,-56 213,-56 213,-40 213,-40"/>
<polygon fill="none" stroke="black" stroke-width="2" points="9,-38 9,-366 321,-366 321,-38 9,-38"/>
</a>
</g>
</g>
<!-- tww_od.waste_water_treatment&#45;&gt;waste_water_treatment_kind -->
<g id="edge1" class="edge">
<title>tww_od.waste_water_treatment:w&#45;&gt;waste_water_treatment_kind:e</title>
<path fill="none" stroke="black" d="M355.84,-332C344.41,-332 337.16,-332 321,-332"/>
<polygon fill="black" stroke="black" points="362.5,-332 370.5,-335.6 366.5,-332 370.5,-332 370.5,-332 370.5,-332 366.5,-332 370.5,-328.4 362.5,-332 362.5,-332"/>
<ellipse fill="none" stroke="black" cx="359.3" cy="-332" rx="3.2" ry="3.2"/>
</g>
</g>
</svg>
