<?xml version="1.0" encoding="UTF-8" standalone="no"?>
<!DOCTYPE svg PUBLIC "-//W3C//DTD SVG 1.1//EN"
 "http://www.w3.org/Graphics/SVG/1.1/DTD/svg11.dtd">
<!-- Generated by graphviz version 2.43.0 (0)
 -->
<!-- Title: oneDegreeRelationshipsDiagram Pages: 1 -->
<svg width="792pt" height="379pt"
 viewBox="0.00 0.00 792.00 379.00" xmlns="http://www.w3.org/2000/svg" xmlns:xlink="http://www.w3.org/1999/xlink">
<g id="graph0" class="graph" transform="scale(1 1) rotate(0) translate(4 375)">
<title>oneDegreeRelationshipsDiagram</title>
<polygon fill="#ffffff" stroke="transparent" points="-4,4 -4,-375 788,-375 788,4 -4,4"/>
<text text-anchor="middle" x="79.5" y="-7.2" font-family="Helvetica,sans-Serif" font-size="11.00">Generated by SchemaSpy</text>
<!-- tww_od.wastewater_structure_symbol -->
<g id="node1" class="node">
<title>tww_od.wastewater_structure_symbol</title>
<g id="a_node1"><a xlink:href="../../../tww_od/tables/wastewater_structure_symbol.html" xlink:title="tww_od.wastewater_structure_symbol" target="_top">
<polygon fill="#ffffff" stroke="transparent" points="450,-285 450,-365 776,-365 776,-285 450,-285"/>
<polygon fill="#f5f5f5" stroke="transparent" points="450,-343 450,-365 776,-365 776,-343 450,-343"/>
<polygon fill="none" stroke="black" points="450,-343 450,-365 776,-365 776,-343 450,-343"/>
<text text-anchor="start" x="455" y="-352.2" font-family="Helvetica,sans-Serif" font-weight="bold" font-size="11.00">tww_od.wastewater_structure_symbol</text>
<text text-anchor="start" x="734" y="-351.2" font-family="Helvetica,sans-Serif" font-size="11.00">[table]</text>
<polygon fill="none" stroke="black" points="450,-321 450,-343 776,-343 776,-321 450,-321"/>
<image xlink:href="../../images/foreignKeys.png" width="11px" height="12px" preserveAspectRatio="xMinYMin meet" x="455" y="-338"/>
<text text-anchor="start" x="513" y="-329.2" font-family="Helvetica,sans-Serif" font-size="11.00">plantype</text>
<polygon fill="none" stroke="black" points="450,-303 450,-321 776,-321 776,-303 450,-303"/>
<text text-anchor="start" x="453" y="-309.2" font-family="Helvetica,sans-Serif" font-size="11.00">...</text>
<polygon fill="#ffffff" stroke="transparent" points="450,-285 450,-303 776,-303 776,-285 450,-285"/>
<polygon fill="none" stroke="black" points="450,-285 450,-303 776,-303 776,-285 450,-285"/>
<polygon fill="#ffffff" stroke="transparent" points="451,-286 451,-302 558,-302 558,-286 451,-286"/>
<text text-anchor="start" x="453" y="-291.2" font-family="Helvetica,sans-Serif" font-size="11.00">&lt; 1</text>
<polygon fill="#ffffff" stroke="transparent" points="558,-286 558,-302 681,-302 681,-286 558,-286"/>
<text text-anchor="start" x="601" y="-291.2" font-family="Helvetica,sans-Serif" font-size="11.00">0 rows</text>
<polygon fill="#ffffff" stroke="transparent" points="681,-286 681,-302 775,-302 775,-286 681,-286"/>
<text text-anchor="start" x="765" y="-291.2" font-family="Helvetica,sans-Serif" font-size="11.00"> &#160;</text>
<polygon fill="black" stroke="black" points="558,-286 558,-302 558,-302 558,-286 558,-286"/>
<polygon fill="black" stroke="black" points="681,-286 681,-302 681,-302 681,-286 681,-286"/>
</a>
</g>
</g>
<!-- wastewater_structure_symbol_plantype -->
<g id="node2" class="node">
<title>wastewater_structure_symbol_plantype</title>
<g id="a_node2"><a xlink:href="../../tables/wastewater_structure_symbol_plantype.html" xlink:title="wastewater_structure_symbol_plantype" target="_top">
<polygon fill="#ffffff" stroke="transparent" points="8,-37 8,-367 401,-367 401,-37 8,-37"/>
<polygon fill="#f5f5f5" stroke="transparent" points="10.5,-343 10.5,-365 399.5,-365 399.5,-343 10.5,-343"/>
<polygon fill="none" stroke="black" points="10.5,-343 10.5,-365 399.5,-365 399.5,-343 10.5,-343"/>
<text text-anchor="start" x="15.5" y="-352.2" font-family="Helvetica,sans-Serif" font-weight="bold" font-size="11.00">wastewater_structure_symbol_plantype</text>
<text text-anchor="start" x="357.5" y="-351.2" font-family="Helvetica,sans-Serif" font-size="11.00">[table]</text>
<polygon fill="none" stroke="black" points="10.5,-321 10.5,-343 321.5,-343 321.5,-321 10.5,-321"/>
<image xlink:href="../../images/primaryKeys.png" width="11px" height="12px" preserveAspectRatio="xMinYMin meet" x="15.5" y="-338"/>
<text text-anchor="start" x="30.5" y="-329.2" font-family="Helvetica,sans-Serif" font-size="11.00">code</text>
<polygon fill="none" stroke="black" points="321.5,-321 321.5,-343 399.5,-343 399.5,-321 321.5,-321"/>
<text text-anchor="start" x="324.5" y="-329.2" font-family="Helvetica,sans-Serif" font-size="11.00">int4[10]</text>
<polygon fill="none" stroke="black" points="10.5,-299 10.5,-321 321.5,-321 321.5,-299 10.5,-299"/>
<text text-anchor="start" x="30.5" y="-307.2" font-family="Helvetica,sans-Serif" font-size="11.00">vsacode</text>
<polygon fill="none" stroke="black" points="321.5,-299 321.5,-321 399.5,-321 399.5,-299 321.5,-299"/>
<text text-anchor="start" x="324.5" y="-307.2" font-family="Helvetica,sans-Serif" font-size="11.00">int4[10]</text>
<polygon fill="none" stroke="black" points="10.5,-277 10.5,-299 321.5,-299 321.5,-277 10.5,-277"/>
<text text-anchor="start" x="30.5" y="-285.2" font-family="Helvetica,sans-Serif" font-size="11.00">value_en</text>
<polygon fill="none" stroke="black" points="321.5,-277 321.5,-299 399.5,-299 399.5,-277 321.5,-277"/>
<text text-anchor="start" x="324.5" y="-285.2" font-family="Helvetica,sans-Serif" font-size="11.00">varchar[100]</text>
<polygon fill="none" stroke="black" points="10.5,-255 10.5,-277 321.5,-277 321.5,-255 10.5,-255"/>
<text text-anchor="start" x="30.5" y="-263.2" font-family="Helvetica,sans-Serif" font-size="11.00">value_de</text>
<polygon fill="none" stroke="black" points="321.5,-255 321.5,-277 399.5,-277 399.5,-255 321.5,-255"/>
<text text-anchor="start" x="324.5" y="-263.2" font-family="Helvetica,sans-Serif" font-size="11.00">varchar[100]</text>
<polygon fill="none" stroke="black" points="10.5,-233 10.5,-255 321.5,-255 321.5,-233 10.5,-233"/>
<text text-anchor="start" x="30.5" y="-241.2" font-family="Helvetica,sans-Serif" font-size="11.00">value_fr</text>
<polygon fill="none" stroke="black" points="321.5,-233 321.5,-255 399.5,-255 399.5,-233 321.5,-233"/>
<text text-anchor="start" x="324.5" y="-241.2" font-family="Helvetica,sans-Serif" font-size="11.00">varchar[100]</text>
<polygon fill="none" stroke="black" points="10.5,-211 10.5,-233 321.5,-233 321.5,-211 10.5,-211"/>
<text text-anchor="start" x="30.5" y="-219.2" font-family="Helvetica,sans-Serif" font-size="11.00">value_it</text>
<polygon fill="none" stroke="black" points="321.5,-211 321.5,-233 399.5,-233 399.5,-211 321.5,-211"/>
<text text-anchor="start" x="324.5" y="-219.2" font-family="Helvetica,sans-Serif" font-size="11.00">varchar[100]</text>
<polygon fill="none" stroke="black" points="10.5,-189 10.5,-211 321.5,-211 321.5,-189 10.5,-189"/>
<text text-anchor="start" x="30.5" y="-197.2" font-family="Helvetica,sans-Serif" font-size="11.00">value_ro</text>
<polygon fill="none" stroke="black" points="321.5,-189 321.5,-211 399.5,-211 399.5,-189 321.5,-189"/>
<text text-anchor="start" x="324.5" y="-197.2" font-family="Helvetica,sans-Serif" font-size="11.00">varchar[100]</text>
<polygon fill="none" stroke="black" points="10.5,-167 10.5,-189 321.5,-189 321.5,-167 10.5,-167"/>
<text text-anchor="start" x="30.5" y="-175.2" font-family="Helvetica,sans-Serif" font-size="11.00">abbr_en</text>
<polygon fill="none" stroke="black" points="321.5,-167 321.5,-189 399.5,-189 399.5,-167 321.5,-167"/>
<text text-anchor="start" x="324.5" y="-175.2" font-family="Helvetica,sans-Serif" font-size="11.00">varchar[3]</text>
<polygon fill="none" stroke="black" points="10.5,-145 10.5,-167 321.5,-167 321.5,-145 10.5,-145"/>
<text text-anchor="start" x="30.5" y="-153.2" font-family="Helvetica,sans-Serif" font-size="11.00">abbr_de</text>
<polygon fill="none" stroke="black" points="321.5,-145 321.5,-167 399.5,-167 399.5,-145 321.5,-145"/>
<text text-anchor="start" x="324.5" y="-153.2" font-family="Helvetica,sans-Serif" font-size="11.00">varchar[3]</text>
<polygon fill="none" stroke="black" points="10.5,-123 10.5,-145 321.5,-145 321.5,-123 10.5,-123"/>
<text text-anchor="start" x="30.5" y="-131.2" font-family="Helvetica,sans-Serif" font-size="11.00">abbr_fr</text>
<polygon fill="none" stroke="black" points="321.5,-123 321.5,-145 399.5,-145 399.5,-123 321.5,-123"/>
<text text-anchor="start" x="324.5" y="-131.2" font-family="Helvetica,sans-Serif" font-size="11.00">varchar[3]</text>
<polygon fill="none" stroke="black" points="10.5,-101 10.5,-123 321.5,-123 321.5,-101 10.5,-101"/>
<text text-anchor="start" x="30.5" y="-109.2" font-family="Helvetica,sans-Serif" font-size="11.00">abbr_it</text>
<polygon fill="none" stroke="black" points="321.5,-101 321.5,-123 399.5,-123 399.5,-101 321.5,-101"/>
<text text-anchor="start" x="324.5" y="-109.2" font-family="Helvetica,sans-Serif" font-size="11.00">varchar[3]</text>
<polygon fill="none" stroke="black" points="10.5,-79 10.5,-101 321.5,-101 321.5,-79 10.5,-79"/>
<text text-anchor="start" x="30.5" y="-87.2" font-family="Helvetica,sans-Serif" font-size="11.00">abbr_ro</text>
<polygon fill="none" stroke="black" points="321.5,-79 321.5,-101 399.5,-101 399.5,-79 321.5,-79"/>
<text text-anchor="start" x="324.5" y="-87.2" font-family="Helvetica,sans-Serif" font-size="11.00">varchar[3]</text>
<polygon fill="none" stroke="black" points="10.5,-57 10.5,-79 321.5,-79 321.5,-57 10.5,-57"/>
<text text-anchor="start" x="30.5" y="-65.2" font-family="Helvetica,sans-Serif" font-size="11.00">active</text>
<polygon fill="none" stroke="black" points="321.5,-57 321.5,-79 399.5,-79 399.5,-57 321.5,-57"/>
<text text-anchor="start" x="324.5" y="-65.2" font-family="Helvetica,sans-Serif" font-size="11.00">bool[1]</text>
<polygon fill="#ffffff" stroke="transparent" points="10.5,-39 10.5,-57 399.5,-57 399.5,-39 10.5,-39"/>
<polygon fill="none" stroke="black" points="10.5,-39 10.5,-57 399.5,-57 399.5,-39 10.5,-39"/>
<polygon fill="#ffffff" stroke="transparent" points="11.5,-40 11.5,-56 144.5,-56 144.5,-40 11.5,-40"/>
<text text-anchor="start" x="13.5" y="-45.2" font-family="Helvetica,sans-Serif" font-size="11.00">&lt; 0</text>
<polygon fill="#ffffff" stroke="transparent" points="144.5,-40 144.5,-56 265.5,-56 265.5,-40 144.5,-40"/>
<text text-anchor="start" x="201" y="-45.2" font-family="Helvetica,sans-Serif" font-size="11.00"> &#160;</text>
<polygon fill="#ffffff" stroke="transparent" points="265.5,-40 265.5,-56 398.5,-56 398.5,-40 265.5,-40"/>
<text text-anchor="start" x="376.5" y="-45.2" font-family="Helvetica,sans-Serif" font-size="11.00">1 &gt;</text>
<polygon fill="black" stroke="black" points="144.5,-40 144.5,-56 144.5,-56 144.5,-40 144.5,-40"/>
<polygon fill="black" stroke="black" points="265.5,-40 265.5,-56 265.5,-56 265.5,-40 265.5,-40"/>
<polygon fill="none" stroke="black" stroke-width="2" points="9,-38 9,-366 400,-366 400,-38 9,-38"/>
</a>
</g>
</g>
<!-- tww_od.wastewater_structure_symbol&#45;&gt;wastewater_structure_symbol_plantype -->
<g id="edge1" class="edge">
<title>tww_od.wastewater_structure_symbol:w&#45;&gt;wastewater_structure_symbol_plantype:e</title>
<path fill="none" stroke="black" d="M434.28,-332C423.29,-332 416.16,-332 400.5,-332"/>
<polygon fill="black" stroke="black" points="441,-332 449,-335.6 445,-332 449,-332 449,-332 449,-332 445,-332 449,-328.4 441,-332 441,-332"/>
<ellipse fill="none" stroke="black" cx="437.8" cy="-332" rx="3.2" ry="3.2"/>
</g>
</g>
</svg>
