<?xml version="1.0" encoding="UTF-8" standalone="no"?>
<!DOCTYPE svg PUBLIC "-//W3C//DTD SVG 1.1//EN"
 "http://www.w3.org/Graphics/SVG/1.1/DTD/svg11.dtd">
<!-- Generated by graphviz version 2.43.0 (0)
 -->
<!-- Title: oneDegreeRelationshipsDiagram Pages: 1 -->
<svg width="683pt" height="729pt"
 viewBox="0.00 0.00 683.00 729.00" xmlns="http://www.w3.org/2000/svg" xmlns:xlink="http://www.w3.org/1999/xlink">
<g id="graph0" class="graph" transform="scale(1 1) rotate(0) translate(4 725)">
<title>oneDegreeRelationshipsDiagram</title>
<polygon fill="#ffffff" stroke="transparent" points="-4,4 -4,-725 679,-725 679,4 -4,4"/>
<text text-anchor="middle" x="79.5" y="-7.2" font-family="Helvetica,sans-Serif" font-size="11.00">Generated by SchemaSpy</text>
<!-- tww_od.wastewater_structure -->
<g id="node1" class="node">
<title>tww_od.wastewater_structure</title>
<g id="a_node1"><a xlink:href="../../../tww_od/tables/wastewater_structure.html" xlink:title="tww_od.wastewater_structure" target="_top">
<polygon fill="#ffffff" stroke="transparent" points="400,-505 400,-717 667,-717 667,-505 400,-505"/>
<polygon fill="#f5f5f5" stroke="transparent" points="400.5,-695 400.5,-717 667.5,-717 667.5,-695 400.5,-695"/>
<polygon fill="none" stroke="black" points="400.5,-695 400.5,-717 667.5,-717 667.5,-695 400.5,-695"/>
<text text-anchor="start" x="405.5" y="-704.2" font-family="Helvetica,sans-Serif" font-weight="bold" font-size="11.00">tww_od.wastewater_structure</text>
<text text-anchor="start" x="625.5" y="-703.2" font-family="Helvetica,sans-Serif" font-size="11.00">[table]</text>
<polygon fill="none" stroke="black" points="400.5,-673 400.5,-695 667.5,-695 667.5,-673 400.5,-673"/>
<image xlink:href="../../images/foreignKeys.png" width="11px" height="12px" preserveAspectRatio="xMinYMin meet" x="405.5" y="-690"/>
<text text-anchor="start" x="436.5" y="-681.2" font-family="Helvetica,sans-Serif" font-size="11.00">accessibility</text>
<polygon fill="none" stroke="black" points="400.5,-651 400.5,-673 667.5,-673 667.5,-651 400.5,-651"/>
<image xlink:href="../../images/foreignKeys.png" width="11px" height="12px" preserveAspectRatio="xMinYMin meet" x="405.5" y="-668"/>
<text text-anchor="start" x="436.5" y="-659.2" font-family="Helvetica,sans-Serif" font-size="11.00">elevation_determination</text>
<polygon fill="none" stroke="black" points="400.5,-629 400.5,-651 667.5,-651 667.5,-629 400.5,-629"/>
<image xlink:href="../../images/foreignKeys.png" width="11px" height="12px" preserveAspectRatio="xMinYMin meet" x="405.5" y="-646"/>
<text text-anchor="start" x="436.5" y="-637.2" font-family="Helvetica,sans-Serif" font-size="11.00">financing</text>
<polygon fill="none" stroke="black" points="400.5,-607 400.5,-629 667.5,-629 667.5,-607 400.5,-607"/>
<image xlink:href="../../images/foreignKeys.png" width="11px" height="12px" preserveAspectRatio="xMinYMin meet" x="405.5" y="-624"/>
<text text-anchor="start" x="436.5" y="-615.2" font-family="Helvetica,sans-Serif" font-size="11.00">renovation_necessity</text>
<polygon fill="none" stroke="black" points="400.5,-585 400.5,-607 667.5,-607 667.5,-585 400.5,-585"/>
<image xlink:href="../../images/foreignKeys.png" width="11px" height="12px" preserveAspectRatio="xMinYMin meet" x="405.5" y="-602"/>
<text text-anchor="start" x="436.5" y="-593.2" font-family="Helvetica,sans-Serif" font-size="11.00">rv_construction_type</text>
<polygon fill="none" stroke="black" points="400.5,-563 400.5,-585 667.5,-585 667.5,-563 400.5,-563"/>
<image xlink:href="../../images/foreignKeys.png" width="11px" height="12px" preserveAspectRatio="xMinYMin meet" x="405.5" y="-580"/>
<text text-anchor="start" x="436.5" y="-571.2" font-family="Helvetica,sans-Serif" font-size="11.00">status</text>
<polygon fill="none" stroke="black" points="400.5,-541 400.5,-563 667.5,-563 667.5,-541 400.5,-541"/>
<image xlink:href="../../images/foreignKeys.png" width="11px" height="12px" preserveAspectRatio="xMinYMin meet" x="405.5" y="-558"/>
<text text-anchor="start" x="436.5" y="-549.2" font-family="Helvetica,sans-Serif" font-size="11.00">structure_condition</text>
<polygon fill="none" stroke="black" points="400.5,-523 400.5,-541 667.5,-541 667.5,-523 400.5,-523"/>
<text text-anchor="start" x="403.5" y="-529.2" font-family="Helvetica,sans-Serif" font-size="11.00">...</text>
<polygon fill="#ffffff" stroke="transparent" points="400.5,-505 400.5,-523 667.5,-523 667.5,-505 400.5,-505"/>
<polygon fill="none" stroke="black" points="400.5,-505 400.5,-523 667.5,-523 667.5,-505 400.5,-505"/>
<polygon fill="#ffffff" stroke="transparent" points="401.5,-506 401.5,-522 488.5,-522 488.5,-506 401.5,-506"/>
<text text-anchor="start" x="403.5" y="-511.2" font-family="Helvetica,sans-Serif" font-size="11.00">&lt; 7</text>
<polygon fill="#ffffff" stroke="transparent" points="488.5,-506 488.5,-522 592.5,-522 592.5,-506 488.5,-506"/>
<text text-anchor="start" x="522" y="-511.2" font-family="Helvetica,sans-Serif" font-size="11.00">0 rows</text>
<polygon fill="#ffffff" stroke="transparent" points="592.5,-506 592.5,-522 666.5,-522 666.5,-506 592.5,-506"/>
<text text-anchor="start" x="656.5" y="-511.2" font-family="Helvetica,sans-Serif" font-size="11.00"> &#160;</text>
<polygon fill="black" stroke="black" points="488.5,-506 488.5,-522 488.5,-522 488.5,-506 488.5,-506"/>
<polygon fill="black" stroke="black" points="592.5,-506 592.5,-522 592.5,-522 592.5,-506 592.5,-506"/>
</a>
</g>
</g>
<!-- wastewater_structure_status -->
<g id="node2" class="node">
<title>wastewater_structure_status</title>
<g id="a_node2"><a xlink:href="../../tables/wastewater_structure_status.html" xlink:title="wastewater_structure_status" target="_top">
<polygon fill="#ffffff" stroke="transparent" points="8,-37 8,-609 351,-609 351,-37 8,-37"/>
<polygon fill="#f5f5f5" stroke="transparent" points="10.5,-585 10.5,-607 349.5,-607 349.5,-585 10.5,-585"/>
<polygon fill="none" stroke="black" points="10.5,-585 10.5,-607 349.5,-607 349.5,-585 10.5,-585"/>
<text text-anchor="start" x="15.5" y="-594.2" font-family="Helvetica,sans-Serif" font-weight="bold" font-size="11.00">wastewater_structure_status</text>
<text text-anchor="start" x="307.5" y="-593.2" font-family="Helvetica,sans-Serif" font-size="11.00">[table]</text>
<polygon fill="none" stroke="black" points="10.5,-563 10.5,-585 243.5,-585 243.5,-563 10.5,-563"/>
<image xlink:href="../../images/primaryKeys.png" width="11px" height="12px" preserveAspectRatio="xMinYMin meet" x="15.5" y="-580"/>
<text text-anchor="start" x="30.5" y="-571.2" font-family="Helvetica,sans-Serif" font-size="11.00">code</text>
<polygon fill="none" stroke="black" points="243.5,-563 243.5,-585 349.5,-585 349.5,-563 243.5,-563"/>
<text text-anchor="start" x="246.5" y="-571.2" font-family="Helvetica,sans-Serif" font-size="11.00">int4[10]</text>
<polygon fill="none" stroke="black" points="10.5,-541 10.5,-563 243.5,-563 243.5,-541 10.5,-541"/>
<text text-anchor="start" x="30.5" y="-549.2" font-family="Helvetica,sans-Serif" font-size="11.00">vsacode</text>
<polygon fill="none" stroke="black" points="243.5,-541 243.5,-563 349.5,-563 349.5,-541 243.5,-541"/>
<text text-anchor="start" x="246.5" y="-549.2" font-family="Helvetica,sans-Serif" font-size="11.00">int4[10]</text>
<polygon fill="none" stroke="black" points="10.5,-519 10.5,-541 243.5,-541 243.5,-519 10.5,-519"/>
<text text-anchor="start" x="30.5" y="-527.2" font-family="Helvetica,sans-Serif" font-size="11.00">value_en</text>
<polygon fill="none" stroke="black" points="243.5,-519 243.5,-541 349.5,-541 349.5,-519 243.5,-519"/>
<text text-anchor="start" x="246.5" y="-527.2" font-family="Helvetica,sans-Serif" font-size="11.00">varchar[100]</text>
<polygon fill="none" stroke="black" points="10.5,-497 10.5,-519 243.5,-519 243.5,-497 10.5,-497"/>
<text text-anchor="start" x="30.5" y="-505.2" font-family="Helvetica,sans-Serif" font-size="11.00">value_de</text>
<polygon fill="none" stroke="black" points="243.5,-497 243.5,-519 349.5,-519 349.5,-497 243.5,-497"/>
<text text-anchor="start" x="246.5" y="-505.2" font-family="Helvetica,sans-Serif" font-size="11.00">varchar[100]</text>
<polygon fill="none" stroke="black" points="10.5,-475 10.5,-497 243.5,-497 243.5,-475 10.5,-475"/>
<text text-anchor="start" x="30.5" y="-483.2" font-family="Helvetica,sans-Serif" font-size="11.00">value_fr</text>
<polygon fill="none" stroke="black" points="243.5,-475 243.5,-497 349.5,-497 349.5,-475 243.5,-475"/>
<text text-anchor="start" x="246.5" y="-483.2" font-family="Helvetica,sans-Serif" font-size="11.00">varchar[100]</text>
<polygon fill="none" stroke="black" points="10.5,-453 10.5,-475 243.5,-475 243.5,-453 10.5,-453"/>
<text text-anchor="start" x="30.5" y="-461.2" font-family="Helvetica,sans-Serif" font-size="11.00">value_it</text>
<polygon fill="none" stroke="black" points="243.5,-453 243.5,-475 349.5,-475 349.5,-453 243.5,-453"/>
<text text-anchor="start" x="246.5" y="-461.2" font-family="Helvetica,sans-Serif" font-size="11.00">varchar[100]</text>
<polygon fill="none" stroke="black" points="10.5,-431 10.5,-453 243.5,-453 243.5,-431 10.5,-431"/>
<text text-anchor="start" x="30.5" y="-439.2" font-family="Helvetica,sans-Serif" font-size="11.00">value_ro</text>
<polygon fill="none" stroke="black" points="243.5,-431 243.5,-453 349.5,-453 349.5,-431 243.5,-431"/>
<text text-anchor="start" x="246.5" y="-439.2" font-family="Helvetica,sans-Serif" font-size="11.00">varchar[100]</text>
<polygon fill="none" stroke="black" points="10.5,-409 10.5,-431 243.5,-431 243.5,-409 10.5,-409"/>
<text text-anchor="start" x="30.5" y="-417.2" font-family="Helvetica,sans-Serif" font-size="11.00">abbr_en</text>
<polygon fill="none" stroke="black" points="243.5,-409 243.5,-431 349.5,-431 349.5,-409 243.5,-409"/>
<text text-anchor="start" x="246.5" y="-417.2" font-family="Helvetica,sans-Serif" font-size="11.00">varchar[3]</text>
<polygon fill="none" stroke="black" points="10.5,-387 10.5,-409 243.5,-409 243.5,-387 10.5,-387"/>
<text text-anchor="start" x="30.5" y="-395.2" font-family="Helvetica,sans-Serif" font-size="11.00">abbr_de</text>
<polygon fill="none" stroke="black" points="243.5,-387 243.5,-409 349.5,-409 349.5,-387 243.5,-387"/>
<text text-anchor="start" x="246.5" y="-395.2" font-family="Helvetica,sans-Serif" font-size="11.00">varchar[3]</text>
<polygon fill="none" stroke="black" points="10.5,-365 10.5,-387 243.5,-387 243.5,-365 10.5,-365"/>
<text text-anchor="start" x="30.5" y="-373.2" font-family="Helvetica,sans-Serif" font-size="11.00">abbr_fr</text>
<polygon fill="none" stroke="black" points="243.5,-365 243.5,-387 349.5,-387 349.5,-365 243.5,-365"/>
<text text-anchor="start" x="246.5" y="-373.2" font-family="Helvetica,sans-Serif" font-size="11.00">varchar[3]</text>
<polygon fill="none" stroke="black" points="10.5,-343 10.5,-365 243.5,-365 243.5,-343 10.5,-343"/>
<text text-anchor="start" x="30.5" y="-351.2" font-family="Helvetica,sans-Serif" font-size="11.00">abbr_it</text>
<polygon fill="none" stroke="black" points="243.5,-343 243.5,-365 349.5,-365 349.5,-343 243.5,-343"/>
<text text-anchor="start" x="246.5" y="-351.2" font-family="Helvetica,sans-Serif" font-size="11.00">varchar[3]</text>
<polygon fill="none" stroke="black" points="10.5,-321 10.5,-343 243.5,-343 243.5,-321 10.5,-321"/>
<text text-anchor="start" x="30.5" y="-329.2" font-family="Helvetica,sans-Serif" font-size="11.00">abbr_ro</text>
<polygon fill="none" stroke="black" points="243.5,-321 243.5,-343 349.5,-343 349.5,-321 243.5,-321"/>
<text text-anchor="start" x="246.5" y="-329.2" font-family="Helvetica,sans-Serif" font-size="11.00">varchar[3]</text>
<polygon fill="none" stroke="black" points="10.5,-299 10.5,-321 243.5,-321 243.5,-299 10.5,-299"/>
<text text-anchor="start" x="30.5" y="-307.2" font-family="Helvetica,sans-Serif" font-size="11.00">active</text>
<polygon fill="none" stroke="black" points="243.5,-299 243.5,-321 349.5,-321 349.5,-299 243.5,-299"/>
<text text-anchor="start" x="246.5" y="-307.2" font-family="Helvetica,sans-Serif" font-size="11.00">bool[1]</text>
<polygon fill="none" stroke="black" points="10.5,-277 10.5,-299 243.5,-299 243.5,-277 10.5,-277"/>
<text text-anchor="start" x="30.5" y="-285.2" font-family="Helvetica,sans-Serif" font-size="11.00">description_en</text>
<polygon fill="none" stroke="black" points="243.5,-277 243.5,-299 349.5,-299 349.5,-277 243.5,-277"/>
<text text-anchor="start" x="246.5" y="-285.2" font-family="Helvetica,sans-Serif" font-size="11.00">text[2147483647]</text>
<polygon fill="none" stroke="black" points="10.5,-255 10.5,-277 243.5,-277 243.5,-255 10.5,-255"/>
<text text-anchor="start" x="30.5" y="-263.2" font-family="Helvetica,sans-Serif" font-size="11.00">description_de</text>
<polygon fill="none" stroke="black" points="243.5,-255 243.5,-277 349.5,-277 349.5,-255 243.5,-255"/>
<text text-anchor="start" x="246.5" y="-263.2" font-family="Helvetica,sans-Serif" font-size="11.00">text[2147483647]</text>
<polygon fill="none" stroke="black" points="10.5,-233 10.5,-255 243.5,-255 243.5,-233 10.5,-233"/>
<text text-anchor="start" x="30.5" y="-241.2" font-family="Helvetica,sans-Serif" font-size="11.00">description_fr</text>
<polygon fill="none" stroke="black" points="243.5,-233 243.5,-255 349.5,-255 349.5,-233 243.5,-233"/>
<text text-anchor="start" x="246.5" y="-241.2" font-family="Helvetica,sans-Serif" font-size="11.00">text[2147483647]</text>
<polygon fill="none" stroke="black" points="10.5,-211 10.5,-233 243.5,-233 243.5,-211 10.5,-211"/>
<text text-anchor="start" x="30.5" y="-219.2" font-family="Helvetica,sans-Serif" font-size="11.00">description_it</text>
<polygon fill="none" stroke="black" points="243.5,-211 243.5,-233 349.5,-233 349.5,-211 243.5,-211"/>
<text text-anchor="start" x="246.5" y="-219.2" font-family="Helvetica,sans-Serif" font-size="11.00">text[2147483647]</text>
<polygon fill="none" stroke="black" points="10.5,-189 10.5,-211 243.5,-211 243.5,-189 10.5,-189"/>
<text text-anchor="start" x="30.5" y="-197.2" font-family="Helvetica,sans-Serif" font-size="11.00">description_ro</text>
<polygon fill="none" stroke="black" points="243.5,-189 243.5,-211 349.5,-211 349.5,-189 243.5,-189"/>
<text text-anchor="start" x="246.5" y="-197.2" font-family="Helvetica,sans-Serif" font-size="11.00">text[2147483647]</text>
<polygon fill="none" stroke="black" points="10.5,-167 10.5,-189 243.5,-189 243.5,-167 10.5,-167"/>
<text text-anchor="start" x="30.5" y="-175.2" font-family="Helvetica,sans-Serif" font-size="11.00">display_en</text>
<polygon fill="none" stroke="black" points="243.5,-167 243.5,-189 349.5,-189 349.5,-167 243.5,-167"/>
<text text-anchor="start" x="246.5" y="-175.2" font-family="Helvetica,sans-Serif" font-size="11.00">varchar[100]</text>
<polygon fill="none" stroke="black" points="10.5,-145 10.5,-167 243.5,-167 243.5,-145 10.5,-145"/>
<text text-anchor="start" x="30.5" y="-153.2" font-family="Helvetica,sans-Serif" font-size="11.00">display_de</text>
<polygon fill="none" stroke="black" points="243.5,-145 243.5,-167 349.5,-167 349.5,-145 243.5,-145"/>
<text text-anchor="start" x="246.5" y="-153.2" font-family="Helvetica,sans-Serif" font-size="11.00">varchar[100]</text>
<polygon fill="none" stroke="black" points="10.5,-123 10.5,-145 243.5,-145 243.5,-123 10.5,-123"/>
<text text-anchor="start" x="30.5" y="-131.2" font-family="Helvetica,sans-Serif" font-size="11.00">display_fr</text>
<polygon fill="none" stroke="black" points="243.5,-123 243.5,-145 349.5,-145 349.5,-123 243.5,-123"/>
<text text-anchor="start" x="246.5" y="-131.2" font-family="Helvetica,sans-Serif" font-size="11.00">varchar[100]</text>
<polygon fill="none" stroke="black" points="10.5,-101 10.5,-123 243.5,-123 243.5,-101 10.5,-101"/>
<text text-anchor="start" x="30.5" y="-109.2" font-family="Helvetica,sans-Serif" font-size="11.00">display_it</text>
<polygon fill="none" stroke="black" points="243.5,-101 243.5,-123 349.5,-123 349.5,-101 243.5,-101"/>
<text text-anchor="start" x="246.5" y="-109.2" font-family="Helvetica,sans-Serif" font-size="11.00">varchar[100]</text>
<polygon fill="none" stroke="black" points="10.5,-79 10.5,-101 243.5,-101 243.5,-79 10.5,-79"/>
<text text-anchor="start" x="30.5" y="-87.2" font-family="Helvetica,sans-Serif" font-size="11.00">display_ro</text>
<polygon fill="none" stroke="black" points="243.5,-79 243.5,-101 349.5,-101 349.5,-79 243.5,-79"/>
<text text-anchor="start" x="246.5" y="-87.2" font-family="Helvetica,sans-Serif" font-size="11.00">varchar[100]</text>
<polygon fill="none" stroke="black" points="10.5,-57 10.5,-79 243.5,-79 243.5,-57 10.5,-57"/>
<text text-anchor="start" x="30.5" y="-65.2" font-family="Helvetica,sans-Serif" font-size="11.00">tww_use_in_labels</text>
<polygon fill="none" stroke="black" points="243.5,-57 243.5,-79 349.5,-79 349.5,-57 243.5,-57"/>
<text text-anchor="start" x="246.5" y="-65.2" font-family="Helvetica,sans-Serif" font-size="11.00">bool[1]</text>
<polygon fill="#ffffff" stroke="transparent" points="10.5,-39 10.5,-57 349.5,-57 349.5,-39 10.5,-39"/>
<polygon fill="none" stroke="black" points="10.5,-39 10.5,-57 349.5,-57 349.5,-39 10.5,-39"/>
<polygon fill="#ffffff" stroke="transparent" points="11.5,-40 11.5,-56 128.5,-56 128.5,-40 11.5,-40"/>
<text text-anchor="start" x="13.5" y="-45.2" font-family="Helvetica,sans-Serif" font-size="11.00">&lt; 0</text>
<polygon fill="#ffffff" stroke="transparent" points="128.5,-40 128.5,-56 232.5,-56 232.5,-40 128.5,-40"/>
<text text-anchor="start" x="176.5" y="-45.2" font-family="Helvetica,sans-Serif" font-size="11.00"> &#160;</text>
<polygon fill="#ffffff" stroke="transparent" points="232.5,-40 232.5,-56 348.5,-56 348.5,-40 232.5,-40"/>
<text text-anchor="start" x="326.5" y="-45.2" font-family="Helvetica,sans-Serif" font-size="11.00">1 &gt;</text>
<polygon fill="black" stroke="black" points="128.5,-40 128.5,-56 128.5,-56 128.5,-40 128.5,-40"/>
<polygon fill="black" stroke="black" points="232.5,-40 232.5,-56 232.5,-56 232.5,-40 232.5,-40"/>
<polygon fill="none" stroke="black" stroke-width="2" points="9,-38 9,-608 350,-608 350,-38 9,-38"/>
</a>
</g>
</g>
<!-- tww_od.wastewater_structure&#45;&gt;wastewater_structure_status -->
<g id="edge1" class="edge">
<title>tww_od.wastewater_structure:w&#45;&gt;wastewater_structure_status:e</title>
<path fill="none" stroke="black" d="M384.99,-574C373.68,-574 366.49,-574 350.5,-574"/>
<polygon fill="black" stroke="black" points="391.5,-574 399.5,-577.6 395.5,-574 399.5,-574 399.5,-574 399.5,-574 395.5,-574 399.5,-570.4 391.5,-574 391.5,-574"/>
<ellipse fill="none" stroke="black" cx="388.3" cy="-574" rx="3.2" ry="3.2"/>
</g>
</g>
</svg>
