<?xml version="1.0" encoding="UTF-8" standalone="no"?>
<!DOCTYPE svg PUBLIC "-//W3C//DTD SVG 1.1//EN"
 "http://www.w3.org/Graphics/SVG/1.1/DTD/svg11.dtd">
<!-- Generated by graphviz version 2.43.0 (0)
 -->
<!-- Title: oneDegreeRelationshipsDiagram Pages: 1 -->
<svg width="690pt" height="399pt"
 viewBox="0.00 0.00 690.00 399.00" xmlns="http://www.w3.org/2000/svg" xmlns:xlink="http://www.w3.org/1999/xlink">
<g id="graph0" class="graph" transform="scale(1 1) rotate(0) translate(4 395)">
<title>oneDegreeRelationshipsDiagram</title>
<polygon fill="#ffffff" stroke="transparent" points="-4,4 -4,-395 686,-395 686,4 -4,4"/>
<text text-anchor="middle" x="79.5" y="-7.2" font-family="Helvetica,sans-Serif" font-size="11.00">Generated by SchemaSpy</text>
<!-- tww_od.agxx_wastewater_node -->
<g id="node1" class="node">
<title>tww_od.agxx_wastewater_node</title>
<g id="a_node1"><a xlink:href="../../../tww_od/tables/agxx_wastewater_node.html" xlink:title="tww_od.agxx_wastewater_node" target="_top">
<polygon fill="#ffffff" stroke="transparent" points="398,-285 398,-387 674,-387 674,-285 398,-285"/>
<polygon fill="#f5f5f5" stroke="transparent" points="398,-365 398,-387 674,-387 674,-365 398,-365"/>
<polygon fill="none" stroke="black" points="398,-365 398,-387 674,-387 674,-365 398,-365"/>
<text text-anchor="start" x="403" y="-374.2" font-family="Helvetica,sans-Serif" font-weight="bold" font-size="11.00">tww_od.agxx_wastewater_node</text>
<text text-anchor="start" x="632" y="-373.2" font-family="Helvetica,sans-Serif" font-size="11.00">[table]</text>
<polygon fill="none" stroke="black" points="398,-343 398,-365 674,-365 674,-343 398,-343"/>
<image xlink:href="../../images/foreignKeys.png" width="11px" height="12px" preserveAspectRatio="xMinYMin meet" x="403" y="-360"/>
<text text-anchor="start" x="461" y="-351.2" font-family="Helvetica,sans-Serif" font-size="11.00">ag96_is_gateway</text>
<polygon fill="none" stroke="black" points="398,-321 398,-343 674,-343 674,-321 398,-321"/>
<image xlink:href="../../images/foreignKeys.png" width="11px" height="12px" preserveAspectRatio="xMinYMin meet" x="403" y="-338"/>
<text text-anchor="start" x="461" y="-329.2" font-family="Helvetica,sans-Serif" font-size="11.00">ag64_function</text>
<polygon fill="none" stroke="black" points="398,-303 398,-321 674,-321 674,-303 398,-303"/>
<text text-anchor="start" x="401" y="-309.2" font-family="Helvetica,sans-Serif" font-size="11.00">...</text>
<polygon fill="#ffffff" stroke="transparent" points="398,-285 398,-303 674,-303 674,-285 398,-285"/>
<polygon fill="none" stroke="black" points="398,-285 398,-303 674,-303 674,-285 398,-285"/>
<polygon fill="#ffffff" stroke="transparent" points="399,-286 399,-302 489,-302 489,-286 399,-286"/>
<text text-anchor="start" x="401" y="-291.2" font-family="Helvetica,sans-Serif" font-size="11.00">&lt; 2</text>
<polygon fill="#ffffff" stroke="transparent" points="489,-286 489,-302 596,-302 596,-286 489,-286"/>
<text text-anchor="start" x="524" y="-291.2" font-family="Helvetica,sans-Serif" font-size="11.00">0 rows</text>
<polygon fill="#ffffff" stroke="transparent" points="596,-286 596,-302 673,-302 673,-286 596,-286"/>
<text text-anchor="start" x="663" y="-291.2" font-family="Helvetica,sans-Serif" font-size="11.00"> &#160;</text>
<polygon fill="black" stroke="black" points="489,-286 489,-302 489,-302 489,-286 489,-286"/>
<polygon fill="black" stroke="black" points="596,-286 596,-302 596,-302 596,-286 596,-286"/>
</a>
</g>
</g>
<!-- wastewater_node_ag64_function -->
<g id="node2" class="node">
<title>wastewater_node_ag64_function</title>
<g id="a_node2"><a xlink:href="../../tables/wastewater_node_ag64_function.html" xlink:title="wastewater_node_ag64_function" target="_top">
<polygon fill="#ffffff" stroke="transparent" points="8,-37 8,-367 349,-367 349,-37 8,-37"/>
<polygon fill="#f5f5f5" stroke="transparent" points="10.5,-343 10.5,-365 347.5,-365 347.5,-343 10.5,-343"/>
<polygon fill="none" stroke="black" points="10.5,-343 10.5,-365 347.5,-365 347.5,-343 10.5,-343"/>
<text text-anchor="start" x="15.5" y="-352.2" font-family="Helvetica,sans-Serif" font-weight="bold" font-size="11.00">wastewater_node_ag64_function</text>
<text text-anchor="start" x="305.5" y="-351.2" font-family="Helvetica,sans-Serif" font-size="11.00">[table]</text>
<polygon fill="none" stroke="black" points="10.5,-321 10.5,-343 269.5,-343 269.5,-321 10.5,-321"/>
<image xlink:href="../../images/primaryKeys.png" width="11px" height="12px" preserveAspectRatio="xMinYMin meet" x="15.5" y="-338"/>
<text text-anchor="start" x="30.5" y="-329.2" font-family="Helvetica,sans-Serif" font-size="11.00">code</text>
<polygon fill="none" stroke="black" points="269.5,-321 269.5,-343 347.5,-343 347.5,-321 269.5,-321"/>
<text text-anchor="start" x="272.5" y="-329.2" font-family="Helvetica,sans-Serif" font-size="11.00">int4[10]</text>
<polygon fill="none" stroke="black" points="10.5,-299 10.5,-321 269.5,-321 269.5,-299 10.5,-299"/>
<text text-anchor="start" x="30.5" y="-307.2" font-family="Helvetica,sans-Serif" font-size="11.00">vsacode</text>
<polygon fill="none" stroke="black" points="269.5,-299 269.5,-321 347.5,-321 347.5,-299 269.5,-299"/>
<text text-anchor="start" x="272.5" y="-307.2" font-family="Helvetica,sans-Serif" font-size="11.00">int4[10]</text>
<polygon fill="none" stroke="black" points="10.5,-277 10.5,-299 269.5,-299 269.5,-277 10.5,-277"/>
<text text-anchor="start" x="30.5" y="-285.2" font-family="Helvetica,sans-Serif" font-size="11.00">value_en</text>
<polygon fill="none" stroke="black" points="269.5,-277 269.5,-299 347.5,-299 347.5,-277 269.5,-277"/>
<text text-anchor="start" x="272.5" y="-285.2" font-family="Helvetica,sans-Serif" font-size="11.00">varchar[100]</text>
<polygon fill="none" stroke="black" points="10.5,-255 10.5,-277 269.5,-277 269.5,-255 10.5,-255"/>
<text text-anchor="start" x="30.5" y="-263.2" font-family="Helvetica,sans-Serif" font-size="11.00">value_de</text>
<polygon fill="none" stroke="black" points="269.5,-255 269.5,-277 347.5,-277 347.5,-255 269.5,-255"/>
<text text-anchor="start" x="272.5" y="-263.2" font-family="Helvetica,sans-Serif" font-size="11.00">varchar[100]</text>
<polygon fill="none" stroke="black" points="10.5,-233 10.5,-255 269.5,-255 269.5,-233 10.5,-233"/>
<text text-anchor="start" x="30.5" y="-241.2" font-family="Helvetica,sans-Serif" font-size="11.00">value_fr</text>
<polygon fill="none" stroke="black" points="269.5,-233 269.5,-255 347.5,-255 347.5,-233 269.5,-233"/>
<text text-anchor="start" x="272.5" y="-241.2" font-family="Helvetica,sans-Serif" font-size="11.00">varchar[100]</text>
<polygon fill="none" stroke="black" points="10.5,-211 10.5,-233 269.5,-233 269.5,-211 10.5,-211"/>
<text text-anchor="start" x="30.5" y="-219.2" font-family="Helvetica,sans-Serif" font-size="11.00">value_it</text>
<polygon fill="none" stroke="black" points="269.5,-211 269.5,-233 347.5,-233 347.5,-211 269.5,-211"/>
<text text-anchor="start" x="272.5" y="-219.2" font-family="Helvetica,sans-Serif" font-size="11.00">varchar[100]</text>
<polygon fill="none" stroke="black" points="10.5,-189 10.5,-211 269.5,-211 269.5,-189 10.5,-189"/>
<text text-anchor="start" x="30.5" y="-197.2" font-family="Helvetica,sans-Serif" font-size="11.00">value_ro</text>
<polygon fill="none" stroke="black" points="269.5,-189 269.5,-211 347.5,-211 347.5,-189 269.5,-189"/>
<text text-anchor="start" x="272.5" y="-197.2" font-family="Helvetica,sans-Serif" font-size="11.00">varchar[100]</text>
<polygon fill="none" stroke="black" points="10.5,-167 10.5,-189 269.5,-189 269.5,-167 10.5,-167"/>
<text text-anchor="start" x="30.5" y="-175.2" font-family="Helvetica,sans-Serif" font-size="11.00">abbr_en</text>
<polygon fill="none" stroke="black" points="269.5,-167 269.5,-189 347.5,-189 347.5,-167 269.5,-167"/>
<text text-anchor="start" x="272.5" y="-175.2" font-family="Helvetica,sans-Serif" font-size="11.00">varchar[3]</text>
<polygon fill="none" stroke="black" points="10.5,-145 10.5,-167 269.5,-167 269.5,-145 10.5,-145"/>
<text text-anchor="start" x="30.5" y="-153.2" font-family="Helvetica,sans-Serif" font-size="11.00">abbr_de</text>
<polygon fill="none" stroke="black" points="269.5,-145 269.5,-167 347.5,-167 347.5,-145 269.5,-145"/>
<text text-anchor="start" x="272.5" y="-153.2" font-family="Helvetica,sans-Serif" font-size="11.00">varchar[3]</text>
<polygon fill="none" stroke="black" points="10.5,-123 10.5,-145 269.5,-145 269.5,-123 10.5,-123"/>
<text text-anchor="start" x="30.5" y="-131.2" font-family="Helvetica,sans-Serif" font-size="11.00">abbr_fr</text>
<polygon fill="none" stroke="black" points="269.5,-123 269.5,-145 347.5,-145 347.5,-123 269.5,-123"/>
<text text-anchor="start" x="272.5" y="-131.2" font-family="Helvetica,sans-Serif" font-size="11.00">varchar[3]</text>
<polygon fill="none" stroke="black" points="10.5,-101 10.5,-123 269.5,-123 269.5,-101 10.5,-101"/>
<text text-anchor="start" x="30.5" y="-109.2" font-family="Helvetica,sans-Serif" font-size="11.00">abbr_it</text>
<polygon fill="none" stroke="black" points="269.5,-101 269.5,-123 347.5,-123 347.5,-101 269.5,-101"/>
<text text-anchor="start" x="272.5" y="-109.2" font-family="Helvetica,sans-Serif" font-size="11.00">varchar[3]</text>
<polygon fill="none" stroke="black" points="10.5,-79 10.5,-101 269.5,-101 269.5,-79 10.5,-79"/>
<text text-anchor="start" x="30.5" y="-87.2" font-family="Helvetica,sans-Serif" font-size="11.00">abbr_ro</text>
<polygon fill="none" stroke="black" points="269.5,-79 269.5,-101 347.5,-101 347.5,-79 269.5,-79"/>
<text text-anchor="start" x="272.5" y="-87.2" font-family="Helvetica,sans-Serif" font-size="11.00">varchar[3]</text>
<polygon fill="none" stroke="black" points="10.5,-57 10.5,-79 269.5,-79 269.5,-57 10.5,-57"/>
<text text-anchor="start" x="30.5" y="-65.2" font-family="Helvetica,sans-Serif" font-size="11.00">active</text>
<polygon fill="none" stroke="black" points="269.5,-57 269.5,-79 347.5,-79 347.5,-57 269.5,-57"/>
<text text-anchor="start" x="272.5" y="-65.2" font-family="Helvetica,sans-Serif" font-size="11.00">bool[1]</text>
<polygon fill="#ffffff" stroke="transparent" points="10.5,-39 10.5,-57 347.5,-57 347.5,-39 10.5,-39"/>
<polygon fill="none" stroke="black" points="10.5,-39 10.5,-57 347.5,-57 347.5,-39 10.5,-39"/>
<polygon fill="#ffffff" stroke="transparent" points="11.5,-40 11.5,-56 127.5,-56 127.5,-40 11.5,-40"/>
<text text-anchor="start" x="13.5" y="-45.2" font-family="Helvetica,sans-Serif" font-size="11.00">&lt; 0</text>
<polygon fill="#ffffff" stroke="transparent" points="127.5,-40 127.5,-56 231.5,-56 231.5,-40 127.5,-40"/>
<text text-anchor="start" x="175.5" y="-45.2" font-family="Helvetica,sans-Serif" font-size="11.00"> &#160;</text>
<polygon fill="#ffffff" stroke="transparent" points="231.5,-40 231.5,-56 346.5,-56 346.5,-40 231.5,-40"/>
<text text-anchor="start" x="324.5" y="-45.2" font-family="Helvetica,sans-Serif" font-size="11.00">1 &gt;</text>
<polygon fill="black" stroke="black" points="127.5,-40 127.5,-56 127.5,-56 127.5,-40 127.5,-40"/>
<polygon fill="black" stroke="black" points="231.5,-40 231.5,-56 231.5,-56 231.5,-40 231.5,-40"/>
<polygon fill="none" stroke="black" stroke-width="2" points="9,-38 9,-366 348,-366 348,-38 9,-38"/>
</a>
</g>
</g>
<!-- tww_od.agxx_wastewater_node&#45;&gt;wastewater_node_ag64_function -->
<g id="edge1" class="edge">
<title>tww_od.agxx_wastewater_node:w&#45;&gt;wastewater_node_ag64_function:e</title>
<path fill="none" stroke="black" d="M382.28,-332C371.29,-332 364.16,-332 348.5,-332"/>
<polygon fill="black" stroke="black" points="389,-332 397,-335.6 393,-332 397,-332 397,-332 397,-332 393,-332 397,-328.4 389,-332 389,-332"/>
<ellipse fill="none" stroke="black" cx="385.8" cy="-332" rx="3.2" ry="3.2"/>
</g>
</g>
</svg>
