<?xml version="1.0" encoding="UTF-8" standalone="no"?>
<!DOCTYPE svg PUBLIC "-//W3C//DTD SVG 1.1//EN"
 "http://www.w3.org/Graphics/SVG/1.1/DTD/svg11.dtd">
<!-- Generated by graphviz version 2.43.0 (0)
 -->
<!-- Title: oneDegreeRelationshipsDiagram Pages: 1 -->
<svg width="462pt" height="137pt"
 viewBox="0.00 0.00 462.00 137.00" xmlns="http://www.w3.org/2000/svg" xmlns:xlink="http://www.w3.org/1999/xlink">
<g id="graph0" class="graph" transform="scale(1 1) rotate(0) translate(4 133)">
<title>oneDegreeRelationshipsDiagram</title>
<polygon fill="#ffffff" stroke="transparent" points="-4,4 -4,-133 458,-133 458,4 -4,4"/>
<text text-anchor="middle" x="79.5" y="-7.2" font-family="Helvetica,sans-Serif" font-size="11.00">Generated by SchemaSpy</text>
<!-- wastewater_structure_status_import_rel_agxx -->
<g id="node1" class="node">
<title>wastewater_structure_status_import_rel_agxx</title>
<g id="a_node1"><a xlink:href="../../tables/wastewater_structure_status_imp_411f48a7.html" xlink:title="wastewater_structure_status_import_rel_agxx" target="_top">
<polygon fill="#ffffff" stroke="transparent" points="8,-37 8,-125 446,-125 446,-37 8,-37"/>
<polygon fill="#f5f5f5" stroke="transparent" points="10,-101 10,-123 444,-123 444,-101 10,-101"/>
<polygon fill="none" stroke="black" points="10,-101 10,-123 444,-123 444,-101 10,-101"/>
<text text-anchor="start" x="15" y="-110.2" font-family="Helvetica,sans-Serif" font-weight="bold" font-size="11.00">wastewater_structure_status_import_rel_agxx</text>
<text text-anchor="start" x="402" y="-109.2" font-family="Helvetica,sans-Serif" font-size="11.00">[table]</text>
<polygon fill="none" stroke="black" points="10,-79 10,-101 366,-101 366,-79 10,-79"/>
<image xlink:href="../../images/primaryKeys.png" width="11px" height="12px" preserveAspectRatio="xMinYMin meet" x="15" y="-96"/>
<text text-anchor="start" x="30" y="-87.2" font-family="Helvetica,sans-Serif" font-size="11.00">code</text>
<polygon fill="none" stroke="black" points="366,-79 366,-101 444,-101 444,-79 366,-79"/>
<text text-anchor="start" x="369" y="-87.2" font-family="Helvetica,sans-Serif" font-size="11.00">int4[10]</text>
<polygon fill="none" stroke="black" points="10,-57 10,-79 366,-79 366,-57 10,-57"/>
<text text-anchor="start" x="30" y="-65.2" font-family="Helvetica,sans-Serif" font-size="11.00">value_de</text>
<polygon fill="none" stroke="black" points="366,-57 366,-79 444,-79 444,-57 366,-57"/>
<text text-anchor="start" x="369" y="-65.2" font-family="Helvetica,sans-Serif" font-size="11.00">varchar[100]</text>
<polygon fill="#ffffff" stroke="transparent" points="10,-39 10,-57 444,-57 444,-39 10,-39"/>
<polygon fill="none" stroke="black" points="10,-39 10,-57 444,-57 444,-39 10,-39"/>
<polygon fill="#ffffff" stroke="transparent" points="11,-40 11,-56 159,-56 159,-40 11,-40"/>
<text text-anchor="start" x="13" y="-45.2" font-family="Helvetica,sans-Serif" font-size="11.00">&lt; 0</text>
<polygon fill="#ffffff" stroke="transparent" points="159,-40 159,-56 295,-56 295,-40 159,-40"/>
<text text-anchor="start" x="223" y="-45.2" font-family="Helvetica,sans-Serif" font-size="11.00"> &#160;</text>
<polygon fill="#ffffff" stroke="transparent" points="295,-40 295,-56 443,-56 443,-40 295,-40"/>
<text text-anchor="start" x="421" y="-45.2" font-family="Helvetica,sans-Serif" font-size="11.00">0 &gt;</text>
<polygon fill="black" stroke="black" points="159,-40 159,-56 159,-56 159,-40 159,-40"/>
<polygon fill="black" stroke="black" points="295,-40 295,-56 295,-56 295,-40 295,-40"/>
<polygon fill="none" stroke="black" stroke-width="2" points="9,-38 9,-124 445,-124 445,-38 9,-38"/>
</a>
</g>
</g>
</g>
</svg>
