<?xml version="1.0" encoding="UTF-8" standalone="no"?>
<!DOCTYPE svg PUBLIC "-//W3C//DTD SVG 1.1//EN"
 "http://www.w3.org/Graphics/SVG/1.1/DTD/svg11.dtd">
<!-- Generated by graphviz version 2.43.0 (0)
 -->
<!-- Title: oneDegreeRelationshipsDiagram Pages: 1 -->
<svg width="766pt" height="619pt"
 viewBox="0.00 0.00 766.00 619.00" xmlns="http://www.w3.org/2000/svg" xmlns:xlink="http://www.w3.org/1999/xlink">
<g id="graph0" class="graph" transform="scale(1 1) rotate(0) translate(4 615)">
<title>oneDegreeRelationshipsDiagram</title>
<polygon fill="#ffffff" stroke="transparent" points="-4,4 -4,-615 762,-615 762,4 -4,4"/>
<text text-anchor="middle" x="79.5" y="-7.2" font-family="Helvetica,sans-Serif" font-size="11.00">Generated by SchemaSpy</text>
<!-- tww_od.wastewater_structure_text -->
<g id="node1" class="node">
<title>tww_od.wastewater_structure_text</title>
<g id="a_node1"><a xlink:href="../../../tww_od/tables/wastewater_structure_text.html" xlink:title="tww_od.wastewater_structure_text" target="_top">
<polygon fill="#ffffff" stroke="transparent" points="447,-483 447,-607 750,-607 750,-483 447,-483"/>
<polygon fill="#f5f5f5" stroke="transparent" points="447.5,-585 447.5,-607 750.5,-607 750.5,-585 447.5,-585"/>
<polygon fill="none" stroke="black" points="447.5,-585 447.5,-607 750.5,-607 750.5,-585 447.5,-585"/>
<text text-anchor="start" x="452.5" y="-594.2" font-family="Helvetica,sans-Serif" font-weight="bold" font-size="11.00">tww_od.wastewater_structure_text</text>
<text text-anchor="start" x="708.5" y="-593.2" font-family="Helvetica,sans-Serif" font-size="11.00">[table]</text>
<polygon fill="none" stroke="black" points="447.5,-563 447.5,-585 750.5,-585 750.5,-563 447.5,-563"/>
<image xlink:href="../../images/foreignKeys.png" width="11px" height="12px" preserveAspectRatio="xMinYMin meet" x="452.5" y="-580"/>
<text text-anchor="start" x="510.5" y="-571.2" font-family="Helvetica,sans-Serif" font-size="11.00">plantype</text>
<polygon fill="none" stroke="black" points="447.5,-541 447.5,-563 750.5,-563 750.5,-541 447.5,-541"/>
<image xlink:href="../../images/foreignKeys.png" width="11px" height="12px" preserveAspectRatio="xMinYMin meet" x="452.5" y="-558"/>
<text text-anchor="start" x="510.5" y="-549.2" font-family="Helvetica,sans-Serif" font-size="11.00">texthali</text>
<polygon fill="none" stroke="black" points="447.5,-519 447.5,-541 750.5,-541 750.5,-519 447.5,-519"/>
<image xlink:href="../../images/foreignKeys.png" width="11px" height="12px" preserveAspectRatio="xMinYMin meet" x="452.5" y="-536"/>
<text text-anchor="start" x="510.5" y="-527.2" font-family="Helvetica,sans-Serif" font-size="11.00">textvali</text>
<polygon fill="none" stroke="black" points="447.5,-501 447.5,-519 750.5,-519 750.5,-501 447.5,-501"/>
<text text-anchor="start" x="450.5" y="-507.2" font-family="Helvetica,sans-Serif" font-size="11.00">...</text>
<polygon fill="#ffffff" stroke="transparent" points="447.5,-483 447.5,-501 750.5,-501 750.5,-483 447.5,-483"/>
<polygon fill="none" stroke="black" points="447.5,-483 447.5,-501 750.5,-501 750.5,-483 447.5,-483"/>
<polygon fill="#ffffff" stroke="transparent" points="448.5,-484 448.5,-500 547.5,-500 547.5,-484 448.5,-484"/>
<text text-anchor="start" x="450.5" y="-489.2" font-family="Helvetica,sans-Serif" font-size="11.00">&lt; 3</text>
<polygon fill="#ffffff" stroke="transparent" points="547.5,-484 547.5,-500 663.5,-500 663.5,-484 547.5,-484"/>
<text text-anchor="start" x="587" y="-489.2" font-family="Helvetica,sans-Serif" font-size="11.00">0 rows</text>
<polygon fill="#ffffff" stroke="transparent" points="663.5,-484 663.5,-500 749.5,-500 749.5,-484 663.5,-484"/>
<text text-anchor="start" x="739.5" y="-489.2" font-family="Helvetica,sans-Serif" font-size="11.00"> &#160;</text>
<polygon fill="black" stroke="black" points="547.5,-484 547.5,-500 547.5,-500 547.5,-484 547.5,-484"/>
<polygon fill="black" stroke="black" points="663.5,-484 663.5,-500 663.5,-500 663.5,-484 663.5,-484"/>
</a>
</g>
</g>
<!-- wastewater_structure_text_texthali -->
<g id="node2" class="node">
<title>wastewater_structure_text_texthali</title>
<g id="a_node2"><a xlink:href="../../tables/wastewater_structure_text_texthali.html" xlink:title="wastewater_structure_text_texthali" target="_top">
<polygon fill="#ffffff" stroke="transparent" points="8,-37 8,-587 398,-587 398,-37 8,-37"/>
<polygon fill="#f5f5f5" stroke="transparent" points="10,-563 10,-585 396,-585 396,-563 10,-563"/>
<polygon fill="none" stroke="black" points="10,-563 10,-585 396,-585 396,-563 10,-563"/>
<text text-anchor="start" x="15" y="-572.2" font-family="Helvetica,sans-Serif" font-weight="bold" font-size="11.00">wastewater_structure_text_texthali</text>
<text text-anchor="start" x="354" y="-571.2" font-family="Helvetica,sans-Serif" font-size="11.00">[table]</text>
<polygon fill="none" stroke="black" points="10,-541 10,-563 290,-563 290,-541 10,-541"/>
<image xlink:href="../../images/primaryKeys.png" width="11px" height="12px" preserveAspectRatio="xMinYMin meet" x="15" y="-558"/>
<text text-anchor="start" x="30" y="-549.2" font-family="Helvetica,sans-Serif" font-size="11.00">code</text>
<polygon fill="none" stroke="black" points="290,-541 290,-563 396,-563 396,-541 290,-541"/>
<text text-anchor="start" x="293" y="-549.2" font-family="Helvetica,sans-Serif" font-size="11.00">int4[10]</text>
<polygon fill="none" stroke="black" points="10,-519 10,-541 290,-541 290,-519 10,-519"/>
<text text-anchor="start" x="30" y="-527.2" font-family="Helvetica,sans-Serif" font-size="11.00">vsacode</text>
<polygon fill="none" stroke="black" points="290,-519 290,-541 396,-541 396,-519 290,-519"/>
<text text-anchor="start" x="293" y="-527.2" font-family="Helvetica,sans-Serif" font-size="11.00">int4[10]</text>
<polygon fill="none" stroke="black" points="10,-497 10,-519 290,-519 290,-497 10,-497"/>
<text text-anchor="start" x="30" y="-505.2" font-family="Helvetica,sans-Serif" font-size="11.00">value_en</text>
<polygon fill="none" stroke="black" points="290,-497 290,-519 396,-519 396,-497 290,-497"/>
<text text-anchor="start" x="293" y="-505.2" font-family="Helvetica,sans-Serif" font-size="11.00">varchar[100]</text>
<polygon fill="none" stroke="black" points="10,-475 10,-497 290,-497 290,-475 10,-475"/>
<text text-anchor="start" x="30" y="-483.2" font-family="Helvetica,sans-Serif" font-size="11.00">value_de</text>
<polygon fill="none" stroke="black" points="290,-475 290,-497 396,-497 396,-475 290,-475"/>
<text text-anchor="start" x="293" y="-483.2" font-family="Helvetica,sans-Serif" font-size="11.00">varchar[100]</text>
<polygon fill="none" stroke="black" points="10,-453 10,-475 290,-475 290,-453 10,-453"/>
<text text-anchor="start" x="30" y="-461.2" font-family="Helvetica,sans-Serif" font-size="11.00">value_fr</text>
<polygon fill="none" stroke="black" points="290,-453 290,-475 396,-475 396,-453 290,-453"/>
<text text-anchor="start" x="293" y="-461.2" font-family="Helvetica,sans-Serif" font-size="11.00">varchar[100]</text>
<polygon fill="none" stroke="black" points="10,-431 10,-453 290,-453 290,-431 10,-431"/>
<text text-anchor="start" x="30" y="-439.2" font-family="Helvetica,sans-Serif" font-size="11.00">value_it</text>
<polygon fill="none" stroke="black" points="290,-431 290,-453 396,-453 396,-431 290,-431"/>
<text text-anchor="start" x="293" y="-439.2" font-family="Helvetica,sans-Serif" font-size="11.00">varchar[100]</text>
<polygon fill="none" stroke="black" points="10,-409 10,-431 290,-431 290,-409 10,-409"/>
<text text-anchor="start" x="30" y="-417.2" font-family="Helvetica,sans-Serif" font-size="11.00">value_ro</text>
<polygon fill="none" stroke="black" points="290,-409 290,-431 396,-431 396,-409 290,-409"/>
<text text-anchor="start" x="293" y="-417.2" font-family="Helvetica,sans-Serif" font-size="11.00">varchar[100]</text>
<polygon fill="none" stroke="black" points="10,-387 10,-409 290,-409 290,-387 10,-387"/>
<text text-anchor="start" x="30" y="-395.2" font-family="Helvetica,sans-Serif" font-size="11.00">abbr_en</text>
<polygon fill="none" stroke="black" points="290,-387 290,-409 396,-409 396,-387 290,-387"/>
<text text-anchor="start" x="293" y="-395.2" font-family="Helvetica,sans-Serif" font-size="11.00">varchar[3]</text>
<polygon fill="none" stroke="black" points="10,-365 10,-387 290,-387 290,-365 10,-365"/>
<text text-anchor="start" x="30" y="-373.2" font-family="Helvetica,sans-Serif" font-size="11.00">abbr_de</text>
<polygon fill="none" stroke="black" points="290,-365 290,-387 396,-387 396,-365 290,-365"/>
<text text-anchor="start" x="293" y="-373.2" font-family="Helvetica,sans-Serif" font-size="11.00">varchar[3]</text>
<polygon fill="none" stroke="black" points="10,-343 10,-365 290,-365 290,-343 10,-343"/>
<text text-anchor="start" x="30" y="-351.2" font-family="Helvetica,sans-Serif" font-size="11.00">abbr_fr</text>
<polygon fill="none" stroke="black" points="290,-343 290,-365 396,-365 396,-343 290,-343"/>
<text text-anchor="start" x="293" y="-351.2" font-family="Helvetica,sans-Serif" font-size="11.00">varchar[3]</text>
<polygon fill="none" stroke="black" points="10,-321 10,-343 290,-343 290,-321 10,-321"/>
<text text-anchor="start" x="30" y="-329.2" font-family="Helvetica,sans-Serif" font-size="11.00">abbr_it</text>
<polygon fill="none" stroke="black" points="290,-321 290,-343 396,-343 396,-321 290,-321"/>
<text text-anchor="start" x="293" y="-329.2" font-family="Helvetica,sans-Serif" font-size="11.00">varchar[3]</text>
<polygon fill="none" stroke="black" points="10,-299 10,-321 290,-321 290,-299 10,-299"/>
<text text-anchor="start" x="30" y="-307.2" font-family="Helvetica,sans-Serif" font-size="11.00">abbr_ro</text>
<polygon fill="none" stroke="black" points="290,-299 290,-321 396,-321 396,-299 290,-299"/>
<text text-anchor="start" x="293" y="-307.2" font-family="Helvetica,sans-Serif" font-size="11.00">varchar[3]</text>
<polygon fill="none" stroke="black" points="10,-277 10,-299 290,-299 290,-277 10,-277"/>
<text text-anchor="start" x="30" y="-285.2" font-family="Helvetica,sans-Serif" font-size="11.00">active</text>
<polygon fill="none" stroke="black" points="290,-277 290,-299 396,-299 396,-277 290,-277"/>
<text text-anchor="start" x="293" y="-285.2" font-family="Helvetica,sans-Serif" font-size="11.00">bool[1]</text>
<polygon fill="none" stroke="black" points="10,-255 10,-277 290,-277 290,-255 10,-255"/>
<text text-anchor="start" x="30" y="-263.2" font-family="Helvetica,sans-Serif" font-size="11.00">description_en</text>
<polygon fill="none" stroke="black" points="290,-255 290,-277 396,-277 396,-255 290,-255"/>
<text text-anchor="start" x="293" y="-263.2" font-family="Helvetica,sans-Serif" font-size="11.00">text[2147483647]</text>
<polygon fill="none" stroke="black" points="10,-233 10,-255 290,-255 290,-233 10,-233"/>
<text text-anchor="start" x="30" y="-241.2" font-family="Helvetica,sans-Serif" font-size="11.00">description_de</text>
<polygon fill="none" stroke="black" points="290,-233 290,-255 396,-255 396,-233 290,-233"/>
<text text-anchor="start" x="293" y="-241.2" font-family="Helvetica,sans-Serif" font-size="11.00">text[2147483647]</text>
<polygon fill="none" stroke="black" points="10,-211 10,-233 290,-233 290,-211 10,-211"/>
<text text-anchor="start" x="30" y="-219.2" font-family="Helvetica,sans-Serif" font-size="11.00">description_fr</text>
<polygon fill="none" stroke="black" points="290,-211 290,-233 396,-233 396,-211 290,-211"/>
<text text-anchor="start" x="293" y="-219.2" font-family="Helvetica,sans-Serif" font-size="11.00">text[2147483647]</text>
<polygon fill="none" stroke="black" points="10,-189 10,-211 290,-211 290,-189 10,-189"/>
<text text-anchor="start" x="30" y="-197.2" font-family="Helvetica,sans-Serif" font-size="11.00">description_it</text>
<polygon fill="none" stroke="black" points="290,-189 290,-211 396,-211 396,-189 290,-189"/>
<text text-anchor="start" x="293" y="-197.2" font-family="Helvetica,sans-Serif" font-size="11.00">text[2147483647]</text>
<polygon fill="none" stroke="black" points="10,-167 10,-189 290,-189 290,-167 10,-167"/>
<text text-anchor="start" x="30" y="-175.2" font-family="Helvetica,sans-Serif" font-size="11.00">description_ro</text>
<polygon fill="none" stroke="black" points="290,-167 290,-189 396,-189 396,-167 290,-167"/>
<text text-anchor="start" x="293" y="-175.2" font-family="Helvetica,sans-Serif" font-size="11.00">text[2147483647]</text>
<polygon fill="none" stroke="black" points="10,-145 10,-167 290,-167 290,-145 10,-145"/>
<text text-anchor="start" x="30" y="-153.2" font-family="Helvetica,sans-Serif" font-size="11.00">display_en</text>
<polygon fill="none" stroke="black" points="290,-145 290,-167 396,-167 396,-145 290,-145"/>
<text text-anchor="start" x="293" y="-153.2" font-family="Helvetica,sans-Serif" font-size="11.00">varchar[100]</text>
<polygon fill="none" stroke="black" points="10,-123 10,-145 290,-145 290,-123 10,-123"/>
<text text-anchor="start" x="30" y="-131.2" font-family="Helvetica,sans-Serif" font-size="11.00">display_de</text>
<polygon fill="none" stroke="black" points="290,-123 290,-145 396,-145 396,-123 290,-123"/>
<text text-anchor="start" x="293" y="-131.2" font-family="Helvetica,sans-Serif" font-size="11.00">varchar[100]</text>
<polygon fill="none" stroke="black" points="10,-101 10,-123 290,-123 290,-101 10,-101"/>
<text text-anchor="start" x="30" y="-109.2" font-family="Helvetica,sans-Serif" font-size="11.00">display_fr</text>
<polygon fill="none" stroke="black" points="290,-101 290,-123 396,-123 396,-101 290,-101"/>
<text text-anchor="start" x="293" y="-109.2" font-family="Helvetica,sans-Serif" font-size="11.00">varchar[100]</text>
<polygon fill="none" stroke="black" points="10,-79 10,-101 290,-101 290,-79 10,-79"/>
<text text-anchor="start" x="30" y="-87.2" font-family="Helvetica,sans-Serif" font-size="11.00">display_it</text>
<polygon fill="none" stroke="black" points="290,-79 290,-101 396,-101 396,-79 290,-79"/>
<text text-anchor="start" x="293" y="-87.2" font-family="Helvetica,sans-Serif" font-size="11.00">varchar[100]</text>
<polygon fill="none" stroke="black" points="10,-57 10,-79 290,-79 290,-57 10,-57"/>
<text text-anchor="start" x="30" y="-65.2" font-family="Helvetica,sans-Serif" font-size="11.00">display_ro</text>
<polygon fill="none" stroke="black" points="290,-57 290,-79 396,-79 396,-57 290,-57"/>
<text text-anchor="start" x="293" y="-65.2" font-family="Helvetica,sans-Serif" font-size="11.00">varchar[100]</text>
<polygon fill="#ffffff" stroke="transparent" points="10,-39 10,-57 396,-57 396,-39 10,-39"/>
<polygon fill="none" stroke="black" points="10,-39 10,-57 396,-57 396,-39 10,-39"/>
<polygon fill="#ffffff" stroke="transparent" points="11,-40 11,-56 143,-56 143,-40 11,-40"/>
<text text-anchor="start" x="13" y="-45.2" font-family="Helvetica,sans-Serif" font-size="11.00">&lt; 0</text>
<polygon fill="#ffffff" stroke="transparent" points="143,-40 143,-56 263,-56 263,-40 143,-40"/>
<text text-anchor="start" x="199" y="-45.2" font-family="Helvetica,sans-Serif" font-size="11.00"> &#160;</text>
<polygon fill="#ffffff" stroke="transparent" points="263,-40 263,-56 395,-56 395,-40 263,-40"/>
<text text-anchor="start" x="373" y="-45.2" font-family="Helvetica,sans-Serif" font-size="11.00">1 &gt;</text>
<polygon fill="black" stroke="black" points="143,-40 143,-56 143,-56 143,-40 143,-40"/>
<polygon fill="black" stroke="black" points="263,-40 263,-56 263,-56 263,-40 263,-40"/>
<polygon fill="none" stroke="black" stroke-width="2" points="9,-38 9,-586 397,-586 397,-38 9,-38"/>
</a>
</g>
</g>
<!-- tww_od.wastewater_structure_text&#45;&gt;wastewater_structure_text_texthali -->
<g id="edge1" class="edge">
<title>tww_od.wastewater_structure_text:w&#45;&gt;wastewater_structure_text_texthali:e</title>
<path fill="none" stroke="black" d="M431.84,-552C420.41,-552 413.16,-552 397,-552"/>
<polygon fill="black" stroke="black" points="438.5,-552 446.5,-555.6 442.5,-552 446.5,-552 446.5,-552 446.5,-552 442.5,-552 446.5,-548.4 438.5,-552 438.5,-552"/>
<ellipse fill="none" stroke="black" cx="435.3" cy="-552" rx="3.2" ry="3.2"/>
</g>
</g>
</svg>
