<?xml version="1.0" encoding="UTF-8" standalone="no"?>
<!DOCTYPE svg PUBLIC "-//W3C//DTD SVG 1.1//EN"
 "http://www.w3.org/Graphics/SVG/1.1/DTD/svg11.dtd">
<!-- Generated by graphviz version 2.43.0 (0)
 -->
<!-- Title: oneDegreeRelationshipsDiagram Pages: 1 -->
<svg width="861pt" height="553pt"
 viewBox="0.00 0.00 861.00 553.00" xmlns="http://www.w3.org/2000/svg" xmlns:xlink="http://www.w3.org/1999/xlink">
<g id="graph0" class="graph" transform="scale(1 1) rotate(0) translate(4 549)">
<title>oneDegreeRelationshipsDiagram</title>
<polygon fill="#ffffff" stroke="transparent" points="-4,4 -4,-549 857,-549 857,4 -4,4"/>
<text text-anchor="middle" x="79.5" y="-7.2" font-family="Helvetica,sans-Serif" font-size="11.00">Generated by SchemaSpy</text>
<!-- tww_od.bio_ecol_assessment -->
<g id="node1" class="node">
<title>tww_od.bio_ecol_assessment</title>
<g id="a_node1"><a xlink:href="../../../tww_od/tables/bio_ecol_assessment.html" xlink:title="tww_od.bio_ecol_assessment" target="_top">
<polygon fill="#ffffff" stroke="transparent" points="444,-285 444,-541 845,-541 845,-285 444,-285"/>
<polygon fill="#f5f5f5" stroke="transparent" points="444.5,-519 444.5,-541 845.5,-541 845.5,-519 444.5,-519"/>
<polygon fill="none" stroke="black" points="444.5,-519 444.5,-541 845.5,-541 845.5,-519 444.5,-519"/>
<text text-anchor="start" x="449.5" y="-528.2" font-family="Helvetica,sans-Serif" font-weight="bold" font-size="11.00">tww_od.bio_ecol_assessment</text>
<text text-anchor="start" x="803.5" y="-527.2" font-family="Helvetica,sans-Serif" font-size="11.00">[table]</text>
<polygon fill="none" stroke="black" points="444.5,-497 444.5,-519 845.5,-519 845.5,-497 444.5,-497"/>
<image xlink:href="../../images/foreignKeys.png" width="11px" height="12px" preserveAspectRatio="xMinYMin meet" x="449.5" y="-514"/>
<text text-anchor="start" x="464.5" y="-505.2" font-family="Helvetica,sans-Serif" font-size="11.00">comparison_last</text>
<polygon fill="none" stroke="black" points="444.5,-475 444.5,-497 845.5,-497 845.5,-475 444.5,-475"/>
<image xlink:href="../../images/foreignKeys.png" width="11px" height="12px" preserveAspectRatio="xMinYMin meet" x="449.5" y="-492"/>
<text text-anchor="start" x="464.5" y="-483.2" font-family="Helvetica,sans-Serif" font-size="11.00">impact_auxiliary_indic</text>
<polygon fill="none" stroke="black" points="444.5,-453 444.5,-475 845.5,-475 845.5,-453 444.5,-453"/>
<image xlink:href="../../images/foreignKeys.png" width="11px" height="12px" preserveAspectRatio="xMinYMin meet" x="449.5" y="-470"/>
<text text-anchor="start" x="464.5" y="-461.2" font-family="Helvetica,sans-Serif" font-size="11.00">impact_external_aspect</text>
<polygon fill="none" stroke="black" points="444.5,-431 444.5,-453 845.5,-453 845.5,-431 444.5,-431"/>
<image xlink:href="../../images/foreignKeys.png" width="11px" height="12px" preserveAspectRatio="xMinYMin meet" x="449.5" y="-448"/>
<text text-anchor="start" x="464.5" y="-439.2" font-family="Helvetica,sans-Serif" font-size="11.00">impact_macroinvertebrates</text>
<polygon fill="none" stroke="black" points="444.5,-409 444.5,-431 845.5,-431 845.5,-409 444.5,-409"/>
<image xlink:href="../../images/foreignKeys.png" width="11px" height="12px" preserveAspectRatio="xMinYMin meet" x="449.5" y="-426"/>
<text text-anchor="start" x="464.5" y="-417.2" font-family="Helvetica,sans-Serif" font-size="11.00">impact_water_plants</text>
<polygon fill="none" stroke="black" points="444.5,-387 444.5,-409 845.5,-409 845.5,-387 444.5,-387"/>
<image xlink:href="../../images/foreignKeys.png" width="11px" height="12px" preserveAspectRatio="xMinYMin meet" x="449.5" y="-404"/>
<text text-anchor="start" x="464.5" y="-395.2" font-family="Helvetica,sans-Serif" font-size="11.00">intervention_demand</text>
<polygon fill="none" stroke="black" points="444.5,-365 444.5,-387 845.5,-387 845.5,-365 444.5,-365"/>
<image xlink:href="../../images/foreignKeys.png" width="11px" height="12px" preserveAspectRatio="xMinYMin meet" x="449.5" y="-382"/>
<text text-anchor="start" x="464.5" y="-373.2" font-family="Helvetica,sans-Serif" font-size="11.00">io_calculation</text>
<polygon fill="none" stroke="black" points="444.5,-343 444.5,-365 845.5,-365 845.5,-343 444.5,-343"/>
<image xlink:href="../../images/foreignKeys.png" width="11px" height="12px" preserveAspectRatio="xMinYMin meet" x="449.5" y="-360"/>
<text text-anchor="start" x="464.5" y="-351.2" font-family="Helvetica,sans-Serif" font-size="11.00">kind_water_body</text>
<polygon fill="none" stroke="black" points="444.5,-321 444.5,-343 845.5,-343 845.5,-321 444.5,-321"/>
<image xlink:href="../../images/foreignKeys.png" width="11px" height="12px" preserveAspectRatio="xMinYMin meet" x="449.5" y="-338"/>
<text text-anchor="start" x="464.5" y="-329.2" font-family="Helvetica,sans-Serif" font-size="11.00">relevance_matrix</text>
<polygon fill="none" stroke="black" points="444.5,-303 444.5,-321 845.5,-321 845.5,-303 444.5,-303"/>
<text text-anchor="start" x="447.5" y="-309.2" font-family="Helvetica,sans-Serif" font-size="11.00">...</text>
<polygon fill="#ffffff" stroke="transparent" points="444.5,-285 444.5,-303 845.5,-303 845.5,-285 444.5,-285"/>
<polygon fill="none" stroke="black" points="444.5,-285 444.5,-303 845.5,-303 845.5,-285 444.5,-285"/>
<polygon fill="#ffffff" stroke="transparent" points="445.5,-286 445.5,-302 577.5,-302 577.5,-286 445.5,-286"/>
<text text-anchor="start" x="447.5" y="-291.2" font-family="Helvetica,sans-Serif" font-size="11.00">&lt; 9</text>
<polygon fill="#ffffff" stroke="transparent" points="577.5,-286 577.5,-302 725.5,-302 725.5,-286 577.5,-286"/>
<text text-anchor="start" x="633" y="-291.2" font-family="Helvetica,sans-Serif" font-size="11.00">0 rows</text>
<polygon fill="#ffffff" stroke="transparent" points="725.5,-286 725.5,-302 844.5,-302 844.5,-286 725.5,-286"/>
<text text-anchor="start" x="834.5" y="-291.2" font-family="Helvetica,sans-Serif" font-size="11.00"> &#160;</text>
<polygon fill="black" stroke="black" points="577.5,-286 577.5,-302 577.5,-302 577.5,-286 577.5,-286"/>
<polygon fill="black" stroke="black" points="725.5,-286 725.5,-302 725.5,-302 725.5,-286 725.5,-286"/>
</a>
</g>
</g>
<!-- bio_ecol_assessment_relevance_matrix -->
<g id="node2" class="node">
<title>bio_ecol_assessment_relevance_matrix</title>
<g id="a_node2"><a xlink:href="../../tables/bio_ecol_assessment_relevance_matrix.html" xlink:title="bio_ecol_assessment_relevance_matrix" target="_top">
<polygon fill="#ffffff" stroke="transparent" points="8,-37 8,-367 395,-367 395,-37 8,-37"/>
<polygon fill="#f5f5f5" stroke="transparent" points="10.5,-343 10.5,-365 393.5,-365 393.5,-343 10.5,-343"/>
<polygon fill="none" stroke="black" points="10.5,-343 10.5,-365 393.5,-365 393.5,-343 10.5,-343"/>
<text text-anchor="start" x="15.5" y="-352.2" font-family="Helvetica,sans-Serif" font-weight="bold" font-size="11.00">bio_ecol_assessment_relevance_matrix</text>
<text text-anchor="start" x="351.5" y="-351.2" font-family="Helvetica,sans-Serif" font-size="11.00">[table]</text>
<polygon fill="none" stroke="black" points="10.5,-321 10.5,-343 315.5,-343 315.5,-321 10.5,-321"/>
<image xlink:href="../../images/primaryKeys.png" width="11px" height="12px" preserveAspectRatio="xMinYMin meet" x="15.5" y="-338"/>
<text text-anchor="start" x="30.5" y="-329.2" font-family="Helvetica,sans-Serif" font-size="11.00">code</text>
<polygon fill="none" stroke="black" points="315.5,-321 315.5,-343 393.5,-343 393.5,-321 315.5,-321"/>
<text text-anchor="start" x="318.5" y="-329.2" font-family="Helvetica,sans-Serif" font-size="11.00">int4[10]</text>
<polygon fill="none" stroke="black" points="10.5,-299 10.5,-321 315.5,-321 315.5,-299 10.5,-299"/>
<text text-anchor="start" x="30.5" y="-307.2" font-family="Helvetica,sans-Serif" font-size="11.00">vsacode</text>
<polygon fill="none" stroke="black" points="315.5,-299 315.5,-321 393.5,-321 393.5,-299 315.5,-299"/>
<text text-anchor="start" x="318.5" y="-307.2" font-family="Helvetica,sans-Serif" font-size="11.00">int4[10]</text>
<polygon fill="none" stroke="black" points="10.5,-277 10.5,-299 315.5,-299 315.5,-277 10.5,-277"/>
<text text-anchor="start" x="30.5" y="-285.2" font-family="Helvetica,sans-Serif" font-size="11.00">value_en</text>
<polygon fill="none" stroke="black" points="315.5,-277 315.5,-299 393.5,-299 393.5,-277 315.5,-277"/>
<text text-anchor="start" x="318.5" y="-285.2" font-family="Helvetica,sans-Serif" font-size="11.00">varchar[100]</text>
<polygon fill="none" stroke="black" points="10.5,-255 10.5,-277 315.5,-277 315.5,-255 10.5,-255"/>
<text text-anchor="start" x="30.5" y="-263.2" font-family="Helvetica,sans-Serif" font-size="11.00">value_de</text>
<polygon fill="none" stroke="black" points="315.5,-255 315.5,-277 393.5,-277 393.5,-255 315.5,-255"/>
<text text-anchor="start" x="318.5" y="-263.2" font-family="Helvetica,sans-Serif" font-size="11.00">varchar[100]</text>
<polygon fill="none" stroke="black" points="10.5,-233 10.5,-255 315.5,-255 315.5,-233 10.5,-233"/>
<text text-anchor="start" x="30.5" y="-241.2" font-family="Helvetica,sans-Serif" font-size="11.00">value_fr</text>
<polygon fill="none" stroke="black" points="315.5,-233 315.5,-255 393.5,-255 393.5,-233 315.5,-233"/>
<text text-anchor="start" x="318.5" y="-241.2" font-family="Helvetica,sans-Serif" font-size="11.00">varchar[100]</text>
<polygon fill="none" stroke="black" points="10.5,-211 10.5,-233 315.5,-233 315.5,-211 10.5,-211"/>
<text text-anchor="start" x="30.5" y="-219.2" font-family="Helvetica,sans-Serif" font-size="11.00">value_it</text>
<polygon fill="none" stroke="black" points="315.5,-211 315.5,-233 393.5,-233 393.5,-211 315.5,-211"/>
<text text-anchor="start" x="318.5" y="-219.2" font-family="Helvetica,sans-Serif" font-size="11.00">varchar[100]</text>
<polygon fill="none" stroke="black" points="10.5,-189 10.5,-211 315.5,-211 315.5,-189 10.5,-189"/>
<text text-anchor="start" x="30.5" y="-197.2" font-family="Helvetica,sans-Serif" font-size="11.00">value_ro</text>
<polygon fill="none" stroke="black" points="315.5,-189 315.5,-211 393.5,-211 393.5,-189 315.5,-189"/>
<text text-anchor="start" x="318.5" y="-197.2" font-family="Helvetica,sans-Serif" font-size="11.00">varchar[100]</text>
<polygon fill="none" stroke="black" points="10.5,-167 10.5,-189 315.5,-189 315.5,-167 10.5,-167"/>
<text text-anchor="start" x="30.5" y="-175.2" font-family="Helvetica,sans-Serif" font-size="11.00">abbr_en</text>
<polygon fill="none" stroke="black" points="315.5,-167 315.5,-189 393.5,-189 393.5,-167 315.5,-167"/>
<text text-anchor="start" x="318.5" y="-175.2" font-family="Helvetica,sans-Serif" font-size="11.00">varchar[3]</text>
<polygon fill="none" stroke="black" points="10.5,-145 10.5,-167 315.5,-167 315.5,-145 10.5,-145"/>
<text text-anchor="start" x="30.5" y="-153.2" font-family="Helvetica,sans-Serif" font-size="11.00">abbr_de</text>
<polygon fill="none" stroke="black" points="315.5,-145 315.5,-167 393.5,-167 393.5,-145 315.5,-145"/>
<text text-anchor="start" x="318.5" y="-153.2" font-family="Helvetica,sans-Serif" font-size="11.00">varchar[3]</text>
<polygon fill="none" stroke="black" points="10.5,-123 10.5,-145 315.5,-145 315.5,-123 10.5,-123"/>
<text text-anchor="start" x="30.5" y="-131.2" font-family="Helvetica,sans-Serif" font-size="11.00">abbr_fr</text>
<polygon fill="none" stroke="black" points="315.5,-123 315.5,-145 393.5,-145 393.5,-123 315.5,-123"/>
<text text-anchor="start" x="318.5" y="-131.2" font-family="Helvetica,sans-Serif" font-size="11.00">varchar[3]</text>
<polygon fill="none" stroke="black" points="10.5,-101 10.5,-123 315.5,-123 315.5,-101 10.5,-101"/>
<text text-anchor="start" x="30.5" y="-109.2" font-family="Helvetica,sans-Serif" font-size="11.00">abbr_it</text>
<polygon fill="none" stroke="black" points="315.5,-101 315.5,-123 393.5,-123 393.5,-101 315.5,-101"/>
<text text-anchor="start" x="318.5" y="-109.2" font-family="Helvetica,sans-Serif" font-size="11.00">varchar[3]</text>
<polygon fill="none" stroke="black" points="10.5,-79 10.5,-101 315.5,-101 315.5,-79 10.5,-79"/>
<text text-anchor="start" x="30.5" y="-87.2" font-family="Helvetica,sans-Serif" font-size="11.00">abbr_ro</text>
<polygon fill="none" stroke="black" points="315.5,-79 315.5,-101 393.5,-101 393.5,-79 315.5,-79"/>
<text text-anchor="start" x="318.5" y="-87.2" font-family="Helvetica,sans-Serif" font-size="11.00">varchar[3]</text>
<polygon fill="none" stroke="black" points="10.5,-57 10.5,-79 315.5,-79 315.5,-57 10.5,-57"/>
<text text-anchor="start" x="30.5" y="-65.2" font-family="Helvetica,sans-Serif" font-size="11.00">active</text>
<polygon fill="none" stroke="black" points="315.5,-57 315.5,-79 393.5,-79 393.5,-57 315.5,-57"/>
<text text-anchor="start" x="318.5" y="-65.2" font-family="Helvetica,sans-Serif" font-size="11.00">bool[1]</text>
<polygon fill="#ffffff" stroke="transparent" points="10.5,-39 10.5,-57 393.5,-57 393.5,-39 10.5,-39"/>
<polygon fill="none" stroke="black" points="10.5,-39 10.5,-57 393.5,-57 393.5,-39 10.5,-39"/>
<polygon fill="#ffffff" stroke="transparent" points="11.5,-40 11.5,-56 142.5,-56 142.5,-40 11.5,-40"/>
<text text-anchor="start" x="13.5" y="-45.2" font-family="Helvetica,sans-Serif" font-size="11.00">&lt; 0</text>
<polygon fill="#ffffff" stroke="transparent" points="142.5,-40 142.5,-56 261.5,-56 261.5,-40 142.5,-40"/>
<text text-anchor="start" x="198" y="-45.2" font-family="Helvetica,sans-Serif" font-size="11.00"> &#160;</text>
<polygon fill="#ffffff" stroke="transparent" points="261.5,-40 261.5,-56 392.5,-56 392.5,-40 261.5,-40"/>
<text text-anchor="start" x="370.5" y="-45.2" font-family="Helvetica,sans-Serif" font-size="11.00">1 &gt;</text>
<polygon fill="black" stroke="black" points="142.5,-40 142.5,-56 142.5,-56 142.5,-40 142.5,-40"/>
<polygon fill="black" stroke="black" points="261.5,-40 261.5,-56 261.5,-56 261.5,-40 261.5,-40"/>
<polygon fill="none" stroke="black" stroke-width="2" points="9,-38 9,-366 394,-366 394,-38 9,-38"/>
</a>
</g>
</g>
<!-- tww_od.bio_ecol_assessment&#45;&gt;bio_ecol_assessment_relevance_matrix -->
<g id="edge1" class="edge">
<title>tww_od.bio_ecol_assessment:w&#45;&gt;bio_ecol_assessment_relevance_matrix:e</title>
<path fill="none" stroke="black" d="M428.99,-332C417.68,-332 410.49,-332 394.5,-332"/>
<polygon fill="black" stroke="black" points="435.5,-332 443.5,-335.6 439.5,-332 443.5,-332 443.5,-332 443.5,-332 439.5,-332 443.5,-328.4 435.5,-332 435.5,-332"/>
<ellipse fill="none" stroke="black" cx="432.3" cy="-332" rx="3.2" ry="3.2"/>
</g>
</g>
</svg>
