<?xml version="1.0" encoding="UTF-8" standalone="no"?>
<!DOCTYPE svg PUBLIC "-//W3C//DTD SVG 1.1//EN"
 "http://www.w3.org/Graphics/SVG/1.1/DTD/svg11.dtd">
<!-- Generated by graphviz version 2.47.1 (20210515.0534)
 -->
<!-- Title: oneDegreeRelationshipsDiagram Pages: 1 -->
<svg width="792pt" height="443pt"
 viewBox="0.00 0.00 792.00 443.00" xmlns="http://www.w3.org/2000/svg" xmlns:xlink="http://www.w3.org/1999/xlink">
<g id="graph0" class="graph" transform="scale(1 1) rotate(0) translate(4 439)">
<title>oneDegreeRelationshipsDiagram</title>
<polygon fill="#ffffff" stroke="transparent" points="-4,4 -4,-439 788,-439 788,4 -4,4"/>
<text text-anchor="middle" x="73.5" y="-7.2" font-family="Helvetica,sans-Serif" font-size="11.00">Generated by SchemaSpy</text>
<!-- tww_od.bio_ecol_assessment -->
<g id="node1" class="node">
<title>tww_od.bio_ecol_assessment</title>
<g id="a_node1"><a xlink:href="../../../tww_od/tables/bio_ecol_assessment.html" xlink:title="tww_od.bio_ecol_assessment" target="_top">
<polygon fill="#ffffff" stroke="transparent" points="446,-175 446,-431 776,-431 776,-175 446,-175"/>
<polygon fill="#f5f5f5" stroke="transparent" points="446,-409 446,-431 776,-431 776,-409 446,-409"/>
<polygon fill="none" stroke="black" points="446,-409 446,-431 776,-431 776,-409 446,-409"/>
<text text-anchor="start" x="451" y="-418.2" font-family="Helvetica,sans-Serif" font-weight="bold" font-size="11.00">tww_od.bio_ecol_assessment</text>
<text text-anchor="start" x="737" y="-417.2" font-family="Helvetica,sans-Serif" font-size="11.00">[table]</text>
<polygon fill="none" stroke="black" points="446,-387 446,-409 776,-409 776,-387 446,-387"/>
<image xlink:href="../../images/foreignKeys.png" width="11px" height="12px" preserveAspectRatio="xMinYMin meet" x="451" y="-404"/>
<text text-anchor="start" x="466" y="-395.2" font-family="Helvetica,sans-Serif" font-size="11.00">comparison_last</text>
<polygon fill="none" stroke="black" points="446,-365 446,-387 776,-387 776,-365 446,-365"/>
<image xlink:href="../../images/foreignKeys.png" width="11px" height="12px" preserveAspectRatio="xMinYMin meet" x="451" y="-382"/>
<text text-anchor="start" x="466" y="-373.2" font-family="Helvetica,sans-Serif" font-size="11.00">impact_auxiliary_indic</text>
<polygon fill="none" stroke="black" points="446,-343 446,-365 776,-365 776,-343 446,-343"/>
<image xlink:href="../../images/foreignKeys.png" width="11px" height="12px" preserveAspectRatio="xMinYMin meet" x="451" y="-360"/>
<text text-anchor="start" x="466" y="-351.2" font-family="Helvetica,sans-Serif" font-size="11.00">impact_external_aspect</text>
<polygon fill="none" stroke="black" points="446,-321 446,-343 776,-343 776,-321 446,-321"/>
<image xlink:href="../../images/foreignKeys.png" width="11px" height="12px" preserveAspectRatio="xMinYMin meet" x="451" y="-338"/>
<text text-anchor="start" x="466" y="-329.2" font-family="Helvetica,sans-Serif" font-size="11.00">impact_macroinvertebrates</text>
<polygon fill="none" stroke="black" points="446,-299 446,-321 776,-321 776,-299 446,-299"/>
<image xlink:href="../../images/foreignKeys.png" width="11px" height="12px" preserveAspectRatio="xMinYMin meet" x="451" y="-316"/>
<text text-anchor="start" x="466" y="-307.2" font-family="Helvetica,sans-Serif" font-size="11.00">impact_water_plants</text>
<polygon fill="none" stroke="black" points="446,-277 446,-299 776,-299 776,-277 446,-277"/>
<image xlink:href="../../images/foreignKeys.png" width="11px" height="12px" preserveAspectRatio="xMinYMin meet" x="451" y="-294"/>
<text text-anchor="start" x="466" y="-285.2" font-family="Helvetica,sans-Serif" font-size="11.00">intervention_demand</text>
<polygon fill="none" stroke="black" points="446,-255 446,-277 776,-277 776,-255 446,-255"/>
<image xlink:href="../../images/foreignKeys.png" width="11px" height="12px" preserveAspectRatio="xMinYMin meet" x="451" y="-272"/>
<text text-anchor="start" x="466" y="-263.2" font-family="Helvetica,sans-Serif" font-size="11.00">io_calculation</text>
<polygon fill="none" stroke="black" points="446,-233 446,-255 776,-255 776,-233 446,-233"/>
<image xlink:href="../../images/foreignKeys.png" width="11px" height="12px" preserveAspectRatio="xMinYMin meet" x="451" y="-250"/>
<text text-anchor="start" x="466" y="-241.2" font-family="Helvetica,sans-Serif" font-size="11.00">kind_water_body</text>
<polygon fill="none" stroke="black" points="446,-211 446,-233 776,-233 776,-211 446,-211"/>
<image xlink:href="../../images/foreignKeys.png" width="11px" height="12px" preserveAspectRatio="xMinYMin meet" x="451" y="-228"/>
<text text-anchor="start" x="466" y="-219.2" font-family="Helvetica,sans-Serif" font-size="11.00">relevance_matrix</text>
<polygon fill="none" stroke="black" points="446,-193 446,-211 776,-211 776,-193 446,-193"/>
<text text-anchor="start" x="449" y="-199.2" font-family="Helvetica,sans-Serif" font-size="11.00">...</text>
<polygon fill="#ffffff" stroke="transparent" points="446,-175 446,-193 595,-193 595,-175 446,-175"/>
<polygon fill="none" stroke="black" points="446,-175 446,-193 595,-193 595,-175 446,-175"/>
<text text-anchor="start" x="449" y="-181.2" font-family="Helvetica,sans-Serif" font-size="11.00">&lt; 9</text>
<polygon fill="#ffffff" stroke="transparent" points="595,-175 595,-193 699,-193 699,-175 595,-175"/>
<polygon fill="none" stroke="black" points="595,-175 595,-193 699,-193 699,-175 595,-175"/>
<text text-anchor="start" x="662" y="-181.2" font-family="Helvetica,sans-Serif" font-size="11.00">0 rows</text>
<polygon fill="#ffffff" stroke="transparent" points="699,-175 699,-193 776,-193 776,-175 699,-175"/>
<polygon fill="none" stroke="black" points="699,-175 699,-193 776,-193 776,-175 699,-175"/>
<text text-anchor="start" x="766" y="-181.2" font-family="Helvetica,sans-Serif" font-size="11.00"> &#160;</text>
</a>
</g>
</g>
<!-- bio_ecol_assessment_impact_macroinvertebrates -->
<g id="node2" class="node">
<title>bio_ecol_assessment_impact_macroinvertebrates</title>
<g id="a_node2"><a xlink:href="../../tables/bio_ecol_assessment_impact_macr_f0c024dd.html" xlink:title="bio_ecol_assessment_impact_macroinvertebrates" target="_top">
<polygon fill="#ffffff" stroke="transparent" points="8,-37 8,-367 397,-367 397,-37 8,-37"/>
<polygon fill="#f5f5f5" stroke="transparent" points="10.5,-343 10.5,-365 395.5,-365 395.5,-343 10.5,-343"/>
<polygon fill="none" stroke="black" points="10.5,-343 10.5,-365 395.5,-365 395.5,-343 10.5,-343"/>
<text text-anchor="start" x="15.5" y="-352.2" font-family="Helvetica,sans-Serif" font-weight="bold" font-size="11.00">bio_ecol_assessment_impact_macroinvertebrates</text>
<text text-anchor="start" x="356.5" y="-351.2" font-family="Helvetica,sans-Serif" font-size="11.00">[table]</text>
<polygon fill="none" stroke="black" points="10.5,-321 10.5,-343 325.5,-343 325.5,-321 10.5,-321"/>
<image xlink:href="../../images/primaryKeys.png" width="11px" height="12px" preserveAspectRatio="xMinYMin meet" x="15.5" y="-338"/>
<text text-anchor="start" x="30.5" y="-329.2" font-family="Helvetica,sans-Serif" font-size="11.00">code</text>
<polygon fill="none" stroke="black" points="325.5,-321 325.5,-343 395.5,-343 395.5,-321 325.5,-321"/>
<text text-anchor="start" x="328.5" y="-329.2" font-family="Helvetica,sans-Serif" font-size="11.00">int4[10]</text>
<polygon fill="none" stroke="black" points="10.5,-299 10.5,-321 325.5,-321 325.5,-299 10.5,-299"/>
<text text-anchor="start" x="30.5" y="-307.2" font-family="Helvetica,sans-Serif" font-size="11.00">vsacode</text>
<polygon fill="none" stroke="black" points="325.5,-299 325.5,-321 395.5,-321 395.5,-299 325.5,-299"/>
<text text-anchor="start" x="328.5" y="-307.2" font-family="Helvetica,sans-Serif" font-size="11.00">int4[10]</text>
<polygon fill="none" stroke="black" points="10.5,-277 10.5,-299 325.5,-299 325.5,-277 10.5,-277"/>
<text text-anchor="start" x="30.5" y="-285.2" font-family="Helvetica,sans-Serif" font-size="11.00">value_en</text>
<polygon fill="none" stroke="black" points="325.5,-277 325.5,-299 395.5,-299 395.5,-277 325.5,-277"/>
<text text-anchor="start" x="328.5" y="-285.2" font-family="Helvetica,sans-Serif" font-size="11.00">varchar[100]</text>
<polygon fill="none" stroke="black" points="10.5,-255 10.5,-277 325.5,-277 325.5,-255 10.5,-255"/>
<text text-anchor="start" x="30.5" y="-263.2" font-family="Helvetica,sans-Serif" font-size="11.00">value_de</text>
<polygon fill="none" stroke="black" points="325.5,-255 325.5,-277 395.5,-277 395.5,-255 325.5,-255"/>
<text text-anchor="start" x="328.5" y="-263.2" font-family="Helvetica,sans-Serif" font-size="11.00">varchar[100]</text>
<polygon fill="none" stroke="black" points="10.5,-233 10.5,-255 325.5,-255 325.5,-233 10.5,-233"/>
<text text-anchor="start" x="30.5" y="-241.2" font-family="Helvetica,sans-Serif" font-size="11.00">value_fr</text>
<polygon fill="none" stroke="black" points="325.5,-233 325.5,-255 395.5,-255 395.5,-233 325.5,-233"/>
<text text-anchor="start" x="328.5" y="-241.2" font-family="Helvetica,sans-Serif" font-size="11.00">varchar[100]</text>
<polygon fill="none" stroke="black" points="10.5,-211 10.5,-233 325.5,-233 325.5,-211 10.5,-211"/>
<text text-anchor="start" x="30.5" y="-219.2" font-family="Helvetica,sans-Serif" font-size="11.00">value_it</text>
<polygon fill="none" stroke="black" points="325.5,-211 325.5,-233 395.5,-233 395.5,-211 325.5,-211"/>
<text text-anchor="start" x="328.5" y="-219.2" font-family="Helvetica,sans-Serif" font-size="11.00">varchar[100]</text>
<polygon fill="none" stroke="black" points="10.5,-189 10.5,-211 325.5,-211 325.5,-189 10.5,-189"/>
<text text-anchor="start" x="30.5" y="-197.2" font-family="Helvetica,sans-Serif" font-size="11.00">value_ro</text>
<polygon fill="none" stroke="black" points="325.5,-189 325.5,-211 395.5,-211 395.5,-189 325.5,-189"/>
<text text-anchor="start" x="328.5" y="-197.2" font-family="Helvetica,sans-Serif" font-size="11.00">varchar[100]</text>
<polygon fill="none" stroke="black" points="10.5,-167 10.5,-189 325.5,-189 325.5,-167 10.5,-167"/>
<text text-anchor="start" x="30.5" y="-175.2" font-family="Helvetica,sans-Serif" font-size="11.00">abbr_en</text>
<polygon fill="none" stroke="black" points="325.5,-167 325.5,-189 395.5,-189 395.5,-167 325.5,-167"/>
<text text-anchor="start" x="328.5" y="-175.2" font-family="Helvetica,sans-Serif" font-size="11.00">varchar[3]</text>
<polygon fill="none" stroke="black" points="10.5,-145 10.5,-167 325.5,-167 325.5,-145 10.5,-145"/>
<text text-anchor="start" x="30.5" y="-153.2" font-family="Helvetica,sans-Serif" font-size="11.00">abbr_de</text>
<polygon fill="none" stroke="black" points="325.5,-145 325.5,-167 395.5,-167 395.5,-145 325.5,-145"/>
<text text-anchor="start" x="328.5" y="-153.2" font-family="Helvetica,sans-Serif" font-size="11.00">varchar[3]</text>
<polygon fill="none" stroke="black" points="10.5,-123 10.5,-145 325.5,-145 325.5,-123 10.5,-123"/>
<text text-anchor="start" x="30.5" y="-131.2" font-family="Helvetica,sans-Serif" font-size="11.00">abbr_fr</text>
<polygon fill="none" stroke="black" points="325.5,-123 325.5,-145 395.5,-145 395.5,-123 325.5,-123"/>
<text text-anchor="start" x="328.5" y="-131.2" font-family="Helvetica,sans-Serif" font-size="11.00">varchar[3]</text>
<polygon fill="none" stroke="black" points="10.5,-101 10.5,-123 325.5,-123 325.5,-101 10.5,-101"/>
<text text-anchor="start" x="30.5" y="-109.2" font-family="Helvetica,sans-Serif" font-size="11.00">abbr_it</text>
<polygon fill="none" stroke="black" points="325.5,-101 325.5,-123 395.5,-123 395.5,-101 325.5,-101"/>
<text text-anchor="start" x="328.5" y="-109.2" font-family="Helvetica,sans-Serif" font-size="11.00">varchar[3]</text>
<polygon fill="none" stroke="black" points="10.5,-79 10.5,-101 325.5,-101 325.5,-79 10.5,-79"/>
<text text-anchor="start" x="30.5" y="-87.2" font-family="Helvetica,sans-Serif" font-size="11.00">abbr_ro</text>
<polygon fill="none" stroke="black" points="325.5,-79 325.5,-101 395.5,-101 395.5,-79 325.5,-79"/>
<text text-anchor="start" x="328.5" y="-87.2" font-family="Helvetica,sans-Serif" font-size="11.00">varchar[3]</text>
<polygon fill="none" stroke="black" points="10.5,-57 10.5,-79 325.5,-79 325.5,-57 10.5,-57"/>
<text text-anchor="start" x="30.5" y="-65.2" font-family="Helvetica,sans-Serif" font-size="11.00">active</text>
<polygon fill="none" stroke="black" points="325.5,-57 325.5,-79 395.5,-79 395.5,-57 325.5,-57"/>
<text text-anchor="start" x="328.5" y="-65.2" font-family="Helvetica,sans-Serif" font-size="11.00">bool[1]</text>
<polygon fill="#ffffff" stroke="transparent" points="10.5,-39 10.5,-57 172.5,-57 172.5,-39 10.5,-39"/>
<polygon fill="none" stroke="black" points="10.5,-39 10.5,-57 172.5,-57 172.5,-39 10.5,-39"/>
<text text-anchor="start" x="13.5" y="-45.2" font-family="Helvetica,sans-Serif" font-size="11.00">&lt; 0</text>
<polygon fill="#ffffff" stroke="transparent" points="172.5,-39 172.5,-57 325.5,-57 325.5,-39 172.5,-39"/>
<polygon fill="none" stroke="black" points="172.5,-39 172.5,-57 325.5,-57 325.5,-39 172.5,-39"/>
<text text-anchor="start" x="315.5" y="-45.2" font-family="Helvetica,sans-Serif" font-size="11.00"> &#160;</text>
<polygon fill="#ffffff" stroke="transparent" points="325.5,-39 325.5,-57 395.5,-57 395.5,-39 325.5,-39"/>
<polygon fill="none" stroke="black" points="325.5,-39 325.5,-57 395.5,-57 395.5,-39 325.5,-39"/>
<text text-anchor="start" x="376.5" y="-45.2" font-family="Helvetica,sans-Serif" font-size="11.00">1 &gt;</text>
<polygon fill="none" stroke="black" stroke-width="2" points="9,-38 9,-366 396,-366 396,-38 9,-38"/>
</a>
</g>
</g>
<!-- tww_od.bio_ecol_assessment&#45;&gt;bio_ecol_assessment_impact_macroinvertebrates -->
<g id="edge1" class="edge">
<title>tww_od.bio_ecol_assessment:w&#45;&gt;bio_ecol_assessment_impact_macroinvertebrates:e</title>
<path fill="none" stroke="black" d="M430.28,-332C419.29,-332 412.16,-332 396.5,-332"/>
<polygon fill="black" stroke="black" points="437,-332 445,-335.6 441,-332 445,-332 445,-332 445,-332 441,-332 445,-328.4 437,-332 437,-332"/>
<ellipse fill="none" stroke="black" cx="433.8" cy="-332" rx="3.2" ry="3.2"/>
</g>
</g>
</svg>
