<?xml version="1.0" encoding="UTF-8" standalone="no"?>
<!DOCTYPE svg PUBLIC "-//W3C//DTD SVG 1.1//EN"
 "http://www.w3.org/Graphics/SVG/1.1/DTD/svg11.dtd">
<!-- Generated by graphviz version 2.43.0 (0)
 -->
<!-- Title: oneDegreeRelationshipsDiagram Pages: 1 -->
<svg width="676pt" height="421pt"
 viewBox="0.00 0.00 676.00 421.00" xmlns="http://www.w3.org/2000/svg" xmlns:xlink="http://www.w3.org/1999/xlink">
<g id="graph0" class="graph" transform="scale(1 1) rotate(0) translate(4 417)">
<title>oneDegreeRelationshipsDiagram</title>
<polygon fill="#ffffff" stroke="transparent" points="-4,4 -4,-417 672,-417 672,4 -4,4"/>
<text text-anchor="middle" x="79.5" y="-7.2" font-family="Helvetica,sans-Serif" font-size="11.00">Generated by SchemaSpy</text>
<!-- tww_od.agxx_building_group_text -->
<g id="node1" class="node">
<title>tww_od.agxx_building_group_text</title>
<g id="a_node1"><a xlink:href="../../../tww_od/tables/agxx_building_group_text.html" xlink:title="tww_od.agxx_building_group_text" target="_top">
<polygon fill="#ffffff" stroke="transparent" points="367,-285 367,-409 660,-409 660,-285 367,-285"/>
<polygon fill="#f5f5f5" stroke="transparent" points="367.5,-387 367.5,-409 660.5,-409 660.5,-387 367.5,-387"/>
<polygon fill="none" stroke="black" points="367.5,-387 367.5,-409 660.5,-409 660.5,-387 367.5,-387"/>
<text text-anchor="start" x="372.5" y="-396.2" font-family="Helvetica,sans-Serif" font-weight="bold" font-size="11.00">tww_od.agxx_building_group_text</text>
<text text-anchor="start" x="618.5" y="-395.2" font-family="Helvetica,sans-Serif" font-size="11.00">[table]</text>
<polygon fill="none" stroke="black" points="367.5,-365 367.5,-387 660.5,-387 660.5,-365 367.5,-365"/>
<image xlink:href="../../images/foreignKeys.png" width="11px" height="12px" preserveAspectRatio="xMinYMin meet" x="372.5" y="-382"/>
<text text-anchor="start" x="430.5" y="-373.2" font-family="Helvetica,sans-Serif" font-size="11.00">plantype</text>
<polygon fill="none" stroke="black" points="367.5,-343 367.5,-365 660.5,-365 660.5,-343 367.5,-343"/>
<image xlink:href="../../images/foreignKeys.png" width="11px" height="12px" preserveAspectRatio="xMinYMin meet" x="372.5" y="-360"/>
<text text-anchor="start" x="430.5" y="-351.2" font-family="Helvetica,sans-Serif" font-size="11.00">texthali</text>
<polygon fill="none" stroke="black" points="367.5,-321 367.5,-343 660.5,-343 660.5,-321 367.5,-321"/>
<image xlink:href="../../images/foreignKeys.png" width="11px" height="12px" preserveAspectRatio="xMinYMin meet" x="372.5" y="-338"/>
<text text-anchor="start" x="430.5" y="-329.2" font-family="Helvetica,sans-Serif" font-size="11.00">textvali</text>
<polygon fill="none" stroke="black" points="367.5,-303 367.5,-321 660.5,-321 660.5,-303 367.5,-303"/>
<text text-anchor="start" x="370.5" y="-309.2" font-family="Helvetica,sans-Serif" font-size="11.00">...</text>
<polygon fill="#ffffff" stroke="transparent" points="367.5,-285 367.5,-303 660.5,-303 660.5,-285 367.5,-285"/>
<polygon fill="none" stroke="black" points="367.5,-285 367.5,-303 660.5,-303 660.5,-285 367.5,-285"/>
<polygon fill="#ffffff" stroke="transparent" points="368.5,-286 368.5,-302 464.5,-302 464.5,-286 368.5,-286"/>
<text text-anchor="start" x="370.5" y="-291.2" font-family="Helvetica,sans-Serif" font-size="11.00">&lt; 3</text>
<polygon fill="#ffffff" stroke="transparent" points="464.5,-286 464.5,-302 576.5,-302 576.5,-286 464.5,-286"/>
<text text-anchor="start" x="502" y="-291.2" font-family="Helvetica,sans-Serif" font-size="11.00">0 rows</text>
<polygon fill="#ffffff" stroke="transparent" points="576.5,-286 576.5,-302 659.5,-302 659.5,-286 576.5,-286"/>
<text text-anchor="start" x="649.5" y="-291.2" font-family="Helvetica,sans-Serif" font-size="11.00"> &#160;</text>
<polygon fill="black" stroke="black" points="464.5,-286 464.5,-302 464.5,-302 464.5,-286 464.5,-286"/>
<polygon fill="black" stroke="black" points="576.5,-286 576.5,-302 576.5,-302 576.5,-286 576.5,-286"/>
</a>
</g>
</g>
<!-- building_group_text_textvali -->
<g id="node2" class="node">
<title>building_group_text_textvali</title>
<g id="a_node2"><a xlink:href="../../tables/building_group_text_textvali.html" xlink:title="building_group_text_textvali" target="_top">
<polygon fill="#ffffff" stroke="transparent" points="8,-37 8,-367 318,-367 318,-37 8,-37"/>
<polygon fill="#f5f5f5" stroke="transparent" points="10,-343 10,-365 316,-365 316,-343 10,-343"/>
<polygon fill="none" stroke="black" points="10,-343 10,-365 316,-365 316,-343 10,-343"/>
<text text-anchor="start" x="15" y="-352.2" font-family="Helvetica,sans-Serif" font-weight="bold" font-size="11.00">building_group_text_textvali</text>
<text text-anchor="start" x="274" y="-351.2" font-family="Helvetica,sans-Serif" font-size="11.00">[table]</text>
<polygon fill="none" stroke="black" points="10,-321 10,-343 238,-343 238,-321 10,-321"/>
<image xlink:href="../../images/primaryKeys.png" width="11px" height="12px" preserveAspectRatio="xMinYMin meet" x="15" y="-338"/>
<text text-anchor="start" x="30" y="-329.2" font-family="Helvetica,sans-Serif" font-size="11.00">code</text>
<polygon fill="none" stroke="black" points="238,-321 238,-343 316,-343 316,-321 238,-321"/>
<text text-anchor="start" x="241" y="-329.2" font-family="Helvetica,sans-Serif" font-size="11.00">int4[10]</text>
<polygon fill="none" stroke="black" points="10,-299 10,-321 238,-321 238,-299 10,-299"/>
<text text-anchor="start" x="30" y="-307.2" font-family="Helvetica,sans-Serif" font-size="11.00">vsacode</text>
<polygon fill="none" stroke="black" points="238,-299 238,-321 316,-321 316,-299 238,-299"/>
<text text-anchor="start" x="241" y="-307.2" font-family="Helvetica,sans-Serif" font-size="11.00">int4[10]</text>
<polygon fill="none" stroke="black" points="10,-277 10,-299 238,-299 238,-277 10,-277"/>
<text text-anchor="start" x="30" y="-285.2" font-family="Helvetica,sans-Serif" font-size="11.00">value_en</text>
<polygon fill="none" stroke="black" points="238,-277 238,-299 316,-299 316,-277 238,-277"/>
<text text-anchor="start" x="241" y="-285.2" font-family="Helvetica,sans-Serif" font-size="11.00">varchar[100]</text>
<polygon fill="none" stroke="black" points="10,-255 10,-277 238,-277 238,-255 10,-255"/>
<text text-anchor="start" x="30" y="-263.2" font-family="Helvetica,sans-Serif" font-size="11.00">value_de</text>
<polygon fill="none" stroke="black" points="238,-255 238,-277 316,-277 316,-255 238,-255"/>
<text text-anchor="start" x="241" y="-263.2" font-family="Helvetica,sans-Serif" font-size="11.00">varchar[100]</text>
<polygon fill="none" stroke="black" points="10,-233 10,-255 238,-255 238,-233 10,-233"/>
<text text-anchor="start" x="30" y="-241.2" font-family="Helvetica,sans-Serif" font-size="11.00">value_fr</text>
<polygon fill="none" stroke="black" points="238,-233 238,-255 316,-255 316,-233 238,-233"/>
<text text-anchor="start" x="241" y="-241.2" font-family="Helvetica,sans-Serif" font-size="11.00">varchar[100]</text>
<polygon fill="none" stroke="black" points="10,-211 10,-233 238,-233 238,-211 10,-211"/>
<text text-anchor="start" x="30" y="-219.2" font-family="Helvetica,sans-Serif" font-size="11.00">value_it</text>
<polygon fill="none" stroke="black" points="238,-211 238,-233 316,-233 316,-211 238,-211"/>
<text text-anchor="start" x="241" y="-219.2" font-family="Helvetica,sans-Serif" font-size="11.00">varchar[100]</text>
<polygon fill="none" stroke="black" points="10,-189 10,-211 238,-211 238,-189 10,-189"/>
<text text-anchor="start" x="30" y="-197.2" font-family="Helvetica,sans-Serif" font-size="11.00">value_ro</text>
<polygon fill="none" stroke="black" points="238,-189 238,-211 316,-211 316,-189 238,-189"/>
<text text-anchor="start" x="241" y="-197.2" font-family="Helvetica,sans-Serif" font-size="11.00">varchar[100]</text>
<polygon fill="none" stroke="black" points="10,-167 10,-189 238,-189 238,-167 10,-167"/>
<text text-anchor="start" x="30" y="-175.2" font-family="Helvetica,sans-Serif" font-size="11.00">abbr_en</text>
<polygon fill="none" stroke="black" points="238,-167 238,-189 316,-189 316,-167 238,-167"/>
<text text-anchor="start" x="241" y="-175.2" font-family="Helvetica,sans-Serif" font-size="11.00">varchar[3]</text>
<polygon fill="none" stroke="black" points="10,-145 10,-167 238,-167 238,-145 10,-145"/>
<text text-anchor="start" x="30" y="-153.2" font-family="Helvetica,sans-Serif" font-size="11.00">abbr_de</text>
<polygon fill="none" stroke="black" points="238,-145 238,-167 316,-167 316,-145 238,-145"/>
<text text-anchor="start" x="241" y="-153.2" font-family="Helvetica,sans-Serif" font-size="11.00">varchar[3]</text>
<polygon fill="none" stroke="black" points="10,-123 10,-145 238,-145 238,-123 10,-123"/>
<text text-anchor="start" x="30" y="-131.2" font-family="Helvetica,sans-Serif" font-size="11.00">abbr_fr</text>
<polygon fill="none" stroke="black" points="238,-123 238,-145 316,-145 316,-123 238,-123"/>
<text text-anchor="start" x="241" y="-131.2" font-family="Helvetica,sans-Serif" font-size="11.00">varchar[3]</text>
<polygon fill="none" stroke="black" points="10,-101 10,-123 238,-123 238,-101 10,-101"/>
<text text-anchor="start" x="30" y="-109.2" font-family="Helvetica,sans-Serif" font-size="11.00">abbr_it</text>
<polygon fill="none" stroke="black" points="238,-101 238,-123 316,-123 316,-101 238,-101"/>
<text text-anchor="start" x="241" y="-109.2" font-family="Helvetica,sans-Serif" font-size="11.00">varchar[3]</text>
<polygon fill="none" stroke="black" points="10,-79 10,-101 238,-101 238,-79 10,-79"/>
<text text-anchor="start" x="30" y="-87.2" font-family="Helvetica,sans-Serif" font-size="11.00">abbr_ro</text>
<polygon fill="none" stroke="black" points="238,-79 238,-101 316,-101 316,-79 238,-79"/>
<text text-anchor="start" x="241" y="-87.2" font-family="Helvetica,sans-Serif" font-size="11.00">varchar[3]</text>
<polygon fill="none" stroke="black" points="10,-57 10,-79 238,-79 238,-57 10,-57"/>
<text text-anchor="start" x="30" y="-65.2" font-family="Helvetica,sans-Serif" font-size="11.00">active</text>
<polygon fill="none" stroke="black" points="238,-57 238,-79 316,-79 316,-57 238,-57"/>
<text text-anchor="start" x="241" y="-65.2" font-family="Helvetica,sans-Serif" font-size="11.00">bool[1]</text>
<polygon fill="#ffffff" stroke="transparent" points="10,-39 10,-57 316,-57 316,-39 10,-39"/>
<polygon fill="none" stroke="black" points="10,-39 10,-57 316,-57 316,-39 10,-39"/>
<polygon fill="#ffffff" stroke="transparent" points="11,-40 11,-56 117,-56 117,-40 11,-40"/>
<text text-anchor="start" x="13" y="-45.2" font-family="Helvetica,sans-Serif" font-size="11.00">&lt; 0</text>
<polygon fill="#ffffff" stroke="transparent" points="117,-40 117,-56 210,-56 210,-40 117,-40"/>
<text text-anchor="start" x="159.5" y="-45.2" font-family="Helvetica,sans-Serif" font-size="11.00"> &#160;</text>
<polygon fill="#ffffff" stroke="transparent" points="210,-40 210,-56 315,-56 315,-40 210,-40"/>
<text text-anchor="start" x="293" y="-45.2" font-family="Helvetica,sans-Serif" font-size="11.00">1 &gt;</text>
<polygon fill="black" stroke="black" points="117,-40 117,-56 117,-56 117,-40 117,-40"/>
<polygon fill="black" stroke="black" points="210,-40 210,-56 210,-56 210,-40 210,-40"/>
<polygon fill="none" stroke="black" stroke-width="2" points="9,-38 9,-366 317,-366 317,-38 9,-38"/>
</a>
</g>
</g>
<!-- tww_od.agxx_building_group_text&#45;&gt;building_group_text_textvali -->
<g id="edge1" class="edge">
<title>tww_od.agxx_building_group_text:w&#45;&gt;building_group_text_textvali:e</title>
<path fill="none" stroke="black" d="M351.84,-332C340.41,-332 333.16,-332 317,-332"/>
<polygon fill="black" stroke="black" points="358.5,-332 366.5,-335.6 362.5,-332 366.5,-332 366.5,-332 366.5,-332 362.5,-332 366.5,-328.4 358.5,-332 358.5,-332"/>
<ellipse fill="none" stroke="black" cx="355.3" cy="-332" rx="3.2" ry="3.2"/>
</g>
</g>
</svg>
