<?xml version="1.0" encoding="UTF-8" standalone="no"?>
<!DOCTYPE svg PUBLIC "-//W3C//DTD SVG 1.1//EN"
 "http://www.w3.org/Graphics/SVG/1.1/DTD/svg11.dtd">
<!-- Generated by graphviz version 2.43.0 (0)
 -->
<!-- Title: oneDegreeRelationshipsDiagram Pages: 1 -->
<svg width="556pt" height="465pt"
 viewBox="0.00 0.00 556.00 465.00" xmlns="http://www.w3.org/2000/svg" xmlns:xlink="http://www.w3.org/1999/xlink">
<g id="graph0" class="graph" transform="scale(1 1) rotate(0) translate(4 461)">
<title>oneDegreeRelationshipsDiagram</title>
<polygon fill="#ffffff" stroke="transparent" points="-4,4 -4,-461 552,-461 552,4 -4,4"/>
<text text-anchor="middle" x="79.5" y="-7.2" font-family="Helvetica,sans-Serif" font-size="11.00">Generated by SchemaSpy</text>
<!-- tww_od.channel -->
<g id="node1" class="node">
<title>tww_od.channel</title>
<g id="a_node1"><a xlink:href="../../../tww_od/tables/channel.html" xlink:title="tww_od.channel" target="_top">
<polygon fill="#ffffff" stroke="transparent" points="359,-219 359,-453 540,-453 540,-219 359,-219"/>
<polygon fill="#f5f5f5" stroke="transparent" points="359.5,-431 359.5,-453 540.5,-453 540.5,-431 359.5,-431"/>
<polygon fill="none" stroke="black" points="359.5,-431 359.5,-453 540.5,-453 540.5,-431 359.5,-431"/>
<text text-anchor="start" x="364.5" y="-440.2" font-family="Helvetica,sans-Serif" font-weight="bold" font-size="11.00">tww_od.channel</text>
<text text-anchor="start" x="498.5" y="-439.2" font-family="Helvetica,sans-Serif" font-size="11.00">[table]</text>
<polygon fill="none" stroke="black" points="359.5,-409 359.5,-431 540.5,-431 540.5,-409 359.5,-409"/>
<image xlink:href="../../images/foreignKeys.png" width="11px" height="12px" preserveAspectRatio="xMinYMin meet" x="364.5" y="-426"/>
<text text-anchor="start" x="379.5" y="-417.2" font-family="Helvetica,sans-Serif" font-size="11.00">bedding_encasement</text>
<polygon fill="none" stroke="black" points="359.5,-387 359.5,-409 540.5,-409 540.5,-387 359.5,-387"/>
<image xlink:href="../../images/foreignKeys.png" width="11px" height="12px" preserveAspectRatio="xMinYMin meet" x="364.5" y="-404"/>
<text text-anchor="start" x="379.5" y="-395.2" font-family="Helvetica,sans-Serif" font-size="11.00">connection_type</text>
<polygon fill="none" stroke="black" points="359.5,-365 359.5,-387 540.5,-387 540.5,-365 359.5,-365"/>
<image xlink:href="../../images/foreignKeys.png" width="11px" height="12px" preserveAspectRatio="xMinYMin meet" x="364.5" y="-382"/>
<text text-anchor="start" x="379.5" y="-373.2" font-family="Helvetica,sans-Serif" font-size="11.00">function_amelioration</text>
<polygon fill="none" stroke="black" points="359.5,-343 359.5,-365 540.5,-365 540.5,-343 359.5,-343"/>
<image xlink:href="../../images/foreignKeys.png" width="11px" height="12px" preserveAspectRatio="xMinYMin meet" x="364.5" y="-360"/>
<text text-anchor="start" x="379.5" y="-351.2" font-family="Helvetica,sans-Serif" font-size="11.00">function_hierarchic</text>
<polygon fill="none" stroke="black" points="359.5,-321 359.5,-343 540.5,-343 540.5,-321 359.5,-321"/>
<image xlink:href="../../images/foreignKeys.png" width="11px" height="12px" preserveAspectRatio="xMinYMin meet" x="364.5" y="-338"/>
<text text-anchor="start" x="379.5" y="-329.2" font-family="Helvetica,sans-Serif" font-size="11.00">function_hydraulic</text>
<polygon fill="none" stroke="black" points="359.5,-299 359.5,-321 540.5,-321 540.5,-299 359.5,-299"/>
<image xlink:href="../../images/foreignKeys.png" width="11px" height="12px" preserveAspectRatio="xMinYMin meet" x="364.5" y="-316"/>
<text text-anchor="start" x="379.5" y="-307.2" font-family="Helvetica,sans-Serif" font-size="11.00">seepage</text>
<polygon fill="none" stroke="black" points="359.5,-277 359.5,-299 540.5,-299 540.5,-277 359.5,-277"/>
<image xlink:href="../../images/foreignKeys.png" width="11px" height="12px" preserveAspectRatio="xMinYMin meet" x="364.5" y="-294"/>
<text text-anchor="start" x="379.5" y="-285.2" font-family="Helvetica,sans-Serif" font-size="11.00">usage_current</text>
<polygon fill="none" stroke="black" points="359.5,-255 359.5,-277 540.5,-277 540.5,-255 359.5,-255"/>
<image xlink:href="../../images/foreignKeys.png" width="11px" height="12px" preserveAspectRatio="xMinYMin meet" x="364.5" y="-272"/>
<text text-anchor="start" x="379.5" y="-263.2" font-family="Helvetica,sans-Serif" font-size="11.00">usage_planned</text>
<polygon fill="none" stroke="black" points="359.5,-237 359.5,-255 540.5,-255 540.5,-237 359.5,-237"/>
<text text-anchor="start" x="362.5" y="-243.2" font-family="Helvetica,sans-Serif" font-size="11.00">...</text>
<polygon fill="#ffffff" stroke="transparent" points="359.5,-219 359.5,-237 540.5,-237 540.5,-219 359.5,-219"/>
<polygon fill="none" stroke="black" points="359.5,-219 359.5,-237 540.5,-237 540.5,-219 359.5,-219"/>
<polygon fill="#ffffff" stroke="transparent" points="360.5,-220 360.5,-236 418.5,-236 418.5,-220 360.5,-220"/>
<text text-anchor="start" x="362.5" y="-225.2" font-family="Helvetica,sans-Serif" font-size="11.00">&lt; 8</text>
<polygon fill="#ffffff" stroke="transparent" points="418.5,-220 418.5,-236 493.5,-236 493.5,-220 418.5,-220"/>
<text text-anchor="start" x="437.5" y="-225.2" font-family="Helvetica,sans-Serif" font-size="11.00">0 rows</text>
<polygon fill="#ffffff" stroke="transparent" points="493.5,-220 493.5,-236 539.5,-236 539.5,-220 493.5,-220"/>
<text text-anchor="start" x="529.5" y="-225.2" font-family="Helvetica,sans-Serif" font-size="11.00"> &#160;</text>
<polygon fill="black" stroke="black" points="418.5,-220 418.5,-236 418.5,-236 418.5,-220 418.5,-220"/>
<polygon fill="black" stroke="black" points="493.5,-220 493.5,-236 493.5,-236 493.5,-220 493.5,-220"/>
</a>
</g>
</g>
<!-- channel_function_hydraulic -->
<g id="node2" class="node">
<title>channel_function_hydraulic</title>
<g id="a_node2"><a xlink:href="../../tables/channel_function_hydraulic.html" xlink:title="channel_function_hydraulic" target="_top">
<polygon fill="#ffffff" stroke="transparent" points="8,-37 8,-367 310,-367 310,-37 8,-37"/>
<polygon fill="#f5f5f5" stroke="transparent" points="10,-343 10,-365 308,-365 308,-343 10,-343"/>
<polygon fill="none" stroke="black" points="10,-343 10,-365 308,-365 308,-343 10,-343"/>
<text text-anchor="start" x="15" y="-352.2" font-family="Helvetica,sans-Serif" font-weight="bold" font-size="11.00">channel_function_hydraulic</text>
<text text-anchor="start" x="266" y="-351.2" font-family="Helvetica,sans-Serif" font-size="11.00">[table]</text>
<polygon fill="none" stroke="black" points="10,-321 10,-343 230,-343 230,-321 10,-321"/>
<image xlink:href="../../images/primaryKeys.png" width="11px" height="12px" preserveAspectRatio="xMinYMin meet" x="15" y="-338"/>
<text text-anchor="start" x="30" y="-329.2" font-family="Helvetica,sans-Serif" font-size="11.00">code</text>
<polygon fill="none" stroke="black" points="230,-321 230,-343 308,-343 308,-321 230,-321"/>
<text text-anchor="start" x="233" y="-329.2" font-family="Helvetica,sans-Serif" font-size="11.00">int4[10]</text>
<polygon fill="none" stroke="black" points="10,-299 10,-321 230,-321 230,-299 10,-299"/>
<text text-anchor="start" x="30" y="-307.2" font-family="Helvetica,sans-Serif" font-size="11.00">vsacode</text>
<polygon fill="none" stroke="black" points="230,-299 230,-321 308,-321 308,-299 230,-299"/>
<text text-anchor="start" x="233" y="-307.2" font-family="Helvetica,sans-Serif" font-size="11.00">int4[10]</text>
<polygon fill="none" stroke="black" points="10,-277 10,-299 230,-299 230,-277 10,-277"/>
<text text-anchor="start" x="30" y="-285.2" font-family="Helvetica,sans-Serif" font-size="11.00">value_en</text>
<polygon fill="none" stroke="black" points="230,-277 230,-299 308,-299 308,-277 230,-277"/>
<text text-anchor="start" x="233" y="-285.2" font-family="Helvetica,sans-Serif" font-size="11.00">varchar[100]</text>
<polygon fill="none" stroke="black" points="10,-255 10,-277 230,-277 230,-255 10,-255"/>
<text text-anchor="start" x="30" y="-263.2" font-family="Helvetica,sans-Serif" font-size="11.00">value_de</text>
<polygon fill="none" stroke="black" points="230,-255 230,-277 308,-277 308,-255 230,-255"/>
<text text-anchor="start" x="233" y="-263.2" font-family="Helvetica,sans-Serif" font-size="11.00">varchar[100]</text>
<polygon fill="none" stroke="black" points="10,-233 10,-255 230,-255 230,-233 10,-233"/>
<text text-anchor="start" x="30" y="-241.2" font-family="Helvetica,sans-Serif" font-size="11.00">value_fr</text>
<polygon fill="none" stroke="black" points="230,-233 230,-255 308,-255 308,-233 230,-233"/>
<text text-anchor="start" x="233" y="-241.2" font-family="Helvetica,sans-Serif" font-size="11.00">varchar[100]</text>
<polygon fill="none" stroke="black" points="10,-211 10,-233 230,-233 230,-211 10,-211"/>
<text text-anchor="start" x="30" y="-219.2" font-family="Helvetica,sans-Serif" font-size="11.00">value_it</text>
<polygon fill="none" stroke="black" points="230,-211 230,-233 308,-233 308,-211 230,-211"/>
<text text-anchor="start" x="233" y="-219.2" font-family="Helvetica,sans-Serif" font-size="11.00">varchar[100]</text>
<polygon fill="none" stroke="black" points="10,-189 10,-211 230,-211 230,-189 10,-189"/>
<text text-anchor="start" x="30" y="-197.2" font-family="Helvetica,sans-Serif" font-size="11.00">value_ro</text>
<polygon fill="none" stroke="black" points="230,-189 230,-211 308,-211 308,-189 230,-189"/>
<text text-anchor="start" x="233" y="-197.2" font-family="Helvetica,sans-Serif" font-size="11.00">varchar[100]</text>
<polygon fill="none" stroke="black" points="10,-167 10,-189 230,-189 230,-167 10,-167"/>
<text text-anchor="start" x="30" y="-175.2" font-family="Helvetica,sans-Serif" font-size="11.00">abbr_en</text>
<polygon fill="none" stroke="black" points="230,-167 230,-189 308,-189 308,-167 230,-167"/>
<text text-anchor="start" x="233" y="-175.2" font-family="Helvetica,sans-Serif" font-size="11.00">varchar[3]</text>
<polygon fill="none" stroke="black" points="10,-145 10,-167 230,-167 230,-145 10,-145"/>
<text text-anchor="start" x="30" y="-153.2" font-family="Helvetica,sans-Serif" font-size="11.00">abbr_de</text>
<polygon fill="none" stroke="black" points="230,-145 230,-167 308,-167 308,-145 230,-145"/>
<text text-anchor="start" x="233" y="-153.2" font-family="Helvetica,sans-Serif" font-size="11.00">varchar[3]</text>
<polygon fill="none" stroke="black" points="10,-123 10,-145 230,-145 230,-123 10,-123"/>
<text text-anchor="start" x="30" y="-131.2" font-family="Helvetica,sans-Serif" font-size="11.00">abbr_fr</text>
<polygon fill="none" stroke="black" points="230,-123 230,-145 308,-145 308,-123 230,-123"/>
<text text-anchor="start" x="233" y="-131.2" font-family="Helvetica,sans-Serif" font-size="11.00">varchar[3]</text>
<polygon fill="none" stroke="black" points="10,-101 10,-123 230,-123 230,-101 10,-101"/>
<text text-anchor="start" x="30" y="-109.2" font-family="Helvetica,sans-Serif" font-size="11.00">abbr_it</text>
<polygon fill="none" stroke="black" points="230,-101 230,-123 308,-123 308,-101 230,-101"/>
<text text-anchor="start" x="233" y="-109.2" font-family="Helvetica,sans-Serif" font-size="11.00">varchar[3]</text>
<polygon fill="none" stroke="black" points="10,-79 10,-101 230,-101 230,-79 10,-79"/>
<text text-anchor="start" x="30" y="-87.2" font-family="Helvetica,sans-Serif" font-size="11.00">abbr_ro</text>
<polygon fill="none" stroke="black" points="230,-79 230,-101 308,-101 308,-79 230,-79"/>
<text text-anchor="start" x="233" y="-87.2" font-family="Helvetica,sans-Serif" font-size="11.00">varchar[3]</text>
<polygon fill="none" stroke="black" points="10,-57 10,-79 230,-79 230,-57 10,-57"/>
<text text-anchor="start" x="30" y="-65.2" font-family="Helvetica,sans-Serif" font-size="11.00">active</text>
<polygon fill="none" stroke="black" points="230,-57 230,-79 308,-79 308,-57 230,-57"/>
<text text-anchor="start" x="233" y="-65.2" font-family="Helvetica,sans-Serif" font-size="11.00">bool[1]</text>
<polygon fill="#ffffff" stroke="transparent" points="10,-39 10,-57 308,-57 308,-39 10,-39"/>
<polygon fill="none" stroke="black" points="10,-39 10,-57 308,-57 308,-39 10,-39"/>
<polygon fill="#ffffff" stroke="transparent" points="11,-40 11,-56 114,-56 114,-40 11,-40"/>
<text text-anchor="start" x="13" y="-45.2" font-family="Helvetica,sans-Serif" font-size="11.00">&lt; 0</text>
<polygon fill="#ffffff" stroke="transparent" points="114,-40 114,-56 205,-56 205,-40 114,-40"/>
<text text-anchor="start" x="155.5" y="-45.2" font-family="Helvetica,sans-Serif" font-size="11.00"> &#160;</text>
<polygon fill="#ffffff" stroke="transparent" points="205,-40 205,-56 307,-56 307,-40 205,-40"/>
<text text-anchor="start" x="285" y="-45.2" font-family="Helvetica,sans-Serif" font-size="11.00">1 &gt;</text>
<polygon fill="black" stroke="black" points="114,-40 114,-56 114,-56 114,-40 114,-40"/>
<polygon fill="black" stroke="black" points="205,-40 205,-56 205,-56 205,-40 205,-40"/>
<polygon fill="none" stroke="black" stroke-width="2" points="9,-38 9,-366 309,-366 309,-38 9,-38"/>
</a>
</g>
</g>
<!-- tww_od.channel&#45;&gt;channel_function_hydraulic -->
<g id="edge1" class="edge">
<title>tww_od.channel:w&#45;&gt;channel_function_hydraulic:e</title>
<path fill="none" stroke="black" d="M343.84,-332C332.41,-332 325.16,-332 309,-332"/>
<polygon fill="black" stroke="black" points="350.5,-332 358.5,-335.6 354.5,-332 358.5,-332 358.5,-332 358.5,-332 354.5,-332 358.5,-328.4 350.5,-332 350.5,-332"/>
<ellipse fill="none" stroke="black" cx="347.3" cy="-332" rx="3.2" ry="3.2"/>
</g>
</g>
</svg>
