<?xml version="1.0" encoding="UTF-8" standalone="no"?>
<!DOCTYPE svg PUBLIC "-//W3C//DTD SVG 1.1//EN"
 "http://www.w3.org/Graphics/SVG/1.1/DTD/svg11.dtd">
<!-- Generated by graphviz version 2.43.0 (0)
 -->
<!-- Title: oneDegreeRelationshipsDiagram Pages: 1 -->
<svg width="558pt" height="751pt"
 viewBox="0.00 0.00 558.00 751.00" xmlns="http://www.w3.org/2000/svg" xmlns:xlink="http://www.w3.org/1999/xlink">
<g id="graph0" class="graph" transform="scale(1 1) rotate(0) translate(4 747)">
<title>oneDegreeRelationshipsDiagram</title>
<polygon fill="#ffffff" stroke="transparent" points="-4,4 -4,-747 554,-747 554,4 -4,4"/>
<text text-anchor="middle" x="79.5" y="-7.2" font-family="Helvetica,sans-Serif" font-size="11.00">Generated by SchemaSpy</text>
<!-- tww_od.channel -->
<g id="node1" class="node">
<title>tww_od.channel</title>
<g id="a_node1"><a xlink:href="../../../tww_od/tables/channel.html" xlink:title="tww_od.channel" target="_top">
<polygon fill="#ffffff" stroke="transparent" points="361,-505 361,-739 542,-739 542,-505 361,-505"/>
<polygon fill="#f5f5f5" stroke="transparent" points="361.5,-717 361.5,-739 542.5,-739 542.5,-717 361.5,-717"/>
<polygon fill="none" stroke="black" points="361.5,-717 361.5,-739 542.5,-739 542.5,-717 361.5,-717"/>
<text text-anchor="start" x="366.5" y="-726.2" font-family="Helvetica,sans-Serif" font-weight="bold" font-size="11.00">tww_od.channel</text>
<text text-anchor="start" x="500.5" y="-725.2" font-family="Helvetica,sans-Serif" font-size="11.00">[table]</text>
<polygon fill="none" stroke="black" points="361.5,-695 361.5,-717 542.5,-717 542.5,-695 361.5,-695"/>
<image xlink:href="../../images/foreignKeys.png" width="11px" height="12px" preserveAspectRatio="xMinYMin meet" x="366.5" y="-712"/>
<text text-anchor="start" x="381.5" y="-703.2" font-family="Helvetica,sans-Serif" font-size="11.00">bedding_encasement</text>
<polygon fill="none" stroke="black" points="361.5,-673 361.5,-695 542.5,-695 542.5,-673 361.5,-673"/>
<image xlink:href="../../images/foreignKeys.png" width="11px" height="12px" preserveAspectRatio="xMinYMin meet" x="366.5" y="-690"/>
<text text-anchor="start" x="381.5" y="-681.2" font-family="Helvetica,sans-Serif" font-size="11.00">connection_type</text>
<polygon fill="none" stroke="black" points="361.5,-651 361.5,-673 542.5,-673 542.5,-651 361.5,-651"/>
<image xlink:href="../../images/foreignKeys.png" width="11px" height="12px" preserveAspectRatio="xMinYMin meet" x="366.5" y="-668"/>
<text text-anchor="start" x="381.5" y="-659.2" font-family="Helvetica,sans-Serif" font-size="11.00">function_amelioration</text>
<polygon fill="none" stroke="black" points="361.5,-629 361.5,-651 542.5,-651 542.5,-629 361.5,-629"/>
<image xlink:href="../../images/foreignKeys.png" width="11px" height="12px" preserveAspectRatio="xMinYMin meet" x="366.5" y="-646"/>
<text text-anchor="start" x="381.5" y="-637.2" font-family="Helvetica,sans-Serif" font-size="11.00">function_hierarchic</text>
<polygon fill="none" stroke="black" points="361.5,-607 361.5,-629 542.5,-629 542.5,-607 361.5,-607"/>
<image xlink:href="../../images/foreignKeys.png" width="11px" height="12px" preserveAspectRatio="xMinYMin meet" x="366.5" y="-624"/>
<text text-anchor="start" x="381.5" y="-615.2" font-family="Helvetica,sans-Serif" font-size="11.00">function_hydraulic</text>
<polygon fill="none" stroke="black" points="361.5,-585 361.5,-607 542.5,-607 542.5,-585 361.5,-585"/>
<image xlink:href="../../images/foreignKeys.png" width="11px" height="12px" preserveAspectRatio="xMinYMin meet" x="366.5" y="-602"/>
<text text-anchor="start" x="381.5" y="-593.2" font-family="Helvetica,sans-Serif" font-size="11.00">seepage</text>
<polygon fill="none" stroke="black" points="361.5,-563 361.5,-585 542.5,-585 542.5,-563 361.5,-563"/>
<image xlink:href="../../images/foreignKeys.png" width="11px" height="12px" preserveAspectRatio="xMinYMin meet" x="366.5" y="-580"/>
<text text-anchor="start" x="381.5" y="-571.2" font-family="Helvetica,sans-Serif" font-size="11.00">usage_current</text>
<polygon fill="none" stroke="black" points="361.5,-541 361.5,-563 542.5,-563 542.5,-541 361.5,-541"/>
<image xlink:href="../../images/foreignKeys.png" width="11px" height="12px" preserveAspectRatio="xMinYMin meet" x="366.5" y="-558"/>
<text text-anchor="start" x="381.5" y="-549.2" font-family="Helvetica,sans-Serif" font-size="11.00">usage_planned</text>
<polygon fill="none" stroke="black" points="361.5,-523 361.5,-541 542.5,-541 542.5,-523 361.5,-523"/>
<text text-anchor="start" x="364.5" y="-529.2" font-family="Helvetica,sans-Serif" font-size="11.00">...</text>
<polygon fill="#ffffff" stroke="transparent" points="361.5,-505 361.5,-523 542.5,-523 542.5,-505 361.5,-505"/>
<polygon fill="none" stroke="black" points="361.5,-505 361.5,-523 542.5,-523 542.5,-505 361.5,-505"/>
<polygon fill="#ffffff" stroke="transparent" points="362.5,-506 362.5,-522 420.5,-522 420.5,-506 362.5,-506"/>
<text text-anchor="start" x="364.5" y="-511.2" font-family="Helvetica,sans-Serif" font-size="11.00">&lt; 8</text>
<polygon fill="#ffffff" stroke="transparent" points="420.5,-506 420.5,-522 495.5,-522 495.5,-506 420.5,-506"/>
<text text-anchor="start" x="439.5" y="-511.2" font-family="Helvetica,sans-Serif" font-size="11.00">0 rows</text>
<polygon fill="#ffffff" stroke="transparent" points="495.5,-506 495.5,-522 541.5,-522 541.5,-506 495.5,-506"/>
<text text-anchor="start" x="531.5" y="-511.2" font-family="Helvetica,sans-Serif" font-size="11.00"> &#160;</text>
<polygon fill="black" stroke="black" points="420.5,-506 420.5,-522 420.5,-522 420.5,-506 420.5,-506"/>
<polygon fill="black" stroke="black" points="495.5,-506 495.5,-522 495.5,-522 495.5,-506 495.5,-506"/>
</a>
</g>
</g>
<!-- channel_usage_planned -->
<g id="node2" class="node">
<title>channel_usage_planned</title>
<g id="a_node2"><a xlink:href="../../tables/channel_usage_planned.html" xlink:title="channel_usage_planned" target="_top">
<polygon fill="#ffffff" stroke="transparent" points="8,-37 8,-587 312,-587 312,-37 8,-37"/>
<polygon fill="#f5f5f5" stroke="transparent" points="10,-563 10,-585 310,-585 310,-563 10,-563"/>
<polygon fill="none" stroke="black" points="10,-563 10,-585 310,-585 310,-563 10,-563"/>
<text text-anchor="start" x="15" y="-572.2" font-family="Helvetica,sans-Serif" font-weight="bold" font-size="11.00">channel_usage_planned</text>
<text text-anchor="start" x="268" y="-571.2" font-family="Helvetica,sans-Serif" font-size="11.00">[table]</text>
<polygon fill="none" stroke="black" points="10,-541 10,-563 204,-563 204,-541 10,-541"/>
<image xlink:href="../../images/primaryKeys.png" width="11px" height="12px" preserveAspectRatio="xMinYMin meet" x="15" y="-558"/>
<text text-anchor="start" x="30" y="-549.2" font-family="Helvetica,sans-Serif" font-size="11.00">code</text>
<polygon fill="none" stroke="black" points="204,-541 204,-563 310,-563 310,-541 204,-541"/>
<text text-anchor="start" x="207" y="-549.2" font-family="Helvetica,sans-Serif" font-size="11.00">int4[10]</text>
<polygon fill="none" stroke="black" points="10,-519 10,-541 204,-541 204,-519 10,-519"/>
<text text-anchor="start" x="30" y="-527.2" font-family="Helvetica,sans-Serif" font-size="11.00">vsacode</text>
<polygon fill="none" stroke="black" points="204,-519 204,-541 310,-541 310,-519 204,-519"/>
<text text-anchor="start" x="207" y="-527.2" font-family="Helvetica,sans-Serif" font-size="11.00">int4[10]</text>
<polygon fill="none" stroke="black" points="10,-497 10,-519 204,-519 204,-497 10,-497"/>
<text text-anchor="start" x="30" y="-505.2" font-family="Helvetica,sans-Serif" font-size="11.00">value_en</text>
<polygon fill="none" stroke="black" points="204,-497 204,-519 310,-519 310,-497 204,-497"/>
<text text-anchor="start" x="207" y="-505.2" font-family="Helvetica,sans-Serif" font-size="11.00">varchar[100]</text>
<polygon fill="none" stroke="black" points="10,-475 10,-497 204,-497 204,-475 10,-475"/>
<text text-anchor="start" x="30" y="-483.2" font-family="Helvetica,sans-Serif" font-size="11.00">value_de</text>
<polygon fill="none" stroke="black" points="204,-475 204,-497 310,-497 310,-475 204,-475"/>
<text text-anchor="start" x="207" y="-483.2" font-family="Helvetica,sans-Serif" font-size="11.00">varchar[100]</text>
<polygon fill="none" stroke="black" points="10,-453 10,-475 204,-475 204,-453 10,-453"/>
<text text-anchor="start" x="30" y="-461.2" font-family="Helvetica,sans-Serif" font-size="11.00">value_fr</text>
<polygon fill="none" stroke="black" points="204,-453 204,-475 310,-475 310,-453 204,-453"/>
<text text-anchor="start" x="207" y="-461.2" font-family="Helvetica,sans-Serif" font-size="11.00">varchar[100]</text>
<polygon fill="none" stroke="black" points="10,-431 10,-453 204,-453 204,-431 10,-431"/>
<text text-anchor="start" x="30" y="-439.2" font-family="Helvetica,sans-Serif" font-size="11.00">value_it</text>
<polygon fill="none" stroke="black" points="204,-431 204,-453 310,-453 310,-431 204,-431"/>
<text text-anchor="start" x="207" y="-439.2" font-family="Helvetica,sans-Serif" font-size="11.00">varchar[100]</text>
<polygon fill="none" stroke="black" points="10,-409 10,-431 204,-431 204,-409 10,-409"/>
<text text-anchor="start" x="30" y="-417.2" font-family="Helvetica,sans-Serif" font-size="11.00">value_ro</text>
<polygon fill="none" stroke="black" points="204,-409 204,-431 310,-431 310,-409 204,-409"/>
<text text-anchor="start" x="207" y="-417.2" font-family="Helvetica,sans-Serif" font-size="11.00">varchar[100]</text>
<polygon fill="none" stroke="black" points="10,-387 10,-409 204,-409 204,-387 10,-387"/>
<text text-anchor="start" x="30" y="-395.2" font-family="Helvetica,sans-Serif" font-size="11.00">abbr_en</text>
<polygon fill="none" stroke="black" points="204,-387 204,-409 310,-409 310,-387 204,-387"/>
<text text-anchor="start" x="207" y="-395.2" font-family="Helvetica,sans-Serif" font-size="11.00">varchar[3]</text>
<polygon fill="none" stroke="black" points="10,-365 10,-387 204,-387 204,-365 10,-365"/>
<text text-anchor="start" x="30" y="-373.2" font-family="Helvetica,sans-Serif" font-size="11.00">abbr_de</text>
<polygon fill="none" stroke="black" points="204,-365 204,-387 310,-387 310,-365 204,-365"/>
<text text-anchor="start" x="207" y="-373.2" font-family="Helvetica,sans-Serif" font-size="11.00">varchar[3]</text>
<polygon fill="none" stroke="black" points="10,-343 10,-365 204,-365 204,-343 10,-343"/>
<text text-anchor="start" x="30" y="-351.2" font-family="Helvetica,sans-Serif" font-size="11.00">abbr_fr</text>
<polygon fill="none" stroke="black" points="204,-343 204,-365 310,-365 310,-343 204,-343"/>
<text text-anchor="start" x="207" y="-351.2" font-family="Helvetica,sans-Serif" font-size="11.00">varchar[3]</text>
<polygon fill="none" stroke="black" points="10,-321 10,-343 204,-343 204,-321 10,-321"/>
<text text-anchor="start" x="30" y="-329.2" font-family="Helvetica,sans-Serif" font-size="11.00">abbr_it</text>
<polygon fill="none" stroke="black" points="204,-321 204,-343 310,-343 310,-321 204,-321"/>
<text text-anchor="start" x="207" y="-329.2" font-family="Helvetica,sans-Serif" font-size="11.00">varchar[3]</text>
<polygon fill="none" stroke="black" points="10,-299 10,-321 204,-321 204,-299 10,-299"/>
<text text-anchor="start" x="30" y="-307.2" font-family="Helvetica,sans-Serif" font-size="11.00">abbr_ro</text>
<polygon fill="none" stroke="black" points="204,-299 204,-321 310,-321 310,-299 204,-299"/>
<text text-anchor="start" x="207" y="-307.2" font-family="Helvetica,sans-Serif" font-size="11.00">varchar[3]</text>
<polygon fill="none" stroke="black" points="10,-277 10,-299 204,-299 204,-277 10,-277"/>
<text text-anchor="start" x="30" y="-285.2" font-family="Helvetica,sans-Serif" font-size="11.00">active</text>
<polygon fill="none" stroke="black" points="204,-277 204,-299 310,-299 310,-277 204,-277"/>
<text text-anchor="start" x="207" y="-285.2" font-family="Helvetica,sans-Serif" font-size="11.00">bool[1]</text>
<polygon fill="none" stroke="black" points="10,-255 10,-277 204,-277 204,-255 10,-255"/>
<text text-anchor="start" x="30" y="-263.2" font-family="Helvetica,sans-Serif" font-size="11.00">description_en</text>
<polygon fill="none" stroke="black" points="204,-255 204,-277 310,-277 310,-255 204,-255"/>
<text text-anchor="start" x="207" y="-263.2" font-family="Helvetica,sans-Serif" font-size="11.00">text[2147483647]</text>
<polygon fill="none" stroke="black" points="10,-233 10,-255 204,-255 204,-233 10,-233"/>
<text text-anchor="start" x="30" y="-241.2" font-family="Helvetica,sans-Serif" font-size="11.00">description_de</text>
<polygon fill="none" stroke="black" points="204,-233 204,-255 310,-255 310,-233 204,-233"/>
<text text-anchor="start" x="207" y="-241.2" font-family="Helvetica,sans-Serif" font-size="11.00">text[2147483647]</text>
<polygon fill="none" stroke="black" points="10,-211 10,-233 204,-233 204,-211 10,-211"/>
<text text-anchor="start" x="30" y="-219.2" font-family="Helvetica,sans-Serif" font-size="11.00">description_fr</text>
<polygon fill="none" stroke="black" points="204,-211 204,-233 310,-233 310,-211 204,-211"/>
<text text-anchor="start" x="207" y="-219.2" font-family="Helvetica,sans-Serif" font-size="11.00">text[2147483647]</text>
<polygon fill="none" stroke="black" points="10,-189 10,-211 204,-211 204,-189 10,-189"/>
<text text-anchor="start" x="30" y="-197.2" font-family="Helvetica,sans-Serif" font-size="11.00">description_it</text>
<polygon fill="none" stroke="black" points="204,-189 204,-211 310,-211 310,-189 204,-189"/>
<text text-anchor="start" x="207" y="-197.2" font-family="Helvetica,sans-Serif" font-size="11.00">text[2147483647]</text>
<polygon fill="none" stroke="black" points="10,-167 10,-189 204,-189 204,-167 10,-167"/>
<text text-anchor="start" x="30" y="-175.2" font-family="Helvetica,sans-Serif" font-size="11.00">description_ro</text>
<polygon fill="none" stroke="black" points="204,-167 204,-189 310,-189 310,-167 204,-167"/>
<text text-anchor="start" x="207" y="-175.2" font-family="Helvetica,sans-Serif" font-size="11.00">text[2147483647]</text>
<polygon fill="none" stroke="black" points="10,-145 10,-167 204,-167 204,-145 10,-145"/>
<text text-anchor="start" x="30" y="-153.2" font-family="Helvetica,sans-Serif" font-size="11.00">display_en</text>
<polygon fill="none" stroke="black" points="204,-145 204,-167 310,-167 310,-145 204,-145"/>
<text text-anchor="start" x="207" y="-153.2" font-family="Helvetica,sans-Serif" font-size="11.00">varchar[100]</text>
<polygon fill="none" stroke="black" points="10,-123 10,-145 204,-145 204,-123 10,-123"/>
<text text-anchor="start" x="30" y="-131.2" font-family="Helvetica,sans-Serif" font-size="11.00">display_de</text>
<polygon fill="none" stroke="black" points="204,-123 204,-145 310,-145 310,-123 204,-123"/>
<text text-anchor="start" x="207" y="-131.2" font-family="Helvetica,sans-Serif" font-size="11.00">varchar[100]</text>
<polygon fill="none" stroke="black" points="10,-101 10,-123 204,-123 204,-101 10,-101"/>
<text text-anchor="start" x="30" y="-109.2" font-family="Helvetica,sans-Serif" font-size="11.00">display_fr</text>
<polygon fill="none" stroke="black" points="204,-101 204,-123 310,-123 310,-101 204,-101"/>
<text text-anchor="start" x="207" y="-109.2" font-family="Helvetica,sans-Serif" font-size="11.00">varchar[100]</text>
<polygon fill="none" stroke="black" points="10,-79 10,-101 204,-101 204,-79 10,-79"/>
<text text-anchor="start" x="30" y="-87.2" font-family="Helvetica,sans-Serif" font-size="11.00">display_it</text>
<polygon fill="none" stroke="black" points="204,-79 204,-101 310,-101 310,-79 204,-79"/>
<text text-anchor="start" x="207" y="-87.2" font-family="Helvetica,sans-Serif" font-size="11.00">varchar[100]</text>
<polygon fill="none" stroke="black" points="10,-57 10,-79 204,-79 204,-57 10,-57"/>
<text text-anchor="start" x="30" y="-65.2" font-family="Helvetica,sans-Serif" font-size="11.00">display_ro</text>
<polygon fill="none" stroke="black" points="204,-57 204,-79 310,-79 310,-57 204,-57"/>
<text text-anchor="start" x="207" y="-65.2" font-family="Helvetica,sans-Serif" font-size="11.00">varchar[100]</text>
<polygon fill="#ffffff" stroke="transparent" points="10,-39 10,-57 310,-57 310,-39 10,-39"/>
<polygon fill="none" stroke="black" points="10,-39 10,-57 310,-57 310,-39 10,-39"/>
<polygon fill="#ffffff" stroke="transparent" points="11,-40 11,-56 115,-56 115,-40 11,-40"/>
<text text-anchor="start" x="13" y="-45.2" font-family="Helvetica,sans-Serif" font-size="11.00">&lt; 0</text>
<polygon fill="#ffffff" stroke="transparent" points="115,-40 115,-56 206,-56 206,-40 115,-40"/>
<text text-anchor="start" x="156.5" y="-45.2" font-family="Helvetica,sans-Serif" font-size="11.00"> &#160;</text>
<polygon fill="#ffffff" stroke="transparent" points="206,-40 206,-56 309,-56 309,-40 206,-40"/>
<text text-anchor="start" x="287" y="-45.2" font-family="Helvetica,sans-Serif" font-size="11.00">1 &gt;</text>
<polygon fill="black" stroke="black" points="115,-40 115,-56 115,-56 115,-40 115,-40"/>
<polygon fill="black" stroke="black" points="206,-40 206,-56 206,-56 206,-40 206,-40"/>
<polygon fill="none" stroke="black" stroke-width="2" points="9,-38 9,-586 311,-586 311,-38 9,-38"/>
</a>
</g>
</g>
<!-- tww_od.channel&#45;&gt;channel_usage_planned -->
<g id="edge1" class="edge">
<title>tww_od.channel:w&#45;&gt;channel_usage_planned:e</title>
<path fill="none" stroke="black" d="M345.84,-552C334.41,-552 327.16,-552 311,-552"/>
<polygon fill="black" stroke="black" points="352.5,-552 360.5,-555.6 356.5,-552 360.5,-552 360.5,-552 360.5,-552 356.5,-552 360.5,-548.4 352.5,-552 352.5,-552"/>
<ellipse fill="none" stroke="black" cx="349.3" cy="-552" rx="3.2" ry="3.2"/>
</g>
</g>
</svg>
