<?xml version="1.0" encoding="UTF-8" standalone="no"?>
<!DOCTYPE svg PUBLIC "-//W3C//DTD SVG 1.1//EN"
 "http://www.w3.org/Graphics/SVG/1.1/DTD/svg11.dtd">
<!-- Generated by graphviz version 2.43.0 (0)
 -->
<!-- Title: oneDegreeRelationshipsDiagram Pages: 1 -->
<svg width="592pt" height="619pt"
 viewBox="0.00 0.00 592.00 619.00" xmlns="http://www.w3.org/2000/svg" xmlns:xlink="http://www.w3.org/1999/xlink">
<g id="graph0" class="graph" transform="scale(1 1) rotate(0) translate(4 615)">
<title>oneDegreeRelationshipsDiagram</title>
<polygon fill="#ffffff" stroke="transparent" points="-4,4 -4,-615 588,-615 588,4 -4,4"/>
<text text-anchor="middle" x="79.5" y="-7.2" font-family="Helvetica,sans-Serif" font-size="11.00">Generated by SchemaSpy</text>
<!-- tww_od.damage -->
<g id="node1" class="node">
<title>tww_od.damage</title>
<g id="a_node1"><a xlink:href="../../../tww_od/tables/damage.html" xlink:title="tww_od.damage" target="_top">
<polygon fill="#ffffff" stroke="transparent" points="404,-505 404,-607 576,-607 576,-505 404,-505"/>
<polygon fill="#f5f5f5" stroke="transparent" points="404,-585 404,-607 576,-607 576,-585 404,-585"/>
<polygon fill="none" stroke="black" points="404,-585 404,-607 576,-607 576,-585 404,-585"/>
<text text-anchor="start" x="409" y="-594.2" font-family="Helvetica,sans-Serif" font-weight="bold" font-size="11.00">tww_od.damage</text>
<text text-anchor="start" x="534" y="-593.2" font-family="Helvetica,sans-Serif" font-size="11.00">[table]</text>
<polygon fill="none" stroke="black" points="404,-563 404,-585 576,-585 576,-563 404,-563"/>
<image xlink:href="../../images/foreignKeys.png" width="11px" height="12px" preserveAspectRatio="xMinYMin meet" x="409" y="-580"/>
<text text-anchor="start" x="424" y="-571.2" font-family="Helvetica,sans-Serif" font-size="11.00">connection</text>
<polygon fill="none" stroke="black" points="404,-541 404,-563 576,-563 576,-541 404,-541"/>
<image xlink:href="../../images/foreignKeys.png" width="11px" height="12px" preserveAspectRatio="xMinYMin meet" x="409" y="-558"/>
<text text-anchor="start" x="424" y="-549.2" font-family="Helvetica,sans-Serif" font-size="11.00">single_damage_class</text>
<polygon fill="none" stroke="black" points="404,-523 404,-541 576,-541 576,-523 404,-523"/>
<text text-anchor="start" x="407" y="-529.2" font-family="Helvetica,sans-Serif" font-size="11.00">...</text>
<polygon fill="#ffffff" stroke="transparent" points="404,-505 404,-523 576,-523 576,-505 404,-505"/>
<polygon fill="none" stroke="black" points="404,-505 404,-523 576,-523 576,-505 404,-505"/>
<polygon fill="#ffffff" stroke="transparent" points="405,-506 405,-522 460,-522 460,-506 405,-506"/>
<text text-anchor="start" x="407" y="-511.2" font-family="Helvetica,sans-Serif" font-size="11.00">&lt; 2</text>
<polygon fill="#ffffff" stroke="transparent" points="460,-506 460,-522 532,-522 532,-506 460,-506"/>
<text text-anchor="start" x="477.5" y="-511.2" font-family="Helvetica,sans-Serif" font-size="11.00">0 rows</text>
<polygon fill="#ffffff" stroke="transparent" points="532,-506 532,-522 575,-522 575,-506 532,-506"/>
<text text-anchor="start" x="565" y="-511.2" font-family="Helvetica,sans-Serif" font-size="11.00"> &#160;</text>
<polygon fill="black" stroke="black" points="460,-506 460,-522 460,-522 460,-506 460,-506"/>
<polygon fill="black" stroke="black" points="532,-506 532,-522 532,-522 532,-506 532,-506"/>
</a>
</g>
</g>
<!-- damage_single_damage_class -->
<g id="node2" class="node">
<title>damage_single_damage_class</title>
<g id="a_node2"><a xlink:href="../../tables/damage_single_damage_class.html" xlink:title="damage_single_damage_class" target="_top">
<polygon fill="#ffffff" stroke="transparent" points="8,-37 8,-587 355,-587 355,-37 8,-37"/>
<polygon fill="#f5f5f5" stroke="transparent" points="10.5,-563 10.5,-585 353.5,-585 353.5,-563 10.5,-563"/>
<polygon fill="none" stroke="black" points="10.5,-563 10.5,-585 353.5,-585 353.5,-563 10.5,-563"/>
<text text-anchor="start" x="15.5" y="-572.2" font-family="Helvetica,sans-Serif" font-weight="bold" font-size="11.00">damage_single_damage_class</text>
<text text-anchor="start" x="311.5" y="-571.2" font-family="Helvetica,sans-Serif" font-size="11.00">[table]</text>
<polygon fill="none" stroke="black" points="10.5,-541 10.5,-563 247.5,-563 247.5,-541 10.5,-541"/>
<image xlink:href="../../images/primaryKeys.png" width="11px" height="12px" preserveAspectRatio="xMinYMin meet" x="15.5" y="-558"/>
<text text-anchor="start" x="30.5" y="-549.2" font-family="Helvetica,sans-Serif" font-size="11.00">code</text>
<polygon fill="none" stroke="black" points="247.5,-541 247.5,-563 353.5,-563 353.5,-541 247.5,-541"/>
<text text-anchor="start" x="250.5" y="-549.2" font-family="Helvetica,sans-Serif" font-size="11.00">int4[10]</text>
<polygon fill="none" stroke="black" points="10.5,-519 10.5,-541 247.5,-541 247.5,-519 10.5,-519"/>
<text text-anchor="start" x="30.5" y="-527.2" font-family="Helvetica,sans-Serif" font-size="11.00">vsacode</text>
<polygon fill="none" stroke="black" points="247.5,-519 247.5,-541 353.5,-541 353.5,-519 247.5,-519"/>
<text text-anchor="start" x="250.5" y="-527.2" font-family="Helvetica,sans-Serif" font-size="11.00">int4[10]</text>
<polygon fill="none" stroke="black" points="10.5,-497 10.5,-519 247.5,-519 247.5,-497 10.5,-497"/>
<text text-anchor="start" x="30.5" y="-505.2" font-family="Helvetica,sans-Serif" font-size="11.00">value_en</text>
<polygon fill="none" stroke="black" points="247.5,-497 247.5,-519 353.5,-519 353.5,-497 247.5,-497"/>
<text text-anchor="start" x="250.5" y="-505.2" font-family="Helvetica,sans-Serif" font-size="11.00">varchar[100]</text>
<polygon fill="none" stroke="black" points="10.5,-475 10.5,-497 247.5,-497 247.5,-475 10.5,-475"/>
<text text-anchor="start" x="30.5" y="-483.2" font-family="Helvetica,sans-Serif" font-size="11.00">value_de</text>
<polygon fill="none" stroke="black" points="247.5,-475 247.5,-497 353.5,-497 353.5,-475 247.5,-475"/>
<text text-anchor="start" x="250.5" y="-483.2" font-family="Helvetica,sans-Serif" font-size="11.00">varchar[100]</text>
<polygon fill="none" stroke="black" points="10.5,-453 10.5,-475 247.5,-475 247.5,-453 10.5,-453"/>
<text text-anchor="start" x="30.5" y="-461.2" font-family="Helvetica,sans-Serif" font-size="11.00">value_fr</text>
<polygon fill="none" stroke="black" points="247.5,-453 247.5,-475 353.5,-475 353.5,-453 247.5,-453"/>
<text text-anchor="start" x="250.5" y="-461.2" font-family="Helvetica,sans-Serif" font-size="11.00">varchar[100]</text>
<polygon fill="none" stroke="black" points="10.5,-431 10.5,-453 247.5,-453 247.5,-431 10.5,-431"/>
<text text-anchor="start" x="30.5" y="-439.2" font-family="Helvetica,sans-Serif" font-size="11.00">value_it</text>
<polygon fill="none" stroke="black" points="247.5,-431 247.5,-453 353.5,-453 353.5,-431 247.5,-431"/>
<text text-anchor="start" x="250.5" y="-439.2" font-family="Helvetica,sans-Serif" font-size="11.00">varchar[100]</text>
<polygon fill="none" stroke="black" points="10.5,-409 10.5,-431 247.5,-431 247.5,-409 10.5,-409"/>
<text text-anchor="start" x="30.5" y="-417.2" font-family="Helvetica,sans-Serif" font-size="11.00">value_ro</text>
<polygon fill="none" stroke="black" points="247.5,-409 247.5,-431 353.5,-431 353.5,-409 247.5,-409"/>
<text text-anchor="start" x="250.5" y="-417.2" font-family="Helvetica,sans-Serif" font-size="11.00">varchar[100]</text>
<polygon fill="none" stroke="black" points="10.5,-387 10.5,-409 247.5,-409 247.5,-387 10.5,-387"/>
<text text-anchor="start" x="30.5" y="-395.2" font-family="Helvetica,sans-Serif" font-size="11.00">abbr_en</text>
<polygon fill="none" stroke="black" points="247.5,-387 247.5,-409 353.5,-409 353.5,-387 247.5,-387"/>
<text text-anchor="start" x="250.5" y="-395.2" font-family="Helvetica,sans-Serif" font-size="11.00">varchar[3]</text>
<polygon fill="none" stroke="black" points="10.5,-365 10.5,-387 247.5,-387 247.5,-365 10.5,-365"/>
<text text-anchor="start" x="30.5" y="-373.2" font-family="Helvetica,sans-Serif" font-size="11.00">abbr_de</text>
<polygon fill="none" stroke="black" points="247.5,-365 247.5,-387 353.5,-387 353.5,-365 247.5,-365"/>
<text text-anchor="start" x="250.5" y="-373.2" font-family="Helvetica,sans-Serif" font-size="11.00">varchar[3]</text>
<polygon fill="none" stroke="black" points="10.5,-343 10.5,-365 247.5,-365 247.5,-343 10.5,-343"/>
<text text-anchor="start" x="30.5" y="-351.2" font-family="Helvetica,sans-Serif" font-size="11.00">abbr_fr</text>
<polygon fill="none" stroke="black" points="247.5,-343 247.5,-365 353.5,-365 353.5,-343 247.5,-343"/>
<text text-anchor="start" x="250.5" y="-351.2" font-family="Helvetica,sans-Serif" font-size="11.00">varchar[3]</text>
<polygon fill="none" stroke="black" points="10.5,-321 10.5,-343 247.5,-343 247.5,-321 10.5,-321"/>
<text text-anchor="start" x="30.5" y="-329.2" font-family="Helvetica,sans-Serif" font-size="11.00">abbr_it</text>
<polygon fill="none" stroke="black" points="247.5,-321 247.5,-343 353.5,-343 353.5,-321 247.5,-321"/>
<text text-anchor="start" x="250.5" y="-329.2" font-family="Helvetica,sans-Serif" font-size="11.00">varchar[3]</text>
<polygon fill="none" stroke="black" points="10.5,-299 10.5,-321 247.5,-321 247.5,-299 10.5,-299"/>
<text text-anchor="start" x="30.5" y="-307.2" font-family="Helvetica,sans-Serif" font-size="11.00">abbr_ro</text>
<polygon fill="none" stroke="black" points="247.5,-299 247.5,-321 353.5,-321 353.5,-299 247.5,-299"/>
<text text-anchor="start" x="250.5" y="-307.2" font-family="Helvetica,sans-Serif" font-size="11.00">varchar[3]</text>
<polygon fill="none" stroke="black" points="10.5,-277 10.5,-299 247.5,-299 247.5,-277 10.5,-277"/>
<text text-anchor="start" x="30.5" y="-285.2" font-family="Helvetica,sans-Serif" font-size="11.00">active</text>
<polygon fill="none" stroke="black" points="247.5,-277 247.5,-299 353.5,-299 353.5,-277 247.5,-277"/>
<text text-anchor="start" x="250.5" y="-285.2" font-family="Helvetica,sans-Serif" font-size="11.00">bool[1]</text>
<polygon fill="none" stroke="black" points="10.5,-255 10.5,-277 247.5,-277 247.5,-255 10.5,-255"/>
<text text-anchor="start" x="30.5" y="-263.2" font-family="Helvetica,sans-Serif" font-size="11.00">description_en</text>
<polygon fill="none" stroke="black" points="247.5,-255 247.5,-277 353.5,-277 353.5,-255 247.5,-255"/>
<text text-anchor="start" x="250.5" y="-263.2" font-family="Helvetica,sans-Serif" font-size="11.00">text[2147483647]</text>
<polygon fill="none" stroke="black" points="10.5,-233 10.5,-255 247.5,-255 247.5,-233 10.5,-233"/>
<text text-anchor="start" x="30.5" y="-241.2" font-family="Helvetica,sans-Serif" font-size="11.00">description_de</text>
<polygon fill="none" stroke="black" points="247.5,-233 247.5,-255 353.5,-255 353.5,-233 247.5,-233"/>
<text text-anchor="start" x="250.5" y="-241.2" font-family="Helvetica,sans-Serif" font-size="11.00">text[2147483647]</text>
<polygon fill="none" stroke="black" points="10.5,-211 10.5,-233 247.5,-233 247.5,-211 10.5,-211"/>
<text text-anchor="start" x="30.5" y="-219.2" font-family="Helvetica,sans-Serif" font-size="11.00">description_fr</text>
<polygon fill="none" stroke="black" points="247.5,-211 247.5,-233 353.5,-233 353.5,-211 247.5,-211"/>
<text text-anchor="start" x="250.5" y="-219.2" font-family="Helvetica,sans-Serif" font-size="11.00">text[2147483647]</text>
<polygon fill="none" stroke="black" points="10.5,-189 10.5,-211 247.5,-211 247.5,-189 10.5,-189"/>
<text text-anchor="start" x="30.5" y="-197.2" font-family="Helvetica,sans-Serif" font-size="11.00">description_it</text>
<polygon fill="none" stroke="black" points="247.5,-189 247.5,-211 353.5,-211 353.5,-189 247.5,-189"/>
<text text-anchor="start" x="250.5" y="-197.2" font-family="Helvetica,sans-Serif" font-size="11.00">text[2147483647]</text>
<polygon fill="none" stroke="black" points="10.5,-167 10.5,-189 247.5,-189 247.5,-167 10.5,-167"/>
<text text-anchor="start" x="30.5" y="-175.2" font-family="Helvetica,sans-Serif" font-size="11.00">description_ro</text>
<polygon fill="none" stroke="black" points="247.5,-167 247.5,-189 353.5,-189 353.5,-167 247.5,-167"/>
<text text-anchor="start" x="250.5" y="-175.2" font-family="Helvetica,sans-Serif" font-size="11.00">text[2147483647]</text>
<polygon fill="none" stroke="black" points="10.5,-145 10.5,-167 247.5,-167 247.5,-145 10.5,-145"/>
<text text-anchor="start" x="30.5" y="-153.2" font-family="Helvetica,sans-Serif" font-size="11.00">display_en</text>
<polygon fill="none" stroke="black" points="247.5,-145 247.5,-167 353.5,-167 353.5,-145 247.5,-145"/>
<text text-anchor="start" x="250.5" y="-153.2" font-family="Helvetica,sans-Serif" font-size="11.00">varchar[100]</text>
<polygon fill="none" stroke="black" points="10.5,-123 10.5,-145 247.5,-145 247.5,-123 10.5,-123"/>
<text text-anchor="start" x="30.5" y="-131.2" font-family="Helvetica,sans-Serif" font-size="11.00">display_de</text>
<polygon fill="none" stroke="black" points="247.5,-123 247.5,-145 353.5,-145 353.5,-123 247.5,-123"/>
<text text-anchor="start" x="250.5" y="-131.2" font-family="Helvetica,sans-Serif" font-size="11.00">varchar[100]</text>
<polygon fill="none" stroke="black" points="10.5,-101 10.5,-123 247.5,-123 247.5,-101 10.5,-101"/>
<text text-anchor="start" x="30.5" y="-109.2" font-family="Helvetica,sans-Serif" font-size="11.00">display_fr</text>
<polygon fill="none" stroke="black" points="247.5,-101 247.5,-123 353.5,-123 353.5,-101 247.5,-101"/>
<text text-anchor="start" x="250.5" y="-109.2" font-family="Helvetica,sans-Serif" font-size="11.00">varchar[100]</text>
<polygon fill="none" stroke="black" points="10.5,-79 10.5,-101 247.5,-101 247.5,-79 10.5,-79"/>
<text text-anchor="start" x="30.5" y="-87.2" font-family="Helvetica,sans-Serif" font-size="11.00">display_it</text>
<polygon fill="none" stroke="black" points="247.5,-79 247.5,-101 353.5,-101 353.5,-79 247.5,-79"/>
<text text-anchor="start" x="250.5" y="-87.2" font-family="Helvetica,sans-Serif" font-size="11.00">varchar[100]</text>
<polygon fill="none" stroke="black" points="10.5,-57 10.5,-79 247.5,-79 247.5,-57 10.5,-57"/>
<text text-anchor="start" x="30.5" y="-65.2" font-family="Helvetica,sans-Serif" font-size="11.00">display_ro</text>
<polygon fill="none" stroke="black" points="247.5,-57 247.5,-79 353.5,-79 353.5,-57 247.5,-57"/>
<text text-anchor="start" x="250.5" y="-65.2" font-family="Helvetica,sans-Serif" font-size="11.00">varchar[100]</text>
<polygon fill="#ffffff" stroke="transparent" points="10.5,-39 10.5,-57 353.5,-57 353.5,-39 10.5,-39"/>
<polygon fill="none" stroke="black" points="10.5,-39 10.5,-57 353.5,-57 353.5,-39 10.5,-39"/>
<polygon fill="#ffffff" stroke="transparent" points="11.5,-40 11.5,-56 129.5,-56 129.5,-40 11.5,-40"/>
<text text-anchor="start" x="13.5" y="-45.2" font-family="Helvetica,sans-Serif" font-size="11.00">&lt; 0</text>
<polygon fill="#ffffff" stroke="transparent" points="129.5,-40 129.5,-56 235.5,-56 235.5,-40 129.5,-40"/>
<text text-anchor="start" x="178.5" y="-45.2" font-family="Helvetica,sans-Serif" font-size="11.00"> &#160;</text>
<polygon fill="#ffffff" stroke="transparent" points="235.5,-40 235.5,-56 352.5,-56 352.5,-40 235.5,-40"/>
<text text-anchor="start" x="330.5" y="-45.2" font-family="Helvetica,sans-Serif" font-size="11.00">1 &gt;</text>
<polygon fill="black" stroke="black" points="129.5,-40 129.5,-56 129.5,-56 129.5,-40 129.5,-40"/>
<polygon fill="black" stroke="black" points="235.5,-40 235.5,-56 235.5,-56 235.5,-40 235.5,-40"/>
<polygon fill="none" stroke="black" stroke-width="2" points="9,-38 9,-586 354,-586 354,-38 9,-38"/>
</a>
</g>
</g>
<!-- tww_od.damage&#45;&gt;damage_single_damage_class -->
<g id="edge1" class="edge">
<title>tww_od.damage:w&#45;&gt;damage_single_damage_class:e</title>
<path fill="none" stroke="black" d="M388.28,-552C377.29,-552 370.16,-552 354.5,-552"/>
<polygon fill="black" stroke="black" points="395,-552 403,-555.6 399,-552 403,-552 403,-552 403,-552 399,-552 403,-548.4 395,-552 395,-552"/>
<ellipse fill="none" stroke="black" cx="391.8" cy="-552" rx="3.2" ry="3.2"/>
</g>
</g>
</svg>
