<?xml version="1.0" encoding="UTF-8" standalone="no"?>
<!DOCTYPE svg PUBLIC "-//W3C//DTD SVG 1.1//EN"
 "http://www.w3.org/Graphics/SVG/1.1/DTD/svg11.dtd">
<!-- Generated by graphviz version 2.47.1 (20210515.0534)
 -->
<!-- Title: oneDegreeRelationshipsDiagram Pages: 1 -->
<svg width="538pt" height="399pt"
 viewBox="0.00 0.00 538.00 399.00" xmlns="http://www.w3.org/2000/svg" xmlns:xlink="http://www.w3.org/1999/xlink">
<g id="graph0" class="graph" transform="scale(1 1) rotate(0) translate(4 395)">
<title>oneDegreeRelationshipsDiagram</title>
<polygon fill="#ffffff" stroke="transparent" points="-4,4 -4,-395 534,-395 534,4 -4,4"/>
<text text-anchor="middle" x="73.5" y="-7.2" font-family="Helvetica,sans-Serif" font-size="11.00">Generated by SchemaSpy</text>
<!-- tww_od.disposal -->
<g id="node1" class="node">
<title>tww_od.disposal</title>
<g id="a_node1"><a xlink:href="../../../tww_od/tables/disposal.html" xlink:title="tww_od.disposal" target="_top">
<polygon fill="#ffffff" stroke="transparent" points="345,-285 345,-387 522,-387 522,-285 345,-285"/>
<polygon fill="#f5f5f5" stroke="transparent" points="345.5,-365 345.5,-387 522.5,-387 522.5,-365 345.5,-365"/>
<polygon fill="none" stroke="black" points="345.5,-365 345.5,-387 522.5,-387 522.5,-365 345.5,-365"/>
<text text-anchor="start" x="350.5" y="-374.2" font-family="Helvetica,sans-Serif" font-weight="bold" font-size="11.00">tww_od.disposal</text>
<text text-anchor="start" x="483.5" y="-373.2" font-family="Helvetica,sans-Serif" font-size="11.00">[table]</text>
<polygon fill="none" stroke="black" points="345.5,-343 345.5,-365 522.5,-365 522.5,-343 345.5,-343"/>
<image xlink:href="../../images/foreignKeys.png" width="11px" height="12px" preserveAspectRatio="xMinYMin meet" x="350.5" y="-360"/>
<text text-anchor="start" x="365.5" y="-351.2" font-family="Helvetica,sans-Serif" font-size="11.00">disposal_place_current</text>
<polygon fill="none" stroke="black" points="345.5,-321 345.5,-343 522.5,-343 522.5,-321 345.5,-321"/>
<image xlink:href="../../images/foreignKeys.png" width="11px" height="12px" preserveAspectRatio="xMinYMin meet" x="350.5" y="-338"/>
<text text-anchor="start" x="365.5" y="-329.2" font-family="Helvetica,sans-Serif" font-size="11.00">disposal_place_planned</text>
<polygon fill="none" stroke="black" points="345.5,-303 345.5,-321 522.5,-321 522.5,-303 345.5,-303"/>
<text text-anchor="start" x="348.5" y="-309.2" font-family="Helvetica,sans-Serif" font-size="11.00">...</text>
<polygon fill="#ffffff" stroke="transparent" points="345.5,-285 345.5,-303 418.5,-303 418.5,-285 345.5,-285"/>
<polygon fill="none" stroke="black" points="345.5,-285 345.5,-303 418.5,-303 418.5,-285 345.5,-285"/>
<text text-anchor="start" x="348.5" y="-291.2" font-family="Helvetica,sans-Serif" font-size="11.00">&lt; 2</text>
<polygon fill="#ffffff" stroke="transparent" points="418.5,-285 418.5,-303 483.5,-303 483.5,-285 418.5,-285"/>
<polygon fill="none" stroke="black" points="418.5,-285 418.5,-303 483.5,-303 483.5,-285 418.5,-285"/>
<text text-anchor="start" x="446.5" y="-291.2" font-family="Helvetica,sans-Serif" font-size="11.00">0 rows</text>
<polygon fill="#ffffff" stroke="transparent" points="483.5,-285 483.5,-303 522.5,-303 522.5,-285 483.5,-285"/>
<polygon fill="none" stroke="black" points="483.5,-285 483.5,-303 522.5,-303 522.5,-285 483.5,-285"/>
<text text-anchor="start" x="512.5" y="-291.2" font-family="Helvetica,sans-Serif" font-size="11.00"> &#160;</text>
</a>
</g>
</g>
<!-- disposal_disposal_place_planned -->
<g id="node2" class="node">
<title>disposal_disposal_place_planned</title>
<g id="a_node2"><a xlink:href="../../tables/disposal_disposal_place_planned.html" xlink:title="disposal_disposal_place_planned" target="_top">
<polygon fill="#ffffff" stroke="transparent" points="8,-37 8,-367 296,-367 296,-37 8,-37"/>
<polygon fill="#f5f5f5" stroke="transparent" points="10,-343 10,-365 294,-365 294,-343 10,-343"/>
<polygon fill="none" stroke="black" points="10,-343 10,-365 294,-365 294,-343 10,-343"/>
<text text-anchor="start" x="15" y="-352.2" font-family="Helvetica,sans-Serif" font-weight="bold" font-size="11.00">disposal_disposal_place_planned</text>
<text text-anchor="start" x="255" y="-351.2" font-family="Helvetica,sans-Serif" font-size="11.00">[table]</text>
<polygon fill="none" stroke="black" points="10,-321 10,-343 224,-343 224,-321 10,-321"/>
<image xlink:href="../../images/primaryKeys.png" width="11px" height="12px" preserveAspectRatio="xMinYMin meet" x="15" y="-338"/>
<text text-anchor="start" x="30" y="-329.2" font-family="Helvetica,sans-Serif" font-size="11.00">code</text>
<polygon fill="none" stroke="black" points="224,-321 224,-343 294,-343 294,-321 224,-321"/>
<text text-anchor="start" x="227" y="-329.2" font-family="Helvetica,sans-Serif" font-size="11.00">int4[10]</text>
<polygon fill="none" stroke="black" points="10,-299 10,-321 224,-321 224,-299 10,-299"/>
<text text-anchor="start" x="30" y="-307.2" font-family="Helvetica,sans-Serif" font-size="11.00">vsacode</text>
<polygon fill="none" stroke="black" points="224,-299 224,-321 294,-321 294,-299 224,-299"/>
<text text-anchor="start" x="227" y="-307.2" font-family="Helvetica,sans-Serif" font-size="11.00">int4[10]</text>
<polygon fill="none" stroke="black" points="10,-277 10,-299 224,-299 224,-277 10,-277"/>
<text text-anchor="start" x="30" y="-285.2" font-family="Helvetica,sans-Serif" font-size="11.00">value_en</text>
<polygon fill="none" stroke="black" points="224,-277 224,-299 294,-299 294,-277 224,-277"/>
<text text-anchor="start" x="227" y="-285.2" font-family="Helvetica,sans-Serif" font-size="11.00">varchar[100]</text>
<polygon fill="none" stroke="black" points="10,-255 10,-277 224,-277 224,-255 10,-255"/>
<text text-anchor="start" x="30" y="-263.2" font-family="Helvetica,sans-Serif" font-size="11.00">value_de</text>
<polygon fill="none" stroke="black" points="224,-255 224,-277 294,-277 294,-255 224,-255"/>
<text text-anchor="start" x="227" y="-263.2" font-family="Helvetica,sans-Serif" font-size="11.00">varchar[100]</text>
<polygon fill="none" stroke="black" points="10,-233 10,-255 224,-255 224,-233 10,-233"/>
<text text-anchor="start" x="30" y="-241.2" font-family="Helvetica,sans-Serif" font-size="11.00">value_fr</text>
<polygon fill="none" stroke="black" points="224,-233 224,-255 294,-255 294,-233 224,-233"/>
<text text-anchor="start" x="227" y="-241.2" font-family="Helvetica,sans-Serif" font-size="11.00">varchar[100]</text>
<polygon fill="none" stroke="black" points="10,-211 10,-233 224,-233 224,-211 10,-211"/>
<text text-anchor="start" x="30" y="-219.2" font-family="Helvetica,sans-Serif" font-size="11.00">value_it</text>
<polygon fill="none" stroke="black" points="224,-211 224,-233 294,-233 294,-211 224,-211"/>
<text text-anchor="start" x="227" y="-219.2" font-family="Helvetica,sans-Serif" font-size="11.00">varchar[100]</text>
<polygon fill="none" stroke="black" points="10,-189 10,-211 224,-211 224,-189 10,-189"/>
<text text-anchor="start" x="30" y="-197.2" font-family="Helvetica,sans-Serif" font-size="11.00">value_ro</text>
<polygon fill="none" stroke="black" points="224,-189 224,-211 294,-211 294,-189 224,-189"/>
<text text-anchor="start" x="227" y="-197.2" font-family="Helvetica,sans-Serif" font-size="11.00">varchar[100]</text>
<polygon fill="none" stroke="black" points="10,-167 10,-189 224,-189 224,-167 10,-167"/>
<text text-anchor="start" x="30" y="-175.2" font-family="Helvetica,sans-Serif" font-size="11.00">abbr_en</text>
<polygon fill="none" stroke="black" points="224,-167 224,-189 294,-189 294,-167 224,-167"/>
<text text-anchor="start" x="227" y="-175.2" font-family="Helvetica,sans-Serif" font-size="11.00">varchar[3]</text>
<polygon fill="none" stroke="black" points="10,-145 10,-167 224,-167 224,-145 10,-145"/>
<text text-anchor="start" x="30" y="-153.2" font-family="Helvetica,sans-Serif" font-size="11.00">abbr_de</text>
<polygon fill="none" stroke="black" points="224,-145 224,-167 294,-167 294,-145 224,-145"/>
<text text-anchor="start" x="227" y="-153.2" font-family="Helvetica,sans-Serif" font-size="11.00">varchar[3]</text>
<polygon fill="none" stroke="black" points="10,-123 10,-145 224,-145 224,-123 10,-123"/>
<text text-anchor="start" x="30" y="-131.2" font-family="Helvetica,sans-Serif" font-size="11.00">abbr_fr</text>
<polygon fill="none" stroke="black" points="224,-123 224,-145 294,-145 294,-123 224,-123"/>
<text text-anchor="start" x="227" y="-131.2" font-family="Helvetica,sans-Serif" font-size="11.00">varchar[3]</text>
<polygon fill="none" stroke="black" points="10,-101 10,-123 224,-123 224,-101 10,-101"/>
<text text-anchor="start" x="30" y="-109.2" font-family="Helvetica,sans-Serif" font-size="11.00">abbr_it</text>
<polygon fill="none" stroke="black" points="224,-101 224,-123 294,-123 294,-101 224,-101"/>
<text text-anchor="start" x="227" y="-109.2" font-family="Helvetica,sans-Serif" font-size="11.00">varchar[3]</text>
<polygon fill="none" stroke="black" points="10,-79 10,-101 224,-101 224,-79 10,-79"/>
<text text-anchor="start" x="30" y="-87.2" font-family="Helvetica,sans-Serif" font-size="11.00">abbr_ro</text>
<polygon fill="none" stroke="black" points="224,-79 224,-101 294,-101 294,-79 224,-79"/>
<text text-anchor="start" x="227" y="-87.2" font-family="Helvetica,sans-Serif" font-size="11.00">varchar[3]</text>
<polygon fill="none" stroke="black" points="10,-57 10,-79 224,-79 224,-57 10,-57"/>
<text text-anchor="start" x="30" y="-65.2" font-family="Helvetica,sans-Serif" font-size="11.00">active</text>
<polygon fill="none" stroke="black" points="224,-57 224,-79 294,-79 294,-57 224,-57"/>
<text text-anchor="start" x="227" y="-65.2" font-family="Helvetica,sans-Serif" font-size="11.00">bool[1]</text>
<polygon fill="#ffffff" stroke="transparent" points="10,-39 10,-57 121,-57 121,-39 10,-39"/>
<polygon fill="none" stroke="black" points="10,-39 10,-57 121,-57 121,-39 10,-39"/>
<text text-anchor="start" x="13" y="-45.2" font-family="Helvetica,sans-Serif" font-size="11.00">&lt; 0</text>
<polygon fill="#ffffff" stroke="transparent" points="121,-39 121,-57 224,-57 224,-39 121,-39"/>
<polygon fill="none" stroke="black" points="121,-39 121,-57 224,-57 224,-39 121,-39"/>
<text text-anchor="start" x="214" y="-45.2" font-family="Helvetica,sans-Serif" font-size="11.00"> &#160;</text>
<polygon fill="#ffffff" stroke="transparent" points="224,-39 224,-57 294,-57 294,-39 224,-39"/>
<polygon fill="none" stroke="black" points="224,-39 224,-57 294,-57 294,-39 224,-39"/>
<text text-anchor="start" x="275" y="-45.2" font-family="Helvetica,sans-Serif" font-size="11.00">1 &gt;</text>
<polygon fill="none" stroke="black" stroke-width="2" points="9,-38 9,-366 295,-366 295,-38 9,-38"/>
</a>
</g>
</g>
<!-- tww_od.disposal&#45;&gt;disposal_disposal_place_planned -->
<g id="edge1" class="edge">
<title>tww_od.disposal:w&#45;&gt;disposal_disposal_place_planned:e</title>
<path fill="none" stroke="black" d="M329.84,-332C318.41,-332 311.16,-332 295,-332"/>
<polygon fill="black" stroke="black" points="336.5,-332 344.5,-335.6 340.5,-332 344.5,-332 344.5,-332 344.5,-332 340.5,-332 344.5,-328.4 336.5,-332 336.5,-332"/>
<ellipse fill="none" stroke="black" cx="333.3" cy="-332" rx="3.2" ry="3.2"/>
</g>
</g>
</svg>
