<?xml version="1.0" encoding="UTF-8" standalone="no"?>
<!DOCTYPE svg PUBLIC "-//W3C//DTD SVG 1.1//EN"
 "http://www.w3.org/Graphics/SVG/1.1/DTD/svg11.dtd">
<!-- Generated by graphviz version 2.47.1 (20210515.0534)
 -->
<!-- Title: oneDegreeRelationshipsDiagram Pages: 1 -->
<svg width="659pt" height="487pt"
 viewBox="0.00 0.00 659.00 487.00" xmlns="http://www.w3.org/2000/svg" xmlns:xlink="http://www.w3.org/1999/xlink">
<g id="graph0" class="graph" transform="scale(1 1) rotate(0) translate(4 483)">
<title>oneDegreeRelationshipsDiagram</title>
<polygon fill="#ffffff" stroke="transparent" points="-4,4 -4,-483 655,-483 655,4 -4,4"/>
<text text-anchor="middle" x="73.5" y="-7.2" font-family="Helvetica,sans-Serif" font-size="11.00">Generated by SchemaSpy</text>
<!-- tww_od.infiltration_installation -->
<g id="node1" class="node">
<title>tww_od.infiltration_installation</title>
<g id="a_node1"><a xlink:href="../../../tww_od/tables/infiltration_installation.html" xlink:title="tww_od.infiltration_installation" target="_top">
<polygon fill="#ffffff" stroke="transparent" points="411,-241 411,-475 643,-475 643,-241 411,-241"/>
<polygon fill="#f5f5f5" stroke="transparent" points="411,-453 411,-475 643,-475 643,-453 411,-453"/>
<polygon fill="none" stroke="black" points="411,-453 411,-475 643,-475 643,-453 411,-453"/>
<text text-anchor="start" x="416" y="-462.2" font-family="Helvetica,sans-Serif" font-weight="bold" font-size="11.00">tww_od.infiltration_installation</text>
<text text-anchor="start" x="604" y="-461.2" font-family="Helvetica,sans-Serif" font-size="11.00">[table]</text>
<polygon fill="none" stroke="black" points="411,-431 411,-453 643,-453 643,-431 411,-431"/>
<image xlink:href="../../images/foreignKeys.png" width="11px" height="12px" preserveAspectRatio="xMinYMin meet" x="416" y="-448"/>
<text text-anchor="start" x="467" y="-439.2" font-family="Helvetica,sans-Serif" font-size="11.00">defects</text>
<polygon fill="none" stroke="black" points="411,-409 411,-431 643,-431 643,-409 411,-409"/>
<image xlink:href="../../images/foreignKeys.png" width="11px" height="12px" preserveAspectRatio="xMinYMin meet" x="416" y="-426"/>
<text text-anchor="start" x="467" y="-417.2" font-family="Helvetica,sans-Serif" font-size="11.00">emergency_overflow</text>
<polygon fill="none" stroke="black" points="411,-387 411,-409 643,-409 643,-387 411,-387"/>
<image xlink:href="../../images/foreignKeys.png" width="11px" height="12px" preserveAspectRatio="xMinYMin meet" x="416" y="-404"/>
<text text-anchor="start" x="467" y="-395.2" font-family="Helvetica,sans-Serif" font-size="11.00">filling_material</text>
<polygon fill="none" stroke="black" points="411,-365 411,-387 643,-387 643,-365 411,-365"/>
<image xlink:href="../../images/foreignKeys.png" width="11px" height="12px" preserveAspectRatio="xMinYMin meet" x="416" y="-382"/>
<text text-anchor="start" x="467" y="-373.2" font-family="Helvetica,sans-Serif" font-size="11.00">kind</text>
<polygon fill="none" stroke="black" points="411,-343 411,-365 643,-365 643,-343 411,-343"/>
<image xlink:href="../../images/foreignKeys.png" width="11px" height="12px" preserveAspectRatio="xMinYMin meet" x="416" y="-360"/>
<text text-anchor="start" x="467" y="-351.2" font-family="Helvetica,sans-Serif" font-size="11.00">labeling</text>
<polygon fill="none" stroke="black" points="411,-321 411,-343 643,-343 643,-321 411,-321"/>
<image xlink:href="../../images/foreignKeys.png" width="11px" height="12px" preserveAspectRatio="xMinYMin meet" x="416" y="-338"/>
<text text-anchor="start" x="467" y="-329.2" font-family="Helvetica,sans-Serif" font-size="11.00">seepage_utilization</text>
<polygon fill="none" stroke="black" points="411,-299 411,-321 643,-321 643,-299 411,-299"/>
<image xlink:href="../../images/foreignKeys.png" width="11px" height="12px" preserveAspectRatio="xMinYMin meet" x="416" y="-316"/>
<text text-anchor="start" x="467" y="-307.2" font-family="Helvetica,sans-Serif" font-size="11.00">vehicle_access</text>
<polygon fill="none" stroke="black" points="411,-277 411,-299 643,-299 643,-277 411,-277"/>
<image xlink:href="../../images/foreignKeys.png" width="11px" height="12px" preserveAspectRatio="xMinYMin meet" x="416" y="-294"/>
<text text-anchor="start" x="467" y="-285.2" font-family="Helvetica,sans-Serif" font-size="11.00">watertightness</text>
<polygon fill="none" stroke="black" points="411,-259 411,-277 643,-277 643,-259 411,-259"/>
<text text-anchor="start" x="414" y="-265.2" font-family="Helvetica,sans-Serif" font-size="11.00">...</text>
<polygon fill="#ffffff" stroke="transparent" points="411,-241 411,-259 511,-259 511,-241 411,-241"/>
<polygon fill="none" stroke="black" points="411,-241 411,-259 511,-259 511,-241 411,-241"/>
<text text-anchor="start" x="414" y="-247.2" font-family="Helvetica,sans-Serif" font-size="11.00">&lt; 8</text>
<polygon fill="#ffffff" stroke="transparent" points="511,-241 511,-259 590,-259 590,-241 511,-241"/>
<polygon fill="none" stroke="black" points="511,-241 511,-259 590,-259 590,-241 511,-241"/>
<text text-anchor="start" x="553" y="-247.2" font-family="Helvetica,sans-Serif" font-size="11.00">0 rows</text>
<polygon fill="#ffffff" stroke="transparent" points="590,-241 590,-259 643,-259 643,-241 590,-241"/>
<polygon fill="none" stroke="black" points="590,-241 590,-259 643,-259 643,-241 590,-241"/>
<text text-anchor="start" x="633" y="-247.2" font-family="Helvetica,sans-Serif" font-size="11.00"> &#160;</text>
</a>
</g>
</g>
<!-- infiltration_installation_seepage_utilization -->
<g id="node2" class="node">
<title>infiltration_installation_seepage_utilization</title>
<g id="a_node2"><a xlink:href="../../tables/infiltration_installation_seepa_9b5eaa0c.html" xlink:title="infiltration_installation_seepage_utilization" target="_top">
<polygon fill="#ffffff" stroke="transparent" points="8,-37 8,-367 362,-367 362,-37 8,-37"/>
<polygon fill="#f5f5f5" stroke="transparent" points="10,-343 10,-365 360,-365 360,-343 10,-343"/>
<polygon fill="none" stroke="black" points="10,-343 10,-365 360,-365 360,-343 10,-343"/>
<text text-anchor="start" x="15" y="-352.2" font-family="Helvetica,sans-Serif" font-weight="bold" font-size="11.00">infiltration_installation_seepage_utilization</text>
<text text-anchor="start" x="321" y="-351.2" font-family="Helvetica,sans-Serif" font-size="11.00">[table]</text>
<polygon fill="none" stroke="black" points="10,-321 10,-343 290,-343 290,-321 10,-321"/>
<image xlink:href="../../images/primaryKeys.png" width="11px" height="12px" preserveAspectRatio="xMinYMin meet" x="15" y="-338"/>
<text text-anchor="start" x="30" y="-329.2" font-family="Helvetica,sans-Serif" font-size="11.00">code</text>
<polygon fill="none" stroke="black" points="290,-321 290,-343 360,-343 360,-321 290,-321"/>
<text text-anchor="start" x="293" y="-329.2" font-family="Helvetica,sans-Serif" font-size="11.00">int4[10]</text>
<polygon fill="none" stroke="black" points="10,-299 10,-321 290,-321 290,-299 10,-299"/>
<text text-anchor="start" x="30" y="-307.2" font-family="Helvetica,sans-Serif" font-size="11.00">vsacode</text>
<polygon fill="none" stroke="black" points="290,-299 290,-321 360,-321 360,-299 290,-299"/>
<text text-anchor="start" x="293" y="-307.2" font-family="Helvetica,sans-Serif" font-size="11.00">int4[10]</text>
<polygon fill="none" stroke="black" points="10,-277 10,-299 290,-299 290,-277 10,-277"/>
<text text-anchor="start" x="30" y="-285.2" font-family="Helvetica,sans-Serif" font-size="11.00">value_en</text>
<polygon fill="none" stroke="black" points="290,-277 290,-299 360,-299 360,-277 290,-277"/>
<text text-anchor="start" x="293" y="-285.2" font-family="Helvetica,sans-Serif" font-size="11.00">varchar[100]</text>
<polygon fill="none" stroke="black" points="10,-255 10,-277 290,-277 290,-255 10,-255"/>
<text text-anchor="start" x="30" y="-263.2" font-family="Helvetica,sans-Serif" font-size="11.00">value_de</text>
<polygon fill="none" stroke="black" points="290,-255 290,-277 360,-277 360,-255 290,-255"/>
<text text-anchor="start" x="293" y="-263.2" font-family="Helvetica,sans-Serif" font-size="11.00">varchar[100]</text>
<polygon fill="none" stroke="black" points="10,-233 10,-255 290,-255 290,-233 10,-233"/>
<text text-anchor="start" x="30" y="-241.2" font-family="Helvetica,sans-Serif" font-size="11.00">value_fr</text>
<polygon fill="none" stroke="black" points="290,-233 290,-255 360,-255 360,-233 290,-233"/>
<text text-anchor="start" x="293" y="-241.2" font-family="Helvetica,sans-Serif" font-size="11.00">varchar[100]</text>
<polygon fill="none" stroke="black" points="10,-211 10,-233 290,-233 290,-211 10,-211"/>
<text text-anchor="start" x="30" y="-219.2" font-family="Helvetica,sans-Serif" font-size="11.00">value_it</text>
<polygon fill="none" stroke="black" points="290,-211 290,-233 360,-233 360,-211 290,-211"/>
<text text-anchor="start" x="293" y="-219.2" font-family="Helvetica,sans-Serif" font-size="11.00">varchar[100]</text>
<polygon fill="none" stroke="black" points="10,-189 10,-211 290,-211 290,-189 10,-189"/>
<text text-anchor="start" x="30" y="-197.2" font-family="Helvetica,sans-Serif" font-size="11.00">value_ro</text>
<polygon fill="none" stroke="black" points="290,-189 290,-211 360,-211 360,-189 290,-189"/>
<text text-anchor="start" x="293" y="-197.2" font-family="Helvetica,sans-Serif" font-size="11.00">varchar[100]</text>
<polygon fill="none" stroke="black" points="10,-167 10,-189 290,-189 290,-167 10,-167"/>
<text text-anchor="start" x="30" y="-175.2" font-family="Helvetica,sans-Serif" font-size="11.00">abbr_en</text>
<polygon fill="none" stroke="black" points="290,-167 290,-189 360,-189 360,-167 290,-167"/>
<text text-anchor="start" x="293" y="-175.2" font-family="Helvetica,sans-Serif" font-size="11.00">varchar[3]</text>
<polygon fill="none" stroke="black" points="10,-145 10,-167 290,-167 290,-145 10,-145"/>
<text text-anchor="start" x="30" y="-153.2" font-family="Helvetica,sans-Serif" font-size="11.00">abbr_de</text>
<polygon fill="none" stroke="black" points="290,-145 290,-167 360,-167 360,-145 290,-145"/>
<text text-anchor="start" x="293" y="-153.2" font-family="Helvetica,sans-Serif" font-size="11.00">varchar[3]</text>
<polygon fill="none" stroke="black" points="10,-123 10,-145 290,-145 290,-123 10,-123"/>
<text text-anchor="start" x="30" y="-131.2" font-family="Helvetica,sans-Serif" font-size="11.00">abbr_fr</text>
<polygon fill="none" stroke="black" points="290,-123 290,-145 360,-145 360,-123 290,-123"/>
<text text-anchor="start" x="293" y="-131.2" font-family="Helvetica,sans-Serif" font-size="11.00">varchar[3]</text>
<polygon fill="none" stroke="black" points="10,-101 10,-123 290,-123 290,-101 10,-101"/>
<text text-anchor="start" x="30" y="-109.2" font-family="Helvetica,sans-Serif" font-size="11.00">abbr_it</text>
<polygon fill="none" stroke="black" points="290,-101 290,-123 360,-123 360,-101 290,-101"/>
<text text-anchor="start" x="293" y="-109.2" font-family="Helvetica,sans-Serif" font-size="11.00">varchar[3]</text>
<polygon fill="none" stroke="black" points="10,-79 10,-101 290,-101 290,-79 10,-79"/>
<text text-anchor="start" x="30" y="-87.2" font-family="Helvetica,sans-Serif" font-size="11.00">abbr_ro</text>
<polygon fill="none" stroke="black" points="290,-79 290,-101 360,-101 360,-79 290,-79"/>
<text text-anchor="start" x="293" y="-87.2" font-family="Helvetica,sans-Serif" font-size="11.00">varchar[3]</text>
<polygon fill="none" stroke="black" points="10,-57 10,-79 290,-79 290,-57 10,-57"/>
<text text-anchor="start" x="30" y="-65.2" font-family="Helvetica,sans-Serif" font-size="11.00">active</text>
<polygon fill="none" stroke="black" points="290,-57 290,-79 360,-79 360,-57 290,-57"/>
<text text-anchor="start" x="293" y="-65.2" font-family="Helvetica,sans-Serif" font-size="11.00">bool[1]</text>
<polygon fill="#ffffff" stroke="transparent" points="10,-39 10,-57 154,-57 154,-39 10,-39"/>
<polygon fill="none" stroke="black" points="10,-39 10,-57 154,-57 154,-39 10,-39"/>
<text text-anchor="start" x="13" y="-45.2" font-family="Helvetica,sans-Serif" font-size="11.00">&lt; 0</text>
<polygon fill="#ffffff" stroke="transparent" points="154,-39 154,-57 290,-57 290,-39 154,-39"/>
<polygon fill="none" stroke="black" points="154,-39 154,-57 290,-57 290,-39 154,-39"/>
<text text-anchor="start" x="280" y="-45.2" font-family="Helvetica,sans-Serif" font-size="11.00"> &#160;</text>
<polygon fill="#ffffff" stroke="transparent" points="290,-39 290,-57 360,-57 360,-39 290,-39"/>
<polygon fill="none" stroke="black" points="290,-39 290,-57 360,-57 360,-39 290,-39"/>
<text text-anchor="start" x="341" y="-45.2" font-family="Helvetica,sans-Serif" font-size="11.00">1 &gt;</text>
<polygon fill="none" stroke="black" stroke-width="2" points="9,-38 9,-366 361,-366 361,-38 9,-38"/>
</a>
</g>
</g>
<!-- tww_od.infiltration_installation&#45;&gt;infiltration_installation_seepage_utilization -->
<g id="edge1" class="edge">
<title>tww_od.infiltration_installation:w&#45;&gt;infiltration_installation_seepage_utilization:e</title>
<path fill="none" stroke="black" d="M395.49,-332C384.18,-332 376.99,-332 361,-332"/>
<polygon fill="black" stroke="black" points="402,-332 410,-335.6 406,-332 410,-332 410,-332 410,-332 406,-332 410,-328.4 402,-332 402,-332"/>
<ellipse fill="none" stroke="black" cx="398.8" cy="-332" rx="3.2" ry="3.2"/>
</g>
</g>
</svg>
