<?xml version="1.0" encoding="UTF-8" standalone="no"?>
<!DOCTYPE svg PUBLIC "-//W3C//DTD SVG 1.1//EN"
 "http://www.w3.org/Graphics/SVG/1.1/DTD/svg11.dtd">
<!-- Generated by graphviz version 2.43.0 (0)
 -->
<!-- Title: oneDegreeRelationshipsDiagram Pages: 1 -->
<svg width="803pt" height="619pt"
 viewBox="0.00 0.00 803.00 619.00" xmlns="http://www.w3.org/2000/svg" xmlns:xlink="http://www.w3.org/1999/xlink">
<g id="graph0" class="graph" transform="scale(1 1) rotate(0) translate(4 615)">
<title>oneDegreeRelationshipsDiagram</title>
<polygon fill="#ffffff" stroke="transparent" points="-4,4 -4,-615 799,-615 799,4 -4,4"/>
<text text-anchor="middle" x="79.5" y="-7.2" font-family="Helvetica,sans-Serif" font-size="11.00">Generated by SchemaSpy</text>
<!-- tww_od.infiltration_installation -->
<g id="node1" class="node">
<title>tww_od.infiltration_installation</title>
<g id="a_node1"><a xlink:href="../../../tww_od/tables/infiltration_installation.html" xlink:title="tww_od.infiltration_installation" target="_top">
<polygon fill="#ffffff" stroke="transparent" points="513,-373 513,-607 787,-607 787,-373 513,-373"/>
<polygon fill="#f5f5f5" stroke="transparent" points="513,-585 513,-607 787,-607 787,-585 513,-585"/>
<polygon fill="none" stroke="black" points="513,-585 513,-607 787,-607 787,-585 513,-585"/>
<text text-anchor="start" x="518" y="-594.2" font-family="Helvetica,sans-Serif" font-weight="bold" font-size="11.00">tww_od.infiltration_installation</text>
<text text-anchor="start" x="745" y="-593.2" font-family="Helvetica,sans-Serif" font-size="11.00">[table]</text>
<polygon fill="none" stroke="black" points="513,-563 513,-585 787,-585 787,-563 513,-563"/>
<image xlink:href="../../images/foreignKeys.png" width="11px" height="12px" preserveAspectRatio="xMinYMin meet" x="518" y="-580"/>
<text text-anchor="start" x="576" y="-571.2" font-family="Helvetica,sans-Serif" font-size="11.00">defects</text>
<polygon fill="none" stroke="black" points="513,-541 513,-563 787,-563 787,-541 513,-541"/>
<image xlink:href="../../images/foreignKeys.png" width="11px" height="12px" preserveAspectRatio="xMinYMin meet" x="518" y="-558"/>
<text text-anchor="start" x="576" y="-549.2" font-family="Helvetica,sans-Serif" font-size="11.00">emergency_overflow</text>
<polygon fill="none" stroke="black" points="513,-519 513,-541 787,-541 787,-519 513,-519"/>
<image xlink:href="../../images/foreignKeys.png" width="11px" height="12px" preserveAspectRatio="xMinYMin meet" x="518" y="-536"/>
<text text-anchor="start" x="576" y="-527.2" font-family="Helvetica,sans-Serif" font-size="11.00">filling_material</text>
<polygon fill="none" stroke="black" points="513,-497 513,-519 787,-519 787,-497 513,-497"/>
<image xlink:href="../../images/foreignKeys.png" width="11px" height="12px" preserveAspectRatio="xMinYMin meet" x="518" y="-514"/>
<text text-anchor="start" x="576" y="-505.2" font-family="Helvetica,sans-Serif" font-size="11.00">kind</text>
<polygon fill="none" stroke="black" points="513,-475 513,-497 787,-497 787,-475 513,-475"/>
<image xlink:href="../../images/foreignKeys.png" width="11px" height="12px" preserveAspectRatio="xMinYMin meet" x="518" y="-492"/>
<text text-anchor="start" x="576" y="-483.2" font-family="Helvetica,sans-Serif" font-size="11.00">labeling</text>
<polygon fill="none" stroke="black" points="513,-453 513,-475 787,-475 787,-453 513,-453"/>
<image xlink:href="../../images/foreignKeys.png" width="11px" height="12px" preserveAspectRatio="xMinYMin meet" x="518" y="-470"/>
<text text-anchor="start" x="576" y="-461.2" font-family="Helvetica,sans-Serif" font-size="11.00">seepage_utilization</text>
<polygon fill="none" stroke="black" points="513,-431 513,-453 787,-453 787,-431 513,-431"/>
<image xlink:href="../../images/foreignKeys.png" width="11px" height="12px" preserveAspectRatio="xMinYMin meet" x="518" y="-448"/>
<text text-anchor="start" x="576" y="-439.2" font-family="Helvetica,sans-Serif" font-size="11.00">vehicle_access</text>
<polygon fill="none" stroke="black" points="513,-409 513,-431 787,-431 787,-409 513,-409"/>
<image xlink:href="../../images/foreignKeys.png" width="11px" height="12px" preserveAspectRatio="xMinYMin meet" x="518" y="-426"/>
<text text-anchor="start" x="576" y="-417.2" font-family="Helvetica,sans-Serif" font-size="11.00">watertightness</text>
<polygon fill="none" stroke="black" points="513,-391 513,-409 787,-409 787,-391 513,-391"/>
<text text-anchor="start" x="516" y="-397.2" font-family="Helvetica,sans-Serif" font-size="11.00">...</text>
<polygon fill="#ffffff" stroke="transparent" points="513,-373 513,-391 787,-391 787,-373 513,-373"/>
<polygon fill="none" stroke="black" points="513,-373 513,-391 787,-391 787,-373 513,-373"/>
<polygon fill="#ffffff" stroke="transparent" points="514,-374 514,-390 603,-390 603,-374 514,-374"/>
<text text-anchor="start" x="516" y="-379.2" font-family="Helvetica,sans-Serif" font-size="11.00">&lt; 8</text>
<polygon fill="#ffffff" stroke="transparent" points="603,-374 603,-390 709,-390 709,-374 603,-374"/>
<text text-anchor="start" x="637.5" y="-379.2" font-family="Helvetica,sans-Serif" font-size="11.00">0 rows</text>
<polygon fill="#ffffff" stroke="transparent" points="709,-374 709,-390 786,-390 786,-374 709,-374"/>
<text text-anchor="start" x="776" y="-379.2" font-family="Helvetica,sans-Serif" font-size="11.00"> &#160;</text>
<polygon fill="black" stroke="black" points="603,-374 603,-390 603,-390 603,-374 603,-374"/>
<polygon fill="black" stroke="black" points="709,-374 709,-390 709,-390 709,-374 709,-374"/>
</a>
</g>
</g>
<!-- infiltration_installation_emergency_overflow -->
<g id="node2" class="node">
<title>infiltration_installation_emergency_overflow</title>
<g id="a_node2"><a xlink:href="../../tables/infiltration_installation_emerg_740c6ac9.html" xlink:title="infiltration_installation_emergency_overflow" target="_top">
<polygon fill="#ffffff" stroke="transparent" points="8,-37 8,-587 464,-587 464,-37 8,-37"/>
<polygon fill="#f5f5f5" stroke="transparent" points="10,-563 10,-585 462,-585 462,-563 10,-563"/>
<polygon fill="none" stroke="black" points="10,-563 10,-585 462,-585 462,-563 10,-563"/>
<text text-anchor="start" x="15" y="-572.2" font-family="Helvetica,sans-Serif" font-weight="bold" font-size="11.00">infiltration_installation_emergency_overflow</text>
<text text-anchor="start" x="420" y="-571.2" font-family="Helvetica,sans-Serif" font-size="11.00">[table]</text>
<polygon fill="none" stroke="black" points="10,-541 10,-563 356,-563 356,-541 10,-541"/>
<image xlink:href="../../images/primaryKeys.png" width="11px" height="12px" preserveAspectRatio="xMinYMin meet" x="15" y="-558"/>
<text text-anchor="start" x="30" y="-549.2" font-family="Helvetica,sans-Serif" font-size="11.00">code</text>
<polygon fill="none" stroke="black" points="356,-541 356,-563 462,-563 462,-541 356,-541"/>
<text text-anchor="start" x="359" y="-549.2" font-family="Helvetica,sans-Serif" font-size="11.00">int4[10]</text>
<polygon fill="none" stroke="black" points="10,-519 10,-541 356,-541 356,-519 10,-519"/>
<text text-anchor="start" x="30" y="-527.2" font-family="Helvetica,sans-Serif" font-size="11.00">vsacode</text>
<polygon fill="none" stroke="black" points="356,-519 356,-541 462,-541 462,-519 356,-519"/>
<text text-anchor="start" x="359" y="-527.2" font-family="Helvetica,sans-Serif" font-size="11.00">int4[10]</text>
<polygon fill="none" stroke="black" points="10,-497 10,-519 356,-519 356,-497 10,-497"/>
<text text-anchor="start" x="30" y="-505.2" font-family="Helvetica,sans-Serif" font-size="11.00">value_en</text>
<polygon fill="none" stroke="black" points="356,-497 356,-519 462,-519 462,-497 356,-497"/>
<text text-anchor="start" x="359" y="-505.2" font-family="Helvetica,sans-Serif" font-size="11.00">varchar[100]</text>
<polygon fill="none" stroke="black" points="10,-475 10,-497 356,-497 356,-475 10,-475"/>
<text text-anchor="start" x="30" y="-483.2" font-family="Helvetica,sans-Serif" font-size="11.00">value_de</text>
<polygon fill="none" stroke="black" points="356,-475 356,-497 462,-497 462,-475 356,-475"/>
<text text-anchor="start" x="359" y="-483.2" font-family="Helvetica,sans-Serif" font-size="11.00">varchar[100]</text>
<polygon fill="none" stroke="black" points="10,-453 10,-475 356,-475 356,-453 10,-453"/>
<text text-anchor="start" x="30" y="-461.2" font-family="Helvetica,sans-Serif" font-size="11.00">value_fr</text>
<polygon fill="none" stroke="black" points="356,-453 356,-475 462,-475 462,-453 356,-453"/>
<text text-anchor="start" x="359" y="-461.2" font-family="Helvetica,sans-Serif" font-size="11.00">varchar[100]</text>
<polygon fill="none" stroke="black" points="10,-431 10,-453 356,-453 356,-431 10,-431"/>
<text text-anchor="start" x="30" y="-439.2" font-family="Helvetica,sans-Serif" font-size="11.00">value_it</text>
<polygon fill="none" stroke="black" points="356,-431 356,-453 462,-453 462,-431 356,-431"/>
<text text-anchor="start" x="359" y="-439.2" font-family="Helvetica,sans-Serif" font-size="11.00">varchar[100]</text>
<polygon fill="none" stroke="black" points="10,-409 10,-431 356,-431 356,-409 10,-409"/>
<text text-anchor="start" x="30" y="-417.2" font-family="Helvetica,sans-Serif" font-size="11.00">value_ro</text>
<polygon fill="none" stroke="black" points="356,-409 356,-431 462,-431 462,-409 356,-409"/>
<text text-anchor="start" x="359" y="-417.2" font-family="Helvetica,sans-Serif" font-size="11.00">varchar[100]</text>
<polygon fill="none" stroke="black" points="10,-387 10,-409 356,-409 356,-387 10,-387"/>
<text text-anchor="start" x="30" y="-395.2" font-family="Helvetica,sans-Serif" font-size="11.00">abbr_en</text>
<polygon fill="none" stroke="black" points="356,-387 356,-409 462,-409 462,-387 356,-387"/>
<text text-anchor="start" x="359" y="-395.2" font-family="Helvetica,sans-Serif" font-size="11.00">varchar[3]</text>
<polygon fill="none" stroke="black" points="10,-365 10,-387 356,-387 356,-365 10,-365"/>
<text text-anchor="start" x="30" y="-373.2" font-family="Helvetica,sans-Serif" font-size="11.00">abbr_de</text>
<polygon fill="none" stroke="black" points="356,-365 356,-387 462,-387 462,-365 356,-365"/>
<text text-anchor="start" x="359" y="-373.2" font-family="Helvetica,sans-Serif" font-size="11.00">varchar[3]</text>
<polygon fill="none" stroke="black" points="10,-343 10,-365 356,-365 356,-343 10,-343"/>
<text text-anchor="start" x="30" y="-351.2" font-family="Helvetica,sans-Serif" font-size="11.00">abbr_fr</text>
<polygon fill="none" stroke="black" points="356,-343 356,-365 462,-365 462,-343 356,-343"/>
<text text-anchor="start" x="359" y="-351.2" font-family="Helvetica,sans-Serif" font-size="11.00">varchar[3]</text>
<polygon fill="none" stroke="black" points="10,-321 10,-343 356,-343 356,-321 10,-321"/>
<text text-anchor="start" x="30" y="-329.2" font-family="Helvetica,sans-Serif" font-size="11.00">abbr_it</text>
<polygon fill="none" stroke="black" points="356,-321 356,-343 462,-343 462,-321 356,-321"/>
<text text-anchor="start" x="359" y="-329.2" font-family="Helvetica,sans-Serif" font-size="11.00">varchar[3]</text>
<polygon fill="none" stroke="black" points="10,-299 10,-321 356,-321 356,-299 10,-299"/>
<text text-anchor="start" x="30" y="-307.2" font-family="Helvetica,sans-Serif" font-size="11.00">abbr_ro</text>
<polygon fill="none" stroke="black" points="356,-299 356,-321 462,-321 462,-299 356,-299"/>
<text text-anchor="start" x="359" y="-307.2" font-family="Helvetica,sans-Serif" font-size="11.00">varchar[3]</text>
<polygon fill="none" stroke="black" points="10,-277 10,-299 356,-299 356,-277 10,-277"/>
<text text-anchor="start" x="30" y="-285.2" font-family="Helvetica,sans-Serif" font-size="11.00">active</text>
<polygon fill="none" stroke="black" points="356,-277 356,-299 462,-299 462,-277 356,-277"/>
<text text-anchor="start" x="359" y="-285.2" font-family="Helvetica,sans-Serif" font-size="11.00">bool[1]</text>
<polygon fill="none" stroke="black" points="10,-255 10,-277 356,-277 356,-255 10,-255"/>
<text text-anchor="start" x="30" y="-263.2" font-family="Helvetica,sans-Serif" font-size="11.00">description_en</text>
<polygon fill="none" stroke="black" points="356,-255 356,-277 462,-277 462,-255 356,-255"/>
<text text-anchor="start" x="359" y="-263.2" font-family="Helvetica,sans-Serif" font-size="11.00">text[2147483647]</text>
<polygon fill="none" stroke="black" points="10,-233 10,-255 356,-255 356,-233 10,-233"/>
<text text-anchor="start" x="30" y="-241.2" font-family="Helvetica,sans-Serif" font-size="11.00">description_de</text>
<polygon fill="none" stroke="black" points="356,-233 356,-255 462,-255 462,-233 356,-233"/>
<text text-anchor="start" x="359" y="-241.2" font-family="Helvetica,sans-Serif" font-size="11.00">text[2147483647]</text>
<polygon fill="none" stroke="black" points="10,-211 10,-233 356,-233 356,-211 10,-211"/>
<text text-anchor="start" x="30" y="-219.2" font-family="Helvetica,sans-Serif" font-size="11.00">description_fr</text>
<polygon fill="none" stroke="black" points="356,-211 356,-233 462,-233 462,-211 356,-211"/>
<text text-anchor="start" x="359" y="-219.2" font-family="Helvetica,sans-Serif" font-size="11.00">text[2147483647]</text>
<polygon fill="none" stroke="black" points="10,-189 10,-211 356,-211 356,-189 10,-189"/>
<text text-anchor="start" x="30" y="-197.2" font-family="Helvetica,sans-Serif" font-size="11.00">description_it</text>
<polygon fill="none" stroke="black" points="356,-189 356,-211 462,-211 462,-189 356,-189"/>
<text text-anchor="start" x="359" y="-197.2" font-family="Helvetica,sans-Serif" font-size="11.00">text[2147483647]</text>
<polygon fill="none" stroke="black" points="10,-167 10,-189 356,-189 356,-167 10,-167"/>
<text text-anchor="start" x="30" y="-175.2" font-family="Helvetica,sans-Serif" font-size="11.00">description_ro</text>
<polygon fill="none" stroke="black" points="356,-167 356,-189 462,-189 462,-167 356,-167"/>
<text text-anchor="start" x="359" y="-175.2" font-family="Helvetica,sans-Serif" font-size="11.00">text[2147483647]</text>
<polygon fill="none" stroke="black" points="10,-145 10,-167 356,-167 356,-145 10,-145"/>
<text text-anchor="start" x="30" y="-153.2" font-family="Helvetica,sans-Serif" font-size="11.00">display_en</text>
<polygon fill="none" stroke="black" points="356,-145 356,-167 462,-167 462,-145 356,-145"/>
<text text-anchor="start" x="359" y="-153.2" font-family="Helvetica,sans-Serif" font-size="11.00">varchar[100]</text>
<polygon fill="none" stroke="black" points="10,-123 10,-145 356,-145 356,-123 10,-123"/>
<text text-anchor="start" x="30" y="-131.2" font-family="Helvetica,sans-Serif" font-size="11.00">display_de</text>
<polygon fill="none" stroke="black" points="356,-123 356,-145 462,-145 462,-123 356,-123"/>
<text text-anchor="start" x="359" y="-131.2" font-family="Helvetica,sans-Serif" font-size="11.00">varchar[100]</text>
<polygon fill="none" stroke="black" points="10,-101 10,-123 356,-123 356,-101 10,-101"/>
<text text-anchor="start" x="30" y="-109.2" font-family="Helvetica,sans-Serif" font-size="11.00">display_fr</text>
<polygon fill="none" stroke="black" points="356,-101 356,-123 462,-123 462,-101 356,-101"/>
<text text-anchor="start" x="359" y="-109.2" font-family="Helvetica,sans-Serif" font-size="11.00">varchar[100]</text>
<polygon fill="none" stroke="black" points="10,-79 10,-101 356,-101 356,-79 10,-79"/>
<text text-anchor="start" x="30" y="-87.2" font-family="Helvetica,sans-Serif" font-size="11.00">display_it</text>
<polygon fill="none" stroke="black" points="356,-79 356,-101 462,-101 462,-79 356,-79"/>
<text text-anchor="start" x="359" y="-87.2" font-family="Helvetica,sans-Serif" font-size="11.00">varchar[100]</text>
<polygon fill="none" stroke="black" points="10,-57 10,-79 356,-79 356,-57 10,-57"/>
<text text-anchor="start" x="30" y="-65.2" font-family="Helvetica,sans-Serif" font-size="11.00">display_ro</text>
<polygon fill="none" stroke="black" points="356,-57 356,-79 462,-79 462,-57 356,-57"/>
<text text-anchor="start" x="359" y="-65.2" font-family="Helvetica,sans-Serif" font-size="11.00">varchar[100]</text>
<polygon fill="#ffffff" stroke="transparent" points="10,-39 10,-57 462,-57 462,-39 10,-39"/>
<polygon fill="none" stroke="black" points="10,-39 10,-57 462,-57 462,-39 10,-39"/>
<polygon fill="#ffffff" stroke="transparent" points="11,-40 11,-56 165,-56 165,-40 11,-40"/>
<text text-anchor="start" x="13" y="-45.2" font-family="Helvetica,sans-Serif" font-size="11.00">&lt; 0</text>
<polygon fill="#ffffff" stroke="transparent" points="165,-40 165,-56 307,-56 307,-40 165,-40"/>
<text text-anchor="start" x="232" y="-45.2" font-family="Helvetica,sans-Serif" font-size="11.00"> &#160;</text>
<polygon fill="#ffffff" stroke="transparent" points="307,-40 307,-56 461,-56 461,-40 307,-40"/>
<text text-anchor="start" x="439" y="-45.2" font-family="Helvetica,sans-Serif" font-size="11.00">1 &gt;</text>
<polygon fill="black" stroke="black" points="165,-40 165,-56 165,-56 165,-40 165,-40"/>
<polygon fill="black" stroke="black" points="307,-40 307,-56 307,-56 307,-40 307,-40"/>
<polygon fill="none" stroke="black" stroke-width="2" points="9,-38 9,-586 463,-586 463,-38 9,-38"/>
</a>
</g>
</g>
<!-- tww_od.infiltration_installation&#45;&gt;infiltration_installation_emergency_overflow -->
<g id="edge1" class="edge">
<title>tww_od.infiltration_installation:w&#45;&gt;infiltration_installation_emergency_overflow:e</title>
<path fill="none" stroke="black" d="M497.49,-552C486.18,-552 478.99,-552 463,-552"/>
<polygon fill="black" stroke="black" points="504,-552 512,-555.6 508,-552 512,-552 512,-552 512,-552 508,-552 512,-548.4 504,-552 504,-552"/>
<ellipse fill="none" stroke="black" cx="500.8" cy="-552" rx="3.2" ry="3.2"/>
</g>
</g>
</svg>
