<?xml version="1.0" encoding="UTF-8" standalone="no"?>
<!DOCTYPE svg PUBLIC "-//W3C//DTD SVG 1.1//EN"
 "http://www.w3.org/Graphics/SVG/1.1/DTD/svg11.dtd">
<!-- Generated by graphviz version 2.43.0 (0)
 -->
<!-- Title: oneDegreeRelationshipsDiagram Pages: 1 -->
<svg width="648pt" height="599pt"
 viewBox="0.00 0.00 648.00 599.00" xmlns="http://www.w3.org/2000/svg" xmlns:xlink="http://www.w3.org/1999/xlink">
<g id="graph0" class="graph" transform="scale(1 1) rotate(0) translate(4 595)">
<title>oneDegreeRelationshipsDiagram</title>
<polygon fill="#ffffff" stroke="transparent" points="-4,4 -4,-595 644,-595 644,4 -4,4"/>
<text text-anchor="middle" x="79.5" y="-7.2" font-family="Helvetica,sans-Serif" font-size="11.00">Generated by SchemaSpy</text>
<!-- tww_od.maintenance_event -->
<g id="node1" class="node">
<title>tww_od.maintenance_event</title>
<g id="a_node1"><a xlink:href="../../../tww_od/tables/maintenance_event.html" xlink:title="tww_od.maintenance_event" target="_top">
<polygon fill="#ffffff" stroke="transparent" points="383,-505 383,-585 632,-585 632,-505 383,-505"/>
<polygon fill="#f5f5f5" stroke="transparent" points="383.5,-563 383.5,-585 632.5,-585 632.5,-563 383.5,-563"/>
<polygon fill="none" stroke="black" points="383.5,-563 383.5,-585 632.5,-585 632.5,-563 383.5,-563"/>
<text text-anchor="start" x="388.5" y="-572.2" font-family="Helvetica,sans-Serif" font-weight="bold" font-size="11.00">tww_od.maintenance_event</text>
<text text-anchor="start" x="590.5" y="-571.2" font-family="Helvetica,sans-Serif" font-size="11.00">[table]</text>
<polygon fill="none" stroke="black" points="383.5,-541 383.5,-563 632.5,-563 632.5,-541 383.5,-541"/>
<image xlink:href="../../images/foreignKeys.png" width="11px" height="12px" preserveAspectRatio="xMinYMin meet" x="388.5" y="-558"/>
<text text-anchor="start" x="435.5" y="-549.2" font-family="Helvetica,sans-Serif" font-size="11.00">status</text>
<polygon fill="none" stroke="black" points="383.5,-523 383.5,-541 632.5,-541 632.5,-523 383.5,-523"/>
<text text-anchor="start" x="386.5" y="-529.2" font-family="Helvetica,sans-Serif" font-size="11.00">...</text>
<polygon fill="#ffffff" stroke="transparent" points="383.5,-505 383.5,-523 632.5,-523 632.5,-505 383.5,-505"/>
<polygon fill="none" stroke="black" points="383.5,-505 383.5,-523 632.5,-523 632.5,-505 383.5,-505"/>
<polygon fill="#ffffff" stroke="transparent" points="384.5,-506 384.5,-522 465.5,-522 465.5,-506 384.5,-506"/>
<text text-anchor="start" x="386.5" y="-511.2" font-family="Helvetica,sans-Serif" font-size="11.00">&lt; 1</text>
<polygon fill="#ffffff" stroke="transparent" points="465.5,-506 465.5,-522 563.5,-522 563.5,-506 465.5,-506"/>
<text text-anchor="start" x="496" y="-511.2" font-family="Helvetica,sans-Serif" font-size="11.00">0 rows</text>
<polygon fill="#ffffff" stroke="transparent" points="563.5,-506 563.5,-522 631.5,-522 631.5,-506 563.5,-506"/>
<text text-anchor="start" x="621.5" y="-511.2" font-family="Helvetica,sans-Serif" font-size="11.00"> &#160;</text>
<polygon fill="black" stroke="black" points="465.5,-506 465.5,-522 465.5,-522 465.5,-506 465.5,-506"/>
<polygon fill="black" stroke="black" points="563.5,-506 563.5,-522 563.5,-522 563.5,-506 563.5,-506"/>
</a>
</g>
</g>
<!-- maintenance_event_status -->
<g id="node2" class="node">
<title>maintenance_event_status</title>
<g id="a_node2"><a xlink:href="../../tables/maintenance_event_status.html" xlink:title="maintenance_event_status" target="_top">
<polygon fill="#ffffff" stroke="transparent" points="8,-37 8,-587 334,-587 334,-37 8,-37"/>
<polygon fill="#f5f5f5" stroke="transparent" points="10,-563 10,-585 332,-585 332,-563 10,-563"/>
<polygon fill="none" stroke="black" points="10,-563 10,-585 332,-585 332,-563 10,-563"/>
<text text-anchor="start" x="15" y="-572.2" font-family="Helvetica,sans-Serif" font-weight="bold" font-size="11.00">maintenance_event_status</text>
<text text-anchor="start" x="290" y="-571.2" font-family="Helvetica,sans-Serif" font-size="11.00">[table]</text>
<polygon fill="none" stroke="black" points="10,-541 10,-563 226,-563 226,-541 10,-541"/>
<image xlink:href="../../images/primaryKeys.png" width="11px" height="12px" preserveAspectRatio="xMinYMin meet" x="15" y="-558"/>
<text text-anchor="start" x="30" y="-549.2" font-family="Helvetica,sans-Serif" font-size="11.00">code</text>
<polygon fill="none" stroke="black" points="226,-541 226,-563 332,-563 332,-541 226,-541"/>
<text text-anchor="start" x="229" y="-549.2" font-family="Helvetica,sans-Serif" font-size="11.00">int4[10]</text>
<polygon fill="none" stroke="black" points="10,-519 10,-541 226,-541 226,-519 10,-519"/>
<text text-anchor="start" x="30" y="-527.2" font-family="Helvetica,sans-Serif" font-size="11.00">vsacode</text>
<polygon fill="none" stroke="black" points="226,-519 226,-541 332,-541 332,-519 226,-519"/>
<text text-anchor="start" x="229" y="-527.2" font-family="Helvetica,sans-Serif" font-size="11.00">int4[10]</text>
<polygon fill="none" stroke="black" points="10,-497 10,-519 226,-519 226,-497 10,-497"/>
<text text-anchor="start" x="30" y="-505.2" font-family="Helvetica,sans-Serif" font-size="11.00">value_en</text>
<polygon fill="none" stroke="black" points="226,-497 226,-519 332,-519 332,-497 226,-497"/>
<text text-anchor="start" x="229" y="-505.2" font-family="Helvetica,sans-Serif" font-size="11.00">varchar[100]</text>
<polygon fill="none" stroke="black" points="10,-475 10,-497 226,-497 226,-475 10,-475"/>
<text text-anchor="start" x="30" y="-483.2" font-family="Helvetica,sans-Serif" font-size="11.00">value_de</text>
<polygon fill="none" stroke="black" points="226,-475 226,-497 332,-497 332,-475 226,-475"/>
<text text-anchor="start" x="229" y="-483.2" font-family="Helvetica,sans-Serif" font-size="11.00">varchar[100]</text>
<polygon fill="none" stroke="black" points="10,-453 10,-475 226,-475 226,-453 10,-453"/>
<text text-anchor="start" x="30" y="-461.2" font-family="Helvetica,sans-Serif" font-size="11.00">value_fr</text>
<polygon fill="none" stroke="black" points="226,-453 226,-475 332,-475 332,-453 226,-453"/>
<text text-anchor="start" x="229" y="-461.2" font-family="Helvetica,sans-Serif" font-size="11.00">varchar[100]</text>
<polygon fill="none" stroke="black" points="10,-431 10,-453 226,-453 226,-431 10,-431"/>
<text text-anchor="start" x="30" y="-439.2" font-family="Helvetica,sans-Serif" font-size="11.00">value_it</text>
<polygon fill="none" stroke="black" points="226,-431 226,-453 332,-453 332,-431 226,-431"/>
<text text-anchor="start" x="229" y="-439.2" font-family="Helvetica,sans-Serif" font-size="11.00">varchar[100]</text>
<polygon fill="none" stroke="black" points="10,-409 10,-431 226,-431 226,-409 10,-409"/>
<text text-anchor="start" x="30" y="-417.2" font-family="Helvetica,sans-Serif" font-size="11.00">value_ro</text>
<polygon fill="none" stroke="black" points="226,-409 226,-431 332,-431 332,-409 226,-409"/>
<text text-anchor="start" x="229" y="-417.2" font-family="Helvetica,sans-Serif" font-size="11.00">varchar[100]</text>
<polygon fill="none" stroke="black" points="10,-387 10,-409 226,-409 226,-387 10,-387"/>
<text text-anchor="start" x="30" y="-395.2" font-family="Helvetica,sans-Serif" font-size="11.00">abbr_en</text>
<polygon fill="none" stroke="black" points="226,-387 226,-409 332,-409 332,-387 226,-387"/>
<text text-anchor="start" x="229" y="-395.2" font-family="Helvetica,sans-Serif" font-size="11.00">varchar[3]</text>
<polygon fill="none" stroke="black" points="10,-365 10,-387 226,-387 226,-365 10,-365"/>
<text text-anchor="start" x="30" y="-373.2" font-family="Helvetica,sans-Serif" font-size="11.00">abbr_de</text>
<polygon fill="none" stroke="black" points="226,-365 226,-387 332,-387 332,-365 226,-365"/>
<text text-anchor="start" x="229" y="-373.2" font-family="Helvetica,sans-Serif" font-size="11.00">varchar[3]</text>
<polygon fill="none" stroke="black" points="10,-343 10,-365 226,-365 226,-343 10,-343"/>
<text text-anchor="start" x="30" y="-351.2" font-family="Helvetica,sans-Serif" font-size="11.00">abbr_fr</text>
<polygon fill="none" stroke="black" points="226,-343 226,-365 332,-365 332,-343 226,-343"/>
<text text-anchor="start" x="229" y="-351.2" font-family="Helvetica,sans-Serif" font-size="11.00">varchar[3]</text>
<polygon fill="none" stroke="black" points="10,-321 10,-343 226,-343 226,-321 10,-321"/>
<text text-anchor="start" x="30" y="-329.2" font-family="Helvetica,sans-Serif" font-size="11.00">abbr_it</text>
<polygon fill="none" stroke="black" points="226,-321 226,-343 332,-343 332,-321 226,-321"/>
<text text-anchor="start" x="229" y="-329.2" font-family="Helvetica,sans-Serif" font-size="11.00">varchar[3]</text>
<polygon fill="none" stroke="black" points="10,-299 10,-321 226,-321 226,-299 10,-299"/>
<text text-anchor="start" x="30" y="-307.2" font-family="Helvetica,sans-Serif" font-size="11.00">abbr_ro</text>
<polygon fill="none" stroke="black" points="226,-299 226,-321 332,-321 332,-299 226,-299"/>
<text text-anchor="start" x="229" y="-307.2" font-family="Helvetica,sans-Serif" font-size="11.00">varchar[3]</text>
<polygon fill="none" stroke="black" points="10,-277 10,-299 226,-299 226,-277 10,-277"/>
<text text-anchor="start" x="30" y="-285.2" font-family="Helvetica,sans-Serif" font-size="11.00">active</text>
<polygon fill="none" stroke="black" points="226,-277 226,-299 332,-299 332,-277 226,-277"/>
<text text-anchor="start" x="229" y="-285.2" font-family="Helvetica,sans-Serif" font-size="11.00">bool[1]</text>
<polygon fill="none" stroke="black" points="10,-255 10,-277 226,-277 226,-255 10,-255"/>
<text text-anchor="start" x="30" y="-263.2" font-family="Helvetica,sans-Serif" font-size="11.00">description_en</text>
<polygon fill="none" stroke="black" points="226,-255 226,-277 332,-277 332,-255 226,-255"/>
<text text-anchor="start" x="229" y="-263.2" font-family="Helvetica,sans-Serif" font-size="11.00">text[2147483647]</text>
<polygon fill="none" stroke="black" points="10,-233 10,-255 226,-255 226,-233 10,-233"/>
<text text-anchor="start" x="30" y="-241.2" font-family="Helvetica,sans-Serif" font-size="11.00">description_de</text>
<polygon fill="none" stroke="black" points="226,-233 226,-255 332,-255 332,-233 226,-233"/>
<text text-anchor="start" x="229" y="-241.2" font-family="Helvetica,sans-Serif" font-size="11.00">text[2147483647]</text>
<polygon fill="none" stroke="black" points="10,-211 10,-233 226,-233 226,-211 10,-211"/>
<text text-anchor="start" x="30" y="-219.2" font-family="Helvetica,sans-Serif" font-size="11.00">description_fr</text>
<polygon fill="none" stroke="black" points="226,-211 226,-233 332,-233 332,-211 226,-211"/>
<text text-anchor="start" x="229" y="-219.2" font-family="Helvetica,sans-Serif" font-size="11.00">text[2147483647]</text>
<polygon fill="none" stroke="black" points="10,-189 10,-211 226,-211 226,-189 10,-189"/>
<text text-anchor="start" x="30" y="-197.2" font-family="Helvetica,sans-Serif" font-size="11.00">description_it</text>
<polygon fill="none" stroke="black" points="226,-189 226,-211 332,-211 332,-189 226,-189"/>
<text text-anchor="start" x="229" y="-197.2" font-family="Helvetica,sans-Serif" font-size="11.00">text[2147483647]</text>
<polygon fill="none" stroke="black" points="10,-167 10,-189 226,-189 226,-167 10,-167"/>
<text text-anchor="start" x="30" y="-175.2" font-family="Helvetica,sans-Serif" font-size="11.00">description_ro</text>
<polygon fill="none" stroke="black" points="226,-167 226,-189 332,-189 332,-167 226,-167"/>
<text text-anchor="start" x="229" y="-175.2" font-family="Helvetica,sans-Serif" font-size="11.00">text[2147483647]</text>
<polygon fill="none" stroke="black" points="10,-145 10,-167 226,-167 226,-145 10,-145"/>
<text text-anchor="start" x="30" y="-153.2" font-family="Helvetica,sans-Serif" font-size="11.00">display_en</text>
<polygon fill="none" stroke="black" points="226,-145 226,-167 332,-167 332,-145 226,-145"/>
<text text-anchor="start" x="229" y="-153.2" font-family="Helvetica,sans-Serif" font-size="11.00">varchar[100]</text>
<polygon fill="none" stroke="black" points="10,-123 10,-145 226,-145 226,-123 10,-123"/>
<text text-anchor="start" x="30" y="-131.2" font-family="Helvetica,sans-Serif" font-size="11.00">display_de</text>
<polygon fill="none" stroke="black" points="226,-123 226,-145 332,-145 332,-123 226,-123"/>
<text text-anchor="start" x="229" y="-131.2" font-family="Helvetica,sans-Serif" font-size="11.00">varchar[100]</text>
<polygon fill="none" stroke="black" points="10,-101 10,-123 226,-123 226,-101 10,-101"/>
<text text-anchor="start" x="30" y="-109.2" font-family="Helvetica,sans-Serif" font-size="11.00">display_fr</text>
<polygon fill="none" stroke="black" points="226,-101 226,-123 332,-123 332,-101 226,-101"/>
<text text-anchor="start" x="229" y="-109.2" font-family="Helvetica,sans-Serif" font-size="11.00">varchar[100]</text>
<polygon fill="none" stroke="black" points="10,-79 10,-101 226,-101 226,-79 10,-79"/>
<text text-anchor="start" x="30" y="-87.2" font-family="Helvetica,sans-Serif" font-size="11.00">display_it</text>
<polygon fill="none" stroke="black" points="226,-79 226,-101 332,-101 332,-79 226,-79"/>
<text text-anchor="start" x="229" y="-87.2" font-family="Helvetica,sans-Serif" font-size="11.00">varchar[100]</text>
<polygon fill="none" stroke="black" points="10,-57 10,-79 226,-79 226,-57 10,-57"/>
<text text-anchor="start" x="30" y="-65.2" font-family="Helvetica,sans-Serif" font-size="11.00">display_ro</text>
<polygon fill="none" stroke="black" points="226,-57 226,-79 332,-79 332,-57 226,-57"/>
<text text-anchor="start" x="229" y="-65.2" font-family="Helvetica,sans-Serif" font-size="11.00">varchar[100]</text>
<polygon fill="#ffffff" stroke="transparent" points="10,-39 10,-57 332,-57 332,-39 10,-39"/>
<polygon fill="none" stroke="black" points="10,-39 10,-57 332,-57 332,-39 10,-39"/>
<polygon fill="#ffffff" stroke="transparent" points="11,-40 11,-56 122,-56 122,-40 11,-40"/>
<text text-anchor="start" x="13" y="-45.2" font-family="Helvetica,sans-Serif" font-size="11.00">&lt; 0</text>
<polygon fill="#ffffff" stroke="transparent" points="122,-40 122,-56 221,-56 221,-40 122,-40"/>
<text text-anchor="start" x="167.5" y="-45.2" font-family="Helvetica,sans-Serif" font-size="11.00"> &#160;</text>
<polygon fill="#ffffff" stroke="transparent" points="221,-40 221,-56 331,-56 331,-40 221,-40"/>
<text text-anchor="start" x="309" y="-45.2" font-family="Helvetica,sans-Serif" font-size="11.00">1 &gt;</text>
<polygon fill="black" stroke="black" points="122,-40 122,-56 122,-56 122,-40 122,-40"/>
<polygon fill="black" stroke="black" points="221,-40 221,-56 221,-56 221,-40 221,-40"/>
<polygon fill="none" stroke="black" stroke-width="2" points="9,-38 9,-586 333,-586 333,-38 9,-38"/>
</a>
</g>
</g>
<!-- tww_od.maintenance_event&#45;&gt;maintenance_event_status -->
<g id="edge1" class="edge">
<title>tww_od.maintenance_event:w&#45;&gt;maintenance_event_status:e</title>
<path fill="none" stroke="black" d="M367.84,-552C356.41,-552 349.16,-552 333,-552"/>
<polygon fill="black" stroke="black" points="374.5,-552 382.5,-555.6 378.5,-552 382.5,-552 382.5,-552 382.5,-552 378.5,-552 382.5,-548.4 374.5,-552 374.5,-552"/>
<ellipse fill="none" stroke="black" cx="371.3" cy="-552" rx="3.2" ry="3.2"/>
</g>
</g>
</svg>
