<?xml version="1.0" encoding="UTF-8" standalone="no"?>
<!DOCTYPE svg PUBLIC "-//W3C//DTD SVG 1.1//EN"
 "http://www.w3.org/Graphics/SVG/1.1/DTD/svg11.dtd">
<!-- Generated by graphviz version 2.43.0 (0)
 -->
<!-- Title: oneDegreeRelationshipsDiagram Pages: 1 -->
<svg width="639pt" height="663pt"
 viewBox="0.00 0.00 639.00 663.00" xmlns="http://www.w3.org/2000/svg" xmlns:xlink="http://www.w3.org/1999/xlink">
<g id="graph0" class="graph" transform="scale(1 1) rotate(0) translate(4 659)">
<title>oneDegreeRelationshipsDiagram</title>
<polygon fill="#ffffff" stroke="transparent" points="-4,4 -4,-659 635,-659 635,4 -4,4"/>
<text text-anchor="middle" x="79.5" y="-7.2" font-family="Helvetica,sans-Serif" font-size="11.00">Generated by SchemaSpy</text>
<!-- tww_od.manhole -->
<g id="node1" class="node">
<title>tww_od.manhole</title>
<g id="a_node1"><a xlink:href="../../../tww_od/tables/manhole.html" xlink:title="tww_od.manhole" target="_top">
<polygon fill="#ffffff" stroke="transparent" points="430,-483 430,-651 623,-651 623,-483 430,-483"/>
<polygon fill="#f5f5f5" stroke="transparent" points="430.5,-629 430.5,-651 623.5,-651 623.5,-629 430.5,-629"/>
<polygon fill="none" stroke="black" points="430.5,-629 430.5,-651 623.5,-651 623.5,-629 430.5,-629"/>
<text text-anchor="start" x="435.5" y="-638.2" font-family="Helvetica,sans-Serif" font-weight="bold" font-size="11.00">tww_od.manhole</text>
<text text-anchor="start" x="581.5" y="-637.2" font-family="Helvetica,sans-Serif" font-size="11.00">[table]</text>
<polygon fill="none" stroke="black" points="430.5,-607 430.5,-629 623.5,-629 623.5,-607 430.5,-607"/>
<image xlink:href="../../images/foreignKeys.png" width="11px" height="12px" preserveAspectRatio="xMinYMin meet" x="435.5" y="-624"/>
<text text-anchor="start" x="450.5" y="-615.2" font-family="Helvetica,sans-Serif" font-size="11.00">amphibian_exit</text>
<polygon fill="none" stroke="black" points="430.5,-585 430.5,-607 623.5,-607 623.5,-585 430.5,-585"/>
<image xlink:href="../../images/foreignKeys.png" width="11px" height="12px" preserveAspectRatio="xMinYMin meet" x="435.5" y="-602"/>
<text text-anchor="start" x="450.5" y="-593.2" font-family="Helvetica,sans-Serif" font-size="11.00">function</text>
<polygon fill="none" stroke="black" points="430.5,-563 430.5,-585 623.5,-585 623.5,-563 430.5,-563"/>
<image xlink:href="../../images/foreignKeys.png" width="11px" height="12px" preserveAspectRatio="xMinYMin meet" x="435.5" y="-580"/>
<text text-anchor="start" x="450.5" y="-571.2" font-family="Helvetica,sans-Serif" font-size="11.00">material</text>
<polygon fill="none" stroke="black" points="430.5,-541 430.5,-563 623.5,-563 623.5,-541 430.5,-541"/>
<image xlink:href="../../images/foreignKeys.png" width="11px" height="12px" preserveAspectRatio="xMinYMin meet" x="435.5" y="-558"/>
<text text-anchor="start" x="450.5" y="-549.2" font-family="Helvetica,sans-Serif" font-size="11.00">possibility_intervention</text>
<polygon fill="none" stroke="black" points="430.5,-519 430.5,-541 623.5,-541 623.5,-519 430.5,-519"/>
<image xlink:href="../../images/foreignKeys.png" width="11px" height="12px" preserveAspectRatio="xMinYMin meet" x="435.5" y="-536"/>
<text text-anchor="start" x="450.5" y="-527.2" font-family="Helvetica,sans-Serif" font-size="11.00">surface_inflow</text>
<polygon fill="none" stroke="black" points="430.5,-501 430.5,-519 623.5,-519 623.5,-501 430.5,-501"/>
<text text-anchor="start" x="433.5" y="-507.2" font-family="Helvetica,sans-Serif" font-size="11.00">...</text>
<polygon fill="#ffffff" stroke="transparent" points="430.5,-483 430.5,-501 623.5,-501 623.5,-483 430.5,-483"/>
<polygon fill="none" stroke="black" points="430.5,-483 430.5,-501 623.5,-501 623.5,-483 430.5,-483"/>
<polygon fill="#ffffff" stroke="transparent" points="431.5,-484 431.5,-500 493.5,-500 493.5,-484 431.5,-484"/>
<text text-anchor="start" x="433.5" y="-489.2" font-family="Helvetica,sans-Serif" font-size="11.00">&lt; 5</text>
<polygon fill="#ffffff" stroke="transparent" points="493.5,-484 493.5,-500 572.5,-500 572.5,-484 493.5,-484"/>
<text text-anchor="start" x="514.5" y="-489.2" font-family="Helvetica,sans-Serif" font-size="11.00">0 rows</text>
<polygon fill="#ffffff" stroke="transparent" points="572.5,-484 572.5,-500 622.5,-500 622.5,-484 572.5,-484"/>
<text text-anchor="start" x="612.5" y="-489.2" font-family="Helvetica,sans-Serif" font-size="11.00"> &#160;</text>
<polygon fill="black" stroke="black" points="493.5,-484 493.5,-500 493.5,-500 493.5,-484 493.5,-484"/>
<polygon fill="black" stroke="black" points="572.5,-484 572.5,-500 572.5,-500 572.5,-484 572.5,-484"/>
</a>
</g>
</g>
<!-- manhole_possibility_intervention -->
<g id="node2" class="node">
<title>manhole_possibility_intervention</title>
<g id="a_node2"><a xlink:href="../../tables/manhole_possibility_intervention.html" xlink:title="manhole_possibility_intervention" target="_top">
<polygon fill="#ffffff" stroke="transparent" points="8,-37 8,-587 381,-587 381,-37 8,-37"/>
<polygon fill="#f5f5f5" stroke="transparent" points="10.5,-563 10.5,-585 379.5,-585 379.5,-563 10.5,-563"/>
<polygon fill="none" stroke="black" points="10.5,-563 10.5,-585 379.5,-585 379.5,-563 10.5,-563"/>
<text text-anchor="start" x="15.5" y="-572.2" font-family="Helvetica,sans-Serif" font-weight="bold" font-size="11.00">manhole_possibility_intervention</text>
<text text-anchor="start" x="337.5" y="-571.2" font-family="Helvetica,sans-Serif" font-size="11.00">[table]</text>
<polygon fill="none" stroke="black" points="10.5,-541 10.5,-563 273.5,-563 273.5,-541 10.5,-541"/>
<image xlink:href="../../images/primaryKeys.png" width="11px" height="12px" preserveAspectRatio="xMinYMin meet" x="15.5" y="-558"/>
<text text-anchor="start" x="30.5" y="-549.2" font-family="Helvetica,sans-Serif" font-size="11.00">code</text>
<polygon fill="none" stroke="black" points="273.5,-541 273.5,-563 379.5,-563 379.5,-541 273.5,-541"/>
<text text-anchor="start" x="276.5" y="-549.2" font-family="Helvetica,sans-Serif" font-size="11.00">int4[10]</text>
<polygon fill="none" stroke="black" points="10.5,-519 10.5,-541 273.5,-541 273.5,-519 10.5,-519"/>
<text text-anchor="start" x="30.5" y="-527.2" font-family="Helvetica,sans-Serif" font-size="11.00">vsacode</text>
<polygon fill="none" stroke="black" points="273.5,-519 273.5,-541 379.5,-541 379.5,-519 273.5,-519"/>
<text text-anchor="start" x="276.5" y="-527.2" font-family="Helvetica,sans-Serif" font-size="11.00">int4[10]</text>
<polygon fill="none" stroke="black" points="10.5,-497 10.5,-519 273.5,-519 273.5,-497 10.5,-497"/>
<text text-anchor="start" x="30.5" y="-505.2" font-family="Helvetica,sans-Serif" font-size="11.00">value_en</text>
<polygon fill="none" stroke="black" points="273.5,-497 273.5,-519 379.5,-519 379.5,-497 273.5,-497"/>
<text text-anchor="start" x="276.5" y="-505.2" font-family="Helvetica,sans-Serif" font-size="11.00">varchar[100]</text>
<polygon fill="none" stroke="black" points="10.5,-475 10.5,-497 273.5,-497 273.5,-475 10.5,-475"/>
<text text-anchor="start" x="30.5" y="-483.2" font-family="Helvetica,sans-Serif" font-size="11.00">value_de</text>
<polygon fill="none" stroke="black" points="273.5,-475 273.5,-497 379.5,-497 379.5,-475 273.5,-475"/>
<text text-anchor="start" x="276.5" y="-483.2" font-family="Helvetica,sans-Serif" font-size="11.00">varchar[100]</text>
<polygon fill="none" stroke="black" points="10.5,-453 10.5,-475 273.5,-475 273.5,-453 10.5,-453"/>
<text text-anchor="start" x="30.5" y="-461.2" font-family="Helvetica,sans-Serif" font-size="11.00">value_fr</text>
<polygon fill="none" stroke="black" points="273.5,-453 273.5,-475 379.5,-475 379.5,-453 273.5,-453"/>
<text text-anchor="start" x="276.5" y="-461.2" font-family="Helvetica,sans-Serif" font-size="11.00">varchar[100]</text>
<polygon fill="none" stroke="black" points="10.5,-431 10.5,-453 273.5,-453 273.5,-431 10.5,-431"/>
<text text-anchor="start" x="30.5" y="-439.2" font-family="Helvetica,sans-Serif" font-size="11.00">value_it</text>
<polygon fill="none" stroke="black" points="273.5,-431 273.5,-453 379.5,-453 379.5,-431 273.5,-431"/>
<text text-anchor="start" x="276.5" y="-439.2" font-family="Helvetica,sans-Serif" font-size="11.00">varchar[100]</text>
<polygon fill="none" stroke="black" points="10.5,-409 10.5,-431 273.5,-431 273.5,-409 10.5,-409"/>
<text text-anchor="start" x="30.5" y="-417.2" font-family="Helvetica,sans-Serif" font-size="11.00">value_ro</text>
<polygon fill="none" stroke="black" points="273.5,-409 273.5,-431 379.5,-431 379.5,-409 273.5,-409"/>
<text text-anchor="start" x="276.5" y="-417.2" font-family="Helvetica,sans-Serif" font-size="11.00">varchar[100]</text>
<polygon fill="none" stroke="black" points="10.5,-387 10.5,-409 273.5,-409 273.5,-387 10.5,-387"/>
<text text-anchor="start" x="30.5" y="-395.2" font-family="Helvetica,sans-Serif" font-size="11.00">abbr_en</text>
<polygon fill="none" stroke="black" points="273.5,-387 273.5,-409 379.5,-409 379.5,-387 273.5,-387"/>
<text text-anchor="start" x="276.5" y="-395.2" font-family="Helvetica,sans-Serif" font-size="11.00">varchar[3]</text>
<polygon fill="none" stroke="black" points="10.5,-365 10.5,-387 273.5,-387 273.5,-365 10.5,-365"/>
<text text-anchor="start" x="30.5" y="-373.2" font-family="Helvetica,sans-Serif" font-size="11.00">abbr_de</text>
<polygon fill="none" stroke="black" points="273.5,-365 273.5,-387 379.5,-387 379.5,-365 273.5,-365"/>
<text text-anchor="start" x="276.5" y="-373.2" font-family="Helvetica,sans-Serif" font-size="11.00">varchar[3]</text>
<polygon fill="none" stroke="black" points="10.5,-343 10.5,-365 273.5,-365 273.5,-343 10.5,-343"/>
<text text-anchor="start" x="30.5" y="-351.2" font-family="Helvetica,sans-Serif" font-size="11.00">abbr_fr</text>
<polygon fill="none" stroke="black" points="273.5,-343 273.5,-365 379.5,-365 379.5,-343 273.5,-343"/>
<text text-anchor="start" x="276.5" y="-351.2" font-family="Helvetica,sans-Serif" font-size="11.00">varchar[3]</text>
<polygon fill="none" stroke="black" points="10.5,-321 10.5,-343 273.5,-343 273.5,-321 10.5,-321"/>
<text text-anchor="start" x="30.5" y="-329.2" font-family="Helvetica,sans-Serif" font-size="11.00">abbr_it</text>
<polygon fill="none" stroke="black" points="273.5,-321 273.5,-343 379.5,-343 379.5,-321 273.5,-321"/>
<text text-anchor="start" x="276.5" y="-329.2" font-family="Helvetica,sans-Serif" font-size="11.00">varchar[3]</text>
<polygon fill="none" stroke="black" points="10.5,-299 10.5,-321 273.5,-321 273.5,-299 10.5,-299"/>
<text text-anchor="start" x="30.5" y="-307.2" font-family="Helvetica,sans-Serif" font-size="11.00">abbr_ro</text>
<polygon fill="none" stroke="black" points="273.5,-299 273.5,-321 379.5,-321 379.5,-299 273.5,-299"/>
<text text-anchor="start" x="276.5" y="-307.2" font-family="Helvetica,sans-Serif" font-size="11.00">varchar[3]</text>
<polygon fill="none" stroke="black" points="10.5,-277 10.5,-299 273.5,-299 273.5,-277 10.5,-277"/>
<text text-anchor="start" x="30.5" y="-285.2" font-family="Helvetica,sans-Serif" font-size="11.00">active</text>
<polygon fill="none" stroke="black" points="273.5,-277 273.5,-299 379.5,-299 379.5,-277 273.5,-277"/>
<text text-anchor="start" x="276.5" y="-285.2" font-family="Helvetica,sans-Serif" font-size="11.00">bool[1]</text>
<polygon fill="none" stroke="black" points="10.5,-255 10.5,-277 273.5,-277 273.5,-255 10.5,-255"/>
<text text-anchor="start" x="30.5" y="-263.2" font-family="Helvetica,sans-Serif" font-size="11.00">description_en</text>
<polygon fill="none" stroke="black" points="273.5,-255 273.5,-277 379.5,-277 379.5,-255 273.5,-255"/>
<text text-anchor="start" x="276.5" y="-263.2" font-family="Helvetica,sans-Serif" font-size="11.00">text[2147483647]</text>
<polygon fill="none" stroke="black" points="10.5,-233 10.5,-255 273.5,-255 273.5,-233 10.5,-233"/>
<text text-anchor="start" x="30.5" y="-241.2" font-family="Helvetica,sans-Serif" font-size="11.00">description_de</text>
<polygon fill="none" stroke="black" points="273.5,-233 273.5,-255 379.5,-255 379.5,-233 273.5,-233"/>
<text text-anchor="start" x="276.5" y="-241.2" font-family="Helvetica,sans-Serif" font-size="11.00">text[2147483647]</text>
<polygon fill="none" stroke="black" points="10.5,-211 10.5,-233 273.5,-233 273.5,-211 10.5,-211"/>
<text text-anchor="start" x="30.5" y="-219.2" font-family="Helvetica,sans-Serif" font-size="11.00">description_fr</text>
<polygon fill="none" stroke="black" points="273.5,-211 273.5,-233 379.5,-233 379.5,-211 273.5,-211"/>
<text text-anchor="start" x="276.5" y="-219.2" font-family="Helvetica,sans-Serif" font-size="11.00">text[2147483647]</text>
<polygon fill="none" stroke="black" points="10.5,-189 10.5,-211 273.5,-211 273.5,-189 10.5,-189"/>
<text text-anchor="start" x="30.5" y="-197.2" font-family="Helvetica,sans-Serif" font-size="11.00">description_it</text>
<polygon fill="none" stroke="black" points="273.5,-189 273.5,-211 379.5,-211 379.5,-189 273.5,-189"/>
<text text-anchor="start" x="276.5" y="-197.2" font-family="Helvetica,sans-Serif" font-size="11.00">text[2147483647]</text>
<polygon fill="none" stroke="black" points="10.5,-167 10.5,-189 273.5,-189 273.5,-167 10.5,-167"/>
<text text-anchor="start" x="30.5" y="-175.2" font-family="Helvetica,sans-Serif" font-size="11.00">description_ro</text>
<polygon fill="none" stroke="black" points="273.5,-167 273.5,-189 379.5,-189 379.5,-167 273.5,-167"/>
<text text-anchor="start" x="276.5" y="-175.2" font-family="Helvetica,sans-Serif" font-size="11.00">text[2147483647]</text>
<polygon fill="none" stroke="black" points="10.5,-145 10.5,-167 273.5,-167 273.5,-145 10.5,-145"/>
<text text-anchor="start" x="30.5" y="-153.2" font-family="Helvetica,sans-Serif" font-size="11.00">display_en</text>
<polygon fill="none" stroke="black" points="273.5,-145 273.5,-167 379.5,-167 379.5,-145 273.5,-145"/>
<text text-anchor="start" x="276.5" y="-153.2" font-family="Helvetica,sans-Serif" font-size="11.00">varchar[100]</text>
<polygon fill="none" stroke="black" points="10.5,-123 10.5,-145 273.5,-145 273.5,-123 10.5,-123"/>
<text text-anchor="start" x="30.5" y="-131.2" font-family="Helvetica,sans-Serif" font-size="11.00">display_de</text>
<polygon fill="none" stroke="black" points="273.5,-123 273.5,-145 379.5,-145 379.5,-123 273.5,-123"/>
<text text-anchor="start" x="276.5" y="-131.2" font-family="Helvetica,sans-Serif" font-size="11.00">varchar[100]</text>
<polygon fill="none" stroke="black" points="10.5,-101 10.5,-123 273.5,-123 273.5,-101 10.5,-101"/>
<text text-anchor="start" x="30.5" y="-109.2" font-family="Helvetica,sans-Serif" font-size="11.00">display_fr</text>
<polygon fill="none" stroke="black" points="273.5,-101 273.5,-123 379.5,-123 379.5,-101 273.5,-101"/>
<text text-anchor="start" x="276.5" y="-109.2" font-family="Helvetica,sans-Serif" font-size="11.00">varchar[100]</text>
<polygon fill="none" stroke="black" points="10.5,-79 10.5,-101 273.5,-101 273.5,-79 10.5,-79"/>
<text text-anchor="start" x="30.5" y="-87.2" font-family="Helvetica,sans-Serif" font-size="11.00">display_it</text>
<polygon fill="none" stroke="black" points="273.5,-79 273.5,-101 379.5,-101 379.5,-79 273.5,-79"/>
<text text-anchor="start" x="276.5" y="-87.2" font-family="Helvetica,sans-Serif" font-size="11.00">varchar[100]</text>
<polygon fill="none" stroke="black" points="10.5,-57 10.5,-79 273.5,-79 273.5,-57 10.5,-57"/>
<text text-anchor="start" x="30.5" y="-65.2" font-family="Helvetica,sans-Serif" font-size="11.00">display_ro</text>
<polygon fill="none" stroke="black" points="273.5,-57 273.5,-79 379.5,-79 379.5,-57 273.5,-57"/>
<text text-anchor="start" x="276.5" y="-65.2" font-family="Helvetica,sans-Serif" font-size="11.00">varchar[100]</text>
<polygon fill="#ffffff" stroke="transparent" points="10.5,-39 10.5,-57 379.5,-57 379.5,-39 10.5,-39"/>
<polygon fill="none" stroke="black" points="10.5,-39 10.5,-57 379.5,-57 379.5,-39 10.5,-39"/>
<polygon fill="#ffffff" stroke="transparent" points="11.5,-40 11.5,-56 138.5,-56 138.5,-40 11.5,-40"/>
<text text-anchor="start" x="13.5" y="-45.2" font-family="Helvetica,sans-Serif" font-size="11.00">&lt; 0</text>
<polygon fill="#ffffff" stroke="transparent" points="138.5,-40 138.5,-56 252.5,-56 252.5,-40 138.5,-40"/>
<text text-anchor="start" x="191.5" y="-45.2" font-family="Helvetica,sans-Serif" font-size="11.00"> &#160;</text>
<polygon fill="#ffffff" stroke="transparent" points="252.5,-40 252.5,-56 378.5,-56 378.5,-40 252.5,-40"/>
<text text-anchor="start" x="356.5" y="-45.2" font-family="Helvetica,sans-Serif" font-size="11.00">1 &gt;</text>
<polygon fill="black" stroke="black" points="138.5,-40 138.5,-56 138.5,-56 138.5,-40 138.5,-40"/>
<polygon fill="black" stroke="black" points="252.5,-40 252.5,-56 252.5,-56 252.5,-40 252.5,-40"/>
<polygon fill="none" stroke="black" stroke-width="2" points="9,-38 9,-586 380,-586 380,-38 9,-38"/>
</a>
</g>
</g>
<!-- tww_od.manhole&#45;&gt;manhole_possibility_intervention -->
<g id="edge1" class="edge">
<title>tww_od.manhole:w&#45;&gt;manhole_possibility_intervention:e</title>
<path fill="none" stroke="black" d="M414.99,-552C403.68,-552 396.49,-552 380.5,-552"/>
<polygon fill="black" stroke="black" points="421.5,-552 429.5,-555.6 425.5,-552 429.5,-552 429.5,-552 429.5,-552 425.5,-552 429.5,-548.4 421.5,-552 421.5,-552"/>
<ellipse fill="none" stroke="black" cx="418.3" cy="-552" rx="3.2" ry="3.2"/>
</g>
</g>
</svg>
