<?xml version="1.0" encoding="UTF-8" standalone="no"?>
<!DOCTYPE svg PUBLIC "-//W3C//DTD SVG 1.1//EN"
 "http://www.w3.org/Graphics/SVG/1.1/DTD/svg11.dtd">
<!-- Generated by graphviz version 2.43.0 (0)
 -->
<!-- Title: oneDegreeRelationshipsDiagram Pages: 1 -->
<svg width="730pt" height="379pt"
 viewBox="0.00 0.00 730.00 379.00" xmlns="http://www.w3.org/2000/svg" xmlns:xlink="http://www.w3.org/1999/xlink">
<g id="graph0" class="graph" transform="scale(1 1) rotate(0) translate(4 375)">
<title>oneDegreeRelationshipsDiagram</title>
<polygon fill="#ffffff" stroke="transparent" points="-4,4 -4,-375 726,-375 726,4 -4,4"/>
<text text-anchor="middle" x="79.5" y="-7.2" font-family="Helvetica,sans-Serif" font-size="11.00">Generated by SchemaSpy</text>
<!-- tww_od.measurement_result -->
<g id="node1" class="node">
<title>tww_od.measurement_result</title>
<g id="a_node1"><a xlink:href="../../../tww_od/tables/measurement_result.html" xlink:title="tww_od.measurement_result" target="_top">
<polygon fill="#ffffff" stroke="transparent" points="457,-285 457,-365 714,-365 714,-285 457,-285"/>
<polygon fill="#f5f5f5" stroke="transparent" points="457.5,-343 457.5,-365 714.5,-365 714.5,-343 457.5,-343"/>
<polygon fill="none" stroke="black" points="457.5,-343 457.5,-365 714.5,-365 714.5,-343 457.5,-343"/>
<text text-anchor="start" x="462.5" y="-352.2" font-family="Helvetica,sans-Serif" font-weight="bold" font-size="11.00">tww_od.measurement_result</text>
<text text-anchor="start" x="672.5" y="-351.2" font-family="Helvetica,sans-Serif" font-size="11.00">[table]</text>
<polygon fill="none" stroke="black" points="457.5,-321 457.5,-343 714.5,-343 714.5,-321 457.5,-321"/>
<image xlink:href="../../images/foreignKeys.png" width="11px" height="12px" preserveAspectRatio="xMinYMin meet" x="462.5" y="-338"/>
<text text-anchor="start" x="509.5" y="-329.2" font-family="Helvetica,sans-Serif" font-size="11.00">measurement_type</text>
<polygon fill="none" stroke="black" points="457.5,-303 457.5,-321 714.5,-321 714.5,-303 457.5,-303"/>
<text text-anchor="start" x="460.5" y="-309.2" font-family="Helvetica,sans-Serif" font-size="11.00">...</text>
<polygon fill="#ffffff" stroke="transparent" points="457.5,-285 457.5,-303 714.5,-303 714.5,-285 457.5,-285"/>
<polygon fill="none" stroke="black" points="457.5,-285 457.5,-303 714.5,-303 714.5,-285 457.5,-285"/>
<polygon fill="#ffffff" stroke="transparent" points="458.5,-286 458.5,-302 542.5,-302 542.5,-286 458.5,-286"/>
<text text-anchor="start" x="460.5" y="-291.2" font-family="Helvetica,sans-Serif" font-size="11.00">&lt; 1</text>
<polygon fill="#ffffff" stroke="transparent" points="542.5,-286 542.5,-302 642.5,-302 642.5,-286 542.5,-286"/>
<text text-anchor="start" x="574" y="-291.2" font-family="Helvetica,sans-Serif" font-size="11.00">0 rows</text>
<polygon fill="#ffffff" stroke="transparent" points="642.5,-286 642.5,-302 713.5,-302 713.5,-286 642.5,-286"/>
<text text-anchor="start" x="703.5" y="-291.2" font-family="Helvetica,sans-Serif" font-size="11.00"> &#160;</text>
<polygon fill="black" stroke="black" points="542.5,-286 542.5,-302 542.5,-302 542.5,-286 542.5,-286"/>
<polygon fill="black" stroke="black" points="642.5,-286 642.5,-302 642.5,-302 642.5,-286 642.5,-286"/>
</a>
</g>
</g>
<!-- measurement_result_measurement_type -->
<g id="node2" class="node">
<title>measurement_result_measurement_type</title>
<g id="a_node2"><a xlink:href="../../tables/measurement_result_measurement_type.html" xlink:title="measurement_result_measurement_type" target="_top">
<polygon fill="#ffffff" stroke="transparent" points="8,-37 8,-367 408,-367 408,-37 8,-37"/>
<polygon fill="#f5f5f5" stroke="transparent" points="10,-343 10,-365 406,-365 406,-343 10,-343"/>
<polygon fill="none" stroke="black" points="10,-343 10,-365 406,-365 406,-343 10,-343"/>
<text text-anchor="start" x="15" y="-352.2" font-family="Helvetica,sans-Serif" font-weight="bold" font-size="11.00">measurement_result_measurement_type</text>
<text text-anchor="start" x="364" y="-351.2" font-family="Helvetica,sans-Serif" font-size="11.00">[table]</text>
<polygon fill="none" stroke="black" points="10,-321 10,-343 328,-343 328,-321 10,-321"/>
<image xlink:href="../../images/primaryKeys.png" width="11px" height="12px" preserveAspectRatio="xMinYMin meet" x="15" y="-338"/>
<text text-anchor="start" x="30" y="-329.2" font-family="Helvetica,sans-Serif" font-size="11.00">code</text>
<polygon fill="none" stroke="black" points="328,-321 328,-343 406,-343 406,-321 328,-321"/>
<text text-anchor="start" x="331" y="-329.2" font-family="Helvetica,sans-Serif" font-size="11.00">int4[10]</text>
<polygon fill="none" stroke="black" points="10,-299 10,-321 328,-321 328,-299 10,-299"/>
<text text-anchor="start" x="30" y="-307.2" font-family="Helvetica,sans-Serif" font-size="11.00">vsacode</text>
<polygon fill="none" stroke="black" points="328,-299 328,-321 406,-321 406,-299 328,-299"/>
<text text-anchor="start" x="331" y="-307.2" font-family="Helvetica,sans-Serif" font-size="11.00">int4[10]</text>
<polygon fill="none" stroke="black" points="10,-277 10,-299 328,-299 328,-277 10,-277"/>
<text text-anchor="start" x="30" y="-285.2" font-family="Helvetica,sans-Serif" font-size="11.00">value_en</text>
<polygon fill="none" stroke="black" points="328,-277 328,-299 406,-299 406,-277 328,-277"/>
<text text-anchor="start" x="331" y="-285.2" font-family="Helvetica,sans-Serif" font-size="11.00">varchar[100]</text>
<polygon fill="none" stroke="black" points="10,-255 10,-277 328,-277 328,-255 10,-255"/>
<text text-anchor="start" x="30" y="-263.2" font-family="Helvetica,sans-Serif" font-size="11.00">value_de</text>
<polygon fill="none" stroke="black" points="328,-255 328,-277 406,-277 406,-255 328,-255"/>
<text text-anchor="start" x="331" y="-263.2" font-family="Helvetica,sans-Serif" font-size="11.00">varchar[100]</text>
<polygon fill="none" stroke="black" points="10,-233 10,-255 328,-255 328,-233 10,-233"/>
<text text-anchor="start" x="30" y="-241.2" font-family="Helvetica,sans-Serif" font-size="11.00">value_fr</text>
<polygon fill="none" stroke="black" points="328,-233 328,-255 406,-255 406,-233 328,-233"/>
<text text-anchor="start" x="331" y="-241.2" font-family="Helvetica,sans-Serif" font-size="11.00">varchar[100]</text>
<polygon fill="none" stroke="black" points="10,-211 10,-233 328,-233 328,-211 10,-211"/>
<text text-anchor="start" x="30" y="-219.2" font-family="Helvetica,sans-Serif" font-size="11.00">value_it</text>
<polygon fill="none" stroke="black" points="328,-211 328,-233 406,-233 406,-211 328,-211"/>
<text text-anchor="start" x="331" y="-219.2" font-family="Helvetica,sans-Serif" font-size="11.00">varchar[100]</text>
<polygon fill="none" stroke="black" points="10,-189 10,-211 328,-211 328,-189 10,-189"/>
<text text-anchor="start" x="30" y="-197.2" font-family="Helvetica,sans-Serif" font-size="11.00">value_ro</text>
<polygon fill="none" stroke="black" points="328,-189 328,-211 406,-211 406,-189 328,-189"/>
<text text-anchor="start" x="331" y="-197.2" font-family="Helvetica,sans-Serif" font-size="11.00">varchar[100]</text>
<polygon fill="none" stroke="black" points="10,-167 10,-189 328,-189 328,-167 10,-167"/>
<text text-anchor="start" x="30" y="-175.2" font-family="Helvetica,sans-Serif" font-size="11.00">abbr_en</text>
<polygon fill="none" stroke="black" points="328,-167 328,-189 406,-189 406,-167 328,-167"/>
<text text-anchor="start" x="331" y="-175.2" font-family="Helvetica,sans-Serif" font-size="11.00">varchar[3]</text>
<polygon fill="none" stroke="black" points="10,-145 10,-167 328,-167 328,-145 10,-145"/>
<text text-anchor="start" x="30" y="-153.2" font-family="Helvetica,sans-Serif" font-size="11.00">abbr_de</text>
<polygon fill="none" stroke="black" points="328,-145 328,-167 406,-167 406,-145 328,-145"/>
<text text-anchor="start" x="331" y="-153.2" font-family="Helvetica,sans-Serif" font-size="11.00">varchar[3]</text>
<polygon fill="none" stroke="black" points="10,-123 10,-145 328,-145 328,-123 10,-123"/>
<text text-anchor="start" x="30" y="-131.2" font-family="Helvetica,sans-Serif" font-size="11.00">abbr_fr</text>
<polygon fill="none" stroke="black" points="328,-123 328,-145 406,-145 406,-123 328,-123"/>
<text text-anchor="start" x="331" y="-131.2" font-family="Helvetica,sans-Serif" font-size="11.00">varchar[3]</text>
<polygon fill="none" stroke="black" points="10,-101 10,-123 328,-123 328,-101 10,-101"/>
<text text-anchor="start" x="30" y="-109.2" font-family="Helvetica,sans-Serif" font-size="11.00">abbr_it</text>
<polygon fill="none" stroke="black" points="328,-101 328,-123 406,-123 406,-101 328,-101"/>
<text text-anchor="start" x="331" y="-109.2" font-family="Helvetica,sans-Serif" font-size="11.00">varchar[3]</text>
<polygon fill="none" stroke="black" points="10,-79 10,-101 328,-101 328,-79 10,-79"/>
<text text-anchor="start" x="30" y="-87.2" font-family="Helvetica,sans-Serif" font-size="11.00">abbr_ro</text>
<polygon fill="none" stroke="black" points="328,-79 328,-101 406,-101 406,-79 328,-79"/>
<text text-anchor="start" x="331" y="-87.2" font-family="Helvetica,sans-Serif" font-size="11.00">varchar[3]</text>
<polygon fill="none" stroke="black" points="10,-57 10,-79 328,-79 328,-57 10,-57"/>
<text text-anchor="start" x="30" y="-65.2" font-family="Helvetica,sans-Serif" font-size="11.00">active</text>
<polygon fill="none" stroke="black" points="328,-57 328,-79 406,-79 406,-57 328,-57"/>
<text text-anchor="start" x="331" y="-65.2" font-family="Helvetica,sans-Serif" font-size="11.00">bool[1]</text>
<polygon fill="#ffffff" stroke="transparent" points="10,-39 10,-57 406,-57 406,-39 10,-39"/>
<polygon fill="none" stroke="black" points="10,-39 10,-57 406,-57 406,-39 10,-39"/>
<polygon fill="#ffffff" stroke="transparent" points="11,-40 11,-56 147,-56 147,-40 11,-40"/>
<text text-anchor="start" x="13" y="-45.2" font-family="Helvetica,sans-Serif" font-size="11.00">&lt; 0</text>
<polygon fill="#ffffff" stroke="transparent" points="147,-40 147,-56 270,-56 270,-40 147,-40"/>
<text text-anchor="start" x="204.5" y="-45.2" font-family="Helvetica,sans-Serif" font-size="11.00"> &#160;</text>
<polygon fill="#ffffff" stroke="transparent" points="270,-40 270,-56 405,-56 405,-40 270,-40"/>
<text text-anchor="start" x="383" y="-45.2" font-family="Helvetica,sans-Serif" font-size="11.00">1 &gt;</text>
<polygon fill="black" stroke="black" points="147,-40 147,-56 147,-56 147,-40 147,-40"/>
<polygon fill="black" stroke="black" points="270,-40 270,-56 270,-56 270,-40 270,-40"/>
<polygon fill="none" stroke="black" stroke-width="2" points="9,-38 9,-366 407,-366 407,-38 9,-38"/>
</a>
</g>
</g>
<!-- tww_od.measurement_result&#45;&gt;measurement_result_measurement_type -->
<g id="edge1" class="edge">
<title>tww_od.measurement_result:w&#45;&gt;measurement_result_measurement_type:e</title>
<path fill="none" stroke="black" d="M441.84,-332C430.41,-332 423.16,-332 407,-332"/>
<polygon fill="black" stroke="black" points="448.5,-332 456.5,-335.6 452.5,-332 456.5,-332 456.5,-332 456.5,-332 452.5,-332 456.5,-328.4 448.5,-332 448.5,-332"/>
<ellipse fill="none" stroke="black" cx="445.3" cy="-332" rx="3.2" ry="3.2"/>
</g>
</g>
</svg>
