<?xml version="1.0" encoding="UTF-8" standalone="no"?>
<!DOCTYPE svg PUBLIC "-//W3C//DTD SVG 1.1//EN"
 "http://www.w3.org/Graphics/SVG/1.1/DTD/svg11.dtd">
<!-- Generated by graphviz version 2.43.0 (0)
 -->
<!-- Title: oneDegreeRelationshipsDiagram Pages: 1 -->
<svg width="476pt" height="443pt"
 viewBox="0.00 0.00 476.00 443.00" xmlns="http://www.w3.org/2000/svg" xmlns:xlink="http://www.w3.org/1999/xlink">
<g id="graph0" class="graph" transform="scale(1 1) rotate(0) translate(4 439)">
<title>oneDegreeRelationshipsDiagram</title>
<polygon fill="#ffffff" stroke="transparent" points="-4,4 -4,-439 472,-439 472,4 -4,4"/>
<text text-anchor="middle" x="79.5" y="-7.2" font-family="Helvetica,sans-Serif" font-size="11.00">Generated by SchemaSpy</text>
<!-- tww_od.overflow -->
<g id="node1" class="node">
<title>tww_od.overflow</title>
<g id="a_node1"><a xlink:href="../../../tww_od/tables/overflow.html" xlink:title="tww_od.overflow" target="_top">
<polygon fill="#ffffff" stroke="transparent" points="290,-263 290,-431 460,-431 460,-263 290,-263"/>
<polygon fill="#f5f5f5" stroke="transparent" points="290,-409 290,-431 460,-431 460,-409 290,-409"/>
<polygon fill="none" stroke="black" points="290,-409 290,-431 460,-431 460,-409 290,-409"/>
<text text-anchor="start" x="295" y="-418.2" font-family="Helvetica,sans-Serif" font-weight="bold" font-size="11.00">tww_od.overflow</text>
<text text-anchor="start" x="418" y="-417.2" font-family="Helvetica,sans-Serif" font-size="11.00">[table]</text>
<polygon fill="none" stroke="black" points="290,-387 290,-409 460,-409 460,-387 290,-387"/>
<image xlink:href="../../images/foreignKeys.png" width="11px" height="12px" preserveAspectRatio="xMinYMin meet" x="295" y="-404"/>
<text text-anchor="start" x="310" y="-395.2" font-family="Helvetica,sans-Serif" font-size="11.00">actuation</text>
<polygon fill="none" stroke="black" points="290,-365 290,-387 460,-387 460,-365 290,-365"/>
<image xlink:href="../../images/foreignKeys.png" width="11px" height="12px" preserveAspectRatio="xMinYMin meet" x="295" y="-382"/>
<text text-anchor="start" x="310" y="-373.2" font-family="Helvetica,sans-Serif" font-size="11.00">adjustability</text>
<polygon fill="none" stroke="black" points="290,-343 290,-365 460,-365 460,-343 290,-343"/>
<image xlink:href="../../images/foreignKeys.png" width="11px" height="12px" preserveAspectRatio="xMinYMin meet" x="295" y="-360"/>
<text text-anchor="start" x="310" y="-351.2" font-family="Helvetica,sans-Serif" font-size="11.00">control</text>
<polygon fill="none" stroke="black" points="290,-321 290,-343 460,-343 460,-321 290,-321"/>
<image xlink:href="../../images/foreignKeys.png" width="11px" height="12px" preserveAspectRatio="xMinYMin meet" x="295" y="-338"/>
<text text-anchor="start" x="310" y="-329.2" font-family="Helvetica,sans-Serif" font-size="11.00">function</text>
<polygon fill="none" stroke="black" points="290,-299 290,-321 460,-321 460,-299 290,-299"/>
<image xlink:href="../../images/foreignKeys.png" width="11px" height="12px" preserveAspectRatio="xMinYMin meet" x="295" y="-316"/>
<text text-anchor="start" x="310" y="-307.2" font-family="Helvetica,sans-Serif" font-size="11.00">signal_transmission</text>
<polygon fill="none" stroke="black" points="290,-281 290,-299 460,-299 460,-281 290,-281"/>
<text text-anchor="start" x="293" y="-287.2" font-family="Helvetica,sans-Serif" font-size="11.00">...</text>
<polygon fill="#ffffff" stroke="transparent" points="290,-263 290,-281 460,-281 460,-263 290,-263"/>
<polygon fill="none" stroke="black" points="290,-263 290,-281 460,-281 460,-263 290,-263"/>
<polygon fill="#ffffff" stroke="transparent" points="291,-264 291,-280 346,-280 346,-264 291,-264"/>
<text text-anchor="start" x="293" y="-269.2" font-family="Helvetica,sans-Serif" font-size="11.00">&lt; 5</text>
<polygon fill="#ffffff" stroke="transparent" points="346,-264 346,-280 417,-280 417,-264 346,-264"/>
<text text-anchor="start" x="363" y="-269.2" font-family="Helvetica,sans-Serif" font-size="11.00">0 rows</text>
<polygon fill="#ffffff" stroke="transparent" points="417,-264 417,-280 459,-280 459,-264 417,-264"/>
<text text-anchor="start" x="449" y="-269.2" font-family="Helvetica,sans-Serif" font-size="11.00"> &#160;</text>
<polygon fill="black" stroke="black" points="346,-264 346,-280 346,-280 346,-264 346,-264"/>
<polygon fill="black" stroke="black" points="417,-264 417,-280 417,-280 417,-264 417,-264"/>
</a>
</g>
</g>
<!-- overflow_function -->
<g id="node2" class="node">
<title>overflow_function</title>
<g id="a_node2"><a xlink:href="../../tables/overflow_function.html" xlink:title="overflow_function" target="_top">
<polygon fill="#ffffff" stroke="transparent" points="8,-37 8,-367 241,-367 241,-37 8,-37"/>
<polygon fill="#f5f5f5" stroke="transparent" points="10.5,-343 10.5,-365 239.5,-365 239.5,-343 10.5,-343"/>
<polygon fill="none" stroke="black" points="10.5,-343 10.5,-365 239.5,-365 239.5,-343 10.5,-343"/>
<text text-anchor="start" x="15.5" y="-352.2" font-family="Helvetica,sans-Serif" font-weight="bold" font-size="11.00">overflow_function</text>
<text text-anchor="start" x="197.5" y="-351.2" font-family="Helvetica,sans-Serif" font-size="11.00">[table]</text>
<polygon fill="none" stroke="black" points="10.5,-321 10.5,-343 161.5,-343 161.5,-321 10.5,-321"/>
<image xlink:href="../../images/primaryKeys.png" width="11px" height="12px" preserveAspectRatio="xMinYMin meet" x="15.5" y="-338"/>
<text text-anchor="start" x="30.5" y="-329.2" font-family="Helvetica,sans-Serif" font-size="11.00">code</text>
<polygon fill="none" stroke="black" points="161.5,-321 161.5,-343 239.5,-343 239.5,-321 161.5,-321"/>
<text text-anchor="start" x="164.5" y="-329.2" font-family="Helvetica,sans-Serif" font-size="11.00">int4[10]</text>
<polygon fill="none" stroke="black" points="10.5,-299 10.5,-321 161.5,-321 161.5,-299 10.5,-299"/>
<text text-anchor="start" x="30.5" y="-307.2" font-family="Helvetica,sans-Serif" font-size="11.00">vsacode</text>
<polygon fill="none" stroke="black" points="161.5,-299 161.5,-321 239.5,-321 239.5,-299 161.5,-299"/>
<text text-anchor="start" x="164.5" y="-307.2" font-family="Helvetica,sans-Serif" font-size="11.00">int4[10]</text>
<polygon fill="none" stroke="black" points="10.5,-277 10.5,-299 161.5,-299 161.5,-277 10.5,-277"/>
<text text-anchor="start" x="30.5" y="-285.2" font-family="Helvetica,sans-Serif" font-size="11.00">value_en</text>
<polygon fill="none" stroke="black" points="161.5,-277 161.5,-299 239.5,-299 239.5,-277 161.5,-277"/>
<text text-anchor="start" x="164.5" y="-285.2" font-family="Helvetica,sans-Serif" font-size="11.00">varchar[100]</text>
<polygon fill="none" stroke="black" points="10.5,-255 10.5,-277 161.5,-277 161.5,-255 10.5,-255"/>
<text text-anchor="start" x="30.5" y="-263.2" font-family="Helvetica,sans-Serif" font-size="11.00">value_de</text>
<polygon fill="none" stroke="black" points="161.5,-255 161.5,-277 239.5,-277 239.5,-255 161.5,-255"/>
<text text-anchor="start" x="164.5" y="-263.2" font-family="Helvetica,sans-Serif" font-size="11.00">varchar[100]</text>
<polygon fill="none" stroke="black" points="10.5,-233 10.5,-255 161.5,-255 161.5,-233 10.5,-233"/>
<text text-anchor="start" x="30.5" y="-241.2" font-family="Helvetica,sans-Serif" font-size="11.00">value_fr</text>
<polygon fill="none" stroke="black" points="161.5,-233 161.5,-255 239.5,-255 239.5,-233 161.5,-233"/>
<text text-anchor="start" x="164.5" y="-241.2" font-family="Helvetica,sans-Serif" font-size="11.00">varchar[100]</text>
<polygon fill="none" stroke="black" points="10.5,-211 10.5,-233 161.5,-233 161.5,-211 10.5,-211"/>
<text text-anchor="start" x="30.5" y="-219.2" font-family="Helvetica,sans-Serif" font-size="11.00">value_it</text>
<polygon fill="none" stroke="black" points="161.5,-211 161.5,-233 239.5,-233 239.5,-211 161.5,-211"/>
<text text-anchor="start" x="164.5" y="-219.2" font-family="Helvetica,sans-Serif" font-size="11.00">varchar[100]</text>
<polygon fill="none" stroke="black" points="10.5,-189 10.5,-211 161.5,-211 161.5,-189 10.5,-189"/>
<text text-anchor="start" x="30.5" y="-197.2" font-family="Helvetica,sans-Serif" font-size="11.00">value_ro</text>
<polygon fill="none" stroke="black" points="161.5,-189 161.5,-211 239.5,-211 239.5,-189 161.5,-189"/>
<text text-anchor="start" x="164.5" y="-197.2" font-family="Helvetica,sans-Serif" font-size="11.00">varchar[100]</text>
<polygon fill="none" stroke="black" points="10.5,-167 10.5,-189 161.5,-189 161.5,-167 10.5,-167"/>
<text text-anchor="start" x="30.5" y="-175.2" font-family="Helvetica,sans-Serif" font-size="11.00">abbr_en</text>
<polygon fill="none" stroke="black" points="161.5,-167 161.5,-189 239.5,-189 239.5,-167 161.5,-167"/>
<text text-anchor="start" x="164.5" y="-175.2" font-family="Helvetica,sans-Serif" font-size="11.00">varchar[3]</text>
<polygon fill="none" stroke="black" points="10.5,-145 10.5,-167 161.5,-167 161.5,-145 10.5,-145"/>
<text text-anchor="start" x="30.5" y="-153.2" font-family="Helvetica,sans-Serif" font-size="11.00">abbr_de</text>
<polygon fill="none" stroke="black" points="161.5,-145 161.5,-167 239.5,-167 239.5,-145 161.5,-145"/>
<text text-anchor="start" x="164.5" y="-153.2" font-family="Helvetica,sans-Serif" font-size="11.00">varchar[3]</text>
<polygon fill="none" stroke="black" points="10.5,-123 10.5,-145 161.5,-145 161.5,-123 10.5,-123"/>
<text text-anchor="start" x="30.5" y="-131.2" font-family="Helvetica,sans-Serif" font-size="11.00">abbr_fr</text>
<polygon fill="none" stroke="black" points="161.5,-123 161.5,-145 239.5,-145 239.5,-123 161.5,-123"/>
<text text-anchor="start" x="164.5" y="-131.2" font-family="Helvetica,sans-Serif" font-size="11.00">varchar[3]</text>
<polygon fill="none" stroke="black" points="10.5,-101 10.5,-123 161.5,-123 161.5,-101 10.5,-101"/>
<text text-anchor="start" x="30.5" y="-109.2" font-family="Helvetica,sans-Serif" font-size="11.00">abbr_it</text>
<polygon fill="none" stroke="black" points="161.5,-101 161.5,-123 239.5,-123 239.5,-101 161.5,-101"/>
<text text-anchor="start" x="164.5" y="-109.2" font-family="Helvetica,sans-Serif" font-size="11.00">varchar[3]</text>
<polygon fill="none" stroke="black" points="10.5,-79 10.5,-101 161.5,-101 161.5,-79 10.5,-79"/>
<text text-anchor="start" x="30.5" y="-87.2" font-family="Helvetica,sans-Serif" font-size="11.00">abbr_ro</text>
<polygon fill="none" stroke="black" points="161.5,-79 161.5,-101 239.5,-101 239.5,-79 161.5,-79"/>
<text text-anchor="start" x="164.5" y="-87.2" font-family="Helvetica,sans-Serif" font-size="11.00">varchar[3]</text>
<polygon fill="none" stroke="black" points="10.5,-57 10.5,-79 161.5,-79 161.5,-57 10.5,-57"/>
<text text-anchor="start" x="30.5" y="-65.2" font-family="Helvetica,sans-Serif" font-size="11.00">active</text>
<polygon fill="none" stroke="black" points="161.5,-57 161.5,-79 239.5,-79 239.5,-57 161.5,-57"/>
<text text-anchor="start" x="164.5" y="-65.2" font-family="Helvetica,sans-Serif" font-size="11.00">bool[1]</text>
<polygon fill="#ffffff" stroke="transparent" points="10.5,-39 10.5,-57 239.5,-57 239.5,-39 10.5,-39"/>
<polygon fill="none" stroke="black" points="10.5,-39 10.5,-57 239.5,-57 239.5,-39 10.5,-39"/>
<polygon fill="#ffffff" stroke="transparent" points="11.5,-40 11.5,-56 91.5,-56 91.5,-40 11.5,-40"/>
<text text-anchor="start" x="13.5" y="-45.2" font-family="Helvetica,sans-Serif" font-size="11.00">&lt; 0</text>
<polygon fill="#ffffff" stroke="transparent" points="91.5,-40 91.5,-56 159.5,-56 159.5,-40 91.5,-40"/>
<text text-anchor="start" x="121.5" y="-45.2" font-family="Helvetica,sans-Serif" font-size="11.00"> &#160;</text>
<polygon fill="#ffffff" stroke="transparent" points="159.5,-40 159.5,-56 238.5,-56 238.5,-40 159.5,-40"/>
<text text-anchor="start" x="216.5" y="-45.2" font-family="Helvetica,sans-Serif" font-size="11.00">1 &gt;</text>
<polygon fill="black" stroke="black" points="91.5,-40 91.5,-56 91.5,-56 91.5,-40 91.5,-40"/>
<polygon fill="black" stroke="black" points="159.5,-40 159.5,-56 159.5,-56 159.5,-40 159.5,-40"/>
<polygon fill="none" stroke="black" stroke-width="2" points="9,-38 9,-366 240,-366 240,-38 9,-38"/>
</a>
</g>
</g>
<!-- tww_od.overflow&#45;&gt;overflow_function -->
<g id="edge1" class="edge">
<title>tww_od.overflow:w&#45;&gt;overflow_function:e</title>
<path fill="none" stroke="black" d="M274.28,-332C263.29,-332 256.16,-332 240.5,-332"/>
<polygon fill="black" stroke="black" points="281,-332 289,-335.6 285,-332 289,-332 289,-332 289,-332 285,-332 289,-328.4 281,-332 281,-332"/>
<ellipse fill="none" stroke="black" cx="277.8" cy="-332" rx="3.2" ry="3.2"/>
</g>
</g>
</svg>
