<?xml version="1.0" encoding="UTF-8" standalone="no"?>
<!DOCTYPE svg PUBLIC "-//W3C//DTD SVG 1.1//EN"
 "http://www.w3.org/Graphics/SVG/1.1/DTD/svg11.dtd">
<!-- Generated by graphviz version 2.47.1 (20210515.0534)
 -->
<!-- Title: oneDegreeRelationshipsDiagram Pages: 1 -->
<svg width="550pt" height="379pt"
 viewBox="0.00 0.00 550.00 379.00" xmlns="http://www.w3.org/2000/svg" xmlns:xlink="http://www.w3.org/1999/xlink">
<g id="graph0" class="graph" transform="scale(1 1) rotate(0) translate(4 375)">
<title>oneDegreeRelationshipsDiagram</title>
<polygon fill="#ffffff" stroke="transparent" points="-4,4 -4,-375 546,-375 546,4 -4,4"/>
<text text-anchor="middle" x="73.5" y="-7.2" font-family="Helvetica,sans-Serif" font-size="11.00">Generated by SchemaSpy</text>
<!-- tww_od.overflow_char -->
<g id="node1" class="node">
<title>tww_od.overflow_char</title>
<g id="a_node1"><a xlink:href="../../../tww_od/tables/overflow_char.html" xlink:title="tww_od.overflow_char" target="_top">
<polygon fill="#ffffff" stroke="transparent" points="357,-285 357,-365 534,-365 534,-285 357,-285"/>
<polygon fill="#f5f5f5" stroke="transparent" points="357.5,-343 357.5,-365 534.5,-365 534.5,-343 357.5,-343"/>
<polygon fill="none" stroke="black" points="357.5,-343 357.5,-365 534.5,-365 534.5,-343 357.5,-343"/>
<text text-anchor="start" x="362.5" y="-352.2" font-family="Helvetica,sans-Serif" font-weight="bold" font-size="11.00">tww_od.overflow_char</text>
<text text-anchor="start" x="495.5" y="-351.2" font-family="Helvetica,sans-Serif" font-size="11.00">[table]</text>
<polygon fill="none" stroke="black" points="357.5,-321 357.5,-343 534.5,-343 534.5,-321 357.5,-321"/>
<image xlink:href="../../images/foreignKeys.png" width="11px" height="12px" preserveAspectRatio="xMinYMin meet" x="362.5" y="-338"/>
<text text-anchor="start" x="397.5" y="-329.2" font-family="Helvetica,sans-Serif" font-size="11.00">kind_overflow_char</text>
<polygon fill="none" stroke="black" points="357.5,-303 357.5,-321 534.5,-321 534.5,-303 357.5,-303"/>
<text text-anchor="start" x="360.5" y="-309.2" font-family="Helvetica,sans-Serif" font-size="11.00">...</text>
<polygon fill="#ffffff" stroke="transparent" points="357.5,-285 357.5,-303 430.5,-303 430.5,-285 357.5,-285"/>
<polygon fill="none" stroke="black" points="357.5,-285 357.5,-303 430.5,-303 430.5,-285 357.5,-285"/>
<text text-anchor="start" x="360.5" y="-291.2" font-family="Helvetica,sans-Serif" font-size="11.00">&lt; 1</text>
<polygon fill="#ffffff" stroke="transparent" points="430.5,-285 430.5,-303 495.5,-303 495.5,-285 430.5,-285"/>
<polygon fill="none" stroke="black" points="430.5,-285 430.5,-303 495.5,-303 495.5,-285 430.5,-285"/>
<text text-anchor="start" x="458.5" y="-291.2" font-family="Helvetica,sans-Serif" font-size="11.00">0 rows</text>
<polygon fill="#ffffff" stroke="transparent" points="495.5,-285 495.5,-303 534.5,-303 534.5,-285 495.5,-285"/>
<polygon fill="none" stroke="black" points="495.5,-285 495.5,-303 534.5,-303 534.5,-285 495.5,-285"/>
<text text-anchor="start" x="524.5" y="-291.2" font-family="Helvetica,sans-Serif" font-size="11.00"> &#160;</text>
</a>
</g>
</g>
<!-- overflow_char_kind_overflow_char -->
<g id="node2" class="node">
<title>overflow_char_kind_overflow_char</title>
<g id="a_node2"><a xlink:href="../../tables/overflow_char_kind_overflow_char.html" xlink:title="overflow_char_kind_overflow_char" target="_top">
<polygon fill="#ffffff" stroke="transparent" points="8,-37 8,-367 308,-367 308,-37 8,-37"/>
<polygon fill="#f5f5f5" stroke="transparent" points="10,-343 10,-365 306,-365 306,-343 10,-343"/>
<polygon fill="none" stroke="black" points="10,-343 10,-365 306,-365 306,-343 10,-343"/>
<text text-anchor="start" x="15" y="-352.2" font-family="Helvetica,sans-Serif" font-weight="bold" font-size="11.00">overflow_char_kind_overflow_char</text>
<text text-anchor="start" x="267" y="-351.2" font-family="Helvetica,sans-Serif" font-size="11.00">[table]</text>
<polygon fill="none" stroke="black" points="10,-321 10,-343 236,-343 236,-321 10,-321"/>
<image xlink:href="../../images/primaryKeys.png" width="11px" height="12px" preserveAspectRatio="xMinYMin meet" x="15" y="-338"/>
<text text-anchor="start" x="30" y="-329.2" font-family="Helvetica,sans-Serif" font-size="11.00">code</text>
<polygon fill="none" stroke="black" points="236,-321 236,-343 306,-343 306,-321 236,-321"/>
<text text-anchor="start" x="239" y="-329.2" font-family="Helvetica,sans-Serif" font-size="11.00">int4[10]</text>
<polygon fill="none" stroke="black" points="10,-299 10,-321 236,-321 236,-299 10,-299"/>
<text text-anchor="start" x="30" y="-307.2" font-family="Helvetica,sans-Serif" font-size="11.00">vsacode</text>
<polygon fill="none" stroke="black" points="236,-299 236,-321 306,-321 306,-299 236,-299"/>
<text text-anchor="start" x="239" y="-307.2" font-family="Helvetica,sans-Serif" font-size="11.00">int4[10]</text>
<polygon fill="none" stroke="black" points="10,-277 10,-299 236,-299 236,-277 10,-277"/>
<text text-anchor="start" x="30" y="-285.2" font-family="Helvetica,sans-Serif" font-size="11.00">value_en</text>
<polygon fill="none" stroke="black" points="236,-277 236,-299 306,-299 306,-277 236,-277"/>
<text text-anchor="start" x="239" y="-285.2" font-family="Helvetica,sans-Serif" font-size="11.00">varchar[100]</text>
<polygon fill="none" stroke="black" points="10,-255 10,-277 236,-277 236,-255 10,-255"/>
<text text-anchor="start" x="30" y="-263.2" font-family="Helvetica,sans-Serif" font-size="11.00">value_de</text>
<polygon fill="none" stroke="black" points="236,-255 236,-277 306,-277 306,-255 236,-255"/>
<text text-anchor="start" x="239" y="-263.2" font-family="Helvetica,sans-Serif" font-size="11.00">varchar[100]</text>
<polygon fill="none" stroke="black" points="10,-233 10,-255 236,-255 236,-233 10,-233"/>
<text text-anchor="start" x="30" y="-241.2" font-family="Helvetica,sans-Serif" font-size="11.00">value_fr</text>
<polygon fill="none" stroke="black" points="236,-233 236,-255 306,-255 306,-233 236,-233"/>
<text text-anchor="start" x="239" y="-241.2" font-family="Helvetica,sans-Serif" font-size="11.00">varchar[100]</text>
<polygon fill="none" stroke="black" points="10,-211 10,-233 236,-233 236,-211 10,-211"/>
<text text-anchor="start" x="30" y="-219.2" font-family="Helvetica,sans-Serif" font-size="11.00">value_it</text>
<polygon fill="none" stroke="black" points="236,-211 236,-233 306,-233 306,-211 236,-211"/>
<text text-anchor="start" x="239" y="-219.2" font-family="Helvetica,sans-Serif" font-size="11.00">varchar[100]</text>
<polygon fill="none" stroke="black" points="10,-189 10,-211 236,-211 236,-189 10,-189"/>
<text text-anchor="start" x="30" y="-197.2" font-family="Helvetica,sans-Serif" font-size="11.00">value_ro</text>
<polygon fill="none" stroke="black" points="236,-189 236,-211 306,-211 306,-189 236,-189"/>
<text text-anchor="start" x="239" y="-197.2" font-family="Helvetica,sans-Serif" font-size="11.00">varchar[100]</text>
<polygon fill="none" stroke="black" points="10,-167 10,-189 236,-189 236,-167 10,-167"/>
<text text-anchor="start" x="30" y="-175.2" font-family="Helvetica,sans-Serif" font-size="11.00">abbr_en</text>
<polygon fill="none" stroke="black" points="236,-167 236,-189 306,-189 306,-167 236,-167"/>
<text text-anchor="start" x="239" y="-175.2" font-family="Helvetica,sans-Serif" font-size="11.00">varchar[3]</text>
<polygon fill="none" stroke="black" points="10,-145 10,-167 236,-167 236,-145 10,-145"/>
<text text-anchor="start" x="30" y="-153.2" font-family="Helvetica,sans-Serif" font-size="11.00">abbr_de</text>
<polygon fill="none" stroke="black" points="236,-145 236,-167 306,-167 306,-145 236,-145"/>
<text text-anchor="start" x="239" y="-153.2" font-family="Helvetica,sans-Serif" font-size="11.00">varchar[3]</text>
<polygon fill="none" stroke="black" points="10,-123 10,-145 236,-145 236,-123 10,-123"/>
<text text-anchor="start" x="30" y="-131.2" font-family="Helvetica,sans-Serif" font-size="11.00">abbr_fr</text>
<polygon fill="none" stroke="black" points="236,-123 236,-145 306,-145 306,-123 236,-123"/>
<text text-anchor="start" x="239" y="-131.2" font-family="Helvetica,sans-Serif" font-size="11.00">varchar[3]</text>
<polygon fill="none" stroke="black" points="10,-101 10,-123 236,-123 236,-101 10,-101"/>
<text text-anchor="start" x="30" y="-109.2" font-family="Helvetica,sans-Serif" font-size="11.00">abbr_it</text>
<polygon fill="none" stroke="black" points="236,-101 236,-123 306,-123 306,-101 236,-101"/>
<text text-anchor="start" x="239" y="-109.2" font-family="Helvetica,sans-Serif" font-size="11.00">varchar[3]</text>
<polygon fill="none" stroke="black" points="10,-79 10,-101 236,-101 236,-79 10,-79"/>
<text text-anchor="start" x="30" y="-87.2" font-family="Helvetica,sans-Serif" font-size="11.00">abbr_ro</text>
<polygon fill="none" stroke="black" points="236,-79 236,-101 306,-101 306,-79 236,-79"/>
<text text-anchor="start" x="239" y="-87.2" font-family="Helvetica,sans-Serif" font-size="11.00">varchar[3]</text>
<polygon fill="none" stroke="black" points="10,-57 10,-79 236,-79 236,-57 10,-57"/>
<text text-anchor="start" x="30" y="-65.2" font-family="Helvetica,sans-Serif" font-size="11.00">active</text>
<polygon fill="none" stroke="black" points="236,-57 236,-79 306,-79 306,-57 236,-57"/>
<text text-anchor="start" x="239" y="-65.2" font-family="Helvetica,sans-Serif" font-size="11.00">bool[1]</text>
<polygon fill="#ffffff" stroke="transparent" points="10,-39 10,-57 127,-57 127,-39 10,-39"/>
<polygon fill="none" stroke="black" points="10,-39 10,-57 127,-57 127,-39 10,-39"/>
<text text-anchor="start" x="13" y="-45.2" font-family="Helvetica,sans-Serif" font-size="11.00">&lt; 0</text>
<polygon fill="#ffffff" stroke="transparent" points="127,-39 127,-57 236,-57 236,-39 127,-39"/>
<polygon fill="none" stroke="black" points="127,-39 127,-57 236,-57 236,-39 127,-39"/>
<text text-anchor="start" x="226" y="-45.2" font-family="Helvetica,sans-Serif" font-size="11.00"> &#160;</text>
<polygon fill="#ffffff" stroke="transparent" points="236,-39 236,-57 306,-57 306,-39 236,-39"/>
<polygon fill="none" stroke="black" points="236,-39 236,-57 306,-57 306,-39 236,-39"/>
<text text-anchor="start" x="287" y="-45.2" font-family="Helvetica,sans-Serif" font-size="11.00">1 &gt;</text>
<polygon fill="none" stroke="black" stroke-width="2" points="9,-38 9,-366 307,-366 307,-38 9,-38"/>
</a>
</g>
</g>
<!-- tww_od.overflow_char&#45;&gt;overflow_char_kind_overflow_char -->
<g id="edge1" class="edge">
<title>tww_od.overflow_char:w&#45;&gt;overflow_char_kind_overflow_char:e</title>
<path fill="none" stroke="black" d="M341.84,-332C330.41,-332 323.16,-332 307,-332"/>
<polygon fill="black" stroke="black" points="348.5,-332 356.5,-335.6 352.5,-332 356.5,-332 356.5,-332 356.5,-332 352.5,-332 356.5,-328.4 348.5,-332 348.5,-332"/>
<ellipse fill="none" stroke="black" cx="345.3" cy="-332" rx="3.2" ry="3.2"/>
</g>
</g>
</svg>
