<?xml version="1.0" encoding="UTF-8" standalone="no"?>
<!DOCTYPE svg PUBLIC "-//W3C//DTD SVG 1.1//EN"
 "http://www.w3.org/Graphics/SVG/1.1/DTD/svg11.dtd">
<!-- Generated by graphviz version 2.43.0 (0)
 -->
<!-- Title: oneDegreeRelationshipsDiagram Pages: 1 -->
<svg width="550pt" height="379pt"
 viewBox="0.00 0.00 550.00 379.00" xmlns="http://www.w3.org/2000/svg" xmlns:xlink="http://www.w3.org/1999/xlink">
<g id="graph0" class="graph" transform="scale(1 1) rotate(0) translate(4 375)">
<title>oneDegreeRelationshipsDiagram</title>
<polygon fill="#ffffff" stroke="transparent" points="-4,4 -4,-375 546,-375 546,4 -4,4"/>
<text text-anchor="middle" x="79.5" y="-7.2" font-family="Helvetica,sans-Serif" font-size="11.00">Generated by SchemaSpy</text>
<!-- tww_od.pump -->
<g id="node1" class="node">
<title>tww_od.pump</title>
<g id="a_node1"><a xlink:href="../../../tww_od/tables/pump.html" xlink:title="tww_od.pump" target="_top">
<polygon fill="#ffffff" stroke="transparent" points="339,-241 339,-365 534,-365 534,-241 339,-241"/>
<polygon fill="#f5f5f5" stroke="transparent" points="339.5,-343 339.5,-365 534.5,-365 534.5,-343 339.5,-343"/>
<polygon fill="none" stroke="black" points="339.5,-343 339.5,-365 534.5,-365 534.5,-343 339.5,-343"/>
<text text-anchor="start" x="344.5" y="-352.2" font-family="Helvetica,sans-Serif" font-weight="bold" font-size="11.00">tww_od.pump</text>
<text text-anchor="start" x="492.5" y="-351.2" font-family="Helvetica,sans-Serif" font-size="11.00">[table]</text>
<polygon fill="none" stroke="black" points="339.5,-321 339.5,-343 534.5,-343 534.5,-321 339.5,-321"/>
<image xlink:href="../../images/foreignKeys.png" width="11px" height="12px" preserveAspectRatio="xMinYMin meet" x="344.5" y="-338"/>
<text text-anchor="start" x="359.5" y="-329.2" font-family="Helvetica,sans-Serif" font-size="11.00">construction_type</text>
<polygon fill="none" stroke="black" points="339.5,-299 339.5,-321 534.5,-321 534.5,-299 339.5,-299"/>
<image xlink:href="../../images/foreignKeys.png" width="11px" height="12px" preserveAspectRatio="xMinYMin meet" x="344.5" y="-316"/>
<text text-anchor="start" x="359.5" y="-307.2" font-family="Helvetica,sans-Serif" font-size="11.00">placement_of_actuation</text>
<polygon fill="none" stroke="black" points="339.5,-277 339.5,-299 534.5,-299 534.5,-277 339.5,-277"/>
<image xlink:href="../../images/foreignKeys.png" width="11px" height="12px" preserveAspectRatio="xMinYMin meet" x="344.5" y="-294"/>
<text text-anchor="start" x="359.5" y="-285.2" font-family="Helvetica,sans-Serif" font-size="11.00">placement_of_pump</text>
<polygon fill="none" stroke="black" points="339.5,-259 339.5,-277 534.5,-277 534.5,-259 339.5,-259"/>
<text text-anchor="start" x="342.5" y="-265.2" font-family="Helvetica,sans-Serif" font-size="11.00">...</text>
<polygon fill="#ffffff" stroke="transparent" points="339.5,-241 339.5,-259 534.5,-259 534.5,-241 339.5,-241"/>
<polygon fill="none" stroke="black" points="339.5,-241 339.5,-259 534.5,-259 534.5,-241 339.5,-241"/>
<polygon fill="#ffffff" stroke="transparent" points="340.5,-242 340.5,-258 403.5,-258 403.5,-242 340.5,-242"/>
<text text-anchor="start" x="342.5" y="-247.2" font-family="Helvetica,sans-Serif" font-size="11.00">&lt; 3</text>
<polygon fill="#ffffff" stroke="transparent" points="403.5,-242 403.5,-258 483.5,-258 483.5,-242 403.5,-242"/>
<text text-anchor="start" x="425" y="-247.2" font-family="Helvetica,sans-Serif" font-size="11.00">0 rows</text>
<polygon fill="#ffffff" stroke="transparent" points="483.5,-242 483.5,-258 533.5,-258 533.5,-242 483.5,-242"/>
<text text-anchor="start" x="523.5" y="-247.2" font-family="Helvetica,sans-Serif" font-size="11.00"> &#160;</text>
<polygon fill="black" stroke="black" points="403.5,-242 403.5,-258 403.5,-258 403.5,-242 403.5,-242"/>
<polygon fill="black" stroke="black" points="483.5,-242 483.5,-258 483.5,-258 483.5,-242 483.5,-242"/>
</a>
</g>
</g>
<!-- pump_construction_type -->
<g id="node2" class="node">
<title>pump_construction_type</title>
<g id="a_node2"><a xlink:href="../../tables/pump_construction_type.html" xlink:title="pump_construction_type" target="_top">
<polygon fill="#ffffff" stroke="transparent" points="8,-37 8,-367 290,-367 290,-37 8,-37"/>
<polygon fill="#f5f5f5" stroke="transparent" points="10,-343 10,-365 288,-365 288,-343 10,-343"/>
<polygon fill="none" stroke="black" points="10,-343 10,-365 288,-365 288,-343 10,-343"/>
<text text-anchor="start" x="15" y="-352.2" font-family="Helvetica,sans-Serif" font-weight="bold" font-size="11.00">pump_construction_type</text>
<text text-anchor="start" x="246" y="-351.2" font-family="Helvetica,sans-Serif" font-size="11.00">[table]</text>
<polygon fill="none" stroke="black" points="10,-321 10,-343 210,-343 210,-321 10,-321"/>
<image xlink:href="../../images/primaryKeys.png" width="11px" height="12px" preserveAspectRatio="xMinYMin meet" x="15" y="-338"/>
<text text-anchor="start" x="30" y="-329.2" font-family="Helvetica,sans-Serif" font-size="11.00">code</text>
<polygon fill="none" stroke="black" points="210,-321 210,-343 288,-343 288,-321 210,-321"/>
<text text-anchor="start" x="213" y="-329.2" font-family="Helvetica,sans-Serif" font-size="11.00">int4[10]</text>
<polygon fill="none" stroke="black" points="10,-299 10,-321 210,-321 210,-299 10,-299"/>
<text text-anchor="start" x="30" y="-307.2" font-family="Helvetica,sans-Serif" font-size="11.00">vsacode</text>
<polygon fill="none" stroke="black" points="210,-299 210,-321 288,-321 288,-299 210,-299"/>
<text text-anchor="start" x="213" y="-307.2" font-family="Helvetica,sans-Serif" font-size="11.00">int4[10]</text>
<polygon fill="none" stroke="black" points="10,-277 10,-299 210,-299 210,-277 10,-277"/>
<text text-anchor="start" x="30" y="-285.2" font-family="Helvetica,sans-Serif" font-size="11.00">value_en</text>
<polygon fill="none" stroke="black" points="210,-277 210,-299 288,-299 288,-277 210,-277"/>
<text text-anchor="start" x="213" y="-285.2" font-family="Helvetica,sans-Serif" font-size="11.00">varchar[100]</text>
<polygon fill="none" stroke="black" points="10,-255 10,-277 210,-277 210,-255 10,-255"/>
<text text-anchor="start" x="30" y="-263.2" font-family="Helvetica,sans-Serif" font-size="11.00">value_de</text>
<polygon fill="none" stroke="black" points="210,-255 210,-277 288,-277 288,-255 210,-255"/>
<text text-anchor="start" x="213" y="-263.2" font-family="Helvetica,sans-Serif" font-size="11.00">varchar[100]</text>
<polygon fill="none" stroke="black" points="10,-233 10,-255 210,-255 210,-233 10,-233"/>
<text text-anchor="start" x="30" y="-241.2" font-family="Helvetica,sans-Serif" font-size="11.00">value_fr</text>
<polygon fill="none" stroke="black" points="210,-233 210,-255 288,-255 288,-233 210,-233"/>
<text text-anchor="start" x="213" y="-241.2" font-family="Helvetica,sans-Serif" font-size="11.00">varchar[100]</text>
<polygon fill="none" stroke="black" points="10,-211 10,-233 210,-233 210,-211 10,-211"/>
<text text-anchor="start" x="30" y="-219.2" font-family="Helvetica,sans-Serif" font-size="11.00">value_it</text>
<polygon fill="none" stroke="black" points="210,-211 210,-233 288,-233 288,-211 210,-211"/>
<text text-anchor="start" x="213" y="-219.2" font-family="Helvetica,sans-Serif" font-size="11.00">varchar[100]</text>
<polygon fill="none" stroke="black" points="10,-189 10,-211 210,-211 210,-189 10,-189"/>
<text text-anchor="start" x="30" y="-197.2" font-family="Helvetica,sans-Serif" font-size="11.00">value_ro</text>
<polygon fill="none" stroke="black" points="210,-189 210,-211 288,-211 288,-189 210,-189"/>
<text text-anchor="start" x="213" y="-197.2" font-family="Helvetica,sans-Serif" font-size="11.00">varchar[100]</text>
<polygon fill="none" stroke="black" points="10,-167 10,-189 210,-189 210,-167 10,-167"/>
<text text-anchor="start" x="30" y="-175.2" font-family="Helvetica,sans-Serif" font-size="11.00">abbr_en</text>
<polygon fill="none" stroke="black" points="210,-167 210,-189 288,-189 288,-167 210,-167"/>
<text text-anchor="start" x="213" y="-175.2" font-family="Helvetica,sans-Serif" font-size="11.00">varchar[3]</text>
<polygon fill="none" stroke="black" points="10,-145 10,-167 210,-167 210,-145 10,-145"/>
<text text-anchor="start" x="30" y="-153.2" font-family="Helvetica,sans-Serif" font-size="11.00">abbr_de</text>
<polygon fill="none" stroke="black" points="210,-145 210,-167 288,-167 288,-145 210,-145"/>
<text text-anchor="start" x="213" y="-153.2" font-family="Helvetica,sans-Serif" font-size="11.00">varchar[3]</text>
<polygon fill="none" stroke="black" points="10,-123 10,-145 210,-145 210,-123 10,-123"/>
<text text-anchor="start" x="30" y="-131.2" font-family="Helvetica,sans-Serif" font-size="11.00">abbr_fr</text>
<polygon fill="none" stroke="black" points="210,-123 210,-145 288,-145 288,-123 210,-123"/>
<text text-anchor="start" x="213" y="-131.2" font-family="Helvetica,sans-Serif" font-size="11.00">varchar[3]</text>
<polygon fill="none" stroke="black" points="10,-101 10,-123 210,-123 210,-101 10,-101"/>
<text text-anchor="start" x="30" y="-109.2" font-family="Helvetica,sans-Serif" font-size="11.00">abbr_it</text>
<polygon fill="none" stroke="black" points="210,-101 210,-123 288,-123 288,-101 210,-101"/>
<text text-anchor="start" x="213" y="-109.2" font-family="Helvetica,sans-Serif" font-size="11.00">varchar[3]</text>
<polygon fill="none" stroke="black" points="10,-79 10,-101 210,-101 210,-79 10,-79"/>
<text text-anchor="start" x="30" y="-87.2" font-family="Helvetica,sans-Serif" font-size="11.00">abbr_ro</text>
<polygon fill="none" stroke="black" points="210,-79 210,-101 288,-101 288,-79 210,-79"/>
<text text-anchor="start" x="213" y="-87.2" font-family="Helvetica,sans-Serif" font-size="11.00">varchar[3]</text>
<polygon fill="none" stroke="black" points="10,-57 10,-79 210,-79 210,-57 10,-57"/>
<text text-anchor="start" x="30" y="-65.2" font-family="Helvetica,sans-Serif" font-size="11.00">active</text>
<polygon fill="none" stroke="black" points="210,-57 210,-79 288,-79 288,-57 210,-57"/>
<text text-anchor="start" x="213" y="-65.2" font-family="Helvetica,sans-Serif" font-size="11.00">bool[1]</text>
<polygon fill="#ffffff" stroke="transparent" points="10,-39 10,-57 288,-57 288,-39 10,-39"/>
<polygon fill="none" stroke="black" points="10,-39 10,-57 288,-57 288,-39 10,-39"/>
<polygon fill="#ffffff" stroke="transparent" points="11,-40 11,-56 107,-56 107,-40 11,-40"/>
<text text-anchor="start" x="13" y="-45.2" font-family="Helvetica,sans-Serif" font-size="11.00">&lt; 0</text>
<polygon fill="#ffffff" stroke="transparent" points="107,-40 107,-56 191,-56 191,-40 107,-40"/>
<text text-anchor="start" x="145" y="-45.2" font-family="Helvetica,sans-Serif" font-size="11.00"> &#160;</text>
<polygon fill="#ffffff" stroke="transparent" points="191,-40 191,-56 287,-56 287,-40 191,-40"/>
<text text-anchor="start" x="265" y="-45.2" font-family="Helvetica,sans-Serif" font-size="11.00">1 &gt;</text>
<polygon fill="black" stroke="black" points="107,-40 107,-56 107,-56 107,-40 107,-40"/>
<polygon fill="black" stroke="black" points="191,-40 191,-56 191,-56 191,-40 191,-40"/>
<polygon fill="none" stroke="black" stroke-width="2" points="9,-38 9,-366 289,-366 289,-38 9,-38"/>
</a>
</g>
</g>
<!-- tww_od.pump&#45;&gt;pump_construction_type -->
<g id="edge1" class="edge">
<title>tww_od.pump:w&#45;&gt;pump_construction_type:e</title>
<path fill="none" stroke="black" d="M323.84,-332C312.41,-332 305.16,-332 289,-332"/>
<polygon fill="black" stroke="black" points="330.5,-332 338.5,-335.6 334.5,-332 338.5,-332 338.5,-332 338.5,-332 334.5,-332 338.5,-328.4 330.5,-332 330.5,-332"/>
<ellipse fill="none" stroke="black" cx="327.3" cy="-332" rx="3.2" ry="3.2"/>
</g>
</g>
</svg>
