<?xml version="1.0" encoding="UTF-8" standalone="no"?>
<!DOCTYPE svg PUBLIC "-//W3C//DTD SVG 1.1//EN"
 "http://www.w3.org/Graphics/SVG/1.1/DTD/svg11.dtd">
<!-- Generated by graphviz version 2.43.0 (0)
 -->
<!-- Title: oneDegreeRelationshipsDiagram Pages: 1 -->
<svg width="721pt" height="599pt"
 viewBox="0.00 0.00 721.00 599.00" xmlns="http://www.w3.org/2000/svg" xmlns:xlink="http://www.w3.org/1999/xlink">
<g id="graph0" class="graph" transform="scale(1 1) rotate(0) translate(4 595)">
<title>oneDegreeRelationshipsDiagram</title>
<polygon fill="#ffffff" stroke="transparent" points="-4,4 -4,-595 717,-595 717,4 -4,4"/>
<text text-anchor="middle" x="79.5" y="-7.2" font-family="Helvetica,sans-Serif" font-size="11.00">Generated by SchemaSpy</text>
<!-- tww_od.reach -->
<g id="node1" class="node">
<title>tww_od.reach</title>
<g id="a_node1"><a xlink:href="../../../tww_od/tables/reach.html" xlink:title="tww_od.reach" target="_top">
<polygon fill="#ffffff" stroke="transparent" points="414,-351 414,-585 705,-585 705,-351 414,-351"/>
<polygon fill="#f5f5f5" stroke="transparent" points="414.5,-563 414.5,-585 705.5,-585 705.5,-563 414.5,-563"/>
<polygon fill="none" stroke="black" points="414.5,-563 414.5,-585 705.5,-585 705.5,-563 414.5,-563"/>
<text text-anchor="start" x="419.5" y="-572.2" font-family="Helvetica,sans-Serif" font-weight="bold" font-size="11.00">tww_od.reach</text>
<text text-anchor="start" x="663.5" y="-571.2" font-family="Helvetica,sans-Serif" font-size="11.00">[table]</text>
<polygon fill="none" stroke="black" points="414.5,-541 414.5,-563 705.5,-563 705.5,-541 414.5,-541"/>
<image xlink:href="../../images/foreignKeys.png" width="11px" height="12px" preserveAspectRatio="xMinYMin meet" x="419.5" y="-558"/>
<text text-anchor="start" x="434.5" y="-549.2" font-family="Helvetica,sans-Serif" font-size="11.00">elevation_determination</text>
<polygon fill="none" stroke="black" points="414.5,-519 414.5,-541 705.5,-541 705.5,-519 414.5,-519"/>
<image xlink:href="../../images/foreignKeys.png" width="11px" height="12px" preserveAspectRatio="xMinYMin meet" x="419.5" y="-536"/>
<text text-anchor="start" x="434.5" y="-527.2" font-family="Helvetica,sans-Serif" font-size="11.00">horizontal_positioning</text>
<polygon fill="none" stroke="black" points="414.5,-497 414.5,-519 705.5,-519 705.5,-497 414.5,-497"/>
<image xlink:href="../../images/foreignKeys.png" width="11px" height="12px" preserveAspectRatio="xMinYMin meet" x="419.5" y="-514"/>
<text text-anchor="start" x="434.5" y="-505.2" font-family="Helvetica,sans-Serif" font-size="11.00">inside_coating</text>
<polygon fill="none" stroke="black" points="414.5,-475 414.5,-497 705.5,-497 705.5,-475 414.5,-475"/>
<image xlink:href="../../images/foreignKeys.png" width="11px" height="12px" preserveAspectRatio="xMinYMin meet" x="419.5" y="-492"/>
<text text-anchor="start" x="434.5" y="-483.2" font-family="Helvetica,sans-Serif" font-size="11.00">leak_protection</text>
<polygon fill="none" stroke="black" points="414.5,-453 414.5,-475 705.5,-475 705.5,-453 414.5,-453"/>
<image xlink:href="../../images/foreignKeys.png" width="11px" height="12px" preserveAspectRatio="xMinYMin meet" x="419.5" y="-470"/>
<text text-anchor="start" x="434.5" y="-461.2" font-family="Helvetica,sans-Serif" font-size="11.00">material</text>
<polygon fill="none" stroke="black" points="414.5,-431 414.5,-453 705.5,-453 705.5,-431 414.5,-431"/>
<image xlink:href="../../images/foreignKeys.png" width="11px" height="12px" preserveAspectRatio="xMinYMin meet" x="419.5" y="-448"/>
<text text-anchor="start" x="434.5" y="-439.2" font-family="Helvetica,sans-Serif" font-size="11.00">reliner_material</text>
<polygon fill="none" stroke="black" points="414.5,-409 414.5,-431 705.5,-431 705.5,-409 414.5,-409"/>
<image xlink:href="../../images/foreignKeys.png" width="11px" height="12px" preserveAspectRatio="xMinYMin meet" x="419.5" y="-426"/>
<text text-anchor="start" x="434.5" y="-417.2" font-family="Helvetica,sans-Serif" font-size="11.00">relining_construction</text>
<polygon fill="none" stroke="black" points="414.5,-387 414.5,-409 705.5,-409 705.5,-387 414.5,-387"/>
<image xlink:href="../../images/foreignKeys.png" width="11px" height="12px" preserveAspectRatio="xMinYMin meet" x="419.5" y="-404"/>
<text text-anchor="start" x="434.5" y="-395.2" font-family="Helvetica,sans-Serif" font-size="11.00">relining_kind</text>
<polygon fill="none" stroke="black" points="414.5,-369 414.5,-387 705.5,-387 705.5,-369 414.5,-369"/>
<text text-anchor="start" x="417.5" y="-375.2" font-family="Helvetica,sans-Serif" font-size="11.00">...</text>
<polygon fill="#ffffff" stroke="transparent" points="414.5,-351 414.5,-369 705.5,-369 705.5,-351 414.5,-351"/>
<polygon fill="none" stroke="black" points="414.5,-351 414.5,-369 705.5,-369 705.5,-351 414.5,-351"/>
<polygon fill="#ffffff" stroke="transparent" points="415.5,-352 415.5,-368 510.5,-368 510.5,-352 415.5,-352"/>
<text text-anchor="start" x="417.5" y="-357.2" font-family="Helvetica,sans-Serif" font-size="11.00">&lt; 8</text>
<polygon fill="#ffffff" stroke="transparent" points="510.5,-352 510.5,-368 622.5,-368 622.5,-352 510.5,-352"/>
<text text-anchor="start" x="548" y="-357.2" font-family="Helvetica,sans-Serif" font-size="11.00">0 rows</text>
<polygon fill="#ffffff" stroke="transparent" points="622.5,-352 622.5,-368 704.5,-368 704.5,-352 622.5,-352"/>
<text text-anchor="start" x="694.5" y="-357.2" font-family="Helvetica,sans-Serif" font-size="11.00"> &#160;</text>
<polygon fill="black" stroke="black" points="510.5,-352 510.5,-368 510.5,-368 510.5,-352 510.5,-352"/>
<polygon fill="black" stroke="black" points="622.5,-352 622.5,-368 622.5,-368 622.5,-352 622.5,-352"/>
</a>
</g>
</g>
<!-- reach_elevation_determination -->
<g id="node2" class="node">
<title>reach_elevation_determination</title>
<g id="a_node2"><a xlink:href="../../tables/reach_elevation_determination.html" xlink:title="reach_elevation_determination" target="_top">
<polygon fill="#ffffff" stroke="transparent" points="8,-37 8,-587 365,-587 365,-37 8,-37"/>
<polygon fill="#f5f5f5" stroke="transparent" points="10.5,-563 10.5,-585 363.5,-585 363.5,-563 10.5,-563"/>
<polygon fill="none" stroke="black" points="10.5,-563 10.5,-585 363.5,-585 363.5,-563 10.5,-563"/>
<text text-anchor="start" x="15.5" y="-572.2" font-family="Helvetica,sans-Serif" font-weight="bold" font-size="11.00">reach_elevation_determination</text>
<text text-anchor="start" x="321.5" y="-571.2" font-family="Helvetica,sans-Serif" font-size="11.00">[table]</text>
<polygon fill="none" stroke="black" points="10.5,-541 10.5,-563 257.5,-563 257.5,-541 10.5,-541"/>
<image xlink:href="../../images/primaryKeys.png" width="11px" height="12px" preserveAspectRatio="xMinYMin meet" x="15.5" y="-558"/>
<text text-anchor="start" x="30.5" y="-549.2" font-family="Helvetica,sans-Serif" font-size="11.00">code</text>
<polygon fill="none" stroke="black" points="257.5,-541 257.5,-563 363.5,-563 363.5,-541 257.5,-541"/>
<text text-anchor="start" x="260.5" y="-549.2" font-family="Helvetica,sans-Serif" font-size="11.00">int4[10]</text>
<polygon fill="none" stroke="black" points="10.5,-519 10.5,-541 257.5,-541 257.5,-519 10.5,-519"/>
<text text-anchor="start" x="30.5" y="-527.2" font-family="Helvetica,sans-Serif" font-size="11.00">vsacode</text>
<polygon fill="none" stroke="black" points="257.5,-519 257.5,-541 363.5,-541 363.5,-519 257.5,-519"/>
<text text-anchor="start" x="260.5" y="-527.2" font-family="Helvetica,sans-Serif" font-size="11.00">int4[10]</text>
<polygon fill="none" stroke="black" points="10.5,-497 10.5,-519 257.5,-519 257.5,-497 10.5,-497"/>
<text text-anchor="start" x="30.5" y="-505.2" font-family="Helvetica,sans-Serif" font-size="11.00">value_en</text>
<polygon fill="none" stroke="black" points="257.5,-497 257.5,-519 363.5,-519 363.5,-497 257.5,-497"/>
<text text-anchor="start" x="260.5" y="-505.2" font-family="Helvetica,sans-Serif" font-size="11.00">varchar[100]</text>
<polygon fill="none" stroke="black" points="10.5,-475 10.5,-497 257.5,-497 257.5,-475 10.5,-475"/>
<text text-anchor="start" x="30.5" y="-483.2" font-family="Helvetica,sans-Serif" font-size="11.00">value_de</text>
<polygon fill="none" stroke="black" points="257.5,-475 257.5,-497 363.5,-497 363.5,-475 257.5,-475"/>
<text text-anchor="start" x="260.5" y="-483.2" font-family="Helvetica,sans-Serif" font-size="11.00">varchar[100]</text>
<polygon fill="none" stroke="black" points="10.5,-453 10.5,-475 257.5,-475 257.5,-453 10.5,-453"/>
<text text-anchor="start" x="30.5" y="-461.2" font-family="Helvetica,sans-Serif" font-size="11.00">value_fr</text>
<polygon fill="none" stroke="black" points="257.5,-453 257.5,-475 363.5,-475 363.5,-453 257.5,-453"/>
<text text-anchor="start" x="260.5" y="-461.2" font-family="Helvetica,sans-Serif" font-size="11.00">varchar[100]</text>
<polygon fill="none" stroke="black" points="10.5,-431 10.5,-453 257.5,-453 257.5,-431 10.5,-431"/>
<text text-anchor="start" x="30.5" y="-439.2" font-family="Helvetica,sans-Serif" font-size="11.00">value_it</text>
<polygon fill="none" stroke="black" points="257.5,-431 257.5,-453 363.5,-453 363.5,-431 257.5,-431"/>
<text text-anchor="start" x="260.5" y="-439.2" font-family="Helvetica,sans-Serif" font-size="11.00">varchar[100]</text>
<polygon fill="none" stroke="black" points="10.5,-409 10.5,-431 257.5,-431 257.5,-409 10.5,-409"/>
<text text-anchor="start" x="30.5" y="-417.2" font-family="Helvetica,sans-Serif" font-size="11.00">value_ro</text>
<polygon fill="none" stroke="black" points="257.5,-409 257.5,-431 363.5,-431 363.5,-409 257.5,-409"/>
<text text-anchor="start" x="260.5" y="-417.2" font-family="Helvetica,sans-Serif" font-size="11.00">varchar[100]</text>
<polygon fill="none" stroke="black" points="10.5,-387 10.5,-409 257.5,-409 257.5,-387 10.5,-387"/>
<text text-anchor="start" x="30.5" y="-395.2" font-family="Helvetica,sans-Serif" font-size="11.00">abbr_en</text>
<polygon fill="none" stroke="black" points="257.5,-387 257.5,-409 363.5,-409 363.5,-387 257.5,-387"/>
<text text-anchor="start" x="260.5" y="-395.2" font-family="Helvetica,sans-Serif" font-size="11.00">varchar[3]</text>
<polygon fill="none" stroke="black" points="10.5,-365 10.5,-387 257.5,-387 257.5,-365 10.5,-365"/>
<text text-anchor="start" x="30.5" y="-373.2" font-family="Helvetica,sans-Serif" font-size="11.00">abbr_de</text>
<polygon fill="none" stroke="black" points="257.5,-365 257.5,-387 363.5,-387 363.5,-365 257.5,-365"/>
<text text-anchor="start" x="260.5" y="-373.2" font-family="Helvetica,sans-Serif" font-size="11.00">varchar[3]</text>
<polygon fill="none" stroke="black" points="10.5,-343 10.5,-365 257.5,-365 257.5,-343 10.5,-343"/>
<text text-anchor="start" x="30.5" y="-351.2" font-family="Helvetica,sans-Serif" font-size="11.00">abbr_fr</text>
<polygon fill="none" stroke="black" points="257.5,-343 257.5,-365 363.5,-365 363.5,-343 257.5,-343"/>
<text text-anchor="start" x="260.5" y="-351.2" font-family="Helvetica,sans-Serif" font-size="11.00">varchar[3]</text>
<polygon fill="none" stroke="black" points="10.5,-321 10.5,-343 257.5,-343 257.5,-321 10.5,-321"/>
<text text-anchor="start" x="30.5" y="-329.2" font-family="Helvetica,sans-Serif" font-size="11.00">abbr_it</text>
<polygon fill="none" stroke="black" points="257.5,-321 257.5,-343 363.5,-343 363.5,-321 257.5,-321"/>
<text text-anchor="start" x="260.5" y="-329.2" font-family="Helvetica,sans-Serif" font-size="11.00">varchar[3]</text>
<polygon fill="none" stroke="black" points="10.5,-299 10.5,-321 257.5,-321 257.5,-299 10.5,-299"/>
<text text-anchor="start" x="30.5" y="-307.2" font-family="Helvetica,sans-Serif" font-size="11.00">abbr_ro</text>
<polygon fill="none" stroke="black" points="257.5,-299 257.5,-321 363.5,-321 363.5,-299 257.5,-299"/>
<text text-anchor="start" x="260.5" y="-307.2" font-family="Helvetica,sans-Serif" font-size="11.00">varchar[3]</text>
<polygon fill="none" stroke="black" points="10.5,-277 10.5,-299 257.5,-299 257.5,-277 10.5,-277"/>
<text text-anchor="start" x="30.5" y="-285.2" font-family="Helvetica,sans-Serif" font-size="11.00">active</text>
<polygon fill="none" stroke="black" points="257.5,-277 257.5,-299 363.5,-299 363.5,-277 257.5,-277"/>
<text text-anchor="start" x="260.5" y="-285.2" font-family="Helvetica,sans-Serif" font-size="11.00">bool[1]</text>
<polygon fill="none" stroke="black" points="10.5,-255 10.5,-277 257.5,-277 257.5,-255 10.5,-255"/>
<text text-anchor="start" x="30.5" y="-263.2" font-family="Helvetica,sans-Serif" font-size="11.00">description_en</text>
<polygon fill="none" stroke="black" points="257.5,-255 257.5,-277 363.5,-277 363.5,-255 257.5,-255"/>
<text text-anchor="start" x="260.5" y="-263.2" font-family="Helvetica,sans-Serif" font-size="11.00">text[2147483647]</text>
<polygon fill="none" stroke="black" points="10.5,-233 10.5,-255 257.5,-255 257.5,-233 10.5,-233"/>
<text text-anchor="start" x="30.5" y="-241.2" font-family="Helvetica,sans-Serif" font-size="11.00">description_de</text>
<polygon fill="none" stroke="black" points="257.5,-233 257.5,-255 363.5,-255 363.5,-233 257.5,-233"/>
<text text-anchor="start" x="260.5" y="-241.2" font-family="Helvetica,sans-Serif" font-size="11.00">text[2147483647]</text>
<polygon fill="none" stroke="black" points="10.5,-211 10.5,-233 257.5,-233 257.5,-211 10.5,-211"/>
<text text-anchor="start" x="30.5" y="-219.2" font-family="Helvetica,sans-Serif" font-size="11.00">description_fr</text>
<polygon fill="none" stroke="black" points="257.5,-211 257.5,-233 363.5,-233 363.5,-211 257.5,-211"/>
<text text-anchor="start" x="260.5" y="-219.2" font-family="Helvetica,sans-Serif" font-size="11.00">text[2147483647]</text>
<polygon fill="none" stroke="black" points="10.5,-189 10.5,-211 257.5,-211 257.5,-189 10.5,-189"/>
<text text-anchor="start" x="30.5" y="-197.2" font-family="Helvetica,sans-Serif" font-size="11.00">description_it</text>
<polygon fill="none" stroke="black" points="257.5,-189 257.5,-211 363.5,-211 363.5,-189 257.5,-189"/>
<text text-anchor="start" x="260.5" y="-197.2" font-family="Helvetica,sans-Serif" font-size="11.00">text[2147483647]</text>
<polygon fill="none" stroke="black" points="10.5,-167 10.5,-189 257.5,-189 257.5,-167 10.5,-167"/>
<text text-anchor="start" x="30.5" y="-175.2" font-family="Helvetica,sans-Serif" font-size="11.00">description_ro</text>
<polygon fill="none" stroke="black" points="257.5,-167 257.5,-189 363.5,-189 363.5,-167 257.5,-167"/>
<text text-anchor="start" x="260.5" y="-175.2" font-family="Helvetica,sans-Serif" font-size="11.00">text[2147483647]</text>
<polygon fill="none" stroke="black" points="10.5,-145 10.5,-167 257.5,-167 257.5,-145 10.5,-145"/>
<text text-anchor="start" x="30.5" y="-153.2" font-family="Helvetica,sans-Serif" font-size="11.00">display_en</text>
<polygon fill="none" stroke="black" points="257.5,-145 257.5,-167 363.5,-167 363.5,-145 257.5,-145"/>
<text text-anchor="start" x="260.5" y="-153.2" font-family="Helvetica,sans-Serif" font-size="11.00">varchar[100]</text>
<polygon fill="none" stroke="black" points="10.5,-123 10.5,-145 257.5,-145 257.5,-123 10.5,-123"/>
<text text-anchor="start" x="30.5" y="-131.2" font-family="Helvetica,sans-Serif" font-size="11.00">display_de</text>
<polygon fill="none" stroke="black" points="257.5,-123 257.5,-145 363.5,-145 363.5,-123 257.5,-123"/>
<text text-anchor="start" x="260.5" y="-131.2" font-family="Helvetica,sans-Serif" font-size="11.00">varchar[100]</text>
<polygon fill="none" stroke="black" points="10.5,-101 10.5,-123 257.5,-123 257.5,-101 10.5,-101"/>
<text text-anchor="start" x="30.5" y="-109.2" font-family="Helvetica,sans-Serif" font-size="11.00">display_fr</text>
<polygon fill="none" stroke="black" points="257.5,-101 257.5,-123 363.5,-123 363.5,-101 257.5,-101"/>
<text text-anchor="start" x="260.5" y="-109.2" font-family="Helvetica,sans-Serif" font-size="11.00">varchar[100]</text>
<polygon fill="none" stroke="black" points="10.5,-79 10.5,-101 257.5,-101 257.5,-79 10.5,-79"/>
<text text-anchor="start" x="30.5" y="-87.2" font-family="Helvetica,sans-Serif" font-size="11.00">display_it</text>
<polygon fill="none" stroke="black" points="257.5,-79 257.5,-101 363.5,-101 363.5,-79 257.5,-79"/>
<text text-anchor="start" x="260.5" y="-87.2" font-family="Helvetica,sans-Serif" font-size="11.00">varchar[100]</text>
<polygon fill="none" stroke="black" points="10.5,-57 10.5,-79 257.5,-79 257.5,-57 10.5,-57"/>
<text text-anchor="start" x="30.5" y="-65.2" font-family="Helvetica,sans-Serif" font-size="11.00">display_ro</text>
<polygon fill="none" stroke="black" points="257.5,-57 257.5,-79 363.5,-79 363.5,-57 257.5,-57"/>
<text text-anchor="start" x="260.5" y="-65.2" font-family="Helvetica,sans-Serif" font-size="11.00">varchar[100]</text>
<polygon fill="#ffffff" stroke="transparent" points="10.5,-39 10.5,-57 363.5,-57 363.5,-39 10.5,-39"/>
<polygon fill="none" stroke="black" points="10.5,-39 10.5,-57 363.5,-57 363.5,-39 10.5,-39"/>
<polygon fill="#ffffff" stroke="transparent" points="11.5,-40 11.5,-56 132.5,-56 132.5,-40 11.5,-40"/>
<text text-anchor="start" x="13.5" y="-45.2" font-family="Helvetica,sans-Serif" font-size="11.00">&lt; 0</text>
<polygon fill="#ffffff" stroke="transparent" points="132.5,-40 132.5,-56 241.5,-56 241.5,-40 132.5,-40"/>
<text text-anchor="start" x="183" y="-45.2" font-family="Helvetica,sans-Serif" font-size="11.00"> &#160;</text>
<polygon fill="#ffffff" stroke="transparent" points="241.5,-40 241.5,-56 362.5,-56 362.5,-40 241.5,-40"/>
<text text-anchor="start" x="340.5" y="-45.2" font-family="Helvetica,sans-Serif" font-size="11.00">1 &gt;</text>
<polygon fill="black" stroke="black" points="132.5,-40 132.5,-56 132.5,-56 132.5,-40 132.5,-40"/>
<polygon fill="black" stroke="black" points="241.5,-40 241.5,-56 241.5,-56 241.5,-40 241.5,-40"/>
<polygon fill="none" stroke="black" stroke-width="2" points="9,-38 9,-586 364,-586 364,-38 9,-38"/>
</a>
</g>
</g>
<!-- tww_od.reach&#45;&gt;reach_elevation_determination -->
<g id="edge1" class="edge">
<title>tww_od.reach:w&#45;&gt;reach_elevation_determination:e</title>
<path fill="none" stroke="black" d="M398.99,-552C387.68,-552 380.49,-552 364.5,-552"/>
<polygon fill="black" stroke="black" points="405.5,-552 413.5,-555.6 409.5,-552 413.5,-552 413.5,-552 413.5,-552 409.5,-552 413.5,-548.4 405.5,-552 405.5,-552"/>
<ellipse fill="none" stroke="black" cx="402.3" cy="-552" rx="3.2" ry="3.2"/>
</g>
</g>
</svg>
