<?xml version="1.0" encoding="UTF-8" standalone="no"?>
<!DOCTYPE svg PUBLIC "-//W3C//DTD SVG 1.1//EN"
 "http://www.w3.org/Graphics/SVG/1.1/DTD/svg11.dtd">
<!-- Generated by graphviz version 2.43.0 (0)
 -->
<!-- Title: oneDegreeRelationshipsDiagram Pages: 1 -->
<svg width="595pt" height="599pt"
 viewBox="0.00 0.00 595.00 599.00" xmlns="http://www.w3.org/2000/svg" xmlns:xlink="http://www.w3.org/1999/xlink">
<g id="graph0" class="graph" transform="scale(1 1) rotate(0) translate(4 595)">
<title>oneDegreeRelationshipsDiagram</title>
<polygon fill="#ffffff" stroke="transparent" points="-4,4 -4,-595 591,-595 591,4 -4,4"/>
<text text-anchor="middle" x="79.5" y="-7.2" font-family="Helvetica,sans-Serif" font-size="11.00">Generated by SchemaSpy</text>
<!-- tww_od.sia405cc_cable -->
<g id="node1" class="node">
<title>tww_od.sia405cc_cable</title>
<g id="a_node1"><a xlink:href="../../../tww_od/tables/sia405cc_cable.html" xlink:title="tww_od.sia405cc_cable" target="_top">
<polygon fill="#ffffff" stroke="transparent" points="364,-417 364,-585 579,-585 579,-417 364,-417"/>
<polygon fill="#f5f5f5" stroke="transparent" points="364.5,-563 364.5,-585 579.5,-585 579.5,-563 364.5,-563"/>
<polygon fill="none" stroke="black" points="364.5,-563 364.5,-585 579.5,-585 579.5,-563 364.5,-563"/>
<text text-anchor="start" x="369.5" y="-572.2" font-family="Helvetica,sans-Serif" font-weight="bold" font-size="11.00">tww_od.sia405cc_cable</text>
<text text-anchor="start" x="537.5" y="-571.2" font-family="Helvetica,sans-Serif" font-size="11.00">[table]</text>
<polygon fill="none" stroke="black" points="364.5,-541 364.5,-563 579.5,-563 579.5,-541 364.5,-541"/>
<image xlink:href="../../images/foreignKeys.png" width="11px" height="12px" preserveAspectRatio="xMinYMin meet" x="369.5" y="-558"/>
<text text-anchor="start" x="392.5" y="-549.2" font-family="Helvetica,sans-Serif" font-size="11.00">function</text>
<polygon fill="none" stroke="black" points="364.5,-519 364.5,-541 579.5,-541 579.5,-519 364.5,-519"/>
<image xlink:href="../../images/foreignKeys.png" width="11px" height="12px" preserveAspectRatio="xMinYMin meet" x="369.5" y="-536"/>
<text text-anchor="start" x="392.5" y="-527.2" font-family="Helvetica,sans-Serif" font-size="11.00">cable_type</text>
<polygon fill="none" stroke="black" points="364.5,-497 364.5,-519 579.5,-519 579.5,-497 364.5,-497"/>
<image xlink:href="../../images/foreignKeys.png" width="11px" height="12px" preserveAspectRatio="xMinYMin meet" x="369.5" y="-514"/>
<text text-anchor="start" x="392.5" y="-505.2" font-family="Helvetica,sans-Serif" font-size="11.00">horizontal_positioning</text>
<polygon fill="none" stroke="black" points="364.5,-475 364.5,-497 579.5,-497 579.5,-475 364.5,-475"/>
<image xlink:href="../../images/foreignKeys.png" width="11px" height="12px" preserveAspectRatio="xMinYMin meet" x="369.5" y="-492"/>
<text text-anchor="start" x="392.5" y="-483.2" font-family="Helvetica,sans-Serif" font-size="11.00">status</text>
<polygon fill="none" stroke="black" points="364.5,-453 364.5,-475 579.5,-475 579.5,-453 364.5,-453"/>
<image xlink:href="../../images/foreignKeys.png" width="11px" height="12px" preserveAspectRatio="xMinYMin meet" x="369.5" y="-470"/>
<text text-anchor="start" x="392.5" y="-461.2" font-family="Helvetica,sans-Serif" font-size="11.00">elevation_determination</text>
<polygon fill="none" stroke="black" points="364.5,-435 364.5,-453 579.5,-453 579.5,-435 364.5,-435"/>
<text text-anchor="start" x="367.5" y="-441.2" font-family="Helvetica,sans-Serif" font-size="11.00">...</text>
<polygon fill="#ffffff" stroke="transparent" points="364.5,-417 364.5,-435 579.5,-435 579.5,-417 364.5,-417"/>
<polygon fill="none" stroke="black" points="364.5,-417 364.5,-435 579.5,-435 579.5,-417 364.5,-417"/>
<polygon fill="#ffffff" stroke="transparent" points="365.5,-418 365.5,-434 435.5,-434 435.5,-418 365.5,-418"/>
<text text-anchor="start" x="367.5" y="-423.2" font-family="Helvetica,sans-Serif" font-size="11.00">&lt; 5</text>
<polygon fill="#ffffff" stroke="transparent" points="435.5,-418 435.5,-434 521.5,-434 521.5,-418 435.5,-418"/>
<text text-anchor="start" x="460" y="-423.2" font-family="Helvetica,sans-Serif" font-size="11.00">0 rows</text>
<polygon fill="#ffffff" stroke="transparent" points="521.5,-418 521.5,-434 578.5,-434 578.5,-418 521.5,-418"/>
<text text-anchor="start" x="568.5" y="-423.2" font-family="Helvetica,sans-Serif" font-size="11.00"> &#160;</text>
<polygon fill="black" stroke="black" points="435.5,-418 435.5,-434 435.5,-434 435.5,-418 435.5,-418"/>
<polygon fill="black" stroke="black" points="521.5,-418 521.5,-434 521.5,-434 521.5,-418 521.5,-418"/>
</a>
</g>
</g>
<!-- sia405cc_cable_function -->
<g id="node2" class="node">
<title>sia405cc_cable_function</title>
<g id="a_node2"><a xlink:href="../../tables/sia405cc_cable_function.html" xlink:title="sia405cc_cable_function" target="_top">
<polygon fill="#ffffff" stroke="transparent" points="8,-37 8,-587 315,-587 315,-37 8,-37"/>
<polygon fill="#f5f5f5" stroke="transparent" points="10.5,-563 10.5,-585 313.5,-585 313.5,-563 10.5,-563"/>
<polygon fill="none" stroke="black" points="10.5,-563 10.5,-585 313.5,-585 313.5,-563 10.5,-563"/>
<text text-anchor="start" x="15.5" y="-572.2" font-family="Helvetica,sans-Serif" font-weight="bold" font-size="11.00">sia405cc_cable_function</text>
<text text-anchor="start" x="271.5" y="-571.2" font-family="Helvetica,sans-Serif" font-size="11.00">[table]</text>
<polygon fill="none" stroke="black" points="10.5,-541 10.5,-563 207.5,-563 207.5,-541 10.5,-541"/>
<image xlink:href="../../images/primaryKeys.png" width="11px" height="12px" preserveAspectRatio="xMinYMin meet" x="15.5" y="-558"/>
<text text-anchor="start" x="30.5" y="-549.2" font-family="Helvetica,sans-Serif" font-size="11.00">code</text>
<polygon fill="none" stroke="black" points="207.5,-541 207.5,-563 313.5,-563 313.5,-541 207.5,-541"/>
<text text-anchor="start" x="210.5" y="-549.2" font-family="Helvetica,sans-Serif" font-size="11.00">int4[10]</text>
<polygon fill="none" stroke="black" points="10.5,-519 10.5,-541 207.5,-541 207.5,-519 10.5,-519"/>
<text text-anchor="start" x="30.5" y="-527.2" font-family="Helvetica,sans-Serif" font-size="11.00">vsacode</text>
<polygon fill="none" stroke="black" points="207.5,-519 207.5,-541 313.5,-541 313.5,-519 207.5,-519"/>
<text text-anchor="start" x="210.5" y="-527.2" font-family="Helvetica,sans-Serif" font-size="11.00">int4[10]</text>
<polygon fill="none" stroke="black" points="10.5,-497 10.5,-519 207.5,-519 207.5,-497 10.5,-497"/>
<text text-anchor="start" x="30.5" y="-505.2" font-family="Helvetica,sans-Serif" font-size="11.00">value_en</text>
<polygon fill="none" stroke="black" points="207.5,-497 207.5,-519 313.5,-519 313.5,-497 207.5,-497"/>
<text text-anchor="start" x="210.5" y="-505.2" font-family="Helvetica,sans-Serif" font-size="11.00">varchar[100]</text>
<polygon fill="none" stroke="black" points="10.5,-475 10.5,-497 207.5,-497 207.5,-475 10.5,-475"/>
<text text-anchor="start" x="30.5" y="-483.2" font-family="Helvetica,sans-Serif" font-size="11.00">value_de</text>
<polygon fill="none" stroke="black" points="207.5,-475 207.5,-497 313.5,-497 313.5,-475 207.5,-475"/>
<text text-anchor="start" x="210.5" y="-483.2" font-family="Helvetica,sans-Serif" font-size="11.00">varchar[100]</text>
<polygon fill="none" stroke="black" points="10.5,-453 10.5,-475 207.5,-475 207.5,-453 10.5,-453"/>
<text text-anchor="start" x="30.5" y="-461.2" font-family="Helvetica,sans-Serif" font-size="11.00">value_fr</text>
<polygon fill="none" stroke="black" points="207.5,-453 207.5,-475 313.5,-475 313.5,-453 207.5,-453"/>
<text text-anchor="start" x="210.5" y="-461.2" font-family="Helvetica,sans-Serif" font-size="11.00">varchar[100]</text>
<polygon fill="none" stroke="black" points="10.5,-431 10.5,-453 207.5,-453 207.5,-431 10.5,-431"/>
<text text-anchor="start" x="30.5" y="-439.2" font-family="Helvetica,sans-Serif" font-size="11.00">value_it</text>
<polygon fill="none" stroke="black" points="207.5,-431 207.5,-453 313.5,-453 313.5,-431 207.5,-431"/>
<text text-anchor="start" x="210.5" y="-439.2" font-family="Helvetica,sans-Serif" font-size="11.00">varchar[100]</text>
<polygon fill="none" stroke="black" points="10.5,-409 10.5,-431 207.5,-431 207.5,-409 10.5,-409"/>
<text text-anchor="start" x="30.5" y="-417.2" font-family="Helvetica,sans-Serif" font-size="11.00">value_ro</text>
<polygon fill="none" stroke="black" points="207.5,-409 207.5,-431 313.5,-431 313.5,-409 207.5,-409"/>
<text text-anchor="start" x="210.5" y="-417.2" font-family="Helvetica,sans-Serif" font-size="11.00">varchar[100]</text>
<polygon fill="none" stroke="black" points="10.5,-387 10.5,-409 207.5,-409 207.5,-387 10.5,-387"/>
<text text-anchor="start" x="30.5" y="-395.2" font-family="Helvetica,sans-Serif" font-size="11.00">abbr_en</text>
<polygon fill="none" stroke="black" points="207.5,-387 207.5,-409 313.5,-409 313.5,-387 207.5,-387"/>
<text text-anchor="start" x="210.5" y="-395.2" font-family="Helvetica,sans-Serif" font-size="11.00">varchar[3]</text>
<polygon fill="none" stroke="black" points="10.5,-365 10.5,-387 207.5,-387 207.5,-365 10.5,-365"/>
<text text-anchor="start" x="30.5" y="-373.2" font-family="Helvetica,sans-Serif" font-size="11.00">abbr_de</text>
<polygon fill="none" stroke="black" points="207.5,-365 207.5,-387 313.5,-387 313.5,-365 207.5,-365"/>
<text text-anchor="start" x="210.5" y="-373.2" font-family="Helvetica,sans-Serif" font-size="11.00">varchar[3]</text>
<polygon fill="none" stroke="black" points="10.5,-343 10.5,-365 207.5,-365 207.5,-343 10.5,-343"/>
<text text-anchor="start" x="30.5" y="-351.2" font-family="Helvetica,sans-Serif" font-size="11.00">abbr_fr</text>
<polygon fill="none" stroke="black" points="207.5,-343 207.5,-365 313.5,-365 313.5,-343 207.5,-343"/>
<text text-anchor="start" x="210.5" y="-351.2" font-family="Helvetica,sans-Serif" font-size="11.00">varchar[3]</text>
<polygon fill="none" stroke="black" points="10.5,-321 10.5,-343 207.5,-343 207.5,-321 10.5,-321"/>
<text text-anchor="start" x="30.5" y="-329.2" font-family="Helvetica,sans-Serif" font-size="11.00">abbr_it</text>
<polygon fill="none" stroke="black" points="207.5,-321 207.5,-343 313.5,-343 313.5,-321 207.5,-321"/>
<text text-anchor="start" x="210.5" y="-329.2" font-family="Helvetica,sans-Serif" font-size="11.00">varchar[3]</text>
<polygon fill="none" stroke="black" points="10.5,-299 10.5,-321 207.5,-321 207.5,-299 10.5,-299"/>
<text text-anchor="start" x="30.5" y="-307.2" font-family="Helvetica,sans-Serif" font-size="11.00">abbr_ro</text>
<polygon fill="none" stroke="black" points="207.5,-299 207.5,-321 313.5,-321 313.5,-299 207.5,-299"/>
<text text-anchor="start" x="210.5" y="-307.2" font-family="Helvetica,sans-Serif" font-size="11.00">varchar[3]</text>
<polygon fill="none" stroke="black" points="10.5,-277 10.5,-299 207.5,-299 207.5,-277 10.5,-277"/>
<text text-anchor="start" x="30.5" y="-285.2" font-family="Helvetica,sans-Serif" font-size="11.00">active</text>
<polygon fill="none" stroke="black" points="207.5,-277 207.5,-299 313.5,-299 313.5,-277 207.5,-277"/>
<text text-anchor="start" x="210.5" y="-285.2" font-family="Helvetica,sans-Serif" font-size="11.00">bool[1]</text>
<polygon fill="none" stroke="black" points="10.5,-255 10.5,-277 207.5,-277 207.5,-255 10.5,-255"/>
<text text-anchor="start" x="30.5" y="-263.2" font-family="Helvetica,sans-Serif" font-size="11.00">description_en</text>
<polygon fill="none" stroke="black" points="207.5,-255 207.5,-277 313.5,-277 313.5,-255 207.5,-255"/>
<text text-anchor="start" x="210.5" y="-263.2" font-family="Helvetica,sans-Serif" font-size="11.00">text[2147483647]</text>
<polygon fill="none" stroke="black" points="10.5,-233 10.5,-255 207.5,-255 207.5,-233 10.5,-233"/>
<text text-anchor="start" x="30.5" y="-241.2" font-family="Helvetica,sans-Serif" font-size="11.00">description_de</text>
<polygon fill="none" stroke="black" points="207.5,-233 207.5,-255 313.5,-255 313.5,-233 207.5,-233"/>
<text text-anchor="start" x="210.5" y="-241.2" font-family="Helvetica,sans-Serif" font-size="11.00">text[2147483647]</text>
<polygon fill="none" stroke="black" points="10.5,-211 10.5,-233 207.5,-233 207.5,-211 10.5,-211"/>
<text text-anchor="start" x="30.5" y="-219.2" font-family="Helvetica,sans-Serif" font-size="11.00">description_fr</text>
<polygon fill="none" stroke="black" points="207.5,-211 207.5,-233 313.5,-233 313.5,-211 207.5,-211"/>
<text text-anchor="start" x="210.5" y="-219.2" font-family="Helvetica,sans-Serif" font-size="11.00">text[2147483647]</text>
<polygon fill="none" stroke="black" points="10.5,-189 10.5,-211 207.5,-211 207.5,-189 10.5,-189"/>
<text text-anchor="start" x="30.5" y="-197.2" font-family="Helvetica,sans-Serif" font-size="11.00">description_it</text>
<polygon fill="none" stroke="black" points="207.5,-189 207.5,-211 313.5,-211 313.5,-189 207.5,-189"/>
<text text-anchor="start" x="210.5" y="-197.2" font-family="Helvetica,sans-Serif" font-size="11.00">text[2147483647]</text>
<polygon fill="none" stroke="black" points="10.5,-167 10.5,-189 207.5,-189 207.5,-167 10.5,-167"/>
<text text-anchor="start" x="30.5" y="-175.2" font-family="Helvetica,sans-Serif" font-size="11.00">description_ro</text>
<polygon fill="none" stroke="black" points="207.5,-167 207.5,-189 313.5,-189 313.5,-167 207.5,-167"/>
<text text-anchor="start" x="210.5" y="-175.2" font-family="Helvetica,sans-Serif" font-size="11.00">text[2147483647]</text>
<polygon fill="none" stroke="black" points="10.5,-145 10.5,-167 207.5,-167 207.5,-145 10.5,-145"/>
<text text-anchor="start" x="30.5" y="-153.2" font-family="Helvetica,sans-Serif" font-size="11.00">display_en</text>
<polygon fill="none" stroke="black" points="207.5,-145 207.5,-167 313.5,-167 313.5,-145 207.5,-145"/>
<text text-anchor="start" x="210.5" y="-153.2" font-family="Helvetica,sans-Serif" font-size="11.00">varchar[100]</text>
<polygon fill="none" stroke="black" points="10.5,-123 10.5,-145 207.5,-145 207.5,-123 10.5,-123"/>
<text text-anchor="start" x="30.5" y="-131.2" font-family="Helvetica,sans-Serif" font-size="11.00">display_de</text>
<polygon fill="none" stroke="black" points="207.5,-123 207.5,-145 313.5,-145 313.5,-123 207.5,-123"/>
<text text-anchor="start" x="210.5" y="-131.2" font-family="Helvetica,sans-Serif" font-size="11.00">varchar[100]</text>
<polygon fill="none" stroke="black" points="10.5,-101 10.5,-123 207.5,-123 207.5,-101 10.5,-101"/>
<text text-anchor="start" x="30.5" y="-109.2" font-family="Helvetica,sans-Serif" font-size="11.00">display_fr</text>
<polygon fill="none" stroke="black" points="207.5,-101 207.5,-123 313.5,-123 313.5,-101 207.5,-101"/>
<text text-anchor="start" x="210.5" y="-109.2" font-family="Helvetica,sans-Serif" font-size="11.00">varchar[100]</text>
<polygon fill="none" stroke="black" points="10.5,-79 10.5,-101 207.5,-101 207.5,-79 10.5,-79"/>
<text text-anchor="start" x="30.5" y="-87.2" font-family="Helvetica,sans-Serif" font-size="11.00">display_it</text>
<polygon fill="none" stroke="black" points="207.5,-79 207.5,-101 313.5,-101 313.5,-79 207.5,-79"/>
<text text-anchor="start" x="210.5" y="-87.2" font-family="Helvetica,sans-Serif" font-size="11.00">varchar[100]</text>
<polygon fill="none" stroke="black" points="10.5,-57 10.5,-79 207.5,-79 207.5,-57 10.5,-57"/>
<text text-anchor="start" x="30.5" y="-65.2" font-family="Helvetica,sans-Serif" font-size="11.00">display_ro</text>
<polygon fill="none" stroke="black" points="207.5,-57 207.5,-79 313.5,-79 313.5,-57 207.5,-57"/>
<text text-anchor="start" x="210.5" y="-65.2" font-family="Helvetica,sans-Serif" font-size="11.00">varchar[100]</text>
<polygon fill="#ffffff" stroke="transparent" points="10.5,-39 10.5,-57 313.5,-57 313.5,-39 10.5,-39"/>
<polygon fill="none" stroke="black" points="10.5,-39 10.5,-57 313.5,-57 313.5,-39 10.5,-39"/>
<polygon fill="#ffffff" stroke="transparent" points="11.5,-40 11.5,-56 116.5,-56 116.5,-40 11.5,-40"/>
<text text-anchor="start" x="13.5" y="-45.2" font-family="Helvetica,sans-Serif" font-size="11.00">&lt; 0</text>
<polygon fill="#ffffff" stroke="transparent" points="116.5,-40 116.5,-56 208.5,-56 208.5,-40 116.5,-40"/>
<text text-anchor="start" x="158.5" y="-45.2" font-family="Helvetica,sans-Serif" font-size="11.00"> &#160;</text>
<polygon fill="#ffffff" stroke="transparent" points="208.5,-40 208.5,-56 312.5,-56 312.5,-40 208.5,-40"/>
<text text-anchor="start" x="290.5" y="-45.2" font-family="Helvetica,sans-Serif" font-size="11.00">1 &gt;</text>
<polygon fill="black" stroke="black" points="116.5,-40 116.5,-56 116.5,-56 116.5,-40 116.5,-40"/>
<polygon fill="black" stroke="black" points="208.5,-40 208.5,-56 208.5,-56 208.5,-40 208.5,-40"/>
<polygon fill="none" stroke="black" stroke-width="2" points="9,-38 9,-586 314,-586 314,-38 9,-38"/>
</a>
</g>
</g>
<!-- tww_od.sia405cc_cable&#45;&gt;sia405cc_cable_function -->
<g id="edge1" class="edge">
<title>tww_od.sia405cc_cable:w&#45;&gt;sia405cc_cable_function:e</title>
<path fill="none" stroke="black" d="M348.99,-552C337.68,-552 330.49,-552 314.5,-552"/>
<polygon fill="black" stroke="black" points="355.5,-552 363.5,-555.6 359.5,-552 363.5,-552 363.5,-552 363.5,-552 359.5,-552 363.5,-548.4 355.5,-552 355.5,-552"/>
<ellipse fill="none" stroke="black" cx="352.3" cy="-552" rx="3.2" ry="3.2"/>
</g>
</g>
</svg>
