<?xml version="1.0" encoding="UTF-8" standalone="no"?>
<!DOCTYPE svg PUBLIC "-//W3C//DTD SVG 1.1//EN"
 "http://www.w3.org/Graphics/SVG/1.1/DTD/svg11.dtd">
<!-- Generated by graphviz version 2.43.0 (0)
 -->
<!-- Title: oneDegreeRelationshipsDiagram Pages: 1 -->
<svg width="606pt" height="399pt"
 viewBox="0.00 0.00 606.00 399.00" xmlns="http://www.w3.org/2000/svg" xmlns:xlink="http://www.w3.org/1999/xlink">
<g id="graph0" class="graph" transform="scale(1 1) rotate(0) translate(4 395)">
<title>oneDegreeRelationshipsDiagram</title>
<polygon fill="#ffffff" stroke="transparent" points="-4,4 -4,-395 602,-395 602,4 -4,4"/>
<text text-anchor="middle" x="79.5" y="-7.2" font-family="Helvetica,sans-Serif" font-size="11.00">Generated by SchemaSpy</text>
<!-- tww_od.special_structure -->
<g id="node1" class="node">
<title>tww_od.special_structure</title>
<g id="a_node1"><a xlink:href="../../../tww_od/tables/special_structure.html" xlink:title="tww_od.special_structure" target="_top">
<polygon fill="#ffffff" stroke="transparent" points="343,-197 343,-387 590,-387 590,-197 343,-197"/>
<polygon fill="#f5f5f5" stroke="transparent" points="343.5,-365 343.5,-387 590.5,-387 590.5,-365 343.5,-365"/>
<polygon fill="none" stroke="black" points="343.5,-365 343.5,-387 590.5,-387 590.5,-365 343.5,-365"/>
<text text-anchor="start" x="348.5" y="-374.2" font-family="Helvetica,sans-Serif" font-weight="bold" font-size="11.00">tww_od.special_structure</text>
<text text-anchor="start" x="548.5" y="-373.2" font-family="Helvetica,sans-Serif" font-size="11.00">[table]</text>
<polygon fill="none" stroke="black" points="343.5,-343 343.5,-365 590.5,-365 590.5,-343 343.5,-343"/>
<image xlink:href="../../images/foreignKeys.png" width="11px" height="12px" preserveAspectRatio="xMinYMin meet" x="348.5" y="-360"/>
<text text-anchor="start" x="363.5" y="-351.2" font-family="Helvetica,sans-Serif" font-size="11.00">amphibian_exit</text>
<polygon fill="none" stroke="black" points="343.5,-321 343.5,-343 590.5,-343 590.5,-321 343.5,-321"/>
<image xlink:href="../../images/foreignKeys.png" width="11px" height="12px" preserveAspectRatio="xMinYMin meet" x="348.5" y="-338"/>
<text text-anchor="start" x="363.5" y="-329.2" font-family="Helvetica,sans-Serif" font-size="11.00">bypass</text>
<polygon fill="none" stroke="black" points="343.5,-299 343.5,-321 590.5,-321 590.5,-299 343.5,-299"/>
<image xlink:href="../../images/foreignKeys.png" width="11px" height="12px" preserveAspectRatio="xMinYMin meet" x="348.5" y="-316"/>
<text text-anchor="start" x="363.5" y="-307.2" font-family="Helvetica,sans-Serif" font-size="11.00">emergency_overflow</text>
<polygon fill="none" stroke="black" points="343.5,-277 343.5,-299 590.5,-299 590.5,-277 343.5,-277"/>
<image xlink:href="../../images/foreignKeys.png" width="11px" height="12px" preserveAspectRatio="xMinYMin meet" x="348.5" y="-294"/>
<text text-anchor="start" x="363.5" y="-285.2" font-family="Helvetica,sans-Serif" font-size="11.00">function</text>
<polygon fill="none" stroke="black" points="343.5,-255 343.5,-277 590.5,-277 590.5,-255 343.5,-255"/>
<image xlink:href="../../images/foreignKeys.png" width="11px" height="12px" preserveAspectRatio="xMinYMin meet" x="348.5" y="-272"/>
<text text-anchor="start" x="363.5" y="-263.2" font-family="Helvetica,sans-Serif" font-size="11.00">possibility_intervention</text>
<polygon fill="none" stroke="black" points="343.5,-233 343.5,-255 590.5,-255 590.5,-233 343.5,-233"/>
<image xlink:href="../../images/foreignKeys.png" width="11px" height="12px" preserveAspectRatio="xMinYMin meet" x="348.5" y="-250"/>
<text text-anchor="start" x="363.5" y="-241.2" font-family="Helvetica,sans-Serif" font-size="11.00">stormwater_tank_arrangement</text>
<polygon fill="none" stroke="black" points="343.5,-215 343.5,-233 590.5,-233 590.5,-215 343.5,-215"/>
<text text-anchor="start" x="346.5" y="-221.2" font-family="Helvetica,sans-Serif" font-size="11.00">...</text>
<polygon fill="#ffffff" stroke="transparent" points="343.5,-197 343.5,-215 590.5,-215 590.5,-197 343.5,-197"/>
<polygon fill="none" stroke="black" points="343.5,-197 343.5,-215 590.5,-215 590.5,-197 343.5,-197"/>
<polygon fill="#ffffff" stroke="transparent" points="344.5,-198 344.5,-214 424.5,-214 424.5,-198 344.5,-198"/>
<text text-anchor="start" x="346.5" y="-203.2" font-family="Helvetica,sans-Serif" font-size="11.00">&lt; 6</text>
<polygon fill="#ffffff" stroke="transparent" points="424.5,-198 424.5,-214 521.5,-214 521.5,-198 424.5,-198"/>
<text text-anchor="start" x="454.5" y="-203.2" font-family="Helvetica,sans-Serif" font-size="11.00">0 rows</text>
<polygon fill="#ffffff" stroke="transparent" points="521.5,-198 521.5,-214 589.5,-214 589.5,-198 521.5,-198"/>
<text text-anchor="start" x="579.5" y="-203.2" font-family="Helvetica,sans-Serif" font-size="11.00"> &#160;</text>
<polygon fill="black" stroke="black" points="424.5,-198 424.5,-214 424.5,-214 424.5,-198 424.5,-198"/>
<polygon fill="black" stroke="black" points="521.5,-198 521.5,-214 521.5,-214 521.5,-198 521.5,-198"/>
</a>
</g>
</g>
<!-- special_structure_bypass -->
<g id="node2" class="node">
<title>special_structure_bypass</title>
<g id="a_node2"><a xlink:href="../../tables/special_structure_bypass.html" xlink:title="special_structure_bypass" target="_top">
<polygon fill="#ffffff" stroke="transparent" points="8,-37 8,-367 294,-367 294,-37 8,-37"/>
<polygon fill="#f5f5f5" stroke="transparent" points="10,-343 10,-365 292,-365 292,-343 10,-343"/>
<polygon fill="none" stroke="black" points="10,-343 10,-365 292,-365 292,-343 10,-343"/>
<text text-anchor="start" x="15" y="-352.2" font-family="Helvetica,sans-Serif" font-weight="bold" font-size="11.00">special_structure_bypass</text>
<text text-anchor="start" x="250" y="-351.2" font-family="Helvetica,sans-Serif" font-size="11.00">[table]</text>
<polygon fill="none" stroke="black" points="10,-321 10,-343 214,-343 214,-321 10,-321"/>
<image xlink:href="../../images/primaryKeys.png" width="11px" height="12px" preserveAspectRatio="xMinYMin meet" x="15" y="-338"/>
<text text-anchor="start" x="30" y="-329.2" font-family="Helvetica,sans-Serif" font-size="11.00">code</text>
<polygon fill="none" stroke="black" points="214,-321 214,-343 292,-343 292,-321 214,-321"/>
<text text-anchor="start" x="217" y="-329.2" font-family="Helvetica,sans-Serif" font-size="11.00">int4[10]</text>
<polygon fill="none" stroke="black" points="10,-299 10,-321 214,-321 214,-299 10,-299"/>
<text text-anchor="start" x="30" y="-307.2" font-family="Helvetica,sans-Serif" font-size="11.00">vsacode</text>
<polygon fill="none" stroke="black" points="214,-299 214,-321 292,-321 292,-299 214,-299"/>
<text text-anchor="start" x="217" y="-307.2" font-family="Helvetica,sans-Serif" font-size="11.00">int4[10]</text>
<polygon fill="none" stroke="black" points="10,-277 10,-299 214,-299 214,-277 10,-277"/>
<text text-anchor="start" x="30" y="-285.2" font-family="Helvetica,sans-Serif" font-size="11.00">value_en</text>
<polygon fill="none" stroke="black" points="214,-277 214,-299 292,-299 292,-277 214,-277"/>
<text text-anchor="start" x="217" y="-285.2" font-family="Helvetica,sans-Serif" font-size="11.00">varchar[100]</text>
<polygon fill="none" stroke="black" points="10,-255 10,-277 214,-277 214,-255 10,-255"/>
<text text-anchor="start" x="30" y="-263.2" font-family="Helvetica,sans-Serif" font-size="11.00">value_de</text>
<polygon fill="none" stroke="black" points="214,-255 214,-277 292,-277 292,-255 214,-255"/>
<text text-anchor="start" x="217" y="-263.2" font-family="Helvetica,sans-Serif" font-size="11.00">varchar[100]</text>
<polygon fill="none" stroke="black" points="10,-233 10,-255 214,-255 214,-233 10,-233"/>
<text text-anchor="start" x="30" y="-241.2" font-family="Helvetica,sans-Serif" font-size="11.00">value_fr</text>
<polygon fill="none" stroke="black" points="214,-233 214,-255 292,-255 292,-233 214,-233"/>
<text text-anchor="start" x="217" y="-241.2" font-family="Helvetica,sans-Serif" font-size="11.00">varchar[100]</text>
<polygon fill="none" stroke="black" points="10,-211 10,-233 214,-233 214,-211 10,-211"/>
<text text-anchor="start" x="30" y="-219.2" font-family="Helvetica,sans-Serif" font-size="11.00">value_it</text>
<polygon fill="none" stroke="black" points="214,-211 214,-233 292,-233 292,-211 214,-211"/>
<text text-anchor="start" x="217" y="-219.2" font-family="Helvetica,sans-Serif" font-size="11.00">varchar[100]</text>
<polygon fill="none" stroke="black" points="10,-189 10,-211 214,-211 214,-189 10,-189"/>
<text text-anchor="start" x="30" y="-197.2" font-family="Helvetica,sans-Serif" font-size="11.00">value_ro</text>
<polygon fill="none" stroke="black" points="214,-189 214,-211 292,-211 292,-189 214,-189"/>
<text text-anchor="start" x="217" y="-197.2" font-family="Helvetica,sans-Serif" font-size="11.00">varchar[100]</text>
<polygon fill="none" stroke="black" points="10,-167 10,-189 214,-189 214,-167 10,-167"/>
<text text-anchor="start" x="30" y="-175.2" font-family="Helvetica,sans-Serif" font-size="11.00">abbr_en</text>
<polygon fill="none" stroke="black" points="214,-167 214,-189 292,-189 292,-167 214,-167"/>
<text text-anchor="start" x="217" y="-175.2" font-family="Helvetica,sans-Serif" font-size="11.00">varchar[3]</text>
<polygon fill="none" stroke="black" points="10,-145 10,-167 214,-167 214,-145 10,-145"/>
<text text-anchor="start" x="30" y="-153.2" font-family="Helvetica,sans-Serif" font-size="11.00">abbr_de</text>
<polygon fill="none" stroke="black" points="214,-145 214,-167 292,-167 292,-145 214,-145"/>
<text text-anchor="start" x="217" y="-153.2" font-family="Helvetica,sans-Serif" font-size="11.00">varchar[3]</text>
<polygon fill="none" stroke="black" points="10,-123 10,-145 214,-145 214,-123 10,-123"/>
<text text-anchor="start" x="30" y="-131.2" font-family="Helvetica,sans-Serif" font-size="11.00">abbr_fr</text>
<polygon fill="none" stroke="black" points="214,-123 214,-145 292,-145 292,-123 214,-123"/>
<text text-anchor="start" x="217" y="-131.2" font-family="Helvetica,sans-Serif" font-size="11.00">varchar[3]</text>
<polygon fill="none" stroke="black" points="10,-101 10,-123 214,-123 214,-101 10,-101"/>
<text text-anchor="start" x="30" y="-109.2" font-family="Helvetica,sans-Serif" font-size="11.00">abbr_it</text>
<polygon fill="none" stroke="black" points="214,-101 214,-123 292,-123 292,-101 214,-101"/>
<text text-anchor="start" x="217" y="-109.2" font-family="Helvetica,sans-Serif" font-size="11.00">varchar[3]</text>
<polygon fill="none" stroke="black" points="10,-79 10,-101 214,-101 214,-79 10,-79"/>
<text text-anchor="start" x="30" y="-87.2" font-family="Helvetica,sans-Serif" font-size="11.00">abbr_ro</text>
<polygon fill="none" stroke="black" points="214,-79 214,-101 292,-101 292,-79 214,-79"/>
<text text-anchor="start" x="217" y="-87.2" font-family="Helvetica,sans-Serif" font-size="11.00">varchar[3]</text>
<polygon fill="none" stroke="black" points="10,-57 10,-79 214,-79 214,-57 10,-57"/>
<text text-anchor="start" x="30" y="-65.2" font-family="Helvetica,sans-Serif" font-size="11.00">active</text>
<polygon fill="none" stroke="black" points="214,-57 214,-79 292,-79 292,-57 214,-57"/>
<text text-anchor="start" x="217" y="-65.2" font-family="Helvetica,sans-Serif" font-size="11.00">bool[1]</text>
<polygon fill="#ffffff" stroke="transparent" points="10,-39 10,-57 292,-57 292,-39 10,-39"/>
<polygon fill="none" stroke="black" points="10,-39 10,-57 292,-57 292,-39 10,-39"/>
<polygon fill="#ffffff" stroke="transparent" points="11,-40 11,-56 109,-56 109,-40 11,-40"/>
<text text-anchor="start" x="13" y="-45.2" font-family="Helvetica,sans-Serif" font-size="11.00">&lt; 0</text>
<polygon fill="#ffffff" stroke="transparent" points="109,-40 109,-56 194,-56 194,-40 109,-40"/>
<text text-anchor="start" x="147.5" y="-45.2" font-family="Helvetica,sans-Serif" font-size="11.00"> &#160;</text>
<polygon fill="#ffffff" stroke="transparent" points="194,-40 194,-56 291,-56 291,-40 194,-40"/>
<text text-anchor="start" x="269" y="-45.2" font-family="Helvetica,sans-Serif" font-size="11.00">1 &gt;</text>
<polygon fill="black" stroke="black" points="109,-40 109,-56 109,-56 109,-40 109,-40"/>
<polygon fill="black" stroke="black" points="194,-40 194,-56 194,-56 194,-40 194,-40"/>
<polygon fill="none" stroke="black" stroke-width="2" points="9,-38 9,-366 293,-366 293,-38 9,-38"/>
</a>
</g>
</g>
<!-- tww_od.special_structure&#45;&gt;special_structure_bypass -->
<g id="edge1" class="edge">
<title>tww_od.special_structure:w&#45;&gt;special_structure_bypass:e</title>
<path fill="none" stroke="black" d="M327.84,-332C316.41,-332 309.16,-332 293,-332"/>
<polygon fill="black" stroke="black" points="334.5,-332 342.5,-335.6 338.5,-332 342.5,-332 342.5,-332 342.5,-332 338.5,-332 342.5,-328.4 334.5,-332 334.5,-332"/>
<ellipse fill="none" stroke="black" cx="331.3" cy="-332" rx="3.2" ry="3.2"/>
</g>
</g>
</svg>
