<?xml version="1.0" encoding="UTF-8" standalone="no"?>
<!DOCTYPE svg PUBLIC "-//W3C//DTD SVG 1.1//EN"
 "http://www.w3.org/Graphics/SVG/1.1/DTD/svg11.dtd">
<!-- Generated by graphviz version 2.47.1 (20210515.0534)
 -->
<!-- Title: oneDegreeRelationshipsDiagram Pages: 1 -->
<svg width="594pt" height="443pt"
 viewBox="0.00 0.00 594.00 443.00" xmlns="http://www.w3.org/2000/svg" xmlns:xlink="http://www.w3.org/1999/xlink">
<g id="graph0" class="graph" transform="scale(1 1) rotate(0) translate(4 439)">
<title>oneDegreeRelationshipsDiagram</title>
<polygon fill="#ffffff" stroke="transparent" points="-4,4 -4,-439 590,-439 590,4 -4,4"/>
<text text-anchor="middle" x="73.5" y="-7.2" font-family="Helvetica,sans-Serif" font-size="11.00">Generated by SchemaSpy</text>
<!-- tww_od.throttle_shut_off_unit -->
<g id="node1" class="node">
<title>tww_od.throttle_shut_off_unit</title>
<g id="a_node1"><a xlink:href="../../../tww_od/tables/throttle_shut_off_unit.html" xlink:title="tww_od.throttle_shut_off_unit" target="_top">
<polygon fill="#ffffff" stroke="transparent" points="313,-263 313,-431 578,-431 578,-263 313,-263"/>
<polygon fill="#f5f5f5" stroke="transparent" points="313.5,-409 313.5,-431 578.5,-431 578.5,-409 313.5,-409"/>
<polygon fill="none" stroke="black" points="313.5,-409 313.5,-431 578.5,-431 578.5,-409 313.5,-409"/>
<text text-anchor="start" x="318.5" y="-418.2" font-family="Helvetica,sans-Serif" font-weight="bold" font-size="11.00">tww_od.throttle_shut_off_unit</text>
<text text-anchor="start" x="539.5" y="-417.2" font-family="Helvetica,sans-Serif" font-size="11.00">[table]</text>
<polygon fill="none" stroke="black" points="313.5,-387 313.5,-409 578.5,-409 578.5,-387 313.5,-387"/>
<image xlink:href="../../images/foreignKeys.png" width="11px" height="12px" preserveAspectRatio="xMinYMin meet" x="318.5" y="-404"/>
<text text-anchor="start" x="333.5" y="-395.2" font-family="Helvetica,sans-Serif" font-size="11.00">actuation</text>
<polygon fill="none" stroke="black" points="313.5,-365 313.5,-387 578.5,-387 578.5,-365 313.5,-365"/>
<image xlink:href="../../images/foreignKeys.png" width="11px" height="12px" preserveAspectRatio="xMinYMin meet" x="318.5" y="-382"/>
<text text-anchor="start" x="333.5" y="-373.2" font-family="Helvetica,sans-Serif" font-size="11.00">adjustability</text>
<polygon fill="none" stroke="black" points="313.5,-343 313.5,-365 578.5,-365 578.5,-343 313.5,-343"/>
<image xlink:href="../../images/foreignKeys.png" width="11px" height="12px" preserveAspectRatio="xMinYMin meet" x="318.5" y="-360"/>
<text text-anchor="start" x="333.5" y="-351.2" font-family="Helvetica,sans-Serif" font-size="11.00">control</text>
<polygon fill="none" stroke="black" points="313.5,-321 313.5,-343 578.5,-343 578.5,-321 313.5,-321"/>
<image xlink:href="../../images/foreignKeys.png" width="11px" height="12px" preserveAspectRatio="xMinYMin meet" x="318.5" y="-338"/>
<text text-anchor="start" x="333.5" y="-329.2" font-family="Helvetica,sans-Serif" font-size="11.00">kind</text>
<polygon fill="none" stroke="black" points="313.5,-299 313.5,-321 578.5,-321 578.5,-299 313.5,-299"/>
<image xlink:href="../../images/foreignKeys.png" width="11px" height="12px" preserveAspectRatio="xMinYMin meet" x="318.5" y="-316"/>
<text text-anchor="start" x="333.5" y="-307.2" font-family="Helvetica,sans-Serif" font-size="11.00">signal_transmission</text>
<polygon fill="none" stroke="black" points="313.5,-281 313.5,-299 578.5,-299 578.5,-281 313.5,-281"/>
<text text-anchor="start" x="316.5" y="-287.2" font-family="Helvetica,sans-Serif" font-size="11.00">...</text>
<polygon fill="#ffffff" stroke="transparent" points="313.5,-263 313.5,-281 430.5,-281 430.5,-263 313.5,-263"/>
<polygon fill="none" stroke="black" points="313.5,-263 313.5,-281 430.5,-281 430.5,-263 313.5,-263"/>
<text text-anchor="start" x="316.5" y="-269.2" font-family="Helvetica,sans-Serif" font-size="11.00">&lt; 5</text>
<polygon fill="#ffffff" stroke="transparent" points="430.5,-263 430.5,-281 517.5,-281 517.5,-263 430.5,-263"/>
<polygon fill="none" stroke="black" points="430.5,-263 430.5,-281 517.5,-281 517.5,-263 430.5,-263"/>
<text text-anchor="start" x="480.5" y="-269.2" font-family="Helvetica,sans-Serif" font-size="11.00">0 rows</text>
<polygon fill="#ffffff" stroke="transparent" points="517.5,-263 517.5,-281 578.5,-281 578.5,-263 517.5,-263"/>
<polygon fill="none" stroke="black" points="517.5,-263 517.5,-281 578.5,-281 578.5,-263 517.5,-263"/>
<text text-anchor="start" x="568.5" y="-269.2" font-family="Helvetica,sans-Serif" font-size="11.00"> &#160;</text>
</a>
</g>
</g>
<!-- throttle_shut_off_unit_kind -->
<g id="node2" class="node">
<title>throttle_shut_off_unit_kind</title>
<g id="a_node2"><a xlink:href="../../tables/throttle_shut_off_unit_kind.html" xlink:title="throttle_shut_off_unit_kind" target="_top">
<polygon fill="#ffffff" stroke="transparent" points="8,-37 8,-367 264,-367 264,-37 8,-37"/>
<polygon fill="#f5f5f5" stroke="transparent" points="10,-343 10,-365 262,-365 262,-343 10,-343"/>
<polygon fill="none" stroke="black" points="10,-343 10,-365 262,-365 262,-343 10,-343"/>
<text text-anchor="start" x="15" y="-352.2" font-family="Helvetica,sans-Serif" font-weight="bold" font-size="11.00">throttle_shut_off_unit_kind</text>
<text text-anchor="start" x="223" y="-351.2" font-family="Helvetica,sans-Serif" font-size="11.00">[table]</text>
<polygon fill="none" stroke="black" points="10,-321 10,-343 192,-343 192,-321 10,-321"/>
<image xlink:href="../../images/primaryKeys.png" width="11px" height="12px" preserveAspectRatio="xMinYMin meet" x="15" y="-338"/>
<text text-anchor="start" x="30" y="-329.2" font-family="Helvetica,sans-Serif" font-size="11.00">code</text>
<polygon fill="none" stroke="black" points="192,-321 192,-343 262,-343 262,-321 192,-321"/>
<text text-anchor="start" x="195" y="-329.2" font-family="Helvetica,sans-Serif" font-size="11.00">int4[10]</text>
<polygon fill="none" stroke="black" points="10,-299 10,-321 192,-321 192,-299 10,-299"/>
<text text-anchor="start" x="30" y="-307.2" font-family="Helvetica,sans-Serif" font-size="11.00">vsacode</text>
<polygon fill="none" stroke="black" points="192,-299 192,-321 262,-321 262,-299 192,-299"/>
<text text-anchor="start" x="195" y="-307.2" font-family="Helvetica,sans-Serif" font-size="11.00">int4[10]</text>
<polygon fill="none" stroke="black" points="10,-277 10,-299 192,-299 192,-277 10,-277"/>
<text text-anchor="start" x="30" y="-285.2" font-family="Helvetica,sans-Serif" font-size="11.00">value_en</text>
<polygon fill="none" stroke="black" points="192,-277 192,-299 262,-299 262,-277 192,-277"/>
<text text-anchor="start" x="195" y="-285.2" font-family="Helvetica,sans-Serif" font-size="11.00">varchar[100]</text>
<polygon fill="none" stroke="black" points="10,-255 10,-277 192,-277 192,-255 10,-255"/>
<text text-anchor="start" x="30" y="-263.2" font-family="Helvetica,sans-Serif" font-size="11.00">value_de</text>
<polygon fill="none" stroke="black" points="192,-255 192,-277 262,-277 262,-255 192,-255"/>
<text text-anchor="start" x="195" y="-263.2" font-family="Helvetica,sans-Serif" font-size="11.00">varchar[100]</text>
<polygon fill="none" stroke="black" points="10,-233 10,-255 192,-255 192,-233 10,-233"/>
<text text-anchor="start" x="30" y="-241.2" font-family="Helvetica,sans-Serif" font-size="11.00">value_fr</text>
<polygon fill="none" stroke="black" points="192,-233 192,-255 262,-255 262,-233 192,-233"/>
<text text-anchor="start" x="195" y="-241.2" font-family="Helvetica,sans-Serif" font-size="11.00">varchar[100]</text>
<polygon fill="none" stroke="black" points="10,-211 10,-233 192,-233 192,-211 10,-211"/>
<text text-anchor="start" x="30" y="-219.2" font-family="Helvetica,sans-Serif" font-size="11.00">value_it</text>
<polygon fill="none" stroke="black" points="192,-211 192,-233 262,-233 262,-211 192,-211"/>
<text text-anchor="start" x="195" y="-219.2" font-family="Helvetica,sans-Serif" font-size="11.00">varchar[100]</text>
<polygon fill="none" stroke="black" points="10,-189 10,-211 192,-211 192,-189 10,-189"/>
<text text-anchor="start" x="30" y="-197.2" font-family="Helvetica,sans-Serif" font-size="11.00">value_ro</text>
<polygon fill="none" stroke="black" points="192,-189 192,-211 262,-211 262,-189 192,-189"/>
<text text-anchor="start" x="195" y="-197.2" font-family="Helvetica,sans-Serif" font-size="11.00">varchar[100]</text>
<polygon fill="none" stroke="black" points="10,-167 10,-189 192,-189 192,-167 10,-167"/>
<text text-anchor="start" x="30" y="-175.2" font-family="Helvetica,sans-Serif" font-size="11.00">abbr_en</text>
<polygon fill="none" stroke="black" points="192,-167 192,-189 262,-189 262,-167 192,-167"/>
<text text-anchor="start" x="195" y="-175.2" font-family="Helvetica,sans-Serif" font-size="11.00">varchar[3]</text>
<polygon fill="none" stroke="black" points="10,-145 10,-167 192,-167 192,-145 10,-145"/>
<text text-anchor="start" x="30" y="-153.2" font-family="Helvetica,sans-Serif" font-size="11.00">abbr_de</text>
<polygon fill="none" stroke="black" points="192,-145 192,-167 262,-167 262,-145 192,-145"/>
<text text-anchor="start" x="195" y="-153.2" font-family="Helvetica,sans-Serif" font-size="11.00">varchar[3]</text>
<polygon fill="none" stroke="black" points="10,-123 10,-145 192,-145 192,-123 10,-123"/>
<text text-anchor="start" x="30" y="-131.2" font-family="Helvetica,sans-Serif" font-size="11.00">abbr_fr</text>
<polygon fill="none" stroke="black" points="192,-123 192,-145 262,-145 262,-123 192,-123"/>
<text text-anchor="start" x="195" y="-131.2" font-family="Helvetica,sans-Serif" font-size="11.00">varchar[3]</text>
<polygon fill="none" stroke="black" points="10,-101 10,-123 192,-123 192,-101 10,-101"/>
<text text-anchor="start" x="30" y="-109.2" font-family="Helvetica,sans-Serif" font-size="11.00">abbr_it</text>
<polygon fill="none" stroke="black" points="192,-101 192,-123 262,-123 262,-101 192,-101"/>
<text text-anchor="start" x="195" y="-109.2" font-family="Helvetica,sans-Serif" font-size="11.00">varchar[3]</text>
<polygon fill="none" stroke="black" points="10,-79 10,-101 192,-101 192,-79 10,-79"/>
<text text-anchor="start" x="30" y="-87.2" font-family="Helvetica,sans-Serif" font-size="11.00">abbr_ro</text>
<polygon fill="none" stroke="black" points="192,-79 192,-101 262,-101 262,-79 192,-79"/>
<text text-anchor="start" x="195" y="-87.2" font-family="Helvetica,sans-Serif" font-size="11.00">varchar[3]</text>
<polygon fill="none" stroke="black" points="10,-57 10,-79 192,-79 192,-57 10,-57"/>
<text text-anchor="start" x="30" y="-65.2" font-family="Helvetica,sans-Serif" font-size="11.00">active</text>
<polygon fill="none" stroke="black" points="192,-57 192,-79 262,-79 262,-57 192,-57"/>
<text text-anchor="start" x="195" y="-65.2" font-family="Helvetica,sans-Serif" font-size="11.00">bool[1]</text>
<polygon fill="#ffffff" stroke="transparent" points="10,-39 10,-57 105,-57 105,-39 10,-39"/>
<polygon fill="none" stroke="black" points="10,-39 10,-57 105,-57 105,-39 10,-39"/>
<text text-anchor="start" x="13" y="-45.2" font-family="Helvetica,sans-Serif" font-size="11.00">&lt; 0</text>
<polygon fill="#ffffff" stroke="transparent" points="105,-39 105,-57 192,-57 192,-39 105,-39"/>
<polygon fill="none" stroke="black" points="105,-39 105,-57 192,-57 192,-39 105,-39"/>
<text text-anchor="start" x="182" y="-45.2" font-family="Helvetica,sans-Serif" font-size="11.00"> &#160;</text>
<polygon fill="#ffffff" stroke="transparent" points="192,-39 192,-57 262,-57 262,-39 192,-39"/>
<polygon fill="none" stroke="black" points="192,-39 192,-57 262,-57 262,-39 192,-39"/>
<text text-anchor="start" x="243" y="-45.2" font-family="Helvetica,sans-Serif" font-size="11.00">1 &gt;</text>
<polygon fill="none" stroke="black" stroke-width="2" points="9,-38 9,-366 263,-366 263,-38 9,-38"/>
</a>
</g>
</g>
<!-- tww_od.throttle_shut_off_unit&#45;&gt;throttle_shut_off_unit_kind -->
<g id="edge1" class="edge">
<title>tww_od.throttle_shut_off_unit:w&#45;&gt;throttle_shut_off_unit_kind:e</title>
<path fill="none" stroke="black" d="M297.84,-332C286.41,-332 279.16,-332 263,-332"/>
<polygon fill="black" stroke="black" points="304.5,-332 312.5,-335.6 308.5,-332 312.5,-332 312.5,-332 312.5,-332 308.5,-332 312.5,-328.4 304.5,-332 304.5,-332"/>
<ellipse fill="none" stroke="black" cx="301.3" cy="-332" rx="3.2" ry="3.2"/>
</g>
</g>
</svg>
