<?xml version="1.0" encoding="UTF-8" standalone="no"?>
<!DOCTYPE svg PUBLIC "-//W3C//DTD SVG 1.1//EN"
 "http://www.w3.org/Graphics/SVG/1.1/DTD/svg11.dtd">
<!-- Generated by graphviz version 2.47.1 (20210515.0534)
 -->
<!-- Title: oneDegreeRelationshipsDiagram Pages: 1 -->
<svg width="635pt" height="399pt"
 viewBox="0.00 0.00 635.00 399.00" xmlns="http://www.w3.org/2000/svg" xmlns:xlink="http://www.w3.org/1999/xlink">
<g id="graph0" class="graph" transform="scale(1 1) rotate(0) translate(4 395)">
<title>oneDegreeRelationshipsDiagram</title>
<polygon fill="#ffffff" stroke="transparent" points="-4,4 -4,-395 631,-395 631,4 -4,4"/>
<text text-anchor="middle" x="73.5" y="-7.2" font-family="Helvetica,sans-Serif" font-size="11.00">Generated by SchemaSpy</text>
<!-- tww_od.wastewater_structure_text -->
<g id="node1" class="node">
<title>tww_od.wastewater_structure_text</title>
<g id="a_node1"><a xlink:href="../../../tww_od/tables/wastewater_structure_text.html" xlink:title="tww_od.wastewater_structure_text" target="_top">
<polygon fill="#ffffff" stroke="transparent" points="365,-263 365,-387 619,-387 619,-263 365,-263"/>
<polygon fill="#f5f5f5" stroke="transparent" points="365,-365 365,-387 619,-387 619,-365 365,-365"/>
<polygon fill="none" stroke="black" points="365,-365 365,-387 619,-387 619,-365 365,-365"/>
<text text-anchor="start" x="370" y="-374.2" font-family="Helvetica,sans-Serif" font-weight="bold" font-size="11.00">tww_od.wastewater_structure_text</text>
<text text-anchor="start" x="580" y="-373.2" font-family="Helvetica,sans-Serif" font-size="11.00">[table]</text>
<polygon fill="none" stroke="black" points="365,-343 365,-365 619,-365 619,-343 365,-343"/>
<image xlink:href="../../images/foreignKeys.png" width="11px" height="12px" preserveAspectRatio="xMinYMin meet" x="370" y="-360"/>
<text text-anchor="start" x="421" y="-351.2" font-family="Helvetica,sans-Serif" font-size="11.00">plantype</text>
<polygon fill="none" stroke="black" points="365,-321 365,-343 619,-343 619,-321 365,-321"/>
<image xlink:href="../../images/foreignKeys.png" width="11px" height="12px" preserveAspectRatio="xMinYMin meet" x="370" y="-338"/>
<text text-anchor="start" x="421" y="-329.2" font-family="Helvetica,sans-Serif" font-size="11.00">texthali</text>
<polygon fill="none" stroke="black" points="365,-299 365,-321 619,-321 619,-299 365,-299"/>
<image xlink:href="../../images/foreignKeys.png" width="11px" height="12px" preserveAspectRatio="xMinYMin meet" x="370" y="-316"/>
<text text-anchor="start" x="421" y="-307.2" font-family="Helvetica,sans-Serif" font-size="11.00">textvali</text>
<polygon fill="none" stroke="black" points="365,-281 365,-299 619,-299 619,-281 365,-281"/>
<text text-anchor="start" x="368" y="-287.2" font-family="Helvetica,sans-Serif" font-size="11.00">...</text>
<polygon fill="#ffffff" stroke="transparent" points="365,-263 365,-281 476,-281 476,-263 365,-263"/>
<polygon fill="none" stroke="black" points="365,-263 365,-281 476,-281 476,-263 365,-263"/>
<text text-anchor="start" x="368" y="-269.2" font-family="Helvetica,sans-Serif" font-size="11.00">&lt; 3</text>
<polygon fill="#ffffff" stroke="transparent" points="476,-263 476,-281 561,-281 561,-263 476,-263"/>
<polygon fill="none" stroke="black" points="476,-263 476,-281 561,-281 561,-263 476,-263"/>
<text text-anchor="start" x="524" y="-269.2" font-family="Helvetica,sans-Serif" font-size="11.00">0 rows</text>
<polygon fill="#ffffff" stroke="transparent" points="561,-263 561,-281 619,-281 619,-263 561,-263"/>
<polygon fill="none" stroke="black" points="561,-263 561,-281 619,-281 619,-263 561,-263"/>
<text text-anchor="start" x="609" y="-269.2" font-family="Helvetica,sans-Serif" font-size="11.00"> &#160;</text>
</a>
</g>
</g>
<!-- wastewater_structure_text_texthali -->
<g id="node2" class="node">
<title>wastewater_structure_text_texthali</title>
<g id="a_node2"><a xlink:href="../../tables/wastewater_structure_text_texthali.html" xlink:title="wastewater_structure_text_texthali" target="_top">
<polygon fill="#ffffff" stroke="transparent" points="8,-37 8,-367 316,-367 316,-37 8,-37"/>
<polygon fill="#f5f5f5" stroke="transparent" points="10,-343 10,-365 314,-365 314,-343 10,-343"/>
<polygon fill="none" stroke="black" points="10,-343 10,-365 314,-365 314,-343 10,-343"/>
<text text-anchor="start" x="15" y="-352.2" font-family="Helvetica,sans-Serif" font-weight="bold" font-size="11.00">wastewater_structure_text_texthali</text>
<text text-anchor="start" x="275" y="-351.2" font-family="Helvetica,sans-Serif" font-size="11.00">[table]</text>
<polygon fill="none" stroke="black" points="10,-321 10,-343 244,-343 244,-321 10,-321"/>
<image xlink:href="../../images/primaryKeys.png" width="11px" height="12px" preserveAspectRatio="xMinYMin meet" x="15" y="-338"/>
<text text-anchor="start" x="30" y="-329.2" font-family="Helvetica,sans-Serif" font-size="11.00">code</text>
<polygon fill="none" stroke="black" points="244,-321 244,-343 314,-343 314,-321 244,-321"/>
<text text-anchor="start" x="247" y="-329.2" font-family="Helvetica,sans-Serif" font-size="11.00">int4[10]</text>
<polygon fill="none" stroke="black" points="10,-299 10,-321 244,-321 244,-299 10,-299"/>
<text text-anchor="start" x="30" y="-307.2" font-family="Helvetica,sans-Serif" font-size="11.00">vsacode</text>
<polygon fill="none" stroke="black" points="244,-299 244,-321 314,-321 314,-299 244,-299"/>
<text text-anchor="start" x="247" y="-307.2" font-family="Helvetica,sans-Serif" font-size="11.00">int4[10]</text>
<polygon fill="none" stroke="black" points="10,-277 10,-299 244,-299 244,-277 10,-277"/>
<text text-anchor="start" x="30" y="-285.2" font-family="Helvetica,sans-Serif" font-size="11.00">value_en</text>
<polygon fill="none" stroke="black" points="244,-277 244,-299 314,-299 314,-277 244,-277"/>
<text text-anchor="start" x="247" y="-285.2" font-family="Helvetica,sans-Serif" font-size="11.00">varchar[100]</text>
<polygon fill="none" stroke="black" points="10,-255 10,-277 244,-277 244,-255 10,-255"/>
<text text-anchor="start" x="30" y="-263.2" font-family="Helvetica,sans-Serif" font-size="11.00">value_de</text>
<polygon fill="none" stroke="black" points="244,-255 244,-277 314,-277 314,-255 244,-255"/>
<text text-anchor="start" x="247" y="-263.2" font-family="Helvetica,sans-Serif" font-size="11.00">varchar[100]</text>
<polygon fill="none" stroke="black" points="10,-233 10,-255 244,-255 244,-233 10,-233"/>
<text text-anchor="start" x="30" y="-241.2" font-family="Helvetica,sans-Serif" font-size="11.00">value_fr</text>
<polygon fill="none" stroke="black" points="244,-233 244,-255 314,-255 314,-233 244,-233"/>
<text text-anchor="start" x="247" y="-241.2" font-family="Helvetica,sans-Serif" font-size="11.00">varchar[100]</text>
<polygon fill="none" stroke="black" points="10,-211 10,-233 244,-233 244,-211 10,-211"/>
<text text-anchor="start" x="30" y="-219.2" font-family="Helvetica,sans-Serif" font-size="11.00">value_it</text>
<polygon fill="none" stroke="black" points="244,-211 244,-233 314,-233 314,-211 244,-211"/>
<text text-anchor="start" x="247" y="-219.2" font-family="Helvetica,sans-Serif" font-size="11.00">varchar[100]</text>
<polygon fill="none" stroke="black" points="10,-189 10,-211 244,-211 244,-189 10,-189"/>
<text text-anchor="start" x="30" y="-197.2" font-family="Helvetica,sans-Serif" font-size="11.00">value_ro</text>
<polygon fill="none" stroke="black" points="244,-189 244,-211 314,-211 314,-189 244,-189"/>
<text text-anchor="start" x="247" y="-197.2" font-family="Helvetica,sans-Serif" font-size="11.00">varchar[100]</text>
<polygon fill="none" stroke="black" points="10,-167 10,-189 244,-189 244,-167 10,-167"/>
<text text-anchor="start" x="30" y="-175.2" font-family="Helvetica,sans-Serif" font-size="11.00">abbr_en</text>
<polygon fill="none" stroke="black" points="244,-167 244,-189 314,-189 314,-167 244,-167"/>
<text text-anchor="start" x="247" y="-175.2" font-family="Helvetica,sans-Serif" font-size="11.00">varchar[3]</text>
<polygon fill="none" stroke="black" points="10,-145 10,-167 244,-167 244,-145 10,-145"/>
<text text-anchor="start" x="30" y="-153.2" font-family="Helvetica,sans-Serif" font-size="11.00">abbr_de</text>
<polygon fill="none" stroke="black" points="244,-145 244,-167 314,-167 314,-145 244,-145"/>
<text text-anchor="start" x="247" y="-153.2" font-family="Helvetica,sans-Serif" font-size="11.00">varchar[3]</text>
<polygon fill="none" stroke="black" points="10,-123 10,-145 244,-145 244,-123 10,-123"/>
<text text-anchor="start" x="30" y="-131.2" font-family="Helvetica,sans-Serif" font-size="11.00">abbr_fr</text>
<polygon fill="none" stroke="black" points="244,-123 244,-145 314,-145 314,-123 244,-123"/>
<text text-anchor="start" x="247" y="-131.2" font-family="Helvetica,sans-Serif" font-size="11.00">varchar[3]</text>
<polygon fill="none" stroke="black" points="10,-101 10,-123 244,-123 244,-101 10,-101"/>
<text text-anchor="start" x="30" y="-109.2" font-family="Helvetica,sans-Serif" font-size="11.00">abbr_it</text>
<polygon fill="none" stroke="black" points="244,-101 244,-123 314,-123 314,-101 244,-101"/>
<text text-anchor="start" x="247" y="-109.2" font-family="Helvetica,sans-Serif" font-size="11.00">varchar[3]</text>
<polygon fill="none" stroke="black" points="10,-79 10,-101 244,-101 244,-79 10,-79"/>
<text text-anchor="start" x="30" y="-87.2" font-family="Helvetica,sans-Serif" font-size="11.00">abbr_ro</text>
<polygon fill="none" stroke="black" points="244,-79 244,-101 314,-101 314,-79 244,-79"/>
<text text-anchor="start" x="247" y="-87.2" font-family="Helvetica,sans-Serif" font-size="11.00">varchar[3]</text>
<polygon fill="none" stroke="black" points="10,-57 10,-79 244,-79 244,-57 10,-57"/>
<text text-anchor="start" x="30" y="-65.2" font-family="Helvetica,sans-Serif" font-size="11.00">active</text>
<polygon fill="none" stroke="black" points="244,-57 244,-79 314,-79 314,-57 244,-57"/>
<text text-anchor="start" x="247" y="-65.2" font-family="Helvetica,sans-Serif" font-size="11.00">bool[1]</text>
<polygon fill="#ffffff" stroke="transparent" points="10,-39 10,-57 131,-57 131,-39 10,-39"/>
<polygon fill="none" stroke="black" points="10,-39 10,-57 131,-57 131,-39 10,-39"/>
<text text-anchor="start" x="13" y="-45.2" font-family="Helvetica,sans-Serif" font-size="11.00">&lt; 0</text>
<polygon fill="#ffffff" stroke="transparent" points="131,-39 131,-57 244,-57 244,-39 131,-39"/>
<polygon fill="none" stroke="black" points="131,-39 131,-57 244,-57 244,-39 131,-39"/>
<text text-anchor="start" x="234" y="-45.2" font-family="Helvetica,sans-Serif" font-size="11.00"> &#160;</text>
<polygon fill="#ffffff" stroke="transparent" points="244,-39 244,-57 314,-57 314,-39 244,-39"/>
<polygon fill="none" stroke="black" points="244,-39 244,-57 314,-57 314,-39 244,-39"/>
<text text-anchor="start" x="295" y="-45.2" font-family="Helvetica,sans-Serif" font-size="11.00">1 &gt;</text>
<polygon fill="none" stroke="black" stroke-width="2" points="9,-38 9,-366 315,-366 315,-38 9,-38"/>
</a>
</g>
</g>
<!-- tww_od.wastewater_structure_text&#45;&gt;wastewater_structure_text_texthali -->
<g id="edge1" class="edge">
<title>tww_od.wastewater_structure_text:w&#45;&gt;wastewater_structure_text_texthali:e</title>
<path fill="none" stroke="black" d="M349.49,-332C338.18,-332 330.99,-332 315,-332"/>
<polygon fill="black" stroke="black" points="356,-332 364,-335.6 360,-332 364,-332 364,-332 364,-332 360,-332 364,-328.4 356,-332 356,-332"/>
<ellipse fill="none" stroke="black" cx="352.8" cy="-332" rx="3.2" ry="3.2"/>
</g>
</g>
</svg>
