<?xml version="1.0" encoding="UTF-8" standalone="no"?>
<!DOCTYPE svg PUBLIC "-//W3C//DTD SVG 1.1//EN"
 "http://www.w3.org/Graphics/SVG/1.1/DTD/svg11.dtd">
<!-- Generated by graphviz version 2.43.0 (0)
 -->
<!-- Title: oneDegreeRelationshipsDiagram Pages: 1 -->
<svg width="777pt" height="619pt"
 viewBox="0.00 0.00 777.00 619.00" xmlns="http://www.w3.org/2000/svg" xmlns:xlink="http://www.w3.org/1999/xlink">
<g id="graph0" class="graph" transform="scale(1 1) rotate(0) translate(4 615)">
<title>oneDegreeRelationshipsDiagram</title>
<polygon fill="#ffffff" stroke="transparent" points="-4,4 -4,-615 773,-615 773,4 -4,4"/>
<text text-anchor="middle" x="79.5" y="-7.2" font-family="Helvetica,sans-Serif" font-size="11.00">Generated by SchemaSpy</text>
<!-- tww_od.wastewater_node -->
<g id="node1" class="node">
<title>tww_od.wastewater_node</title>
<g id="a_node1"><a xlink:href="../../../tww_od/tables/wastewater_node.html" xlink:title="tww_od.wastewater_node" target="_top">
<polygon fill="#ffffff" stroke="transparent" points="526,-505 526,-607 761,-607 761,-505 526,-505"/>
<polygon fill="#f5f5f5" stroke="transparent" points="526.5,-585 526.5,-607 761.5,-607 761.5,-585 526.5,-585"/>
<polygon fill="none" stroke="black" points="526.5,-585 526.5,-607 761.5,-607 761.5,-585 526.5,-585"/>
<text text-anchor="start" x="531.5" y="-594.2" font-family="Helvetica,sans-Serif" font-weight="bold" font-size="11.00">tww_od.wastewater_node</text>
<text text-anchor="start" x="719.5" y="-593.2" font-family="Helvetica,sans-Serif" font-size="11.00">[table]</text>
<polygon fill="none" stroke="black" points="526.5,-563 526.5,-585 761.5,-585 761.5,-563 526.5,-563"/>
<image xlink:href="../../images/foreignKeys.png" width="11px" height="12px" preserveAspectRatio="xMinYMin meet" x="531.5" y="-580"/>
<text text-anchor="start" x="552.5" y="-571.2" font-family="Helvetica,sans-Serif" font-size="11.00">elevation_accuracy</text>
<polygon fill="none" stroke="black" points="526.5,-541 526.5,-563 761.5,-563 761.5,-541 526.5,-541"/>
<image xlink:href="../../images/foreignKeys.png" width="11px" height="12px" preserveAspectRatio="xMinYMin meet" x="531.5" y="-558"/>
<text text-anchor="start" x="552.5" y="-549.2" font-family="Helvetica,sans-Serif" font-size="11.00">function_node_amelioration</text>
<polygon fill="none" stroke="black" points="526.5,-523 526.5,-541 761.5,-541 761.5,-523 526.5,-523"/>
<text text-anchor="start" x="529.5" y="-529.2" font-family="Helvetica,sans-Serif" font-size="11.00">...</text>
<polygon fill="#ffffff" stroke="transparent" points="526.5,-505 526.5,-523 761.5,-523 761.5,-505 526.5,-505"/>
<polygon fill="none" stroke="black" points="526.5,-505 526.5,-523 761.5,-523 761.5,-505 526.5,-505"/>
<polygon fill="#ffffff" stroke="transparent" points="527.5,-506 527.5,-522 603.5,-522 603.5,-506 527.5,-506"/>
<text text-anchor="start" x="529.5" y="-511.2" font-family="Helvetica,sans-Serif" font-size="11.00">&lt; 2</text>
<polygon fill="#ffffff" stroke="transparent" points="603.5,-506 603.5,-522 696.5,-522 696.5,-506 603.5,-506"/>
<text text-anchor="start" x="631.5" y="-511.2" font-family="Helvetica,sans-Serif" font-size="11.00">0 rows</text>
<polygon fill="#ffffff" stroke="transparent" points="696.5,-506 696.5,-522 760.5,-522 760.5,-506 696.5,-506"/>
<text text-anchor="start" x="750.5" y="-511.2" font-family="Helvetica,sans-Serif" font-size="11.00"> &#160;</text>
<polygon fill="black" stroke="black" points="603.5,-506 603.5,-522 603.5,-522 603.5,-506 603.5,-506"/>
<polygon fill="black" stroke="black" points="696.5,-506 696.5,-522 696.5,-522 696.5,-506 696.5,-506"/>
</a>
</g>
</g>
<!-- wastewater_node_function_node_amelioration -->
<g id="node2" class="node">
<title>wastewater_node_function_node_amelioration</title>
<g id="a_node2"><a xlink:href="../../tables/wastewater_node_function_node_a_42cb660d.html" xlink:title="wastewater_node_function_node_amelioration" target="_top">
<polygon fill="#ffffff" stroke="transparent" points="8,-37 8,-587 477,-587 477,-37 8,-37"/>
<polygon fill="#f5f5f5" stroke="transparent" points="10.5,-563 10.5,-585 475.5,-585 475.5,-563 10.5,-563"/>
<polygon fill="none" stroke="black" points="10.5,-563 10.5,-585 475.5,-585 475.5,-563 10.5,-563"/>
<text text-anchor="start" x="15.5" y="-572.2" font-family="Helvetica,sans-Serif" font-weight="bold" font-size="11.00">wastewater_node_function_node_amelioration</text>
<text text-anchor="start" x="433.5" y="-571.2" font-family="Helvetica,sans-Serif" font-size="11.00">[table]</text>
<polygon fill="none" stroke="black" points="10.5,-541 10.5,-563 369.5,-563 369.5,-541 10.5,-541"/>
<image xlink:href="../../images/primaryKeys.png" width="11px" height="12px" preserveAspectRatio="xMinYMin meet" x="15.5" y="-558"/>
<text text-anchor="start" x="30.5" y="-549.2" font-family="Helvetica,sans-Serif" font-size="11.00">code</text>
<polygon fill="none" stroke="black" points="369.5,-541 369.5,-563 475.5,-563 475.5,-541 369.5,-541"/>
<text text-anchor="start" x="372.5" y="-549.2" font-family="Helvetica,sans-Serif" font-size="11.00">int4[10]</text>
<polygon fill="none" stroke="black" points="10.5,-519 10.5,-541 369.5,-541 369.5,-519 10.5,-519"/>
<text text-anchor="start" x="30.5" y="-527.2" font-family="Helvetica,sans-Serif" font-size="11.00">vsacode</text>
<polygon fill="none" stroke="black" points="369.5,-519 369.5,-541 475.5,-541 475.5,-519 369.5,-519"/>
<text text-anchor="start" x="372.5" y="-527.2" font-family="Helvetica,sans-Serif" font-size="11.00">int4[10]</text>
<polygon fill="none" stroke="black" points="10.5,-497 10.5,-519 369.5,-519 369.5,-497 10.5,-497"/>
<text text-anchor="start" x="30.5" y="-505.2" font-family="Helvetica,sans-Serif" font-size="11.00">value_en</text>
<polygon fill="none" stroke="black" points="369.5,-497 369.5,-519 475.5,-519 475.5,-497 369.5,-497"/>
<text text-anchor="start" x="372.5" y="-505.2" font-family="Helvetica,sans-Serif" font-size="11.00">varchar[100]</text>
<polygon fill="none" stroke="black" points="10.5,-475 10.5,-497 369.5,-497 369.5,-475 10.5,-475"/>
<text text-anchor="start" x="30.5" y="-483.2" font-family="Helvetica,sans-Serif" font-size="11.00">value_de</text>
<polygon fill="none" stroke="black" points="369.5,-475 369.5,-497 475.5,-497 475.5,-475 369.5,-475"/>
<text text-anchor="start" x="372.5" y="-483.2" font-family="Helvetica,sans-Serif" font-size="11.00">varchar[100]</text>
<polygon fill="none" stroke="black" points="10.5,-453 10.5,-475 369.5,-475 369.5,-453 10.5,-453"/>
<text text-anchor="start" x="30.5" y="-461.2" font-family="Helvetica,sans-Serif" font-size="11.00">value_fr</text>
<polygon fill="none" stroke="black" points="369.5,-453 369.5,-475 475.5,-475 475.5,-453 369.5,-453"/>
<text text-anchor="start" x="372.5" y="-461.2" font-family="Helvetica,sans-Serif" font-size="11.00">varchar[100]</text>
<polygon fill="none" stroke="black" points="10.5,-431 10.5,-453 369.5,-453 369.5,-431 10.5,-431"/>
<text text-anchor="start" x="30.5" y="-439.2" font-family="Helvetica,sans-Serif" font-size="11.00">value_it</text>
<polygon fill="none" stroke="black" points="369.5,-431 369.5,-453 475.5,-453 475.5,-431 369.5,-431"/>
<text text-anchor="start" x="372.5" y="-439.2" font-family="Helvetica,sans-Serif" font-size="11.00">varchar[100]</text>
<polygon fill="none" stroke="black" points="10.5,-409 10.5,-431 369.5,-431 369.5,-409 10.5,-409"/>
<text text-anchor="start" x="30.5" y="-417.2" font-family="Helvetica,sans-Serif" font-size="11.00">value_ro</text>
<polygon fill="none" stroke="black" points="369.5,-409 369.5,-431 475.5,-431 475.5,-409 369.5,-409"/>
<text text-anchor="start" x="372.5" y="-417.2" font-family="Helvetica,sans-Serif" font-size="11.00">varchar[100]</text>
<polygon fill="none" stroke="black" points="10.5,-387 10.5,-409 369.5,-409 369.5,-387 10.5,-387"/>
<text text-anchor="start" x="30.5" y="-395.2" font-family="Helvetica,sans-Serif" font-size="11.00">abbr_en</text>
<polygon fill="none" stroke="black" points="369.5,-387 369.5,-409 475.5,-409 475.5,-387 369.5,-387"/>
<text text-anchor="start" x="372.5" y="-395.2" font-family="Helvetica,sans-Serif" font-size="11.00">varchar[3]</text>
<polygon fill="none" stroke="black" points="10.5,-365 10.5,-387 369.5,-387 369.5,-365 10.5,-365"/>
<text text-anchor="start" x="30.5" y="-373.2" font-family="Helvetica,sans-Serif" font-size="11.00">abbr_de</text>
<polygon fill="none" stroke="black" points="369.5,-365 369.5,-387 475.5,-387 475.5,-365 369.5,-365"/>
<text text-anchor="start" x="372.5" y="-373.2" font-family="Helvetica,sans-Serif" font-size="11.00">varchar[3]</text>
<polygon fill="none" stroke="black" points="10.5,-343 10.5,-365 369.5,-365 369.5,-343 10.5,-343"/>
<text text-anchor="start" x="30.5" y="-351.2" font-family="Helvetica,sans-Serif" font-size="11.00">abbr_fr</text>
<polygon fill="none" stroke="black" points="369.5,-343 369.5,-365 475.5,-365 475.5,-343 369.5,-343"/>
<text text-anchor="start" x="372.5" y="-351.2" font-family="Helvetica,sans-Serif" font-size="11.00">varchar[3]</text>
<polygon fill="none" stroke="black" points="10.5,-321 10.5,-343 369.5,-343 369.5,-321 10.5,-321"/>
<text text-anchor="start" x="30.5" y="-329.2" font-family="Helvetica,sans-Serif" font-size="11.00">abbr_it</text>
<polygon fill="none" stroke="black" points="369.5,-321 369.5,-343 475.5,-343 475.5,-321 369.5,-321"/>
<text text-anchor="start" x="372.5" y="-329.2" font-family="Helvetica,sans-Serif" font-size="11.00">varchar[3]</text>
<polygon fill="none" stroke="black" points="10.5,-299 10.5,-321 369.5,-321 369.5,-299 10.5,-299"/>
<text text-anchor="start" x="30.5" y="-307.2" font-family="Helvetica,sans-Serif" font-size="11.00">abbr_ro</text>
<polygon fill="none" stroke="black" points="369.5,-299 369.5,-321 475.5,-321 475.5,-299 369.5,-299"/>
<text text-anchor="start" x="372.5" y="-307.2" font-family="Helvetica,sans-Serif" font-size="11.00">varchar[3]</text>
<polygon fill="none" stroke="black" points="10.5,-277 10.5,-299 369.5,-299 369.5,-277 10.5,-277"/>
<text text-anchor="start" x="30.5" y="-285.2" font-family="Helvetica,sans-Serif" font-size="11.00">active</text>
<polygon fill="none" stroke="black" points="369.5,-277 369.5,-299 475.5,-299 475.5,-277 369.5,-277"/>
<text text-anchor="start" x="372.5" y="-285.2" font-family="Helvetica,sans-Serif" font-size="11.00">bool[1]</text>
<polygon fill="none" stroke="black" points="10.5,-255 10.5,-277 369.5,-277 369.5,-255 10.5,-255"/>
<text text-anchor="start" x="30.5" y="-263.2" font-family="Helvetica,sans-Serif" font-size="11.00">description_en</text>
<polygon fill="none" stroke="black" points="369.5,-255 369.5,-277 475.5,-277 475.5,-255 369.5,-255"/>
<text text-anchor="start" x="372.5" y="-263.2" font-family="Helvetica,sans-Serif" font-size="11.00">text[2147483647]</text>
<polygon fill="none" stroke="black" points="10.5,-233 10.5,-255 369.5,-255 369.5,-233 10.5,-233"/>
<text text-anchor="start" x="30.5" y="-241.2" font-family="Helvetica,sans-Serif" font-size="11.00">description_de</text>
<polygon fill="none" stroke="black" points="369.5,-233 369.5,-255 475.5,-255 475.5,-233 369.5,-233"/>
<text text-anchor="start" x="372.5" y="-241.2" font-family="Helvetica,sans-Serif" font-size="11.00">text[2147483647]</text>
<polygon fill="none" stroke="black" points="10.5,-211 10.5,-233 369.5,-233 369.5,-211 10.5,-211"/>
<text text-anchor="start" x="30.5" y="-219.2" font-family="Helvetica,sans-Serif" font-size="11.00">description_fr</text>
<polygon fill="none" stroke="black" points="369.5,-211 369.5,-233 475.5,-233 475.5,-211 369.5,-211"/>
<text text-anchor="start" x="372.5" y="-219.2" font-family="Helvetica,sans-Serif" font-size="11.00">text[2147483647]</text>
<polygon fill="none" stroke="black" points="10.5,-189 10.5,-211 369.5,-211 369.5,-189 10.5,-189"/>
<text text-anchor="start" x="30.5" y="-197.2" font-family="Helvetica,sans-Serif" font-size="11.00">description_it</text>
<polygon fill="none" stroke="black" points="369.5,-189 369.5,-211 475.5,-211 475.5,-189 369.5,-189"/>
<text text-anchor="start" x="372.5" y="-197.2" font-family="Helvetica,sans-Serif" font-size="11.00">text[2147483647]</text>
<polygon fill="none" stroke="black" points="10.5,-167 10.5,-189 369.5,-189 369.5,-167 10.5,-167"/>
<text text-anchor="start" x="30.5" y="-175.2" font-family="Helvetica,sans-Serif" font-size="11.00">description_ro</text>
<polygon fill="none" stroke="black" points="369.5,-167 369.5,-189 475.5,-189 475.5,-167 369.5,-167"/>
<text text-anchor="start" x="372.5" y="-175.2" font-family="Helvetica,sans-Serif" font-size="11.00">text[2147483647]</text>
<polygon fill="none" stroke="black" points="10.5,-145 10.5,-167 369.5,-167 369.5,-145 10.5,-145"/>
<text text-anchor="start" x="30.5" y="-153.2" font-family="Helvetica,sans-Serif" font-size="11.00">display_en</text>
<polygon fill="none" stroke="black" points="369.5,-145 369.5,-167 475.5,-167 475.5,-145 369.5,-145"/>
<text text-anchor="start" x="372.5" y="-153.2" font-family="Helvetica,sans-Serif" font-size="11.00">varchar[100]</text>
<polygon fill="none" stroke="black" points="10.5,-123 10.5,-145 369.5,-145 369.5,-123 10.5,-123"/>
<text text-anchor="start" x="30.5" y="-131.2" font-family="Helvetica,sans-Serif" font-size="11.00">display_de</text>
<polygon fill="none" stroke="black" points="369.5,-123 369.5,-145 475.5,-145 475.5,-123 369.5,-123"/>
<text text-anchor="start" x="372.5" y="-131.2" font-family="Helvetica,sans-Serif" font-size="11.00">varchar[100]</text>
<polygon fill="none" stroke="black" points="10.5,-101 10.5,-123 369.5,-123 369.5,-101 10.5,-101"/>
<text text-anchor="start" x="30.5" y="-109.2" font-family="Helvetica,sans-Serif" font-size="11.00">display_fr</text>
<polygon fill="none" stroke="black" points="369.5,-101 369.5,-123 475.5,-123 475.5,-101 369.5,-101"/>
<text text-anchor="start" x="372.5" y="-109.2" font-family="Helvetica,sans-Serif" font-size="11.00">varchar[100]</text>
<polygon fill="none" stroke="black" points="10.5,-79 10.5,-101 369.5,-101 369.5,-79 10.5,-79"/>
<text text-anchor="start" x="30.5" y="-87.2" font-family="Helvetica,sans-Serif" font-size="11.00">display_it</text>
<polygon fill="none" stroke="black" points="369.5,-79 369.5,-101 475.5,-101 475.5,-79 369.5,-79"/>
<text text-anchor="start" x="372.5" y="-87.2" font-family="Helvetica,sans-Serif" font-size="11.00">varchar[100]</text>
<polygon fill="none" stroke="black" points="10.5,-57 10.5,-79 369.5,-79 369.5,-57 10.5,-57"/>
<text text-anchor="start" x="30.5" y="-65.2" font-family="Helvetica,sans-Serif" font-size="11.00">display_ro</text>
<polygon fill="none" stroke="black" points="369.5,-57 369.5,-79 475.5,-79 475.5,-57 369.5,-57"/>
<text text-anchor="start" x="372.5" y="-65.2" font-family="Helvetica,sans-Serif" font-size="11.00">varchar[100]</text>
<polygon fill="#ffffff" stroke="transparent" points="10.5,-39 10.5,-57 475.5,-57 475.5,-39 10.5,-39"/>
<polygon fill="none" stroke="black" points="10.5,-39 10.5,-57 475.5,-57 475.5,-39 10.5,-39"/>
<polygon fill="#ffffff" stroke="transparent" points="11.5,-40 11.5,-56 170.5,-56 170.5,-40 11.5,-40"/>
<text text-anchor="start" x="13.5" y="-45.2" font-family="Helvetica,sans-Serif" font-size="11.00">&lt; 0</text>
<polygon fill="#ffffff" stroke="transparent" points="170.5,-40 170.5,-56 316.5,-56 316.5,-40 170.5,-40"/>
<text text-anchor="start" x="239.5" y="-45.2" font-family="Helvetica,sans-Serif" font-size="11.00"> &#160;</text>
<polygon fill="#ffffff" stroke="transparent" points="316.5,-40 316.5,-56 474.5,-56 474.5,-40 316.5,-40"/>
<text text-anchor="start" x="452.5" y="-45.2" font-family="Helvetica,sans-Serif" font-size="11.00">1 &gt;</text>
<polygon fill="black" stroke="black" points="170.5,-40 170.5,-56 170.5,-56 170.5,-40 170.5,-40"/>
<polygon fill="black" stroke="black" points="316.5,-40 316.5,-56 316.5,-56 316.5,-40 316.5,-40"/>
<polygon fill="none" stroke="black" stroke-width="2" points="9,-38 9,-586 476,-586 476,-38 9,-38"/>
</a>
</g>
</g>
<!-- tww_od.wastewater_node&#45;&gt;wastewater_node_function_node_amelioration -->
<g id="edge1" class="edge">
<title>tww_od.wastewater_node:w&#45;&gt;wastewater_node_function_node_amelioration:e</title>
<path fill="none" stroke="black" d="M510.99,-552C499.68,-552 492.49,-552 476.5,-552"/>
<polygon fill="black" stroke="black" points="517.5,-552 525.5,-555.6 521.5,-552 525.5,-552 525.5,-552 525.5,-552 521.5,-552 525.5,-548.4 517.5,-552 517.5,-552"/>
<ellipse fill="none" stroke="black" cx="514.3" cy="-552" rx="3.2" ry="3.2"/>
</g>
</g>
</svg>
