<?xml version="1.0" encoding="UTF-8" standalone="no"?>
<!DOCTYPE svg PUBLIC "-//W3C//DTD SVG 1.1//EN"
 "http://www.w3.org/Graphics/SVG/1.1/DTD/svg11.dtd">
<!-- Generated by graphviz version 2.43.0 (0)
 -->
<!-- Title: oneDegreeRelationshipsDiagram Pages: 1 -->
<svg width="274pt" height="449pt"
 viewBox="0.00 0.00 274.00 449.00" xmlns="http://www.w3.org/2000/svg" xmlns:xlink="http://www.w3.org/1999/xlink">
<g id="graph0" class="graph" transform="scale(1 1) rotate(0) translate(4 445)">
<title>oneDegreeRelationshipsDiagram</title>
<polygon fill="#ffffff" stroke="transparent" points="-4,4 -4,-445 270,-445 270,4 -4,4"/>
<text text-anchor="middle" x="79.5" y="-7.2" font-family="Helvetica,sans-Serif" font-size="11.00">Generated by SchemaSpy</text>
<!-- swmm_vw_weirs -->
<g id="node1" class="node">
<title>swmm_vw_weirs</title>
<g id="a_node1"><a xlink:href="../../tables/swmm_vw_weirs.html" xlink:title="swmm_vw_weirs" target="_top">
<polygon fill="#ffffff" stroke="transparent" points="8,-37 8,-437 258,-437 258,-37 8,-37"/>
<polygon fill="#f5f5f5" stroke="transparent" points="10,-413 10,-435 256,-435 256,-413 10,-413"/>
<polygon fill="none" stroke="black" points="10,-413 10,-435 256,-435 256,-413 10,-413"/>
<text text-anchor="start" x="15" y="-422.2" font-family="Helvetica,sans-Serif" font-weight="bold" font-size="11.00">swmm_vw_weirs</text>
<text text-anchor="start" x="216" y="-421.2" font-family="Helvetica,sans-Serif" font-size="11.00">[view]</text>
<polygon fill="none" stroke="black" points="10,-391 10,-413 150,-413 150,-391 10,-391"/>
<text text-anchor="start" x="30" y="-399.2" font-family="Helvetica,sans-Serif" font-size="11.00">name</text>
<polygon fill="none" stroke="black" points="150,-391 150,-413 256,-413 256,-391 150,-391"/>
<text text-anchor="start" x="153" y="-399.2" font-family="Helvetica,sans-Serif" font-size="11.00">varchar[16]</text>
<polygon fill="none" stroke="black" points="10,-369 10,-391 150,-391 150,-369 10,-369"/>
<text text-anchor="start" x="30" y="-377.2" font-family="Helvetica,sans-Serif" font-size="11.00">fromnode</text>
<polygon fill="none" stroke="black" points="150,-369 150,-391 256,-391 256,-369 150,-369"/>
<text text-anchor="start" x="153" y="-377.2" font-family="Helvetica,sans-Serif" font-size="11.00">varchar[16]</text>
<polygon fill="none" stroke="black" points="10,-347 10,-369 150,-369 150,-347 10,-347"/>
<text text-anchor="start" x="30" y="-355.2" font-family="Helvetica,sans-Serif" font-size="11.00">tonode</text>
<polygon fill="none" stroke="black" points="150,-347 150,-369 256,-369 256,-347 150,-347"/>
<text text-anchor="start" x="153" y="-355.2" font-family="Helvetica,sans-Serif" font-size="11.00">varchar[16]</text>
<polygon fill="none" stroke="black" points="10,-325 10,-347 150,-347 150,-325 10,-325"/>
<text text-anchor="start" x="30" y="-333.2" font-family="Helvetica,sans-Serif" font-size="11.00">type</text>
<polygon fill="none" stroke="black" points="150,-325 150,-347 256,-347 256,-325 150,-325"/>
<text text-anchor="start" x="153" y="-333.2" font-family="Helvetica,sans-Serif" font-size="11.00">text[2147483647]</text>
<polygon fill="none" stroke="black" points="10,-303 10,-325 150,-325 150,-303 10,-303"/>
<text text-anchor="start" x="30" y="-311.2" font-family="Helvetica,sans-Serif" font-size="11.00">crestht</text>
<polygon fill="none" stroke="black" points="150,-303 150,-325 256,-325 256,-303 150,-303"/>
<text text-anchor="start" x="153" y="-311.2" font-family="Helvetica,sans-Serif" font-size="11.00">numeric[0]</text>
<polygon fill="none" stroke="black" points="10,-281 10,-303 150,-303 150,-281 10,-281"/>
<text text-anchor="start" x="30" y="-289.2" font-family="Helvetica,sans-Serif" font-size="11.00">qcoeff</text>
<polygon fill="none" stroke="black" points="150,-281 150,-303 256,-303 256,-281 150,-281"/>
<text text-anchor="start" x="153" y="-289.2" font-family="Helvetica,sans-Serif" font-size="11.00">numeric[0]</text>
<polygon fill="none" stroke="black" points="10,-259 10,-281 150,-281 150,-259 10,-259"/>
<text text-anchor="start" x="30" y="-267.2" font-family="Helvetica,sans-Serif" font-size="11.00">gated</text>
<polygon fill="none" stroke="black" points="150,-259 150,-281 256,-281 256,-259 150,-259"/>
<text text-anchor="start" x="153" y="-267.2" font-family="Helvetica,sans-Serif" font-size="11.00">text[2147483647]</text>
<polygon fill="none" stroke="black" points="10,-237 10,-259 150,-259 150,-237 10,-237"/>
<text text-anchor="start" x="30" y="-245.2" font-family="Helvetica,sans-Serif" font-size="11.00">endcond</text>
<polygon fill="none" stroke="black" points="150,-237 150,-259 256,-259 256,-237 150,-237"/>
<text text-anchor="start" x="153" y="-245.2" font-family="Helvetica,sans-Serif" font-size="11.00">int4[10]</text>
<polygon fill="none" stroke="black" points="10,-215 10,-237 150,-237 150,-215 10,-215"/>
<text text-anchor="start" x="30" y="-223.2" font-family="Helvetica,sans-Serif" font-size="11.00">endcoeff</text>
<polygon fill="none" stroke="black" points="150,-215 150,-237 256,-237 256,-215 150,-215"/>
<text text-anchor="start" x="153" y="-223.2" font-family="Helvetica,sans-Serif" font-size="11.00">int4[10]</text>
<polygon fill="none" stroke="black" points="10,-193 10,-215 150,-215 150,-193 10,-193"/>
<text text-anchor="start" x="30" y="-201.2" font-family="Helvetica,sans-Serif" font-size="11.00">surcharge</text>
<polygon fill="none" stroke="black" points="150,-193 150,-215 256,-215 256,-193 150,-193"/>
<text text-anchor="start" x="153" y="-201.2" font-family="Helvetica,sans-Serif" font-size="11.00">text[2147483647]</text>
<polygon fill="none" stroke="black" points="10,-171 10,-193 150,-193 150,-171 10,-171"/>
<text text-anchor="start" x="30" y="-179.2" font-family="Helvetica,sans-Serif" font-size="11.00">roadwidth</text>
<polygon fill="none" stroke="black" points="150,-171 150,-193 256,-193 256,-171 150,-171"/>
<text text-anchor="start" x="153" y="-179.2" font-family="Helvetica,sans-Serif" font-size="11.00">text[2147483647]</text>
<polygon fill="none" stroke="black" points="10,-149 10,-171 150,-171 150,-149 10,-149"/>
<text text-anchor="start" x="30" y="-157.2" font-family="Helvetica,sans-Serif" font-size="11.00">roadsurf</text>
<polygon fill="none" stroke="black" points="150,-149 150,-171 256,-171 256,-149 150,-149"/>
<text text-anchor="start" x="153" y="-157.2" font-family="Helvetica,sans-Serif" font-size="11.00">text[2147483647]</text>
<polygon fill="none" stroke="black" points="10,-127 10,-149 150,-149 150,-127 10,-127"/>
<text text-anchor="start" x="30" y="-135.2" font-family="Helvetica,sans-Serif" font-size="11.00">coeffcurve</text>
<polygon fill="none" stroke="black" points="150,-127 150,-149 256,-149 256,-127 150,-127"/>
<text text-anchor="start" x="153" y="-135.2" font-family="Helvetica,sans-Serif" font-size="11.00">text[2147483647]</text>
<polygon fill="none" stroke="black" points="10,-105 10,-127 150,-127 150,-105 10,-105"/>
<text text-anchor="start" x="30" y="-113.2" font-family="Helvetica,sans-Serif" font-size="11.00">state</text>
<polygon fill="none" stroke="black" points="150,-105 150,-127 256,-127 256,-105 150,-105"/>
<text text-anchor="start" x="153" y="-113.2" font-family="Helvetica,sans-Serif" font-size="11.00">text[2147483647]</text>
<polygon fill="none" stroke="black" points="10,-83 10,-105 150,-105 150,-83 10,-83"/>
<text text-anchor="start" x="30" y="-91.2" font-family="Helvetica,sans-Serif" font-size="11.00">hierarchy</text>
<polygon fill="none" stroke="black" points="150,-83 150,-105 256,-105 256,-83 150,-83"/>
<text text-anchor="start" x="153" y="-91.2" font-family="Helvetica,sans-Serif" font-size="11.00">text[2147483647]</text>
<polygon fill="none" stroke="black" points="10,-61 10,-83 150,-83 150,-61 10,-61"/>
<text text-anchor="start" x="30" y="-69.2" font-family="Helvetica,sans-Serif" font-size="11.00">obj_id</text>
<polygon fill="none" stroke="black" points="150,-61 150,-83 256,-83 256,-61 150,-61"/>
<text text-anchor="start" x="153" y="-69.2" font-family="Helvetica,sans-Serif" font-size="11.00">varchar[16]</text>
<polygon fill="none" stroke="black" points="10,-39 10,-61 150,-61 150,-39 10,-39"/>
<text text-anchor="start" x="30" y="-47.2" font-family="Helvetica,sans-Serif" font-size="11.00">message</text>
<polygon fill="none" stroke="black" points="150,-39 150,-61 256,-61 256,-39 150,-39"/>
<text text-anchor="start" x="153" y="-47.2" font-family="Helvetica,sans-Serif" font-size="11.00">text[2147483647]</text>
<polygon fill="none" stroke="black" stroke-width="2" points="9,-38 9,-436 257,-436 257,-38 9,-38"/>
</a>
</g>
</g>
</g>
</svg>
