<?xml version="1.0" encoding="UTF-8" standalone="no"?>
<!DOCTYPE svg PUBLIC "-//W3C//DTD SVG 1.1//EN"
 "http://www.w3.org/Graphics/SVG/1.1/DTD/svg11.dtd">
<!-- Generated by graphviz version 2.43.0 (0)
 -->
<!-- Title: oneDegreeRelationshipsDiagram Pages: 1 -->
<svg width="314pt" height="207pt"
 viewBox="0.00 0.00 314.00 207.00" xmlns="http://www.w3.org/2000/svg" xmlns:xlink="http://www.w3.org/1999/xlink">
<g id="graph0" class="graph" transform="scale(1 1) rotate(0) translate(4 203)">
<title>oneDegreeRelationshipsDiagram</title>
<polygon fill="#ffffff" stroke="transparent" points="-4,4 -4,-203 310,-203 310,4 -4,4"/>
<text text-anchor="middle" x="79.5" y="-7.2" font-family="Helvetica,sans-Serif" font-size="11.00">Generated by SchemaSpy</text>
<!-- swmm_vw_symbols -->
<g id="node1" class="node">
<title>swmm_vw_symbols</title>
<g id="a_node1"><a xlink:href="../../tables/swmm_vw_symbols.html" xlink:title="swmm_vw_symbols" target="_top">
<polygon fill="#ffffff" stroke="transparent" points="8,-37 8,-195 298,-195 298,-37 8,-37"/>
<polygon fill="#f5f5f5" stroke="transparent" points="10,-171 10,-193 296,-193 296,-171 10,-171"/>
<polygon fill="none" stroke="black" points="10,-171 10,-193 296,-193 296,-171 10,-171"/>
<text text-anchor="start" x="15" y="-180.2" font-family="Helvetica,sans-Serif" font-weight="bold" font-size="11.00">swmm_vw_symbols</text>
<text text-anchor="start" x="256" y="-179.2" font-family="Helvetica,sans-Serif" font-size="11.00">[view]</text>
<polygon fill="none" stroke="black" points="10,-149 10,-171 171,-171 171,-149 10,-149"/>
<text text-anchor="start" x="30" y="-157.2" font-family="Helvetica,sans-Serif" font-size="11.00">gage</text>
<polygon fill="none" stroke="black" points="171,-149 171,-171 296,-171 296,-149 171,-149"/>
<text text-anchor="start" x="174" y="-157.2" font-family="Helvetica,sans-Serif" font-size="11.00">varchar[2147483647]</text>
<polygon fill="none" stroke="black" points="10,-127 10,-149 171,-149 171,-127 10,-127"/>
<text text-anchor="start" x="30" y="-135.2" font-family="Helvetica,sans-Serif" font-size="11.00">xcoord</text>
<polygon fill="none" stroke="black" points="171,-127 171,-149 296,-149 296,-127 171,-127"/>
<text text-anchor="start" x="174" y="-135.2" font-family="Helvetica,sans-Serif" font-size="11.00">float8[17,17]</text>
<polygon fill="none" stroke="black" points="10,-105 10,-127 171,-127 171,-105 10,-105"/>
<text text-anchor="start" x="30" y="-113.2" font-family="Helvetica,sans-Serif" font-size="11.00">ycoord</text>
<polygon fill="none" stroke="black" points="171,-105 171,-127 296,-127 296,-105 171,-105"/>
<text text-anchor="start" x="174" y="-113.2" font-family="Helvetica,sans-Serif" font-size="11.00">float8[17,17]</text>
<polygon fill="none" stroke="black" points="10,-83 10,-105 171,-105 171,-83 10,-83"/>
<text text-anchor="start" x="30" y="-91.2" font-family="Helvetica,sans-Serif" font-size="11.00">state</text>
<polygon fill="none" stroke="black" points="171,-83 171,-105 296,-105 296,-83 171,-83"/>
<text text-anchor="start" x="174" y="-91.2" font-family="Helvetica,sans-Serif" font-size="11.00">text[2147483647]</text>
<polygon fill="none" stroke="black" points="10,-61 10,-83 171,-83 171,-61 10,-61"/>
<text text-anchor="start" x="30" y="-69.2" font-family="Helvetica,sans-Serif" font-size="11.00">hierarchy</text>
<polygon fill="none" stroke="black" points="171,-61 171,-83 296,-83 296,-61 171,-61"/>
<text text-anchor="start" x="174" y="-69.2" font-family="Helvetica,sans-Serif" font-size="11.00">text[2147483647]</text>
<polygon fill="none" stroke="black" points="10,-39 10,-61 171,-61 171,-39 10,-39"/>
<text text-anchor="start" x="30" y="-47.2" font-family="Helvetica,sans-Serif" font-size="11.00">obj_id</text>
<polygon fill="none" stroke="black" points="171,-39 171,-61 296,-61 296,-39 171,-39"/>
<text text-anchor="start" x="174" y="-47.2" font-family="Helvetica,sans-Serif" font-size="11.00">varchar[16]</text>
<polygon fill="none" stroke="black" stroke-width="2" points="9,-38 9,-194 297,-194 297,-38 9,-38"/>
</a>
</g>
</g>
</g>
</svg>
