<?xml version="1.0" encoding="UTF-8" standalone="no"?>
<!DOCTYPE svg PUBLIC "-//W3C//DTD SVG 1.1//EN"
 "http://www.w3.org/Graphics/SVG/1.1/DTD/svg11.dtd">
<!-- Generated by graphviz version 2.47.1 (20210515.0534)
 -->
<!-- Title: oneDegreeRelationshipsDiagram Pages: 1 -->
<svg width="250pt" height="229pt"
 viewBox="0.00 0.00 250.00 229.00" xmlns="http://www.w3.org/2000/svg" xmlns:xlink="http://www.w3.org/1999/xlink">
<g id="graph0" class="graph" transform="scale(1 1) rotate(0) translate(4 225)">
<title>oneDegreeRelationshipsDiagram</title>
<polygon fill="#ffffff" stroke="transparent" points="-4,4 -4,-225 246,-225 246,4 -4,4"/>
<text text-anchor="middle" x="73.5" y="-7.2" font-family="Helvetica,sans-Serif" font-size="11.00">Generated by SchemaSpy</text>
<!-- swmm_vw_dwf -->
<g id="node1" class="node">
<title>swmm_vw_dwf</title>
<g id="a_node1"><a xlink:href="../../tables/swmm_vw_dwf.html" xlink:title="swmm_vw_dwf" target="_top">
<polygon fill="#ffffff" stroke="transparent" points="8,-37 8,-217 234,-217 234,-37 8,-37"/>
<polygon fill="#f5f5f5" stroke="transparent" points="10,-193 10,-215 232,-215 232,-193 10,-193"/>
<polygon fill="none" stroke="black" points="10,-193 10,-215 232,-215 232,-193 10,-193"/>
<text text-anchor="start" x="15" y="-202.2" font-family="Helvetica,sans-Serif" font-weight="bold" font-size="11.00">swmm_vw_dwf</text>
<text text-anchor="start" x="196" y="-201.2" font-family="Helvetica,sans-Serif" font-size="11.00">[view]</text>
<polygon fill="none" stroke="black" points="10,-171 10,-193 120,-193 120,-171 10,-171"/>
<text text-anchor="start" x="30" y="-179.2" font-family="Helvetica,sans-Serif" font-size="11.00">node</text>
<polygon fill="none" stroke="black" points="120,-171 120,-193 232,-193 232,-171 120,-171"/>
<text text-anchor="start" x="123" y="-179.2" font-family="Helvetica,sans-Serif" font-size="11.00">varchar[2147483647]</text>
<polygon fill="none" stroke="black" points="10,-149 10,-171 120,-171 120,-149 10,-149"/>
<text text-anchor="start" x="30" y="-157.2" font-family="Helvetica,sans-Serif" font-size="11.00">constituent</text>
<polygon fill="none" stroke="black" points="120,-149 120,-171 232,-171 232,-149 120,-149"/>
<text text-anchor="start" x="123" y="-157.2" font-family="Helvetica,sans-Serif" font-size="11.00">varchar[2147483647]</text>
<polygon fill="none" stroke="black" points="10,-127 10,-149 120,-149 120,-127 10,-127"/>
<text text-anchor="start" x="30" y="-135.2" font-family="Helvetica,sans-Serif" font-size="11.00">baseline</text>
<polygon fill="none" stroke="black" points="120,-127 120,-149 232,-149 232,-127 120,-127"/>
<text text-anchor="start" x="123" y="-135.2" font-family="Helvetica,sans-Serif" font-size="11.00">float8[17,17]</text>
<polygon fill="none" stroke="black" points="10,-105 10,-127 120,-127 120,-105 10,-105"/>
<text text-anchor="start" x="30" y="-113.2" font-family="Helvetica,sans-Serif" font-size="11.00">patterns</text>
<polygon fill="none" stroke="black" points="120,-105 120,-127 232,-127 232,-105 120,-105"/>
<text text-anchor="start" x="123" y="-113.2" font-family="Helvetica,sans-Serif" font-size="11.00">varchar[2147483647]</text>
<polygon fill="none" stroke="black" points="10,-83 10,-105 120,-105 120,-83 10,-83"/>
<text text-anchor="start" x="30" y="-91.2" font-family="Helvetica,sans-Serif" font-size="11.00">state</text>
<polygon fill="none" stroke="black" points="120,-83 120,-105 232,-105 232,-83 120,-83"/>
<text text-anchor="start" x="123" y="-91.2" font-family="Helvetica,sans-Serif" font-size="11.00">text[2147483647]</text>
<polygon fill="none" stroke="black" points="10,-61 10,-83 120,-83 120,-61 10,-61"/>
<text text-anchor="start" x="30" y="-69.2" font-family="Helvetica,sans-Serif" font-size="11.00">hierarchy</text>
<polygon fill="none" stroke="black" points="120,-61 120,-83 232,-83 232,-61 120,-61"/>
<text text-anchor="start" x="123" y="-69.2" font-family="Helvetica,sans-Serif" font-size="11.00">text[2147483647]</text>
<polygon fill="none" stroke="black" points="10,-39 10,-61 120,-61 120,-39 10,-39"/>
<text text-anchor="start" x="30" y="-47.2" font-family="Helvetica,sans-Serif" font-size="11.00">obj_id</text>
<polygon fill="none" stroke="black" points="120,-39 120,-61 232,-61 232,-39 120,-39"/>
<text text-anchor="start" x="123" y="-47.2" font-family="Helvetica,sans-Serif" font-size="11.00">varchar[16]</text>
<polygon fill="none" stroke="black" stroke-width="2" points="9,-38 9,-216 233,-216 233,-38 9,-38"/>
</a>
</g>
</g>
</g>
</svg>
