<?xml version="1.0" encoding="UTF-8" standalone="no"?>
<!DOCTYPE svg PUBLIC "-//W3C//DTD SVG 1.1//EN"
 "http://www.w3.org/Graphics/SVG/1.1/DTD/svg11.dtd">
<!-- Generated by graphviz version 2.47.1 (20210515.0534)
 -->
<!-- Title: oneDegreeRelationshipsDiagram Pages: 1 -->
<svg width="297pt" height="383pt"
 viewBox="0.00 0.00 297.00 383.00" xmlns="http://www.w3.org/2000/svg" xmlns:xlink="http://www.w3.org/1999/xlink">
<g id="graph0" class="graph" transform="scale(1 1) rotate(0) translate(4 379)">
<title>oneDegreeRelationshipsDiagram</title>
<polygon fill="#ffffff" stroke="transparent" points="-4,4 -4,-379 293,-379 293,4 -4,4"/>
<text text-anchor="middle" x="73.5" y="-7.2" font-family="Helvetica,sans-Serif" font-size="11.00">Generated by SchemaSpy</text>
<!-- sys_dictionary_value_list -->
<g id="node1" class="node">
<title>sys_dictionary_value_list</title>
<g id="a_node1"><a xlink:href="../../tables/sys_dictionary_value_list.html" xlink:title="sys_dictionary_value_list" target="_top">
<polygon fill="#ffffff" stroke="transparent" points="8,-37 8,-371 281,-371 281,-37 8,-37"/>
<polygon fill="#f5f5f5" stroke="transparent" points="10.5,-347 10.5,-369 279.5,-369 279.5,-347 10.5,-347"/>
<polygon fill="none" stroke="black" points="10.5,-347 10.5,-369 279.5,-369 279.5,-347 10.5,-347"/>
<text text-anchor="start" x="15.5" y="-356.2" font-family="Helvetica,sans-Serif" font-weight="bold" font-size="11.00">sys_dictionary_value_list</text>
<text text-anchor="start" x="243.5" y="-355.2" font-family="Helvetica,sans-Serif" font-size="11.00">[view]</text>
<polygon fill="none" stroke="black" points="10.5,-325 10.5,-347 176.5,-347 176.5,-325 10.5,-325"/>
<text text-anchor="start" x="30.5" y="-333.2" font-family="Helvetica,sans-Serif" font-size="11.00">vl_name</text>
<polygon fill="none" stroke="black" points="176.5,-325 176.5,-347 279.5,-347 279.5,-325 176.5,-325"/>
<text text-anchor="start" x="179.5" y="-333.2" font-family="Helvetica,sans-Serif" font-size="11.00">name[2147483647]</text>
<polygon fill="none" stroke="black" points="10.5,-303 10.5,-325 176.5,-325 176.5,-303 10.5,-303"/>
<text text-anchor="start" x="30.5" y="-311.2" font-family="Helvetica,sans-Serif" font-size="11.00">code</text>
<polygon fill="none" stroke="black" points="176.5,-303 176.5,-325 279.5,-325 279.5,-303 176.5,-303"/>
<text text-anchor="start" x="179.5" y="-311.2" font-family="Helvetica,sans-Serif" font-size="11.00">int4[10]</text>
<polygon fill="none" stroke="black" points="10.5,-281 10.5,-303 176.5,-303 176.5,-281 10.5,-281"/>
<text text-anchor="start" x="30.5" y="-289.2" font-family="Helvetica,sans-Serif" font-size="11.00">vsacode</text>
<polygon fill="none" stroke="black" points="176.5,-281 176.5,-303 279.5,-303 279.5,-281 176.5,-281"/>
<text text-anchor="start" x="179.5" y="-289.2" font-family="Helvetica,sans-Serif" font-size="11.00">int4[10]</text>
<polygon fill="none" stroke="black" points="10.5,-259 10.5,-281 176.5,-281 176.5,-259 10.5,-259"/>
<text text-anchor="start" x="30.5" y="-267.2" font-family="Helvetica,sans-Serif" font-size="11.00">value_en</text>
<polygon fill="none" stroke="black" points="176.5,-259 176.5,-281 279.5,-281 279.5,-259 176.5,-259"/>
<text text-anchor="start" x="179.5" y="-267.2" font-family="Helvetica,sans-Serif" font-size="11.00">varchar[100]</text>
<polygon fill="none" stroke="black" points="10.5,-237 10.5,-259 176.5,-259 176.5,-237 10.5,-237"/>
<text text-anchor="start" x="30.5" y="-245.2" font-family="Helvetica,sans-Serif" font-size="11.00">value_de</text>
<polygon fill="none" stroke="black" points="176.5,-237 176.5,-259 279.5,-259 279.5,-237 176.5,-237"/>
<text text-anchor="start" x="179.5" y="-245.2" font-family="Helvetica,sans-Serif" font-size="11.00">varchar[100]</text>
<polygon fill="none" stroke="black" points="10.5,-215 10.5,-237 176.5,-237 176.5,-215 10.5,-215"/>
<text text-anchor="start" x="30.5" y="-223.2" font-family="Helvetica,sans-Serif" font-size="11.00">value_fr</text>
<polygon fill="none" stroke="black" points="176.5,-215 176.5,-237 279.5,-237 279.5,-215 176.5,-215"/>
<text text-anchor="start" x="179.5" y="-223.2" font-family="Helvetica,sans-Serif" font-size="11.00">varchar[100]</text>
<polygon fill="none" stroke="black" points="10.5,-193 10.5,-215 176.5,-215 176.5,-193 10.5,-193"/>
<text text-anchor="start" x="30.5" y="-201.2" font-family="Helvetica,sans-Serif" font-size="11.00">value_it</text>
<polygon fill="none" stroke="black" points="176.5,-193 176.5,-215 279.5,-215 279.5,-193 176.5,-193"/>
<text text-anchor="start" x="179.5" y="-201.2" font-family="Helvetica,sans-Serif" font-size="11.00">varchar[100]</text>
<polygon fill="none" stroke="black" points="10.5,-171 10.5,-193 176.5,-193 176.5,-171 10.5,-171"/>
<text text-anchor="start" x="30.5" y="-179.2" font-family="Helvetica,sans-Serif" font-size="11.00">value_ro</text>
<polygon fill="none" stroke="black" points="176.5,-171 176.5,-193 279.5,-193 279.5,-171 176.5,-171"/>
<text text-anchor="start" x="179.5" y="-179.2" font-family="Helvetica,sans-Serif" font-size="11.00">varchar[100]</text>
<polygon fill="none" stroke="black" points="10.5,-149 10.5,-171 176.5,-171 176.5,-149 10.5,-149"/>
<text text-anchor="start" x="30.5" y="-157.2" font-family="Helvetica,sans-Serif" font-size="11.00">abbr_en</text>
<polygon fill="none" stroke="black" points="176.5,-149 176.5,-171 279.5,-171 279.5,-149 176.5,-149"/>
<text text-anchor="start" x="179.5" y="-157.2" font-family="Helvetica,sans-Serif" font-size="11.00">varchar[3]</text>
<polygon fill="none" stroke="black" points="10.5,-127 10.5,-149 176.5,-149 176.5,-127 10.5,-127"/>
<text text-anchor="start" x="30.5" y="-135.2" font-family="Helvetica,sans-Serif" font-size="11.00">abbr_de</text>
<polygon fill="none" stroke="black" points="176.5,-127 176.5,-149 279.5,-149 279.5,-127 176.5,-127"/>
<text text-anchor="start" x="179.5" y="-135.2" font-family="Helvetica,sans-Serif" font-size="11.00">varchar[3]</text>
<polygon fill="none" stroke="black" points="10.5,-105 10.5,-127 176.5,-127 176.5,-105 10.5,-105"/>
<text text-anchor="start" x="30.5" y="-113.2" font-family="Helvetica,sans-Serif" font-size="11.00">abbr_fr</text>
<polygon fill="none" stroke="black" points="176.5,-105 176.5,-127 279.5,-127 279.5,-105 176.5,-105"/>
<text text-anchor="start" x="179.5" y="-113.2" font-family="Helvetica,sans-Serif" font-size="11.00">varchar[3]</text>
<polygon fill="none" stroke="black" points="10.5,-83 10.5,-105 176.5,-105 176.5,-83 10.5,-83"/>
<text text-anchor="start" x="30.5" y="-91.2" font-family="Helvetica,sans-Serif" font-size="11.00">abbr_it</text>
<polygon fill="none" stroke="black" points="176.5,-83 176.5,-105 279.5,-105 279.5,-83 176.5,-83"/>
<text text-anchor="start" x="179.5" y="-91.2" font-family="Helvetica,sans-Serif" font-size="11.00">varchar[3]</text>
<polygon fill="none" stroke="black" points="10.5,-61 10.5,-83 176.5,-83 176.5,-61 10.5,-61"/>
<text text-anchor="start" x="30.5" y="-69.2" font-family="Helvetica,sans-Serif" font-size="11.00">abbr_ro</text>
<polygon fill="none" stroke="black" points="176.5,-61 176.5,-83 279.5,-83 279.5,-61 176.5,-61"/>
<text text-anchor="start" x="179.5" y="-69.2" font-family="Helvetica,sans-Serif" font-size="11.00">varchar[3]</text>
<polygon fill="none" stroke="black" points="10.5,-39 10.5,-61 176.5,-61 176.5,-39 10.5,-39"/>
<text text-anchor="start" x="30.5" y="-47.2" font-family="Helvetica,sans-Serif" font-size="11.00">active</text>
<polygon fill="none" stroke="black" points="176.5,-39 176.5,-61 279.5,-61 279.5,-39 176.5,-39"/>
<text text-anchor="start" x="179.5" y="-47.2" font-family="Helvetica,sans-Serif" font-size="11.00">bool[1]</text>
<polygon fill="none" stroke="black" stroke-width="2" points="9,-38 9,-370 280,-370 280,-38 9,-38"/>
</a>
</g>
</g>
</g>
</svg>
