<?xml version="1.0" encoding="UTF-8" standalone="no"?>
<!DOCTYPE svg PUBLIC "-//W3C//DTD SVG 1.1//EN"
 "http://www.w3.org/Graphics/SVG/1.1/DTD/svg11.dtd">
<!-- Generated by graphviz version 2.43.0 (0)
 -->
<!-- Title: oneDegreeRelationshipsDiagram Pages: 1 -->
<svg width="535pt" height="823pt"
 viewBox="0.00 0.00 535.00 823.00" xmlns="http://www.w3.org/2000/svg" xmlns:xlink="http://www.w3.org/1999/xlink">
<g id="graph0" class="graph" transform="scale(1 1) rotate(0) translate(4 819)">
<title>oneDegreeRelationshipsDiagram</title>
<polygon fill="#ffffff" stroke="transparent" points="-4,4 -4,-819 531,-819 531,4 -4,4"/>
<text text-anchor="middle" x="79.5" y="-7.2" font-family="Helvetica,sans-Serif" font-size="11.00">Generated by SchemaSpy</text>
<!-- vw_bio_ecol_assessment -->
<g id="node1" class="node">
<title>vw_bio_ecol_assessment</title>
<g id="a_node1"><a xlink:href="../../tables/vw_bio_ecol_assessment.html" xlink:title="vw_bio_ecol_assessment" target="_top">
<polygon fill="#ffffff" stroke="transparent" points="8,-37 8,-811 519,-811 519,-37 8,-37"/>
<polygon fill="#f5f5f5" stroke="transparent" points="10.5,-787 10.5,-809 517.5,-809 517.5,-787 10.5,-787"/>
<polygon fill="none" stroke="black" points="10.5,-787 10.5,-809 517.5,-809 517.5,-787 10.5,-787"/>
<text text-anchor="start" x="15.5" y="-796.2" font-family="Helvetica,sans-Serif" font-weight="bold" font-size="11.00">vw_bio_ecol_assessment</text>
<text text-anchor="start" x="477.5" y="-795.2" font-family="Helvetica,sans-Serif" font-size="11.00">[view]</text>
<polygon fill="none" stroke="black" points="10.5,-765 10.5,-787 411.5,-787 411.5,-765 10.5,-765"/>
<text text-anchor="start" x="30.5" y="-773.2" font-family="Helvetica,sans-Serif" font-size="11.00">obj_id</text>
<polygon fill="none" stroke="black" points="411.5,-765 411.5,-787 517.5,-787 517.5,-765 411.5,-765"/>
<text text-anchor="start" x="414.5" y="-773.2" font-family="Helvetica,sans-Serif" font-size="11.00">varchar[16]</text>
<polygon fill="none" stroke="black" points="10.5,-743 10.5,-765 411.5,-765 411.5,-743 10.5,-743"/>
<text text-anchor="start" x="30.5" y="-751.2" font-family="Helvetica,sans-Serif" font-size="11.00">comparison_last</text>
<polygon fill="none" stroke="black" points="411.5,-743 411.5,-765 517.5,-765 517.5,-743 411.5,-743"/>
<text text-anchor="start" x="414.5" y="-751.2" font-family="Helvetica,sans-Serif" font-size="11.00">int4[10]</text>
<polygon fill="none" stroke="black" points="10.5,-721 10.5,-743 411.5,-743 411.5,-721 10.5,-721"/>
<text text-anchor="start" x="30.5" y="-729.2" font-family="Helvetica,sans-Serif" font-size="11.00">date_last_examen</text>
<polygon fill="none" stroke="black" points="411.5,-721 411.5,-743 517.5,-743 517.5,-721 411.5,-721"/>
<text text-anchor="start" x="414.5" y="-729.2" font-family="Helvetica,sans-Serif" font-size="11.00">timestamp[29,6]</text>
<polygon fill="none" stroke="black" points="10.5,-699 10.5,-721 411.5,-721 411.5,-699 10.5,-699"/>
<text text-anchor="start" x="30.5" y="-707.2" font-family="Helvetica,sans-Serif" font-size="11.00">impact_auxiliary_indic</text>
<polygon fill="none" stroke="black" points="411.5,-699 411.5,-721 517.5,-721 517.5,-699 411.5,-699"/>
<text text-anchor="start" x="414.5" y="-707.2" font-family="Helvetica,sans-Serif" font-size="11.00">int4[10]</text>
<polygon fill="none" stroke="black" points="10.5,-677 10.5,-699 411.5,-699 411.5,-677 10.5,-677"/>
<text text-anchor="start" x="30.5" y="-685.2" font-family="Helvetica,sans-Serif" font-size="11.00">impact_external_aspect</text>
<polygon fill="none" stroke="black" points="411.5,-677 411.5,-699 517.5,-699 517.5,-677 411.5,-677"/>
<text text-anchor="start" x="414.5" y="-685.2" font-family="Helvetica,sans-Serif" font-size="11.00">int4[10]</text>
<polygon fill="none" stroke="black" points="10.5,-655 10.5,-677 411.5,-677 411.5,-655 10.5,-655"/>
<text text-anchor="start" x="30.5" y="-663.2" font-family="Helvetica,sans-Serif" font-size="11.00">impact_macroinvertebrates</text>
<polygon fill="none" stroke="black" points="411.5,-655 411.5,-677 517.5,-677 517.5,-655 411.5,-655"/>
<text text-anchor="start" x="414.5" y="-663.2" font-family="Helvetica,sans-Serif" font-size="11.00">int4[10]</text>
<polygon fill="none" stroke="black" points="10.5,-633 10.5,-655 411.5,-655 411.5,-633 10.5,-633"/>
<text text-anchor="start" x="30.5" y="-641.2" font-family="Helvetica,sans-Serif" font-size="11.00">impact_water_plants</text>
<polygon fill="none" stroke="black" points="411.5,-633 411.5,-655 517.5,-655 517.5,-633 411.5,-633"/>
<text text-anchor="start" x="414.5" y="-641.2" font-family="Helvetica,sans-Serif" font-size="11.00">int4[10]</text>
<polygon fill="none" stroke="black" points="10.5,-611 10.5,-633 411.5,-633 411.5,-611 10.5,-611"/>
<text text-anchor="start" x="30.5" y="-619.2" font-family="Helvetica,sans-Serif" font-size="11.00">intervention_demand</text>
<polygon fill="none" stroke="black" points="411.5,-611 411.5,-633 517.5,-633 517.5,-611 411.5,-611"/>
<text text-anchor="start" x="414.5" y="-619.2" font-family="Helvetica,sans-Serif" font-size="11.00">int4[10]</text>
<polygon fill="none" stroke="black" points="10.5,-589 10.5,-611 411.5,-611 411.5,-589 10.5,-589"/>
<text text-anchor="start" x="30.5" y="-597.2" font-family="Helvetica,sans-Serif" font-size="11.00">io_calculation</text>
<polygon fill="none" stroke="black" points="411.5,-589 411.5,-611 517.5,-611 517.5,-589 411.5,-589"/>
<text text-anchor="start" x="414.5" y="-597.2" font-family="Helvetica,sans-Serif" font-size="11.00">int4[10]</text>
<polygon fill="none" stroke="black" points="10.5,-567 10.5,-589 411.5,-589 411.5,-567 10.5,-567"/>
<text text-anchor="start" x="30.5" y="-575.2" font-family="Helvetica,sans-Serif" font-size="11.00">kind_water_body</text>
<polygon fill="none" stroke="black" points="411.5,-567 411.5,-589 517.5,-589 517.5,-567 411.5,-567"/>
<text text-anchor="start" x="414.5" y="-575.2" font-family="Helvetica,sans-Serif" font-size="11.00">int4[10]</text>
<polygon fill="none" stroke="black" points="10.5,-545 10.5,-567 411.5,-567 411.5,-545 10.5,-545"/>
<text text-anchor="start" x="30.5" y="-553.2" font-family="Helvetica,sans-Serif" font-size="11.00">outlet_pipe_clear_height</text>
<polygon fill="none" stroke="black" points="411.5,-545 411.5,-567 517.5,-567 517.5,-545 411.5,-545"/>
<text text-anchor="start" x="414.5" y="-553.2" font-family="Helvetica,sans-Serif" font-size="11.00">int4[10]</text>
<polygon fill="none" stroke="black" points="10.5,-523 10.5,-545 411.5,-545 411.5,-523 10.5,-523"/>
<text text-anchor="start" x="30.5" y="-531.2" font-family="Helvetica,sans-Serif" font-size="11.00">q347</text>
<polygon fill="none" stroke="black" points="411.5,-523 411.5,-545 517.5,-545 517.5,-523 411.5,-523"/>
<text text-anchor="start" x="414.5" y="-531.2" font-family="Helvetica,sans-Serif" font-size="11.00">numeric[8,3]</text>
<polygon fill="none" stroke="black" points="10.5,-501 10.5,-523 411.5,-523 411.5,-501 10.5,-501"/>
<text text-anchor="start" x="30.5" y="-509.2" font-family="Helvetica,sans-Serif" font-size="11.00">relevance_matrix</text>
<polygon fill="none" stroke="black" points="411.5,-501 411.5,-523 517.5,-523 517.5,-501 411.5,-501"/>
<text text-anchor="start" x="414.5" y="-509.2" font-family="Helvetica,sans-Serif" font-size="11.00">int4[10]</text>
<polygon fill="none" stroke="black" points="10.5,-479 10.5,-501 411.5,-501 411.5,-479 10.5,-479"/>
<text text-anchor="start" x="30.5" y="-487.2" font-family="Helvetica,sans-Serif" font-size="11.00">relevant_slope</text>
<polygon fill="none" stroke="black" points="411.5,-479 411.5,-501 517.5,-501 517.5,-479 411.5,-479"/>
<text text-anchor="start" x="414.5" y="-487.2" font-family="Helvetica,sans-Serif" font-size="11.00">int2[5]</text>
<polygon fill="none" stroke="black" points="10.5,-457 10.5,-479 411.5,-479 411.5,-457 10.5,-457"/>
<text text-anchor="start" x="30.5" y="-465.2" font-family="Helvetica,sans-Serif" font-size="11.00">surface_water_bodies</text>
<polygon fill="none" stroke="black" points="411.5,-457 411.5,-479 517.5,-479 517.5,-457 411.5,-457"/>
<text text-anchor="start" x="414.5" y="-465.2" font-family="Helvetica,sans-Serif" font-size="11.00">text[2147483647]</text>
<polygon fill="none" stroke="black" points="10.5,-435 10.5,-457 411.5,-457 411.5,-435 10.5,-435"/>
<text text-anchor="start" x="30.5" y="-443.2" font-family="Helvetica,sans-Serif" font-size="11.00">water_specific_discharge_freight_nh4_n_current</text>
<polygon fill="none" stroke="black" points="411.5,-435 411.5,-457 517.5,-457 517.5,-435 411.5,-435"/>
<text text-anchor="start" x="414.5" y="-443.2" font-family="Helvetica,sans-Serif" font-size="11.00">int2[5]</text>
<polygon fill="none" stroke="black" points="10.5,-413 10.5,-435 411.5,-435 411.5,-413 10.5,-413"/>
<text text-anchor="start" x="30.5" y="-421.2" font-family="Helvetica,sans-Serif" font-size="11.00">water_specific_discharge_freight_nh4_n_current_opt</text>
<polygon fill="none" stroke="black" points="411.5,-413 411.5,-435 517.5,-435 517.5,-413 411.5,-413"/>
<text text-anchor="start" x="414.5" y="-421.2" font-family="Helvetica,sans-Serif" font-size="11.00">int2[5]</text>
<polygon fill="none" stroke="black" points="10.5,-391 10.5,-413 411.5,-413 411.5,-391 10.5,-391"/>
<text text-anchor="start" x="30.5" y="-399.2" font-family="Helvetica,sans-Serif" font-size="11.00">water_specific_discharge_freight_nh4_n_planned</text>
<polygon fill="none" stroke="black" points="411.5,-391 411.5,-413 517.5,-413 517.5,-391 411.5,-391"/>
<text text-anchor="start" x="414.5" y="-399.2" font-family="Helvetica,sans-Serif" font-size="11.00">int2[5]</text>
<polygon fill="none" stroke="black" points="10.5,-369 10.5,-391 411.5,-391 411.5,-369 10.5,-369"/>
<text text-anchor="start" x="30.5" y="-377.2" font-family="Helvetica,sans-Serif" font-size="11.00">base_data</text>
<polygon fill="none" stroke="black" points="411.5,-369 411.5,-391 517.5,-391 517.5,-369 411.5,-369"/>
<text text-anchor="start" x="414.5" y="-377.2" font-family="Helvetica,sans-Serif" font-size="11.00">text[2147483647]</text>
<polygon fill="none" stroke="black" points="10.5,-347 10.5,-369 411.5,-369 411.5,-347 10.5,-347"/>
<text text-anchor="start" x="30.5" y="-355.2" font-family="Helvetica,sans-Serif" font-size="11.00">cost</text>
<polygon fill="none" stroke="black" points="411.5,-347 411.5,-369 517.5,-369 517.5,-347 411.5,-347"/>
<text text-anchor="start" x="414.5" y="-355.2" font-family="Helvetica,sans-Serif" font-size="11.00">numeric[10,2]</text>
<polygon fill="none" stroke="black" points="10.5,-325 10.5,-347 411.5,-347 411.5,-325 10.5,-325"/>
<text text-anchor="start" x="30.5" y="-333.2" font-family="Helvetica,sans-Serif" font-size="11.00">data_details</text>
<polygon fill="none" stroke="black" points="411.5,-325 411.5,-347 517.5,-347 517.5,-325 411.5,-325"/>
<text text-anchor="start" x="414.5" y="-333.2" font-family="Helvetica,sans-Serif" font-size="11.00">text[2147483647]</text>
<polygon fill="none" stroke="black" points="10.5,-303 10.5,-325 411.5,-325 411.5,-303 10.5,-303"/>
<text text-anchor="start" x="30.5" y="-311.2" font-family="Helvetica,sans-Serif" font-size="11.00">duration</text>
<polygon fill="none" stroke="black" points="411.5,-303 411.5,-325 517.5,-325 517.5,-303 411.5,-303"/>
<text text-anchor="start" x="414.5" y="-311.2" font-family="Helvetica,sans-Serif" font-size="11.00">int2[5]</text>
<polygon fill="none" stroke="black" points="10.5,-281 10.5,-303 411.5,-303 411.5,-281 10.5,-281"/>
<text text-anchor="start" x="30.5" y="-289.2" font-family="Helvetica,sans-Serif" font-size="11.00">fk_dataowner</text>
<polygon fill="none" stroke="black" points="411.5,-281 411.5,-303 517.5,-303 517.5,-281 411.5,-281"/>
<text text-anchor="start" x="414.5" y="-289.2" font-family="Helvetica,sans-Serif" font-size="11.00">varchar[16]</text>
<polygon fill="none" stroke="black" points="10.5,-259 10.5,-281 411.5,-281 411.5,-259 10.5,-259"/>
<text text-anchor="start" x="30.5" y="-267.2" font-family="Helvetica,sans-Serif" font-size="11.00">fk_measure</text>
<polygon fill="none" stroke="black" points="411.5,-259 411.5,-281 517.5,-281 517.5,-259 411.5,-259"/>
<text text-anchor="start" x="414.5" y="-267.2" font-family="Helvetica,sans-Serif" font-size="11.00">varchar[16]</text>
<polygon fill="none" stroke="black" points="10.5,-237 10.5,-259 411.5,-259 411.5,-237 10.5,-237"/>
<text text-anchor="start" x="30.5" y="-245.2" font-family="Helvetica,sans-Serif" font-size="11.00">fk_operating_company</text>
<polygon fill="none" stroke="black" points="411.5,-237 411.5,-259 517.5,-259 517.5,-237 411.5,-237"/>
<text text-anchor="start" x="414.5" y="-245.2" font-family="Helvetica,sans-Serif" font-size="11.00">varchar[16]</text>
<polygon fill="none" stroke="black" points="10.5,-215 10.5,-237 411.5,-237 411.5,-215 10.5,-215"/>
<text text-anchor="start" x="30.5" y="-223.2" font-family="Helvetica,sans-Serif" font-size="11.00">fk_provider</text>
<polygon fill="none" stroke="black" points="411.5,-215 411.5,-237 517.5,-237 517.5,-215 411.5,-215"/>
<text text-anchor="start" x="414.5" y="-223.2" font-family="Helvetica,sans-Serif" font-size="11.00">varchar[16]</text>
<polygon fill="none" stroke="black" points="10.5,-193 10.5,-215 411.5,-215 411.5,-193 10.5,-193"/>
<text text-anchor="start" x="30.5" y="-201.2" font-family="Helvetica,sans-Serif" font-size="11.00">identifier</text>
<polygon fill="none" stroke="black" points="411.5,-193 411.5,-215 517.5,-215 517.5,-193 411.5,-193"/>
<text text-anchor="start" x="414.5" y="-201.2" font-family="Helvetica,sans-Serif" font-size="11.00">text[2147483647]</text>
<polygon fill="none" stroke="black" points="10.5,-171 10.5,-193 411.5,-193 411.5,-171 10.5,-171"/>
<text text-anchor="start" x="30.5" y="-179.2" font-family="Helvetica,sans-Serif" font-size="11.00">last_modification</text>
<polygon fill="none" stroke="black" points="411.5,-171 411.5,-193 517.5,-193 517.5,-171 411.5,-171"/>
<text text-anchor="start" x="414.5" y="-179.2" font-family="Helvetica,sans-Serif" font-size="11.00">timestamp[29,6]</text>
<polygon fill="none" stroke="black" points="10.5,-149 10.5,-171 411.5,-171 411.5,-149 10.5,-149"/>
<text text-anchor="start" x="30.5" y="-157.2" font-family="Helvetica,sans-Serif" font-size="11.00">operator</text>
<polygon fill="none" stroke="black" points="411.5,-149 411.5,-171 517.5,-171 517.5,-149 411.5,-149"/>
<text text-anchor="start" x="414.5" y="-157.2" font-family="Helvetica,sans-Serif" font-size="11.00">text[2147483647]</text>
<polygon fill="none" stroke="black" points="10.5,-127 10.5,-149 411.5,-149 411.5,-127 10.5,-127"/>
<text text-anchor="start" x="30.5" y="-135.2" font-family="Helvetica,sans-Serif" font-size="11.00">reason</text>
<polygon fill="none" stroke="black" points="411.5,-127 411.5,-149 517.5,-149 517.5,-127 411.5,-127"/>
<text text-anchor="start" x="414.5" y="-135.2" font-family="Helvetica,sans-Serif" font-size="11.00">text[2147483647]</text>
<polygon fill="none" stroke="black" points="10.5,-105 10.5,-127 411.5,-127 411.5,-105 10.5,-105"/>
<text text-anchor="start" x="30.5" y="-113.2" font-family="Helvetica,sans-Serif" font-size="11.00">remark</text>
<polygon fill="none" stroke="black" points="411.5,-105 411.5,-127 517.5,-127 517.5,-105 411.5,-105"/>
<text text-anchor="start" x="414.5" y="-113.2" font-family="Helvetica,sans-Serif" font-size="11.00">text[2147483647]</text>
<polygon fill="none" stroke="black" points="10.5,-83 10.5,-105 411.5,-105 411.5,-83 10.5,-83"/>
<text text-anchor="start" x="30.5" y="-91.2" font-family="Helvetica,sans-Serif" font-size="11.00">result</text>
<polygon fill="none" stroke="black" points="411.5,-83 411.5,-105 517.5,-105 517.5,-83 411.5,-83"/>
<text text-anchor="start" x="414.5" y="-91.2" font-family="Helvetica,sans-Serif" font-size="11.00">text[2147483647]</text>
<polygon fill="none" stroke="black" points="10.5,-61 10.5,-83 411.5,-83 411.5,-61 10.5,-61"/>
<text text-anchor="start" x="30.5" y="-69.2" font-family="Helvetica,sans-Serif" font-size="11.00">status</text>
<polygon fill="none" stroke="black" points="411.5,-61 411.5,-83 517.5,-83 517.5,-61 411.5,-61"/>
<text text-anchor="start" x="414.5" y="-69.2" font-family="Helvetica,sans-Serif" font-size="11.00">int4[10]</text>
<polygon fill="none" stroke="black" points="10.5,-39 10.5,-61 411.5,-61 411.5,-39 10.5,-39"/>
<text text-anchor="start" x="30.5" y="-47.2" font-family="Helvetica,sans-Serif" font-size="11.00">time_point</text>
<polygon fill="none" stroke="black" points="411.5,-39 411.5,-61 517.5,-61 517.5,-39 411.5,-39"/>
<text text-anchor="start" x="414.5" y="-47.2" font-family="Helvetica,sans-Serif" font-size="11.00">timestamp[29,6]</text>
<polygon fill="none" stroke="black" stroke-width="2" points="9,-38 9,-810 518,-810 518,-38 9,-38"/>
</a>
</g>
</g>
</g>
</svg>
