<?xml version="1.0" encoding="UTF-8" standalone="no"?>
<!DOCTYPE svg PUBLIC "-//W3C//DTD SVG 1.1//EN"
 "http://www.w3.org/Graphics/SVG/1.1/DTD/svg11.dtd">
<!-- Generated by graphviz version 2.47.1 (20210515.0534)
 -->
<!-- Title: oneDegreeRelationshipsDiagram Pages: 1 -->
<svg width="395pt" height="163pt"
 viewBox="0.00 0.00 395.00 163.00" xmlns="http://www.w3.org/2000/svg" xmlns:xlink="http://www.w3.org/1999/xlink">
<g id="graph0" class="graph" transform="scale(1 1) rotate(0) translate(4 159)">
<title>oneDegreeRelationshipsDiagram</title>
<polygon fill="#ffffff" stroke="transparent" points="-4,4 -4,-159 391,-159 391,4 -4,4"/>
<text text-anchor="middle" x="73.5" y="-7.2" font-family="Helvetica,sans-Serif" font-size="11.00">Generated by SchemaSpy</text>
<!-- vw_catchment_area_rwc_connections -->
<g id="node1" class="node">
<title>vw_catchment_area_rwc_connections</title>
<g id="a_node1"><a xlink:href="../../tables/vw_catchment_area_rwc_connections.html" xlink:title="vw_catchment_area_rwc_connections" target="_top">
<polygon fill="#ffffff" stroke="transparent" points="8,-37 8,-151 379,-151 379,-37 8,-37"/>
<polygon fill="#f5f5f5" stroke="transparent" points="10.5,-127 10.5,-149 377.5,-149 377.5,-127 10.5,-127"/>
<polygon fill="none" stroke="black" points="10.5,-127 10.5,-149 377.5,-149 377.5,-127 10.5,-127"/>
<text text-anchor="start" x="15.5" y="-136.2" font-family="Helvetica,sans-Serif" font-weight="bold" font-size="11.00">vw_catchment_area_rwc_connections</text>
<text text-anchor="start" x="341.5" y="-135.2" font-family="Helvetica,sans-Serif" font-size="11.00">[view]</text>
<polygon fill="none" stroke="black" points="10.5,-105 10.5,-127 254.5,-127 254.5,-105 10.5,-105"/>
<text text-anchor="start" x="30.5" y="-113.2" font-family="Helvetica,sans-Serif" font-size="11.00">obj_id</text>
<polygon fill="none" stroke="black" points="254.5,-105 254.5,-127 377.5,-127 377.5,-105 254.5,-105"/>
<text text-anchor="start" x="257.5" y="-113.2" font-family="Helvetica,sans-Serif" font-size="11.00">varchar[16]</text>
<polygon fill="none" stroke="black" points="10.5,-83 10.5,-105 254.5,-105 254.5,-83 10.5,-83"/>
<text text-anchor="start" x="30.5" y="-91.2" font-family="Helvetica,sans-Serif" font-size="11.00">connection_rw_current_geometry</text>
<polygon fill="none" stroke="black" points="254.5,-83 254.5,-105 377.5,-105 377.5,-83 254.5,-83"/>
<text text-anchor="start" x="257.5" y="-91.2" font-family="Helvetica,sans-Serif" font-size="11.00">geometry[2147483647]</text>
<polygon fill="none" stroke="black" points="10.5,-61 10.5,-83 254.5,-83 254.5,-61 10.5,-61"/>
<text text-anchor="start" x="30.5" y="-69.2" font-family="Helvetica,sans-Serif" font-size="11.00">length_rw_current</text>
<polygon fill="none" stroke="black" points="254.5,-61 254.5,-83 377.5,-83 377.5,-61 254.5,-61"/>
<text text-anchor="start" x="257.5" y="-69.2" font-family="Helvetica,sans-Serif" font-size="11.00">float8[17,17]</text>
<polygon fill="none" stroke="black" points="10.5,-39 10.5,-61 254.5,-61 254.5,-39 10.5,-39"/>
<text text-anchor="start" x="30.5" y="-47.2" font-family="Helvetica,sans-Serif" font-size="11.00">node_rw_current_obj_id</text>
<polygon fill="none" stroke="black" points="254.5,-39 254.5,-61 377.5,-61 377.5,-39 254.5,-39"/>
<text text-anchor="start" x="257.5" y="-47.2" font-family="Helvetica,sans-Serif" font-size="11.00">varchar[16]</text>
<polygon fill="none" stroke="black" stroke-width="2" points="9,-38 9,-150 378,-150 378,-38 9,-38"/>
</a>
</g>
</g>
</g>
</svg>
