<?xml version="1.0" encoding="UTF-8" standalone="no"?>
<!DOCTYPE svg PUBLIC "-//W3C//DTD SVG 1.1//EN"
 "http://www.w3.org/Graphics/SVG/1.1/DTD/svg11.dtd">
<!-- Generated by graphviz version 2.47.1 (20210515.0534)
 -->
<!-- Title: oneDegreeRelationshipsDiagram Pages: 1 -->
<svg width="343pt" height="361pt"
 viewBox="0.00 0.00 343.00 361.00" xmlns="http://www.w3.org/2000/svg" xmlns:xlink="http://www.w3.org/1999/xlink">
<g id="graph0" class="graph" transform="scale(1 1) rotate(0) translate(4 357)">
<title>oneDegreeRelationshipsDiagram</title>
<polygon fill="#ffffff" stroke="transparent" points="-4,4 -4,-357 339,-357 339,4 -4,4"/>
<text text-anchor="middle" x="73.5" y="-7.2" font-family="Helvetica,sans-Serif" font-size="11.00">Generated by SchemaSpy</text>
<!-- vw_catchment_area_totals_aggregated -->
<g id="node1" class="node">
<title>vw_catchment_area_totals_aggregated</title>
<g id="a_node1"><a xlink:href="../../tables/vw_catchment_area_totals_aggregated.html" xlink:title="vw_catchment_area_totals_aggregated" target="_top">
<polygon fill="#ffffff" stroke="transparent" points="8,-37 8,-349 327,-349 327,-37 8,-37"/>
<polygon fill="#f5f5f5" stroke="transparent" points="10.5,-325 10.5,-347 325.5,-347 325.5,-325 10.5,-325"/>
<polygon fill="none" stroke="black" points="10.5,-325 10.5,-347 325.5,-347 325.5,-325 10.5,-325"/>
<text text-anchor="start" x="15.5" y="-334.2" font-family="Helvetica,sans-Serif" font-weight="bold" font-size="11.00">vw_catchment_area_totals_aggregated</text>
<text text-anchor="start" x="289.5" y="-333.2" font-family="Helvetica,sans-Serif" font-size="11.00">[view]</text>
<polygon fill="none" stroke="black" points="10.5,-303 10.5,-325 261.5,-325 261.5,-303 10.5,-303"/>
<text text-anchor="start" x="30.5" y="-311.2" font-family="Helvetica,sans-Serif" font-size="11.00">obj_id</text>
<polygon fill="none" stroke="black" points="261.5,-303 261.5,-325 325.5,-325 325.5,-303 261.5,-303"/>
<text text-anchor="start" x="264.5" y="-311.2" font-family="Helvetica,sans-Serif" font-size="11.00">varchar[16]</text>
<polygon fill="none" stroke="black" points="10.5,-281 10.5,-303 261.5,-303 261.5,-281 10.5,-281"/>
<text text-anchor="start" x="30.5" y="-289.2" font-family="Helvetica,sans-Serif" font-size="11.00">population</text>
<polygon fill="none" stroke="black" points="261.5,-281 261.5,-303 325.5,-303 325.5,-281 261.5,-281"/>
<text text-anchor="start" x="264.5" y="-289.2" font-family="Helvetica,sans-Serif" font-size="11.00">int4[10]</text>
<polygon fill="none" stroke="black" points="10.5,-259 10.5,-281 261.5,-281 261.5,-259 10.5,-259"/>
<text text-anchor="start" x="30.5" y="-267.2" font-family="Helvetica,sans-Serif" font-size="11.00">surface_area</text>
<polygon fill="none" stroke="black" points="261.5,-259 261.5,-281 325.5,-281 325.5,-259 261.5,-259"/>
<text text-anchor="start" x="264.5" y="-267.2" font-family="Helvetica,sans-Serif" font-size="11.00">numeric[0]</text>
<polygon fill="none" stroke="black" points="10.5,-237 10.5,-259 261.5,-259 261.5,-237 10.5,-237"/>
<text text-anchor="start" x="30.5" y="-245.2" font-family="Helvetica,sans-Serif" font-size="11.00">surface_imp</text>
<polygon fill="none" stroke="black" points="261.5,-237 261.5,-259 325.5,-259 325.5,-237 261.5,-237"/>
<text text-anchor="start" x="264.5" y="-245.2" font-family="Helvetica,sans-Serif" font-size="11.00">numeric[0]</text>
<polygon fill="none" stroke="black" points="10.5,-215 10.5,-237 261.5,-237 261.5,-215 10.5,-215"/>
<text text-anchor="start" x="30.5" y="-223.2" font-family="Helvetica,sans-Serif" font-size="11.00">surface_red</text>
<polygon fill="none" stroke="black" points="261.5,-215 261.5,-237 325.5,-237 325.5,-215 261.5,-215"/>
<text text-anchor="start" x="264.5" y="-223.2" font-family="Helvetica,sans-Serif" font-size="11.00">numeric[0]</text>
<polygon fill="none" stroke="black" points="10.5,-193 10.5,-215 261.5,-215 261.5,-193 10.5,-193"/>
<text text-anchor="start" x="30.5" y="-201.2" font-family="Helvetica,sans-Serif" font-size="11.00">sewer_infiltration_water</text>
<polygon fill="none" stroke="black" points="261.5,-193 261.5,-215 325.5,-215 325.5,-193 261.5,-193"/>
<text text-anchor="start" x="264.5" y="-201.2" font-family="Helvetica,sans-Serif" font-size="11.00">numeric[0]</text>
<polygon fill="none" stroke="black" points="10.5,-171 10.5,-193 261.5,-193 261.5,-171 10.5,-171"/>
<text text-anchor="start" x="30.5" y="-179.2" font-family="Helvetica,sans-Serif" font-size="11.00">waste_water_production</text>
<polygon fill="none" stroke="black" points="261.5,-171 261.5,-193 325.5,-193 325.5,-171 261.5,-171"/>
<text text-anchor="start" x="264.5" y="-179.2" font-family="Helvetica,sans-Serif" font-size="11.00">numeric[0]</text>
<polygon fill="none" stroke="black" points="10.5,-149 10.5,-171 261.5,-171 261.5,-149 10.5,-149"/>
<text text-anchor="start" x="30.5" y="-157.2" font-family="Helvetica,sans-Serif" font-size="11.00">population_dim</text>
<polygon fill="none" stroke="black" points="261.5,-149 261.5,-171 325.5,-171 325.5,-149 261.5,-149"/>
<text text-anchor="start" x="264.5" y="-157.2" font-family="Helvetica,sans-Serif" font-size="11.00">int4[10]</text>
<polygon fill="none" stroke="black" points="10.5,-127 10.5,-149 261.5,-149 261.5,-127 10.5,-127"/>
<text text-anchor="start" x="30.5" y="-135.2" font-family="Helvetica,sans-Serif" font-size="11.00">surface_dim</text>
<polygon fill="none" stroke="black" points="261.5,-127 261.5,-149 325.5,-149 325.5,-127 261.5,-127"/>
<text text-anchor="start" x="264.5" y="-135.2" font-family="Helvetica,sans-Serif" font-size="11.00">numeric[0]</text>
<polygon fill="none" stroke="black" points="10.5,-105 10.5,-127 261.5,-127 261.5,-105 10.5,-105"/>
<text text-anchor="start" x="30.5" y="-113.2" font-family="Helvetica,sans-Serif" font-size="11.00">surface_imp_dim</text>
<polygon fill="none" stroke="black" points="261.5,-105 261.5,-127 325.5,-127 325.5,-105 261.5,-105"/>
<text text-anchor="start" x="264.5" y="-113.2" font-family="Helvetica,sans-Serif" font-size="11.00">numeric[0]</text>
<polygon fill="none" stroke="black" points="10.5,-83 10.5,-105 261.5,-105 261.5,-83 10.5,-83"/>
<text text-anchor="start" x="30.5" y="-91.2" font-family="Helvetica,sans-Serif" font-size="11.00">surface_red_dim</text>
<polygon fill="none" stroke="black" points="261.5,-83 261.5,-105 325.5,-105 325.5,-83 261.5,-83"/>
<text text-anchor="start" x="264.5" y="-91.2" font-family="Helvetica,sans-Serif" font-size="11.00">numeric[0]</text>
<polygon fill="none" stroke="black" points="10.5,-61 10.5,-83 261.5,-83 261.5,-61 10.5,-61"/>
<text text-anchor="start" x="30.5" y="-69.2" font-family="Helvetica,sans-Serif" font-size="11.00">sewer_infiltration_water_dim</text>
<polygon fill="none" stroke="black" points="261.5,-61 261.5,-83 325.5,-83 325.5,-61 261.5,-61"/>
<text text-anchor="start" x="264.5" y="-69.2" font-family="Helvetica,sans-Serif" font-size="11.00">numeric[0]</text>
<polygon fill="none" stroke="black" points="10.5,-39 10.5,-61 261.5,-61 261.5,-39 10.5,-39"/>
<text text-anchor="start" x="30.5" y="-47.2" font-family="Helvetica,sans-Serif" font-size="11.00">waste_water_production_dim</text>
<polygon fill="none" stroke="black" points="261.5,-39 261.5,-61 325.5,-61 325.5,-39 261.5,-39"/>
<text text-anchor="start" x="264.5" y="-47.2" font-family="Helvetica,sans-Serif" font-size="11.00">numeric[0]</text>
<polygon fill="none" stroke="black" stroke-width="2" points="9,-38 9,-348 326,-348 326,-38 9,-38"/>
</a>
</g>
</g>
</g>
</svg>
