<?xml version="1.0" encoding="UTF-8" standalone="no"?>
<!DOCTYPE svg PUBLIC "-//W3C//DTD SVG 1.1//EN"
 "http://www.w3.org/Graphics/SVG/1.1/DTD/svg11.dtd">
<!-- Generated by graphviz version 2.47.1 (20210515.0534)
 -->
<!-- Title: oneDegreeRelationshipsDiagram Pages: 1 -->
<svg width="321pt" height="273pt"
 viewBox="0.00 0.00 321.00 273.00" xmlns="http://www.w3.org/2000/svg" xmlns:xlink="http://www.w3.org/1999/xlink">
<g id="graph0" class="graph" transform="scale(1 1) rotate(0) translate(4 269)">
<title>oneDegreeRelationshipsDiagram</title>
<polygon fill="#ffffff" stroke="transparent" points="-4,4 -4,-269 317,-269 317,4 -4,4"/>
<text text-anchor="middle" x="73.5" y="-7.2" font-family="Helvetica,sans-Serif" font-size="11.00">Generated by SchemaSpy</text>
<!-- vw_flushing_nozzle -->
<g id="node1" class="node">
<title>vw_flushing_nozzle</title>
<g id="a_node1"><a xlink:href="../../tables/vw_flushing_nozzle.html" xlink:title="vw_flushing_nozzle" target="_top">
<polygon fill="#ffffff" stroke="transparent" points="8,-37 8,-261 305,-261 305,-37 8,-37"/>
<polygon fill="#f5f5f5" stroke="transparent" points="10.5,-237 10.5,-259 303.5,-259 303.5,-237 10.5,-237"/>
<polygon fill="none" stroke="black" points="10.5,-237 10.5,-259 303.5,-259 303.5,-237 10.5,-237"/>
<text text-anchor="start" x="15.5" y="-246.2" font-family="Helvetica,sans-Serif" font-weight="bold" font-size="11.00">vw_flushing_nozzle</text>
<text text-anchor="start" x="267.5" y="-245.2" font-family="Helvetica,sans-Serif" font-size="11.00">[view]</text>
<polygon fill="none" stroke="black" points="10.5,-215 10.5,-237 180.5,-237 180.5,-215 10.5,-215"/>
<text text-anchor="start" x="30.5" y="-223.2" font-family="Helvetica,sans-Serif" font-size="11.00">obj_id</text>
<polygon fill="none" stroke="black" points="180.5,-215 180.5,-237 303.5,-237 303.5,-215 180.5,-215"/>
<text text-anchor="start" x="183.5" y="-223.2" font-family="Helvetica,sans-Serif" font-size="11.00">varchar[16]</text>
<polygon fill="none" stroke="black" points="10.5,-193 10.5,-215 180.5,-215 180.5,-193 10.5,-193"/>
<text text-anchor="start" x="30.5" y="-201.2" font-family="Helvetica,sans-Serif" font-size="11.00">situation_geometry</text>
<polygon fill="none" stroke="black" points="180.5,-193 180.5,-215 303.5,-215 303.5,-193 180.5,-193"/>
<text text-anchor="start" x="183.5" y="-201.2" font-family="Helvetica,sans-Serif" font-size="11.00">geometry[2147483647]</text>
<polygon fill="none" stroke="black" points="10.5,-171 10.5,-193 180.5,-193 180.5,-171 10.5,-171"/>
<text text-anchor="start" x="30.5" y="-179.2" font-family="Helvetica,sans-Serif" font-size="11.00">fk_dataowner</text>
<polygon fill="none" stroke="black" points="180.5,-171 180.5,-193 303.5,-193 303.5,-171 180.5,-171"/>
<text text-anchor="start" x="183.5" y="-179.2" font-family="Helvetica,sans-Serif" font-size="11.00">varchar[16]</text>
<polygon fill="none" stroke="black" points="10.5,-149 10.5,-171 180.5,-171 180.5,-149 10.5,-149"/>
<text text-anchor="start" x="30.5" y="-157.2" font-family="Helvetica,sans-Serif" font-size="11.00">fk_provider</text>
<polygon fill="none" stroke="black" points="180.5,-149 180.5,-171 303.5,-171 303.5,-149 180.5,-149"/>
<text text-anchor="start" x="183.5" y="-157.2" font-family="Helvetica,sans-Serif" font-size="11.00">varchar[16]</text>
<polygon fill="none" stroke="black" points="10.5,-127 10.5,-149 180.5,-149 180.5,-127 10.5,-127"/>
<text text-anchor="start" x="30.5" y="-135.2" font-family="Helvetica,sans-Serif" font-size="11.00">fk_wastewater_structure</text>
<polygon fill="none" stroke="black" points="180.5,-127 180.5,-149 303.5,-149 303.5,-127 180.5,-127"/>
<text text-anchor="start" x="183.5" y="-135.2" font-family="Helvetica,sans-Serif" font-size="11.00">varchar[16]</text>
<polygon fill="none" stroke="black" points="10.5,-105 10.5,-127 180.5,-127 180.5,-105 10.5,-105"/>
<text text-anchor="start" x="30.5" y="-113.2" font-family="Helvetica,sans-Serif" font-size="11.00">identifier</text>
<polygon fill="none" stroke="black" points="180.5,-105 180.5,-127 303.5,-127 303.5,-105 180.5,-105"/>
<text text-anchor="start" x="183.5" y="-113.2" font-family="Helvetica,sans-Serif" font-size="11.00">text[2147483647]</text>
<polygon fill="none" stroke="black" points="10.5,-83 10.5,-105 180.5,-105 180.5,-83 10.5,-83"/>
<text text-anchor="start" x="30.5" y="-91.2" font-family="Helvetica,sans-Serif" font-size="11.00">last_modification</text>
<polygon fill="none" stroke="black" points="180.5,-83 180.5,-105 303.5,-105 303.5,-83 180.5,-83"/>
<text text-anchor="start" x="183.5" y="-91.2" font-family="Helvetica,sans-Serif" font-size="11.00">timestamp[29,6]</text>
<polygon fill="none" stroke="black" points="10.5,-61 10.5,-83 180.5,-83 180.5,-61 10.5,-61"/>
<text text-anchor="start" x="30.5" y="-69.2" font-family="Helvetica,sans-Serif" font-size="11.00">remark</text>
<polygon fill="none" stroke="black" points="180.5,-61 180.5,-83 303.5,-83 303.5,-61 180.5,-61"/>
<text text-anchor="start" x="183.5" y="-69.2" font-family="Helvetica,sans-Serif" font-size="11.00">text[2147483647]</text>
<polygon fill="none" stroke="black" points="10.5,-39 10.5,-61 180.5,-61 180.5,-39 10.5,-39"/>
<text text-anchor="start" x="30.5" y="-47.2" font-family="Helvetica,sans-Serif" font-size="11.00">renovation_demand</text>
<polygon fill="none" stroke="black" points="180.5,-39 180.5,-61 303.5,-61 303.5,-39 180.5,-39"/>
<text text-anchor="start" x="183.5" y="-47.2" font-family="Helvetica,sans-Serif" font-size="11.00">int4[10]</text>
<polygon fill="none" stroke="black" stroke-width="2" points="9,-38 9,-260 304,-260 304,-38 9,-38"/>
</a>
</g>
</g>
</g>
</svg>
