<?xml version="1.0" encoding="UTF-8" standalone="no"?>
<!DOCTYPE svg PUBLIC "-//W3C//DTD SVG 1.1//EN"
 "http://www.w3.org/Graphics/SVG/1.1/DTD/svg11.dtd">
<!-- Generated by graphviz version 2.47.1 (20210515.0534)
 -->
<!-- Title: oneDegreeRelationshipsDiagram Pages: 1 -->
<svg width="300pt" height="625pt"
 viewBox="0.00 0.00 300.00 625.00" xmlns="http://www.w3.org/2000/svg" xmlns:xlink="http://www.w3.org/1999/xlink">
<g id="graph0" class="graph" transform="scale(1 1) rotate(0) translate(4 621)">
<title>oneDegreeRelationshipsDiagram</title>
<polygon fill="#ffffff" stroke="transparent" points="-4,4 -4,-621 296,-621 296,4 -4,4"/>
<text text-anchor="middle" x="73.5" y="-7.2" font-family="Helvetica,sans-Serif" font-size="11.00">Generated by SchemaSpy</text>
<!-- vw_prank_weir -->
<g id="node1" class="node">
<title>vw_prank_weir</title>
<g id="a_node1"><a xlink:href="../../tables/vw_prank_weir.html" xlink:title="vw_prank_weir" target="_top">
<polygon fill="#ffffff" stroke="transparent" points="8,-37 8,-613 284,-613 284,-37 8,-37"/>
<polygon fill="#f5f5f5" stroke="transparent" points="10,-589 10,-611 282,-611 282,-589 10,-589"/>
<polygon fill="none" stroke="black" points="10,-589 10,-611 282,-611 282,-589 10,-589"/>
<text text-anchor="start" x="15" y="-598.2" font-family="Helvetica,sans-Serif" font-weight="bold" font-size="11.00">vw_prank_weir</text>
<text text-anchor="start" x="246" y="-597.2" font-family="Helvetica,sans-Serif" font-size="11.00">[view]</text>
<polygon fill="none" stroke="black" points="10,-567 10,-589 188,-589 188,-567 10,-567"/>
<text text-anchor="start" x="30" y="-575.2" font-family="Helvetica,sans-Serif" font-size="11.00">obj_id</text>
<polygon fill="none" stroke="black" points="188,-567 188,-589 282,-589 282,-567 188,-567"/>
<text text-anchor="start" x="191" y="-575.2" font-family="Helvetica,sans-Serif" font-size="11.00">varchar[16]</text>
<polygon fill="none" stroke="black" points="10,-545 10,-567 188,-567 188,-545 10,-545"/>
<text text-anchor="start" x="30" y="-553.2" font-family="Helvetica,sans-Serif" font-size="11.00">hydraulic_overflow_length</text>
<polygon fill="none" stroke="black" points="188,-545 188,-567 282,-567 282,-545 188,-545"/>
<text text-anchor="start" x="191" y="-553.2" font-family="Helvetica,sans-Serif" font-size="11.00">numeric[7,2]</text>
<polygon fill="none" stroke="black" points="10,-523 10,-545 188,-545 188,-523 10,-523"/>
<text text-anchor="start" x="30" y="-531.2" font-family="Helvetica,sans-Serif" font-size="11.00">level_max</text>
<polygon fill="none" stroke="black" points="188,-523 188,-545 282,-545 282,-523 188,-523"/>
<text text-anchor="start" x="191" y="-531.2" font-family="Helvetica,sans-Serif" font-size="11.00">numeric[7,3]</text>
<polygon fill="none" stroke="black" points="10,-501 10,-523 188,-523 188,-501 10,-501"/>
<text text-anchor="start" x="30" y="-509.2" font-family="Helvetica,sans-Serif" font-size="11.00">level_min</text>
<polygon fill="none" stroke="black" points="188,-501 188,-523 282,-523 282,-501 188,-501"/>
<text text-anchor="start" x="191" y="-509.2" font-family="Helvetica,sans-Serif" font-size="11.00">numeric[7,3]</text>
<polygon fill="none" stroke="black" points="10,-479 10,-501 188,-501 188,-479 10,-479"/>
<text text-anchor="start" x="30" y="-487.2" font-family="Helvetica,sans-Serif" font-size="11.00">weir_edge</text>
<polygon fill="none" stroke="black" points="188,-479 188,-501 282,-501 282,-479 188,-479"/>
<text text-anchor="start" x="191" y="-487.2" font-family="Helvetica,sans-Serif" font-size="11.00">int4[10]</text>
<polygon fill="none" stroke="black" points="10,-457 10,-479 188,-479 188,-457 10,-457"/>
<text text-anchor="start" x="30" y="-465.2" font-family="Helvetica,sans-Serif" font-size="11.00">weir_kind</text>
<polygon fill="none" stroke="black" points="188,-457 188,-479 282,-479 282,-457 188,-457"/>
<text text-anchor="start" x="191" y="-465.2" font-family="Helvetica,sans-Serif" font-size="11.00">int4[10]</text>
<polygon fill="none" stroke="black" points="10,-435 10,-457 188,-457 188,-435 10,-435"/>
<text text-anchor="start" x="30" y="-443.2" font-family="Helvetica,sans-Serif" font-size="11.00">actuation</text>
<polygon fill="none" stroke="black" points="188,-435 188,-457 282,-457 282,-435 188,-435"/>
<text text-anchor="start" x="191" y="-443.2" font-family="Helvetica,sans-Serif" font-size="11.00">int4[10]</text>
<polygon fill="none" stroke="black" points="10,-413 10,-435 188,-435 188,-413 10,-413"/>
<text text-anchor="start" x="30" y="-421.2" font-family="Helvetica,sans-Serif" font-size="11.00">adjustability</text>
<polygon fill="none" stroke="black" points="188,-413 188,-435 282,-435 282,-413 188,-413"/>
<text text-anchor="start" x="191" y="-421.2" font-family="Helvetica,sans-Serif" font-size="11.00">int4[10]</text>
<polygon fill="none" stroke="black" points="10,-391 10,-413 188,-413 188,-391 10,-391"/>
<text text-anchor="start" x="30" y="-399.2" font-family="Helvetica,sans-Serif" font-size="11.00">brand</text>
<polygon fill="none" stroke="black" points="188,-391 188,-413 282,-413 282,-391 188,-391"/>
<text text-anchor="start" x="191" y="-399.2" font-family="Helvetica,sans-Serif" font-size="11.00">text[2147483647]</text>
<polygon fill="none" stroke="black" points="10,-369 10,-391 188,-391 188,-369 10,-369"/>
<text text-anchor="start" x="30" y="-377.2" font-family="Helvetica,sans-Serif" font-size="11.00">control</text>
<polygon fill="none" stroke="black" points="188,-369 188,-391 282,-391 282,-369 188,-369"/>
<text text-anchor="start" x="191" y="-377.2" font-family="Helvetica,sans-Serif" font-size="11.00">int4[10]</text>
<polygon fill="none" stroke="black" points="10,-347 10,-369 188,-369 188,-347 10,-347"/>
<text text-anchor="start" x="30" y="-355.2" font-family="Helvetica,sans-Serif" font-size="11.00">discharge_point</text>
<polygon fill="none" stroke="black" points="188,-347 188,-369 282,-369 282,-347 188,-347"/>
<text text-anchor="start" x="191" y="-355.2" font-family="Helvetica,sans-Serif" font-size="11.00">text[2147483647]</text>
<polygon fill="none" stroke="black" points="10,-325 10,-347 188,-347 188,-325 10,-325"/>
<text text-anchor="start" x="30" y="-333.2" font-family="Helvetica,sans-Serif" font-size="11.00">fk_control_center</text>
<polygon fill="none" stroke="black" points="188,-325 188,-347 282,-347 282,-325 188,-325"/>
<text text-anchor="start" x="191" y="-333.2" font-family="Helvetica,sans-Serif" font-size="11.00">varchar[16]</text>
<polygon fill="none" stroke="black" points="10,-303 10,-325 188,-325 188,-303 10,-303"/>
<text text-anchor="start" x="30" y="-311.2" font-family="Helvetica,sans-Serif" font-size="11.00">fk_dataowner</text>
<polygon fill="none" stroke="black" points="188,-303 188,-325 282,-325 282,-303 188,-303"/>
<text text-anchor="start" x="191" y="-311.2" font-family="Helvetica,sans-Serif" font-size="11.00">varchar[16]</text>
<polygon fill="none" stroke="black" points="10,-281 10,-303 188,-303 188,-281 10,-281"/>
<text text-anchor="start" x="30" y="-289.2" font-family="Helvetica,sans-Serif" font-size="11.00">fk_overflow_char</text>
<polygon fill="none" stroke="black" points="188,-281 188,-303 282,-303 282,-281 188,-281"/>
<text text-anchor="start" x="191" y="-289.2" font-family="Helvetica,sans-Serif" font-size="11.00">varchar[16]</text>
<polygon fill="none" stroke="black" points="10,-259 10,-281 188,-281 188,-259 10,-259"/>
<text text-anchor="start" x="30" y="-267.2" font-family="Helvetica,sans-Serif" font-size="11.00">fk_overflow_to</text>
<polygon fill="none" stroke="black" points="188,-259 188,-281 282,-281 282,-259 188,-259"/>
<text text-anchor="start" x="191" y="-267.2" font-family="Helvetica,sans-Serif" font-size="11.00">varchar[16]</text>
<polygon fill="none" stroke="black" points="10,-237 10,-259 188,-259 188,-237 10,-237"/>
<text text-anchor="start" x="30" y="-245.2" font-family="Helvetica,sans-Serif" font-size="11.00">fk_provider</text>
<polygon fill="none" stroke="black" points="188,-237 188,-259 282,-259 282,-237 188,-237"/>
<text text-anchor="start" x="191" y="-245.2" font-family="Helvetica,sans-Serif" font-size="11.00">varchar[16]</text>
<polygon fill="none" stroke="black" points="10,-215 10,-237 188,-237 188,-215 10,-215"/>
<text text-anchor="start" x="30" y="-223.2" font-family="Helvetica,sans-Serif" font-size="11.00">fk_wastewater_node</text>
<polygon fill="none" stroke="black" points="188,-215 188,-237 282,-237 282,-215 188,-215"/>
<text text-anchor="start" x="191" y="-223.2" font-family="Helvetica,sans-Serif" font-size="11.00">varchar[16]</text>
<polygon fill="none" stroke="black" points="10,-193 10,-215 188,-215 188,-193 10,-193"/>
<text text-anchor="start" x="30" y="-201.2" font-family="Helvetica,sans-Serif" font-size="11.00">function</text>
<polygon fill="none" stroke="black" points="188,-193 188,-215 282,-215 282,-193 188,-193"/>
<text text-anchor="start" x="191" y="-201.2" font-family="Helvetica,sans-Serif" font-size="11.00">int4[10]</text>
<polygon fill="none" stroke="black" points="10,-171 10,-193 188,-193 188,-171 10,-171"/>
<text text-anchor="start" x="30" y="-179.2" font-family="Helvetica,sans-Serif" font-size="11.00">gross_costs</text>
<polygon fill="none" stroke="black" points="188,-171 188,-193 282,-193 282,-171 188,-171"/>
<text text-anchor="start" x="191" y="-179.2" font-family="Helvetica,sans-Serif" font-size="11.00">numeric[10,2]</text>
<polygon fill="none" stroke="black" points="10,-149 10,-171 188,-171 188,-149 10,-149"/>
<text text-anchor="start" x="30" y="-157.2" font-family="Helvetica,sans-Serif" font-size="11.00">identifier</text>
<polygon fill="none" stroke="black" points="188,-149 188,-171 282,-171 282,-149 188,-149"/>
<text text-anchor="start" x="191" y="-157.2" font-family="Helvetica,sans-Serif" font-size="11.00">text[2147483647]</text>
<polygon fill="none" stroke="black" points="10,-127 10,-149 188,-149 188,-127 10,-127"/>
<text text-anchor="start" x="30" y="-135.2" font-family="Helvetica,sans-Serif" font-size="11.00">last_modification</text>
<polygon fill="none" stroke="black" points="188,-127 188,-149 282,-149 282,-127 188,-127"/>
<text text-anchor="start" x="191" y="-135.2" font-family="Helvetica,sans-Serif" font-size="11.00">timestamp[29,6]</text>
<polygon fill="none" stroke="black" points="10,-105 10,-127 188,-127 188,-105 10,-105"/>
<text text-anchor="start" x="30" y="-113.2" font-family="Helvetica,sans-Serif" font-size="11.00">qon_dim</text>
<polygon fill="none" stroke="black" points="188,-105 188,-127 282,-127 282,-105 188,-105"/>
<text text-anchor="start" x="191" y="-113.2" font-family="Helvetica,sans-Serif" font-size="11.00">numeric[9,3]</text>
<polygon fill="none" stroke="black" points="10,-83 10,-105 188,-105 188,-83 10,-83"/>
<text text-anchor="start" x="30" y="-91.2" font-family="Helvetica,sans-Serif" font-size="11.00">remark</text>
<polygon fill="none" stroke="black" points="188,-83 188,-105 282,-105 282,-83 188,-83"/>
<text text-anchor="start" x="191" y="-91.2" font-family="Helvetica,sans-Serif" font-size="11.00">text[2147483647]</text>
<polygon fill="none" stroke="black" points="10,-61 10,-83 188,-83 188,-61 10,-61"/>
<text text-anchor="start" x="30" y="-69.2" font-family="Helvetica,sans-Serif" font-size="11.00">signal_transmission</text>
<polygon fill="none" stroke="black" points="188,-61 188,-83 282,-83 282,-61 188,-61"/>
<text text-anchor="start" x="191" y="-69.2" font-family="Helvetica,sans-Serif" font-size="11.00">int4[10]</text>
<polygon fill="none" stroke="black" points="10,-39 10,-61 188,-61 188,-39 10,-39"/>
<text text-anchor="start" x="30" y="-47.2" font-family="Helvetica,sans-Serif" font-size="11.00">subsidies</text>
<polygon fill="none" stroke="black" points="188,-39 188,-61 282,-61 282,-39 188,-39"/>
<text text-anchor="start" x="191" y="-47.2" font-family="Helvetica,sans-Serif" font-size="11.00">numeric[10,2]</text>
<polygon fill="none" stroke="black" stroke-width="2" points="9,-38 9,-612 283,-612 283,-38 9,-38"/>
</a>
</g>
</g>
</g>
</svg>
