<?xml version="1.0" encoding="UTF-8" standalone="no"?>
<!DOCTYPE svg PUBLIC "-//W3C//DTD SVG 1.1//EN"
 "http://www.w3.org/Graphics/SVG/1.1/DTD/svg11.dtd">
<!-- Generated by graphviz version 2.47.1 (20210515.0534)
 -->
<!-- Title: oneDegreeRelationshipsDiagram Pages: 1 -->
<svg width="389pt" height="1703pt"
 viewBox="0.00 0.00 389.00 1703.00" xmlns="http://www.w3.org/2000/svg" xmlns:xlink="http://www.w3.org/1999/xlink">
<g id="graph0" class="graph" transform="scale(1 1) rotate(0) translate(4 1699)">
<title>oneDegreeRelationshipsDiagram</title>
<polygon fill="#ffffff" stroke="transparent" points="-4,4 -4,-1699 385,-1699 385,4 -4,4"/>
<text text-anchor="middle" x="73.5" y="-7.2" font-family="Helvetica,sans-Serif" font-size="11.00">Generated by SchemaSpy</text>
<!-- vw_tww_additional_ws -->
<g id="node1" class="node">
<title>vw_tww_additional_ws</title>
<g id="a_node1"><a xlink:href="../../tables/vw_tww_additional_ws.html" xlink:title="vw_tww_additional_ws" target="_top">
<polygon fill="#ffffff" stroke="transparent" points="8,-37 8,-1691 373,-1691 373,-37 8,-37"/>
<polygon fill="#f5f5f5" stroke="transparent" points="10.5,-1667 10.5,-1689 371.5,-1689 371.5,-1667 10.5,-1667"/>
<polygon fill="none" stroke="black" points="10.5,-1667 10.5,-1689 371.5,-1689 371.5,-1667 10.5,-1667"/>
<text text-anchor="start" x="15.5" y="-1676.2" font-family="Helvetica,sans-Serif" font-weight="bold" font-size="11.00">vw_tww_additional_ws</text>
<text text-anchor="start" x="335.5" y="-1675.2" font-family="Helvetica,sans-Serif" font-size="11.00">[view]</text>
<polygon fill="none" stroke="black" points="10.5,-1645 10.5,-1667 248.5,-1667 248.5,-1645 10.5,-1645"/>
<text text-anchor="start" x="30.5" y="-1653.2" font-family="Helvetica,sans-Serif" font-size="11.00">identifier</text>
<polygon fill="none" stroke="black" points="248.5,-1645 248.5,-1667 371.5,-1667 371.5,-1645 248.5,-1645"/>
<text text-anchor="start" x="251.5" y="-1653.2" font-family="Helvetica,sans-Serif" font-size="11.00">text[2147483647]</text>
<polygon fill="none" stroke="black" points="10.5,-1623 10.5,-1645 248.5,-1645 248.5,-1623 10.5,-1623"/>
<text text-anchor="start" x="30.5" y="-1631.2" font-family="Helvetica,sans-Serif" font-size="11.00">ws_type</text>
<polygon fill="none" stroke="black" points="248.5,-1623 248.5,-1645 371.5,-1645 371.5,-1623 248.5,-1623"/>
<text text-anchor="start" x="251.5" y="-1631.2" font-family="Helvetica,sans-Serif" font-size="11.00">text[2147483647]</text>
<polygon fill="none" stroke="black" points="10.5,-1601 10.5,-1623 248.5,-1623 248.5,-1601 10.5,-1601"/>
<text text-anchor="start" x="30.5" y="-1609.2" font-family="Helvetica,sans-Serif" font-size="11.00">wt_kind</text>
<polygon fill="none" stroke="black" points="248.5,-1601 248.5,-1623 371.5,-1623 371.5,-1601 248.5,-1601"/>
<text text-anchor="start" x="251.5" y="-1609.2" font-family="Helvetica,sans-Serif" font-size="11.00">int4[10]</text>
<polygon fill="none" stroke="black" points="10.5,-1579 10.5,-1601 248.5,-1601 248.5,-1579 10.5,-1579"/>
<text text-anchor="start" x="30.5" y="-1587.2" font-family="Helvetica,sans-Serif" font-size="11.00">sm_function</text>
<polygon fill="none" stroke="black" points="248.5,-1579 248.5,-1601 371.5,-1601 371.5,-1579 248.5,-1579"/>
<text text-anchor="start" x="251.5" y="-1587.2" font-family="Helvetica,sans-Serif" font-size="11.00">int4[10]</text>
<polygon fill="none" stroke="black" points="10.5,-1557 10.5,-1579 248.5,-1579 248.5,-1557 10.5,-1557"/>
<text text-anchor="start" x="30.5" y="-1565.2" font-family="Helvetica,sans-Serif" font-size="11.00">fk_owner</text>
<polygon fill="none" stroke="black" points="248.5,-1557 248.5,-1579 371.5,-1579 371.5,-1557 248.5,-1557"/>
<text text-anchor="start" x="251.5" y="-1565.2" font-family="Helvetica,sans-Serif" font-size="11.00">varchar[16]</text>
<polygon fill="none" stroke="black" points="10.5,-1535 10.5,-1557 248.5,-1557 248.5,-1535 10.5,-1535"/>
<text text-anchor="start" x="30.5" y="-1543.2" font-family="Helvetica,sans-Serif" font-size="11.00">status</text>
<polygon fill="none" stroke="black" points="248.5,-1535 248.5,-1557 371.5,-1557 371.5,-1535 248.5,-1535"/>
<text text-anchor="start" x="251.5" y="-1543.2" font-family="Helvetica,sans-Serif" font-size="11.00">int4[10]</text>
<polygon fill="none" stroke="black" points="10.5,-1513 10.5,-1535 248.5,-1535 248.5,-1513 10.5,-1513"/>
<text text-anchor="start" x="30.5" y="-1521.2" font-family="Helvetica,sans-Serif" font-size="11.00">obj_id</text>
<polygon fill="none" stroke="black" points="248.5,-1513 248.5,-1535 371.5,-1535 371.5,-1513 248.5,-1513"/>
<text text-anchor="start" x="251.5" y="-1521.2" font-family="Helvetica,sans-Serif" font-size="11.00">varchar[16]</text>
<polygon fill="none" stroke="black" points="10.5,-1491 10.5,-1513 248.5,-1513 248.5,-1491 10.5,-1491"/>
<text text-anchor="start" x="30.5" y="-1499.2" font-family="Helvetica,sans-Serif" font-size="11.00">_depth</text>
<polygon fill="none" stroke="black" points="248.5,-1491 248.5,-1513 371.5,-1513 371.5,-1491 248.5,-1491"/>
<text text-anchor="start" x="251.5" y="-1499.2" font-family="Helvetica,sans-Serif" font-size="11.00">numeric[6,3]</text>
<polygon fill="none" stroke="black" points="10.5,-1469 10.5,-1491 248.5,-1491 248.5,-1469 10.5,-1469"/>
<text text-anchor="start" x="30.5" y="-1477.2" font-family="Helvetica,sans-Serif" font-size="11.00">accessibility</text>
<polygon fill="none" stroke="black" points="248.5,-1469 248.5,-1491 371.5,-1491 371.5,-1469 248.5,-1469"/>
<text text-anchor="start" x="251.5" y="-1477.2" font-family="Helvetica,sans-Serif" font-size="11.00">int4[10]</text>
<polygon fill="none" stroke="black" points="10.5,-1447 10.5,-1469 248.5,-1469 248.5,-1447 10.5,-1447"/>
<text text-anchor="start" x="30.5" y="-1455.2" font-family="Helvetica,sans-Serif" font-size="11.00">condition_score</text>
<polygon fill="none" stroke="black" points="248.5,-1447 248.5,-1469 371.5,-1469 371.5,-1447 248.5,-1447"/>
<text text-anchor="start" x="251.5" y="-1455.2" font-family="Helvetica,sans-Serif" font-size="11.00">numeric[3,2]</text>
<polygon fill="none" stroke="black" points="10.5,-1425 10.5,-1447 248.5,-1447 248.5,-1425 10.5,-1425"/>
<text text-anchor="start" x="30.5" y="-1433.2" font-family="Helvetica,sans-Serif" font-size="11.00">contract_section</text>
<polygon fill="none" stroke="black" points="248.5,-1425 248.5,-1447 371.5,-1447 371.5,-1425 248.5,-1425"/>
<text text-anchor="start" x="251.5" y="-1433.2" font-family="Helvetica,sans-Serif" font-size="11.00">text[2147483647]</text>
<polygon fill="none" stroke="black" points="10.5,-1403 10.5,-1425 248.5,-1425 248.5,-1403 10.5,-1403"/>
<text text-anchor="start" x="30.5" y="-1411.2" font-family="Helvetica,sans-Serif" font-size="11.00">elevation_determination</text>
<polygon fill="none" stroke="black" points="248.5,-1403 248.5,-1425 371.5,-1425 371.5,-1403 248.5,-1403"/>
<text text-anchor="start" x="251.5" y="-1411.2" font-family="Helvetica,sans-Serif" font-size="11.00">int4[10]</text>
<polygon fill="none" stroke="black" points="10.5,-1381 10.5,-1403 248.5,-1403 248.5,-1381 10.5,-1381"/>
<text text-anchor="start" x="30.5" y="-1389.2" font-family="Helvetica,sans-Serif" font-size="11.00">financing</text>
<polygon fill="none" stroke="black" points="248.5,-1381 248.5,-1403 371.5,-1403 371.5,-1381 248.5,-1381"/>
<text text-anchor="start" x="251.5" y="-1389.2" font-family="Helvetica,sans-Serif" font-size="11.00">int4[10]</text>
<polygon fill="none" stroke="black" points="10.5,-1359 10.5,-1381 248.5,-1381 248.5,-1359 10.5,-1359"/>
<text text-anchor="start" x="30.5" y="-1367.2" font-family="Helvetica,sans-Serif" font-size="11.00">fk_dataowner</text>
<polygon fill="none" stroke="black" points="248.5,-1359 248.5,-1381 371.5,-1381 371.5,-1359 248.5,-1359"/>
<text text-anchor="start" x="251.5" y="-1367.2" font-family="Helvetica,sans-Serif" font-size="11.00">varchar[16]</text>
<polygon fill="none" stroke="black" points="10.5,-1337 10.5,-1359 248.5,-1359 248.5,-1337 10.5,-1337"/>
<text text-anchor="start" x="30.5" y="-1345.2" font-family="Helvetica,sans-Serif" font-size="11.00">fk_operator</text>
<polygon fill="none" stroke="black" points="248.5,-1337 248.5,-1359 371.5,-1359 371.5,-1337 248.5,-1337"/>
<text text-anchor="start" x="251.5" y="-1345.2" font-family="Helvetica,sans-Serif" font-size="11.00">varchar[16]</text>
<polygon fill="none" stroke="black" points="10.5,-1315 10.5,-1337 248.5,-1337 248.5,-1315 10.5,-1315"/>
<text text-anchor="start" x="30.5" y="-1323.2" font-family="Helvetica,sans-Serif" font-size="11.00">fk_provider</text>
<polygon fill="none" stroke="black" points="248.5,-1315 248.5,-1337 371.5,-1337 371.5,-1315 248.5,-1315"/>
<text text-anchor="start" x="251.5" y="-1323.2" font-family="Helvetica,sans-Serif" font-size="11.00">varchar[16]</text>
<polygon fill="none" stroke="black" points="10.5,-1293 10.5,-1315 248.5,-1315 248.5,-1293 10.5,-1293"/>
<text text-anchor="start" x="30.5" y="-1301.2" font-family="Helvetica,sans-Serif" font-size="11.00">gross_costs</text>
<polygon fill="none" stroke="black" points="248.5,-1293 248.5,-1315 371.5,-1315 371.5,-1293 248.5,-1293"/>
<text text-anchor="start" x="251.5" y="-1301.2" font-family="Helvetica,sans-Serif" font-size="11.00">numeric[10,2]</text>
<polygon fill="none" stroke="black" points="10.5,-1271 10.5,-1293 248.5,-1293 248.5,-1271 10.5,-1271"/>
<text text-anchor="start" x="30.5" y="-1279.2" font-family="Helvetica,sans-Serif" font-size="11.00">inspection_interval</text>
<polygon fill="none" stroke="black" points="248.5,-1271 248.5,-1293 371.5,-1293 371.5,-1271 248.5,-1271"/>
<text text-anchor="start" x="251.5" y="-1279.2" font-family="Helvetica,sans-Serif" font-size="11.00">numeric[4,2]</text>
<polygon fill="none" stroke="black" points="10.5,-1249 10.5,-1271 248.5,-1271 248.5,-1249 10.5,-1249"/>
<text text-anchor="start" x="30.5" y="-1257.2" font-family="Helvetica,sans-Serif" font-size="11.00">last_modification</text>
<polygon fill="none" stroke="black" points="248.5,-1249 248.5,-1271 371.5,-1271 371.5,-1249 248.5,-1249"/>
<text text-anchor="start" x="251.5" y="-1257.2" font-family="Helvetica,sans-Serif" font-size="11.00">timestamp[29,6]</text>
<polygon fill="none" stroke="black" points="10.5,-1227 10.5,-1249 248.5,-1249 248.5,-1227 10.5,-1227"/>
<text text-anchor="start" x="30.5" y="-1235.2" font-family="Helvetica,sans-Serif" font-size="11.00">location_name</text>
<polygon fill="none" stroke="black" points="248.5,-1227 248.5,-1249 371.5,-1249 371.5,-1227 248.5,-1227"/>
<text text-anchor="start" x="251.5" y="-1235.2" font-family="Helvetica,sans-Serif" font-size="11.00">text[2147483647]</text>
<polygon fill="none" stroke="black" points="10.5,-1205 10.5,-1227 248.5,-1227 248.5,-1205 10.5,-1205"/>
<text text-anchor="start" x="30.5" y="-1213.2" font-family="Helvetica,sans-Serif" font-size="11.00">records</text>
<polygon fill="none" stroke="black" points="248.5,-1205 248.5,-1227 371.5,-1227 371.5,-1205 248.5,-1205"/>
<text text-anchor="start" x="251.5" y="-1213.2" font-family="Helvetica,sans-Serif" font-size="11.00">text[2147483647]</text>
<polygon fill="none" stroke="black" points="10.5,-1183 10.5,-1205 248.5,-1205 248.5,-1183 10.5,-1183"/>
<text text-anchor="start" x="30.5" y="-1191.2" font-family="Helvetica,sans-Serif" font-size="11.00">remark</text>
<polygon fill="none" stroke="black" points="248.5,-1183 248.5,-1205 371.5,-1205 371.5,-1183 248.5,-1183"/>
<text text-anchor="start" x="251.5" y="-1191.2" font-family="Helvetica,sans-Serif" font-size="11.00">text[2147483647]</text>
<polygon fill="none" stroke="black" points="10.5,-1161 10.5,-1183 248.5,-1183 248.5,-1161 10.5,-1161"/>
<text text-anchor="start" x="30.5" y="-1169.2" font-family="Helvetica,sans-Serif" font-size="11.00">renovation_necessity</text>
<polygon fill="none" stroke="black" points="248.5,-1161 248.5,-1183 371.5,-1183 371.5,-1161 248.5,-1161"/>
<text text-anchor="start" x="251.5" y="-1169.2" font-family="Helvetica,sans-Serif" font-size="11.00">int4[10]</text>
<polygon fill="none" stroke="black" points="10.5,-1139 10.5,-1161 248.5,-1161 248.5,-1139 10.5,-1139"/>
<text text-anchor="start" x="30.5" y="-1147.2" font-family="Helvetica,sans-Serif" font-size="11.00">replacement_value</text>
<polygon fill="none" stroke="black" points="248.5,-1139 248.5,-1161 371.5,-1161 371.5,-1139 248.5,-1139"/>
<text text-anchor="start" x="251.5" y="-1147.2" font-family="Helvetica,sans-Serif" font-size="11.00">numeric[10,2]</text>
<polygon fill="none" stroke="black" points="10.5,-1117 10.5,-1139 248.5,-1139 248.5,-1117 10.5,-1117"/>
<text text-anchor="start" x="30.5" y="-1125.2" font-family="Helvetica,sans-Serif" font-size="11.00">rv_base_year</text>
<polygon fill="none" stroke="black" points="248.5,-1117 248.5,-1139 371.5,-1139 371.5,-1117 248.5,-1117"/>
<text text-anchor="start" x="251.5" y="-1125.2" font-family="Helvetica,sans-Serif" font-size="11.00">int2[5]</text>
<polygon fill="none" stroke="black" points="10.5,-1095 10.5,-1117 248.5,-1117 248.5,-1095 10.5,-1095"/>
<text text-anchor="start" x="30.5" y="-1103.2" font-family="Helvetica,sans-Serif" font-size="11.00">rv_construction_type</text>
<polygon fill="none" stroke="black" points="248.5,-1095 248.5,-1117 371.5,-1117 371.5,-1095 248.5,-1095"/>
<text text-anchor="start" x="251.5" y="-1103.2" font-family="Helvetica,sans-Serif" font-size="11.00">int4[10]</text>
<polygon fill="none" stroke="black" points="10.5,-1073 10.5,-1095 248.5,-1095 248.5,-1073 10.5,-1073"/>
<text text-anchor="start" x="30.5" y="-1081.2" font-family="Helvetica,sans-Serif" font-size="11.00">status_survey_year</text>
<polygon fill="none" stroke="black" points="248.5,-1073 248.5,-1095 371.5,-1095 371.5,-1073 248.5,-1073"/>
<text text-anchor="start" x="251.5" y="-1081.2" font-family="Helvetica,sans-Serif" font-size="11.00">int2[5]</text>
<polygon fill="none" stroke="black" points="10.5,-1051 10.5,-1073 248.5,-1073 248.5,-1051 10.5,-1051"/>
<text text-anchor="start" x="30.5" y="-1059.2" font-family="Helvetica,sans-Serif" font-size="11.00">structure_condition</text>
<polygon fill="none" stroke="black" points="248.5,-1051 248.5,-1073 371.5,-1073 371.5,-1051 248.5,-1051"/>
<text text-anchor="start" x="251.5" y="-1059.2" font-family="Helvetica,sans-Serif" font-size="11.00">int4[10]</text>
<polygon fill="none" stroke="black" points="10.5,-1029 10.5,-1051 248.5,-1051 248.5,-1029 10.5,-1029"/>
<text text-anchor="start" x="30.5" y="-1037.2" font-family="Helvetica,sans-Serif" font-size="11.00">subsidies</text>
<polygon fill="none" stroke="black" points="248.5,-1029 248.5,-1051 371.5,-1051 371.5,-1029 248.5,-1029"/>
<text text-anchor="start" x="251.5" y="-1037.2" font-family="Helvetica,sans-Serif" font-size="11.00">numeric[10,2]</text>
<polygon fill="none" stroke="black" points="10.5,-1007 10.5,-1029 248.5,-1029 248.5,-1007 10.5,-1007"/>
<text text-anchor="start" x="30.5" y="-1015.2" font-family="Helvetica,sans-Serif" font-size="11.00">urgency_figure</text>
<polygon fill="none" stroke="black" points="248.5,-1007 248.5,-1029 371.5,-1029 371.5,-1007 248.5,-1007"/>
<text text-anchor="start" x="251.5" y="-1015.2" font-family="Helvetica,sans-Serif" font-size="11.00">int2[5]</text>
<polygon fill="none" stroke="black" points="10.5,-985 10.5,-1007 248.5,-1007 248.5,-985 10.5,-985"/>
<text text-anchor="start" x="30.5" y="-993.2" font-family="Helvetica,sans-Serif" font-size="11.00">year_of_construction</text>
<polygon fill="none" stroke="black" points="248.5,-985 248.5,-1007 371.5,-1007 371.5,-985 248.5,-985"/>
<text text-anchor="start" x="251.5" y="-993.2" font-family="Helvetica,sans-Serif" font-size="11.00">int2[5]</text>
<polygon fill="none" stroke="black" points="10.5,-963 10.5,-985 248.5,-985 248.5,-963 10.5,-963"/>
<text text-anchor="start" x="30.5" y="-971.2" font-family="Helvetica,sans-Serif" font-size="11.00">year_of_replacement</text>
<polygon fill="none" stroke="black" points="248.5,-963 248.5,-985 371.5,-985 371.5,-963 248.5,-963"/>
<text text-anchor="start" x="251.5" y="-971.2" font-family="Helvetica,sans-Serif" font-size="11.00">int2[5]</text>
<polygon fill="none" stroke="black" points="10.5,-941 10.5,-963 248.5,-963 248.5,-941 10.5,-941"/>
<text text-anchor="start" x="30.5" y="-949.2" font-family="Helvetica,sans-Serif" font-size="11.00">co_identifier</text>
<polygon fill="none" stroke="black" points="248.5,-941 248.5,-963 371.5,-963 371.5,-941 248.5,-941"/>
<text text-anchor="start" x="251.5" y="-949.2" font-family="Helvetica,sans-Serif" font-size="11.00">text[2147483647]</text>
<polygon fill="none" stroke="black" points="10.5,-919 10.5,-941 248.5,-941 248.5,-919 10.5,-919"/>
<text text-anchor="start" x="30.5" y="-927.2" font-family="Helvetica,sans-Serif" font-size="11.00">co_remark</text>
<polygon fill="none" stroke="black" points="248.5,-919 248.5,-941 371.5,-941 371.5,-919 248.5,-919"/>
<text text-anchor="start" x="251.5" y="-927.2" font-family="Helvetica,sans-Serif" font-size="11.00">text[2147483647]</text>
<polygon fill="none" stroke="black" points="10.5,-897 10.5,-919 248.5,-919 248.5,-897 10.5,-897"/>
<text text-anchor="start" x="30.5" y="-905.2" font-family="Helvetica,sans-Serif" font-size="11.00">co_renovation_demand</text>
<polygon fill="none" stroke="black" points="248.5,-897 248.5,-919 371.5,-919 371.5,-897 248.5,-897"/>
<text text-anchor="start" x="251.5" y="-905.2" font-family="Helvetica,sans-Serif" font-size="11.00">int4[10]</text>
<polygon fill="none" stroke="black" points="10.5,-875 10.5,-897 248.5,-897 248.5,-875 10.5,-875"/>
<text text-anchor="start" x="30.5" y="-883.2" font-family="Helvetica,sans-Serif" font-size="11.00">co_obj_id</text>
<polygon fill="none" stroke="black" points="248.5,-875 248.5,-897 371.5,-897 371.5,-875 248.5,-875"/>
<text text-anchor="start" x="251.5" y="-883.2" font-family="Helvetica,sans-Serif" font-size="11.00">varchar[16]</text>
<polygon fill="none" stroke="black" points="10.5,-853 10.5,-875 248.5,-875 248.5,-853 10.5,-853"/>
<text text-anchor="start" x="30.5" y="-861.2" font-family="Helvetica,sans-Serif" font-size="11.00">co_brand</text>
<polygon fill="none" stroke="black" points="248.5,-853 248.5,-875 371.5,-875 371.5,-853 248.5,-853"/>
<text text-anchor="start" x="251.5" y="-861.2" font-family="Helvetica,sans-Serif" font-size="11.00">text[2147483647]</text>
<polygon fill="none" stroke="black" points="10.5,-831 10.5,-853 248.5,-853 248.5,-831 10.5,-831"/>
<text text-anchor="start" x="30.5" y="-839.2" font-family="Helvetica,sans-Serif" font-size="11.00">co_shape</text>
<polygon fill="none" stroke="black" points="248.5,-831 248.5,-853 371.5,-853 371.5,-831 248.5,-831"/>
<text text-anchor="start" x="251.5" y="-839.2" font-family="Helvetica,sans-Serif" font-size="11.00">int4[10]</text>
<polygon fill="none" stroke="black" points="10.5,-809 10.5,-831 248.5,-831 248.5,-809 10.5,-809"/>
<text text-anchor="start" x="30.5" y="-817.2" font-family="Helvetica,sans-Serif" font-size="11.00">co_diameter</text>
<polygon fill="none" stroke="black" points="248.5,-809 248.5,-831 371.5,-831 371.5,-809 248.5,-809"/>
<text text-anchor="start" x="251.5" y="-817.2" font-family="Helvetica,sans-Serif" font-size="11.00">int2[5]</text>
<polygon fill="none" stroke="black" points="10.5,-787 10.5,-809 248.5,-809 248.5,-787 10.5,-787"/>
<text text-anchor="start" x="30.5" y="-795.2" font-family="Helvetica,sans-Serif" font-size="11.00">co_fastening</text>
<polygon fill="none" stroke="black" points="248.5,-787 248.5,-809 371.5,-809 371.5,-787 248.5,-787"/>
<text text-anchor="start" x="251.5" y="-795.2" font-family="Helvetica,sans-Serif" font-size="11.00">int4[10]</text>
<polygon fill="none" stroke="black" points="10.5,-765 10.5,-787 248.5,-787 248.5,-765 10.5,-765"/>
<text text-anchor="start" x="30.5" y="-773.2" font-family="Helvetica,sans-Serif" font-size="11.00">co_level</text>
<polygon fill="none" stroke="black" points="248.5,-765 248.5,-787 371.5,-787 371.5,-765 248.5,-765"/>
<text text-anchor="start" x="251.5" y="-773.2" font-family="Helvetica,sans-Serif" font-size="11.00">numeric[7,3]</text>
<polygon fill="none" stroke="black" points="10.5,-743 10.5,-765 248.5,-765 248.5,-743 10.5,-743"/>
<text text-anchor="start" x="30.5" y="-751.2" font-family="Helvetica,sans-Serif" font-size="11.00">co_material</text>
<polygon fill="none" stroke="black" points="248.5,-743 248.5,-765 371.5,-765 371.5,-743 248.5,-743"/>
<text text-anchor="start" x="251.5" y="-751.2" font-family="Helvetica,sans-Serif" font-size="11.00">int4[10]</text>
<polygon fill="none" stroke="black" points="10.5,-721 10.5,-743 248.5,-743 248.5,-721 10.5,-721"/>
<text text-anchor="start" x="30.5" y="-729.2" font-family="Helvetica,sans-Serif" font-size="11.00">co_positional_accuracy</text>
<polygon fill="none" stroke="black" points="248.5,-721 248.5,-743 371.5,-743 371.5,-721 248.5,-721"/>
<text text-anchor="start" x="251.5" y="-729.2" font-family="Helvetica,sans-Serif" font-size="11.00">int4[10]</text>
<polygon fill="none" stroke="black" points="10.5,-699 10.5,-721 248.5,-721 248.5,-699 10.5,-699"/>
<text text-anchor="start" x="30.5" y="-707.2" font-family="Helvetica,sans-Serif" font-size="11.00">co_sludge_bucket</text>
<polygon fill="none" stroke="black" points="248.5,-699 248.5,-721 371.5,-721 371.5,-699 248.5,-699"/>
<text text-anchor="start" x="251.5" y="-707.2" font-family="Helvetica,sans-Serif" font-size="11.00">int4[10]</text>
<polygon fill="none" stroke="black" points="10.5,-677 10.5,-699 248.5,-699 248.5,-677 10.5,-677"/>
<text text-anchor="start" x="30.5" y="-685.2" font-family="Helvetica,sans-Serif" font-size="11.00">co_venting</text>
<polygon fill="none" stroke="black" points="248.5,-677 248.5,-699 371.5,-699 371.5,-677 248.5,-677"/>
<text text-anchor="start" x="251.5" y="-685.2" font-family="Helvetica,sans-Serif" font-size="11.00">int4[10]</text>
<polygon fill="none" stroke="black" points="10.5,-655 10.5,-677 248.5,-677 248.5,-655 10.5,-655"/>
<text text-anchor="start" x="30.5" y="-663.2" font-family="Helvetica,sans-Serif" font-size="11.00">situation3d_geometry</text>
<polygon fill="none" stroke="black" points="248.5,-655 248.5,-677 371.5,-677 371.5,-655 248.5,-655"/>
<text text-anchor="start" x="251.5" y="-663.2" font-family="Helvetica,sans-Serif" font-size="11.00">geometry[2147483647]</text>
<polygon fill="none" stroke="black" points="10.5,-633 10.5,-655 248.5,-655 248.5,-633 10.5,-633"/>
<text text-anchor="start" x="30.5" y="-641.2" font-family="Helvetica,sans-Serif" font-size="11.00">wt_fk_waste_water_treatment_plant</text>
<polygon fill="none" stroke="black" points="248.5,-633 248.5,-655 371.5,-655 371.5,-633 248.5,-633"/>
<text text-anchor="start" x="251.5" y="-641.2" font-family="Helvetica,sans-Serif" font-size="11.00">varchar[16]</text>
<polygon fill="none" stroke="black" points="10.5,-611 10.5,-633 248.5,-633 248.5,-611 10.5,-611"/>
<text text-anchor="start" x="30.5" y="-619.2" font-family="Helvetica,sans-Serif" font-size="11.00">sm_approval_number</text>
<polygon fill="none" stroke="black" points="248.5,-611 248.5,-633 371.5,-633 371.5,-611 248.5,-611"/>
<text text-anchor="start" x="251.5" y="-619.2" font-family="Helvetica,sans-Serif" font-size="11.00">text[2147483647]</text>
<polygon fill="none" stroke="black" points="10.5,-589 10.5,-611 248.5,-611 248.5,-589 10.5,-589"/>
<text text-anchor="start" x="30.5" y="-597.2" font-family="Helvetica,sans-Serif" font-size="11.00">sm_installation_number</text>
<polygon fill="none" stroke="black" points="248.5,-589 248.5,-611 371.5,-611 371.5,-589 248.5,-589"/>
<text text-anchor="start" x="251.5" y="-597.2" font-family="Helvetica,sans-Serif" font-size="11.00">int4[10]</text>
<polygon fill="none" stroke="black" points="10.5,-567 10.5,-589 248.5,-589 248.5,-567 10.5,-567"/>
<text text-anchor="start" x="30.5" y="-575.2" font-family="Helvetica,sans-Serif" font-size="11.00">sm_remote_monitoring</text>
<polygon fill="none" stroke="black" points="248.5,-567 248.5,-589 371.5,-589 371.5,-567 248.5,-567"/>
<text text-anchor="start" x="251.5" y="-575.2" font-family="Helvetica,sans-Serif" font-size="11.00">int4[10]</text>
<polygon fill="none" stroke="black" points="10.5,-545 10.5,-567 248.5,-567 248.5,-545 10.5,-545"/>
<text text-anchor="start" x="30.5" y="-553.2" font-family="Helvetica,sans-Serif" font-size="11.00">to_kind</text>
<polygon fill="none" stroke="black" points="248.5,-545 248.5,-567 371.5,-567 371.5,-545 248.5,-545"/>
<text text-anchor="start" x="251.5" y="-553.2" font-family="Helvetica,sans-Serif" font-size="11.00">int4[10]</text>
<polygon fill="none" stroke="black" points="10.5,-523 10.5,-545 248.5,-545 248.5,-523 10.5,-523"/>
<text text-anchor="start" x="30.5" y="-531.2" font-family="Helvetica,sans-Serif" font-size="11.00">wn_obj_id</text>
<polygon fill="none" stroke="black" points="248.5,-523 248.5,-545 371.5,-545 371.5,-523 248.5,-523"/>
<text text-anchor="start" x="251.5" y="-531.2" font-family="Helvetica,sans-Serif" font-size="11.00">varchar[16]</text>
<polygon fill="none" stroke="black" points="10.5,-501 10.5,-523 248.5,-523 248.5,-501 10.5,-501"/>
<text text-anchor="start" x="30.5" y="-509.2" font-family="Helvetica,sans-Serif" font-size="11.00">wn__function_hierarchic</text>
<polygon fill="none" stroke="black" points="248.5,-501 248.5,-523 371.5,-523 371.5,-501 248.5,-501"/>
<text text-anchor="start" x="251.5" y="-509.2" font-family="Helvetica,sans-Serif" font-size="11.00">int4[10]</text>
<polygon fill="none" stroke="black" points="10.5,-479 10.5,-501 248.5,-501 248.5,-479 10.5,-479"/>
<text text-anchor="start" x="30.5" y="-487.2" font-family="Helvetica,sans-Serif" font-size="11.00">wn__status</text>
<polygon fill="none" stroke="black" points="248.5,-479 248.5,-501 371.5,-501 371.5,-479 248.5,-479"/>
<text text-anchor="start" x="251.5" y="-487.2" font-family="Helvetica,sans-Serif" font-size="11.00">int4[10]</text>
<polygon fill="none" stroke="black" points="10.5,-457 10.5,-479 248.5,-479 248.5,-457 10.5,-457"/>
<text text-anchor="start" x="30.5" y="-465.2" font-family="Helvetica,sans-Serif" font-size="11.00">wn__usage_current</text>
<polygon fill="none" stroke="black" points="248.5,-457 248.5,-479 371.5,-479 371.5,-457 248.5,-457"/>
<text text-anchor="start" x="251.5" y="-465.2" font-family="Helvetica,sans-Serif" font-size="11.00">int4[10]</text>
<polygon fill="none" stroke="black" points="10.5,-435 10.5,-457 248.5,-457 248.5,-435 10.5,-435"/>
<text text-anchor="start" x="30.5" y="-443.2" font-family="Helvetica,sans-Serif" font-size="11.00">wn_backflow_level_current</text>
<polygon fill="none" stroke="black" points="248.5,-435 248.5,-457 371.5,-457 371.5,-435 248.5,-435"/>
<text text-anchor="start" x="251.5" y="-443.2" font-family="Helvetica,sans-Serif" font-size="11.00">numeric[7,3]</text>
<polygon fill="none" stroke="black" points="10.5,-413 10.5,-435 248.5,-435 248.5,-413 10.5,-413"/>
<text text-anchor="start" x="30.5" y="-421.2" font-family="Helvetica,sans-Serif" font-size="11.00">wn_bottom_level</text>
<polygon fill="none" stroke="black" points="248.5,-413 248.5,-435 371.5,-435 371.5,-413 248.5,-413"/>
<text text-anchor="start" x="251.5" y="-421.2" font-family="Helvetica,sans-Serif" font-size="11.00">numeric[7,3]</text>
<polygon fill="none" stroke="black" points="10.5,-391 10.5,-413 248.5,-413 248.5,-391 10.5,-391"/>
<text text-anchor="start" x="30.5" y="-399.2" font-family="Helvetica,sans-Serif" font-size="11.00">wn_elevation_accuracy</text>
<polygon fill="none" stroke="black" points="248.5,-391 248.5,-413 371.5,-413 371.5,-391 248.5,-391"/>
<text text-anchor="start" x="251.5" y="-399.2" font-family="Helvetica,sans-Serif" font-size="11.00">int4[10]</text>
<polygon fill="none" stroke="black" points="10.5,-369 10.5,-391 248.5,-391 248.5,-369 10.5,-369"/>
<text text-anchor="start" x="30.5" y="-377.2" font-family="Helvetica,sans-Serif" font-size="11.00">wn_fk_hydr_geometry</text>
<polygon fill="none" stroke="black" points="248.5,-369 248.5,-391 371.5,-391 371.5,-369 248.5,-369"/>
<text text-anchor="start" x="251.5" y="-377.2" font-family="Helvetica,sans-Serif" font-size="11.00">varchar[16]</text>
<polygon fill="none" stroke="black" points="10.5,-347 10.5,-369 248.5,-369 248.5,-347 10.5,-347"/>
<text text-anchor="start" x="30.5" y="-355.2" font-family="Helvetica,sans-Serif" font-size="11.00">wn_function_node_amelioration</text>
<polygon fill="none" stroke="black" points="248.5,-347 248.5,-369 371.5,-369 371.5,-347 248.5,-347"/>
<text text-anchor="start" x="251.5" y="-355.2" font-family="Helvetica,sans-Serif" font-size="11.00">int4[10]</text>
<polygon fill="none" stroke="black" points="10.5,-325 10.5,-347 248.5,-347 248.5,-325 10.5,-325"/>
<text text-anchor="start" x="30.5" y="-333.2" font-family="Helvetica,sans-Serif" font-size="11.00">wn_wwtp_number</text>
<polygon fill="none" stroke="black" points="248.5,-325 248.5,-347 371.5,-347 371.5,-325 248.5,-325"/>
<text text-anchor="start" x="251.5" y="-333.2" font-family="Helvetica,sans-Serif" font-size="11.00">int4[10]</text>
<polygon fill="none" stroke="black" points="10.5,-303 10.5,-325 248.5,-325 248.5,-303 10.5,-303"/>
<text text-anchor="start" x="30.5" y="-311.2" font-family="Helvetica,sans-Serif" font-size="11.00">wn_fk_dataowner</text>
<polygon fill="none" stroke="black" points="248.5,-303 248.5,-325 371.5,-325 371.5,-303 248.5,-303"/>
<text text-anchor="start" x="251.5" y="-311.2" font-family="Helvetica,sans-Serif" font-size="11.00">varchar[16]</text>
<polygon fill="none" stroke="black" points="10.5,-281 10.5,-303 248.5,-303 248.5,-281 10.5,-281"/>
<text text-anchor="start" x="30.5" y="-289.2" font-family="Helvetica,sans-Serif" font-size="11.00">wn_fk_provider</text>
<polygon fill="none" stroke="black" points="248.5,-281 248.5,-303 371.5,-303 371.5,-281 248.5,-281"/>
<text text-anchor="start" x="251.5" y="-289.2" font-family="Helvetica,sans-Serif" font-size="11.00">varchar[16]</text>
<polygon fill="none" stroke="black" points="10.5,-259 10.5,-281 248.5,-281 248.5,-259 10.5,-259"/>
<text text-anchor="start" x="30.5" y="-267.2" font-family="Helvetica,sans-Serif" font-size="11.00">wn_fk_wastewater_structure</text>
<polygon fill="none" stroke="black" points="248.5,-259 248.5,-281 371.5,-281 371.5,-259 248.5,-259"/>
<text text-anchor="start" x="251.5" y="-267.2" font-family="Helvetica,sans-Serif" font-size="11.00">varchar[16]</text>
<polygon fill="none" stroke="black" points="10.5,-237 10.5,-259 248.5,-259 248.5,-237 10.5,-237"/>
<text text-anchor="start" x="30.5" y="-245.2" font-family="Helvetica,sans-Serif" font-size="11.00">wn_identifier</text>
<polygon fill="none" stroke="black" points="248.5,-237 248.5,-259 371.5,-259 371.5,-237 248.5,-237"/>
<text text-anchor="start" x="251.5" y="-245.2" font-family="Helvetica,sans-Serif" font-size="11.00">text[2147483647]</text>
<polygon fill="none" stroke="black" points="10.5,-215 10.5,-237 248.5,-237 248.5,-215 10.5,-215"/>
<text text-anchor="start" x="30.5" y="-223.2" font-family="Helvetica,sans-Serif" font-size="11.00">wn_last_modification</text>
<polygon fill="none" stroke="black" points="248.5,-215 248.5,-237 371.5,-237 371.5,-215 248.5,-215"/>
<text text-anchor="start" x="251.5" y="-223.2" font-family="Helvetica,sans-Serif" font-size="11.00">timestamp[29,6]</text>
<polygon fill="none" stroke="black" points="10.5,-193 10.5,-215 248.5,-215 248.5,-193 10.5,-193"/>
<text text-anchor="start" x="30.5" y="-201.2" font-family="Helvetica,sans-Serif" font-size="11.00">wn_remark</text>
<polygon fill="none" stroke="black" points="248.5,-193 248.5,-215 371.5,-215 371.5,-193 248.5,-193"/>
<text text-anchor="start" x="251.5" y="-201.2" font-family="Helvetica,sans-Serif" font-size="11.00">text[2147483647]</text>
<polygon fill="none" stroke="black" points="10.5,-171 10.5,-193 248.5,-193 248.5,-171 10.5,-171"/>
<text text-anchor="start" x="30.5" y="-179.2" font-family="Helvetica,sans-Serif" font-size="11.00">_label</text>
<polygon fill="none" stroke="black" points="248.5,-171 248.5,-193 371.5,-193 371.5,-171 248.5,-171"/>
<text text-anchor="start" x="251.5" y="-179.2" font-family="Helvetica,sans-Serif" font-size="11.00">text[2147483647]</text>
<polygon fill="none" stroke="black" points="10.5,-149 10.5,-171 248.5,-171 248.5,-149 10.5,-149"/>
<text text-anchor="start" x="30.5" y="-157.2" font-family="Helvetica,sans-Serif" font-size="11.00">_cover_label</text>
<polygon fill="none" stroke="black" points="248.5,-149 248.5,-171 371.5,-171 371.5,-149 248.5,-149"/>
<text text-anchor="start" x="251.5" y="-157.2" font-family="Helvetica,sans-Serif" font-size="11.00">text[2147483647]</text>
<polygon fill="none" stroke="black" points="10.5,-127 10.5,-149 248.5,-149 248.5,-127 10.5,-127"/>
<text text-anchor="start" x="30.5" y="-135.2" font-family="Helvetica,sans-Serif" font-size="11.00">_bottom_label</text>
<polygon fill="none" stroke="black" points="248.5,-127 248.5,-149 371.5,-149 371.5,-127 248.5,-127"/>
<text text-anchor="start" x="251.5" y="-135.2" font-family="Helvetica,sans-Serif" font-size="11.00">text[2147483647]</text>
<polygon fill="none" stroke="black" points="10.5,-105 10.5,-127 248.5,-127 248.5,-105 10.5,-105"/>
<text text-anchor="start" x="30.5" y="-113.2" font-family="Helvetica,sans-Serif" font-size="11.00">_input_label</text>
<polygon fill="none" stroke="black" points="248.5,-105 248.5,-127 371.5,-127 371.5,-105 248.5,-105"/>
<text text-anchor="start" x="251.5" y="-113.2" font-family="Helvetica,sans-Serif" font-size="11.00">text[2147483647]</text>
<polygon fill="none" stroke="black" points="10.5,-83 10.5,-105 248.5,-105 248.5,-83 10.5,-83"/>
<text text-anchor="start" x="30.5" y="-91.2" font-family="Helvetica,sans-Serif" font-size="11.00">_output_label</text>
<polygon fill="none" stroke="black" points="248.5,-83 248.5,-105 371.5,-105 371.5,-83 248.5,-83"/>
<text text-anchor="start" x="251.5" y="-91.2" font-family="Helvetica,sans-Serif" font-size="11.00">text[2147483647]</text>
<polygon fill="none" stroke="black" points="10.5,-61 10.5,-83 248.5,-83 248.5,-61 10.5,-61"/>
<text text-anchor="start" x="30.5" y="-69.2" font-family="Helvetica,sans-Serif" font-size="11.00">_channel_usage_current</text>
<polygon fill="none" stroke="black" points="248.5,-61 248.5,-83 371.5,-83 371.5,-61 248.5,-61"/>
<text text-anchor="start" x="251.5" y="-69.2" font-family="Helvetica,sans-Serif" font-size="11.00">int4[10]</text>
<polygon fill="none" stroke="black" points="10.5,-39 10.5,-61 248.5,-61 248.5,-39 10.5,-39"/>
<text text-anchor="start" x="30.5" y="-47.2" font-family="Helvetica,sans-Serif" font-size="11.00">_channel_function_hierarchic</text>
<polygon fill="none" stroke="black" points="248.5,-39 248.5,-61 371.5,-61 371.5,-39 248.5,-39"/>
<text text-anchor="start" x="251.5" y="-47.2" font-family="Helvetica,sans-Serif" font-size="11.00">int4[10]</text>
<polygon fill="none" stroke="black" stroke-width="2" points="9,-38 9,-1690 372,-1690 372,-38 9,-38"/>
</a>
</g>
</g>
</g>
</svg>
