<?xml version="1.0" encoding="UTF-8" standalone="no"?>
<!DOCTYPE svg PUBLIC "-//W3C//DTD SVG 1.1//EN"
 "http://www.w3.org/Graphics/SVG/1.1/DTD/svg11.dtd">
<!-- Generated by graphviz version 2.43.0 (0)
 -->
<!-- Title: oneDegreeRelationshipsDiagram Pages: 1 -->
<svg width="474pt" height="911pt"
 viewBox="0.00 0.00 474.00 911.00" xmlns="http://www.w3.org/2000/svg" xmlns:xlink="http://www.w3.org/1999/xlink">
<g id="graph0" class="graph" transform="scale(1 1) rotate(0) translate(4 907)">
<title>oneDegreeRelationshipsDiagram</title>
<polygon fill="#ffffff" stroke="transparent" points="-4,4 -4,-907 470,-907 470,4 -4,4"/>
<text text-anchor="middle" x="79.5" y="-7.2" font-family="Helvetica,sans-Serif" font-size="11.00">Generated by SchemaSpy</text>
<!-- vw_tww_overflow -->
<g id="node1" class="node">
<title>vw_tww_overflow</title>
<g id="a_node1"><a xlink:href="../../tables/vw_tww_overflow.html" xlink:title="vw_tww_overflow" target="_top">
<polygon fill="#ffffff" stroke="transparent" points="8,-37 8,-899 458,-899 458,-37 8,-37"/>
<polygon fill="#f5f5f5" stroke="transparent" points="10,-875 10,-897 456,-897 456,-875 10,-875"/>
<polygon fill="none" stroke="black" points="10,-875 10,-897 456,-897 456,-875 10,-875"/>
<text text-anchor="start" x="15" y="-884.2" font-family="Helvetica,sans-Serif" font-weight="bold" font-size="11.00">vw_tww_overflow</text>
<text text-anchor="start" x="416" y="-883.2" font-family="Helvetica,sans-Serif" font-size="11.00">[view]</text>
<polygon fill="none" stroke="black" points="10,-853 10,-875 223,-875 223,-853 10,-853"/>
<text text-anchor="start" x="30" y="-861.2" font-family="Helvetica,sans-Serif" font-size="11.00">overflow_type</text>
<polygon fill="none" stroke="black" points="223,-853 223,-875 456,-875 456,-853 223,-853"/>
<text text-anchor="start" x="226" y="-861.2" font-family="Helvetica,sans-Serif" font-size="11.00">&quot;tww_app&quot;.&quot;overflow_type&quot;[2147483647]</text>
<polygon fill="none" stroke="black" points="10,-831 10,-853 223,-853 223,-831 10,-831"/>
<text text-anchor="start" x="30" y="-839.2" font-family="Helvetica,sans-Serif" font-size="11.00">obj_id</text>
<polygon fill="none" stroke="black" points="223,-831 223,-853 456,-853 456,-831 223,-831"/>
<text text-anchor="start" x="226" y="-839.2" font-family="Helvetica,sans-Serif" font-size="11.00">varchar[16]</text>
<polygon fill="none" stroke="black" points="10,-809 10,-831 223,-831 223,-809 10,-809"/>
<text text-anchor="start" x="30" y="-817.2" font-family="Helvetica,sans-Serif" font-size="11.00">actuation</text>
<polygon fill="none" stroke="black" points="223,-809 223,-831 456,-831 456,-809 223,-809"/>
<text text-anchor="start" x="226" y="-817.2" font-family="Helvetica,sans-Serif" font-size="11.00">int4[10]</text>
<polygon fill="none" stroke="black" points="10,-787 10,-809 223,-809 223,-787 10,-787"/>
<text text-anchor="start" x="30" y="-795.2" font-family="Helvetica,sans-Serif" font-size="11.00">adjustability</text>
<polygon fill="none" stroke="black" points="223,-787 223,-809 456,-809 456,-787 223,-787"/>
<text text-anchor="start" x="226" y="-795.2" font-family="Helvetica,sans-Serif" font-size="11.00">int4[10]</text>
<polygon fill="none" stroke="black" points="10,-765 10,-787 223,-787 223,-765 10,-765"/>
<text text-anchor="start" x="30" y="-773.2" font-family="Helvetica,sans-Serif" font-size="11.00">brand</text>
<polygon fill="none" stroke="black" points="223,-765 223,-787 456,-787 456,-765 223,-765"/>
<text text-anchor="start" x="226" y="-773.2" font-family="Helvetica,sans-Serif" font-size="11.00">text[2147483647]</text>
<polygon fill="none" stroke="black" points="10,-743 10,-765 223,-765 223,-743 10,-743"/>
<text text-anchor="start" x="30" y="-751.2" font-family="Helvetica,sans-Serif" font-size="11.00">control</text>
<polygon fill="none" stroke="black" points="223,-743 223,-765 456,-765 456,-743 223,-743"/>
<text text-anchor="start" x="226" y="-751.2" font-family="Helvetica,sans-Serif" font-size="11.00">int4[10]</text>
<polygon fill="none" stroke="black" points="10,-721 10,-743 223,-743 223,-721 10,-721"/>
<text text-anchor="start" x="30" y="-729.2" font-family="Helvetica,sans-Serif" font-size="11.00">discharge_point</text>
<polygon fill="none" stroke="black" points="223,-721 223,-743 456,-743 456,-721 223,-721"/>
<text text-anchor="start" x="226" y="-729.2" font-family="Helvetica,sans-Serif" font-size="11.00">text[2147483647]</text>
<polygon fill="none" stroke="black" points="10,-699 10,-721 223,-721 223,-699 10,-699"/>
<text text-anchor="start" x="30" y="-707.2" font-family="Helvetica,sans-Serif" font-size="11.00">fk_control_center</text>
<polygon fill="none" stroke="black" points="223,-699 223,-721 456,-721 456,-699 223,-699"/>
<text text-anchor="start" x="226" y="-707.2" font-family="Helvetica,sans-Serif" font-size="11.00">varchar[16]</text>
<polygon fill="none" stroke="black" points="10,-677 10,-699 223,-699 223,-677 10,-677"/>
<text text-anchor="start" x="30" y="-685.2" font-family="Helvetica,sans-Serif" font-size="11.00">fk_dataowner</text>
<polygon fill="none" stroke="black" points="223,-677 223,-699 456,-699 456,-677 223,-677"/>
<text text-anchor="start" x="226" y="-685.2" font-family="Helvetica,sans-Serif" font-size="11.00">varchar[16]</text>
<polygon fill="none" stroke="black" points="10,-655 10,-677 223,-677 223,-655 10,-655"/>
<text text-anchor="start" x="30" y="-663.2" font-family="Helvetica,sans-Serif" font-size="11.00">fk_overflow_char</text>
<polygon fill="none" stroke="black" points="223,-655 223,-677 456,-677 456,-655 223,-655"/>
<text text-anchor="start" x="226" y="-663.2" font-family="Helvetica,sans-Serif" font-size="11.00">varchar[16]</text>
<polygon fill="none" stroke="black" points="10,-633 10,-655 223,-655 223,-633 10,-633"/>
<text text-anchor="start" x="30" y="-641.2" font-family="Helvetica,sans-Serif" font-size="11.00">fk_overflow_to</text>
<polygon fill="none" stroke="black" points="223,-633 223,-655 456,-655 456,-633 223,-633"/>
<text text-anchor="start" x="226" y="-641.2" font-family="Helvetica,sans-Serif" font-size="11.00">varchar[16]</text>
<polygon fill="none" stroke="black" points="10,-611 10,-633 223,-633 223,-611 10,-611"/>
<text text-anchor="start" x="30" y="-619.2" font-family="Helvetica,sans-Serif" font-size="11.00">fk_provider</text>
<polygon fill="none" stroke="black" points="223,-611 223,-633 456,-633 456,-611 223,-611"/>
<text text-anchor="start" x="226" y="-619.2" font-family="Helvetica,sans-Serif" font-size="11.00">varchar[16]</text>
<polygon fill="none" stroke="black" points="10,-589 10,-611 223,-611 223,-589 10,-589"/>
<text text-anchor="start" x="30" y="-597.2" font-family="Helvetica,sans-Serif" font-size="11.00">fk_wastewater_node</text>
<polygon fill="none" stroke="black" points="223,-589 223,-611 456,-611 456,-589 223,-589"/>
<text text-anchor="start" x="226" y="-597.2" font-family="Helvetica,sans-Serif" font-size="11.00">varchar[16]</text>
<polygon fill="none" stroke="black" points="10,-567 10,-589 223,-589 223,-567 10,-567"/>
<text text-anchor="start" x="30" y="-575.2" font-family="Helvetica,sans-Serif" font-size="11.00">function</text>
<polygon fill="none" stroke="black" points="223,-567 223,-589 456,-589 456,-567 223,-567"/>
<text text-anchor="start" x="226" y="-575.2" font-family="Helvetica,sans-Serif" font-size="11.00">int4[10]</text>
<polygon fill="none" stroke="black" points="10,-545 10,-567 223,-567 223,-545 10,-545"/>
<text text-anchor="start" x="30" y="-553.2" font-family="Helvetica,sans-Serif" font-size="11.00">gross_costs</text>
<polygon fill="none" stroke="black" points="223,-545 223,-567 456,-567 456,-545 223,-545"/>
<text text-anchor="start" x="226" y="-553.2" font-family="Helvetica,sans-Serif" font-size="11.00">numeric[10,2]</text>
<polygon fill="none" stroke="black" points="10,-523 10,-545 223,-545 223,-523 10,-523"/>
<text text-anchor="start" x="30" y="-531.2" font-family="Helvetica,sans-Serif" font-size="11.00">identifier</text>
<polygon fill="none" stroke="black" points="223,-523 223,-545 456,-545 456,-523 223,-523"/>
<text text-anchor="start" x="226" y="-531.2" font-family="Helvetica,sans-Serif" font-size="11.00">text[2147483647]</text>
<polygon fill="none" stroke="black" points="10,-501 10,-523 223,-523 223,-501 10,-501"/>
<text text-anchor="start" x="30" y="-509.2" font-family="Helvetica,sans-Serif" font-size="11.00">last_modification</text>
<polygon fill="none" stroke="black" points="223,-501 223,-523 456,-523 456,-501 223,-501"/>
<text text-anchor="start" x="226" y="-509.2" font-family="Helvetica,sans-Serif" font-size="11.00">timestamp[29,6]</text>
<polygon fill="none" stroke="black" points="10,-479 10,-501 223,-501 223,-479 10,-479"/>
<text text-anchor="start" x="30" y="-487.2" font-family="Helvetica,sans-Serif" font-size="11.00">qon_dim</text>
<polygon fill="none" stroke="black" points="223,-479 223,-501 456,-501 456,-479 223,-479"/>
<text text-anchor="start" x="226" y="-487.2" font-family="Helvetica,sans-Serif" font-size="11.00">numeric[9,3]</text>
<polygon fill="none" stroke="black" points="10,-457 10,-479 223,-479 223,-457 10,-457"/>
<text text-anchor="start" x="30" y="-465.2" font-family="Helvetica,sans-Serif" font-size="11.00">remark</text>
<polygon fill="none" stroke="black" points="223,-457 223,-479 456,-479 456,-457 223,-457"/>
<text text-anchor="start" x="226" y="-465.2" font-family="Helvetica,sans-Serif" font-size="11.00">text[2147483647]</text>
<polygon fill="none" stroke="black" points="10,-435 10,-457 223,-457 223,-435 10,-435"/>
<text text-anchor="start" x="30" y="-443.2" font-family="Helvetica,sans-Serif" font-size="11.00">signal_transmission</text>
<polygon fill="none" stroke="black" points="223,-435 223,-457 456,-457 456,-435 223,-435"/>
<text text-anchor="start" x="226" y="-443.2" font-family="Helvetica,sans-Serif" font-size="11.00">int4[10]</text>
<polygon fill="none" stroke="black" points="10,-413 10,-435 223,-435 223,-413 10,-413"/>
<text text-anchor="start" x="30" y="-421.2" font-family="Helvetica,sans-Serif" font-size="11.00">subsidies</text>
<polygon fill="none" stroke="black" points="223,-413 223,-435 456,-435 456,-413 223,-413"/>
<text text-anchor="start" x="226" y="-421.2" font-family="Helvetica,sans-Serif" font-size="11.00">numeric[10,2]</text>
<polygon fill="none" stroke="black" points="10,-391 10,-413 223,-413 223,-391 10,-391"/>
<text text-anchor="start" x="30" y="-399.2" font-family="Helvetica,sans-Serif" font-size="11.00">length</text>
<polygon fill="none" stroke="black" points="223,-391 223,-413 456,-413 456,-391 223,-391"/>
<text text-anchor="start" x="226" y="-399.2" font-family="Helvetica,sans-Serif" font-size="11.00">numeric[7,2]</text>
<polygon fill="none" stroke="black" points="10,-369 10,-391 223,-391 223,-369 10,-369"/>
<text text-anchor="start" x="30" y="-377.2" font-family="Helvetica,sans-Serif" font-size="11.00">opening_shape</text>
<polygon fill="none" stroke="black" points="223,-369 223,-391 456,-391 456,-369 223,-369"/>
<text text-anchor="start" x="226" y="-377.2" font-family="Helvetica,sans-Serif" font-size="11.00">int4[10]</text>
<polygon fill="none" stroke="black" points="10,-347 10,-369 223,-369 223,-347 10,-347"/>
<text text-anchor="start" x="30" y="-355.2" font-family="Helvetica,sans-Serif" font-size="11.00">width</text>
<polygon fill="none" stroke="black" points="223,-347 223,-369 456,-369 456,-347 223,-347"/>
<text text-anchor="start" x="226" y="-355.2" font-family="Helvetica,sans-Serif" font-size="11.00">numeric[7,2]</text>
<polygon fill="none" stroke="black" points="10,-325 10,-347 223,-347 223,-325 10,-325"/>
<text text-anchor="start" x="30" y="-333.2" font-family="Helvetica,sans-Serif" font-size="11.00">hydraulic_overflow_length</text>
<polygon fill="none" stroke="black" points="223,-325 223,-347 456,-347 456,-325 223,-325"/>
<text text-anchor="start" x="226" y="-333.2" font-family="Helvetica,sans-Serif" font-size="11.00">numeric[7,2]</text>
<polygon fill="none" stroke="black" points="10,-303 10,-325 223,-325 223,-303 10,-303"/>
<text text-anchor="start" x="30" y="-311.2" font-family="Helvetica,sans-Serif" font-size="11.00">level_max</text>
<polygon fill="none" stroke="black" points="223,-303 223,-325 456,-325 456,-303 223,-303"/>
<text text-anchor="start" x="226" y="-311.2" font-family="Helvetica,sans-Serif" font-size="11.00">numeric[7,3]</text>
<polygon fill="none" stroke="black" points="10,-281 10,-303 223,-303 223,-281 10,-281"/>
<text text-anchor="start" x="30" y="-289.2" font-family="Helvetica,sans-Serif" font-size="11.00">level_min</text>
<polygon fill="none" stroke="black" points="223,-281 223,-303 456,-303 456,-281 223,-281"/>
<text text-anchor="start" x="226" y="-289.2" font-family="Helvetica,sans-Serif" font-size="11.00">numeric[7,3]</text>
<polygon fill="none" stroke="black" points="10,-259 10,-281 223,-281 223,-259 10,-259"/>
<text text-anchor="start" x="30" y="-267.2" font-family="Helvetica,sans-Serif" font-size="11.00">weir_edge</text>
<polygon fill="none" stroke="black" points="223,-259 223,-281 456,-281 456,-259 223,-259"/>
<text text-anchor="start" x="226" y="-267.2" font-family="Helvetica,sans-Serif" font-size="11.00">int4[10]</text>
<polygon fill="none" stroke="black" points="10,-237 10,-259 223,-259 223,-237 10,-237"/>
<text text-anchor="start" x="30" y="-245.2" font-family="Helvetica,sans-Serif" font-size="11.00">weir_kind</text>
<polygon fill="none" stroke="black" points="223,-237 223,-259 456,-259 456,-237 223,-237"/>
<text text-anchor="start" x="226" y="-245.2" font-family="Helvetica,sans-Serif" font-size="11.00">int4[10]</text>
<polygon fill="none" stroke="black" points="10,-215 10,-237 223,-237 223,-215 10,-215"/>
<text text-anchor="start" x="30" y="-223.2" font-family="Helvetica,sans-Serif" font-size="11.00">construction_type</text>
<polygon fill="none" stroke="black" points="223,-215 223,-237 456,-237 456,-215 223,-215"/>
<text text-anchor="start" x="226" y="-223.2" font-family="Helvetica,sans-Serif" font-size="11.00">int4[10]</text>
<polygon fill="none" stroke="black" points="10,-193 10,-215 223,-215 223,-193 10,-193"/>
<text text-anchor="start" x="30" y="-201.2" font-family="Helvetica,sans-Serif" font-size="11.00">operating_point</text>
<polygon fill="none" stroke="black" points="223,-193 223,-215 456,-215 456,-193 223,-193"/>
<text text-anchor="start" x="226" y="-201.2" font-family="Helvetica,sans-Serif" font-size="11.00">numeric[8,3]</text>
<polygon fill="none" stroke="black" points="10,-171 10,-193 223,-193 223,-171 10,-171"/>
<text text-anchor="start" x="30" y="-179.2" font-family="Helvetica,sans-Serif" font-size="11.00">placement_of_actuation</text>
<polygon fill="none" stroke="black" points="223,-171 223,-193 456,-193 456,-171 223,-171"/>
<text text-anchor="start" x="226" y="-179.2" font-family="Helvetica,sans-Serif" font-size="11.00">int4[10]</text>
<polygon fill="none" stroke="black" points="10,-149 10,-171 223,-171 223,-149 10,-149"/>
<text text-anchor="start" x="30" y="-157.2" font-family="Helvetica,sans-Serif" font-size="11.00">placement_of_pump</text>
<polygon fill="none" stroke="black" points="223,-149 223,-171 456,-171 456,-149 223,-149"/>
<text text-anchor="start" x="226" y="-157.2" font-family="Helvetica,sans-Serif" font-size="11.00">int4[10]</text>
<polygon fill="none" stroke="black" points="10,-127 10,-149 223,-149 223,-127 10,-127"/>
<text text-anchor="start" x="30" y="-135.2" font-family="Helvetica,sans-Serif" font-size="11.00">pump_flow_max_single</text>
<polygon fill="none" stroke="black" points="223,-127 223,-149 456,-149 456,-127 223,-127"/>
<text text-anchor="start" x="226" y="-135.2" font-family="Helvetica,sans-Serif" font-size="11.00">numeric[9,3]</text>
<polygon fill="none" stroke="black" points="10,-105 10,-127 223,-127 223,-105 10,-105"/>
<text text-anchor="start" x="30" y="-113.2" font-family="Helvetica,sans-Serif" font-size="11.00">pump_flow_min_single</text>
<polygon fill="none" stroke="black" points="223,-105 223,-127 456,-127 456,-105 223,-105"/>
<text text-anchor="start" x="226" y="-113.2" font-family="Helvetica,sans-Serif" font-size="11.00">numeric[9,3]</text>
<polygon fill="none" stroke="black" points="10,-83 10,-105 223,-105 223,-83 10,-83"/>
<text text-anchor="start" x="30" y="-91.2" font-family="Helvetica,sans-Serif" font-size="11.00">start_level</text>
<polygon fill="none" stroke="black" points="223,-83 223,-105 456,-105 456,-83 223,-83"/>
<text text-anchor="start" x="226" y="-91.2" font-family="Helvetica,sans-Serif" font-size="11.00">numeric[7,3]</text>
<polygon fill="none" stroke="black" points="10,-61 10,-83 223,-83 223,-61 10,-61"/>
<text text-anchor="start" x="30" y="-69.2" font-family="Helvetica,sans-Serif" font-size="11.00">stop_level</text>
<polygon fill="none" stroke="black" points="223,-61 223,-83 456,-83 456,-61 223,-61"/>
<text text-anchor="start" x="226" y="-69.2" font-family="Helvetica,sans-Serif" font-size="11.00">numeric[7,3]</text>
<polygon fill="none" stroke="black" points="10,-39 10,-61 223,-61 223,-39 10,-39"/>
<text text-anchor="start" x="30" y="-47.2" font-family="Helvetica,sans-Serif" font-size="11.00">geometry</text>
<polygon fill="none" stroke="black" points="223,-39 223,-61 456,-61 456,-39 223,-39"/>
<text text-anchor="start" x="226" y="-47.2" font-family="Helvetica,sans-Serif" font-size="11.00">geometry[2147483647]</text>
<polygon fill="none" stroke="black" stroke-width="2" points="9,-38 9,-898 457,-898 457,-38 9,-38"/>
</a>
</g>
</g>
</g>
</svg>
