<?xml version="1.0" encoding="UTF-8" standalone="no"?>
<!DOCTYPE svg PUBLIC "-//W3C//DTD SVG 1.1//EN"
 "http://www.w3.org/Graphics/SVG/1.1/DTD/svg11.dtd">
<!-- Generated by graphviz version 2.43.0 (0)
 -->
<!-- Title: oneDegreeRelationshipsDiagram Pages: 1 -->
<svg width="407pt" height="1461pt"
 viewBox="0.00 0.00 407.00 1461.00" xmlns="http://www.w3.org/2000/svg" xmlns:xlink="http://www.w3.org/1999/xlink">
<g id="graph0" class="graph" transform="scale(1 1) rotate(0) translate(4 1457)">
<title>oneDegreeRelationshipsDiagram</title>
<polygon fill="#ffffff" stroke="transparent" points="-4,4 -4,-1457 403,-1457 403,4 -4,4"/>
<text text-anchor="middle" x="79.5" y="-7.2" font-family="Helvetica,sans-Serif" font-size="11.00">Generated by SchemaSpy</text>
<!-- vw_tww_channel_maintenance -->
<g id="node1" class="node">
<title>vw_tww_channel_maintenance</title>
<g id="a_node1"><a xlink:href="../../tables/vw_tww_channel_maintenance.html" xlink:title="vw_tww_channel_maintenance" target="_top">
<polygon fill="#ffffff" stroke="transparent" points="8,-37 8,-1449 391,-1449 391,-37 8,-37"/>
<polygon fill="#f5f5f5" stroke="transparent" points="10.5,-1425 10.5,-1447 389.5,-1447 389.5,-1425 10.5,-1425"/>
<polygon fill="none" stroke="black" points="10.5,-1425 10.5,-1447 389.5,-1447 389.5,-1425 10.5,-1425"/>
<text text-anchor="start" x="15.5" y="-1434.2" font-family="Helvetica,sans-Serif" font-weight="bold" font-size="11.00">vw_tww_channel_maintenance</text>
<text text-anchor="start" x="349.5" y="-1433.2" font-family="Helvetica,sans-Serif" font-size="11.00">[view]</text>
<polygon fill="none" stroke="black" points="10.5,-1403 10.5,-1425 253.5,-1425 253.5,-1403 10.5,-1403"/>
<text text-anchor="start" x="30.5" y="-1411.2" font-family="Helvetica,sans-Serif" font-size="11.00">id</text>
<polygon fill="none" stroke="black" points="253.5,-1403 253.5,-1425 389.5,-1425 389.5,-1403 253.5,-1403"/>
<text text-anchor="start" x="256.5" y="-1411.2" font-family="Helvetica,sans-Serif" font-size="11.00">uuid[2147483647]</text>
<polygon fill="none" stroke="black" points="10.5,-1381 10.5,-1403 253.5,-1403 253.5,-1381 10.5,-1381"/>
<text text-anchor="start" x="30.5" y="-1389.2" font-family="Helvetica,sans-Serif" font-size="11.00">obj_id</text>
<polygon fill="none" stroke="black" points="253.5,-1381 253.5,-1403 389.5,-1403 389.5,-1381 253.5,-1381"/>
<text text-anchor="start" x="256.5" y="-1389.2" font-family="Helvetica,sans-Serif" font-size="11.00">varchar[16]</text>
<polygon fill="none" stroke="black" points="10.5,-1359 10.5,-1381 253.5,-1381 253.5,-1359 10.5,-1359"/>
<text text-anchor="start" x="30.5" y="-1367.2" font-family="Helvetica,sans-Serif" font-size="11.00">base_data</text>
<polygon fill="none" stroke="black" points="253.5,-1359 253.5,-1381 389.5,-1381 389.5,-1359 253.5,-1359"/>
<text text-anchor="start" x="256.5" y="-1367.2" font-family="Helvetica,sans-Serif" font-size="11.00">text[2147483647]</text>
<polygon fill="none" stroke="black" points="10.5,-1337 10.5,-1359 253.5,-1359 253.5,-1337 10.5,-1337"/>
<text text-anchor="start" x="30.5" y="-1345.2" font-family="Helvetica,sans-Serif" font-size="11.00">cost</text>
<polygon fill="none" stroke="black" points="253.5,-1337 253.5,-1359 389.5,-1359 389.5,-1337 253.5,-1337"/>
<text text-anchor="start" x="256.5" y="-1345.2" font-family="Helvetica,sans-Serif" font-size="11.00">numeric[10,2]</text>
<polygon fill="none" stroke="black" points="10.5,-1315 10.5,-1337 253.5,-1337 253.5,-1315 10.5,-1315"/>
<text text-anchor="start" x="30.5" y="-1323.2" font-family="Helvetica,sans-Serif" font-size="11.00">data_details</text>
<polygon fill="none" stroke="black" points="253.5,-1315 253.5,-1337 389.5,-1337 389.5,-1315 253.5,-1315"/>
<text text-anchor="start" x="256.5" y="-1323.2" font-family="Helvetica,sans-Serif" font-size="11.00">text[2147483647]</text>
<polygon fill="none" stroke="black" points="10.5,-1293 10.5,-1315 253.5,-1315 253.5,-1293 10.5,-1293"/>
<text text-anchor="start" x="30.5" y="-1301.2" font-family="Helvetica,sans-Serif" font-size="11.00">duration</text>
<polygon fill="none" stroke="black" points="253.5,-1293 253.5,-1315 389.5,-1315 389.5,-1293 253.5,-1293"/>
<text text-anchor="start" x="256.5" y="-1301.2" font-family="Helvetica,sans-Serif" font-size="11.00">int2[5]</text>
<polygon fill="none" stroke="black" points="10.5,-1271 10.5,-1293 253.5,-1293 253.5,-1271 10.5,-1271"/>
<text text-anchor="start" x="30.5" y="-1279.2" font-family="Helvetica,sans-Serif" font-size="11.00">fk_dataowner</text>
<polygon fill="none" stroke="black" points="253.5,-1271 253.5,-1293 389.5,-1293 389.5,-1271 253.5,-1271"/>
<text text-anchor="start" x="256.5" y="-1279.2" font-family="Helvetica,sans-Serif" font-size="11.00">varchar[16]</text>
<polygon fill="none" stroke="black" points="10.5,-1249 10.5,-1271 253.5,-1271 253.5,-1249 10.5,-1249"/>
<text text-anchor="start" x="30.5" y="-1257.2" font-family="Helvetica,sans-Serif" font-size="11.00">fk_measure</text>
<polygon fill="none" stroke="black" points="253.5,-1249 253.5,-1271 389.5,-1271 389.5,-1249 253.5,-1249"/>
<text text-anchor="start" x="256.5" y="-1257.2" font-family="Helvetica,sans-Serif" font-size="11.00">varchar[16]</text>
<polygon fill="none" stroke="black" points="10.5,-1227 10.5,-1249 253.5,-1249 253.5,-1227 10.5,-1227"/>
<text text-anchor="start" x="30.5" y="-1235.2" font-family="Helvetica,sans-Serif" font-size="11.00">fk_operating_company</text>
<polygon fill="none" stroke="black" points="253.5,-1227 253.5,-1249 389.5,-1249 389.5,-1227 253.5,-1227"/>
<text text-anchor="start" x="256.5" y="-1235.2" font-family="Helvetica,sans-Serif" font-size="11.00">varchar[16]</text>
<polygon fill="none" stroke="black" points="10.5,-1205 10.5,-1227 253.5,-1227 253.5,-1205 10.5,-1205"/>
<text text-anchor="start" x="30.5" y="-1213.2" font-family="Helvetica,sans-Serif" font-size="11.00">fk_provider</text>
<polygon fill="none" stroke="black" points="253.5,-1205 253.5,-1227 389.5,-1227 389.5,-1205 253.5,-1205"/>
<text text-anchor="start" x="256.5" y="-1213.2" font-family="Helvetica,sans-Serif" font-size="11.00">varchar[16]</text>
<polygon fill="none" stroke="black" points="10.5,-1183 10.5,-1205 253.5,-1205 253.5,-1183 10.5,-1183"/>
<text text-anchor="start" x="30.5" y="-1191.2" font-family="Helvetica,sans-Serif" font-size="11.00">identifier</text>
<polygon fill="none" stroke="black" points="253.5,-1183 253.5,-1205 389.5,-1205 389.5,-1183 253.5,-1183"/>
<text text-anchor="start" x="256.5" y="-1191.2" font-family="Helvetica,sans-Serif" font-size="11.00">text[2147483647]</text>
<polygon fill="none" stroke="black" points="10.5,-1161 10.5,-1183 253.5,-1183 253.5,-1161 10.5,-1161"/>
<text text-anchor="start" x="30.5" y="-1169.2" font-family="Helvetica,sans-Serif" font-size="11.00">last_modification</text>
<polygon fill="none" stroke="black" points="253.5,-1161 253.5,-1183 389.5,-1183 389.5,-1161 253.5,-1161"/>
<text text-anchor="start" x="256.5" y="-1169.2" font-family="Helvetica,sans-Serif" font-size="11.00">timestamp[29,6]</text>
<polygon fill="none" stroke="black" points="10.5,-1139 10.5,-1161 253.5,-1161 253.5,-1139 10.5,-1139"/>
<text text-anchor="start" x="30.5" y="-1147.2" font-family="Helvetica,sans-Serif" font-size="11.00">operator</text>
<polygon fill="none" stroke="black" points="253.5,-1139 253.5,-1161 389.5,-1161 389.5,-1139 253.5,-1139"/>
<text text-anchor="start" x="256.5" y="-1147.2" font-family="Helvetica,sans-Serif" font-size="11.00">text[2147483647]</text>
<polygon fill="none" stroke="black" points="10.5,-1117 10.5,-1139 253.5,-1139 253.5,-1117 10.5,-1117"/>
<text text-anchor="start" x="30.5" y="-1125.2" font-family="Helvetica,sans-Serif" font-size="11.00">reason</text>
<polygon fill="none" stroke="black" points="253.5,-1117 253.5,-1139 389.5,-1139 389.5,-1117 253.5,-1117"/>
<text text-anchor="start" x="256.5" y="-1125.2" font-family="Helvetica,sans-Serif" font-size="11.00">text[2147483647]</text>
<polygon fill="none" stroke="black" points="10.5,-1095 10.5,-1117 253.5,-1117 253.5,-1095 10.5,-1095"/>
<text text-anchor="start" x="30.5" y="-1103.2" font-family="Helvetica,sans-Serif" font-size="11.00">remark</text>
<polygon fill="none" stroke="black" points="253.5,-1095 253.5,-1117 389.5,-1117 389.5,-1095 253.5,-1095"/>
<text text-anchor="start" x="256.5" y="-1103.2" font-family="Helvetica,sans-Serif" font-size="11.00">text[2147483647]</text>
<polygon fill="none" stroke="black" points="10.5,-1073 10.5,-1095 253.5,-1095 253.5,-1073 10.5,-1073"/>
<text text-anchor="start" x="30.5" y="-1081.2" font-family="Helvetica,sans-Serif" font-size="11.00">result</text>
<polygon fill="none" stroke="black" points="253.5,-1073 253.5,-1095 389.5,-1095 389.5,-1073 253.5,-1073"/>
<text text-anchor="start" x="256.5" y="-1081.2" font-family="Helvetica,sans-Serif" font-size="11.00">text[2147483647]</text>
<polygon fill="none" stroke="black" points="10.5,-1051 10.5,-1073 253.5,-1073 253.5,-1051 10.5,-1051"/>
<text text-anchor="start" x="30.5" y="-1059.2" font-family="Helvetica,sans-Serif" font-size="11.00">status</text>
<polygon fill="none" stroke="black" points="253.5,-1051 253.5,-1073 389.5,-1073 389.5,-1051 253.5,-1051"/>
<text text-anchor="start" x="256.5" y="-1059.2" font-family="Helvetica,sans-Serif" font-size="11.00">int4[10]</text>
<polygon fill="none" stroke="black" points="10.5,-1029 10.5,-1051 253.5,-1051 253.5,-1029 10.5,-1029"/>
<text text-anchor="start" x="30.5" y="-1037.2" font-family="Helvetica,sans-Serif" font-size="11.00">time_point</text>
<polygon fill="none" stroke="black" points="253.5,-1029 253.5,-1051 389.5,-1051 389.5,-1029 253.5,-1029"/>
<text text-anchor="start" x="256.5" y="-1037.2" font-family="Helvetica,sans-Serif" font-size="11.00">timestamp[29,6]</text>
<polygon fill="none" stroke="black" points="10.5,-1007 10.5,-1029 253.5,-1029 253.5,-1007 10.5,-1007"/>
<text text-anchor="start" x="30.5" y="-1015.2" font-family="Helvetica,sans-Serif" font-size="11.00">kind</text>
<polygon fill="none" stroke="black" points="253.5,-1007 253.5,-1029 389.5,-1029 389.5,-1007 253.5,-1007"/>
<text text-anchor="start" x="256.5" y="-1015.2" font-family="Helvetica,sans-Serif" font-size="11.00">int4[10]</text>
<polygon fill="none" stroke="black" points="10.5,-985 10.5,-1007 253.5,-1007 253.5,-985 10.5,-985"/>
<text text-anchor="start" x="30.5" y="-993.2" font-family="Helvetica,sans-Serif" font-size="11.00">_from_node</text>
<polygon fill="none" stroke="black" points="253.5,-985 253.5,-1007 389.5,-1007 389.5,-985 253.5,-985"/>
<text text-anchor="start" x="256.5" y="-993.2" font-family="Helvetica,sans-Serif" font-size="11.00">varchar[2147483647]</text>
<polygon fill="none" stroke="black" points="10.5,-963 10.5,-985 253.5,-985 253.5,-963 10.5,-963"/>
<text text-anchor="start" x="30.5" y="-971.2" font-family="Helvetica,sans-Serif" font-size="11.00">_re_length_effective</text>
<polygon fill="none" stroke="black" points="253.5,-963 253.5,-985 389.5,-985 389.5,-963 253.5,-963"/>
<text text-anchor="start" x="256.5" y="-971.2" font-family="Helvetica,sans-Serif" font-size="11.00">numeric[0]</text>
<polygon fill="none" stroke="black" points="10.5,-941 10.5,-963 253.5,-963 253.5,-941 10.5,-941"/>
<text text-anchor="start" x="30.5" y="-949.2" font-family="Helvetica,sans-Serif" font-size="11.00">_re_materials</text>
<polygon fill="none" stroke="black" points="253.5,-941 253.5,-963 389.5,-963 389.5,-941 253.5,-941"/>
<text text-anchor="start" x="256.5" y="-949.2" font-family="Helvetica,sans-Serif" font-size="11.00">_varchar[2147483647]</text>
<polygon fill="none" stroke="black" points="10.5,-919 10.5,-941 253.5,-941 253.5,-919 10.5,-919"/>
<text text-anchor="start" x="30.5" y="-927.2" font-family="Helvetica,sans-Serif" font-size="11.00">_re_max_height</text>
<polygon fill="none" stroke="black" points="253.5,-919 253.5,-941 389.5,-941 389.5,-919 253.5,-919"/>
<text text-anchor="start" x="256.5" y="-927.2" font-family="Helvetica,sans-Serif" font-size="11.00">int4[10]</text>
<polygon fill="none" stroke="black" points="10.5,-897 10.5,-919 253.5,-919 253.5,-897 10.5,-897"/>
<text text-anchor="start" x="30.5" y="-905.2" font-family="Helvetica,sans-Serif" font-size="11.00">_re_min_height</text>
<polygon fill="none" stroke="black" points="253.5,-897 253.5,-919 389.5,-919 389.5,-897 253.5,-897"/>
<text text-anchor="start" x="256.5" y="-905.2" font-family="Helvetica,sans-Serif" font-size="11.00">int4[10]</text>
<polygon fill="none" stroke="black" points="10.5,-875 10.5,-897 253.5,-897 253.5,-875 10.5,-875"/>
<text text-anchor="start" x="30.5" y="-883.2" font-family="Helvetica,sans-Serif" font-size="11.00">_to_node</text>
<polygon fill="none" stroke="black" points="253.5,-875 253.5,-897 389.5,-897 389.5,-875 253.5,-875"/>
<text text-anchor="start" x="256.5" y="-883.2" font-family="Helvetica,sans-Serif" font-size="11.00">varchar[2147483647]</text>
<polygon fill="none" stroke="black" points="10.5,-853 10.5,-875 253.5,-875 253.5,-853 10.5,-853"/>
<text text-anchor="start" x="30.5" y="-861.2" font-family="Helvetica,sans-Serif" font-size="11.00">ch_bedding_encasement</text>
<polygon fill="none" stroke="black" points="253.5,-853 253.5,-875 389.5,-875 389.5,-853 253.5,-853"/>
<text text-anchor="start" x="256.5" y="-861.2" font-family="Helvetica,sans-Serif" font-size="11.00">int4[10]</text>
<polygon fill="none" stroke="black" points="10.5,-831 10.5,-853 253.5,-853 253.5,-831 10.5,-831"/>
<text text-anchor="start" x="30.5" y="-839.2" font-family="Helvetica,sans-Serif" font-size="11.00">ch_connection_type</text>
<polygon fill="none" stroke="black" points="253.5,-831 253.5,-853 389.5,-853 389.5,-831 253.5,-831"/>
<text text-anchor="start" x="256.5" y="-839.2" font-family="Helvetica,sans-Serif" font-size="11.00">int4[10]</text>
<polygon fill="none" stroke="black" points="10.5,-809 10.5,-831 253.5,-831 253.5,-809 10.5,-809"/>
<text text-anchor="start" x="30.5" y="-817.2" font-family="Helvetica,sans-Serif" font-size="11.00">ch_function_amelioration</text>
<polygon fill="none" stroke="black" points="253.5,-809 253.5,-831 389.5,-831 389.5,-809 253.5,-809"/>
<text text-anchor="start" x="256.5" y="-817.2" font-family="Helvetica,sans-Serif" font-size="11.00">int4[10]</text>
<polygon fill="none" stroke="black" points="10.5,-787 10.5,-809 253.5,-809 253.5,-787 10.5,-787"/>
<text text-anchor="start" x="30.5" y="-795.2" font-family="Helvetica,sans-Serif" font-size="11.00">ch_function_hierarchic</text>
<polygon fill="none" stroke="black" points="253.5,-787 253.5,-809 389.5,-809 389.5,-787 253.5,-787"/>
<text text-anchor="start" x="256.5" y="-795.2" font-family="Helvetica,sans-Serif" font-size="11.00">int4[10]</text>
<polygon fill="none" stroke="black" points="10.5,-765 10.5,-787 253.5,-787 253.5,-765 10.5,-765"/>
<text text-anchor="start" x="30.5" y="-773.2" font-family="Helvetica,sans-Serif" font-size="11.00">ch_function_hydraulic</text>
<polygon fill="none" stroke="black" points="253.5,-765 253.5,-787 389.5,-787 389.5,-765 253.5,-765"/>
<text text-anchor="start" x="256.5" y="-773.2" font-family="Helvetica,sans-Serif" font-size="11.00">int4[10]</text>
<polygon fill="none" stroke="black" points="10.5,-743 10.5,-765 253.5,-765 253.5,-743 10.5,-743"/>
<text text-anchor="start" x="30.5" y="-751.2" font-family="Helvetica,sans-Serif" font-size="11.00">ch_jetting_interval</text>
<polygon fill="none" stroke="black" points="253.5,-743 253.5,-765 389.5,-765 389.5,-743 253.5,-743"/>
<text text-anchor="start" x="256.5" y="-751.2" font-family="Helvetica,sans-Serif" font-size="11.00">numeric[4,2]</text>
<polygon fill="none" stroke="black" points="10.5,-721 10.5,-743 253.5,-743 253.5,-721 10.5,-721"/>
<text text-anchor="start" x="30.5" y="-729.2" font-family="Helvetica,sans-Serif" font-size="11.00">ch_obj_id</text>
<polygon fill="none" stroke="black" points="253.5,-721 253.5,-743 389.5,-743 389.5,-721 253.5,-721"/>
<text text-anchor="start" x="256.5" y="-729.2" font-family="Helvetica,sans-Serif" font-size="11.00">varchar[16]</text>
<polygon fill="none" stroke="black" points="10.5,-699 10.5,-721 253.5,-721 253.5,-699 10.5,-699"/>
<text text-anchor="start" x="30.5" y="-707.2" font-family="Helvetica,sans-Serif" font-size="11.00">ch_pipe_length</text>
<polygon fill="none" stroke="black" points="253.5,-699 253.5,-721 389.5,-721 389.5,-699 253.5,-699"/>
<text text-anchor="start" x="256.5" y="-707.2" font-family="Helvetica,sans-Serif" font-size="11.00">numeric[7,2]</text>
<polygon fill="none" stroke="black" points="10.5,-677 10.5,-699 253.5,-699 253.5,-677 10.5,-677"/>
<text text-anchor="start" x="30.5" y="-685.2" font-family="Helvetica,sans-Serif" font-size="11.00">progression2d_geometry</text>
<polygon fill="none" stroke="black" points="253.5,-677 253.5,-699 389.5,-699 389.5,-677 253.5,-677"/>
<text text-anchor="start" x="256.5" y="-685.2" font-family="Helvetica,sans-Serif" font-size="11.00">geometry[2147483647]</text>
<polygon fill="none" stroke="black" points="10.5,-655 10.5,-677 253.5,-677 253.5,-655 10.5,-655"/>
<text text-anchor="start" x="30.5" y="-663.2" font-family="Helvetica,sans-Serif" font-size="11.00">ch_seepage</text>
<polygon fill="none" stroke="black" points="253.5,-655 253.5,-677 389.5,-677 389.5,-655 253.5,-655"/>
<text text-anchor="start" x="256.5" y="-663.2" font-family="Helvetica,sans-Serif" font-size="11.00">int4[10]</text>
<polygon fill="none" stroke="black" points="10.5,-633 10.5,-655 253.5,-655 253.5,-633 10.5,-633"/>
<text text-anchor="start" x="30.5" y="-641.2" font-family="Helvetica,sans-Serif" font-size="11.00">tww_is_primary</text>
<polygon fill="none" stroke="black" points="253.5,-633 253.5,-655 389.5,-655 389.5,-633 253.5,-633"/>
<text text-anchor="start" x="256.5" y="-641.2" font-family="Helvetica,sans-Serif" font-size="11.00">bool[1]</text>
<polygon fill="none" stroke="black" points="10.5,-611 10.5,-633 253.5,-633 253.5,-611 10.5,-611"/>
<text text-anchor="start" x="30.5" y="-619.2" font-family="Helvetica,sans-Serif" font-size="11.00">ch_usage_current</text>
<polygon fill="none" stroke="black" points="253.5,-611 253.5,-633 389.5,-633 389.5,-611 253.5,-611"/>
<text text-anchor="start" x="256.5" y="-619.2" font-family="Helvetica,sans-Serif" font-size="11.00">int4[10]</text>
<polygon fill="none" stroke="black" points="10.5,-589 10.5,-611 253.5,-611 253.5,-589 10.5,-589"/>
<text text-anchor="start" x="30.5" y="-597.2" font-family="Helvetica,sans-Serif" font-size="11.00">ch_usage_planned</text>
<polygon fill="none" stroke="black" points="253.5,-589 253.5,-611 389.5,-611 389.5,-589 253.5,-589"/>
<text text-anchor="start" x="256.5" y="-597.2" font-family="Helvetica,sans-Serif" font-size="11.00">int4[10]</text>
<polygon fill="none" stroke="black" points="10.5,-567 10.5,-589 253.5,-589 253.5,-567 10.5,-567"/>
<text text-anchor="start" x="30.5" y="-575.2" font-family="Helvetica,sans-Serif" font-size="11.00">ws_accessibility</text>
<polygon fill="none" stroke="black" points="253.5,-567 253.5,-589 389.5,-589 389.5,-567 253.5,-567"/>
<text text-anchor="start" x="256.5" y="-575.2" font-family="Helvetica,sans-Serif" font-size="11.00">int4[10]</text>
<polygon fill="none" stroke="black" points="10.5,-545 10.5,-567 253.5,-567 253.5,-545 10.5,-545"/>
<text text-anchor="start" x="30.5" y="-553.2" font-family="Helvetica,sans-Serif" font-size="11.00">ws_condition_score</text>
<polygon fill="none" stroke="black" points="253.5,-545 253.5,-567 389.5,-567 389.5,-545 253.5,-545"/>
<text text-anchor="start" x="256.5" y="-553.2" font-family="Helvetica,sans-Serif" font-size="11.00">numeric[3,2]</text>
<polygon fill="none" stroke="black" points="10.5,-523 10.5,-545 253.5,-545 253.5,-523 10.5,-523"/>
<text text-anchor="start" x="30.5" y="-531.2" font-family="Helvetica,sans-Serif" font-size="11.00">ws_contract_section</text>
<polygon fill="none" stroke="black" points="253.5,-523 253.5,-545 389.5,-545 389.5,-523 253.5,-523"/>
<text text-anchor="start" x="256.5" y="-531.2" font-family="Helvetica,sans-Serif" font-size="11.00">text[2147483647]</text>
<polygon fill="none" stroke="black" points="10.5,-501 10.5,-523 253.5,-523 253.5,-501 10.5,-501"/>
<text text-anchor="start" x="30.5" y="-509.2" font-family="Helvetica,sans-Serif" font-size="11.00">ws_elevation_determination</text>
<polygon fill="none" stroke="black" points="253.5,-501 253.5,-523 389.5,-523 389.5,-501 253.5,-501"/>
<text text-anchor="start" x="256.5" y="-509.2" font-family="Helvetica,sans-Serif" font-size="11.00">int4[10]</text>
<polygon fill="none" stroke="black" points="10.5,-479 10.5,-501 253.5,-501 253.5,-479 10.5,-479"/>
<text text-anchor="start" x="30.5" y="-487.2" font-family="Helvetica,sans-Serif" font-size="11.00">ws_financing</text>
<polygon fill="none" stroke="black" points="253.5,-479 253.5,-501 389.5,-501 389.5,-479 253.5,-479"/>
<text text-anchor="start" x="256.5" y="-487.2" font-family="Helvetica,sans-Serif" font-size="11.00">int4[10]</text>
<polygon fill="none" stroke="black" points="10.5,-457 10.5,-479 253.5,-479 253.5,-457 10.5,-457"/>
<text text-anchor="start" x="30.5" y="-465.2" font-family="Helvetica,sans-Serif" font-size="11.00">ws_fk_main_wastewater_node</text>
<polygon fill="none" stroke="black" points="253.5,-457 253.5,-479 389.5,-479 389.5,-457 253.5,-457"/>
<text text-anchor="start" x="256.5" y="-465.2" font-family="Helvetica,sans-Serif" font-size="11.00">varchar[16]</text>
<polygon fill="none" stroke="black" points="10.5,-435 10.5,-457 253.5,-457 253.5,-435 10.5,-435"/>
<text text-anchor="start" x="30.5" y="-443.2" font-family="Helvetica,sans-Serif" font-size="11.00">ws_fk_operator</text>
<polygon fill="none" stroke="black" points="253.5,-435 253.5,-457 389.5,-457 389.5,-435 253.5,-435"/>
<text text-anchor="start" x="256.5" y="-443.2" font-family="Helvetica,sans-Serif" font-size="11.00">varchar[16]</text>
<polygon fill="none" stroke="black" points="10.5,-413 10.5,-435 253.5,-435 253.5,-413 10.5,-413"/>
<text text-anchor="start" x="30.5" y="-421.2" font-family="Helvetica,sans-Serif" font-size="11.00">ws_gross_costs</text>
<polygon fill="none" stroke="black" points="253.5,-413 253.5,-435 389.5,-435 389.5,-413 253.5,-413"/>
<text text-anchor="start" x="256.5" y="-421.2" font-family="Helvetica,sans-Serif" font-size="11.00">numeric[10,2]</text>
<polygon fill="none" stroke="black" points="10.5,-391 10.5,-413 253.5,-413 253.5,-391 10.5,-391"/>
<text text-anchor="start" x="30.5" y="-399.2" font-family="Helvetica,sans-Serif" font-size="11.00">ws_identifier</text>
<polygon fill="none" stroke="black" points="253.5,-391 253.5,-413 389.5,-413 389.5,-391 253.5,-391"/>
<text text-anchor="start" x="256.5" y="-399.2" font-family="Helvetica,sans-Serif" font-size="11.00">text[2147483647]</text>
<polygon fill="none" stroke="black" points="10.5,-369 10.5,-391 253.5,-391 253.5,-369 10.5,-369"/>
<text text-anchor="start" x="30.5" y="-377.2" font-family="Helvetica,sans-Serif" font-size="11.00">ws_inspection_interval</text>
<polygon fill="none" stroke="black" points="253.5,-369 253.5,-391 389.5,-391 389.5,-369 253.5,-369"/>
<text text-anchor="start" x="256.5" y="-377.2" font-family="Helvetica,sans-Serif" font-size="11.00">numeric[4,2]</text>
<polygon fill="none" stroke="black" points="10.5,-347 10.5,-369 253.5,-369 253.5,-347 10.5,-347"/>
<text text-anchor="start" x="30.5" y="-355.2" font-family="Helvetica,sans-Serif" font-size="11.00">ws_last_modification</text>
<polygon fill="none" stroke="black" points="253.5,-347 253.5,-369 389.5,-369 389.5,-347 253.5,-347"/>
<text text-anchor="start" x="256.5" y="-355.2" font-family="Helvetica,sans-Serif" font-size="11.00">timestamp[29,6]</text>
<polygon fill="none" stroke="black" points="10.5,-325 10.5,-347 253.5,-347 253.5,-325 10.5,-325"/>
<text text-anchor="start" x="30.5" y="-333.2" font-family="Helvetica,sans-Serif" font-size="11.00">ws_location_name</text>
<polygon fill="none" stroke="black" points="253.5,-325 253.5,-347 389.5,-347 389.5,-325 253.5,-325"/>
<text text-anchor="start" x="256.5" y="-333.2" font-family="Helvetica,sans-Serif" font-size="11.00">text[2147483647]</text>
<polygon fill="none" stroke="black" points="10.5,-303 10.5,-325 253.5,-325 253.5,-303 10.5,-303"/>
<text text-anchor="start" x="30.5" y="-311.2" font-family="Helvetica,sans-Serif" font-size="11.00">ws_records</text>
<polygon fill="none" stroke="black" points="253.5,-303 253.5,-325 389.5,-325 389.5,-303 253.5,-303"/>
<text text-anchor="start" x="256.5" y="-311.2" font-family="Helvetica,sans-Serif" font-size="11.00">text[2147483647]</text>
<polygon fill="none" stroke="black" points="10.5,-281 10.5,-303 253.5,-303 253.5,-281 10.5,-281"/>
<text text-anchor="start" x="30.5" y="-289.2" font-family="Helvetica,sans-Serif" font-size="11.00">ws_remark</text>
<polygon fill="none" stroke="black" points="253.5,-281 253.5,-303 389.5,-303 389.5,-281 253.5,-281"/>
<text text-anchor="start" x="256.5" y="-289.2" font-family="Helvetica,sans-Serif" font-size="11.00">text[2147483647]</text>
<polygon fill="none" stroke="black" points="10.5,-259 10.5,-281 253.5,-281 253.5,-259 10.5,-259"/>
<text text-anchor="start" x="30.5" y="-267.2" font-family="Helvetica,sans-Serif" font-size="11.00">ws_renovation_necessity</text>
<polygon fill="none" stroke="black" points="253.5,-259 253.5,-281 389.5,-281 389.5,-259 253.5,-259"/>
<text text-anchor="start" x="256.5" y="-267.2" font-family="Helvetica,sans-Serif" font-size="11.00">int4[10]</text>
<polygon fill="none" stroke="black" points="10.5,-237 10.5,-259 253.5,-259 253.5,-237 10.5,-237"/>
<text text-anchor="start" x="30.5" y="-245.2" font-family="Helvetica,sans-Serif" font-size="11.00">ws_replacement_value</text>
<polygon fill="none" stroke="black" points="253.5,-237 253.5,-259 389.5,-259 389.5,-237 253.5,-237"/>
<text text-anchor="start" x="256.5" y="-245.2" font-family="Helvetica,sans-Serif" font-size="11.00">numeric[10,2]</text>
<polygon fill="none" stroke="black" points="10.5,-215 10.5,-237 253.5,-237 253.5,-215 10.5,-215"/>
<text text-anchor="start" x="30.5" y="-223.2" font-family="Helvetica,sans-Serif" font-size="11.00">ws_rv_base_year</text>
<polygon fill="none" stroke="black" points="253.5,-215 253.5,-237 389.5,-237 389.5,-215 253.5,-215"/>
<text text-anchor="start" x="256.5" y="-223.2" font-family="Helvetica,sans-Serif" font-size="11.00">int2[5]</text>
<polygon fill="none" stroke="black" points="10.5,-193 10.5,-215 253.5,-215 253.5,-193 10.5,-193"/>
<text text-anchor="start" x="30.5" y="-201.2" font-family="Helvetica,sans-Serif" font-size="11.00">ws_rv_construction_type</text>
<polygon fill="none" stroke="black" points="253.5,-193 253.5,-215 389.5,-215 389.5,-193 253.5,-193"/>
<text text-anchor="start" x="256.5" y="-201.2" font-family="Helvetica,sans-Serif" font-size="11.00">int4[10]</text>
<polygon fill="none" stroke="black" points="10.5,-171 10.5,-193 253.5,-193 253.5,-171 10.5,-171"/>
<text text-anchor="start" x="30.5" y="-179.2" font-family="Helvetica,sans-Serif" font-size="11.00">ws_status</text>
<polygon fill="none" stroke="black" points="253.5,-171 253.5,-193 389.5,-193 389.5,-171 253.5,-171"/>
<text text-anchor="start" x="256.5" y="-179.2" font-family="Helvetica,sans-Serif" font-size="11.00">int4[10]</text>
<polygon fill="none" stroke="black" points="10.5,-149 10.5,-171 253.5,-171 253.5,-149 10.5,-149"/>
<text text-anchor="start" x="30.5" y="-157.2" font-family="Helvetica,sans-Serif" font-size="11.00">ws_status_survey_year</text>
<polygon fill="none" stroke="black" points="253.5,-149 253.5,-171 389.5,-171 389.5,-149 253.5,-149"/>
<text text-anchor="start" x="256.5" y="-157.2" font-family="Helvetica,sans-Serif" font-size="11.00">int2[5]</text>
<polygon fill="none" stroke="black" points="10.5,-127 10.5,-149 253.5,-149 253.5,-127 10.5,-127"/>
<text text-anchor="start" x="30.5" y="-135.2" font-family="Helvetica,sans-Serif" font-size="11.00">ws_structure_condition</text>
<polygon fill="none" stroke="black" points="253.5,-127 253.5,-149 389.5,-149 389.5,-127 253.5,-127"/>
<text text-anchor="start" x="256.5" y="-135.2" font-family="Helvetica,sans-Serif" font-size="11.00">int4[10]</text>
<polygon fill="none" stroke="black" points="10.5,-105 10.5,-127 253.5,-127 253.5,-105 10.5,-105"/>
<text text-anchor="start" x="30.5" y="-113.2" font-family="Helvetica,sans-Serif" font-size="11.00">ws_subsidies</text>
<polygon fill="none" stroke="black" points="253.5,-105 253.5,-127 389.5,-127 389.5,-105 253.5,-105"/>
<text text-anchor="start" x="256.5" y="-113.2" font-family="Helvetica,sans-Serif" font-size="11.00">numeric[10,2]</text>
<polygon fill="none" stroke="black" points="10.5,-83 10.5,-105 253.5,-105 253.5,-83 10.5,-83"/>
<text text-anchor="start" x="30.5" y="-91.2" font-family="Helvetica,sans-Serif" font-size="11.00">ws_urgency_figure</text>
<polygon fill="none" stroke="black" points="253.5,-83 253.5,-105 389.5,-105 389.5,-83 253.5,-83"/>
<text text-anchor="start" x="256.5" y="-91.2" font-family="Helvetica,sans-Serif" font-size="11.00">int2[5]</text>
<polygon fill="none" stroke="black" points="10.5,-61 10.5,-83 253.5,-83 253.5,-61 10.5,-61"/>
<text text-anchor="start" x="30.5" y="-69.2" font-family="Helvetica,sans-Serif" font-size="11.00">ws_year_of_construction</text>
<polygon fill="none" stroke="black" points="253.5,-61 253.5,-83 389.5,-83 389.5,-61 253.5,-61"/>
<text text-anchor="start" x="256.5" y="-69.2" font-family="Helvetica,sans-Serif" font-size="11.00">int2[5]</text>
<polygon fill="none" stroke="black" points="10.5,-39 10.5,-61 253.5,-61 253.5,-39 10.5,-39"/>
<text text-anchor="start" x="30.5" y="-47.2" font-family="Helvetica,sans-Serif" font-size="11.00">ws_year_of_replacement</text>
<polygon fill="none" stroke="black" points="253.5,-39 253.5,-61 389.5,-61 389.5,-39 253.5,-39"/>
<text text-anchor="start" x="256.5" y="-47.2" font-family="Helvetica,sans-Serif" font-size="11.00">int2[5]</text>
<polygon fill="none" stroke="black" stroke-width="2" points="9,-38 9,-1448 390,-1448 390,-38 9,-38"/>
</a>
</g>
</g>
</g>
</svg>
