<?xml version="1.0" encoding="UTF-8" standalone="no"?>
<!DOCTYPE svg PUBLIC "-//W3C//DTD SVG 1.1//EN"
 "http://www.w3.org/Graphics/SVG/1.1/DTD/svg11.dtd">
<!-- Generated by graphviz version 2.43.0 (0)
 -->
<!-- Title: oneDegreeRelationshipsDiagram Pages: 1 -->
<svg width="376pt" height="1087pt"
 viewBox="0.00 0.00 376.00 1087.00" xmlns="http://www.w3.org/2000/svg" xmlns:xlink="http://www.w3.org/1999/xlink">
<g id="graph0" class="graph" transform="scale(1 1) rotate(0) translate(4 1083)">
<title>oneDegreeRelationshipsDiagram</title>
<polygon fill="#ffffff" stroke="transparent" points="-4,4 -4,-1083 372,-1083 372,4 -4,4"/>
<text text-anchor="middle" x="79.5" y="-7.2" font-family="Helvetica,sans-Serif" font-size="11.00">Generated by SchemaSpy</text>
<!-- vw_tww_channel -->
<g id="node1" class="node">
<title>vw_tww_channel</title>
<g id="a_node1"><a xlink:href="../../tables/vw_tww_channel.html" xlink:title="vw_tww_channel" target="_top">
<polygon fill="#ffffff" stroke="transparent" points="8,-37 8,-1075 360,-1075 360,-37 8,-37"/>
<polygon fill="#f5f5f5" stroke="transparent" points="10,-1051 10,-1073 358,-1073 358,-1051 10,-1051"/>
<polygon fill="none" stroke="black" points="10,-1051 10,-1073 358,-1073 358,-1051 10,-1051"/>
<text text-anchor="start" x="15" y="-1060.2" font-family="Helvetica,sans-Serif" font-weight="bold" font-size="11.00">vw_tww_channel</text>
<text text-anchor="start" x="318" y="-1059.2" font-family="Helvetica,sans-Serif" font-size="11.00">[view]</text>
<polygon fill="none" stroke="black" points="10,-1029 10,-1051 222,-1051 222,-1029 10,-1029"/>
<text text-anchor="start" x="30" y="-1037.2" font-family="Helvetica,sans-Serif" font-size="11.00">obj_id</text>
<polygon fill="none" stroke="black" points="222,-1029 222,-1051 358,-1051 358,-1029 222,-1029"/>
<text text-anchor="start" x="225" y="-1037.2" font-family="Helvetica,sans-Serif" font-size="11.00">varchar[16]</text>
<polygon fill="none" stroke="black" points="10,-1007 10,-1029 222,-1029 222,-1007 10,-1007"/>
<text text-anchor="start" x="30" y="-1015.2" font-family="Helvetica,sans-Serif" font-size="11.00">_bottom_label</text>
<polygon fill="none" stroke="black" points="222,-1007 222,-1029 358,-1029 358,-1007 222,-1007"/>
<text text-anchor="start" x="225" y="-1015.2" font-family="Helvetica,sans-Serif" font-size="11.00">text[2147483647]</text>
<polygon fill="none" stroke="black" points="10,-985 10,-1007 222,-1007 222,-985 10,-985"/>
<text text-anchor="start" x="30" y="-993.2" font-family="Helvetica,sans-Serif" font-size="11.00">_cover_label</text>
<polygon fill="none" stroke="black" points="222,-985 222,-1007 358,-1007 358,-985 222,-985"/>
<text text-anchor="start" x="225" y="-993.2" font-family="Helvetica,sans-Serif" font-size="11.00">text[2147483647]</text>
<polygon fill="none" stroke="black" points="10,-963 10,-985 222,-985 222,-963 10,-963"/>
<text text-anchor="start" x="30" y="-971.2" font-family="Helvetica,sans-Serif" font-size="11.00">_input_label</text>
<polygon fill="none" stroke="black" points="222,-963 222,-985 358,-985 358,-963 222,-963"/>
<text text-anchor="start" x="225" y="-971.2" font-family="Helvetica,sans-Serif" font-size="11.00">text[2147483647]</text>
<polygon fill="none" stroke="black" points="10,-941 10,-963 222,-963 222,-941 10,-941"/>
<text text-anchor="start" x="30" y="-949.2" font-family="Helvetica,sans-Serif" font-size="11.00">_output_label</text>
<polygon fill="none" stroke="black" points="222,-941 222,-963 358,-963 358,-941 222,-941"/>
<text text-anchor="start" x="225" y="-949.2" font-family="Helvetica,sans-Serif" font-size="11.00">text[2147483647]</text>
<polygon fill="none" stroke="black" points="10,-919 10,-941 222,-941 222,-919 10,-919"/>
<text text-anchor="start" x="30" y="-927.2" font-family="Helvetica,sans-Serif" font-size="11.00">accessibility</text>
<polygon fill="none" stroke="black" points="222,-919 222,-941 358,-941 358,-919 222,-919"/>
<text text-anchor="start" x="225" y="-927.2" font-family="Helvetica,sans-Serif" font-size="11.00">int4[10]</text>
<polygon fill="none" stroke="black" points="10,-897 10,-919 222,-919 222,-897 10,-897"/>
<text text-anchor="start" x="30" y="-905.2" font-family="Helvetica,sans-Serif" font-size="11.00">condition_score</text>
<polygon fill="none" stroke="black" points="222,-897 222,-919 358,-919 358,-897 222,-897"/>
<text text-anchor="start" x="225" y="-905.2" font-family="Helvetica,sans-Serif" font-size="11.00">numeric[3,2]</text>
<polygon fill="none" stroke="black" points="10,-875 10,-897 222,-897 222,-875 10,-875"/>
<text text-anchor="start" x="30" y="-883.2" font-family="Helvetica,sans-Serif" font-size="11.00">contract_section</text>
<polygon fill="none" stroke="black" points="222,-875 222,-897 358,-897 358,-875 222,-875"/>
<text text-anchor="start" x="225" y="-883.2" font-family="Helvetica,sans-Serif" font-size="11.00">text[2147483647]</text>
<polygon fill="none" stroke="black" points="10,-853 10,-875 222,-875 222,-853 10,-853"/>
<text text-anchor="start" x="30" y="-861.2" font-family="Helvetica,sans-Serif" font-size="11.00">elevation_determination</text>
<polygon fill="none" stroke="black" points="222,-853 222,-875 358,-875 358,-853 222,-853"/>
<text text-anchor="start" x="225" y="-861.2" font-family="Helvetica,sans-Serif" font-size="11.00">int4[10]</text>
<polygon fill="none" stroke="black" points="10,-831 10,-853 222,-853 222,-831 10,-831"/>
<text text-anchor="start" x="30" y="-839.2" font-family="Helvetica,sans-Serif" font-size="11.00">financing</text>
<polygon fill="none" stroke="black" points="222,-831 222,-853 358,-853 358,-831 222,-831"/>
<text text-anchor="start" x="225" y="-839.2" font-family="Helvetica,sans-Serif" font-size="11.00">int4[10]</text>
<polygon fill="none" stroke="black" points="10,-809 10,-831 222,-831 222,-809 10,-809"/>
<text text-anchor="start" x="30" y="-817.2" font-family="Helvetica,sans-Serif" font-size="11.00">fk_main_wastewater_node</text>
<polygon fill="none" stroke="black" points="222,-809 222,-831 358,-831 358,-809 222,-809"/>
<text text-anchor="start" x="225" y="-817.2" font-family="Helvetica,sans-Serif" font-size="11.00">varchar[16]</text>
<polygon fill="none" stroke="black" points="10,-787 10,-809 222,-809 222,-787 10,-787"/>
<text text-anchor="start" x="30" y="-795.2" font-family="Helvetica,sans-Serif" font-size="11.00">fk_operator</text>
<polygon fill="none" stroke="black" points="222,-787 222,-809 358,-809 358,-787 222,-787"/>
<text text-anchor="start" x="225" y="-795.2" font-family="Helvetica,sans-Serif" font-size="11.00">varchar[16]</text>
<polygon fill="none" stroke="black" points="10,-765 10,-787 222,-787 222,-765 10,-765"/>
<text text-anchor="start" x="30" y="-773.2" font-family="Helvetica,sans-Serif" font-size="11.00">gross_costs</text>
<polygon fill="none" stroke="black" points="222,-765 222,-787 358,-787 358,-765 222,-765"/>
<text text-anchor="start" x="225" y="-773.2" font-family="Helvetica,sans-Serif" font-size="11.00">numeric[10,2]</text>
<polygon fill="none" stroke="black" points="10,-743 10,-765 222,-765 222,-743 10,-743"/>
<text text-anchor="start" x="30" y="-751.2" font-family="Helvetica,sans-Serif" font-size="11.00">identifier</text>
<polygon fill="none" stroke="black" points="222,-743 222,-765 358,-765 358,-743 222,-743"/>
<text text-anchor="start" x="225" y="-751.2" font-family="Helvetica,sans-Serif" font-size="11.00">text[2147483647]</text>
<polygon fill="none" stroke="black" points="10,-721 10,-743 222,-743 222,-721 10,-721"/>
<text text-anchor="start" x="30" y="-729.2" font-family="Helvetica,sans-Serif" font-size="11.00">inspection_interval</text>
<polygon fill="none" stroke="black" points="222,-721 222,-743 358,-743 358,-721 222,-721"/>
<text text-anchor="start" x="225" y="-729.2" font-family="Helvetica,sans-Serif" font-size="11.00">numeric[4,2]</text>
<polygon fill="none" stroke="black" points="10,-699 10,-721 222,-721 222,-699 10,-699"/>
<text text-anchor="start" x="30" y="-707.2" font-family="Helvetica,sans-Serif" font-size="11.00">last_modification</text>
<polygon fill="none" stroke="black" points="222,-699 222,-721 358,-721 358,-699 222,-699"/>
<text text-anchor="start" x="225" y="-707.2" font-family="Helvetica,sans-Serif" font-size="11.00">timestamp[29,6]</text>
<polygon fill="none" stroke="black" points="10,-677 10,-699 222,-699 222,-677 10,-677"/>
<text text-anchor="start" x="30" y="-685.2" font-family="Helvetica,sans-Serif" font-size="11.00">location_name</text>
<polygon fill="none" stroke="black" points="222,-677 222,-699 358,-699 358,-677 222,-677"/>
<text text-anchor="start" x="225" y="-685.2" font-family="Helvetica,sans-Serif" font-size="11.00">text[2147483647]</text>
<polygon fill="none" stroke="black" points="10,-655 10,-677 222,-677 222,-655 10,-655"/>
<text text-anchor="start" x="30" y="-663.2" font-family="Helvetica,sans-Serif" font-size="11.00">records</text>
<polygon fill="none" stroke="black" points="222,-655 222,-677 358,-677 358,-655 222,-655"/>
<text text-anchor="start" x="225" y="-663.2" font-family="Helvetica,sans-Serif" font-size="11.00">text[2147483647]</text>
<polygon fill="none" stroke="black" points="10,-633 10,-655 222,-655 222,-633 10,-633"/>
<text text-anchor="start" x="30" y="-641.2" font-family="Helvetica,sans-Serif" font-size="11.00">remark</text>
<polygon fill="none" stroke="black" points="222,-633 222,-655 358,-655 358,-633 222,-633"/>
<text text-anchor="start" x="225" y="-641.2" font-family="Helvetica,sans-Serif" font-size="11.00">text[2147483647]</text>
<polygon fill="none" stroke="black" points="10,-611 10,-633 222,-633 222,-611 10,-611"/>
<text text-anchor="start" x="30" y="-619.2" font-family="Helvetica,sans-Serif" font-size="11.00">renovation_necessity</text>
<polygon fill="none" stroke="black" points="222,-611 222,-633 358,-633 358,-611 222,-611"/>
<text text-anchor="start" x="225" y="-619.2" font-family="Helvetica,sans-Serif" font-size="11.00">int4[10]</text>
<polygon fill="none" stroke="black" points="10,-589 10,-611 222,-611 222,-589 10,-589"/>
<text text-anchor="start" x="30" y="-597.2" font-family="Helvetica,sans-Serif" font-size="11.00">replacement_value</text>
<polygon fill="none" stroke="black" points="222,-589 222,-611 358,-611 358,-589 222,-589"/>
<text text-anchor="start" x="225" y="-597.2" font-family="Helvetica,sans-Serif" font-size="11.00">numeric[10,2]</text>
<polygon fill="none" stroke="black" points="10,-567 10,-589 222,-589 222,-567 10,-567"/>
<text text-anchor="start" x="30" y="-575.2" font-family="Helvetica,sans-Serif" font-size="11.00">rv_base_year</text>
<polygon fill="none" stroke="black" points="222,-567 222,-589 358,-589 358,-567 222,-567"/>
<text text-anchor="start" x="225" y="-575.2" font-family="Helvetica,sans-Serif" font-size="11.00">int2[5]</text>
<polygon fill="none" stroke="black" points="10,-545 10,-567 222,-567 222,-545 10,-545"/>
<text text-anchor="start" x="30" y="-553.2" font-family="Helvetica,sans-Serif" font-size="11.00">rv_construction_type</text>
<polygon fill="none" stroke="black" points="222,-545 222,-567 358,-567 358,-545 222,-545"/>
<text text-anchor="start" x="225" y="-553.2" font-family="Helvetica,sans-Serif" font-size="11.00">int4[10]</text>
<polygon fill="none" stroke="black" points="10,-523 10,-545 222,-545 222,-523 10,-523"/>
<text text-anchor="start" x="30" y="-531.2" font-family="Helvetica,sans-Serif" font-size="11.00">status</text>
<polygon fill="none" stroke="black" points="222,-523 222,-545 358,-545 358,-523 222,-523"/>
<text text-anchor="start" x="225" y="-531.2" font-family="Helvetica,sans-Serif" font-size="11.00">int4[10]</text>
<polygon fill="none" stroke="black" points="10,-501 10,-523 222,-523 222,-501 10,-501"/>
<text text-anchor="start" x="30" y="-509.2" font-family="Helvetica,sans-Serif" font-size="11.00">status_survey_year</text>
<polygon fill="none" stroke="black" points="222,-501 222,-523 358,-523 358,-501 222,-501"/>
<text text-anchor="start" x="225" y="-509.2" font-family="Helvetica,sans-Serif" font-size="11.00">int2[5]</text>
<polygon fill="none" stroke="black" points="10,-479 10,-501 222,-501 222,-479 10,-479"/>
<text text-anchor="start" x="30" y="-487.2" font-family="Helvetica,sans-Serif" font-size="11.00">structure_condition</text>
<polygon fill="none" stroke="black" points="222,-479 222,-501 358,-501 358,-479 222,-479"/>
<text text-anchor="start" x="225" y="-487.2" font-family="Helvetica,sans-Serif" font-size="11.00">int4[10]</text>
<polygon fill="none" stroke="black" points="10,-457 10,-479 222,-479 222,-457 10,-457"/>
<text text-anchor="start" x="30" y="-465.2" font-family="Helvetica,sans-Serif" font-size="11.00">subsidies</text>
<polygon fill="none" stroke="black" points="222,-457 222,-479 358,-479 358,-457 222,-457"/>
<text text-anchor="start" x="225" y="-465.2" font-family="Helvetica,sans-Serif" font-size="11.00">numeric[10,2]</text>
<polygon fill="none" stroke="black" points="10,-435 10,-457 222,-457 222,-435 10,-435"/>
<text text-anchor="start" x="30" y="-443.2" font-family="Helvetica,sans-Serif" font-size="11.00">urgency_figure</text>
<polygon fill="none" stroke="black" points="222,-435 222,-457 358,-457 358,-435 222,-435"/>
<text text-anchor="start" x="225" y="-443.2" font-family="Helvetica,sans-Serif" font-size="11.00">int2[5]</text>
<polygon fill="none" stroke="black" points="10,-413 10,-435 222,-435 222,-413 10,-413"/>
<text text-anchor="start" x="30" y="-421.2" font-family="Helvetica,sans-Serif" font-size="11.00">year_of_construction</text>
<polygon fill="none" stroke="black" points="222,-413 222,-435 358,-435 358,-413 222,-413"/>
<text text-anchor="start" x="225" y="-421.2" font-family="Helvetica,sans-Serif" font-size="11.00">int2[5]</text>
<polygon fill="none" stroke="black" points="10,-391 10,-413 222,-413 222,-391 10,-391"/>
<text text-anchor="start" x="30" y="-399.2" font-family="Helvetica,sans-Serif" font-size="11.00">year_of_replacement</text>
<polygon fill="none" stroke="black" points="222,-391 222,-413 358,-413 358,-391 222,-391"/>
<text text-anchor="start" x="225" y="-399.2" font-family="Helvetica,sans-Serif" font-size="11.00">int2[5]</text>
<polygon fill="none" stroke="black" points="10,-369 10,-391 222,-391 222,-369 10,-369"/>
<text text-anchor="start" x="30" y="-377.2" font-family="Helvetica,sans-Serif" font-size="11.00">ch_bedding_encasement</text>
<polygon fill="none" stroke="black" points="222,-369 222,-391 358,-391 358,-369 222,-369"/>
<text text-anchor="start" x="225" y="-377.2" font-family="Helvetica,sans-Serif" font-size="11.00">int4[10]</text>
<polygon fill="none" stroke="black" points="10,-347 10,-369 222,-369 222,-347 10,-347"/>
<text text-anchor="start" x="30" y="-355.2" font-family="Helvetica,sans-Serif" font-size="11.00">ch_connection_type</text>
<polygon fill="none" stroke="black" points="222,-347 222,-369 358,-369 358,-347 222,-347"/>
<text text-anchor="start" x="225" y="-355.2" font-family="Helvetica,sans-Serif" font-size="11.00">int4[10]</text>
<polygon fill="none" stroke="black" points="10,-325 10,-347 222,-347 222,-325 10,-325"/>
<text text-anchor="start" x="30" y="-333.2" font-family="Helvetica,sans-Serif" font-size="11.00">ch_function_amelioration</text>
<polygon fill="none" stroke="black" points="222,-325 222,-347 358,-347 358,-325 222,-325"/>
<text text-anchor="start" x="225" y="-333.2" font-family="Helvetica,sans-Serif" font-size="11.00">int4[10]</text>
<polygon fill="none" stroke="black" points="10,-303 10,-325 222,-325 222,-303 10,-303"/>
<text text-anchor="start" x="30" y="-311.2" font-family="Helvetica,sans-Serif" font-size="11.00">ch_function_hierarchic</text>
<polygon fill="none" stroke="black" points="222,-303 222,-325 358,-325 358,-303 222,-303"/>
<text text-anchor="start" x="225" y="-311.2" font-family="Helvetica,sans-Serif" font-size="11.00">int4[10]</text>
<polygon fill="none" stroke="black" points="10,-281 10,-303 222,-303 222,-281 10,-281"/>
<text text-anchor="start" x="30" y="-289.2" font-family="Helvetica,sans-Serif" font-size="11.00">ch_function_hydraulic</text>
<polygon fill="none" stroke="black" points="222,-281 222,-303 358,-303 358,-281 222,-281"/>
<text text-anchor="start" x="225" y="-289.2" font-family="Helvetica,sans-Serif" font-size="11.00">int4[10]</text>
<polygon fill="none" stroke="black" points="10,-259 10,-281 222,-281 222,-259 10,-259"/>
<text text-anchor="start" x="30" y="-267.2" font-family="Helvetica,sans-Serif" font-size="11.00">ch_jetting_interval</text>
<polygon fill="none" stroke="black" points="222,-259 222,-281 358,-281 358,-259 222,-259"/>
<text text-anchor="start" x="225" y="-267.2" font-family="Helvetica,sans-Serif" font-size="11.00">numeric[4,2]</text>
<polygon fill="none" stroke="black" points="10,-237 10,-259 222,-259 222,-237 10,-237"/>
<text text-anchor="start" x="30" y="-245.2" font-family="Helvetica,sans-Serif" font-size="11.00">ch_pipe_length</text>
<polygon fill="none" stroke="black" points="222,-237 222,-259 358,-259 358,-237 222,-237"/>
<text text-anchor="start" x="225" y="-245.2" font-family="Helvetica,sans-Serif" font-size="11.00">numeric[7,2]</text>
<polygon fill="none" stroke="black" points="10,-215 10,-237 222,-237 222,-215 10,-215"/>
<text text-anchor="start" x="30" y="-223.2" font-family="Helvetica,sans-Serif" font-size="11.00">ch_seepage</text>
<polygon fill="none" stroke="black" points="222,-215 222,-237 358,-237 358,-215 222,-215"/>
<text text-anchor="start" x="225" y="-223.2" font-family="Helvetica,sans-Serif" font-size="11.00">int4[10]</text>
<polygon fill="none" stroke="black" points="10,-193 10,-215 222,-215 222,-193 10,-193"/>
<text text-anchor="start" x="30" y="-201.2" font-family="Helvetica,sans-Serif" font-size="11.00">ch_usage_current</text>
<polygon fill="none" stroke="black" points="222,-193 222,-215 358,-215 358,-193 222,-193"/>
<text text-anchor="start" x="225" y="-201.2" font-family="Helvetica,sans-Serif" font-size="11.00">int4[10]</text>
<polygon fill="none" stroke="black" points="10,-171 10,-193 222,-193 222,-171 10,-171"/>
<text text-anchor="start" x="30" y="-179.2" font-family="Helvetica,sans-Serif" font-size="11.00">ch_usage_planned</text>
<polygon fill="none" stroke="black" points="222,-171 222,-193 358,-193 358,-171 222,-171"/>
<text text-anchor="start" x="225" y="-179.2" font-family="Helvetica,sans-Serif" font-size="11.00">int4[10]</text>
<polygon fill="none" stroke="black" points="10,-149 10,-171 222,-171 222,-149 10,-149"/>
<text text-anchor="start" x="30" y="-157.2" font-family="Helvetica,sans-Serif" font-size="11.00">progression2d_geometry</text>
<polygon fill="none" stroke="black" points="222,-149 222,-171 358,-171 358,-149 222,-149"/>
<text text-anchor="start" x="225" y="-157.2" font-family="Helvetica,sans-Serif" font-size="11.00">geometry[2147483647]</text>
<polygon fill="none" stroke="black" points="10,-127 10,-149 222,-149 222,-127 10,-127"/>
<text text-anchor="start" x="30" y="-135.2" font-family="Helvetica,sans-Serif" font-size="11.00">_min_height</text>
<polygon fill="none" stroke="black" points="222,-127 222,-149 358,-149 358,-127 222,-127"/>
<text text-anchor="start" x="225" y="-135.2" font-family="Helvetica,sans-Serif" font-size="11.00">int4[10]</text>
<polygon fill="none" stroke="black" points="10,-105 10,-127 222,-127 222,-105 10,-105"/>
<text text-anchor="start" x="30" y="-113.2" font-family="Helvetica,sans-Serif" font-size="11.00">_max_height</text>
<polygon fill="none" stroke="black" points="222,-105 222,-127 358,-127 358,-105 222,-105"/>
<text text-anchor="start" x="225" y="-113.2" font-family="Helvetica,sans-Serif" font-size="11.00">int4[10]</text>
<polygon fill="none" stroke="black" points="10,-83 10,-105 222,-105 222,-83 10,-83"/>
<text text-anchor="start" x="30" y="-91.2" font-family="Helvetica,sans-Serif" font-size="11.00">_length_effective</text>
<polygon fill="none" stroke="black" points="222,-83 222,-105 358,-105 358,-83 222,-83"/>
<text text-anchor="start" x="225" y="-91.2" font-family="Helvetica,sans-Serif" font-size="11.00">numeric[0]</text>
<polygon fill="none" stroke="black" points="10,-61 10,-83 222,-83 222,-61 10,-61"/>
<text text-anchor="start" x="30" y="-69.2" font-family="Helvetica,sans-Serif" font-size="11.00">_materials</text>
<polygon fill="none" stroke="black" points="222,-61 222,-83 358,-83 358,-61 222,-61"/>
<text text-anchor="start" x="225" y="-69.2" font-family="Helvetica,sans-Serif" font-size="11.00">_int4[10]</text>
<polygon fill="none" stroke="black" points="10,-39 10,-61 222,-61 222,-39 10,-39"/>
<text text-anchor="start" x="30" y="-47.2" font-family="Helvetica,sans-Serif" font-size="11.00">tww_is_primary</text>
<polygon fill="none" stroke="black" points="222,-39 222,-61 358,-61 358,-39 222,-39"/>
<text text-anchor="start" x="225" y="-47.2" font-family="Helvetica,sans-Serif" font-size="11.00">bool[1]</text>
<polygon fill="none" stroke="black" stroke-width="2" points="9,-38 9,-1074 359,-1074 359,-38 9,-38"/>
</a>
</g>
</g>
</g>
</svg>
