<?xml version="1.0" encoding="UTF-8" standalone="no"?>
<!DOCTYPE svg PUBLIC "-//W3C//DTD SVG 1.1//EN"
 "http://www.w3.org/Graphics/SVG/1.1/DTD/svg11.dtd">
<!-- Generated by graphviz version 2.43.0 (0)
 -->
<!-- Title: oneDegreeRelationshipsDiagram Pages: 1 -->
<svg width="460pt" height="625pt"
 viewBox="0.00 0.00 460.00 625.00" xmlns="http://www.w3.org/2000/svg" xmlns:xlink="http://www.w3.org/1999/xlink">
<g id="graph0" class="graph" transform="scale(1 1) rotate(0) translate(4 621)">
<title>oneDegreeRelationshipsDiagram</title>
<polygon fill="#ffffff" stroke="transparent" points="-4,4 -4,-621 456,-621 456,4 -4,4"/>
<text text-anchor="middle" x="79.5" y="-7.2" font-family="Helvetica,sans-Serif" font-size="11.00">Generated by SchemaSpy</text>
<!-- vw_tww_damage -->
<g id="node1" class="node">
<title>vw_tww_damage</title>
<g id="a_node1"><a xlink:href="../../tables/vw_tww_damage.html" xlink:title="vw_tww_damage" target="_top">
<polygon fill="#ffffff" stroke="transparent" points="8,-37 8,-613 444,-613 444,-37 8,-37"/>
<polygon fill="#f5f5f5" stroke="transparent" points="10,-589 10,-611 442,-611 442,-589 10,-589"/>
<polygon fill="none" stroke="black" points="10,-589 10,-611 442,-611 442,-589 10,-589"/>
<text text-anchor="start" x="15" y="-598.2" font-family="Helvetica,sans-Serif" font-weight="bold" font-size="11.00">vw_tww_damage</text>
<text text-anchor="start" x="402" y="-597.2" font-family="Helvetica,sans-Serif" font-size="11.00">[view]</text>
<polygon fill="none" stroke="black" points="10,-567 10,-589 212,-589 212,-567 10,-567"/>
<text text-anchor="start" x="30" y="-575.2" font-family="Helvetica,sans-Serif" font-size="11.00">damage_type</text>
<polygon fill="none" stroke="black" points="212,-567 212,-589 442,-589 442,-567 212,-567"/>
<text text-anchor="start" x="215" y="-575.2" font-family="Helvetica,sans-Serif" font-size="11.00">&quot;tww_app&quot;.&quot;damage_type&quot;[2147483647]</text>
<polygon fill="none" stroke="black" points="10,-545 10,-567 212,-567 212,-545 10,-545"/>
<text text-anchor="start" x="30" y="-553.2" font-family="Helvetica,sans-Serif" font-size="11.00">obj_id</text>
<polygon fill="none" stroke="black" points="212,-545 212,-567 442,-567 442,-545 212,-545"/>
<text text-anchor="start" x="215" y="-553.2" font-family="Helvetica,sans-Serif" font-size="11.00">varchar[16]</text>
<polygon fill="none" stroke="black" points="10,-523 10,-545 212,-545 212,-523 10,-523"/>
<text text-anchor="start" x="30" y="-531.2" font-family="Helvetica,sans-Serif" font-size="11.00">comments</text>
<polygon fill="none" stroke="black" points="212,-523 212,-545 442,-545 442,-523 212,-523"/>
<text text-anchor="start" x="215" y="-531.2" font-family="Helvetica,sans-Serif" font-size="11.00">text[2147483647]</text>
<polygon fill="none" stroke="black" points="10,-501 10,-523 212,-523 212,-501 10,-501"/>
<text text-anchor="start" x="30" y="-509.2" font-family="Helvetica,sans-Serif" font-size="11.00">connection</text>
<polygon fill="none" stroke="black" points="212,-501 212,-523 442,-523 442,-501 212,-501"/>
<text text-anchor="start" x="215" y="-509.2" font-family="Helvetica,sans-Serif" font-size="11.00">int4[10]</text>
<polygon fill="none" stroke="black" points="10,-479 10,-501 212,-501 212,-479 10,-479"/>
<text text-anchor="start" x="30" y="-487.2" font-family="Helvetica,sans-Serif" font-size="11.00">fk_dataowner</text>
<polygon fill="none" stroke="black" points="212,-479 212,-501 442,-501 442,-479 212,-479"/>
<text text-anchor="start" x="215" y="-487.2" font-family="Helvetica,sans-Serif" font-size="11.00">varchar[16]</text>
<polygon fill="none" stroke="black" points="10,-457 10,-479 212,-479 212,-457 10,-457"/>
<text text-anchor="start" x="30" y="-465.2" font-family="Helvetica,sans-Serif" font-size="11.00">fk_examination</text>
<polygon fill="none" stroke="black" points="212,-457 212,-479 442,-479 442,-457 212,-457"/>
<text text-anchor="start" x="215" y="-465.2" font-family="Helvetica,sans-Serif" font-size="11.00">varchar[16]</text>
<polygon fill="none" stroke="black" points="10,-435 10,-457 212,-457 212,-435 10,-435"/>
<text text-anchor="start" x="30" y="-443.2" font-family="Helvetica,sans-Serif" font-size="11.00">fk_provider</text>
<polygon fill="none" stroke="black" points="212,-435 212,-457 442,-457 442,-435 212,-435"/>
<text text-anchor="start" x="215" y="-443.2" font-family="Helvetica,sans-Serif" font-size="11.00">varchar[16]</text>
<polygon fill="none" stroke="black" points="10,-413 10,-435 212,-435 212,-413 10,-413"/>
<text text-anchor="start" x="30" y="-421.2" font-family="Helvetica,sans-Serif" font-size="11.00">last_modification</text>
<polygon fill="none" stroke="black" points="212,-413 212,-435 442,-435 442,-413 212,-413"/>
<text text-anchor="start" x="215" y="-421.2" font-family="Helvetica,sans-Serif" font-size="11.00">timestamp[29,6]</text>
<polygon fill="none" stroke="black" points="10,-391 10,-413 212,-413 212,-391 10,-391"/>
<text text-anchor="start" x="30" y="-399.2" font-family="Helvetica,sans-Serif" font-size="11.00">line_damage</text>
<polygon fill="none" stroke="black" points="212,-391 212,-413 442,-413 442,-391 212,-391"/>
<text text-anchor="start" x="215" y="-399.2" font-family="Helvetica,sans-Serif" font-size="11.00">text[2147483647]</text>
<polygon fill="none" stroke="black" points="10,-369 10,-391 212,-391 212,-369 10,-369"/>
<text text-anchor="start" x="30" y="-377.2" font-family="Helvetica,sans-Serif" font-size="11.00">single_damage_class</text>
<polygon fill="none" stroke="black" points="212,-369 212,-391 442,-391 442,-369 212,-369"/>
<text text-anchor="start" x="215" y="-377.2" font-family="Helvetica,sans-Serif" font-size="11.00">int4[10]</text>
<polygon fill="none" stroke="black" points="10,-347 10,-369 212,-369 212,-347 10,-347"/>
<text text-anchor="start" x="30" y="-355.2" font-family="Helvetica,sans-Serif" font-size="11.00">video_counter</text>
<polygon fill="none" stroke="black" points="212,-347 212,-369 442,-369 442,-347 212,-347"/>
<text text-anchor="start" x="215" y="-355.2" font-family="Helvetica,sans-Serif" font-size="11.00">text[2147483647]</text>
<polygon fill="none" stroke="black" points="10,-325 10,-347 212,-347 212,-325 10,-325"/>
<text text-anchor="start" x="30" y="-333.2" font-family="Helvetica,sans-Serif" font-size="11.00">view_parameters</text>
<polygon fill="none" stroke="black" points="212,-325 212,-347 442,-347 442,-325 212,-325"/>
<text text-anchor="start" x="215" y="-333.2" font-family="Helvetica,sans-Serif" font-size="11.00">text[2147483647]</text>
<polygon fill="none" stroke="black" points="10,-303 10,-325 212,-325 212,-303 10,-303"/>
<text text-anchor="start" x="30" y="-311.2" font-family="Helvetica,sans-Serif" font-size="11.00">channel_damage_begin</text>
<polygon fill="none" stroke="black" points="212,-303 212,-325 442,-325 442,-303 212,-303"/>
<text text-anchor="start" x="215" y="-311.2" font-family="Helvetica,sans-Serif" font-size="11.00">int2[5]</text>
<polygon fill="none" stroke="black" points="10,-281 10,-303 212,-303 212,-281 10,-281"/>
<text text-anchor="start" x="30" y="-289.2" font-family="Helvetica,sans-Serif" font-size="11.00">channel_damage_code</text>
<polygon fill="none" stroke="black" points="212,-281 212,-303 442,-303 442,-281 212,-281"/>
<text text-anchor="start" x="215" y="-289.2" font-family="Helvetica,sans-Serif" font-size="11.00">int4[10]</text>
<polygon fill="none" stroke="black" points="10,-259 10,-281 212,-281 212,-259 10,-259"/>
<text text-anchor="start" x="30" y="-267.2" font-family="Helvetica,sans-Serif" font-size="11.00">channel_damage_end</text>
<polygon fill="none" stroke="black" points="212,-259 212,-281 442,-281 442,-259 212,-259"/>
<text text-anchor="start" x="215" y="-267.2" font-family="Helvetica,sans-Serif" font-size="11.00">int2[5]</text>
<polygon fill="none" stroke="black" points="10,-237 10,-259 212,-259 212,-237 10,-237"/>
<text text-anchor="start" x="30" y="-245.2" font-family="Helvetica,sans-Serif" font-size="11.00">channel_distance</text>
<polygon fill="none" stroke="black" points="212,-237 212,-259 442,-259 442,-237 212,-237"/>
<text text-anchor="start" x="215" y="-245.2" font-family="Helvetica,sans-Serif" font-size="11.00">numeric[7,2]</text>
<polygon fill="none" stroke="black" points="10,-215 10,-237 212,-237 212,-215 10,-215"/>
<text text-anchor="start" x="30" y="-223.2" font-family="Helvetica,sans-Serif" font-size="11.00">channel_quantification1</text>
<polygon fill="none" stroke="black" points="212,-215 212,-237 442,-237 442,-215 212,-215"/>
<text text-anchor="start" x="215" y="-223.2" font-family="Helvetica,sans-Serif" font-size="11.00">int4[10]</text>
<polygon fill="none" stroke="black" points="10,-193 10,-215 212,-215 212,-193 10,-193"/>
<text text-anchor="start" x="30" y="-201.2" font-family="Helvetica,sans-Serif" font-size="11.00">channel_quantification2</text>
<polygon fill="none" stroke="black" points="212,-193 212,-215 442,-215 442,-193 212,-193"/>
<text text-anchor="start" x="215" y="-201.2" font-family="Helvetica,sans-Serif" font-size="11.00">int4[10]</text>
<polygon fill="none" stroke="black" points="10,-171 10,-193 212,-193 212,-171 10,-171"/>
<text text-anchor="start" x="30" y="-179.2" font-family="Helvetica,sans-Serif" font-size="11.00">manhole_damage_begin</text>
<polygon fill="none" stroke="black" points="212,-171 212,-193 442,-193 442,-171 212,-171"/>
<text text-anchor="start" x="215" y="-179.2" font-family="Helvetica,sans-Serif" font-size="11.00">int2[5]</text>
<polygon fill="none" stroke="black" points="10,-149 10,-171 212,-171 212,-149 10,-149"/>
<text text-anchor="start" x="30" y="-157.2" font-family="Helvetica,sans-Serif" font-size="11.00">manhole_damage_code</text>
<polygon fill="none" stroke="black" points="212,-149 212,-171 442,-171 442,-149 212,-149"/>
<text text-anchor="start" x="215" y="-157.2" font-family="Helvetica,sans-Serif" font-size="11.00">int4[10]</text>
<polygon fill="none" stroke="black" points="10,-127 10,-149 212,-149 212,-127 10,-127"/>
<text text-anchor="start" x="30" y="-135.2" font-family="Helvetica,sans-Serif" font-size="11.00">manhole_damage_end</text>
<polygon fill="none" stroke="black" points="212,-127 212,-149 442,-149 442,-127 212,-127"/>
<text text-anchor="start" x="215" y="-135.2" font-family="Helvetica,sans-Serif" font-size="11.00">int2[5]</text>
<polygon fill="none" stroke="black" points="10,-105 10,-127 212,-127 212,-105 10,-105"/>
<text text-anchor="start" x="30" y="-113.2" font-family="Helvetica,sans-Serif" font-size="11.00">manhole_distance</text>
<polygon fill="none" stroke="black" points="212,-105 212,-127 442,-127 442,-105 212,-105"/>
<text text-anchor="start" x="215" y="-113.2" font-family="Helvetica,sans-Serif" font-size="11.00">numeric[7,2]</text>
<polygon fill="none" stroke="black" points="10,-83 10,-105 212,-105 212,-83 10,-83"/>
<text text-anchor="start" x="30" y="-91.2" font-family="Helvetica,sans-Serif" font-size="11.00">manhole_quantification1</text>
<polygon fill="none" stroke="black" points="212,-83 212,-105 442,-105 442,-83 212,-83"/>
<text text-anchor="start" x="215" y="-91.2" font-family="Helvetica,sans-Serif" font-size="11.00">text[2147483647]</text>
<polygon fill="none" stroke="black" points="10,-61 10,-83 212,-83 212,-61 10,-61"/>
<text text-anchor="start" x="30" y="-69.2" font-family="Helvetica,sans-Serif" font-size="11.00">manhole_quantification2</text>
<polygon fill="none" stroke="black" points="212,-61 212,-83 442,-83 442,-61 212,-61"/>
<text text-anchor="start" x="215" y="-69.2" font-family="Helvetica,sans-Serif" font-size="11.00">text[2147483647]</text>
<polygon fill="none" stroke="black" points="10,-39 10,-61 212,-61 212,-39 10,-39"/>
<text text-anchor="start" x="30" y="-47.2" font-family="Helvetica,sans-Serif" font-size="11.00">manhole_shaft_area</text>
<polygon fill="none" stroke="black" points="212,-39 212,-61 442,-61 442,-39 212,-39"/>
<text text-anchor="start" x="215" y="-47.2" font-family="Helvetica,sans-Serif" font-size="11.00">int4[10]</text>
<polygon fill="none" stroke="black" stroke-width="2" points="9,-38 9,-612 443,-612 443,-38 9,-38"/>
</a>
</g>
</g>
</g>
</svg>
