<?xml version="1.0" encoding="UTF-8" standalone="no"?>
<!DOCTYPE svg PUBLIC "-//W3C//DTD SVG 1.1//EN"
 "http://www.w3.org/Graphics/SVG/1.1/DTD/svg11.dtd">
<!-- Generated by graphviz version 2.43.0 (0)
 -->
<!-- Title: oneDegreeRelationshipsDiagram Pages: 1 -->
<svg width="423pt" height="933pt"
 viewBox="0.00 0.00 423.00 933.00" xmlns="http://www.w3.org/2000/svg" xmlns:xlink="http://www.w3.org/1999/xlink">
<g id="graph0" class="graph" transform="scale(1 1) rotate(0) translate(4 929)">
<title>oneDegreeRelationshipsDiagram</title>
<polygon fill="#ffffff" stroke="transparent" points="-4,4 -4,-929 419,-929 419,4 -4,4"/>
<text text-anchor="middle" x="79.5" y="-7.2" font-family="Helvetica,sans-Serif" font-size="11.00">Generated by SchemaSpy</text>
<!-- vw_wwtp_structure -->
<g id="node1" class="node">
<title>vw_wwtp_structure</title>
<g id="a_node1"><a xlink:href="../../tables/vw_wwtp_structure.html" xlink:title="vw_wwtp_structure" target="_top">
<polygon fill="#ffffff" stroke="transparent" points="8,-37 8,-921 407,-921 407,-37 8,-37"/>
<polygon fill="#f5f5f5" stroke="transparent" points="10.5,-897 10.5,-919 405.5,-919 405.5,-897 10.5,-897"/>
<polygon fill="none" stroke="black" points="10.5,-897 10.5,-919 405.5,-919 405.5,-897 10.5,-897"/>
<text text-anchor="start" x="15.5" y="-906.2" font-family="Helvetica,sans-Serif" font-weight="bold" font-size="11.00">vw_wwtp_structure</text>
<text text-anchor="start" x="365.5" y="-905.2" font-family="Helvetica,sans-Serif" font-size="11.00">[view]</text>
<polygon fill="none" stroke="black" points="10.5,-875 10.5,-897 269.5,-897 269.5,-875 10.5,-875"/>
<text text-anchor="start" x="30.5" y="-883.2" font-family="Helvetica,sans-Serif" font-size="11.00">obj_id</text>
<polygon fill="none" stroke="black" points="269.5,-875 269.5,-897 405.5,-897 405.5,-875 269.5,-875"/>
<text text-anchor="start" x="272.5" y="-883.2" font-family="Helvetica,sans-Serif" font-size="11.00">varchar[16]</text>
<polygon fill="none" stroke="black" points="10.5,-853 10.5,-875 269.5,-875 269.5,-853 10.5,-853"/>
<text text-anchor="start" x="30.5" y="-861.2" font-family="Helvetica,sans-Serif" font-size="11.00">fk_waste_water_treatment_plant</text>
<polygon fill="none" stroke="black" points="269.5,-853 269.5,-875 405.5,-875 405.5,-853 269.5,-853"/>
<text text-anchor="start" x="272.5" y="-861.2" font-family="Helvetica,sans-Serif" font-size="11.00">varchar[16]</text>
<polygon fill="none" stroke="black" points="10.5,-831 10.5,-853 269.5,-853 269.5,-831 10.5,-831"/>
<text text-anchor="start" x="30.5" y="-839.2" font-family="Helvetica,sans-Serif" font-size="11.00">kind</text>
<polygon fill="none" stroke="black" points="269.5,-831 269.5,-853 405.5,-853 405.5,-831 269.5,-831"/>
<text text-anchor="start" x="272.5" y="-839.2" font-family="Helvetica,sans-Serif" font-size="11.00">int4[10]</text>
<polygon fill="none" stroke="black" points="10.5,-809 10.5,-831 269.5,-831 269.5,-809 10.5,-809"/>
<text text-anchor="start" x="30.5" y="-817.2" font-family="Helvetica,sans-Serif" font-size="11.00">_bottom_label</text>
<polygon fill="none" stroke="black" points="269.5,-809 269.5,-831 405.5,-831 405.5,-809 269.5,-809"/>
<text text-anchor="start" x="272.5" y="-817.2" font-family="Helvetica,sans-Serif" font-size="11.00">text[2147483647]</text>
<polygon fill="none" stroke="black" points="10.5,-787 10.5,-809 269.5,-809 269.5,-787 10.5,-787"/>
<text text-anchor="start" x="30.5" y="-795.2" font-family="Helvetica,sans-Serif" font-size="11.00">_cover_label</text>
<polygon fill="none" stroke="black" points="269.5,-787 269.5,-809 405.5,-809 405.5,-787 269.5,-787"/>
<text text-anchor="start" x="272.5" y="-795.2" font-family="Helvetica,sans-Serif" font-size="11.00">text[2147483647]</text>
<polygon fill="none" stroke="black" points="10.5,-765 10.5,-787 269.5,-787 269.5,-765 10.5,-765"/>
<text text-anchor="start" x="30.5" y="-773.2" font-family="Helvetica,sans-Serif" font-size="11.00">_depth</text>
<polygon fill="none" stroke="black" points="269.5,-765 269.5,-787 405.5,-787 405.5,-765 269.5,-765"/>
<text text-anchor="start" x="272.5" y="-773.2" font-family="Helvetica,sans-Serif" font-size="11.00">numeric[6,3]</text>
<polygon fill="none" stroke="black" points="10.5,-743 10.5,-765 269.5,-765 269.5,-743 10.5,-743"/>
<text text-anchor="start" x="30.5" y="-751.2" font-family="Helvetica,sans-Serif" font-size="11.00">_input_label</text>
<polygon fill="none" stroke="black" points="269.5,-743 269.5,-765 405.5,-765 405.5,-743 269.5,-743"/>
<text text-anchor="start" x="272.5" y="-751.2" font-family="Helvetica,sans-Serif" font-size="11.00">text[2147483647]</text>
<polygon fill="none" stroke="black" points="10.5,-721 10.5,-743 269.5,-743 269.5,-721 10.5,-721"/>
<text text-anchor="start" x="30.5" y="-729.2" font-family="Helvetica,sans-Serif" font-size="11.00">_label</text>
<polygon fill="none" stroke="black" points="269.5,-721 269.5,-743 405.5,-743 405.5,-721 269.5,-721"/>
<text text-anchor="start" x="272.5" y="-729.2" font-family="Helvetica,sans-Serif" font-size="11.00">text[2147483647]</text>
<polygon fill="none" stroke="black" points="10.5,-699 10.5,-721 269.5,-721 269.5,-699 10.5,-699"/>
<text text-anchor="start" x="30.5" y="-707.2" font-family="Helvetica,sans-Serif" font-size="11.00">_output_label</text>
<polygon fill="none" stroke="black" points="269.5,-699 269.5,-721 405.5,-721 405.5,-699 269.5,-699"/>
<text text-anchor="start" x="272.5" y="-707.2" font-family="Helvetica,sans-Serif" font-size="11.00">text[2147483647]</text>
<polygon fill="none" stroke="black" points="10.5,-677 10.5,-699 269.5,-699 269.5,-677 10.5,-677"/>
<text text-anchor="start" x="30.5" y="-685.2" font-family="Helvetica,sans-Serif" font-size="11.00">accessibility</text>
<polygon fill="none" stroke="black" points="269.5,-677 269.5,-699 405.5,-699 405.5,-677 269.5,-677"/>
<text text-anchor="start" x="272.5" y="-685.2" font-family="Helvetica,sans-Serif" font-size="11.00">int4[10]</text>
<polygon fill="none" stroke="black" points="10.5,-655 10.5,-677 269.5,-677 269.5,-655 10.5,-655"/>
<text text-anchor="start" x="30.5" y="-663.2" font-family="Helvetica,sans-Serif" font-size="11.00">condition_score</text>
<polygon fill="none" stroke="black" points="269.5,-655 269.5,-677 405.5,-677 405.5,-655 269.5,-655"/>
<text text-anchor="start" x="272.5" y="-663.2" font-family="Helvetica,sans-Serif" font-size="11.00">numeric[3,2]</text>
<polygon fill="none" stroke="black" points="10.5,-633 10.5,-655 269.5,-655 269.5,-633 10.5,-633"/>
<text text-anchor="start" x="30.5" y="-641.2" font-family="Helvetica,sans-Serif" font-size="11.00">contract_section</text>
<polygon fill="none" stroke="black" points="269.5,-633 269.5,-655 405.5,-655 405.5,-633 269.5,-633"/>
<text text-anchor="start" x="272.5" y="-641.2" font-family="Helvetica,sans-Serif" font-size="11.00">text[2147483647]</text>
<polygon fill="none" stroke="black" points="10.5,-611 10.5,-633 269.5,-633 269.5,-611 10.5,-611"/>
<text text-anchor="start" x="30.5" y="-619.2" font-family="Helvetica,sans-Serif" font-size="11.00">detail_geometry3d_geometry</text>
<polygon fill="none" stroke="black" points="269.5,-611 269.5,-633 405.5,-633 405.5,-611 269.5,-611"/>
<text text-anchor="start" x="272.5" y="-619.2" font-family="Helvetica,sans-Serif" font-size="11.00">geometry[2147483647]</text>
<polygon fill="none" stroke="black" points="10.5,-589 10.5,-611 269.5,-611 269.5,-589 10.5,-589"/>
<text text-anchor="start" x="30.5" y="-597.2" font-family="Helvetica,sans-Serif" font-size="11.00">elevation_determination</text>
<polygon fill="none" stroke="black" points="269.5,-589 269.5,-611 405.5,-611 405.5,-589 269.5,-589"/>
<text text-anchor="start" x="272.5" y="-597.2" font-family="Helvetica,sans-Serif" font-size="11.00">int4[10]</text>
<polygon fill="none" stroke="black" points="10.5,-567 10.5,-589 269.5,-589 269.5,-567 10.5,-567"/>
<text text-anchor="start" x="30.5" y="-575.2" font-family="Helvetica,sans-Serif" font-size="11.00">financing</text>
<polygon fill="none" stroke="black" points="269.5,-567 269.5,-589 405.5,-589 405.5,-567 269.5,-567"/>
<text text-anchor="start" x="272.5" y="-575.2" font-family="Helvetica,sans-Serif" font-size="11.00">int4[10]</text>
<polygon fill="none" stroke="black" points="10.5,-545 10.5,-567 269.5,-567 269.5,-545 10.5,-545"/>
<text text-anchor="start" x="30.5" y="-553.2" font-family="Helvetica,sans-Serif" font-size="11.00">fk_dataowner</text>
<polygon fill="none" stroke="black" points="269.5,-545 269.5,-567 405.5,-567 405.5,-545 269.5,-545"/>
<text text-anchor="start" x="272.5" y="-553.2" font-family="Helvetica,sans-Serif" font-size="11.00">varchar[16]</text>
<polygon fill="none" stroke="black" points="10.5,-523 10.5,-545 269.5,-545 269.5,-523 10.5,-523"/>
<text text-anchor="start" x="30.5" y="-531.2" font-family="Helvetica,sans-Serif" font-size="11.00">fk_main_cover</text>
<polygon fill="none" stroke="black" points="269.5,-523 269.5,-545 405.5,-545 405.5,-523 269.5,-523"/>
<text text-anchor="start" x="272.5" y="-531.2" font-family="Helvetica,sans-Serif" font-size="11.00">varchar[16]</text>
<polygon fill="none" stroke="black" points="10.5,-501 10.5,-523 269.5,-523 269.5,-501 10.5,-501"/>
<text text-anchor="start" x="30.5" y="-509.2" font-family="Helvetica,sans-Serif" font-size="11.00">fk_main_wastewater_node</text>
<polygon fill="none" stroke="black" points="269.5,-501 269.5,-523 405.5,-523 405.5,-501 269.5,-501"/>
<text text-anchor="start" x="272.5" y="-509.2" font-family="Helvetica,sans-Serif" font-size="11.00">varchar[16]</text>
<polygon fill="none" stroke="black" points="10.5,-479 10.5,-501 269.5,-501 269.5,-479 10.5,-479"/>
<text text-anchor="start" x="30.5" y="-487.2" font-family="Helvetica,sans-Serif" font-size="11.00">fk_operator</text>
<polygon fill="none" stroke="black" points="269.5,-479 269.5,-501 405.5,-501 405.5,-479 269.5,-479"/>
<text text-anchor="start" x="272.5" y="-487.2" font-family="Helvetica,sans-Serif" font-size="11.00">varchar[16]</text>
<polygon fill="none" stroke="black" points="10.5,-457 10.5,-479 269.5,-479 269.5,-457 10.5,-457"/>
<text text-anchor="start" x="30.5" y="-465.2" font-family="Helvetica,sans-Serif" font-size="11.00">fk_owner</text>
<polygon fill="none" stroke="black" points="269.5,-457 269.5,-479 405.5,-479 405.5,-457 269.5,-457"/>
<text text-anchor="start" x="272.5" y="-465.2" font-family="Helvetica,sans-Serif" font-size="11.00">varchar[16]</text>
<polygon fill="none" stroke="black" points="10.5,-435 10.5,-457 269.5,-457 269.5,-435 10.5,-435"/>
<text text-anchor="start" x="30.5" y="-443.2" font-family="Helvetica,sans-Serif" font-size="11.00">fk_provider</text>
<polygon fill="none" stroke="black" points="269.5,-435 269.5,-457 405.5,-457 405.5,-435 269.5,-435"/>
<text text-anchor="start" x="272.5" y="-443.2" font-family="Helvetica,sans-Serif" font-size="11.00">varchar[16]</text>
<polygon fill="none" stroke="black" points="10.5,-413 10.5,-435 269.5,-435 269.5,-413 10.5,-413"/>
<text text-anchor="start" x="30.5" y="-421.2" font-family="Helvetica,sans-Serif" font-size="11.00">gross_costs</text>
<polygon fill="none" stroke="black" points="269.5,-413 269.5,-435 405.5,-435 405.5,-413 269.5,-413"/>
<text text-anchor="start" x="272.5" y="-421.2" font-family="Helvetica,sans-Serif" font-size="11.00">numeric[10,2]</text>
<polygon fill="none" stroke="black" points="10.5,-391 10.5,-413 269.5,-413 269.5,-391 10.5,-391"/>
<text text-anchor="start" x="30.5" y="-399.2" font-family="Helvetica,sans-Serif" font-size="11.00">identifier</text>
<polygon fill="none" stroke="black" points="269.5,-391 269.5,-413 405.5,-413 405.5,-391 269.5,-391"/>
<text text-anchor="start" x="272.5" y="-399.2" font-family="Helvetica,sans-Serif" font-size="11.00">text[2147483647]</text>
<polygon fill="none" stroke="black" points="10.5,-369 10.5,-391 269.5,-391 269.5,-369 10.5,-369"/>
<text text-anchor="start" x="30.5" y="-377.2" font-family="Helvetica,sans-Serif" font-size="11.00">inspection_interval</text>
<polygon fill="none" stroke="black" points="269.5,-369 269.5,-391 405.5,-391 405.5,-369 269.5,-369"/>
<text text-anchor="start" x="272.5" y="-377.2" font-family="Helvetica,sans-Serif" font-size="11.00">numeric[4,2]</text>
<polygon fill="none" stroke="black" points="10.5,-347 10.5,-369 269.5,-369 269.5,-347 10.5,-347"/>
<text text-anchor="start" x="30.5" y="-355.2" font-family="Helvetica,sans-Serif" font-size="11.00">last_modification</text>
<polygon fill="none" stroke="black" points="269.5,-347 269.5,-369 405.5,-369 405.5,-347 269.5,-347"/>
<text text-anchor="start" x="272.5" y="-355.2" font-family="Helvetica,sans-Serif" font-size="11.00">timestamp[29,6]</text>
<polygon fill="none" stroke="black" points="10.5,-325 10.5,-347 269.5,-347 269.5,-325 10.5,-325"/>
<text text-anchor="start" x="30.5" y="-333.2" font-family="Helvetica,sans-Serif" font-size="11.00">location_name</text>
<polygon fill="none" stroke="black" points="269.5,-325 269.5,-347 405.5,-347 405.5,-325 269.5,-325"/>
<text text-anchor="start" x="272.5" y="-333.2" font-family="Helvetica,sans-Serif" font-size="11.00">text[2147483647]</text>
<polygon fill="none" stroke="black" points="10.5,-303 10.5,-325 269.5,-325 269.5,-303 10.5,-303"/>
<text text-anchor="start" x="30.5" y="-311.2" font-family="Helvetica,sans-Serif" font-size="11.00">records</text>
<polygon fill="none" stroke="black" points="269.5,-303 269.5,-325 405.5,-325 405.5,-303 269.5,-303"/>
<text text-anchor="start" x="272.5" y="-311.2" font-family="Helvetica,sans-Serif" font-size="11.00">text[2147483647]</text>
<polygon fill="none" stroke="black" points="10.5,-281 10.5,-303 269.5,-303 269.5,-281 10.5,-281"/>
<text text-anchor="start" x="30.5" y="-289.2" font-family="Helvetica,sans-Serif" font-size="11.00">remark</text>
<polygon fill="none" stroke="black" points="269.5,-281 269.5,-303 405.5,-303 405.5,-281 269.5,-281"/>
<text text-anchor="start" x="272.5" y="-289.2" font-family="Helvetica,sans-Serif" font-size="11.00">text[2147483647]</text>
<polygon fill="none" stroke="black" points="10.5,-259 10.5,-281 269.5,-281 269.5,-259 10.5,-259"/>
<text text-anchor="start" x="30.5" y="-267.2" font-family="Helvetica,sans-Serif" font-size="11.00">renovation_necessity</text>
<polygon fill="none" stroke="black" points="269.5,-259 269.5,-281 405.5,-281 405.5,-259 269.5,-259"/>
<text text-anchor="start" x="272.5" y="-267.2" font-family="Helvetica,sans-Serif" font-size="11.00">int4[10]</text>
<polygon fill="none" stroke="black" points="10.5,-237 10.5,-259 269.5,-259 269.5,-237 10.5,-237"/>
<text text-anchor="start" x="30.5" y="-245.2" font-family="Helvetica,sans-Serif" font-size="11.00">replacement_value</text>
<polygon fill="none" stroke="black" points="269.5,-237 269.5,-259 405.5,-259 405.5,-237 269.5,-237"/>
<text text-anchor="start" x="272.5" y="-245.2" font-family="Helvetica,sans-Serif" font-size="11.00">numeric[10,2]</text>
<polygon fill="none" stroke="black" points="10.5,-215 10.5,-237 269.5,-237 269.5,-215 10.5,-215"/>
<text text-anchor="start" x="30.5" y="-223.2" font-family="Helvetica,sans-Serif" font-size="11.00">rv_base_year</text>
<polygon fill="none" stroke="black" points="269.5,-215 269.5,-237 405.5,-237 405.5,-215 269.5,-215"/>
<text text-anchor="start" x="272.5" y="-223.2" font-family="Helvetica,sans-Serif" font-size="11.00">int2[5]</text>
<polygon fill="none" stroke="black" points="10.5,-193 10.5,-215 269.5,-215 269.5,-193 10.5,-193"/>
<text text-anchor="start" x="30.5" y="-201.2" font-family="Helvetica,sans-Serif" font-size="11.00">rv_construction_type</text>
<polygon fill="none" stroke="black" points="269.5,-193 269.5,-215 405.5,-215 405.5,-193 269.5,-193"/>
<text text-anchor="start" x="272.5" y="-201.2" font-family="Helvetica,sans-Serif" font-size="11.00">int4[10]</text>
<polygon fill="none" stroke="black" points="10.5,-171 10.5,-193 269.5,-193 269.5,-171 10.5,-171"/>
<text text-anchor="start" x="30.5" y="-179.2" font-family="Helvetica,sans-Serif" font-size="11.00">status</text>
<polygon fill="none" stroke="black" points="269.5,-171 269.5,-193 405.5,-193 405.5,-171 269.5,-171"/>
<text text-anchor="start" x="272.5" y="-179.2" font-family="Helvetica,sans-Serif" font-size="11.00">int4[10]</text>
<polygon fill="none" stroke="black" points="10.5,-149 10.5,-171 269.5,-171 269.5,-149 10.5,-149"/>
<text text-anchor="start" x="30.5" y="-157.2" font-family="Helvetica,sans-Serif" font-size="11.00">status_survey_year</text>
<polygon fill="none" stroke="black" points="269.5,-149 269.5,-171 405.5,-171 405.5,-149 269.5,-149"/>
<text text-anchor="start" x="272.5" y="-157.2" font-family="Helvetica,sans-Serif" font-size="11.00">int2[5]</text>
<polygon fill="none" stroke="black" points="10.5,-127 10.5,-149 269.5,-149 269.5,-127 10.5,-127"/>
<text text-anchor="start" x="30.5" y="-135.2" font-family="Helvetica,sans-Serif" font-size="11.00">structure_condition</text>
<polygon fill="none" stroke="black" points="269.5,-127 269.5,-149 405.5,-149 405.5,-127 269.5,-127"/>
<text text-anchor="start" x="272.5" y="-135.2" font-family="Helvetica,sans-Serif" font-size="11.00">int4[10]</text>
<polygon fill="none" stroke="black" points="10.5,-105 10.5,-127 269.5,-127 269.5,-105 10.5,-105"/>
<text text-anchor="start" x="30.5" y="-113.2" font-family="Helvetica,sans-Serif" font-size="11.00">subsidies</text>
<polygon fill="none" stroke="black" points="269.5,-105 269.5,-127 405.5,-127 405.5,-105 269.5,-105"/>
<text text-anchor="start" x="272.5" y="-113.2" font-family="Helvetica,sans-Serif" font-size="11.00">numeric[10,2]</text>
<polygon fill="none" stroke="black" points="10.5,-83 10.5,-105 269.5,-105 269.5,-83 10.5,-83"/>
<text text-anchor="start" x="30.5" y="-91.2" font-family="Helvetica,sans-Serif" font-size="11.00">urgency_figure</text>
<polygon fill="none" stroke="black" points="269.5,-83 269.5,-105 405.5,-105 405.5,-83 269.5,-83"/>
<text text-anchor="start" x="272.5" y="-91.2" font-family="Helvetica,sans-Serif" font-size="11.00">int2[5]</text>
<polygon fill="none" stroke="black" points="10.5,-61 10.5,-83 269.5,-83 269.5,-61 10.5,-61"/>
<text text-anchor="start" x="30.5" y="-69.2" font-family="Helvetica,sans-Serif" font-size="11.00">year_of_construction</text>
<polygon fill="none" stroke="black" points="269.5,-61 269.5,-83 405.5,-83 405.5,-61 269.5,-61"/>
<text text-anchor="start" x="272.5" y="-69.2" font-family="Helvetica,sans-Serif" font-size="11.00">int2[5]</text>
<polygon fill="none" stroke="black" points="10.5,-39 10.5,-61 269.5,-61 269.5,-39 10.5,-39"/>
<text text-anchor="start" x="30.5" y="-47.2" font-family="Helvetica,sans-Serif" font-size="11.00">year_of_replacement</text>
<polygon fill="none" stroke="black" points="269.5,-39 269.5,-61 405.5,-61 405.5,-39 269.5,-39"/>
<text text-anchor="start" x="272.5" y="-47.2" font-family="Helvetica,sans-Serif" font-size="11.00">int2[5]</text>
<polygon fill="none" stroke="black" stroke-width="2" points="9,-38 9,-920 406,-920 406,-38 9,-38"/>
</a>
</g>
</g>
</g>
</svg>
