<?xml version="1.0" encoding="UTF-8" standalone="no"?>
<!DOCTYPE svg PUBLIC "-//W3C//DTD SVG 1.1//EN"
 "http://www.w3.org/Graphics/SVG/1.1/DTD/svg11.dtd">
<!-- Generated by graphviz version 2.47.1 (20210515.0534)
 -->
<!-- Title: oneDegreeRelationshipsDiagram Pages: 1 -->
<svg width="537pt" height="428pt"
 viewBox="0.00 0.00 537.00 428.00" xmlns="http://www.w3.org/2000/svg" xmlns:xlink="http://www.w3.org/1999/xlink">
<g id="graph0" class="graph" transform="scale(1 1) rotate(0) translate(4 424)">
<title>oneDegreeRelationshipsDiagram</title>
<polygon fill="#ffffff" stroke="transparent" points="-4,4 -4,-424 533,-424 533,4 -4,4"/>
<text text-anchor="middle" x="73.5" y="-7.2" font-family="Helvetica,sans-Serif" font-size="11.00">Generated by SchemaSpy</text>
<!-- _aquifier -->
<g id="node1" class="node">
<title>_aquifier</title>
<g id="a_node1"><a xlink:href="../../tables/_aquifier.html" xlink:title="_aquifier" target="_top">
<polygon fill="#ffffff" stroke="transparent" points="205,-152 205,-416 521,-416 521,-152 205,-152"/>
<polygon fill="#f5f5f5" stroke="transparent" points="207,-392 207,-414 519,-414 519,-392 207,-392"/>
<polygon fill="none" stroke="black" points="207,-392 207,-414 519,-414 519,-392 207,-392"/>
<text text-anchor="start" x="211.5" y="-401.2" font-family="Helvetica,sans-Serif" font-weight="bold" font-size="11.00">_aquifier</text>
<text text-anchor="start" x="480" y="-400.2" font-family="Helvetica,sans-Serif" font-size="11.00">[table]</text>
<polygon fill="none" stroke="black" points="207,-370 207,-392 396,-392 396,-370 207,-370"/>
<image xlink:href="../../images/primaryKeys.png" width="11px" height="12px" preserveAspectRatio="xMinYMin meet" x="212" y="-387"/>
<text text-anchor="start" x="227" y="-378.2" font-family="Helvetica,sans-Serif" font-size="11.00">obj_id</text>
<polygon fill="none" stroke="black" points="396,-370 396,-392 519,-392 519,-370 396,-370"/>
<text text-anchor="start" x="399" y="-378.2" font-family="Helvetica,sans-Serif" font-size="11.00">varchar[16]</text>
<polygon fill="none" stroke="black" points="207,-348 207,-370 396,-370 396,-348 207,-348"/>
<text text-anchor="start" x="227" y="-356.2" font-family="Helvetica,sans-Serif" font-size="11.00">average_groundwater_level</text>
<polygon fill="none" stroke="black" points="396,-348 396,-370 519,-370 519,-348 396,-348"/>
<text text-anchor="start" x="399" y="-356.2" font-family="Helvetica,sans-Serif" font-size="11.00">numeric[7,3]</text>
<polygon fill="#ffffff" stroke="transparent" points="207,-326 207,-348 396,-348 396,-326 207,-326"/>
<polygon fill="none" stroke="black" points="207,-326 207,-348 396,-348 396,-326 207,-326"/>
<text text-anchor="start" x="227" y="-334.2" font-family="Helvetica,sans-Serif" font-size="11.00">identifier</text>
<polygon fill="none" stroke="black" points="396,-326 396,-348 519,-348 519,-326 396,-326"/>
<text text-anchor="start" x="399" y="-334.2" font-family="Helvetica,sans-Serif" font-size="11.00">varchar[20]</text>
<polygon fill="none" stroke="black" points="207,-304 207,-326 396,-326 396,-304 207,-304"/>
<text text-anchor="start" x="227" y="-312.2" font-family="Helvetica,sans-Serif" font-size="11.00">maximal_groundwater_level</text>
<polygon fill="none" stroke="black" points="396,-304 396,-326 519,-326 519,-304 396,-304"/>
<text text-anchor="start" x="399" y="-312.2" font-family="Helvetica,sans-Serif" font-size="11.00">numeric[7,3]</text>
<polygon fill="none" stroke="black" points="207,-282 207,-304 396,-304 396,-282 207,-282"/>
<text text-anchor="start" x="227" y="-290.2" font-family="Helvetica,sans-Serif" font-size="11.00">minimal_groundwater_level</text>
<polygon fill="none" stroke="black" points="396,-282 396,-304 519,-304 519,-282 396,-282"/>
<text text-anchor="start" x="399" y="-290.2" font-family="Helvetica,sans-Serif" font-size="11.00">numeric[7,3]</text>
<polygon fill="#ffffff" stroke="transparent" points="207,-260 207,-282 396,-282 396,-260 207,-260"/>
<polygon fill="none" stroke="black" points="207,-260 207,-282 396,-282 396,-260 207,-260"/>
<text text-anchor="start" x="227" y="-268.2" font-family="Helvetica,sans-Serif" font-size="11.00">perimeter_geometry</text>
<polygon fill="none" stroke="black" points="396,-260 396,-282 519,-282 519,-260 396,-260"/>
<text text-anchor="start" x="399" y="-268.2" font-family="Helvetica,sans-Serif" font-size="11.00">geometry[2147483647]</text>
<polygon fill="none" stroke="black" points="207,-238 207,-260 396,-260 396,-238 207,-238"/>
<text text-anchor="start" x="227" y="-246.2" font-family="Helvetica,sans-Serif" font-size="11.00">remark</text>
<polygon fill="none" stroke="black" points="396,-238 396,-260 519,-260 519,-238 396,-238"/>
<text text-anchor="start" x="399" y="-246.2" font-family="Helvetica,sans-Serif" font-size="11.00">varchar[80]</text>
<polygon fill="none" stroke="black" points="207,-216 207,-238 396,-238 396,-216 207,-216"/>
<text text-anchor="start" x="227" y="-224.2" font-family="Helvetica,sans-Serif" font-size="11.00">last_modification</text>
<polygon fill="none" stroke="black" points="396,-216 396,-238 519,-238 519,-216 396,-216"/>
<text text-anchor="start" x="399" y="-224.2" font-family="Helvetica,sans-Serif" font-size="11.00">timestamp[29,6]</text>
<polygon fill="#ffffff" stroke="transparent" points="207,-194 207,-216 396,-216 396,-194 207,-194"/>
<polygon fill="none" stroke="black" points="207,-194 207,-216 396,-216 396,-194 207,-194"/>
<image xlink:href="../../images/foreignKeys.png" width="11px" height="12px" preserveAspectRatio="xMinYMin meet" x="212" y="-211"/>
<text text-anchor="start" x="227" y="-202.2" font-family="Helvetica,sans-Serif" font-size="11.00">fk_dataowner</text>
<polygon fill="none" stroke="black" points="396,-194 396,-216 519,-216 519,-194 396,-194"/>
<text text-anchor="start" x="399" y="-202.2" font-family="Helvetica,sans-Serif" font-size="11.00">varchar[16]</text>
<polygon fill="none" stroke="black" points="207,-172 207,-194 396,-194 396,-172 207,-172"/>
<image xlink:href="../../images/foreignKeys.png" width="11px" height="12px" preserveAspectRatio="xMinYMin meet" x="212" y="-189"/>
<text text-anchor="start" x="227" y="-180.2" font-family="Helvetica,sans-Serif" font-size="11.00">fk_provider</text>
<polygon fill="none" stroke="black" points="396,-172 396,-194 519,-194 519,-172 396,-172"/>
<text text-anchor="start" x="399" y="-180.2" font-family="Helvetica,sans-Serif" font-size="11.00">varchar[16]</text>
<polygon fill="#ffffff" stroke="transparent" points="207,-154 207,-172 306,-172 306,-154 207,-154"/>
<polygon fill="none" stroke="black" points="207,-154 207,-172 306,-172 306,-154 207,-154"/>
<text text-anchor="start" x="210" y="-160.2" font-family="Helvetica,sans-Serif" font-size="11.00">&lt; 2</text>
<polygon fill="#ffffff" stroke="transparent" points="306,-154 306,-172 396,-172 396,-154 306,-154"/>
<polygon fill="none" stroke="black" points="306,-154 306,-172 396,-172 396,-154 306,-154"/>
<text text-anchor="start" x="386" y="-160.2" font-family="Helvetica,sans-Serif" font-size="11.00"> &#160;</text>
<polygon fill="#ffffff" stroke="transparent" points="396,-154 396,-172 519,-172 519,-154 396,-154"/>
<polygon fill="none" stroke="black" points="396,-154 396,-172 519,-172 519,-154 396,-154"/>
<text text-anchor="start" x="500" y="-160.2" font-family="Helvetica,sans-Serif" font-size="11.00">0 &gt;</text>
<polygon fill="none" stroke="black" stroke-width="2" points="206,-153 206,-415 520,-415 520,-153 206,-153"/>
</a>
</g>
</g>
<!-- organisation -->
<g id="node2" class="node">
<title>organisation</title>
<g id="a_node2"><a xlink:href="../../tables/organisation.html" xlink:title="organisation" target="_top">
<polygon fill="#ffffff" stroke="transparent" points="8,-37 8,-227 156,-227 156,-37 8,-37"/>
<polygon fill="#f5f5f5" stroke="transparent" points="8,-205 8,-227 156,-227 156,-205 8,-205"/>
<polygon fill="none" stroke="black" points="8,-205 8,-227 156,-227 156,-205 8,-205"/>
<text text-anchor="start" x="13" y="-214.2" font-family="Helvetica,sans-Serif" font-weight="bold" font-size="11.00">organisation</text>
<text text-anchor="start" x="117" y="-213.2" font-family="Helvetica,sans-Serif" font-size="11.00">[table]</text>
<polygon fill="none" stroke="black" points="8,-183 8,-205 156,-205 156,-183 8,-183"/>
<image xlink:href="../../images/primaryKeys.png" width="11px" height="12px" preserveAspectRatio="xMinYMin meet" x="13" y="-200"/>
<text text-anchor="start" x="28" y="-191.2" font-family="Helvetica,sans-Serif" font-size="11.00">obj_id</text>
<polygon fill="#ffffff" stroke="transparent" points="8,-161 8,-183 156,-183 156,-161 8,-161"/>
<polygon fill="none" stroke="black" points="8,-161 8,-183 156,-183 156,-161 8,-161"/>
<text text-anchor="start" x="28" y="-169.2" font-family="Helvetica,sans-Serif" font-size="11.00">identifier</text>
<polygon fill="none" stroke="black" points="8,-139 8,-161 156,-161 156,-139 8,-139"/>
<image xlink:href="../../images/foreignKeys.png" width="11px" height="12px" preserveAspectRatio="xMinYMin meet" x="13" y="-156"/>
<text text-anchor="start" x="28" y="-147.2" font-family="Helvetica,sans-Serif" font-size="11.00">organisation_type</text>
<polygon fill="none" stroke="black" points="8,-117 8,-139 156,-139 156,-117 8,-117"/>
<image xlink:href="../../images/foreignKeys.png" width="11px" height="12px" preserveAspectRatio="xMinYMin meet" x="13" y="-134"/>
<text text-anchor="start" x="28" y="-125.2" font-family="Helvetica,sans-Serif" font-size="11.00">status</text>
<polygon fill="#ffffff" stroke="transparent" points="8,-95 8,-117 156,-117 156,-95 8,-95"/>
<polygon fill="none" stroke="black" points="8,-95 8,-117 156,-117 156,-95 8,-95"/>
<image xlink:href="../../images/foreignKeys.png" width="11px" height="12px" preserveAspectRatio="xMinYMin meet" x="13" y="-112"/>
<text text-anchor="start" x="28" y="-103.2" font-family="Helvetica,sans-Serif" font-size="11.00">fk_dataowner</text>
<polygon fill="none" stroke="black" points="8,-73 8,-95 156,-95 156,-73 8,-73"/>
<image xlink:href="../../images/foreignKeys.png" width="11px" height="12px" preserveAspectRatio="xMinYMin meet" x="13" y="-90"/>
<text text-anchor="start" x="28" y="-81.2" font-family="Helvetica,sans-Serif" font-size="11.00">fk_provider</text>
<polygon fill="none" stroke="black" points="8,-55 8,-73 156,-73 156,-55 8,-55"/>
<text text-anchor="start" x="11" y="-61.2" font-family="Helvetica,sans-Serif" font-size="11.00">...</text>
<polygon fill="#ffffff" stroke="transparent" points="8,-37 8,-55 72,-55 72,-37 8,-37"/>
<polygon fill="none" stroke="black" points="8,-37 8,-55 72,-55 72,-37 8,-37"/>
<text text-anchor="start" x="11" y="-43.2" font-family="Helvetica,sans-Serif" font-size="11.00">&lt; 4</text>
<polygon fill="#ffffff" stroke="transparent" points="72,-37 72,-55 106,-55 106,-37 72,-37"/>
<polygon fill="none" stroke="black" points="72,-37 72,-55 106,-55 106,-37 72,-37"/>
<text text-anchor="start" x="96" y="-43.2" font-family="Helvetica,sans-Serif" font-size="11.00"> &#160;</text>
<polygon fill="#ffffff" stroke="transparent" points="106,-37 106,-55 156,-55 156,-37 106,-37"/>
<polygon fill="none" stroke="black" points="106,-37 106,-55 156,-55 156,-37 106,-37"/>
<text text-anchor="start" x="131" y="-43.2" font-family="Helvetica,sans-Serif" font-size="11.00">92 &gt;</text>
</a>
</g>
</g>
<!-- _aquifier&#45;&gt;organisation -->
<g id="edge1" class="edge">
<title>_aquifier:w&#45;&gt;organisation:e</title>
<path fill="none" stroke="black" d="M191.7,-203.18C180.24,-200.06 173.57,-194 157,-194"/>
<polygon fill="black" stroke="black" points="198.06,-203.99 205.55,-208.57 202.03,-204.5 206,-205 206,-205 206,-205 202.03,-204.5 206.45,-201.43 198.06,-203.99 198.06,-203.99"/>
<ellipse fill="none" stroke="black" cx="194.89" cy="-203.59" rx="3.2" ry="3.2"/>
</g>
<!-- _aquifier&#45;&gt;organisation -->
<g id="edge2" class="edge">
<title>_aquifier:w&#45;&gt;organisation:e</title>
<path fill="none" stroke="black" d="M191.7,-184.82C180.24,-187.94 173.57,-194 157,-194"/>
<polygon fill="black" stroke="black" points="198.06,-184.01 206.45,-186.57 202.03,-183.5 206,-183 206,-183 206,-183 202.03,-183.5 205.55,-179.43 198.06,-184.01 198.06,-184.01"/>
<ellipse fill="none" stroke="black" cx="194.89" cy="-184.41" rx="3.2" ry="3.2"/>
</g>
</g>
</svg>
