<?xml version="1.0" encoding="UTF-8" standalone="no"?>
<!DOCTYPE svg PUBLIC "-//W3C//DTD SVG 1.1//EN"
 "http://www.w3.org/Graphics/SVG/1.1/DTD/svg11.dtd">
<!-- Generated by graphviz version 2.43.0 (0)
 -->
<!-- Title: oneDegreeRelationshipsDiagram Pages: 1 -->
<svg width="646pt" height="638pt"
 viewBox="0.00 0.00 646.00 638.00" xmlns="http://www.w3.org/2000/svg" xmlns:xlink="http://www.w3.org/1999/xlink">
<g id="graph0" class="graph" transform="scale(1 1) rotate(0) translate(4 634)">
<title>oneDegreeRelationshipsDiagram</title>
<polygon fill="#ffffff" stroke="transparent" points="-4,4 -4,-634 642,-634 642,4 -4,4"/>
<text text-anchor="middle" x="79.5" y="-7.2" font-family="Helvetica,sans-Serif" font-size="11.00">Generated by SchemaSpy</text>
<!-- agxx_measure_text -->
<g id="node1" class="node">
<title>agxx_measure_text</title>
<g id="a_node1"><a xlink:href="../../tables/agxx_measure_text.html" xlink:title="agxx_measure_text" target="_top">
<polygon fill="#ffffff" stroke="transparent" points="329,-340 329,-626 630,-626 630,-340 329,-340"/>
<polygon fill="#f5f5f5" stroke="transparent" points="331.5,-602 331.5,-624 628.5,-624 628.5,-602 331.5,-602"/>
<polygon fill="none" stroke="black" points="331.5,-602 331.5,-624 628.5,-624 628.5,-602 331.5,-602"/>
<text text-anchor="start" x="336.5" y="-611.2" font-family="Helvetica,sans-Serif" font-weight="bold" font-size="11.00">agxx_measure_text</text>
<text text-anchor="start" x="586.5" y="-610.2" font-family="Helvetica,sans-Serif" font-size="11.00">[table]</text>
<polygon fill="none" stroke="black" points="331.5,-580 331.5,-602 492.5,-602 492.5,-580 331.5,-580"/>
<image xlink:href="../../images/primaryKeys.png" width="11px" height="12px" preserveAspectRatio="xMinYMin meet" x="336.5" y="-597"/>
<text text-anchor="start" x="351.5" y="-588.2" font-family="Helvetica,sans-Serif" font-size="11.00">obj_id</text>
<polygon fill="none" stroke="black" points="492.5,-580 492.5,-602 628.5,-602 628.5,-580 492.5,-580"/>
<text text-anchor="start" x="495.5" y="-588.2" font-family="Helvetica,sans-Serif" font-size="11.00">varchar[16]</text>
<polygon fill="none" stroke="black" points="331.5,-558 331.5,-580 492.5,-580 492.5,-558 331.5,-558"/>
<text text-anchor="start" x="351.5" y="-566.2" font-family="Helvetica,sans-Serif" font-size="11.00">classname</text>
<polygon fill="none" stroke="black" points="492.5,-558 492.5,-580 628.5,-580 628.5,-558 492.5,-558"/>
<text text-anchor="start" x="495.5" y="-566.2" font-family="Helvetica,sans-Serif" font-size="11.00">text[2147483647]</text>
<polygon fill="none" stroke="black" points="331.5,-536 331.5,-558 492.5,-558 492.5,-536 331.5,-536"/>
<image xlink:href="../../images/foreignKeys.png" width="11px" height="12px" preserveAspectRatio="xMinYMin meet" x="336.5" y="-553"/>
<text text-anchor="start" x="351.5" y="-544.2" font-family="Helvetica,sans-Serif" font-size="11.00">plantype</text>
<polygon fill="none" stroke="black" points="492.5,-536 492.5,-558 628.5,-558 628.5,-536 492.5,-536"/>
<text text-anchor="start" x="495.5" y="-544.2" font-family="Helvetica,sans-Serif" font-size="11.00">int4[10]</text>
<polygon fill="none" stroke="black" points="331.5,-514 331.5,-536 492.5,-536 492.5,-514 331.5,-514"/>
<text text-anchor="start" x="351.5" y="-522.2" font-family="Helvetica,sans-Serif" font-size="11.00">remark</text>
<polygon fill="none" stroke="black" points="492.5,-514 492.5,-536 628.5,-536 628.5,-514 492.5,-514"/>
<text text-anchor="start" x="495.5" y="-522.2" font-family="Helvetica,sans-Serif" font-size="11.00">text[2147483647]</text>
<polygon fill="none" stroke="black" points="331.5,-492 331.5,-514 492.5,-514 492.5,-492 331.5,-492"/>
<text text-anchor="start" x="351.5" y="-500.2" font-family="Helvetica,sans-Serif" font-size="11.00">text</text>
<polygon fill="none" stroke="black" points="492.5,-492 492.5,-514 628.5,-514 628.5,-492 492.5,-492"/>
<text text-anchor="start" x="495.5" y="-500.2" font-family="Helvetica,sans-Serif" font-size="11.00">text[2147483647]</text>
<polygon fill="none" stroke="black" points="331.5,-470 331.5,-492 492.5,-492 492.5,-470 331.5,-470"/>
<image xlink:href="../../images/foreignKeys.png" width="11px" height="12px" preserveAspectRatio="xMinYMin meet" x="336.5" y="-487"/>
<text text-anchor="start" x="351.5" y="-478.2" font-family="Helvetica,sans-Serif" font-size="11.00">texthali</text>
<polygon fill="none" stroke="black" points="492.5,-470 492.5,-492 628.5,-492 628.5,-470 492.5,-470"/>
<text text-anchor="start" x="495.5" y="-478.2" font-family="Helvetica,sans-Serif" font-size="11.00">int2[5]</text>
<polygon fill="none" stroke="black" points="331.5,-448 331.5,-470 492.5,-470 492.5,-448 331.5,-448"/>
<text text-anchor="start" x="351.5" y="-456.2" font-family="Helvetica,sans-Serif" font-size="11.00">textori</text>
<polygon fill="none" stroke="black" points="492.5,-448 492.5,-470 628.5,-470 628.5,-448 492.5,-448"/>
<text text-anchor="start" x="495.5" y="-456.2" font-family="Helvetica,sans-Serif" font-size="11.00">numeric[4,1]</text>
<polygon fill="none" stroke="black" points="331.5,-426 331.5,-448 492.5,-448 492.5,-426 331.5,-426"/>
<text text-anchor="start" x="351.5" y="-434.2" font-family="Helvetica,sans-Serif" font-size="11.00">textpos_geometry</text>
<polygon fill="none" stroke="black" points="492.5,-426 492.5,-448 628.5,-448 628.5,-426 492.5,-426"/>
<text text-anchor="start" x="495.5" y="-434.2" font-family="Helvetica,sans-Serif" font-size="11.00">geometry[2147483647]</text>
<polygon fill="none" stroke="black" points="331.5,-404 331.5,-426 492.5,-426 492.5,-404 331.5,-404"/>
<image xlink:href="../../images/foreignKeys.png" width="11px" height="12px" preserveAspectRatio="xMinYMin meet" x="336.5" y="-421"/>
<text text-anchor="start" x="351.5" y="-412.2" font-family="Helvetica,sans-Serif" font-size="11.00">textvali</text>
<polygon fill="none" stroke="black" points="492.5,-404 492.5,-426 628.5,-426 628.5,-404 492.5,-404"/>
<text text-anchor="start" x="495.5" y="-412.2" font-family="Helvetica,sans-Serif" font-size="11.00">int2[5]</text>
<polygon fill="none" stroke="black" points="331.5,-382 331.5,-404 492.5,-404 492.5,-382 331.5,-382"/>
<text text-anchor="start" x="351.5" y="-390.2" font-family="Helvetica,sans-Serif" font-size="11.00">last_modification</text>
<polygon fill="none" stroke="black" points="492.5,-382 492.5,-404 628.5,-404 628.5,-382 492.5,-382"/>
<text text-anchor="start" x="495.5" y="-390.2" font-family="Helvetica,sans-Serif" font-size="11.00">timestamp[29,6]</text>
<polygon fill="none" stroke="black" points="331.5,-360 331.5,-382 492.5,-382 492.5,-360 331.5,-360"/>
<image xlink:href="../../images/foreignKeys.png" width="11px" height="12px" preserveAspectRatio="xMinYMin meet" x="336.5" y="-377"/>
<text text-anchor="start" x="351.5" y="-368.2" font-family="Helvetica,sans-Serif" font-size="11.00">fk_measure</text>
<polygon fill="none" stroke="black" points="492.5,-360 492.5,-382 628.5,-382 628.5,-360 492.5,-360"/>
<text text-anchor="start" x="495.5" y="-368.2" font-family="Helvetica,sans-Serif" font-size="11.00">varchar[16]</text>
<polygon fill="#ffffff" stroke="transparent" points="331.5,-342 331.5,-360 628.5,-360 628.5,-342 331.5,-342"/>
<polygon fill="none" stroke="black" points="331.5,-342 331.5,-360 628.5,-360 628.5,-342 331.5,-342"/>
<polygon fill="#ffffff" stroke="transparent" points="332.5,-343 332.5,-359 435.5,-359 435.5,-343 332.5,-343"/>
<text text-anchor="start" x="334.5" y="-348.2" font-family="Helvetica,sans-Serif" font-size="11.00">&lt; 4</text>
<polygon fill="#ffffff" stroke="transparent" points="435.5,-343 435.5,-359 525.5,-359 525.5,-343 435.5,-343"/>
<text text-anchor="start" x="476.5" y="-348.2" font-family="Helvetica,sans-Serif" font-size="11.00"> &#160;</text>
<polygon fill="#ffffff" stroke="transparent" points="525.5,-343 525.5,-359 627.5,-359 627.5,-343 525.5,-343"/>
<text text-anchor="start" x="605.5" y="-348.2" font-family="Helvetica,sans-Serif" font-size="11.00">0 &gt;</text>
<polygon fill="black" stroke="black" points="435.5,-343 435.5,-359 435.5,-359 435.5,-343 435.5,-343"/>
<polygon fill="black" stroke="black" points="525.5,-343 525.5,-359 525.5,-359 525.5,-343 525.5,-343"/>
<polygon fill="none" stroke="black" stroke-width="2" points="330,-341 330,-625 629,-625 629,-341 330,-341"/>
</a>
</g>
</g>
<!-- measure -->
<g id="node2" class="node">
<title>measure</title>
<g id="a_node2"><a xlink:href="../../tables/measure.html" xlink:title="measure" target="_top">
<polygon fill="#ffffff" stroke="transparent" points="20.5,-37 20.5,-359 267.5,-359 267.5,-37 20.5,-37"/>
<polygon fill="#f5f5f5" stroke="transparent" points="21,-337 21,-359 268,-359 268,-337 21,-337"/>
<polygon fill="none" stroke="black" points="21,-337 21,-359 268,-359 268,-337 21,-337"/>
<text text-anchor="start" x="26" y="-346.2" font-family="Helvetica,sans-Serif" font-weight="bold" font-size="11.00">measure</text>
<text text-anchor="start" x="226" y="-345.2" font-family="Helvetica,sans-Serif" font-size="11.00">[table]</text>
<polygon fill="none" stroke="black" points="21,-315 21,-337 268,-337 268,-315 21,-315"/>
<image xlink:href="../../images/primaryKeys.png" width="11px" height="12px" preserveAspectRatio="xMinYMin meet" x="26" y="-332"/>
<text text-anchor="start" x="41" y="-323.2" font-family="Helvetica,sans-Serif" font-size="11.00">obj_id</text>
<polygon fill="none" stroke="black" points="21,-293 21,-315 268,-315 268,-293 21,-293"/>
<image xlink:href="../../images/foreignKeys.png" width="11px" height="12px" preserveAspectRatio="xMinYMin meet" x="26" y="-310"/>
<text text-anchor="start" x="41" y="-301.2" font-family="Helvetica,sans-Serif" font-size="11.00">category</text>
<polygon fill="#ffffff" stroke="transparent" points="21,-271 21,-293 268,-293 268,-271 21,-271"/>
<polygon fill="none" stroke="black" points="21,-271 21,-293 268,-293 268,-271 21,-271"/>
<text text-anchor="start" x="41" y="-279.2" font-family="Helvetica,sans-Serif" font-size="11.00">identifier</text>
<polygon fill="#ffffff" stroke="transparent" points="21,-249 21,-271 268,-271 268,-249 21,-249"/>
<polygon fill="none" stroke="black" points="21,-249 21,-271 268,-271 268,-249 21,-249"/>
<text text-anchor="start" x="41" y="-257.2" font-family="Helvetica,sans-Serif" font-size="11.00">line_geometry</text>
<polygon fill="#ffffff" stroke="transparent" points="21,-227 21,-249 268,-249 268,-227 21,-227"/>
<polygon fill="none" stroke="black" points="21,-227 21,-249 268,-249 268,-227 21,-227"/>
<text text-anchor="start" x="41" y="-235.2" font-family="Helvetica,sans-Serif" font-size="11.00">perimeter_geometry</text>
<polygon fill="none" stroke="black" points="21,-205 21,-227 268,-227 268,-205 21,-205"/>
<image xlink:href="../../images/foreignKeys.png" width="11px" height="12px" preserveAspectRatio="xMinYMin meet" x="26" y="-222"/>
<text text-anchor="start" x="41" y="-213.2" font-family="Helvetica,sans-Serif" font-size="11.00">priority</text>
<polygon fill="none" stroke="black" points="21,-183 21,-205 268,-205 268,-183 21,-183"/>
<image xlink:href="../../images/foreignKeys.png" width="11px" height="12px" preserveAspectRatio="xMinYMin meet" x="26" y="-200"/>
<text text-anchor="start" x="41" y="-191.2" font-family="Helvetica,sans-Serif" font-size="11.00">status</text>
<polygon fill="#ffffff" stroke="transparent" points="21,-161 21,-183 268,-183 268,-161 21,-161"/>
<polygon fill="none" stroke="black" points="21,-161 21,-183 268,-183 268,-161 21,-161"/>
<text text-anchor="start" x="41" y="-169.2" font-family="Helvetica,sans-Serif" font-size="11.00">symbolpos_geometry</text>
<polygon fill="#ffffff" stroke="transparent" points="21,-139 21,-161 268,-161 268,-139 21,-139"/>
<polygon fill="none" stroke="black" points="21,-139 21,-161 268,-161 268,-139 21,-139"/>
<image xlink:href="../../images/foreignKeys.png" width="11px" height="12px" preserveAspectRatio="xMinYMin meet" x="26" y="-156"/>
<text text-anchor="start" x="41" y="-147.2" font-family="Helvetica,sans-Serif" font-size="11.00">fk_dataowner</text>
<polygon fill="none" stroke="black" points="21,-117 21,-139 268,-139 268,-117 21,-117"/>
<image xlink:href="../../images/foreignKeys.png" width="11px" height="12px" preserveAspectRatio="xMinYMin meet" x="26" y="-134"/>
<text text-anchor="start" x="41" y="-125.2" font-family="Helvetica,sans-Serif" font-size="11.00">fk_provider</text>
<polygon fill="none" stroke="black" points="21,-95 21,-117 268,-117 268,-95 21,-95"/>
<image xlink:href="../../images/foreignKeys.png" width="11px" height="12px" preserveAspectRatio="xMinYMin meet" x="26" y="-112"/>
<text text-anchor="start" x="41" y="-103.2" font-family="Helvetica,sans-Serif" font-size="11.00">fk_responsible_entity</text>
<polygon fill="none" stroke="black" points="21,-73 21,-95 268,-95 268,-73 21,-73"/>
<image xlink:href="../../images/foreignKeys.png" width="11px" height="12px" preserveAspectRatio="xMinYMin meet" x="26" y="-90"/>
<text text-anchor="start" x="41" y="-81.2" font-family="Helvetica,sans-Serif" font-size="11.00">fk_responsible_start</text>
<polygon fill="none" stroke="black" points="21,-55 21,-73 268,-73 268,-55 21,-55"/>
<text text-anchor="start" x="24" y="-61.2" font-family="Helvetica,sans-Serif" font-size="11.00">...</text>
<polygon fill="#ffffff" stroke="transparent" points="21,-37 21,-55 268,-55 268,-37 21,-37"/>
<polygon fill="none" stroke="black" points="21,-37 21,-55 268,-55 268,-37 21,-37"/>
<polygon fill="#ffffff" stroke="transparent" points="22,-38 22,-54 108,-54 108,-38 22,-38"/>
<text text-anchor="start" x="24" y="-43.2" font-family="Helvetica,sans-Serif" font-size="11.00">&lt; 7</text>
<polygon fill="#ffffff" stroke="transparent" points="108,-38 108,-54 182,-54 182,-38 108,-38"/>
<text text-anchor="start" x="141" y="-43.2" font-family="Helvetica,sans-Serif" font-size="11.00"> &#160;</text>
<polygon fill="#ffffff" stroke="transparent" points="182,-38 182,-54 267,-54 267,-38 182,-38"/>
<text text-anchor="start" x="245" y="-43.2" font-family="Helvetica,sans-Serif" font-size="11.00">4 &gt;</text>
<polygon fill="black" stroke="black" points="108,-38 108,-54 108,-54 108,-38 108,-38"/>
<polygon fill="black" stroke="black" points="182,-38 182,-54 182,-54 182,-38 182,-38"/>
</a>
</g>
</g>
<!-- agxx_measure_text&#45;&gt;measure -->
<g id="edge1" class="edge">
<title>agxx_measure_text:w&#45;&gt;measure:e</title>
<path fill="none" stroke="black" d="M316.45,-367.62C297.6,-357.15 297.18,-326 269,-326"/>
<polygon fill="black" stroke="black" points="322.72,-369.13 329.66,-374.5 326.61,-370.06 330.5,-371 330.5,-371 330.5,-371 326.61,-370.06 331.34,-367.5 322.72,-369.13 322.72,-369.13"/>
<ellipse fill="none" stroke="black" cx="319.61" cy="-368.38" rx="3.2" ry="3.2"/>
</g>
<!-- tww_vl.measure_text_plantype -->
<g id="node3" class="node">
<title>tww_vl.measure_text_plantype</title>
<g id="a_node3"><a xlink:href="../../../tww_vl/tables/measure_text_plantype.html" xlink:title="tww_vl.measure_text_plantype" target="_top">
<polygon fill="#ffffff" stroke="transparent" points="8,-538 8,-596 280,-596 280,-538 8,-538"/>
<polygon fill="#f5f5f5" stroke="transparent" points="8,-574 8,-596 280,-596 280,-574 8,-574"/>
<polygon fill="none" stroke="black" points="8,-574 8,-596 280,-596 280,-574 8,-574"/>
<text text-anchor="start" x="13" y="-583.2" font-family="Helvetica,sans-Serif" font-weight="bold" font-size="11.00">tww_vl.measure_text_plantype</text>
<text text-anchor="start" x="238" y="-582.2" font-family="Helvetica,sans-Serif" font-size="11.00">[table]</text>
<polygon fill="none" stroke="black" points="8,-556 8,-574 280,-574 280,-556 8,-556"/>
<text text-anchor="start" x="11" y="-562.2" font-family="Helvetica,sans-Serif" font-size="11.00">...</text>
<polygon fill="#ffffff" stroke="transparent" points="8,-538 8,-556 280,-556 280,-538 8,-538"/>
<polygon fill="none" stroke="black" points="8,-538 8,-556 280,-556 280,-538 8,-538"/>
<polygon fill="#ffffff" stroke="transparent" points="9,-539 9,-555 86,-555 86,-539 9,-539"/>
<text text-anchor="start" x="11" y="-544.2" font-family="Helvetica,sans-Serif" font-size="11.00"> &#160;</text>
<polygon fill="#ffffff" stroke="transparent" points="86,-539 86,-555 191,-555 191,-539 86,-539"/>
<text text-anchor="start" x="120" y="-544.2" font-family="Helvetica,sans-Serif" font-size="11.00">0 rows</text>
<polygon fill="#ffffff" stroke="transparent" points="191,-539 191,-555 279,-555 279,-539 191,-539"/>
<text text-anchor="start" x="257" y="-544.2" font-family="Helvetica,sans-Serif" font-size="11.00">1 &gt;</text>
<polygon fill="black" stroke="black" points="86,-539 86,-555 86,-555 86,-539 86,-539"/>
<polygon fill="black" stroke="black" points="191,-539 191,-555 191,-555 191,-539 191,-539"/>
</a>
</g>
</g>
<!-- agxx_measure_text&#45;&gt;tww_vl.measure_text_plantype -->
<g id="edge2" class="edge">
<title>agxx_measure_text:w&#45;&gt;tww_vl.measure_text_plantype:e</title>
<path fill="none" stroke="black" d="M315.8,-547.2C306.68,-547.43 297.4,-547.87 288.13,-548.47"/>
<polygon fill="black" stroke="black" points="322.5,-547.11 330.55,-550.6 326.5,-547.05 330.5,-547 330.5,-547 330.5,-547 326.5,-547.05 330.45,-543.4 322.5,-547.11 322.5,-547.11"/>
<ellipse fill="none" stroke="black" cx="319.3" cy="-547.15" rx="3.2" ry="3.2"/>
</g>
<!-- tww_vl.measure_text_texthali -->
<g id="node4" class="node">
<title>tww_vl.measure_text_texthali</title>
<g id="a_node4"><a xlink:href="../../../tww_vl/tables/measure_text_texthali.html" xlink:title="tww_vl.measure_text_texthali" target="_top">
<polygon fill="#ffffff" stroke="transparent" points="12,-459 12,-517 276,-517 276,-459 12,-459"/>
<polygon fill="#f5f5f5" stroke="transparent" points="12,-495 12,-517 276,-517 276,-495 12,-495"/>
<polygon fill="none" stroke="black" points="12,-495 12,-517 276,-517 276,-495 12,-495"/>
<text text-anchor="start" x="17" y="-504.2" font-family="Helvetica,sans-Serif" font-weight="bold" font-size="11.00">tww_vl.measure_text_texthali</text>
<text text-anchor="start" x="234" y="-503.2" font-family="Helvetica,sans-Serif" font-size="11.00">[table]</text>
<polygon fill="none" stroke="black" points="12,-477 12,-495 276,-495 276,-477 12,-477"/>
<text text-anchor="start" x="15" y="-483.2" font-family="Helvetica,sans-Serif" font-size="11.00">...</text>
<polygon fill="#ffffff" stroke="transparent" points="12,-459 12,-477 276,-477 276,-459 12,-459"/>
<polygon fill="none" stroke="black" points="12,-459 12,-477 276,-477 276,-459 12,-459"/>
<polygon fill="#ffffff" stroke="transparent" points="13,-460 13,-476 87,-476 87,-460 13,-460"/>
<text text-anchor="start" x="15" y="-465.2" font-family="Helvetica,sans-Serif" font-size="11.00"> &#160;</text>
<polygon fill="#ffffff" stroke="transparent" points="87,-460 87,-476 190,-476 190,-460 87,-460"/>
<text text-anchor="start" x="120" y="-465.2" font-family="Helvetica,sans-Serif" font-size="11.00">0 rows</text>
<polygon fill="#ffffff" stroke="transparent" points="190,-460 190,-476 275,-476 275,-460 190,-460"/>
<text text-anchor="start" x="253" y="-465.2" font-family="Helvetica,sans-Serif" font-size="11.00">1 &gt;</text>
<polygon fill="black" stroke="black" points="87,-460 87,-476 87,-476 87,-460 87,-460"/>
<polygon fill="black" stroke="black" points="190,-460 190,-476 190,-476 190,-460 190,-460"/>
</a>
</g>
</g>
<!-- agxx_measure_text&#45;&gt;tww_vl.measure_text_texthali -->
<g id="edge3" class="edge">
<title>agxx_measure_text:w&#45;&gt;tww_vl.measure_text_texthali:e</title>
<path fill="none" stroke="black" d="M315.84,-481.07C305.35,-481.16 294.66,-481.36 284,-481.62"/>
<polygon fill="black" stroke="black" points="322.5,-481.04 330.52,-484.6 326.5,-481.02 330.5,-481 330.5,-481 330.5,-481 326.5,-481.02 330.48,-477.4 322.5,-481.04 322.5,-481.04"/>
<ellipse fill="none" stroke="black" cx="319.3" cy="-481.05" rx="3.2" ry="3.2"/>
</g>
<!-- tww_vl.measure_text_textvali -->
<g id="node5" class="node">
<title>tww_vl.measure_text_textvali</title>
<g id="a_node5"><a xlink:href="../../../tww_vl/tables/measure_text_textvali.html" xlink:title="tww_vl.measure_text_textvali" target="_top">
<polygon fill="#ffffff" stroke="transparent" points="12.5,-380 12.5,-438 275.5,-438 275.5,-380 12.5,-380"/>
<polygon fill="#f5f5f5" stroke="transparent" points="13,-416 13,-438 276,-438 276,-416 13,-416"/>
<polygon fill="none" stroke="black" points="13,-416 13,-438 276,-438 276,-416 13,-416"/>
<text text-anchor="start" x="18" y="-425.2" font-family="Helvetica,sans-Serif" font-weight="bold" font-size="11.00">tww_vl.measure_text_textvali</text>
<text text-anchor="start" x="234" y="-424.2" font-family="Helvetica,sans-Serif" font-size="11.00">[table]</text>
<polygon fill="none" stroke="black" points="13,-398 13,-416 276,-416 276,-398 13,-398"/>
<text text-anchor="start" x="16" y="-404.2" font-family="Helvetica,sans-Serif" font-size="11.00">...</text>
<polygon fill="#ffffff" stroke="transparent" points="13,-380 13,-398 276,-398 276,-380 13,-380"/>
<polygon fill="none" stroke="black" points="13,-380 13,-398 276,-398 276,-380 13,-380"/>
<polygon fill="#ffffff" stroke="transparent" points="14,-381 14,-397 88,-397 88,-381 14,-381"/>
<text text-anchor="start" x="16" y="-386.2" font-family="Helvetica,sans-Serif" font-size="11.00"> &#160;</text>
<polygon fill="#ffffff" stroke="transparent" points="88,-381 88,-397 190,-397 190,-381 88,-381"/>
<text text-anchor="start" x="120.5" y="-386.2" font-family="Helvetica,sans-Serif" font-size="11.00">0 rows</text>
<polygon fill="#ffffff" stroke="transparent" points="190,-381 190,-397 275,-397 275,-381 190,-381"/>
<text text-anchor="start" x="253" y="-386.2" font-family="Helvetica,sans-Serif" font-size="11.00">1 &gt;</text>
<polygon fill="black" stroke="black" points="88,-381 88,-397 88,-397 88,-381 88,-381"/>
<polygon fill="black" stroke="black" points="190,-381 190,-397 190,-397 190,-381 190,-381"/>
</a>
</g>
</g>
<!-- agxx_measure_text&#45;&gt;tww_vl.measure_text_textvali -->
<g id="edge4" class="edge">
<title>agxx_measure_text:w&#45;&gt;tww_vl.measure_text_textvali:e</title>
<path fill="none" stroke="black" d="M316.05,-414.94C305.33,-414.86 294.4,-414.69 283.5,-414.46"/>
<polygon fill="black" stroke="black" points="322.5,-414.97 330.49,-418.6 326.5,-414.98 330.5,-415 330.5,-415 330.5,-415 326.5,-414.98 330.51,-411.4 322.5,-414.97 322.5,-414.97"/>
<ellipse fill="none" stroke="black" cx="319.3" cy="-414.96" rx="3.2" ry="3.2"/>
</g>
</g>
</svg>
