<?xml version="1.0" encoding="UTF-8" standalone="no"?>
<!DOCTYPE svg PUBLIC "-//W3C//DTD SVG 1.1//EN"
 "http://www.w3.org/Graphics/SVG/1.1/DTD/svg11.dtd">
<!-- Generated by graphviz version 2.43.0 (0)
 -->
<!-- Title: oneDegreeRelationshipsDiagram Pages: 1 -->
<svg width="871pt" height="584pt"
 viewBox="0.00 0.00 871.00 584.00" xmlns="http://www.w3.org/2000/svg" xmlns:xlink="http://www.w3.org/1999/xlink">
<g id="graph0" class="graph" transform="scale(1 1) rotate(0) translate(4 580)">
<title>oneDegreeRelationshipsDiagram</title>
<polygon fill="#ffffff" stroke="transparent" points="-4,4 -4,-580 867,-580 867,4 -4,4"/>
<text text-anchor="middle" x="79.5" y="-7.2" font-family="Helvetica,sans-Serif" font-size="11.00">Generated by SchemaSpy</text>
<!-- building_group -->
<g id="node1" class="node">
<title>building_group</title>
<g id="a_node1"><a xlink:href="../../tables/building_group.html" xlink:title="building_group" target="_top">
<polygon fill="#ffffff" stroke="transparent" points="231,-37 231,-425 511,-425 511,-37 231,-37"/>
<polygon fill="#f5f5f5" stroke="transparent" points="231,-403 231,-425 511,-425 511,-403 231,-403"/>
<polygon fill="none" stroke="black" points="231,-403 231,-425 511,-425 511,-403 231,-403"/>
<text text-anchor="start" x="236" y="-412.2" font-family="Helvetica,sans-Serif" font-weight="bold" font-size="11.00">building_group</text>
<text text-anchor="start" x="469" y="-411.2" font-family="Helvetica,sans-Serif" font-size="11.00">[table]</text>
<polygon fill="none" stroke="black" points="231,-381 231,-403 511,-403 511,-381 231,-381"/>
<image xlink:href="../../images/primaryKeys.png" width="11px" height="12px" preserveAspectRatio="xMinYMin meet" x="236" y="-398"/>
<text text-anchor="start" x="251" y="-389.2" font-family="Helvetica,sans-Serif" font-size="11.00">obj_id</text>
<polygon fill="none" stroke="black" points="231,-359 231,-381 511,-381 511,-359 231,-359"/>
<image xlink:href="../../images/foreignKeys.png" width="11px" height="12px" preserveAspectRatio="xMinYMin meet" x="236" y="-376"/>
<text text-anchor="start" x="251" y="-367.2" font-family="Helvetica,sans-Serif" font-size="11.00">connecting_obligation</text>
<polygon fill="none" stroke="black" points="231,-337 231,-359 511,-359 511,-337 231,-337"/>
<image xlink:href="../../images/foreignKeys.png" width="11px" height="12px" preserveAspectRatio="xMinYMin meet" x="236" y="-354"/>
<text text-anchor="start" x="251" y="-345.2" font-family="Helvetica,sans-Serif" font-size="11.00">connection_wwtp</text>
<polygon fill="none" stroke="black" points="231,-315 231,-337 511,-337 511,-315 231,-315"/>
<image xlink:href="../../images/foreignKeys.png" width="11px" height="12px" preserveAspectRatio="xMinYMin meet" x="236" y="-332"/>
<text text-anchor="start" x="251" y="-323.2" font-family="Helvetica,sans-Serif" font-size="11.00">drainage_map</text>
<polygon fill="none" stroke="black" points="231,-293 231,-315 511,-315 511,-293 231,-293"/>
<image xlink:href="../../images/foreignKeys.png" width="11px" height="12px" preserveAspectRatio="xMinYMin meet" x="236" y="-310"/>
<text text-anchor="start" x="251" y="-301.2" font-family="Helvetica,sans-Serif" font-size="11.00">drinking_water_network</text>
<polygon fill="none" stroke="black" points="231,-271 231,-293 511,-293 511,-271 231,-271"/>
<image xlink:href="../../images/foreignKeys.png" width="11px" height="12px" preserveAspectRatio="xMinYMin meet" x="236" y="-288"/>
<text text-anchor="start" x="251" y="-279.2" font-family="Helvetica,sans-Serif" font-size="11.00">drinking_water_others</text>
<polygon fill="none" stroke="black" points="231,-249 231,-271 511,-271 511,-249 231,-249"/>
<image xlink:href="../../images/foreignKeys.png" width="11px" height="12px" preserveAspectRatio="xMinYMin meet" x="236" y="-266"/>
<text text-anchor="start" x="251" y="-257.2" font-family="Helvetica,sans-Serif" font-size="11.00">electric_connection</text>
<polygon fill="none" stroke="black" points="231,-227 231,-249 511,-249 511,-227 231,-227"/>
<image xlink:href="../../images/foreignKeys.png" width="11px" height="12px" preserveAspectRatio="xMinYMin meet" x="236" y="-244"/>
<text text-anchor="start" x="251" y="-235.2" font-family="Helvetica,sans-Serif" font-size="11.00">function</text>
<polygon fill="#ffffff" stroke="transparent" points="231,-205 231,-227 511,-227 511,-205 231,-205"/>
<polygon fill="none" stroke="black" points="231,-205 231,-227 511,-227 511,-205 231,-205"/>
<text text-anchor="start" x="251" y="-213.2" font-family="Helvetica,sans-Serif" font-size="11.00">identifier</text>
<polygon fill="none" stroke="black" points="231,-183 231,-205 511,-205 511,-183 231,-183"/>
<image xlink:href="../../images/foreignKeys.png" width="11px" height="12px" preserveAspectRatio="xMinYMin meet" x="236" y="-200"/>
<text text-anchor="start" x="251" y="-191.2" font-family="Helvetica,sans-Serif" font-size="11.00">renovation_necessity</text>
<polygon fill="#ffffff" stroke="transparent" points="231,-161 231,-183 511,-183 511,-161 231,-161"/>
<polygon fill="none" stroke="black" points="231,-161 231,-183 511,-183 511,-161 231,-161"/>
<text text-anchor="start" x="251" y="-169.2" font-family="Helvetica,sans-Serif" font-size="11.00">situation_geometry</text>
<polygon fill="#ffffff" stroke="transparent" points="231,-139 231,-161 511,-161 511,-139 231,-139"/>
<polygon fill="none" stroke="black" points="231,-139 231,-161 511,-161 511,-139 231,-139"/>
<image xlink:href="../../images/foreignKeys.png" width="11px" height="12px" preserveAspectRatio="xMinYMin meet" x="236" y="-156"/>
<text text-anchor="start" x="251" y="-147.2" font-family="Helvetica,sans-Serif" font-size="11.00">fk_dataowner</text>
<polygon fill="none" stroke="black" points="231,-117 231,-139 511,-139 511,-117 231,-117"/>
<image xlink:href="../../images/foreignKeys.png" width="11px" height="12px" preserveAspectRatio="xMinYMin meet" x="236" y="-134"/>
<text text-anchor="start" x="251" y="-125.2" font-family="Helvetica,sans-Serif" font-size="11.00">fk_provider</text>
<polygon fill="none" stroke="black" points="231,-95 231,-117 511,-117 511,-95 231,-95"/>
<image xlink:href="../../images/foreignKeys.png" width="11px" height="12px" preserveAspectRatio="xMinYMin meet" x="236" y="-112"/>
<text text-anchor="start" x="251" y="-103.2" font-family="Helvetica,sans-Serif" font-size="11.00">fk_disposal</text>
<polygon fill="none" stroke="black" points="231,-73 231,-95 511,-95 511,-73 231,-73"/>
<image xlink:href="../../images/foreignKeys.png" width="11px" height="12px" preserveAspectRatio="xMinYMin meet" x="236" y="-90"/>
<text text-anchor="start" x="251" y="-81.2" font-family="Helvetica,sans-Serif" font-size="11.00">fk_measure</text>
<polygon fill="none" stroke="black" points="231,-55 231,-73 511,-73 511,-55 231,-55"/>
<text text-anchor="start" x="234" y="-61.2" font-family="Helvetica,sans-Serif" font-size="11.00">...</text>
<polygon fill="#ffffff" stroke="transparent" points="231,-37 231,-55 511,-55 511,-37 231,-37"/>
<polygon fill="none" stroke="black" points="231,-37 231,-55 511,-55 511,-37 231,-37"/>
<polygon fill="#ffffff" stroke="transparent" points="232,-38 232,-54 334,-54 334,-38 232,-38"/>
<text text-anchor="start" x="234" y="-43.2" font-family="Helvetica,sans-Serif" font-size="11.00">&lt; 12</text>
<polygon fill="#ffffff" stroke="transparent" points="334,-38 334,-54 416,-54 416,-38 334,-38"/>
<text text-anchor="start" x="371" y="-43.2" font-family="Helvetica,sans-Serif" font-size="11.00"> &#160;</text>
<polygon fill="#ffffff" stroke="transparent" points="416,-38 416,-54 510,-54 510,-38 416,-38"/>
<text text-anchor="start" x="488" y="-43.2" font-family="Helvetica,sans-Serif" font-size="11.00">3 &gt;</text>
<polygon fill="black" stroke="black" points="334,-38 334,-54 334,-54 334,-38 334,-38"/>
<polygon fill="black" stroke="black" points="416,-38 416,-54 416,-54 416,-38 416,-38"/>
</a>
</g>
</g>
<!-- organisation -->
<g id="node2" class="node">
<title>organisation</title>
<g id="a_node2"><a xlink:href="../../tables/organisation.html" xlink:title="organisation" target="_top">
<polygon fill="#ffffff" stroke="transparent" points="8,-121 8,-333 182,-333 182,-121 8,-121"/>
<polygon fill="#f5f5f5" stroke="transparent" points="8,-311 8,-333 182,-333 182,-311 8,-311"/>
<polygon fill="none" stroke="black" points="8,-311 8,-333 182,-333 182,-311 8,-311"/>
<text text-anchor="start" x="13" y="-320.2" font-family="Helvetica,sans-Serif" font-weight="bold" font-size="11.00">organisation</text>
<text text-anchor="start" x="140" y="-319.2" font-family="Helvetica,sans-Serif" font-size="11.00">[table]</text>
<polygon fill="none" stroke="black" points="8,-289 8,-311 182,-311 182,-289 8,-289"/>
<image xlink:href="../../images/primaryKeys.png" width="11px" height="12px" preserveAspectRatio="xMinYMin meet" x="13" y="-306"/>
<text text-anchor="start" x="28" y="-297.2" font-family="Helvetica,sans-Serif" font-size="11.00">obj_id</text>
<polygon fill="#ffffff" stroke="transparent" points="8,-267 8,-289 182,-289 182,-267 8,-267"/>
<polygon fill="none" stroke="black" points="8,-267 8,-289 182,-289 182,-267 8,-267"/>
<text text-anchor="start" x="28" y="-275.2" font-family="Helvetica,sans-Serif" font-size="11.00">identifier</text>
<polygon fill="#ffffff" stroke="transparent" points="8,-245 8,-267 182,-267 182,-245 8,-245"/>
<polygon fill="none" stroke="black" points="8,-245 8,-267 182,-267 182,-245 8,-245"/>
<image xlink:href="../../images/foreignKeys.png" width="11px" height="12px" preserveAspectRatio="xMinYMin meet" x="13" y="-262"/>
<text text-anchor="start" x="28" y="-253.2" font-family="Helvetica,sans-Serif" font-size="11.00">organisation_type</text>
<polygon fill="none" stroke="black" points="8,-223 8,-245 182,-245 182,-223 8,-223"/>
<image xlink:href="../../images/foreignKeys.png" width="11px" height="12px" preserveAspectRatio="xMinYMin meet" x="13" y="-240"/>
<text text-anchor="start" x="28" y="-231.2" font-family="Helvetica,sans-Serif" font-size="11.00">status</text>
<polygon fill="#ffffff" stroke="transparent" points="8,-201 8,-223 182,-223 182,-201 8,-201"/>
<polygon fill="none" stroke="black" points="8,-201 8,-223 182,-223 182,-201 8,-201"/>
<text text-anchor="start" x="28" y="-209.2" font-family="Helvetica,sans-Serif" font-size="11.00">uid</text>
<polygon fill="none" stroke="black" points="8,-179 8,-201 182,-201 182,-179 8,-179"/>
<image xlink:href="../../images/foreignKeys.png" width="11px" height="12px" preserveAspectRatio="xMinYMin meet" x="13" y="-196"/>
<text text-anchor="start" x="28" y="-187.2" font-family="Helvetica,sans-Serif" font-size="11.00">fk_dataowner</text>
<polygon fill="none" stroke="black" points="8,-157 8,-179 182,-179 182,-157 8,-157"/>
<image xlink:href="../../images/foreignKeys.png" width="11px" height="12px" preserveAspectRatio="xMinYMin meet" x="13" y="-174"/>
<text text-anchor="start" x="28" y="-165.2" font-family="Helvetica,sans-Serif" font-size="11.00">fk_provider</text>
<polygon fill="none" stroke="black" points="8,-139 8,-157 182,-157 182,-139 8,-139"/>
<text text-anchor="start" x="11" y="-145.2" font-family="Helvetica,sans-Serif" font-size="11.00">...</text>
<polygon fill="#ffffff" stroke="transparent" points="8,-121 8,-139 182,-139 182,-121 8,-121"/>
<polygon fill="none" stroke="black" points="8,-121 8,-139 182,-139 182,-121 8,-121"/>
<polygon fill="#ffffff" stroke="transparent" points="9,-122 9,-138 66,-138 66,-122 9,-122"/>
<text text-anchor="start" x="11" y="-127.2" font-family="Helvetica,sans-Serif" font-size="11.00">&lt; 4</text>
<polygon fill="#ffffff" stroke="transparent" points="66,-122 66,-138 111,-138 111,-122 66,-122"/>
<text text-anchor="start" x="84.5" y="-127.2" font-family="Helvetica,sans-Serif" font-size="11.00"> &#160;</text>
<polygon fill="#ffffff" stroke="transparent" points="111,-122 111,-138 181,-138 181,-122 111,-122"/>
<text text-anchor="start" x="145" y="-127.2" font-family="Helvetica,sans-Serif" font-size="11.00">101 &gt;</text>
<polygon fill="black" stroke="black" points="66,-122 66,-138 66,-138 66,-122 66,-122"/>
<polygon fill="black" stroke="black" points="111,-122 111,-138 111,-138 111,-122 111,-122"/>
</a>
</g>
</g>
<!-- building_group&#45;&gt;organisation -->
<g id="edge1" class="edge">
<title>building_group:w&#45;&gt;organisation:e</title>
<path fill="none" stroke="black" d="M215.65,-153C174.57,-174.14 247,-300 183,-300"/>
<polygon fill="black" stroke="black" points="222.17,-151.63 230.74,-153.52 226.08,-150.82 230,-150 230,-150 230,-150 226.08,-150.82 229.26,-146.48 222.17,-151.63 222.17,-151.63"/>
<ellipse fill="none" stroke="black" cx="219.04" cy="-152.29" rx="3.2" ry="3.2"/>
</g>
<!-- building_group&#45;&gt;organisation -->
<g id="edge2" class="edge">
<title>building_group:w&#45;&gt;organisation:e</title>
<path fill="none" stroke="black" d="M215.66,-130.56C165.87,-151.96 256.52,-300 183,-300"/>
<polygon fill="black" stroke="black" points="222.13,-129.41 230.63,-131.54 226.06,-128.7 230,-128 230,-128 230,-128 226.06,-128.7 229.37,-124.46 222.13,-129.41 222.13,-129.41"/>
<ellipse fill="none" stroke="black" cx="218.98" cy="-129.97" rx="3.2" ry="3.2"/>
</g>
<!-- building_group_baugwr -->
<g id="node3" class="node">
<title>building_group_baugwr</title>
<g id="a_node3"><a xlink:href="../../tables/building_group_baugwr.html" xlink:title="building_group_baugwr" target="_top">
<polygon fill="#ffffff" stroke="transparent" points="560,-396 560,-572 855,-572 855,-396 560,-396"/>
<polygon fill="#f5f5f5" stroke="transparent" points="562.5,-548 562.5,-570 853.5,-570 853.5,-548 562.5,-548"/>
<polygon fill="none" stroke="black" points="562.5,-548 562.5,-570 853.5,-570 853.5,-548 562.5,-548"/>
<text text-anchor="start" x="567.5" y="-557.2" font-family="Helvetica,sans-Serif" font-weight="bold" font-size="11.00">building_group_baugwr</text>
<text text-anchor="start" x="811.5" y="-556.2" font-family="Helvetica,sans-Serif" font-size="11.00">[table]</text>
<polygon fill="none" stroke="black" points="562.5,-526 562.5,-548 754.5,-548 754.5,-526 562.5,-526"/>
<image xlink:href="../../images/primaryKeys.png" width="11px" height="12px" preserveAspectRatio="xMinYMin meet" x="567.5" y="-543"/>
<text text-anchor="start" x="582.5" y="-534.2" font-family="Helvetica,sans-Serif" font-size="11.00">obj_id</text>
<polygon fill="none" stroke="black" points="754.5,-526 754.5,-548 853.5,-548 853.5,-526 754.5,-526"/>
<text text-anchor="start" x="757.5" y="-534.2" font-family="Helvetica,sans-Serif" font-size="11.00">varchar[16]</text>
<polygon fill="none" stroke="black" points="562.5,-504 562.5,-526 754.5,-526 754.5,-504 562.5,-504"/>
<text text-anchor="start" x="582.5" y="-512.2" font-family="Helvetica,sans-Serif" font-size="11.00">egid</text>
<polygon fill="none" stroke="black" points="754.5,-504 754.5,-526 853.5,-526 853.5,-504 754.5,-504"/>
<text text-anchor="start" x="757.5" y="-512.2" font-family="Helvetica,sans-Serif" font-size="11.00">int4[10]</text>
<polygon fill="none" stroke="black" points="562.5,-482 562.5,-504 754.5,-504 754.5,-482 562.5,-482"/>
<text text-anchor="start" x="582.5" y="-490.2" font-family="Helvetica,sans-Serif" font-size="11.00">last_modification</text>
<polygon fill="none" stroke="black" points="754.5,-482 754.5,-504 853.5,-504 853.5,-482 754.5,-482"/>
<text text-anchor="start" x="757.5" y="-490.2" font-family="Helvetica,sans-Serif" font-size="11.00">timestamp[29,6]</text>
<polygon fill="none" stroke="black" points="562.5,-460 562.5,-482 754.5,-482 754.5,-460 562.5,-460"/>
<image xlink:href="../../images/foreignKeys.png" width="11px" height="12px" preserveAspectRatio="xMinYMin meet" x="567.5" y="-477"/>
<text text-anchor="start" x="582.5" y="-468.2" font-family="Helvetica,sans-Serif" font-size="11.00">fk_dataowner</text>
<polygon fill="none" stroke="black" points="754.5,-460 754.5,-482 853.5,-482 853.5,-460 754.5,-460"/>
<text text-anchor="start" x="757.5" y="-468.2" font-family="Helvetica,sans-Serif" font-size="11.00">varchar[16]</text>
<polygon fill="none" stroke="black" points="562.5,-438 562.5,-460 754.5,-460 754.5,-438 562.5,-438"/>
<image xlink:href="../../images/foreignKeys.png" width="11px" height="12px" preserveAspectRatio="xMinYMin meet" x="567.5" y="-455"/>
<text text-anchor="start" x="582.5" y="-446.2" font-family="Helvetica,sans-Serif" font-size="11.00">fk_provider</text>
<polygon fill="none" stroke="black" points="754.5,-438 754.5,-460 853.5,-460 853.5,-438 754.5,-438"/>
<text text-anchor="start" x="757.5" y="-446.2" font-family="Helvetica,sans-Serif" font-size="11.00">varchar[16]</text>
<polygon fill="none" stroke="black" points="562.5,-416 562.5,-438 754.5,-438 754.5,-416 562.5,-416"/>
<image xlink:href="../../images/foreignKeys.png" width="11px" height="12px" preserveAspectRatio="xMinYMin meet" x="567.5" y="-433"/>
<text text-anchor="start" x="582.5" y="-424.2" font-family="Helvetica,sans-Serif" font-size="11.00">fk_building_group</text>
<polygon fill="none" stroke="black" points="754.5,-416 754.5,-438 853.5,-438 853.5,-416 754.5,-416"/>
<text text-anchor="start" x="757.5" y="-424.2" font-family="Helvetica,sans-Serif" font-size="11.00">varchar[16]</text>
<polygon fill="#ffffff" stroke="transparent" points="562.5,-398 562.5,-416 853.5,-416 853.5,-398 562.5,-398"/>
<polygon fill="none" stroke="black" points="562.5,-398 562.5,-416 853.5,-416 853.5,-398 562.5,-398"/>
<polygon fill="#ffffff" stroke="transparent" points="563.5,-399 563.5,-415 664.5,-415 664.5,-399 563.5,-399"/>
<text text-anchor="start" x="565.5" y="-404.2" font-family="Helvetica,sans-Serif" font-size="11.00">&lt; 3</text>
<polygon fill="#ffffff" stroke="transparent" points="664.5,-399 664.5,-415 752.5,-415 752.5,-399 664.5,-399"/>
<text text-anchor="start" x="704.5" y="-404.2" font-family="Helvetica,sans-Serif" font-size="11.00"> &#160;</text>
<polygon fill="#ffffff" stroke="transparent" points="752.5,-399 752.5,-415 852.5,-415 852.5,-399 752.5,-399"/>
<text text-anchor="start" x="830.5" y="-404.2" font-family="Helvetica,sans-Serif" font-size="11.00">0 &gt;</text>
<polygon fill="black" stroke="black" points="664.5,-399 664.5,-415 664.5,-415 664.5,-399 664.5,-399"/>
<polygon fill="black" stroke="black" points="752.5,-399 752.5,-415 752.5,-415 752.5,-399 752.5,-399"/>
<polygon fill="none" stroke="black" stroke-width="2" points="561,-397 561,-571 854,-571 854,-397 561,-397"/>
</a>
</g>
</g>
<!-- building_group_baugwr&#45;&gt;building_group -->
<g id="edge3" class="edge">
<title>building_group_baugwr:w&#45;&gt;building_group:e</title>
<path fill="none" stroke="black" d="M547.66,-422.71C534.98,-413.36 533.05,-392 512,-392"/>
<polygon fill="black" stroke="black" points="553.86,-424.63 560.43,-430.44 557.68,-425.82 561.5,-427 561.5,-427 561.5,-427 557.68,-425.82 562.57,-423.56 553.86,-424.63 553.86,-424.63"/>
<ellipse fill="none" stroke="black" cx="550.8" cy="-423.68" rx="3.2" ry="3.2"/>
</g>
<!-- building_group_baugwr&#45;&gt;organisation -->
<g id="edge4" class="edge">
<title>building_group_baugwr:w&#45;&gt;organisation:e</title>
<path fill="none" stroke="black" d="M546.76,-471.26C406.2,-476.29 336.18,-550.5 223,-459 166.33,-413.19 255.87,-300 183,-300"/>
<polygon fill="black" stroke="black" points="553.5,-471.14 561.56,-474.6 557.5,-471.07 561.5,-471 561.5,-471 561.5,-471 557.5,-471.07 561.44,-467.4 553.5,-471.14 553.5,-471.14"/>
<ellipse fill="none" stroke="black" cx="550.3" cy="-471.2" rx="3.2" ry="3.2"/>
</g>
<!-- building_group_baugwr&#45;&gt;organisation -->
<g id="edge5" class="edge">
<title>building_group_baugwr:w&#45;&gt;organisation:e</title>
<path fill="none" stroke="black" d="M546.92,-449.2C479.04,-450.49 250.15,-457.14 223,-436 173.29,-397.29 246,-300 183,-300"/>
<polygon fill="black" stroke="black" points="553.5,-449.11 561.55,-452.6 557.5,-449.05 561.5,-449 561.5,-449 561.5,-449 557.5,-449.05 561.45,-445.4 553.5,-449.11 553.5,-449.11"/>
<ellipse fill="none" stroke="black" cx="550.3" cy="-449.15" rx="3.2" ry="3.2"/>
</g>
</g>
</svg>
