<?xml version="1.0" encoding="UTF-8" standalone="no"?>
<!DOCTYPE svg PUBLIC "-//W3C//DTD SVG 1.1//EN"
 "http://www.w3.org/Graphics/SVG/1.1/DTD/svg11.dtd">
<!-- Generated by graphviz version 2.47.1 (20210515.0534)
 -->
<!-- Title: oneDegreeRelationshipsDiagram Pages: 1 -->
<svg width="859pt" height="692pt"
 viewBox="0.00 0.00 859.00 692.00" xmlns="http://www.w3.org/2000/svg" xmlns:xlink="http://www.w3.org/1999/xlink">
<g id="graph0" class="graph" transform="scale(1 1) rotate(0) translate(4 688)">
<title>oneDegreeRelationshipsDiagram</title>
<polygon fill="#ffffff" stroke="transparent" points="-4,4 -4,-688 855,-688 855,4 -4,4"/>
<text text-anchor="middle" x="73.5" y="-7.2" font-family="Helvetica,sans-Serif" font-size="11.00">Generated by SchemaSpy</text>
<!-- catchment_area_totals -->
<g id="node1" class="node">
<title>catchment_area_totals</title>
<g id="a_node1"><a xlink:href="../../tables/catchment_area_totals.html" xlink:title="catchment_area_totals" target="_top">
<polygon fill="#ffffff" stroke="transparent" points="654,-235 654,-425 843,-425 843,-235 654,-235"/>
<polygon fill="#f5f5f5" stroke="transparent" points="654.5,-403 654.5,-425 843.5,-425 843.5,-403 654.5,-403"/>
<polygon fill="none" stroke="black" points="654.5,-403 654.5,-425 843.5,-425 843.5,-403 654.5,-403"/>
<text text-anchor="start" x="659.5" y="-412.2" font-family="Helvetica,sans-Serif" font-weight="bold" font-size="11.00">catchment_area_totals</text>
<text text-anchor="start" x="804.5" y="-411.2" font-family="Helvetica,sans-Serif" font-size="11.00">[table]</text>
<polygon fill="none" stroke="black" points="654.5,-381 654.5,-403 843.5,-403 843.5,-381 654.5,-381"/>
<image xlink:href="../../images/primaryKeys.png" width="11px" height="12px" preserveAspectRatio="xMinYMin meet" x="659.5" y="-398"/>
<text text-anchor="start" x="674.5" y="-389.2" font-family="Helvetica,sans-Serif" font-size="11.00">obj_id</text>
<polygon fill="#ffffff" stroke="transparent" points="654.5,-359 654.5,-381 843.5,-381 843.5,-359 654.5,-359"/>
<polygon fill="none" stroke="black" points="654.5,-359 654.5,-381 843.5,-381 843.5,-359 654.5,-359"/>
<text text-anchor="start" x="674.5" y="-367.2" font-family="Helvetica,sans-Serif" font-size="11.00">identifier</text>
<polygon fill="#ffffff" stroke="transparent" points="654.5,-337 654.5,-359 843.5,-359 843.5,-337 654.5,-337"/>
<polygon fill="none" stroke="black" points="654.5,-337 654.5,-359 843.5,-359 843.5,-337 654.5,-337"/>
<image xlink:href="../../images/foreignKeys.png" width="11px" height="12px" preserveAspectRatio="xMinYMin meet" x="659.5" y="-354"/>
<text text-anchor="start" x="674.5" y="-345.2" font-family="Helvetica,sans-Serif" font-size="11.00">fk_dataowner</text>
<polygon fill="none" stroke="black" points="654.5,-315 654.5,-337 843.5,-337 843.5,-315 654.5,-315"/>
<image xlink:href="../../images/foreignKeys.png" width="11px" height="12px" preserveAspectRatio="xMinYMin meet" x="659.5" y="-332"/>
<text text-anchor="start" x="674.5" y="-323.2" font-family="Helvetica,sans-Serif" font-size="11.00">fk_provider</text>
<polygon fill="none" stroke="black" points="654.5,-293 654.5,-315 843.5,-315 843.5,-293 654.5,-293"/>
<image xlink:href="../../images/foreignKeys.png" width="11px" height="12px" preserveAspectRatio="xMinYMin meet" x="659.5" y="-310"/>
<text text-anchor="start" x="674.5" y="-301.2" font-family="Helvetica,sans-Serif" font-size="11.00">fk_discharge_point</text>
<polygon fill="none" stroke="black" points="654.5,-271 654.5,-293 843.5,-293 843.5,-271 654.5,-271"/>
<image xlink:href="../../images/foreignKeys.png" width="11px" height="12px" preserveAspectRatio="xMinYMin meet" x="659.5" y="-288"/>
<text text-anchor="start" x="674.5" y="-279.2" font-family="Helvetica,sans-Serif" font-size="11.00">fk_hydraulic_char_data</text>
<polygon fill="none" stroke="black" points="654.5,-253 654.5,-271 843.5,-271 843.5,-253 654.5,-253"/>
<text text-anchor="start" x="657.5" y="-259.2" font-family="Helvetica,sans-Serif" font-size="11.00">...</text>
<polygon fill="#ffffff" stroke="transparent" points="654.5,-235 654.5,-253 746.5,-253 746.5,-235 654.5,-235"/>
<polygon fill="none" stroke="black" points="654.5,-235 654.5,-253 746.5,-253 746.5,-235 654.5,-235"/>
<text text-anchor="start" x="657.5" y="-241.2" font-family="Helvetica,sans-Serif" font-size="11.00">&lt; 4</text>
<polygon fill="#ffffff" stroke="transparent" points="746.5,-235 746.5,-253 794.5,-253 794.5,-235 746.5,-235"/>
<polygon fill="none" stroke="black" points="746.5,-235 746.5,-253 794.5,-253 794.5,-235 746.5,-235"/>
<text text-anchor="start" x="784.5" y="-241.2" font-family="Helvetica,sans-Serif" font-size="11.00"> &#160;</text>
<polygon fill="#ffffff" stroke="transparent" points="794.5,-235 794.5,-253 843.5,-253 843.5,-235 794.5,-235"/>
<polygon fill="none" stroke="black" points="794.5,-235 794.5,-253 843.5,-253 843.5,-235 794.5,-235"/>
<text text-anchor="start" x="833.5" y="-241.2" font-family="Helvetica,sans-Serif" font-size="11.00"> &#160;</text>
</a>
</g>
</g>
<!-- discharge_point -->
<g id="node2" class="node">
<title>discharge_point</title>
<g id="a_node2"><a xlink:href="../../tables/discharge_point.html" xlink:title="discharge_point" target="_top">
<polygon fill="#ffffff" stroke="transparent" points="303,-184 303,-404 605,-404 605,-184 303,-184"/>
<polygon fill="#f5f5f5" stroke="transparent" points="305,-380 305,-402 603,-402 603,-380 305,-380"/>
<polygon fill="none" stroke="black" points="305,-380 305,-402 603,-402 603,-380 305,-380"/>
<text text-anchor="start" x="310" y="-389.2" font-family="Helvetica,sans-Serif" font-weight="bold" font-size="11.00">discharge_point</text>
<text text-anchor="start" x="564" y="-388.2" font-family="Helvetica,sans-Serif" font-size="11.00">[table]</text>
<polygon fill="none" stroke="black" points="305,-358 305,-380 509,-380 509,-358 305,-358"/>
<image xlink:href="../../images/primaryKeys.png" width="11px" height="12px" preserveAspectRatio="xMinYMin meet" x="310" y="-375"/>
<text text-anchor="start" x="325" y="-366.2" font-family="Helvetica,sans-Serif" font-size="11.00">obj_id</text>
<polygon fill="none" stroke="black" points="509,-358 509,-380 603,-380 603,-358 509,-358"/>
<text text-anchor="start" x="512" y="-366.2" font-family="Helvetica,sans-Serif" font-size="11.00">varchar[16]</text>
<polygon fill="none" stroke="black" points="305,-336 305,-358 509,-358 509,-336 305,-336"/>
<text text-anchor="start" x="325" y="-344.2" font-family="Helvetica,sans-Serif" font-size="11.00">highwater_level</text>
<polygon fill="none" stroke="black" points="509,-336 509,-358 603,-358 603,-336 509,-336"/>
<text text-anchor="start" x="512" y="-344.2" font-family="Helvetica,sans-Serif" font-size="11.00">numeric[7,3]</text>
<polygon fill="none" stroke="black" points="305,-314 305,-336 509,-336 509,-314 305,-314"/>
<image xlink:href="../../images/foreignKeys.png" width="11px" height="12px" preserveAspectRatio="xMinYMin meet" x="310" y="-331"/>
<text text-anchor="start" x="325" y="-322.2" font-family="Helvetica,sans-Serif" font-size="11.00">relevance</text>
<polygon fill="none" stroke="black" points="509,-314 509,-336 603,-336 603,-314 509,-314"/>
<text text-anchor="start" x="512" y="-322.2" font-family="Helvetica,sans-Serif" font-size="11.00">int4[10]</text>
<polygon fill="none" stroke="black" points="305,-292 305,-314 509,-314 509,-292 305,-292"/>
<text text-anchor="start" x="325" y="-300.2" font-family="Helvetica,sans-Serif" font-size="11.00">terrain_level</text>
<polygon fill="none" stroke="black" points="509,-292 509,-314 603,-314 603,-292 509,-292"/>
<text text-anchor="start" x="512" y="-300.2" font-family="Helvetica,sans-Serif" font-size="11.00">numeric[7,3]</text>
<polygon fill="none" stroke="black" points="305,-270 305,-292 509,-292 509,-270 305,-270"/>
<text text-anchor="start" x="325" y="-278.2" font-family="Helvetica,sans-Serif" font-size="11.00">upper_elevation</text>
<polygon fill="none" stroke="black" points="509,-270 509,-292 603,-292 603,-270 509,-270"/>
<text text-anchor="start" x="512" y="-278.2" font-family="Helvetica,sans-Serif" font-size="11.00">numeric[7,3]</text>
<polygon fill="none" stroke="black" points="305,-248 305,-270 509,-270 509,-248 305,-248"/>
<text text-anchor="start" x="325" y="-256.2" font-family="Helvetica,sans-Serif" font-size="11.00">water_course_number</text>
<polygon fill="none" stroke="black" points="509,-248 509,-270 603,-270 603,-248 509,-248"/>
<text text-anchor="start" x="512" y="-256.2" font-family="Helvetica,sans-Serif" font-size="11.00">text[2147483647]</text>
<polygon fill="none" stroke="black" points="305,-226 305,-248 509,-248 509,-226 305,-226"/>
<text text-anchor="start" x="325" y="-234.2" font-family="Helvetica,sans-Serif" font-size="11.00">water_course_segment_canton</text>
<polygon fill="none" stroke="black" points="509,-226 509,-248 603,-248 603,-226 509,-226"/>
<text text-anchor="start" x="512" y="-234.2" font-family="Helvetica,sans-Serif" font-size="11.00">text[2147483647]</text>
<polygon fill="none" stroke="black" points="305,-204 305,-226 509,-226 509,-204 305,-204"/>
<text text-anchor="start" x="325" y="-212.2" font-family="Helvetica,sans-Serif" font-size="11.00">waterlevel_hydraulic</text>
<polygon fill="none" stroke="black" points="509,-204 509,-226 603,-226 603,-204 509,-204"/>
<text text-anchor="start" x="512" y="-212.2" font-family="Helvetica,sans-Serif" font-size="11.00">numeric[7,3]</text>
<polygon fill="#ffffff" stroke="transparent" points="305,-186 305,-204 411,-204 411,-186 305,-186"/>
<polygon fill="none" stroke="black" points="305,-186 305,-204 411,-204 411,-186 305,-186"/>
<text text-anchor="start" x="308" y="-192.2" font-family="Helvetica,sans-Serif" font-size="11.00">&lt; 2</text>
<polygon fill="#ffffff" stroke="transparent" points="411,-186 411,-204 509,-204 509,-186 411,-186"/>
<polygon fill="none" stroke="black" points="411,-186 411,-204 509,-204 509,-186 411,-186"/>
<text text-anchor="start" x="499" y="-192.2" font-family="Helvetica,sans-Serif" font-size="11.00"> &#160;</text>
<polygon fill="#ffffff" stroke="transparent" points="509,-186 509,-204 603,-204 603,-186 509,-186"/>
<polygon fill="none" stroke="black" points="509,-186 509,-204 603,-204 603,-186 509,-186"/>
<text text-anchor="start" x="584" y="-192.2" font-family="Helvetica,sans-Serif" font-size="11.00">2 &gt;</text>
<polygon fill="none" stroke="black" stroke-width="2" points="304,-185 304,-403 604,-403 604,-185 304,-185"/>
</a>
</g>
</g>
<!-- catchment_area_totals&#45;&gt;discharge_point -->
<g id="edge1" class="edge">
<title>catchment_area_totals:w&#45;&gt;discharge_point:e</title>
<path fill="none" stroke="black" d="M639.44,-309.1C623.38,-324.42 634.07,-369 604,-369"/>
<polygon fill="black" stroke="black" points="645.98,-306.73 654.73,-307.38 649.74,-305.36 653.5,-304 653.5,-304 653.5,-304 649.74,-305.36 652.27,-300.62 645.98,-306.73 645.98,-306.73"/>
<ellipse fill="none" stroke="black" cx="642.97" cy="-307.82" rx="3.2" ry="3.2"/>
</g>
<!-- wastewater_structure -->
<g id="node3" class="node">
<title>wastewater_structure</title>
<g id="a_node3"><a xlink:href="../../tables/wastewater_structure.html" xlink:title="wastewater_structure" target="_top">
<polygon fill="#ffffff" stroke="transparent" points="33.5,-116 33.5,-526 228.5,-526 228.5,-116 33.5,-116"/>
<polygon fill="#f5f5f5" stroke="transparent" points="34,-504 34,-526 229,-526 229,-504 34,-504"/>
<polygon fill="none" stroke="black" points="34,-504 34,-526 229,-526 229,-504 34,-504"/>
<text text-anchor="start" x="39" y="-513.2" font-family="Helvetica,sans-Serif" font-weight="bold" font-size="11.00">wastewater_structure</text>
<text text-anchor="start" x="190" y="-512.2" font-family="Helvetica,sans-Serif" font-size="11.00">[table]</text>
<polygon fill="none" stroke="black" points="34,-482 34,-504 229,-504 229,-482 34,-482"/>
<image xlink:href="../../images/primaryKeys.png" width="11px" height="12px" preserveAspectRatio="xMinYMin meet" x="39" y="-499"/>
<text text-anchor="start" x="54" y="-490.2" font-family="Helvetica,sans-Serif" font-size="11.00">obj_id</text>
<polygon fill="none" stroke="black" points="34,-460 34,-482 229,-482 229,-460 34,-460"/>
<image xlink:href="../../images/foreignKeys.png" width="11px" height="12px" preserveAspectRatio="xMinYMin meet" x="39" y="-477"/>
<text text-anchor="start" x="54" y="-468.2" font-family="Helvetica,sans-Serif" font-size="11.00">accessibility</text>
<polygon fill="#ffffff" stroke="transparent" points="34,-438 34,-460 229,-460 229,-438 34,-438"/>
<polygon fill="none" stroke="black" points="34,-438 34,-460 229,-460 229,-438 34,-438"/>
<text text-anchor="start" x="54" y="-446.2" font-family="Helvetica,sans-Serif" font-size="11.00">detail_geometry3d_geometry</text>
<polygon fill="none" stroke="black" points="34,-416 34,-438 229,-438 229,-416 34,-416"/>
<image xlink:href="../../images/foreignKeys.png" width="11px" height="12px" preserveAspectRatio="xMinYMin meet" x="39" y="-433"/>
<text text-anchor="start" x="54" y="-424.2" font-family="Helvetica,sans-Serif" font-size="11.00">elevation_determination</text>
<polygon fill="none" stroke="black" points="34,-394 34,-416 229,-416 229,-394 34,-394"/>
<image xlink:href="../../images/foreignKeys.png" width="11px" height="12px" preserveAspectRatio="xMinYMin meet" x="39" y="-411"/>
<text text-anchor="start" x="54" y="-402.2" font-family="Helvetica,sans-Serif" font-size="11.00">financing</text>
<polygon fill="#ffffff" stroke="transparent" points="34,-372 34,-394 229,-394 229,-372 34,-372"/>
<polygon fill="none" stroke="black" points="34,-372 34,-394 229,-394 229,-372 34,-372"/>
<text text-anchor="start" x="54" y="-380.2" font-family="Helvetica,sans-Serif" font-size="11.00">identifier</text>
<polygon fill="none" stroke="black" points="34,-350 34,-372 229,-372 229,-350 34,-350"/>
<image xlink:href="../../images/foreignKeys.png" width="11px" height="12px" preserveAspectRatio="xMinYMin meet" x="39" y="-367"/>
<text text-anchor="start" x="54" y="-358.2" font-family="Helvetica,sans-Serif" font-size="11.00">renovation_necessity</text>
<polygon fill="none" stroke="black" points="34,-328 34,-350 229,-350 229,-328 34,-328"/>
<image xlink:href="../../images/foreignKeys.png" width="11px" height="12px" preserveAspectRatio="xMinYMin meet" x="39" y="-345"/>
<text text-anchor="start" x="54" y="-336.2" font-family="Helvetica,sans-Serif" font-size="11.00">rv_construction_type</text>
<polygon fill="none" stroke="black" points="34,-306 34,-328 229,-328 229,-306 34,-306"/>
<image xlink:href="../../images/foreignKeys.png" width="11px" height="12px" preserveAspectRatio="xMinYMin meet" x="39" y="-323"/>
<text text-anchor="start" x="54" y="-314.2" font-family="Helvetica,sans-Serif" font-size="11.00">status</text>
<polygon fill="none" stroke="black" points="34,-284 34,-306 229,-306 229,-284 34,-284"/>
<image xlink:href="../../images/foreignKeys.png" width="11px" height="12px" preserveAspectRatio="xMinYMin meet" x="39" y="-301"/>
<text text-anchor="start" x="54" y="-292.2" font-family="Helvetica,sans-Serif" font-size="11.00">structure_condition</text>
<polygon fill="#ffffff" stroke="transparent" points="34,-262 34,-284 229,-284 229,-262 34,-262"/>
<polygon fill="none" stroke="black" points="34,-262 34,-284 229,-284 229,-262 34,-262"/>
<image xlink:href="../../images/foreignKeys.png" width="11px" height="12px" preserveAspectRatio="xMinYMin meet" x="39" y="-279"/>
<text text-anchor="start" x="54" y="-270.2" font-family="Helvetica,sans-Serif" font-size="11.00">fk_dataowner</text>
<polygon fill="none" stroke="black" points="34,-240 34,-262 229,-262 229,-240 34,-240"/>
<image xlink:href="../../images/foreignKeys.png" width="11px" height="12px" preserveAspectRatio="xMinYMin meet" x="39" y="-257"/>
<text text-anchor="start" x="54" y="-248.2" font-family="Helvetica,sans-Serif" font-size="11.00">fk_provider</text>
<polygon fill="none" stroke="black" points="34,-218 34,-240 229,-240 229,-218 34,-218"/>
<image xlink:href="../../images/foreignKeys.png" width="11px" height="12px" preserveAspectRatio="xMinYMin meet" x="39" y="-235"/>
<text text-anchor="start" x="54" y="-226.2" font-family="Helvetica,sans-Serif" font-size="11.00">fk_owner</text>
<polygon fill="none" stroke="black" points="34,-196 34,-218 229,-218 229,-196 34,-196"/>
<image xlink:href="../../images/foreignKeys.png" width="11px" height="12px" preserveAspectRatio="xMinYMin meet" x="39" y="-213"/>
<text text-anchor="start" x="54" y="-204.2" font-family="Helvetica,sans-Serif" font-size="11.00">fk_operator</text>
<polygon fill="none" stroke="black" points="34,-174 34,-196 229,-196 229,-174 34,-174"/>
<image xlink:href="../../images/foreignKeys.png" width="11px" height="12px" preserveAspectRatio="xMinYMin meet" x="39" y="-191"/>
<text text-anchor="start" x="54" y="-182.2" font-family="Helvetica,sans-Serif" font-size="11.00">fk_main_cover</text>
<polygon fill="none" stroke="black" points="34,-152 34,-174 229,-174 229,-152 34,-152"/>
<image xlink:href="../../images/foreignKeys.png" width="11px" height="12px" preserveAspectRatio="xMinYMin meet" x="39" y="-169"/>
<text text-anchor="start" x="54" y="-160.2" font-family="Helvetica,sans-Serif" font-size="11.00">fk_main_wastewater_node</text>
<polygon fill="none" stroke="black" points="34,-134 34,-152 229,-152 229,-134 34,-134"/>
<text text-anchor="start" x="37" y="-140.2" font-family="Helvetica,sans-Serif" font-size="11.00">...</text>
<polygon fill="#ffffff" stroke="transparent" points="34,-116 34,-134 125,-134 125,-116 34,-116"/>
<polygon fill="none" stroke="black" points="34,-116 34,-134 125,-134 125,-116 34,-116"/>
<text text-anchor="start" x="37" y="-122.2" font-family="Helvetica,sans-Serif" font-size="11.00">&lt; 13</text>
<polygon fill="#ffffff" stroke="transparent" points="125,-116 125,-134 169,-134 169,-116 125,-116"/>
<polygon fill="none" stroke="black" points="125,-116 125,-134 169,-134 169,-116 125,-116"/>
<text text-anchor="start" x="159" y="-122.2" font-family="Helvetica,sans-Serif" font-size="11.00"> &#160;</text>
<polygon fill="#ffffff" stroke="transparent" points="169,-116 169,-134 229,-134 229,-116 169,-116"/>
<polygon fill="none" stroke="black" points="169,-116 169,-134 229,-134 229,-116 169,-116"/>
<text text-anchor="start" x="204" y="-122.2" font-family="Helvetica,sans-Serif" font-size="11.00">16 &gt;</text>
</a>
</g>
</g>
<!-- discharge_point&#45;&gt;wastewater_structure -->
<g id="edge2" class="edge">
<title>discharge_point:w&#45;&gt;wastewater_structure:e</title>
<path fill="none" stroke="black" d="M293.59,-370.31C245.97,-383.56 290.29,-493 230,-493"/>
<polygon fill="black" stroke="black" points="302.71,-365.13 303.71,-373.07 302.12,-373.27 301.12,-365.33 302.71,-365.13"/>
<polyline fill="none" stroke="black" points="304,-369 300.03,-369.5 "/>
<ellipse fill="none" stroke="black" cx="296.86" cy="-369.9" rx="3.2" ry="3.2"/>
</g>
<!-- tww_vl.discharge_point_relevance -->
<g id="node4" class="node">
<title>tww_vl.discharge_point_relevance</title>
<g id="a_node4"><a xlink:href="../../../tww_vl/tables/discharge_point_relevance.html" xlink:title="tww_vl.discharge_point_relevance" target="_top">
<polygon fill="#ffffff" stroke="transparent" points="8,-37 8,-95 254,-95 254,-37 8,-37"/>
<polygon fill="#f5f5f5" stroke="transparent" points="8,-73 8,-95 254,-95 254,-73 8,-73"/>
<polygon fill="none" stroke="black" points="8,-73 8,-95 254,-95 254,-73 8,-73"/>
<text text-anchor="start" x="13" y="-82.2" font-family="Helvetica,sans-Serif" font-weight="bold" font-size="11.00">tww_vl.discharge_point_relevance</text>
<text text-anchor="start" x="215" y="-81.2" font-family="Helvetica,sans-Serif" font-size="11.00">[table]</text>
<polygon fill="none" stroke="black" points="8,-55 8,-73 254,-73 254,-55 8,-55"/>
<text text-anchor="start" x="11" y="-61.2" font-family="Helvetica,sans-Serif" font-size="11.00">...</text>
<polygon fill="#ffffff" stroke="transparent" points="8,-37 8,-55 106,-55 106,-37 8,-37"/>
<polygon fill="none" stroke="black" points="8,-37 8,-55 106,-55 106,-37 8,-37"/>
<text text-anchor="start" x="11" y="-43.2" font-family="Helvetica,sans-Serif" font-size="11.00"> &#160;</text>
<polygon fill="#ffffff" stroke="transparent" points="106,-37 106,-55 189,-55 189,-37 106,-37"/>
<polygon fill="none" stroke="black" points="106,-37 106,-55 189,-55 189,-37 106,-37"/>
<text text-anchor="start" x="152" y="-43.2" font-family="Helvetica,sans-Serif" font-size="11.00">0 rows</text>
<polygon fill="#ffffff" stroke="transparent" points="189,-37 189,-55 254,-55 254,-37 189,-37"/>
<polygon fill="none" stroke="black" points="189,-37 189,-55 254,-55 254,-37 189,-37"/>
<text text-anchor="start" x="235" y="-43.2" font-family="Helvetica,sans-Serif" font-size="11.00">1 &gt;</text>
</a>
</g>
</g>
<!-- discharge_point&#45;&gt;tww_vl.discharge_point_relevance -->
<g id="edge3" class="edge">
<title>discharge_point:w&#45;&gt;tww_vl.discharge_point_relevance:e</title>
<path fill="none" stroke="black" d="M289.61,-323.72C217.47,-309.24 325.03,-174.87 262,-105 260.11,-102.9 258.1,-100.91 256.01,-99.03"/>
<polygon fill="black" stroke="black" points="296.03,-324.29 303.68,-328.59 300.02,-324.65 304,-325 304,-325 304,-325 300.02,-324.65 304.32,-321.41 296.03,-324.29 296.03,-324.29"/>
<ellipse fill="none" stroke="black" cx="292.84" cy="-324.01" rx="3.2" ry="3.2"/>
</g>
<!-- disposal -->
<g id="node5" class="node">
<title>disposal</title>
<g id="a_node5"><a xlink:href="../../tables/disposal.html" xlink:title="disposal" target="_top">
<polygon fill="#ffffff" stroke="transparent" points="660,-446 660,-680 837,-680 837,-446 660,-446"/>
<polygon fill="#f5f5f5" stroke="transparent" points="660.5,-658 660.5,-680 837.5,-680 837.5,-658 660.5,-658"/>
<polygon fill="none" stroke="black" points="660.5,-658 660.5,-680 837.5,-680 837.5,-658 660.5,-658"/>
<text text-anchor="start" x="665.5" y="-667.2" font-family="Helvetica,sans-Serif" font-weight="bold" font-size="11.00">disposal</text>
<text text-anchor="start" x="798.5" y="-666.2" font-family="Helvetica,sans-Serif" font-size="11.00">[table]</text>
<polygon fill="none" stroke="black" points="660.5,-636 660.5,-658 837.5,-658 837.5,-636 660.5,-636"/>
<image xlink:href="../../images/primaryKeys.png" width="11px" height="12px" preserveAspectRatio="xMinYMin meet" x="665.5" y="-653"/>
<text text-anchor="start" x="680.5" y="-644.2" font-family="Helvetica,sans-Serif" font-size="11.00">obj_id</text>
<polygon fill="none" stroke="black" points="660.5,-614 660.5,-636 837.5,-636 837.5,-614 660.5,-614"/>
<image xlink:href="../../images/foreignKeys.png" width="11px" height="12px" preserveAspectRatio="xMinYMin meet" x="665.5" y="-631"/>
<text text-anchor="start" x="680.5" y="-622.2" font-family="Helvetica,sans-Serif" font-size="11.00">disposal_place_current</text>
<polygon fill="none" stroke="black" points="660.5,-592 660.5,-614 837.5,-614 837.5,-592 660.5,-592"/>
<image xlink:href="../../images/foreignKeys.png" width="11px" height="12px" preserveAspectRatio="xMinYMin meet" x="665.5" y="-609"/>
<text text-anchor="start" x="680.5" y="-600.2" font-family="Helvetica,sans-Serif" font-size="11.00">disposal_place_planned</text>
<polygon fill="none" stroke="black" points="660.5,-570 660.5,-592 837.5,-592 837.5,-570 660.5,-570"/>
<image xlink:href="../../images/foreignKeys.png" width="11px" height="12px" preserveAspectRatio="xMinYMin meet" x="665.5" y="-587"/>
<text text-anchor="start" x="680.5" y="-578.2" font-family="Helvetica,sans-Serif" font-size="11.00">fk_dataowner</text>
<polygon fill="none" stroke="black" points="660.5,-548 660.5,-570 837.5,-570 837.5,-548 660.5,-548"/>
<image xlink:href="../../images/foreignKeys.png" width="11px" height="12px" preserveAspectRatio="xMinYMin meet" x="665.5" y="-565"/>
<text text-anchor="start" x="680.5" y="-556.2" font-family="Helvetica,sans-Serif" font-size="11.00">fk_provider</text>
<polygon fill="none" stroke="black" points="660.5,-526 660.5,-548 837.5,-548 837.5,-526 660.5,-526"/>
<image xlink:href="../../images/foreignKeys.png" width="11px" height="12px" preserveAspectRatio="xMinYMin meet" x="665.5" y="-543"/>
<text text-anchor="start" x="680.5" y="-534.2" font-family="Helvetica,sans-Serif" font-size="11.00">fk_infiltration_installation</text>
<polygon fill="none" stroke="black" points="660.5,-504 660.5,-526 837.5,-526 837.5,-504 660.5,-504"/>
<image xlink:href="../../images/foreignKeys.png" width="11px" height="12px" preserveAspectRatio="xMinYMin meet" x="665.5" y="-521"/>
<text text-anchor="start" x="680.5" y="-512.2" font-family="Helvetica,sans-Serif" font-size="11.00">fk_discharge_point</text>
<polygon fill="none" stroke="black" points="660.5,-482 660.5,-504 837.5,-504 837.5,-482 660.5,-482"/>
<image xlink:href="../../images/foreignKeys.png" width="11px" height="12px" preserveAspectRatio="xMinYMin meet" x="665.5" y="-499"/>
<text text-anchor="start" x="680.5" y="-490.2" font-family="Helvetica,sans-Serif" font-size="11.00">fk_wastewater_structure</text>
<polygon fill="none" stroke="black" points="660.5,-464 660.5,-482 837.5,-482 837.5,-464 660.5,-464"/>
<text text-anchor="start" x="663.5" y="-470.2" font-family="Helvetica,sans-Serif" font-size="11.00">...</text>
<polygon fill="#ffffff" stroke="transparent" points="660.5,-446 660.5,-464 742.5,-464 742.5,-446 660.5,-446"/>
<polygon fill="none" stroke="black" points="660.5,-446 660.5,-464 742.5,-464 742.5,-446 660.5,-446"/>
<text text-anchor="start" x="663.5" y="-452.2" font-family="Helvetica,sans-Serif" font-size="11.00">&lt; 7</text>
<polygon fill="#ffffff" stroke="transparent" points="742.5,-446 742.5,-464 785.5,-464 785.5,-446 742.5,-446"/>
<polygon fill="none" stroke="black" points="742.5,-446 742.5,-464 785.5,-464 785.5,-446 742.5,-446"/>
<text text-anchor="start" x="775.5" y="-452.2" font-family="Helvetica,sans-Serif" font-size="11.00"> &#160;</text>
<polygon fill="#ffffff" stroke="transparent" points="785.5,-446 785.5,-464 837.5,-464 837.5,-446 785.5,-446"/>
<polygon fill="none" stroke="black" points="785.5,-446 785.5,-464 837.5,-464 837.5,-446 785.5,-446"/>
<text text-anchor="start" x="818.5" y="-452.2" font-family="Helvetica,sans-Serif" font-size="11.00">2 &gt;</text>
</a>
</g>
</g>
<!-- disposal&#45;&gt;discharge_point -->
<g id="edge4" class="edge">
<title>disposal:w&#45;&gt;discharge_point:e</title>
<path fill="none" stroke="black" d="M645.33,-512.21C602.73,-492.03 667.72,-369 604,-369"/>
<polygon fill="black" stroke="black" points="651.65,-513.46 658.81,-518.53 655.58,-514.23 659.5,-515 659.5,-515 659.5,-515 655.58,-514.23 660.19,-511.47 651.65,-513.46 651.65,-513.46"/>
<ellipse fill="none" stroke="black" cx="648.51" cy="-512.84" rx="3.2" ry="3.2"/>
</g>
<!-- disposal&#45;&gt;wastewater_structure -->
<g id="edge5" class="edge">
<title>disposal:w&#45;&gt;wastewater_structure:e</title>
<path fill="none" stroke="black" d="M644.96,-493C466.05,-493 415.95,-493 230,-493"/>
<polygon fill="black" stroke="black" points="651.5,-493 659.5,-496.6 655.5,-493 659.5,-493 659.5,-493 659.5,-493 655.5,-493 659.5,-489.4 651.5,-493 651.5,-493"/>
<ellipse fill="none" stroke="black" cx="648.3" cy="-493" rx="3.2" ry="3.2"/>
</g>
</g>
</svg>
