<?xml version="1.0" encoding="UTF-8" standalone="no"?>
<!DOCTYPE svg PUBLIC "-//W3C//DTD SVG 1.1//EN"
 "http://www.w3.org/Graphics/SVG/1.1/DTD/svg11.dtd">
<!-- Generated by graphviz version 2.47.1 (20210515.0534)
 -->
<!-- Title: oneDegreeRelationshipsDiagram Pages: 1 -->
<svg width="343pt" height="1105pt"
 viewBox="0.00 0.00 343.00 1105.00" xmlns="http://www.w3.org/2000/svg" xmlns:xlink="http://www.w3.org/1999/xlink">
<g id="graph0" class="graph" transform="scale(1 1) rotate(0) translate(4 1101)">
<title>oneDegreeRelationshipsDiagram</title>
<polygon fill="#ffffff" stroke="transparent" points="-4,4 -4,-1101 339,-1101 339,4 -4,4"/>
<text text-anchor="middle" x="73.5" y="-7.2" font-family="Helvetica,sans-Serif" font-size="11.00">Generated by SchemaSpy</text>
<!-- import_manhole_quarantine -->
<g id="node1" class="node">
<title>import_manhole_quarantine</title>
<g id="a_node1"><a xlink:href="../../tables/import_manhole_quarantine.html" xlink:title="import_manhole_quarantine" target="_top">
<polygon fill="#ffffff" stroke="transparent" points="8,-37 8,-1093 327,-1093 327,-37 8,-37"/>
<polygon fill="#f5f5f5" stroke="transparent" points="10.5,-1069 10.5,-1091 325.5,-1091 325.5,-1069 10.5,-1069"/>
<polygon fill="none" stroke="black" points="10.5,-1069 10.5,-1091 325.5,-1091 325.5,-1069 10.5,-1069"/>
<text text-anchor="start" x="15.5" y="-1078.2" font-family="Helvetica,sans-Serif" font-weight="bold" font-size="11.00">import_manhole_quarantine</text>
<text text-anchor="start" x="286.5" y="-1077.2" font-family="Helvetica,sans-Serif" font-size="11.00">[table]</text>
<polygon fill="none" stroke="black" points="10.5,-1047 10.5,-1069 202.5,-1069 202.5,-1047 10.5,-1047"/>
<text text-anchor="start" x="30.5" y="-1055.2" font-family="Helvetica,sans-Serif" font-size="11.00">obj_id</text>
<polygon fill="none" stroke="black" points="202.5,-1047 202.5,-1069 325.5,-1069 325.5,-1047 202.5,-1047"/>
<text text-anchor="start" x="205.5" y="-1055.2" font-family="Helvetica,sans-Serif" font-size="11.00">varchar[16]</text>
<polygon fill="none" stroke="black" points="10.5,-1025 10.5,-1047 202.5,-1047 202.5,-1025 10.5,-1025"/>
<text text-anchor="start" x="30.5" y="-1033.2" font-family="Helvetica,sans-Serif" font-size="11.00">identifier</text>
<polygon fill="none" stroke="black" points="202.5,-1025 202.5,-1047 325.5,-1047 325.5,-1025 202.5,-1025"/>
<text text-anchor="start" x="205.5" y="-1033.2" font-family="Helvetica,sans-Serif" font-size="11.00">varchar[20]</text>
<polygon fill="none" stroke="black" points="10.5,-1003 10.5,-1025 202.5,-1025 202.5,-1003 10.5,-1003"/>
<text text-anchor="start" x="30.5" y="-1011.2" font-family="Helvetica,sans-Serif" font-size="11.00">situation_geometry</text>
<polygon fill="none" stroke="black" points="202.5,-1003 202.5,-1025 325.5,-1025 325.5,-1003 202.5,-1003"/>
<text text-anchor="start" x="205.5" y="-1011.2" font-family="Helvetica,sans-Serif" font-size="11.00">geometry[2147483647]</text>
<polygon fill="none" stroke="black" points="10.5,-981 10.5,-1003 202.5,-1003 202.5,-981 10.5,-981"/>
<text text-anchor="start" x="30.5" y="-989.2" font-family="Helvetica,sans-Serif" font-size="11.00">co_shape</text>
<polygon fill="none" stroke="black" points="202.5,-981 202.5,-1003 325.5,-1003 325.5,-981 202.5,-981"/>
<text text-anchor="start" x="205.5" y="-989.2" font-family="Helvetica,sans-Serif" font-size="11.00">int4[10]</text>
<polygon fill="none" stroke="black" points="10.5,-959 10.5,-981 202.5,-981 202.5,-959 10.5,-959"/>
<text text-anchor="start" x="30.5" y="-967.2" font-family="Helvetica,sans-Serif" font-size="11.00">co_diameter</text>
<polygon fill="none" stroke="black" points="202.5,-959 202.5,-981 325.5,-981 325.5,-959 202.5,-959"/>
<text text-anchor="start" x="205.5" y="-967.2" font-family="Helvetica,sans-Serif" font-size="11.00">int2[5]</text>
<polygon fill="none" stroke="black" points="10.5,-937 10.5,-959 202.5,-959 202.5,-937 10.5,-937"/>
<text text-anchor="start" x="30.5" y="-945.2" font-family="Helvetica,sans-Serif" font-size="11.00">co_material</text>
<polygon fill="none" stroke="black" points="202.5,-937 202.5,-959 325.5,-959 325.5,-937 202.5,-937"/>
<text text-anchor="start" x="205.5" y="-945.2" font-family="Helvetica,sans-Serif" font-size="11.00">int4[10]</text>
<polygon fill="none" stroke="black" points="10.5,-915 10.5,-937 202.5,-937 202.5,-915 10.5,-915"/>
<text text-anchor="start" x="30.5" y="-923.2" font-family="Helvetica,sans-Serif" font-size="11.00">co_positional_accuracy</text>
<polygon fill="none" stroke="black" points="202.5,-915 202.5,-937 325.5,-937 325.5,-915 202.5,-915"/>
<text text-anchor="start" x="205.5" y="-923.2" font-family="Helvetica,sans-Serif" font-size="11.00">int4[10]</text>
<polygon fill="none" stroke="black" points="10.5,-893 10.5,-915 202.5,-915 202.5,-893 10.5,-893"/>
<text text-anchor="start" x="30.5" y="-901.2" font-family="Helvetica,sans-Serif" font-size="11.00">co_level</text>
<polygon fill="none" stroke="black" points="202.5,-893 202.5,-915 325.5,-915 325.5,-893 202.5,-893"/>
<text text-anchor="start" x="205.5" y="-901.2" font-family="Helvetica,sans-Serif" font-size="11.00">numeric[7,3]</text>
<polygon fill="none" stroke="black" points="10.5,-871 10.5,-893 202.5,-893 202.5,-871 10.5,-871"/>
<text text-anchor="start" x="30.5" y="-879.2" font-family="Helvetica,sans-Serif" font-size="11.00">_depth</text>
<polygon fill="none" stroke="black" points="202.5,-871 202.5,-893 325.5,-893 325.5,-871 202.5,-871"/>
<text text-anchor="start" x="205.5" y="-879.2" font-family="Helvetica,sans-Serif" font-size="11.00">numeric[6,3]</text>
<polygon fill="none" stroke="black" points="10.5,-849 10.5,-871 202.5,-871 202.5,-849 10.5,-849"/>
<text text-anchor="start" x="30.5" y="-857.2" font-family="Helvetica,sans-Serif" font-size="11.00">_channel_usage_current</text>
<polygon fill="none" stroke="black" points="202.5,-849 202.5,-871 325.5,-871 325.5,-849 202.5,-849"/>
<text text-anchor="start" x="205.5" y="-857.2" font-family="Helvetica,sans-Serif" font-size="11.00">int4[10]</text>
<polygon fill="none" stroke="black" points="10.5,-827 10.5,-849 202.5,-849 202.5,-827 10.5,-827"/>
<text text-anchor="start" x="30.5" y="-835.2" font-family="Helvetica,sans-Serif" font-size="11.00">ma_material</text>
<polygon fill="none" stroke="black" points="202.5,-827 202.5,-849 325.5,-849 325.5,-827 202.5,-827"/>
<text text-anchor="start" x="205.5" y="-835.2" font-family="Helvetica,sans-Serif" font-size="11.00">int4[10]</text>
<polygon fill="none" stroke="black" points="10.5,-805 10.5,-827 202.5,-827 202.5,-805 10.5,-805"/>
<text text-anchor="start" x="30.5" y="-813.2" font-family="Helvetica,sans-Serif" font-size="11.00">ma_dimension1</text>
<polygon fill="none" stroke="black" points="202.5,-805 202.5,-827 325.5,-827 325.5,-805 202.5,-805"/>
<text text-anchor="start" x="205.5" y="-813.2" font-family="Helvetica,sans-Serif" font-size="11.00">int2[5]</text>
<polygon fill="none" stroke="black" points="10.5,-783 10.5,-805 202.5,-805 202.5,-783 10.5,-783"/>
<text text-anchor="start" x="30.5" y="-791.2" font-family="Helvetica,sans-Serif" font-size="11.00">ma_dimension2</text>
<polygon fill="none" stroke="black" points="202.5,-783 202.5,-805 325.5,-805 325.5,-783 202.5,-783"/>
<text text-anchor="start" x="205.5" y="-791.2" font-family="Helvetica,sans-Serif" font-size="11.00">int2[5]</text>
<polygon fill="none" stroke="black" points="10.5,-761 10.5,-783 202.5,-783 202.5,-761 10.5,-761"/>
<text text-anchor="start" x="30.5" y="-769.2" font-family="Helvetica,sans-Serif" font-size="11.00">ws_type</text>
<polygon fill="none" stroke="black" points="202.5,-761 202.5,-783 325.5,-783 325.5,-761 202.5,-761"/>
<text text-anchor="start" x="205.5" y="-769.2" font-family="Helvetica,sans-Serif" font-size="11.00">text[2147483647]</text>
<polygon fill="none" stroke="black" points="10.5,-739 10.5,-761 202.5,-761 202.5,-739 10.5,-739"/>
<text text-anchor="start" x="30.5" y="-747.2" font-family="Helvetica,sans-Serif" font-size="11.00">ma_function</text>
<polygon fill="none" stroke="black" points="202.5,-739 202.5,-761 325.5,-761 325.5,-739 202.5,-739"/>
<text text-anchor="start" x="205.5" y="-747.2" font-family="Helvetica,sans-Serif" font-size="11.00">int4[10]</text>
<polygon fill="none" stroke="black" points="10.5,-717 10.5,-739 202.5,-739 202.5,-717 10.5,-717"/>
<text text-anchor="start" x="30.5" y="-725.2" font-family="Helvetica,sans-Serif" font-size="11.00">ss_function</text>
<polygon fill="none" stroke="black" points="202.5,-717 202.5,-739 325.5,-739 325.5,-717 202.5,-717"/>
<text text-anchor="start" x="205.5" y="-725.2" font-family="Helvetica,sans-Serif" font-size="11.00">int4[10]</text>
<polygon fill="none" stroke="black" points="10.5,-695 10.5,-717 202.5,-717 202.5,-695 10.5,-695"/>
<text text-anchor="start" x="30.5" y="-703.2" font-family="Helvetica,sans-Serif" font-size="11.00">remark</text>
<polygon fill="none" stroke="black" points="202.5,-695 202.5,-717 325.5,-717 325.5,-695 202.5,-695"/>
<text text-anchor="start" x="205.5" y="-703.2" font-family="Helvetica,sans-Serif" font-size="11.00">varchar[80]</text>
<polygon fill="none" stroke="black" points="10.5,-673 10.5,-695 202.5,-695 202.5,-673 10.5,-673"/>
<text text-anchor="start" x="30.5" y="-681.2" font-family="Helvetica,sans-Serif" font-size="11.00">wn_bottom_level</text>
<polygon fill="none" stroke="black" points="202.5,-673 202.5,-695 325.5,-695 325.5,-673 202.5,-673"/>
<text text-anchor="start" x="205.5" y="-681.2" font-family="Helvetica,sans-Serif" font-size="11.00">numeric[7,3]</text>
<polygon fill="none" stroke="black" points="10.5,-651 10.5,-673 202.5,-673 202.5,-651 10.5,-651"/>
<text text-anchor="start" x="30.5" y="-659.2" font-family="Helvetica,sans-Serif" font-size="11.00">photo1</text>
<polygon fill="none" stroke="black" points="202.5,-651 202.5,-673 325.5,-673 325.5,-651 202.5,-651"/>
<text text-anchor="start" x="205.5" y="-659.2" font-family="Helvetica,sans-Serif" font-size="11.00">text[2147483647]</text>
<polygon fill="none" stroke="black" points="10.5,-629 10.5,-651 202.5,-651 202.5,-629 10.5,-629"/>
<text text-anchor="start" x="30.5" y="-637.2" font-family="Helvetica,sans-Serif" font-size="11.00">photo2</text>
<polygon fill="none" stroke="black" points="202.5,-629 202.5,-651 325.5,-651 325.5,-629 202.5,-629"/>
<text text-anchor="start" x="205.5" y="-637.2" font-family="Helvetica,sans-Serif" font-size="11.00">text[2147483647]</text>
<polygon fill="none" stroke="black" points="10.5,-607 10.5,-629 202.5,-629 202.5,-607 10.5,-607"/>
<text text-anchor="start" x="30.5" y="-615.2" font-family="Helvetica,sans-Serif" font-size="11.00">inlet_3_material</text>
<polygon fill="none" stroke="black" points="202.5,-607 202.5,-629 325.5,-629 325.5,-607 202.5,-607"/>
<text text-anchor="start" x="205.5" y="-615.2" font-family="Helvetica,sans-Serif" font-size="11.00">int2[5]</text>
<polygon fill="none" stroke="black" points="10.5,-585 10.5,-607 202.5,-607 202.5,-585 10.5,-585"/>
<text text-anchor="start" x="30.5" y="-593.2" font-family="Helvetica,sans-Serif" font-size="11.00">inlet_3_clear_height</text>
<polygon fill="none" stroke="black" points="202.5,-585 202.5,-607 325.5,-607 325.5,-585 202.5,-585"/>
<text text-anchor="start" x="205.5" y="-593.2" font-family="Helvetica,sans-Serif" font-size="11.00">int4[10]</text>
<polygon fill="none" stroke="black" points="10.5,-563 10.5,-585 202.5,-585 202.5,-563 10.5,-563"/>
<text text-anchor="start" x="30.5" y="-571.2" font-family="Helvetica,sans-Serif" font-size="11.00">inlet_3_depth_m</text>
<polygon fill="none" stroke="black" points="202.5,-563 202.5,-585 325.5,-585 325.5,-563 202.5,-563"/>
<text text-anchor="start" x="205.5" y="-571.2" font-family="Helvetica,sans-Serif" font-size="11.00">numeric[7,3]</text>
<polygon fill="none" stroke="black" points="10.5,-541 10.5,-563 202.5,-563 202.5,-541 10.5,-541"/>
<text text-anchor="start" x="30.5" y="-549.2" font-family="Helvetica,sans-Serif" font-size="11.00">inlet_4_material</text>
<polygon fill="none" stroke="black" points="202.5,-541 202.5,-563 325.5,-563 325.5,-541 202.5,-541"/>
<text text-anchor="start" x="205.5" y="-549.2" font-family="Helvetica,sans-Serif" font-size="11.00">int2[5]</text>
<polygon fill="none" stroke="black" points="10.5,-519 10.5,-541 202.5,-541 202.5,-519 10.5,-519"/>
<text text-anchor="start" x="30.5" y="-527.2" font-family="Helvetica,sans-Serif" font-size="11.00">inlet_4_clear_height</text>
<polygon fill="none" stroke="black" points="202.5,-519 202.5,-541 325.5,-541 325.5,-519 202.5,-519"/>
<text text-anchor="start" x="205.5" y="-527.2" font-family="Helvetica,sans-Serif" font-size="11.00">int4[10]</text>
<polygon fill="none" stroke="black" points="10.5,-497 10.5,-519 202.5,-519 202.5,-497 10.5,-497"/>
<text text-anchor="start" x="30.5" y="-505.2" font-family="Helvetica,sans-Serif" font-size="11.00">inlet_4_depth_m</text>
<polygon fill="none" stroke="black" points="202.5,-497 202.5,-519 325.5,-519 325.5,-497 202.5,-497"/>
<text text-anchor="start" x="205.5" y="-505.2" font-family="Helvetica,sans-Serif" font-size="11.00">numeric[7,3]</text>
<polygon fill="none" stroke="black" points="10.5,-475 10.5,-497 202.5,-497 202.5,-475 10.5,-475"/>
<text text-anchor="start" x="30.5" y="-483.2" font-family="Helvetica,sans-Serif" font-size="11.00">inlet_5_material</text>
<polygon fill="none" stroke="black" points="202.5,-475 202.5,-497 325.5,-497 325.5,-475 202.5,-475"/>
<text text-anchor="start" x="205.5" y="-483.2" font-family="Helvetica,sans-Serif" font-size="11.00">int2[5]</text>
<polygon fill="none" stroke="black" points="10.5,-453 10.5,-475 202.5,-475 202.5,-453 10.5,-453"/>
<text text-anchor="start" x="30.5" y="-461.2" font-family="Helvetica,sans-Serif" font-size="11.00">inlet_5_clear_height</text>
<polygon fill="none" stroke="black" points="202.5,-453 202.5,-475 325.5,-475 325.5,-453 202.5,-453"/>
<text text-anchor="start" x="205.5" y="-461.2" font-family="Helvetica,sans-Serif" font-size="11.00">int4[10]</text>
<polygon fill="none" stroke="black" points="10.5,-431 10.5,-453 202.5,-453 202.5,-431 10.5,-431"/>
<text text-anchor="start" x="30.5" y="-439.2" font-family="Helvetica,sans-Serif" font-size="11.00">inlet_5_depth_m</text>
<polygon fill="none" stroke="black" points="202.5,-431 202.5,-453 325.5,-453 325.5,-431 202.5,-431"/>
<text text-anchor="start" x="205.5" y="-439.2" font-family="Helvetica,sans-Serif" font-size="11.00">numeric[7,3]</text>
<polygon fill="none" stroke="black" points="10.5,-409 10.5,-431 202.5,-431 202.5,-409 10.5,-409"/>
<text text-anchor="start" x="30.5" y="-417.2" font-family="Helvetica,sans-Serif" font-size="11.00">inlet_6_material</text>
<polygon fill="none" stroke="black" points="202.5,-409 202.5,-431 325.5,-431 325.5,-409 202.5,-409"/>
<text text-anchor="start" x="205.5" y="-417.2" font-family="Helvetica,sans-Serif" font-size="11.00">int2[5]</text>
<polygon fill="none" stroke="black" points="10.5,-387 10.5,-409 202.5,-409 202.5,-387 10.5,-387"/>
<text text-anchor="start" x="30.5" y="-395.2" font-family="Helvetica,sans-Serif" font-size="11.00">inlet_6_clear_height</text>
<polygon fill="none" stroke="black" points="202.5,-387 202.5,-409 325.5,-409 325.5,-387 202.5,-387"/>
<text text-anchor="start" x="205.5" y="-395.2" font-family="Helvetica,sans-Serif" font-size="11.00">int4[10]</text>
<polygon fill="none" stroke="black" points="10.5,-365 10.5,-387 202.5,-387 202.5,-365 10.5,-365"/>
<text text-anchor="start" x="30.5" y="-373.2" font-family="Helvetica,sans-Serif" font-size="11.00">inlet_6_depth_m</text>
<polygon fill="none" stroke="black" points="202.5,-365 202.5,-387 325.5,-387 325.5,-365 202.5,-365"/>
<text text-anchor="start" x="205.5" y="-373.2" font-family="Helvetica,sans-Serif" font-size="11.00">numeric[7,3]</text>
<polygon fill="none" stroke="black" points="10.5,-343 10.5,-365 202.5,-365 202.5,-343 10.5,-343"/>
<text text-anchor="start" x="30.5" y="-351.2" font-family="Helvetica,sans-Serif" font-size="11.00">inlet_7_material</text>
<polygon fill="none" stroke="black" points="202.5,-343 202.5,-365 325.5,-365 325.5,-343 202.5,-343"/>
<text text-anchor="start" x="205.5" y="-351.2" font-family="Helvetica,sans-Serif" font-size="11.00">int2[5]</text>
<polygon fill="none" stroke="black" points="10.5,-321 10.5,-343 202.5,-343 202.5,-321 10.5,-321"/>
<text text-anchor="start" x="30.5" y="-329.2" font-family="Helvetica,sans-Serif" font-size="11.00">inlet_7_clear_height</text>
<polygon fill="none" stroke="black" points="202.5,-321 202.5,-343 325.5,-343 325.5,-321 202.5,-321"/>
<text text-anchor="start" x="205.5" y="-329.2" font-family="Helvetica,sans-Serif" font-size="11.00">int4[10]</text>
<polygon fill="none" stroke="black" points="10.5,-299 10.5,-321 202.5,-321 202.5,-299 10.5,-299"/>
<text text-anchor="start" x="30.5" y="-307.2" font-family="Helvetica,sans-Serif" font-size="11.00">inlet_7_depth_m</text>
<polygon fill="none" stroke="black" points="202.5,-299 202.5,-321 325.5,-321 325.5,-299 202.5,-299"/>
<text text-anchor="start" x="205.5" y="-307.2" font-family="Helvetica,sans-Serif" font-size="11.00">numeric[7,3]</text>
<polygon fill="none" stroke="black" points="10.5,-277 10.5,-299 202.5,-299 202.5,-277 10.5,-277"/>
<text text-anchor="start" x="30.5" y="-285.2" font-family="Helvetica,sans-Serif" font-size="11.00">outlet_1_material</text>
<polygon fill="none" stroke="black" points="202.5,-277 202.5,-299 325.5,-299 325.5,-277 202.5,-277"/>
<text text-anchor="start" x="205.5" y="-285.2" font-family="Helvetica,sans-Serif" font-size="11.00">int2[5]</text>
<polygon fill="none" stroke="black" points="10.5,-255 10.5,-277 202.5,-277 202.5,-255 10.5,-255"/>
<text text-anchor="start" x="30.5" y="-263.2" font-family="Helvetica,sans-Serif" font-size="11.00">outlet_1_clear_height</text>
<polygon fill="none" stroke="black" points="202.5,-255 202.5,-277 325.5,-277 325.5,-255 202.5,-255"/>
<text text-anchor="start" x="205.5" y="-263.2" font-family="Helvetica,sans-Serif" font-size="11.00">int4[10]</text>
<polygon fill="none" stroke="black" points="10.5,-233 10.5,-255 202.5,-255 202.5,-233 10.5,-233"/>
<text text-anchor="start" x="30.5" y="-241.2" font-family="Helvetica,sans-Serif" font-size="11.00">outlet_1_depth_m</text>
<polygon fill="none" stroke="black" points="202.5,-233 202.5,-255 325.5,-255 325.5,-233 202.5,-233"/>
<text text-anchor="start" x="205.5" y="-241.2" font-family="Helvetica,sans-Serif" font-size="11.00">numeric[7,3]</text>
<polygon fill="none" stroke="black" points="10.5,-211 10.5,-233 202.5,-233 202.5,-211 10.5,-211"/>
<text text-anchor="start" x="30.5" y="-219.2" font-family="Helvetica,sans-Serif" font-size="11.00">outlet_2_material</text>
<polygon fill="none" stroke="black" points="202.5,-211 202.5,-233 325.5,-233 325.5,-211 202.5,-211"/>
<text text-anchor="start" x="205.5" y="-219.2" font-family="Helvetica,sans-Serif" font-size="11.00">int2[5]</text>
<polygon fill="none" stroke="black" points="10.5,-189 10.5,-211 202.5,-211 202.5,-189 10.5,-189"/>
<text text-anchor="start" x="30.5" y="-197.2" font-family="Helvetica,sans-Serif" font-size="11.00">outlet_2_clear_height</text>
<polygon fill="none" stroke="black" points="202.5,-189 202.5,-211 325.5,-211 325.5,-189 202.5,-189"/>
<text text-anchor="start" x="205.5" y="-197.2" font-family="Helvetica,sans-Serif" font-size="11.00">int4[10]</text>
<polygon fill="none" stroke="black" points="10.5,-167 10.5,-189 202.5,-189 202.5,-167 10.5,-167"/>
<text text-anchor="start" x="30.5" y="-175.2" font-family="Helvetica,sans-Serif" font-size="11.00">outlet_2_depth_m</text>
<polygon fill="none" stroke="black" points="202.5,-167 202.5,-189 325.5,-189 325.5,-167 202.5,-167"/>
<text text-anchor="start" x="205.5" y="-175.2" font-family="Helvetica,sans-Serif" font-size="11.00">numeric[7,3]</text>
<polygon fill="none" stroke="black" points="10.5,-145 10.5,-167 202.5,-167 202.5,-145 10.5,-145"/>
<text text-anchor="start" x="30.5" y="-153.2" font-family="Helvetica,sans-Serif" font-size="11.00">structure_okay</text>
<polygon fill="none" stroke="black" points="202.5,-145 202.5,-167 325.5,-167 325.5,-145 202.5,-145"/>
<text text-anchor="start" x="205.5" y="-153.2" font-family="Helvetica,sans-Serif" font-size="11.00">bool[1]</text>
<polygon fill="none" stroke="black" points="10.5,-123 10.5,-145 202.5,-145 202.5,-123 10.5,-123"/>
<text text-anchor="start" x="30.5" y="-131.2" font-family="Helvetica,sans-Serif" font-size="11.00">inlet_okay</text>
<polygon fill="none" stroke="black" points="202.5,-123 202.5,-145 325.5,-145 325.5,-123 202.5,-123"/>
<text text-anchor="start" x="205.5" y="-131.2" font-family="Helvetica,sans-Serif" font-size="11.00">bool[1]</text>
<polygon fill="none" stroke="black" points="10.5,-101 10.5,-123 202.5,-123 202.5,-101 10.5,-101"/>
<text text-anchor="start" x="30.5" y="-109.2" font-family="Helvetica,sans-Serif" font-size="11.00">outlet_okay</text>
<polygon fill="none" stroke="black" points="202.5,-101 202.5,-123 325.5,-123 325.5,-101 202.5,-101"/>
<text text-anchor="start" x="205.5" y="-109.2" font-family="Helvetica,sans-Serif" font-size="11.00">bool[1]</text>
<polygon fill="none" stroke="black" points="10.5,-79 10.5,-101 202.5,-101 202.5,-79 10.5,-79"/>
<text text-anchor="start" x="30.5" y="-87.2" font-family="Helvetica,sans-Serif" font-size="11.00">deleted</text>
<polygon fill="none" stroke="black" points="202.5,-79 202.5,-101 325.5,-101 325.5,-79 202.5,-79"/>
<text text-anchor="start" x="205.5" y="-87.2" font-family="Helvetica,sans-Serif" font-size="11.00">bool[1]</text>
<polygon fill="none" stroke="black" points="10.5,-57 10.5,-79 202.5,-79 202.5,-57 10.5,-57"/>
<image xlink:href="../../images/primaryKeys.png" width="11px" height="12px" preserveAspectRatio="xMinYMin meet" x="15.5" y="-74"/>
<text text-anchor="start" x="30.5" y="-65.2" font-family="Helvetica,sans-Serif" font-size="11.00">quarantine_serial</text>
<polygon fill="none" stroke="black" points="202.5,-57 202.5,-79 325.5,-79 325.5,-57 202.5,-57"/>
<text text-anchor="start" x="205.5" y="-65.2" font-family="Helvetica,sans-Serif" font-size="11.00">serial[10]</text>
<polygon fill="#ffffff" stroke="transparent" points="10.5,-39 10.5,-57 110.5,-57 110.5,-39 10.5,-39"/>
<polygon fill="none" stroke="black" points="10.5,-39 10.5,-57 110.5,-57 110.5,-39 10.5,-39"/>
<text text-anchor="start" x="13.5" y="-45.2" font-family="Helvetica,sans-Serif" font-size="11.00">&lt; 0</text>
<polygon fill="#ffffff" stroke="transparent" points="110.5,-39 110.5,-57 202.5,-57 202.5,-39 110.5,-39"/>
<polygon fill="none" stroke="black" points="110.5,-39 110.5,-57 202.5,-57 202.5,-39 110.5,-39"/>
<text text-anchor="start" x="192.5" y="-45.2" font-family="Helvetica,sans-Serif" font-size="11.00"> &#160;</text>
<polygon fill="#ffffff" stroke="transparent" points="202.5,-39 202.5,-57 325.5,-57 325.5,-39 202.5,-39"/>
<polygon fill="none" stroke="black" points="202.5,-39 202.5,-57 325.5,-57 325.5,-39 202.5,-39"/>
<text text-anchor="start" x="306.5" y="-45.2" font-family="Helvetica,sans-Serif" font-size="11.00">0 &gt;</text>
<polygon fill="none" stroke="black" stroke-width="2" points="9,-38 9,-1092 326,-1092 326,-38 9,-38"/>
</a>
</g>
</g>
</g>
</svg>
