<?xml version="1.0" encoding="UTF-8" standalone="no"?>
<!DOCTYPE svg PUBLIC "-//W3C//DTD SVG 1.1//EN"
 "http://www.w3.org/Graphics/SVG/1.1/DTD/svg11.dtd">
<!-- Generated by graphviz version 2.47.1 (20210515.0534)
 -->
<!-- Title: oneDegreeRelationshipsDiagram Pages: 1 -->
<svg width="891pt" height="1145pt"
 viewBox="0.00 0.00 891.00 1145.00" xmlns="http://www.w3.org/2000/svg" xmlns:xlink="http://www.w3.org/1999/xlink">
<g id="graph0" class="graph" transform="scale(1 1) rotate(0) translate(4 1141)">
<title>oneDegreeRelationshipsDiagram</title>
<polygon fill="#ffffff" stroke="transparent" points="-4,4 -4,-1141 887,-1141 887,4 -4,4"/>
<text text-anchor="middle" x="73.5" y="-7.2" font-family="Helvetica,sans-Serif" font-size="11.00">Generated by SchemaSpy</text>
<!-- disposal -->
<g id="node1" class="node">
<title>disposal</title>
<g id="a_node1"><a xlink:href="../../tables/disposal.html" xlink:title="disposal" target="_top">
<polygon fill="#ffffff" stroke="transparent" points="698,-899 698,-1133 875,-1133 875,-899 698,-899"/>
<polygon fill="#f5f5f5" stroke="transparent" points="698.5,-1111 698.5,-1133 875.5,-1133 875.5,-1111 698.5,-1111"/>
<polygon fill="none" stroke="black" points="698.5,-1111 698.5,-1133 875.5,-1133 875.5,-1111 698.5,-1111"/>
<text text-anchor="start" x="703.5" y="-1120.2" font-family="Helvetica,sans-Serif" font-weight="bold" font-size="11.00">disposal</text>
<text text-anchor="start" x="836.5" y="-1119.2" font-family="Helvetica,sans-Serif" font-size="11.00">[table]</text>
<polygon fill="none" stroke="black" points="698.5,-1089 698.5,-1111 875.5,-1111 875.5,-1089 698.5,-1089"/>
<image xlink:href="../../images/primaryKeys.png" width="11px" height="12px" preserveAspectRatio="xMinYMin meet" x="703.5" y="-1106"/>
<text text-anchor="start" x="718.5" y="-1097.2" font-family="Helvetica,sans-Serif" font-size="11.00">obj_id</text>
<polygon fill="none" stroke="black" points="698.5,-1067 698.5,-1089 875.5,-1089 875.5,-1067 698.5,-1067"/>
<image xlink:href="../../images/foreignKeys.png" width="11px" height="12px" preserveAspectRatio="xMinYMin meet" x="703.5" y="-1084"/>
<text text-anchor="start" x="718.5" y="-1075.2" font-family="Helvetica,sans-Serif" font-size="11.00">disposal_place_current</text>
<polygon fill="none" stroke="black" points="698.5,-1045 698.5,-1067 875.5,-1067 875.5,-1045 698.5,-1045"/>
<image xlink:href="../../images/foreignKeys.png" width="11px" height="12px" preserveAspectRatio="xMinYMin meet" x="703.5" y="-1062"/>
<text text-anchor="start" x="718.5" y="-1053.2" font-family="Helvetica,sans-Serif" font-size="11.00">disposal_place_planned</text>
<polygon fill="none" stroke="black" points="698.5,-1023 698.5,-1045 875.5,-1045 875.5,-1023 698.5,-1023"/>
<image xlink:href="../../images/foreignKeys.png" width="11px" height="12px" preserveAspectRatio="xMinYMin meet" x="703.5" y="-1040"/>
<text text-anchor="start" x="718.5" y="-1031.2" font-family="Helvetica,sans-Serif" font-size="11.00">fk_dataowner</text>
<polygon fill="none" stroke="black" points="698.5,-1001 698.5,-1023 875.5,-1023 875.5,-1001 698.5,-1001"/>
<image xlink:href="../../images/foreignKeys.png" width="11px" height="12px" preserveAspectRatio="xMinYMin meet" x="703.5" y="-1018"/>
<text text-anchor="start" x="718.5" y="-1009.2" font-family="Helvetica,sans-Serif" font-size="11.00">fk_provider</text>
<polygon fill="none" stroke="black" points="698.5,-979 698.5,-1001 875.5,-1001 875.5,-979 698.5,-979"/>
<image xlink:href="../../images/foreignKeys.png" width="11px" height="12px" preserveAspectRatio="xMinYMin meet" x="703.5" y="-996"/>
<text text-anchor="start" x="718.5" y="-987.2" font-family="Helvetica,sans-Serif" font-size="11.00">fk_infiltration_installation</text>
<polygon fill="none" stroke="black" points="698.5,-957 698.5,-979 875.5,-979 875.5,-957 698.5,-957"/>
<image xlink:href="../../images/foreignKeys.png" width="11px" height="12px" preserveAspectRatio="xMinYMin meet" x="703.5" y="-974"/>
<text text-anchor="start" x="718.5" y="-965.2" font-family="Helvetica,sans-Serif" font-size="11.00">fk_discharge_point</text>
<polygon fill="none" stroke="black" points="698.5,-935 698.5,-957 875.5,-957 875.5,-935 698.5,-935"/>
<image xlink:href="../../images/foreignKeys.png" width="11px" height="12px" preserveAspectRatio="xMinYMin meet" x="703.5" y="-952"/>
<text text-anchor="start" x="718.5" y="-943.2" font-family="Helvetica,sans-Serif" font-size="11.00">fk_wastewater_structure</text>
<polygon fill="none" stroke="black" points="698.5,-917 698.5,-935 875.5,-935 875.5,-917 698.5,-917"/>
<text text-anchor="start" x="701.5" y="-923.2" font-family="Helvetica,sans-Serif" font-size="11.00">...</text>
<polygon fill="#ffffff" stroke="transparent" points="698.5,-899 698.5,-917 780.5,-917 780.5,-899 698.5,-899"/>
<polygon fill="none" stroke="black" points="698.5,-899 698.5,-917 780.5,-917 780.5,-899 698.5,-899"/>
<text text-anchor="start" x="701.5" y="-905.2" font-family="Helvetica,sans-Serif" font-size="11.00">&lt; 7</text>
<polygon fill="#ffffff" stroke="transparent" points="780.5,-899 780.5,-917 823.5,-917 823.5,-899 780.5,-899"/>
<polygon fill="none" stroke="black" points="780.5,-899 780.5,-917 823.5,-917 823.5,-899 780.5,-899"/>
<text text-anchor="start" x="813.5" y="-905.2" font-family="Helvetica,sans-Serif" font-size="11.00"> &#160;</text>
<polygon fill="#ffffff" stroke="transparent" points="823.5,-899 823.5,-917 875.5,-917 875.5,-899 823.5,-899"/>
<polygon fill="none" stroke="black" points="823.5,-899 823.5,-917 875.5,-917 875.5,-899 823.5,-899"/>
<text text-anchor="start" x="856.5" y="-905.2" font-family="Helvetica,sans-Serif" font-size="11.00">2 &gt;</text>
</a>
</g>
</g>
<!-- infiltration_installation -->
<g id="node2" class="node">
<title>infiltration_installation</title>
<g id="a_node2"><a xlink:href="../../tables/infiltration_installation.html" xlink:title="infiltration_installation" target="_top">
<polygon fill="#ffffff" stroke="transparent" points="413,-269 413,-643 649,-643 649,-269 413,-269"/>
<polygon fill="#f5f5f5" stroke="transparent" points="415,-619 415,-641 647,-641 647,-619 415,-619"/>
<polygon fill="none" stroke="black" points="415,-619 415,-641 647,-641 647,-619 415,-619"/>
<text text-anchor="start" x="420" y="-628.2" font-family="Helvetica,sans-Serif" font-weight="bold" font-size="11.00">infiltration_installation</text>
<text text-anchor="start" x="608" y="-627.2" font-family="Helvetica,sans-Serif" font-size="11.00">[table]</text>
<polygon fill="none" stroke="black" points="415,-597 415,-619 575,-619 575,-597 415,-597"/>
<image xlink:href="../../images/primaryKeys.png" width="11px" height="12px" preserveAspectRatio="xMinYMin meet" x="420" y="-614"/>
<text text-anchor="start" x="435" y="-605.2" font-family="Helvetica,sans-Serif" font-size="11.00">obj_id</text>
<polygon fill="none" stroke="black" points="575,-597 575,-619 647,-619 647,-597 575,-597"/>
<text text-anchor="start" x="578" y="-605.2" font-family="Helvetica,sans-Serif" font-size="11.00">varchar[16]</text>
<polygon fill="none" stroke="black" points="415,-575 415,-597 575,-597 575,-575 415,-575"/>
<text text-anchor="start" x="435" y="-583.2" font-family="Helvetica,sans-Serif" font-size="11.00">absorption_capacity</text>
<polygon fill="none" stroke="black" points="575,-575 575,-597 647,-597 647,-575 575,-575"/>
<text text-anchor="start" x="578" y="-583.2" font-family="Helvetica,sans-Serif" font-size="11.00">numeric[9,3]</text>
<polygon fill="none" stroke="black" points="415,-553 415,-575 575,-575 575,-553 415,-553"/>
<image xlink:href="../../images/foreignKeys.png" width="11px" height="12px" preserveAspectRatio="xMinYMin meet" x="420" y="-570"/>
<text text-anchor="start" x="435" y="-561.2" font-family="Helvetica,sans-Serif" font-size="11.00">defects</text>
<polygon fill="none" stroke="black" points="575,-553 575,-575 647,-575 647,-553 575,-553"/>
<text text-anchor="start" x="578" y="-561.2" font-family="Helvetica,sans-Serif" font-size="11.00">int4[10]</text>
<polygon fill="none" stroke="black" points="415,-531 415,-553 575,-553 575,-531 415,-531"/>
<text text-anchor="start" x="435" y="-539.2" font-family="Helvetica,sans-Serif" font-size="11.00">dimension1</text>
<polygon fill="none" stroke="black" points="575,-531 575,-553 647,-553 647,-531 575,-531"/>
<text text-anchor="start" x="578" y="-539.2" font-family="Helvetica,sans-Serif" font-size="11.00">int2[5]</text>
<polygon fill="none" stroke="black" points="415,-509 415,-531 575,-531 575,-509 415,-509"/>
<text text-anchor="start" x="435" y="-517.2" font-family="Helvetica,sans-Serif" font-size="11.00">dimension2</text>
<polygon fill="none" stroke="black" points="575,-509 575,-531 647,-531 647,-509 575,-509"/>
<text text-anchor="start" x="578" y="-517.2" font-family="Helvetica,sans-Serif" font-size="11.00">int2[5]</text>
<polygon fill="none" stroke="black" points="415,-487 415,-509 575,-509 575,-487 415,-487"/>
<text text-anchor="start" x="435" y="-495.2" font-family="Helvetica,sans-Serif" font-size="11.00">distance_to_aquifer</text>
<polygon fill="none" stroke="black" points="575,-487 575,-509 647,-509 647,-487 575,-487"/>
<text text-anchor="start" x="578" y="-495.2" font-family="Helvetica,sans-Serif" font-size="11.00">numeric[7,2]</text>
<polygon fill="none" stroke="black" points="415,-465 415,-487 575,-487 575,-465 415,-465"/>
<text text-anchor="start" x="435" y="-473.2" font-family="Helvetica,sans-Serif" font-size="11.00">effective_area</text>
<polygon fill="none" stroke="black" points="575,-465 575,-487 647,-487 647,-465 575,-465"/>
<text text-anchor="start" x="578" y="-473.2" font-family="Helvetica,sans-Serif" font-size="11.00">numeric[8,2]</text>
<polygon fill="none" stroke="black" points="415,-443 415,-465 575,-465 575,-443 415,-443"/>
<image xlink:href="../../images/foreignKeys.png" width="11px" height="12px" preserveAspectRatio="xMinYMin meet" x="420" y="-460"/>
<text text-anchor="start" x="435" y="-451.2" font-family="Helvetica,sans-Serif" font-size="11.00">emergency_overflow</text>
<polygon fill="none" stroke="black" points="575,-443 575,-465 647,-465 647,-443 575,-443"/>
<text text-anchor="start" x="578" y="-451.2" font-family="Helvetica,sans-Serif" font-size="11.00">int4[10]</text>
<polygon fill="none" stroke="black" points="415,-421 415,-443 575,-443 575,-421 415,-421"/>
<image xlink:href="../../images/foreignKeys.png" width="11px" height="12px" preserveAspectRatio="xMinYMin meet" x="420" y="-438"/>
<text text-anchor="start" x="435" y="-429.2" font-family="Helvetica,sans-Serif" font-size="11.00">filling_material</text>
<polygon fill="none" stroke="black" points="575,-421 575,-443 647,-443 647,-421 575,-421"/>
<text text-anchor="start" x="578" y="-429.2" font-family="Helvetica,sans-Serif" font-size="11.00">int4[10]</text>
<polygon fill="none" stroke="black" points="415,-399 415,-421 575,-421 575,-399 415,-399"/>
<image xlink:href="../../images/foreignKeys.png" width="11px" height="12px" preserveAspectRatio="xMinYMin meet" x="420" y="-416"/>
<text text-anchor="start" x="435" y="-407.2" font-family="Helvetica,sans-Serif" font-size="11.00">kind</text>
<polygon fill="none" stroke="black" points="575,-399 575,-421 647,-421 647,-399 575,-399"/>
<text text-anchor="start" x="578" y="-407.2" font-family="Helvetica,sans-Serif" font-size="11.00">int4[10]</text>
<polygon fill="none" stroke="black" points="415,-377 415,-399 575,-399 575,-377 415,-377"/>
<image xlink:href="../../images/foreignKeys.png" width="11px" height="12px" preserveAspectRatio="xMinYMin meet" x="420" y="-394"/>
<text text-anchor="start" x="435" y="-385.2" font-family="Helvetica,sans-Serif" font-size="11.00">labeling</text>
<polygon fill="none" stroke="black" points="575,-377 575,-399 647,-399 647,-377 575,-377"/>
<text text-anchor="start" x="578" y="-385.2" font-family="Helvetica,sans-Serif" font-size="11.00">int4[10]</text>
<polygon fill="none" stroke="black" points="415,-355 415,-377 575,-377 575,-355 415,-355"/>
<image xlink:href="../../images/foreignKeys.png" width="11px" height="12px" preserveAspectRatio="xMinYMin meet" x="420" y="-372"/>
<text text-anchor="start" x="435" y="-363.2" font-family="Helvetica,sans-Serif" font-size="11.00">seepage_utilization</text>
<polygon fill="none" stroke="black" points="575,-355 575,-377 647,-377 647,-355 575,-355"/>
<text text-anchor="start" x="578" y="-363.2" font-family="Helvetica,sans-Serif" font-size="11.00">int4[10]</text>
<polygon fill="none" stroke="black" points="415,-333 415,-355 575,-355 575,-333 415,-333"/>
<text text-anchor="start" x="435" y="-341.2" font-family="Helvetica,sans-Serif" font-size="11.00">upper_elevation</text>
<polygon fill="none" stroke="black" points="575,-333 575,-355 647,-355 647,-333 575,-333"/>
<text text-anchor="start" x="578" y="-341.2" font-family="Helvetica,sans-Serif" font-size="11.00">numeric[7,3]</text>
<polygon fill="none" stroke="black" points="415,-311 415,-333 575,-333 575,-311 415,-311"/>
<image xlink:href="../../images/foreignKeys.png" width="11px" height="12px" preserveAspectRatio="xMinYMin meet" x="420" y="-328"/>
<text text-anchor="start" x="435" y="-319.2" font-family="Helvetica,sans-Serif" font-size="11.00">vehicle_access</text>
<polygon fill="none" stroke="black" points="575,-311 575,-333 647,-333 647,-311 575,-311"/>
<text text-anchor="start" x="578" y="-319.2" font-family="Helvetica,sans-Serif" font-size="11.00">int4[10]</text>
<polygon fill="none" stroke="black" points="415,-289 415,-311 575,-311 575,-289 415,-289"/>
<image xlink:href="../../images/foreignKeys.png" width="11px" height="12px" preserveAspectRatio="xMinYMin meet" x="420" y="-306"/>
<text text-anchor="start" x="435" y="-297.2" font-family="Helvetica,sans-Serif" font-size="11.00">watertightness</text>
<polygon fill="none" stroke="black" points="575,-289 575,-311 647,-311 647,-289 575,-289"/>
<text text-anchor="start" x="578" y="-297.2" font-family="Helvetica,sans-Serif" font-size="11.00">int4[10]</text>
<polygon fill="#ffffff" stroke="transparent" points="415,-271 415,-289 499,-289 499,-271 415,-271"/>
<polygon fill="none" stroke="black" points="415,-271 415,-289 499,-289 499,-271 415,-271"/>
<text text-anchor="start" x="418" y="-277.2" font-family="Helvetica,sans-Serif" font-size="11.00">&lt; 9</text>
<polygon fill="#ffffff" stroke="transparent" points="499,-271 499,-289 575,-289 575,-271 499,-271"/>
<polygon fill="none" stroke="black" points="499,-271 499,-289 575,-289 575,-271 499,-271"/>
<text text-anchor="start" x="565" y="-277.2" font-family="Helvetica,sans-Serif" font-size="11.00"> &#160;</text>
<polygon fill="#ffffff" stroke="transparent" points="575,-271 575,-289 647,-289 647,-271 575,-271"/>
<polygon fill="none" stroke="black" points="575,-271 575,-289 647,-289 647,-271 575,-271"/>
<text text-anchor="start" x="628" y="-277.2" font-family="Helvetica,sans-Serif" font-size="11.00">2 &gt;</text>
<polygon fill="none" stroke="black" stroke-width="2" points="414,-270 414,-642 648,-642 648,-270 414,-270"/>
</a>
</g>
</g>
<!-- disposal&#45;&gt;infiltration_installation -->
<g id="edge1" class="edge">
<title>disposal:w&#45;&gt;infiltration_installation:e</title>
<path fill="none" stroke="black" d="M683.42,-985.44C626.73,-942.34 728.08,-608 648,-608"/>
<polygon fill="black" stroke="black" points="689.89,-987.54 696.39,-993.43 693.69,-988.77 697.5,-990 697.5,-990 697.5,-990 693.69,-988.77 698.61,-986.57 689.89,-987.54 689.89,-987.54"/>
<ellipse fill="none" stroke="black" cx="686.84" cy="-986.55" rx="3.2" ry="3.2"/>
</g>
<!-- wastewater_structure -->
<g id="node3" class="node">
<title>wastewater_structure</title>
<g id="a_node3"><a xlink:href="../../tables/wastewater_structure.html" xlink:title="wastewater_structure" target="_top">
<polygon fill="#ffffff" stroke="transparent" points="88.5,-669 88.5,-1079 283.5,-1079 283.5,-669 88.5,-669"/>
<polygon fill="#f5f5f5" stroke="transparent" points="89,-1057 89,-1079 284,-1079 284,-1057 89,-1057"/>
<polygon fill="none" stroke="black" points="89,-1057 89,-1079 284,-1079 284,-1057 89,-1057"/>
<text text-anchor="start" x="94" y="-1066.2" font-family="Helvetica,sans-Serif" font-weight="bold" font-size="11.00">wastewater_structure</text>
<text text-anchor="start" x="245" y="-1065.2" font-family="Helvetica,sans-Serif" font-size="11.00">[table]</text>
<polygon fill="none" stroke="black" points="89,-1035 89,-1057 284,-1057 284,-1035 89,-1035"/>
<image xlink:href="../../images/primaryKeys.png" width="11px" height="12px" preserveAspectRatio="xMinYMin meet" x="94" y="-1052"/>
<text text-anchor="start" x="109" y="-1043.2" font-family="Helvetica,sans-Serif" font-size="11.00">obj_id</text>
<polygon fill="none" stroke="black" points="89,-1013 89,-1035 284,-1035 284,-1013 89,-1013"/>
<image xlink:href="../../images/foreignKeys.png" width="11px" height="12px" preserveAspectRatio="xMinYMin meet" x="94" y="-1030"/>
<text text-anchor="start" x="109" y="-1021.2" font-family="Helvetica,sans-Serif" font-size="11.00">accessibility</text>
<polygon fill="#ffffff" stroke="transparent" points="89,-991 89,-1013 284,-1013 284,-991 89,-991"/>
<polygon fill="none" stroke="black" points="89,-991 89,-1013 284,-1013 284,-991 89,-991"/>
<text text-anchor="start" x="109" y="-999.2" font-family="Helvetica,sans-Serif" font-size="11.00">detail_geometry3d_geometry</text>
<polygon fill="none" stroke="black" points="89,-969 89,-991 284,-991 284,-969 89,-969"/>
<image xlink:href="../../images/foreignKeys.png" width="11px" height="12px" preserveAspectRatio="xMinYMin meet" x="94" y="-986"/>
<text text-anchor="start" x="109" y="-977.2" font-family="Helvetica,sans-Serif" font-size="11.00">elevation_determination</text>
<polygon fill="none" stroke="black" points="89,-947 89,-969 284,-969 284,-947 89,-947"/>
<image xlink:href="../../images/foreignKeys.png" width="11px" height="12px" preserveAspectRatio="xMinYMin meet" x="94" y="-964"/>
<text text-anchor="start" x="109" y="-955.2" font-family="Helvetica,sans-Serif" font-size="11.00">financing</text>
<polygon fill="#ffffff" stroke="transparent" points="89,-925 89,-947 284,-947 284,-925 89,-925"/>
<polygon fill="none" stroke="black" points="89,-925 89,-947 284,-947 284,-925 89,-925"/>
<text text-anchor="start" x="109" y="-933.2" font-family="Helvetica,sans-Serif" font-size="11.00">identifier</text>
<polygon fill="none" stroke="black" points="89,-903 89,-925 284,-925 284,-903 89,-903"/>
<image xlink:href="../../images/foreignKeys.png" width="11px" height="12px" preserveAspectRatio="xMinYMin meet" x="94" y="-920"/>
<text text-anchor="start" x="109" y="-911.2" font-family="Helvetica,sans-Serif" font-size="11.00">renovation_necessity</text>
<polygon fill="none" stroke="black" points="89,-881 89,-903 284,-903 284,-881 89,-881"/>
<image xlink:href="../../images/foreignKeys.png" width="11px" height="12px" preserveAspectRatio="xMinYMin meet" x="94" y="-898"/>
<text text-anchor="start" x="109" y="-889.2" font-family="Helvetica,sans-Serif" font-size="11.00">rv_construction_type</text>
<polygon fill="none" stroke="black" points="89,-859 89,-881 284,-881 284,-859 89,-859"/>
<image xlink:href="../../images/foreignKeys.png" width="11px" height="12px" preserveAspectRatio="xMinYMin meet" x="94" y="-876"/>
<text text-anchor="start" x="109" y="-867.2" font-family="Helvetica,sans-Serif" font-size="11.00">status</text>
<polygon fill="none" stroke="black" points="89,-837 89,-859 284,-859 284,-837 89,-837"/>
<image xlink:href="../../images/foreignKeys.png" width="11px" height="12px" preserveAspectRatio="xMinYMin meet" x="94" y="-854"/>
<text text-anchor="start" x="109" y="-845.2" font-family="Helvetica,sans-Serif" font-size="11.00">structure_condition</text>
<polygon fill="#ffffff" stroke="transparent" points="89,-815 89,-837 284,-837 284,-815 89,-815"/>
<polygon fill="none" stroke="black" points="89,-815 89,-837 284,-837 284,-815 89,-815"/>
<image xlink:href="../../images/foreignKeys.png" width="11px" height="12px" preserveAspectRatio="xMinYMin meet" x="94" y="-832"/>
<text text-anchor="start" x="109" y="-823.2" font-family="Helvetica,sans-Serif" font-size="11.00">fk_dataowner</text>
<polygon fill="none" stroke="black" points="89,-793 89,-815 284,-815 284,-793 89,-793"/>
<image xlink:href="../../images/foreignKeys.png" width="11px" height="12px" preserveAspectRatio="xMinYMin meet" x="94" y="-810"/>
<text text-anchor="start" x="109" y="-801.2" font-family="Helvetica,sans-Serif" font-size="11.00">fk_provider</text>
<polygon fill="none" stroke="black" points="89,-771 89,-793 284,-793 284,-771 89,-771"/>
<image xlink:href="../../images/foreignKeys.png" width="11px" height="12px" preserveAspectRatio="xMinYMin meet" x="94" y="-788"/>
<text text-anchor="start" x="109" y="-779.2" font-family="Helvetica,sans-Serif" font-size="11.00">fk_owner</text>
<polygon fill="none" stroke="black" points="89,-749 89,-771 284,-771 284,-749 89,-749"/>
<image xlink:href="../../images/foreignKeys.png" width="11px" height="12px" preserveAspectRatio="xMinYMin meet" x="94" y="-766"/>
<text text-anchor="start" x="109" y="-757.2" font-family="Helvetica,sans-Serif" font-size="11.00">fk_operator</text>
<polygon fill="none" stroke="black" points="89,-727 89,-749 284,-749 284,-727 89,-727"/>
<image xlink:href="../../images/foreignKeys.png" width="11px" height="12px" preserveAspectRatio="xMinYMin meet" x="94" y="-744"/>
<text text-anchor="start" x="109" y="-735.2" font-family="Helvetica,sans-Serif" font-size="11.00">fk_main_cover</text>
<polygon fill="none" stroke="black" points="89,-705 89,-727 284,-727 284,-705 89,-705"/>
<image xlink:href="../../images/foreignKeys.png" width="11px" height="12px" preserveAspectRatio="xMinYMin meet" x="94" y="-722"/>
<text text-anchor="start" x="109" y="-713.2" font-family="Helvetica,sans-Serif" font-size="11.00">fk_main_wastewater_node</text>
<polygon fill="none" stroke="black" points="89,-687 89,-705 284,-705 284,-687 89,-687"/>
<text text-anchor="start" x="92" y="-693.2" font-family="Helvetica,sans-Serif" font-size="11.00">...</text>
<polygon fill="#ffffff" stroke="transparent" points="89,-669 89,-687 180,-687 180,-669 89,-669"/>
<polygon fill="none" stroke="black" points="89,-669 89,-687 180,-687 180,-669 89,-669"/>
<text text-anchor="start" x="92" y="-675.2" font-family="Helvetica,sans-Serif" font-size="11.00">&lt; 13</text>
<polygon fill="#ffffff" stroke="transparent" points="180,-669 180,-687 224,-687 224,-669 180,-669"/>
<polygon fill="none" stroke="black" points="180,-669 180,-687 224,-687 224,-669 180,-669"/>
<text text-anchor="start" x="214" y="-675.2" font-family="Helvetica,sans-Serif" font-size="11.00"> &#160;</text>
<polygon fill="#ffffff" stroke="transparent" points="224,-669 224,-687 284,-687 284,-669 224,-669"/>
<polygon fill="none" stroke="black" points="224,-669 224,-687 284,-687 284,-669 224,-669"/>
<text text-anchor="start" x="259" y="-675.2" font-family="Helvetica,sans-Serif" font-size="11.00">16 &gt;</text>
</a>
</g>
</g>
<!-- disposal&#45;&gt;wastewater_structure -->
<g id="edge2" class="edge">
<title>disposal:w&#45;&gt;wastewater_structure:e</title>
<path fill="none" stroke="black" d="M682.89,-946.2C506.89,-951.2 468.67,-1046 285,-1046"/>
<polygon fill="black" stroke="black" points="689.5,-946.11 697.55,-949.6 693.5,-946.06 697.5,-946 697.5,-946 697.5,-946 693.5,-946.06 697.45,-942.4 689.5,-946.11 689.5,-946.11"/>
<ellipse fill="none" stroke="black" cx="686.3" cy="-946.16" rx="3.2" ry="3.2"/>
</g>
<!-- infiltration_installation&#45;&gt;wastewater_structure -->
<g id="edge8" class="edge">
<title>infiltration_installation:w&#45;&gt;wastewater_structure:e</title>
<path fill="none" stroke="black" d="M404.75,-612.92C359.73,-661.04 332.56,-1046 285,-1046"/>
<polygon fill="black" stroke="black" points="411.42,-604.84 415.17,-611.91 413.76,-612.66 410,-605.59 411.42,-604.84"/>
<polyline fill="none" stroke="black" points="414,-608 410.47,-609.88 "/>
<ellipse fill="none" stroke="black" cx="407.64" cy="-611.38" rx="3.2" ry="3.2"/>
</g>
<!-- tww_vl.infiltration_installation_defects -->
<g id="node4" class="node">
<title>tww_vl.infiltration_installation_defects</title>
<g id="a_node4"><a xlink:href="../../../tww_vl/tables/infiltration_installation_defects.html" xlink:title="tww_vl.infiltration_installation_defects" target="_top">
<polygon fill="#ffffff" stroke="transparent" points="48,-590 48,-648 324,-648 324,-590 48,-590"/>
<polygon fill="#f5f5f5" stroke="transparent" points="48,-626 48,-648 324,-648 324,-626 48,-626"/>
<polygon fill="none" stroke="black" points="48,-626 48,-648 324,-648 324,-626 48,-626"/>
<text text-anchor="start" x="53" y="-635.2" font-family="Helvetica,sans-Serif" font-weight="bold" font-size="11.00">tww_vl.infiltration_installation_defects</text>
<text text-anchor="start" x="285" y="-634.2" font-family="Helvetica,sans-Serif" font-size="11.00">[table]</text>
<polygon fill="none" stroke="black" points="48,-608 48,-626 324,-626 324,-608 48,-608"/>
<text text-anchor="start" x="51" y="-614.2" font-family="Helvetica,sans-Serif" font-size="11.00">...</text>
<polygon fill="#ffffff" stroke="transparent" points="48,-590 48,-608 161,-608 161,-590 48,-590"/>
<polygon fill="none" stroke="black" points="48,-590 48,-608 161,-608 161,-590 48,-590"/>
<text text-anchor="start" x="51" y="-596.2" font-family="Helvetica,sans-Serif" font-size="11.00"> &#160;</text>
<polygon fill="#ffffff" stroke="transparent" points="161,-590 161,-608 251,-608 251,-590 161,-590"/>
<polygon fill="none" stroke="black" points="161,-590 161,-608 251,-608 251,-590 161,-590"/>
<text text-anchor="start" x="214" y="-596.2" font-family="Helvetica,sans-Serif" font-size="11.00">0 rows</text>
<polygon fill="#ffffff" stroke="transparent" points="251,-590 251,-608 324,-608 324,-590 251,-590"/>
<polygon fill="none" stroke="black" points="251,-590 251,-608 324,-608 324,-590 251,-590"/>
<text text-anchor="start" x="305" y="-596.2" font-family="Helvetica,sans-Serif" font-size="11.00">1 &gt;</text>
</a>
</g>
</g>
<!-- infiltration_installation&#45;&gt;tww_vl.infiltration_installation_defects -->
<g id="edge3" class="edge">
<title>infiltration_installation:w&#45;&gt;tww_vl.infiltration_installation_defects:e</title>
<path fill="none" stroke="black" d="M399.61,-566.28C390.8,-569.44 385.25,-575.22 372,-579 359.2,-582.65 345.82,-586.15 332.37,-589.45"/>
<polygon fill="black" stroke="black" points="406.1,-565.25 414.56,-567.56 410.05,-564.62 414,-564 414,-564 414,-564 410.05,-564.62 413.44,-560.44 406.1,-565.25 406.1,-565.25"/>
<ellipse fill="none" stroke="black" cx="402.94" cy="-565.75" rx="3.2" ry="3.2"/>
</g>
<!-- tww_vl.infiltration_installation_emergency_overflow -->
<g id="node5" class="node">
<title>tww_vl.infiltration_installation_emergency_overflow</title>
<g id="a_node5"><a xlink:href="../../../tww_vl/tables/infiltration_installation_emerg_740c6ac9.html" xlink:title="tww_vl.infiltration_installation_emergency_overflow" target="_top">
<polygon fill="#ffffff" stroke="transparent" points="8,-511 8,-569 364,-569 364,-511 8,-511"/>
<polygon fill="#f5f5f5" stroke="transparent" points="8,-547 8,-569 364,-569 364,-547 8,-547"/>
<polygon fill="none" stroke="black" points="8,-547 8,-569 364,-569 364,-547 8,-547"/>
<text text-anchor="start" x="13" y="-556.2" font-family="Helvetica,sans-Serif" font-weight="bold" font-size="11.00">tww_vl.infiltration_installation_emergency_overflow</text>
<text text-anchor="start" x="325" y="-555.2" font-family="Helvetica,sans-Serif" font-size="11.00">[table]</text>
<polygon fill="none" stroke="black" points="8,-529 8,-547 364,-547 364,-529 8,-529"/>
<text text-anchor="start" x="11" y="-535.2" font-family="Helvetica,sans-Serif" font-size="11.00">...</text>
<polygon fill="#ffffff" stroke="transparent" points="8,-511 8,-529 161,-529 161,-511 8,-511"/>
<polygon fill="none" stroke="black" points="8,-511 8,-529 161,-529 161,-511 8,-511"/>
<text text-anchor="start" x="11" y="-517.2" font-family="Helvetica,sans-Serif" font-size="11.00"> &#160;</text>
<polygon fill="#ffffff" stroke="transparent" points="161,-511 161,-529 271,-529 271,-511 161,-511"/>
<polygon fill="none" stroke="black" points="161,-511 161,-529 271,-529 271,-511 161,-511"/>
<text text-anchor="start" x="234" y="-517.2" font-family="Helvetica,sans-Serif" font-size="11.00">0 rows</text>
<polygon fill="#ffffff" stroke="transparent" points="271,-511 271,-529 364,-529 364,-511 271,-511"/>
<polygon fill="none" stroke="black" points="271,-511 271,-529 364,-529 364,-511 271,-511"/>
<text text-anchor="start" x="345" y="-517.2" font-family="Helvetica,sans-Serif" font-size="11.00">1 &gt;</text>
</a>
</g>
</g>
<!-- infiltration_installation&#45;&gt;tww_vl.infiltration_installation_emergency_overflow -->
<g id="edge4" class="edge">
<title>infiltration_installation:w&#45;&gt;tww_vl.infiltration_installation_emergency_overflow:e</title>
<path fill="none" stroke="black" d="M400.11,-458.37C388.97,-467.65 390.56,-489.33 372,-500 367.73,-502.46 363.32,-504.76 358.81,-506.93"/>
<polygon fill="black" stroke="black" points="406.37,-456.4 415.08,-457.43 410.18,-455.2 414,-454 414,-454 414,-454 410.18,-455.2 412.92,-450.57 406.37,-456.4 406.37,-456.4"/>
<ellipse fill="none" stroke="black" cx="403.32" cy="-457.36" rx="3.2" ry="3.2"/>
</g>
<!-- tww_vl.infiltration_installation_filling_material -->
<g id="node6" class="node">
<title>tww_vl.infiltration_installation_filling_material</title>
<g id="a_node6"><a xlink:href="../../../tww_vl/tables/infiltration_installation_fillin_6e94000.html" xlink:title="tww_vl.infiltration_installation_filling_material" target="_top">
<polygon fill="#ffffff" stroke="transparent" points="24.5,-432 24.5,-490 347.5,-490 347.5,-432 24.5,-432"/>
<polygon fill="#f5f5f5" stroke="transparent" points="25,-468 25,-490 348,-490 348,-468 25,-468"/>
<polygon fill="none" stroke="black" points="25,-468 25,-490 348,-490 348,-468 25,-468"/>
<text text-anchor="start" x="30" y="-477.2" font-family="Helvetica,sans-Serif" font-weight="bold" font-size="11.00">tww_vl.infiltration_installation_filling_material</text>
<text text-anchor="start" x="309" y="-476.2" font-family="Helvetica,sans-Serif" font-size="11.00">[table]</text>
<polygon fill="none" stroke="black" points="25,-450 25,-468 348,-468 348,-450 25,-450"/>
<text text-anchor="start" x="28" y="-456.2" font-family="Helvetica,sans-Serif" font-size="11.00">...</text>
<polygon fill="#ffffff" stroke="transparent" points="25,-432 25,-450 162,-450 162,-432 25,-432"/>
<polygon fill="none" stroke="black" points="25,-432 25,-450 162,-450 162,-432 25,-432"/>
<text text-anchor="start" x="28" y="-438.2" font-family="Helvetica,sans-Serif" font-size="11.00"> &#160;</text>
<polygon fill="#ffffff" stroke="transparent" points="162,-432 162,-450 264,-450 264,-432 162,-432"/>
<polygon fill="none" stroke="black" points="162,-432 162,-450 264,-450 264,-432 162,-432"/>
<text text-anchor="start" x="227" y="-438.2" font-family="Helvetica,sans-Serif" font-size="11.00">0 rows</text>
<polygon fill="#ffffff" stroke="transparent" points="264,-432 264,-450 348,-450 348,-432 264,-432"/>
<polygon fill="none" stroke="black" points="264,-432 264,-450 348,-450 348,-432 264,-432"/>
<text text-anchor="start" x="329" y="-438.2" font-family="Helvetica,sans-Serif" font-size="11.00">1 &gt;</text>
</a>
</g>
</g>
<!-- infiltration_installation&#45;&gt;tww_vl.infiltration_installation_filling_material -->
<g id="edge5" class="edge">
<title>infiltration_installation:w&#45;&gt;tww_vl.infiltration_installation_filling_material:e</title>
<path fill="none" stroke="black" d="M399.18,-432.19C384.83,-432.56 370.17,-433.43 355.59,-434.65"/>
<polygon fill="black" stroke="black" points="406,-432.11 414.05,-435.6 410,-432.05 414,-432 414,-432 414,-432 410,-432.05 413.95,-428.4 406,-432.11 406,-432.11"/>
<ellipse fill="none" stroke="black" cx="402.8" cy="-432.15" rx="3.2" ry="3.2"/>
</g>
<!-- tww_vl.infiltration_installation_kind -->
<g id="node7" class="node">
<title>tww_vl.infiltration_installation_kind</title>
<g id="a_node7"><a xlink:href="../../../tww_vl/tables/infiltration_installation_kind.html" xlink:title="tww_vl.infiltration_installation_kind" target="_top">
<polygon fill="#ffffff" stroke="transparent" points="56.5,-353 56.5,-411 315.5,-411 315.5,-353 56.5,-353"/>
<polygon fill="#f5f5f5" stroke="transparent" points="57,-389 57,-411 316,-411 316,-389 57,-389"/>
<polygon fill="none" stroke="black" points="57,-389 57,-411 316,-411 316,-389 57,-389"/>
<text text-anchor="start" x="62" y="-398.2" font-family="Helvetica,sans-Serif" font-weight="bold" font-size="11.00">tww_vl.infiltration_installation_kind</text>
<text text-anchor="start" x="277" y="-397.2" font-family="Helvetica,sans-Serif" font-size="11.00">[table]</text>
<polygon fill="none" stroke="black" points="57,-371 57,-389 316,-389 316,-371 57,-371"/>
<text text-anchor="start" x="60" y="-377.2" font-family="Helvetica,sans-Serif" font-size="11.00">...</text>
<polygon fill="#ffffff" stroke="transparent" points="57,-353 57,-371 162,-371 162,-353 57,-353"/>
<polygon fill="none" stroke="black" points="57,-353 57,-371 162,-371 162,-353 57,-353"/>
<text text-anchor="start" x="60" y="-359.2" font-family="Helvetica,sans-Serif" font-size="11.00"> &#160;</text>
<polygon fill="#ffffff" stroke="transparent" points="162,-353 162,-371 248,-371 248,-353 162,-353"/>
<polygon fill="none" stroke="black" points="162,-353 162,-371 248,-371 248,-353 162,-353"/>
<text text-anchor="start" x="211" y="-359.2" font-family="Helvetica,sans-Serif" font-size="11.00">0 rows</text>
<polygon fill="#ffffff" stroke="transparent" points="248,-353 248,-371 316,-371 316,-353 248,-353"/>
<polygon fill="none" stroke="black" points="248,-353 248,-371 316,-371 316,-353 248,-353"/>
<text text-anchor="start" x="297" y="-359.2" font-family="Helvetica,sans-Serif" font-size="11.00">1 &gt;</text>
</a>
</g>
</g>
<!-- infiltration_installation&#45;&gt;tww_vl.infiltration_installation_kind -->
<g id="edge6" class="edge">
<title>infiltration_installation:w&#45;&gt;tww_vl.infiltration_installation_kind:e</title>
<path fill="none" stroke="black" d="M399.39,-409.82C374.37,-409.21 348.37,-407.11 323.51,-404.33"/>
<polygon fill="black" stroke="black" points="406,-409.9 413.95,-413.6 410,-409.95 414,-410 414,-410 414,-410 410,-409.95 414.05,-406.4 406,-409.9 406,-409.9"/>
<ellipse fill="none" stroke="black" cx="402.8" cy="-409.86" rx="3.2" ry="3.2"/>
</g>
<!-- tww_vl.infiltration_installation_labeling -->
<g id="node8" class="node">
<title>tww_vl.infiltration_installation_labeling</title>
<g id="a_node8"><a xlink:href="../../../tww_vl/tables/infiltration_installation_labeling.html" xlink:title="tww_vl.infiltration_installation_labeling" target="_top">
<polygon fill="#ffffff" stroke="transparent" points="46,-274 46,-332 326,-332 326,-274 46,-274"/>
<polygon fill="#f5f5f5" stroke="transparent" points="46,-310 46,-332 326,-332 326,-310 46,-310"/>
<polygon fill="none" stroke="black" points="46,-310 46,-332 326,-332 326,-310 46,-310"/>
<text text-anchor="start" x="51" y="-319.2" font-family="Helvetica,sans-Serif" font-weight="bold" font-size="11.00">tww_vl.infiltration_installation_labeling</text>
<text text-anchor="start" x="287" y="-318.2" font-family="Helvetica,sans-Serif" font-size="11.00">[table]</text>
<polygon fill="none" stroke="black" points="46,-292 46,-310 326,-310 326,-292 46,-292"/>
<text text-anchor="start" x="49" y="-298.2" font-family="Helvetica,sans-Serif" font-size="11.00">...</text>
<polygon fill="#ffffff" stroke="transparent" points="46,-274 46,-292 161,-292 161,-274 46,-274"/>
<polygon fill="none" stroke="black" points="46,-274 46,-292 161,-292 161,-274 46,-274"/>
<text text-anchor="start" x="49" y="-280.2" font-family="Helvetica,sans-Serif" font-size="11.00"> &#160;</text>
<polygon fill="#ffffff" stroke="transparent" points="161,-274 161,-292 252,-292 252,-274 161,-274"/>
<polygon fill="none" stroke="black" points="161,-274 161,-292 252,-292 252,-274 161,-274"/>
<text text-anchor="start" x="215" y="-280.2" font-family="Helvetica,sans-Serif" font-size="11.00">0 rows</text>
<polygon fill="#ffffff" stroke="transparent" points="252,-274 252,-292 326,-292 326,-274 252,-274"/>
<polygon fill="none" stroke="black" points="252,-274 252,-292 326,-292 326,-274 252,-274"/>
<text text-anchor="start" x="307" y="-280.2" font-family="Helvetica,sans-Serif" font-size="11.00">1 &gt;</text>
</a>
</g>
</g>
<!-- infiltration_installation&#45;&gt;tww_vl.infiltration_installation_labeling -->
<g id="edge7" class="edge">
<title>infiltration_installation:w&#45;&gt;tww_vl.infiltration_installation_labeling:e</title>
<path fill="none" stroke="black" d="M400.12,-383.62C388.99,-374.33 390.59,-352.63 372,-342 360.17,-335.24 347.32,-329.65 334.08,-325.02"/>
<polygon fill="black" stroke="black" points="406.37,-385.59 412.92,-391.43 410.19,-386.8 414,-388 414,-388 414,-388 410.19,-386.8 415.08,-384.57 406.37,-385.59 406.37,-385.59"/>
<ellipse fill="none" stroke="black" cx="403.32" cy="-384.63" rx="3.2" ry="3.2"/>
</g>
<!-- tww_vl.infiltration_installation_seepage_utilization -->
<g id="node9" class="node">
<title>tww_vl.infiltration_installation_seepage_utilization</title>
<g id="a_node9"><a xlink:href="../../../tww_vl/tables/infiltration_installation_seepa_9b5eaa0c.html" xlink:title="tww_vl.infiltration_installation_seepage_utilization" target="_top">
<polygon fill="#ffffff" stroke="transparent" points="12.5,-195 12.5,-253 359.5,-253 359.5,-195 12.5,-195"/>
<polygon fill="#f5f5f5" stroke="transparent" points="13,-231 13,-253 360,-253 360,-231 13,-231"/>
<polygon fill="none" stroke="black" points="13,-231 13,-253 360,-253 360,-231 13,-231"/>
<text text-anchor="start" x="18" y="-240.2" font-family="Helvetica,sans-Serif" font-weight="bold" font-size="11.00">tww_vl.infiltration_installation_seepage_utilization</text>
<text text-anchor="start" x="321" y="-239.2" font-family="Helvetica,sans-Serif" font-size="11.00">[table]</text>
<polygon fill="none" stroke="black" points="13,-213 13,-231 360,-231 360,-213 13,-213"/>
<text text-anchor="start" x="16" y="-219.2" font-family="Helvetica,sans-Serif" font-size="11.00">...</text>
<polygon fill="#ffffff" stroke="transparent" points="13,-195 13,-213 162,-213 162,-195 13,-195"/>
<polygon fill="none" stroke="black" points="13,-195 13,-213 162,-213 162,-195 13,-195"/>
<text text-anchor="start" x="16" y="-201.2" font-family="Helvetica,sans-Serif" font-size="11.00"> &#160;</text>
<polygon fill="#ffffff" stroke="transparent" points="162,-195 162,-213 270,-213 270,-195 162,-195"/>
<polygon fill="none" stroke="black" points="162,-195 162,-213 270,-213 270,-195 162,-195"/>
<text text-anchor="start" x="233" y="-201.2" font-family="Helvetica,sans-Serif" font-size="11.00">0 rows</text>
<polygon fill="#ffffff" stroke="transparent" points="270,-195 270,-213 360,-213 360,-195 270,-195"/>
<polygon fill="none" stroke="black" points="270,-195 270,-213 360,-213 360,-195 270,-195"/>
<text text-anchor="start" x="341" y="-201.2" font-family="Helvetica,sans-Serif" font-size="11.00">1 &gt;</text>
</a>
</g>
</g>
<!-- infiltration_installation&#45;&gt;tww_vl.infiltration_installation_seepage_utilization -->
<g id="edge9" class="edge">
<title>infiltration_installation:w&#45;&gt;tww_vl.infiltration_installation_seepage_utilization:e</title>
<path fill="none" stroke="black" d="M399.9,-363.06C374.33,-349.31 405.35,-290.85 372,-263 369.61,-261 367.14,-259.1 364.6,-257.28"/>
<polygon fill="black" stroke="black" points="406.17,-364.37 413.27,-369.52 410.08,-365.18 414,-366 414,-366 414,-366 410.08,-365.18 414.73,-362.48 406.17,-364.37 406.17,-364.37"/>
<ellipse fill="none" stroke="black" cx="403.04" cy="-363.71" rx="3.2" ry="3.2"/>
</g>
<!-- tww_vl.infiltration_installation_vehicle_access -->
<g id="node10" class="node">
<title>tww_vl.infiltration_installation_vehicle_access</title>
<g id="a_node10"><a xlink:href="../../../tww_vl/tables/infiltration_installation_vehicle_access.html" xlink:title="tww_vl.infiltration_installation_vehicle_access" target="_top">
<polygon fill="#ffffff" stroke="transparent" points="27,-116 27,-174 345,-174 345,-116 27,-116"/>
<polygon fill="#f5f5f5" stroke="transparent" points="27,-152 27,-174 345,-174 345,-152 27,-152"/>
<polygon fill="none" stroke="black" points="27,-152 27,-174 345,-174 345,-152 27,-152"/>
<text text-anchor="start" x="32" y="-161.2" font-family="Helvetica,sans-Serif" font-weight="bold" font-size="11.00">tww_vl.infiltration_installation_vehicle_access</text>
<text text-anchor="start" x="306" y="-160.2" font-family="Helvetica,sans-Serif" font-size="11.00">[table]</text>
<polygon fill="none" stroke="black" points="27,-134 27,-152 345,-152 345,-134 27,-134"/>
<text text-anchor="start" x="30" y="-140.2" font-family="Helvetica,sans-Serif" font-size="11.00">...</text>
<polygon fill="#ffffff" stroke="transparent" points="27,-116 27,-134 161,-134 161,-116 27,-116"/>
<polygon fill="none" stroke="black" points="27,-116 27,-134 161,-134 161,-116 27,-116"/>
<text text-anchor="start" x="30" y="-122.2" font-family="Helvetica,sans-Serif" font-size="11.00"> &#160;</text>
<polygon fill="#ffffff" stroke="transparent" points="161,-116 161,-134 262,-134 262,-116 161,-116"/>
<polygon fill="none" stroke="black" points="161,-116 161,-134 262,-134 262,-116 161,-116"/>
<text text-anchor="start" x="225" y="-122.2" font-family="Helvetica,sans-Serif" font-size="11.00">0 rows</text>
<polygon fill="#ffffff" stroke="transparent" points="262,-116 262,-134 345,-134 345,-116 262,-116"/>
<polygon fill="none" stroke="black" points="262,-116 262,-134 345,-134 345,-116 262,-116"/>
<text text-anchor="start" x="326" y="-122.2" font-family="Helvetica,sans-Serif" font-size="11.00">1 &gt;</text>
</a>
</g>
</g>
<!-- infiltration_installation&#45;&gt;tww_vl.infiltration_installation_vehicle_access -->
<g id="edge10" class="edge">
<title>infiltration_installation:w&#45;&gt;tww_vl.infiltration_installation_vehicle_access:e</title>
<path fill="none" stroke="black" d="M399.28,-319.62C361.87,-304.7 414.84,-223.24 372,-184 366.19,-178.68 359.84,-174.01 353.11,-169.93"/>
<polygon fill="black" stroke="black" points="406.1,-320.72 413.43,-325.55 410.05,-321.36 414,-322 414,-322 414,-322 410.05,-321.36 414.57,-318.45 406.1,-320.72 406.1,-320.72"/>
<ellipse fill="none" stroke="black" cx="402.94" cy="-320.21" rx="3.2" ry="3.2"/>
</g>
<!-- tww_vl.infiltration_installation_watertightness -->
<g id="node11" class="node">
<title>tww_vl.infiltration_installation_watertightness</title>
<g id="a_node11"><a xlink:href="../../../tww_vl/tables/infiltration_installation_watertightness.html" xlink:title="tww_vl.infiltration_installation_watertightness" target="_top">
<polygon fill="#ffffff" stroke="transparent" points="24.5,-37 24.5,-95 347.5,-95 347.5,-37 24.5,-37"/>
<polygon fill="#f5f5f5" stroke="transparent" points="25,-73 25,-95 348,-95 348,-73 25,-73"/>
<polygon fill="none" stroke="black" points="25,-73 25,-95 348,-95 348,-73 25,-73"/>
<text text-anchor="start" x="30" y="-82.2" font-family="Helvetica,sans-Serif" font-weight="bold" font-size="11.00">tww_vl.infiltration_installation_watertightness</text>
<text text-anchor="start" x="309" y="-81.2" font-family="Helvetica,sans-Serif" font-size="11.00">[table]</text>
<polygon fill="none" stroke="black" points="25,-55 25,-73 348,-73 348,-55 25,-55"/>
<text text-anchor="start" x="28" y="-61.2" font-family="Helvetica,sans-Serif" font-size="11.00">...</text>
<polygon fill="#ffffff" stroke="transparent" points="25,-37 25,-55 162,-55 162,-37 25,-37"/>
<polygon fill="none" stroke="black" points="25,-37 25,-55 162,-55 162,-37 25,-37"/>
<text text-anchor="start" x="28" y="-43.2" font-family="Helvetica,sans-Serif" font-size="11.00"> &#160;</text>
<polygon fill="#ffffff" stroke="transparent" points="162,-37 162,-55 264,-55 264,-37 162,-37"/>
<polygon fill="none" stroke="black" points="162,-37 162,-55 264,-55 264,-37 162,-37"/>
<text text-anchor="start" x="227" y="-43.2" font-family="Helvetica,sans-Serif" font-size="11.00">0 rows</text>
<polygon fill="#ffffff" stroke="transparent" points="264,-37 264,-55 348,-55 348,-37 264,-37"/>
<polygon fill="none" stroke="black" points="264,-37 264,-55 348,-55 348,-37 264,-37"/>
<text text-anchor="start" x="329" y="-43.2" font-family="Helvetica,sans-Serif" font-size="11.00">1 &gt;</text>
</a>
</g>
</g>
<!-- infiltration_installation&#45;&gt;tww_vl.infiltration_installation_watertightness -->
<g id="edge11" class="edge">
<title>infiltration_installation:w&#45;&gt;tww_vl.infiltration_installation_watertightness:e</title>
<path fill="none" stroke="black" d="M399.61,-298.5C338.36,-283.72 430.9,-163.64 372,-105 367,-100.02 361.53,-95.6 355.72,-91.69"/>
<polygon fill="black" stroke="black" points="406.04,-299.17 413.63,-303.58 410.02,-299.58 414,-300 414,-300 414,-300 410.02,-299.58 414.37,-296.42 406.04,-299.17 406.04,-299.17"/>
<ellipse fill="none" stroke="black" cx="402.86" cy="-298.84" rx="3.2" ry="3.2"/>
</g>
<!-- retention_body -->
<g id="node12" class="node">
<title>retention_body</title>
<g id="a_node12"><a xlink:href="../../tables/retention_body.html" xlink:title="retention_body" target="_top">
<polygon fill="#ffffff" stroke="transparent" points="698,-561 698,-751 875,-751 875,-561 698,-561"/>
<polygon fill="#f5f5f5" stroke="transparent" points="698.5,-729 698.5,-751 875.5,-751 875.5,-729 698.5,-729"/>
<polygon fill="none" stroke="black" points="698.5,-729 698.5,-751 875.5,-751 875.5,-729 698.5,-729"/>
<text text-anchor="start" x="703.5" y="-738.2" font-family="Helvetica,sans-Serif" font-weight="bold" font-size="11.00">retention_body</text>
<text text-anchor="start" x="836.5" y="-737.2" font-family="Helvetica,sans-Serif" font-size="11.00">[table]</text>
<polygon fill="none" stroke="black" points="698.5,-707 698.5,-729 875.5,-729 875.5,-707 698.5,-707"/>
<image xlink:href="../../images/primaryKeys.png" width="11px" height="12px" preserveAspectRatio="xMinYMin meet" x="703.5" y="-724"/>
<text text-anchor="start" x="718.5" y="-715.2" font-family="Helvetica,sans-Serif" font-size="11.00">obj_id</text>
<polygon fill="#ffffff" stroke="transparent" points="698.5,-685 698.5,-707 875.5,-707 875.5,-685 698.5,-685"/>
<polygon fill="none" stroke="black" points="698.5,-685 698.5,-707 875.5,-707 875.5,-685 698.5,-685"/>
<text text-anchor="start" x="718.5" y="-693.2" font-family="Helvetica,sans-Serif" font-size="11.00">identifier</text>
<polygon fill="none" stroke="black" points="698.5,-663 698.5,-685 875.5,-685 875.5,-663 698.5,-663"/>
<image xlink:href="../../images/foreignKeys.png" width="11px" height="12px" preserveAspectRatio="xMinYMin meet" x="703.5" y="-680"/>
<text text-anchor="start" x="718.5" y="-671.2" font-family="Helvetica,sans-Serif" font-size="11.00">kind</text>
<polygon fill="#ffffff" stroke="transparent" points="698.5,-641 698.5,-663 875.5,-663 875.5,-641 698.5,-641"/>
<polygon fill="none" stroke="black" points="698.5,-641 698.5,-663 875.5,-663 875.5,-641 698.5,-641"/>
<image xlink:href="../../images/foreignKeys.png" width="11px" height="12px" preserveAspectRatio="xMinYMin meet" x="703.5" y="-658"/>
<text text-anchor="start" x="718.5" y="-649.2" font-family="Helvetica,sans-Serif" font-size="11.00">fk_dataowner</text>
<polygon fill="none" stroke="black" points="698.5,-619 698.5,-641 875.5,-641 875.5,-619 698.5,-619"/>
<image xlink:href="../../images/foreignKeys.png" width="11px" height="12px" preserveAspectRatio="xMinYMin meet" x="703.5" y="-636"/>
<text text-anchor="start" x="718.5" y="-627.2" font-family="Helvetica,sans-Serif" font-size="11.00">fk_provider</text>
<polygon fill="none" stroke="black" points="698.5,-597 698.5,-619 875.5,-619 875.5,-597 698.5,-597"/>
<image xlink:href="../../images/foreignKeys.png" width="11px" height="12px" preserveAspectRatio="xMinYMin meet" x="703.5" y="-614"/>
<text text-anchor="start" x="718.5" y="-605.2" font-family="Helvetica,sans-Serif" font-size="11.00">fk_infiltration_installation</text>
<polygon fill="none" stroke="black" points="698.5,-579 698.5,-597 875.5,-597 875.5,-579 698.5,-579"/>
<text text-anchor="start" x="701.5" y="-585.2" font-family="Helvetica,sans-Serif" font-size="11.00">...</text>
<polygon fill="#ffffff" stroke="transparent" points="698.5,-561 698.5,-579 784.5,-579 784.5,-561 698.5,-561"/>
<polygon fill="none" stroke="black" points="698.5,-561 698.5,-579 784.5,-579 784.5,-561 698.5,-561"/>
<text text-anchor="start" x="701.5" y="-567.2" font-family="Helvetica,sans-Serif" font-size="11.00">&lt; 4</text>
<polygon fill="#ffffff" stroke="transparent" points="784.5,-561 784.5,-579 829.5,-579 829.5,-561 784.5,-561"/>
<polygon fill="none" stroke="black" points="784.5,-561 784.5,-579 829.5,-579 829.5,-561 784.5,-561"/>
<text text-anchor="start" x="819.5" y="-567.2" font-family="Helvetica,sans-Serif" font-size="11.00"> &#160;</text>
<polygon fill="#ffffff" stroke="transparent" points="829.5,-561 829.5,-579 875.5,-579 875.5,-561 829.5,-561"/>
<polygon fill="none" stroke="black" points="829.5,-561 829.5,-579 875.5,-579 875.5,-561 829.5,-561"/>
<text text-anchor="start" x="865.5" y="-567.2" font-family="Helvetica,sans-Serif" font-size="11.00"> &#160;</text>
</a>
</g>
</g>
<!-- retention_body&#45;&gt;infiltration_installation -->
<g id="edge12" class="edge">
<title>retention_body:w&#45;&gt;infiltration_installation:e</title>
<path fill="none" stroke="black" d="M682.84,-608C671.41,-608 664.16,-608 648,-608"/>
<polygon fill="black" stroke="black" points="689.5,-608 697.5,-611.6 693.5,-608 697.5,-608 697.5,-608 697.5,-608 693.5,-608 697.5,-604.4 689.5,-608 689.5,-608"/>
<ellipse fill="none" stroke="black" cx="686.3" cy="-608" rx="3.2" ry="3.2"/>
</g>
</g>
</svg>
