<?xml version="1.0" encoding="UTF-8" standalone="no"?>
<!DOCTYPE svg PUBLIC "-//W3C//DTD SVG 1.1//EN"
 "http://www.w3.org/Graphics/SVG/1.1/DTD/svg11.dtd">
<!-- Generated by graphviz version 2.43.0 (0)
 -->
<!-- Title: oneDegreeRelationshipsDiagram Pages: 1 -->
<svg width="497pt" height="362pt"
 viewBox="0.00 0.00 497.00 362.00" xmlns="http://www.w3.org/2000/svg" xmlns:xlink="http://www.w3.org/1999/xlink">
<g id="graph0" class="graph" transform="scale(1 1) rotate(0) translate(4 358)">
<title>oneDegreeRelationshipsDiagram</title>
<polygon fill="#ffffff" stroke="transparent" points="-4,4 -4,-358 493,-358 493,4 -4,4"/>
<text text-anchor="middle" x="79.5" y="-7.2" font-family="Helvetica,sans-Serif" font-size="11.00">Generated by SchemaSpy</text>
<!-- maintenance -->
<g id="node1" class="node">
<title>maintenance</title>
<g id="a_node1"><a xlink:href="../../tables/maintenance.html" xlink:title="maintenance" target="_top">
<polygon fill="#ffffff" stroke="transparent" points="291,-149 291,-237 481,-237 481,-149 291,-149"/>
<polygon fill="#f5f5f5" stroke="transparent" points="293,-213 293,-235 479,-235 479,-213 293,-213"/>
<polygon fill="none" stroke="black" points="293,-213 293,-235 479,-235 479,-213 293,-213"/>
<text text-anchor="start" x="298" y="-222.2" font-family="Helvetica,sans-Serif" font-weight="bold" font-size="11.00">maintenance</text>
<text text-anchor="start" x="437" y="-221.2" font-family="Helvetica,sans-Serif" font-size="11.00">[table]</text>
<polygon fill="none" stroke="black" points="293,-191 293,-213 408,-213 408,-191 293,-191"/>
<image xlink:href="../../images/primaryKeys.png" width="11px" height="12px" preserveAspectRatio="xMinYMin meet" x="298" y="-208"/>
<text text-anchor="start" x="313" y="-199.2" font-family="Helvetica,sans-Serif" font-size="11.00">obj_id</text>
<polygon fill="none" stroke="black" points="408,-191 408,-213 479,-213 479,-191 408,-191"/>
<text text-anchor="start" x="411" y="-199.2" font-family="Helvetica,sans-Serif" font-size="11.00">varchar[16]</text>
<polygon fill="none" stroke="black" points="293,-169 293,-191 408,-191 408,-169 293,-169"/>
<image xlink:href="../../images/foreignKeys.png" width="11px" height="12px" preserveAspectRatio="xMinYMin meet" x="298" y="-186"/>
<text text-anchor="start" x="313" y="-177.2" font-family="Helvetica,sans-Serif" font-size="11.00">kind</text>
<polygon fill="none" stroke="black" points="408,-169 408,-191 479,-191 479,-169 408,-169"/>
<text text-anchor="start" x="411" y="-177.2" font-family="Helvetica,sans-Serif" font-size="11.00">int4[10]</text>
<polygon fill="#ffffff" stroke="transparent" points="293,-151 293,-169 479,-169 479,-151 293,-151"/>
<polygon fill="none" stroke="black" points="293,-151 293,-169 479,-169 479,-151 293,-151"/>
<polygon fill="#ffffff" stroke="transparent" points="294,-152 294,-168 360,-168 360,-152 294,-152"/>
<text text-anchor="start" x="296" y="-157.2" font-family="Helvetica,sans-Serif" font-size="11.00">&lt; 2</text>
<polygon fill="#ffffff" stroke="transparent" points="360,-152 360,-168 413,-168 413,-152 360,-152"/>
<text text-anchor="start" x="382.5" y="-157.2" font-family="Helvetica,sans-Serif" font-size="11.00"> &#160;</text>
<polygon fill="#ffffff" stroke="transparent" points="413,-152 413,-168 478,-168 478,-152 413,-152"/>
<text text-anchor="start" x="456" y="-157.2" font-family="Helvetica,sans-Serif" font-size="11.00">0 &gt;</text>
<polygon fill="black" stroke="black" points="360,-152 360,-168 360,-168 360,-152 360,-152"/>
<polygon fill="black" stroke="black" points="413,-152 413,-168 413,-168 413,-152 413,-152"/>
<polygon fill="none" stroke="black" stroke-width="2" points="292,-150 292,-236 480,-236 480,-150 292,-150"/>
</a>
</g>
</g>
<!-- tww_vl.maintenance_kind -->
<g id="node2" class="node">
<title>tww_vl.maintenance_kind</title>
<g id="a_node2"><a xlink:href="../../../tww_vl/tables/maintenance_kind.html" xlink:title="tww_vl.maintenance_kind" target="_top">
<polygon fill="#ffffff" stroke="transparent" points="8,-37 8,-95 242,-95 242,-37 8,-37"/>
<polygon fill="#f5f5f5" stroke="transparent" points="8,-73 8,-95 242,-95 242,-73 8,-73"/>
<polygon fill="none" stroke="black" points="8,-73 8,-95 242,-95 242,-73 8,-73"/>
<text text-anchor="start" x="13" y="-82.2" font-family="Helvetica,sans-Serif" font-weight="bold" font-size="11.00">tww_vl.maintenance_kind</text>
<text text-anchor="start" x="200" y="-81.2" font-family="Helvetica,sans-Serif" font-size="11.00">[table]</text>
<polygon fill="none" stroke="black" points="8,-55 8,-73 242,-73 242,-55 8,-55"/>
<text text-anchor="start" x="11" y="-61.2" font-family="Helvetica,sans-Serif" font-size="11.00">...</text>
<polygon fill="#ffffff" stroke="transparent" points="8,-37 8,-55 242,-55 242,-37 8,-37"/>
<polygon fill="none" stroke="black" points="8,-37 8,-55 242,-55 242,-37 8,-37"/>
<polygon fill="#ffffff" stroke="transparent" points="9,-38 9,-54 73,-54 73,-38 9,-38"/>
<text text-anchor="start" x="11" y="-43.2" font-family="Helvetica,sans-Serif" font-size="11.00"> &#160;</text>
<polygon fill="#ffffff" stroke="transparent" points="73,-38 73,-54 166,-54 166,-38 73,-38"/>
<text text-anchor="start" x="101" y="-43.2" font-family="Helvetica,sans-Serif" font-size="11.00">0 rows</text>
<polygon fill="#ffffff" stroke="transparent" points="166,-38 166,-54 241,-54 241,-38 166,-38"/>
<text text-anchor="start" x="219" y="-43.2" font-family="Helvetica,sans-Serif" font-size="11.00">1 &gt;</text>
<polygon fill="black" stroke="black" points="73,-38 73,-54 73,-54 73,-38 73,-38"/>
<polygon fill="black" stroke="black" points="166,-38 166,-54 166,-54 166,-38 166,-38"/>
</a>
</g>
</g>
<!-- maintenance&#45;&gt;tww_vl.maintenance_kind -->
<g id="edge1" class="edge">
<title>maintenance:w&#45;&gt;tww_vl.maintenance_kind:e</title>
<path fill="none" stroke="black" d="M277.95,-176.29C260.97,-164.26 274.52,-125.96 250,-106 247.02,-103.57 243.89,-101.29 240.63,-99.15"/>
<polygon fill="black" stroke="black" points="284.27,-177.96 291.08,-183.48 288.13,-178.98 292,-180 292,-180 292,-180 288.13,-178.98 292.92,-176.52 284.27,-177.96 284.27,-177.96"/>
<ellipse fill="none" stroke="black" cx="281.17" cy="-177.14" rx="3.2" ry="3.2"/>
</g>
<!-- maintenance_event -->
<g id="node3" class="node">
<title>maintenance_event</title>
<g id="a_node3"><a xlink:href="../../tables/maintenance_event.html" xlink:title="maintenance_event" target="_top">
<polygon fill="#ffffff" stroke="transparent" points="30.5,-116 30.5,-350 219.5,-350 219.5,-116 30.5,-116"/>
<polygon fill="#f5f5f5" stroke="transparent" points="31,-328 31,-350 220,-350 220,-328 31,-328"/>
<polygon fill="none" stroke="black" points="31,-328 31,-350 220,-350 220,-328 31,-328"/>
<text text-anchor="start" x="36" y="-337.2" font-family="Helvetica,sans-Serif" font-weight="bold" font-size="11.00">maintenance_event</text>
<text text-anchor="start" x="178" y="-336.2" font-family="Helvetica,sans-Serif" font-size="11.00">[table]</text>
<polygon fill="none" stroke="black" points="31,-306 31,-328 220,-328 220,-306 31,-306"/>
<image xlink:href="../../images/primaryKeys.png" width="11px" height="12px" preserveAspectRatio="xMinYMin meet" x="36" y="-323"/>
<text text-anchor="start" x="53" y="-314.2" font-family="Helvetica,sans-Serif" font-size="11.00">obj_id</text>
<polygon fill="#ffffff" stroke="transparent" points="31,-284 31,-306 220,-306 220,-284 31,-284"/>
<polygon fill="none" stroke="black" points="31,-284 31,-306 220,-306 220,-284 31,-284"/>
<text text-anchor="start" x="53" y="-292.2" font-family="Helvetica,sans-Serif" font-size="11.00">identifier</text>
<polygon fill="none" stroke="black" points="31,-262 31,-284 220,-284 220,-262 31,-262"/>
<image xlink:href="../../images/foreignKeys.png" width="11px" height="12px" preserveAspectRatio="xMinYMin meet" x="36" y="-279"/>
<text text-anchor="start" x="53" y="-270.2" font-family="Helvetica,sans-Serif" font-size="11.00">status</text>
<polygon fill="#ffffff" stroke="transparent" points="31,-240 31,-262 220,-262 220,-240 31,-240"/>
<polygon fill="none" stroke="black" points="31,-240 31,-262 220,-262 220,-240 31,-240"/>
<text text-anchor="start" x="53" y="-248.2" font-family="Helvetica,sans-Serif" font-size="11.00">time_point</text>
<polygon fill="#ffffff" stroke="transparent" points="31,-218 31,-240 220,-240 220,-218 31,-218"/>
<polygon fill="none" stroke="black" points="31,-218 31,-240 220,-240 220,-218 31,-218"/>
<image xlink:href="../../images/foreignKeys.png" width="11px" height="12px" preserveAspectRatio="xMinYMin meet" x="36" y="-235"/>
<text text-anchor="start" x="53" y="-226.2" font-family="Helvetica,sans-Serif" font-size="11.00">fk_dataowner</text>
<polygon fill="none" stroke="black" points="31,-196 31,-218 220,-218 220,-196 31,-196"/>
<image xlink:href="../../images/foreignKeys.png" width="11px" height="12px" preserveAspectRatio="xMinYMin meet" x="36" y="-213"/>
<text text-anchor="start" x="53" y="-204.2" font-family="Helvetica,sans-Serif" font-size="11.00">fk_provider</text>
<polygon fill="none" stroke="black" points="31,-174 31,-196 220,-196 220,-174 31,-174"/>
<image xlink:href="../../images/foreignKeys.png" width="11px" height="12px" preserveAspectRatio="xMinYMin meet" x="36" y="-191"/>
<text text-anchor="start" x="53" y="-182.2" font-family="Helvetica,sans-Serif" font-size="11.00">fk_operating_company</text>
<polygon fill="none" stroke="black" points="31,-152 31,-174 220,-174 220,-152 31,-152"/>
<image xlink:href="../../images/foreignKeys.png" width="11px" height="12px" preserveAspectRatio="xMinYMin meet" x="36" y="-169"/>
<text text-anchor="start" x="53" y="-160.2" font-family="Helvetica,sans-Serif" font-size="11.00">fk_measure</text>
<polygon fill="none" stroke="black" points="31,-134 31,-152 220,-152 220,-134 31,-134"/>
<text text-anchor="start" x="34" y="-140.2" font-family="Helvetica,sans-Serif" font-size="11.00">...</text>
<polygon fill="#ffffff" stroke="transparent" points="31,-116 31,-134 220,-134 220,-116 31,-116"/>
<polygon fill="none" stroke="black" points="31,-116 31,-134 220,-134 220,-116 31,-116"/>
<polygon fill="#ffffff" stroke="transparent" points="32,-117 32,-133 99,-133 99,-117 32,-117"/>
<text text-anchor="start" x="34" y="-122.2" font-family="Helvetica,sans-Serif" font-size="11.00">&lt; 5</text>
<polygon fill="#ffffff" stroke="transparent" points="99,-117 99,-133 153,-133 153,-117 99,-117"/>
<text text-anchor="start" x="122" y="-122.2" font-family="Helvetica,sans-Serif" font-size="11.00"> &#160;</text>
<polygon fill="#ffffff" stroke="transparent" points="153,-117 153,-133 219,-133 219,-117 153,-117"/>
<text text-anchor="start" x="197" y="-122.2" font-family="Helvetica,sans-Serif" font-size="11.00">4 &gt;</text>
<polygon fill="black" stroke="black" points="99,-117 99,-133 99,-133 99,-117 99,-117"/>
<polygon fill="black" stroke="black" points="153,-117 153,-133 153,-133 153,-117 153,-117"/>
</a>
</g>
</g>
<!-- maintenance&#45;&gt;maintenance_event -->
<g id="edge2" class="edge">
<title>maintenance:w&#45;&gt;maintenance_event:e</title>
<path fill="none" stroke="black" d="M281.69,-203.37C237.81,-216.35 277.2,-317 221,-317"/>
<polygon fill="black" stroke="black" points="290.68,-198.14 291.73,-206.07 290.15,-206.28 289.09,-198.35 290.68,-198.14"/>
<polyline fill="none" stroke="black" points="292,-202 288.03,-202.53 "/>
<ellipse fill="none" stroke="black" cx="284.86" cy="-202.95" rx="3.2" ry="3.2"/>
</g>
</g>
</svg>
