<?xml version="1.0" encoding="UTF-8" standalone="no"?>
<!DOCTYPE svg PUBLIC "-//W3C//DTD SVG 1.1//EN"
 "http://www.w3.org/Graphics/SVG/1.1/DTD/svg11.dtd">
<!-- Generated by graphviz version 2.43.0 (0)
 -->
<!-- Title: oneDegreeRelationshipsDiagram Pages: 1 -->
<svg width="684pt" height="854pt"
 viewBox="0.00 0.00 684.00 854.00" xmlns="http://www.w3.org/2000/svg" xmlns:xlink="http://www.w3.org/1999/xlink">
<g id="graph0" class="graph" transform="scale(1 1) rotate(0) translate(4 850)">
<title>oneDegreeRelationshipsDiagram</title>
<polygon fill="#ffffff" stroke="transparent" points="-4,4 -4,-850 680,-850 680,4 -4,4"/>
<text text-anchor="middle" x="79.5" y="-7.2" font-family="Helvetica,sans-Serif" font-size="11.00">Generated by SchemaSpy</text>
<!-- manhole -->
<g id="node1" class="node">
<title>manhole</title>
<g id="a_node1"><a xlink:href="../../tables/manhole.html" xlink:title="manhole" target="_top">
<polygon fill="#ffffff" stroke="transparent" points="400,-155 400,-397 668,-397 668,-155 400,-155"/>
<polygon fill="#f5f5f5" stroke="transparent" points="402,-373 402,-395 666,-395 666,-373 402,-373"/>
<polygon fill="none" stroke="black" points="402,-373 402,-395 666,-395 666,-373 402,-373"/>
<text text-anchor="start" x="407" y="-382.2" font-family="Helvetica,sans-Serif" font-weight="bold" font-size="11.00">manhole</text>
<text text-anchor="start" x="624" y="-381.2" font-family="Helvetica,sans-Serif" font-size="11.00">[table]</text>
<polygon fill="none" stroke="black" points="402,-351 402,-373 595,-373 595,-351 402,-351"/>
<image xlink:href="../../images/primaryKeys.png" width="11px" height="12px" preserveAspectRatio="xMinYMin meet" x="407" y="-368"/>
<text text-anchor="start" x="422" y="-359.2" font-family="Helvetica,sans-Serif" font-size="11.00">obj_id</text>
<polygon fill="none" stroke="black" points="595,-351 595,-373 666,-373 666,-351 595,-351"/>
<text text-anchor="start" x="598" y="-359.2" font-family="Helvetica,sans-Serif" font-size="11.00">varchar[16]</text>
<polygon fill="none" stroke="black" points="402,-329 402,-351 595,-351 595,-329 402,-329"/>
<image xlink:href="../../images/foreignKeys.png" width="11px" height="12px" preserveAspectRatio="xMinYMin meet" x="407" y="-346"/>
<text text-anchor="start" x="422" y="-337.2" font-family="Helvetica,sans-Serif" font-size="11.00">amphibian_exit</text>
<polygon fill="none" stroke="black" points="595,-329 595,-351 666,-351 666,-329 595,-329"/>
<text text-anchor="start" x="598" y="-337.2" font-family="Helvetica,sans-Serif" font-size="11.00">int4[10]</text>
<polygon fill="none" stroke="black" points="402,-307 402,-329 595,-329 595,-307 402,-307"/>
<text text-anchor="start" x="422" y="-315.2" font-family="Helvetica,sans-Serif" font-size="11.00">dimension1</text>
<polygon fill="none" stroke="black" points="595,-307 595,-329 666,-329 666,-307 595,-307"/>
<text text-anchor="start" x="598" y="-315.2" font-family="Helvetica,sans-Serif" font-size="11.00">int2[5]</text>
<polygon fill="none" stroke="black" points="402,-285 402,-307 595,-307 595,-285 402,-285"/>
<text text-anchor="start" x="422" y="-293.2" font-family="Helvetica,sans-Serif" font-size="11.00">dimension2</text>
<polygon fill="none" stroke="black" points="595,-285 595,-307 666,-307 666,-285 595,-285"/>
<text text-anchor="start" x="598" y="-293.2" font-family="Helvetica,sans-Serif" font-size="11.00">int2[5]</text>
<polygon fill="#ffffff" stroke="transparent" points="402,-263 402,-285 595,-285 595,-263 402,-263"/>
<polygon fill="none" stroke="black" points="402,-263 402,-285 595,-285 595,-263 402,-263"/>
<image xlink:href="../../images/foreignKeys.png" width="11px" height="12px" preserveAspectRatio="xMinYMin meet" x="407" y="-280"/>
<text text-anchor="start" x="422" y="-271.2" font-family="Helvetica,sans-Serif" font-size="11.00">function</text>
<polygon fill="none" stroke="black" points="595,-263 595,-285 666,-285 666,-263 595,-263"/>
<text text-anchor="start" x="598" y="-271.2" font-family="Helvetica,sans-Serif" font-size="11.00">int4[10]</text>
<polygon fill="none" stroke="black" points="402,-241 402,-263 595,-263 595,-241 402,-241"/>
<image xlink:href="../../images/foreignKeys.png" width="11px" height="12px" preserveAspectRatio="xMinYMin meet" x="407" y="-258"/>
<text text-anchor="start" x="422" y="-249.2" font-family="Helvetica,sans-Serif" font-size="11.00">material</text>
<polygon fill="none" stroke="black" points="595,-241 595,-263 666,-263 666,-241 595,-241"/>
<text text-anchor="start" x="598" y="-249.2" font-family="Helvetica,sans-Serif" font-size="11.00">int4[10]</text>
<polygon fill="none" stroke="black" points="402,-219 402,-241 595,-241 595,-219 402,-219"/>
<image xlink:href="../../images/foreignKeys.png" width="11px" height="12px" preserveAspectRatio="xMinYMin meet" x="407" y="-236"/>
<text text-anchor="start" x="422" y="-227.2" font-family="Helvetica,sans-Serif" font-size="11.00">possibility_intervention</text>
<polygon fill="none" stroke="black" points="595,-219 595,-241 666,-241 666,-219 595,-219"/>
<text text-anchor="start" x="598" y="-227.2" font-family="Helvetica,sans-Serif" font-size="11.00">int4[10]</text>
<polygon fill="none" stroke="black" points="402,-197 402,-219 595,-219 595,-197 402,-197"/>
<image xlink:href="../../images/foreignKeys.png" width="11px" height="12px" preserveAspectRatio="xMinYMin meet" x="407" y="-214"/>
<text text-anchor="start" x="422" y="-205.2" font-family="Helvetica,sans-Serif" font-size="11.00">surface_inflow</text>
<polygon fill="none" stroke="black" points="595,-197 595,-219 666,-219 666,-197 595,-197"/>
<text text-anchor="start" x="598" y="-205.2" font-family="Helvetica,sans-Serif" font-size="11.00">int4[10]</text>
<polygon fill="none" stroke="black" points="402,-175 402,-197 595,-197 595,-175 402,-175"/>
<text text-anchor="start" x="422" y="-183.2" font-family="Helvetica,sans-Serif" font-size="11.00">_orientation</text>
<polygon fill="none" stroke="black" points="595,-175 595,-197 666,-197 666,-175 595,-175"/>
<text text-anchor="start" x="598" y="-183.2" font-family="Helvetica,sans-Serif" font-size="11.00">numeric[0]</text>
<polygon fill="#ffffff" stroke="transparent" points="402,-157 402,-175 666,-175 666,-157 402,-157"/>
<polygon fill="none" stroke="black" points="402,-157 402,-175 666,-175 666,-157 402,-157"/>
<polygon fill="#ffffff" stroke="transparent" points="403,-158 403,-174 495,-174 495,-158 403,-158"/>
<text text-anchor="start" x="405" y="-163.2" font-family="Helvetica,sans-Serif" font-size="11.00">&lt; 6</text>
<polygon fill="#ffffff" stroke="transparent" points="495,-158 495,-174 574,-174 574,-158 495,-158"/>
<text text-anchor="start" x="530.5" y="-163.2" font-family="Helvetica,sans-Serif" font-size="11.00"> &#160;</text>
<polygon fill="#ffffff" stroke="transparent" points="574,-158 574,-174 665,-174 665,-158 574,-158"/>
<text text-anchor="start" x="643" y="-163.2" font-family="Helvetica,sans-Serif" font-size="11.00">0 &gt;</text>
<polygon fill="black" stroke="black" points="495,-158 495,-174 495,-174 495,-158 495,-158"/>
<polygon fill="black" stroke="black" points="574,-158 574,-174 574,-174 574,-158 574,-158"/>
<polygon fill="none" stroke="black" stroke-width="2" points="401,-156 401,-396 667,-396 667,-156 401,-156"/>
</a>
</g>
</g>
<!-- tww_vl.manhole_amphibian_exit -->
<g id="node2" class="node">
<title>tww_vl.manhole_amphibian_exit</title>
<g id="a_node2"><a xlink:href="../../../tww_vl/tables/manhole_amphibian_exit.html" xlink:title="tww_vl.manhole_amphibian_exit" target="_top">
<polygon fill="#ffffff" stroke="transparent" points="38.5,-353 38.5,-411 320.5,-411 320.5,-353 38.5,-353"/>
<polygon fill="#f5f5f5" stroke="transparent" points="38.5,-389 38.5,-411 320.5,-411 320.5,-389 38.5,-389"/>
<polygon fill="none" stroke="black" points="38.5,-389 38.5,-411 320.5,-411 320.5,-389 38.5,-389"/>
<text text-anchor="start" x="43.5" y="-398.2" font-family="Helvetica,sans-Serif" font-weight="bold" font-size="11.00">tww_vl.manhole_amphibian_exit</text>
<text text-anchor="start" x="278.5" y="-397.2" font-family="Helvetica,sans-Serif" font-size="11.00">[table]</text>
<polygon fill="none" stroke="black" points="38.5,-371 38.5,-389 320.5,-389 320.5,-371 38.5,-371"/>
<text text-anchor="start" x="41.5" y="-377.2" font-family="Helvetica,sans-Serif" font-size="11.00">...</text>
<polygon fill="#ffffff" stroke="transparent" points="38.5,-353 38.5,-371 320.5,-371 320.5,-353 38.5,-353"/>
<polygon fill="none" stroke="black" points="38.5,-353 38.5,-371 320.5,-371 320.5,-353 38.5,-353"/>
<polygon fill="#ffffff" stroke="transparent" points="39.5,-354 39.5,-370 119.5,-370 119.5,-354 39.5,-354"/>
<text text-anchor="start" x="41.5" y="-359.2" font-family="Helvetica,sans-Serif" font-size="11.00"> &#160;</text>
<polygon fill="#ffffff" stroke="transparent" points="119.5,-354 119.5,-370 228.5,-370 228.5,-354 119.5,-354"/>
<text text-anchor="start" x="155.5" y="-359.2" font-family="Helvetica,sans-Serif" font-size="11.00">0 rows</text>
<polygon fill="#ffffff" stroke="transparent" points="228.5,-354 228.5,-370 319.5,-370 319.5,-354 228.5,-354"/>
<text text-anchor="start" x="297.5" y="-359.2" font-family="Helvetica,sans-Serif" font-size="11.00">1 &gt;</text>
<polygon fill="black" stroke="black" points="119.5,-354 119.5,-370 119.5,-370 119.5,-354 119.5,-354"/>
<polygon fill="black" stroke="black" points="228.5,-354 228.5,-370 228.5,-370 228.5,-354 228.5,-354"/>
</a>
</g>
</g>
<!-- manhole&#45;&gt;tww_vl.manhole_amphibian_exit -->
<g id="edge1" class="edge">
<title>manhole:w&#45;&gt;tww_vl.manhole_amphibian_exit:e</title>
<path fill="none" stroke="black" d="M386.41,-340.81C371,-342.25 350.59,-345.5 328.61,-349.58"/>
<polygon fill="black" stroke="black" points="393.01,-340.44 401.2,-343.59 397.01,-340.22 401,-340 401,-340 401,-340 397.01,-340.22 400.8,-336.41 393.01,-340.44 393.01,-340.44"/>
<ellipse fill="none" stroke="black" cx="389.82" cy="-340.62" rx="3.2" ry="3.2"/>
</g>
<!-- tww_vl.manhole_function -->
<g id="node3" class="node">
<title>tww_vl.manhole_function</title>
<g id="a_node3"><a xlink:href="../../../tww_vl/tables/manhole_function.html" xlink:title="tww_vl.manhole_function" target="_top">
<polygon fill="#ffffff" stroke="transparent" points="64,-274 64,-332 295,-332 295,-274 64,-274"/>
<polygon fill="#f5f5f5" stroke="transparent" points="64.5,-310 64.5,-332 295.5,-332 295.5,-310 64.5,-310"/>
<polygon fill="none" stroke="black" points="64.5,-310 64.5,-332 295.5,-332 295.5,-310 64.5,-310"/>
<text text-anchor="start" x="69.5" y="-319.2" font-family="Helvetica,sans-Serif" font-weight="bold" font-size="11.00">tww_vl.manhole_function</text>
<text text-anchor="start" x="253.5" y="-318.2" font-family="Helvetica,sans-Serif" font-size="11.00">[table]</text>
<polygon fill="none" stroke="black" points="64.5,-292 64.5,-310 295.5,-310 295.5,-292 64.5,-292"/>
<text text-anchor="start" x="67.5" y="-298.2" font-family="Helvetica,sans-Serif" font-size="11.00">...</text>
<polygon fill="#ffffff" stroke="transparent" points="64.5,-274 64.5,-292 295.5,-292 295.5,-274 64.5,-274"/>
<polygon fill="none" stroke="black" points="64.5,-274 64.5,-292 295.5,-292 295.5,-274 64.5,-274"/>
<polygon fill="#ffffff" stroke="transparent" points="65.5,-275 65.5,-291 128.5,-291 128.5,-275 65.5,-275"/>
<text text-anchor="start" x="67.5" y="-280.2" font-family="Helvetica,sans-Serif" font-size="11.00"> &#160;</text>
<polygon fill="#ffffff" stroke="transparent" points="128.5,-275 128.5,-291 220.5,-291 220.5,-275 128.5,-275"/>
<text text-anchor="start" x="156" y="-280.2" font-family="Helvetica,sans-Serif" font-size="11.00">0 rows</text>
<polygon fill="#ffffff" stroke="transparent" points="220.5,-275 220.5,-291 294.5,-291 294.5,-275 220.5,-275"/>
<text text-anchor="start" x="272.5" y="-280.2" font-family="Helvetica,sans-Serif" font-size="11.00">1 &gt;</text>
<polygon fill="black" stroke="black" points="128.5,-275 128.5,-291 128.5,-291 128.5,-275 128.5,-275"/>
<polygon fill="black" stroke="black" points="220.5,-275 220.5,-291 220.5,-291 220.5,-275 220.5,-275"/>
</a>
</g>
</g>
<!-- manhole&#45;&gt;tww_vl.manhole_function -->
<g id="edge2" class="edge">
<title>manhole:w&#45;&gt;tww_vl.manhole_function:e</title>
<path fill="none" stroke="black" d="M386.29,-274.2C358.78,-274.94 330.08,-277.63 303.17,-281.09"/>
<polygon fill="black" stroke="black" points="393,-274.11 401.05,-277.6 397,-274.06 401,-274 401,-274 401,-274 397,-274.06 400.95,-270.4 393,-274.11 393,-274.11"/>
<ellipse fill="none" stroke="black" cx="389.8" cy="-274.15" rx="3.2" ry="3.2"/>
</g>
<!-- tww_vl.manhole_material -->
<g id="node4" class="node">
<title>tww_vl.manhole_material</title>
<g id="a_node4"><a xlink:href="../../../tww_vl/tables/manhole_material.html" xlink:title="tww_vl.manhole_material" target="_top">
<polygon fill="#ffffff" stroke="transparent" points="63.5,-195 63.5,-253 295.5,-253 295.5,-195 63.5,-195"/>
<polygon fill="#f5f5f5" stroke="transparent" points="63.5,-231 63.5,-253 295.5,-253 295.5,-231 63.5,-231"/>
<polygon fill="none" stroke="black" points="63.5,-231 63.5,-253 295.5,-253 295.5,-231 63.5,-231"/>
<text text-anchor="start" x="68.5" y="-240.2" font-family="Helvetica,sans-Serif" font-weight="bold" font-size="11.00">tww_vl.manhole_material</text>
<text text-anchor="start" x="253.5" y="-239.2" font-family="Helvetica,sans-Serif" font-size="11.00">[table]</text>
<polygon fill="none" stroke="black" points="63.5,-213 63.5,-231 295.5,-231 295.5,-213 63.5,-213"/>
<text text-anchor="start" x="66.5" y="-219.2" font-family="Helvetica,sans-Serif" font-size="11.00">...</text>
<polygon fill="#ffffff" stroke="transparent" points="63.5,-195 63.5,-213 295.5,-213 295.5,-195 63.5,-195"/>
<polygon fill="none" stroke="black" points="63.5,-195 63.5,-213 295.5,-213 295.5,-195 63.5,-195"/>
<polygon fill="#ffffff" stroke="transparent" points="64.5,-196 64.5,-212 127.5,-212 127.5,-196 64.5,-196"/>
<text text-anchor="start" x="66.5" y="-201.2" font-family="Helvetica,sans-Serif" font-size="11.00"> &#160;</text>
<polygon fill="#ffffff" stroke="transparent" points="127.5,-196 127.5,-212 219.5,-212 219.5,-196 127.5,-196"/>
<text text-anchor="start" x="155" y="-201.2" font-family="Helvetica,sans-Serif" font-size="11.00">0 rows</text>
<polygon fill="#ffffff" stroke="transparent" points="219.5,-196 219.5,-212 294.5,-212 294.5,-196 219.5,-196"/>
<text text-anchor="start" x="272.5" y="-201.2" font-family="Helvetica,sans-Serif" font-size="11.00">1 &gt;</text>
<polygon fill="black" stroke="black" points="127.5,-196 127.5,-212 127.5,-212 127.5,-196 127.5,-196"/>
<polygon fill="black" stroke="black" points="219.5,-196 219.5,-212 219.5,-212 219.5,-196 219.5,-196"/>
</a>
</g>
</g>
<!-- manhole&#45;&gt;tww_vl.manhole_material -->
<g id="edge3" class="edge">
<title>manhole:w&#45;&gt;tww_vl.manhole_material:e</title>
<path fill="none" stroke="black" d="M386.39,-251.81C359.06,-251.1 330.55,-248.53 303.77,-245.22"/>
<polygon fill="black" stroke="black" points="393,-251.89 400.95,-255.6 397,-251.95 401,-252 401,-252 401,-252 397,-251.95 401.05,-248.4 393,-251.89 393,-251.89"/>
<ellipse fill="none" stroke="black" cx="389.8" cy="-251.85" rx="3.2" ry="3.2"/>
</g>
<!-- wastewater_structure -->
<g id="node5" class="node">
<title>wastewater_structure</title>
<g id="a_node5"><a xlink:href="../../tables/wastewater_structure.html" xlink:title="wastewater_structure" target="_top">
<polygon fill="#ffffff" stroke="transparent" points="62,-432 62,-842 297,-842 297,-432 62,-432"/>
<polygon fill="#f5f5f5" stroke="transparent" points="62.5,-820 62.5,-842 297.5,-842 297.5,-820 62.5,-820"/>
<polygon fill="none" stroke="black" points="62.5,-820 62.5,-842 297.5,-842 297.5,-820 62.5,-820"/>
<text text-anchor="start" x="67.5" y="-829.2" font-family="Helvetica,sans-Serif" font-weight="bold" font-size="11.00">wastewater_structure</text>
<text text-anchor="start" x="255.5" y="-828.2" font-family="Helvetica,sans-Serif" font-size="11.00">[table]</text>
<polygon fill="none" stroke="black" points="62.5,-798 62.5,-820 297.5,-820 297.5,-798 62.5,-798"/>
<image xlink:href="../../images/primaryKeys.png" width="11px" height="12px" preserveAspectRatio="xMinYMin meet" x="67.5" y="-815"/>
<text text-anchor="start" x="82.5" y="-806.2" font-family="Helvetica,sans-Serif" font-size="11.00">obj_id</text>
<polygon fill="none" stroke="black" points="62.5,-776 62.5,-798 297.5,-798 297.5,-776 62.5,-776"/>
<image xlink:href="../../images/foreignKeys.png" width="11px" height="12px" preserveAspectRatio="xMinYMin meet" x="67.5" y="-793"/>
<text text-anchor="start" x="82.5" y="-784.2" font-family="Helvetica,sans-Serif" font-size="11.00">accessibility</text>
<polygon fill="#ffffff" stroke="transparent" points="62.5,-754 62.5,-776 297.5,-776 297.5,-754 62.5,-754"/>
<polygon fill="none" stroke="black" points="62.5,-754 62.5,-776 297.5,-776 297.5,-754 62.5,-754"/>
<text text-anchor="start" x="82.5" y="-762.2" font-family="Helvetica,sans-Serif" font-size="11.00">detail_geometry3d_geometry</text>
<polygon fill="none" stroke="black" points="62.5,-732 62.5,-754 297.5,-754 297.5,-732 62.5,-732"/>
<image xlink:href="../../images/foreignKeys.png" width="11px" height="12px" preserveAspectRatio="xMinYMin meet" x="67.5" y="-749"/>
<text text-anchor="start" x="82.5" y="-740.2" font-family="Helvetica,sans-Serif" font-size="11.00">elevation_determination</text>
<polygon fill="none" stroke="black" points="62.5,-710 62.5,-732 297.5,-732 297.5,-710 62.5,-710"/>
<image xlink:href="../../images/foreignKeys.png" width="11px" height="12px" preserveAspectRatio="xMinYMin meet" x="67.5" y="-727"/>
<text text-anchor="start" x="82.5" y="-718.2" font-family="Helvetica,sans-Serif" font-size="11.00">financing</text>
<polygon fill="#ffffff" stroke="transparent" points="62.5,-688 62.5,-710 297.5,-710 297.5,-688 62.5,-688"/>
<polygon fill="none" stroke="black" points="62.5,-688 62.5,-710 297.5,-710 297.5,-688 62.5,-688"/>
<text text-anchor="start" x="82.5" y="-696.2" font-family="Helvetica,sans-Serif" font-size="11.00">identifier</text>
<polygon fill="none" stroke="black" points="62.5,-666 62.5,-688 297.5,-688 297.5,-666 62.5,-666"/>
<image xlink:href="../../images/foreignKeys.png" width="11px" height="12px" preserveAspectRatio="xMinYMin meet" x="67.5" y="-683"/>
<text text-anchor="start" x="82.5" y="-674.2" font-family="Helvetica,sans-Serif" font-size="11.00">renovation_necessity</text>
<polygon fill="none" stroke="black" points="62.5,-644 62.5,-666 297.5,-666 297.5,-644 62.5,-644"/>
<image xlink:href="../../images/foreignKeys.png" width="11px" height="12px" preserveAspectRatio="xMinYMin meet" x="67.5" y="-661"/>
<text text-anchor="start" x="82.5" y="-652.2" font-family="Helvetica,sans-Serif" font-size="11.00">rv_construction_type</text>
<polygon fill="none" stroke="black" points="62.5,-622 62.5,-644 297.5,-644 297.5,-622 62.5,-622"/>
<image xlink:href="../../images/foreignKeys.png" width="11px" height="12px" preserveAspectRatio="xMinYMin meet" x="67.5" y="-639"/>
<text text-anchor="start" x="82.5" y="-630.2" font-family="Helvetica,sans-Serif" font-size="11.00">status</text>
<polygon fill="none" stroke="black" points="62.5,-600 62.5,-622 297.5,-622 297.5,-600 62.5,-600"/>
<image xlink:href="../../images/foreignKeys.png" width="11px" height="12px" preserveAspectRatio="xMinYMin meet" x="67.5" y="-617"/>
<text text-anchor="start" x="82.5" y="-608.2" font-family="Helvetica,sans-Serif" font-size="11.00">structure_condition</text>
<polygon fill="#ffffff" stroke="transparent" points="62.5,-578 62.5,-600 297.5,-600 297.5,-578 62.5,-578"/>
<polygon fill="none" stroke="black" points="62.5,-578 62.5,-600 297.5,-600 297.5,-578 62.5,-578"/>
<image xlink:href="../../images/foreignKeys.png" width="11px" height="12px" preserveAspectRatio="xMinYMin meet" x="67.5" y="-595"/>
<text text-anchor="start" x="82.5" y="-586.2" font-family="Helvetica,sans-Serif" font-size="11.00">fk_dataowner</text>
<polygon fill="none" stroke="black" points="62.5,-556 62.5,-578 297.5,-578 297.5,-556 62.5,-556"/>
<image xlink:href="../../images/foreignKeys.png" width="11px" height="12px" preserveAspectRatio="xMinYMin meet" x="67.5" y="-573"/>
<text text-anchor="start" x="82.5" y="-564.2" font-family="Helvetica,sans-Serif" font-size="11.00">fk_provider</text>
<polygon fill="none" stroke="black" points="62.5,-534 62.5,-556 297.5,-556 297.5,-534 62.5,-534"/>
<image xlink:href="../../images/foreignKeys.png" width="11px" height="12px" preserveAspectRatio="xMinYMin meet" x="67.5" y="-551"/>
<text text-anchor="start" x="82.5" y="-542.2" font-family="Helvetica,sans-Serif" font-size="11.00">fk_owner</text>
<polygon fill="none" stroke="black" points="62.5,-512 62.5,-534 297.5,-534 297.5,-512 62.5,-512"/>
<image xlink:href="../../images/foreignKeys.png" width="11px" height="12px" preserveAspectRatio="xMinYMin meet" x="67.5" y="-529"/>
<text text-anchor="start" x="82.5" y="-520.2" font-family="Helvetica,sans-Serif" font-size="11.00">fk_operator</text>
<polygon fill="none" stroke="black" points="62.5,-490 62.5,-512 297.5,-512 297.5,-490 62.5,-490"/>
<image xlink:href="../../images/foreignKeys.png" width="11px" height="12px" preserveAspectRatio="xMinYMin meet" x="67.5" y="-507"/>
<text text-anchor="start" x="82.5" y="-498.2" font-family="Helvetica,sans-Serif" font-size="11.00">fk_main_cover</text>
<polygon fill="none" stroke="black" points="62.5,-468 62.5,-490 297.5,-490 297.5,-468 62.5,-468"/>
<image xlink:href="../../images/foreignKeys.png" width="11px" height="12px" preserveAspectRatio="xMinYMin meet" x="67.5" y="-485"/>
<text text-anchor="start" x="82.5" y="-476.2" font-family="Helvetica,sans-Serif" font-size="11.00">fk_main_wastewater_node</text>
<polygon fill="none" stroke="black" points="62.5,-450 62.5,-468 297.5,-468 297.5,-450 62.5,-450"/>
<text text-anchor="start" x="65.5" y="-456.2" font-family="Helvetica,sans-Serif" font-size="11.00">...</text>
<polygon fill="#ffffff" stroke="transparent" points="62.5,-432 62.5,-450 297.5,-450 297.5,-432 62.5,-432"/>
<polygon fill="none" stroke="black" points="62.5,-432 62.5,-450 297.5,-450 297.5,-432 62.5,-432"/>
<polygon fill="#ffffff" stroke="transparent" points="63.5,-433 63.5,-449 147.5,-449 147.5,-433 63.5,-433"/>
<text text-anchor="start" x="65.5" y="-438.2" font-family="Helvetica,sans-Serif" font-size="11.00">&lt; 13</text>
<polygon fill="#ffffff" stroke="transparent" points="147.5,-433 147.5,-449 212.5,-449 212.5,-433 147.5,-433"/>
<text text-anchor="start" x="176" y="-438.2" font-family="Helvetica,sans-Serif" font-size="11.00"> &#160;</text>
<polygon fill="#ffffff" stroke="transparent" points="212.5,-433 212.5,-449 296.5,-449 296.5,-433 212.5,-433"/>
<text text-anchor="start" x="267.5" y="-438.2" font-family="Helvetica,sans-Serif" font-size="11.00">17 &gt;</text>
<polygon fill="black" stroke="black" points="147.5,-433 147.5,-449 147.5,-449 147.5,-433 147.5,-433"/>
<polygon fill="black" stroke="black" points="212.5,-433 212.5,-449 212.5,-449 212.5,-433 212.5,-433"/>
</a>
</g>
</g>
<!-- manhole&#45;&gt;wastewater_structure -->
<g id="edge4" class="edge">
<title>manhole:w&#45;&gt;wastewater_structure:e</title>
<path fill="none" stroke="black" d="M391.75,-367.33C349.76,-417.76 346.17,-809 298.5,-809"/>
<polygon fill="black" stroke="black" points="398.31,-358.93 402.3,-365.87 400.92,-366.66 396.92,-359.73 398.31,-358.93"/>
<polyline fill="none" stroke="black" points="401,-362 397.53,-364 "/>
<ellipse fill="none" stroke="black" cx="394.76" cy="-365.59" rx="3.2" ry="3.2"/>
</g>
<!-- tww_vl.manhole_possibility_intervention -->
<g id="node6" class="node">
<title>tww_vl.manhole_possibility_intervention</title>
<g id="a_node6"><a xlink:href="../../../tww_vl/tables/manhole_possibility_intervention.html" xlink:title="tww_vl.manhole_possibility_intervention" target="_top">
<polygon fill="#ffffff" stroke="transparent" points="8,-116 8,-174 351,-174 351,-116 8,-116"/>
<polygon fill="#f5f5f5" stroke="transparent" points="8.5,-152 8.5,-174 351.5,-174 351.5,-152 8.5,-152"/>
<polygon fill="none" stroke="black" points="8.5,-152 8.5,-174 351.5,-174 351.5,-152 8.5,-152"/>
<text text-anchor="start" x="13.5" y="-161.2" font-family="Helvetica,sans-Serif" font-weight="bold" font-size="11.00">tww_vl.manhole_possibility_intervention</text>
<text text-anchor="start" x="309.5" y="-160.2" font-family="Helvetica,sans-Serif" font-size="11.00">[table]</text>
<polygon fill="none" stroke="black" points="8.5,-134 8.5,-152 351.5,-152 351.5,-134 8.5,-134"/>
<text text-anchor="start" x="11.5" y="-140.2" font-family="Helvetica,sans-Serif" font-size="11.00">...</text>
<polygon fill="#ffffff" stroke="transparent" points="8.5,-116 8.5,-134 351.5,-134 351.5,-116 8.5,-116"/>
<polygon fill="none" stroke="black" points="8.5,-116 8.5,-134 351.5,-134 351.5,-116 8.5,-116"/>
<polygon fill="#ffffff" stroke="transparent" points="9.5,-117 9.5,-133 109.5,-133 109.5,-117 9.5,-117"/>
<text text-anchor="start" x="11.5" y="-122.2" font-family="Helvetica,sans-Serif" font-size="11.00"> &#160;</text>
<polygon fill="#ffffff" stroke="transparent" points="109.5,-117 109.5,-133 238.5,-133 238.5,-117 109.5,-117"/>
<text text-anchor="start" x="155.5" y="-122.2" font-family="Helvetica,sans-Serif" font-size="11.00">0 rows</text>
<polygon fill="#ffffff" stroke="transparent" points="238.5,-117 238.5,-133 350.5,-133 350.5,-117 238.5,-117"/>
<text text-anchor="start" x="328.5" y="-122.2" font-family="Helvetica,sans-Serif" font-size="11.00">1 &gt;</text>
<polygon fill="black" stroke="black" points="109.5,-117 109.5,-133 109.5,-133 109.5,-117 109.5,-117"/>
<polygon fill="black" stroke="black" points="238.5,-117 238.5,-133 238.5,-133 238.5,-117 238.5,-117"/>
</a>
</g>
</g>
<!-- manhole&#45;&gt;tww_vl.manhole_possibility_intervention -->
<g id="edge5" class="edge">
<title>manhole:w&#45;&gt;tww_vl.manhole_possibility_intervention:e</title>
<path fill="none" stroke="black" d="M387.21,-225.74C376.08,-216.68 377.36,-195.52 359,-185 354.73,-182.55 350.32,-180.26 345.81,-178.1"/>
<polygon fill="black" stroke="black" points="393.36,-227.64 399.94,-233.44 397.18,-228.82 401,-230 401,-230 401,-230 397.18,-228.82 402.06,-226.56 393.36,-227.64 393.36,-227.64"/>
<ellipse fill="none" stroke="black" cx="390.3" cy="-226.69" rx="3.2" ry="3.2"/>
</g>
<!-- tww_vl.manhole_surface_inflow -->
<g id="node7" class="node">
<title>tww_vl.manhole_surface_inflow</title>
<g id="a_node7"><a xlink:href="../../../tww_vl/tables/manhole_surface_inflow.html" xlink:title="tww_vl.manhole_surface_inflow" target="_top">
<polygon fill="#ffffff" stroke="transparent" points="41.5,-37 41.5,-95 317.5,-95 317.5,-37 41.5,-37"/>
<polygon fill="#f5f5f5" stroke="transparent" points="41.5,-73 41.5,-95 317.5,-95 317.5,-73 41.5,-73"/>
<polygon fill="none" stroke="black" points="41.5,-73 41.5,-95 317.5,-95 317.5,-73 41.5,-73"/>
<text text-anchor="start" x="46.5" y="-82.2" font-family="Helvetica,sans-Serif" font-weight="bold" font-size="11.00">tww_vl.manhole_surface_inflow</text>
<text text-anchor="start" x="275.5" y="-81.2" font-family="Helvetica,sans-Serif" font-size="11.00">[table]</text>
<polygon fill="none" stroke="black" points="41.5,-55 41.5,-73 317.5,-73 317.5,-55 41.5,-55"/>
<text text-anchor="start" x="44.5" y="-61.2" font-family="Helvetica,sans-Serif" font-size="11.00">...</text>
<polygon fill="#ffffff" stroke="transparent" points="41.5,-37 41.5,-55 317.5,-55 317.5,-37 41.5,-37"/>
<polygon fill="none" stroke="black" points="41.5,-37 41.5,-55 317.5,-55 317.5,-37 41.5,-37"/>
<polygon fill="#ffffff" stroke="transparent" points="42.5,-38 42.5,-54 120.5,-54 120.5,-38 42.5,-38"/>
<text text-anchor="start" x="44.5" y="-43.2" font-family="Helvetica,sans-Serif" font-size="11.00"> &#160;</text>
<polygon fill="#ffffff" stroke="transparent" points="120.5,-38 120.5,-54 227.5,-54 227.5,-38 120.5,-38"/>
<text text-anchor="start" x="155.5" y="-43.2" font-family="Helvetica,sans-Serif" font-size="11.00">0 rows</text>
<polygon fill="#ffffff" stroke="transparent" points="227.5,-38 227.5,-54 316.5,-54 316.5,-38 227.5,-38"/>
<text text-anchor="start" x="294.5" y="-43.2" font-family="Helvetica,sans-Serif" font-size="11.00">1 &gt;</text>
<polygon fill="black" stroke="black" points="120.5,-38 120.5,-54 120.5,-54 120.5,-38 120.5,-38"/>
<polygon fill="black" stroke="black" points="227.5,-38 227.5,-54 227.5,-54 227.5,-38 227.5,-38"/>
</a>
</g>
</g>
<!-- manhole&#45;&gt;tww_vl.manhole_surface_inflow -->
<g id="edge6" class="edge">
<title>manhole:w&#45;&gt;tww_vl.manhole_surface_inflow:e</title>
<path fill="none" stroke="black" d="M386.66,-204.91C361.82,-191.01 391.8,-133.65 359,-106 349.04,-97.61 337.7,-90.88 325.66,-85.49"/>
<polygon fill="black" stroke="black" points="393.18,-206.32 400.24,-211.52 397.09,-207.16 401,-208 401,-208 401,-208 397.09,-207.16 401.76,-204.48 393.18,-206.32 393.18,-206.32"/>
<ellipse fill="none" stroke="black" cx="390.05" cy="-205.64" rx="3.2" ry="3.2"/>
</g>
</g>
</svg>
