<?xml version="1.0" encoding="UTF-8" standalone="no"?>
<!DOCTYPE svg PUBLIC "-//W3C//DTD SVG 1.1//EN"
 "http://www.w3.org/Graphics/SVG/1.1/DTD/svg11.dtd">
<!-- Generated by graphviz version 2.47.1 (20210515.0534)
 -->
<!-- Title: oneDegreeRelationshipsDiagram Pages: 1 -->
<svg width="831pt" height="706pt"
 viewBox="0.00 0.00 831.00 706.00" xmlns="http://www.w3.org/2000/svg" xmlns:xlink="http://www.w3.org/1999/xlink">
<g id="graph0" class="graph" transform="scale(1 1) rotate(0) translate(4 702)">
<title>oneDegreeRelationshipsDiagram</title>
<polygon fill="#ffffff" stroke="transparent" points="-4,4 -4,-702 827,-702 827,4 -4,4"/>
<text text-anchor="middle" x="73.5" y="-7.2" font-family="Helvetica,sans-Serif" font-size="11.00">Generated by SchemaSpy</text>
<!-- pipe_profile -->
<g id="node1" class="node">
<title>pipe_profile</title>
<g id="a_node1"><a xlink:href="../../tables/pipe_profile.html" xlink:title="pipe_profile" target="_top">
<polygon fill="#ffffff" stroke="transparent" points="292,-212 292,-432 523,-432 523,-212 292,-212"/>
<polygon fill="#f5f5f5" stroke="transparent" points="294.5,-408 294.5,-430 521.5,-430 521.5,-408 294.5,-408"/>
<polygon fill="none" stroke="black" points="294.5,-408 294.5,-430 521.5,-430 521.5,-408 294.5,-408"/>
<text text-anchor="start" x="299.5" y="-417.2" font-family="Helvetica,sans-Serif" font-weight="bold" font-size="11.00">pipe_profile</text>
<text text-anchor="start" x="482.5" y="-416.2" font-family="Helvetica,sans-Serif" font-size="11.00">[table]</text>
<polygon fill="none" stroke="black" points="294.5,-386 294.5,-408 427.5,-408 427.5,-386 294.5,-386"/>
<image xlink:href="../../images/primaryKeys.png" width="11px" height="12px" preserveAspectRatio="xMinYMin meet" x="299.5" y="-403"/>
<text text-anchor="start" x="314.5" y="-394.2" font-family="Helvetica,sans-Serif" font-size="11.00">obj_id</text>
<polygon fill="none" stroke="black" points="427.5,-386 427.5,-408 521.5,-408 521.5,-386 427.5,-386"/>
<text text-anchor="start" x="430.5" y="-394.2" font-family="Helvetica,sans-Serif" font-size="11.00">varchar[16]</text>
<polygon fill="none" stroke="black" points="294.5,-364 294.5,-386 427.5,-386 427.5,-364 294.5,-364"/>
<text text-anchor="start" x="314.5" y="-372.2" font-family="Helvetica,sans-Serif" font-size="11.00">height_width_ratio</text>
<polygon fill="none" stroke="black" points="427.5,-364 427.5,-386 521.5,-386 521.5,-364 427.5,-364"/>
<text text-anchor="start" x="430.5" y="-372.2" font-family="Helvetica,sans-Serif" font-size="11.00">numeric[5,2]</text>
<polygon fill="#ffffff" stroke="transparent" points="294.5,-342 294.5,-364 427.5,-364 427.5,-342 294.5,-342"/>
<polygon fill="none" stroke="black" points="294.5,-342 294.5,-364 427.5,-364 427.5,-342 294.5,-342"/>
<text text-anchor="start" x="314.5" y="-350.2" font-family="Helvetica,sans-Serif" font-size="11.00">identifier</text>
<polygon fill="none" stroke="black" points="427.5,-342 427.5,-364 521.5,-364 521.5,-342 427.5,-342"/>
<text text-anchor="start" x="430.5" y="-350.2" font-family="Helvetica,sans-Serif" font-size="11.00">text[2147483647]</text>
<polygon fill="none" stroke="black" points="294.5,-320 294.5,-342 427.5,-342 427.5,-320 294.5,-320"/>
<image xlink:href="../../images/foreignKeys.png" width="11px" height="12px" preserveAspectRatio="xMinYMin meet" x="299.5" y="-337"/>
<text text-anchor="start" x="314.5" y="-328.2" font-family="Helvetica,sans-Serif" font-size="11.00">profile_type</text>
<polygon fill="none" stroke="black" points="427.5,-320 427.5,-342 521.5,-342 521.5,-320 427.5,-320"/>
<text text-anchor="start" x="430.5" y="-328.2" font-family="Helvetica,sans-Serif" font-size="11.00">int4[10]</text>
<polygon fill="none" stroke="black" points="294.5,-298 294.5,-320 427.5,-320 427.5,-298 294.5,-298"/>
<text text-anchor="start" x="314.5" y="-306.2" font-family="Helvetica,sans-Serif" font-size="11.00">remark</text>
<polygon fill="none" stroke="black" points="427.5,-298 427.5,-320 521.5,-320 521.5,-298 427.5,-298"/>
<text text-anchor="start" x="430.5" y="-306.2" font-family="Helvetica,sans-Serif" font-size="11.00">text[2147483647]</text>
<polygon fill="none" stroke="black" points="294.5,-276 294.5,-298 427.5,-298 427.5,-276 294.5,-276"/>
<text text-anchor="start" x="314.5" y="-284.2" font-family="Helvetica,sans-Serif" font-size="11.00">last_modification</text>
<polygon fill="none" stroke="black" points="427.5,-276 427.5,-298 521.5,-298 521.5,-276 427.5,-276"/>
<text text-anchor="start" x="430.5" y="-284.2" font-family="Helvetica,sans-Serif" font-size="11.00">timestamp[29,6]</text>
<polygon fill="#ffffff" stroke="transparent" points="294.5,-254 294.5,-276 427.5,-276 427.5,-254 294.5,-254"/>
<polygon fill="none" stroke="black" points="294.5,-254 294.5,-276 427.5,-276 427.5,-254 294.5,-254"/>
<image xlink:href="../../images/foreignKeys.png" width="11px" height="12px" preserveAspectRatio="xMinYMin meet" x="299.5" y="-271"/>
<text text-anchor="start" x="314.5" y="-262.2" font-family="Helvetica,sans-Serif" font-size="11.00">fk_dataowner</text>
<polygon fill="none" stroke="black" points="427.5,-254 427.5,-276 521.5,-276 521.5,-254 427.5,-254"/>
<text text-anchor="start" x="430.5" y="-262.2" font-family="Helvetica,sans-Serif" font-size="11.00">varchar[16]</text>
<polygon fill="none" stroke="black" points="294.5,-232 294.5,-254 427.5,-254 427.5,-232 294.5,-232"/>
<image xlink:href="../../images/foreignKeys.png" width="11px" height="12px" preserveAspectRatio="xMinYMin meet" x="299.5" y="-249"/>
<text text-anchor="start" x="314.5" y="-240.2" font-family="Helvetica,sans-Serif" font-size="11.00">fk_provider</text>
<polygon fill="none" stroke="black" points="427.5,-232 427.5,-254 521.5,-254 521.5,-232 427.5,-232"/>
<text text-anchor="start" x="430.5" y="-240.2" font-family="Helvetica,sans-Serif" font-size="11.00">varchar[16]</text>
<polygon fill="#ffffff" stroke="transparent" points="294.5,-214 294.5,-232 365.5,-232 365.5,-214 294.5,-214"/>
<polygon fill="none" stroke="black" points="294.5,-214 294.5,-232 365.5,-232 365.5,-214 294.5,-214"/>
<text text-anchor="start" x="297.5" y="-220.2" font-family="Helvetica,sans-Serif" font-size="11.00">&lt; 3</text>
<polygon fill="#ffffff" stroke="transparent" points="365.5,-214 365.5,-232 427.5,-232 427.5,-214 365.5,-214"/>
<polygon fill="none" stroke="black" points="365.5,-214 365.5,-232 427.5,-232 427.5,-214 365.5,-214"/>
<text text-anchor="start" x="417.5" y="-220.2" font-family="Helvetica,sans-Serif" font-size="11.00"> &#160;</text>
<polygon fill="#ffffff" stroke="transparent" points="427.5,-214 427.5,-232 521.5,-232 521.5,-214 427.5,-214"/>
<polygon fill="none" stroke="black" points="427.5,-214 427.5,-232 521.5,-232 521.5,-214 427.5,-214"/>
<text text-anchor="start" x="502.5" y="-220.2" font-family="Helvetica,sans-Serif" font-size="11.00">2 &gt;</text>
<polygon fill="none" stroke="black" stroke-width="2" points="293,-213 293,-431 522,-431 522,-213 293,-213"/>
</a>
</g>
</g>
<!-- organisation -->
<g id="node2" class="node">
<title>organisation</title>
<g id="a_node2"><a xlink:href="../../tables/organisation.html" xlink:title="organisation" target="_top">
<polygon fill="#ffffff" stroke="transparent" points="51.5,-37 51.5,-249 199.5,-249 199.5,-37 51.5,-37"/>
<polygon fill="#f5f5f5" stroke="transparent" points="51.5,-227 51.5,-249 199.5,-249 199.5,-227 51.5,-227"/>
<polygon fill="none" stroke="black" points="51.5,-227 51.5,-249 199.5,-249 199.5,-227 51.5,-227"/>
<text text-anchor="start" x="56.5" y="-236.2" font-family="Helvetica,sans-Serif" font-weight="bold" font-size="11.00">organisation</text>
<text text-anchor="start" x="160.5" y="-235.2" font-family="Helvetica,sans-Serif" font-size="11.00">[table]</text>
<polygon fill="none" stroke="black" points="51.5,-205 51.5,-227 199.5,-227 199.5,-205 51.5,-205"/>
<image xlink:href="../../images/primaryKeys.png" width="11px" height="12px" preserveAspectRatio="xMinYMin meet" x="56.5" y="-222"/>
<text text-anchor="start" x="71.5" y="-213.2" font-family="Helvetica,sans-Serif" font-size="11.00">obj_id</text>
<polygon fill="#ffffff" stroke="transparent" points="51.5,-183 51.5,-205 199.5,-205 199.5,-183 51.5,-183"/>
<polygon fill="none" stroke="black" points="51.5,-183 51.5,-205 199.5,-205 199.5,-183 51.5,-183"/>
<text text-anchor="start" x="71.5" y="-191.2" font-family="Helvetica,sans-Serif" font-size="11.00">identifier</text>
<polygon fill="#ffffff" stroke="transparent" points="51.5,-161 51.5,-183 199.5,-183 199.5,-161 51.5,-161"/>
<polygon fill="none" stroke="black" points="51.5,-161 51.5,-183 199.5,-183 199.5,-161 51.5,-161"/>
<image xlink:href="../../images/foreignKeys.png" width="11px" height="12px" preserveAspectRatio="xMinYMin meet" x="56.5" y="-178"/>
<text text-anchor="start" x="71.5" y="-169.2" font-family="Helvetica,sans-Serif" font-size="11.00">organisation_type</text>
<polygon fill="none" stroke="black" points="51.5,-139 51.5,-161 199.5,-161 199.5,-139 51.5,-139"/>
<image xlink:href="../../images/foreignKeys.png" width="11px" height="12px" preserveAspectRatio="xMinYMin meet" x="56.5" y="-156"/>
<text text-anchor="start" x="71.5" y="-147.2" font-family="Helvetica,sans-Serif" font-size="11.00">status</text>
<polygon fill="#ffffff" stroke="transparent" points="51.5,-117 51.5,-139 199.5,-139 199.5,-117 51.5,-117"/>
<polygon fill="none" stroke="black" points="51.5,-117 51.5,-139 199.5,-139 199.5,-117 51.5,-117"/>
<text text-anchor="start" x="71.5" y="-125.2" font-family="Helvetica,sans-Serif" font-size="11.00">uid</text>
<polygon fill="none" stroke="black" points="51.5,-95 51.5,-117 199.5,-117 199.5,-95 51.5,-95"/>
<image xlink:href="../../images/foreignKeys.png" width="11px" height="12px" preserveAspectRatio="xMinYMin meet" x="56.5" y="-112"/>
<text text-anchor="start" x="71.5" y="-103.2" font-family="Helvetica,sans-Serif" font-size="11.00">fk_dataowner</text>
<polygon fill="none" stroke="black" points="51.5,-73 51.5,-95 199.5,-95 199.5,-73 51.5,-73"/>
<image xlink:href="../../images/foreignKeys.png" width="11px" height="12px" preserveAspectRatio="xMinYMin meet" x="56.5" y="-90"/>
<text text-anchor="start" x="71.5" y="-81.2" font-family="Helvetica,sans-Serif" font-size="11.00">fk_provider</text>
<polygon fill="none" stroke="black" points="51.5,-55 51.5,-73 199.5,-73 199.5,-55 51.5,-55"/>
<text text-anchor="start" x="54.5" y="-61.2" font-family="Helvetica,sans-Serif" font-size="11.00">...</text>
<polygon fill="#ffffff" stroke="transparent" points="51.5,-37 51.5,-55 115.5,-55 115.5,-37 51.5,-37"/>
<polygon fill="none" stroke="black" points="51.5,-37 51.5,-55 115.5,-55 115.5,-37 51.5,-37"/>
<text text-anchor="start" x="54.5" y="-43.2" font-family="Helvetica,sans-Serif" font-size="11.00">&lt; 4</text>
<polygon fill="#ffffff" stroke="transparent" points="115.5,-37 115.5,-55 149.5,-55 149.5,-37 115.5,-37"/>
<polygon fill="none" stroke="black" points="115.5,-37 115.5,-55 149.5,-55 149.5,-37 115.5,-37"/>
<text text-anchor="start" x="139.5" y="-43.2" font-family="Helvetica,sans-Serif" font-size="11.00"> &#160;</text>
<polygon fill="#ffffff" stroke="transparent" points="149.5,-37 149.5,-55 199.5,-55 199.5,-37 149.5,-37"/>
<polygon fill="none" stroke="black" points="149.5,-37 149.5,-55 199.5,-55 199.5,-37 149.5,-37"/>
<text text-anchor="start" x="174.5" y="-43.2" font-family="Helvetica,sans-Serif" font-size="11.00">98 &gt;</text>
</a>
</g>
</g>
<!-- pipe_profile&#45;&gt;organisation -->
<g id="edge1" class="edge">
<title>pipe_profile:w&#45;&gt;organisation:e</title>
<path fill="none" stroke="black" d="M278.87,-263.14C246.24,-254.19 241.74,-216 200.5,-216"/>
<polygon fill="black" stroke="black" points="285.56,-263.99 293.05,-268.57 289.53,-264.5 293.5,-265 293.5,-265 293.5,-265 289.53,-264.5 293.95,-261.43 285.56,-263.99 285.56,-263.99"/>
<ellipse fill="none" stroke="black" cx="282.39" cy="-263.59" rx="3.2" ry="3.2"/>
</g>
<!-- pipe_profile&#45;&gt;organisation -->
<g id="edge2" class="edge">
<title>pipe_profile:w&#45;&gt;organisation:e</title>
<path fill="none" stroke="black" d="M278.91,-241.84C248.17,-236.67 238.16,-216 200.5,-216"/>
<polygon fill="black" stroke="black" points="285.53,-242.37 293.21,-246.59 289.51,-242.68 293.5,-243 293.5,-243 293.5,-243 289.51,-242.68 293.79,-239.41 285.53,-242.37 285.53,-242.37"/>
<ellipse fill="none" stroke="black" cx="282.34" cy="-242.11" rx="3.2" ry="3.2"/>
</g>
<!-- tww_vl.pipe_profile_profile_type -->
<g id="node3" class="node">
<title>tww_vl.pipe_profile_profile_type</title>
<g id="a_node3"><a xlink:href="../../../tww_vl/tables/pipe_profile_profile_type.html" xlink:title="tww_vl.pipe_profile_profile_type" target="_top">
<polygon fill="#ffffff" stroke="transparent" points="8,-302 8,-360 243,-360 243,-302 8,-302"/>
<polygon fill="#f5f5f5" stroke="transparent" points="8.5,-338 8.5,-360 243.5,-360 243.5,-338 8.5,-338"/>
<polygon fill="none" stroke="black" points="8.5,-338 8.5,-360 243.5,-360 243.5,-338 8.5,-338"/>
<text text-anchor="start" x="13.5" y="-347.2" font-family="Helvetica,sans-Serif" font-weight="bold" font-size="11.00">tww_vl.pipe_profile_profile_type</text>
<text text-anchor="start" x="204.5" y="-346.2" font-family="Helvetica,sans-Serif" font-size="11.00">[table]</text>
<polygon fill="none" stroke="black" points="8.5,-320 8.5,-338 243.5,-338 243.5,-320 8.5,-320"/>
<text text-anchor="start" x="11.5" y="-326.2" font-family="Helvetica,sans-Serif" font-size="11.00">...</text>
<polygon fill="#ffffff" stroke="transparent" points="8.5,-302 8.5,-320 101.5,-320 101.5,-302 8.5,-302"/>
<polygon fill="none" stroke="black" points="8.5,-302 8.5,-320 101.5,-320 101.5,-302 8.5,-302"/>
<text text-anchor="start" x="11.5" y="-308.2" font-family="Helvetica,sans-Serif" font-size="11.00"> &#160;</text>
<polygon fill="#ffffff" stroke="transparent" points="101.5,-302 101.5,-320 181.5,-320 181.5,-302 101.5,-302"/>
<polygon fill="none" stroke="black" points="101.5,-302 101.5,-320 181.5,-320 181.5,-302 101.5,-302"/>
<text text-anchor="start" x="144.5" y="-308.2" font-family="Helvetica,sans-Serif" font-size="11.00">0 rows</text>
<polygon fill="#ffffff" stroke="transparent" points="181.5,-302 181.5,-320 243.5,-320 243.5,-302 181.5,-302"/>
<polygon fill="none" stroke="black" points="181.5,-302 181.5,-320 243.5,-320 243.5,-302 181.5,-302"/>
<text text-anchor="start" x="224.5" y="-308.2" font-family="Helvetica,sans-Serif" font-size="11.00">1 &gt;</text>
</a>
</g>
</g>
<!-- pipe_profile&#45;&gt;tww_vl.pipe_profile_profile_type -->
<g id="edge3" class="edge">
<title>pipe_profile:w&#45;&gt;tww_vl.pipe_profile_profile_type:e</title>
<path fill="none" stroke="black" d="M278.93,-331C269.86,-331 260.63,-331 251.43,-331"/>
<polygon fill="black" stroke="black" points="285.5,-331 293.5,-334.6 289.5,-331 293.5,-331 293.5,-331 293.5,-331 289.5,-331 293.5,-327.4 285.5,-331 285.5,-331"/>
<ellipse fill="none" stroke="black" cx="282.3" cy="-331" rx="3.2" ry="3.2"/>
</g>
<!-- profile_geometry -->
<g id="node4" class="node">
<title>profile_geometry</title>
<g id="a_node4"><a xlink:href="../../tables/profile_geometry.html" xlink:title="profile_geometry" target="_top">
<polygon fill="#ffffff" stroke="transparent" points="620.5,-97 620.5,-243 766.5,-243 766.5,-97 620.5,-97"/>
<polygon fill="#f5f5f5" stroke="transparent" points="620.5,-221 620.5,-243 766.5,-243 766.5,-221 620.5,-221"/>
<polygon fill="none" stroke="black" points="620.5,-221 620.5,-243 766.5,-243 766.5,-221 620.5,-221"/>
<text text-anchor="start" x="625.5" y="-230.2" font-family="Helvetica,sans-Serif" font-weight="bold" font-size="11.00">profile_geometry</text>
<text text-anchor="start" x="727.5" y="-229.2" font-family="Helvetica,sans-Serif" font-size="11.00">[table]</text>
<polygon fill="none" stroke="black" points="620.5,-199 620.5,-221 766.5,-221 766.5,-199 620.5,-199"/>
<image xlink:href="../../images/primaryKeys.png" width="11px" height="12px" preserveAspectRatio="xMinYMin meet" x="625.5" y="-216"/>
<text text-anchor="start" x="651.5" y="-207.2" font-family="Helvetica,sans-Serif" font-size="11.00">obj_id</text>
<polygon fill="none" stroke="black" points="620.5,-177 620.5,-199 766.5,-199 766.5,-177 620.5,-177"/>
<image xlink:href="../../images/foreignKeys.png" width="11px" height="12px" preserveAspectRatio="xMinYMin meet" x="625.5" y="-194"/>
<text text-anchor="start" x="651.5" y="-185.2" font-family="Helvetica,sans-Serif" font-size="11.00">fk_dataowner</text>
<polygon fill="none" stroke="black" points="620.5,-155 620.5,-177 766.5,-177 766.5,-155 620.5,-155"/>
<image xlink:href="../../images/foreignKeys.png" width="11px" height="12px" preserveAspectRatio="xMinYMin meet" x="625.5" y="-172"/>
<text text-anchor="start" x="651.5" y="-163.2" font-family="Helvetica,sans-Serif" font-size="11.00">fk_provider</text>
<polygon fill="none" stroke="black" points="620.5,-133 620.5,-155 766.5,-155 766.5,-133 620.5,-133"/>
<image xlink:href="../../images/foreignKeys.png" width="11px" height="12px" preserveAspectRatio="xMinYMin meet" x="625.5" y="-150"/>
<text text-anchor="start" x="651.5" y="-141.2" font-family="Helvetica,sans-Serif" font-size="11.00">fk_pipe_profile</text>
<polygon fill="none" stroke="black" points="620.5,-115 620.5,-133 766.5,-133 766.5,-115 620.5,-115"/>
<text text-anchor="start" x="623.5" y="-121.2" font-family="Helvetica,sans-Serif" font-size="11.00">...</text>
<polygon fill="#ffffff" stroke="transparent" points="620.5,-97 620.5,-115 691.5,-115 691.5,-97 620.5,-97"/>
<polygon fill="none" stroke="black" points="620.5,-97 620.5,-115 691.5,-115 691.5,-97 620.5,-97"/>
<text text-anchor="start" x="623.5" y="-103.2" font-family="Helvetica,sans-Serif" font-size="11.00">&lt; 3</text>
<polygon fill="#ffffff" stroke="transparent" points="691.5,-97 691.5,-115 728.5,-115 728.5,-97 691.5,-97"/>
<polygon fill="none" stroke="black" points="691.5,-97 691.5,-115 728.5,-115 728.5,-97 691.5,-97"/>
<text text-anchor="start" x="718.5" y="-103.2" font-family="Helvetica,sans-Serif" font-size="11.00"> &#160;</text>
<polygon fill="#ffffff" stroke="transparent" points="728.5,-97 728.5,-115 766.5,-115 766.5,-97 728.5,-97"/>
<polygon fill="none" stroke="black" points="728.5,-97 728.5,-115 766.5,-115 766.5,-97 728.5,-97"/>
<text text-anchor="start" x="756.5" y="-103.2" font-family="Helvetica,sans-Serif" font-size="11.00"> &#160;</text>
</a>
</g>
</g>
<!-- profile_geometry&#45;&gt;pipe_profile -->
<g id="edge5" class="edge">
<title>profile_geometry:w&#45;&gt;pipe_profile:e</title>
<path fill="none" stroke="black" d="M606,-149.05C562.63,-184.71 577.66,-397 522.5,-397"/>
<polygon fill="black" stroke="black" points="612.01,-146.8 620.76,-147.37 615.75,-145.4 619.5,-144 619.5,-144 619.5,-144 615.75,-145.4 618.24,-140.63 612.01,-146.8 612.01,-146.8"/>
<ellipse fill="none" stroke="black" cx="609.01" cy="-147.93" rx="3.2" ry="3.2"/>
</g>
<!-- profile_geometry&#45;&gt;organisation -->
<g id="edge4" class="edge">
<title>profile_geometry:w&#45;&gt;organisation:e</title>
<path fill="none" stroke="black" d="M605,-187.99C467.64,-187.81 427.42,-185.42 284,-201 246.52,-205.07 238.21,-216 200.5,-216"/>
<polygon fill="black" stroke="black" points="611.5,-187.99 619.5,-191.6 615.5,-188 619.5,-188 619.5,-188 619.5,-188 615.5,-188 619.5,-184.4 611.5,-187.99 611.5,-187.99"/>
<ellipse fill="none" stroke="black" cx="608.3" cy="-187.99" rx="3.2" ry="3.2"/>
</g>
<!-- profile_geometry&#45;&gt;organisation -->
<g id="edge6" class="edge">
<title>profile_geometry:w&#45;&gt;organisation:e</title>
<path fill="none" stroke="black" d="M604.98,-165.96C467.38,-165.28 425.34,-155.46 284,-185 245.25,-193.1 240.09,-216 200.5,-216"/>
<polygon fill="black" stroke="black" points="611.5,-165.98 619.49,-169.6 615.5,-165.99 619.5,-166 619.5,-166 619.5,-166 615.5,-165.99 619.51,-162.4 611.5,-165.98 611.5,-165.98"/>
<ellipse fill="none" stroke="black" cx="608.3" cy="-165.97" rx="3.2" ry="3.2"/>
</g>
<!-- reach -->
<g id="node5" class="node">
<title>reach</title>
<g id="a_node5"><a xlink:href="../../tables/reach.html" xlink:title="reach" target="_top">
<polygon fill="#ffffff" stroke="transparent" points="572,-350 572,-694 815,-694 815,-350 572,-350"/>
<polygon fill="#f5f5f5" stroke="transparent" points="572.5,-672 572.5,-694 815.5,-694 815.5,-672 572.5,-672"/>
<polygon fill="none" stroke="black" points="572.5,-672 572.5,-694 815.5,-694 815.5,-672 572.5,-672"/>
<text text-anchor="start" x="575.5" y="-681.2" font-family="Helvetica,sans-Serif" font-weight="bold" font-size="11.00">reach</text>
<text text-anchor="start" x="776.5" y="-680.2" font-family="Helvetica,sans-Serif" font-size="11.00">[table]</text>
<polygon fill="none" stroke="black" points="572.5,-650 572.5,-672 815.5,-672 815.5,-650 572.5,-650"/>
<image xlink:href="../../images/primaryKeys.png" width="11px" height="12px" preserveAspectRatio="xMinYMin meet" x="577.5" y="-667"/>
<text text-anchor="start" x="592.5" y="-658.2" font-family="Helvetica,sans-Serif" font-size="11.00">obj_id</text>
<polygon fill="none" stroke="black" points="572.5,-628 572.5,-650 815.5,-650 815.5,-628 572.5,-628"/>
<image xlink:href="../../images/foreignKeys.png" width="11px" height="12px" preserveAspectRatio="xMinYMin meet" x="577.5" y="-645"/>
<text text-anchor="start" x="592.5" y="-636.2" font-family="Helvetica,sans-Serif" font-size="11.00">elevation_determination</text>
<polygon fill="none" stroke="black" points="572.5,-606 572.5,-628 815.5,-628 815.5,-606 572.5,-606"/>
<image xlink:href="../../images/foreignKeys.png" width="11px" height="12px" preserveAspectRatio="xMinYMin meet" x="577.5" y="-623"/>
<text text-anchor="start" x="592.5" y="-614.2" font-family="Helvetica,sans-Serif" font-size="11.00">horizontal_positioning</text>
<polygon fill="none" stroke="black" points="572.5,-584 572.5,-606 815.5,-606 815.5,-584 572.5,-584"/>
<image xlink:href="../../images/foreignKeys.png" width="11px" height="12px" preserveAspectRatio="xMinYMin meet" x="577.5" y="-601"/>
<text text-anchor="start" x="592.5" y="-592.2" font-family="Helvetica,sans-Serif" font-size="11.00">inside_coating</text>
<polygon fill="none" stroke="black" points="572.5,-562 572.5,-584 815.5,-584 815.5,-562 572.5,-562"/>
<image xlink:href="../../images/foreignKeys.png" width="11px" height="12px" preserveAspectRatio="xMinYMin meet" x="577.5" y="-579"/>
<text text-anchor="start" x="592.5" y="-570.2" font-family="Helvetica,sans-Serif" font-size="11.00">leak_protection</text>
<polygon fill="none" stroke="black" points="572.5,-540 572.5,-562 815.5,-562 815.5,-540 572.5,-540"/>
<image xlink:href="../../images/foreignKeys.png" width="11px" height="12px" preserveAspectRatio="xMinYMin meet" x="577.5" y="-557"/>
<text text-anchor="start" x="592.5" y="-548.2" font-family="Helvetica,sans-Serif" font-size="11.00">material</text>
<polygon fill="#ffffff" stroke="transparent" points="572.5,-518 572.5,-540 815.5,-540 815.5,-518 572.5,-518"/>
<polygon fill="none" stroke="black" points="572.5,-518 572.5,-540 815.5,-540 815.5,-518 572.5,-518"/>
<text text-anchor="start" x="592.5" y="-526.2" font-family="Helvetica,sans-Serif" font-size="11.00">progression3d_geometry</text>
<polygon fill="none" stroke="black" points="572.5,-496 572.5,-518 815.5,-518 815.5,-496 572.5,-496"/>
<image xlink:href="../../images/foreignKeys.png" width="11px" height="12px" preserveAspectRatio="xMinYMin meet" x="577.5" y="-513"/>
<text text-anchor="start" x="592.5" y="-504.2" font-family="Helvetica,sans-Serif" font-size="11.00">reliner_material</text>
<polygon fill="none" stroke="black" points="572.5,-474 572.5,-496 815.5,-496 815.5,-474 572.5,-474"/>
<image xlink:href="../../images/foreignKeys.png" width="11px" height="12px" preserveAspectRatio="xMinYMin meet" x="577.5" y="-491"/>
<text text-anchor="start" x="592.5" y="-482.2" font-family="Helvetica,sans-Serif" font-size="11.00">relining_construction</text>
<polygon fill="none" stroke="black" points="572.5,-452 572.5,-474 815.5,-474 815.5,-452 572.5,-452"/>
<image xlink:href="../../images/foreignKeys.png" width="11px" height="12px" preserveAspectRatio="xMinYMin meet" x="577.5" y="-469"/>
<text text-anchor="start" x="592.5" y="-460.2" font-family="Helvetica,sans-Serif" font-size="11.00">relining_kind</text>
<polygon fill="none" stroke="black" points="572.5,-430 572.5,-452 815.5,-452 815.5,-430 572.5,-430"/>
<image xlink:href="../../images/foreignKeys.png" width="11px" height="12px" preserveAspectRatio="xMinYMin meet" x="577.5" y="-447"/>
<text text-anchor="start" x="592.5" y="-438.2" font-family="Helvetica,sans-Serif" font-size="11.00">fk_reach_point_from</text>
<polygon fill="none" stroke="black" points="572.5,-408 572.5,-430 815.5,-430 815.5,-408 572.5,-408"/>
<image xlink:href="../../images/foreignKeys.png" width="11px" height="12px" preserveAspectRatio="xMinYMin meet" x="577.5" y="-425"/>
<text text-anchor="start" x="592.5" y="-416.2" font-family="Helvetica,sans-Serif" font-size="11.00">fk_reach_point_to</text>
<polygon fill="none" stroke="black" points="572.5,-386 572.5,-408 815.5,-408 815.5,-386 572.5,-386"/>
<image xlink:href="../../images/foreignKeys.png" width="11px" height="12px" preserveAspectRatio="xMinYMin meet" x="577.5" y="-403"/>
<text text-anchor="start" x="592.5" y="-394.2" font-family="Helvetica,sans-Serif" font-size="11.00">fk_pipe_profile</text>
<polygon fill="none" stroke="black" points="572.5,-368 572.5,-386 815.5,-386 815.5,-368 572.5,-368"/>
<text text-anchor="start" x="575.5" y="-374.2" font-family="Helvetica,sans-Serif" font-size="11.00">...</text>
<polygon fill="#ffffff" stroke="transparent" points="572.5,-350 572.5,-368 690.5,-368 690.5,-350 572.5,-350"/>
<polygon fill="none" stroke="black" points="572.5,-350 572.5,-368 690.5,-368 690.5,-350 572.5,-350"/>
<text text-anchor="start" x="575.5" y="-356.2" font-family="Helvetica,sans-Serif" font-size="11.00">&lt; 12</text>
<polygon fill="#ffffff" stroke="transparent" points="690.5,-350 690.5,-368 748.5,-368 748.5,-350 690.5,-350"/>
<polygon fill="none" stroke="black" points="690.5,-350 690.5,-368 748.5,-368 748.5,-350 690.5,-350"/>
<text text-anchor="start" x="738.5" y="-356.2" font-family="Helvetica,sans-Serif" font-size="11.00"> &#160;</text>
<polygon fill="#ffffff" stroke="transparent" points="748.5,-350 748.5,-368 815.5,-368 815.5,-350 748.5,-350"/>
<polygon fill="none" stroke="black" points="748.5,-350 748.5,-368 815.5,-368 815.5,-350 748.5,-350"/>
<text text-anchor="start" x="796.5" y="-356.2" font-family="Helvetica,sans-Serif" font-size="11.00">2 &gt;</text>
</a>
</g>
</g>
<!-- reach&#45;&gt;pipe_profile -->
<g id="edge7" class="edge">
<title>reach:w&#45;&gt;pipe_profile:e</title>
<path fill="none" stroke="black" d="M556.99,-397C545.68,-397 538.49,-397 522.5,-397"/>
<polygon fill="black" stroke="black" points="563.5,-397 571.5,-400.6 567.5,-397 571.5,-397 571.5,-397 571.5,-397 567.5,-397 571.5,-393.4 563.5,-397 563.5,-397"/>
<ellipse fill="none" stroke="black" cx="560.3" cy="-397" rx="3.2" ry="3.2"/>
</g>
</g>
</svg>
