<?xml version="1.0" encoding="UTF-8" standalone="no"?>
<!DOCTYPE svg PUBLIC "-//W3C//DTD SVG 1.1//EN"
 "http://www.w3.org/Graphics/SVG/1.1/DTD/svg11.dtd">
<!-- Generated by graphviz version 2.43.0 (0)
 -->
<!-- Title: oneDegreeRelationshipsDiagram Pages: 1 -->
<svg width="809pt" height="670pt"
 viewBox="0.00 0.00 809.00 670.00" xmlns="http://www.w3.org/2000/svg" xmlns:xlink="http://www.w3.org/1999/xlink">
<g id="graph0" class="graph" transform="scale(1 1) rotate(0) translate(4 666)">
<title>oneDegreeRelationshipsDiagram</title>
<polygon fill="#ffffff" stroke="transparent" points="-4,4 -4,-666 805,-666 805,4 -4,4"/>
<text text-anchor="middle" x="79.5" y="-7.2" font-family="Helvetica,sans-Serif" font-size="11.00">Generated by SchemaSpy</text>
<!-- sia405cc_cable -->
<g id="node1" class="node">
<title>sia405cc_cable</title>
<g id="a_node1"><a xlink:href="../../tables/sia405cc_cable.html" xlink:title="sia405cc_cable" target="_top">
<polygon fill="#ffffff" stroke="transparent" points="453,-163 453,-603 793,-603 793,-163 453,-163"/>
<polygon fill="#f5f5f5" stroke="transparent" points="455,-579 455,-601 791,-601 791,-579 455,-579"/>
<polygon fill="none" stroke="black" points="455,-579 455,-601 791,-601 791,-579 455,-579"/>
<text text-anchor="start" x="460" y="-588.2" font-family="Helvetica,sans-Serif" font-weight="bold" font-size="11.00">sia405cc_cable</text>
<text text-anchor="start" x="749" y="-587.2" font-family="Helvetica,sans-Serif" font-size="11.00">[table]</text>
<polygon fill="none" stroke="black" points="455,-557 455,-579 655,-579 655,-557 455,-557"/>
<image xlink:href="../../images/primaryKeys.png" width="11px" height="12px" preserveAspectRatio="xMinYMin meet" x="460" y="-574"/>
<text text-anchor="start" x="475" y="-565.2" font-family="Helvetica,sans-Serif" font-size="11.00">obj_id</text>
<polygon fill="none" stroke="black" points="655,-557 655,-579 791,-579 791,-557 655,-557"/>
<text text-anchor="start" x="658" y="-565.2" font-family="Helvetica,sans-Serif" font-size="11.00">varchar[16]</text>
<polygon fill="#ffffff" stroke="transparent" points="455,-535 455,-557 655,-557 655,-535 455,-535"/>
<polygon fill="none" stroke="black" points="455,-535 455,-557 655,-557 655,-535 455,-535"/>
<text text-anchor="start" x="475" y="-543.2" font-family="Helvetica,sans-Serif" font-size="11.00">name_number</text>
<polygon fill="none" stroke="black" points="655,-535 655,-557 791,-557 791,-535 655,-535"/>
<text text-anchor="start" x="658" y="-543.2" font-family="Helvetica,sans-Serif" font-size="11.00">text[2147483647]</text>
<polygon fill="none" stroke="black" points="455,-513 455,-535 655,-535 655,-513 455,-513"/>
<image xlink:href="../../images/foreignKeys.png" width="11px" height="12px" preserveAspectRatio="xMinYMin meet" x="460" y="-530"/>
<text text-anchor="start" x="475" y="-521.2" font-family="Helvetica,sans-Serif" font-size="11.00">function</text>
<polygon fill="none" stroke="black" points="655,-513 655,-535 791,-535 791,-513 655,-513"/>
<text text-anchor="start" x="658" y="-521.2" font-family="Helvetica,sans-Serif" font-size="11.00">int4[10]</text>
<polygon fill="none" stroke="black" points="455,-491 455,-513 655,-513 655,-491 455,-491"/>
<image xlink:href="../../images/foreignKeys.png" width="11px" height="12px" preserveAspectRatio="xMinYMin meet" x="460" y="-508"/>
<text text-anchor="start" x="475" y="-499.2" font-family="Helvetica,sans-Serif" font-size="11.00">cable_type</text>
<polygon fill="none" stroke="black" points="655,-491 655,-513 791,-513 791,-491 655,-491"/>
<text text-anchor="start" x="658" y="-499.2" font-family="Helvetica,sans-Serif" font-size="11.00">int4[10]</text>
<polygon fill="none" stroke="black" points="455,-469 455,-491 655,-491 655,-469 455,-469"/>
<image xlink:href="../../images/foreignKeys.png" width="11px" height="12px" preserveAspectRatio="xMinYMin meet" x="460" y="-486"/>
<text text-anchor="start" x="475" y="-477.2" font-family="Helvetica,sans-Serif" font-size="11.00">horizontal_positioning</text>
<polygon fill="none" stroke="black" points="655,-469 655,-491 791,-491 791,-469 655,-469"/>
<text text-anchor="start" x="658" y="-477.2" font-family="Helvetica,sans-Serif" font-size="11.00">int4[10]</text>
<polygon fill="none" stroke="black" points="455,-447 455,-469 655,-469 655,-447 455,-447"/>
<image xlink:href="../../images/foreignKeys.png" width="11px" height="12px" preserveAspectRatio="xMinYMin meet" x="460" y="-464"/>
<text text-anchor="start" x="475" y="-455.2" font-family="Helvetica,sans-Serif" font-size="11.00">status</text>
<polygon fill="none" stroke="black" points="655,-447 655,-469 791,-469 791,-447 655,-447"/>
<text text-anchor="start" x="658" y="-455.2" font-family="Helvetica,sans-Serif" font-size="11.00">int4[10]</text>
<polygon fill="none" stroke="black" points="455,-425 455,-447 655,-447 655,-425 455,-425"/>
<text text-anchor="start" x="475" y="-433.2" font-family="Helvetica,sans-Serif" font-size="11.00">installation_year</text>
<polygon fill="none" stroke="black" points="655,-425 655,-447 791,-447 791,-425 655,-425"/>
<text text-anchor="start" x="658" y="-433.2" font-family="Helvetica,sans-Serif" font-size="11.00">int2[5]</text>
<polygon fill="none" stroke="black" points="455,-403 455,-425 655,-425 655,-403 455,-403"/>
<text text-anchor="start" x="475" y="-411.2" font-family="Helvetica,sans-Serif" font-size="11.00">sur_plus_cover</text>
<polygon fill="none" stroke="black" points="655,-403 655,-425 791,-425 791,-403 655,-403"/>
<text text-anchor="start" x="658" y="-411.2" font-family="Helvetica,sans-Serif" font-size="11.00">numeric[4,1]</text>
<polygon fill="none" stroke="black" points="455,-381 455,-403 655,-403 655,-381 455,-381"/>
<text text-anchor="start" x="475" y="-389.2" font-family="Helvetica,sans-Serif" font-size="11.00">condition</text>
<polygon fill="none" stroke="black" points="655,-381 655,-403 791,-403 791,-381 655,-381"/>
<text text-anchor="start" x="658" y="-389.2" font-family="Helvetica,sans-Serif" font-size="11.00">text[2147483647]</text>
<polygon fill="none" stroke="black" points="455,-359 455,-381 655,-381 655,-359 455,-359"/>
<text text-anchor="start" x="475" y="-367.2" font-family="Helvetica,sans-Serif" font-size="11.00">remark</text>
<polygon fill="none" stroke="black" points="655,-359 655,-381 791,-381 791,-359 655,-359"/>
<text text-anchor="start" x="658" y="-367.2" font-family="Helvetica,sans-Serif" font-size="11.00">text[2147483647]</text>
<polygon fill="none" stroke="black" points="455,-337 455,-359 655,-359 655,-337 455,-337"/>
<text text-anchor="start" x="475" y="-345.2" font-family="Helvetica,sans-Serif" font-size="11.00">width</text>
<polygon fill="none" stroke="black" points="655,-337 655,-359 791,-359 791,-337 655,-337"/>
<text text-anchor="start" x="658" y="-345.2" font-family="Helvetica,sans-Serif" font-size="11.00">int2[5]</text>
<polygon fill="#ffffff" stroke="transparent" points="455,-315 455,-337 655,-337 655,-315 455,-315"/>
<polygon fill="none" stroke="black" points="455,-315 455,-337 655,-337 655,-315 455,-315"/>
<text text-anchor="start" x="475" y="-323.2" font-family="Helvetica,sans-Serif" font-size="11.00">geometry3d_geometry</text>
<polygon fill="none" stroke="black" points="655,-315 655,-337 791,-337 791,-315 655,-315"/>
<text text-anchor="start" x="658" y="-323.2" font-family="Helvetica,sans-Serif" font-size="11.00">geometry[2147483647]</text>
<polygon fill="none" stroke="black" points="455,-293 455,-315 655,-315 655,-293 455,-293"/>
<image xlink:href="../../images/foreignKeys.png" width="11px" height="12px" preserveAspectRatio="xMinYMin meet" x="460" y="-310"/>
<text text-anchor="start" x="475" y="-301.2" font-family="Helvetica,sans-Serif" font-size="11.00">elevation_determination</text>
<polygon fill="none" stroke="black" points="655,-293 655,-315 791,-315 791,-293 655,-293"/>
<text text-anchor="start" x="658" y="-301.2" font-family="Helvetica,sans-Serif" font-size="11.00">int4[10]</text>
<polygon fill="none" stroke="black" points="455,-271 455,-293 655,-293 655,-271 455,-271"/>
<text text-anchor="start" x="475" y="-279.2" font-family="Helvetica,sans-Serif" font-size="11.00">depth</text>
<polygon fill="none" stroke="black" points="655,-271 655,-293 791,-293 791,-271 655,-271"/>
<text text-anchor="start" x="658" y="-279.2" font-family="Helvetica,sans-Serif" font-size="11.00">int2[5]</text>
<polygon fill="none" stroke="black" points="455,-249 455,-271 655,-271 655,-249 455,-249"/>
<text text-anchor="start" x="475" y="-257.2" font-family="Helvetica,sans-Serif" font-size="11.00">last_modification</text>
<polygon fill="none" stroke="black" points="655,-249 655,-271 791,-271 791,-249 655,-249"/>
<text text-anchor="start" x="658" y="-257.2" font-family="Helvetica,sans-Serif" font-size="11.00">timestamp[29,6]</text>
<polygon fill="#ffffff" stroke="transparent" points="455,-227 455,-249 655,-249 655,-227 455,-227"/>
<polygon fill="none" stroke="black" points="455,-227 455,-249 655,-249 655,-227 455,-227"/>
<image xlink:href="../../images/foreignKeys.png" width="11px" height="12px" preserveAspectRatio="xMinYMin meet" x="460" y="-244"/>
<text text-anchor="start" x="475" y="-235.2" font-family="Helvetica,sans-Serif" font-size="11.00">fk_dataowner</text>
<polygon fill="none" stroke="black" points="655,-227 655,-249 791,-249 791,-227 655,-227"/>
<text text-anchor="start" x="658" y="-235.2" font-family="Helvetica,sans-Serif" font-size="11.00">varchar[16]</text>
<polygon fill="none" stroke="black" points="455,-205 455,-227 655,-227 655,-205 455,-205"/>
<image xlink:href="../../images/foreignKeys.png" width="11px" height="12px" preserveAspectRatio="xMinYMin meet" x="460" y="-222"/>
<text text-anchor="start" x="475" y="-213.2" font-family="Helvetica,sans-Serif" font-size="11.00">fk_provider</text>
<polygon fill="none" stroke="black" points="655,-205 655,-227 791,-227 791,-205 655,-205"/>
<text text-anchor="start" x="658" y="-213.2" font-family="Helvetica,sans-Serif" font-size="11.00">varchar[16]</text>
<polygon fill="none" stroke="black" points="455,-183 455,-205 655,-205 655,-183 455,-183"/>
<image xlink:href="../../images/foreignKeys.png" width="11px" height="12px" preserveAspectRatio="xMinYMin meet" x="460" y="-200"/>
<text text-anchor="start" x="475" y="-191.2" font-family="Helvetica,sans-Serif" font-size="11.00">fk_owner</text>
<polygon fill="none" stroke="black" points="655,-183 655,-205 791,-205 791,-183 655,-183"/>
<text text-anchor="start" x="658" y="-191.2" font-family="Helvetica,sans-Serif" font-size="11.00">varchar[16]</text>
<polygon fill="#ffffff" stroke="transparent" points="455,-165 455,-183 791,-183 791,-165 455,-165"/>
<polygon fill="none" stroke="black" points="455,-165 455,-183 791,-183 791,-165 455,-165"/>
<polygon fill="#ffffff" stroke="transparent" points="456,-166 456,-182 572,-182 572,-166 456,-166"/>
<text text-anchor="start" x="458" y="-171.2" font-family="Helvetica,sans-Serif" font-size="11.00">&lt; 8</text>
<polygon fill="#ffffff" stroke="transparent" points="572,-166 572,-182 675,-182 675,-166 572,-166"/>
<text text-anchor="start" x="619.5" y="-171.2" font-family="Helvetica,sans-Serif" font-size="11.00"> &#160;</text>
<polygon fill="#ffffff" stroke="transparent" points="675,-166 675,-182 790,-182 790,-166 675,-166"/>
<text text-anchor="start" x="768" y="-171.2" font-family="Helvetica,sans-Serif" font-size="11.00">0 &gt;</text>
<polygon fill="black" stroke="black" points="572,-166 572,-182 572,-182 572,-166 572,-166"/>
<polygon fill="black" stroke="black" points="675,-166 675,-182 675,-182 675,-166 675,-166"/>
<polygon fill="none" stroke="black" stroke-width="2" points="454,-164 454,-602 792,-602 792,-164 454,-164"/>
</a>
</g>
</g>
<!-- tww_vl.sia405cc_cable_cable_type -->
<g id="node2" class="node">
<title>tww_vl.sia405cc_cable_cable_type</title>
<g id="a_node2"><a xlink:href="../../../tww_vl/tables/sia405cc_cable_cable_type.html" xlink:title="tww_vl.sia405cc_cable_cable_type" target="_top">
<polygon fill="#ffffff" stroke="transparent" points="58.5,-521 58.5,-579 353.5,-579 353.5,-521 58.5,-521"/>
<polygon fill="#f5f5f5" stroke="transparent" points="59,-557 59,-579 354,-579 354,-557 59,-557"/>
<polygon fill="none" stroke="black" points="59,-557 59,-579 354,-579 354,-557 59,-557"/>
<text text-anchor="start" x="64" y="-566.2" font-family="Helvetica,sans-Serif" font-weight="bold" font-size="11.00">tww_vl.sia405cc_cable_cable_type</text>
<text text-anchor="start" x="312" y="-565.2" font-family="Helvetica,sans-Serif" font-size="11.00">[table]</text>
<polygon fill="none" stroke="black" points="59,-539 59,-557 354,-557 354,-539 59,-539"/>
<text text-anchor="start" x="62" y="-545.2" font-family="Helvetica,sans-Serif" font-size="11.00">...</text>
<polygon fill="#ffffff" stroke="transparent" points="59,-521 59,-539 354,-539 354,-521 59,-521"/>
<polygon fill="none" stroke="black" points="59,-521 59,-539 354,-539 354,-521 59,-521"/>
<polygon fill="#ffffff" stroke="transparent" points="60,-522 60,-538 144,-538 144,-522 60,-522"/>
<text text-anchor="start" x="62" y="-527.2" font-family="Helvetica,sans-Serif" font-size="11.00"> &#160;</text>
<polygon fill="#ffffff" stroke="transparent" points="144,-522 144,-538 257,-538 257,-522 144,-522"/>
<text text-anchor="start" x="182" y="-527.2" font-family="Helvetica,sans-Serif" font-size="11.00">0 rows</text>
<polygon fill="#ffffff" stroke="transparent" points="257,-522 257,-538 353,-538 353,-522 257,-522"/>
<text text-anchor="start" x="331" y="-527.2" font-family="Helvetica,sans-Serif" font-size="11.00">1 &gt;</text>
<polygon fill="black" stroke="black" points="144,-522 144,-538 144,-538 144,-522 144,-522"/>
<polygon fill="black" stroke="black" points="257,-522 257,-538 257,-538 257,-522 257,-522"/>
</a>
</g>
</g>
<!-- sia405cc_cable&#45;&gt;tww_vl.sia405cc_cable_cable_type -->
<g id="edge1" class="edge">
<title>sia405cc_cable:w&#45;&gt;tww_vl.sia405cc_cable_cable_type:e</title>
<path fill="none" stroke="black" d="M439.57,-503.33C430.87,-505.12 424.86,-508.4 412,-511 395.67,-514.3 378.58,-517.68 361.55,-520.99"/>
<polygon fill="black" stroke="black" points="446.03,-502.73 454.33,-505.58 450.02,-502.37 454,-502 454,-502 454,-502 450.02,-502.37 453.67,-498.42 446.03,-502.73 446.03,-502.73"/>
<ellipse fill="none" stroke="black" cx="442.85" cy="-503.02" rx="3.2" ry="3.2"/>
</g>
<!-- tww_vl.sia405cc_cable_elevation_determination -->
<g id="node3" class="node">
<title>tww_vl.sia405cc_cable_elevation_determination</title>
<g id="a_node3"><a xlink:href="../../../tww_vl/tables/sia405cc_cable_elevation_determination.html" xlink:title="tww_vl.sia405cc_cable_elevation_determination" target="_top">
<polygon fill="#ffffff" stroke="transparent" points="8,-275 8,-333 404,-333 404,-275 8,-275"/>
<polygon fill="#f5f5f5" stroke="transparent" points="8,-311 8,-333 404,-333 404,-311 8,-311"/>
<polygon fill="none" stroke="black" points="8,-311 8,-333 404,-333 404,-311 8,-311"/>
<text text-anchor="start" x="13" y="-320.2" font-family="Helvetica,sans-Serif" font-weight="bold" font-size="11.00">tww_vl.sia405cc_cable_elevation_determination</text>
<text text-anchor="start" x="362" y="-319.2" font-family="Helvetica,sans-Serif" font-size="11.00">[table]</text>
<polygon fill="none" stroke="black" points="8,-293 8,-311 404,-311 404,-293 8,-293"/>
<text text-anchor="start" x="11" y="-299.2" font-family="Helvetica,sans-Serif" font-size="11.00">...</text>
<polygon fill="#ffffff" stroke="transparent" points="8,-275 8,-293 404,-293 404,-275 8,-275"/>
<polygon fill="none" stroke="black" points="8,-275 8,-293 404,-293 404,-275 8,-275"/>
<polygon fill="#ffffff" stroke="transparent" points="9,-276 9,-292 127,-292 127,-276 9,-276"/>
<text text-anchor="start" x="11" y="-281.2" font-family="Helvetica,sans-Serif" font-size="11.00"> &#160;</text>
<polygon fill="#ffffff" stroke="transparent" points="127,-276 127,-292 274,-292 274,-276 127,-276"/>
<text text-anchor="start" x="182" y="-281.2" font-family="Helvetica,sans-Serif" font-size="11.00">0 rows</text>
<polygon fill="#ffffff" stroke="transparent" points="274,-276 274,-292 403,-292 403,-276 274,-276"/>
<text text-anchor="start" x="381" y="-281.2" font-family="Helvetica,sans-Serif" font-size="11.00">1 &gt;</text>
<polygon fill="black" stroke="black" points="127,-276 127,-292 127,-292 127,-276 127,-276"/>
<polygon fill="black" stroke="black" points="274,-276 274,-292 274,-292 274,-276 274,-276"/>
</a>
</g>
</g>
<!-- sia405cc_cable&#45;&gt;tww_vl.sia405cc_cable_elevation_determination -->
<g id="edge2" class="edge">
<title>sia405cc_cable:w&#45;&gt;tww_vl.sia405cc_cable_elevation_determination:e</title>
<path fill="none" stroke="black" d="M439.5,-304C430.5,-304 421.37,-304 412.2,-304"/>
<polygon fill="black" stroke="black" points="446,-304 454,-307.6 450,-304 454,-304 454,-304 454,-304 450,-304 454,-300.4 446,-304 446,-304"/>
<ellipse fill="none" stroke="black" cx="442.8" cy="-304" rx="3.2" ry="3.2"/>
</g>
<!-- organisation -->
<g id="node4" class="node">
<title>organisation</title>
<g id="a_node4"><a xlink:href="../../tables/organisation.html" xlink:title="organisation" target="_top">
<polygon fill="#ffffff" stroke="transparent" points="119,-37 119,-249 293,-249 293,-37 119,-37"/>
<polygon fill="#f5f5f5" stroke="transparent" points="119,-227 119,-249 293,-249 293,-227 119,-227"/>
<polygon fill="none" stroke="black" points="119,-227 119,-249 293,-249 293,-227 119,-227"/>
<text text-anchor="start" x="124" y="-236.2" font-family="Helvetica,sans-Serif" font-weight="bold" font-size="11.00">organisation</text>
<text text-anchor="start" x="251" y="-235.2" font-family="Helvetica,sans-Serif" font-size="11.00">[table]</text>
<polygon fill="none" stroke="black" points="119,-205 119,-227 293,-227 293,-205 119,-205"/>
<image xlink:href="../../images/primaryKeys.png" width="11px" height="12px" preserveAspectRatio="xMinYMin meet" x="124" y="-222"/>
<text text-anchor="start" x="139" y="-213.2" font-family="Helvetica,sans-Serif" font-size="11.00">obj_id</text>
<polygon fill="#ffffff" stroke="transparent" points="119,-183 119,-205 293,-205 293,-183 119,-183"/>
<polygon fill="none" stroke="black" points="119,-183 119,-205 293,-205 293,-183 119,-183"/>
<text text-anchor="start" x="139" y="-191.2" font-family="Helvetica,sans-Serif" font-size="11.00">identifier</text>
<polygon fill="#ffffff" stroke="transparent" points="119,-161 119,-183 293,-183 293,-161 119,-161"/>
<polygon fill="none" stroke="black" points="119,-161 119,-183 293,-183 293,-161 119,-161"/>
<image xlink:href="../../images/foreignKeys.png" width="11px" height="12px" preserveAspectRatio="xMinYMin meet" x="124" y="-178"/>
<text text-anchor="start" x="139" y="-169.2" font-family="Helvetica,sans-Serif" font-size="11.00">organisation_type</text>
<polygon fill="none" stroke="black" points="119,-139 119,-161 293,-161 293,-139 119,-139"/>
<image xlink:href="../../images/foreignKeys.png" width="11px" height="12px" preserveAspectRatio="xMinYMin meet" x="124" y="-156"/>
<text text-anchor="start" x="139" y="-147.2" font-family="Helvetica,sans-Serif" font-size="11.00">status</text>
<polygon fill="#ffffff" stroke="transparent" points="119,-117 119,-139 293,-139 293,-117 119,-117"/>
<polygon fill="none" stroke="black" points="119,-117 119,-139 293,-139 293,-117 119,-117"/>
<text text-anchor="start" x="139" y="-125.2" font-family="Helvetica,sans-Serif" font-size="11.00">uid</text>
<polygon fill="none" stroke="black" points="119,-95 119,-117 293,-117 293,-95 119,-95"/>
<image xlink:href="../../images/foreignKeys.png" width="11px" height="12px" preserveAspectRatio="xMinYMin meet" x="124" y="-112"/>
<text text-anchor="start" x="139" y="-103.2" font-family="Helvetica,sans-Serif" font-size="11.00">fk_dataowner</text>
<polygon fill="none" stroke="black" points="119,-73 119,-95 293,-95 293,-73 119,-73"/>
<image xlink:href="../../images/foreignKeys.png" width="11px" height="12px" preserveAspectRatio="xMinYMin meet" x="124" y="-90"/>
<text text-anchor="start" x="139" y="-81.2" font-family="Helvetica,sans-Serif" font-size="11.00">fk_provider</text>
<polygon fill="none" stroke="black" points="119,-55 119,-73 293,-73 293,-55 119,-55"/>
<text text-anchor="start" x="122" y="-61.2" font-family="Helvetica,sans-Serif" font-size="11.00">...</text>
<polygon fill="#ffffff" stroke="transparent" points="119,-37 119,-55 293,-55 293,-37 119,-37"/>
<polygon fill="none" stroke="black" points="119,-37 119,-55 293,-55 293,-37 119,-37"/>
<polygon fill="#ffffff" stroke="transparent" points="120,-38 120,-54 177,-54 177,-38 120,-38"/>
<text text-anchor="start" x="122" y="-43.2" font-family="Helvetica,sans-Serif" font-size="11.00">&lt; 4</text>
<polygon fill="#ffffff" stroke="transparent" points="177,-38 177,-54 222,-54 222,-38 177,-38"/>
<text text-anchor="start" x="195.5" y="-43.2" font-family="Helvetica,sans-Serif" font-size="11.00"> &#160;</text>
<polygon fill="#ffffff" stroke="transparent" points="222,-38 222,-54 292,-54 292,-38 222,-38"/>
<text text-anchor="start" x="256" y="-43.2" font-family="Helvetica,sans-Serif" font-size="11.00">105 &gt;</text>
<polygon fill="black" stroke="black" points="177,-38 177,-54 177,-54 177,-38 177,-38"/>
<polygon fill="black" stroke="black" points="222,-38 222,-54 222,-54 222,-38 222,-38"/>
</a>
</g>
</g>
<!-- sia405cc_cable&#45;&gt;organisation -->
<g id="edge3" class="edge">
<title>sia405cc_cable:w&#45;&gt;organisation:e</title>
<path fill="none" stroke="black" d="M439.26,-237.67C379.55,-234.94 360.59,-216 294,-216"/>
<polygon fill="black" stroke="black" points="446,-237.82 453.92,-241.6 450,-237.91 454,-238 454,-238 454,-238 450,-237.91 454.08,-234.4 446,-237.82 446,-237.82"/>
<ellipse fill="none" stroke="black" cx="442.8" cy="-237.75" rx="3.2" ry="3.2"/>
</g>
<!-- sia405cc_cable&#45;&gt;organisation -->
<g id="edge4" class="edge">
<title>sia405cc_cable:w&#45;&gt;organisation:e</title>
<path fill="none" stroke="black" d="M439.26,-194.33C379.55,-197.06 360.59,-216 294,-216"/>
<polygon fill="black" stroke="black" points="446,-194.18 454.08,-197.6 450,-194.09 454,-194 454,-194 454,-194 450,-194.09 453.92,-190.4 446,-194.18 446,-194.18"/>
<ellipse fill="none" stroke="black" cx="442.8" cy="-194.25" rx="3.2" ry="3.2"/>
</g>
<!-- sia405cc_cable&#45;&gt;organisation -->
<g id="edge5" class="edge">
<title>sia405cc_cable:w&#45;&gt;organisation:e</title>
<path fill="none" stroke="black" d="M439.38,-216C380.04,-216 359.97,-216 294,-216"/>
<polygon fill="black" stroke="black" points="446,-216 454,-219.6 450,-216 454,-216 454,-216 454,-216 450,-216 454,-212.4 446,-216 446,-216"/>
<ellipse fill="none" stroke="black" cx="442.8" cy="-216" rx="3.2" ry="3.2"/>
</g>
<!-- tww_vl.sia405cc_cable_function -->
<g id="node5" class="node">
<title>tww_vl.sia405cc_cable_function</title>
<g id="a_node5"><a xlink:href="../../../tww_vl/tables/sia405cc_cable_function.html" xlink:title="tww_vl.sia405cc_cable_function" target="_top">
<polygon fill="#ffffff" stroke="transparent" points="67.5,-600 67.5,-658 344.5,-658 344.5,-600 67.5,-600"/>
<polygon fill="#f5f5f5" stroke="transparent" points="68,-636 68,-658 345,-658 345,-636 68,-636"/>
<polygon fill="none" stroke="black" points="68,-636 68,-658 345,-658 345,-636 68,-636"/>
<text text-anchor="start" x="73" y="-645.2" font-family="Helvetica,sans-Serif" font-weight="bold" font-size="11.00">tww_vl.sia405cc_cable_function</text>
<text text-anchor="start" x="303" y="-644.2" font-family="Helvetica,sans-Serif" font-size="11.00">[table]</text>
<polygon fill="none" stroke="black" points="68,-618 68,-636 345,-636 345,-618 68,-618"/>
<text text-anchor="start" x="71" y="-624.2" font-family="Helvetica,sans-Serif" font-size="11.00">...</text>
<polygon fill="#ffffff" stroke="transparent" points="68,-600 68,-618 345,-618 345,-600 68,-600"/>
<polygon fill="none" stroke="black" points="68,-600 68,-618 345,-618 345,-600 68,-600"/>
<polygon fill="#ffffff" stroke="transparent" points="69,-601 69,-617 147,-617 147,-601 69,-601"/>
<text text-anchor="start" x="71" y="-606.2" font-family="Helvetica,sans-Serif" font-size="11.00"> &#160;</text>
<polygon fill="#ffffff" stroke="transparent" points="147,-601 147,-617 254,-617 254,-601 147,-601"/>
<text text-anchor="start" x="182" y="-606.2" font-family="Helvetica,sans-Serif" font-size="11.00">0 rows</text>
<polygon fill="#ffffff" stroke="transparent" points="254,-601 254,-617 344,-617 344,-601 254,-601"/>
<text text-anchor="start" x="322" y="-606.2" font-family="Helvetica,sans-Serif" font-size="11.00">1 &gt;</text>
<polygon fill="black" stroke="black" points="147,-601 147,-617 147,-617 147,-601 147,-601"/>
<polygon fill="black" stroke="black" points="254,-601 254,-617 254,-617 254,-601 254,-601"/>
</a>
</g>
</g>
<!-- sia405cc_cable&#45;&gt;tww_vl.sia405cc_cable_function -->
<g id="edge6" class="edge">
<title>sia405cc_cable:w&#45;&gt;tww_vl.sia405cc_cable_function:e</title>
<path fill="none" stroke="black" d="M440.09,-528.08C425.35,-539.83 435.6,-573.99 412,-590 394.24,-602.05 373.71,-610.61 352.66,-616.65"/>
<polygon fill="black" stroke="black" points="446.32,-526.25 455.01,-527.45 450.16,-525.13 454,-524 454,-524 454,-524 450.16,-525.13 452.99,-520.55 446.32,-526.25 446.32,-526.25"/>
<ellipse fill="none" stroke="black" cx="443.25" cy="-527.15" rx="3.2" ry="3.2"/>
</g>
<!-- tww_vl.sia405cc_cable_horizontal_positioning -->
<g id="node6" class="node">
<title>tww_vl.sia405cc_cable_horizontal_positioning</title>
<g id="a_node6"><a xlink:href="../../../tww_vl/tables/sia405cc_cable_horizontal_positioning.html" xlink:title="tww_vl.sia405cc_cable_horizontal_positioning" target="_top">
<polygon fill="#ffffff" stroke="transparent" points="16,-442 16,-500 396,-500 396,-442 16,-442"/>
<polygon fill="#f5f5f5" stroke="transparent" points="16,-478 16,-500 396,-500 396,-478 16,-478"/>
<polygon fill="none" stroke="black" points="16,-478 16,-500 396,-500 396,-478 16,-478"/>
<text text-anchor="start" x="21" y="-487.2" font-family="Helvetica,sans-Serif" font-weight="bold" font-size="11.00">tww_vl.sia405cc_cable_horizontal_positioning</text>
<text text-anchor="start" x="354" y="-486.2" font-family="Helvetica,sans-Serif" font-size="11.00">[table]</text>
<polygon fill="none" stroke="black" points="16,-460 16,-478 396,-478 396,-460 16,-460"/>
<text text-anchor="start" x="19" y="-466.2" font-family="Helvetica,sans-Serif" font-size="11.00">...</text>
<polygon fill="#ffffff" stroke="transparent" points="16,-442 16,-460 396,-460 396,-442 16,-442"/>
<polygon fill="none" stroke="black" points="16,-442 16,-460 396,-460 396,-442 16,-442"/>
<polygon fill="#ffffff" stroke="transparent" points="17,-443 17,-459 130,-459 130,-443 17,-443"/>
<text text-anchor="start" x="19" y="-448.2" font-family="Helvetica,sans-Serif" font-size="11.00"> &#160;</text>
<polygon fill="#ffffff" stroke="transparent" points="130,-443 130,-459 271,-459 271,-443 130,-443"/>
<text text-anchor="start" x="182" y="-448.2" font-family="Helvetica,sans-Serif" font-size="11.00">0 rows</text>
<polygon fill="#ffffff" stroke="transparent" points="271,-443 271,-459 395,-459 395,-443 271,-443"/>
<text text-anchor="start" x="373" y="-448.2" font-family="Helvetica,sans-Serif" font-size="11.00">1 &gt;</text>
<polygon fill="black" stroke="black" points="130,-443 130,-459 130,-459 130,-443 130,-443"/>
<polygon fill="black" stroke="black" points="271,-443 271,-459 271,-459 271,-443 271,-443"/>
</a>
</g>
</g>
<!-- sia405cc_cable&#45;&gt;tww_vl.sia405cc_cable_horizontal_positioning -->
<g id="edge7" class="edge">
<title>sia405cc_cable:w&#45;&gt;tww_vl.sia405cc_cable_horizontal_positioning:e</title>
<path fill="none" stroke="black" d="M439.43,-479.95C427.83,-479.87 416,-479.71 404.15,-479.47"/>
<polygon fill="black" stroke="black" points="446,-479.97 453.99,-483.6 450,-479.99 454,-480 454,-480 454,-480 450,-479.99 454.01,-476.4 446,-479.97 446,-479.97"/>
<ellipse fill="none" stroke="black" cx="442.8" cy="-479.96" rx="3.2" ry="3.2"/>
</g>
<!-- tww_vl.sia405cc_cable_status -->
<g id="node7" class="node">
<title>tww_vl.sia405cc_cable_status</title>
<g id="a_node7"><a xlink:href="../../../tww_vl/tables/sia405cc_cable_status.html" xlink:title="tww_vl.sia405cc_cable_status" target="_top">
<polygon fill="#ffffff" stroke="transparent" points="74.5,-363 74.5,-421 337.5,-421 337.5,-363 74.5,-363"/>
<polygon fill="#f5f5f5" stroke="transparent" points="75,-399 75,-421 338,-421 338,-399 75,-399"/>
<polygon fill="none" stroke="black" points="75,-399 75,-421 338,-421 338,-399 75,-399"/>
<text text-anchor="start" x="80" y="-408.2" font-family="Helvetica,sans-Serif" font-weight="bold" font-size="11.00">tww_vl.sia405cc_cable_status</text>
<text text-anchor="start" x="296" y="-407.2" font-family="Helvetica,sans-Serif" font-size="11.00">[table]</text>
<polygon fill="none" stroke="black" points="75,-381 75,-399 338,-399 338,-381 75,-381"/>
<text text-anchor="start" x="78" y="-387.2" font-family="Helvetica,sans-Serif" font-size="11.00">...</text>
<polygon fill="#ffffff" stroke="transparent" points="75,-363 75,-381 338,-381 338,-363 75,-363"/>
<polygon fill="none" stroke="black" points="75,-363 75,-381 338,-381 338,-363 75,-363"/>
<polygon fill="#ffffff" stroke="transparent" points="76,-364 76,-380 150,-380 150,-364 76,-364"/>
<text text-anchor="start" x="78" y="-369.2" font-family="Helvetica,sans-Serif" font-size="11.00"> &#160;</text>
<polygon fill="#ffffff" stroke="transparent" points="150,-364 150,-380 252,-380 252,-364 150,-364"/>
<text text-anchor="start" x="182.5" y="-369.2" font-family="Helvetica,sans-Serif" font-size="11.00">0 rows</text>
<polygon fill="#ffffff" stroke="transparent" points="252,-364 252,-380 337,-380 337,-364 252,-364"/>
<text text-anchor="start" x="315" y="-369.2" font-family="Helvetica,sans-Serif" font-size="11.00">1 &gt;</text>
<polygon fill="black" stroke="black" points="150,-364 150,-380 150,-380 150,-364 150,-364"/>
<polygon fill="black" stroke="black" points="252,-364 252,-380 252,-380 252,-364 252,-364"/>
</a>
</g>
</g>
<!-- sia405cc_cable&#45;&gt;tww_vl.sia405cc_cable_status -->
<g id="edge8" class="edge">
<title>sia405cc_cable:w&#45;&gt;tww_vl.sia405cc_cable_status:e</title>
<path fill="none" stroke="black" d="M439.82,-454.35C430.62,-448.67 426.69,-437.76 412,-432 391.07,-423.8 368.25,-417.22 345.69,-411.96"/>
<polygon fill="black" stroke="black" points="446.25,-456.01 453.1,-461.49 450.13,-457 454,-458 454,-458 454,-458 450.13,-457 454.9,-454.51 446.25,-456.01 446.25,-456.01"/>
<ellipse fill="none" stroke="black" cx="443.15" cy="-455.21" rx="3.2" ry="3.2"/>
</g>
</g>
</svg>
