<?xml version="1.0" encoding="UTF-8" standalone="no"?>
<!DOCTYPE svg PUBLIC "-//W3C//DTD SVG 1.1//EN"
 "http://www.w3.org/Graphics/SVG/1.1/DTD/svg11.dtd">
<!-- Generated by graphviz version 2.47.1 (20210515.0534)
 -->
<!-- Title: oneDegreeRelationshipsDiagram Pages: 1 -->
<svg width="875pt" height="698pt"
 viewBox="0.00 0.00 875.00 698.00" xmlns="http://www.w3.org/2000/svg" xmlns:xlink="http://www.w3.org/1999/xlink">
<g id="graph0" class="graph" transform="scale(1 1) rotate(0) translate(4 694)">
<title>oneDegreeRelationshipsDiagram</title>
<polygon fill="#ffffff" stroke="transparent" points="-4,4 -4,-694 871,-694 871,4 -4,4"/>
<text text-anchor="middle" x="73.5" y="-7.2" font-family="Helvetica,sans-Serif" font-size="11.00">Generated by SchemaSpy</text>
<!-- sludge_treatment -->
<g id="node1" class="node">
<title>sludge_treatment</title>
<g id="a_node1"><a xlink:href="../../tables/sludge_treatment.html" xlink:title="sludge_treatment" target="_top">
<polygon fill="#ffffff" stroke="transparent" points="528,-224 528,-686 859,-686 859,-224 528,-224"/>
<polygon fill="#f5f5f5" stroke="transparent" points="530.5,-662 530.5,-684 857.5,-684 857.5,-662 530.5,-662"/>
<polygon fill="none" stroke="black" points="530.5,-662 530.5,-684 857.5,-684 857.5,-662 530.5,-662"/>
<text text-anchor="start" x="535.5" y="-671.2" font-family="Helvetica,sans-Serif" font-weight="bold" font-size="11.00">sludge_treatment</text>
<text text-anchor="start" x="818.5" y="-670.2" font-family="Helvetica,sans-Serif" font-size="11.00">[table]</text>
<polygon fill="none" stroke="black" points="530.5,-640 530.5,-662 763.5,-662 763.5,-640 530.5,-640"/>
<image xlink:href="../../images/primaryKeys.png" width="11px" height="12px" preserveAspectRatio="xMinYMin meet" x="535.5" y="-657"/>
<text text-anchor="start" x="550.5" y="-648.2" font-family="Helvetica,sans-Serif" font-size="11.00">obj_id</text>
<polygon fill="none" stroke="black" points="763.5,-640 763.5,-662 857.5,-662 857.5,-640 763.5,-640"/>
<text text-anchor="start" x="766.5" y="-648.2" font-family="Helvetica,sans-Serif" font-size="11.00">varchar[16]</text>
<polygon fill="none" stroke="black" points="530.5,-618 530.5,-640 763.5,-640 763.5,-618 530.5,-618"/>
<text text-anchor="start" x="550.5" y="-626.2" font-family="Helvetica,sans-Serif" font-size="11.00">composting</text>
<polygon fill="none" stroke="black" points="763.5,-618 763.5,-640 857.5,-640 857.5,-618 763.5,-618"/>
<text text-anchor="start" x="766.5" y="-626.2" font-family="Helvetica,sans-Serif" font-size="11.00">numeric[7,2]</text>
<polygon fill="none" stroke="black" points="530.5,-596 530.5,-618 763.5,-618 763.5,-596 530.5,-596"/>
<text text-anchor="start" x="550.5" y="-604.2" font-family="Helvetica,sans-Serif" font-size="11.00">dehydration</text>
<polygon fill="none" stroke="black" points="763.5,-596 763.5,-618 857.5,-618 857.5,-596 763.5,-596"/>
<text text-anchor="start" x="766.5" y="-604.2" font-family="Helvetica,sans-Serif" font-size="11.00">numeric[7,2]</text>
<polygon fill="none" stroke="black" points="530.5,-574 530.5,-596 763.5,-596 763.5,-574 530.5,-574"/>
<text text-anchor="start" x="550.5" y="-582.2" font-family="Helvetica,sans-Serif" font-size="11.00">digested_sludge_combustion</text>
<polygon fill="none" stroke="black" points="763.5,-574 763.5,-596 857.5,-596 857.5,-574 763.5,-574"/>
<text text-anchor="start" x="766.5" y="-582.2" font-family="Helvetica,sans-Serif" font-size="11.00">numeric[7,2]</text>
<polygon fill="none" stroke="black" points="530.5,-552 530.5,-574 763.5,-574 763.5,-552 530.5,-552"/>
<text text-anchor="start" x="550.5" y="-560.2" font-family="Helvetica,sans-Serif" font-size="11.00">drying</text>
<polygon fill="none" stroke="black" points="763.5,-552 763.5,-574 857.5,-574 857.5,-552 763.5,-552"/>
<text text-anchor="start" x="766.5" y="-560.2" font-family="Helvetica,sans-Serif" font-size="11.00">numeric[7,2]</text>
<polygon fill="none" stroke="black" points="530.5,-530 530.5,-552 763.5,-552 763.5,-530 530.5,-530"/>
<text text-anchor="start" x="550.5" y="-538.2" font-family="Helvetica,sans-Serif" font-size="11.00">fresh_sludge_combustion</text>
<polygon fill="none" stroke="black" points="763.5,-530 763.5,-552 857.5,-552 857.5,-530 763.5,-530"/>
<text text-anchor="start" x="766.5" y="-538.2" font-family="Helvetica,sans-Serif" font-size="11.00">numeric[7,2]</text>
<polygon fill="none" stroke="black" points="530.5,-508 530.5,-530 763.5,-530 763.5,-508 530.5,-508"/>
<text text-anchor="start" x="550.5" y="-516.2" font-family="Helvetica,sans-Serif" font-size="11.00">hygenisation</text>
<polygon fill="none" stroke="black" points="763.5,-508 763.5,-530 857.5,-530 857.5,-508 763.5,-508"/>
<text text-anchor="start" x="766.5" y="-516.2" font-family="Helvetica,sans-Serif" font-size="11.00">numeric[7,2]</text>
<polygon fill="#ffffff" stroke="transparent" points="530.5,-486 530.5,-508 763.5,-508 763.5,-486 530.5,-486"/>
<polygon fill="none" stroke="black" points="530.5,-486 530.5,-508 763.5,-508 763.5,-486 530.5,-486"/>
<text text-anchor="start" x="550.5" y="-494.2" font-family="Helvetica,sans-Serif" font-size="11.00">identifier</text>
<polygon fill="none" stroke="black" points="763.5,-486 763.5,-508 857.5,-508 857.5,-486 763.5,-486"/>
<text text-anchor="start" x="766.5" y="-494.2" font-family="Helvetica,sans-Serif" font-size="11.00">text[2147483647]</text>
<polygon fill="none" stroke="black" points="530.5,-464 530.5,-486 763.5,-486 763.5,-464 530.5,-464"/>
<text text-anchor="start" x="550.5" y="-472.2" font-family="Helvetica,sans-Serif" font-size="11.00">predensification_of_excess_sludge</text>
<polygon fill="none" stroke="black" points="763.5,-464 763.5,-486 857.5,-486 857.5,-464 763.5,-464"/>
<text text-anchor="start" x="766.5" y="-472.2" font-family="Helvetica,sans-Serif" font-size="11.00">numeric[10,2]</text>
<polygon fill="none" stroke="black" points="530.5,-442 530.5,-464 763.5,-464 763.5,-442 530.5,-442"/>
<text text-anchor="start" x="550.5" y="-450.2" font-family="Helvetica,sans-Serif" font-size="11.00">predensification_of_mixed_sludge</text>
<polygon fill="none" stroke="black" points="763.5,-442 763.5,-464 857.5,-464 857.5,-442 763.5,-442"/>
<text text-anchor="start" x="766.5" y="-450.2" font-family="Helvetica,sans-Serif" font-size="11.00">numeric[10,2]</text>
<polygon fill="none" stroke="black" points="530.5,-420 530.5,-442 763.5,-442 763.5,-420 530.5,-420"/>
<text text-anchor="start" x="550.5" y="-428.2" font-family="Helvetica,sans-Serif" font-size="11.00">predensification_of_primary_sludge</text>
<polygon fill="none" stroke="black" points="763.5,-420 763.5,-442 857.5,-442 857.5,-420 763.5,-420"/>
<text text-anchor="start" x="766.5" y="-428.2" font-family="Helvetica,sans-Serif" font-size="11.00">numeric[10,2]</text>
<polygon fill="none" stroke="black" points="530.5,-398 530.5,-420 763.5,-420 763.5,-398 530.5,-398"/>
<text text-anchor="start" x="550.5" y="-406.2" font-family="Helvetica,sans-Serif" font-size="11.00">remark</text>
<polygon fill="none" stroke="black" points="763.5,-398 763.5,-420 857.5,-420 857.5,-398 763.5,-398"/>
<text text-anchor="start" x="766.5" y="-406.2" font-family="Helvetica,sans-Serif" font-size="11.00">text[2147483647]</text>
<polygon fill="none" stroke="black" points="530.5,-376 530.5,-398 763.5,-398 763.5,-376 530.5,-376"/>
<image xlink:href="../../images/foreignKeys.png" width="11px" height="12px" preserveAspectRatio="xMinYMin meet" x="535.5" y="-393"/>
<text text-anchor="start" x="550.5" y="-384.2" font-family="Helvetica,sans-Serif" font-size="11.00">stabilisation</text>
<polygon fill="none" stroke="black" points="763.5,-376 763.5,-398 857.5,-398 857.5,-376 763.5,-376"/>
<text text-anchor="start" x="766.5" y="-384.2" font-family="Helvetica,sans-Serif" font-size="11.00">int4[10]</text>
<polygon fill="none" stroke="black" points="530.5,-354 530.5,-376 763.5,-376 763.5,-354 530.5,-354"/>
<text text-anchor="start" x="550.5" y="-362.2" font-family="Helvetica,sans-Serif" font-size="11.00">stacking_of_dehydrated_sludge</text>
<polygon fill="none" stroke="black" points="763.5,-354 763.5,-376 857.5,-376 857.5,-354 763.5,-354"/>
<text text-anchor="start" x="766.5" y="-362.2" font-family="Helvetica,sans-Serif" font-size="11.00">numeric[10,2]</text>
<polygon fill="none" stroke="black" points="530.5,-332 530.5,-354 763.5,-354 763.5,-332 530.5,-332"/>
<text text-anchor="start" x="550.5" y="-340.2" font-family="Helvetica,sans-Serif" font-size="11.00">stacking_of_liquid_sludge</text>
<polygon fill="none" stroke="black" points="763.5,-332 763.5,-354 857.5,-354 857.5,-332 763.5,-332"/>
<text text-anchor="start" x="766.5" y="-340.2" font-family="Helvetica,sans-Serif" font-size="11.00">numeric[10,2]</text>
<polygon fill="none" stroke="black" points="530.5,-310 530.5,-332 763.5,-332 763.5,-310 530.5,-310"/>
<text text-anchor="start" x="550.5" y="-318.2" font-family="Helvetica,sans-Serif" font-size="11.00">last_modification</text>
<polygon fill="none" stroke="black" points="763.5,-310 763.5,-332 857.5,-332 857.5,-310 763.5,-310"/>
<text text-anchor="start" x="766.5" y="-318.2" font-family="Helvetica,sans-Serif" font-size="11.00">timestamp[29,6]</text>
<polygon fill="#ffffff" stroke="transparent" points="530.5,-288 530.5,-310 763.5,-310 763.5,-288 530.5,-288"/>
<polygon fill="none" stroke="black" points="530.5,-288 530.5,-310 763.5,-310 763.5,-288 530.5,-288"/>
<image xlink:href="../../images/foreignKeys.png" width="11px" height="12px" preserveAspectRatio="xMinYMin meet" x="535.5" y="-305"/>
<text text-anchor="start" x="550.5" y="-296.2" font-family="Helvetica,sans-Serif" font-size="11.00">fk_dataowner</text>
<polygon fill="none" stroke="black" points="763.5,-288 763.5,-310 857.5,-310 857.5,-288 763.5,-288"/>
<text text-anchor="start" x="766.5" y="-296.2" font-family="Helvetica,sans-Serif" font-size="11.00">varchar[16]</text>
<polygon fill="none" stroke="black" points="530.5,-266 530.5,-288 763.5,-288 763.5,-266 530.5,-266"/>
<image xlink:href="../../images/foreignKeys.png" width="11px" height="12px" preserveAspectRatio="xMinYMin meet" x="535.5" y="-283"/>
<text text-anchor="start" x="550.5" y="-274.2" font-family="Helvetica,sans-Serif" font-size="11.00">fk_provider</text>
<polygon fill="none" stroke="black" points="763.5,-266 763.5,-288 857.5,-288 857.5,-266 763.5,-266"/>
<text text-anchor="start" x="766.5" y="-274.2" font-family="Helvetica,sans-Serif" font-size="11.00">varchar[16]</text>
<polygon fill="none" stroke="black" points="530.5,-244 530.5,-266 763.5,-266 763.5,-244 530.5,-244"/>
<image xlink:href="../../images/foreignKeys.png" width="11px" height="12px" preserveAspectRatio="xMinYMin meet" x="535.5" y="-261"/>
<text text-anchor="start" x="550.5" y="-252.2" font-family="Helvetica,sans-Serif" font-size="11.00">fk_waste_water_treatment_plant</text>
<polygon fill="none" stroke="black" points="763.5,-244 763.5,-266 857.5,-266 857.5,-244 763.5,-244"/>
<text text-anchor="start" x="766.5" y="-252.2" font-family="Helvetica,sans-Serif" font-size="11.00">varchar[16]</text>
<polygon fill="#ffffff" stroke="transparent" points="530.5,-226 530.5,-244 651.5,-244 651.5,-226 530.5,-226"/>
<polygon fill="none" stroke="black" points="530.5,-226 530.5,-244 651.5,-244 651.5,-226 530.5,-226"/>
<text text-anchor="start" x="533.5" y="-232.2" font-family="Helvetica,sans-Serif" font-size="11.00">&lt; 4</text>
<polygon fill="#ffffff" stroke="transparent" points="651.5,-226 651.5,-244 763.5,-244 763.5,-226 651.5,-226"/>
<polygon fill="none" stroke="black" points="651.5,-226 651.5,-244 763.5,-244 763.5,-226 651.5,-226"/>
<text text-anchor="start" x="753.5" y="-232.2" font-family="Helvetica,sans-Serif" font-size="11.00"> &#160;</text>
<polygon fill="#ffffff" stroke="transparent" points="763.5,-226 763.5,-244 857.5,-244 857.5,-226 763.5,-226"/>
<polygon fill="none" stroke="black" points="763.5,-226 763.5,-244 857.5,-244 857.5,-226 763.5,-226"/>
<text text-anchor="start" x="838.5" y="-232.2" font-family="Helvetica,sans-Serif" font-size="11.00">0 &gt;</text>
<polygon fill="none" stroke="black" stroke-width="2" points="529,-225 529,-685 858,-685 858,-225 529,-225"/>
</a>
</g>
</g>
<!-- organisation -->
<g id="node2" class="node">
<title>organisation</title>
<g id="a_node2"><a xlink:href="../../tables/organisation.html" xlink:title="organisation" target="_top">
<polygon fill="#ffffff" stroke="transparent" points="8,-37 8,-227 156,-227 156,-37 8,-37"/>
<polygon fill="#f5f5f5" stroke="transparent" points="8,-205 8,-227 156,-227 156,-205 8,-205"/>
<polygon fill="none" stroke="black" points="8,-205 8,-227 156,-227 156,-205 8,-205"/>
<text text-anchor="start" x="13" y="-214.2" font-family="Helvetica,sans-Serif" font-weight="bold" font-size="11.00">organisation</text>
<text text-anchor="start" x="117" y="-213.2" font-family="Helvetica,sans-Serif" font-size="11.00">[table]</text>
<polygon fill="none" stroke="black" points="8,-183 8,-205 156,-205 156,-183 8,-183"/>
<image xlink:href="../../images/primaryKeys.png" width="11px" height="12px" preserveAspectRatio="xMinYMin meet" x="13" y="-200"/>
<text text-anchor="start" x="28" y="-191.2" font-family="Helvetica,sans-Serif" font-size="11.00">obj_id</text>
<polygon fill="#ffffff" stroke="transparent" points="8,-161 8,-183 156,-183 156,-161 8,-161"/>
<polygon fill="none" stroke="black" points="8,-161 8,-183 156,-183 156,-161 8,-161"/>
<text text-anchor="start" x="28" y="-169.2" font-family="Helvetica,sans-Serif" font-size="11.00">identifier</text>
<polygon fill="none" stroke="black" points="8,-139 8,-161 156,-161 156,-139 8,-139"/>
<image xlink:href="../../images/foreignKeys.png" width="11px" height="12px" preserveAspectRatio="xMinYMin meet" x="13" y="-156"/>
<text text-anchor="start" x="28" y="-147.2" font-family="Helvetica,sans-Serif" font-size="11.00">organisation_type</text>
<polygon fill="none" stroke="black" points="8,-117 8,-139 156,-139 156,-117 8,-117"/>
<image xlink:href="../../images/foreignKeys.png" width="11px" height="12px" preserveAspectRatio="xMinYMin meet" x="13" y="-134"/>
<text text-anchor="start" x="28" y="-125.2" font-family="Helvetica,sans-Serif" font-size="11.00">status</text>
<polygon fill="#ffffff" stroke="transparent" points="8,-95 8,-117 156,-117 156,-95 8,-95"/>
<polygon fill="none" stroke="black" points="8,-95 8,-117 156,-117 156,-95 8,-95"/>
<image xlink:href="../../images/foreignKeys.png" width="11px" height="12px" preserveAspectRatio="xMinYMin meet" x="13" y="-112"/>
<text text-anchor="start" x="28" y="-103.2" font-family="Helvetica,sans-Serif" font-size="11.00">fk_dataowner</text>
<polygon fill="none" stroke="black" points="8,-73 8,-95 156,-95 156,-73 8,-73"/>
<image xlink:href="../../images/foreignKeys.png" width="11px" height="12px" preserveAspectRatio="xMinYMin meet" x="13" y="-90"/>
<text text-anchor="start" x="28" y="-81.2" font-family="Helvetica,sans-Serif" font-size="11.00">fk_provider</text>
<polygon fill="none" stroke="black" points="8,-55 8,-73 156,-73 156,-55 8,-55"/>
<text text-anchor="start" x="11" y="-61.2" font-family="Helvetica,sans-Serif" font-size="11.00">...</text>
<polygon fill="#ffffff" stroke="transparent" points="8,-37 8,-55 72,-55 72,-37 8,-37"/>
<polygon fill="none" stroke="black" points="8,-37 8,-55 72,-55 72,-37 8,-37"/>
<text text-anchor="start" x="11" y="-43.2" font-family="Helvetica,sans-Serif" font-size="11.00">&lt; 4</text>
<polygon fill="#ffffff" stroke="transparent" points="72,-37 72,-55 106,-55 106,-37 72,-37"/>
<polygon fill="none" stroke="black" points="72,-37 72,-55 106,-55 106,-37 72,-37"/>
<text text-anchor="start" x="96" y="-43.2" font-family="Helvetica,sans-Serif" font-size="11.00"> &#160;</text>
<polygon fill="#ffffff" stroke="transparent" points="106,-37 106,-55 156,-55 156,-37 106,-37"/>
<polygon fill="none" stroke="black" points="106,-37 106,-55 156,-55 156,-37 106,-37"/>
<text text-anchor="start" x="131" y="-43.2" font-family="Helvetica,sans-Serif" font-size="11.00">92 &gt;</text>
</a>
</g>
</g>
<!-- sludge_treatment&#45;&gt;organisation -->
<g id="edge1" class="edge">
<title>sludge_treatment:w&#45;&gt;organisation:e</title>
<path fill="none" stroke="black" d="M515.05,-299.23C377.4,-303.58 314.97,-367.76 197,-287 159.87,-261.58 201.99,-194 157,-194"/>
<polygon fill="black" stroke="black" points="521.5,-299.13 529.56,-302.6 525.5,-299.06 529.5,-299 529.5,-299 529.5,-299 525.5,-299.06 529.44,-295.4 521.5,-299.13 521.5,-299.13"/>
<ellipse fill="none" stroke="black" cx="518.3" cy="-299.18" rx="3.2" ry="3.2"/>
</g>
<!-- sludge_treatment&#45;&gt;organisation -->
<g id="edge2" class="edge">
<title>sludge_treatment:w&#45;&gt;organisation:e</title>
<path fill="none" stroke="black" d="M515.05,-277.25C432.75,-279.8 256.45,-300.07 197,-264 166.37,-245.41 192.83,-194 157,-194"/>
<polygon fill="black" stroke="black" points="521.5,-277.14 529.56,-280.6 525.5,-277.07 529.5,-277 529.5,-277 529.5,-277 525.5,-277.07 529.44,-273.4 521.5,-277.14 521.5,-277.14"/>
<ellipse fill="none" stroke="black" cx="518.3" cy="-277.19" rx="3.2" ry="3.2"/>
</g>
<!-- waste_water_treatment_plant -->
<g id="node3" class="node">
<title>waste_water_treatment_plant</title>
<g id="a_node3"><a xlink:href="../../tables/waste_water_treatment_plant.html" xlink:title="waste_water_treatment_plant" target="_top">
<polygon fill="#ffffff" stroke="transparent" points="230.5,-41 230.5,-253 453.5,-253 453.5,-41 230.5,-41"/>
<polygon fill="#f5f5f5" stroke="transparent" points="231,-231 231,-253 454,-253 454,-231 231,-231"/>
<polygon fill="none" stroke="black" points="231,-231 231,-253 454,-253 454,-231 231,-231"/>
<text text-anchor="start" x="236" y="-240.2" font-family="Helvetica,sans-Serif" font-weight="bold" font-size="11.00">waste_water_treatment_plant</text>
<text text-anchor="start" x="415" y="-239.2" font-family="Helvetica,sans-Serif" font-size="11.00">[table]</text>
<polygon fill="none" stroke="black" points="231,-209 231,-231 454,-231 454,-209 231,-209"/>
<image xlink:href="../../images/primaryKeys.png" width="11px" height="12px" preserveAspectRatio="xMinYMin meet" x="236" y="-226"/>
<text text-anchor="start" x="263" y="-217.2" font-family="Helvetica,sans-Serif" font-size="11.00">obj_id</text>
<polygon fill="#ffffff" stroke="transparent" points="231,-187 231,-209 454,-209 454,-187 231,-187"/>
<polygon fill="none" stroke="black" points="231,-187 231,-209 454,-209 454,-187 231,-187"/>
<text text-anchor="start" x="263" y="-195.2" font-family="Helvetica,sans-Serif" font-size="11.00">area_geometry</text>
<polygon fill="#ffffff" stroke="transparent" points="231,-165 231,-187 454,-187 454,-165 231,-165"/>
<polygon fill="none" stroke="black" points="231,-165 231,-187 454,-187 454,-165 231,-165"/>
<text text-anchor="start" x="263" y="-173.2" font-family="Helvetica,sans-Serif" font-size="11.00">identifier</text>
<polygon fill="none" stroke="black" points="231,-143 231,-165 454,-165 454,-143 231,-143"/>
<image xlink:href="../../images/foreignKeys.png" width="11px" height="12px" preserveAspectRatio="xMinYMin meet" x="236" y="-160"/>
<text text-anchor="start" x="263" y="-151.2" font-family="Helvetica,sans-Serif" font-size="11.00">operator_type</text>
<polygon fill="#ffffff" stroke="transparent" points="231,-121 231,-143 454,-143 454,-121 231,-121"/>
<polygon fill="none" stroke="black" points="231,-121 231,-143 454,-143 454,-121 231,-121"/>
<text text-anchor="start" x="263" y="-129.2" font-family="Helvetica,sans-Serif" font-size="11.00">situation_geometry</text>
<polygon fill="#ffffff" stroke="transparent" points="231,-99 231,-121 454,-121 454,-99 231,-99"/>
<polygon fill="none" stroke="black" points="231,-99 231,-121 454,-121 454,-99 231,-99"/>
<image xlink:href="../../images/foreignKeys.png" width="11px" height="12px" preserveAspectRatio="xMinYMin meet" x="236" y="-116"/>
<text text-anchor="start" x="263" y="-107.2" font-family="Helvetica,sans-Serif" font-size="11.00">fk_dataowner</text>
<polygon fill="none" stroke="black" points="231,-77 231,-99 454,-99 454,-77 231,-77"/>
<image xlink:href="../../images/foreignKeys.png" width="11px" height="12px" preserveAspectRatio="xMinYMin meet" x="236" y="-94"/>
<text text-anchor="start" x="263" y="-85.2" font-family="Helvetica,sans-Serif" font-size="11.00">fk_provider</text>
<polygon fill="none" stroke="black" points="231,-59 231,-77 454,-77 454,-59 231,-59"/>
<text text-anchor="start" x="234" y="-65.2" font-family="Helvetica,sans-Serif" font-size="11.00">...</text>
<polygon fill="#ffffff" stroke="transparent" points="231,-41 231,-59 336,-59 336,-41 231,-41"/>
<polygon fill="none" stroke="black" points="231,-41 231,-59 336,-59 336,-41 231,-41"/>
<text text-anchor="start" x="234" y="-47.2" font-family="Helvetica,sans-Serif" font-size="11.00">&lt; 3</text>
<polygon fill="#ffffff" stroke="transparent" points="336,-41 336,-59 390,-59 390,-41 336,-41"/>
<polygon fill="none" stroke="black" points="336,-41 336,-59 390,-59 390,-41 336,-41"/>
<text text-anchor="start" x="380" y="-47.2" font-family="Helvetica,sans-Serif" font-size="11.00"> &#160;</text>
<polygon fill="#ffffff" stroke="transparent" points="390,-41 390,-59 454,-59 454,-41 390,-41"/>
<polygon fill="none" stroke="black" points="390,-41 390,-59 454,-59 454,-41 390,-41"/>
<text text-anchor="start" x="435" y="-47.2" font-family="Helvetica,sans-Serif" font-size="11.00">5 &gt;</text>
</a>
</g>
</g>
<!-- sludge_treatment&#45;&gt;waste_water_treatment_plant -->
<g id="edge3" class="edge">
<title>sludge_treatment:w&#45;&gt;waste_water_treatment_plant:e</title>
<path fill="none" stroke="black" d="M514.99,-252.81C491.69,-245.15 486.01,-220 455,-220"/>
<polygon fill="black" stroke="black" points="521.59,-253.81 528.96,-258.56 525.54,-254.4 529.5,-255 529.5,-255 529.5,-255 525.54,-254.4 530.04,-251.44 521.59,-253.81 521.59,-253.81"/>
<ellipse fill="none" stroke="black" cx="518.43" cy="-253.33" rx="3.2" ry="3.2"/>
</g>
<!-- tww_vl.sludge_treatment_stabilisation -->
<g id="node4" class="node">
<title>tww_vl.sludge_treatment_stabilisation</title>
<g id="a_node4"><a xlink:href="../../../tww_vl/tables/sludge_treatment_stabilisation.html" xlink:title="tww_vl.sludge_treatment_stabilisation" target="_top">
<polygon fill="#ffffff" stroke="transparent" points="205,-358 205,-416 479,-416 479,-358 205,-358"/>
<polygon fill="#f5f5f5" stroke="transparent" points="205,-394 205,-416 479,-416 479,-394 205,-394"/>
<polygon fill="none" stroke="black" points="205,-394 205,-416 479,-416 479,-394 205,-394"/>
<text text-anchor="start" x="210" y="-403.2" font-family="Helvetica,sans-Serif" font-weight="bold" font-size="11.00">tww_vl.sludge_treatment_stabilisation</text>
<text text-anchor="start" x="440" y="-402.2" font-family="Helvetica,sans-Serif" font-size="11.00">[table]</text>
<polygon fill="none" stroke="black" points="205,-376 205,-394 479,-394 479,-376 205,-376"/>
<text text-anchor="start" x="208" y="-382.2" font-family="Helvetica,sans-Serif" font-size="11.00">...</text>
<polygon fill="#ffffff" stroke="transparent" points="205,-358 205,-376 317,-376 317,-358 205,-358"/>
<polygon fill="none" stroke="black" points="205,-358 205,-376 317,-376 317,-358 205,-358"/>
<text text-anchor="start" x="208" y="-364.2" font-family="Helvetica,sans-Serif" font-size="11.00"> &#160;</text>
<polygon fill="#ffffff" stroke="transparent" points="317,-358 317,-376 407,-376 407,-358 317,-358"/>
<polygon fill="none" stroke="black" points="317,-358 317,-376 407,-376 407,-358 317,-358"/>
<text text-anchor="start" x="370" y="-364.2" font-family="Helvetica,sans-Serif" font-size="11.00">0 rows</text>
<polygon fill="#ffffff" stroke="transparent" points="407,-358 407,-376 479,-376 479,-358 407,-358"/>
<polygon fill="none" stroke="black" points="407,-358 407,-376 479,-376 479,-358 407,-358"/>
<text text-anchor="start" x="460" y="-364.2" font-family="Helvetica,sans-Serif" font-size="11.00">1 &gt;</text>
</a>
</g>
</g>
<!-- sludge_treatment&#45;&gt;tww_vl.sludge_treatment_stabilisation -->
<g id="edge4" class="edge">
<title>sludge_treatment:w&#45;&gt;tww_vl.sludge_treatment_stabilisation:e</title>
<path fill="none" stroke="black" d="M514.8,-387C505.66,-387 496.37,-387 487.07,-387"/>
<polygon fill="black" stroke="black" points="521.5,-387 529.5,-390.6 525.5,-387 529.5,-387 529.5,-387 529.5,-387 525.5,-387 529.5,-383.4 521.5,-387 521.5,-387"/>
<ellipse fill="none" stroke="black" cx="518.3" cy="-387" rx="3.2" ry="3.2"/>
</g>
<!-- waste_water_treatment_plant&#45;&gt;organisation -->
<g id="edge5" class="edge">
<title>waste_water_treatment_plant:w&#45;&gt;organisation:e</title>
<path fill="none" stroke="black" d="M215.87,-112.99C185.44,-127.95 200.86,-194 157,-194"/>
<polygon fill="black" stroke="black" points="222.17,-111.66 230.75,-113.52 226.09,-110.83 230,-110 230,-110 230,-110 226.09,-110.83 229.25,-106.48 222.17,-111.66 222.17,-111.66"/>
<ellipse fill="none" stroke="black" cx="219.04" cy="-112.32" rx="3.2" ry="3.2"/>
</g>
<!-- waste_water_treatment_plant&#45;&gt;organisation -->
<g id="edge6" class="edge">
<title>waste_water_treatment_plant:w&#45;&gt;organisation:e</title>
<path fill="none" stroke="black" d="M215.88,-90.84C179.94,-107.69 208.62,-194 157,-194"/>
<polygon fill="black" stroke="black" points="222.16,-89.57 230.71,-91.53 226.08,-88.79 230,-88 230,-88 230,-88 226.08,-88.79 229.29,-84.47 222.16,-89.57 222.16,-89.57"/>
<ellipse fill="none" stroke="black" cx="219.02" cy="-90.2" rx="3.2" ry="3.2"/>
</g>
</g>
</svg>
