<?xml version="1.0" encoding="UTF-8" standalone="no"?>
<!DOCTYPE svg PUBLIC "-//W3C//DTD SVG 1.1//EN"
 "http://www.w3.org/Graphics/SVG/1.1/DTD/svg11.dtd">
<!-- Generated by graphviz version 2.43.0 (0)
 -->
<!-- Title: oneDegreeRelationshipsDiagram Pages: 1 -->
<svg width="753pt" height="487pt"
 viewBox="0.00 0.00 753.00 487.00" xmlns="http://www.w3.org/2000/svg" xmlns:xlink="http://www.w3.org/1999/xlink">
<g id="graph0" class="graph" transform="scale(1 1) rotate(0) translate(4 483)">
<title>oneDegreeRelationshipsDiagram</title>
<polygon fill="#ffffff" stroke="transparent" points="-4,4 -4,-483 749,-483 749,4 -4,4"/>
<text text-anchor="middle" x="79.5" y="-7.2" font-family="Helvetica,sans-Serif" font-size="11.00">Generated by SchemaSpy</text>
<!-- drainage_system -->
<g id="node1" class="node">
<title>drainage_system</title>
<g id="a_node1"><a xlink:href="../../tables/drainage_system.html" xlink:title="drainage_system" target="_top">
<polygon fill="#ffffff" stroke="transparent" points="551,-369 551,-475 722,-475 722,-369 551,-369"/>
<polygon fill="#f5f5f5" stroke="transparent" points="551.5,-453 551.5,-475 722.5,-475 722.5,-453 551.5,-453"/>
<polygon fill="none" stroke="black" points="551.5,-453 551.5,-475 722.5,-475 722.5,-453 551.5,-453"/>
<text text-anchor="start" x="556.5" y="-462.2" font-family="Helvetica,sans-Serif" font-weight="bold" font-size="11.00">drainage_system</text>
<text text-anchor="start" x="680.5" y="-461.2" font-family="Helvetica,sans-Serif" font-size="11.00">[table]</text>
<polygon fill="none" stroke="black" points="551.5,-431 551.5,-453 722.5,-453 722.5,-431 551.5,-431"/>
<image xlink:href="../../images/primaryKeys.png" width="11px" height="12px" preserveAspectRatio="xMinYMin meet" x="556.5" y="-448"/>
<text text-anchor="start" x="572.5" y="-439.2" font-family="Helvetica,sans-Serif" font-size="11.00">obj_id</text>
<polygon fill="none" stroke="black" points="551.5,-409 551.5,-431 722.5,-431 722.5,-409 551.5,-409"/>
<image xlink:href="../../images/foreignKeys.png" width="11px" height="12px" preserveAspectRatio="xMinYMin meet" x="556.5" y="-426"/>
<text text-anchor="start" x="572.5" y="-417.2" font-family="Helvetica,sans-Serif" font-size="11.00">kind</text>
<polygon fill="#ffffff" stroke="transparent" points="551.5,-387 551.5,-409 722.5,-409 722.5,-387 551.5,-387"/>
<polygon fill="none" stroke="black" points="551.5,-387 551.5,-409 722.5,-409 722.5,-387 551.5,-387"/>
<text text-anchor="start" x="572.5" y="-395.2" font-family="Helvetica,sans-Serif" font-size="11.00">perimeter_geometry</text>
<polygon fill="#ffffff" stroke="transparent" points="551.5,-369 551.5,-387 722.5,-387 722.5,-369 551.5,-369"/>
<polygon fill="none" stroke="black" points="551.5,-369 551.5,-387 722.5,-387 722.5,-369 551.5,-369"/>
<polygon fill="#ffffff" stroke="transparent" points="552.5,-370 552.5,-386 617.5,-386 617.5,-370 552.5,-370"/>
<text text-anchor="start" x="554.5" y="-375.2" font-family="Helvetica,sans-Serif" font-size="11.00">&lt; 2</text>
<polygon fill="#ffffff" stroke="transparent" points="617.5,-370 617.5,-386 669.5,-386 669.5,-370 617.5,-370"/>
<text text-anchor="start" x="639.5" y="-375.2" font-family="Helvetica,sans-Serif" font-size="11.00"> &#160;</text>
<polygon fill="#ffffff" stroke="transparent" points="669.5,-370 669.5,-386 721.5,-386 721.5,-370 669.5,-370"/>
<text text-anchor="start" x="711.5" y="-375.2" font-family="Helvetica,sans-Serif" font-size="11.00"> &#160;</text>
<polygon fill="black" stroke="black" points="617.5,-370 617.5,-386 617.5,-386 617.5,-370 617.5,-370"/>
<polygon fill="black" stroke="black" points="669.5,-370 669.5,-386 669.5,-386 669.5,-370 669.5,-370"/>
</a>
</g>
</g>
<!-- zone -->
<g id="node2" class="node">
<title>zone</title>
<g id="a_node2"><a xlink:href="../../tables/zone.html" xlink:title="zone" target="_top">
<polygon fill="#ffffff" stroke="transparent" points="231,-174 231,-350 487,-350 487,-174 231,-174"/>
<polygon fill="#f5f5f5" stroke="transparent" points="233,-326 233,-348 485,-348 485,-326 233,-326"/>
<polygon fill="none" stroke="black" points="233,-326 233,-348 485,-348 485,-326 233,-326"/>
<text text-anchor="start" x="238" y="-335.2" font-family="Helvetica,sans-Serif" font-weight="bold" font-size="11.00">zone</text>
<text text-anchor="start" x="443" y="-334.2" font-family="Helvetica,sans-Serif" font-size="11.00">[table]</text>
<polygon fill="none" stroke="black" points="233,-304 233,-326 379,-326 379,-304 233,-304"/>
<image xlink:href="../../images/primaryKeys.png" width="11px" height="12px" preserveAspectRatio="xMinYMin meet" x="238" y="-321"/>
<text text-anchor="start" x="253" y="-312.2" font-family="Helvetica,sans-Serif" font-size="11.00">obj_id</text>
<polygon fill="none" stroke="black" points="379,-304 379,-326 485,-326 485,-304 379,-304"/>
<text text-anchor="start" x="382" y="-312.2" font-family="Helvetica,sans-Serif" font-size="11.00">varchar[16]</text>
<polygon fill="#ffffff" stroke="transparent" points="233,-282 233,-304 379,-304 379,-282 233,-282"/>
<polygon fill="none" stroke="black" points="233,-282 233,-304 379,-304 379,-282 233,-282"/>
<text text-anchor="start" x="253" y="-290.2" font-family="Helvetica,sans-Serif" font-size="11.00">identifier</text>
<polygon fill="none" stroke="black" points="379,-282 379,-304 485,-304 485,-282 379,-282"/>
<text text-anchor="start" x="382" y="-290.2" font-family="Helvetica,sans-Serif" font-size="11.00">text[2147483647]</text>
<polygon fill="none" stroke="black" points="233,-260 233,-282 379,-282 379,-260 233,-260"/>
<text text-anchor="start" x="253" y="-268.2" font-family="Helvetica,sans-Serif" font-size="11.00">remark</text>
<polygon fill="none" stroke="black" points="379,-260 379,-282 485,-282 485,-260 379,-260"/>
<text text-anchor="start" x="382" y="-268.2" font-family="Helvetica,sans-Serif" font-size="11.00">text[2147483647]</text>
<polygon fill="none" stroke="black" points="233,-238 233,-260 379,-260 379,-238 233,-238"/>
<text text-anchor="start" x="253" y="-246.2" font-family="Helvetica,sans-Serif" font-size="11.00">last_modification</text>
<polygon fill="none" stroke="black" points="379,-238 379,-260 485,-260 485,-238 379,-238"/>
<text text-anchor="start" x="382" y="-246.2" font-family="Helvetica,sans-Serif" font-size="11.00">timestamp[29,6]</text>
<polygon fill="#ffffff" stroke="transparent" points="233,-216 233,-238 379,-238 379,-216 233,-216"/>
<polygon fill="none" stroke="black" points="233,-216 233,-238 379,-238 379,-216 233,-216"/>
<image xlink:href="../../images/foreignKeys.png" width="11px" height="12px" preserveAspectRatio="xMinYMin meet" x="238" y="-233"/>
<text text-anchor="start" x="253" y="-224.2" font-family="Helvetica,sans-Serif" font-size="11.00">fk_dataowner</text>
<polygon fill="none" stroke="black" points="379,-216 379,-238 485,-238 485,-216 379,-216"/>
<text text-anchor="start" x="382" y="-224.2" font-family="Helvetica,sans-Serif" font-size="11.00">varchar[16]</text>
<polygon fill="none" stroke="black" points="233,-194 233,-216 379,-216 379,-194 233,-194"/>
<image xlink:href="../../images/foreignKeys.png" width="11px" height="12px" preserveAspectRatio="xMinYMin meet" x="238" y="-211"/>
<text text-anchor="start" x="253" y="-202.2" font-family="Helvetica,sans-Serif" font-size="11.00">fk_provider</text>
<polygon fill="none" stroke="black" points="379,-194 379,-216 485,-216 485,-194 379,-194"/>
<text text-anchor="start" x="382" y="-202.2" font-family="Helvetica,sans-Serif" font-size="11.00">varchar[16]</text>
<polygon fill="#ffffff" stroke="transparent" points="233,-176 233,-194 485,-194 485,-176 233,-176"/>
<polygon fill="none" stroke="black" points="233,-176 233,-194 485,-194 485,-176 233,-176"/>
<polygon fill="#ffffff" stroke="transparent" points="234,-177 234,-193 322,-193 322,-177 234,-177"/>
<text text-anchor="start" x="236" y="-182.2" font-family="Helvetica,sans-Serif" font-size="11.00">&lt; 2</text>
<polygon fill="#ffffff" stroke="transparent" points="322,-177 322,-193 397,-193 397,-177 322,-177"/>
<text text-anchor="start" x="355.5" y="-182.2" font-family="Helvetica,sans-Serif" font-size="11.00"> &#160;</text>
<polygon fill="#ffffff" stroke="transparent" points="397,-177 397,-193 484,-193 484,-177 397,-177"/>
<text text-anchor="start" x="462" y="-182.2" font-family="Helvetica,sans-Serif" font-size="11.00">3 &gt;</text>
<polygon fill="black" stroke="black" points="322,-177 322,-193 322,-193 322,-177 322,-177"/>
<polygon fill="black" stroke="black" points="397,-177 397,-193 397,-193 397,-177 397,-177"/>
<polygon fill="none" stroke="black" stroke-width="2" points="232,-175 232,-349 486,-349 486,-175 232,-175"/>
</a>
</g>
</g>
<!-- drainage_system&#45;&gt;zone -->
<g id="edge1" class="edge">
<title>drainage_system:w&#45;&gt;zone:e</title>
<path fill="none" stroke="black" d="M540.04,-440.57C494.47,-426.62 545.35,-315 486,-315"/>
<polygon fill="black" stroke="black" points="550.25,-437.93 549.17,-445.86 547.58,-445.64 548.66,-437.71 550.25,-437.93"/>
<polyline fill="none" stroke="black" points="550.5,-442 546.54,-441.46 "/>
<ellipse fill="none" stroke="black" cx="543.37" cy="-441.03" rx="3.2" ry="3.2"/>
</g>
<!-- organisation -->
<g id="node5" class="node">
<title>organisation</title>
<g id="a_node5"><a xlink:href="../../tables/organisation.html" xlink:title="organisation" target="_top">
<polygon fill="#ffffff" stroke="transparent" points="8,-37 8,-249 182,-249 182,-37 8,-37"/>
<polygon fill="#f5f5f5" stroke="transparent" points="8,-227 8,-249 182,-249 182,-227 8,-227"/>
<polygon fill="none" stroke="black" points="8,-227 8,-249 182,-249 182,-227 8,-227"/>
<text text-anchor="start" x="13" y="-236.2" font-family="Helvetica,sans-Serif" font-weight="bold" font-size="11.00">organisation</text>
<text text-anchor="start" x="140" y="-235.2" font-family="Helvetica,sans-Serif" font-size="11.00">[table]</text>
<polygon fill="none" stroke="black" points="8,-205 8,-227 182,-227 182,-205 8,-205"/>
<image xlink:href="../../images/primaryKeys.png" width="11px" height="12px" preserveAspectRatio="xMinYMin meet" x="13" y="-222"/>
<text text-anchor="start" x="28" y="-213.2" font-family="Helvetica,sans-Serif" font-size="11.00">obj_id</text>
<polygon fill="#ffffff" stroke="transparent" points="8,-183 8,-205 182,-205 182,-183 8,-183"/>
<polygon fill="none" stroke="black" points="8,-183 8,-205 182,-205 182,-183 8,-183"/>
<text text-anchor="start" x="28" y="-191.2" font-family="Helvetica,sans-Serif" font-size="11.00">identifier</text>
<polygon fill="#ffffff" stroke="transparent" points="8,-161 8,-183 182,-183 182,-161 8,-161"/>
<polygon fill="none" stroke="black" points="8,-161 8,-183 182,-183 182,-161 8,-161"/>
<image xlink:href="../../images/foreignKeys.png" width="11px" height="12px" preserveAspectRatio="xMinYMin meet" x="13" y="-178"/>
<text text-anchor="start" x="28" y="-169.2" font-family="Helvetica,sans-Serif" font-size="11.00">organisation_type</text>
<polygon fill="none" stroke="black" points="8,-139 8,-161 182,-161 182,-139 8,-139"/>
<image xlink:href="../../images/foreignKeys.png" width="11px" height="12px" preserveAspectRatio="xMinYMin meet" x="13" y="-156"/>
<text text-anchor="start" x="28" y="-147.2" font-family="Helvetica,sans-Serif" font-size="11.00">status</text>
<polygon fill="#ffffff" stroke="transparent" points="8,-117 8,-139 182,-139 182,-117 8,-117"/>
<polygon fill="none" stroke="black" points="8,-117 8,-139 182,-139 182,-117 8,-117"/>
<text text-anchor="start" x="28" y="-125.2" font-family="Helvetica,sans-Serif" font-size="11.00">uid</text>
<polygon fill="none" stroke="black" points="8,-95 8,-117 182,-117 182,-95 8,-95"/>
<image xlink:href="../../images/foreignKeys.png" width="11px" height="12px" preserveAspectRatio="xMinYMin meet" x="13" y="-112"/>
<text text-anchor="start" x="28" y="-103.2" font-family="Helvetica,sans-Serif" font-size="11.00">fk_dataowner</text>
<polygon fill="none" stroke="black" points="8,-73 8,-95 182,-95 182,-73 8,-73"/>
<image xlink:href="../../images/foreignKeys.png" width="11px" height="12px" preserveAspectRatio="xMinYMin meet" x="13" y="-90"/>
<text text-anchor="start" x="28" y="-81.2" font-family="Helvetica,sans-Serif" font-size="11.00">fk_provider</text>
<polygon fill="none" stroke="black" points="8,-55 8,-73 182,-73 182,-55 8,-55"/>
<text text-anchor="start" x="11" y="-61.2" font-family="Helvetica,sans-Serif" font-size="11.00">...</text>
<polygon fill="#ffffff" stroke="transparent" points="8,-37 8,-55 182,-55 182,-37 8,-37"/>
<polygon fill="none" stroke="black" points="8,-37 8,-55 182,-55 182,-37 8,-37"/>
<polygon fill="#ffffff" stroke="transparent" points="9,-38 9,-54 66,-54 66,-38 9,-38"/>
<text text-anchor="start" x="11" y="-43.2" font-family="Helvetica,sans-Serif" font-size="11.00">&lt; 4</text>
<polygon fill="#ffffff" stroke="transparent" points="66,-38 66,-54 111,-54 111,-38 66,-38"/>
<text text-anchor="start" x="84.5" y="-43.2" font-family="Helvetica,sans-Serif" font-size="11.00"> &#160;</text>
<polygon fill="#ffffff" stroke="transparent" points="111,-38 111,-54 181,-54 181,-38 111,-38"/>
<text text-anchor="start" x="145" y="-43.2" font-family="Helvetica,sans-Serif" font-size="11.00">101 &gt;</text>
<polygon fill="black" stroke="black" points="66,-38 66,-54 66,-54 66,-38 66,-38"/>
<polygon fill="black" stroke="black" points="111,-38 111,-54 111,-54 111,-38 111,-38"/>
</a>
</g>
</g>
<!-- zone&#45;&gt;organisation -->
<g id="edge4" class="edge">
<title>zone:w&#45;&gt;organisation:e</title>
<path fill="none" stroke="black" d="M217.7,-225.18C206.24,-222.06 199.57,-216 183,-216"/>
<polygon fill="black" stroke="black" points="224.06,-225.99 231.55,-230.57 228.03,-226.5 232,-227 232,-227 232,-227 228.03,-226.5 232.45,-223.43 224.06,-225.99 224.06,-225.99"/>
<ellipse fill="none" stroke="black" cx="220.89" cy="-225.59" rx="3.2" ry="3.2"/>
</g>
<!-- zone&#45;&gt;organisation -->
<g id="edge5" class="edge">
<title>zone:w&#45;&gt;organisation:e</title>
<path fill="none" stroke="black" d="M217.7,-206.82C206.24,-209.94 199.57,-216 183,-216"/>
<polygon fill="black" stroke="black" points="224.06,-206.01 232.45,-208.57 228.03,-205.5 232,-205 232,-205 232,-205 228.03,-205.5 231.55,-201.43 224.06,-206.01 224.06,-206.01"/>
<ellipse fill="none" stroke="black" cx="220.89" cy="-206.41" rx="3.2" ry="3.2"/>
</g>
<!-- dss15_planning_zone -->
<g id="node3" class="node">
<title>dss15_planning_zone</title>
<g id="a_node3"><a xlink:href="../../tables/dss15_planning_zone.html" xlink:title="dss15_planning_zone" target="_top">
<polygon fill="#ffffff" stroke="transparent" points="536,-242 536,-348 737,-348 737,-242 536,-242"/>
<polygon fill="#f5f5f5" stroke="transparent" points="536.5,-326 536.5,-348 737.5,-348 737.5,-326 536.5,-326"/>
<polygon fill="none" stroke="black" points="536.5,-326 536.5,-348 737.5,-348 737.5,-326 536.5,-326"/>
<text text-anchor="start" x="541.5" y="-335.2" font-family="Helvetica,sans-Serif" font-weight="bold" font-size="11.00">dss15_planning_zone</text>
<text text-anchor="start" x="695.5" y="-334.2" font-family="Helvetica,sans-Serif" font-size="11.00">[table]</text>
<polygon fill="none" stroke="black" points="536.5,-304 536.5,-326 737.5,-326 737.5,-304 536.5,-304"/>
<image xlink:href="../../images/primaryKeys.png" width="11px" height="12px" preserveAspectRatio="xMinYMin meet" x="541.5" y="-321"/>
<text text-anchor="start" x="569.5" y="-312.2" font-family="Helvetica,sans-Serif" font-size="11.00">obj_id</text>
<polygon fill="none" stroke="black" points="536.5,-282 536.5,-304 737.5,-304 737.5,-282 536.5,-282"/>
<image xlink:href="../../images/foreignKeys.png" width="11px" height="12px" preserveAspectRatio="xMinYMin meet" x="541.5" y="-299"/>
<text text-anchor="start" x="569.5" y="-290.2" font-family="Helvetica,sans-Serif" font-size="11.00">kind</text>
<polygon fill="#ffffff" stroke="transparent" points="536.5,-260 536.5,-282 737.5,-282 737.5,-260 536.5,-260"/>
<polygon fill="none" stroke="black" points="536.5,-260 536.5,-282 737.5,-282 737.5,-260 536.5,-260"/>
<text text-anchor="start" x="569.5" y="-268.2" font-family="Helvetica,sans-Serif" font-size="11.00">perimeter_geometry</text>
<polygon fill="#ffffff" stroke="transparent" points="536.5,-242 536.5,-260 737.5,-260 737.5,-242 536.5,-242"/>
<polygon fill="none" stroke="black" points="536.5,-242 536.5,-260 737.5,-260 737.5,-242 536.5,-242"/>
<polygon fill="#ffffff" stroke="transparent" points="537.5,-243 537.5,-259 612.5,-259 612.5,-243 537.5,-243"/>
<text text-anchor="start" x="539.5" y="-248.2" font-family="Helvetica,sans-Serif" font-size="11.00">&lt; 2</text>
<polygon fill="#ffffff" stroke="transparent" points="612.5,-243 612.5,-259 674.5,-259 674.5,-243 612.5,-243"/>
<text text-anchor="start" x="639.5" y="-248.2" font-family="Helvetica,sans-Serif" font-size="11.00"> &#160;</text>
<polygon fill="#ffffff" stroke="transparent" points="674.5,-243 674.5,-259 736.5,-259 736.5,-243 674.5,-243"/>
<text text-anchor="start" x="726.5" y="-248.2" font-family="Helvetica,sans-Serif" font-size="11.00"> &#160;</text>
<polygon fill="black" stroke="black" points="612.5,-243 612.5,-259 612.5,-259 612.5,-243 612.5,-243"/>
<polygon fill="black" stroke="black" points="674.5,-243 674.5,-259 674.5,-259 674.5,-243 674.5,-243"/>
</a>
</g>
</g>
<!-- dss15_planning_zone&#45;&gt;zone -->
<g id="edge2" class="edge">
<title>dss15_planning_zone:w&#45;&gt;zone:e</title>
<path fill="none" stroke="black" d="M525.05,-315C510.99,-315 504.05,-315 486,-315"/>
<polygon fill="black" stroke="black" points="534.7,-311 534.7,-319 533.1,-319 533.1,-311 534.7,-311"/>
<polyline fill="none" stroke="black" points="535.5,-315 531.5,-315 "/>
<ellipse fill="none" stroke="black" cx="528.3" cy="-315" rx="3.2" ry="3.2"/>
</g>
<!-- infiltration_zone -->
<g id="node4" class="node">
<title>infiltration_zone</title>
<g id="a_node4"><a xlink:href="../../tables/infiltration_zone.html" xlink:title="infiltration_zone" target="_top">
<polygon fill="#ffffff" stroke="transparent" points="551.5,-115 551.5,-221 721.5,-221 721.5,-115 551.5,-115"/>
<polygon fill="#f5f5f5" stroke="transparent" points="551.5,-199 551.5,-221 721.5,-221 721.5,-199 551.5,-199"/>
<polygon fill="none" stroke="black" points="551.5,-199 551.5,-221 721.5,-221 721.5,-199 551.5,-199"/>
<text text-anchor="start" x="556.5" y="-208.2" font-family="Helvetica,sans-Serif" font-weight="bold" font-size="11.00">infiltration_zone</text>
<text text-anchor="start" x="679.5" y="-207.2" font-family="Helvetica,sans-Serif" font-size="11.00">[table]</text>
<polygon fill="none" stroke="black" points="551.5,-177 551.5,-199 721.5,-199 721.5,-177 551.5,-177"/>
<image xlink:href="../../images/primaryKeys.png" width="11px" height="12px" preserveAspectRatio="xMinYMin meet" x="556.5" y="-194"/>
<text text-anchor="start" x="571.5" y="-185.2" font-family="Helvetica,sans-Serif" font-size="11.00">obj_id</text>
<polygon fill="none" stroke="black" points="551.5,-155 551.5,-177 721.5,-177 721.5,-155 551.5,-155"/>
<image xlink:href="../../images/foreignKeys.png" width="11px" height="12px" preserveAspectRatio="xMinYMin meet" x="556.5" y="-172"/>
<text text-anchor="start" x="571.5" y="-163.2" font-family="Helvetica,sans-Serif" font-size="11.00">infiltration_capacity</text>
<polygon fill="#ffffff" stroke="transparent" points="551.5,-133 551.5,-155 721.5,-155 721.5,-133 551.5,-133"/>
<polygon fill="none" stroke="black" points="551.5,-133 551.5,-155 721.5,-155 721.5,-133 551.5,-133"/>
<text text-anchor="start" x="571.5" y="-141.2" font-family="Helvetica,sans-Serif" font-size="11.00">perimeter_geometry</text>
<polygon fill="#ffffff" stroke="transparent" points="551.5,-115 551.5,-133 721.5,-133 721.5,-115 551.5,-115"/>
<polygon fill="none" stroke="black" points="551.5,-115 551.5,-133 721.5,-133 721.5,-115 551.5,-115"/>
<polygon fill="#ffffff" stroke="transparent" points="552.5,-116 552.5,-132 616.5,-132 616.5,-116 552.5,-116"/>
<text text-anchor="start" x="554.5" y="-121.2" font-family="Helvetica,sans-Serif" font-size="11.00">&lt; 2</text>
<polygon fill="#ffffff" stroke="transparent" points="616.5,-116 616.5,-132 668.5,-132 668.5,-116 616.5,-116"/>
<text text-anchor="start" x="638.5" y="-121.2" font-family="Helvetica,sans-Serif" font-size="11.00"> &#160;</text>
<polygon fill="#ffffff" stroke="transparent" points="668.5,-116 668.5,-132 720.5,-132 720.5,-116 668.5,-116"/>
<text text-anchor="start" x="710.5" y="-121.2" font-family="Helvetica,sans-Serif" font-size="11.00"> &#160;</text>
<polygon fill="black" stroke="black" points="616.5,-116 616.5,-132 616.5,-132 616.5,-116 616.5,-116"/>
<polygon fill="black" stroke="black" points="668.5,-116 668.5,-132 668.5,-132 668.5,-116 668.5,-116"/>
</a>
</g>
</g>
<!-- infiltration_zone&#45;&gt;zone -->
<g id="edge3" class="edge">
<title>infiltration_zone:w&#45;&gt;zone:e</title>
<path fill="none" stroke="black" d="M540.04,-189.43C494.47,-203.38 545.35,-315 486,-315"/>
<polygon fill="black" stroke="black" points="549.17,-184.14 550.25,-192.07 548.66,-192.29 547.58,-184.36 549.17,-184.14"/>
<polyline fill="none" stroke="black" points="550.5,-188 546.54,-188.54 "/>
<ellipse fill="none" stroke="black" cx="543.37" cy="-188.97" rx="3.2" ry="3.2"/>
</g>
</g>
</svg>
