<?xml version="1.0" encoding="UTF-8" standalone="no"?>
<!DOCTYPE svg PUBLIC "-//W3C//DTD SVG 1.1//EN"
 "http://www.w3.org/Graphics/SVG/1.1/DTD/svg11.dtd">
<!-- Generated by graphviz version 2.47.1 (20210515.0534)
 -->
<!-- Title: oneDegreeRelationshipsDiagram Pages: 1 -->
<svg width="284pt" height="339pt"
 viewBox="0.00 0.00 284.00 339.00" xmlns="http://www.w3.org/2000/svg" xmlns:xlink="http://www.w3.org/1999/xlink">
<g id="graph0" class="graph" transform="scale(1 1) rotate(0) translate(4 335)">
<title>oneDegreeRelationshipsDiagram</title>
<polygon fill="#ffffff" stroke="transparent" points="-4,4 -4,-335 280,-335 280,4 -4,4"/>
<text text-anchor="middle" x="73.5" y="-7.2" font-family="Helvetica,sans-Serif" font-size="11.00">Generated by SchemaSpy</text>
<!-- swmm_vw_outfalls -->
<g id="node1" class="node">
<title>swmm_vw_outfalls</title>
<g id="a_node1"><a xlink:href="../../tables/swmm_vw_outfalls.html" xlink:title="swmm_vw_outfalls" target="_top">
<polygon fill="#ffffff" stroke="transparent" points="8,-37 8,-327 268,-327 268,-37 8,-37"/>
<polygon fill="#f5f5f5" stroke="transparent" points="10,-303 10,-325 266,-325 266,-303 10,-303"/>
<polygon fill="none" stroke="black" points="10,-303 10,-325 266,-325 266,-303 10,-303"/>
<text text-anchor="start" x="15" y="-312.2" font-family="Helvetica,sans-Serif" font-weight="bold" font-size="11.00">swmm_vw_outfalls</text>
<text text-anchor="start" x="230" y="-311.2" font-family="Helvetica,sans-Serif" font-size="11.00">[view]</text>
<polygon fill="none" stroke="black" points="10,-281 10,-303 143,-303 143,-281 10,-281"/>
<text text-anchor="start" x="30" y="-289.2" font-family="Helvetica,sans-Serif" font-size="11.00">name</text>
<polygon fill="none" stroke="black" points="143,-281 143,-303 266,-303 266,-281 143,-281"/>
<text text-anchor="start" x="146" y="-289.2" font-family="Helvetica,sans-Serif" font-size="11.00">varchar[16]</text>
<polygon fill="none" stroke="black" points="10,-259 10,-281 143,-281 143,-259 10,-259"/>
<text text-anchor="start" x="30" y="-267.2" font-family="Helvetica,sans-Serif" font-size="11.00">invertelev</text>
<polygon fill="none" stroke="black" points="143,-259 143,-281 266,-281 266,-259 143,-259"/>
<text text-anchor="start" x="146" y="-267.2" font-family="Helvetica,sans-Serif" font-size="11.00">numeric[0]</text>
<polygon fill="none" stroke="black" points="10,-237 10,-259 143,-259 143,-237 10,-237"/>
<text text-anchor="start" x="30" y="-245.2" font-family="Helvetica,sans-Serif" font-size="11.00">type</text>
<polygon fill="none" stroke="black" points="143,-237 143,-259 266,-259 266,-237 143,-237"/>
<text text-anchor="start" x="146" y="-245.2" font-family="Helvetica,sans-Serif" font-size="11.00">varchar[2147483647]</text>
<polygon fill="none" stroke="black" points="10,-215 10,-237 143,-237 143,-215 10,-215"/>
<text text-anchor="start" x="30" y="-223.2" font-family="Helvetica,sans-Serif" font-size="11.00">stagedata</text>
<polygon fill="none" stroke="black" points="143,-215 143,-237 266,-237 266,-215 143,-215"/>
<text text-anchor="start" x="146" y="-223.2" font-family="Helvetica,sans-Serif" font-size="11.00">text[2147483647]</text>
<polygon fill="none" stroke="black" points="10,-193 10,-215 143,-215 143,-193 10,-193"/>
<text text-anchor="start" x="30" y="-201.2" font-family="Helvetica,sans-Serif" font-size="11.00">tide_gate</text>
<polygon fill="none" stroke="black" points="143,-193 143,-215 266,-215 266,-193 143,-193"/>
<text text-anchor="start" x="146" y="-201.2" font-family="Helvetica,sans-Serif" font-size="11.00">varchar[2147483647]</text>
<polygon fill="none" stroke="black" points="10,-171 10,-193 143,-193 143,-171 10,-171"/>
<text text-anchor="start" x="30" y="-179.2" font-family="Helvetica,sans-Serif" font-size="11.00">routeto</text>
<polygon fill="none" stroke="black" points="143,-171 143,-193 266,-193 266,-171 143,-171"/>
<text text-anchor="start" x="146" y="-179.2" font-family="Helvetica,sans-Serif" font-size="11.00">varchar[2147483647]</text>
<polygon fill="none" stroke="black" points="10,-149 10,-171 143,-171 143,-149 10,-149"/>
<text text-anchor="start" x="30" y="-157.2" font-family="Helvetica,sans-Serif" font-size="11.00">description</text>
<polygon fill="none" stroke="black" points="143,-149 143,-171 266,-171 266,-149 143,-149"/>
<text text-anchor="start" x="146" y="-157.2" font-family="Helvetica,sans-Serif" font-size="11.00">text[2147483647]</text>
<polygon fill="none" stroke="black" points="10,-127 10,-149 143,-149 143,-127 10,-127"/>
<text text-anchor="start" x="30" y="-135.2" font-family="Helvetica,sans-Serif" font-size="11.00">tag</text>
<polygon fill="none" stroke="black" points="143,-127 143,-149 266,-149 266,-127 143,-127"/>
<text text-anchor="start" x="146" y="-135.2" font-family="Helvetica,sans-Serif" font-size="11.00">varchar[2147483647]</text>
<polygon fill="none" stroke="black" points="10,-105 10,-127 143,-127 143,-105 10,-105"/>
<text text-anchor="start" x="30" y="-113.2" font-family="Helvetica,sans-Serif" font-size="11.00">geom</text>
<polygon fill="none" stroke="black" points="143,-105 143,-127 266,-127 266,-105 143,-105"/>
<text text-anchor="start" x="146" y="-113.2" font-family="Helvetica,sans-Serif" font-size="11.00">geometry[2147483647]</text>
<polygon fill="none" stroke="black" points="10,-83 10,-105 143,-105 143,-83 10,-83"/>
<text text-anchor="start" x="30" y="-91.2" font-family="Helvetica,sans-Serif" font-size="11.00">state</text>
<polygon fill="none" stroke="black" points="143,-83 143,-105 266,-105 266,-83 143,-83"/>
<text text-anchor="start" x="146" y="-91.2" font-family="Helvetica,sans-Serif" font-size="11.00">text[2147483647]</text>
<polygon fill="none" stroke="black" points="10,-61 10,-83 143,-83 143,-61 10,-61"/>
<text text-anchor="start" x="30" y="-69.2" font-family="Helvetica,sans-Serif" font-size="11.00">hierarchy</text>
<polygon fill="none" stroke="black" points="143,-61 143,-83 266,-83 266,-61 143,-61"/>
<text text-anchor="start" x="146" y="-69.2" font-family="Helvetica,sans-Serif" font-size="11.00">text[2147483647]</text>
<polygon fill="none" stroke="black" points="10,-39 10,-61 143,-61 143,-39 10,-39"/>
<text text-anchor="start" x="30" y="-47.2" font-family="Helvetica,sans-Serif" font-size="11.00">obj_id</text>
<polygon fill="none" stroke="black" points="143,-39 143,-61 266,-61 266,-39 143,-39"/>
<text text-anchor="start" x="146" y="-47.2" font-family="Helvetica,sans-Serif" font-size="11.00">varchar[16]</text>
<polygon fill="none" stroke="black" stroke-width="2" points="9,-38 9,-326 267,-326 267,-38 9,-38"/>
</a>
</g>
</g>
</g>
</svg>
