<?xml version="1.0" encoding="UTF-8" standalone="no"?>
<!DOCTYPE svg PUBLIC "-//W3C//DTD SVG 1.1//EN"
 "http://www.w3.org/Graphics/SVG/1.1/DTD/svg11.dtd">
<!-- Generated by graphviz version 2.47.1 (20210515.0534)
 -->
<!-- Title: oneDegreeRelationshipsDiagram Pages: 1 -->
<svg width="330pt" height="405pt"
 viewBox="0.00 0.00 330.00 405.00" xmlns="http://www.w3.org/2000/svg" xmlns:xlink="http://www.w3.org/1999/xlink">
<g id="graph0" class="graph" transform="scale(1 1) rotate(0) translate(4 401)">
<title>oneDegreeRelationshipsDiagram</title>
<polygon fill="#ffffff" stroke="transparent" points="-4,4 -4,-401 326,-401 326,4 -4,4"/>
<text text-anchor="middle" x="73.5" y="-7.2" font-family="Helvetica,sans-Serif" font-size="11.00">Generated by SchemaSpy</text>
<!-- swmm_vw_subcatchments -->
<g id="node1" class="node">
<title>swmm_vw_subcatchments</title>
<g id="a_node1"><a xlink:href="../../tables/swmm_vw_subcatchments.html" xlink:title="swmm_vw_subcatchments" target="_top">
<polygon fill="#ffffff" stroke="transparent" points="8,-37 8,-393 314,-393 314,-37 8,-37"/>
<polygon fill="#f5f5f5" stroke="transparent" points="10,-369 10,-391 312,-391 312,-369 10,-369"/>
<polygon fill="none" stroke="black" points="10,-369 10,-391 312,-391 312,-369 10,-369"/>
<text text-anchor="start" x="15" y="-378.2" font-family="Helvetica,sans-Serif" font-weight="bold" font-size="11.00">swmm_vw_subcatchments</text>
<text text-anchor="start" x="276" y="-377.2" font-family="Helvetica,sans-Serif" font-size="11.00">[view]</text>
<polygon fill="none" stroke="black" points="10,-347 10,-369 189,-369 189,-347 10,-347"/>
<text text-anchor="start" x="30" y="-355.2" font-family="Helvetica,sans-Serif" font-size="11.00">name</text>
<polygon fill="none" stroke="black" points="189,-347 189,-369 312,-369 312,-347 189,-347"/>
<text text-anchor="start" x="192" y="-355.2" font-family="Helvetica,sans-Serif" font-size="11.00">text[2147483647]</text>
<polygon fill="none" stroke="black" points="10,-325 10,-347 189,-347 189,-325 10,-325"/>
<text text-anchor="start" x="30" y="-333.2" font-family="Helvetica,sans-Serif" font-size="11.00">raingage</text>
<polygon fill="none" stroke="black" points="189,-325 189,-347 312,-347 312,-325 189,-325"/>
<text text-anchor="start" x="192" y="-333.2" font-family="Helvetica,sans-Serif" font-size="11.00">varchar[2147483647]</text>
<polygon fill="none" stroke="black" points="10,-303 10,-325 189,-325 189,-303 10,-303"/>
<text text-anchor="start" x="30" y="-311.2" font-family="Helvetica,sans-Serif" font-size="11.00">outlet</text>
<polygon fill="none" stroke="black" points="189,-303 189,-325 312,-325 312,-303 189,-303"/>
<text text-anchor="start" x="192" y="-311.2" font-family="Helvetica,sans-Serif" font-size="11.00">text[2147483647]</text>
<polygon fill="none" stroke="black" points="10,-281 10,-303 189,-303 189,-281 10,-281"/>
<text text-anchor="start" x="30" y="-289.2" font-family="Helvetica,sans-Serif" font-size="11.00">area</text>
<polygon fill="none" stroke="black" points="189,-281 189,-303 312,-303 312,-281 189,-281"/>
<text text-anchor="start" x="192" y="-289.2" font-family="Helvetica,sans-Serif" font-size="11.00">float8[17,17]</text>
<polygon fill="none" stroke="black" points="10,-259 10,-281 189,-281 189,-259 10,-259"/>
<text text-anchor="start" x="30" y="-267.2" font-family="Helvetica,sans-Serif" font-size="11.00">percimperv</text>
<polygon fill="none" stroke="black" points="189,-259 189,-281 312,-281 312,-259 189,-259"/>
<text text-anchor="start" x="192" y="-267.2" font-family="Helvetica,sans-Serif" font-size="11.00">numeric[0]</text>
<polygon fill="none" stroke="black" points="10,-237 10,-259 189,-259 189,-237 10,-237"/>
<text text-anchor="start" x="30" y="-245.2" font-family="Helvetica,sans-Serif" font-size="11.00">width</text>
<polygon fill="none" stroke="black" points="189,-237 189,-259 312,-259 312,-237 189,-237"/>
<text text-anchor="start" x="192" y="-245.2" font-family="Helvetica,sans-Serif" font-size="11.00">float8[17,17]</text>
<polygon fill="none" stroke="black" points="10,-215 10,-237 189,-237 189,-215 10,-215"/>
<text text-anchor="start" x="30" y="-223.2" font-family="Helvetica,sans-Serif" font-size="11.00">percslope</text>
<polygon fill="none" stroke="black" points="189,-215 189,-237 312,-237 312,-215 189,-215"/>
<text text-anchor="start" x="192" y="-223.2" font-family="Helvetica,sans-Serif" font-size="11.00">numeric[0]</text>
<polygon fill="none" stroke="black" points="10,-193 10,-215 189,-215 189,-193 10,-193"/>
<text text-anchor="start" x="30" y="-201.2" font-family="Helvetica,sans-Serif" font-size="11.00">curblen</text>
<polygon fill="none" stroke="black" points="189,-193 189,-215 312,-215 312,-193 189,-193"/>
<text text-anchor="start" x="192" y="-201.2" font-family="Helvetica,sans-Serif" font-size="11.00">int4[10]</text>
<polygon fill="none" stroke="black" points="10,-171 10,-193 189,-193 189,-171 10,-171"/>
<text text-anchor="start" x="30" y="-179.2" font-family="Helvetica,sans-Serif" font-size="11.00">snowpack</text>
<polygon fill="none" stroke="black" points="189,-171 189,-193 312,-193 312,-171 189,-171"/>
<text text-anchor="start" x="192" y="-179.2" font-family="Helvetica,sans-Serif" font-size="11.00">varchar[2147483647]</text>
<polygon fill="none" stroke="black" points="10,-149 10,-171 189,-171 189,-149 10,-149"/>
<text text-anchor="start" x="30" y="-157.2" font-family="Helvetica,sans-Serif" font-size="11.00">description</text>
<polygon fill="none" stroke="black" points="189,-149 189,-171 312,-171 312,-149 189,-149"/>
<text text-anchor="start" x="192" y="-157.2" font-family="Helvetica,sans-Serif" font-size="11.00">text[2147483647]</text>
<polygon fill="none" stroke="black" points="10,-127 10,-149 189,-149 189,-127 10,-127"/>
<text text-anchor="start" x="30" y="-135.2" font-family="Helvetica,sans-Serif" font-size="11.00">tag</text>
<polygon fill="none" stroke="black" points="189,-127 189,-149 312,-149 312,-127 189,-127"/>
<text text-anchor="start" x="192" y="-135.2" font-family="Helvetica,sans-Serif" font-size="11.00">varchar[16]</text>
<polygon fill="none" stroke="black" points="10,-105 10,-127 189,-127 189,-105 10,-105"/>
<text text-anchor="start" x="30" y="-113.2" font-family="Helvetica,sans-Serif" font-size="11.00">geom</text>
<polygon fill="none" stroke="black" points="189,-105 189,-127 312,-127 312,-105 189,-105"/>
<text text-anchor="start" x="192" y="-113.2" font-family="Helvetica,sans-Serif" font-size="11.00">geometry[2147483647]</text>
<polygon fill="none" stroke="black" points="10,-83 10,-105 189,-105 189,-83 10,-83"/>
<text text-anchor="start" x="30" y="-91.2" font-family="Helvetica,sans-Serif" font-size="11.00">state</text>
<polygon fill="none" stroke="black" points="189,-83 189,-105 312,-105 312,-83 189,-83"/>
<text text-anchor="start" x="192" y="-91.2" font-family="Helvetica,sans-Serif" font-size="11.00">text[2147483647]</text>
<polygon fill="none" stroke="black" points="10,-61 10,-83 189,-83 189,-61 10,-61"/>
<text text-anchor="start" x="30" y="-69.2" font-family="Helvetica,sans-Serif" font-size="11.00">hierarchy</text>
<polygon fill="none" stroke="black" points="189,-61 189,-83 312,-83 312,-61 189,-61"/>
<text text-anchor="start" x="192" y="-69.2" font-family="Helvetica,sans-Serif" font-size="11.00">text[2147483647]</text>
<polygon fill="none" stroke="black" points="10,-39 10,-61 189,-61 189,-39 10,-39"/>
<text text-anchor="start" x="30" y="-47.2" font-family="Helvetica,sans-Serif" font-size="11.00">obj_id</text>
<polygon fill="none" stroke="black" points="189,-39 189,-61 312,-61 312,-39 189,-39"/>
<text text-anchor="start" x="192" y="-47.2" font-family="Helvetica,sans-Serif" font-size="11.00">varchar[16]</text>
<polygon fill="none" stroke="black" stroke-width="2" points="9,-38 9,-392 313,-392 313,-38 9,-38"/>
</a>
</g>
</g>
</g>
</svg>
