<?xml version="1.0" encoding="UTF-8" standalone="no"?>
<!DOCTYPE svg PUBLIC "-//W3C//DTD SVG 1.1//EN"
 "http://www.w3.org/Graphics/SVG/1.1/DTD/svg11.dtd">
<!-- Generated by graphviz version 2.47.1 (20210515.0534)
 -->
<!-- Title: oneDegreeRelationshipsDiagram Pages: 1 -->
<svg width="275pt" height="273pt"
 viewBox="0.00 0.00 275.00 273.00" xmlns="http://www.w3.org/2000/svg" xmlns:xlink="http://www.w3.org/1999/xlink">
<g id="graph0" class="graph" transform="scale(1 1) rotate(0) translate(4 269)">
<title>oneDegreeRelationshipsDiagram</title>
<polygon fill="#ffffff" stroke="transparent" points="-4,4 -4,-269 271,-269 271,4 -4,4"/>
<text text-anchor="middle" x="73.5" y="-7.2" font-family="Helvetica,sans-Serif" font-size="11.00">Generated by SchemaSpy</text>
<!-- swmm_vw_infiltration -->
<g id="node1" class="node">
<title>swmm_vw_infiltration</title>
<g id="a_node1"><a xlink:href="../../tables/swmm_vw_infiltration.html" xlink:title="swmm_vw_infiltration" target="_top">
<polygon fill="#ffffff" stroke="transparent" points="8,-37 8,-261 259,-261 259,-37 8,-37"/>
<polygon fill="#f5f5f5" stroke="transparent" points="10.5,-237 10.5,-259 257.5,-259 257.5,-237 10.5,-237"/>
<polygon fill="none" stroke="black" points="10.5,-237 10.5,-259 257.5,-259 257.5,-237 10.5,-237"/>
<text text-anchor="start" x="15.5" y="-246.2" font-family="Helvetica,sans-Serif" font-weight="bold" font-size="11.00">swmm_vw_infiltration</text>
<text text-anchor="start" x="221.5" y="-245.2" font-family="Helvetica,sans-Serif" font-size="11.00">[view]</text>
<polygon fill="none" stroke="black" points="10.5,-215 10.5,-237 163.5,-237 163.5,-215 10.5,-215"/>
<text text-anchor="start" x="30.5" y="-223.2" font-family="Helvetica,sans-Serif" font-size="11.00">subcatchment</text>
<polygon fill="none" stroke="black" points="163.5,-215 163.5,-237 257.5,-237 257.5,-215 163.5,-215"/>
<text text-anchor="start" x="166.5" y="-223.2" font-family="Helvetica,sans-Serif" font-size="11.00">text[2147483647]</text>
<polygon fill="none" stroke="black" points="10.5,-193 10.5,-215 163.5,-215 163.5,-193 10.5,-193"/>
<text text-anchor="start" x="30.5" y="-201.2" font-family="Helvetica,sans-Serif" font-size="11.00">maxrate</text>
<polygon fill="none" stroke="black" points="163.5,-193 163.5,-215 257.5,-215 257.5,-193 163.5,-193"/>
<text text-anchor="start" x="166.5" y="-201.2" font-family="Helvetica,sans-Serif" font-size="11.00">int4[10]</text>
<polygon fill="none" stroke="black" points="10.5,-171 10.5,-193 163.5,-193 163.5,-171 10.5,-171"/>
<text text-anchor="start" x="30.5" y="-179.2" font-family="Helvetica,sans-Serif" font-size="11.00">minrate</text>
<polygon fill="none" stroke="black" points="163.5,-171 163.5,-193 257.5,-193 257.5,-171 163.5,-171"/>
<text text-anchor="start" x="166.5" y="-179.2" font-family="Helvetica,sans-Serif" font-size="11.00">numeric[0]</text>
<polygon fill="none" stroke="black" points="10.5,-149 10.5,-171 163.5,-171 163.5,-149 10.5,-149"/>
<text text-anchor="start" x="30.5" y="-157.2" font-family="Helvetica,sans-Serif" font-size="11.00">decay</text>
<polygon fill="none" stroke="black" points="163.5,-149 163.5,-171 257.5,-171 257.5,-149 163.5,-149"/>
<text text-anchor="start" x="166.5" y="-157.2" font-family="Helvetica,sans-Serif" font-size="11.00">int4[10]</text>
<polygon fill="none" stroke="black" points="10.5,-127 10.5,-149 163.5,-149 163.5,-127 10.5,-127"/>
<text text-anchor="start" x="30.5" y="-135.2" font-family="Helvetica,sans-Serif" font-size="11.00">drytime</text>
<polygon fill="none" stroke="black" points="163.5,-127 163.5,-149 257.5,-149 257.5,-127 163.5,-127"/>
<text text-anchor="start" x="166.5" y="-135.2" font-family="Helvetica,sans-Serif" font-size="11.00">int4[10]</text>
<polygon fill="none" stroke="black" points="10.5,-105 10.5,-127 163.5,-127 163.5,-105 10.5,-105"/>
<text text-anchor="start" x="30.5" y="-113.2" font-family="Helvetica,sans-Serif" font-size="11.00">maxinfil</text>
<polygon fill="none" stroke="black" points="163.5,-105 163.5,-127 257.5,-127 257.5,-105 163.5,-105"/>
<text text-anchor="start" x="166.5" y="-113.2" font-family="Helvetica,sans-Serif" font-size="11.00">int4[10]</text>
<polygon fill="none" stroke="black" points="10.5,-83 10.5,-105 163.5,-105 163.5,-83 10.5,-83"/>
<text text-anchor="start" x="30.5" y="-91.2" font-family="Helvetica,sans-Serif" font-size="11.00">state</text>
<polygon fill="none" stroke="black" points="163.5,-83 163.5,-105 257.5,-105 257.5,-83 163.5,-83"/>
<text text-anchor="start" x="166.5" y="-91.2" font-family="Helvetica,sans-Serif" font-size="11.00">text[2147483647]</text>
<polygon fill="none" stroke="black" points="10.5,-61 10.5,-83 163.5,-83 163.5,-61 10.5,-61"/>
<text text-anchor="start" x="30.5" y="-69.2" font-family="Helvetica,sans-Serif" font-size="11.00">hierarchy</text>
<polygon fill="none" stroke="black" points="163.5,-61 163.5,-83 257.5,-83 257.5,-61 163.5,-61"/>
<text text-anchor="start" x="166.5" y="-69.2" font-family="Helvetica,sans-Serif" font-size="11.00">text[2147483647]</text>
<polygon fill="none" stroke="black" points="10.5,-39 10.5,-61 163.5,-61 163.5,-39 10.5,-39"/>
<text text-anchor="start" x="30.5" y="-47.2" font-family="Helvetica,sans-Serif" font-size="11.00">obj_id</text>
<polygon fill="none" stroke="black" points="163.5,-39 163.5,-61 257.5,-61 257.5,-39 163.5,-39"/>
<text text-anchor="start" x="166.5" y="-47.2" font-family="Helvetica,sans-Serif" font-size="11.00">varchar[16]</text>
<polygon fill="none" stroke="black" stroke-width="2" points="9,-38 9,-260 258,-260 258,-38 9,-38"/>
</a>
</g>
</g>
</g>
</svg>
