<?xml version="1.0" encoding="UTF-8" standalone="no"?>
<!DOCTYPE svg PUBLIC "-//W3C//DTD SVG 1.1//EN"
 "http://www.w3.org/Graphics/SVG/1.1/DTD/svg11.dtd">
<!-- Generated by graphviz version 2.43.0 (0)
 -->
<!-- Title: oneDegreeRelationshipsDiagram Pages: 1 -->
<svg width="318pt" height="427pt"
 viewBox="0.00 0.00 318.00 427.00" xmlns="http://www.w3.org/2000/svg" xmlns:xlink="http://www.w3.org/1999/xlink">
<g id="graph0" class="graph" transform="scale(1 1) rotate(0) translate(4 423)">
<title>oneDegreeRelationshipsDiagram</title>
<polygon fill="#ffffff" stroke="transparent" points="-4,4 -4,-423 314,-423 314,4 -4,4"/>
<text text-anchor="middle" x="79.5" y="-7.2" font-family="Helvetica,sans-Serif" font-size="11.00">Generated by SchemaSpy</text>
<!-- vw_param_ca_general -->
<g id="node1" class="node">
<title>vw_param_ca_general</title>
<g id="a_node1"><a xlink:href="../../tables/vw_param_ca_general.html" xlink:title="vw_param_ca_general" target="_top">
<polygon fill="#ffffff" stroke="transparent" points="8,-37 8,-415 302,-415 302,-37 8,-37"/>
<polygon fill="#f5f5f5" stroke="transparent" points="10,-391 10,-413 300,-413 300,-391 10,-391"/>
<polygon fill="none" stroke="black" points="10,-391 10,-413 300,-413 300,-391 10,-391"/>
<text text-anchor="start" x="15" y="-400.2" font-family="Helvetica,sans-Serif" font-weight="bold" font-size="11.00">vw_param_ca_general</text>
<text text-anchor="start" x="260" y="-399.2" font-family="Helvetica,sans-Serif" font-size="11.00">[view]</text>
<polygon fill="none" stroke="black" points="10,-369 10,-391 194,-391 194,-369 10,-369"/>
<text text-anchor="start" x="30" y="-377.2" font-family="Helvetica,sans-Serif" font-size="11.00">obj_id</text>
<polygon fill="none" stroke="black" points="194,-369 194,-391 300,-391 300,-369 194,-369"/>
<text text-anchor="start" x="197" y="-377.2" font-family="Helvetica,sans-Serif" font-size="11.00">varchar[16]</text>
<polygon fill="none" stroke="black" points="10,-347 10,-369 194,-369 194,-347 10,-347"/>
<text text-anchor="start" x="30" y="-355.2" font-family="Helvetica,sans-Serif" font-size="11.00">dry_wheather_flow</text>
<polygon fill="none" stroke="black" points="194,-347 194,-369 300,-369 300,-347 194,-347"/>
<text text-anchor="start" x="197" y="-355.2" font-family="Helvetica,sans-Serif" font-size="11.00">numeric[9,3]</text>
<polygon fill="none" stroke="black" points="10,-325 10,-347 194,-347 194,-325 10,-325"/>
<text text-anchor="start" x="30" y="-333.2" font-family="Helvetica,sans-Serif" font-size="11.00">flow_path_length</text>
<polygon fill="none" stroke="black" points="194,-325 194,-347 300,-347 300,-325 194,-325"/>
<text text-anchor="start" x="197" y="-333.2" font-family="Helvetica,sans-Serif" font-size="11.00">numeric[7,2]</text>
<polygon fill="none" stroke="black" points="10,-303 10,-325 194,-325 194,-303 10,-303"/>
<text text-anchor="start" x="30" y="-311.2" font-family="Helvetica,sans-Serif" font-size="11.00">flow_path_slope</text>
<polygon fill="none" stroke="black" points="194,-303 194,-325 300,-325 300,-303 194,-303"/>
<text text-anchor="start" x="197" y="-311.2" font-family="Helvetica,sans-Serif" font-size="11.00">int2[5]</text>
<polygon fill="none" stroke="black" points="10,-281 10,-303 194,-303 194,-281 10,-281"/>
<text text-anchor="start" x="30" y="-289.2" font-family="Helvetica,sans-Serif" font-size="11.00">population_equivalent</text>
<polygon fill="none" stroke="black" points="194,-281 194,-303 300,-303 300,-281 194,-281"/>
<text text-anchor="start" x="197" y="-289.2" font-family="Helvetica,sans-Serif" font-size="11.00">int4[10]</text>
<polygon fill="none" stroke="black" points="10,-259 10,-281 194,-281 194,-259 10,-259"/>
<text text-anchor="start" x="30" y="-267.2" font-family="Helvetica,sans-Serif" font-size="11.00">surface_ca</text>
<polygon fill="none" stroke="black" points="194,-259 194,-281 300,-281 300,-259 194,-259"/>
<text text-anchor="start" x="197" y="-267.2" font-family="Helvetica,sans-Serif" font-size="11.00">numeric[8,2]</text>
<polygon fill="none" stroke="black" points="10,-237 10,-259 194,-259 194,-237 10,-237"/>
<text text-anchor="start" x="30" y="-245.2" font-family="Helvetica,sans-Serif" font-size="11.00">evaporation_loss</text>
<polygon fill="none" stroke="black" points="194,-237 194,-259 300,-259 300,-237 194,-237"/>
<text text-anchor="start" x="197" y="-245.2" font-family="Helvetica,sans-Serif" font-size="11.00">numeric[4,1]</text>
<polygon fill="none" stroke="black" points="10,-215 10,-237 194,-237 194,-215 10,-215"/>
<text text-anchor="start" x="30" y="-223.2" font-family="Helvetica,sans-Serif" font-size="11.00">fk_catchment_area</text>
<polygon fill="none" stroke="black" points="194,-215 194,-237 300,-237 300,-215 194,-215"/>
<text text-anchor="start" x="197" y="-223.2" font-family="Helvetica,sans-Serif" font-size="11.00">varchar[16]</text>
<polygon fill="none" stroke="black" points="10,-193 10,-215 194,-215 194,-193 10,-193"/>
<text text-anchor="start" x="30" y="-201.2" font-family="Helvetica,sans-Serif" font-size="11.00">fk_dataowner</text>
<polygon fill="none" stroke="black" points="194,-193 194,-215 300,-215 300,-193 194,-193"/>
<text text-anchor="start" x="197" y="-201.2" font-family="Helvetica,sans-Serif" font-size="11.00">varchar[16]</text>
<polygon fill="none" stroke="black" points="10,-171 10,-193 194,-193 194,-171 10,-171"/>
<text text-anchor="start" x="30" y="-179.2" font-family="Helvetica,sans-Serif" font-size="11.00">fk_provider</text>
<polygon fill="none" stroke="black" points="194,-171 194,-193 300,-193 300,-171 194,-171"/>
<text text-anchor="start" x="197" y="-179.2" font-family="Helvetica,sans-Serif" font-size="11.00">varchar[16]</text>
<polygon fill="none" stroke="black" points="10,-149 10,-171 194,-171 194,-149 10,-149"/>
<text text-anchor="start" x="30" y="-157.2" font-family="Helvetica,sans-Serif" font-size="11.00">identifier</text>
<polygon fill="none" stroke="black" points="194,-149 194,-171 300,-171 300,-149 194,-149"/>
<text text-anchor="start" x="197" y="-157.2" font-family="Helvetica,sans-Serif" font-size="11.00">text[2147483647]</text>
<polygon fill="none" stroke="black" points="10,-127 10,-149 194,-149 194,-127 10,-127"/>
<text text-anchor="start" x="30" y="-135.2" font-family="Helvetica,sans-Serif" font-size="11.00">infiltration_loss</text>
<polygon fill="none" stroke="black" points="194,-127 194,-149 300,-149 300,-127 194,-127"/>
<text text-anchor="start" x="197" y="-135.2" font-family="Helvetica,sans-Serif" font-size="11.00">numeric[4,1]</text>
<polygon fill="none" stroke="black" points="10,-105 10,-127 194,-127 194,-105 10,-105"/>
<text text-anchor="start" x="30" y="-113.2" font-family="Helvetica,sans-Serif" font-size="11.00">last_modification</text>
<polygon fill="none" stroke="black" points="194,-105 194,-127 300,-127 300,-105 194,-105"/>
<text text-anchor="start" x="197" y="-113.2" font-family="Helvetica,sans-Serif" font-size="11.00">timestamp[29,6]</text>
<polygon fill="none" stroke="black" points="10,-83 10,-105 194,-105 194,-83 10,-83"/>
<text text-anchor="start" x="30" y="-91.2" font-family="Helvetica,sans-Serif" font-size="11.00">remark</text>
<polygon fill="none" stroke="black" points="194,-83 194,-105 300,-105 300,-83 194,-83"/>
<text text-anchor="start" x="197" y="-91.2" font-family="Helvetica,sans-Serif" font-size="11.00">text[2147483647]</text>
<polygon fill="none" stroke="black" points="10,-61 10,-83 194,-83 194,-61 10,-61"/>
<text text-anchor="start" x="30" y="-69.2" font-family="Helvetica,sans-Serif" font-size="11.00">surface_storage</text>
<polygon fill="none" stroke="black" points="194,-61 194,-83 300,-83 300,-61 194,-61"/>
<text text-anchor="start" x="197" y="-69.2" font-family="Helvetica,sans-Serif" font-size="11.00">numeric[4,1]</text>
<polygon fill="none" stroke="black" points="10,-39 10,-61 194,-61 194,-39 10,-39"/>
<text text-anchor="start" x="30" y="-47.2" font-family="Helvetica,sans-Serif" font-size="11.00">wetting_loss</text>
<polygon fill="none" stroke="black" points="194,-39 194,-61 300,-61 300,-39 194,-39"/>
<text text-anchor="start" x="197" y="-47.2" font-family="Helvetica,sans-Serif" font-size="11.00">numeric[4,1]</text>
<polygon fill="none" stroke="black" stroke-width="2" points="9,-38 9,-414 301,-414 301,-38 9,-38"/>
</a>
</g>
</g>
</g>
</svg>
