<?xml version="1.0" encoding="UTF-8" standalone="no"?>
<!DOCTYPE svg PUBLIC "-//W3C//DTD SVG 1.1//EN"
 "http://www.w3.org/Graphics/SVG/1.1/DTD/svg11.dtd">
<!-- Generated by graphviz version 2.43.0 (0)
 -->
<!-- Title: oneDegreeRelationshipsDiagram Pages: 1 -->
<svg width="371pt" height="295pt"
 viewBox="0.00 0.00 371.00 295.00" xmlns="http://www.w3.org/2000/svg" xmlns:xlink="http://www.w3.org/1999/xlink">
<g id="graph0" class="graph" transform="scale(1 1) rotate(0) translate(4 291)">
<title>oneDegreeRelationshipsDiagram</title>
<polygon fill="#ffffff" stroke="transparent" points="-4,4 -4,-291 367,-291 367,4 -4,4"/>
<text text-anchor="middle" x="79.5" y="-7.2" font-family="Helvetica,sans-Serif" font-size="11.00">Generated by SchemaSpy</text>
<!-- vw_tww_damage_channel -->
<g id="node1" class="node">
<title>vw_tww_damage_channel</title>
<g id="a_node1"><a xlink:href="../../tables/vw_tww_damage_channel.html" xlink:title="vw_tww_damage_channel" target="_top">
<polygon fill="#ffffff" stroke="transparent" points="8,-37 8,-283 355,-283 355,-37 8,-37"/>
<polygon fill="#f5f5f5" stroke="transparent" points="10.5,-259 10.5,-281 353.5,-281 353.5,-259 10.5,-259"/>
<polygon fill="none" stroke="black" points="10.5,-259 10.5,-281 353.5,-281 353.5,-259 10.5,-259"/>
<text text-anchor="start" x="15.5" y="-268.2" font-family="Helvetica,sans-Serif" font-weight="bold" font-size="11.00">vw_tww_damage_channel</text>
<text text-anchor="start" x="313.5" y="-267.2" font-family="Helvetica,sans-Serif" font-size="11.00">[view]</text>
<polygon fill="none" stroke="black" points="10.5,-237 10.5,-259 217.5,-259 217.5,-237 10.5,-237"/>
<text text-anchor="start" x="30.5" y="-245.2" font-family="Helvetica,sans-Serif" font-size="11.00">obj_id</text>
<polygon fill="none" stroke="black" points="217.5,-237 217.5,-259 353.5,-259 353.5,-237 217.5,-237"/>
<text text-anchor="start" x="220.5" y="-245.2" font-family="Helvetica,sans-Serif" font-size="11.00">varchar[16]</text>
<polygon fill="none" stroke="black" points="10.5,-215 10.5,-237 217.5,-237 217.5,-215 10.5,-215"/>
<text text-anchor="start" x="30.5" y="-223.2" font-family="Helvetica,sans-Serif" font-size="11.00">channel_damage_begin</text>
<polygon fill="none" stroke="black" points="217.5,-215 217.5,-237 353.5,-237 353.5,-215 217.5,-215"/>
<text text-anchor="start" x="220.5" y="-223.2" font-family="Helvetica,sans-Serif" font-size="11.00">int2[5]</text>
<polygon fill="none" stroke="black" points="10.5,-193 10.5,-215 217.5,-215 217.5,-193 10.5,-193"/>
<text text-anchor="start" x="30.5" y="-201.2" font-family="Helvetica,sans-Serif" font-size="11.00">channel_damage_code</text>
<polygon fill="none" stroke="black" points="217.5,-193 217.5,-215 353.5,-215 353.5,-193 217.5,-193"/>
<text text-anchor="start" x="220.5" y="-201.2" font-family="Helvetica,sans-Serif" font-size="11.00">int4[10]</text>
<polygon fill="none" stroke="black" points="10.5,-171 10.5,-193 217.5,-193 217.5,-171 10.5,-171"/>
<text text-anchor="start" x="30.5" y="-179.2" font-family="Helvetica,sans-Serif" font-size="11.00">channel_damage_end</text>
<polygon fill="none" stroke="black" points="217.5,-171 217.5,-193 353.5,-193 353.5,-171 217.5,-171"/>
<text text-anchor="start" x="220.5" y="-179.2" font-family="Helvetica,sans-Serif" font-size="11.00">int2[5]</text>
<polygon fill="none" stroke="black" points="10.5,-149 10.5,-171 217.5,-171 217.5,-149 10.5,-149"/>
<text text-anchor="start" x="30.5" y="-157.2" font-family="Helvetica,sans-Serif" font-size="11.00">channel_distance</text>
<polygon fill="none" stroke="black" points="217.5,-149 217.5,-171 353.5,-171 353.5,-149 217.5,-149"/>
<text text-anchor="start" x="220.5" y="-157.2" font-family="Helvetica,sans-Serif" font-size="11.00">numeric[7,2]</text>
<polygon fill="none" stroke="black" points="10.5,-127 10.5,-149 217.5,-149 217.5,-127 10.5,-127"/>
<text text-anchor="start" x="30.5" y="-135.2" font-family="Helvetica,sans-Serif" font-size="11.00">channel_quantification1</text>
<polygon fill="none" stroke="black" points="217.5,-127 217.5,-149 353.5,-149 353.5,-127 217.5,-127"/>
<text text-anchor="start" x="220.5" y="-135.2" font-family="Helvetica,sans-Serif" font-size="11.00">int4[10]</text>
<polygon fill="none" stroke="black" points="10.5,-105 10.5,-127 217.5,-127 217.5,-105 10.5,-105"/>
<text text-anchor="start" x="30.5" y="-113.2" font-family="Helvetica,sans-Serif" font-size="11.00">channel_quantification2</text>
<polygon fill="none" stroke="black" points="217.5,-105 217.5,-127 353.5,-127 353.5,-105 217.5,-105"/>
<text text-anchor="start" x="220.5" y="-113.2" font-family="Helvetica,sans-Serif" font-size="11.00">int4[10]</text>
<polygon fill="none" stroke="black" points="10.5,-83 10.5,-105 217.5,-105 217.5,-83 10.5,-83"/>
<text text-anchor="start" x="30.5" y="-91.2" font-family="Helvetica,sans-Serif" font-size="11.00">ws_identifier</text>
<polygon fill="none" stroke="black" points="217.5,-83 217.5,-105 353.5,-105 353.5,-83 217.5,-83"/>
<text text-anchor="start" x="220.5" y="-91.2" font-family="Helvetica,sans-Serif" font-size="11.00">text[2147483647]</text>
<polygon fill="none" stroke="black" points="10.5,-61 10.5,-83 217.5,-83 217.5,-61 10.5,-61"/>
<text text-anchor="start" x="30.5" y="-69.2" font-family="Helvetica,sans-Serif" font-size="11.00">situation2d_geometry</text>
<polygon fill="none" stroke="black" points="217.5,-61 217.5,-83 353.5,-83 353.5,-61 217.5,-61"/>
<text text-anchor="start" x="220.5" y="-69.2" font-family="Helvetica,sans-Serif" font-size="11.00">geometry[2147483647]</text>
<polygon fill="none" stroke="black" points="10.5,-39 10.5,-61 217.5,-61 217.5,-39 10.5,-39"/>
<text text-anchor="start" x="30.5" y="-47.2" font-family="Helvetica,sans-Serif" font-size="11.00">direction</text>
<polygon fill="none" stroke="black" points="217.5,-39 217.5,-61 353.5,-61 353.5,-39 217.5,-39"/>
<text text-anchor="start" x="220.5" y="-47.2" font-family="Helvetica,sans-Serif" font-size="11.00">text[2147483647]</text>
<polygon fill="none" stroke="black" stroke-width="2" points="9,-38 9,-282 354,-282 354,-38 9,-38"/>
</a>
</g>
</g>
</g>
</svg>
