<?xml version="1.0" encoding="UTF-8" standalone="no"?>
<!DOCTYPE svg PUBLIC "-//W3C//DTD SVG 1.1//EN"
 "http://www.w3.org/Graphics/SVG/1.1/DTD/svg11.dtd">
<!-- Generated by graphviz version 2.43.0 (0)
 -->
<!-- Title: oneDegreeRelationshipsDiagram Pages: 1 -->
<svg width="388pt" height="449pt"
 viewBox="0.00 0.00 388.00 449.00" xmlns="http://www.w3.org/2000/svg" xmlns:xlink="http://www.w3.org/1999/xlink">
<g id="graph0" class="graph" transform="scale(1 1) rotate(0) translate(4 445)">
<title>oneDegreeRelationshipsDiagram</title>
<polygon fill="#ffffff" stroke="transparent" points="-4,4 -4,-445 384,-445 384,4 -4,4"/>
<text text-anchor="middle" x="79.5" y="-7.2" font-family="Helvetica,sans-Serif" font-size="11.00">Generated by SchemaSpy</text>
<!-- vw_wastewater_node -->
<g id="node1" class="node">
<title>vw_wastewater_node</title>
<g id="a_node1"><a xlink:href="../../tables/vw_wastewater_node.html" xlink:title="vw_wastewater_node" target="_top">
<polygon fill="#ffffff" stroke="transparent" points="8,-37 8,-437 372,-437 372,-37 8,-37"/>
<polygon fill="#f5f5f5" stroke="transparent" points="10,-413 10,-435 370,-435 370,-413 10,-413"/>
<polygon fill="none" stroke="black" points="10,-413 10,-435 370,-435 370,-413 10,-413"/>
<text text-anchor="start" x="15" y="-422.2" font-family="Helvetica,sans-Serif" font-weight="bold" font-size="11.00">vw_wastewater_node</text>
<text text-anchor="start" x="330" y="-421.2" font-family="Helvetica,sans-Serif" font-size="11.00">[view]</text>
<polygon fill="none" stroke="black" points="10,-391 10,-413 234,-413 234,-391 10,-391"/>
<text text-anchor="start" x="30" y="-399.2" font-family="Helvetica,sans-Serif" font-size="11.00">obj_id</text>
<polygon fill="none" stroke="black" points="234,-391 234,-413 370,-413 370,-391 234,-391"/>
<text text-anchor="start" x="237" y="-399.2" font-family="Helvetica,sans-Serif" font-size="11.00">varchar[16]</text>
<polygon fill="none" stroke="black" points="10,-369 10,-391 234,-391 234,-369 10,-369"/>
<text text-anchor="start" x="30" y="-377.2" font-family="Helvetica,sans-Serif" font-size="11.00">_function_hierarchic</text>
<polygon fill="none" stroke="black" points="234,-369 234,-391 370,-391 370,-369 234,-369"/>
<text text-anchor="start" x="237" y="-377.2" font-family="Helvetica,sans-Serif" font-size="11.00">int4[10]</text>
<polygon fill="none" stroke="black" points="10,-347 10,-369 234,-369 234,-347 10,-347"/>
<text text-anchor="start" x="30" y="-355.2" font-family="Helvetica,sans-Serif" font-size="11.00">_status</text>
<polygon fill="none" stroke="black" points="234,-347 234,-369 370,-369 370,-347 234,-347"/>
<text text-anchor="start" x="237" y="-355.2" font-family="Helvetica,sans-Serif" font-size="11.00">int4[10]</text>
<polygon fill="none" stroke="black" points="10,-325 10,-347 234,-347 234,-325 10,-325"/>
<text text-anchor="start" x="30" y="-333.2" font-family="Helvetica,sans-Serif" font-size="11.00">_usage_current</text>
<polygon fill="none" stroke="black" points="234,-325 234,-347 370,-347 370,-325 234,-325"/>
<text text-anchor="start" x="237" y="-333.2" font-family="Helvetica,sans-Serif" font-size="11.00">int4[10]</text>
<polygon fill="none" stroke="black" points="10,-303 10,-325 234,-325 234,-303 10,-303"/>
<text text-anchor="start" x="30" y="-311.2" font-family="Helvetica,sans-Serif" font-size="11.00">backflow_level_current</text>
<polygon fill="none" stroke="black" points="234,-303 234,-325 370,-325 370,-303 234,-303"/>
<text text-anchor="start" x="237" y="-311.2" font-family="Helvetica,sans-Serif" font-size="11.00">numeric[7,3]</text>
<polygon fill="none" stroke="black" points="10,-281 10,-303 234,-303 234,-281 10,-281"/>
<text text-anchor="start" x="30" y="-289.2" font-family="Helvetica,sans-Serif" font-size="11.00">bottom_level</text>
<polygon fill="none" stroke="black" points="234,-281 234,-303 370,-303 370,-281 234,-281"/>
<text text-anchor="start" x="237" y="-289.2" font-family="Helvetica,sans-Serif" font-size="11.00">numeric[7,3]</text>
<polygon fill="none" stroke="black" points="10,-259 10,-281 234,-281 234,-259 10,-259"/>
<text text-anchor="start" x="30" y="-267.2" font-family="Helvetica,sans-Serif" font-size="11.00">elevation_accuracy</text>
<polygon fill="none" stroke="black" points="234,-259 234,-281 370,-281 370,-259 234,-259"/>
<text text-anchor="start" x="237" y="-267.2" font-family="Helvetica,sans-Serif" font-size="11.00">int4[10]</text>
<polygon fill="none" stroke="black" points="10,-237 10,-259 234,-259 234,-237 10,-237"/>
<text text-anchor="start" x="30" y="-245.2" font-family="Helvetica,sans-Serif" font-size="11.00">fk_hydr_geometry</text>
<polygon fill="none" stroke="black" points="234,-237 234,-259 370,-259 370,-237 234,-237"/>
<text text-anchor="start" x="237" y="-245.2" font-family="Helvetica,sans-Serif" font-size="11.00">varchar[16]</text>
<polygon fill="none" stroke="black" points="10,-215 10,-237 234,-237 234,-215 10,-215"/>
<text text-anchor="start" x="30" y="-223.2" font-family="Helvetica,sans-Serif" font-size="11.00">function_node_amelioration</text>
<polygon fill="none" stroke="black" points="234,-215 234,-237 370,-237 370,-215 234,-215"/>
<text text-anchor="start" x="237" y="-223.2" font-family="Helvetica,sans-Serif" font-size="11.00">int4[10]</text>
<polygon fill="none" stroke="black" points="10,-193 10,-215 234,-215 234,-193 10,-193"/>
<text text-anchor="start" x="30" y="-201.2" font-family="Helvetica,sans-Serif" font-size="11.00">situation3d_geometry</text>
<polygon fill="none" stroke="black" points="234,-193 234,-215 370,-215 370,-193 234,-193"/>
<text text-anchor="start" x="237" y="-201.2" font-family="Helvetica,sans-Serif" font-size="11.00">geometry[2147483647]</text>
<polygon fill="none" stroke="black" points="10,-171 10,-193 234,-193 234,-171 10,-171"/>
<text text-anchor="start" x="30" y="-179.2" font-family="Helvetica,sans-Serif" font-size="11.00">wwtp_number</text>
<polygon fill="none" stroke="black" points="234,-171 234,-193 370,-193 370,-171 234,-171"/>
<text text-anchor="start" x="237" y="-179.2" font-family="Helvetica,sans-Serif" font-size="11.00">int4[10]</text>
<polygon fill="none" stroke="black" points="10,-149 10,-171 234,-171 234,-149 10,-149"/>
<text text-anchor="start" x="30" y="-157.2" font-family="Helvetica,sans-Serif" font-size="11.00">fk_dataowner</text>
<polygon fill="none" stroke="black" points="234,-149 234,-171 370,-171 370,-149 234,-149"/>
<text text-anchor="start" x="237" y="-157.2" font-family="Helvetica,sans-Serif" font-size="11.00">varchar[16]</text>
<polygon fill="none" stroke="black" points="10,-127 10,-149 234,-149 234,-127 10,-127"/>
<text text-anchor="start" x="30" y="-135.2" font-family="Helvetica,sans-Serif" font-size="11.00">fk_provider</text>
<polygon fill="none" stroke="black" points="234,-127 234,-149 370,-149 370,-127 234,-127"/>
<text text-anchor="start" x="237" y="-135.2" font-family="Helvetica,sans-Serif" font-size="11.00">varchar[16]</text>
<polygon fill="none" stroke="black" points="10,-105 10,-127 234,-127 234,-105 10,-105"/>
<text text-anchor="start" x="30" y="-113.2" font-family="Helvetica,sans-Serif" font-size="11.00">fk_wastewater_structure</text>
<polygon fill="none" stroke="black" points="234,-105 234,-127 370,-127 370,-105 234,-105"/>
<text text-anchor="start" x="237" y="-113.2" font-family="Helvetica,sans-Serif" font-size="11.00">varchar[16]</text>
<polygon fill="none" stroke="black" points="10,-83 10,-105 234,-105 234,-83 10,-83"/>
<text text-anchor="start" x="30" y="-91.2" font-family="Helvetica,sans-Serif" font-size="11.00">identifier</text>
<polygon fill="none" stroke="black" points="234,-83 234,-105 370,-105 370,-83 234,-83"/>
<text text-anchor="start" x="237" y="-91.2" font-family="Helvetica,sans-Serif" font-size="11.00">text[2147483647]</text>
<polygon fill="none" stroke="black" points="10,-61 10,-83 234,-83 234,-61 10,-61"/>
<text text-anchor="start" x="30" y="-69.2" font-family="Helvetica,sans-Serif" font-size="11.00">last_modification</text>
<polygon fill="none" stroke="black" points="234,-61 234,-83 370,-83 370,-61 234,-61"/>
<text text-anchor="start" x="237" y="-69.2" font-family="Helvetica,sans-Serif" font-size="11.00">timestamp[29,6]</text>
<polygon fill="none" stroke="black" points="10,-39 10,-61 234,-61 234,-39 10,-39"/>
<text text-anchor="start" x="30" y="-47.2" font-family="Helvetica,sans-Serif" font-size="11.00">remark</text>
<polygon fill="none" stroke="black" points="234,-39 234,-61 370,-61 370,-39 234,-39"/>
<text text-anchor="start" x="237" y="-47.2" font-family="Helvetica,sans-Serif" font-size="11.00">text[2147483647]</text>
<polygon fill="none" stroke="black" stroke-width="2" points="9,-38 9,-436 371,-436 371,-38 9,-38"/>
</a>
</g>
</g>
</g>
</svg>
