<?xml version="1.0" encoding="UTF-8" standalone="no"?>
<!DOCTYPE svg PUBLIC "-//W3C//DTD SVG 1.1//EN"
 "http://www.w3.org/Graphics/SVG/1.1/DTD/svg11.dtd">
<!-- Generated by graphviz version 2.47.1 (20210515.0534)
 -->
<!-- Title: oneDegreeRelationshipsDiagram Pages: 1 -->
<svg width="314pt" height="1043pt"
 viewBox="0.00 0.00 314.00 1043.00" xmlns="http://www.w3.org/2000/svg" xmlns:xlink="http://www.w3.org/1999/xlink">
<g id="graph0" class="graph" transform="scale(1 1) rotate(0) translate(4 1039)">
<title>oneDegreeRelationshipsDiagram</title>
<polygon fill="#ffffff" stroke="transparent" points="-4,4 -4,-1039 310,-1039 310,4 -4,4"/>
<text text-anchor="middle" x="73.5" y="-7.2" font-family="Helvetica,sans-Serif" font-size="11.00">Generated by SchemaSpy</text>
<!-- import_vw_manhole -->
<g id="node1" class="node">
<title>import_vw_manhole</title>
<g id="a_node1"><a xlink:href="../../tables/import_vw_manhole.html" xlink:title="import_vw_manhole" target="_top">
<polygon fill="#ffffff" stroke="transparent" points="8,-37 8,-1031 298,-1031 298,-37 8,-37"/>
<polygon fill="#f5f5f5" stroke="transparent" points="10,-1007 10,-1029 296,-1029 296,-1007 10,-1007"/>
<polygon fill="none" stroke="black" points="10,-1007 10,-1029 296,-1029 296,-1007 10,-1007"/>
<text text-anchor="start" x="15" y="-1016.2" font-family="Helvetica,sans-Serif" font-weight="bold" font-size="11.00">import_vw_manhole</text>
<text text-anchor="start" x="260" y="-1015.2" font-family="Helvetica,sans-Serif" font-size="11.00">[view]</text>
<polygon fill="none" stroke="black" points="10,-985 10,-1007 173,-1007 173,-985 10,-985"/>
<text text-anchor="start" x="30" y="-993.2" font-family="Helvetica,sans-Serif" font-size="11.00">obj_id</text>
<polygon fill="none" stroke="black" points="173,-985 173,-1007 296,-1007 296,-985 173,-985"/>
<text text-anchor="start" x="176" y="-993.2" font-family="Helvetica,sans-Serif" font-size="11.00">varchar[16]</text>
<polygon fill="none" stroke="black" points="10,-963 10,-985 173,-985 173,-963 10,-963"/>
<text text-anchor="start" x="30" y="-971.2" font-family="Helvetica,sans-Serif" font-size="11.00">identifier</text>
<polygon fill="none" stroke="black" points="173,-963 173,-985 296,-985 296,-963 173,-963"/>
<text text-anchor="start" x="176" y="-971.2" font-family="Helvetica,sans-Serif" font-size="11.00">text[2147483647]</text>
<polygon fill="none" stroke="black" points="10,-941 10,-963 173,-963 173,-941 10,-941"/>
<text text-anchor="start" x="30" y="-949.2" font-family="Helvetica,sans-Serif" font-size="11.00">situation_geometry</text>
<polygon fill="none" stroke="black" points="173,-941 173,-963 296,-963 296,-941 173,-941"/>
<text text-anchor="start" x="176" y="-949.2" font-family="Helvetica,sans-Serif" font-size="11.00">geometry[2147483647]</text>
<polygon fill="none" stroke="black" points="10,-919 10,-941 173,-941 173,-919 10,-919"/>
<text text-anchor="start" x="30" y="-927.2" font-family="Helvetica,sans-Serif" font-size="11.00">co_shape</text>
<polygon fill="none" stroke="black" points="173,-919 173,-941 296,-941 296,-919 173,-919"/>
<text text-anchor="start" x="176" y="-927.2" font-family="Helvetica,sans-Serif" font-size="11.00">int4[10]</text>
<polygon fill="none" stroke="black" points="10,-897 10,-919 173,-919 173,-897 10,-897"/>
<text text-anchor="start" x="30" y="-905.2" font-family="Helvetica,sans-Serif" font-size="11.00">co_diameter</text>
<polygon fill="none" stroke="black" points="173,-897 173,-919 296,-919 296,-897 173,-897"/>
<text text-anchor="start" x="176" y="-905.2" font-family="Helvetica,sans-Serif" font-size="11.00">int2[5]</text>
<polygon fill="none" stroke="black" points="10,-875 10,-897 173,-897 173,-875 10,-875"/>
<text text-anchor="start" x="30" y="-883.2" font-family="Helvetica,sans-Serif" font-size="11.00">co_material</text>
<polygon fill="none" stroke="black" points="173,-875 173,-897 296,-897 296,-875 173,-875"/>
<text text-anchor="start" x="176" y="-883.2" font-family="Helvetica,sans-Serif" font-size="11.00">int4[10]</text>
<polygon fill="none" stroke="black" points="10,-853 10,-875 173,-875 173,-853 10,-853"/>
<text text-anchor="start" x="30" y="-861.2" font-family="Helvetica,sans-Serif" font-size="11.00">co_positional_accuracy</text>
<polygon fill="none" stroke="black" points="173,-853 173,-875 296,-875 296,-853 173,-853"/>
<text text-anchor="start" x="176" y="-861.2" font-family="Helvetica,sans-Serif" font-size="11.00">int4[10]</text>
<polygon fill="none" stroke="black" points="10,-831 10,-853 173,-853 173,-831 10,-831"/>
<text text-anchor="start" x="30" y="-839.2" font-family="Helvetica,sans-Serif" font-size="11.00">co_level</text>
<polygon fill="none" stroke="black" points="173,-831 173,-853 296,-853 296,-831 173,-831"/>
<text text-anchor="start" x="176" y="-839.2" font-family="Helvetica,sans-Serif" font-size="11.00">numeric[7,3]</text>
<polygon fill="none" stroke="black" points="10,-809 10,-831 173,-831 173,-809 10,-809"/>
<text text-anchor="start" x="30" y="-817.2" font-family="Helvetica,sans-Serif" font-size="11.00">_depth</text>
<polygon fill="none" stroke="black" points="173,-809 173,-831 296,-831 296,-809 173,-809"/>
<text text-anchor="start" x="176" y="-817.2" font-family="Helvetica,sans-Serif" font-size="11.00">numeric[6,3]</text>
<polygon fill="none" stroke="black" points="10,-787 10,-809 173,-809 173,-787 10,-787"/>
<text text-anchor="start" x="30" y="-795.2" font-family="Helvetica,sans-Serif" font-size="11.00">_channel_usage_current</text>
<polygon fill="none" stroke="black" points="173,-787 173,-809 296,-809 296,-787 173,-787"/>
<text text-anchor="start" x="176" y="-795.2" font-family="Helvetica,sans-Serif" font-size="11.00">int4[10]</text>
<polygon fill="none" stroke="black" points="10,-765 10,-787 173,-787 173,-765 10,-765"/>
<text text-anchor="start" x="30" y="-773.2" font-family="Helvetica,sans-Serif" font-size="11.00">ma_material</text>
<polygon fill="none" stroke="black" points="173,-765 173,-787 296,-787 296,-765 173,-765"/>
<text text-anchor="start" x="176" y="-773.2" font-family="Helvetica,sans-Serif" font-size="11.00">int4[10]</text>
<polygon fill="none" stroke="black" points="10,-743 10,-765 173,-765 173,-743 10,-743"/>
<text text-anchor="start" x="30" y="-751.2" font-family="Helvetica,sans-Serif" font-size="11.00">ma_dimension1</text>
<polygon fill="none" stroke="black" points="173,-743 173,-765 296,-765 296,-743 173,-743"/>
<text text-anchor="start" x="176" y="-751.2" font-family="Helvetica,sans-Serif" font-size="11.00">int2[5]</text>
<polygon fill="none" stroke="black" points="10,-721 10,-743 173,-743 173,-721 10,-721"/>
<text text-anchor="start" x="30" y="-729.2" font-family="Helvetica,sans-Serif" font-size="11.00">ma_dimension2</text>
<polygon fill="none" stroke="black" points="173,-721 173,-743 296,-743 296,-721 173,-721"/>
<text text-anchor="start" x="176" y="-729.2" font-family="Helvetica,sans-Serif" font-size="11.00">int2[5]</text>
<polygon fill="none" stroke="black" points="10,-699 10,-721 173,-721 173,-699 10,-699"/>
<text text-anchor="start" x="30" y="-707.2" font-family="Helvetica,sans-Serif" font-size="11.00">ws_type</text>
<polygon fill="none" stroke="black" points="173,-699 173,-721 296,-721 296,-699 173,-699"/>
<text text-anchor="start" x="176" y="-707.2" font-family="Helvetica,sans-Serif" font-size="11.00">text[2147483647]</text>
<polygon fill="none" stroke="black" points="10,-677 10,-699 173,-699 173,-677 10,-677"/>
<text text-anchor="start" x="30" y="-685.2" font-family="Helvetica,sans-Serif" font-size="11.00">ma_function</text>
<polygon fill="none" stroke="black" points="173,-677 173,-699 296,-699 296,-677 173,-677"/>
<text text-anchor="start" x="176" y="-685.2" font-family="Helvetica,sans-Serif" font-size="11.00">int4[10]</text>
<polygon fill="none" stroke="black" points="10,-655 10,-677 173,-677 173,-655 10,-655"/>
<text text-anchor="start" x="30" y="-663.2" font-family="Helvetica,sans-Serif" font-size="11.00">ss_function</text>
<polygon fill="none" stroke="black" points="173,-655 173,-677 296,-677 296,-655 173,-655"/>
<text text-anchor="start" x="176" y="-663.2" font-family="Helvetica,sans-Serif" font-size="11.00">int4[10]</text>
<polygon fill="none" stroke="black" points="10,-633 10,-655 173,-655 173,-633 10,-633"/>
<text text-anchor="start" x="30" y="-641.2" font-family="Helvetica,sans-Serif" font-size="11.00">remark</text>
<polygon fill="none" stroke="black" points="173,-633 173,-655 296,-655 296,-633 173,-633"/>
<text text-anchor="start" x="176" y="-641.2" font-family="Helvetica,sans-Serif" font-size="11.00">text[2147483647]</text>
<polygon fill="none" stroke="black" points="10,-611 10,-633 173,-633 173,-611 10,-611"/>
<text text-anchor="start" x="30" y="-619.2" font-family="Helvetica,sans-Serif" font-size="11.00">wn_bottom_level</text>
<polygon fill="none" stroke="black" points="173,-611 173,-633 296,-633 296,-611 173,-611"/>
<text text-anchor="start" x="176" y="-619.2" font-family="Helvetica,sans-Serif" font-size="11.00">numeric[7,3]</text>
<polygon fill="none" stroke="black" points="10,-589 10,-611 173,-611 173,-589 10,-589"/>
<text text-anchor="start" x="30" y="-597.2" font-family="Helvetica,sans-Serif" font-size="11.00">photo1</text>
<polygon fill="none" stroke="black" points="173,-589 173,-611 296,-611 296,-589 173,-589"/>
<text text-anchor="start" x="176" y="-597.2" font-family="Helvetica,sans-Serif" font-size="11.00">text[2147483647]</text>
<polygon fill="none" stroke="black" points="10,-567 10,-589 173,-589 173,-567 10,-567"/>
<text text-anchor="start" x="30" y="-575.2" font-family="Helvetica,sans-Serif" font-size="11.00">photo2</text>
<polygon fill="none" stroke="black" points="173,-567 173,-589 296,-589 296,-567 173,-567"/>
<text text-anchor="start" x="176" y="-575.2" font-family="Helvetica,sans-Serif" font-size="11.00">text[2147483647]</text>
<polygon fill="none" stroke="black" points="10,-545 10,-567 173,-567 173,-545 10,-545"/>
<text text-anchor="start" x="30" y="-553.2" font-family="Helvetica,sans-Serif" font-size="11.00">inlet_3_material</text>
<polygon fill="none" stroke="black" points="173,-545 173,-567 296,-567 296,-545 173,-545"/>
<text text-anchor="start" x="176" y="-553.2" font-family="Helvetica,sans-Serif" font-size="11.00">int2[5]</text>
<polygon fill="none" stroke="black" points="10,-523 10,-545 173,-545 173,-523 10,-523"/>
<text text-anchor="start" x="30" y="-531.2" font-family="Helvetica,sans-Serif" font-size="11.00">inlet_3_clear_height</text>
<polygon fill="none" stroke="black" points="173,-523 173,-545 296,-545 296,-523 173,-523"/>
<text text-anchor="start" x="176" y="-531.2" font-family="Helvetica,sans-Serif" font-size="11.00">int4[10]</text>
<polygon fill="none" stroke="black" points="10,-501 10,-523 173,-523 173,-501 10,-501"/>
<text text-anchor="start" x="30" y="-509.2" font-family="Helvetica,sans-Serif" font-size="11.00">inlet_3_depth_m</text>
<polygon fill="none" stroke="black" points="173,-501 173,-523 296,-523 296,-501 173,-501"/>
<text text-anchor="start" x="176" y="-509.2" font-family="Helvetica,sans-Serif" font-size="11.00">numeric[7,3]</text>
<polygon fill="none" stroke="black" points="10,-479 10,-501 173,-501 173,-479 10,-479"/>
<text text-anchor="start" x="30" y="-487.2" font-family="Helvetica,sans-Serif" font-size="11.00">inlet_4_material</text>
<polygon fill="none" stroke="black" points="173,-479 173,-501 296,-501 296,-479 173,-479"/>
<text text-anchor="start" x="176" y="-487.2" font-family="Helvetica,sans-Serif" font-size="11.00">int2[5]</text>
<polygon fill="none" stroke="black" points="10,-457 10,-479 173,-479 173,-457 10,-457"/>
<text text-anchor="start" x="30" y="-465.2" font-family="Helvetica,sans-Serif" font-size="11.00">inlet_4_clear_height</text>
<polygon fill="none" stroke="black" points="173,-457 173,-479 296,-479 296,-457 173,-457"/>
<text text-anchor="start" x="176" y="-465.2" font-family="Helvetica,sans-Serif" font-size="11.00">int4[10]</text>
<polygon fill="none" stroke="black" points="10,-435 10,-457 173,-457 173,-435 10,-435"/>
<text text-anchor="start" x="30" y="-443.2" font-family="Helvetica,sans-Serif" font-size="11.00">inlet_4_depth_m</text>
<polygon fill="none" stroke="black" points="173,-435 173,-457 296,-457 296,-435 173,-435"/>
<text text-anchor="start" x="176" y="-443.2" font-family="Helvetica,sans-Serif" font-size="11.00">numeric[7,3]</text>
<polygon fill="none" stroke="black" points="10,-413 10,-435 173,-435 173,-413 10,-413"/>
<text text-anchor="start" x="30" y="-421.2" font-family="Helvetica,sans-Serif" font-size="11.00">inlet_5_material</text>
<polygon fill="none" stroke="black" points="173,-413 173,-435 296,-435 296,-413 173,-413"/>
<text text-anchor="start" x="176" y="-421.2" font-family="Helvetica,sans-Serif" font-size="11.00">int2[5]</text>
<polygon fill="none" stroke="black" points="10,-391 10,-413 173,-413 173,-391 10,-391"/>
<text text-anchor="start" x="30" y="-399.2" font-family="Helvetica,sans-Serif" font-size="11.00">inlet_5_clear_height</text>
<polygon fill="none" stroke="black" points="173,-391 173,-413 296,-413 296,-391 173,-391"/>
<text text-anchor="start" x="176" y="-399.2" font-family="Helvetica,sans-Serif" font-size="11.00">int4[10]</text>
<polygon fill="none" stroke="black" points="10,-369 10,-391 173,-391 173,-369 10,-369"/>
<text text-anchor="start" x="30" y="-377.2" font-family="Helvetica,sans-Serif" font-size="11.00">inlet_5_depth_m</text>
<polygon fill="none" stroke="black" points="173,-369 173,-391 296,-391 296,-369 173,-369"/>
<text text-anchor="start" x="176" y="-377.2" font-family="Helvetica,sans-Serif" font-size="11.00">numeric[7,3]</text>
<polygon fill="none" stroke="black" points="10,-347 10,-369 173,-369 173,-347 10,-347"/>
<text text-anchor="start" x="30" y="-355.2" font-family="Helvetica,sans-Serif" font-size="11.00">inlet_6_material</text>
<polygon fill="none" stroke="black" points="173,-347 173,-369 296,-369 296,-347 173,-347"/>
<text text-anchor="start" x="176" y="-355.2" font-family="Helvetica,sans-Serif" font-size="11.00">int2[5]</text>
<polygon fill="none" stroke="black" points="10,-325 10,-347 173,-347 173,-325 10,-325"/>
<text text-anchor="start" x="30" y="-333.2" font-family="Helvetica,sans-Serif" font-size="11.00">inlet_6_clear_height</text>
<polygon fill="none" stroke="black" points="173,-325 173,-347 296,-347 296,-325 173,-325"/>
<text text-anchor="start" x="176" y="-333.2" font-family="Helvetica,sans-Serif" font-size="11.00">int4[10]</text>
<polygon fill="none" stroke="black" points="10,-303 10,-325 173,-325 173,-303 10,-303"/>
<text text-anchor="start" x="30" y="-311.2" font-family="Helvetica,sans-Serif" font-size="11.00">inlet_6_depth_m</text>
<polygon fill="none" stroke="black" points="173,-303 173,-325 296,-325 296,-303 173,-303"/>
<text text-anchor="start" x="176" y="-311.2" font-family="Helvetica,sans-Serif" font-size="11.00">numeric[7,3]</text>
<polygon fill="none" stroke="black" points="10,-281 10,-303 173,-303 173,-281 10,-281"/>
<text text-anchor="start" x="30" y="-289.2" font-family="Helvetica,sans-Serif" font-size="11.00">inlet_7_material</text>
<polygon fill="none" stroke="black" points="173,-281 173,-303 296,-303 296,-281 173,-281"/>
<text text-anchor="start" x="176" y="-289.2" font-family="Helvetica,sans-Serif" font-size="11.00">int2[5]</text>
<polygon fill="none" stroke="black" points="10,-259 10,-281 173,-281 173,-259 10,-259"/>
<text text-anchor="start" x="30" y="-267.2" font-family="Helvetica,sans-Serif" font-size="11.00">inlet_7_clear_height</text>
<polygon fill="none" stroke="black" points="173,-259 173,-281 296,-281 296,-259 173,-259"/>
<text text-anchor="start" x="176" y="-267.2" font-family="Helvetica,sans-Serif" font-size="11.00">int4[10]</text>
<polygon fill="none" stroke="black" points="10,-237 10,-259 173,-259 173,-237 10,-237"/>
<text text-anchor="start" x="30" y="-245.2" font-family="Helvetica,sans-Serif" font-size="11.00">inlet_7_depth_m</text>
<polygon fill="none" stroke="black" points="173,-237 173,-259 296,-259 296,-237 173,-237"/>
<text text-anchor="start" x="176" y="-245.2" font-family="Helvetica,sans-Serif" font-size="11.00">numeric[7,3]</text>
<polygon fill="none" stroke="black" points="10,-215 10,-237 173,-237 173,-215 10,-215"/>
<text text-anchor="start" x="30" y="-223.2" font-family="Helvetica,sans-Serif" font-size="11.00">outlet_1_material</text>
<polygon fill="none" stroke="black" points="173,-215 173,-237 296,-237 296,-215 173,-215"/>
<text text-anchor="start" x="176" y="-223.2" font-family="Helvetica,sans-Serif" font-size="11.00">int2[5]</text>
<polygon fill="none" stroke="black" points="10,-193 10,-215 173,-215 173,-193 10,-193"/>
<text text-anchor="start" x="30" y="-201.2" font-family="Helvetica,sans-Serif" font-size="11.00">outlet_1_clear_height</text>
<polygon fill="none" stroke="black" points="173,-193 173,-215 296,-215 296,-193 173,-193"/>
<text text-anchor="start" x="176" y="-201.2" font-family="Helvetica,sans-Serif" font-size="11.00">int4[10]</text>
<polygon fill="none" stroke="black" points="10,-171 10,-193 173,-193 173,-171 10,-171"/>
<text text-anchor="start" x="30" y="-179.2" font-family="Helvetica,sans-Serif" font-size="11.00">outlet_1_depth_m</text>
<polygon fill="none" stroke="black" points="173,-171 173,-193 296,-193 296,-171 173,-171"/>
<text text-anchor="start" x="176" y="-179.2" font-family="Helvetica,sans-Serif" font-size="11.00">numeric[7,3]</text>
<polygon fill="none" stroke="black" points="10,-149 10,-171 173,-171 173,-149 10,-149"/>
<text text-anchor="start" x="30" y="-157.2" font-family="Helvetica,sans-Serif" font-size="11.00">outlet_2_material</text>
<polygon fill="none" stroke="black" points="173,-149 173,-171 296,-171 296,-149 173,-149"/>
<text text-anchor="start" x="176" y="-157.2" font-family="Helvetica,sans-Serif" font-size="11.00">int2[5]</text>
<polygon fill="none" stroke="black" points="10,-127 10,-149 173,-149 173,-127 10,-127"/>
<text text-anchor="start" x="30" y="-135.2" font-family="Helvetica,sans-Serif" font-size="11.00">outlet_2_clear_height</text>
<polygon fill="none" stroke="black" points="173,-127 173,-149 296,-149 296,-127 173,-127"/>
<text text-anchor="start" x="176" y="-135.2" font-family="Helvetica,sans-Serif" font-size="11.00">int4[10]</text>
<polygon fill="none" stroke="black" points="10,-105 10,-127 173,-127 173,-105 10,-105"/>
<text text-anchor="start" x="30" y="-113.2" font-family="Helvetica,sans-Serif" font-size="11.00">outlet_2_depth_m</text>
<polygon fill="none" stroke="black" points="173,-105 173,-127 296,-127 296,-105 173,-105"/>
<text text-anchor="start" x="176" y="-113.2" font-family="Helvetica,sans-Serif" font-size="11.00">numeric[7,3]</text>
<polygon fill="none" stroke="black" points="10,-83 10,-105 173,-105 173,-83 10,-83"/>
<text text-anchor="start" x="30" y="-91.2" font-family="Helvetica,sans-Serif" font-size="11.00">verified</text>
<polygon fill="none" stroke="black" points="173,-83 173,-105 296,-105 296,-83 173,-83"/>
<text text-anchor="start" x="176" y="-91.2" font-family="Helvetica,sans-Serif" font-size="11.00">bool[1]</text>
<polygon fill="none" stroke="black" points="10,-61 10,-83 173,-83 173,-61 10,-61"/>
<text text-anchor="start" x="30" y="-69.2" font-family="Helvetica,sans-Serif" font-size="11.00">in_quarantine</text>
<polygon fill="none" stroke="black" points="173,-61 173,-83 296,-83 296,-61 173,-61"/>
<text text-anchor="start" x="176" y="-69.2" font-family="Helvetica,sans-Serif" font-size="11.00">bool[1]</text>
<polygon fill="none" stroke="black" points="10,-39 10,-61 173,-61 173,-39 10,-39"/>
<text text-anchor="start" x="30" y="-47.2" font-family="Helvetica,sans-Serif" font-size="11.00">deleted</text>
<polygon fill="none" stroke="black" points="173,-39 173,-61 296,-61 296,-39 173,-39"/>
<text text-anchor="start" x="176" y="-47.2" font-family="Helvetica,sans-Serif" font-size="11.00">bool[1]</text>
<polygon fill="none" stroke="black" stroke-width="2" points="9,-38 9,-1030 297,-1030 297,-38 9,-38"/>
</a>
</g>
</g>
</g>
</svg>
