<?xml version="1.0" encoding="UTF-8" standalone="no"?>
<!DOCTYPE svg PUBLIC "-//W3C//DTD SVG 1.1//EN"
 "http://www.w3.org/Graphics/SVG/1.1/DTD/svg11.dtd">
<!-- Generated by graphviz version 2.43.0 (0)
 -->
<!-- Title: oneDegreeRelationshipsDiagram Pages: 1 -->
<svg width="303pt" height="339pt"
 viewBox="0.00 0.00 303.00 339.00" xmlns="http://www.w3.org/2000/svg" xmlns:xlink="http://www.w3.org/1999/xlink">
<g id="graph0" class="graph" transform="scale(1 1) rotate(0) translate(4 335)">
<title>oneDegreeRelationshipsDiagram</title>
<polygon fill="#ffffff" stroke="transparent" points="-4,4 -4,-335 299,-335 299,4 -4,4"/>
<text text-anchor="middle" x="79.5" y="-7.2" font-family="Helvetica,sans-Serif" font-size="11.00">Generated by SchemaSpy</text>
<!-- swmm_vw_pumps -->
<g id="node1" class="node">
<title>swmm_vw_pumps</title>
<g id="a_node1"><a xlink:href="../../tables/swmm_vw_pumps.html" xlink:title="swmm_vw_pumps" target="_top">
<polygon fill="#ffffff" stroke="transparent" points="8,-37 8,-327 287,-327 287,-37 8,-37"/>
<polygon fill="#f5f5f5" stroke="transparent" points="10.5,-303 10.5,-325 285.5,-325 285.5,-303 10.5,-303"/>
<polygon fill="none" stroke="black" points="10.5,-303 10.5,-325 285.5,-325 285.5,-303 10.5,-303"/>
<text text-anchor="start" x="15.5" y="-312.2" font-family="Helvetica,sans-Serif" font-weight="bold" font-size="11.00">swmm_vw_pumps</text>
<text text-anchor="start" x="245.5" y="-311.2" font-family="Helvetica,sans-Serif" font-size="11.00">[view]</text>
<polygon fill="none" stroke="black" points="10.5,-281 10.5,-303 160.5,-303 160.5,-281 10.5,-281"/>
<text text-anchor="start" x="30.5" y="-289.2" font-family="Helvetica,sans-Serif" font-size="11.00">name</text>
<polygon fill="none" stroke="black" points="160.5,-281 160.5,-303 285.5,-303 285.5,-281 160.5,-281"/>
<text text-anchor="start" x="163.5" y="-289.2" font-family="Helvetica,sans-Serif" font-size="11.00">varchar[16]</text>
<polygon fill="none" stroke="black" points="10.5,-259 10.5,-281 160.5,-281 160.5,-259 10.5,-259"/>
<text text-anchor="start" x="30.5" y="-267.2" font-family="Helvetica,sans-Serif" font-size="11.00">fromnode</text>
<polygon fill="none" stroke="black" points="160.5,-259 160.5,-281 285.5,-281 285.5,-259 160.5,-259"/>
<text text-anchor="start" x="163.5" y="-267.2" font-family="Helvetica,sans-Serif" font-size="11.00">varchar[16]</text>
<polygon fill="none" stroke="black" points="10.5,-237 10.5,-259 160.5,-259 160.5,-237 10.5,-237"/>
<text text-anchor="start" x="30.5" y="-245.2" font-family="Helvetica,sans-Serif" font-size="11.00">tonode</text>
<polygon fill="none" stroke="black" points="160.5,-237 160.5,-259 285.5,-259 285.5,-237 160.5,-237"/>
<text text-anchor="start" x="163.5" y="-245.2" font-family="Helvetica,sans-Serif" font-size="11.00">varchar[16]</text>
<polygon fill="none" stroke="black" points="10.5,-215 10.5,-237 160.5,-237 160.5,-215 10.5,-215"/>
<text text-anchor="start" x="30.5" y="-223.2" font-family="Helvetica,sans-Serif" font-size="11.00">pumpcurve</text>
<polygon fill="none" stroke="black" points="160.5,-215 160.5,-237 285.5,-237 285.5,-215 160.5,-215"/>
<text text-anchor="start" x="163.5" y="-223.2" font-family="Helvetica,sans-Serif" font-size="11.00">varchar[2147483647]</text>
<polygon fill="none" stroke="black" points="10.5,-193 10.5,-215 160.5,-215 160.5,-193 10.5,-193"/>
<text text-anchor="start" x="30.5" y="-201.2" font-family="Helvetica,sans-Serif" font-size="11.00">status</text>
<polygon fill="none" stroke="black" points="160.5,-193 160.5,-215 285.5,-215 285.5,-193 160.5,-193"/>
<text text-anchor="start" x="163.5" y="-201.2" font-family="Helvetica,sans-Serif" font-size="11.00">varchar[2147483647]</text>
<polygon fill="none" stroke="black" points="10.5,-171 10.5,-193 160.5,-193 160.5,-171 10.5,-171"/>
<text text-anchor="start" x="30.5" y="-179.2" font-family="Helvetica,sans-Serif" font-size="11.00">startupdepth</text>
<polygon fill="none" stroke="black" points="160.5,-171 160.5,-193 285.5,-193 285.5,-171 160.5,-171"/>
<text text-anchor="start" x="163.5" y="-179.2" font-family="Helvetica,sans-Serif" font-size="11.00">numeric[7,3]</text>
<polygon fill="none" stroke="black" points="10.5,-149 10.5,-171 160.5,-171 160.5,-149 10.5,-149"/>
<text text-anchor="start" x="30.5" y="-157.2" font-family="Helvetica,sans-Serif" font-size="11.00">shutoffdepth</text>
<polygon fill="none" stroke="black" points="160.5,-149 160.5,-171 285.5,-171 285.5,-149 160.5,-149"/>
<text text-anchor="start" x="163.5" y="-157.2" font-family="Helvetica,sans-Serif" font-size="11.00">numeric[7,3]</text>
<polygon fill="none" stroke="black" points="10.5,-127 10.5,-149 160.5,-149 160.5,-127 10.5,-127"/>
<text text-anchor="start" x="30.5" y="-135.2" font-family="Helvetica,sans-Serif" font-size="11.00">description</text>
<polygon fill="none" stroke="black" points="160.5,-127 160.5,-149 285.5,-149 285.5,-127 160.5,-127"/>
<text text-anchor="start" x="163.5" y="-135.2" font-family="Helvetica,sans-Serif" font-size="11.00">text[2147483647]</text>
<polygon fill="none" stroke="black" points="10.5,-105 10.5,-127 160.5,-127 160.5,-105 10.5,-105"/>
<text text-anchor="start" x="30.5" y="-113.2" font-family="Helvetica,sans-Serif" font-size="11.00">tag</text>
<polygon fill="none" stroke="black" points="160.5,-105 160.5,-127 285.5,-127 285.5,-105 160.5,-105"/>
<text text-anchor="start" x="163.5" y="-113.2" font-family="Helvetica,sans-Serif" font-size="11.00">varchar[2147483647]</text>
<polygon fill="none" stroke="black" points="10.5,-83 10.5,-105 160.5,-105 160.5,-83 10.5,-83"/>
<text text-anchor="start" x="30.5" y="-91.2" font-family="Helvetica,sans-Serif" font-size="11.00">state</text>
<polygon fill="none" stroke="black" points="160.5,-83 160.5,-105 285.5,-105 285.5,-83 160.5,-83"/>
<text text-anchor="start" x="163.5" y="-91.2" font-family="Helvetica,sans-Serif" font-size="11.00">text[2147483647]</text>
<polygon fill="none" stroke="black" points="10.5,-61 10.5,-83 160.5,-83 160.5,-61 10.5,-61"/>
<text text-anchor="start" x="30.5" y="-69.2" font-family="Helvetica,sans-Serif" font-size="11.00">hierarchy</text>
<polygon fill="none" stroke="black" points="160.5,-61 160.5,-83 285.5,-83 285.5,-61 160.5,-61"/>
<text text-anchor="start" x="163.5" y="-69.2" font-family="Helvetica,sans-Serif" font-size="11.00">text[2147483647]</text>
<polygon fill="none" stroke="black" points="10.5,-39 10.5,-61 160.5,-61 160.5,-39 10.5,-39"/>
<text text-anchor="start" x="30.5" y="-47.2" font-family="Helvetica,sans-Serif" font-size="11.00">obj_id</text>
<polygon fill="none" stroke="black" points="160.5,-39 160.5,-61 285.5,-61 285.5,-39 160.5,-39"/>
<text text-anchor="start" x="163.5" y="-47.2" font-family="Helvetica,sans-Serif" font-size="11.00">varchar[16]</text>
<polygon fill="none" stroke="black" stroke-width="2" points="9,-38 9,-326 286,-326 286,-38 9,-38"/>
</a>
</g>
</g>
</g>
</svg>
