<?xml version="1.0" encoding="UTF-8" standalone="no"?>
<!DOCTYPE svg PUBLIC "-//W3C//DTD SVG 1.1//EN"
 "http://www.w3.org/Graphics/SVG/1.1/DTD/svg11.dtd">
<!-- Generated by graphviz version 2.47.1 (20210515.0534)
 -->
<!-- Title: oneDegreeRelationshipsDiagram Pages: 1 -->
<svg width="298pt" height="207pt"
 viewBox="0.00 0.00 298.00 207.00" xmlns="http://www.w3.org/2000/svg" xmlns:xlink="http://www.w3.org/1999/xlink">
<g id="graph0" class="graph" transform="scale(1 1) rotate(0) translate(4 203)">
<title>oneDegreeRelationshipsDiagram</title>
<polygon fill="#ffffff" stroke="transparent" points="-4,4 -4,-203 294,-203 294,4 -4,4"/>
<text text-anchor="middle" x="73.5" y="-7.2" font-family="Helvetica,sans-Serif" font-size="11.00">Generated by SchemaSpy</text>
<!-- swmm_vw_coordinates -->
<g id="node1" class="node">
<title>swmm_vw_coordinates</title>
<g id="a_node1"><a xlink:href="../../tables/swmm_vw_coordinates.html" xlink:title="swmm_vw_coordinates" target="_top">
<polygon fill="#ffffff" stroke="transparent" points="8,-37 8,-195 282,-195 282,-37 8,-37"/>
<polygon fill="#f5f5f5" stroke="transparent" points="10,-171 10,-193 280,-193 280,-171 10,-171"/>
<polygon fill="none" stroke="black" points="10,-171 10,-193 280,-193 280,-171 10,-171"/>
<text text-anchor="start" x="15" y="-180.2" font-family="Helvetica,sans-Serif" font-weight="bold" font-size="11.00">swmm_vw_coordinates</text>
<text text-anchor="start" x="244" y="-179.2" font-family="Helvetica,sans-Serif" font-size="11.00">[view]</text>
<polygon fill="none" stroke="black" points="10,-149 10,-171 168,-171 168,-149 10,-149"/>
<text text-anchor="start" x="30" y="-157.2" font-family="Helvetica,sans-Serif" font-size="11.00">node</text>
<polygon fill="none" stroke="black" points="168,-149 168,-171 280,-171 280,-149 168,-149"/>
<text text-anchor="start" x="171" y="-157.2" font-family="Helvetica,sans-Serif" font-size="11.00">varchar[2147483647]</text>
<polygon fill="none" stroke="black" points="10,-127 10,-149 168,-149 168,-127 10,-127"/>
<text text-anchor="start" x="30" y="-135.2" font-family="Helvetica,sans-Serif" font-size="11.00">x_coord</text>
<polygon fill="none" stroke="black" points="168,-127 168,-149 280,-149 280,-127 168,-127"/>
<text text-anchor="start" x="171" y="-135.2" font-family="Helvetica,sans-Serif" font-size="11.00">numeric[0]</text>
<polygon fill="none" stroke="black" points="10,-105 10,-127 168,-127 168,-105 10,-105"/>
<text text-anchor="start" x="30" y="-113.2" font-family="Helvetica,sans-Serif" font-size="11.00">y_coord</text>
<polygon fill="none" stroke="black" points="168,-105 168,-127 280,-127 280,-105 168,-105"/>
<text text-anchor="start" x="171" y="-113.2" font-family="Helvetica,sans-Serif" font-size="11.00">numeric[0]</text>
<polygon fill="none" stroke="black" points="10,-83 10,-105 168,-105 168,-83 10,-83"/>
<text text-anchor="start" x="30" y="-91.2" font-family="Helvetica,sans-Serif" font-size="11.00">state</text>
<polygon fill="none" stroke="black" points="168,-83 168,-105 280,-105 280,-83 168,-83"/>
<text text-anchor="start" x="171" y="-91.2" font-family="Helvetica,sans-Serif" font-size="11.00">text[2147483647]</text>
<polygon fill="none" stroke="black" points="10,-61 10,-83 168,-83 168,-61 10,-61"/>
<text text-anchor="start" x="30" y="-69.2" font-family="Helvetica,sans-Serif" font-size="11.00">hierarchy</text>
<polygon fill="none" stroke="black" points="168,-61 168,-83 280,-83 280,-61 168,-61"/>
<text text-anchor="start" x="171" y="-69.2" font-family="Helvetica,sans-Serif" font-size="11.00">text[2147483647]</text>
<polygon fill="none" stroke="black" points="10,-39 10,-61 168,-61 168,-39 10,-39"/>
<text text-anchor="start" x="30" y="-47.2" font-family="Helvetica,sans-Serif" font-size="11.00">obj_id</text>
<polygon fill="none" stroke="black" points="168,-39 168,-61 280,-61 280,-39 168,-39"/>
<text text-anchor="start" x="171" y="-47.2" font-family="Helvetica,sans-Serif" font-size="11.00">varchar[16]</text>
<polygon fill="none" stroke="black" stroke-width="2" points="9,-38 9,-194 281,-194 281,-38 9,-38"/>
</a>
</g>
</g>
</g>
</svg>
