<?xml version="1.0" encoding="UTF-8" standalone="no"?>
<!DOCTYPE svg PUBLIC "-//W3C//DTD SVG 1.1//EN"
 "http://www.w3.org/Graphics/SVG/1.1/DTD/svg11.dtd">
<!-- Generated by graphviz version 2.47.1 (20210515.0534)
 -->
<!-- Title: oneDegreeRelationshipsDiagram Pages: 1 -->
<svg width="269pt" height="163pt"
 viewBox="0.00 0.00 269.00 163.00" xmlns="http://www.w3.org/2000/svg" xmlns:xlink="http://www.w3.org/1999/xlink">
<g id="graph0" class="graph" transform="scale(1 1) rotate(0) translate(4 159)">
<title>oneDegreeRelationshipsDiagram</title>
<polygon fill="#ffffff" stroke="transparent" points="-4,4 -4,-159 265,-159 265,4 -4,4"/>
<text text-anchor="middle" x="73.5" y="-7.2" font-family="Helvetica,sans-Serif" font-size="11.00">Generated by SchemaSpy</text>
<!-- swmm_vw_coverages -->
<g id="node1" class="node">
<title>swmm_vw_coverages</title>
<g id="a_node1"><a xlink:href="../../tables/swmm_vw_coverages.html" xlink:title="swmm_vw_coverages" target="_top">
<polygon fill="#ffffff" stroke="transparent" points="8,-37 8,-151 253,-151 253,-37 8,-37"/>
<polygon fill="#f5f5f5" stroke="transparent" points="10.5,-127 10.5,-149 251.5,-149 251.5,-127 10.5,-127"/>
<polygon fill="none" stroke="black" points="10.5,-127 10.5,-149 251.5,-149 251.5,-127 10.5,-127"/>
<text text-anchor="start" x="15.5" y="-136.2" font-family="Helvetica,sans-Serif" font-weight="bold" font-size="11.00">swmm_vw_coverages</text>
<text text-anchor="start" x="215.5" y="-135.2" font-family="Helvetica,sans-Serif" font-size="11.00">[view]</text>
<polygon fill="none" stroke="black" points="10.5,-105 10.5,-127 157.5,-127 157.5,-105 10.5,-105"/>
<text text-anchor="start" x="30.5" y="-113.2" font-family="Helvetica,sans-Serif" font-size="11.00">subcatchment</text>
<polygon fill="none" stroke="black" points="157.5,-105 157.5,-127 251.5,-127 251.5,-105 157.5,-105"/>
<text text-anchor="start" x="160.5" y="-113.2" font-family="Helvetica,sans-Serif" font-size="11.00">text[2147483647]</text>
<polygon fill="none" stroke="black" points="10.5,-83 10.5,-105 157.5,-105 157.5,-83 10.5,-83"/>
<text text-anchor="start" x="30.5" y="-91.2" font-family="Helvetica,sans-Serif" font-size="11.00">landuse</text>
<polygon fill="none" stroke="black" points="157.5,-83 157.5,-105 251.5,-105 251.5,-83 157.5,-83"/>
<text text-anchor="start" x="160.5" y="-91.2" font-family="Helvetica,sans-Serif" font-size="11.00">varchar[100]</text>
<polygon fill="none" stroke="black" points="10.5,-61 10.5,-83 157.5,-83 157.5,-61 10.5,-61"/>
<text text-anchor="start" x="30.5" y="-69.2" font-family="Helvetica,sans-Serif" font-size="11.00">percent</text>
<polygon fill="none" stroke="black" points="157.5,-61 157.5,-83 251.5,-83 251.5,-61 157.5,-61"/>
<text text-anchor="start" x="160.5" y="-69.2" font-family="Helvetica,sans-Serif" font-size="11.00">numeric[0]</text>
<polygon fill="none" stroke="black" points="10.5,-39 10.5,-61 157.5,-61 157.5,-39 10.5,-39"/>
<text text-anchor="start" x="30.5" y="-47.2" font-family="Helvetica,sans-Serif" font-size="11.00">obj_id</text>
<polygon fill="none" stroke="black" points="157.5,-39 157.5,-61 251.5,-61 251.5,-39 157.5,-39"/>
<text text-anchor="start" x="160.5" y="-47.2" font-family="Helvetica,sans-Serif" font-size="11.00">varchar[16]</text>
<polygon fill="none" stroke="black" stroke-width="2" points="9,-38 9,-150 252,-150 252,-38 9,-38"/>
</a>
</g>
</g>
</g>
</svg>
