<?xml version="1.0" encoding="UTF-8" standalone="no"?>
<!DOCTYPE svg PUBLIC "-//W3C//DTD SVG 1.1//EN"
 "http://www.w3.org/Graphics/SVG/1.1/DTD/svg11.dtd">
<!-- Generated by graphviz version 2.43.0 (0)
 -->
<!-- Title: oneDegreeRelationshipsDiagram Pages: 1 -->
<svg width="338pt" height="273pt"
 viewBox="0.00 0.00 338.00 273.00" xmlns="http://www.w3.org/2000/svg" xmlns:xlink="http://www.w3.org/1999/xlink">
<g id="graph0" class="graph" transform="scale(1 1) rotate(0) translate(4 269)">
<title>oneDegreeRelationshipsDiagram</title>
<polygon fill="#ffffff" stroke="transparent" points="-4,4 -4,-269 334,-269 334,4 -4,4"/>
<text text-anchor="middle" x="79.5" y="-7.2" font-family="Helvetica,sans-Serif" font-size="11.00">Generated by SchemaSpy</text>
<!-- swmm_vw_raingages -->
<g id="node1" class="node">
<title>swmm_vw_raingages</title>
<g id="a_node1"><a xlink:href="../../tables/swmm_vw_raingages.html" xlink:title="swmm_vw_raingages" target="_top">
<polygon fill="#ffffff" stroke="transparent" points="8,-37 8,-261 322,-261 322,-37 8,-37"/>
<polygon fill="#f5f5f5" stroke="transparent" points="10,-237 10,-259 320,-259 320,-237 10,-237"/>
<polygon fill="none" stroke="black" points="10,-237 10,-259 320,-259 320,-237 10,-237"/>
<text text-anchor="start" x="15" y="-246.2" font-family="Helvetica,sans-Serif" font-weight="bold" font-size="11.00">swmm_vw_raingages</text>
<text text-anchor="start" x="280" y="-245.2" font-family="Helvetica,sans-Serif" font-size="11.00">[view]</text>
<polygon fill="none" stroke="black" points="10,-215 10,-237 184,-237 184,-215 10,-215"/>
<text text-anchor="start" x="30" y="-223.2" font-family="Helvetica,sans-Serif" font-size="11.00">name</text>
<polygon fill="none" stroke="black" points="184,-215 184,-237 320,-237 320,-215 184,-215"/>
<text text-anchor="start" x="187" y="-223.2" font-family="Helvetica,sans-Serif" font-size="11.00">varchar[2147483647]</text>
<polygon fill="none" stroke="black" points="10,-193 10,-215 184,-215 184,-193 10,-193"/>
<text text-anchor="start" x="30" y="-201.2" font-family="Helvetica,sans-Serif" font-size="11.00">format</text>
<polygon fill="none" stroke="black" points="184,-193 184,-215 320,-215 320,-193 184,-193"/>
<text text-anchor="start" x="187" y="-201.2" font-family="Helvetica,sans-Serif" font-size="11.00">varchar[2147483647]</text>
<polygon fill="none" stroke="black" points="10,-171 10,-193 184,-193 184,-171 10,-171"/>
<text text-anchor="start" x="30" y="-179.2" font-family="Helvetica,sans-Serif" font-size="11.00">interval</text>
<polygon fill="none" stroke="black" points="184,-171 184,-193 320,-193 320,-171 184,-171"/>
<text text-anchor="start" x="187" y="-179.2" font-family="Helvetica,sans-Serif" font-size="11.00">varchar[2147483647]</text>
<polygon fill="none" stroke="black" points="10,-149 10,-171 184,-171 184,-149 10,-149"/>
<text text-anchor="start" x="30" y="-157.2" font-family="Helvetica,sans-Serif" font-size="11.00">scf</text>
<polygon fill="none" stroke="black" points="184,-149 184,-171 320,-171 320,-149 184,-149"/>
<text text-anchor="start" x="187" y="-157.2" font-family="Helvetica,sans-Serif" font-size="11.00">varchar[2147483647]</text>
<polygon fill="none" stroke="black" points="10,-127 10,-149 184,-149 184,-127 10,-127"/>
<text text-anchor="start" x="30" y="-135.2" font-family="Helvetica,sans-Serif" font-size="11.00">source</text>
<polygon fill="none" stroke="black" points="184,-127 184,-149 320,-149 320,-127 184,-127"/>
<text text-anchor="start" x="187" y="-135.2" font-family="Helvetica,sans-Serif" font-size="11.00">varchar[2147483647]</text>
<polygon fill="none" stroke="black" points="10,-105 10,-127 184,-127 184,-105 10,-105"/>
<text text-anchor="start" x="30" y="-113.2" font-family="Helvetica,sans-Serif" font-size="11.00">geom</text>
<polygon fill="none" stroke="black" points="184,-105 184,-127 320,-127 320,-105 184,-105"/>
<text text-anchor="start" x="187" y="-113.2" font-family="Helvetica,sans-Serif" font-size="11.00">geometry[2147483647]</text>
<polygon fill="none" stroke="black" points="10,-83 10,-105 184,-105 184,-83 10,-83"/>
<text text-anchor="start" x="30" y="-91.2" font-family="Helvetica,sans-Serif" font-size="11.00">state</text>
<polygon fill="none" stroke="black" points="184,-83 184,-105 320,-105 320,-83 184,-83"/>
<text text-anchor="start" x="187" y="-91.2" font-family="Helvetica,sans-Serif" font-size="11.00">text[2147483647]</text>
<polygon fill="none" stroke="black" points="10,-61 10,-83 184,-83 184,-61 10,-61"/>
<text text-anchor="start" x="30" y="-69.2" font-family="Helvetica,sans-Serif" font-size="11.00">hierarchy</text>
<polygon fill="none" stroke="black" points="184,-61 184,-83 320,-83 320,-61 184,-61"/>
<text text-anchor="start" x="187" y="-69.2" font-family="Helvetica,sans-Serif" font-size="11.00">text[2147483647]</text>
<polygon fill="none" stroke="black" points="10,-39 10,-61 184,-61 184,-39 10,-39"/>
<text text-anchor="start" x="30" y="-47.2" font-family="Helvetica,sans-Serif" font-size="11.00">obj_id</text>
<polygon fill="none" stroke="black" points="184,-39 184,-61 320,-61 320,-39 184,-39"/>
<text text-anchor="start" x="187" y="-47.2" font-family="Helvetica,sans-Serif" font-size="11.00">varchar[16]</text>
<polygon fill="none" stroke="black" stroke-width="2" points="9,-38 9,-260 321,-260 321,-38 9,-38"/>
</a>
</g>
</g>
</g>
</svg>
