<?xml version="1.0" encoding="UTF-8" standalone="no"?>
<!DOCTYPE svg PUBLIC "-//W3C//DTD SVG 1.1//EN"
 "http://www.w3.org/Graphics/SVG/1.1/DTD/svg11.dtd">
<!-- Generated by graphviz version 2.47.1 (20210515.0534)
 -->
<!-- Title: oneDegreeRelationshipsDiagram Pages: 1 -->
<svg width="239pt" height="163pt"
 viewBox="0.00 0.00 239.00 163.00" xmlns="http://www.w3.org/2000/svg" xmlns:xlink="http://www.w3.org/1999/xlink">
<g id="graph0" class="graph" transform="scale(1 1) rotate(0) translate(4 159)">
<title>oneDegreeRelationshipsDiagram</title>
<polygon fill="#ffffff" stroke="transparent" points="-4,4 -4,-159 235,-159 235,4 -4,4"/>
<text text-anchor="middle" x="73.5" y="-7.2" font-family="Helvetica,sans-Serif" font-size="11.00">Generated by SchemaSpy</text>
<!-- swmm_vw_landuses -->
<g id="node1" class="node">
<title>swmm_vw_landuses</title>
<g id="a_node1"><a xlink:href="../../tables/swmm_vw_landuses.html" xlink:title="swmm_vw_landuses" target="_top">
<polygon fill="#ffffff" stroke="transparent" points="8,-37 8,-151 223,-151 223,-37 8,-37"/>
<polygon fill="#f5f5f5" stroke="transparent" points="10.5,-127 10.5,-149 221.5,-149 221.5,-127 10.5,-127"/>
<polygon fill="none" stroke="black" points="10.5,-127 10.5,-149 221.5,-149 221.5,-127 10.5,-127"/>
<text text-anchor="start" x="15.5" y="-136.2" font-family="Helvetica,sans-Serif" font-weight="bold" font-size="11.00">swmm_vw_landuses</text>
<text text-anchor="start" x="185.5" y="-135.2" font-family="Helvetica,sans-Serif" font-size="11.00">[view]</text>
<polygon fill="none" stroke="black" points="10.5,-105 10.5,-127 151.5,-127 151.5,-105 10.5,-105"/>
<text text-anchor="start" x="30.5" y="-113.2" font-family="Helvetica,sans-Serif" font-size="11.00">name</text>
<polygon fill="none" stroke="black" points="151.5,-105 151.5,-127 221.5,-127 221.5,-105 151.5,-105"/>
<text text-anchor="start" x="154.5" y="-113.2" font-family="Helvetica,sans-Serif" font-size="11.00">varchar[100]</text>
<polygon fill="none" stroke="black" points="10.5,-83 10.5,-105 151.5,-105 151.5,-83 10.5,-83"/>
<text text-anchor="start" x="30.5" y="-91.2" font-family="Helvetica,sans-Serif" font-size="11.00">sweepinginterval</text>
<polygon fill="none" stroke="black" points="151.5,-83 151.5,-105 221.5,-105 221.5,-83 151.5,-83"/>
<text text-anchor="start" x="154.5" y="-91.2" font-family="Helvetica,sans-Serif" font-size="11.00">int4[10]</text>
<polygon fill="none" stroke="black" points="10.5,-61 10.5,-83 151.5,-83 151.5,-61 10.5,-61"/>
<text text-anchor="start" x="30.5" y="-69.2" font-family="Helvetica,sans-Serif" font-size="11.00">fractionavailable</text>
<polygon fill="none" stroke="black" points="151.5,-61 151.5,-83 221.5,-83 221.5,-61 151.5,-61"/>
<text text-anchor="start" x="154.5" y="-69.2" font-family="Helvetica,sans-Serif" font-size="11.00">int4[10]</text>
<polygon fill="none" stroke="black" points="10.5,-39 10.5,-61 151.5,-61 151.5,-39 10.5,-39"/>
<text text-anchor="start" x="30.5" y="-47.2" font-family="Helvetica,sans-Serif" font-size="11.00">lastswept</text>
<polygon fill="none" stroke="black" points="151.5,-39 151.5,-61 221.5,-61 221.5,-39 151.5,-39"/>
<text text-anchor="start" x="154.5" y="-47.2" font-family="Helvetica,sans-Serif" font-size="11.00">int4[10]</text>
<polygon fill="none" stroke="black" stroke-width="2" points="9,-38 9,-150 222,-150 222,-38 9,-38"/>
</a>
</g>
</g>
</g>
</svg>
