<?xml version="1.0" encoding="UTF-8" standalone="no"?>
<!DOCTYPE svg PUBLIC "-//W3C//DTD SVG 1.1//EN"
 "http://www.w3.org/Graphics/SVG/1.1/DTD/svg11.dtd">
<!-- Generated by graphviz version 2.47.1 (20210515.0534)
 -->
<!-- Title: oneDegreeRelationshipsDiagram Pages: 1 -->
<svg width="297pt" height="185pt"
 viewBox="0.00 0.00 297.00 185.00" xmlns="http://www.w3.org/2000/svg" xmlns:xlink="http://www.w3.org/1999/xlink">
<g id="graph0" class="graph" transform="scale(1 1) rotate(0) translate(4 181)">
<title>oneDegreeRelationshipsDiagram</title>
<polygon fill="#ffffff" stroke="transparent" points="-4,4 -4,-181 293,-181 293,4 -4,4"/>
<text text-anchor="middle" x="73.5" y="-7.2" font-family="Helvetica,sans-Serif" font-size="11.00">Generated by SchemaSpy</text>
<!-- vw_catchment_area_additional -->
<g id="node1" class="node">
<title>vw_catchment_area_additional</title>
<g id="a_node1"><a xlink:href="../../tables/vw_catchment_area_additional.html" xlink:title="vw_catchment_area_additional" target="_top">
<polygon fill="#ffffff" stroke="transparent" points="8,-37 8,-173 281,-173 281,-37 8,-37"/>
<polygon fill="#f5f5f5" stroke="transparent" points="10.5,-149 10.5,-171 279.5,-171 279.5,-149 10.5,-149"/>
<polygon fill="none" stroke="black" points="10.5,-149 10.5,-171 279.5,-171 279.5,-149 10.5,-149"/>
<text text-anchor="start" x="15.5" y="-158.2" font-family="Helvetica,sans-Serif" font-weight="bold" font-size="11.00">vw_catchment_area_additional</text>
<text text-anchor="start" x="243.5" y="-157.2" font-family="Helvetica,sans-Serif" font-size="11.00">[view]</text>
<polygon fill="none" stroke="black" points="10.5,-127 10.5,-149 215.5,-149 215.5,-127 10.5,-127"/>
<text text-anchor="start" x="30.5" y="-135.2" font-family="Helvetica,sans-Serif" font-size="11.00">obj_id</text>
<polygon fill="none" stroke="black" points="215.5,-127 215.5,-149 279.5,-149 279.5,-127 215.5,-127"/>
<text text-anchor="start" x="218.5" y="-135.2" font-family="Helvetica,sans-Serif" font-size="11.00">varchar[16]</text>
<polygon fill="none" stroke="black" points="10.5,-105 10.5,-127 215.5,-127 215.5,-105 10.5,-105"/>
<text text-anchor="start" x="30.5" y="-113.2" font-family="Helvetica,sans-Serif" font-size="11.00">current_ww_is_rw</text>
<polygon fill="none" stroke="black" points="215.5,-105 215.5,-127 279.5,-127 279.5,-105 215.5,-105"/>
<text text-anchor="start" x="218.5" y="-113.2" font-family="Helvetica,sans-Serif" font-size="11.00">bool[1]</text>
<polygon fill="none" stroke="black" points="10.5,-83 10.5,-105 215.5,-105 215.5,-83 10.5,-83"/>
<text text-anchor="start" x="30.5" y="-91.2" font-family="Helvetica,sans-Serif" font-size="11.00">planned_ww_is_rw</text>
<polygon fill="none" stroke="black" points="215.5,-83 215.5,-105 279.5,-105 279.5,-83 215.5,-83"/>
<text text-anchor="start" x="218.5" y="-91.2" font-family="Helvetica,sans-Serif" font-size="11.00">bool[1]</text>
<polygon fill="none" stroke="black" points="10.5,-61 10.5,-83 215.5,-83 215.5,-61 10.5,-61"/>
<text text-anchor="start" x="30.5" y="-69.2" font-family="Helvetica,sans-Serif" font-size="11.00">ww_planned_is_current</text>
<polygon fill="none" stroke="black" points="215.5,-61 215.5,-83 279.5,-83 279.5,-61 215.5,-61"/>
<text text-anchor="start" x="218.5" y="-69.2" font-family="Helvetica,sans-Serif" font-size="11.00">bool[1]</text>
<polygon fill="none" stroke="black" points="10.5,-39 10.5,-61 215.5,-61 215.5,-39 10.5,-39"/>
<text text-anchor="start" x="30.5" y="-47.2" font-family="Helvetica,sans-Serif" font-size="11.00">rw_planned_is_current</text>
<polygon fill="none" stroke="black" points="215.5,-39 215.5,-61 279.5,-61 279.5,-39 215.5,-39"/>
<text text-anchor="start" x="218.5" y="-47.2" font-family="Helvetica,sans-Serif" font-size="11.00">bool[1]</text>
<polygon fill="none" stroke="black" stroke-width="2" points="9,-38 9,-172 280,-172 280,-38 9,-38"/>
</a>
</g>
</g>
</g>
</svg>
