<?xml version="1.0" encoding="UTF-8" standalone="no"?>
<!DOCTYPE svg PUBLIC "-//W3C//DTD SVG 1.1//EN"
 "http://www.w3.org/Graphics/SVG/1.1/DTD/svg11.dtd">
<!-- Generated by graphviz version 2.47.1 (20210515.0534)
 -->
<!-- Title: oneDegreeRelationshipsDiagram Pages: 1 -->
<svg width="376pt" height="141pt"
 viewBox="0.00 0.00 376.00 141.00" xmlns="http://www.w3.org/2000/svg" xmlns:xlink="http://www.w3.org/1999/xlink">
<g id="graph0" class="graph" transform="scale(1 1) rotate(0) translate(4 137)">
<title>oneDegreeRelationshipsDiagram</title>
<polygon fill="#ffffff" stroke="transparent" points="-4,4 -4,-137 372,-137 372,4 -4,4"/>
<text text-anchor="middle" x="73.5" y="-7.2" font-family="Helvetica,sans-Serif" font-size="11.00">Generated by SchemaSpy</text>
<!-- vw_catchment_area_connections -->
<g id="node1" class="node">
<title>vw_catchment_area_connections</title>
<g id="a_node1"><a xlink:href="../../tables/vw_catchment_area_connections.html" xlink:title="vw_catchment_area_connections" target="_top">
<polygon fill="#ffffff" stroke="transparent" points="8,-37 8,-129 360,-129 360,-37 8,-37"/>
<polygon fill="#f5f5f5" stroke="transparent" points="10,-105 10,-127 358,-127 358,-105 10,-105"/>
<polygon fill="none" stroke="black" points="10,-105 10,-127 358,-127 358,-105 10,-105"/>
<text text-anchor="start" x="15" y="-114.2" font-family="Helvetica,sans-Serif" font-weight="bold" font-size="11.00">vw_catchment_area_connections</text>
<text text-anchor="start" x="322" y="-113.2" font-family="Helvetica,sans-Serif" font-size="11.00">[view]</text>
<polygon fill="none" stroke="black" points="10,-83 10,-105 235,-105 235,-83 10,-83"/>
<text text-anchor="start" x="30" y="-91.2" font-family="Helvetica,sans-Serif" font-size="11.00">obj_id</text>
<polygon fill="none" stroke="black" points="235,-83 235,-105 358,-105 358,-83 235,-83"/>
<text text-anchor="start" x="238" y="-91.2" font-family="Helvetica,sans-Serif" font-size="11.00">varchar[16]</text>
<polygon fill="none" stroke="black" points="10,-61 10,-83 235,-83 235,-61 10,-61"/>
<text text-anchor="start" x="30" y="-69.2" font-family="Helvetica,sans-Serif" font-size="11.00">connection_rw_current_geometry</text>
<polygon fill="none" stroke="black" points="235,-61 235,-83 358,-83 358,-61 235,-61"/>
<text text-anchor="start" x="238" y="-69.2" font-family="Helvetica,sans-Serif" font-size="11.00">geometry[2147483647]</text>
<polygon fill="none" stroke="black" points="10,-39 10,-61 235,-61 235,-39 10,-39"/>
<text text-anchor="start" x="30" y="-47.2" font-family="Helvetica,sans-Serif" font-size="11.00">connection_ww_current_geometry</text>
<polygon fill="none" stroke="black" points="235,-39 235,-61 358,-61 358,-39 235,-39"/>
<text text-anchor="start" x="238" y="-47.2" font-family="Helvetica,sans-Serif" font-size="11.00">geometry[2147483647]</text>
<polygon fill="none" stroke="black" stroke-width="2" points="9,-38 9,-128 359,-128 359,-38 9,-38"/>
</a>
</g>
</g>
</g>
</svg>
