<?xml version="1.0" encoding="UTF-8" standalone="no"?>
<!DOCTYPE svg PUBLIC "-//W3C//DTD SVG 1.1//EN"
 "http://www.w3.org/Graphics/SVG/1.1/DTD/svg11.dtd">
<!-- Generated by graphviz version 2.43.0 (0)
 -->
<!-- Title: oneDegreeRelationshipsDiagram Pages: 1 -->
<svg width="353pt" height="273pt"
 viewBox="0.00 0.00 353.00 273.00" xmlns="http://www.w3.org/2000/svg" xmlns:xlink="http://www.w3.org/1999/xlink">
<g id="graph0" class="graph" transform="scale(1 1) rotate(0) translate(4 269)">
<title>oneDegreeRelationshipsDiagram</title>
<polygon fill="#ffffff" stroke="transparent" points="-4,4 -4,-269 349,-269 349,4 -4,4"/>
<text text-anchor="middle" x="79.5" y="-7.2" font-family="Helvetica,sans-Serif" font-size="11.00">Generated by SchemaSpy</text>
<!-- vw_dryweather_downspout -->
<g id="node1" class="node">
<title>vw_dryweather_downspout</title>
<g id="a_node1"><a xlink:href="../../tables/vw_dryweather_downspout.html" xlink:title="vw_dryweather_downspout" target="_top">
<polygon fill="#ffffff" stroke="transparent" points="8,-37 8,-261 337,-261 337,-37 8,-37"/>
<polygon fill="#f5f5f5" stroke="transparent" points="10.5,-237 10.5,-259 335.5,-259 335.5,-237 10.5,-237"/>
<polygon fill="none" stroke="black" points="10.5,-237 10.5,-259 335.5,-259 335.5,-237 10.5,-237"/>
<text text-anchor="start" x="15.5" y="-246.2" font-family="Helvetica,sans-Serif" font-weight="bold" font-size="11.00">vw_dryweather_downspout</text>
<text text-anchor="start" x="295.5" y="-245.2" font-family="Helvetica,sans-Serif" font-size="11.00">[view]</text>
<polygon fill="none" stroke="black" points="10.5,-215 10.5,-237 229.5,-237 229.5,-215 10.5,-215"/>
<text text-anchor="start" x="30.5" y="-223.2" font-family="Helvetica,sans-Serif" font-size="11.00">obj_id</text>
<polygon fill="none" stroke="black" points="229.5,-215 229.5,-237 335.5,-237 335.5,-215 229.5,-215"/>
<text text-anchor="start" x="232.5" y="-223.2" font-family="Helvetica,sans-Serif" font-size="11.00">varchar[16]</text>
<polygon fill="none" stroke="black" points="10.5,-193 10.5,-215 229.5,-215 229.5,-193 10.5,-193"/>
<text text-anchor="start" x="30.5" y="-201.2" font-family="Helvetica,sans-Serif" font-size="11.00">diameter</text>
<polygon fill="none" stroke="black" points="229.5,-193 229.5,-215 335.5,-215 335.5,-193 229.5,-193"/>
<text text-anchor="start" x="232.5" y="-201.2" font-family="Helvetica,sans-Serif" font-size="11.00">int2[5]</text>
<polygon fill="none" stroke="black" points="10.5,-171 10.5,-193 229.5,-193 229.5,-171 10.5,-171"/>
<text text-anchor="start" x="30.5" y="-179.2" font-family="Helvetica,sans-Serif" font-size="11.00">fk_dataowner</text>
<polygon fill="none" stroke="black" points="229.5,-171 229.5,-193 335.5,-193 335.5,-171 229.5,-171"/>
<text text-anchor="start" x="232.5" y="-179.2" font-family="Helvetica,sans-Serif" font-size="11.00">varchar[16]</text>
<polygon fill="none" stroke="black" points="10.5,-149 10.5,-171 229.5,-171 229.5,-149 10.5,-149"/>
<text text-anchor="start" x="30.5" y="-157.2" font-family="Helvetica,sans-Serif" font-size="11.00">fk_provider</text>
<polygon fill="none" stroke="black" points="229.5,-149 229.5,-171 335.5,-171 335.5,-149 229.5,-149"/>
<text text-anchor="start" x="232.5" y="-157.2" font-family="Helvetica,sans-Serif" font-size="11.00">varchar[16]</text>
<polygon fill="none" stroke="black" points="10.5,-127 10.5,-149 229.5,-149 229.5,-127 10.5,-127"/>
<text text-anchor="start" x="30.5" y="-135.2" font-family="Helvetica,sans-Serif" font-size="11.00">fk_wastewater_structure</text>
<polygon fill="none" stroke="black" points="229.5,-127 229.5,-149 335.5,-149 335.5,-127 229.5,-127"/>
<text text-anchor="start" x="232.5" y="-135.2" font-family="Helvetica,sans-Serif" font-size="11.00">varchar[16]</text>
<polygon fill="none" stroke="black" points="10.5,-105 10.5,-127 229.5,-127 229.5,-105 10.5,-105"/>
<text text-anchor="start" x="30.5" y="-113.2" font-family="Helvetica,sans-Serif" font-size="11.00">identifier</text>
<polygon fill="none" stroke="black" points="229.5,-105 229.5,-127 335.5,-127 335.5,-105 229.5,-105"/>
<text text-anchor="start" x="232.5" y="-113.2" font-family="Helvetica,sans-Serif" font-size="11.00">text[2147483647]</text>
<polygon fill="none" stroke="black" points="10.5,-83 10.5,-105 229.5,-105 229.5,-83 10.5,-83"/>
<text text-anchor="start" x="30.5" y="-91.2" font-family="Helvetica,sans-Serif" font-size="11.00">last_modification</text>
<polygon fill="none" stroke="black" points="229.5,-83 229.5,-105 335.5,-105 335.5,-83 229.5,-83"/>
<text text-anchor="start" x="232.5" y="-91.2" font-family="Helvetica,sans-Serif" font-size="11.00">timestamp[29,6]</text>
<polygon fill="none" stroke="black" points="10.5,-61 10.5,-83 229.5,-83 229.5,-61 10.5,-61"/>
<text text-anchor="start" x="30.5" y="-69.2" font-family="Helvetica,sans-Serif" font-size="11.00">remark</text>
<polygon fill="none" stroke="black" points="229.5,-61 229.5,-83 335.5,-83 335.5,-61 229.5,-61"/>
<text text-anchor="start" x="232.5" y="-69.2" font-family="Helvetica,sans-Serif" font-size="11.00">text[2147483647]</text>
<polygon fill="none" stroke="black" points="10.5,-39 10.5,-61 229.5,-61 229.5,-39 10.5,-39"/>
<text text-anchor="start" x="30.5" y="-47.2" font-family="Helvetica,sans-Serif" font-size="11.00">renovation_demand</text>
<polygon fill="none" stroke="black" points="229.5,-39 229.5,-61 335.5,-61 335.5,-39 229.5,-39"/>
<text text-anchor="start" x="232.5" y="-47.2" font-family="Helvetica,sans-Serif" font-size="11.00">int4[10]</text>
<polygon fill="none" stroke="black" stroke-width="2" points="9,-38 9,-260 336,-260 336,-38 9,-38"/>
</a>
</g>
</g>
</g>
</svg>
