<?xml version="1.0" encoding="UTF-8" standalone="no"?>
<!DOCTYPE svg PUBLIC "-//W3C//DTD SVG 1.1//EN"
 "http://www.w3.org/Graphics/SVG/1.1/DTD/svg11.dtd">
<!-- Generated by graphviz version 2.47.1 (20210515.0534)
 -->
<!-- Title: oneDegreeRelationshipsDiagram Pages: 1 -->
<svg width="278pt" height="647pt"
 viewBox="0.00 0.00 278.00 647.00" xmlns="http://www.w3.org/2000/svg" xmlns:xlink="http://www.w3.org/1999/xlink">
<g id="graph0" class="graph" transform="scale(1 1) rotate(0) translate(4 643)">
<title>oneDegreeRelationshipsDiagram</title>
<polygon fill="#ffffff" stroke="transparent" points="-4,4 -4,-643 274,-643 274,4 -4,4"/>
<text text-anchor="middle" x="73.5" y="-7.2" font-family="Helvetica,sans-Serif" font-size="11.00">Generated by SchemaSpy</text>
<!-- vw_examination -->
<g id="node1" class="node">
<title>vw_examination</title>
<g id="a_node1"><a xlink:href="../../tables/vw_examination.html" xlink:title="vw_examination" target="_top">
<polygon fill="#ffffff" stroke="transparent" points="8,-37 8,-635 262,-635 262,-37 8,-37"/>
<polygon fill="#f5f5f5" stroke="transparent" points="10,-611 10,-633 260,-633 260,-611 10,-611"/>
<polygon fill="none" stroke="black" points="10,-611 10,-633 260,-633 260,-611 10,-611"/>
<text text-anchor="start" x="15" y="-620.2" font-family="Helvetica,sans-Serif" font-weight="bold" font-size="11.00">vw_examination</text>
<text text-anchor="start" x="224" y="-619.2" font-family="Helvetica,sans-Serif" font-size="11.00">[view]</text>
<polygon fill="none" stroke="black" points="10,-589 10,-611 166,-611 166,-589 10,-589"/>
<text text-anchor="start" x="30" y="-597.2" font-family="Helvetica,sans-Serif" font-size="11.00">obj_id</text>
<polygon fill="none" stroke="black" points="166,-589 166,-611 260,-611 260,-589 166,-589"/>
<text text-anchor="start" x="169" y="-597.2" font-family="Helvetica,sans-Serif" font-size="11.00">varchar[16]</text>
<polygon fill="none" stroke="black" points="10,-567 10,-589 166,-589 166,-567 10,-567"/>
<text text-anchor="start" x="30" y="-575.2" font-family="Helvetica,sans-Serif" font-size="11.00">equipment</text>
<polygon fill="none" stroke="black" points="166,-567 166,-589 260,-589 260,-567 166,-567"/>
<text text-anchor="start" x="169" y="-575.2" font-family="Helvetica,sans-Serif" font-size="11.00">text[2147483647]</text>
<polygon fill="none" stroke="black" points="10,-545 10,-567 166,-567 166,-545 10,-545"/>
<text text-anchor="start" x="30" y="-553.2" font-family="Helvetica,sans-Serif" font-size="11.00">fk_reach_point</text>
<polygon fill="none" stroke="black" points="166,-545 166,-567 260,-567 260,-545 166,-545"/>
<text text-anchor="start" x="169" y="-553.2" font-family="Helvetica,sans-Serif" font-size="11.00">varchar[16]</text>
<polygon fill="none" stroke="black" points="10,-523 10,-545 166,-545 166,-523 10,-523"/>
<text text-anchor="start" x="30" y="-531.2" font-family="Helvetica,sans-Serif" font-size="11.00">from_point_identifier</text>
<polygon fill="none" stroke="black" points="166,-523 166,-545 260,-545 260,-523 166,-523"/>
<text text-anchor="start" x="169" y="-531.2" font-family="Helvetica,sans-Serif" font-size="11.00">text[2147483647]</text>
<polygon fill="none" stroke="black" points="10,-501 10,-523 166,-523 166,-501 10,-501"/>
<text text-anchor="start" x="30" y="-509.2" font-family="Helvetica,sans-Serif" font-size="11.00">inspected_length</text>
<polygon fill="none" stroke="black" points="166,-501 166,-523 260,-523 260,-501 166,-501"/>
<text text-anchor="start" x="169" y="-509.2" font-family="Helvetica,sans-Serif" font-size="11.00">numeric[7,2]</text>
<polygon fill="none" stroke="black" points="10,-479 10,-501 166,-501 166,-479 10,-479"/>
<text text-anchor="start" x="30" y="-487.2" font-family="Helvetica,sans-Serif" font-size="11.00">recording_type</text>
<polygon fill="none" stroke="black" points="166,-479 166,-501 260,-501 260,-479 166,-479"/>
<text text-anchor="start" x="169" y="-487.2" font-family="Helvetica,sans-Serif" font-size="11.00">int4[10]</text>
<polygon fill="none" stroke="black" points="10,-457 10,-479 166,-479 166,-457 10,-457"/>
<text text-anchor="start" x="30" y="-465.2" font-family="Helvetica,sans-Serif" font-size="11.00">to_point_identifier</text>
<polygon fill="none" stroke="black" points="166,-457 166,-479 260,-479 260,-457 166,-457"/>
<text text-anchor="start" x="169" y="-465.2" font-family="Helvetica,sans-Serif" font-size="11.00">text[2147483647]</text>
<polygon fill="none" stroke="black" points="10,-435 10,-457 166,-457 166,-435 10,-435"/>
<text text-anchor="start" x="30" y="-443.2" font-family="Helvetica,sans-Serif" font-size="11.00">vehicle</text>
<polygon fill="none" stroke="black" points="166,-435 166,-457 260,-457 260,-435 166,-435"/>
<text text-anchor="start" x="169" y="-443.2" font-family="Helvetica,sans-Serif" font-size="11.00">text[2147483647]</text>
<polygon fill="none" stroke="black" points="10,-413 10,-435 166,-435 166,-413 10,-413"/>
<text text-anchor="start" x="30" y="-421.2" font-family="Helvetica,sans-Serif" font-size="11.00">videonumber</text>
<polygon fill="none" stroke="black" points="166,-413 166,-435 260,-435 260,-413 166,-413"/>
<text text-anchor="start" x="169" y="-421.2" font-family="Helvetica,sans-Serif" font-size="11.00">text[2147483647]</text>
<polygon fill="none" stroke="black" points="10,-391 10,-413 166,-413 166,-391 10,-391"/>
<text text-anchor="start" x="30" y="-399.2" font-family="Helvetica,sans-Serif" font-size="11.00">weather</text>
<polygon fill="none" stroke="black" points="166,-391 166,-413 260,-413 260,-391 166,-391"/>
<text text-anchor="start" x="169" y="-399.2" font-family="Helvetica,sans-Serif" font-size="11.00">int4[10]</text>
<polygon fill="none" stroke="black" points="10,-369 10,-391 166,-391 166,-369 10,-369"/>
<text text-anchor="start" x="30" y="-377.2" font-family="Helvetica,sans-Serif" font-size="11.00">base_data</text>
<polygon fill="none" stroke="black" points="166,-369 166,-391 260,-391 260,-369 166,-369"/>
<text text-anchor="start" x="169" y="-377.2" font-family="Helvetica,sans-Serif" font-size="11.00">text[2147483647]</text>
<polygon fill="none" stroke="black" points="10,-347 10,-369 166,-369 166,-347 10,-347"/>
<text text-anchor="start" x="30" y="-355.2" font-family="Helvetica,sans-Serif" font-size="11.00">cost</text>
<polygon fill="none" stroke="black" points="166,-347 166,-369 260,-369 260,-347 166,-347"/>
<text text-anchor="start" x="169" y="-355.2" font-family="Helvetica,sans-Serif" font-size="11.00">numeric[10,2]</text>
<polygon fill="none" stroke="black" points="10,-325 10,-347 166,-347 166,-325 10,-325"/>
<text text-anchor="start" x="30" y="-333.2" font-family="Helvetica,sans-Serif" font-size="11.00">data_details</text>
<polygon fill="none" stroke="black" points="166,-325 166,-347 260,-347 260,-325 166,-325"/>
<text text-anchor="start" x="169" y="-333.2" font-family="Helvetica,sans-Serif" font-size="11.00">text[2147483647]</text>
<polygon fill="none" stroke="black" points="10,-303 10,-325 166,-325 166,-303 10,-303"/>
<text text-anchor="start" x="30" y="-311.2" font-family="Helvetica,sans-Serif" font-size="11.00">duration</text>
<polygon fill="none" stroke="black" points="166,-303 166,-325 260,-325 260,-303 166,-303"/>
<text text-anchor="start" x="169" y="-311.2" font-family="Helvetica,sans-Serif" font-size="11.00">int2[5]</text>
<polygon fill="none" stroke="black" points="10,-281 10,-303 166,-303 166,-281 10,-281"/>
<text text-anchor="start" x="30" y="-289.2" font-family="Helvetica,sans-Serif" font-size="11.00">fk_dataowner</text>
<polygon fill="none" stroke="black" points="166,-281 166,-303 260,-303 260,-281 166,-281"/>
<text text-anchor="start" x="169" y="-289.2" font-family="Helvetica,sans-Serif" font-size="11.00">varchar[16]</text>
<polygon fill="none" stroke="black" points="10,-259 10,-281 166,-281 166,-259 10,-259"/>
<text text-anchor="start" x="30" y="-267.2" font-family="Helvetica,sans-Serif" font-size="11.00">fk_measure</text>
<polygon fill="none" stroke="black" points="166,-259 166,-281 260,-281 260,-259 166,-259"/>
<text text-anchor="start" x="169" y="-267.2" font-family="Helvetica,sans-Serif" font-size="11.00">varchar[16]</text>
<polygon fill="none" stroke="black" points="10,-237 10,-259 166,-259 166,-237 10,-237"/>
<text text-anchor="start" x="30" y="-245.2" font-family="Helvetica,sans-Serif" font-size="11.00">fk_operating_company</text>
<polygon fill="none" stroke="black" points="166,-237 166,-259 260,-259 260,-237 166,-237"/>
<text text-anchor="start" x="169" y="-245.2" font-family="Helvetica,sans-Serif" font-size="11.00">varchar[16]</text>
<polygon fill="none" stroke="black" points="10,-215 10,-237 166,-237 166,-215 10,-215"/>
<text text-anchor="start" x="30" y="-223.2" font-family="Helvetica,sans-Serif" font-size="11.00">fk_provider</text>
<polygon fill="none" stroke="black" points="166,-215 166,-237 260,-237 260,-215 166,-215"/>
<text text-anchor="start" x="169" y="-223.2" font-family="Helvetica,sans-Serif" font-size="11.00">varchar[16]</text>
<polygon fill="none" stroke="black" points="10,-193 10,-215 166,-215 166,-193 10,-193"/>
<text text-anchor="start" x="30" y="-201.2" font-family="Helvetica,sans-Serif" font-size="11.00">identifier</text>
<polygon fill="none" stroke="black" points="166,-193 166,-215 260,-215 260,-193 166,-193"/>
<text text-anchor="start" x="169" y="-201.2" font-family="Helvetica,sans-Serif" font-size="11.00">text[2147483647]</text>
<polygon fill="none" stroke="black" points="10,-171 10,-193 166,-193 166,-171 10,-171"/>
<text text-anchor="start" x="30" y="-179.2" font-family="Helvetica,sans-Serif" font-size="11.00">last_modification</text>
<polygon fill="none" stroke="black" points="166,-171 166,-193 260,-193 260,-171 166,-171"/>
<text text-anchor="start" x="169" y="-179.2" font-family="Helvetica,sans-Serif" font-size="11.00">timestamp[29,6]</text>
<polygon fill="none" stroke="black" points="10,-149 10,-171 166,-171 166,-149 10,-149"/>
<text text-anchor="start" x="30" y="-157.2" font-family="Helvetica,sans-Serif" font-size="11.00">operator</text>
<polygon fill="none" stroke="black" points="166,-149 166,-171 260,-171 260,-149 166,-149"/>
<text text-anchor="start" x="169" y="-157.2" font-family="Helvetica,sans-Serif" font-size="11.00">text[2147483647]</text>
<polygon fill="none" stroke="black" points="10,-127 10,-149 166,-149 166,-127 10,-127"/>
<text text-anchor="start" x="30" y="-135.2" font-family="Helvetica,sans-Serif" font-size="11.00">reason</text>
<polygon fill="none" stroke="black" points="166,-127 166,-149 260,-149 260,-127 166,-127"/>
<text text-anchor="start" x="169" y="-135.2" font-family="Helvetica,sans-Serif" font-size="11.00">text[2147483647]</text>
<polygon fill="none" stroke="black" points="10,-105 10,-127 166,-127 166,-105 10,-105"/>
<text text-anchor="start" x="30" y="-113.2" font-family="Helvetica,sans-Serif" font-size="11.00">remark</text>
<polygon fill="none" stroke="black" points="166,-105 166,-127 260,-127 260,-105 166,-105"/>
<text text-anchor="start" x="169" y="-113.2" font-family="Helvetica,sans-Serif" font-size="11.00">text[2147483647]</text>
<polygon fill="none" stroke="black" points="10,-83 10,-105 166,-105 166,-83 10,-83"/>
<text text-anchor="start" x="30" y="-91.2" font-family="Helvetica,sans-Serif" font-size="11.00">result</text>
<polygon fill="none" stroke="black" points="166,-83 166,-105 260,-105 260,-83 166,-83"/>
<text text-anchor="start" x="169" y="-91.2" font-family="Helvetica,sans-Serif" font-size="11.00">text[2147483647]</text>
<polygon fill="none" stroke="black" points="10,-61 10,-83 166,-83 166,-61 10,-61"/>
<text text-anchor="start" x="30" y="-69.2" font-family="Helvetica,sans-Serif" font-size="11.00">status</text>
<polygon fill="none" stroke="black" points="166,-61 166,-83 260,-83 260,-61 166,-61"/>
<text text-anchor="start" x="169" y="-69.2" font-family="Helvetica,sans-Serif" font-size="11.00">int4[10]</text>
<polygon fill="none" stroke="black" points="10,-39 10,-61 166,-61 166,-39 10,-39"/>
<text text-anchor="start" x="30" y="-47.2" font-family="Helvetica,sans-Serif" font-size="11.00">time_point</text>
<polygon fill="none" stroke="black" points="166,-39 166,-61 260,-61 260,-39 166,-39"/>
<text text-anchor="start" x="169" y="-47.2" font-family="Helvetica,sans-Serif" font-size="11.00">timestamp[29,6]</text>
<polygon fill="none" stroke="black" stroke-width="2" points="9,-38 9,-634 261,-634 261,-38 9,-38"/>
</a>
</g>
</g>
</g>
</svg>
