<?xml version="1.0" encoding="UTF-8" standalone="no"?>
<!DOCTYPE svg PUBLIC "-//W3C//DTD SVG 1.1//EN"
 "http://www.w3.org/Graphics/SVG/1.1/DTD/svg11.dtd">
<!-- Generated by graphviz version 2.43.0 (0)
 -->
<!-- Title: oneDegreeRelationshipsDiagram Pages: 1 -->
<svg width="319pt" height="471pt"
 viewBox="0.00 0.00 319.00 471.00" xmlns="http://www.w3.org/2000/svg" xmlns:xlink="http://www.w3.org/1999/xlink">
<g id="graph0" class="graph" transform="scale(1 1) rotate(0) translate(4 467)">
<title>oneDegreeRelationshipsDiagram</title>
<polygon fill="#ffffff" stroke="transparent" points="-4,4 -4,-467 315,-467 315,4 -4,4"/>
<text text-anchor="middle" x="79.5" y="-7.2" font-family="Helvetica,sans-Serif" font-size="11.00">Generated by SchemaSpy</text>
<!-- vw_maintenance -->
<g id="node1" class="node">
<title>vw_maintenance</title>
<g id="a_node1"><a xlink:href="../../tables/vw_maintenance.html" xlink:title="vw_maintenance" target="_top">
<polygon fill="#ffffff" stroke="transparent" points="8,-37 8,-459 303,-459 303,-37 8,-37"/>
<polygon fill="#f5f5f5" stroke="transparent" points="10.5,-435 10.5,-457 301.5,-457 301.5,-435 10.5,-435"/>
<polygon fill="none" stroke="black" points="10.5,-435 10.5,-457 301.5,-457 301.5,-435 10.5,-435"/>
<text text-anchor="start" x="15.5" y="-444.2" font-family="Helvetica,sans-Serif" font-weight="bold" font-size="11.00">vw_maintenance</text>
<text text-anchor="start" x="261.5" y="-443.2" font-family="Helvetica,sans-Serif" font-size="11.00">[view]</text>
<polygon fill="none" stroke="black" points="10.5,-413 10.5,-435 195.5,-435 195.5,-413 10.5,-413"/>
<text text-anchor="start" x="30.5" y="-421.2" font-family="Helvetica,sans-Serif" font-size="11.00">obj_id</text>
<polygon fill="none" stroke="black" points="195.5,-413 195.5,-435 301.5,-435 301.5,-413 195.5,-413"/>
<text text-anchor="start" x="198.5" y="-421.2" font-family="Helvetica,sans-Serif" font-size="11.00">varchar[16]</text>
<polygon fill="none" stroke="black" points="10.5,-391 10.5,-413 195.5,-413 195.5,-391 10.5,-391"/>
<text text-anchor="start" x="30.5" y="-399.2" font-family="Helvetica,sans-Serif" font-size="11.00">kind</text>
<polygon fill="none" stroke="black" points="195.5,-391 195.5,-413 301.5,-413 301.5,-391 195.5,-391"/>
<text text-anchor="start" x="198.5" y="-399.2" font-family="Helvetica,sans-Serif" font-size="11.00">int4[10]</text>
<polygon fill="none" stroke="black" points="10.5,-369 10.5,-391 195.5,-391 195.5,-369 10.5,-369"/>
<text text-anchor="start" x="30.5" y="-377.2" font-family="Helvetica,sans-Serif" font-size="11.00">base_data</text>
<polygon fill="none" stroke="black" points="195.5,-369 195.5,-391 301.5,-391 301.5,-369 195.5,-369"/>
<text text-anchor="start" x="198.5" y="-377.2" font-family="Helvetica,sans-Serif" font-size="11.00">text[2147483647]</text>
<polygon fill="none" stroke="black" points="10.5,-347 10.5,-369 195.5,-369 195.5,-347 10.5,-347"/>
<text text-anchor="start" x="30.5" y="-355.2" font-family="Helvetica,sans-Serif" font-size="11.00">cost</text>
<polygon fill="none" stroke="black" points="195.5,-347 195.5,-369 301.5,-369 301.5,-347 195.5,-347"/>
<text text-anchor="start" x="198.5" y="-355.2" font-family="Helvetica,sans-Serif" font-size="11.00">numeric[10,2]</text>
<polygon fill="none" stroke="black" points="10.5,-325 10.5,-347 195.5,-347 195.5,-325 10.5,-325"/>
<text text-anchor="start" x="30.5" y="-333.2" font-family="Helvetica,sans-Serif" font-size="11.00">data_details</text>
<polygon fill="none" stroke="black" points="195.5,-325 195.5,-347 301.5,-347 301.5,-325 195.5,-325"/>
<text text-anchor="start" x="198.5" y="-333.2" font-family="Helvetica,sans-Serif" font-size="11.00">text[2147483647]</text>
<polygon fill="none" stroke="black" points="10.5,-303 10.5,-325 195.5,-325 195.5,-303 10.5,-303"/>
<text text-anchor="start" x="30.5" y="-311.2" font-family="Helvetica,sans-Serif" font-size="11.00">duration</text>
<polygon fill="none" stroke="black" points="195.5,-303 195.5,-325 301.5,-325 301.5,-303 195.5,-303"/>
<text text-anchor="start" x="198.5" y="-311.2" font-family="Helvetica,sans-Serif" font-size="11.00">int2[5]</text>
<polygon fill="none" stroke="black" points="10.5,-281 10.5,-303 195.5,-303 195.5,-281 10.5,-281"/>
<text text-anchor="start" x="30.5" y="-289.2" font-family="Helvetica,sans-Serif" font-size="11.00">fk_dataowner</text>
<polygon fill="none" stroke="black" points="195.5,-281 195.5,-303 301.5,-303 301.5,-281 195.5,-281"/>
<text text-anchor="start" x="198.5" y="-289.2" font-family="Helvetica,sans-Serif" font-size="11.00">varchar[16]</text>
<polygon fill="none" stroke="black" points="10.5,-259 10.5,-281 195.5,-281 195.5,-259 10.5,-259"/>
<text text-anchor="start" x="30.5" y="-267.2" font-family="Helvetica,sans-Serif" font-size="11.00">fk_measure</text>
<polygon fill="none" stroke="black" points="195.5,-259 195.5,-281 301.5,-281 301.5,-259 195.5,-259"/>
<text text-anchor="start" x="198.5" y="-267.2" font-family="Helvetica,sans-Serif" font-size="11.00">varchar[16]</text>
<polygon fill="none" stroke="black" points="10.5,-237 10.5,-259 195.5,-259 195.5,-237 10.5,-237"/>
<text text-anchor="start" x="30.5" y="-245.2" font-family="Helvetica,sans-Serif" font-size="11.00">fk_operating_company</text>
<polygon fill="none" stroke="black" points="195.5,-237 195.5,-259 301.5,-259 301.5,-237 195.5,-237"/>
<text text-anchor="start" x="198.5" y="-245.2" font-family="Helvetica,sans-Serif" font-size="11.00">varchar[16]</text>
<polygon fill="none" stroke="black" points="10.5,-215 10.5,-237 195.5,-237 195.5,-215 10.5,-215"/>
<text text-anchor="start" x="30.5" y="-223.2" font-family="Helvetica,sans-Serif" font-size="11.00">fk_provider</text>
<polygon fill="none" stroke="black" points="195.5,-215 195.5,-237 301.5,-237 301.5,-215 195.5,-215"/>
<text text-anchor="start" x="198.5" y="-223.2" font-family="Helvetica,sans-Serif" font-size="11.00">varchar[16]</text>
<polygon fill="none" stroke="black" points="10.5,-193 10.5,-215 195.5,-215 195.5,-193 10.5,-193"/>
<text text-anchor="start" x="30.5" y="-201.2" font-family="Helvetica,sans-Serif" font-size="11.00">identifier</text>
<polygon fill="none" stroke="black" points="195.5,-193 195.5,-215 301.5,-215 301.5,-193 195.5,-193"/>
<text text-anchor="start" x="198.5" y="-201.2" font-family="Helvetica,sans-Serif" font-size="11.00">text[2147483647]</text>
<polygon fill="none" stroke="black" points="10.5,-171 10.5,-193 195.5,-193 195.5,-171 10.5,-171"/>
<text text-anchor="start" x="30.5" y="-179.2" font-family="Helvetica,sans-Serif" font-size="11.00">last_modification</text>
<polygon fill="none" stroke="black" points="195.5,-171 195.5,-193 301.5,-193 301.5,-171 195.5,-171"/>
<text text-anchor="start" x="198.5" y="-179.2" font-family="Helvetica,sans-Serif" font-size="11.00">timestamp[29,6]</text>
<polygon fill="none" stroke="black" points="10.5,-149 10.5,-171 195.5,-171 195.5,-149 10.5,-149"/>
<text text-anchor="start" x="30.5" y="-157.2" font-family="Helvetica,sans-Serif" font-size="11.00">operator</text>
<polygon fill="none" stroke="black" points="195.5,-149 195.5,-171 301.5,-171 301.5,-149 195.5,-149"/>
<text text-anchor="start" x="198.5" y="-157.2" font-family="Helvetica,sans-Serif" font-size="11.00">text[2147483647]</text>
<polygon fill="none" stroke="black" points="10.5,-127 10.5,-149 195.5,-149 195.5,-127 10.5,-127"/>
<text text-anchor="start" x="30.5" y="-135.2" font-family="Helvetica,sans-Serif" font-size="11.00">reason</text>
<polygon fill="none" stroke="black" points="195.5,-127 195.5,-149 301.5,-149 301.5,-127 195.5,-127"/>
<text text-anchor="start" x="198.5" y="-135.2" font-family="Helvetica,sans-Serif" font-size="11.00">text[2147483647]</text>
<polygon fill="none" stroke="black" points="10.5,-105 10.5,-127 195.5,-127 195.5,-105 10.5,-105"/>
<text text-anchor="start" x="30.5" y="-113.2" font-family="Helvetica,sans-Serif" font-size="11.00">remark</text>
<polygon fill="none" stroke="black" points="195.5,-105 195.5,-127 301.5,-127 301.5,-105 195.5,-105"/>
<text text-anchor="start" x="198.5" y="-113.2" font-family="Helvetica,sans-Serif" font-size="11.00">text[2147483647]</text>
<polygon fill="none" stroke="black" points="10.5,-83 10.5,-105 195.5,-105 195.5,-83 10.5,-83"/>
<text text-anchor="start" x="30.5" y="-91.2" font-family="Helvetica,sans-Serif" font-size="11.00">result</text>
<polygon fill="none" stroke="black" points="195.5,-83 195.5,-105 301.5,-105 301.5,-83 195.5,-83"/>
<text text-anchor="start" x="198.5" y="-91.2" font-family="Helvetica,sans-Serif" font-size="11.00">text[2147483647]</text>
<polygon fill="none" stroke="black" points="10.5,-61 10.5,-83 195.5,-83 195.5,-61 10.5,-61"/>
<text text-anchor="start" x="30.5" y="-69.2" font-family="Helvetica,sans-Serif" font-size="11.00">status</text>
<polygon fill="none" stroke="black" points="195.5,-61 195.5,-83 301.5,-83 301.5,-61 195.5,-61"/>
<text text-anchor="start" x="198.5" y="-69.2" font-family="Helvetica,sans-Serif" font-size="11.00">int4[10]</text>
<polygon fill="none" stroke="black" points="10.5,-39 10.5,-61 195.5,-61 195.5,-39 10.5,-39"/>
<text text-anchor="start" x="30.5" y="-47.2" font-family="Helvetica,sans-Serif" font-size="11.00">time_point</text>
<polygon fill="none" stroke="black" points="195.5,-39 195.5,-61 301.5,-61 301.5,-39 195.5,-39"/>
<text text-anchor="start" x="198.5" y="-47.2" font-family="Helvetica,sans-Serif" font-size="11.00">timestamp[29,6]</text>
<polygon fill="none" stroke="black" stroke-width="2" points="9,-38 9,-458 302,-458 302,-38 9,-38"/>
</a>
</g>
</g>
</g>
</svg>
