<?xml version="1.0" encoding="UTF-8" standalone="no"?>
<!DOCTYPE svg PUBLIC "-//W3C//DTD SVG 1.1//EN"
 "http://www.w3.org/Graphics/SVG/1.1/DTD/svg11.dtd">
<!-- Generated by graphviz version 2.47.1 (20210515.0534)
 -->
<!-- Title: oneDegreeRelationshipsDiagram Pages: 1 -->
<svg width="309pt" height="317pt"
 viewBox="0.00 0.00 309.00 317.00" xmlns="http://www.w3.org/2000/svg" xmlns:xlink="http://www.w3.org/1999/xlink">
<g id="graph0" class="graph" transform="scale(1 1) rotate(0) translate(4 313)">
<title>oneDegreeRelationshipsDiagram</title>
<polygon fill="#ffffff" stroke="transparent" points="-4,4 -4,-313 305,-313 305,4 -4,4"/>
<text text-anchor="middle" x="73.5" y="-7.2" font-family="Helvetica,sans-Serif" font-size="11.00">Generated by SchemaSpy</text>
<!-- vw_network_node -->
<g id="node1" class="node">
<title>vw_network_node</title>
<g id="a_node1"><a xlink:href="../../tables/vw_network_node.html" xlink:title="vw_network_node" target="_top">
<polygon fill="#ffffff" stroke="transparent" points="8,-37 8,-305 293,-305 293,-37 8,-37"/>
<polygon fill="#f5f5f5" stroke="transparent" points="10.5,-281 10.5,-303 291.5,-303 291.5,-281 10.5,-281"/>
<polygon fill="none" stroke="black" points="10.5,-281 10.5,-303 291.5,-303 291.5,-281 10.5,-281"/>
<text text-anchor="start" x="15.5" y="-290.2" font-family="Helvetica,sans-Serif" font-weight="bold" font-size="11.00">vw_network_node</text>
<text text-anchor="start" x="255.5" y="-289.2" font-family="Helvetica,sans-Serif" font-size="11.00">[view]</text>
<polygon fill="none" stroke="black" points="10.5,-259 10.5,-281 168.5,-281 168.5,-259 10.5,-259"/>
<text text-anchor="start" x="30.5" y="-267.2" font-family="Helvetica,sans-Serif" font-size="11.00">gid</text>
<polygon fill="none" stroke="black" points="168.5,-259 168.5,-281 291.5,-281 291.5,-259 168.5,-259"/>
<text text-anchor="start" x="171.5" y="-267.2" font-family="Helvetica,sans-Serif" font-size="11.00">int4[10]</text>
<polygon fill="none" stroke="black" points="10.5,-237 10.5,-259 168.5,-259 168.5,-237 10.5,-237"/>
<text text-anchor="start" x="30.5" y="-245.2" font-family="Helvetica,sans-Serif" font-size="11.00">obj_id</text>
<polygon fill="none" stroke="black" points="168.5,-237 168.5,-259 291.5,-259 291.5,-237 168.5,-237"/>
<text text-anchor="start" x="171.5" y="-245.2" font-family="Helvetica,sans-Serif" font-size="11.00">text[2147483647]</text>
<polygon fill="none" stroke="black" points="10.5,-215 10.5,-237 168.5,-237 168.5,-215 10.5,-215"/>
<text text-anchor="start" x="30.5" y="-223.2" font-family="Helvetica,sans-Serif" font-size="11.00">type</text>
<polygon fill="none" stroke="black" points="168.5,-215 168.5,-237 291.5,-237 291.5,-215 168.5,-215"/>
<text text-anchor="start" x="171.5" y="-223.2" font-family="Helvetica,sans-Serif" font-size="11.00">text[2147483647]</text>
<polygon fill="none" stroke="black" points="10.5,-193 10.5,-215 168.5,-215 168.5,-193 10.5,-193"/>
<text text-anchor="start" x="30.5" y="-201.2" font-family="Helvetica,sans-Serif" font-size="11.00">node_type</text>
<polygon fill="none" stroke="black" points="168.5,-193 168.5,-215 291.5,-215 291.5,-193 168.5,-193"/>
<text text-anchor="start" x="171.5" y="-201.2" font-family="Helvetica,sans-Serif" font-size="11.00">text[2147483647]</text>
<polygon fill="none" stroke="black" points="10.5,-171 10.5,-193 168.5,-193 168.5,-171 10.5,-171"/>
<text text-anchor="start" x="30.5" y="-179.2" font-family="Helvetica,sans-Serif" font-size="11.00">level</text>
<polygon fill="none" stroke="black" points="168.5,-171 168.5,-193 291.5,-193 291.5,-171 168.5,-171"/>
<text text-anchor="start" x="171.5" y="-179.2" font-family="Helvetica,sans-Serif" font-size="11.00">numeric[0]</text>
<polygon fill="none" stroke="black" points="10.5,-149 10.5,-171 168.5,-171 168.5,-149 10.5,-149"/>
<text text-anchor="start" x="30.5" y="-157.2" font-family="Helvetica,sans-Serif" font-size="11.00">usage_current</text>
<polygon fill="none" stroke="black" points="168.5,-149 168.5,-171 291.5,-171 291.5,-149 168.5,-149"/>
<text text-anchor="start" x="171.5" y="-157.2" font-family="Helvetica,sans-Serif" font-size="11.00">text[2147483647]</text>
<polygon fill="none" stroke="black" points="10.5,-127 10.5,-149 168.5,-149 168.5,-127 10.5,-127"/>
<text text-anchor="start" x="30.5" y="-135.2" font-family="Helvetica,sans-Serif" font-size="11.00">cover_level</text>
<polygon fill="none" stroke="black" points="168.5,-127 168.5,-149 291.5,-149 291.5,-127 168.5,-127"/>
<text text-anchor="start" x="171.5" y="-135.2" font-family="Helvetica,sans-Serif" font-size="11.00">numeric[0]</text>
<polygon fill="none" stroke="black" points="10.5,-105 10.5,-127 168.5,-127 168.5,-105 10.5,-105"/>
<text text-anchor="start" x="30.5" y="-113.2" font-family="Helvetica,sans-Serif" font-size="11.00">backflow_level_current</text>
<polygon fill="none" stroke="black" points="168.5,-105 168.5,-127 291.5,-127 291.5,-105 168.5,-105"/>
<text text-anchor="start" x="171.5" y="-113.2" font-family="Helvetica,sans-Serif" font-size="11.00">float8[17,17]</text>
<polygon fill="none" stroke="black" points="10.5,-83 10.5,-105 168.5,-105 168.5,-83 10.5,-83"/>
<text text-anchor="start" x="30.5" y="-91.2" font-family="Helvetica,sans-Serif" font-size="11.00">description</text>
<polygon fill="none" stroke="black" points="168.5,-83 168.5,-105 291.5,-105 291.5,-83 168.5,-83"/>
<text text-anchor="start" x="171.5" y="-91.2" font-family="Helvetica,sans-Serif" font-size="11.00">text[2147483647]</text>
<polygon fill="none" stroke="black" points="10.5,-61 10.5,-83 168.5,-83 168.5,-61 10.5,-61"/>
<text text-anchor="start" x="30.5" y="-69.2" font-family="Helvetica,sans-Serif" font-size="11.00">situation_geometry</text>
<polygon fill="none" stroke="black" points="168.5,-61 168.5,-83 291.5,-83 291.5,-61 168.5,-61"/>
<text text-anchor="start" x="171.5" y="-69.2" font-family="Helvetica,sans-Serif" font-size="11.00">geometry[2147483647]</text>
<polygon fill="none" stroke="black" points="10.5,-39 10.5,-61 168.5,-61 168.5,-39 10.5,-39"/>
<text text-anchor="start" x="30.5" y="-47.2" font-family="Helvetica,sans-Serif" font-size="11.00">detail_geometry</text>
<polygon fill="none" stroke="black" points="168.5,-39 168.5,-61 291.5,-61 291.5,-39 168.5,-39"/>
<text text-anchor="start" x="171.5" y="-47.2" font-family="Helvetica,sans-Serif" font-size="11.00">geometry[2147483647]</text>
<polygon fill="none" stroke="black" stroke-width="2" points="9,-38 9,-304 292,-304 292,-38 9,-38"/>
</a>
</g>
</g>
</g>
</svg>
