<?xml version="1.0" encoding="UTF-8" standalone="no"?>
<!DOCTYPE svg PUBLIC "-//W3C//DTD SVG 1.1//EN"
 "http://www.w3.org/Graphics/SVG/1.1/DTD/svg11.dtd">
<!-- Generated by graphviz version 2.47.1 (20210515.0534)
 -->
<!-- Title: oneDegreeRelationshipsDiagram Pages: 1 -->
<svg width="286pt" height="691pt"
 viewBox="0.00 0.00 286.00 691.00" xmlns="http://www.w3.org/2000/svg" xmlns:xlink="http://www.w3.org/1999/xlink">
<g id="graph0" class="graph" transform="scale(1 1) rotate(0) translate(4 687)">
<title>oneDegreeRelationshipsDiagram</title>
<polygon fill="#ffffff" stroke="transparent" points="-4,4 -4,-687 282,-687 282,4 -4,4"/>
<text text-anchor="middle" x="73.5" y="-7.2" font-family="Helvetica,sans-Serif" font-size="11.00">Generated by SchemaSpy</text>
<!-- vw_pump -->
<g id="node1" class="node">
<title>vw_pump</title>
<g id="a_node1"><a xlink:href="../../tables/vw_pump.html" xlink:title="vw_pump" target="_top">
<polygon fill="#ffffff" stroke="transparent" points="8,-37 8,-679 270,-679 270,-37 8,-37"/>
<polygon fill="#f5f5f5" stroke="transparent" points="10,-655 10,-677 268,-677 268,-655 10,-655"/>
<polygon fill="none" stroke="black" points="10,-655 10,-677 268,-677 268,-655 10,-655"/>
<text text-anchor="start" x="15" y="-664.2" font-family="Helvetica,sans-Serif" font-weight="bold" font-size="11.00">vw_pump</text>
<text text-anchor="start" x="232" y="-663.2" font-family="Helvetica,sans-Serif" font-size="11.00">[view]</text>
<polygon fill="none" stroke="black" points="10,-633 10,-655 174,-655 174,-633 10,-633"/>
<text text-anchor="start" x="30" y="-641.2" font-family="Helvetica,sans-Serif" font-size="11.00">obj_id</text>
<polygon fill="none" stroke="black" points="174,-633 174,-655 268,-655 268,-633 174,-633"/>
<text text-anchor="start" x="177" y="-641.2" font-family="Helvetica,sans-Serif" font-size="11.00">varchar[16]</text>
<polygon fill="none" stroke="black" points="10,-611 10,-633 174,-633 174,-611 10,-611"/>
<text text-anchor="start" x="30" y="-619.2" font-family="Helvetica,sans-Serif" font-size="11.00">construction_type</text>
<polygon fill="none" stroke="black" points="174,-611 174,-633 268,-633 268,-611 174,-611"/>
<text text-anchor="start" x="177" y="-619.2" font-family="Helvetica,sans-Serif" font-size="11.00">int4[10]</text>
<polygon fill="none" stroke="black" points="10,-589 10,-611 174,-611 174,-589 10,-589"/>
<text text-anchor="start" x="30" y="-597.2" font-family="Helvetica,sans-Serif" font-size="11.00">operating_point</text>
<polygon fill="none" stroke="black" points="174,-589 174,-611 268,-611 268,-589 174,-589"/>
<text text-anchor="start" x="177" y="-597.2" font-family="Helvetica,sans-Serif" font-size="11.00">numeric[8,3]</text>
<polygon fill="none" stroke="black" points="10,-567 10,-589 174,-589 174,-567 10,-567"/>
<text text-anchor="start" x="30" y="-575.2" font-family="Helvetica,sans-Serif" font-size="11.00">placement_of_actuation</text>
<polygon fill="none" stroke="black" points="174,-567 174,-589 268,-589 268,-567 174,-567"/>
<text text-anchor="start" x="177" y="-575.2" font-family="Helvetica,sans-Serif" font-size="11.00">int4[10]</text>
<polygon fill="none" stroke="black" points="10,-545 10,-567 174,-567 174,-545 10,-545"/>
<text text-anchor="start" x="30" y="-553.2" font-family="Helvetica,sans-Serif" font-size="11.00">placement_of_pump</text>
<polygon fill="none" stroke="black" points="174,-545 174,-567 268,-567 268,-545 174,-545"/>
<text text-anchor="start" x="177" y="-553.2" font-family="Helvetica,sans-Serif" font-size="11.00">int4[10]</text>
<polygon fill="none" stroke="black" points="10,-523 10,-545 174,-545 174,-523 10,-523"/>
<text text-anchor="start" x="30" y="-531.2" font-family="Helvetica,sans-Serif" font-size="11.00">pump_flow_max_single</text>
<polygon fill="none" stroke="black" points="174,-523 174,-545 268,-545 268,-523 174,-523"/>
<text text-anchor="start" x="177" y="-531.2" font-family="Helvetica,sans-Serif" font-size="11.00">numeric[9,3]</text>
<polygon fill="none" stroke="black" points="10,-501 10,-523 174,-523 174,-501 10,-501"/>
<text text-anchor="start" x="30" y="-509.2" font-family="Helvetica,sans-Serif" font-size="11.00">pump_flow_min_single</text>
<polygon fill="none" stroke="black" points="174,-501 174,-523 268,-523 268,-501 174,-501"/>
<text text-anchor="start" x="177" y="-509.2" font-family="Helvetica,sans-Serif" font-size="11.00">numeric[9,3]</text>
<polygon fill="none" stroke="black" points="10,-479 10,-501 174,-501 174,-479 10,-479"/>
<text text-anchor="start" x="30" y="-487.2" font-family="Helvetica,sans-Serif" font-size="11.00">start_level</text>
<polygon fill="none" stroke="black" points="174,-479 174,-501 268,-501 268,-479 174,-479"/>
<text text-anchor="start" x="177" y="-487.2" font-family="Helvetica,sans-Serif" font-size="11.00">numeric[7,3]</text>
<polygon fill="none" stroke="black" points="10,-457 10,-479 174,-479 174,-457 10,-457"/>
<text text-anchor="start" x="30" y="-465.2" font-family="Helvetica,sans-Serif" font-size="11.00">stop_level</text>
<polygon fill="none" stroke="black" points="174,-457 174,-479 268,-479 268,-457 174,-457"/>
<text text-anchor="start" x="177" y="-465.2" font-family="Helvetica,sans-Serif" font-size="11.00">numeric[7,3]</text>
<polygon fill="none" stroke="black" points="10,-435 10,-457 174,-457 174,-435 10,-435"/>
<text text-anchor="start" x="30" y="-443.2" font-family="Helvetica,sans-Serif" font-size="11.00">actuation</text>
<polygon fill="none" stroke="black" points="174,-435 174,-457 268,-457 268,-435 174,-435"/>
<text text-anchor="start" x="177" y="-443.2" font-family="Helvetica,sans-Serif" font-size="11.00">int4[10]</text>
<polygon fill="none" stroke="black" points="10,-413 10,-435 174,-435 174,-413 10,-413"/>
<text text-anchor="start" x="30" y="-421.2" font-family="Helvetica,sans-Serif" font-size="11.00">adjustability</text>
<polygon fill="none" stroke="black" points="174,-413 174,-435 268,-435 268,-413 174,-413"/>
<text text-anchor="start" x="177" y="-421.2" font-family="Helvetica,sans-Serif" font-size="11.00">int4[10]</text>
<polygon fill="none" stroke="black" points="10,-391 10,-413 174,-413 174,-391 10,-391"/>
<text text-anchor="start" x="30" y="-399.2" font-family="Helvetica,sans-Serif" font-size="11.00">brand</text>
<polygon fill="none" stroke="black" points="174,-391 174,-413 268,-413 268,-391 174,-391"/>
<text text-anchor="start" x="177" y="-399.2" font-family="Helvetica,sans-Serif" font-size="11.00">text[2147483647]</text>
<polygon fill="none" stroke="black" points="10,-369 10,-391 174,-391 174,-369 10,-369"/>
<text text-anchor="start" x="30" y="-377.2" font-family="Helvetica,sans-Serif" font-size="11.00">control</text>
<polygon fill="none" stroke="black" points="174,-369 174,-391 268,-391 268,-369 174,-369"/>
<text text-anchor="start" x="177" y="-377.2" font-family="Helvetica,sans-Serif" font-size="11.00">int4[10]</text>
<polygon fill="none" stroke="black" points="10,-347 10,-369 174,-369 174,-347 10,-347"/>
<text text-anchor="start" x="30" y="-355.2" font-family="Helvetica,sans-Serif" font-size="11.00">discharge_point</text>
<polygon fill="none" stroke="black" points="174,-347 174,-369 268,-369 268,-347 174,-347"/>
<text text-anchor="start" x="177" y="-355.2" font-family="Helvetica,sans-Serif" font-size="11.00">text[2147483647]</text>
<polygon fill="none" stroke="black" points="10,-325 10,-347 174,-347 174,-325 10,-325"/>
<text text-anchor="start" x="30" y="-333.2" font-family="Helvetica,sans-Serif" font-size="11.00">fk_control_center</text>
<polygon fill="none" stroke="black" points="174,-325 174,-347 268,-347 268,-325 174,-325"/>
<text text-anchor="start" x="177" y="-333.2" font-family="Helvetica,sans-Serif" font-size="11.00">varchar[16]</text>
<polygon fill="none" stroke="black" points="10,-303 10,-325 174,-325 174,-303 10,-303"/>
<text text-anchor="start" x="30" y="-311.2" font-family="Helvetica,sans-Serif" font-size="11.00">fk_dataowner</text>
<polygon fill="none" stroke="black" points="174,-303 174,-325 268,-325 268,-303 174,-303"/>
<text text-anchor="start" x="177" y="-311.2" font-family="Helvetica,sans-Serif" font-size="11.00">varchar[16]</text>
<polygon fill="none" stroke="black" points="10,-281 10,-303 174,-303 174,-281 10,-281"/>
<text text-anchor="start" x="30" y="-289.2" font-family="Helvetica,sans-Serif" font-size="11.00">fk_overflow_char</text>
<polygon fill="none" stroke="black" points="174,-281 174,-303 268,-303 268,-281 174,-281"/>
<text text-anchor="start" x="177" y="-289.2" font-family="Helvetica,sans-Serif" font-size="11.00">varchar[16]</text>
<polygon fill="none" stroke="black" points="10,-259 10,-281 174,-281 174,-259 10,-259"/>
<text text-anchor="start" x="30" y="-267.2" font-family="Helvetica,sans-Serif" font-size="11.00">fk_overflow_to</text>
<polygon fill="none" stroke="black" points="174,-259 174,-281 268,-281 268,-259 174,-259"/>
<text text-anchor="start" x="177" y="-267.2" font-family="Helvetica,sans-Serif" font-size="11.00">varchar[16]</text>
<polygon fill="none" stroke="black" points="10,-237 10,-259 174,-259 174,-237 10,-237"/>
<text text-anchor="start" x="30" y="-245.2" font-family="Helvetica,sans-Serif" font-size="11.00">fk_provider</text>
<polygon fill="none" stroke="black" points="174,-237 174,-259 268,-259 268,-237 174,-237"/>
<text text-anchor="start" x="177" y="-245.2" font-family="Helvetica,sans-Serif" font-size="11.00">varchar[16]</text>
<polygon fill="none" stroke="black" points="10,-215 10,-237 174,-237 174,-215 10,-215"/>
<text text-anchor="start" x="30" y="-223.2" font-family="Helvetica,sans-Serif" font-size="11.00">fk_wastewater_node</text>
<polygon fill="none" stroke="black" points="174,-215 174,-237 268,-237 268,-215 174,-215"/>
<text text-anchor="start" x="177" y="-223.2" font-family="Helvetica,sans-Serif" font-size="11.00">varchar[16]</text>
<polygon fill="none" stroke="black" points="10,-193 10,-215 174,-215 174,-193 10,-193"/>
<text text-anchor="start" x="30" y="-201.2" font-family="Helvetica,sans-Serif" font-size="11.00">function</text>
<polygon fill="none" stroke="black" points="174,-193 174,-215 268,-215 268,-193 174,-193"/>
<text text-anchor="start" x="177" y="-201.2" font-family="Helvetica,sans-Serif" font-size="11.00">int4[10]</text>
<polygon fill="none" stroke="black" points="10,-171 10,-193 174,-193 174,-171 10,-171"/>
<text text-anchor="start" x="30" y="-179.2" font-family="Helvetica,sans-Serif" font-size="11.00">gross_costs</text>
<polygon fill="none" stroke="black" points="174,-171 174,-193 268,-193 268,-171 174,-171"/>
<text text-anchor="start" x="177" y="-179.2" font-family="Helvetica,sans-Serif" font-size="11.00">numeric[10,2]</text>
<polygon fill="none" stroke="black" points="10,-149 10,-171 174,-171 174,-149 10,-149"/>
<text text-anchor="start" x="30" y="-157.2" font-family="Helvetica,sans-Serif" font-size="11.00">identifier</text>
<polygon fill="none" stroke="black" points="174,-149 174,-171 268,-171 268,-149 174,-149"/>
<text text-anchor="start" x="177" y="-157.2" font-family="Helvetica,sans-Serif" font-size="11.00">text[2147483647]</text>
<polygon fill="none" stroke="black" points="10,-127 10,-149 174,-149 174,-127 10,-127"/>
<text text-anchor="start" x="30" y="-135.2" font-family="Helvetica,sans-Serif" font-size="11.00">last_modification</text>
<polygon fill="none" stroke="black" points="174,-127 174,-149 268,-149 268,-127 174,-127"/>
<text text-anchor="start" x="177" y="-135.2" font-family="Helvetica,sans-Serif" font-size="11.00">timestamp[29,6]</text>
<polygon fill="none" stroke="black" points="10,-105 10,-127 174,-127 174,-105 10,-105"/>
<text text-anchor="start" x="30" y="-113.2" font-family="Helvetica,sans-Serif" font-size="11.00">qon_dim</text>
<polygon fill="none" stroke="black" points="174,-105 174,-127 268,-127 268,-105 174,-105"/>
<text text-anchor="start" x="177" y="-113.2" font-family="Helvetica,sans-Serif" font-size="11.00">numeric[9,3]</text>
<polygon fill="none" stroke="black" points="10,-83 10,-105 174,-105 174,-83 10,-83"/>
<text text-anchor="start" x="30" y="-91.2" font-family="Helvetica,sans-Serif" font-size="11.00">remark</text>
<polygon fill="none" stroke="black" points="174,-83 174,-105 268,-105 268,-83 174,-83"/>
<text text-anchor="start" x="177" y="-91.2" font-family="Helvetica,sans-Serif" font-size="11.00">text[2147483647]</text>
<polygon fill="none" stroke="black" points="10,-61 10,-83 174,-83 174,-61 10,-61"/>
<text text-anchor="start" x="30" y="-69.2" font-family="Helvetica,sans-Serif" font-size="11.00">signal_transmission</text>
<polygon fill="none" stroke="black" points="174,-61 174,-83 268,-83 268,-61 174,-61"/>
<text text-anchor="start" x="177" y="-69.2" font-family="Helvetica,sans-Serif" font-size="11.00">int4[10]</text>
<polygon fill="none" stroke="black" points="10,-39 10,-61 174,-61 174,-39 10,-39"/>
<text text-anchor="start" x="30" y="-47.2" font-family="Helvetica,sans-Serif" font-size="11.00">subsidies</text>
<polygon fill="none" stroke="black" points="174,-39 174,-61 268,-61 268,-39 174,-39"/>
<text text-anchor="start" x="177" y="-47.2" font-family="Helvetica,sans-Serif" font-size="11.00">numeric[10,2]</text>
<polygon fill="none" stroke="black" stroke-width="2" points="9,-38 9,-678 269,-678 269,-38 9,-38"/>
</a>
</g>
</g>
</g>
</svg>
