<?xml version="1.0" encoding="UTF-8" standalone="no"?>
<!DOCTYPE svg PUBLIC "-//W3C//DTD SVG 1.1//EN"
 "http://www.w3.org/Graphics/SVG/1.1/DTD/svg11.dtd">
<!-- Generated by graphviz version 2.47.1 (20210515.0534)
 -->
<!-- Title: oneDegreeRelationshipsDiagram Pages: 1 -->
<svg width="644pt" height="1065pt"
 viewBox="0.00 0.00 644.00 1065.00" xmlns="http://www.w3.org/2000/svg" xmlns:xlink="http://www.w3.org/1999/xlink">
<g id="graph0" class="graph" transform="scale(1 1) rotate(0) translate(4 1061)">
<title>oneDegreeRelationshipsDiagram</title>
<polygon fill="#ffffff" stroke="transparent" points="-4,4 -4,-1061 640,-1061 640,4 -4,4"/>
<text text-anchor="middle" x="73.5" y="-7.2" font-family="Helvetica,sans-Serif" font-size="11.00">Generated by SchemaSpy</text>
<!-- vw_tww_maintenance_event -->
<g id="node1" class="node">
<title>vw_tww_maintenance_event</title>
<g id="a_node1"><a xlink:href="../../tables/vw_tww_maintenance_event.html" xlink:title="vw_tww_maintenance_event" target="_top">
<polygon fill="#ffffff" stroke="transparent" points="8,-37 8,-1053 628,-1053 628,-37 8,-37"/>
<polygon fill="#f5f5f5" stroke="transparent" points="10,-1029 10,-1051 626,-1051 626,-1029 10,-1029"/>
<polygon fill="none" stroke="black" points="10,-1029 10,-1051 626,-1051 626,-1029 10,-1029"/>
<text text-anchor="start" x="15" y="-1038.2" font-family="Helvetica,sans-Serif" font-weight="bold" font-size="11.00">vw_tww_maintenance_event</text>
<text text-anchor="start" x="590" y="-1037.2" font-family="Helvetica,sans-Serif" font-size="11.00">[view]</text>
<polygon fill="none" stroke="black" points="10,-1007 10,-1029 359,-1029 359,-1007 10,-1007"/>
<text text-anchor="start" x="30" y="-1015.2" font-family="Helvetica,sans-Serif" font-size="11.00">maintenance_event_type</text>
<polygon fill="none" stroke="black" points="359,-1007 359,-1029 626,-1029 626,-1007 359,-1007"/>
<text text-anchor="start" x="362" y="-1015.2" font-family="Helvetica,sans-Serif" font-size="11.00">&quot;tww_app&quot;.&quot;maintenance_event_type&quot;[2147483647]</text>
<polygon fill="none" stroke="black" points="10,-985 10,-1007 359,-1007 359,-985 10,-985"/>
<text text-anchor="start" x="30" y="-993.2" font-family="Helvetica,sans-Serif" font-size="11.00">obj_id</text>
<polygon fill="none" stroke="black" points="359,-985 359,-1007 626,-1007 626,-985 359,-985"/>
<text text-anchor="start" x="362" y="-993.2" font-family="Helvetica,sans-Serif" font-size="11.00">varchar[16]</text>
<polygon fill="none" stroke="black" points="10,-963 10,-985 359,-985 359,-963 10,-963"/>
<text text-anchor="start" x="30" y="-971.2" font-family="Helvetica,sans-Serif" font-size="11.00">base_data</text>
<polygon fill="none" stroke="black" points="359,-963 359,-985 626,-985 626,-963 359,-963"/>
<text text-anchor="start" x="362" y="-971.2" font-family="Helvetica,sans-Serif" font-size="11.00">text[2147483647]</text>
<polygon fill="none" stroke="black" points="10,-941 10,-963 359,-963 359,-941 10,-941"/>
<text text-anchor="start" x="30" y="-949.2" font-family="Helvetica,sans-Serif" font-size="11.00">cost</text>
<polygon fill="none" stroke="black" points="359,-941 359,-963 626,-963 626,-941 359,-941"/>
<text text-anchor="start" x="362" y="-949.2" font-family="Helvetica,sans-Serif" font-size="11.00">numeric[10,2]</text>
<polygon fill="none" stroke="black" points="10,-919 10,-941 359,-941 359,-919 10,-919"/>
<text text-anchor="start" x="30" y="-927.2" font-family="Helvetica,sans-Serif" font-size="11.00">data_details</text>
<polygon fill="none" stroke="black" points="359,-919 359,-941 626,-941 626,-919 359,-919"/>
<text text-anchor="start" x="362" y="-927.2" font-family="Helvetica,sans-Serif" font-size="11.00">text[2147483647]</text>
<polygon fill="none" stroke="black" points="10,-897 10,-919 359,-919 359,-897 10,-897"/>
<text text-anchor="start" x="30" y="-905.2" font-family="Helvetica,sans-Serif" font-size="11.00">duration</text>
<polygon fill="none" stroke="black" points="359,-897 359,-919 626,-919 626,-897 359,-897"/>
<text text-anchor="start" x="362" y="-905.2" font-family="Helvetica,sans-Serif" font-size="11.00">int2[5]</text>
<polygon fill="none" stroke="black" points="10,-875 10,-897 359,-897 359,-875 10,-875"/>
<text text-anchor="start" x="30" y="-883.2" font-family="Helvetica,sans-Serif" font-size="11.00">fk_dataowner</text>
<polygon fill="none" stroke="black" points="359,-875 359,-897 626,-897 626,-875 359,-875"/>
<text text-anchor="start" x="362" y="-883.2" font-family="Helvetica,sans-Serif" font-size="11.00">varchar[16]</text>
<polygon fill="none" stroke="black" points="10,-853 10,-875 359,-875 359,-853 10,-853"/>
<text text-anchor="start" x="30" y="-861.2" font-family="Helvetica,sans-Serif" font-size="11.00">fk_measure</text>
<polygon fill="none" stroke="black" points="359,-853 359,-875 626,-875 626,-853 359,-853"/>
<text text-anchor="start" x="362" y="-861.2" font-family="Helvetica,sans-Serif" font-size="11.00">varchar[16]</text>
<polygon fill="none" stroke="black" points="10,-831 10,-853 359,-853 359,-831 10,-831"/>
<text text-anchor="start" x="30" y="-839.2" font-family="Helvetica,sans-Serif" font-size="11.00">fk_operating_company</text>
<polygon fill="none" stroke="black" points="359,-831 359,-853 626,-853 626,-831 359,-831"/>
<text text-anchor="start" x="362" y="-839.2" font-family="Helvetica,sans-Serif" font-size="11.00">varchar[16]</text>
<polygon fill="none" stroke="black" points="10,-809 10,-831 359,-831 359,-809 10,-809"/>
<text text-anchor="start" x="30" y="-817.2" font-family="Helvetica,sans-Serif" font-size="11.00">fk_provider</text>
<polygon fill="none" stroke="black" points="359,-809 359,-831 626,-831 626,-809 359,-809"/>
<text text-anchor="start" x="362" y="-817.2" font-family="Helvetica,sans-Serif" font-size="11.00">varchar[16]</text>
<polygon fill="none" stroke="black" points="10,-787 10,-809 359,-809 359,-787 10,-787"/>
<text text-anchor="start" x="30" y="-795.2" font-family="Helvetica,sans-Serif" font-size="11.00">identifier</text>
<polygon fill="none" stroke="black" points="359,-787 359,-809 626,-809 626,-787 359,-787"/>
<text text-anchor="start" x="362" y="-795.2" font-family="Helvetica,sans-Serif" font-size="11.00">text[2147483647]</text>
<polygon fill="none" stroke="black" points="10,-765 10,-787 359,-787 359,-765 10,-765"/>
<text text-anchor="start" x="30" y="-773.2" font-family="Helvetica,sans-Serif" font-size="11.00">last_modification</text>
<polygon fill="none" stroke="black" points="359,-765 359,-787 626,-787 626,-765 359,-765"/>
<text text-anchor="start" x="362" y="-773.2" font-family="Helvetica,sans-Serif" font-size="11.00">timestamp[29,6]</text>
<polygon fill="none" stroke="black" points="10,-743 10,-765 359,-765 359,-743 10,-743"/>
<text text-anchor="start" x="30" y="-751.2" font-family="Helvetica,sans-Serif" font-size="11.00">operator</text>
<polygon fill="none" stroke="black" points="359,-743 359,-765 626,-765 626,-743 359,-743"/>
<text text-anchor="start" x="362" y="-751.2" font-family="Helvetica,sans-Serif" font-size="11.00">text[2147483647]</text>
<polygon fill="none" stroke="black" points="10,-721 10,-743 359,-743 359,-721 10,-721"/>
<text text-anchor="start" x="30" y="-729.2" font-family="Helvetica,sans-Serif" font-size="11.00">reason</text>
<polygon fill="none" stroke="black" points="359,-721 359,-743 626,-743 626,-721 359,-721"/>
<text text-anchor="start" x="362" y="-729.2" font-family="Helvetica,sans-Serif" font-size="11.00">text[2147483647]</text>
<polygon fill="none" stroke="black" points="10,-699 10,-721 359,-721 359,-699 10,-699"/>
<text text-anchor="start" x="30" y="-707.2" font-family="Helvetica,sans-Serif" font-size="11.00">remark</text>
<polygon fill="none" stroke="black" points="359,-699 359,-721 626,-721 626,-699 359,-699"/>
<text text-anchor="start" x="362" y="-707.2" font-family="Helvetica,sans-Serif" font-size="11.00">text[2147483647]</text>
<polygon fill="none" stroke="black" points="10,-677 10,-699 359,-699 359,-677 10,-677"/>
<text text-anchor="start" x="30" y="-685.2" font-family="Helvetica,sans-Serif" font-size="11.00">result</text>
<polygon fill="none" stroke="black" points="359,-677 359,-699 626,-699 626,-677 359,-677"/>
<text text-anchor="start" x="362" y="-685.2" font-family="Helvetica,sans-Serif" font-size="11.00">text[2147483647]</text>
<polygon fill="none" stroke="black" points="10,-655 10,-677 359,-677 359,-655 10,-655"/>
<text text-anchor="start" x="30" y="-663.2" font-family="Helvetica,sans-Serif" font-size="11.00">status</text>
<polygon fill="none" stroke="black" points="359,-655 359,-677 626,-677 626,-655 359,-655"/>
<text text-anchor="start" x="362" y="-663.2" font-family="Helvetica,sans-Serif" font-size="11.00">int4[10]</text>
<polygon fill="none" stroke="black" points="10,-633 10,-655 359,-655 359,-633 10,-633"/>
<text text-anchor="start" x="30" y="-641.2" font-family="Helvetica,sans-Serif" font-size="11.00">time_point</text>
<polygon fill="none" stroke="black" points="359,-633 359,-655 626,-655 626,-633 359,-633"/>
<text text-anchor="start" x="362" y="-641.2" font-family="Helvetica,sans-Serif" font-size="11.00">timestamp[29,6]</text>
<polygon fill="none" stroke="black" points="10,-611 10,-633 359,-633 359,-611 10,-611"/>
<text text-anchor="start" x="30" y="-619.2" font-family="Helvetica,sans-Serif" font-size="11.00">ba_comparison_last</text>
<polygon fill="none" stroke="black" points="359,-611 359,-633 626,-633 626,-611 359,-611"/>
<text text-anchor="start" x="362" y="-619.2" font-family="Helvetica,sans-Serif" font-size="11.00">int4[10]</text>
<polygon fill="none" stroke="black" points="10,-589 10,-611 359,-611 359,-589 10,-589"/>
<text text-anchor="start" x="30" y="-597.2" font-family="Helvetica,sans-Serif" font-size="11.00">ba_date_last_examen</text>
<polygon fill="none" stroke="black" points="359,-589 359,-611 626,-611 626,-589 359,-589"/>
<text text-anchor="start" x="362" y="-597.2" font-family="Helvetica,sans-Serif" font-size="11.00">timestamp[29,6]</text>
<polygon fill="none" stroke="black" points="10,-567 10,-589 359,-589 359,-567 10,-567"/>
<text text-anchor="start" x="30" y="-575.2" font-family="Helvetica,sans-Serif" font-size="11.00">ba_impact_auxiliary_indic</text>
<polygon fill="none" stroke="black" points="359,-567 359,-589 626,-589 626,-567 359,-567"/>
<text text-anchor="start" x="362" y="-575.2" font-family="Helvetica,sans-Serif" font-size="11.00">int4[10]</text>
<polygon fill="none" stroke="black" points="10,-545 10,-567 359,-567 359,-545 10,-545"/>
<text text-anchor="start" x="30" y="-553.2" font-family="Helvetica,sans-Serif" font-size="11.00">ba_impact_external_aspect</text>
<polygon fill="none" stroke="black" points="359,-545 359,-567 626,-567 626,-545 359,-545"/>
<text text-anchor="start" x="362" y="-553.2" font-family="Helvetica,sans-Serif" font-size="11.00">int4[10]</text>
<polygon fill="none" stroke="black" points="10,-523 10,-545 359,-545 359,-523 10,-523"/>
<text text-anchor="start" x="30" y="-531.2" font-family="Helvetica,sans-Serif" font-size="11.00">ba_impact_macroinvertebrates</text>
<polygon fill="none" stroke="black" points="359,-523 359,-545 626,-545 626,-523 359,-523"/>
<text text-anchor="start" x="362" y="-531.2" font-family="Helvetica,sans-Serif" font-size="11.00">int4[10]</text>
<polygon fill="none" stroke="black" points="10,-501 10,-523 359,-523 359,-501 10,-501"/>
<text text-anchor="start" x="30" y="-509.2" font-family="Helvetica,sans-Serif" font-size="11.00">ba_impact_water_plants</text>
<polygon fill="none" stroke="black" points="359,-501 359,-523 626,-523 626,-501 359,-501"/>
<text text-anchor="start" x="362" y="-509.2" font-family="Helvetica,sans-Serif" font-size="11.00">int4[10]</text>
<polygon fill="none" stroke="black" points="10,-479 10,-501 359,-501 359,-479 10,-479"/>
<text text-anchor="start" x="30" y="-487.2" font-family="Helvetica,sans-Serif" font-size="11.00">ba_intervention_demand</text>
<polygon fill="none" stroke="black" points="359,-479 359,-501 626,-501 626,-479 359,-479"/>
<text text-anchor="start" x="362" y="-487.2" font-family="Helvetica,sans-Serif" font-size="11.00">int4[10]</text>
<polygon fill="none" stroke="black" points="10,-457 10,-479 359,-479 359,-457 10,-457"/>
<text text-anchor="start" x="30" y="-465.2" font-family="Helvetica,sans-Serif" font-size="11.00">ba_io_calculation</text>
<polygon fill="none" stroke="black" points="359,-457 359,-479 626,-479 626,-457 359,-457"/>
<text text-anchor="start" x="362" y="-465.2" font-family="Helvetica,sans-Serif" font-size="11.00">int4[10]</text>
<polygon fill="none" stroke="black" points="10,-435 10,-457 359,-457 359,-435 10,-435"/>
<text text-anchor="start" x="30" y="-443.2" font-family="Helvetica,sans-Serif" font-size="11.00">ba_kind_water_body</text>
<polygon fill="none" stroke="black" points="359,-435 359,-457 626,-457 626,-435 359,-435"/>
<text text-anchor="start" x="362" y="-443.2" font-family="Helvetica,sans-Serif" font-size="11.00">int4[10]</text>
<polygon fill="none" stroke="black" points="10,-413 10,-435 359,-435 359,-413 10,-413"/>
<text text-anchor="start" x="30" y="-421.2" font-family="Helvetica,sans-Serif" font-size="11.00">ba_outlet_pipe_clear_height</text>
<polygon fill="none" stroke="black" points="359,-413 359,-435 626,-435 626,-413 359,-413"/>
<text text-anchor="start" x="362" y="-421.2" font-family="Helvetica,sans-Serif" font-size="11.00">int4[10]</text>
<polygon fill="none" stroke="black" points="10,-391 10,-413 359,-413 359,-391 10,-391"/>
<text text-anchor="start" x="30" y="-399.2" font-family="Helvetica,sans-Serif" font-size="11.00">ba_q347</text>
<polygon fill="none" stroke="black" points="359,-391 359,-413 626,-413 626,-391 359,-391"/>
<text text-anchor="start" x="362" y="-399.2" font-family="Helvetica,sans-Serif" font-size="11.00">numeric[8,3]</text>
<polygon fill="none" stroke="black" points="10,-369 10,-391 359,-391 359,-369 10,-369"/>
<text text-anchor="start" x="30" y="-377.2" font-family="Helvetica,sans-Serif" font-size="11.00">ba_relevance_matrix</text>
<polygon fill="none" stroke="black" points="359,-369 359,-391 626,-391 626,-369 359,-369"/>
<text text-anchor="start" x="362" y="-377.2" font-family="Helvetica,sans-Serif" font-size="11.00">int4[10]</text>
<polygon fill="none" stroke="black" points="10,-347 10,-369 359,-369 359,-347 10,-347"/>
<text text-anchor="start" x="30" y="-355.2" font-family="Helvetica,sans-Serif" font-size="11.00">ba_relevant_slope</text>
<polygon fill="none" stroke="black" points="359,-347 359,-369 626,-369 626,-347 359,-347"/>
<text text-anchor="start" x="362" y="-355.2" font-family="Helvetica,sans-Serif" font-size="11.00">int2[5]</text>
<polygon fill="none" stroke="black" points="10,-325 10,-347 359,-347 359,-325 10,-325"/>
<text text-anchor="start" x="30" y="-333.2" font-family="Helvetica,sans-Serif" font-size="11.00">ba_surface_water_bodies</text>
<polygon fill="none" stroke="black" points="359,-325 359,-347 626,-347 626,-325 359,-325"/>
<text text-anchor="start" x="362" y="-333.2" font-family="Helvetica,sans-Serif" font-size="11.00">text[2147483647]</text>
<polygon fill="none" stroke="black" points="10,-303 10,-325 359,-325 359,-303 10,-303"/>
<text text-anchor="start" x="30" y="-311.2" font-family="Helvetica,sans-Serif" font-size="11.00">ba_water_specific_discharge_freight_nh4_n_current</text>
<polygon fill="none" stroke="black" points="359,-303 359,-325 626,-325 626,-303 359,-303"/>
<text text-anchor="start" x="362" y="-311.2" font-family="Helvetica,sans-Serif" font-size="11.00">int2[5]</text>
<polygon fill="none" stroke="black" points="10,-281 10,-303 359,-303 359,-281 10,-281"/>
<text text-anchor="start" x="30" y="-289.2" font-family="Helvetica,sans-Serif" font-size="11.00">ba_water_specific_discharge_freight_nh4_n_current_opt</text>
<polygon fill="none" stroke="black" points="359,-281 359,-303 626,-303 626,-281 359,-281"/>
<text text-anchor="start" x="362" y="-289.2" font-family="Helvetica,sans-Serif" font-size="11.00">int2[5]</text>
<polygon fill="none" stroke="black" points="10,-259 10,-281 359,-281 359,-259 10,-259"/>
<text text-anchor="start" x="30" y="-267.2" font-family="Helvetica,sans-Serif" font-size="11.00">ba_water_specific_discharge_freight_nh4_n_planned</text>
<polygon fill="none" stroke="black" points="359,-259 359,-281 626,-281 626,-259 359,-259"/>
<text text-anchor="start" x="362" y="-267.2" font-family="Helvetica,sans-Serif" font-size="11.00">int2[5]</text>
<polygon fill="none" stroke="black" points="10,-237 10,-259 359,-259 359,-237 10,-237"/>
<text text-anchor="start" x="30" y="-245.2" font-family="Helvetica,sans-Serif" font-size="11.00">ex_equipment</text>
<polygon fill="none" stroke="black" points="359,-237 359,-259 626,-259 626,-237 359,-237"/>
<text text-anchor="start" x="362" y="-245.2" font-family="Helvetica,sans-Serif" font-size="11.00">text[2147483647]</text>
<polygon fill="none" stroke="black" points="10,-215 10,-237 359,-237 359,-215 10,-215"/>
<text text-anchor="start" x="30" y="-223.2" font-family="Helvetica,sans-Serif" font-size="11.00">ex_fk_reach_point</text>
<polygon fill="none" stroke="black" points="359,-215 359,-237 626,-237 626,-215 359,-215"/>
<text text-anchor="start" x="362" y="-223.2" font-family="Helvetica,sans-Serif" font-size="11.00">varchar[16]</text>
<polygon fill="none" stroke="black" points="10,-193 10,-215 359,-215 359,-193 10,-193"/>
<text text-anchor="start" x="30" y="-201.2" font-family="Helvetica,sans-Serif" font-size="11.00">ex_from_point_identifier</text>
<polygon fill="none" stroke="black" points="359,-193 359,-215 626,-215 626,-193 359,-193"/>
<text text-anchor="start" x="362" y="-201.2" font-family="Helvetica,sans-Serif" font-size="11.00">text[2147483647]</text>
<polygon fill="none" stroke="black" points="10,-171 10,-193 359,-193 359,-171 10,-171"/>
<text text-anchor="start" x="30" y="-179.2" font-family="Helvetica,sans-Serif" font-size="11.00">ex_inspected_length</text>
<polygon fill="none" stroke="black" points="359,-171 359,-193 626,-193 626,-171 359,-171"/>
<text text-anchor="start" x="362" y="-179.2" font-family="Helvetica,sans-Serif" font-size="11.00">numeric[7,2]</text>
<polygon fill="none" stroke="black" points="10,-149 10,-171 359,-171 359,-149 10,-149"/>
<text text-anchor="start" x="30" y="-157.2" font-family="Helvetica,sans-Serif" font-size="11.00">ex_recording_type</text>
<polygon fill="none" stroke="black" points="359,-149 359,-171 626,-171 626,-149 359,-149"/>
<text text-anchor="start" x="362" y="-157.2" font-family="Helvetica,sans-Serif" font-size="11.00">int4[10]</text>
<polygon fill="none" stroke="black" points="10,-127 10,-149 359,-149 359,-127 10,-127"/>
<text text-anchor="start" x="30" y="-135.2" font-family="Helvetica,sans-Serif" font-size="11.00">ex_to_point_identifier</text>
<polygon fill="none" stroke="black" points="359,-127 359,-149 626,-149 626,-127 359,-127"/>
<text text-anchor="start" x="362" y="-135.2" font-family="Helvetica,sans-Serif" font-size="11.00">text[2147483647]</text>
<polygon fill="none" stroke="black" points="10,-105 10,-127 359,-127 359,-105 10,-105"/>
<text text-anchor="start" x="30" y="-113.2" font-family="Helvetica,sans-Serif" font-size="11.00">ex_vehicle</text>
<polygon fill="none" stroke="black" points="359,-105 359,-127 626,-127 626,-105 359,-105"/>
<text text-anchor="start" x="362" y="-113.2" font-family="Helvetica,sans-Serif" font-size="11.00">text[2147483647]</text>
<polygon fill="none" stroke="black" points="10,-83 10,-105 359,-105 359,-83 10,-83"/>
<text text-anchor="start" x="30" y="-91.2" font-family="Helvetica,sans-Serif" font-size="11.00">ex_videonumber</text>
<polygon fill="none" stroke="black" points="359,-83 359,-105 626,-105 626,-83 359,-83"/>
<text text-anchor="start" x="362" y="-91.2" font-family="Helvetica,sans-Serif" font-size="11.00">text[2147483647]</text>
<polygon fill="none" stroke="black" points="10,-61 10,-83 359,-83 359,-61 10,-61"/>
<text text-anchor="start" x="30" y="-69.2" font-family="Helvetica,sans-Serif" font-size="11.00">ex_weather</text>
<polygon fill="none" stroke="black" points="359,-61 359,-83 626,-83 626,-61 359,-61"/>
<text text-anchor="start" x="362" y="-69.2" font-family="Helvetica,sans-Serif" font-size="11.00">int4[10]</text>
<polygon fill="none" stroke="black" points="10,-39 10,-61 359,-61 359,-39 10,-39"/>
<text text-anchor="start" x="30" y="-47.2" font-family="Helvetica,sans-Serif" font-size="11.00">mn_kind</text>
<polygon fill="none" stroke="black" points="359,-39 359,-61 626,-61 626,-39 359,-39"/>
<text text-anchor="start" x="362" y="-47.2" font-family="Helvetica,sans-Serif" font-size="11.00">int4[10]</text>
<polygon fill="none" stroke="black" stroke-width="2" points="9,-38 9,-1052 627,-1052 627,-38 9,-38"/>
</a>
</g>
</g>
</g>
</svg>
