<?xml version="1.0" encoding="UTF-8" standalone="no"?>
<!DOCTYPE svg PUBLIC "-//W3C//DTD SVG 1.1//EN"
 "http://www.w3.org/Graphics/SVG/1.1/DTD/svg11.dtd">
<!-- Generated by graphviz version 2.43.0 (0)
 -->
<!-- Title: oneDegreeRelationshipsDiagram Pages: 1 -->
<svg width="433pt" height="753pt"
 viewBox="0.00 0.00 433.00 753.00" xmlns="http://www.w3.org/2000/svg" xmlns:xlink="http://www.w3.org/1999/xlink">
<g id="graph0" class="graph" transform="scale(1 1) rotate(0) translate(4 749)">
<title>oneDegreeRelationshipsDiagram</title>
<polygon fill="#ffffff" stroke="transparent" points="-4,4 -4,-749 429,-749 429,4 -4,4"/>
<text text-anchor="middle" x="79.5" y="-7.2" font-family="Helvetica,sans-Serif" font-size="11.00">Generated by SchemaSpy</text>
<!-- dictionary_od_field -->
<g id="node1" class="node">
<title>dictionary_od_field</title>
<g id="a_node1"><a xlink:href="../../tables/dictionary_od_field.html" xlink:title="dictionary_od_field" target="_top">
<polygon fill="#ffffff" stroke="transparent" points="8,-37 8,-741 417,-741 417,-37 8,-37"/>
<polygon fill="#f5f5f5" stroke="transparent" points="10.5,-717 10.5,-739 415.5,-739 415.5,-717 10.5,-717"/>
<polygon fill="none" stroke="black" points="10.5,-717 10.5,-739 415.5,-739 415.5,-717 10.5,-717"/>
<text text-anchor="start" x="15.5" y="-726.2" font-family="Helvetica,sans-Serif" font-weight="bold" font-size="11.00">dictionary_od_field</text>
<text text-anchor="start" x="373.5" y="-725.2" font-family="Helvetica,sans-Serif" font-size="11.00">[table]</text>
<polygon fill="none" stroke="black" points="10.5,-695 10.5,-717 213.5,-717 213.5,-695 10.5,-695"/>
<image xlink:href="../../images/primaryKeys.png" width="11px" height="12px" preserveAspectRatio="xMinYMin meet" x="15.5" y="-712"/>
<text text-anchor="start" x="30.5" y="-703.2" font-family="Helvetica,sans-Serif" font-size="11.00">id</text>
<polygon fill="none" stroke="black" points="213.5,-695 213.5,-717 415.5,-717 415.5,-695 213.5,-695"/>
<text text-anchor="start" x="216.5" y="-703.2" font-family="Helvetica,sans-Serif" font-size="11.00">serial[10]</text>
<polygon fill="#ffffff" stroke="transparent" points="10.5,-673 10.5,-695 213.5,-695 213.5,-673 10.5,-673"/>
<polygon fill="none" stroke="black" points="10.5,-673 10.5,-695 213.5,-695 213.5,-673 10.5,-673"/>
<text text-anchor="start" x="30.5" y="-681.2" font-family="Helvetica,sans-Serif" font-size="11.00">class_id</text>
<polygon fill="none" stroke="black" points="213.5,-673 213.5,-695 415.5,-695 415.5,-673 213.5,-673"/>
<text text-anchor="start" x="216.5" y="-681.2" font-family="Helvetica,sans-Serif" font-size="11.00">int4[10]</text>
<polygon fill="#ffffff" stroke="transparent" points="10.5,-651 10.5,-673 213.5,-673 213.5,-651 10.5,-651"/>
<polygon fill="none" stroke="black" points="10.5,-651 10.5,-673 213.5,-673 213.5,-651 10.5,-651"/>
<text text-anchor="start" x="30.5" y="-659.2" font-family="Helvetica,sans-Serif" font-size="11.00">attribute_id</text>
<polygon fill="none" stroke="black" points="213.5,-651 213.5,-673 415.5,-673 415.5,-651 213.5,-651"/>
<text text-anchor="start" x="216.5" y="-659.2" font-family="Helvetica,sans-Serif" font-size="11.00">int4[10]</text>
<polygon fill="none" stroke="black" points="10.5,-629 10.5,-651 213.5,-651 213.5,-629 10.5,-629"/>
<text text-anchor="start" x="30.5" y="-637.2" font-family="Helvetica,sans-Serif" font-size="11.00">table_name</text>
<polygon fill="none" stroke="black" points="213.5,-629 213.5,-651 415.5,-651 415.5,-629 213.5,-629"/>
<text text-anchor="start" x="216.5" y="-637.2" font-family="Helvetica,sans-Serif" font-size="11.00">varchar[80]</text>
<polygon fill="none" stroke="black" points="10.5,-607 10.5,-629 213.5,-629 213.5,-607 10.5,-607"/>
<text text-anchor="start" x="30.5" y="-615.2" font-family="Helvetica,sans-Serif" font-size="11.00">field_name</text>
<polygon fill="none" stroke="black" points="213.5,-607 213.5,-629 415.5,-629 415.5,-607 213.5,-607"/>
<text text-anchor="start" x="216.5" y="-615.2" font-family="Helvetica,sans-Serif" font-size="11.00">varchar[80]</text>
<polygon fill="none" stroke="black" points="10.5,-585 10.5,-607 213.5,-607 213.5,-585 10.5,-585"/>
<text text-anchor="start" x="30.5" y="-593.2" font-family="Helvetica,sans-Serif" font-size="11.00">field_name_en</text>
<polygon fill="none" stroke="black" points="213.5,-585 213.5,-607 415.5,-607 415.5,-585 213.5,-585"/>
<text text-anchor="start" x="216.5" y="-593.2" font-family="Helvetica,sans-Serif" font-size="11.00">varchar[80]</text>
<polygon fill="none" stroke="black" points="10.5,-563 10.5,-585 213.5,-585 213.5,-563 10.5,-563"/>
<text text-anchor="start" x="30.5" y="-571.2" font-family="Helvetica,sans-Serif" font-size="11.00">field_name_de</text>
<polygon fill="none" stroke="black" points="213.5,-563 213.5,-585 415.5,-585 415.5,-563 213.5,-563"/>
<text text-anchor="start" x="216.5" y="-571.2" font-family="Helvetica,sans-Serif" font-size="11.00">varchar[100]</text>
<polygon fill="none" stroke="black" points="10.5,-541 10.5,-563 213.5,-563 213.5,-541 10.5,-541"/>
<text text-anchor="start" x="30.5" y="-549.2" font-family="Helvetica,sans-Serif" font-size="11.00">field_name_fr</text>
<polygon fill="none" stroke="black" points="213.5,-541 213.5,-563 415.5,-563 415.5,-541 213.5,-541"/>
<text text-anchor="start" x="216.5" y="-549.2" font-family="Helvetica,sans-Serif" font-size="11.00">varchar[100]</text>
<polygon fill="none" stroke="black" points="10.5,-519 10.5,-541 213.5,-541 213.5,-519 10.5,-519"/>
<text text-anchor="start" x="30.5" y="-527.2" font-family="Helvetica,sans-Serif" font-size="11.00">field_name_it</text>
<polygon fill="none" stroke="black" points="213.5,-519 213.5,-541 415.5,-541 415.5,-519 213.5,-519"/>
<text text-anchor="start" x="216.5" y="-527.2" font-family="Helvetica,sans-Serif" font-size="11.00">varchar[100]</text>
<polygon fill="none" stroke="black" points="10.5,-497 10.5,-519 213.5,-519 213.5,-497 10.5,-497"/>
<text text-anchor="start" x="30.5" y="-505.2" font-family="Helvetica,sans-Serif" font-size="11.00">field_name_ro</text>
<polygon fill="none" stroke="black" points="213.5,-497 213.5,-519 415.5,-519 415.5,-497 213.5,-497"/>
<text text-anchor="start" x="216.5" y="-505.2" font-family="Helvetica,sans-Serif" font-size="11.00">varchar[100]</text>
<polygon fill="none" stroke="black" points="10.5,-475 10.5,-497 213.5,-497 213.5,-475 10.5,-475"/>
<text text-anchor="start" x="30.5" y="-483.2" font-family="Helvetica,sans-Serif" font-size="11.00">field_description_en</text>
<polygon fill="none" stroke="black" points="213.5,-475 213.5,-497 415.5,-497 415.5,-475 213.5,-475"/>
<text text-anchor="start" x="216.5" y="-483.2" font-family="Helvetica,sans-Serif" font-size="11.00">text[2147483647]</text>
<polygon fill="none" stroke="black" points="10.5,-453 10.5,-475 213.5,-475 213.5,-453 10.5,-453"/>
<text text-anchor="start" x="30.5" y="-461.2" font-family="Helvetica,sans-Serif" font-size="11.00">field_description_de</text>
<polygon fill="none" stroke="black" points="213.5,-453 213.5,-475 415.5,-475 415.5,-453 213.5,-453"/>
<text text-anchor="start" x="216.5" y="-461.2" font-family="Helvetica,sans-Serif" font-size="11.00">text[2147483647]</text>
<polygon fill="none" stroke="black" points="10.5,-431 10.5,-453 213.5,-453 213.5,-431 10.5,-431"/>
<text text-anchor="start" x="30.5" y="-439.2" font-family="Helvetica,sans-Serif" font-size="11.00">field_description_fr</text>
<polygon fill="none" stroke="black" points="213.5,-431 213.5,-453 415.5,-453 415.5,-431 213.5,-431"/>
<text text-anchor="start" x="216.5" y="-439.2" font-family="Helvetica,sans-Serif" font-size="11.00">text[2147483647]</text>
<polygon fill="none" stroke="black" points="10.5,-409 10.5,-431 213.5,-431 213.5,-409 10.5,-409"/>
<text text-anchor="start" x="30.5" y="-417.2" font-family="Helvetica,sans-Serif" font-size="11.00">field_description_it</text>
<polygon fill="none" stroke="black" points="213.5,-409 213.5,-431 415.5,-431 415.5,-409 213.5,-409"/>
<text text-anchor="start" x="216.5" y="-417.2" font-family="Helvetica,sans-Serif" font-size="11.00">text[2147483647]</text>
<polygon fill="none" stroke="black" points="10.5,-387 10.5,-409 213.5,-409 213.5,-387 10.5,-387"/>
<text text-anchor="start" x="30.5" y="-395.2" font-family="Helvetica,sans-Serif" font-size="11.00">field_description_ro</text>
<polygon fill="none" stroke="black" points="213.5,-387 213.5,-409 415.5,-409 415.5,-387 213.5,-387"/>
<text text-anchor="start" x="216.5" y="-395.2" font-family="Helvetica,sans-Serif" font-size="11.00">text[2147483647]</text>
<polygon fill="none" stroke="black" points="10.5,-365 10.5,-387 213.5,-387 213.5,-365 10.5,-365"/>
<text text-anchor="start" x="30.5" y="-373.2" font-family="Helvetica,sans-Serif" font-size="11.00">field_mandatory</text>
<polygon fill="none" stroke="black" points="213.5,-365 213.5,-387 415.5,-387 415.5,-365 213.5,-365"/>
<text text-anchor="start" x="216.5" y="-373.2" font-family="Helvetica,sans-Serif" font-size="11.00">&quot;tww_od&quot;.&quot;_plantype&quot;[2147483647]</text>
<polygon fill="none" stroke="black" points="10.5,-343 10.5,-365 213.5,-365 213.5,-343 10.5,-343"/>
<text text-anchor="start" x="30.5" y="-351.2" font-family="Helvetica,sans-Serif" font-size="11.00">field_visible</text>
<polygon fill="none" stroke="black" points="213.5,-343 213.5,-365 415.5,-365 415.5,-343 213.5,-343"/>
<text text-anchor="start" x="216.5" y="-351.2" font-family="Helvetica,sans-Serif" font-size="11.00">bool[1]</text>
<polygon fill="none" stroke="black" points="10.5,-321 10.5,-343 213.5,-343 213.5,-321 10.5,-321"/>
<text text-anchor="start" x="30.5" y="-329.2" font-family="Helvetica,sans-Serif" font-size="11.00">field_datatype</text>
<polygon fill="none" stroke="black" points="213.5,-321 213.5,-343 415.5,-343 415.5,-321 213.5,-321"/>
<text text-anchor="start" x="216.5" y="-329.2" font-family="Helvetica,sans-Serif" font-size="11.00">varchar[40]</text>
<polygon fill="none" stroke="black" points="10.5,-299 10.5,-321 213.5,-321 213.5,-299 10.5,-299"/>
<text text-anchor="start" x="30.5" y="-307.2" font-family="Helvetica,sans-Serif" font-size="11.00">field_unit_de</text>
<polygon fill="none" stroke="black" points="213.5,-299 213.5,-321 415.5,-321 415.5,-299 213.5,-299"/>
<text text-anchor="start" x="216.5" y="-307.2" font-family="Helvetica,sans-Serif" font-size="11.00">varchar[20]</text>
<polygon fill="none" stroke="black" points="10.5,-277 10.5,-299 213.5,-299 213.5,-277 10.5,-277"/>
<text text-anchor="start" x="30.5" y="-285.2" font-family="Helvetica,sans-Serif" font-size="11.00">field_unit_description_de</text>
<polygon fill="none" stroke="black" points="213.5,-277 213.5,-299 415.5,-299 415.5,-277 213.5,-277"/>
<text text-anchor="start" x="216.5" y="-285.2" font-family="Helvetica,sans-Serif" font-size="11.00">varchar[90]</text>
<polygon fill="none" stroke="black" points="10.5,-255 10.5,-277 213.5,-277 213.5,-255 10.5,-255"/>
<text text-anchor="start" x="30.5" y="-263.2" font-family="Helvetica,sans-Serif" font-size="11.00">field_unit_en</text>
<polygon fill="none" stroke="black" points="213.5,-255 213.5,-277 415.5,-277 415.5,-255 213.5,-255"/>
<text text-anchor="start" x="216.5" y="-263.2" font-family="Helvetica,sans-Serif" font-size="11.00">varchar[20]</text>
<polygon fill="none" stroke="black" points="10.5,-233 10.5,-255 213.5,-255 213.5,-233 10.5,-233"/>
<text text-anchor="start" x="30.5" y="-241.2" font-family="Helvetica,sans-Serif" font-size="11.00">field_unit_description_en</text>
<polygon fill="none" stroke="black" points="213.5,-233 213.5,-255 415.5,-255 415.5,-233 213.5,-233"/>
<text text-anchor="start" x="216.5" y="-241.2" font-family="Helvetica,sans-Serif" font-size="11.00">varchar[90]</text>
<polygon fill="none" stroke="black" points="10.5,-211 10.5,-233 213.5,-233 213.5,-211 10.5,-211"/>
<text text-anchor="start" x="30.5" y="-219.2" font-family="Helvetica,sans-Serif" font-size="11.00">field_unit_fr</text>
<polygon fill="none" stroke="black" points="213.5,-211 213.5,-233 415.5,-233 415.5,-211 213.5,-211"/>
<text text-anchor="start" x="216.5" y="-219.2" font-family="Helvetica,sans-Serif" font-size="11.00">varchar[20]</text>
<polygon fill="none" stroke="black" points="10.5,-189 10.5,-211 213.5,-211 213.5,-189 10.5,-189"/>
<text text-anchor="start" x="30.5" y="-197.2" font-family="Helvetica,sans-Serif" font-size="11.00">field_unit_description_fr</text>
<polygon fill="none" stroke="black" points="213.5,-189 213.5,-211 415.5,-211 415.5,-189 213.5,-189"/>
<text text-anchor="start" x="216.5" y="-197.2" font-family="Helvetica,sans-Serif" font-size="11.00">varchar[90]</text>
<polygon fill="none" stroke="black" points="10.5,-167 10.5,-189 213.5,-189 213.5,-167 10.5,-167"/>
<text text-anchor="start" x="30.5" y="-175.2" font-family="Helvetica,sans-Serif" font-size="11.00">field_unit_it</text>
<polygon fill="none" stroke="black" points="213.5,-167 213.5,-189 415.5,-189 415.5,-167 213.5,-167"/>
<text text-anchor="start" x="216.5" y="-175.2" font-family="Helvetica,sans-Serif" font-size="11.00">varchar[20]</text>
<polygon fill="none" stroke="black" points="10.5,-145 10.5,-167 213.5,-167 213.5,-145 10.5,-145"/>
<text text-anchor="start" x="30.5" y="-153.2" font-family="Helvetica,sans-Serif" font-size="11.00">field_unit_description_it</text>
<polygon fill="none" stroke="black" points="213.5,-145 213.5,-167 415.5,-167 415.5,-145 213.5,-145"/>
<text text-anchor="start" x="216.5" y="-153.2" font-family="Helvetica,sans-Serif" font-size="11.00">varchar[90]</text>
<polygon fill="none" stroke="black" points="10.5,-123 10.5,-145 213.5,-145 213.5,-123 10.5,-123"/>
<text text-anchor="start" x="30.5" y="-131.2" font-family="Helvetica,sans-Serif" font-size="11.00">field_unit_ro</text>
<polygon fill="none" stroke="black" points="213.5,-123 213.5,-145 415.5,-145 415.5,-123 213.5,-123"/>
<text text-anchor="start" x="216.5" y="-131.2" font-family="Helvetica,sans-Serif" font-size="11.00">varchar[20]</text>
<polygon fill="none" stroke="black" points="10.5,-101 10.5,-123 213.5,-123 213.5,-101 10.5,-101"/>
<text text-anchor="start" x="30.5" y="-109.2" font-family="Helvetica,sans-Serif" font-size="11.00">field_unit_description_ro</text>
<polygon fill="none" stroke="black" points="213.5,-101 213.5,-123 415.5,-123 415.5,-101 213.5,-101"/>
<text text-anchor="start" x="216.5" y="-109.2" font-family="Helvetica,sans-Serif" font-size="11.00">varchar[90]</text>
<polygon fill="none" stroke="black" points="10.5,-79 10.5,-101 213.5,-101 213.5,-79 10.5,-79"/>
<text text-anchor="start" x="30.5" y="-87.2" font-family="Helvetica,sans-Serif" font-size="11.00">field_min</text>
<polygon fill="none" stroke="black" points="213.5,-79 213.5,-101 415.5,-101 415.5,-79 213.5,-79"/>
<text text-anchor="start" x="216.5" y="-87.2" font-family="Helvetica,sans-Serif" font-size="11.00">numeric[0]</text>
<polygon fill="none" stroke="black" points="10.5,-57 10.5,-79 213.5,-79 213.5,-57 10.5,-57"/>
<text text-anchor="start" x="30.5" y="-65.2" font-family="Helvetica,sans-Serif" font-size="11.00">field_max</text>
<polygon fill="none" stroke="black" points="213.5,-57 213.5,-79 415.5,-79 415.5,-57 213.5,-57"/>
<text text-anchor="start" x="216.5" y="-65.2" font-family="Helvetica,sans-Serif" font-size="11.00">numeric[0]</text>
<polygon fill="#ffffff" stroke="transparent" points="10.5,-39 10.5,-57 415.5,-57 415.5,-39 10.5,-39"/>
<polygon fill="none" stroke="black" points="10.5,-39 10.5,-57 415.5,-57 415.5,-39 10.5,-39"/>
<polygon fill="#ffffff" stroke="transparent" points="11.5,-40 11.5,-56 135.5,-56 135.5,-40 11.5,-40"/>
<text text-anchor="start" x="13.5" y="-45.2" font-family="Helvetica,sans-Serif" font-size="11.00">&lt; 0</text>
<polygon fill="#ffffff" stroke="transparent" points="135.5,-40 135.5,-56 290.5,-56 290.5,-40 135.5,-40"/>
<text text-anchor="start" x="187.5" y="-45.2" font-family="Helvetica,sans-Serif" font-size="11.00">738 rows</text>
<polygon fill="#ffffff" stroke="transparent" points="290.5,-40 290.5,-56 414.5,-56 414.5,-40 290.5,-40"/>
<text text-anchor="start" x="392.5" y="-45.2" font-family="Helvetica,sans-Serif" font-size="11.00">0 &gt;</text>
<polygon fill="black" stroke="black" points="135.5,-40 135.5,-56 135.5,-56 135.5,-40 135.5,-40"/>
<polygon fill="black" stroke="black" points="290.5,-40 290.5,-56 290.5,-56 290.5,-40 290.5,-40"/>
<polygon fill="none" stroke="black" stroke-width="2" points="9,-38 9,-740 416,-740 416,-38 9,-38"/>
</a>
</g>
</g>
</g>
</svg>
