<?xml version="1.0" encoding="UTF-8" standalone="no"?>
<!DOCTYPE svg PUBLIC "-//W3C//DTD SVG 1.1//EN"
 "http://www.w3.org/Graphics/SVG/1.1/DTD/svg11.dtd">
<!-- Generated by graphviz version 2.43.0 (0)
 -->
<!-- Title: oneDegreeRelationshipsDiagram Pages: 1 -->
<svg width="289pt" height="317pt"
 viewBox="0.00 0.00 289.00 317.00" xmlns="http://www.w3.org/2000/svg" xmlns:xlink="http://www.w3.org/1999/xlink">
<g id="graph0" class="graph" transform="scale(1 1) rotate(0) translate(4 313)">
<title>oneDegreeRelationshipsDiagram</title>
<polygon fill="#ffffff" stroke="transparent" points="-4,4 -4,-313 285,-313 285,4 -4,4"/>
<text text-anchor="middle" x="79.5" y="-7.2" font-family="Helvetica,sans-Serif" font-size="11.00">Generated by SchemaSpy</text>
<!-- swmm_vw_orifices -->
<g id="node1" class="node">
<title>swmm_vw_orifices</title>
<g id="a_node1"><a xlink:href="../../tables/swmm_vw_orifices.html" xlink:title="swmm_vw_orifices" target="_top">
<polygon fill="#ffffff" stroke="transparent" points="8,-37 8,-305 273,-305 273,-37 8,-37"/>
<polygon fill="#f5f5f5" stroke="transparent" points="10.5,-281 10.5,-303 271.5,-303 271.5,-281 10.5,-281"/>
<polygon fill="none" stroke="black" points="10.5,-281 10.5,-303 271.5,-303 271.5,-281 10.5,-281"/>
<text text-anchor="start" x="15.5" y="-290.2" font-family="Helvetica,sans-Serif" font-weight="bold" font-size="11.00">swmm_vw_orifices</text>
<text text-anchor="start" x="231.5" y="-289.2" font-family="Helvetica,sans-Serif" font-size="11.00">[view]</text>
<polygon fill="none" stroke="black" points="10.5,-259 10.5,-281 165.5,-281 165.5,-259 10.5,-259"/>
<text text-anchor="start" x="30.5" y="-267.2" font-family="Helvetica,sans-Serif" font-size="11.00">name</text>
<polygon fill="none" stroke="black" points="165.5,-259 165.5,-281 271.5,-281 271.5,-259 165.5,-259"/>
<text text-anchor="start" x="168.5" y="-267.2" font-family="Helvetica,sans-Serif" font-size="11.00">text[2147483647]</text>
<polygon fill="none" stroke="black" points="10.5,-237 10.5,-259 165.5,-259 165.5,-237 10.5,-237"/>
<text text-anchor="start" x="30.5" y="-245.2" font-family="Helvetica,sans-Serif" font-size="11.00">fromnode</text>
<polygon fill="none" stroke="black" points="165.5,-237 165.5,-259 271.5,-259 271.5,-237 165.5,-237"/>
<text text-anchor="start" x="168.5" y="-245.2" font-family="Helvetica,sans-Serif" font-size="11.00">text[2147483647]</text>
<polygon fill="none" stroke="black" points="10.5,-215 10.5,-237 165.5,-237 165.5,-215 10.5,-215"/>
<text text-anchor="start" x="30.5" y="-223.2" font-family="Helvetica,sans-Serif" font-size="11.00">tonode</text>
<polygon fill="none" stroke="black" points="165.5,-215 165.5,-237 271.5,-237 271.5,-215 165.5,-215"/>
<text text-anchor="start" x="168.5" y="-223.2" font-family="Helvetica,sans-Serif" font-size="11.00">text[2147483647]</text>
<polygon fill="none" stroke="black" points="10.5,-193 10.5,-215 165.5,-215 165.5,-193 10.5,-193"/>
<text text-anchor="start" x="30.5" y="-201.2" font-family="Helvetica,sans-Serif" font-size="11.00">type</text>
<polygon fill="none" stroke="black" points="165.5,-193 165.5,-215 271.5,-215 271.5,-193 165.5,-193"/>
<text text-anchor="start" x="168.5" y="-201.2" font-family="Helvetica,sans-Serif" font-size="11.00">text[2147483647]</text>
<polygon fill="none" stroke="black" points="10.5,-171 10.5,-193 165.5,-193 165.5,-171 10.5,-171"/>
<text text-anchor="start" x="30.5" y="-179.2" font-family="Helvetica,sans-Serif" font-size="11.00">offset</text>
<polygon fill="none" stroke="black" points="165.5,-171 165.5,-193 271.5,-193 271.5,-171 165.5,-171"/>
<text text-anchor="start" x="168.5" y="-179.2" font-family="Helvetica,sans-Serif" font-size="11.00">text[2147483647]</text>
<polygon fill="none" stroke="black" points="10.5,-149 10.5,-171 165.5,-171 165.5,-149 10.5,-149"/>
<text text-anchor="start" x="30.5" y="-157.2" font-family="Helvetica,sans-Serif" font-size="11.00">qcoeff</text>
<polygon fill="none" stroke="black" points="165.5,-149 165.5,-171 271.5,-171 271.5,-149 165.5,-149"/>
<text text-anchor="start" x="168.5" y="-157.2" font-family="Helvetica,sans-Serif" font-size="11.00">text[2147483647]</text>
<polygon fill="none" stroke="black" points="10.5,-127 10.5,-149 165.5,-149 165.5,-127 10.5,-127"/>
<text text-anchor="start" x="30.5" y="-135.2" font-family="Helvetica,sans-Serif" font-size="11.00">gated</text>
<polygon fill="none" stroke="black" points="165.5,-127 165.5,-149 271.5,-149 271.5,-127 165.5,-127"/>
<text text-anchor="start" x="168.5" y="-135.2" font-family="Helvetica,sans-Serif" font-size="11.00">text[2147483647]</text>
<polygon fill="none" stroke="black" points="10.5,-105 10.5,-127 165.5,-127 165.5,-105 10.5,-105"/>
<text text-anchor="start" x="30.5" y="-113.2" font-family="Helvetica,sans-Serif" font-size="11.00">closetime</text>
<polygon fill="none" stroke="black" points="165.5,-105 165.5,-127 271.5,-127 271.5,-105 165.5,-105"/>
<text text-anchor="start" x="168.5" y="-113.2" font-family="Helvetica,sans-Serif" font-size="11.00">text[2147483647]</text>
<polygon fill="none" stroke="black" points="10.5,-83 10.5,-105 165.5,-105 165.5,-83 10.5,-83"/>
<text text-anchor="start" x="30.5" y="-91.2" font-family="Helvetica,sans-Serif" font-size="11.00">state</text>
<polygon fill="none" stroke="black" points="165.5,-83 165.5,-105 271.5,-105 271.5,-83 165.5,-83"/>
<text text-anchor="start" x="168.5" y="-91.2" font-family="Helvetica,sans-Serif" font-size="11.00">text[2147483647]</text>
<polygon fill="none" stroke="black" points="10.5,-61 10.5,-83 165.5,-83 165.5,-61 10.5,-61"/>
<text text-anchor="start" x="30.5" y="-69.2" font-family="Helvetica,sans-Serif" font-size="11.00">hierarchy</text>
<polygon fill="none" stroke="black" points="165.5,-61 165.5,-83 271.5,-83 271.5,-61 165.5,-61"/>
<text text-anchor="start" x="168.5" y="-69.2" font-family="Helvetica,sans-Serif" font-size="11.00">text[2147483647]</text>
<polygon fill="none" stroke="black" points="10.5,-39 10.5,-61 165.5,-61 165.5,-39 10.5,-39"/>
<text text-anchor="start" x="30.5" y="-47.2" font-family="Helvetica,sans-Serif" font-size="11.00">obj_id</text>
<polygon fill="none" stroke="black" points="165.5,-39 165.5,-61 271.5,-61 271.5,-39 165.5,-39"/>
<text text-anchor="start" x="168.5" y="-47.2" font-family="Helvetica,sans-Serif" font-size="11.00">text[2147483647]</text>
<polygon fill="none" stroke="black" stroke-width="2" points="9,-38 9,-304 272,-304 272,-38 9,-38"/>
</a>
</g>
</g>
</g>
</svg>
