<?xml version="1.0" encoding="UTF-8" standalone="no"?>
<!DOCTYPE svg PUBLIC "-//W3C//DTD SVG 1.1//EN"
 "http://www.w3.org/Graphics/SVG/1.1/DTD/svg11.dtd">
<!-- Generated by graphviz version 2.43.0 (0)
 -->
<!-- Title: oneDegreeRelationshipsDiagram Pages: 1 -->
<svg width="304pt" height="317pt"
 viewBox="0.00 0.00 304.00 317.00" xmlns="http://www.w3.org/2000/svg" xmlns:xlink="http://www.w3.org/1999/xlink">
<g id="graph0" class="graph" transform="scale(1 1) rotate(0) translate(4 313)">
<title>oneDegreeRelationshipsDiagram</title>
<polygon fill="#ffffff" stroke="transparent" points="-4,4 -4,-313 300,-313 300,4 -4,4"/>
<text text-anchor="middle" x="79.5" y="-7.2" font-family="Helvetica,sans-Serif" font-size="11.00">Generated by SchemaSpy</text>
<!-- swmm_vw_xsections -->
<g id="node1" class="node">
<title>swmm_vw_xsections</title>
<g id="a_node1"><a xlink:href="../../tables/swmm_vw_xsections.html" xlink:title="swmm_vw_xsections" target="_top">
<polygon fill="#ffffff" stroke="transparent" points="8,-37 8,-305 288,-305 288,-37 8,-37"/>
<polygon fill="#f5f5f5" stroke="transparent" points="10,-281 10,-303 286,-303 286,-281 10,-281"/>
<polygon fill="none" stroke="black" points="10,-281 10,-303 286,-303 286,-281 10,-281"/>
<text text-anchor="start" x="15" y="-290.2" font-family="Helvetica,sans-Serif" font-weight="bold" font-size="11.00">swmm_vw_xsections</text>
<text text-anchor="start" x="246" y="-289.2" font-family="Helvetica,sans-Serif" font-size="11.00">[view]</text>
<polygon fill="none" stroke="black" points="10,-259 10,-281 180,-281 180,-259 10,-259"/>
<text text-anchor="start" x="30" y="-267.2" font-family="Helvetica,sans-Serif" font-size="11.00">link</text>
<polygon fill="none" stroke="black" points="180,-259 180,-281 286,-281 286,-259 180,-259"/>
<text text-anchor="start" x="183" y="-267.2" font-family="Helvetica,sans-Serif" font-size="11.00">varchar[16]</text>
<polygon fill="none" stroke="black" points="10,-237 10,-259 180,-259 180,-237 10,-237"/>
<text text-anchor="start" x="30" y="-245.2" font-family="Helvetica,sans-Serif" font-size="11.00">shape</text>
<polygon fill="none" stroke="black" points="180,-237 180,-259 286,-259 286,-237 180,-237"/>
<text text-anchor="start" x="183" y="-245.2" font-family="Helvetica,sans-Serif" font-size="11.00">text[2147483647]</text>
<polygon fill="none" stroke="black" points="10,-215 10,-237 180,-237 180,-215 10,-215"/>
<text text-anchor="start" x="30" y="-223.2" font-family="Helvetica,sans-Serif" font-size="11.00">geom1</text>
<polygon fill="none" stroke="black" points="180,-215 180,-237 286,-237 286,-215 180,-215"/>
<text text-anchor="start" x="183" y="-223.2" font-family="Helvetica,sans-Serif" font-size="11.00">float8[17,17]</text>
<polygon fill="none" stroke="black" points="10,-193 10,-215 180,-215 180,-193 10,-193"/>
<text text-anchor="start" x="30" y="-201.2" font-family="Helvetica,sans-Serif" font-size="11.00">geom2</text>
<polygon fill="none" stroke="black" points="180,-193 180,-215 286,-215 286,-193 180,-193"/>
<text text-anchor="start" x="183" y="-201.2" font-family="Helvetica,sans-Serif" font-size="11.00">float8[17,17]</text>
<polygon fill="none" stroke="black" points="10,-171 10,-193 180,-193 180,-171 10,-171"/>
<text text-anchor="start" x="30" y="-179.2" font-family="Helvetica,sans-Serif" font-size="11.00">geom3</text>
<polygon fill="none" stroke="black" points="180,-171 180,-193 286,-193 286,-171 180,-171"/>
<text text-anchor="start" x="183" y="-179.2" font-family="Helvetica,sans-Serif" font-size="11.00">int4[10]</text>
<polygon fill="none" stroke="black" points="10,-149 10,-171 180,-171 180,-149 10,-149"/>
<text text-anchor="start" x="30" y="-157.2" font-family="Helvetica,sans-Serif" font-size="11.00">geom4</text>
<polygon fill="none" stroke="black" points="180,-149 180,-171 286,-171 286,-149 180,-149"/>
<text text-anchor="start" x="183" y="-157.2" font-family="Helvetica,sans-Serif" font-size="11.00">int4[10]</text>
<polygon fill="none" stroke="black" points="10,-127 10,-149 180,-149 180,-127 10,-127"/>
<text text-anchor="start" x="30" y="-135.2" font-family="Helvetica,sans-Serif" font-size="11.00">barrels</text>
<polygon fill="none" stroke="black" points="180,-127 180,-149 286,-149 286,-127 180,-127"/>
<text text-anchor="start" x="183" y="-135.2" font-family="Helvetica,sans-Serif" font-size="11.00">int4[10]</text>
<polygon fill="none" stroke="black" points="10,-105 10,-127 180,-127 180,-105 10,-105"/>
<text text-anchor="start" x="30" y="-113.2" font-family="Helvetica,sans-Serif" font-size="11.00">culvert</text>
<polygon fill="none" stroke="black" points="180,-105 180,-127 286,-127 286,-105 180,-105"/>
<text text-anchor="start" x="183" y="-113.2" font-family="Helvetica,sans-Serif" font-size="11.00">int4[10]</text>
<polygon fill="none" stroke="black" points="10,-83 10,-105 180,-105 180,-83 10,-83"/>
<text text-anchor="start" x="30" y="-91.2" font-family="Helvetica,sans-Serif" font-size="11.00">state</text>
<polygon fill="none" stroke="black" points="180,-83 180,-105 286,-105 286,-83 180,-83"/>
<text text-anchor="start" x="183" y="-91.2" font-family="Helvetica,sans-Serif" font-size="11.00">text[2147483647]</text>
<polygon fill="none" stroke="black" points="10,-61 10,-83 180,-83 180,-61 10,-61"/>
<text text-anchor="start" x="30" y="-69.2" font-family="Helvetica,sans-Serif" font-size="11.00">hierarchy</text>
<polygon fill="none" stroke="black" points="180,-61 180,-83 286,-83 286,-61 180,-61"/>
<text text-anchor="start" x="183" y="-69.2" font-family="Helvetica,sans-Serif" font-size="11.00">text[2147483647]</text>
<polygon fill="none" stroke="black" points="10,-39 10,-61 180,-61 180,-39 10,-39"/>
<text text-anchor="start" x="30" y="-47.2" font-family="Helvetica,sans-Serif" font-size="11.00">obj_id</text>
<polygon fill="none" stroke="black" points="180,-39 180,-61 286,-61 286,-39 180,-39"/>
<text text-anchor="start" x="183" y="-47.2" font-family="Helvetica,sans-Serif" font-size="11.00">varchar[16]</text>
<polygon fill="none" stroke="black" stroke-width="2" points="9,-38 9,-304 287,-304 287,-38 9,-38"/>
</a>
</g>
</g>
</g>
</svg>
