<?xml version="1.0" encoding="UTF-8" standalone="no"?>
<!DOCTYPE svg PUBLIC "-//W3C//DTD SVG 1.1//EN"
 "http://www.w3.org/Graphics/SVG/1.1/DTD/svg11.dtd">
<!-- Generated by graphviz version 2.43.0 (0)
 -->
<!-- Title: oneDegreeRelationshipsDiagram Pages: 1 -->
<svg width="437pt" height="317pt"
 viewBox="0.00 0.00 437.00 317.00" xmlns="http://www.w3.org/2000/svg" xmlns:xlink="http://www.w3.org/1999/xlink">
<g id="graph0" class="graph" transform="scale(1 1) rotate(0) translate(4 313)">
<title>oneDegreeRelationshipsDiagram</title>
<polygon fill="#ffffff" stroke="transparent" points="-4,4 -4,-313 433,-313 433,4 -4,4"/>
<text text-anchor="middle" x="79.5" y="-7.2" font-family="Helvetica,sans-Serif" font-size="11.00">Generated by SchemaSpy</text>
<!-- swmm_vw_outlets -->
<g id="node1" class="node">
<title>swmm_vw_outlets</title>
<g id="a_node1"><a xlink:href="../../tables/swmm_vw_outlets.html" xlink:title="swmm_vw_outlets" target="_top">
<polygon fill="#ffffff" stroke="transparent" points="8,-37 8,-305 421,-305 421,-37 8,-37"/>
<polygon fill="#f5f5f5" stroke="transparent" points="10.5,-281 10.5,-303 419.5,-303 419.5,-281 10.5,-281"/>
<polygon fill="none" stroke="black" points="10.5,-281 10.5,-303 419.5,-303 419.5,-281 10.5,-281"/>
<text text-anchor="start" x="15.5" y="-290.2" font-family="Helvetica,sans-Serif" font-weight="bold" font-size="11.00">swmm_vw_outlets</text>
<text text-anchor="start" x="379.5" y="-289.2" font-family="Helvetica,sans-Serif" font-size="11.00">[view]</text>
<polygon fill="none" stroke="black" points="10.5,-259 10.5,-281 162.5,-281 162.5,-259 10.5,-259"/>
<text text-anchor="start" x="30.5" y="-267.2" font-family="Helvetica,sans-Serif" font-size="11.00">name</text>
<polygon fill="none" stroke="black" points="162.5,-259 162.5,-281 419.5,-281 419.5,-259 162.5,-259"/>
<text text-anchor="start" x="165.5" y="-267.2" font-family="Helvetica,sans-Serif" font-size="11.00">text[2147483647]</text>
<polygon fill="none" stroke="black" points="10.5,-237 10.5,-259 162.5,-259 162.5,-237 10.5,-237"/>
<text text-anchor="start" x="30.5" y="-245.2" font-family="Helvetica,sans-Serif" font-size="11.00">fromnode</text>
<polygon fill="none" stroke="black" points="162.5,-237 162.5,-259 419.5,-259 419.5,-237 162.5,-237"/>
<text text-anchor="start" x="165.5" y="-245.2" font-family="Helvetica,sans-Serif" font-size="11.00">varchar[16]</text>
<polygon fill="none" stroke="black" points="10.5,-215 10.5,-237 162.5,-237 162.5,-215 10.5,-215"/>
<text text-anchor="start" x="30.5" y="-223.2" font-family="Helvetica,sans-Serif" font-size="11.00">tonode</text>
<polygon fill="none" stroke="black" points="162.5,-215 162.5,-237 419.5,-237 419.5,-215 162.5,-215"/>
<text text-anchor="start" x="165.5" y="-223.2" font-family="Helvetica,sans-Serif" font-size="11.00">varchar[16]</text>
<polygon fill="none" stroke="black" points="10.5,-193 10.5,-215 162.5,-215 162.5,-193 10.5,-193"/>
<text text-anchor="start" x="30.5" y="-201.2" font-family="Helvetica,sans-Serif" font-size="11.00">offset</text>
<polygon fill="none" stroke="black" points="162.5,-193 162.5,-215 419.5,-215 419.5,-193 162.5,-193"/>
<text text-anchor="start" x="165.5" y="-201.2" font-family="Helvetica,sans-Serif" font-size="11.00">int4[10]</text>
<polygon fill="none" stroke="black" points="10.5,-171 10.5,-193 162.5,-193 162.5,-171 10.5,-171"/>
<text text-anchor="start" x="30.5" y="-179.2" font-family="Helvetica,sans-Serif" font-size="11.00">type</text>
<polygon fill="none" stroke="black" points="162.5,-171 162.5,-193 419.5,-193 419.5,-171 162.5,-171"/>
<text text-anchor="start" x="165.5" y="-179.2" font-family="Helvetica,sans-Serif" font-size="11.00">text[2147483647]</text>
<polygon fill="none" stroke="black" points="10.5,-149 10.5,-171 162.5,-171 162.5,-149 10.5,-149"/>
<text text-anchor="start" x="30.5" y="-157.2" font-family="Helvetica,sans-Serif" font-size="11.00">qtable_qcoeff</text>
<polygon fill="none" stroke="black" points="162.5,-149 162.5,-171 419.5,-171 419.5,-149 162.5,-149"/>
<text text-anchor="start" x="165.5" y="-157.2" font-family="Helvetica,sans-Serif" font-size="11.00">text[2147483647]</text>
<polygon fill="none" stroke="black" points="10.5,-127 10.5,-149 162.5,-149 162.5,-127 10.5,-127"/>
<text text-anchor="start" x="30.5" y="-135.2" font-family="Helvetica,sans-Serif" font-size="11.00">qexpon</text>
<polygon fill="none" stroke="black" points="162.5,-127 162.5,-149 419.5,-149 419.5,-127 162.5,-127"/>
<text text-anchor="start" x="165.5" y="-135.2" font-family="Helvetica,sans-Serif" font-size="11.00">text[2147483647]</text>
<polygon fill="none" stroke="black" points="10.5,-105 10.5,-127 162.5,-127 162.5,-105 10.5,-105"/>
<text text-anchor="start" x="30.5" y="-113.2" font-family="Helvetica,sans-Serif" font-size="11.00">gated</text>
<polygon fill="none" stroke="black" points="162.5,-105 162.5,-127 419.5,-127 419.5,-105 162.5,-105"/>
<text text-anchor="start" x="165.5" y="-113.2" font-family="Helvetica,sans-Serif" font-size="11.00">text[2147483647]</text>
<polygon fill="none" stroke="black" points="10.5,-83 10.5,-105 162.5,-105 162.5,-83 10.5,-83"/>
<text text-anchor="start" x="30.5" y="-91.2" font-family="Helvetica,sans-Serif" font-size="11.00">state</text>
<polygon fill="none" stroke="black" points="162.5,-83 162.5,-105 419.5,-105 419.5,-83 162.5,-83"/>
<text text-anchor="start" x="165.5" y="-91.2" font-family="Helvetica,sans-Serif" font-size="11.00">text[2147483647]</text>
<polygon fill="none" stroke="black" points="10.5,-61 10.5,-83 162.5,-83 162.5,-61 10.5,-61"/>
<text text-anchor="start" x="30.5" y="-69.2" font-family="Helvetica,sans-Serif" font-size="11.00">hierarchy</text>
<polygon fill="none" stroke="black" points="162.5,-61 162.5,-83 419.5,-83 419.5,-61 162.5,-61"/>
<text text-anchor="start" x="165.5" y="-69.2" font-family="Helvetica,sans-Serif" font-size="11.00">text[2147483647]</text>
<polygon fill="none" stroke="black" points="10.5,-39 10.5,-61 162.5,-61 162.5,-39 10.5,-39"/>
<text text-anchor="start" x="30.5" y="-47.2" font-family="Helvetica,sans-Serif" font-size="11.00">obj_id</text>
<polygon fill="none" stroke="black" points="162.5,-39 162.5,-61 419.5,-61 419.5,-39 162.5,-39"/>
<text text-anchor="start" x="165.5" y="-47.2" font-family="Helvetica,sans-Serif" font-size="11.00">&quot;tww_od&quot;.&quot;interlis_standardoid&quot;[2147483647]</text>
<polygon fill="none" stroke="black" stroke-width="2" points="9,-38 9,-304 420,-304 420,-38 9,-38"/>
</a>
</g>
</g>
</g>
</svg>
