<?xml version="1.0" encoding="UTF-8" standalone="no"?>
<!DOCTYPE svg PUBLIC "-//W3C//DTD SVG 1.1//EN"
 "http://www.w3.org/Graphics/SVG/1.1/DTD/svg11.dtd">
<!-- Generated by graphviz version 2.43.0 (0)
 -->
<!-- Title: oneDegreeRelationshipsDiagram Pages: 1 -->
<svg width="328pt" height="405pt"
 viewBox="0.00 0.00 328.00 405.00" xmlns="http://www.w3.org/2000/svg" xmlns:xlink="http://www.w3.org/1999/xlink">
<g id="graph0" class="graph" transform="scale(1 1) rotate(0) translate(4 401)">
<title>oneDegreeRelationshipsDiagram</title>
<polygon fill="#ffffff" stroke="transparent" points="-4,4 -4,-401 324,-401 324,4 -4,4"/>
<text text-anchor="middle" x="79.5" y="-7.2" font-family="Helvetica,sans-Serif" font-size="11.00">Generated by SchemaSpy</text>
<!-- swmm_vw_conduits -->
<g id="node1" class="node">
<title>swmm_vw_conduits</title>
<g id="a_node1"><a xlink:href="../../tables/swmm_vw_conduits.html" xlink:title="swmm_vw_conduits" target="_top">
<polygon fill="#ffffff" stroke="transparent" points="8,-37 8,-393 312,-393 312,-37 8,-37"/>
<polygon fill="#f5f5f5" stroke="transparent" points="10,-369 10,-391 310,-391 310,-369 10,-369"/>
<polygon fill="none" stroke="black" points="10,-369 10,-391 310,-391 310,-369 10,-369"/>
<text text-anchor="start" x="15" y="-378.2" font-family="Helvetica,sans-Serif" font-weight="bold" font-size="11.00">swmm_vw_conduits</text>
<text text-anchor="start" x="270" y="-377.2" font-family="Helvetica,sans-Serif" font-size="11.00">[view]</text>
<polygon fill="none" stroke="black" points="10,-347 10,-369 174,-369 174,-347 10,-347"/>
<text text-anchor="start" x="30" y="-355.2" font-family="Helvetica,sans-Serif" font-size="11.00">name</text>
<polygon fill="none" stroke="black" points="174,-347 174,-369 310,-369 310,-347 174,-347"/>
<text text-anchor="start" x="177" y="-355.2" font-family="Helvetica,sans-Serif" font-size="11.00">varchar[16]</text>
<polygon fill="none" stroke="black" points="10,-325 10,-347 174,-347 174,-325 10,-325"/>
<text text-anchor="start" x="30" y="-333.2" font-family="Helvetica,sans-Serif" font-size="11.00">fromnode</text>
<polygon fill="none" stroke="black" points="174,-325 174,-347 310,-347 310,-325 174,-325"/>
<text text-anchor="start" x="177" y="-333.2" font-family="Helvetica,sans-Serif" font-size="11.00">varchar[2147483647]</text>
<polygon fill="none" stroke="black" points="10,-303 10,-325 174,-325 174,-303 10,-303"/>
<text text-anchor="start" x="30" y="-311.2" font-family="Helvetica,sans-Serif" font-size="11.00">tonode</text>
<polygon fill="none" stroke="black" points="174,-303 174,-325 310,-325 310,-303 174,-303"/>
<text text-anchor="start" x="177" y="-311.2" font-family="Helvetica,sans-Serif" font-size="11.00">varchar[2147483647]</text>
<polygon fill="none" stroke="black" points="10,-281 10,-303 174,-303 174,-281 10,-281"/>
<text text-anchor="start" x="30" y="-289.2" font-family="Helvetica,sans-Serif" font-size="11.00">length</text>
<polygon fill="none" stroke="black" points="174,-281 174,-303 310,-303 310,-281 174,-281"/>
<text text-anchor="start" x="177" y="-289.2" font-family="Helvetica,sans-Serif" font-size="11.00">float8[17,17]</text>
<polygon fill="none" stroke="black" points="10,-259 10,-281 174,-281 174,-259 10,-259"/>
<text text-anchor="start" x="30" y="-267.2" font-family="Helvetica,sans-Serif" font-size="11.00">roughness</text>
<polygon fill="none" stroke="black" points="174,-259 174,-281 310,-281 310,-259 174,-259"/>
<text text-anchor="start" x="177" y="-267.2" font-family="Helvetica,sans-Serif" font-size="11.00">float8[17,17]</text>
<polygon fill="none" stroke="black" points="10,-237 10,-259 174,-259 174,-237 10,-237"/>
<text text-anchor="start" x="30" y="-245.2" font-family="Helvetica,sans-Serif" font-size="11.00">inletoffset</text>
<polygon fill="none" stroke="black" points="174,-237 174,-259 310,-259 310,-237 174,-237"/>
<text text-anchor="start" x="177" y="-245.2" font-family="Helvetica,sans-Serif" font-size="11.00">numeric[0]</text>
<polygon fill="none" stroke="black" points="10,-215 10,-237 174,-237 174,-215 10,-215"/>
<text text-anchor="start" x="30" y="-223.2" font-family="Helvetica,sans-Serif" font-size="11.00">outletoffset</text>
<polygon fill="none" stroke="black" points="174,-215 174,-237 310,-237 310,-215 174,-215"/>
<text text-anchor="start" x="177" y="-223.2" font-family="Helvetica,sans-Serif" font-size="11.00">numeric[0]</text>
<polygon fill="none" stroke="black" points="10,-193 10,-215 174,-215 174,-193 10,-193"/>
<text text-anchor="start" x="30" y="-201.2" font-family="Helvetica,sans-Serif" font-size="11.00">initflow</text>
<polygon fill="none" stroke="black" points="174,-193 174,-215 310,-215 310,-193 174,-193"/>
<text text-anchor="start" x="177" y="-201.2" font-family="Helvetica,sans-Serif" font-size="11.00">int4[10]</text>
<polygon fill="none" stroke="black" points="10,-171 10,-193 174,-193 174,-171 10,-171"/>
<text text-anchor="start" x="30" y="-179.2" font-family="Helvetica,sans-Serif" font-size="11.00">maxflow</text>
<polygon fill="none" stroke="black" points="174,-171 174,-193 310,-193 310,-171 174,-171"/>
<text text-anchor="start" x="177" y="-179.2" font-family="Helvetica,sans-Serif" font-size="11.00">int4[10]</text>
<polygon fill="none" stroke="black" points="10,-149 10,-171 174,-171 174,-149 10,-149"/>
<text text-anchor="start" x="30" y="-157.2" font-family="Helvetica,sans-Serif" font-size="11.00">description</text>
<polygon fill="none" stroke="black" points="174,-149 174,-171 310,-171 310,-149 174,-149"/>
<text text-anchor="start" x="177" y="-157.2" font-family="Helvetica,sans-Serif" font-size="11.00">text[2147483647]</text>
<polygon fill="none" stroke="black" points="10,-127 10,-149 174,-149 174,-127 10,-127"/>
<text text-anchor="start" x="30" y="-135.2" font-family="Helvetica,sans-Serif" font-size="11.00">tag</text>
<polygon fill="none" stroke="black" points="174,-127 174,-149 310,-149 310,-127 174,-127"/>
<text text-anchor="start" x="177" y="-135.2" font-family="Helvetica,sans-Serif" font-size="11.00">varchar[100]</text>
<polygon fill="none" stroke="black" points="10,-105 10,-127 174,-127 174,-105 10,-105"/>
<text text-anchor="start" x="30" y="-113.2" font-family="Helvetica,sans-Serif" font-size="11.00">geom</text>
<polygon fill="none" stroke="black" points="174,-105 174,-127 310,-127 310,-105 174,-105"/>
<text text-anchor="start" x="177" y="-113.2" font-family="Helvetica,sans-Serif" font-size="11.00">geometry[2147483647]</text>
<polygon fill="none" stroke="black" points="10,-83 10,-105 174,-105 174,-83 10,-83"/>
<text text-anchor="start" x="30" y="-91.2" font-family="Helvetica,sans-Serif" font-size="11.00">state</text>
<polygon fill="none" stroke="black" points="174,-83 174,-105 310,-105 310,-83 174,-83"/>
<text text-anchor="start" x="177" y="-91.2" font-family="Helvetica,sans-Serif" font-size="11.00">text[2147483647]</text>
<polygon fill="none" stroke="black" points="10,-61 10,-83 174,-83 174,-61 10,-61"/>
<text text-anchor="start" x="30" y="-69.2" font-family="Helvetica,sans-Serif" font-size="11.00">hierarchy</text>
<polygon fill="none" stroke="black" points="174,-61 174,-83 310,-83 310,-61 174,-61"/>
<text text-anchor="start" x="177" y="-69.2" font-family="Helvetica,sans-Serif" font-size="11.00">text[2147483647]</text>
<polygon fill="none" stroke="black" points="10,-39 10,-61 174,-61 174,-39 10,-39"/>
<text text-anchor="start" x="30" y="-47.2" font-family="Helvetica,sans-Serif" font-size="11.00">obj_id</text>
<polygon fill="none" stroke="black" points="174,-39 174,-61 310,-61 310,-39 174,-39"/>
<text text-anchor="start" x="177" y="-47.2" font-family="Helvetica,sans-Serif" font-size="11.00">varchar[16]</text>
<polygon fill="none" stroke="black" stroke-width="2" points="9,-38 9,-392 311,-392 311,-38 9,-38"/>
</a>
</g>
</g>
</g>
</svg>
