<?xml version="1.0" encoding="UTF-8" standalone="no"?>
<!DOCTYPE svg PUBLIC "-//W3C//DTD SVG 1.1//EN"
 "http://www.w3.org/Graphics/SVG/1.1/DTD/svg11.dtd">
<!-- Generated by graphviz version 2.43.0 (0)
 -->
<!-- Title: oneDegreeRelationshipsDiagram Pages: 1 -->
<svg width="321pt" height="361pt"
 viewBox="0.00 0.00 321.00 361.00" xmlns="http://www.w3.org/2000/svg" xmlns:xlink="http://www.w3.org/1999/xlink">
<g id="graph0" class="graph" transform="scale(1 1) rotate(0) translate(4 357)">
<title>oneDegreeRelationshipsDiagram</title>
<polygon fill="#ffffff" stroke="transparent" points="-4,4 -4,-357 317,-357 317,4 -4,4"/>
<text text-anchor="middle" x="79.5" y="-7.2" font-family="Helvetica,sans-Serif" font-size="11.00">Generated by SchemaSpy</text>
<!-- swmm_vw_subareas -->
<g id="node1" class="node">
<title>swmm_vw_subareas</title>
<g id="a_node1"><a xlink:href="../../tables/swmm_vw_subareas.html" xlink:title="swmm_vw_subareas" target="_top">
<polygon fill="#ffffff" stroke="transparent" points="8,-37 8,-349 305,-349 305,-37 8,-37"/>
<polygon fill="#f5f5f5" stroke="transparent" points="10.5,-325 10.5,-347 303.5,-347 303.5,-325 10.5,-325"/>
<polygon fill="none" stroke="black" points="10.5,-325 10.5,-347 303.5,-347 303.5,-325 10.5,-325"/>
<text text-anchor="start" x="15.5" y="-334.2" font-family="Helvetica,sans-Serif" font-weight="bold" font-size="11.00">swmm_vw_subareas</text>
<text text-anchor="start" x="263.5" y="-333.2" font-family="Helvetica,sans-Serif" font-size="11.00">[view]</text>
<polygon fill="none" stroke="black" points="10.5,-303 10.5,-325 178.5,-325 178.5,-303 10.5,-303"/>
<text text-anchor="start" x="30.5" y="-311.2" font-family="Helvetica,sans-Serif" font-size="11.00">subcatchment</text>
<polygon fill="none" stroke="black" points="178.5,-303 178.5,-325 303.5,-325 303.5,-303 178.5,-303"/>
<text text-anchor="start" x="181.5" y="-311.2" font-family="Helvetica,sans-Serif" font-size="11.00">text[2147483647]</text>
<polygon fill="none" stroke="black" points="10.5,-281 10.5,-303 178.5,-303 178.5,-281 10.5,-281"/>
<text text-anchor="start" x="30.5" y="-289.2" font-family="Helvetica,sans-Serif" font-size="11.00">nimperv</text>
<polygon fill="none" stroke="black" points="178.5,-281 178.5,-303 303.5,-303 303.5,-281 178.5,-281"/>
<text text-anchor="start" x="181.5" y="-289.2" font-family="Helvetica,sans-Serif" font-size="11.00">numeric[0]</text>
<polygon fill="none" stroke="black" points="10.5,-259 10.5,-281 178.5,-281 178.5,-259 10.5,-259"/>
<text text-anchor="start" x="30.5" y="-267.2" font-family="Helvetica,sans-Serif" font-size="11.00">nperv</text>
<polygon fill="none" stroke="black" points="178.5,-259 178.5,-281 303.5,-281 303.5,-259 178.5,-259"/>
<text text-anchor="start" x="181.5" y="-267.2" font-family="Helvetica,sans-Serif" font-size="11.00">numeric[0]</text>
<polygon fill="none" stroke="black" points="10.5,-237 10.5,-259 178.5,-259 178.5,-237 10.5,-237"/>
<text text-anchor="start" x="30.5" y="-245.2" font-family="Helvetica,sans-Serif" font-size="11.00">simperv</text>
<polygon fill="none" stroke="black" points="178.5,-237 178.5,-259 303.5,-259 303.5,-237 178.5,-237"/>
<text text-anchor="start" x="181.5" y="-245.2" font-family="Helvetica,sans-Serif" font-size="11.00">numeric[0]</text>
<polygon fill="none" stroke="black" points="10.5,-215 10.5,-237 178.5,-237 178.5,-215 10.5,-215"/>
<text text-anchor="start" x="30.5" y="-223.2" font-family="Helvetica,sans-Serif" font-size="11.00">sperv</text>
<polygon fill="none" stroke="black" points="178.5,-215 178.5,-237 303.5,-237 303.5,-215 178.5,-215"/>
<text text-anchor="start" x="181.5" y="-223.2" font-family="Helvetica,sans-Serif" font-size="11.00">numeric[0]</text>
<polygon fill="none" stroke="black" points="10.5,-193 10.5,-215 178.5,-215 178.5,-193 10.5,-193"/>
<text text-anchor="start" x="30.5" y="-201.2" font-family="Helvetica,sans-Serif" font-size="11.00">pctzero</text>
<polygon fill="none" stroke="black" points="178.5,-193 178.5,-215 303.5,-215 303.5,-193 178.5,-193"/>
<text text-anchor="start" x="181.5" y="-201.2" font-family="Helvetica,sans-Serif" font-size="11.00">int4[10]</text>
<polygon fill="none" stroke="black" points="10.5,-171 10.5,-193 178.5,-193 178.5,-171 10.5,-171"/>
<text text-anchor="start" x="30.5" y="-179.2" font-family="Helvetica,sans-Serif" font-size="11.00">routeto</text>
<polygon fill="none" stroke="black" points="178.5,-171 178.5,-193 303.5,-193 303.5,-171 178.5,-171"/>
<text text-anchor="start" x="181.5" y="-179.2" font-family="Helvetica,sans-Serif" font-size="11.00">varchar[2147483647]</text>
<polygon fill="none" stroke="black" points="10.5,-149 10.5,-171 178.5,-171 178.5,-149 10.5,-149"/>
<text text-anchor="start" x="30.5" y="-157.2" font-family="Helvetica,sans-Serif" font-size="11.00">pctrouted</text>
<polygon fill="none" stroke="black" points="178.5,-149 178.5,-171 303.5,-171 303.5,-149 178.5,-149"/>
<text text-anchor="start" x="181.5" y="-157.2" font-family="Helvetica,sans-Serif" font-size="11.00">float8[17,17]</text>
<polygon fill="none" stroke="black" points="10.5,-127 10.5,-149 178.5,-149 178.5,-127 10.5,-127"/>
<text text-anchor="start" x="30.5" y="-135.2" font-family="Helvetica,sans-Serif" font-size="11.00">description</text>
<polygon fill="none" stroke="black" points="178.5,-127 178.5,-149 303.5,-149 303.5,-127 178.5,-127"/>
<text text-anchor="start" x="181.5" y="-135.2" font-family="Helvetica,sans-Serif" font-size="11.00">text[2147483647]</text>
<polygon fill="none" stroke="black" points="10.5,-105 10.5,-127 178.5,-127 178.5,-105 10.5,-105"/>
<text text-anchor="start" x="30.5" y="-113.2" font-family="Helvetica,sans-Serif" font-size="11.00">tag</text>
<polygon fill="none" stroke="black" points="178.5,-105 178.5,-127 303.5,-127 303.5,-105 178.5,-105"/>
<text text-anchor="start" x="181.5" y="-113.2" font-family="Helvetica,sans-Serif" font-size="11.00">varchar[2147483647]</text>
<polygon fill="none" stroke="black" points="10.5,-83 10.5,-105 178.5,-105 178.5,-83 10.5,-83"/>
<text text-anchor="start" x="30.5" y="-91.2" font-family="Helvetica,sans-Serif" font-size="11.00">state</text>
<polygon fill="none" stroke="black" points="178.5,-83 178.5,-105 303.5,-105 303.5,-83 178.5,-83"/>
<text text-anchor="start" x="181.5" y="-91.2" font-family="Helvetica,sans-Serif" font-size="11.00">text[2147483647]</text>
<polygon fill="none" stroke="black" points="10.5,-61 10.5,-83 178.5,-83 178.5,-61 10.5,-61"/>
<text text-anchor="start" x="30.5" y="-69.2" font-family="Helvetica,sans-Serif" font-size="11.00">hierarchy</text>
<polygon fill="none" stroke="black" points="178.5,-61 178.5,-83 303.5,-83 303.5,-61 178.5,-61"/>
<text text-anchor="start" x="181.5" y="-69.2" font-family="Helvetica,sans-Serif" font-size="11.00">text[2147483647]</text>
<polygon fill="none" stroke="black" points="10.5,-39 10.5,-61 178.5,-61 178.5,-39 10.5,-39"/>
<text text-anchor="start" x="30.5" y="-47.2" font-family="Helvetica,sans-Serif" font-size="11.00">obj_id</text>
<polygon fill="none" stroke="black" points="178.5,-39 178.5,-61 303.5,-61 303.5,-39 178.5,-39"/>
<text text-anchor="start" x="181.5" y="-47.2" font-family="Helvetica,sans-Serif" font-size="11.00">varchar[16]</text>
<polygon fill="none" stroke="black" stroke-width="2" points="9,-38 9,-348 304,-348 304,-38 9,-38"/>
</a>
</g>
</g>
</g>
</svg>
