<?xml version="1.0" encoding="UTF-8" standalone="no"?>
<!DOCTYPE svg PUBLIC "-//W3C//DTD SVG 1.1//EN"
 "http://www.w3.org/Graphics/SVG/1.1/DTD/svg11.dtd">
<!-- Generated by graphviz version 2.43.0 (0)
 -->
<!-- Title: oneDegreeRelationshipsDiagram Pages: 1 -->
<svg width="582pt" height="163pt"
 viewBox="0.00 0.00 582.00 163.00" xmlns="http://www.w3.org/2000/svg" xmlns:xlink="http://www.w3.org/1999/xlink">
<g id="graph0" class="graph" transform="scale(1 1) rotate(0) translate(4 159)">
<title>oneDegreeRelationshipsDiagram</title>
<polygon fill="#ffffff" stroke="transparent" points="-4,4 -4,-159 578,-159 578,4 -4,4"/>
<text text-anchor="middle" x="79.5" y="-7.2" font-family="Helvetica,sans-Serif" font-size="11.00">Generated by SchemaSpy</text>
<!-- vw_catchment_area_wwc_connections -->
<g id="node1" class="node">
<title>vw_catchment_area_wwc_connections</title>
<g id="a_node1"><a xlink:href="../../tables/vw_catchment_area_wwc_connections.html" xlink:title="vw_catchment_area_wwc_connections" target="_top">
<polygon fill="#ffffff" stroke="transparent" points="8,-37 8,-151 566,-151 566,-37 8,-37"/>
<polygon fill="#f5f5f5" stroke="transparent" points="10,-127 10,-149 564,-149 564,-127 10,-127"/>
<polygon fill="none" stroke="black" points="10,-127 10,-149 564,-149 564,-127 10,-127"/>
<text text-anchor="start" x="15" y="-136.2" font-family="Helvetica,sans-Serif" font-weight="bold" font-size="11.00">vw_catchment_area_wwc_connections</text>
<text text-anchor="start" x="524" y="-135.2" font-family="Helvetica,sans-Serif" font-size="11.00">[view]</text>
<polygon fill="none" stroke="black" points="10,-105 10,-127 307,-127 307,-105 10,-105"/>
<text text-anchor="start" x="30" y="-113.2" font-family="Helvetica,sans-Serif" font-size="11.00">obj_id</text>
<polygon fill="none" stroke="black" points="307,-105 307,-127 564,-127 564,-105 307,-105"/>
<text text-anchor="start" x="310" y="-113.2" font-family="Helvetica,sans-Serif" font-size="11.00">&quot;tww_od&quot;.&quot;interlis_standardoid&quot;[2147483647]</text>
<polygon fill="none" stroke="black" points="10,-83 10,-105 307,-105 307,-83 10,-83"/>
<text text-anchor="start" x="30" y="-91.2" font-family="Helvetica,sans-Serif" font-size="11.00">connection_ww_current_geometry</text>
<polygon fill="none" stroke="black" points="307,-83 307,-105 564,-105 564,-83 307,-83"/>
<text text-anchor="start" x="310" y="-91.2" font-family="Helvetica,sans-Serif" font-size="11.00">geometry[2147483647]</text>
<polygon fill="none" stroke="black" points="10,-61 10,-83 307,-83 307,-61 10,-61"/>
<text text-anchor="start" x="30" y="-69.2" font-family="Helvetica,sans-Serif" font-size="11.00">length_ww_current</text>
<polygon fill="none" stroke="black" points="307,-61 307,-83 564,-83 564,-61 307,-61"/>
<text text-anchor="start" x="310" y="-69.2" font-family="Helvetica,sans-Serif" font-size="11.00">float8[17,17]</text>
<polygon fill="none" stroke="black" points="10,-39 10,-61 307,-61 307,-39 10,-39"/>
<text text-anchor="start" x="30" y="-47.2" font-family="Helvetica,sans-Serif" font-size="11.00">node_ww_current_obj_id</text>
<polygon fill="none" stroke="black" points="307,-39 307,-61 564,-61 564,-39 307,-39"/>
<text text-anchor="start" x="310" y="-47.2" font-family="Helvetica,sans-Serif" font-size="11.00">&quot;tww_od&quot;.&quot;interlis_standardoid&quot;[2147483647]</text>
<polygon fill="none" stroke="black" stroke-width="2" points="9,-38 9,-150 565,-150 565,-38 9,-38"/>
</a>
</g>
</g>
</g>
</svg>
