<?xml version="1.0" encoding="UTF-8" standalone="no"?>
<!DOCTYPE svg PUBLIC "-//W3C//DTD SVG 1.1//EN"
 "http://www.w3.org/Graphics/SVG/1.1/DTD/svg11.dtd">
<!-- Generated by graphviz version 2.43.0 (0)
 -->
<!-- Title: oneDegreeRelationshipsDiagram Pages: 1 -->
<svg width="504pt" height="273pt"
 viewBox="0.00 0.00 504.00 273.00" xmlns="http://www.w3.org/2000/svg" xmlns:xlink="http://www.w3.org/1999/xlink">
<g id="graph0" class="graph" transform="scale(1 1) rotate(0) translate(4 269)">
<title>oneDegreeRelationshipsDiagram</title>
<polygon fill="#ffffff" stroke="transparent" points="-4,4 -4,-269 500,-269 500,4 -4,4"/>
<text text-anchor="middle" x="79.5" y="-7.2" font-family="Helvetica,sans-Serif" font-size="11.00">Generated by SchemaSpy</text>
<!-- vw_dryweather_downspout -->
<g id="node1" class="node">
<title>vw_dryweather_downspout</title>
<g id="a_node1"><a xlink:href="../../tables/vw_dryweather_downspout.html" xlink:title="vw_dryweather_downspout" target="_top">
<polygon fill="#ffffff" stroke="transparent" points="8,-37 8,-261 488,-261 488,-37 8,-37"/>
<polygon fill="#f5f5f5" stroke="transparent" points="10,-237 10,-259 486,-259 486,-237 10,-237"/>
<polygon fill="none" stroke="black" points="10,-237 10,-259 486,-259 486,-237 10,-237"/>
<text text-anchor="start" x="15" y="-246.2" font-family="Helvetica,sans-Serif" font-weight="bold" font-size="11.00">vw_dryweather_downspout</text>
<text text-anchor="start" x="446" y="-245.2" font-family="Helvetica,sans-Serif" font-size="11.00">[view]</text>
<polygon fill="none" stroke="black" points="10,-215 10,-237 229,-237 229,-215 10,-215"/>
<text text-anchor="start" x="30" y="-223.2" font-family="Helvetica,sans-Serif" font-size="11.00">obj_id</text>
<polygon fill="none" stroke="black" points="229,-215 229,-237 486,-237 486,-215 229,-215"/>
<text text-anchor="start" x="232" y="-223.2" font-family="Helvetica,sans-Serif" font-size="11.00">&quot;tww_od&quot;.&quot;interlis_standardoid&quot;[2147483647]</text>
<polygon fill="none" stroke="black" points="10,-193 10,-215 229,-215 229,-193 10,-193"/>
<text text-anchor="start" x="30" y="-201.2" font-family="Helvetica,sans-Serif" font-size="11.00">diameter</text>
<polygon fill="none" stroke="black" points="229,-193 229,-215 486,-215 486,-193 229,-193"/>
<text text-anchor="start" x="232" y="-201.2" font-family="Helvetica,sans-Serif" font-size="11.00">int2[5]</text>
<polygon fill="none" stroke="black" points="10,-171 10,-193 229,-193 229,-171 10,-171"/>
<text text-anchor="start" x="30" y="-179.2" font-family="Helvetica,sans-Serif" font-size="11.00">fk_dataowner</text>
<polygon fill="none" stroke="black" points="229,-171 229,-193 486,-193 486,-171 229,-171"/>
<text text-anchor="start" x="232" y="-179.2" font-family="Helvetica,sans-Serif" font-size="11.00">varchar[16]</text>
<polygon fill="none" stroke="black" points="10,-149 10,-171 229,-171 229,-149 10,-149"/>
<text text-anchor="start" x="30" y="-157.2" font-family="Helvetica,sans-Serif" font-size="11.00">fk_provider</text>
<polygon fill="none" stroke="black" points="229,-149 229,-171 486,-171 486,-149 229,-149"/>
<text text-anchor="start" x="232" y="-157.2" font-family="Helvetica,sans-Serif" font-size="11.00">varchar[16]</text>
<polygon fill="none" stroke="black" points="10,-127 10,-149 229,-149 229,-127 10,-127"/>
<text text-anchor="start" x="30" y="-135.2" font-family="Helvetica,sans-Serif" font-size="11.00">fk_wastewater_structure</text>
<polygon fill="none" stroke="black" points="229,-127 229,-149 486,-149 486,-127 229,-127"/>
<text text-anchor="start" x="232" y="-135.2" font-family="Helvetica,sans-Serif" font-size="11.00">varchar[16]</text>
<polygon fill="none" stroke="black" points="10,-105 10,-127 229,-127 229,-105 10,-105"/>
<text text-anchor="start" x="30" y="-113.2" font-family="Helvetica,sans-Serif" font-size="11.00">identifier</text>
<polygon fill="none" stroke="black" points="229,-105 229,-127 486,-127 486,-105 229,-105"/>
<text text-anchor="start" x="232" y="-113.2" font-family="Helvetica,sans-Serif" font-size="11.00">text[2147483647]</text>
<polygon fill="none" stroke="black" points="10,-83 10,-105 229,-105 229,-83 10,-83"/>
<text text-anchor="start" x="30" y="-91.2" font-family="Helvetica,sans-Serif" font-size="11.00">last_modification</text>
<polygon fill="none" stroke="black" points="229,-83 229,-105 486,-105 486,-83 229,-83"/>
<text text-anchor="start" x="232" y="-91.2" font-family="Helvetica,sans-Serif" font-size="11.00">timestamp[29,6]</text>
<polygon fill="none" stroke="black" points="10,-61 10,-83 229,-83 229,-61 10,-61"/>
<text text-anchor="start" x="30" y="-69.2" font-family="Helvetica,sans-Serif" font-size="11.00">remark</text>
<polygon fill="none" stroke="black" points="229,-61 229,-83 486,-83 486,-61 229,-61"/>
<text text-anchor="start" x="232" y="-69.2" font-family="Helvetica,sans-Serif" font-size="11.00">text[2147483647]</text>
<polygon fill="none" stroke="black" points="10,-39 10,-61 229,-61 229,-39 10,-39"/>
<text text-anchor="start" x="30" y="-47.2" font-family="Helvetica,sans-Serif" font-size="11.00">renovation_demand</text>
<polygon fill="none" stroke="black" points="229,-39 229,-61 486,-61 486,-39 229,-39"/>
<text text-anchor="start" x="232" y="-47.2" font-family="Helvetica,sans-Serif" font-size="11.00">int4[10]</text>
<polygon fill="none" stroke="black" stroke-width="2" points="9,-38 9,-260 487,-260 487,-38 9,-38"/>
</a>
</g>
</g>
</g>
</svg>
