<?xml version="1.0" encoding="UTF-8" standalone="no"?>
<!DOCTYPE svg PUBLIC "-//W3C//DTD SVG 1.1//EN"
 "http://www.w3.org/Graphics/SVG/1.1/DTD/svg11.dtd">
<!-- Generated by graphviz version 2.43.0 (0)
 -->
<!-- Title: oneDegreeRelationshipsDiagram Pages: 1 -->
<svg width="470pt" height="669pt"
 viewBox="0.00 0.00 470.00 669.00" xmlns="http://www.w3.org/2000/svg" xmlns:xlink="http://www.w3.org/1999/xlink">
<g id="graph0" class="graph" transform="scale(1 1) rotate(0) translate(4 665)">
<title>oneDegreeRelationshipsDiagram</title>
<polygon fill="#ffffff" stroke="transparent" points="-4,4 -4,-665 466,-665 466,4 -4,4"/>
<text text-anchor="middle" x="79.5" y="-7.2" font-family="Helvetica,sans-Serif" font-size="11.00">Generated by SchemaSpy</text>
<!-- vw_examination -->
<g id="node1" class="node">
<title>vw_examination</title>
<g id="a_node1"><a xlink:href="../../tables/vw_examination.html" xlink:title="vw_examination" target="_top">
<polygon fill="#ffffff" stroke="transparent" points="8,-37 8,-657 454,-657 454,-37 8,-37"/>
<polygon fill="#f5f5f5" stroke="transparent" points="10,-633 10,-655 452,-655 452,-633 10,-633"/>
<polygon fill="none" stroke="black" points="10,-633 10,-655 452,-655 452,-633 10,-633"/>
<text text-anchor="start" x="15" y="-642.2" font-family="Helvetica,sans-Serif" font-weight="bold" font-size="11.00">vw_examination</text>
<text text-anchor="start" x="412" y="-641.2" font-family="Helvetica,sans-Serif" font-size="11.00">[view]</text>
<polygon fill="none" stroke="black" points="10,-611 10,-633 195,-633 195,-611 10,-611"/>
<text text-anchor="start" x="30" y="-619.2" font-family="Helvetica,sans-Serif" font-size="11.00">obj_id</text>
<polygon fill="none" stroke="black" points="195,-611 195,-633 452,-633 452,-611 195,-611"/>
<text text-anchor="start" x="198" y="-619.2" font-family="Helvetica,sans-Serif" font-size="11.00">&quot;tww_od&quot;.&quot;interlis_standardoid&quot;[2147483647]</text>
<polygon fill="none" stroke="black" points="10,-589 10,-611 195,-611 195,-589 10,-589"/>
<text text-anchor="start" x="30" y="-597.2" font-family="Helvetica,sans-Serif" font-size="11.00">equipment</text>
<polygon fill="none" stroke="black" points="195,-589 195,-611 452,-611 452,-589 195,-589"/>
<text text-anchor="start" x="198" y="-597.2" font-family="Helvetica,sans-Serif" font-size="11.00">text[2147483647]</text>
<polygon fill="none" stroke="black" points="10,-567 10,-589 195,-589 195,-567 10,-567"/>
<text text-anchor="start" x="30" y="-575.2" font-family="Helvetica,sans-Serif" font-size="11.00">fk_reach_point</text>
<polygon fill="none" stroke="black" points="195,-567 195,-589 452,-589 452,-567 195,-567"/>
<text text-anchor="start" x="198" y="-575.2" font-family="Helvetica,sans-Serif" font-size="11.00">varchar[16]</text>
<polygon fill="none" stroke="black" points="10,-545 10,-567 195,-567 195,-545 10,-545"/>
<text text-anchor="start" x="30" y="-553.2" font-family="Helvetica,sans-Serif" font-size="11.00">from_point_identifier</text>
<polygon fill="none" stroke="black" points="195,-545 195,-567 452,-567 452,-545 195,-545"/>
<text text-anchor="start" x="198" y="-553.2" font-family="Helvetica,sans-Serif" font-size="11.00">text[2147483647]</text>
<polygon fill="none" stroke="black" points="10,-523 10,-545 195,-545 195,-523 10,-523"/>
<text text-anchor="start" x="30" y="-531.2" font-family="Helvetica,sans-Serif" font-size="11.00">inspected_length</text>
<polygon fill="none" stroke="black" points="195,-523 195,-545 452,-545 452,-523 195,-523"/>
<text text-anchor="start" x="198" y="-531.2" font-family="Helvetica,sans-Serif" font-size="11.00">numeric[7,2]</text>
<polygon fill="none" stroke="black" points="10,-501 10,-523 195,-523 195,-501 10,-501"/>
<text text-anchor="start" x="30" y="-509.2" font-family="Helvetica,sans-Serif" font-size="11.00">recording_type</text>
<polygon fill="none" stroke="black" points="195,-501 195,-523 452,-523 452,-501 195,-501"/>
<text text-anchor="start" x="198" y="-509.2" font-family="Helvetica,sans-Serif" font-size="11.00">int4[10]</text>
<polygon fill="none" stroke="black" points="10,-479 10,-501 195,-501 195,-479 10,-479"/>
<text text-anchor="start" x="30" y="-487.2" font-family="Helvetica,sans-Serif" font-size="11.00">to_point_identifier</text>
<polygon fill="none" stroke="black" points="195,-479 195,-501 452,-501 452,-479 195,-479"/>
<text text-anchor="start" x="198" y="-487.2" font-family="Helvetica,sans-Serif" font-size="11.00">text[2147483647]</text>
<polygon fill="none" stroke="black" points="10,-457 10,-479 195,-479 195,-457 10,-457"/>
<text text-anchor="start" x="30" y="-465.2" font-family="Helvetica,sans-Serif" font-size="11.00">tww_outdated</text>
<polygon fill="none" stroke="black" points="195,-457 195,-479 452,-479 452,-457 195,-457"/>
<text text-anchor="start" x="198" y="-465.2" font-family="Helvetica,sans-Serif" font-size="11.00">bool[1]</text>
<polygon fill="none" stroke="black" points="10,-435 10,-457 195,-457 195,-435 10,-435"/>
<text text-anchor="start" x="30" y="-443.2" font-family="Helvetica,sans-Serif" font-size="11.00">vehicle</text>
<polygon fill="none" stroke="black" points="195,-435 195,-457 452,-457 452,-435 195,-435"/>
<text text-anchor="start" x="198" y="-443.2" font-family="Helvetica,sans-Serif" font-size="11.00">text[2147483647]</text>
<polygon fill="none" stroke="black" points="10,-413 10,-435 195,-435 195,-413 10,-413"/>
<text text-anchor="start" x="30" y="-421.2" font-family="Helvetica,sans-Serif" font-size="11.00">videonumber</text>
<polygon fill="none" stroke="black" points="195,-413 195,-435 452,-435 452,-413 195,-413"/>
<text text-anchor="start" x="198" y="-421.2" font-family="Helvetica,sans-Serif" font-size="11.00">text[2147483647]</text>
<polygon fill="none" stroke="black" points="10,-391 10,-413 195,-413 195,-391 10,-391"/>
<text text-anchor="start" x="30" y="-399.2" font-family="Helvetica,sans-Serif" font-size="11.00">weather</text>
<polygon fill="none" stroke="black" points="195,-391 195,-413 452,-413 452,-391 195,-391"/>
<text text-anchor="start" x="198" y="-399.2" font-family="Helvetica,sans-Serif" font-size="11.00">int4[10]</text>
<polygon fill="none" stroke="black" points="10,-369 10,-391 195,-391 195,-369 10,-369"/>
<text text-anchor="start" x="30" y="-377.2" font-family="Helvetica,sans-Serif" font-size="11.00">base_data</text>
<polygon fill="none" stroke="black" points="195,-369 195,-391 452,-391 452,-369 195,-369"/>
<text text-anchor="start" x="198" y="-377.2" font-family="Helvetica,sans-Serif" font-size="11.00">text[2147483647]</text>
<polygon fill="none" stroke="black" points="10,-347 10,-369 195,-369 195,-347 10,-347"/>
<text text-anchor="start" x="30" y="-355.2" font-family="Helvetica,sans-Serif" font-size="11.00">cost</text>
<polygon fill="none" stroke="black" points="195,-347 195,-369 452,-369 452,-347 195,-347"/>
<text text-anchor="start" x="198" y="-355.2" font-family="Helvetica,sans-Serif" font-size="11.00">numeric[10,2]</text>
<polygon fill="none" stroke="black" points="10,-325 10,-347 195,-347 195,-325 10,-325"/>
<text text-anchor="start" x="30" y="-333.2" font-family="Helvetica,sans-Serif" font-size="11.00">data_details</text>
<polygon fill="none" stroke="black" points="195,-325 195,-347 452,-347 452,-325 195,-325"/>
<text text-anchor="start" x="198" y="-333.2" font-family="Helvetica,sans-Serif" font-size="11.00">text[2147483647]</text>
<polygon fill="none" stroke="black" points="10,-303 10,-325 195,-325 195,-303 10,-303"/>
<text text-anchor="start" x="30" y="-311.2" font-family="Helvetica,sans-Serif" font-size="11.00">duration</text>
<polygon fill="none" stroke="black" points="195,-303 195,-325 452,-325 452,-303 195,-303"/>
<text text-anchor="start" x="198" y="-311.2" font-family="Helvetica,sans-Serif" font-size="11.00">int2[5]</text>
<polygon fill="none" stroke="black" points="10,-281 10,-303 195,-303 195,-281 10,-281"/>
<text text-anchor="start" x="30" y="-289.2" font-family="Helvetica,sans-Serif" font-size="11.00">fk_dataowner</text>
<polygon fill="none" stroke="black" points="195,-281 195,-303 452,-303 452,-281 195,-281"/>
<text text-anchor="start" x="198" y="-289.2" font-family="Helvetica,sans-Serif" font-size="11.00">varchar[16]</text>
<polygon fill="none" stroke="black" points="10,-259 10,-281 195,-281 195,-259 10,-259"/>
<text text-anchor="start" x="30" y="-267.2" font-family="Helvetica,sans-Serif" font-size="11.00">fk_measure</text>
<polygon fill="none" stroke="black" points="195,-259 195,-281 452,-281 452,-259 195,-259"/>
<text text-anchor="start" x="198" y="-267.2" font-family="Helvetica,sans-Serif" font-size="11.00">varchar[16]</text>
<polygon fill="none" stroke="black" points="10,-237 10,-259 195,-259 195,-237 10,-237"/>
<text text-anchor="start" x="30" y="-245.2" font-family="Helvetica,sans-Serif" font-size="11.00">fk_operating_company</text>
<polygon fill="none" stroke="black" points="195,-237 195,-259 452,-259 452,-237 195,-237"/>
<text text-anchor="start" x="198" y="-245.2" font-family="Helvetica,sans-Serif" font-size="11.00">varchar[16]</text>
<polygon fill="none" stroke="black" points="10,-215 10,-237 195,-237 195,-215 10,-215"/>
<text text-anchor="start" x="30" y="-223.2" font-family="Helvetica,sans-Serif" font-size="11.00">fk_provider</text>
<polygon fill="none" stroke="black" points="195,-215 195,-237 452,-237 452,-215 195,-215"/>
<text text-anchor="start" x="198" y="-223.2" font-family="Helvetica,sans-Serif" font-size="11.00">varchar[16]</text>
<polygon fill="none" stroke="black" points="10,-193 10,-215 195,-215 195,-193 10,-193"/>
<text text-anchor="start" x="30" y="-201.2" font-family="Helvetica,sans-Serif" font-size="11.00">identifier</text>
<polygon fill="none" stroke="black" points="195,-193 195,-215 452,-215 452,-193 195,-193"/>
<text text-anchor="start" x="198" y="-201.2" font-family="Helvetica,sans-Serif" font-size="11.00">text[2147483647]</text>
<polygon fill="none" stroke="black" points="10,-171 10,-193 195,-193 195,-171 10,-171"/>
<text text-anchor="start" x="30" y="-179.2" font-family="Helvetica,sans-Serif" font-size="11.00">last_modification</text>
<polygon fill="none" stroke="black" points="195,-171 195,-193 452,-193 452,-171 195,-171"/>
<text text-anchor="start" x="198" y="-179.2" font-family="Helvetica,sans-Serif" font-size="11.00">timestamp[29,6]</text>
<polygon fill="none" stroke="black" points="10,-149 10,-171 195,-171 195,-149 10,-149"/>
<text text-anchor="start" x="30" y="-157.2" font-family="Helvetica,sans-Serif" font-size="11.00">operator</text>
<polygon fill="none" stroke="black" points="195,-149 195,-171 452,-171 452,-149 195,-149"/>
<text text-anchor="start" x="198" y="-157.2" font-family="Helvetica,sans-Serif" font-size="11.00">text[2147483647]</text>
<polygon fill="none" stroke="black" points="10,-127 10,-149 195,-149 195,-127 10,-127"/>
<text text-anchor="start" x="30" y="-135.2" font-family="Helvetica,sans-Serif" font-size="11.00">reason</text>
<polygon fill="none" stroke="black" points="195,-127 195,-149 452,-149 452,-127 195,-127"/>
<text text-anchor="start" x="198" y="-135.2" font-family="Helvetica,sans-Serif" font-size="11.00">text[2147483647]</text>
<polygon fill="none" stroke="black" points="10,-105 10,-127 195,-127 195,-105 10,-105"/>
<text text-anchor="start" x="30" y="-113.2" font-family="Helvetica,sans-Serif" font-size="11.00">remark</text>
<polygon fill="none" stroke="black" points="195,-105 195,-127 452,-127 452,-105 195,-105"/>
<text text-anchor="start" x="198" y="-113.2" font-family="Helvetica,sans-Serif" font-size="11.00">text[2147483647]</text>
<polygon fill="none" stroke="black" points="10,-83 10,-105 195,-105 195,-83 10,-83"/>
<text text-anchor="start" x="30" y="-91.2" font-family="Helvetica,sans-Serif" font-size="11.00">result</text>
<polygon fill="none" stroke="black" points="195,-83 195,-105 452,-105 452,-83 195,-83"/>
<text text-anchor="start" x="198" y="-91.2" font-family="Helvetica,sans-Serif" font-size="11.00">text[2147483647]</text>
<polygon fill="none" stroke="black" points="10,-61 10,-83 195,-83 195,-61 10,-61"/>
<text text-anchor="start" x="30" y="-69.2" font-family="Helvetica,sans-Serif" font-size="11.00">status</text>
<polygon fill="none" stroke="black" points="195,-61 195,-83 452,-83 452,-61 195,-61"/>
<text text-anchor="start" x="198" y="-69.2" font-family="Helvetica,sans-Serif" font-size="11.00">int4[10]</text>
<polygon fill="none" stroke="black" points="10,-39 10,-61 195,-61 195,-39 10,-39"/>
<text text-anchor="start" x="30" y="-47.2" font-family="Helvetica,sans-Serif" font-size="11.00">time_point</text>
<polygon fill="none" stroke="black" points="195,-39 195,-61 452,-61 452,-39 195,-39"/>
<text text-anchor="start" x="198" y="-47.2" font-family="Helvetica,sans-Serif" font-size="11.00">timestamp[29,6]</text>
<polygon fill="none" stroke="black" stroke-width="2" points="9,-38 9,-656 453,-656 453,-38 9,-38"/>
</a>
</g>
</g>
</g>
</svg>
