<?xml version="1.0" encoding="UTF-8" standalone="no"?>
<!DOCTYPE svg PUBLIC "-//W3C//DTD SVG 1.1//EN"
 "http://www.w3.org/Graphics/SVG/1.1/DTD/svg11.dtd">
<!-- Generated by graphviz version 2.43.0 (0)
 -->
<!-- Title: oneDegreeRelationshipsDiagram Pages: 1 -->
<svg width="347pt" height="625pt"
 viewBox="0.00 0.00 347.00 625.00" xmlns="http://www.w3.org/2000/svg" xmlns:xlink="http://www.w3.org/1999/xlink">
<g id="graph0" class="graph" transform="scale(1 1) rotate(0) translate(4 621)">
<title>oneDegreeRelationshipsDiagram</title>
<polygon fill="#ffffff" stroke="transparent" points="-4,4 -4,-621 343,-621 343,4 -4,4"/>
<text text-anchor="middle" x="79.5" y="-7.2" font-family="Helvetica,sans-Serif" font-size="11.00">Generated by SchemaSpy</text>
<!-- vw_prank_weir -->
<g id="node1" class="node">
<title>vw_prank_weir</title>
<g id="a_node1"><a xlink:href="../../tables/vw_prank_weir.html" xlink:title="vw_prank_weir" target="_top">
<polygon fill="#ffffff" stroke="transparent" points="8,-37 8,-613 331,-613 331,-37 8,-37"/>
<polygon fill="#f5f5f5" stroke="transparent" points="10.5,-589 10.5,-611 329.5,-611 329.5,-589 10.5,-589"/>
<polygon fill="none" stroke="black" points="10.5,-589 10.5,-611 329.5,-611 329.5,-589 10.5,-589"/>
<text text-anchor="start" x="15.5" y="-598.2" font-family="Helvetica,sans-Serif" font-weight="bold" font-size="11.00">vw_prank_weir</text>
<text text-anchor="start" x="289.5" y="-597.2" font-family="Helvetica,sans-Serif" font-size="11.00">[view]</text>
<polygon fill="none" stroke="black" points="10.5,-567 10.5,-589 223.5,-589 223.5,-567 10.5,-567"/>
<text text-anchor="start" x="30.5" y="-575.2" font-family="Helvetica,sans-Serif" font-size="11.00">obj_id</text>
<polygon fill="none" stroke="black" points="223.5,-567 223.5,-589 329.5,-589 329.5,-567 223.5,-567"/>
<text text-anchor="start" x="226.5" y="-575.2" font-family="Helvetica,sans-Serif" font-size="11.00">varchar[16]</text>
<polygon fill="none" stroke="black" points="10.5,-545 10.5,-567 223.5,-567 223.5,-545 10.5,-545"/>
<text text-anchor="start" x="30.5" y="-553.2" font-family="Helvetica,sans-Serif" font-size="11.00">hydraulic_overflow_length</text>
<polygon fill="none" stroke="black" points="223.5,-545 223.5,-567 329.5,-567 329.5,-545 223.5,-545"/>
<text text-anchor="start" x="226.5" y="-553.2" font-family="Helvetica,sans-Serif" font-size="11.00">numeric[7,2]</text>
<polygon fill="none" stroke="black" points="10.5,-523 10.5,-545 223.5,-545 223.5,-523 10.5,-523"/>
<text text-anchor="start" x="30.5" y="-531.2" font-family="Helvetica,sans-Serif" font-size="11.00">level_max</text>
<polygon fill="none" stroke="black" points="223.5,-523 223.5,-545 329.5,-545 329.5,-523 223.5,-523"/>
<text text-anchor="start" x="226.5" y="-531.2" font-family="Helvetica,sans-Serif" font-size="11.00">numeric[7,3]</text>
<polygon fill="none" stroke="black" points="10.5,-501 10.5,-523 223.5,-523 223.5,-501 10.5,-501"/>
<text text-anchor="start" x="30.5" y="-509.2" font-family="Helvetica,sans-Serif" font-size="11.00">level_min</text>
<polygon fill="none" stroke="black" points="223.5,-501 223.5,-523 329.5,-523 329.5,-501 223.5,-501"/>
<text text-anchor="start" x="226.5" y="-509.2" font-family="Helvetica,sans-Serif" font-size="11.00">numeric[7,3]</text>
<polygon fill="none" stroke="black" points="10.5,-479 10.5,-501 223.5,-501 223.5,-479 10.5,-479"/>
<text text-anchor="start" x="30.5" y="-487.2" font-family="Helvetica,sans-Serif" font-size="11.00">weir_edge</text>
<polygon fill="none" stroke="black" points="223.5,-479 223.5,-501 329.5,-501 329.5,-479 223.5,-479"/>
<text text-anchor="start" x="226.5" y="-487.2" font-family="Helvetica,sans-Serif" font-size="11.00">int4[10]</text>
<polygon fill="none" stroke="black" points="10.5,-457 10.5,-479 223.5,-479 223.5,-457 10.5,-457"/>
<text text-anchor="start" x="30.5" y="-465.2" font-family="Helvetica,sans-Serif" font-size="11.00">weir_kind</text>
<polygon fill="none" stroke="black" points="223.5,-457 223.5,-479 329.5,-479 329.5,-457 223.5,-457"/>
<text text-anchor="start" x="226.5" y="-465.2" font-family="Helvetica,sans-Serif" font-size="11.00">int4[10]</text>
<polygon fill="none" stroke="black" points="10.5,-435 10.5,-457 223.5,-457 223.5,-435 10.5,-435"/>
<text text-anchor="start" x="30.5" y="-443.2" font-family="Helvetica,sans-Serif" font-size="11.00">actuation</text>
<polygon fill="none" stroke="black" points="223.5,-435 223.5,-457 329.5,-457 329.5,-435 223.5,-435"/>
<text text-anchor="start" x="226.5" y="-443.2" font-family="Helvetica,sans-Serif" font-size="11.00">int4[10]</text>
<polygon fill="none" stroke="black" points="10.5,-413 10.5,-435 223.5,-435 223.5,-413 10.5,-413"/>
<text text-anchor="start" x="30.5" y="-421.2" font-family="Helvetica,sans-Serif" font-size="11.00">adjustability</text>
<polygon fill="none" stroke="black" points="223.5,-413 223.5,-435 329.5,-435 329.5,-413 223.5,-413"/>
<text text-anchor="start" x="226.5" y="-421.2" font-family="Helvetica,sans-Serif" font-size="11.00">int4[10]</text>
<polygon fill="none" stroke="black" points="10.5,-391 10.5,-413 223.5,-413 223.5,-391 10.5,-391"/>
<text text-anchor="start" x="30.5" y="-399.2" font-family="Helvetica,sans-Serif" font-size="11.00">brand</text>
<polygon fill="none" stroke="black" points="223.5,-391 223.5,-413 329.5,-413 329.5,-391 223.5,-391"/>
<text text-anchor="start" x="226.5" y="-399.2" font-family="Helvetica,sans-Serif" font-size="11.00">text[2147483647]</text>
<polygon fill="none" stroke="black" points="10.5,-369 10.5,-391 223.5,-391 223.5,-369 10.5,-369"/>
<text text-anchor="start" x="30.5" y="-377.2" font-family="Helvetica,sans-Serif" font-size="11.00">control</text>
<polygon fill="none" stroke="black" points="223.5,-369 223.5,-391 329.5,-391 329.5,-369 223.5,-369"/>
<text text-anchor="start" x="226.5" y="-377.2" font-family="Helvetica,sans-Serif" font-size="11.00">int4[10]</text>
<polygon fill="none" stroke="black" points="10.5,-347 10.5,-369 223.5,-369 223.5,-347 10.5,-347"/>
<text text-anchor="start" x="30.5" y="-355.2" font-family="Helvetica,sans-Serif" font-size="11.00">discharge_point</text>
<polygon fill="none" stroke="black" points="223.5,-347 223.5,-369 329.5,-369 329.5,-347 223.5,-347"/>
<text text-anchor="start" x="226.5" y="-355.2" font-family="Helvetica,sans-Serif" font-size="11.00">text[2147483647]</text>
<polygon fill="none" stroke="black" points="10.5,-325 10.5,-347 223.5,-347 223.5,-325 10.5,-325"/>
<text text-anchor="start" x="30.5" y="-333.2" font-family="Helvetica,sans-Serif" font-size="11.00">fk_control_center</text>
<polygon fill="none" stroke="black" points="223.5,-325 223.5,-347 329.5,-347 329.5,-325 223.5,-325"/>
<text text-anchor="start" x="226.5" y="-333.2" font-family="Helvetica,sans-Serif" font-size="11.00">varchar[16]</text>
<polygon fill="none" stroke="black" points="10.5,-303 10.5,-325 223.5,-325 223.5,-303 10.5,-303"/>
<text text-anchor="start" x="30.5" y="-311.2" font-family="Helvetica,sans-Serif" font-size="11.00">fk_dataowner</text>
<polygon fill="none" stroke="black" points="223.5,-303 223.5,-325 329.5,-325 329.5,-303 223.5,-303"/>
<text text-anchor="start" x="226.5" y="-311.2" font-family="Helvetica,sans-Serif" font-size="11.00">varchar[16]</text>
<polygon fill="none" stroke="black" points="10.5,-281 10.5,-303 223.5,-303 223.5,-281 10.5,-281"/>
<text text-anchor="start" x="30.5" y="-289.2" font-family="Helvetica,sans-Serif" font-size="11.00">fk_overflow_char</text>
<polygon fill="none" stroke="black" points="223.5,-281 223.5,-303 329.5,-303 329.5,-281 223.5,-281"/>
<text text-anchor="start" x="226.5" y="-289.2" font-family="Helvetica,sans-Serif" font-size="11.00">varchar[16]</text>
<polygon fill="none" stroke="black" points="10.5,-259 10.5,-281 223.5,-281 223.5,-259 10.5,-259"/>
<text text-anchor="start" x="30.5" y="-267.2" font-family="Helvetica,sans-Serif" font-size="11.00">fk_overflow_to</text>
<polygon fill="none" stroke="black" points="223.5,-259 223.5,-281 329.5,-281 329.5,-259 223.5,-259"/>
<text text-anchor="start" x="226.5" y="-267.2" font-family="Helvetica,sans-Serif" font-size="11.00">varchar[16]</text>
<polygon fill="none" stroke="black" points="10.5,-237 10.5,-259 223.5,-259 223.5,-237 10.5,-237"/>
<text text-anchor="start" x="30.5" y="-245.2" font-family="Helvetica,sans-Serif" font-size="11.00">fk_provider</text>
<polygon fill="none" stroke="black" points="223.5,-237 223.5,-259 329.5,-259 329.5,-237 223.5,-237"/>
<text text-anchor="start" x="226.5" y="-245.2" font-family="Helvetica,sans-Serif" font-size="11.00">varchar[16]</text>
<polygon fill="none" stroke="black" points="10.5,-215 10.5,-237 223.5,-237 223.5,-215 10.5,-215"/>
<text text-anchor="start" x="30.5" y="-223.2" font-family="Helvetica,sans-Serif" font-size="11.00">fk_wastewater_node</text>
<polygon fill="none" stroke="black" points="223.5,-215 223.5,-237 329.5,-237 329.5,-215 223.5,-215"/>
<text text-anchor="start" x="226.5" y="-223.2" font-family="Helvetica,sans-Serif" font-size="11.00">varchar[16]</text>
<polygon fill="none" stroke="black" points="10.5,-193 10.5,-215 223.5,-215 223.5,-193 10.5,-193"/>
<text text-anchor="start" x="30.5" y="-201.2" font-family="Helvetica,sans-Serif" font-size="11.00">function</text>
<polygon fill="none" stroke="black" points="223.5,-193 223.5,-215 329.5,-215 329.5,-193 223.5,-193"/>
<text text-anchor="start" x="226.5" y="-201.2" font-family="Helvetica,sans-Serif" font-size="11.00">int4[10]</text>
<polygon fill="none" stroke="black" points="10.5,-171 10.5,-193 223.5,-193 223.5,-171 10.5,-171"/>
<text text-anchor="start" x="30.5" y="-179.2" font-family="Helvetica,sans-Serif" font-size="11.00">gross_costs</text>
<polygon fill="none" stroke="black" points="223.5,-171 223.5,-193 329.5,-193 329.5,-171 223.5,-171"/>
<text text-anchor="start" x="226.5" y="-179.2" font-family="Helvetica,sans-Serif" font-size="11.00">numeric[10,2]</text>
<polygon fill="none" stroke="black" points="10.5,-149 10.5,-171 223.5,-171 223.5,-149 10.5,-149"/>
<text text-anchor="start" x="30.5" y="-157.2" font-family="Helvetica,sans-Serif" font-size="11.00">identifier</text>
<polygon fill="none" stroke="black" points="223.5,-149 223.5,-171 329.5,-171 329.5,-149 223.5,-149"/>
<text text-anchor="start" x="226.5" y="-157.2" font-family="Helvetica,sans-Serif" font-size="11.00">text[2147483647]</text>
<polygon fill="none" stroke="black" points="10.5,-127 10.5,-149 223.5,-149 223.5,-127 10.5,-127"/>
<text text-anchor="start" x="30.5" y="-135.2" font-family="Helvetica,sans-Serif" font-size="11.00">last_modification</text>
<polygon fill="none" stroke="black" points="223.5,-127 223.5,-149 329.5,-149 329.5,-127 223.5,-127"/>
<text text-anchor="start" x="226.5" y="-135.2" font-family="Helvetica,sans-Serif" font-size="11.00">timestamp[29,6]</text>
<polygon fill="none" stroke="black" points="10.5,-105 10.5,-127 223.5,-127 223.5,-105 10.5,-105"/>
<text text-anchor="start" x="30.5" y="-113.2" font-family="Helvetica,sans-Serif" font-size="11.00">qon_dim</text>
<polygon fill="none" stroke="black" points="223.5,-105 223.5,-127 329.5,-127 329.5,-105 223.5,-105"/>
<text text-anchor="start" x="226.5" y="-113.2" font-family="Helvetica,sans-Serif" font-size="11.00">numeric[9,3]</text>
<polygon fill="none" stroke="black" points="10.5,-83 10.5,-105 223.5,-105 223.5,-83 10.5,-83"/>
<text text-anchor="start" x="30.5" y="-91.2" font-family="Helvetica,sans-Serif" font-size="11.00">remark</text>
<polygon fill="none" stroke="black" points="223.5,-83 223.5,-105 329.5,-105 329.5,-83 223.5,-83"/>
<text text-anchor="start" x="226.5" y="-91.2" font-family="Helvetica,sans-Serif" font-size="11.00">text[2147483647]</text>
<polygon fill="none" stroke="black" points="10.5,-61 10.5,-83 223.5,-83 223.5,-61 10.5,-61"/>
<text text-anchor="start" x="30.5" y="-69.2" font-family="Helvetica,sans-Serif" font-size="11.00">signal_transmission</text>
<polygon fill="none" stroke="black" points="223.5,-61 223.5,-83 329.5,-83 329.5,-61 223.5,-61"/>
<text text-anchor="start" x="226.5" y="-69.2" font-family="Helvetica,sans-Serif" font-size="11.00">int4[10]</text>
<polygon fill="none" stroke="black" points="10.5,-39 10.5,-61 223.5,-61 223.5,-39 10.5,-39"/>
<text text-anchor="start" x="30.5" y="-47.2" font-family="Helvetica,sans-Serif" font-size="11.00">subsidies</text>
<polygon fill="none" stroke="black" points="223.5,-39 223.5,-61 329.5,-61 329.5,-39 223.5,-39"/>
<text text-anchor="start" x="226.5" y="-47.2" font-family="Helvetica,sans-Serif" font-size="11.00">numeric[10,2]</text>
<polygon fill="none" stroke="black" stroke-width="2" points="9,-38 9,-612 330,-612 330,-38 9,-38"/>
</a>
</g>
</g>
</g>
</svg>
