<?xml version="1.0" encoding="UTF-8" standalone="no"?>
<!DOCTYPE svg PUBLIC "-//W3C//DTD SVG 1.1//EN"
 "http://www.w3.org/Graphics/SVG/1.1/DTD/svg11.dtd">
<!-- Generated by graphviz version 2.43.0 (0)
 -->
<!-- Title: oneDegreeRelationshipsDiagram Pages: 1 -->
<svg width="525pt" height="977pt"
 viewBox="0.00 0.00 525.00 977.00" xmlns="http://www.w3.org/2000/svg" xmlns:xlink="http://www.w3.org/1999/xlink">
<g id="graph0" class="graph" transform="scale(1 1) rotate(0) translate(4 973)">
<title>oneDegreeRelationshipsDiagram</title>
<polygon fill="#ffffff" stroke="transparent" points="-4,4 -4,-973 521,-973 521,4 -4,4"/>
<text text-anchor="middle" x="79.5" y="-7.2" font-family="Helvetica,sans-Serif" font-size="11.00">Generated by SchemaSpy</text>
<!-- vw_tww_overflow -->
<g id="node1" class="node">
<title>vw_tww_overflow</title>
<g id="a_node1"><a xlink:href="../../tables/vw_tww_overflow.html" xlink:title="vw_tww_overflow" target="_top">
<polygon fill="#ffffff" stroke="transparent" points="8,-37 8,-965 509,-965 509,-37 8,-37"/>
<polygon fill="#f5f5f5" stroke="transparent" points="10.5,-941 10.5,-963 507.5,-963 507.5,-941 10.5,-941"/>
<polygon fill="none" stroke="black" points="10.5,-941 10.5,-963 507.5,-963 507.5,-941 10.5,-941"/>
<text text-anchor="start" x="15.5" y="-950.2" font-family="Helvetica,sans-Serif" font-weight="bold" font-size="11.00">vw_tww_overflow</text>
<text text-anchor="start" x="467.5" y="-949.2" font-family="Helvetica,sans-Serif" font-size="11.00">[view]</text>
<polygon fill="none" stroke="black" points="10.5,-919 10.5,-941 250.5,-941 250.5,-919 10.5,-919"/>
<text text-anchor="start" x="30.5" y="-927.2" font-family="Helvetica,sans-Serif" font-size="11.00">obj_id</text>
<polygon fill="none" stroke="black" points="250.5,-919 250.5,-941 507.5,-941 507.5,-919 250.5,-919"/>
<text text-anchor="start" x="253.5" y="-927.2" font-family="Helvetica,sans-Serif" font-size="11.00">&quot;tww_od&quot;.&quot;interlis_standardoid&quot;[2147483647]</text>
<polygon fill="none" stroke="black" points="10.5,-897 10.5,-919 250.5,-919 250.5,-897 10.5,-897"/>
<text text-anchor="start" x="30.5" y="-905.2" font-family="Helvetica,sans-Serif" font-size="11.00">overflow_type</text>
<polygon fill="none" stroke="black" points="250.5,-897 250.5,-919 507.5,-919 507.5,-897 250.5,-897"/>
<text text-anchor="start" x="253.5" y="-905.2" font-family="Helvetica,sans-Serif" font-size="11.00">text[2147483647]</text>
<polygon fill="none" stroke="black" points="10.5,-875 10.5,-897 250.5,-897 250.5,-875 10.5,-875"/>
<text text-anchor="start" x="30.5" y="-883.2" font-family="Helvetica,sans-Serif" font-size="11.00">actuation</text>
<polygon fill="none" stroke="black" points="250.5,-875 250.5,-897 507.5,-897 507.5,-875 250.5,-875"/>
<text text-anchor="start" x="253.5" y="-883.2" font-family="Helvetica,sans-Serif" font-size="11.00">int4[10]</text>
<polygon fill="none" stroke="black" points="10.5,-853 10.5,-875 250.5,-875 250.5,-853 10.5,-853"/>
<text text-anchor="start" x="30.5" y="-861.2" font-family="Helvetica,sans-Serif" font-size="11.00">adjustability</text>
<polygon fill="none" stroke="black" points="250.5,-853 250.5,-875 507.5,-875 507.5,-853 250.5,-853"/>
<text text-anchor="start" x="253.5" y="-861.2" font-family="Helvetica,sans-Serif" font-size="11.00">int4[10]</text>
<polygon fill="none" stroke="black" points="10.5,-831 10.5,-853 250.5,-853 250.5,-831 10.5,-831"/>
<text text-anchor="start" x="30.5" y="-839.2" font-family="Helvetica,sans-Serif" font-size="11.00">brand</text>
<polygon fill="none" stroke="black" points="250.5,-831 250.5,-853 507.5,-853 507.5,-831 250.5,-831"/>
<text text-anchor="start" x="253.5" y="-839.2" font-family="Helvetica,sans-Serif" font-size="11.00">text[2147483647]</text>
<polygon fill="none" stroke="black" points="10.5,-809 10.5,-831 250.5,-831 250.5,-809 10.5,-809"/>
<text text-anchor="start" x="30.5" y="-817.2" font-family="Helvetica,sans-Serif" font-size="11.00">control</text>
<polygon fill="none" stroke="black" points="250.5,-809 250.5,-831 507.5,-831 507.5,-809 250.5,-809"/>
<text text-anchor="start" x="253.5" y="-817.2" font-family="Helvetica,sans-Serif" font-size="11.00">int4[10]</text>
<polygon fill="none" stroke="black" points="10.5,-787 10.5,-809 250.5,-809 250.5,-787 10.5,-787"/>
<text text-anchor="start" x="30.5" y="-795.2" font-family="Helvetica,sans-Serif" font-size="11.00">discharge_point</text>
<polygon fill="none" stroke="black" points="250.5,-787 250.5,-809 507.5,-809 507.5,-787 250.5,-787"/>
<text text-anchor="start" x="253.5" y="-795.2" font-family="Helvetica,sans-Serif" font-size="11.00">text[2147483647]</text>
<polygon fill="none" stroke="black" points="10.5,-765 10.5,-787 250.5,-787 250.5,-765 10.5,-765"/>
<text text-anchor="start" x="30.5" y="-773.2" font-family="Helvetica,sans-Serif" font-size="11.00">fk_control_center</text>
<polygon fill="none" stroke="black" points="250.5,-765 250.5,-787 507.5,-787 507.5,-765 250.5,-765"/>
<text text-anchor="start" x="253.5" y="-773.2" font-family="Helvetica,sans-Serif" font-size="11.00">varchar[16]</text>
<polygon fill="none" stroke="black" points="10.5,-743 10.5,-765 250.5,-765 250.5,-743 10.5,-743"/>
<text text-anchor="start" x="30.5" y="-751.2" font-family="Helvetica,sans-Serif" font-size="11.00">fk_dataowner</text>
<polygon fill="none" stroke="black" points="250.5,-743 250.5,-765 507.5,-765 507.5,-743 250.5,-743"/>
<text text-anchor="start" x="253.5" y="-751.2" font-family="Helvetica,sans-Serif" font-size="11.00">varchar[16]</text>
<polygon fill="none" stroke="black" points="10.5,-721 10.5,-743 250.5,-743 250.5,-721 10.5,-721"/>
<text text-anchor="start" x="30.5" y="-729.2" font-family="Helvetica,sans-Serif" font-size="11.00">fk_overflow_char</text>
<polygon fill="none" stroke="black" points="250.5,-721 250.5,-743 507.5,-743 507.5,-721 250.5,-721"/>
<text text-anchor="start" x="253.5" y="-729.2" font-family="Helvetica,sans-Serif" font-size="11.00">varchar[16]</text>
<polygon fill="none" stroke="black" points="10.5,-699 10.5,-721 250.5,-721 250.5,-699 10.5,-699"/>
<text text-anchor="start" x="30.5" y="-707.2" font-family="Helvetica,sans-Serif" font-size="11.00">fk_overflow_to</text>
<polygon fill="none" stroke="black" points="250.5,-699 250.5,-721 507.5,-721 507.5,-699 250.5,-699"/>
<text text-anchor="start" x="253.5" y="-707.2" font-family="Helvetica,sans-Serif" font-size="11.00">varchar[16]</text>
<polygon fill="none" stroke="black" points="10.5,-677 10.5,-699 250.5,-699 250.5,-677 10.5,-677"/>
<text text-anchor="start" x="30.5" y="-685.2" font-family="Helvetica,sans-Serif" font-size="11.00">fk_provider</text>
<polygon fill="none" stroke="black" points="250.5,-677 250.5,-699 507.5,-699 507.5,-677 250.5,-677"/>
<text text-anchor="start" x="253.5" y="-685.2" font-family="Helvetica,sans-Serif" font-size="11.00">varchar[16]</text>
<polygon fill="none" stroke="black" points="10.5,-655 10.5,-677 250.5,-677 250.5,-655 10.5,-655"/>
<text text-anchor="start" x="30.5" y="-663.2" font-family="Helvetica,sans-Serif" font-size="11.00">fk_wastewater_node</text>
<polygon fill="none" stroke="black" points="250.5,-655 250.5,-677 507.5,-677 507.5,-655 250.5,-655"/>
<text text-anchor="start" x="253.5" y="-663.2" font-family="Helvetica,sans-Serif" font-size="11.00">varchar[16]</text>
<polygon fill="none" stroke="black" points="10.5,-633 10.5,-655 250.5,-655 250.5,-633 10.5,-633"/>
<text text-anchor="start" x="30.5" y="-641.2" font-family="Helvetica,sans-Serif" font-size="11.00">function</text>
<polygon fill="none" stroke="black" points="250.5,-633 250.5,-655 507.5,-655 507.5,-633 250.5,-633"/>
<text text-anchor="start" x="253.5" y="-641.2" font-family="Helvetica,sans-Serif" font-size="11.00">int4[10]</text>
<polygon fill="none" stroke="black" points="10.5,-611 10.5,-633 250.5,-633 250.5,-611 10.5,-611"/>
<text text-anchor="start" x="30.5" y="-619.2" font-family="Helvetica,sans-Serif" font-size="11.00">gross_costs</text>
<polygon fill="none" stroke="black" points="250.5,-611 250.5,-633 507.5,-633 507.5,-611 250.5,-611"/>
<text text-anchor="start" x="253.5" y="-619.2" font-family="Helvetica,sans-Serif" font-size="11.00">numeric[10,2]</text>
<polygon fill="none" stroke="black" points="10.5,-589 10.5,-611 250.5,-611 250.5,-589 10.5,-589"/>
<text text-anchor="start" x="30.5" y="-597.2" font-family="Helvetica,sans-Serif" font-size="11.00">identifier</text>
<polygon fill="none" stroke="black" points="250.5,-589 250.5,-611 507.5,-611 507.5,-589 250.5,-589"/>
<text text-anchor="start" x="253.5" y="-597.2" font-family="Helvetica,sans-Serif" font-size="11.00">text[2147483647]</text>
<polygon fill="none" stroke="black" points="10.5,-567 10.5,-589 250.5,-589 250.5,-567 10.5,-567"/>
<text text-anchor="start" x="30.5" y="-575.2" font-family="Helvetica,sans-Serif" font-size="11.00">last_modification</text>
<polygon fill="none" stroke="black" points="250.5,-567 250.5,-589 507.5,-589 507.5,-567 250.5,-567"/>
<text text-anchor="start" x="253.5" y="-575.2" font-family="Helvetica,sans-Serif" font-size="11.00">timestamp[29,6]</text>
<polygon fill="none" stroke="black" points="10.5,-545 10.5,-567 250.5,-567 250.5,-545 10.5,-545"/>
<text text-anchor="start" x="30.5" y="-553.2" font-family="Helvetica,sans-Serif" font-size="11.00">qon_dim</text>
<polygon fill="none" stroke="black" points="250.5,-545 250.5,-567 507.5,-567 507.5,-545 250.5,-545"/>
<text text-anchor="start" x="253.5" y="-553.2" font-family="Helvetica,sans-Serif" font-size="11.00">numeric[9,3]</text>
<polygon fill="none" stroke="black" points="10.5,-523 10.5,-545 250.5,-545 250.5,-523 10.5,-523"/>
<text text-anchor="start" x="30.5" y="-531.2" font-family="Helvetica,sans-Serif" font-size="11.00">remark</text>
<polygon fill="none" stroke="black" points="250.5,-523 250.5,-545 507.5,-545 507.5,-523 250.5,-523"/>
<text text-anchor="start" x="253.5" y="-531.2" font-family="Helvetica,sans-Serif" font-size="11.00">text[2147483647]</text>
<polygon fill="none" stroke="black" points="10.5,-501 10.5,-523 250.5,-523 250.5,-501 10.5,-501"/>
<text text-anchor="start" x="30.5" y="-509.2" font-family="Helvetica,sans-Serif" font-size="11.00">signal_transmission</text>
<polygon fill="none" stroke="black" points="250.5,-501 250.5,-523 507.5,-523 507.5,-501 250.5,-501"/>
<text text-anchor="start" x="253.5" y="-509.2" font-family="Helvetica,sans-Serif" font-size="11.00">int4[10]</text>
<polygon fill="none" stroke="black" points="10.5,-479 10.5,-501 250.5,-501 250.5,-479 10.5,-479"/>
<text text-anchor="start" x="30.5" y="-487.2" font-family="Helvetica,sans-Serif" font-size="11.00">subsidies</text>
<polygon fill="none" stroke="black" points="250.5,-479 250.5,-501 507.5,-501 507.5,-479 250.5,-479"/>
<text text-anchor="start" x="253.5" y="-487.2" font-family="Helvetica,sans-Serif" font-size="11.00">numeric[10,2]</text>
<polygon fill="none" stroke="black" points="10.5,-457 10.5,-479 250.5,-479 250.5,-457 10.5,-457"/>
<text text-anchor="start" x="30.5" y="-465.2" font-family="Helvetica,sans-Serif" font-size="11.00">lw_obj_id</text>
<polygon fill="none" stroke="black" points="250.5,-457 250.5,-479 507.5,-479 507.5,-457 250.5,-457"/>
<text text-anchor="start" x="253.5" y="-465.2" font-family="Helvetica,sans-Serif" font-size="11.00">&quot;tww_od&quot;.&quot;interlis_standardoid&quot;[2147483647]</text>
<polygon fill="none" stroke="black" points="10.5,-435 10.5,-457 250.5,-457 250.5,-435 10.5,-435"/>
<text text-anchor="start" x="30.5" y="-443.2" font-family="Helvetica,sans-Serif" font-size="11.00">lw_length</text>
<polygon fill="none" stroke="black" points="250.5,-435 250.5,-457 507.5,-457 507.5,-435 250.5,-435"/>
<text text-anchor="start" x="253.5" y="-443.2" font-family="Helvetica,sans-Serif" font-size="11.00">numeric[7,2]</text>
<polygon fill="none" stroke="black" points="10.5,-413 10.5,-435 250.5,-435 250.5,-413 10.5,-413"/>
<text text-anchor="start" x="30.5" y="-421.2" font-family="Helvetica,sans-Serif" font-size="11.00">lw_opening_shape</text>
<polygon fill="none" stroke="black" points="250.5,-413 250.5,-435 507.5,-435 507.5,-413 250.5,-413"/>
<text text-anchor="start" x="253.5" y="-421.2" font-family="Helvetica,sans-Serif" font-size="11.00">int4[10]</text>
<polygon fill="none" stroke="black" points="10.5,-391 10.5,-413 250.5,-413 250.5,-391 10.5,-391"/>
<text text-anchor="start" x="30.5" y="-399.2" font-family="Helvetica,sans-Serif" font-size="11.00">lw_width</text>
<polygon fill="none" stroke="black" points="250.5,-391 250.5,-413 507.5,-413 507.5,-391 250.5,-391"/>
<text text-anchor="start" x="253.5" y="-399.2" font-family="Helvetica,sans-Serif" font-size="11.00">numeric[7,2]</text>
<polygon fill="none" stroke="black" points="10.5,-369 10.5,-391 250.5,-391 250.5,-369 10.5,-369"/>
<text text-anchor="start" x="30.5" y="-377.2" font-family="Helvetica,sans-Serif" font-size="11.00">pw_hydraulic_overflow_length</text>
<polygon fill="none" stroke="black" points="250.5,-369 250.5,-391 507.5,-391 507.5,-369 250.5,-369"/>
<text text-anchor="start" x="253.5" y="-377.2" font-family="Helvetica,sans-Serif" font-size="11.00">numeric[7,2]</text>
<polygon fill="none" stroke="black" points="10.5,-347 10.5,-369 250.5,-369 250.5,-347 10.5,-347"/>
<text text-anchor="start" x="30.5" y="-355.2" font-family="Helvetica,sans-Serif" font-size="11.00">pw_level_max</text>
<polygon fill="none" stroke="black" points="250.5,-347 250.5,-369 507.5,-369 507.5,-347 250.5,-347"/>
<text text-anchor="start" x="253.5" y="-355.2" font-family="Helvetica,sans-Serif" font-size="11.00">numeric[7,3]</text>
<polygon fill="none" stroke="black" points="10.5,-325 10.5,-347 250.5,-347 250.5,-325 10.5,-325"/>
<text text-anchor="start" x="30.5" y="-333.2" font-family="Helvetica,sans-Serif" font-size="11.00">pw_level_min</text>
<polygon fill="none" stroke="black" points="250.5,-325 250.5,-347 507.5,-347 507.5,-325 250.5,-325"/>
<text text-anchor="start" x="253.5" y="-333.2" font-family="Helvetica,sans-Serif" font-size="11.00">numeric[7,3]</text>
<polygon fill="none" stroke="black" points="10.5,-303 10.5,-325 250.5,-325 250.5,-303 10.5,-303"/>
<text text-anchor="start" x="30.5" y="-311.2" font-family="Helvetica,sans-Serif" font-size="11.00">pw_weir_edge</text>
<polygon fill="none" stroke="black" points="250.5,-303 250.5,-325 507.5,-325 507.5,-303 250.5,-303"/>
<text text-anchor="start" x="253.5" y="-311.2" font-family="Helvetica,sans-Serif" font-size="11.00">int4[10]</text>
<polygon fill="none" stroke="black" points="10.5,-281 10.5,-303 250.5,-303 250.5,-281 10.5,-281"/>
<text text-anchor="start" x="30.5" y="-289.2" font-family="Helvetica,sans-Serif" font-size="11.00">pw_weir_kind</text>
<polygon fill="none" stroke="black" points="250.5,-281 250.5,-303 507.5,-303 507.5,-281 250.5,-281"/>
<text text-anchor="start" x="253.5" y="-289.2" font-family="Helvetica,sans-Serif" font-size="11.00">int4[10]</text>
<polygon fill="none" stroke="black" points="10.5,-259 10.5,-281 250.5,-281 250.5,-259 10.5,-259"/>
<text text-anchor="start" x="30.5" y="-267.2" font-family="Helvetica,sans-Serif" font-size="11.00">pu_construction_type</text>
<polygon fill="none" stroke="black" points="250.5,-259 250.5,-281 507.5,-281 507.5,-259 250.5,-259"/>
<text text-anchor="start" x="253.5" y="-267.2" font-family="Helvetica,sans-Serif" font-size="11.00">int4[10]</text>
<polygon fill="none" stroke="black" points="10.5,-237 10.5,-259 250.5,-259 250.5,-237 10.5,-237"/>
<text text-anchor="start" x="30.5" y="-245.2" font-family="Helvetica,sans-Serif" font-size="11.00">pu_operating_point</text>
<polygon fill="none" stroke="black" points="250.5,-237 250.5,-259 507.5,-259 507.5,-237 250.5,-237"/>
<text text-anchor="start" x="253.5" y="-245.2" font-family="Helvetica,sans-Serif" font-size="11.00">numeric[8,3]</text>
<polygon fill="none" stroke="black" points="10.5,-215 10.5,-237 250.5,-237 250.5,-215 10.5,-215"/>
<text text-anchor="start" x="30.5" y="-223.2" font-family="Helvetica,sans-Serif" font-size="11.00">pu_placement_of_actuation</text>
<polygon fill="none" stroke="black" points="250.5,-215 250.5,-237 507.5,-237 507.5,-215 250.5,-215"/>
<text text-anchor="start" x="253.5" y="-223.2" font-family="Helvetica,sans-Serif" font-size="11.00">int4[10]</text>
<polygon fill="none" stroke="black" points="10.5,-193 10.5,-215 250.5,-215 250.5,-193 10.5,-193"/>
<text text-anchor="start" x="30.5" y="-201.2" font-family="Helvetica,sans-Serif" font-size="11.00">pu_placement_of_pump</text>
<polygon fill="none" stroke="black" points="250.5,-193 250.5,-215 507.5,-215 507.5,-193 250.5,-193"/>
<text text-anchor="start" x="253.5" y="-201.2" font-family="Helvetica,sans-Serif" font-size="11.00">int4[10]</text>
<polygon fill="none" stroke="black" points="10.5,-171 10.5,-193 250.5,-193 250.5,-171 10.5,-171"/>
<text text-anchor="start" x="30.5" y="-179.2" font-family="Helvetica,sans-Serif" font-size="11.00">pu_pump_flow_max_single</text>
<polygon fill="none" stroke="black" points="250.5,-171 250.5,-193 507.5,-193 507.5,-171 250.5,-171"/>
<text text-anchor="start" x="253.5" y="-179.2" font-family="Helvetica,sans-Serif" font-size="11.00">numeric[9,3]</text>
<polygon fill="none" stroke="black" points="10.5,-149 10.5,-171 250.5,-171 250.5,-149 10.5,-149"/>
<text text-anchor="start" x="30.5" y="-157.2" font-family="Helvetica,sans-Serif" font-size="11.00">pu_pump_flow_min_single</text>
<polygon fill="none" stroke="black" points="250.5,-149 250.5,-171 507.5,-171 507.5,-149 250.5,-149"/>
<text text-anchor="start" x="253.5" y="-157.2" font-family="Helvetica,sans-Serif" font-size="11.00">numeric[9,3]</text>
<polygon fill="none" stroke="black" points="10.5,-127 10.5,-149 250.5,-149 250.5,-127 10.5,-127"/>
<text text-anchor="start" x="30.5" y="-135.2" font-family="Helvetica,sans-Serif" font-size="11.00">pu_start_level</text>
<polygon fill="none" stroke="black" points="250.5,-127 250.5,-149 507.5,-149 507.5,-127 250.5,-127"/>
<text text-anchor="start" x="253.5" y="-135.2" font-family="Helvetica,sans-Serif" font-size="11.00">numeric[7,3]</text>
<polygon fill="none" stroke="black" points="10.5,-105 10.5,-127 250.5,-127 250.5,-105 10.5,-105"/>
<text text-anchor="start" x="30.5" y="-113.2" font-family="Helvetica,sans-Serif" font-size="11.00">pu_stop_level</text>
<polygon fill="none" stroke="black" points="250.5,-105 250.5,-127 507.5,-127 507.5,-105 250.5,-105"/>
<text text-anchor="start" x="253.5" y="-113.2" font-family="Helvetica,sans-Serif" font-size="11.00">numeric[7,3]</text>
<polygon fill="none" stroke="black" points="10.5,-83 10.5,-105 250.5,-105 250.5,-83 10.5,-83"/>
<text text-anchor="start" x="30.5" y="-91.2" font-family="Helvetica,sans-Serif" font-size="11.00">geometry</text>
<polygon fill="none" stroke="black" points="250.5,-83 250.5,-105 507.5,-105 507.5,-83 250.5,-83"/>
<text text-anchor="start" x="253.5" y="-91.2" font-family="Helvetica,sans-Serif" font-size="11.00">geometry[2147483647]</text>
<polygon fill="none" stroke="black" points="10.5,-61 10.5,-83 250.5,-83 250.5,-61 10.5,-61"/>
<text text-anchor="start" x="30.5" y="-69.2" font-family="Helvetica,sans-Serif" font-size="11.00">_channel_usage_current</text>
<polygon fill="none" stroke="black" points="250.5,-61 250.5,-83 507.5,-83 507.5,-61 250.5,-61"/>
<text text-anchor="start" x="253.5" y="-69.2" font-family="Helvetica,sans-Serif" font-size="11.00">int4[10]</text>
<polygon fill="none" stroke="black" points="10.5,-39 10.5,-61 250.5,-61 250.5,-39 10.5,-39"/>
<text text-anchor="start" x="30.5" y="-47.2" font-family="Helvetica,sans-Serif" font-size="11.00">_channel_function_hierarchic</text>
<polygon fill="none" stroke="black" points="250.5,-39 250.5,-61 507.5,-61 507.5,-39 250.5,-39"/>
<text text-anchor="start" x="253.5" y="-47.2" font-family="Helvetica,sans-Serif" font-size="11.00">int4[10]</text>
<polygon fill="none" stroke="black" stroke-width="2" points="9,-38 9,-964 508,-964 508,-38 9,-38"/>
</a>
</g>
</g>
</g>
</svg>
