<?xml version="1.0" encoding="UTF-8" standalone="no"?>
<!DOCTYPE svg PUBLIC "-//W3C//DTD SVG 1.1//EN"
 "http://www.w3.org/Graphics/SVG/1.1/DTD/svg11.dtd">
<!-- Generated by graphviz version 2.43.0 (0)
 -->
<!-- Title: oneDegreeRelationshipsDiagram Pages: 1 -->
<svg width="492pt" height="603pt"
 viewBox="0.00 0.00 492.00 603.00" xmlns="http://www.w3.org/2000/svg" xmlns:xlink="http://www.w3.org/1999/xlink">
<g id="graph0" class="graph" transform="scale(1 1) rotate(0) translate(4 599)">
<title>oneDegreeRelationshipsDiagram</title>
<polygon fill="#ffffff" stroke="transparent" points="-4,4 -4,-599 488,-599 488,4 -4,4"/>
<text text-anchor="middle" x="79.5" y="-7.2" font-family="Helvetica,sans-Serif" font-size="11.00">Generated by SchemaSpy</text>
<!-- vw_tww_damage_channel -->
<g id="node1" class="node">
<title>vw_tww_damage_channel</title>
<g id="a_node1"><a xlink:href="../../tables/vw_tww_damage_channel.html" xlink:title="vw_tww_damage_channel" target="_top">
<polygon fill="#ffffff" stroke="transparent" points="8,-37 8,-591 476,-591 476,-37 8,-37"/>
<polygon fill="#f5f5f5" stroke="transparent" points="10,-567 10,-589 474,-589 474,-567 10,-567"/>
<polygon fill="none" stroke="black" points="10,-567 10,-589 474,-589 474,-567 10,-567"/>
<text text-anchor="start" x="15" y="-576.2" font-family="Helvetica,sans-Serif" font-weight="bold" font-size="11.00">vw_tww_damage_channel</text>
<text text-anchor="start" x="434" y="-575.2" font-family="Helvetica,sans-Serif" font-size="11.00">[view]</text>
<polygon fill="none" stroke="black" points="10,-545 10,-567 217,-567 217,-545 10,-545"/>
<text text-anchor="start" x="30" y="-553.2" font-family="Helvetica,sans-Serif" font-size="11.00">comments</text>
<polygon fill="none" stroke="black" points="217,-545 217,-567 474,-567 474,-545 217,-545"/>
<text text-anchor="start" x="220" y="-553.2" font-family="Helvetica,sans-Serif" font-size="11.00">text[2147483647]</text>
<polygon fill="none" stroke="black" points="10,-523 10,-545 217,-545 217,-523 10,-523"/>
<text text-anchor="start" x="30" y="-531.2" font-family="Helvetica,sans-Serif" font-size="11.00">connection</text>
<polygon fill="none" stroke="black" points="217,-523 217,-545 474,-545 474,-523 217,-523"/>
<text text-anchor="start" x="220" y="-531.2" font-family="Helvetica,sans-Serif" font-size="11.00">int4[10]</text>
<polygon fill="none" stroke="black" points="10,-501 10,-523 217,-523 217,-501 10,-501"/>
<text text-anchor="start" x="30" y="-509.2" font-family="Helvetica,sans-Serif" font-size="11.00">fk_dataowner</text>
<polygon fill="none" stroke="black" points="217,-501 217,-523 474,-523 474,-501 217,-501"/>
<text text-anchor="start" x="220" y="-509.2" font-family="Helvetica,sans-Serif" font-size="11.00">varchar[16]</text>
<polygon fill="none" stroke="black" points="10,-479 10,-501 217,-501 217,-479 10,-479"/>
<text text-anchor="start" x="30" y="-487.2" font-family="Helvetica,sans-Serif" font-size="11.00">fk_examination</text>
<polygon fill="none" stroke="black" points="217,-479 217,-501 474,-501 474,-479 217,-479"/>
<text text-anchor="start" x="220" y="-487.2" font-family="Helvetica,sans-Serif" font-size="11.00">varchar[16]</text>
<polygon fill="none" stroke="black" points="10,-457 10,-479 217,-479 217,-457 10,-457"/>
<text text-anchor="start" x="30" y="-465.2" font-family="Helvetica,sans-Serif" font-size="11.00">fk_provider</text>
<polygon fill="none" stroke="black" points="217,-457 217,-479 474,-479 474,-457 217,-457"/>
<text text-anchor="start" x="220" y="-465.2" font-family="Helvetica,sans-Serif" font-size="11.00">varchar[16]</text>
<polygon fill="none" stroke="black" points="10,-435 10,-457 217,-457 217,-435 10,-435"/>
<text text-anchor="start" x="30" y="-443.2" font-family="Helvetica,sans-Serif" font-size="11.00">last_modification</text>
<polygon fill="none" stroke="black" points="217,-435 217,-457 474,-457 474,-435 217,-435"/>
<text text-anchor="start" x="220" y="-443.2" font-family="Helvetica,sans-Serif" font-size="11.00">timestamp[29,6]</text>
<polygon fill="none" stroke="black" points="10,-413 10,-435 217,-435 217,-413 10,-413"/>
<text text-anchor="start" x="30" y="-421.2" font-family="Helvetica,sans-Serif" font-size="11.00">line_damage</text>
<polygon fill="none" stroke="black" points="217,-413 217,-435 474,-435 474,-413 217,-413"/>
<text text-anchor="start" x="220" y="-421.2" font-family="Helvetica,sans-Serif" font-size="11.00">text[2147483647]</text>
<polygon fill="none" stroke="black" points="10,-391 10,-413 217,-413 217,-391 10,-391"/>
<text text-anchor="start" x="30" y="-399.2" font-family="Helvetica,sans-Serif" font-size="11.00">single_damage_class</text>
<polygon fill="none" stroke="black" points="217,-391 217,-413 474,-413 474,-391 217,-391"/>
<text text-anchor="start" x="220" y="-399.2" font-family="Helvetica,sans-Serif" font-size="11.00">int4[10]</text>
<polygon fill="none" stroke="black" points="10,-369 10,-391 217,-391 217,-369 10,-369"/>
<text text-anchor="start" x="30" y="-377.2" font-family="Helvetica,sans-Serif" font-size="11.00">video_counter</text>
<polygon fill="none" stroke="black" points="217,-369 217,-391 474,-391 474,-369 217,-369"/>
<text text-anchor="start" x="220" y="-377.2" font-family="Helvetica,sans-Serif" font-size="11.00">text[2147483647]</text>
<polygon fill="none" stroke="black" points="10,-347 10,-369 217,-369 217,-347 10,-347"/>
<text text-anchor="start" x="30" y="-355.2" font-family="Helvetica,sans-Serif" font-size="11.00">view_parameters</text>
<polygon fill="none" stroke="black" points="217,-347 217,-369 474,-369 474,-347 217,-347"/>
<text text-anchor="start" x="220" y="-355.2" font-family="Helvetica,sans-Serif" font-size="11.00">text[2147483647]</text>
<polygon fill="none" stroke="black" points="10,-325 10,-347 217,-347 217,-325 10,-325"/>
<text text-anchor="start" x="30" y="-333.2" font-family="Helvetica,sans-Serif" font-size="11.00">obj_id</text>
<polygon fill="none" stroke="black" points="217,-325 217,-347 474,-347 474,-325 217,-325"/>
<text text-anchor="start" x="220" y="-333.2" font-family="Helvetica,sans-Serif" font-size="11.00">&quot;tww_od&quot;.&quot;interlis_standardoid&quot;[2147483647]</text>
<polygon fill="none" stroke="black" points="10,-303 10,-325 217,-325 217,-303 10,-303"/>
<text text-anchor="start" x="30" y="-311.2" font-family="Helvetica,sans-Serif" font-size="11.00">channel_damage_begin</text>
<polygon fill="none" stroke="black" points="217,-303 217,-325 474,-325 474,-303 217,-303"/>
<text text-anchor="start" x="220" y="-311.2" font-family="Helvetica,sans-Serif" font-size="11.00">int2[5]</text>
<polygon fill="none" stroke="black" points="10,-281 10,-303 217,-303 217,-281 10,-281"/>
<text text-anchor="start" x="30" y="-289.2" font-family="Helvetica,sans-Serif" font-size="11.00">channel_damage_code</text>
<polygon fill="none" stroke="black" points="217,-281 217,-303 474,-303 474,-281 217,-281"/>
<text text-anchor="start" x="220" y="-289.2" font-family="Helvetica,sans-Serif" font-size="11.00">int4[10]</text>
<polygon fill="none" stroke="black" points="10,-259 10,-281 217,-281 217,-259 10,-259"/>
<text text-anchor="start" x="30" y="-267.2" font-family="Helvetica,sans-Serif" font-size="11.00">channel_damage_end</text>
<polygon fill="none" stroke="black" points="217,-259 217,-281 474,-281 474,-259 217,-259"/>
<text text-anchor="start" x="220" y="-267.2" font-family="Helvetica,sans-Serif" font-size="11.00">int2[5]</text>
<polygon fill="none" stroke="black" points="10,-237 10,-259 217,-259 217,-237 10,-237"/>
<text text-anchor="start" x="30" y="-245.2" font-family="Helvetica,sans-Serif" font-size="11.00">channel_distance</text>
<polygon fill="none" stroke="black" points="217,-237 217,-259 474,-259 474,-237 217,-237"/>
<text text-anchor="start" x="220" y="-245.2" font-family="Helvetica,sans-Serif" font-size="11.00">numeric[7,2]</text>
<polygon fill="none" stroke="black" points="10,-215 10,-237 217,-237 217,-215 10,-215"/>
<text text-anchor="start" x="30" y="-223.2" font-family="Helvetica,sans-Serif" font-size="11.00">channel_quantification1</text>
<polygon fill="none" stroke="black" points="217,-215 217,-237 474,-237 474,-215 217,-215"/>
<text text-anchor="start" x="220" y="-223.2" font-family="Helvetica,sans-Serif" font-size="11.00">int4[10]</text>
<polygon fill="none" stroke="black" points="10,-193 10,-215 217,-215 217,-193 10,-193"/>
<text text-anchor="start" x="30" y="-201.2" font-family="Helvetica,sans-Serif" font-size="11.00">channel_quantification2</text>
<polygon fill="none" stroke="black" points="217,-193 217,-215 474,-215 474,-193 217,-193"/>
<text text-anchor="start" x="220" y="-201.2" font-family="Helvetica,sans-Serif" font-size="11.00">int4[10]</text>
<polygon fill="none" stroke="black" points="10,-171 10,-193 217,-193 217,-171 10,-171"/>
<text text-anchor="start" x="30" y="-179.2" font-family="Helvetica,sans-Serif" font-size="11.00">ws_identifier</text>
<polygon fill="none" stroke="black" points="217,-171 217,-193 474,-193 474,-171 217,-171"/>
<text text-anchor="start" x="220" y="-179.2" font-family="Helvetica,sans-Serif" font-size="11.00">text[2147483647]</text>
<polygon fill="none" stroke="black" points="10,-149 10,-171 217,-171 217,-149 10,-149"/>
<text text-anchor="start" x="30" y="-157.2" font-family="Helvetica,sans-Serif" font-size="11.00">situation2d_geometry</text>
<polygon fill="none" stroke="black" points="217,-149 217,-171 474,-171 474,-149 217,-149"/>
<text text-anchor="start" x="220" y="-157.2" font-family="Helvetica,sans-Serif" font-size="11.00">geometry[2147483647]</text>
<polygon fill="none" stroke="black" points="10,-127 10,-149 217,-149 217,-127 10,-127"/>
<text text-anchor="start" x="30" y="-135.2" font-family="Helvetica,sans-Serif" font-size="11.00">direction</text>
<polygon fill="none" stroke="black" points="217,-127 217,-149 474,-149 474,-127 217,-127"/>
<text text-anchor="start" x="220" y="-135.2" font-family="Helvetica,sans-Serif" font-size="11.00">text[2147483647]</text>
<polygon fill="none" stroke="black" points="10,-105 10,-127 217,-127 217,-105 10,-105"/>
<text text-anchor="start" x="30" y="-113.2" font-family="Helvetica,sans-Serif" font-size="11.00">tww_is_primary</text>
<polygon fill="none" stroke="black" points="217,-105 217,-127 474,-127 474,-105 217,-105"/>
<text text-anchor="start" x="220" y="-113.2" font-family="Helvetica,sans-Serif" font-size="11.00">bool[1]</text>
<polygon fill="none" stroke="black" points="10,-83 10,-105 217,-105 217,-83 10,-83"/>
<text text-anchor="start" x="30" y="-91.2" font-family="Helvetica,sans-Serif" font-size="11.00">picture_1</text>
<polygon fill="none" stroke="black" points="217,-83 217,-105 474,-105 474,-83 217,-83"/>
<text text-anchor="start" x="220" y="-91.2" font-family="Helvetica,sans-Serif" font-size="11.00">text[2147483647]</text>
<polygon fill="none" stroke="black" points="10,-61 10,-83 217,-83 217,-61 10,-61"/>
<text text-anchor="start" x="30" y="-69.2" font-family="Helvetica,sans-Serif" font-size="11.00">picture_2</text>
<polygon fill="none" stroke="black" points="217,-61 217,-83 474,-83 474,-61 217,-61"/>
<text text-anchor="start" x="220" y="-69.2" font-family="Helvetica,sans-Serif" font-size="11.00">text[2147483647]</text>
<polygon fill="none" stroke="black" points="10,-39 10,-61 217,-61 217,-39 10,-39"/>
<text text-anchor="start" x="30" y="-47.2" font-family="Helvetica,sans-Serif" font-size="11.00">video</text>
<polygon fill="none" stroke="black" points="217,-39 217,-61 474,-61 474,-39 217,-39"/>
<text text-anchor="start" x="220" y="-47.2" font-family="Helvetica,sans-Serif" font-size="11.00">text[2147483647]</text>
<polygon fill="none" stroke="black" stroke-width="2" points="9,-38 9,-590 475,-590 475,-38 9,-38"/>
</a>
</g>
</g>
</g>
</svg>
